<svg width="181" height="18" viewBox="0 0 181 18" fill="none" xmlns="http://www.w3.org/2000/svg">
<path d="M4.39359 9.9L7.57359 1.76L10.6936 9.9H4.39359ZM2.45359 15L3.97359 11.1H11.1536L12.6936 15H14.1136L8.35359 0.559999H6.83359L1.11359 15H2.45359ZM19.0734 9.22C19.0734 7.42 19.9734 5.76 21.9534 5.76C23.5934 5.76 24.5934 6.78 24.5934 8.52V15H25.7934V8.72C25.7934 7.56 25.5334 4.66 22.2534 4.66C20.9534 4.66 19.8134 5.24 19.1134 6.48L19.0734 6.44L19.0134 4.96H17.7734C17.8134 5.64 17.8734 6.44 17.8734 7.22V15H19.0734V9.22ZM37.8667 9.74C37.8667 12.02 37.0667 14.2 34.4467 14.2C32.1467 14.2 31.6067 11.66 31.6067 9.8C31.6067 7.88 32.3467 5.76 34.6267 5.76C36.9667 5.76 37.8667 7.7 37.8667 9.74ZM37.9667 15H39.2067C39.1667 14.32 39.1067 13.52 39.1067 12.74V0.559999H37.9067V6.44L37.8667 6.48C37.1667 5.3 35.7667 4.66 34.4267 4.66C31.4467 4.66 30.3067 7.34 30.3067 9.94C30.3067 12.46 31.4467 15.3 34.4267 15.3C35.8267 15.3 37.0467 14.64 37.8667 13.44L37.9067 13.52L37.9667 15ZM52.8664 0.559999H51.6664V15H52.8664V9.22C52.8664 7.42 53.7664 5.76 55.7464 5.76C57.3864 5.76 58.3864 6.78 58.3864 8.52V15H59.5864V8.72C59.5864 7.56 59.3264 4.66 56.0464 4.66C54.7464 4.66 53.6064 5.24 52.9064 6.48H52.8664V0.559999ZM65.1997 12.2C65.1997 9.68 68.7597 10 70.4597 9.94C70.5797 12.04 70.0797 14.2 67.4597 14.2C66.2397 14.2 65.1997 13.56 65.1997 12.2ZM70.4597 8.84C68.9997 8.92 67.2597 8.72 65.9197 9.3C64.7197 9.8 63.8997 10.84 63.8997 12.2C63.8997 14.16 65.3797 15.3 67.2397 15.3C68.5997 15.3 69.9397 14.5 70.3797 13.66L70.4397 13.52H70.4797L70.5197 15H71.7597C71.7197 14.32 71.6397 13.52 71.6597 12.74V7.98C71.6997 5.68 70.3197 4.66 68.0997 4.66C66.1797 4.66 64.6397 5.44 64.3397 7.5H65.6197C65.7797 6.14 66.8197 5.76 68.0797 5.76C69.4997 5.76 70.3397 6.28 70.4597 7.92V8.84ZM77.9797 8.96C78.0197 7.04 78.9597 5.76 80.7397 5.76C80.9797 5.76 81.2397 5.82 81.4797 5.84V4.68C81.0797 4.66 80.6797 4.64 80.2797 4.66C79.2797 4.7 78.3797 5.42 78.0197 6.44H77.9797L77.9197 4.96H76.6797C76.7197 5.64 76.7997 6.44 76.7797 7.22V15H77.9797V8.96ZM85.8598 12.2C85.8598 9.68 89.4198 10 91.1198 9.94C91.2398 12.04 90.7398 14.2 88.1198 14.2C86.8998 14.2 85.8598 13.56 85.8598 12.2ZM91.1198 8.84C89.6598 8.92 87.9198 8.72 86.5798 9.3C85.3798 9.8 84.5598 10.84 84.5598 12.2C84.5598 14.16 86.0398 15.3 87.8998 15.3C89.2598 15.3 90.5998 14.5 91.0398 13.66L91.0998 13.52H91.1398L91.1798 15H92.4198C92.3798 14.32 92.2998 13.52 92.3198 12.74V7.98C92.3598 5.68 90.9798 4.66 88.7598 4.66C86.8398 4.66 85.2998 5.44 84.9998 7.5H86.2798C86.4398 6.14 87.4798 5.76 88.7398 5.76C90.1598 5.76 90.9998 6.28 91.1198 7.92V8.84ZM97.0998 7.46C97.0998 9.32 98.6998 9.78 100.28 10.16C101.88 10.52 103.46 10.76 103.46 12.2C103.46 13.6 102.12 14.2 100.84 14.2C99.4798 14.2 98.1598 13.76 98.0598 12.26H96.7598C96.7998 14.48 98.7998 15.3 100.54 15.3C102.66 15.3 104.76 14.28 104.76 12.02C104.76 10.94 104.1 10.04 103.06 9.68C100.34 8.72 98.3998 8.86 98.3998 7.38C98.3998 6.2 99.5398 5.76 100.66 5.76C101.9 5.76 103.02 6.18 103.14 7.44H104.44C104.28 5.32 102.68 4.66 100.78 4.66C99.0198 4.66 97.0998 5.38 97.0998 7.46ZM109.1 7.46C109.1 9.32 110.7 9.78 112.28 10.16C113.88 10.52 115.46 10.76 115.46 12.2C115.46 13.6 114.12 14.2 112.84 14.2C111.48 14.2 110.16 13.76 110.06 12.26H108.76C108.8 14.48 110.8 15.3 112.54 15.3C114.66 15.3 116.76 14.28 116.76 12.02C116.76 10.94 116.1 10.04 115.06 9.68C112.34 8.72 110.4 8.86 110.4 7.38C110.4 6.2 111.54 5.76 112.66 5.76C113.9 5.76 115.02 6.18 115.14 7.44H116.44C116.28 5.32 114.68 4.66 112.78 4.66C111.02 4.66 109.1 5.38 109.1 7.46ZM122.56 4.96H121.32C121.36 5.64 121.42 6.44 121.42 7.22V15H122.62V9.22C122.62 7.42 123.52 5.76 125.5 5.76C127.14 5.76 128.14 6.78 128.14 8.52V15H129.34V9.22C129.34 7.42 130.24 5.76 132.22 5.76C133.86 5.76 134.86 6.78 134.86 8.52V15H136.06V8.72C136.06 7.56 135.8 4.66 132.52 4.66C130.96 4.66 129.8 5.68 129.06 6.86C128.62 5.54 127.38 4.66 125.8 4.66C124.5 4.66 123.36 5.24 122.66 6.48L122.62 6.44L122.56 4.96ZM149.673 10.26C149.673 7.12 148.453 4.66 145.093 4.66C142.113 4.66 140.613 7.26 140.613 9.98C140.613 12.72 142.013 15.3 145.013 15.3C147.433 15.3 148.933 14.2 149.553 11.8H148.293C147.993 13.18 146.813 14.2 145.393 14.2C142.933 14.2 141.953 12.4 141.913 10.26H149.673ZM141.953 9.16C142.113 7.4 143.153 5.76 145.113 5.76C147.193 5.76 148.233 7.22 148.373 9.16H141.953ZM155.527 9.22C155.527 7.42 156.427 5.76 158.407 5.76C160.047 5.76 161.047 6.78 161.047 8.52V15H162.247V8.72C162.247 7.56 161.987 4.66 158.707 4.66C157.407 4.66 156.267 5.24 155.567 6.48L155.527 6.44L155.467 4.96H154.227C154.267 5.64 154.327 6.44 154.327 7.22V15H155.527V9.22ZM168.3 12.32C168.3 13.68 168.16 15.3 170.7 15.3C171.1 15.3 171.54 15.22 171.92 15.12V14.08C171.6 14.18 171.24 14.2 170.88 14.2C169.96 14.2 169.48 13.7 169.5 12.78V6.06H171.78V4.96H169.5V2.3L168.3 2.82V4.96H166.3V6.06H168.3V12.32ZM176.54 13.38L175.68 17.48H176.72L178.16 13.38H176.54Z" fill="white"/>
<path d="M0.933594 17H180.06V18H0.933594V17Z" fill="white"/>
</svg>
