<svg width="484" height="19" viewBox="0 0 484 19" fill="none" xmlns="http://www.w3.org/2000/svg">
<path d="M4.01242 15V8.1H11.8924V15H13.1924V0.559999H11.8924V6.9H4.01242V0.559999H2.71242V15H4.01242ZM18.786 4.96V15H19.986V4.96H18.786ZM20.086 0.559999H18.686V2.06H20.086V0.559999ZM24.8596 7.46C24.8596 9.32 26.4596 9.78 28.0396 10.16C29.6396 10.52 31.2196 10.76 31.2196 12.2C31.2196 13.6 29.8796 14.2 28.5996 14.2C27.2396 14.2 25.9196 13.76 25.8196 12.26H24.5196C24.5596 14.48 26.5596 15.3 28.2996 15.3C30.4196 15.3 32.5196 14.28 32.5196 12.02C32.5196 10.94 31.8596 10.04 30.8196 9.68C28.0996 8.72 26.1596 8.86 26.1596 7.38C26.1596 6.2 27.2996 5.76 28.4196 5.76C29.6596 5.76 30.7796 6.18 30.8996 7.44H32.1996C32.0396 5.32 30.4396 4.66 28.5396 4.66C26.7796 4.66 24.8596 5.38 24.8596 7.46ZM46.826 15V6.06H49.106V4.96H46.826V3.68C46.766 2.24 46.806 1.42 48.446 1.42C48.686 1.42 48.946 1.46 49.186 1.5V0.539999C48.826 0.459999 48.426 0.319999 48.046 0.319999C46.326 0.319999 45.626 1.1 45.626 2.82V4.96H43.606V6.06H45.626V15H46.826ZM53.4555 12.2C53.4555 9.68 57.0155 10 58.7155 9.94C58.8355 12.04 58.3355 14.2 55.7155 14.2C54.4955 14.2 53.4555 13.56 53.4555 12.2ZM58.7155 8.84C57.2555 8.92 55.5155 8.72 54.1755 9.3C52.9755 9.8 52.1555 10.84 52.1555 12.2C52.1555 14.16 53.6355 15.3 55.4955 15.3C56.8555 15.3 58.1955 14.5 58.6355 13.66L58.6955 13.52H58.7355L58.7755 15H60.0155C59.9755 14.32 59.8955 13.52 59.9155 12.74V7.98C59.9555 5.68 58.5755 4.66 56.3555 4.66C54.4355 4.66 52.8955 5.44 52.5955 7.5H53.8755C54.0355 6.14 55.0755 5.76 56.3355 5.76C57.7555 5.76 58.5955 6.28 58.7155 7.92V8.84ZM65.8955 12.32C65.8955 13.68 65.7555 15.3 68.2955 15.3C68.6955 15.3 69.1355 15.22 69.5155 15.12V14.08C69.1955 14.18 68.8355 14.2 68.4755 14.2C67.5555 14.2 67.0755 13.7 67.0955 12.78V6.06H69.3755V4.96H67.0955V2.3L65.8955 2.82V4.96H63.8955V6.06H65.8955V12.32ZM74.8957 0.559999H73.6957V15H74.8957V9.22C74.8957 7.42 75.7957 5.76 77.7757 5.76C79.4157 5.76 80.4157 6.78 80.4157 8.52V15H81.6157V8.72C81.6157 7.56 81.3557 4.66 78.0757 4.66C76.7757 4.66 75.6357 5.24 74.9357 6.48H74.8957V0.559999ZM95.269 10.26C95.269 7.12 94.049 4.66 90.689 4.66C87.709 4.66 86.209 7.26 86.209 9.98C86.209 12.72 87.609 15.3 90.609 15.3C93.029 15.3 94.529 14.2 95.149 11.8H93.889C93.589 13.18 92.409 14.2 90.989 14.2C88.529 14.2 87.549 12.4 87.509 10.26H95.269ZM87.549 9.16C87.709 7.4 88.749 5.76 90.709 5.76C92.789 5.76 93.829 7.22 93.969 9.16H87.549ZM101.122 8.96C101.162 7.04 102.102 5.76 103.882 5.76C104.122 5.76 104.382 5.82 104.622 5.84V4.68C104.222 4.66 103.822 4.64 103.422 4.66C102.422 4.7 101.522 5.42 101.162 6.44H101.122L101.062 4.96H99.8223C99.8623 5.64 99.9423 6.44 99.9223 7.22V15H101.122V8.96ZM123.789 8.04C123.689 5.9 122.009 4.66 119.949 4.66C116.969 4.66 115.469 7.26 115.469 9.98C115.469 12.72 116.869 15.3 119.869 15.3C122.149 15.3 123.469 14.16 123.789 11.86H122.489C122.389 13.24 121.309 14.2 119.749 14.2C117.909 14.2 116.769 12.26 116.769 9.96C116.769 7.68 117.909 5.76 119.749 5.76C121.409 5.76 122.389 6.5 122.489 8.04H123.789ZM135.489 9.98C135.489 11.84 134.529 14.2 132.109 14.2C129.689 14.2 128.729 11.84 128.729 9.98C128.729 8.12 129.689 5.76 132.109 5.76C134.529 5.76 135.489 8.12 135.489 9.98ZM132.109 4.66C128.909 4.66 127.429 7.34 127.429 9.98C127.429 12.62 128.909 15.3 132.109 15.3C135.309 15.3 136.789 12.62 136.789 9.98C136.789 7.34 135.309 4.66 132.109 4.66ZM142.382 4.96H141.142C141.182 5.64 141.242 6.44 141.242 7.22V15H142.442V9.22C142.442 7.42 143.342 5.76 145.322 5.76C146.962 5.76 147.962 6.78 147.962 8.52V15H149.162V9.22C149.162 7.42 150.062 5.76 152.042 5.76C153.682 5.76 154.682 6.78 154.682 8.52V15H155.882V8.72C155.882 7.56 155.622 4.66 152.342 4.66C150.782 4.66 149.622 5.68 148.882 6.86C148.442 5.54 147.202 4.66 145.622 4.66C144.322 4.66 143.182 5.24 142.482 6.48L142.442 6.44L142.382 4.96ZM169.496 10.26C169.496 7.12 168.276 4.66 164.916 4.66C161.936 4.66 160.436 7.26 160.436 9.98C160.436 12.72 161.836 15.3 164.836 15.3C167.256 15.3 168.756 14.2 169.376 11.8H168.116C167.816 13.18 166.636 14.2 165.216 14.2C162.756 14.2 161.776 12.4 161.736 10.26H169.496ZM161.776 9.16C161.936 7.4 162.976 5.76 164.936 5.76C167.016 5.76 168.056 7.22 168.196 9.16H161.776ZM173.809 7.46C173.809 9.32 175.409 9.78 176.989 10.16C178.589 10.52 180.169 10.76 180.169 12.2C180.169 13.6 178.829 14.2 177.549 14.2C176.189 14.2 174.869 13.76 174.769 12.26H173.469C173.509 14.48 175.509 15.3 177.249 15.3C179.369 15.3 181.469 14.28 181.469 12.02C181.469 10.94 180.809 10.04 179.769 9.68C177.049 8.72 175.109 8.86 175.109 7.38C175.109 6.2 176.249 5.76 177.369 5.76C178.609 5.76 179.729 6.18 179.849 7.44H181.149C180.989 5.32 179.389 4.66 177.489 4.66C175.729 4.66 173.809 5.38 173.809 7.46ZM194.915 0.559999H193.715V15H194.915V9.22C194.915 7.42 195.815 5.76 197.795 5.76C199.435 5.76 200.435 6.78 200.435 8.52V15H201.635V8.72C201.635 7.56 201.375 4.66 198.095 4.66C196.795 4.66 195.655 5.24 194.955 6.48H194.915V0.559999ZM214.169 9.98C214.169 11.84 213.209 14.2 210.789 14.2C208.369 14.2 207.409 11.84 207.409 9.98C207.409 8.12 208.369 5.76 210.789 5.76C213.209 5.76 214.169 8.12 214.169 9.98ZM210.789 4.66C207.589 4.66 206.109 7.34 206.109 9.98C206.109 12.62 207.589 15.3 210.789 15.3C213.989 15.3 215.469 12.62 215.469 9.98C215.469 7.34 213.989 4.66 210.789 4.66ZM221.062 4.96H219.822C219.862 5.64 219.922 6.44 219.922 7.22V15H221.122V9.22C221.122 7.42 222.022 5.76 224.002 5.76C225.642 5.76 226.642 6.78 226.642 8.52V15H227.842V9.22C227.842 7.42 228.742 5.76 230.722 5.76C232.362 5.76 233.362 6.78 233.362 8.52V15H234.562V8.72C234.562 7.56 234.302 4.66 231.022 4.66C229.462 4.66 228.302 5.68 227.562 6.86C227.122 5.54 225.882 4.66 224.302 4.66C223.002 4.66 221.862 5.24 221.162 6.48L221.122 6.44L221.062 4.96ZM248.175 10.26C248.175 7.12 246.955 4.66 243.595 4.66C240.615 4.66 239.115 7.26 239.115 9.98C239.115 12.72 240.515 15.3 243.515 15.3C245.935 15.3 247.435 14.2 248.055 11.8H246.795C246.495 13.18 245.315 14.2 243.895 14.2C241.435 14.2 240.455 12.4 240.415 10.26H248.175ZM240.455 9.16C240.615 7.4 241.655 5.76 243.615 5.76C245.695 5.76 246.735 7.22 246.875 9.16H240.455ZM260.435 4.96H259.115L262.795 15H264.015L267.155 6.34H267.195L270.275 15H271.415L275.155 4.96H273.835L270.935 13.34H270.895L267.935 4.96H266.515L263.475 13.42H263.435L260.435 4.96ZM279.075 4.96V15H280.275V4.96H279.075ZM280.375 0.559999H278.975V2.06H280.375V0.559999ZM286.349 12.32C286.349 13.68 286.209 15.3 288.749 15.3C289.149 15.3 289.589 15.22 289.969 15.12V14.08C289.649 14.18 289.289 14.2 288.929 14.2C288.009 14.2 287.529 13.7 287.549 12.78V6.06H289.829V4.96H287.549V2.3L286.349 2.82V4.96H284.349V6.06H286.349V12.32ZM295.349 0.559999H294.149V15H295.349V9.22C295.349 7.42 296.249 5.76 298.229 5.76C299.869 5.76 300.869 6.78 300.869 8.52V15H302.069V8.72C302.069 7.56 301.809 4.66 298.529 4.66C297.229 4.66 296.089 5.24 295.389 6.48H295.349V0.559999ZM315.249 12.2C315.249 9.68 318.809 10 320.509 9.94C320.629 12.04 320.129 14.2 317.509 14.2C316.289 14.2 315.249 13.56 315.249 12.2ZM320.509 8.84C319.049 8.92 317.309 8.72 315.969 9.3C314.769 9.8 313.949 10.84 313.949 12.2C313.949 14.16 315.429 15.3 317.289 15.3C318.649 15.3 319.989 14.5 320.429 13.66L320.489 13.52H320.529L320.569 15H321.809C321.769 14.32 321.689 13.52 321.709 12.74V7.98C321.749 5.68 320.369 4.66 318.149 4.66C316.229 4.66 314.689 5.44 314.389 7.5H315.669C315.829 6.14 316.869 5.76 318.129 5.76C319.549 5.76 320.389 6.28 320.509 7.92V8.84ZM333.075 4.96L337.175 15H338.535L342.515 4.96H341.195L337.855 13.34L334.395 4.96H333.075ZM354.464 10.26C354.464 7.12 353.244 4.66 349.884 4.66C346.904 4.66 345.404 7.26 345.404 9.98C345.404 12.72 346.804 15.3 349.804 15.3C352.224 15.3 353.724 14.2 354.344 11.8H353.084C352.784 13.18 351.604 14.2 350.184 14.2C347.724 14.2 346.744 12.4 346.704 10.26H354.464ZM346.744 9.16C346.904 7.4 347.944 5.76 349.904 5.76C351.984 5.76 353.024 7.22 353.164 9.16H346.744ZM360.318 8.96C360.358 7.04 361.298 5.76 363.078 5.76C363.318 5.76 363.578 5.82 363.818 5.84V4.68C363.418 4.66 363.018 4.64 362.618 4.66C361.618 4.7 360.718 5.42 360.358 6.44H360.318L360.258 4.96H359.018C359.058 5.64 359.138 6.44 359.118 7.22V15H360.318V8.96ZM367.139 4.96L371.299 15L369.779 18.84H371.099L376.639 4.96H375.339L371.979 13.36L368.599 4.96H367.139ZM389.365 0.559999H388.165V15H389.365V0.559999ZM394.999 12.2C394.999 9.68 398.559 10 400.259 9.94C400.379 12.04 399.879 14.2 397.259 14.2C396.039 14.2 394.999 13.56 394.999 12.2ZM400.259 8.84C398.799 8.92 397.059 8.72 395.719 9.3C394.519 9.8 393.699 10.84 393.699 12.2C393.699 14.16 395.179 15.3 397.039 15.3C398.399 15.3 399.739 14.5 400.179 13.66L400.239 13.52H400.279L400.319 15H401.559C401.519 14.32 401.439 13.52 401.459 12.74V7.98C401.499 5.68 400.119 4.66 397.899 4.66C395.979 4.66 394.439 5.44 394.139 7.5H395.419C395.579 6.14 396.619 5.76 397.879 5.76C399.299 5.76 400.139 6.28 400.259 7.92V8.84ZM407.779 8.96C407.819 7.04 408.759 5.76 410.539 5.76C410.779 5.76 411.039 5.82 411.279 5.84V4.68C410.879 4.66 410.479 4.64 410.079 4.66C409.079 4.7 408.179 5.42 407.819 6.44H407.779L407.719 4.96H406.479C406.519 5.64 406.599 6.44 406.579 7.22V15H407.779V8.96ZM422.159 9.76C422.159 11.72 421.279 13.86 418.979 13.86C416.779 13.86 415.839 11.64 415.839 9.8C415.839 7.96 416.759 5.76 418.939 5.76C421.099 5.76 422.159 7.84 422.159 9.76ZM422.159 6.44L422.119 6.52C421.319 5.36 420.279 4.66 418.819 4.66C415.759 4.66 414.539 7.18 414.539 9.9C414.539 12.66 415.839 14.96 418.859 14.96C420.159 14.96 421.539 14.26 422.119 13.08H422.159V14.96C422.119 16.64 420.679 17.74 419.119 17.74C417.839 17.74 416.419 17.34 416.279 16.14H414.979C414.979 18.22 417.139 18.84 418.959 18.84C419.899 18.84 420.439 18.76 421.239 18.38C423.459 17.34 423.359 15.24 423.359 13.24V7.22C423.359 6.44 423.419 5.64 423.459 4.96H422.219L422.159 6.44ZM436.812 10.26C436.812 7.12 435.592 4.66 432.232 4.66C429.252 4.66 427.752 7.26 427.752 9.98C427.752 12.72 429.152 15.3 432.152 15.3C434.572 15.3 436.072 14.2 436.692 11.8H435.432C435.132 13.18 433.952 14.2 432.532 14.2C430.072 14.2 429.092 12.4 429.052 10.26H436.812ZM429.092 9.16C429.252 7.4 430.292 5.76 432.252 5.76C434.332 5.76 435.372 7.22 435.512 9.16H429.092ZM453.272 5.76C455.552 5.76 456.332 7.92 456.332 9.84C456.332 11.7 455.752 14.2 453.452 14.2C450.832 14.2 450.032 12.06 450.032 9.78C450.032 7.74 450.932 5.76 453.272 5.76ZM450.032 13.52L450.072 13.44C450.892 14.64 452.112 15.3 453.572 15.3C456.492 15.3 457.632 12.46 457.632 9.94C457.632 7.34 456.492 4.66 453.512 4.66C452.172 4.66 450.772 5.3 450.072 6.48L450.032 6.44V0.559999H448.832V12.74C448.832 13.52 448.772 14.32 448.732 15H449.972L450.032 13.52ZM469.485 9.98C469.485 11.84 468.525 14.2 466.105 14.2C463.685 14.2 462.725 11.84 462.725 9.98C462.725 8.12 463.685 5.76 466.105 5.76C468.525 5.76 469.485 8.12 469.485 9.98ZM466.105 4.66C462.905 4.66 461.425 7.34 461.425 9.98C461.425 12.62 462.905 15.3 466.105 15.3C469.305 15.3 470.785 12.62 470.785 9.98C470.785 7.34 469.305 4.66 466.105 4.66ZM478.328 9L475.388 4.96H473.788L477.488 9.86L473.648 14.96L473.608 15H474.968L478.128 10.64L481.348 15H482.928L479.008 9.82L482.608 4.96H481.348L478.328 9Z" fill="white"/>
<path d="M0.732422 17H483.268V18H0.732422V17Z" fill="white"/>
</svg>
