<svg width="149" height="19" viewBox="0 0 149 19" fill="none" xmlns="http://www.w3.org/2000/svg">
<path d="M3.75836 15V0.5H2.45836V15H3.75836ZM10.6848 9.22C10.6848 7.42 11.5848 5.76 13.5648 5.76C15.2048 5.76 16.2048 6.78 16.2048 8.52V15H17.4048V8.72C17.4048 7.56 17.1448 4.66 13.8648 4.66C12.5648 4.66 11.4248 5.24 10.7248 6.48L10.6848 6.44L10.6248 4.96H9.38477C9.42477 5.64 9.48477 6.44 9.48477 7.22V15H10.6848V9.22ZM31.3645 0.559999H30.1645V15H31.3645V9.22C31.3645 7.42 32.2645 5.76 34.2445 5.76C35.8845 5.76 36.8845 6.78 36.8845 8.52V15H38.0845V8.72C38.0845 7.56 37.8245 4.66 34.5445 4.66C33.2445 4.66 32.1045 5.24 31.4045 6.48H31.3645V0.559999ZM43.2977 4.96V15H44.4977V4.96H43.2977ZM44.5977 0.559999H43.1977V2.06H44.5977V0.559999ZM56.6313 9.76C56.6313 11.72 55.7513 13.86 53.4513 13.86C51.2513 13.86 50.3113 11.64 50.3113 9.8C50.3113 7.96 51.2313 5.76 53.4113 5.76C55.5713 5.76 56.6313 7.84 56.6313 9.76ZM56.6313 6.44L56.5913 6.52C55.7913 5.36 54.7513 4.66 53.2913 4.66C50.2313 4.66 49.0113 7.18 49.0113 9.9C49.0113 12.66 50.3113 14.96 53.3313 14.96C54.6313 14.96 56.0113 14.26 56.5913 13.08H56.6313V14.96C56.5913 16.64 55.1513 17.74 53.5913 17.74C52.3113 17.74 50.8913 17.34 50.7513 16.14H49.4513C49.4513 18.22 51.6113 18.84 53.4313 18.84C54.3713 18.84 54.9113 18.76 55.7113 18.38C57.9313 17.34 57.8313 15.24 57.8313 13.24V7.22C57.8313 6.44 57.8913 5.64 57.9313 4.96H56.6913L56.6313 6.44ZM64.0246 0.559999H62.8246V15H64.0246V9.22C64.0246 7.42 64.9246 5.76 66.9046 5.76C68.5446 5.76 69.5446 6.78 69.5446 8.52V15H70.7446V8.72C70.7446 7.56 70.4846 4.66 67.2046 4.66C65.9046 4.66 64.7646 5.24 64.0646 6.48H64.0246V0.559999ZM83.1643 7.46C83.1643 9.32 84.7643 9.78 86.3443 10.16C87.9443 10.52 89.5243 10.76 89.5243 12.2C89.5243 13.6 88.1843 14.2 86.9043 14.2C85.5443 14.2 84.2243 13.76 84.1243 12.26H82.8243C82.8643 14.48 84.8643 15.3 86.6043 15.3C88.7243 15.3 90.8243 14.28 90.8243 12.02C90.8243 10.94 90.1643 10.04 89.1243 9.68C86.4043 8.72 84.4643 8.86 84.4643 7.38C84.4643 6.2 85.6043 5.76 86.7243 5.76C87.9643 5.76 89.0843 6.18 89.2043 7.44H90.5043C90.3443 5.32 88.7443 4.66 86.8443 4.66C85.0843 4.66 83.1643 5.38 83.1643 7.46ZM103.144 8.04C103.044 5.9 101.364 4.66 99.3043 4.66C96.3243 4.66 94.8243 7.26 94.8243 9.98C94.8243 12.72 96.2243 15.3 99.2243 15.3C101.504 15.3 102.824 14.16 103.144 11.86H101.844C101.744 13.24 100.664 14.2 99.1043 14.2C97.2643 14.2 96.1243 12.26 96.1243 9.96C96.1243 7.68 97.2643 5.76 99.1043 5.76C100.764 5.76 101.744 6.5 101.844 8.04H103.144ZM107.708 0.559999H106.508V15H107.708V9.22C107.708 7.42 108.608 5.76 110.588 5.76C112.228 5.76 113.228 6.78 113.228 8.52V15H114.428V8.72C114.428 7.56 114.168 4.66 110.888 4.66C109.588 4.66 108.448 5.24 107.748 6.48H107.708V0.559999ZM126.961 9.98C126.961 11.84 126.001 14.2 123.581 14.2C121.161 14.2 120.201 11.84 120.201 9.98C120.201 8.12 121.161 5.76 123.581 5.76C126.001 5.76 126.961 8.12 126.961 9.98ZM123.581 4.66C120.381 4.66 118.901 7.34 118.901 9.98C118.901 12.62 120.381 15.3 123.581 15.3C126.781 15.3 128.261 12.62 128.261 9.98C128.261 7.34 126.781 4.66 123.581 4.66ZM140.075 9.98C140.075 11.84 139.115 14.2 136.695 14.2C134.275 14.2 133.315 11.84 133.315 9.98C133.315 8.12 134.275 5.76 136.695 5.76C139.115 5.76 140.075 8.12 140.075 9.98ZM136.695 4.66C133.495 4.66 132.015 7.34 132.015 9.98C132.015 12.62 133.495 15.3 136.695 15.3C139.895 15.3 141.375 12.62 141.375 9.98C141.375 7.34 139.895 4.66 136.695 4.66ZM147.068 0.559999H145.868V15H147.068V0.559999Z" fill="white"/>
<path d="M0.318359 17H148.688V18H0.318359V17Z" fill="white"/>
</svg>
