<svg width="311" height="18" viewBox="0 0 311 18" fill="none" xmlns="http://www.w3.org/2000/svg">
<path d="M3.70219 9.9L6.88219 1.76L10.0022 9.9H3.70219ZM1.76219 15L3.28219 11.1H10.4622L12.0022 15H13.4222L7.66219 0.559999H6.14219L0.422188 15H1.76219ZM18.042 12.32C18.042 13.68 17.902 15.3 20.442 15.3C20.842 15.3 21.282 15.22 21.662 15.12V14.08C21.342 14.18 20.982 14.2 20.622 14.2C19.702 14.2 19.222 13.7 19.242 12.78V6.06H21.522V4.96H19.242V2.3L18.042 2.82V4.96H16.042V6.06H18.042V12.32ZM34.6286 0.559999H33.4286V15H34.6286V0.559999ZM48.3022 10.26C48.3022 7.12 47.0822 4.66 43.7222 4.66C40.7422 4.66 39.2422 7.26 39.2422 9.98C39.2422 12.72 40.6422 15.3 43.6422 15.3C46.0622 15.3 47.5622 14.2 48.1822 11.8H46.9222C46.6222 13.18 45.4422 14.2 44.0222 14.2C41.5622 14.2 40.5822 12.4 40.5422 10.26H48.3022ZM40.5822 9.16C40.7422 7.4 41.7822 5.76 43.7422 5.76C45.8222 5.76 46.8622 7.22 47.0022 9.16H40.5822ZM53.3755 12.2C53.3755 9.68 56.9355 10 58.6355 9.94C58.7555 12.04 58.2555 14.2 55.6355 14.2C54.4155 14.2 53.3755 13.56 53.3755 12.2ZM58.6355 8.84C57.1755 8.92 55.4355 8.72 54.0955 9.3C52.8955 9.8 52.0755 10.84 52.0755 12.2C52.0755 14.16 53.5555 15.3 55.4155 15.3C56.7755 15.3 58.1155 14.5 58.5555 13.66L58.6155 13.52H58.6555L58.6955 15H59.9355C59.8955 14.32 59.8155 13.52 59.8355 12.74V7.98C59.8755 5.68 58.4955 4.66 56.2755 4.66C54.3555 4.66 52.8155 5.44 52.5155 7.5H53.7955C53.9555 6.14 54.9955 5.76 56.2555 5.76C57.6755 5.76 58.5155 6.28 58.6355 7.92V8.84ZM64.6155 7.46C64.6155 9.32 66.2155 9.78 67.7955 10.16C69.3955 10.52 70.9755 10.76 70.9755 12.2C70.9755 13.6 69.6355 14.2 68.3555 14.2C66.9955 14.2 65.6755 13.76 65.5755 12.26H64.2755C64.3155 14.48 66.3155 15.3 68.0555 15.3C70.1755 15.3 72.2755 14.28 72.2755 12.02C72.2755 10.94 71.6155 10.04 70.5755 9.68C67.8555 8.72 65.9155 8.86 65.9155 7.38C65.9155 6.2 67.0555 5.76 68.1755 5.76C69.4155 5.76 70.5355 6.18 70.6555 7.44H71.9555C71.7955 5.32 70.1955 4.66 68.2955 4.66C66.5355 4.66 64.6155 5.38 64.6155 7.46ZM77.8155 12.32C77.8155 13.68 77.6755 15.3 80.2155 15.3C80.6155 15.3 81.0555 15.22 81.4355 15.12V14.08C81.1155 14.18 80.7555 14.2 80.3955 14.2C79.4755 14.2 78.9955 13.7 79.0155 12.78V6.06H81.2955V4.96H79.0155V2.3L77.8155 2.82V4.96H75.8155V6.06H77.8155V12.32ZM94.042 12.32C94.042 13.68 93.902 15.3 96.442 15.3C96.842 15.3 97.282 15.22 97.662 15.12V14.08C97.342 14.18 96.982 14.2 96.622 14.2C95.702 14.2 95.222 13.7 95.242 12.78V6.06H97.522V4.96H95.242V2.3L94.042 2.82V4.96H92.042V6.06H94.042V12.32ZM103.042 0.559999H101.842V15H103.042V9.22C103.042 7.42 103.942 5.76 105.922 5.76C107.562 5.76 108.562 6.78 108.562 8.52V15H109.762V8.72C109.762 7.56 109.502 4.66 106.222 4.66C104.922 4.66 103.782 5.24 103.082 6.48H103.042V0.559999ZM123.415 10.26C123.415 7.12 122.195 4.66 118.835 4.66C115.855 4.66 114.355 7.26 114.355 9.98C114.355 12.72 115.755 15.3 118.755 15.3C121.175 15.3 122.675 14.2 123.295 11.8H122.035C121.735 13.18 120.555 14.2 119.135 14.2C116.675 14.2 115.695 12.4 115.655 10.26H123.415ZM115.695 9.16C115.855 7.4 116.895 5.76 118.855 5.76C120.935 5.76 121.975 7.22 122.115 9.16H115.695ZM129.269 8.96C129.309 7.04 130.249 5.76 132.029 5.76C132.269 5.76 132.529 5.82 132.769 5.84V4.68C132.369 4.66 131.969 4.64 131.569 4.66C130.569 4.7 129.669 5.42 129.309 6.44H129.269L129.209 4.96H127.969C128.009 5.64 128.089 6.44 128.069 7.22V15H129.269V8.96ZM145.189 10.26C145.189 7.12 143.969 4.66 140.609 4.66C137.629 4.66 136.129 7.26 136.129 9.98C136.129 12.72 137.529 15.3 140.529 15.3C142.949 15.3 144.449 14.2 145.069 11.8H143.809C143.509 13.18 142.329 14.2 140.909 14.2C138.449 14.2 137.469 12.4 137.429 10.26H145.189ZM137.469 9.16C137.629 7.4 138.669 5.76 140.629 5.76C142.709 5.76 143.749 7.22 143.889 9.16H137.469ZM157.449 4.96H156.129L159.809 15H161.029L164.169 6.34H164.209L167.289 15H168.429L172.169 4.96H170.849L167.949 13.34H167.909L164.949 4.96H163.529L160.489 13.42H160.449L157.449 4.96ZM176.098 12.2C176.098 9.68 179.658 10 181.358 9.94C181.478 12.04 180.978 14.2 178.358 14.2C177.138 14.2 176.098 13.56 176.098 12.2ZM181.358 8.84C179.898 8.92 178.158 8.72 176.818 9.3C175.618 9.8 174.798 10.84 174.798 12.2C174.798 14.16 176.278 15.3 178.138 15.3C179.498 15.3 180.838 14.5 181.278 13.66L181.338 13.52H181.378L181.418 15H182.658C182.618 14.32 182.538 13.52 182.558 12.74V7.98C182.598 5.68 181.218 4.66 178.998 4.66C177.078 4.66 175.538 5.44 175.238 7.5H176.518C176.678 6.14 177.718 5.76 178.978 5.76C180.398 5.76 181.238 6.28 181.358 7.92V8.84ZM187.338 7.46C187.338 9.32 188.938 9.78 190.518 10.16C192.118 10.52 193.698 10.76 193.698 12.2C193.698 13.6 192.358 14.2 191.078 14.2C189.718 14.2 188.398 13.76 188.298 12.26H186.998C187.038 14.48 189.038 15.3 190.778 15.3C192.898 15.3 194.998 14.28 194.998 12.02C194.998 10.94 194.338 10.04 193.298 9.68C190.578 8.72 188.638 8.86 188.638 7.38C188.638 6.2 189.778 5.76 190.898 5.76C192.138 5.76 193.258 6.18 193.378 7.44H194.678C194.518 5.32 192.918 4.66 191.018 4.66C189.258 4.66 187.338 5.38 187.338 7.46ZM207.665 12.2C207.665 9.68 211.225 10 212.925 9.94C213.045 12.04 212.545 14.2 209.925 14.2C208.705 14.2 207.665 13.56 207.665 12.2ZM212.925 8.84C211.465 8.92 209.725 8.72 208.385 9.3C207.185 9.8 206.365 10.84 206.365 12.2C206.365 14.16 207.845 15.3 209.705 15.3C211.065 15.3 212.405 14.5 212.845 13.66L212.905 13.52H212.945L212.985 15H214.225C214.185 14.32 214.105 13.52 214.125 12.74V7.98C214.165 5.68 212.785 4.66 210.565 4.66C208.645 4.66 207.105 5.44 206.805 7.5H208.085C208.245 6.14 209.285 5.76 210.545 5.76C211.965 5.76 212.805 6.28 212.925 7.92V8.84ZM227.931 4.96H226.691C226.731 5.64 226.791 6.44 226.791 7.22V15H227.991V9.22C227.991 7.42 228.891 5.76 230.871 5.76C232.511 5.76 233.511 6.78 233.511 8.52V15H234.711V9.22C234.711 7.42 235.611 5.76 237.591 5.76C239.231 5.76 240.231 6.78 240.231 8.52V15H241.431V8.72C241.431 7.56 241.171 4.66 237.891 4.66C236.331 4.66 235.171 5.68 234.431 6.86C233.991 5.54 232.751 4.66 231.171 4.66C229.871 4.66 228.731 5.24 228.031 6.48L227.991 6.44L227.931 4.96ZM253.924 9.98C253.924 11.84 252.964 14.2 250.544 14.2C248.124 14.2 247.164 11.84 247.164 9.98C247.164 8.12 248.124 5.76 250.544 5.76C252.964 5.76 253.924 8.12 253.924 9.98ZM250.544 4.66C247.344 4.66 245.864 7.34 245.864 9.98C245.864 12.62 247.344 15.3 250.544 15.3C253.744 15.3 255.224 12.62 255.224 9.98C255.224 7.34 253.744 4.66 250.544 4.66ZM260.818 4.96H259.578C259.618 5.64 259.678 6.44 259.678 7.22V15H260.878V9.22C260.878 7.42 261.778 5.76 263.758 5.76C265.398 5.76 266.398 6.78 266.398 8.52V15H267.598V9.22C267.598 7.42 268.498 5.76 270.478 5.76C272.118 5.76 273.118 6.78 273.118 8.52V15H274.318V8.72C274.318 7.56 274.058 4.66 270.778 4.66C269.218 4.66 268.058 5.68 267.318 6.86C266.878 5.54 265.638 4.66 264.058 4.66C262.758 4.66 261.618 5.24 260.918 6.48L260.878 6.44L260.818 4.96ZM287.931 10.26C287.931 7.12 286.711 4.66 283.351 4.66C280.371 4.66 278.871 7.26 278.871 9.98C278.871 12.72 280.271 15.3 283.271 15.3C285.691 15.3 287.191 14.2 287.811 11.8H286.551C286.251 13.18 285.071 14.2 283.651 14.2C281.191 14.2 280.211 12.4 280.171 10.26H287.931ZM280.211 9.16C280.371 7.4 281.411 5.76 283.371 5.76C285.451 5.76 286.491 7.22 286.631 9.16H280.211ZM293.784 9.22C293.784 7.42 294.684 5.76 296.664 5.76C298.304 5.76 299.304 6.78 299.304 8.52V15H300.504V8.72C300.504 7.56 300.244 4.66 296.964 4.66C295.664 4.66 294.524 5.24 293.824 6.48L293.784 6.44L293.724 4.96H292.484C292.524 5.64 292.584 6.44 292.584 7.22V15H293.784V9.22ZM306.558 12.32C306.558 13.68 306.418 15.3 308.958 15.3C309.358 15.3 309.798 15.22 310.178 15.12V14.08C309.858 14.18 309.498 14.2 309.138 14.2C308.218 14.2 307.738 13.7 307.758 12.78V6.06H310.038V4.96H307.758V2.3L306.558 2.82V4.96H304.558V6.06H306.558V12.32Z" fill="white"/>
<path d="M0.242188 17H310.758V18H0.242188V17Z" fill="white"/>
</svg>
