<svg width="367" height="19" viewBox="0 0 367 19" fill="none" xmlns="http://www.w3.org/2000/svg">
<path d="M4.34039 15V0.5H3.04039V15H4.34039ZM10.9268 12.32C10.9268 13.68 10.7868 15.3 13.3268 15.3C13.7268 15.3 14.1668 15.22 14.5468 15.12V14.08C14.2268 14.18 13.8668 14.2 13.5068 14.2C12.5868 14.2 12.1068 13.7 12.1268 12.78V6.06H14.4068V4.96H12.1268V2.3L10.9268 2.82V4.96H8.9268V6.06H10.9268V12.32ZM26.3334 4.96H25.0134L28.6934 15H29.9134L33.0534 6.34H33.0934L36.1734 15H37.3134L41.0534 4.96H39.7334L36.8334 13.34H36.7934L33.8334 4.96H32.4134L29.3734 13.42H29.3334L26.3334 4.96ZM44.9829 12.2C44.9829 9.68 48.5429 10 50.2429 9.94C50.3629 12.04 49.8629 14.2 47.2429 14.2C46.0229 14.2 44.9829 13.56 44.9829 12.2ZM50.2429 8.84C48.7829 8.92 47.0429 8.72 45.7029 9.3C44.5029 9.8 43.6829 10.84 43.6829 12.2C43.6829 14.16 45.1629 15.3 47.0229 15.3C48.3829 15.3 49.7229 14.5 50.1629 13.66L50.2229 13.52H50.2629L50.3029 15H51.5429C51.5029 14.32 51.4229 13.52 51.4429 12.74V7.98C51.4829 5.68 50.1029 4.66 47.8829 4.66C45.9629 4.66 44.4229 5.44 44.1229 7.5H45.4029C45.5629 6.14 46.6029 5.76 47.8629 5.76C49.2829 5.76 50.1229 6.28 50.2429 7.92V8.84ZM56.2229 7.46C56.2229 9.32 57.8229 9.78 59.4029 10.16C61.0029 10.52 62.5829 10.76 62.5829 12.2C62.5829 13.6 61.2429 14.2 59.9629 14.2C58.6029 14.2 57.2829 13.76 57.1829 12.26H55.8829C55.9229 14.48 57.9229 15.3 59.6629 15.3C61.7829 15.3 63.8829 14.28 63.8829 12.02C63.8829 10.94 63.2229 10.04 62.1829 9.68C59.4629 8.72 57.5229 8.86 57.5229 7.38C57.5229 6.2 58.6629 5.76 59.7829 5.76C61.0229 5.76 62.1429 6.18 62.2629 7.44H63.5629C63.4029 5.32 61.8029 4.66 59.9029 4.66C58.1429 4.66 56.2229 5.38 56.2229 7.46ZM76.5493 12.2C76.5493 9.68 80.1093 10 81.8093 9.94C81.9293 12.04 81.4293 14.2 78.8093 14.2C77.5893 14.2 76.5493 13.56 76.5493 12.2ZM81.8093 8.84C80.3493 8.92 78.6093 8.72 77.2693 9.3C76.0693 9.8 75.2493 10.84 75.2493 12.2C75.2493 14.16 76.7293 15.3 78.5893 15.3C79.9493 15.3 81.2893 14.5 81.7293 13.66L81.7893 13.52H81.8293L81.8693 15H83.1093C83.0693 14.32 82.9893 13.52 83.0093 12.74V7.98C83.0493 5.68 81.6693 4.66 79.4493 4.66C77.5293 4.66 75.9893 5.44 75.6893 7.5H76.9693C77.1293 6.14 78.1693 5.76 79.4293 5.76C80.8493 5.76 81.6893 6.28 81.8093 7.92V8.84ZM89.3293 9.22C89.3293 7.42 90.2293 5.76 92.2093 5.76C93.8493 5.76 94.8493 6.78 94.8493 8.52V15H96.0493V8.72C96.0493 7.56 95.7893 4.66 92.5093 4.66C91.2093 4.66 90.0693 5.24 89.3693 6.48L89.3293 6.44L89.2693 4.96H88.0293C88.0693 5.64 88.1293 6.44 88.1293 7.22V15H89.3293V9.22ZM108.583 9.98C108.583 11.84 107.623 14.2 105.203 14.2C102.783 14.2 101.823 11.84 101.823 9.98C101.823 8.12 102.783 5.76 105.203 5.76C107.623 5.76 108.583 8.12 108.583 9.98ZM105.203 4.66C102.003 4.66 100.523 7.34 100.523 9.98C100.523 12.62 102.003 15.3 105.203 15.3C108.403 15.3 109.883 12.62 109.883 9.98C109.883 7.34 108.403 4.66 105.203 4.66ZM115.216 12.32C115.216 13.68 115.076 15.3 117.616 15.3C118.016 15.3 118.456 15.22 118.836 15.12V14.08C118.516 14.18 118.156 14.2 117.796 14.2C116.876 14.2 116.396 13.7 116.416 12.78V6.06H118.696V4.96H116.416V2.3L115.216 2.82V4.96H113.216V6.06H115.216V12.32ZM124.216 0.559999H123.016V15H124.216V9.22C124.216 7.42 125.116 5.76 127.096 5.76C128.736 5.76 129.736 6.78 129.736 8.52V15H130.936V8.72C130.936 7.56 130.676 4.66 127.396 4.66C126.096 4.66 124.956 5.24 124.256 6.48H124.216V0.559999ZM144.589 10.26C144.589 7.12 143.369 4.66 140.009 4.66C137.029 4.66 135.529 7.26 135.529 9.98C135.529 12.72 136.929 15.3 139.929 15.3C142.349 15.3 143.849 14.2 144.469 11.8H143.209C142.909 13.18 141.729 14.2 140.309 14.2C137.849 14.2 136.869 12.4 136.829 10.26H144.589ZM136.869 9.16C137.029 7.4 138.069 5.76 140.029 5.76C142.109 5.76 143.149 7.22 143.289 9.16H136.869ZM150.443 8.96C150.483 7.04 151.423 5.76 153.203 5.76C153.443 5.76 153.703 5.82 153.943 5.84V4.68C153.543 4.66 153.143 4.64 152.743 4.66C151.743 4.7 150.843 5.42 150.483 6.44H150.443L150.383 4.96H149.143C149.183 5.64 149.263 6.44 149.243 7.22V15H150.443V8.96ZM165.129 7.46C165.129 9.32 166.729 9.78 168.309 10.16C169.909 10.52 171.489 10.76 171.489 12.2C171.489 13.6 170.149 14.2 168.869 14.2C167.509 14.2 166.189 13.76 166.089 12.26H164.789C164.829 14.48 166.829 15.3 168.569 15.3C170.689 15.3 172.789 14.28 172.789 12.02C172.789 10.94 172.129 10.04 171.089 9.68C168.369 8.72 166.429 8.86 166.429 7.38C166.429 6.2 167.569 5.76 168.689 5.76C169.929 5.76 171.049 6.18 171.169 7.44H172.469C172.309 5.32 170.709 4.66 168.809 4.66C167.049 4.66 165.129 5.38 165.129 7.46ZM185.109 8.04C185.009 5.9 183.329 4.66 181.269 4.66C178.289 4.66 176.789 7.26 176.789 9.98C176.789 12.72 178.189 15.3 181.189 15.3C183.469 15.3 184.789 14.16 185.109 11.86H183.809C183.709 13.24 182.629 14.2 181.069 14.2C179.229 14.2 178.089 12.26 178.089 9.96C178.089 7.68 179.229 5.76 181.069 5.76C182.729 5.76 183.709 6.5 183.809 8.04H185.109ZM189.673 0.559999H188.473V15H189.673V9.22C189.673 7.42 190.573 5.76 192.553 5.76C194.193 5.76 195.193 6.78 195.193 8.52V15H196.393V8.72C196.393 7.56 196.133 4.66 192.853 4.66C191.553 4.66 190.413 5.24 189.713 6.48H189.673V0.559999ZM208.926 9.98C208.926 11.84 207.966 14.2 205.546 14.2C203.126 14.2 202.166 11.84 202.166 9.98C202.166 8.12 203.126 5.76 205.546 5.76C207.966 5.76 208.926 8.12 208.926 9.98ZM205.546 4.66C202.346 4.66 200.866 7.34 200.866 9.98C200.866 12.62 202.346 15.3 205.546 15.3C208.746 15.3 210.226 12.62 210.226 9.98C210.226 7.34 208.746 4.66 205.546 4.66ZM222.04 9.98C222.04 11.84 221.08 14.2 218.66 14.2C216.24 14.2 215.28 11.84 215.28 9.98C215.28 8.12 216.24 5.76 218.66 5.76C221.08 5.76 222.04 8.12 222.04 9.98ZM218.66 4.66C215.46 4.66 213.98 7.34 213.98 9.98C213.98 12.62 215.46 15.3 218.66 15.3C221.86 15.3 223.34 12.62 223.34 9.98C223.34 7.34 221.86 4.66 218.66 4.66ZM229.033 0.559999H227.833V15H229.033V0.559999ZM248.693 9.74C248.693 12.02 247.893 14.2 245.273 14.2C242.973 14.2 242.433 11.66 242.433 9.8C242.433 7.88 243.173 5.76 245.453 5.76C247.793 5.76 248.693 7.7 248.693 9.74ZM248.793 15H250.033C249.993 14.32 249.933 13.52 249.933 12.74V0.559999H248.733V6.44L248.693 6.48C247.993 5.3 246.593 4.66 245.253 4.66C242.273 4.66 241.133 7.34 241.133 9.94C241.133 12.46 242.273 15.3 245.253 15.3C246.653 15.3 247.873 14.64 248.693 13.44L248.733 13.52L248.793 15ZM255.346 12.2C255.346 9.68 258.906 10 260.606 9.94C260.726 12.04 260.226 14.2 257.606 14.2C256.386 14.2 255.346 13.56 255.346 12.2ZM260.606 8.84C259.146 8.92 257.406 8.72 256.066 9.3C254.866 9.8 254.046 10.84 254.046 12.2C254.046 14.16 255.526 15.3 257.386 15.3C258.746 15.3 260.086 14.5 260.526 13.66L260.586 13.52H260.626L260.666 15H261.906C261.866 14.32 261.786 13.52 261.806 12.74V7.98C261.846 5.68 260.466 4.66 258.246 4.66C256.326 4.66 254.786 5.44 254.486 7.5H255.766C255.926 6.14 256.966 5.76 258.226 5.76C259.646 5.76 260.486 6.28 260.606 7.92V8.84ZM265.096 4.96L269.256 15L267.736 18.84H269.056L274.596 4.96H273.296L269.936 13.36L266.556 4.96H265.096ZM288.162 15V6.06H290.442V4.96H288.162V3.68C288.102 2.24 288.142 1.42 289.782 1.42C290.022 1.42 290.282 1.46 290.522 1.5V0.539999C290.162 0.459999 289.762 0.319999 289.382 0.319999C287.662 0.319999 286.962 1.1 286.962 2.82V4.96H284.942V6.06H286.962V15H288.162ZM301.711 9.98C301.711 11.84 300.751 14.2 298.331 14.2C295.911 14.2 294.951 11.84 294.951 9.98C294.951 8.12 295.911 5.76 298.331 5.76C300.751 5.76 301.711 8.12 301.711 9.98ZM298.331 4.66C295.131 4.66 293.651 7.34 293.651 9.98C293.651 12.62 295.131 15.3 298.331 15.3C301.531 15.3 303.011 12.62 303.011 9.98C303.011 7.34 301.531 4.66 298.331 4.66ZM308.685 8.96C308.725 7.04 309.665 5.76 311.445 5.76C311.685 5.76 311.945 5.82 312.185 5.84V4.68C311.785 4.66 311.385 4.64 310.985 4.66C309.985 4.7 309.085 5.42 308.725 6.44H308.685L308.625 4.96H307.385C307.425 5.64 307.505 6.44 307.485 7.22V15H308.685V8.96ZM325.064 9.9L328.244 1.76L331.364 9.9H325.064ZM323.124 15L324.644 11.1H331.824L333.364 15H334.784L329.024 0.559999H327.504L321.784 15H323.124ZM339.763 0.559999H338.563V15H339.763V0.559999ZM353.437 10.26C353.437 7.12 352.217 4.66 348.857 4.66C345.877 4.66 344.377 7.26 344.377 9.98C344.377 12.72 345.777 15.3 348.777 15.3C351.197 15.3 352.697 14.2 353.317 11.8H352.057C351.757 13.18 350.577 14.2 349.157 14.2C346.697 14.2 345.717 12.4 345.677 10.26H353.437ZM345.717 9.16C345.877 7.4 346.917 5.76 348.877 5.76C350.957 5.76 351.997 7.22 352.137 9.16H345.717ZM361.16 9L358.22 4.96H356.62L360.32 9.86L356.48 14.96L356.44 15H357.8L360.96 10.64L364.18 15H365.76L361.84 9.82L365.44 4.96H364.18L361.16 9Z" fill="white"/>
<path d="M0.900391 17H366.1V18H0.900391V17Z" fill="white"/>
</svg>
