<svg width="293" height="18" viewBox="0 0 293 18" fill="none" xmlns="http://www.w3.org/2000/svg">
<path d="M10.8814 1.9H10.9214L15.1814 15H16.9614L20.7614 0.559999H19.5014L16.1614 13.7H16.1214L11.7214 0.559999H10.1414L5.92141 13.7H5.88141L2.52141 0.559999H1.14141L4.90141 15H6.74141L10.8814 1.9ZM24.1606 12.2C24.1606 9.68 27.7206 10 29.4206 9.94C29.5406 12.04 29.0406 14.2 26.4206 14.2C25.2006 14.2 24.1606 13.56 24.1606 12.2ZM29.4206 8.84C27.9606 8.92 26.2206 8.72 24.8806 9.3C23.6806 9.8 22.8606 10.84 22.8606 12.2C22.8606 14.16 24.3406 15.3 26.2006 15.3C27.5606 15.3 28.9006 14.5 29.3406 13.66L29.4006 13.52H29.4406L29.4806 15H30.7206C30.6806 14.32 30.6006 13.52 30.6206 12.74V7.98C30.6606 5.68 29.2806 4.66 27.0606 4.66C25.1406 4.66 23.6006 5.44 23.3006 7.5H24.5806C24.7406 6.14 25.7806 5.76 27.0406 5.76C28.4606 5.76 29.3006 6.28 29.4206 7.92V8.84ZM35.4006 7.46C35.4006 9.32 37.0006 9.78 38.5806 10.16C40.1806 10.52 41.7606 10.76 41.7606 12.2C41.7606 13.6 40.4206 14.2 39.1406 14.2C37.7806 14.2 36.4606 13.76 36.3606 12.26H35.0606C35.1006 14.48 37.1006 15.3 38.8406 15.3C40.9606 15.3 43.0606 14.28 43.0606 12.02C43.0606 10.94 42.4006 10.04 41.3606 9.68C38.6406 8.72 36.7006 8.86 36.7006 7.38C36.7006 6.2 37.8406 5.76 38.9606 5.76C40.2006 5.76 41.3206 6.18 41.4406 7.44H42.7406C42.5806 5.32 40.9806 4.66 39.0806 4.66C37.3206 4.66 35.4006 5.38 35.4006 7.46ZM59.547 5.76C61.827 5.76 62.607 7.92 62.607 9.84C62.607 11.7 62.027 14.2 59.727 14.2C57.107 14.2 56.307 12.06 56.307 9.78C56.307 7.74 57.207 5.76 59.547 5.76ZM56.307 13.52L56.347 13.44C57.167 14.64 58.387 15.3 59.847 15.3C62.767 15.3 63.907 12.46 63.907 9.94C63.907 7.34 62.767 4.66 59.787 4.66C58.447 4.66 57.047 5.3 56.347 6.48L56.307 6.44V0.559999H55.107V12.74C55.107 13.52 55.047 14.32 55.007 15H56.247L56.307 13.52ZM75.7603 9.98C75.7603 11.84 74.8003 14.2 72.3803 14.2C69.9603 14.2 69.0003 11.84 69.0003 9.98C69.0003 8.12 69.9603 5.76 72.3803 5.76C74.8003 5.76 75.7603 8.12 75.7603 9.98ZM72.3803 4.66C69.1803 4.66 67.7003 7.34 67.7003 9.98C67.7003 12.62 69.1803 15.3 72.3803 15.3C75.5803 15.3 77.0603 12.62 77.0603 9.98C77.0603 7.34 75.5803 4.66 72.3803 4.66ZM82.7336 8.96C82.7736 7.04 83.7136 5.76 85.4936 5.76C85.7336 5.76 85.9936 5.82 86.2336 5.84V4.68C85.8336 4.66 85.4336 4.64 85.0336 4.66C84.0336 4.7 83.1336 5.42 82.7736 6.44H82.7336L82.6736 4.96H81.4336C81.4736 5.64 81.5536 6.44 81.5336 7.22V15H82.7336V8.96ZM91.3938 9.22C91.3938 7.42 92.2938 5.76 94.2738 5.76C95.9138 5.76 96.9138 6.78 96.9138 8.52V15H98.1138V8.72C98.1138 7.56 97.8538 4.66 94.5738 4.66C93.2738 4.66 92.1338 5.24 91.4338 6.48L91.3938 6.44L91.3338 4.96H90.0938C90.1338 5.64 90.1938 6.44 90.1938 7.22V15H91.3938V9.22ZM118.213 9.98C118.213 11.84 117.253 14.2 114.833 14.2C112.413 14.2 111.453 11.84 111.453 9.98C111.453 8.12 112.413 5.76 114.833 5.76C117.253 5.76 118.213 8.12 118.213 9.98ZM114.833 4.66C111.633 4.66 110.153 7.34 110.153 9.98C110.153 12.62 111.633 15.3 114.833 15.3C118.033 15.3 119.513 12.62 119.513 9.98C119.513 7.34 118.033 4.66 114.833 4.66ZM125.187 9.22C125.187 7.42 126.087 5.76 128.067 5.76C129.707 5.76 130.707 6.78 130.707 8.52V15H131.907V8.72C131.907 7.56 131.647 4.66 128.367 4.66C127.067 4.66 125.927 5.24 125.227 6.48L125.187 6.44L125.127 4.96H123.887C123.927 5.64 123.987 6.44 123.987 7.22V15H125.187V9.22ZM144.906 15H146.206V2.52H146.246L154.046 15H155.686V0.559999H154.386V13.26H154.346L146.386 0.559999H144.906V15ZM168.44 9.98C168.44 11.84 167.48 14.2 165.06 14.2C162.64 14.2 161.68 11.84 161.68 9.98C161.68 8.12 162.64 5.76 165.06 5.76C167.48 5.76 168.44 8.12 168.44 9.98ZM165.06 4.66C161.86 4.66 160.38 7.34 160.38 9.98C160.38 12.62 161.86 15.3 165.06 15.3C168.26 15.3 169.74 12.62 169.74 9.98C169.74 7.34 168.26 4.66 165.06 4.66ZM172.503 4.96L176.603 15H177.963L181.943 4.96H180.623L177.283 13.34L173.823 4.96H172.503ZM193.892 10.26C193.892 7.12 192.672 4.66 189.312 4.66C186.332 4.66 184.832 7.26 184.832 9.98C184.832 12.72 186.232 15.3 189.232 15.3C191.652 15.3 193.152 14.2 193.772 11.8H192.512C192.212 13.18 191.032 14.2 189.612 14.2C187.152 14.2 186.172 12.4 186.132 10.26H193.892ZM186.172 9.16C186.332 7.4 187.372 5.76 189.332 5.76C191.412 5.76 192.452 7.22 192.592 9.16H186.172ZM199.665 4.96H198.425C198.465 5.64 198.525 6.44 198.525 7.22V15H199.725V9.22C199.725 7.42 200.625 5.76 202.605 5.76C204.245 5.76 205.245 6.78 205.245 8.52V15H206.445V9.22C206.445 7.42 207.345 5.76 209.325 5.76C210.965 5.76 211.965 6.78 211.965 8.52V15H213.165V8.72C213.165 7.56 212.905 4.66 209.625 4.66C208.065 4.66 206.905 5.68 206.165 6.86C205.725 5.54 204.485 4.66 202.905 4.66C201.605 4.66 200.465 5.24 199.765 6.48L199.725 6.44L199.665 4.96ZM222.559 5.76C224.839 5.76 225.619 7.92 225.619 9.84C225.619 11.7 225.039 14.2 222.739 14.2C220.119 14.2 219.319 12.06 219.319 9.78C219.319 7.74 220.219 5.76 222.559 5.76ZM219.319 13.52L219.359 13.44C220.179 14.64 221.399 15.3 222.859 15.3C225.779 15.3 226.919 12.46 226.919 9.94C226.919 7.34 225.779 4.66 222.799 4.66C221.459 4.66 220.059 5.3 219.359 6.48L219.319 6.44V0.559999H218.119V12.74C218.119 13.52 218.059 14.32 218.019 15H219.259L219.319 13.52ZM239.892 10.26C239.892 7.12 238.672 4.66 235.312 4.66C232.332 4.66 230.832 7.26 230.832 9.98C230.832 12.72 232.232 15.3 235.232 15.3C237.652 15.3 239.152 14.2 239.772 11.8H238.512C238.212 13.18 237.032 14.2 235.612 14.2C233.152 14.2 232.172 12.4 232.132 10.26H239.892ZM232.172 9.16C232.332 7.4 233.372 5.76 235.332 5.76C237.412 5.76 238.452 7.22 238.592 9.16H232.172ZM245.745 8.96C245.785 7.04 246.725 5.76 248.505 5.76C248.745 5.76 249.005 5.82 249.245 5.84V4.68C248.845 4.66 248.445 4.64 248.045 4.66C247.045 4.7 246.145 5.42 245.785 6.44H245.745L245.685 4.96H244.445C244.485 5.64 244.565 6.44 244.545 7.22V15H245.745V8.96ZM266.112 15H267.412V11.78H269.632V10.7H267.412V1.16H265.692L259.612 10.52V11.78H266.112V15ZM266.112 10.7H260.712L266.072 2.46H266.112V10.7ZM274.745 12.32C274.745 13.68 274.605 15.3 277.145 15.3C277.545 15.3 277.985 15.22 278.365 15.12V14.08C278.045 14.18 277.685 14.2 277.325 14.2C276.405 14.2 275.925 13.7 275.945 12.78V6.06H278.225V4.96H275.945V2.3L274.745 2.82V4.96H272.745V6.06H274.745V12.32ZM283.745 0.559999H282.545V15H283.745V9.22C283.745 7.42 284.645 5.76 286.625 5.76C288.265 5.76 289.265 6.78 289.265 8.52V15H290.465V8.72C290.465 7.56 290.205 4.66 286.925 4.66C285.625 4.66 284.485 5.24 283.785 6.48H283.745V0.559999Z" fill="white"/>
<path d="M0.941406 17H292.065V18H0.941406V17Z" fill="white"/>
</svg>
