<svg width="205" height="18" viewBox="0 0 205 18" fill="none" xmlns="http://www.w3.org/2000/svg">
<path d="M3.66672 15V8.1H11.5467V15H12.8467V0.559999H11.5467V6.9H3.66672V0.559999H2.36672V15H3.66672ZM18.8403 12.2C18.8403 9.68 22.4003 10 24.1003 9.94C24.2203 12.04 23.7203 14.2 21.1003 14.2C19.8803 14.2 18.8403 13.56 18.8403 12.2ZM24.1003 8.84C22.6403 8.92 20.9003 8.72 19.5603 9.3C18.3603 9.8 17.5403 10.84 17.5403 12.2C17.5403 14.16 19.0203 15.3 20.8803 15.3C22.2403 15.3 23.5803 14.5 24.0203 13.66L24.0803 13.52H24.1203L24.1603 15H25.4003C25.3603 14.32 25.2803 13.52 25.3003 12.74V7.98C25.3403 5.68 23.9603 4.66 21.7403 4.66C19.8203 4.66 18.2803 5.44 17.9803 7.5H19.2603C19.4203 6.14 20.4603 5.76 21.7203 5.76C23.1403 5.76 23.9803 6.28 24.1003 7.92V8.84ZM37.3003 9.74C37.3003 12.02 36.5003 14.2 33.8803 14.2C31.5803 14.2 31.0403 11.66 31.0403 9.8C31.0403 7.88 31.7803 5.76 34.0603 5.76C36.4003 5.76 37.3003 7.7 37.3003 9.74ZM37.4003 15H38.6403C38.6003 14.32 38.5403 13.52 38.5403 12.74V0.559999H37.3403V6.44L37.3003 6.48C36.6003 5.3 35.2003 4.66 33.8603 4.66C30.8803 4.66 29.7403 7.34 29.7403 9.94C29.7403 12.46 30.8803 15.3 33.8603 15.3C35.2603 15.3 36.4803 14.64 37.3003 13.44L37.3403 13.52L37.4003 15ZM55.34 5.76C57.62 5.76 58.4 7.92 58.4 9.84C58.4 11.7 57.82 14.2 55.52 14.2C52.9 14.2 52.1 12.06 52.1 9.78C52.1 7.74 53 5.76 55.34 5.76ZM52.1 13.52L52.14 13.44C52.96 14.64 54.18 15.3 55.64 15.3C58.56 15.3 59.7 12.46 59.7 9.94C59.7 7.34 58.56 4.66 55.58 4.66C54.24 4.66 52.84 5.3 52.14 6.48L52.1 6.44V0.559999H50.9V12.74C50.9 13.52 50.84 14.32 50.8 15H52.04L52.1 13.52ZM72.6733 10.26C72.6733 7.12 71.4533 4.66 68.0933 4.66C65.1133 4.66 63.6133 7.26 63.6133 9.98C63.6133 12.72 65.0133 15.3 68.0133 15.3C70.4333 15.3 71.9333 14.2 72.5533 11.8H71.2933C70.9933 13.18 69.8133 14.2 68.3933 14.2C65.9333 14.2 64.9533 12.4 64.9133 10.26H72.6733ZM64.9533 9.16C65.1133 7.4 66.1533 5.76 68.1133 5.76C70.1933 5.76 71.2333 7.22 71.3733 9.16H64.9533ZM84.9666 8.04C84.8666 5.9 83.1866 4.66 81.1266 4.66C78.1466 4.66 76.6466 7.26 76.6466 9.98C76.6466 12.72 78.0466 15.3 81.0466 15.3C83.3266 15.3 84.6466 14.16 84.9666 11.86H83.6666C83.5666 13.24 82.4866 14.2 80.9266 14.2C79.0866 14.2 77.9466 12.26 77.9466 9.96C77.9466 7.68 79.0866 5.76 80.9266 5.76C82.5866 5.76 83.5666 6.5 83.6666 8.04H84.9666ZM96.6666 9.98C96.6666 11.84 95.7066 14.2 93.2866 14.2C90.8666 14.2 89.9066 11.84 89.9066 9.98C89.9066 8.12 90.8666 5.76 93.2866 5.76C95.7066 5.76 96.6666 8.12 96.6666 9.98ZM93.2866 4.66C90.0866 4.66 88.6066 7.34 88.6066 9.98C88.6066 12.62 90.0866 15.3 93.2866 15.3C96.4866 15.3 97.9666 12.62 97.9666 9.98C97.9666 7.34 96.4866 4.66 93.2866 4.66ZM103.56 4.96H102.32C102.36 5.64 102.42 6.44 102.42 7.22V15H103.62V9.22C103.62 7.42 104.52 5.76 106.5 5.76C108.14 5.76 109.14 6.78 109.14 8.52V15H110.34V9.22C110.34 7.42 111.24 5.76 113.22 5.76C114.86 5.76 115.86 6.78 115.86 8.52V15H117.06V8.72C117.06 7.56 116.8 4.66 113.52 4.66C111.96 4.66 110.8 5.68 110.06 6.86C109.62 5.54 108.38 4.66 106.8 4.66C105.5 4.66 104.36 5.24 103.66 6.48L103.62 6.44L103.56 4.96ZM130.673 10.26C130.673 7.12 129.453 4.66 126.093 4.66C123.113 4.66 121.613 7.26 121.613 9.98C121.613 12.72 123.013 15.3 126.013 15.3C128.433 15.3 129.933 14.2 130.553 11.8H129.293C128.993 13.18 127.813 14.2 126.393 14.2C123.933 14.2 122.953 12.4 122.913 10.26H130.673ZM122.953 9.16C123.113 7.4 124.153 5.76 126.113 5.76C128.193 5.76 129.233 7.22 129.373 9.16H122.953ZM150.533 8.04C150.433 5.9 148.753 4.66 146.693 4.66C143.713 4.66 142.213 7.26 142.213 9.98C142.213 12.72 143.613 15.3 146.613 15.3C148.893 15.3 150.213 14.16 150.533 11.86H149.233C149.133 13.24 148.053 14.2 146.493 14.2C144.653 14.2 143.513 12.26 143.513 9.96C143.513 7.68 144.653 5.76 146.493 5.76C148.153 5.76 149.133 6.5 149.233 8.04H150.533ZM156.113 0.559999H154.913V15H156.113V0.559999ZM168.667 9.98C168.667 11.84 167.707 14.2 165.287 14.2C162.867 14.2 161.907 11.84 161.907 9.98C161.907 8.12 162.867 5.76 165.287 5.76C167.707 5.76 168.667 8.12 168.667 9.98ZM165.287 4.66C162.087 4.66 160.607 7.34 160.607 9.98C160.607 12.62 162.087 15.3 165.287 15.3C168.487 15.3 169.967 12.62 169.967 9.98C169.967 7.34 168.487 4.66 165.287 4.66ZM174.1 7.46C174.1 9.32 175.7 9.78 177.28 10.16C178.88 10.52 180.46 10.76 180.46 12.2C180.46 13.6 179.12 14.2 177.84 14.2C176.48 14.2 175.16 13.76 175.06 12.26H173.76C173.8 14.48 175.8 15.3 177.54 15.3C179.66 15.3 181.76 14.28 181.76 12.02C181.76 10.94 181.1 10.04 180.06 9.68C177.34 8.72 175.4 8.86 175.4 7.38C175.4 6.2 176.54 5.76 177.66 5.76C178.9 5.76 180.02 6.18 180.14 7.44H181.44C181.28 5.32 179.68 4.66 177.78 4.66C176.02 4.66 174.1 5.38 174.1 7.46ZM194.9 10.26C194.9 7.12 193.68 4.66 190.32 4.66C187.34 4.66 185.84 7.26 185.84 9.98C185.84 12.72 187.24 15.3 190.24 15.3C192.66 15.3 194.16 14.2 194.78 11.8H193.52C193.22 13.18 192.04 14.2 190.62 14.2C188.16 14.2 187.18 12.4 187.14 10.26H194.9ZM187.18 9.16C187.34 7.4 188.38 5.76 190.34 5.76C192.42 5.76 193.46 7.22 193.6 9.16H187.18ZM200.753 8.96C200.793 7.04 201.733 5.76 203.513 5.76C203.753 5.76 204.013 5.82 204.253 5.84V4.68C203.853 4.66 203.453 4.64 203.053 4.66C202.053 4.7 201.153 5.42 200.793 6.44H200.753L200.693 4.96H199.453C199.493 5.64 199.573 6.44 199.553 7.22V15H200.753V8.96Z" fill="white"/>
<path d="M0.386719 17H204.613V18H0.386719V17Z" fill="white"/>
</svg>
