<svg width="151" height="18" viewBox="0 0 151 18" fill="none" xmlns="http://www.w3.org/2000/svg">
<path d="M11.0287 15V13.8H3.76875V0.559999H2.46875V15H11.0287ZM22.1314 9.98C22.1314 11.84 21.1714 14.2 18.7514 14.2C16.3314 14.2 15.3714 11.84 15.3714 9.98C15.3714 8.12 16.3314 5.76 18.7514 5.76C21.1714 5.76 22.1314 8.12 22.1314 9.98ZM18.7514 4.66C15.5514 4.66 14.0714 7.34 14.0714 9.98C14.0714 12.62 15.5514 15.3 18.7514 15.3C21.9514 15.3 23.4314 12.62 23.4314 9.98C23.4314 7.34 21.9514 4.66 18.7514 4.66ZM35.2447 9.98C35.2447 11.84 34.2847 14.2 31.8647 14.2C29.4447 14.2 28.4847 11.84 28.4847 9.98C28.4847 8.12 29.4447 5.76 31.8647 5.76C34.2847 5.76 35.2447 8.12 35.2447 9.98ZM31.8647 4.66C28.6647 4.66 27.1847 7.34 27.1847 9.98C27.1847 12.62 28.6647 15.3 31.8647 15.3C35.0647 15.3 36.5447 12.62 36.5447 9.98C36.5447 7.34 35.0647 4.66 31.8647 4.66ZM42.338 0.559999H41.138V15H42.338V9.56L47.618 15H49.138L43.658 9.3L48.738 4.96H47.198L42.338 9.06V0.559999ZM60.6244 4.96H59.3044L62.9844 15H64.2044L67.3444 6.34H67.3844L70.4644 15H71.6044L75.3444 4.96H74.0244L71.1244 13.34H71.0844L68.1244 4.96H66.7044L63.6644 13.42H63.6244L60.6244 4.96ZM80.4445 0.559999H79.2445V15H80.4445V9.22C80.4445 7.42 81.3445 5.76 83.3245 5.76C84.9645 5.76 85.9645 6.78 85.9645 8.52V15H87.1645V8.72C87.1645 7.56 86.9045 4.66 83.6245 4.66C82.3245 4.66 81.1845 5.24 80.4845 6.48H80.4445V0.559999ZM99.6978 9.98C99.6978 11.84 98.7378 14.2 96.3178 14.2C93.8978 14.2 92.9378 11.84 92.9378 9.98C92.9378 8.12 93.8978 5.76 96.3178 5.76C98.7378 5.76 99.6978 8.12 99.6978 9.98ZM96.3178 4.66C93.1178 4.66 91.6378 7.34 91.6378 9.98C91.6378 12.62 93.1178 15.3 96.3178 15.3C99.5178 15.3 100.998 12.62 100.998 9.98C100.998 7.34 99.5178 4.66 96.3178 4.66ZM113.058 4.96V15H114.258V4.96H113.058ZM114.358 0.559999H112.958V2.06H114.358V0.559999ZM120.331 12.32C120.331 13.68 120.191 15.3 122.731 15.3C123.131 15.3 123.571 15.22 123.951 15.12V14.08C123.631 14.18 123.271 14.2 122.911 14.2C121.991 14.2 121.511 13.7 121.531 12.78V6.06H123.811V4.96H121.531V2.3L120.331 2.82V4.96H118.331V6.06H120.331V12.32ZM135.718 4.96V15H136.918V4.96H135.718ZM137.018 0.559999H135.618V2.06H137.018V0.559999ZM141.791 7.46C141.791 9.32 143.391 9.78 144.971 10.16C146.571 10.52 148.151 10.76 148.151 12.2C148.151 13.6 146.811 14.2 145.531 14.2C144.171 14.2 142.851 13.76 142.751 12.26H141.451C141.491 14.48 143.491 15.3 145.231 15.3C147.351 15.3 149.451 14.28 149.451 12.02C149.451 10.94 148.791 10.04 147.751 9.68C145.031 8.72 143.091 8.86 143.091 7.38C143.091 6.2 144.231 5.76 145.351 5.76C146.591 5.76 147.711 6.18 147.831 7.44H149.131C148.971 5.32 147.371 4.66 145.471 4.66C143.711 4.66 141.791 5.38 141.791 7.46Z" fill="#0025DC"/>
<path d="M0.46875 17H150.531V18H0.46875V17Z" fill="#0025DC"/>
</svg>
