<svg width="101" height="18" viewBox="0 0 101 18" fill="none" xmlns="http://www.w3.org/2000/svg">
<path d="M3.6432 6.92V1.76H6.5632C7.9432 1.76 10.5432 1.56 10.5432 4.34C10.5432 6.8 8.2632 6.92 6.4232 6.92H3.6432ZM3.6432 8.12H7.2232C9.8432 8.12 10.0432 8.7 10.3432 12C10.4232 13.02 10.5032 14.04 10.8432 15H12.3432C11.7632 14.12 11.8432 13.04 11.5832 10.7C11.4032 9.02 11.0032 7.78 9.1632 7.48V7.44C10.8432 7.02 11.9432 5.9 11.9432 4.34C11.9432 2.96 11.4632 1.92 10.4632 1.32C9.3632 0.639999 8.3232 0.559999 7.0632 0.559999H2.3432V15H3.6432V8.12ZM25.2924 10.26C25.2924 7.12 24.0724 4.66 20.7124 4.66C17.7324 4.66 16.2324 7.26 16.2324 9.98C16.2324 12.72 17.6324 15.3 20.6324 15.3C23.0524 15.3 24.5524 14.2 25.1724 11.8H23.9124C23.6124 13.18 22.4324 14.2 21.0124 14.2C18.5524 14.2 17.5724 12.4 17.5324 10.26H25.2924ZM17.5724 9.16C17.7324 7.4 18.7724 5.76 20.7324 5.76C22.8124 5.76 23.8524 7.22 23.9924 9.16H17.5724ZM31.1657 0.559999H29.9657V15H31.1657V0.559999ZM43.0993 10.74C43.0993 12.54 42.1993 14.2 40.2193 14.2C38.5793 14.2 37.5793 13.18 37.5793 11.44V4.96H36.3793V11.24C36.3793 12.4 36.6393 15.3 39.9193 15.3C41.2193 15.3 42.3593 14.72 43.0593 13.48L43.0993 13.52L43.1593 15H44.3993C44.3593 14.32 44.2993 13.52 44.2993 12.74V4.96H43.0993V10.74ZM57.1326 8.04C57.0326 5.9 55.3526 4.66 53.2926 4.66C50.3126 4.66 48.8126 7.26 48.8126 9.98C48.8126 12.72 50.2126 15.3 53.2126 15.3C55.4926 15.3 56.8126 14.16 57.1326 11.86H55.8326C55.7326 13.24 54.6526 14.2 53.0926 14.2C51.2526 14.2 50.1126 12.26 50.1126 9.96C50.1126 7.68 51.2526 5.76 53.0926 5.76C54.7526 5.76 55.7326 6.5 55.8326 8.04H57.1326ZM62.3526 12.32C62.3526 13.68 62.2126 15.3 64.7526 15.3C65.1526 15.3 65.5926 15.22 65.9726 15.12V14.08C65.6526 14.18 65.2926 14.2 64.9326 14.2C64.0126 14.2 63.5326 13.7 63.5526 12.78V6.06H65.8326V4.96H63.5526V2.3L62.3526 2.82V4.96H60.3526V6.06H62.3526V12.32ZM70.9634 12.2C70.9634 9.68 74.5234 10 76.2234 9.94C76.3434 12.04 75.8434 14.2 73.2234 14.2C72.0034 14.2 70.9634 13.56 70.9634 12.2ZM76.2234 8.84C74.7634 8.92 73.0234 8.72 71.6834 9.3C70.4834 9.8 69.6634 10.84 69.6634 12.2C69.6634 14.16 71.1434 15.3 73.0034 15.3C74.3634 15.3 75.7034 14.5 76.1434 13.66L76.2034 13.52H76.2434L76.2834 15H77.5234C77.4834 14.32 77.4034 13.52 77.4234 12.74V7.98C77.4634 5.68 76.0834 4.66 73.8634 4.66C71.9434 4.66 70.4034 5.44 70.1034 7.5H71.3834C71.5434 6.14 72.5834 5.76 73.8434 5.76C75.2634 5.76 76.1034 6.28 76.2234 7.92V8.84ZM83.7434 9.22C83.7434 7.42 84.6434 5.76 86.6234 5.76C88.2634 5.76 89.2634 6.78 89.2634 8.52V15H90.4634V8.72C90.4634 7.56 90.2034 4.66 86.9234 4.66C85.6234 4.66 84.4834 5.24 83.7834 6.48L83.7434 6.44L83.6834 4.96H82.4434C82.4834 5.64 82.5434 6.44 82.5434 7.22V15H83.7434V9.22ZM96.5166 12.32C96.5166 13.68 96.3766 15.3 98.9166 15.3C99.3166 15.3 99.7566 15.22 100.137 15.12V14.08C99.8166 14.18 99.4566 14.2 99.0966 14.2C98.1766 14.2 97.6966 13.7 97.7166 12.78V6.06H99.9966V4.96H97.7166V2.3L96.5166 2.82V4.96H94.5166V6.06H96.5166V12.32Z" fill="white"/>
<path d="M0.283203 17H100.717V18H0.283203V17Z" fill="white"/>
</svg>
