<svg width="343" height="19" viewBox="0 0 343 19" fill="none" xmlns="http://www.w3.org/2000/svg">
<path d="M12.3689 3.94C12.1689 1.34 9.92891 0.259999 7.56891 0.259999C3.20891 0.259999 1.34891 3.82 1.34891 7.78C1.34891 11.78 3.18891 15.3 7.56891 15.3C9.88891 15.3 12.1089 13.92 12.5289 11.5H11.1289C10.7689 13.3 9.16891 14.1 7.56891 14.1C3.86891 14.1 2.74891 10.74 2.74891 7.78C2.74891 4.82 3.86891 1.46 7.56891 1.46C9.20891 1.46 10.7289 2.18 10.9689 3.94H12.3689ZM25.5288 10.26C25.5288 7.12 24.3088 4.66 20.9488 4.66C17.9688 4.66 16.4688 7.26 16.4688 9.98C16.4688 12.72 17.8688 15.3 20.8688 15.3C23.2888 15.3 24.7888 14.2 25.4088 11.8H24.1488C23.8488 13.18 22.6688 14.2 21.2488 14.2C18.7888 14.2 17.8088 12.4 17.7688 10.26H25.5288ZM17.8088 9.16C17.9688 7.4 19.0088 5.76 20.9688 5.76C23.0488 5.76 24.0888 7.22 24.2288 9.16H17.8088ZM31.402 0.559999H30.202V15H31.402V0.559999ZM45.0756 10.26C45.0756 7.12 43.8556 4.66 40.4956 4.66C37.5156 4.66 36.0156 7.26 36.0156 9.98C36.0156 12.72 37.4156 15.3 40.4156 15.3C42.8356 15.3 44.3356 14.2 44.9556 11.8H43.6956C43.3956 13.18 42.2156 14.2 40.7956 14.2C38.3356 14.2 37.3556 12.4 37.3156 10.26H45.0756ZM37.3556 9.16C37.5156 7.4 38.5556 5.76 40.5156 5.76C42.5956 5.76 43.6356 7.22 43.7756 9.16H37.3556ZM53.9689 5.76C56.2489 5.76 57.0289 7.92 57.0289 9.84C57.0289 11.7 56.4489 14.2 54.1489 14.2C51.5289 14.2 50.7289 12.06 50.7289 9.78C50.7289 7.74 51.6289 5.76 53.9689 5.76ZM50.7289 13.52L50.7689 13.44C51.5889 14.64 52.8089 15.3 54.2689 15.3C57.1889 15.3 58.3289 12.46 58.3289 9.94C58.3289 7.34 57.1889 4.66 54.2089 4.66C52.8689 4.66 51.4689 5.3 50.7689 6.48L50.7289 6.44V0.559999H49.5289V12.74C49.5289 13.52 49.4689 14.32 49.4289 15H50.6689L50.7289 13.52ZM64.0422 8.96C64.0822 7.04 65.0222 5.76 66.8022 5.76C67.0422 5.76 67.3022 5.82 67.5422 5.84V4.68C67.1422 4.66 66.7422 4.64 66.3422 4.66C65.3422 4.7 64.4422 5.42 64.0822 6.44H64.0422L63.9822 4.96H62.7422C62.7822 5.64 62.8622 6.44 62.8422 7.22V15H64.0422V8.96ZM71.9223 12.2C71.9223 9.68 75.4823 10 77.1823 9.94C77.3023 12.04 76.8023 14.2 74.1823 14.2C72.9623 14.2 71.9223 13.56 71.9223 12.2ZM77.1823 8.84C75.7223 8.92 73.9823 8.72 72.6423 9.3C71.4423 9.8 70.6223 10.84 70.6223 12.2C70.6223 14.16 72.1023 15.3 73.9623 15.3C75.3223 15.3 76.6623 14.5 77.1023 13.66L77.1623 13.52H77.2023L77.2423 15H78.4823C78.4423 14.32 78.3623 13.52 78.3823 12.74V7.98C78.4223 5.68 77.0423 4.66 74.8223 4.66C72.9023 4.66 71.3623 5.44 71.0623 7.5H72.3423C72.5023 6.14 73.5423 5.76 74.8023 5.76C76.2223 5.76 77.0623 6.28 77.1823 7.92V8.84ZM84.3623 12.32C84.3623 13.68 84.2223 15.3 86.7623 15.3C87.1623 15.3 87.6023 15.22 87.9823 15.12V14.08C87.6623 14.18 87.3023 14.2 86.9423 14.2C86.0223 14.2 85.5423 13.7 85.5623 12.78V6.06H87.8423V4.96H85.5623V2.3L84.3623 2.82V4.96H82.3623V6.06H84.3623V12.32ZM100.623 10.26C100.623 7.12 99.4025 4.66 96.0425 4.66C93.0625 4.66 91.5625 7.26 91.5625 9.98C91.5625 12.72 92.9625 15.3 95.9625 15.3C98.3825 15.3 99.8825 14.2 100.503 11.8H99.2425C98.9425 13.18 97.7625 14.2 96.3425 14.2C93.8825 14.2 92.9025 12.4 92.8625 10.26H100.623ZM92.9025 9.16C93.0625 7.4 94.1025 5.76 96.0625 5.76C98.1425 5.76 99.1825 7.22 99.3225 9.16H92.9025ZM112.862 4.96V15H114.062V4.96H112.862ZM114.162 0.559999H112.762V2.06H114.162V0.559999ZM120.136 12.32C120.136 13.68 119.996 15.3 122.536 15.3C122.936 15.3 123.376 15.22 123.756 15.12V14.08C123.436 14.18 123.076 14.2 122.716 14.2C121.796 14.2 121.316 13.7 121.336 12.78V6.06H123.616V4.96H121.336V2.3L120.136 2.82V4.96H118.136V6.06H120.136V12.32ZM136.362 12.32C136.362 13.68 136.222 15.3 138.762 15.3C139.162 15.3 139.602 15.22 139.982 15.12V14.08C139.662 14.18 139.302 14.2 138.942 14.2C138.022 14.2 137.542 13.7 137.562 12.78V6.06H139.842V4.96H137.562V2.3L136.362 2.82V4.96H134.362V6.06H136.362V12.32ZM151.503 9.98C151.503 11.84 150.543 14.2 148.123 14.2C145.703 14.2 144.743 11.84 144.743 9.98C144.743 8.12 145.703 5.76 148.123 5.76C150.543 5.76 151.503 8.12 151.503 9.98ZM148.123 4.66C144.923 4.66 143.443 7.34 143.443 9.98C143.443 12.62 144.923 15.3 148.123 15.3C151.323 15.3 152.803 12.62 152.803 9.98C152.803 7.34 151.323 4.66 148.123 4.66ZM164.196 9.76C164.196 11.72 163.316 13.86 161.016 13.86C158.816 13.86 157.876 11.64 157.876 9.8C157.876 7.96 158.796 5.76 160.976 5.76C163.136 5.76 164.196 7.84 164.196 9.76ZM164.196 6.44L164.156 6.52C163.356 5.36 162.316 4.66 160.856 4.66C157.796 4.66 156.576 7.18 156.576 9.9C156.576 12.66 157.876 14.96 160.896 14.96C162.196 14.96 163.576 14.26 164.156 13.08H164.196V14.96C164.156 16.64 162.716 17.74 161.156 17.74C159.876 17.74 158.456 17.34 158.316 16.14H157.016C157.016 18.22 159.176 18.84 160.996 18.84C161.936 18.84 162.476 18.76 163.276 18.38C165.496 17.34 165.396 15.24 165.396 13.24V7.22C165.396 6.44 165.456 5.64 165.496 4.96H164.256L164.196 6.44ZM178.849 10.26C178.849 7.12 177.629 4.66 174.269 4.66C171.289 4.66 169.789 7.26 169.789 9.98C169.789 12.72 171.189 15.3 174.189 15.3C176.609 15.3 178.109 14.2 178.729 11.8H177.469C177.169 13.18 175.989 14.2 174.569 14.2C172.109 14.2 171.129 12.4 171.089 10.26H178.849ZM171.129 9.16C171.289 7.4 172.329 5.76 174.289 5.76C176.369 5.76 177.409 7.22 177.549 9.16H171.129ZM184.362 12.32C184.362 13.68 184.222 15.3 186.762 15.3C187.162 15.3 187.602 15.22 187.982 15.12V14.08C187.662 14.18 187.302 14.2 186.942 14.2C186.022 14.2 185.542 13.7 185.562 12.78V6.06H187.842V4.96H185.562V2.3L184.362 2.82V4.96H182.362V6.06H184.362V12.32ZM193.363 0.559999H192.163V15H193.363V9.22C193.363 7.42 194.263 5.76 196.243 5.76C197.883 5.76 198.883 6.78 198.883 8.52V15H200.083V8.72C200.083 7.56 199.823 4.66 196.543 4.66C195.243 4.66 194.103 5.24 193.403 6.48H193.363V0.559999ZM213.736 10.26C213.736 7.12 212.516 4.66 209.156 4.66C206.176 4.66 204.676 7.26 204.676 9.98C204.676 12.72 206.076 15.3 209.076 15.3C211.496 15.3 212.996 14.2 213.616 11.8H212.356C212.056 13.18 210.876 14.2 209.456 14.2C206.996 14.2 206.016 12.4 205.976 10.26H213.736ZM206.016 9.16C206.176 7.4 207.216 5.76 209.176 5.76C211.256 5.76 212.296 7.22 212.436 9.16H206.016ZM219.589 8.96C219.629 7.04 220.569 5.76 222.349 5.76C222.589 5.76 222.849 5.82 223.089 5.84V4.68C222.689 4.66 222.289 4.64 221.889 4.66C220.889 4.7 219.989 5.42 219.629 6.44H219.589L219.529 4.96H218.289C218.329 5.64 218.409 6.44 218.389 7.22V15H219.589V8.96ZM243.076 10.26C243.076 7.12 241.856 4.66 238.496 4.66C235.516 4.66 234.016 7.26 234.016 9.98C234.016 12.72 235.416 15.3 238.416 15.3C240.836 15.3 242.336 14.2 242.956 11.8H241.696C241.396 13.18 240.216 14.2 238.796 14.2C236.336 14.2 235.356 12.4 235.316 10.26H243.076ZM235.356 9.16C235.516 7.4 236.556 5.76 238.516 5.76C240.596 5.76 241.636 7.22 241.776 9.16H235.356ZM246.018 4.96L250.118 15H251.478L255.458 4.96H254.138L250.798 13.34L247.338 4.96H246.018ZM267.408 10.26C267.408 7.12 266.188 4.66 262.828 4.66C259.848 4.66 258.348 7.26 258.348 9.98C258.348 12.72 259.748 15.3 262.748 15.3C265.168 15.3 266.668 14.2 267.288 11.8H266.028C265.728 13.18 264.548 14.2 263.128 14.2C260.668 14.2 259.688 12.4 259.648 10.26H267.408ZM259.688 9.16C259.848 7.4 260.888 5.76 262.848 5.76C264.928 5.76 265.968 7.22 266.108 9.16H259.688ZM273.261 8.96C273.301 7.04 274.241 5.76 276.021 5.76C276.261 5.76 276.521 5.82 276.761 5.84V4.68C276.361 4.66 275.961 4.64 275.561 4.66C274.561 4.7 273.661 5.42 273.301 6.44H273.261L273.201 4.96H271.961C272.001 5.64 272.081 6.44 272.061 7.22V15H273.261V8.96ZM280.082 4.96L284.242 15L282.722 18.84H284.042L289.582 4.96H288.282L284.922 13.36L281.542 4.96H280.082ZM299.648 4.96L303.808 15L302.288 18.84H303.608L309.148 4.96H307.848L304.488 13.36L301.108 4.96H299.648ZM321.158 10.26C321.158 7.12 319.938 4.66 316.578 4.66C313.598 4.66 312.098 7.26 312.098 9.98C312.098 12.72 313.498 15.3 316.498 15.3C318.918 15.3 320.418 14.2 321.038 11.8H319.778C319.478 13.18 318.298 14.2 316.878 14.2C314.418 14.2 313.438 12.4 313.398 10.26H321.158ZM313.438 9.16C313.598 7.4 314.638 5.76 316.598 5.76C318.678 5.76 319.718 7.22 319.858 9.16H313.438ZM326.231 12.2C326.231 9.68 329.791 10 331.491 9.94C331.611 12.04 331.111 14.2 328.491 14.2C327.271 14.2 326.231 13.56 326.231 12.2ZM331.491 8.84C330.031 8.92 328.291 8.72 326.951 9.3C325.751 9.8 324.931 10.84 324.931 12.2C324.931 14.16 326.411 15.3 328.271 15.3C329.631 15.3 330.971 14.5 331.411 13.66L331.471 13.52H331.511L331.551 15H332.791C332.751 14.32 332.671 13.52 332.691 12.74V7.98C332.731 5.68 331.351 4.66 329.131 4.66C327.211 4.66 325.671 5.44 325.371 7.5H326.651C326.811 6.14 327.851 5.76 329.111 5.76C330.531 5.76 331.371 6.28 331.491 7.92V8.84ZM339.011 8.96C339.051 7.04 339.991 5.76 341.771 5.76C342.011 5.76 342.271 5.82 342.511 5.84V4.68C342.111 4.66 341.711 4.64 341.311 4.66C340.311 4.7 339.411 5.42 339.051 6.44H339.011L338.951 4.96H337.711C337.751 5.64 337.831 6.44 337.811 7.22V15H339.011V8.96Z" fill="white"/>
<path d="M0.128906 17H342.871V18H0.128906V17Z" fill="white"/>
</svg>
