<svg width="117" height="19" viewBox="0 0 117 19" fill="none" xmlns="http://www.w3.org/2000/svg">
<path d="M4.38188 9.9L7.56188 1.76L10.6819 9.9H4.38188ZM2.44188 15L3.96188 11.1H11.1419L12.6819 15H14.1019L8.34188 0.559999H6.82188L1.10188 15H2.44188ZM19.0817 0.559999H17.8817V15H19.0817V0.559999ZM32.7553 10.26C32.7553 7.12 31.5353 4.66 28.1753 4.66C25.1953 4.66 23.6953 7.26 23.6953 9.98C23.6953 12.72 25.0953 15.3 28.0953 15.3C30.5153 15.3 32.0153 14.2 32.6353 11.8H31.3753C31.0753 13.18 29.8953 14.2 28.4753 14.2C26.0153 14.2 25.0353 12.4 24.9953 10.26H32.7553ZM25.0353 9.16C25.1953 7.4 26.2353 5.76 28.1953 5.76C30.2753 5.76 31.3153 7.22 31.4553 9.16H25.0353ZM40.478 9L37.538 4.96H35.938L39.638 9.86L35.798 14.96L35.758 15H37.118L40.278 10.64L43.498 15H45.078L41.158 9.82L44.758 4.96H43.498L40.478 9ZM63.1044 4.96V15H64.3044V4.96H63.1044ZM64.4044 0.559999H63.0044V2.06H64.4044V0.559999ZM58.6444 15V6.06H60.9244V4.96H58.6444V3.68C58.5844 2.24 58.6244 1.42 60.2644 1.42C60.5044 1.42 60.7644 1.46 61.0044 1.5V0.539999C60.6444 0.459999 60.2444 0.319999 59.8644 0.319999C58.1444 0.319999 57.4444 1.1 57.4444 2.82V4.96H55.4244V6.06H57.4444V15H58.6444ZM70.8977 9.22C70.8977 7.42 71.7977 5.76 73.7777 5.76C75.4177 5.76 76.4177 6.78 76.4177 8.52V15H77.6177V8.72C77.6177 7.56 77.3577 4.66 74.0777 4.66C72.7777 4.66 71.6377 5.24 70.9377 6.48L70.8977 6.44L70.8377 4.96H69.5977C69.6377 5.64 69.6977 6.44 69.6977 7.22V15H70.8977V9.22ZM83.2309 12.2C83.2309 9.68 86.7909 10 88.4909 9.94C88.6109 12.04 88.1109 14.2 85.4909 14.2C84.2709 14.2 83.2309 13.56 83.2309 12.2ZM88.4909 8.84C87.0309 8.92 85.2909 8.72 83.9509 9.3C82.7509 9.8 81.9309 10.84 81.9309 12.2C81.9309 14.16 83.4109 15.3 85.2709 15.3C86.6309 15.3 87.9709 14.5 88.4109 13.66L88.4709 13.52H88.5109L88.5509 15H89.7909C89.7509 14.32 89.6709 13.52 89.6909 12.74V7.98C89.7309 5.68 88.3509 4.66 86.1309 4.66C84.2109 4.66 82.6709 5.44 82.3709 7.5H83.6509C83.8109 6.14 84.8509 5.76 86.1109 5.76C87.5309 5.76 88.3709 6.28 88.4909 7.92V8.84ZM96.0309 0.559999H94.8309V15H96.0309V0.559999ZM102.465 0.559999H101.265V15H102.465V0.559999ZM106.238 4.96L110.398 15L108.878 18.84H110.198L115.738 4.96H114.438L111.078 13.36L107.698 4.96H106.238Z" fill="#0025DC"/>
<path d="M0.921875 17H116.078V18H0.921875V17Z" fill="#0025DC"/>
</svg>
