<svg width="275" height="19" viewBox="0 0 275 19" fill="none" xmlns="http://www.w3.org/2000/svg">
<path d="M3.64523 15V8.1H11.5252V15H12.8252V0.559999H11.5252V6.9H3.64523V0.559999H2.34523V15H3.64523ZM26.8588 10.26C26.8588 7.12 25.6388 4.66 22.2788 4.66C19.2988 4.66 17.7988 7.26 17.7988 9.98C17.7988 12.72 19.1988 15.3 22.1988 15.3C24.6188 15.3 26.1188 14.2 26.7388 11.8H25.4788C25.1788 13.18 23.9988 14.2 22.5788 14.2C20.1188 14.2 19.1388 12.4 19.0988 10.26H26.8588ZM19.1388 9.16C19.2988 7.4 20.3388 5.76 22.2988 5.76C24.3788 5.76 25.4188 7.22 25.5588 9.16H19.1388ZM39.1185 4.96H37.7985L41.4785 15H42.6985L45.8385 6.34H45.8785L48.9585 15H50.0985L53.8385 4.96H52.5185L49.6185 13.34H49.5785L46.6185 4.96H45.1985L42.1585 13.42H42.1185L39.1185 4.96ZM57.768 12.2C57.768 9.68 61.328 10 63.028 9.94C63.148 12.04 62.648 14.2 60.028 14.2C58.808 14.2 57.768 13.56 57.768 12.2ZM63.028 8.84C61.568 8.92 59.828 8.72 58.488 9.3C57.288 9.8 56.468 10.84 56.468 12.2C56.468 14.16 57.948 15.3 59.808 15.3C61.168 15.3 62.508 14.5 62.948 13.66L63.008 13.52H63.048L63.088 15H64.328C64.288 14.32 64.208 13.52 64.228 12.74V7.98C64.268 5.68 62.888 4.66 60.668 4.66C58.748 4.66 57.208 5.44 56.908 7.5H58.188C58.348 6.14 59.388 5.76 60.648 5.76C62.068 5.76 62.908 6.28 63.028 7.92V8.84ZM69.008 7.46C69.008 9.32 70.608 9.78 72.188 10.16C73.788 10.52 75.368 10.76 75.368 12.2C75.368 13.6 74.028 14.2 72.748 14.2C71.388 14.2 70.068 13.76 69.968 12.26H68.668C68.708 14.48 70.708 15.3 72.448 15.3C74.568 15.3 76.668 14.28 76.668 12.02C76.668 10.94 76.008 10.04 74.968 9.68C72.248 8.72 70.308 8.86 70.308 7.38C70.308 6.2 71.448 5.76 72.568 5.76C73.808 5.76 74.928 6.18 75.048 7.44H76.348C76.188 5.32 74.588 4.66 72.688 4.66C70.928 4.66 69.008 5.38 69.008 7.46ZM88.9345 4.96V15H90.1345V4.96H88.9345ZM90.2345 0.559999H88.8345V2.06H90.2345V0.559999ZM96.548 9.22C96.548 7.42 97.448 5.76 99.428 5.76C101.068 5.76 102.068 6.78 102.068 8.52V15H103.268V8.72C103.268 7.56 103.008 4.66 99.728 4.66C98.428 4.66 97.288 5.24 96.588 6.48L96.548 6.44L96.488 4.96H95.248C95.288 5.64 95.348 6.44 95.348 7.22V15H96.548V9.22ZM116.888 12.32C116.888 13.68 116.748 15.3 119.288 15.3C119.688 15.3 120.128 15.22 120.508 15.12V14.08C120.188 14.18 119.828 14.2 119.468 14.2C118.548 14.2 118.068 13.7 118.088 12.78V6.06H120.368V4.96H118.088V2.3L116.888 2.82V4.96H114.888V6.06H116.888V12.32ZM125.888 0.559999H124.688V15H125.888V9.22C125.888 7.42 126.788 5.76 128.768 5.76C130.408 5.76 131.408 6.78 131.408 8.52V15H132.608V8.72C132.608 7.56 132.348 4.66 129.068 4.66C127.768 4.66 126.628 5.24 125.928 6.48H125.888V0.559999ZM146.261 10.26C146.261 7.12 145.041 4.66 141.681 4.66C138.701 4.66 137.201 7.26 137.201 9.98C137.201 12.72 138.601 15.3 141.601 15.3C144.021 15.3 145.521 14.2 146.141 11.8H144.881C144.581 13.18 143.401 14.2 141.981 14.2C139.521 14.2 138.541 12.4 138.501 10.26H146.261ZM138.541 9.16C138.701 7.4 139.741 5.76 141.701 5.76C143.781 5.76 144.821 7.22 144.961 9.16H138.541ZM159.701 0.559999H158.501V15H159.701V0.559999ZM164.934 4.96V15H166.134V4.96H164.934ZM166.234 0.559999H164.834V2.06H166.234V0.559999ZM170.028 4.96L174.128 15H175.488L179.468 4.96H178.148L174.808 13.34L171.348 4.96H170.028ZM183.368 4.96V15H184.568V4.96H183.368ZM184.668 0.559999H183.268V2.06H184.668V0.559999ZM190.982 9.22C190.982 7.42 191.882 5.76 193.862 5.76C195.502 5.76 196.502 6.78 196.502 8.52V15H197.702V8.72C197.702 7.56 197.442 4.66 194.162 4.66C192.862 4.66 191.722 5.24 191.022 6.48L190.982 6.44L190.922 4.96H189.682C189.722 5.64 189.782 6.44 189.782 7.22V15H190.982V9.22ZM209.815 9.76C209.815 11.72 208.935 13.86 206.635 13.86C204.435 13.86 203.495 11.64 203.495 9.8C203.495 7.96 204.415 5.76 206.595 5.76C208.755 5.76 209.815 7.84 209.815 9.76ZM209.815 6.44L209.775 6.52C208.975 5.36 207.935 4.66 206.475 4.66C203.415 4.66 202.195 7.18 202.195 9.9C202.195 12.66 203.495 14.96 206.515 14.96C207.815 14.96 209.195 14.26 209.775 13.08H209.815V14.96C209.775 16.64 208.335 17.74 206.775 17.74C205.495 17.74 204.075 17.34 203.935 16.14H202.635C202.635 18.22 204.795 18.84 206.615 18.84C207.555 18.84 208.095 18.76 208.895 18.38C211.115 17.34 211.015 15.24 211.015 13.24V7.22C211.015 6.44 211.075 5.64 211.115 4.96H209.875L209.815 6.44ZM224.775 8.96C224.815 7.04 225.755 5.76 227.535 5.76C227.775 5.76 228.035 5.82 228.275 5.84V4.68C227.875 4.66 227.475 4.64 227.075 4.66C226.075 4.7 225.175 5.42 224.815 6.44H224.775L224.715 4.96H223.475C223.515 5.64 223.595 6.44 223.575 7.22V15H224.775V8.96ZM239.575 9.98C239.575 11.84 238.615 14.2 236.195 14.2C233.775 14.2 232.815 11.84 232.815 9.98C232.815 8.12 233.775 5.76 236.195 5.76C238.615 5.76 239.575 8.12 239.575 9.98ZM236.195 4.66C232.995 4.66 231.515 7.34 231.515 9.98C231.515 12.62 232.995 15.3 236.195 15.3C239.395 15.3 240.875 12.62 240.875 9.98C240.875 7.34 239.395 4.66 236.195 4.66ZM252.688 9.98C252.688 11.84 251.728 14.2 249.308 14.2C246.888 14.2 245.928 11.84 245.928 9.98C245.928 8.12 246.888 5.76 249.308 5.76C251.728 5.76 252.688 8.12 252.688 9.98ZM249.308 4.66C246.108 4.66 244.628 7.34 244.628 9.98C244.628 12.62 246.108 15.3 249.308 15.3C252.508 15.3 253.988 12.62 253.988 9.98C253.988 7.34 252.508 4.66 249.308 4.66ZM259.581 4.96H258.341C258.381 5.64 258.441 6.44 258.441 7.22V15H259.641V9.22C259.641 7.42 260.541 5.76 262.521 5.76C264.161 5.76 265.161 6.78 265.161 8.52V15H266.361V9.22C266.361 7.42 267.261 5.76 269.241 5.76C270.881 5.76 271.881 6.78 271.881 8.52V15H273.081V8.72C273.081 7.56 272.821 4.66 269.541 4.66C267.981 4.66 266.821 5.68 266.081 6.86C265.641 5.54 264.401 4.66 262.821 4.66C261.521 4.66 260.381 5.24 259.681 6.48L259.641 6.44L259.581 4.96Z" fill="#0025DC"/>
<path d="M0.365234 17H274.641V18H0.365234V17Z" fill="#0025DC"/>
</svg>
