<svg width="361" height="19" viewBox="0 0 361 19" fill="none" xmlns="http://www.w3.org/2000/svg">
<path d="M4.14719 15V8.1H12.0272V15H13.3272V0.559999H12.0272V6.9H4.14719V0.559999H2.84719V15H4.14719ZM19.3208 12.2C19.3208 9.68 22.8808 10 24.5808 9.94C24.7008 12.04 24.2008 14.2 21.5808 14.2C20.3608 14.2 19.3208 13.56 19.3208 12.2ZM24.5808 8.84C23.1208 8.92 21.3808 8.72 20.0408 9.3C18.8408 9.8 18.0208 10.84 18.0208 12.2C18.0208 14.16 19.5008 15.3 21.3608 15.3C22.7208 15.3 24.0608 14.5 24.5008 13.66L24.5608 13.52H24.6008L24.6408 15H25.8808C25.8408 14.32 25.7608 13.52 25.7808 12.74V7.98C25.8208 5.68 24.4408 4.66 22.2208 4.66C20.3008 4.66 18.7608 5.44 18.4608 7.5H19.7408C19.9008 6.14 20.9408 5.76 22.2008 5.76C23.6208 5.76 24.4608 6.28 24.5808 7.92V8.84ZM30.5608 7.46C30.5608 9.32 32.1608 9.78 33.7408 10.16C35.3408 10.52 36.9208 10.76 36.9208 12.2C36.9208 13.6 35.5808 14.2 34.3008 14.2C32.9408 14.2 31.6208 13.76 31.5208 12.26H30.2208C30.2608 14.48 32.2608 15.3 34.0008 15.3C36.1208 15.3 38.2208 14.28 38.2208 12.02C38.2208 10.94 37.5608 10.04 36.5208 9.68C33.8008 8.72 31.8608 8.86 31.8608 7.38C31.8608 6.2 33.0008 5.76 34.1208 5.76C35.3608 5.76 36.4808 6.18 36.6008 7.44H37.9008C37.7408 5.32 36.1408 4.66 34.2408 4.66C32.4808 4.66 30.5608 5.38 30.5608 7.46ZM50.8872 12.2C50.8872 9.68 54.4472 10 56.1472 9.94C56.2672 12.04 55.7672 14.2 53.1472 14.2C51.9272 14.2 50.8872 13.56 50.8872 12.2ZM56.1472 8.84C54.6872 8.92 52.9472 8.72 51.6072 9.3C50.4072 9.8 49.5872 10.84 49.5872 12.2C49.5872 14.16 51.0672 15.3 52.9272 15.3C54.2872 15.3 55.6272 14.5 56.0672 13.66L56.1272 13.52H56.1672L56.2072 15H57.4472C57.4072 14.32 57.3272 13.52 57.3472 12.74V7.98C57.3872 5.68 56.0072 4.66 53.7872 4.66C51.8672 4.66 50.3272 5.44 50.0272 7.5H51.3072C51.4672 6.14 52.5072 5.76 53.7672 5.76C55.1872 5.76 56.0272 6.28 56.1472 7.92V8.84ZM63.6872 0.559999H62.4872V15H63.6872V0.559999ZM68.9408 4.96H67.6208L71.3008 15H72.5208L75.6608 6.34H75.7008L78.7808 15H79.9208L83.6608 4.96H82.3408L79.4408 13.34H79.4008L76.4408 4.96H75.0208L71.9808 13.42H71.9408L68.9408 4.96ZM87.5903 12.2C87.5903 9.68 91.1503 10 92.8503 9.94C92.9703 12.04 92.4703 14.2 89.8503 14.2C88.6303 14.2 87.5903 13.56 87.5903 12.2ZM92.8503 8.84C91.3903 8.92 89.6503 8.72 88.3103 9.3C87.1103 9.8 86.2903 10.84 86.2903 12.2C86.2903 14.16 87.7703 15.3 89.6303 15.3C90.9903 15.3 92.3303 14.5 92.7703 13.66L92.8303 13.52H92.8703L92.9103 15H94.1503C94.1103 14.32 94.0303 13.52 94.0503 12.74V7.98C94.0903 5.68 92.7103 4.66 90.4903 4.66C88.5703 4.66 87.0303 5.44 86.7303 7.5H88.0103C88.1703 6.14 89.2103 5.76 90.4703 5.76C91.8903 5.76 92.7303 6.28 92.8503 7.92V8.84ZM97.3397 4.96L101.5 15L99.9797 18.84H101.3L106.84 4.96H105.54L102.18 13.36L98.7997 4.96H97.3397ZM110.049 7.46C110.049 9.32 111.649 9.78 113.229 10.16C114.829 10.52 116.409 10.76 116.409 12.2C116.409 13.6 115.069 14.2 113.789 14.2C112.429 14.2 111.109 13.76 111.009 12.26H109.709C109.749 14.48 111.749 15.3 113.489 15.3C115.609 15.3 117.709 14.28 117.709 12.02C117.709 10.94 117.049 10.04 116.009 9.68C113.289 8.72 111.349 8.86 111.349 7.38C111.349 6.2 112.489 5.76 113.609 5.76C114.849 5.76 115.969 6.18 116.089 7.44H117.389C117.229 5.32 115.629 4.66 113.729 4.66C111.969 4.66 110.049 5.38 110.049 7.46ZM134.195 5.76C136.475 5.76 137.255 7.92 137.255 9.84C137.255 11.7 136.675 14.2 134.375 14.2C131.755 14.2 130.955 12.06 130.955 9.78C130.955 7.74 131.855 5.76 134.195 5.76ZM130.955 13.52L130.995 13.44C131.815 14.64 133.035 15.3 134.495 15.3C137.415 15.3 138.555 12.46 138.555 9.94C138.555 7.34 137.415 4.66 134.435 4.66C133.095 4.66 131.695 5.3 130.995 6.48L130.955 6.44V0.559999H129.755V12.74C129.755 13.52 129.695 14.32 129.655 15H130.895L130.955 13.52ZM151.529 10.26C151.529 7.12 150.309 4.66 146.949 4.66C143.969 4.66 142.469 7.26 142.469 9.98C142.469 12.72 143.869 15.3 146.869 15.3C149.289 15.3 150.789 14.2 151.409 11.8H150.149C149.849 13.18 148.669 14.2 147.249 14.2C144.789 14.2 143.809 12.4 143.769 10.26H151.529ZM143.809 9.16C143.969 7.4 145.009 5.76 146.969 5.76C149.049 5.76 150.089 7.22 150.229 9.16H143.809ZM164.642 10.26C164.642 7.12 163.422 4.66 160.062 4.66C157.082 4.66 155.582 7.26 155.582 9.98C155.582 12.72 156.982 15.3 159.982 15.3C162.402 15.3 163.902 14.2 164.522 11.8H163.262C162.962 13.18 161.782 14.2 160.362 14.2C157.902 14.2 156.922 12.4 156.882 10.26H164.642ZM156.922 9.16C157.082 7.4 158.122 5.76 160.082 5.76C162.162 5.76 163.202 7.22 163.342 9.16H156.922ZM170.495 9.22C170.495 7.42 171.395 5.76 173.375 5.76C175.015 5.76 176.015 6.78 176.015 8.52V15H177.215V8.72C177.215 7.56 176.955 4.66 173.675 4.66C172.375 4.66 171.235 5.24 170.535 6.48L170.495 6.44L170.435 4.96H169.195C169.235 5.64 169.295 6.44 169.295 7.22V15H170.495V9.22ZM189.995 4.96V15H191.195V4.96H189.995ZM191.295 0.559999H189.895V2.06H191.295V0.559999ZM197.609 9.22C197.609 7.42 198.509 5.76 200.489 5.76C202.129 5.76 203.129 6.78 203.129 8.52V15H204.329V8.72C204.329 7.56 204.069 4.66 200.789 4.66C199.489 4.66 198.349 5.24 197.649 6.48L197.609 6.44L197.549 4.96H196.309C196.349 5.64 196.409 6.44 196.409 7.22V15H197.609V9.22ZM207.811 4.96L211.911 15H213.271L217.251 4.96H215.931L212.591 13.34L209.131 4.96H207.811ZM228.081 9.98C228.081 11.84 227.121 14.2 224.701 14.2C222.281 14.2 221.321 11.84 221.321 9.98C221.321 8.12 222.281 5.76 224.701 5.76C227.121 5.76 228.081 8.12 228.081 9.98ZM224.701 4.66C221.501 4.66 220.021 7.34 220.021 9.98C220.021 12.62 221.501 15.3 224.701 15.3C227.901 15.3 229.381 12.62 229.381 9.98C229.381 7.34 227.901 4.66 224.701 4.66ZM235.074 0.559999H233.874V15H235.074V0.559999ZM238.968 4.96L243.068 15H244.428L248.408 4.96H247.088L243.748 13.34L240.288 4.96H238.968ZM260.357 10.26C260.357 7.12 259.137 4.66 255.777 4.66C252.797 4.66 251.297 7.26 251.297 9.98C251.297 12.72 252.697 15.3 255.697 15.3C258.117 15.3 259.617 14.2 260.237 11.8H258.977C258.677 13.18 257.497 14.2 256.077 14.2C253.617 14.2 252.637 12.4 252.597 10.26H260.357ZM252.637 9.16C252.797 7.4 253.837 5.76 255.797 5.76C257.877 5.76 258.917 7.22 259.057 9.16H252.637ZM271.89 9.74C271.89 12.02 271.09 14.2 268.47 14.2C266.17 14.2 265.63 11.66 265.63 9.8C265.63 7.88 266.37 5.76 268.65 5.76C270.99 5.76 271.89 7.7 271.89 9.74ZM271.99 15H273.23C273.19 14.32 273.13 13.52 273.13 12.74V0.559999H271.93V6.44L271.89 6.48C271.19 5.3 269.79 4.66 268.45 4.66C265.47 4.66 264.33 7.34 264.33 9.94C264.33 12.46 265.47 15.3 268.45 15.3C269.85 15.3 271.07 14.64 271.89 13.44L271.93 13.52L271.99 15ZM285.71 4.96V15H286.91V4.96H285.71ZM287.01 0.559999H285.61V2.06H287.01V0.559999ZM293.323 9.22C293.323 7.42 294.223 5.76 296.203 5.76C297.843 5.76 298.843 6.78 298.843 8.52V15H300.043V8.72C300.043 7.56 299.783 4.66 296.503 4.66C295.203 4.66 294.063 5.24 293.363 6.48L293.323 6.44L293.263 4.96H292.023C292.063 5.64 292.123 6.44 292.123 7.22V15H293.323V9.22ZM312.843 4.96H311.523L315.203 15H316.423L319.563 6.34H319.603L322.683 15H323.823L327.563 4.96H326.243L323.343 13.34H323.303L320.343 4.96H318.923L315.883 13.42H315.843L312.843 4.96ZM331.493 12.2C331.493 9.68 335.053 10 336.753 9.94C336.873 12.04 336.373 14.2 333.753 14.2C332.533 14.2 331.493 13.56 331.493 12.2ZM336.753 8.84C335.293 8.92 333.553 8.72 332.213 9.3C331.013 9.8 330.193 10.84 330.193 12.2C330.193 14.16 331.673 15.3 333.533 15.3C334.893 15.3 336.233 14.5 336.673 13.66L336.733 13.52H336.773L336.813 15H338.053C338.013 14.32 337.933 13.52 337.953 12.74V7.98C337.993 5.68 336.613 4.66 334.393 4.66C332.473 4.66 330.933 5.44 330.633 7.5H331.913C332.073 6.14 333.113 5.76 334.373 5.76C335.793 5.76 336.633 6.28 336.753 7.92V8.84ZM344.273 8.96C344.313 7.04 345.253 5.76 347.033 5.76C347.273 5.76 347.533 5.82 347.773 5.84V4.68C347.373 4.66 346.973 4.64 346.573 4.66C345.573 4.7 344.673 5.42 344.313 6.44H344.273L344.213 4.96H342.973C343.013 5.64 343.093 6.44 343.073 7.22V15H344.273V8.96ZM351.393 7.46C351.393 9.32 352.993 9.78 354.573 10.16C356.173 10.52 357.753 10.76 357.753 12.2C357.753 13.6 356.413 14.2 355.133 14.2C353.773 14.2 352.453 13.76 352.353 12.26H351.053C351.093 14.48 353.093 15.3 354.833 15.3C356.953 15.3 359.053 14.28 359.053 12.02C359.053 10.94 358.393 10.04 357.353 9.68C354.633 8.72 352.693 8.86 352.693 7.38C352.693 6.2 353.833 5.76 354.953 5.76C356.193 5.76 357.313 6.18 357.433 7.44H358.733C358.573 5.32 356.973 4.66 355.073 4.66C353.313 4.66 351.393 5.38 351.393 7.46Z" fill="#0025DC"/>
<path d="M0.867188 17H360.133V18H0.867188V17Z" fill="#0025DC"/>
</svg>
