<svg width="429" height="69" viewBox="0 0 429 69" fill="none" xmlns="http://www.w3.org/2000/svg">
<rect width="360.946" height="69" fill="black" fill-opacity="0.69"/>
<path d="M9.98853 3.892L6.79653 14H7.69253L8.49053 11.34H12.4525L13.2645 14H14.2025L11.0525 3.892H9.98853ZM8.75653 10.584L10.4645 4.872H10.4925L12.2145 10.584H8.75653ZM23.3213 9.394C21.9633 9.394 21.7953 8.162 21.7953 7.084C21.7953 5.964 21.9913 4.844 23.3773 4.844C24.9873 4.844 25.0013 5.978 25.0013 7.196C25.0013 7.84 24.9453 9.394 23.3213 9.394ZM23.2373 10.15C23.9373 10.15 24.6093 9.898 25.0293 9.296H25.0573C24.9873 12.32 25.0853 13.398 23.3073 13.398C22.2853 13.398 21.8933 12.796 21.9073 11.83H21.0113C21.0533 13.482 21.7813 14.154 23.4193 14.154C25.8413 14.154 25.8973 12.628 25.8973 9.072V7.868C25.8973 5.516 25.8133 4.088 23.3493 4.088C21.3893 4.088 20.8993 5.376 20.8993 7.084C20.8993 9.156 21.5013 10.15 23.2373 10.15ZM29.164 6.734C29.78 6.328 30.34 5.866 30.872 5.362V14H31.712V4.242H30.928C30.438 4.844 29.808 5.32 29.164 5.768V6.734ZM36.7848 6.734C37.4008 6.328 37.9608 5.866 38.4928 5.362V14H39.3328V4.242H38.5488C38.0588 4.844 37.4288 5.32 36.7848 5.768V6.734ZM52.507 8.96C52.577 7.476 51.751 6.79 50.533 6.79C49.567 6.79 48.769 7.154 48.405 8.162C48.223 8.694 48.195 9.8 48.195 10.5C48.195 12.25 48.195 14.14 50.589 14.14C51.247 14.14 52.591 13.818 52.521 11.914H51.681C51.639 12.768 51.499 13.468 50.393 13.468C49.091 13.468 49.091 11.774 49.091 10.5C49.091 9.562 49.175 8.596 49.287 8.274C49.469 7.756 49.903 7.462 50.421 7.462C51.387 7.462 51.709 8.078 51.667 8.96H52.507ZM58.9564 11.676C58.9564 12.6 58.1724 13.468 57.2064 13.468C56.3384 13.468 55.9324 12.81 55.9324 12.012C55.9324 10.29 57.7524 10.43 58.9564 10.388V11.676ZM59.0124 14H59.8804C59.7964 13.174 59.7964 12.726 59.7964 12.222V8.666C59.7964 6.86 58.3124 6.79 57.5984 6.79C56.3664 6.79 55.3164 7.322 55.2464 8.68H56.1424C56.1424 7.84 56.7584 7.462 57.5284 7.462C58.6484 7.462 58.9564 8.092 58.9564 9.128V9.716C57.5284 9.828 55.0364 9.576 55.0364 12.054C55.0364 13.286 55.7224 14.14 56.9824 14.14C57.8504 14.14 58.5364 13.804 58.9844 13.132H59.0124V14ZM64.0991 14V3.892H63.2591V14H64.0991ZM68.6026 14V3.892H67.7626V14H68.6026ZM77.0356 14H77.8756V7.602H79.3036V6.93H77.8756V5.726C77.8756 5.32 77.8756 4.592 78.6876 4.592H79.3176V3.892C79.1076 3.864 78.9676 3.836 78.8416 3.836C77.1336 3.836 77.0356 5.068 77.0356 5.74V6.93H75.9016V7.602H77.0356V14ZM82.6821 6.93H81.8421V14H82.6821V9.45C82.6821 8.26 83.4661 7.546 84.6561 7.644V6.79C83.8021 6.79 83.0601 7.21 82.7101 7.882H82.6821V6.93ZM89.3366 14.14C90.9886 14.14 91.7726 13.062 91.7726 11.228V9.702C91.7726 7.868 90.9886 6.79 89.3366 6.79C87.6846 6.79 86.9006 7.868 86.9006 9.702V11.228C86.9006 13.062 87.6846 14.14 89.3366 14.14ZM89.3366 7.462C90.7226 7.462 90.9326 8.624 90.9326 10.458C90.9326 12.306 90.7226 13.468 89.3366 13.468C87.9506 13.468 87.7406 12.306 87.7406 10.458C87.7406 8.624 87.9506 7.462 89.3366 7.462ZM95.5293 9.45C95.5293 8.526 95.9353 7.462 96.9993 7.462C97.8253 7.462 98.0773 8.246 98.0913 8.946V14H98.9313V9.45C98.9313 8.526 99.3373 7.462 100.401 7.462C101.227 7.462 101.479 8.246 101.493 8.946V14H102.333V8.736C102.291 7.602 101.675 6.79 100.499 6.79C99.7153 6.79 99.1133 7.196 98.7633 7.896C98.5253 7.196 97.8813 6.79 97.1533 6.79C96.3693 6.79 95.8093 7.224 95.4733 7.798H95.4453V6.916H94.6893V14H95.5293V9.45ZM110.449 7.602V12.656C110.449 13.524 110.785 14.028 111.919 14.028C112.185 14.028 112.465 14.014 112.717 13.986V13.258C112.535 13.286 112.339 13.3 112.059 13.3C111.387 13.3 111.289 13.076 111.289 12.138V7.602H112.717V6.93H111.289V5.11L110.449 5.474V6.93H109.315V7.602H110.449ZM119.931 10.64C119.931 8.54 119.931 6.79 117.495 6.79C115.913 6.79 115.059 7.728 115.059 9.772V11.508C115.059 13.65 116.277 14.14 117.495 14.14C118.909 14.14 119.833 13.552 119.931 11.844H119.049C119.063 12.796 118.545 13.468 117.495 13.468C116.165 13.468 115.899 12.166 115.899 11.186V10.64H119.931ZM115.899 9.968C115.899 8.4 116.151 7.462 117.495 7.462C118.839 7.462 119.091 8.4 119.091 9.968H115.899ZM126.46 11.676C126.46 12.6 125.676 13.468 124.71 13.468C123.842 13.468 123.436 12.81 123.436 12.012C123.436 10.29 125.256 10.43 126.46 10.388V11.676ZM126.516 14H127.384C127.3 13.174 127.3 12.726 127.3 12.222V8.666C127.3 6.86 125.816 6.79 125.102 6.79C123.87 6.79 122.82 7.322 122.75 8.68H123.646C123.646 7.84 124.262 7.462 125.032 7.462C126.152 7.462 126.46 8.092 126.46 9.128V9.716C125.032 9.828 122.54 9.576 122.54 12.054C122.54 13.286 123.226 14.14 124.486 14.14C125.354 14.14 126.04 13.804 126.488 13.132H126.516V14ZM134.473 8.96C134.543 7.476 133.717 6.79 132.499 6.79C131.533 6.79 130.735 7.154 130.371 8.162C130.189 8.694 130.161 9.8 130.161 10.5C130.161 12.25 130.161 14.14 132.555 14.14C133.213 14.14 134.557 13.818 134.487 11.914H133.647C133.605 12.768 133.465 13.468 132.359 13.468C131.057 13.468 131.057 11.774 131.057 10.5C131.057 9.562 131.141 8.596 131.253 8.274C131.435 7.756 131.869 7.462 132.387 7.462C133.353 7.462 133.675 8.078 133.633 8.96H134.473ZM138.164 14V9.562C138.164 7.98 138.934 7.462 139.69 7.462C140.67 7.462 140.992 8.232 140.992 9.058V14H141.832V9.016C141.832 8.092 141.65 6.79 139.9 6.79C139.144 6.79 138.598 7.21 138.192 7.798H138.164V3.892H137.324V14H138.164ZM149.635 10.64C149.635 8.54 149.635 6.79 147.199 6.79C145.617 6.79 144.763 7.728 144.763 9.772V11.508C144.763 13.65 145.981 14.14 147.199 14.14C148.613 14.14 149.537 13.552 149.635 11.844H148.753C148.767 12.796 148.249 13.468 147.199 13.468C145.869 13.468 145.603 12.166 145.603 11.186V10.64H149.635ZM145.603 9.968C145.603 8.4 145.855 7.462 147.199 7.462C148.543 7.462 148.795 8.4 148.795 9.968H145.603ZM153.461 6.93H152.621V14H153.461V9.45C153.461 8.26 154.245 7.546 155.435 7.644V6.79C154.581 6.79 153.839 7.21 153.489 7.882H153.461V6.93ZM162.407 14H163.303V9.296H165.011C166.747 9.296 167.405 8.372 167.405 6.342C167.405 4.004 166.019 3.892 165.179 3.892H162.407V14ZM163.303 4.648H164.955C165.767 4.648 166.509 4.788 166.509 6.51C166.509 8.092 165.907 8.54 164.969 8.54H163.303V4.648ZM173.584 11.676C173.584 12.6 172.8 13.468 171.834 13.468C170.966 13.468 170.56 12.81 170.56 12.012C170.56 10.29 172.38 10.43 173.584 10.388V11.676ZM173.64 14H174.508C174.424 13.174 174.424 12.726 174.424 12.222V8.666C174.424 6.86 172.94 6.79 172.226 6.79C170.994 6.79 169.944 7.322 169.874 8.68H170.77C170.77 7.84 171.386 7.462 172.156 7.462C173.276 7.462 173.584 8.092 173.584 9.128V9.716C172.156 9.828 169.664 9.576 169.664 12.054C169.664 13.286 170.35 14.14 171.61 14.14C172.478 14.14 173.164 13.804 173.612 13.132H173.64V14ZM178.111 7.602V12.656C178.111 13.524 178.447 14.028 179.581 14.028C179.847 14.028 180.127 14.014 180.379 13.986V13.258C180.197 13.286 180.001 13.3 179.721 13.3C179.049 13.3 178.951 13.076 178.951 12.138V7.602H180.379V6.93H178.951V5.11L178.111 5.474V6.93H176.977V7.602H178.111ZM183.407 7.602V12.656C183.407 13.524 183.743 14.028 184.877 14.028C185.143 14.028 185.423 14.014 185.675 13.986V13.258C185.493 13.286 185.297 13.3 185.017 13.3C184.345 13.3 184.247 13.076 184.247 12.138V7.602H185.675V6.93H184.247V5.11L183.407 5.474V6.93H182.273V7.602H183.407ZM189.32 14V6.93H188.48V14H189.32ZM189.418 4.956V3.892H188.382V4.956H189.418ZM198.327 14V5.054L198.355 5.026L202.471 14H203.829V3.892H202.933V12.74L202.905 12.768L198.803 3.892H197.431V14H198.327ZM211.855 10.64C211.855 8.54 211.855 6.79 209.419 6.79C207.837 6.79 206.983 7.728 206.983 9.772V11.508C206.983 13.65 208.201 14.14 209.419 14.14C210.833 14.14 211.757 13.552 211.855 11.844H210.973C210.987 12.796 210.469 13.468 209.419 13.468C208.089 13.468 207.823 12.166 207.823 11.186V10.64H211.855ZM207.823 9.968C207.823 8.4 208.075 7.462 209.419 7.462C210.763 7.462 211.015 8.4 211.015 9.968H207.823ZM215.906 14V6.93H215.066V14H215.906ZM216.004 4.956V3.892H214.968V4.956H216.004ZM220.41 14V3.892H219.57V14H220.41ZM227.755 12.138C227.755 9.772 224.577 10.248 224.577 8.484C224.577 7.854 225.053 7.462 225.655 7.462C226.607 7.462 226.845 7.938 226.887 8.834H227.713C227.713 7.756 227.265 6.79 225.865 6.79C224.633 6.79 223.737 7.252 223.737 8.554C223.737 10.892 226.915 10.416 226.915 12.264C226.915 13.048 226.523 13.51 225.711 13.51C224.633 13.51 224.409 12.866 224.409 11.9H223.555C223.541 13.398 224.143 14.14 225.669 14.14C226.985 14.14 227.755 13.468 227.755 12.138ZM232.889 14.14C234.541 14.14 235.325 13.062 235.325 11.228V9.702C235.325 7.868 234.541 6.79 232.889 6.79C231.237 6.79 230.453 7.868 230.453 9.702V11.228C230.453 13.062 231.237 14.14 232.889 14.14ZM232.889 7.462C234.275 7.462 234.485 8.624 234.485 10.458C234.485 12.306 234.275 13.468 232.889 13.468C231.503 13.468 231.293 12.306 231.293 10.458C231.293 8.624 231.503 7.462 232.889 7.462ZM239.095 9.562C239.095 7.98 239.865 7.462 240.621 7.462C241.601 7.462 241.923 8.232 241.923 9.058V14H242.763V9.016C242.763 8.092 242.581 6.79 240.831 6.79C240.075 6.79 239.529 7.21 239.123 7.798H239.095V6.93H238.255V14H239.095V9.562ZM245.778 15.47H246.52L247.36 12.936H246.338L245.778 15.47ZM256.115 14H257.165L258.649 7.952H258.677L260.231 14H261.281L263.227 6.93H262.387L260.805 13.118H260.777L259.209 6.93H258.173L256.675 13.118H256.647L255.065 6.93H254.169L256.115 14ZM266.461 14V9.562C266.461 7.98 267.231 7.462 267.987 7.462C268.967 7.462 269.289 8.232 269.289 9.058V14H270.129V9.016C270.129 8.092 269.947 6.79 268.197 6.79C267.441 6.79 266.895 7.21 266.489 7.798H266.461V3.892H265.621V14H266.461ZM275.496 14.14C277.148 14.14 277.932 13.062 277.932 11.228V9.702C277.932 7.868 277.148 6.79 275.496 6.79C273.844 6.79 273.06 7.868 273.06 9.702V11.228C273.06 13.062 273.844 14.14 275.496 14.14ZM275.496 7.462C276.882 7.462 277.092 8.624 277.092 10.458C277.092 12.306 276.882 13.468 275.496 13.468C274.11 13.468 273.9 12.306 273.9 10.458C273.9 8.624 274.11 7.462 275.496 7.462ZM286.598 14H287.648L289.132 7.952H289.16L290.714 14H291.764L293.71 6.93H292.87L291.288 13.118H291.26L289.692 6.93H288.656L287.158 13.118H287.13L285.548 6.93H284.652L286.598 14ZM299.702 11.676C299.702 12.6 298.918 13.468 297.952 13.468C297.084 13.468 296.678 12.81 296.678 12.012C296.678 10.29 298.498 10.43 299.702 10.388V11.676ZM299.758 14H300.626C300.542 13.174 300.542 12.726 300.542 12.222V8.666C300.542 6.86 299.058 6.79 298.344 6.79C297.112 6.79 296.062 7.322 295.992 8.68H296.888C296.888 7.84 297.504 7.462 298.274 7.462C299.394 7.462 299.702 8.092 299.702 9.128V9.716C298.274 9.828 295.782 9.576 295.782 12.054C295.782 13.286 296.468 14.14 297.728 14.14C298.596 14.14 299.282 13.804 299.73 13.132H299.758V14ZM307.686 12.138C307.686 9.772 304.508 10.248 304.508 8.484C304.508 7.854 304.984 7.462 305.586 7.462C306.538 7.462 306.776 7.938 306.818 8.834H307.644C307.644 7.756 307.196 6.79 305.796 6.79C304.564 6.79 303.668 7.252 303.668 8.554C303.668 10.892 306.846 10.416 306.846 12.264C306.846 13.048 306.454 13.51 305.642 13.51C304.564 13.51 304.34 12.866 304.34 11.9H303.486C303.472 13.398 304.074 14.14 305.6 14.14C306.916 14.14 307.686 13.468 307.686 12.138ZM318.667 11.676C318.667 12.6 317.883 13.468 316.917 13.468C316.049 13.468 315.643 12.81 315.643 12.012C315.643 10.29 317.463 10.43 318.667 10.388V11.676ZM318.723 14H319.591C319.507 13.174 319.507 12.726 319.507 12.222V8.666C319.507 6.86 318.023 6.79 317.309 6.79C316.077 6.79 315.027 7.322 314.957 8.68H315.853C315.853 7.84 316.469 7.462 317.239 7.462C318.359 7.462 318.667 8.092 318.667 9.128V9.716C317.239 9.828 314.747 9.576 314.747 12.054C314.747 13.286 315.433 14.14 316.693 14.14C317.561 14.14 318.247 13.804 318.695 13.132H318.723V14ZM323.194 7.602V12.656C323.194 13.524 323.53 14.028 324.664 14.028C324.93 14.028 325.21 14.014 325.462 13.986V13.258C325.28 13.286 325.084 13.3 324.804 13.3C324.132 13.3 324.034 13.076 324.034 12.138V7.602H325.462V6.93H324.034V5.11L323.194 5.474V6.93H322.06V7.602H323.194ZM332.994 7.602V12.656C332.994 13.524 333.33 14.028 334.464 14.028C334.73 14.028 335.01 14.014 335.262 13.986V13.258C335.08 13.286 334.884 13.3 334.604 13.3C333.932 13.3 333.834 13.076 333.834 12.138V7.602H335.262V6.93H333.834V5.11L332.994 5.474V6.93H331.86V7.602H332.994ZM338.626 14V9.562C338.626 7.98 339.396 7.462 340.152 7.462C341.132 7.462 341.454 8.232 341.454 9.058V14H342.294V9.016C342.294 8.092 342.112 6.79 340.362 6.79C339.606 6.79 339.06 7.21 338.654 7.798H338.626V3.892H337.786V14H338.626ZM350.097 10.64C350.097 8.54 350.097 6.79 347.661 6.79C346.079 6.79 345.225 7.728 345.225 9.772V11.508C345.225 13.65 346.443 14.14 347.661 14.14C349.075 14.14 349.999 13.552 350.097 11.844H349.215C349.229 12.796 348.711 13.468 347.661 13.468C346.331 13.468 346.065 12.166 346.065 11.186V10.64H350.097ZM346.065 9.968C346.065 8.4 346.317 7.462 347.661 7.462C349.005 7.462 349.257 8.4 349.257 9.968H346.065ZM358.035 7.602V12.656C358.035 13.524 358.371 14.028 359.505 14.028C359.771 14.028 360.051 14.014 360.303 13.986V13.258C360.121 13.286 359.925 13.3 359.645 13.3C358.973 13.3 358.875 13.076 358.875 12.138V7.602H360.303V6.93H358.875V5.11L358.035 5.474V6.93H356.901V7.602H358.035ZM363.948 14V6.93H363.108V14H363.948ZM364.046 4.956V3.892H363.01V4.956H364.046ZM368.157 9.45C368.157 8.526 368.563 7.462 369.627 7.462C370.453 7.462 370.705 8.246 370.719 8.946V14H371.559V9.45C371.559 8.526 371.965 7.462 373.029 7.462C373.855 7.462 374.107 8.246 374.121 8.946V14H374.961V8.736C374.919 7.602 374.303 6.79 373.127 6.79C372.343 6.79 371.741 7.196 371.391 7.896C371.153 7.196 370.509 6.79 369.781 6.79C368.997 6.79 368.437 7.224 368.101 7.798H368.073V6.916H367.317V14H368.157V9.45ZM382.759 10.64C382.759 8.54 382.759 6.79 380.323 6.79C378.741 6.79 377.887 7.728 377.887 9.772V11.508C377.887 13.65 379.105 14.14 380.323 14.14C381.737 14.14 382.661 13.552 382.759 11.844H381.877C381.891 12.796 381.373 13.468 380.323 13.468C378.993 13.468 378.727 12.166 378.727 11.186V10.64H382.759ZM378.727 9.968C378.727 8.4 378.979 7.462 380.323 7.462C381.667 7.462 381.919 8.4 381.919 9.968H378.727ZM391.314 14V6.93H390.474V14H391.314ZM391.412 4.956V3.892H390.376V4.956H391.412ZM395.537 9.562C395.537 7.98 396.307 7.462 397.063 7.462C398.043 7.462 398.365 8.232 398.365 9.058V14H399.205V9.016C399.205 8.092 399.023 6.79 397.273 6.79C396.517 6.79 395.971 7.21 395.565 7.798H395.537V6.93H394.697V14H395.537V9.562ZM407.325 7.602V12.656C407.325 13.524 407.661 14.028 408.795 14.028C409.061 14.028 409.341 14.014 409.593 13.986V13.258C409.411 13.286 409.215 13.3 408.935 13.3C408.263 13.3 408.165 13.076 408.165 12.138V7.602H409.593V6.93H408.165V5.11L407.325 5.474V6.93H406.191V7.602H407.325ZM412.958 14V9.562C412.958 7.98 413.728 7.462 414.484 7.462C415.464 7.462 415.786 8.232 415.786 9.058V14H416.626V9.016C416.626 8.092 416.444 6.79 414.694 6.79C413.938 6.79 413.392 7.21 412.986 7.798H412.958V3.892H412.118V14H412.958ZM424.428 10.64C424.428 8.54 424.428 6.79 421.992 6.79C420.41 6.79 419.556 7.728 419.556 9.772V11.508C419.556 13.65 420.774 14.14 421.992 14.14C423.406 14.14 424.33 13.552 424.428 11.844H423.546C423.56 12.796 423.042 13.468 421.992 13.468C420.662 13.468 420.396 12.166 420.396 11.186V10.64H424.428ZM420.396 9.968C420.396 8.4 420.648 7.462 421.992 7.462C423.336 7.462 423.588 8.4 423.588 9.968H420.396ZM11.4305 34.138C11.4305 31.772 8.25253 32.248 8.25253 30.484C8.25253 29.854 8.72853 29.462 9.33053 29.462C10.2825 29.462 10.5205 29.938 10.5625 30.834H11.3885C11.3885 29.756 10.9405 28.79 9.54053 28.79C8.30853 28.79 7.41253 29.252 7.41253 30.554C7.41253 32.892 10.5905 32.416 10.5905 34.264C10.5905 35.048 10.1985 35.51 9.38653 35.51C8.30853 35.51 8.08453 34.866 8.08453 33.9H7.23053C7.21653 35.398 7.81853 36.14 9.34453 36.14C10.6605 36.14 11.4305 35.468 11.4305 34.138ZM18.2999 30.96C18.3699 29.476 17.5439 28.79 16.3259 28.79C15.3599 28.79 14.5619 29.154 14.1979 30.162C14.0159 30.694 13.9879 31.8 13.9879 32.5C13.9879 34.25 13.9879 36.14 16.3819 36.14C17.0399 36.14 18.3839 35.818 18.3139 33.914H17.4739C17.4319 34.768 17.2919 35.468 16.1859 35.468C14.8839 35.468 14.8839 33.774 14.8839 32.5C14.8839 31.562 14.9679 30.596 15.0799 30.274C15.2619 29.756 15.6959 29.462 16.2139 29.462C17.1799 29.462 17.5019 30.078 17.4599 30.96H18.2999ZM21.9913 36V31.562C21.9913 29.98 22.7613 29.462 23.5173 29.462C24.4973 29.462 24.8193 30.232 24.8193 31.058V36H25.6593V31.016C25.6593 30.092 25.4773 28.79 23.7273 28.79C22.9713 28.79 22.4253 29.21 22.0193 29.798H21.9913V25.892H21.1513V36H21.9913ZM31.026 36.14C32.678 36.14 33.462 35.062 33.462 33.228V31.702C33.462 29.868 32.678 28.79 31.026 28.79C29.374 28.79 28.59 29.868 28.59 31.702V33.228C28.59 35.062 29.374 36.14 31.026 36.14ZM31.026 29.462C32.412 29.462 32.622 30.624 32.622 32.458C32.622 34.306 32.412 35.468 31.026 35.468C29.64 35.468 29.43 34.306 29.43 32.458C29.43 30.624 29.64 29.462 31.026 29.462ZM38.6468 36.14C40.2988 36.14 41.0828 35.062 41.0828 33.228V31.702C41.0828 29.868 40.2988 28.79 38.6468 28.79C36.9948 28.79 36.2108 29.868 36.2108 31.702V33.228C36.2108 35.062 36.9948 36.14 38.6468 36.14ZM38.6468 29.462C40.0328 29.462 40.2428 30.624 40.2428 32.458C40.2428 34.306 40.0328 35.468 38.6468 35.468C37.2608 35.468 37.0508 34.306 37.0508 32.458C37.0508 30.624 37.2608 29.462 38.6468 29.462ZM45.1335 36V25.892H44.2935V36H45.1335ZM48.419 28.426H49.161L50.001 25.892H48.979L48.419 28.426ZM55.7247 34.138C55.7247 31.772 52.5467 32.248 52.5467 30.484C52.5467 29.854 53.0227 29.462 53.6247 29.462C54.5767 29.462 54.8147 29.938 54.8567 30.834H55.6827C55.6827 29.756 55.2347 28.79 53.8347 28.79C52.6027 28.79 51.7067 29.252 51.7067 30.554C51.7067 32.892 54.8847 32.416 54.8847 34.264C54.8847 35.048 54.4927 35.51 53.6807 35.51C52.6027 35.51 52.3787 34.866 52.3787 33.9H51.5247C51.5107 35.398 52.1127 36.14 53.6387 36.14C54.9547 36.14 55.7247 35.468 55.7247 34.138ZM64.2276 36V25.892H63.3876V36H64.2276ZM68.7311 36V28.93H67.8911V36H68.7311ZM68.8291 26.956V25.892H67.7931V26.956H68.8291ZM72.9546 32.36C72.9546 31.296 73.1226 29.462 74.4806 29.462C76.0346 29.462 76.0766 30.834 76.0766 32.486C76.0766 34.138 76.0346 35.468 74.4806 35.468C72.9546 35.468 72.9546 33.48 72.9546 32.36ZM72.9266 36V35.146H72.9546C73.3046 35.804 73.9066 36.14 74.7326 36.14C76.7906 36.14 76.9166 34.012 76.9166 32.458C76.9166 31.198 77.0986 28.79 74.8026 28.79C74.0046 28.79 73.4446 29.084 73.0106 29.756L72.9826 29.728V25.892H72.1426V35.3C72.1426 35.538 72.1006 35.762 72.0586 36H72.9266ZM80.6313 28.93H79.7913V36H80.6313V31.45C80.6313 30.26 81.4153 29.546 82.6053 29.644V28.79C81.7513 28.79 81.0093 29.21 80.6593 29.882H80.6313V28.93ZM88.6298 33.676C88.6298 34.6 87.8458 35.468 86.8798 35.468C86.0118 35.468 85.6058 34.81 85.6058 34.012C85.6058 32.29 87.4258 32.43 88.6298 32.388V33.676ZM88.6858 36H89.5538C89.4698 35.174 89.4698 34.726 89.4698 34.222V30.666C89.4698 28.86 87.9858 28.79 87.2718 28.79C86.0398 28.79 84.9898 29.322 84.9198 30.68H85.8158C85.8158 29.84 86.4318 29.462 87.2018 29.462C88.3218 29.462 88.6298 30.092 88.6298 31.128V31.716C87.2018 31.828 84.7098 31.576 84.7098 34.054C84.7098 35.286 85.3958 36.14 86.6558 36.14C87.5238 36.14 88.2098 35.804 88.6578 35.132H88.6858V36ZM93.5485 28.93H92.7085V36H93.5485V31.45C93.5485 30.26 94.3325 29.546 95.5225 29.644V28.79C94.6685 28.79 93.9265 29.21 93.5765 29.882H93.5485V28.93ZM98.649 38.674H99.475L102.401 28.93H101.561L99.895 34.726H99.867L98.145 28.93H97.235L99.475 36.014L98.649 38.674ZM110.526 36H111.576L113.06 29.952H113.088L114.642 36H115.692L117.638 28.93H116.798L115.216 35.118H115.188L113.62 28.93H112.584L111.086 35.118H111.058L109.476 28.93H108.58L110.526 36ZM121.152 36V28.93H120.312V36H121.152ZM121.25 26.956V25.892H120.214V26.956H121.25ZM125.039 29.602V34.656C125.039 35.524 125.375 36.028 126.509 36.028C126.775 36.028 127.055 36.014 127.307 35.986V35.258C127.125 35.286 126.929 35.3 126.649 35.3C125.977 35.3 125.879 35.076 125.879 34.138V29.602H127.307V28.93H125.879V27.11L125.039 27.474V28.93H123.905V29.602H125.039ZM130.672 36V31.562C130.672 29.98 131.442 29.462 132.198 29.462C133.178 29.462 133.5 30.232 133.5 31.058V36H134.34V31.016C134.34 30.092 134.158 28.79 132.408 28.79C131.652 28.79 131.106 29.21 130.7 29.798H130.672V25.892H129.832V36H130.672ZM142.796 36V31.562C142.796 29.98 143.566 29.462 144.322 29.462C145.302 29.462 145.624 30.232 145.624 31.058V36H146.464V31.016C146.464 30.092 146.282 28.79 144.532 28.79C143.776 28.79 143.23 29.21 142.824 29.798H142.796V25.892H141.956V36H142.796ZM154.267 32.64C154.267 30.54 154.267 28.79 151.831 28.79C150.249 28.79 149.395 29.728 149.395 31.772V33.508C149.395 35.65 150.613 36.14 151.831 36.14C153.245 36.14 154.169 35.552 154.267 33.844H153.385C153.399 34.796 152.881 35.468 151.831 35.468C150.501 35.468 150.235 34.166 150.235 33.186V32.64H154.267ZM150.235 31.968C150.235 30.4 150.487 29.462 151.831 29.462C153.175 29.462 153.427 30.4 153.427 31.968H150.235ZM158.093 28.93H157.253V36H158.093V31.45C158.093 30.26 158.877 29.546 160.067 29.644V28.79C159.213 28.79 158.471 29.21 158.121 29.882H158.093V28.93ZM170.959 34.138C170.959 31.772 167.781 32.248 167.781 30.484C167.781 29.854 168.257 29.462 168.859 29.462C169.811 29.462 170.049 29.938 170.091 30.834H170.917C170.917 29.756 170.469 28.79 169.069 28.79C167.837 28.79 166.941 29.252 166.941 30.554C166.941 32.892 170.119 32.416 170.119 34.264C170.119 35.048 169.727 35.51 168.915 35.51C167.837 35.51 167.613 34.866 167.613 33.9H166.759C166.745 35.398 167.347 36.14 168.873 36.14C170.189 36.14 170.959 35.468 170.959 34.138ZM174.343 29.602V34.656C174.343 35.524 174.679 36.028 175.813 36.028C176.079 36.028 176.359 36.014 176.611 35.986V35.258C176.429 35.286 176.233 35.3 175.953 35.3C175.281 35.3 175.183 35.076 175.183 34.138V29.602H176.611V28.93H175.183V27.11L174.343 27.474V28.93H173.209V29.602H174.343ZM182.747 28.93V33.914C182.747 34.404 182.341 35.468 181.207 35.468C179.989 35.468 180.031 33.984 180.031 33.788V28.93H179.191V33.928C179.191 35.076 179.597 36.14 181.053 36.14C181.837 36.14 182.341 35.818 182.831 35.216H182.859V36H183.587V28.93H182.747ZM188.87 35.468C187.96 35.468 187.33 35.118 187.33 32.486C187.33 30.834 187.33 29.462 188.842 29.462C190.424 29.462 190.424 31.422 190.424 31.842V33.102C190.424 34.824 189.668 35.468 188.87 35.468ZM190.508 36H191.32C191.278 35.762 191.236 35.3 191.236 34.6V25.892H190.396V29.644L190.368 29.63C189.934 29.084 189.304 28.79 188.66 28.79C186.49 28.79 186.49 31.1 186.49 32.458C186.49 34.11 186.602 36.14 188.646 36.14C189.472 36.14 190.004 35.79 190.438 35.118L190.466 35.104L190.508 36ZM199.067 32.64C199.067 30.54 199.067 28.79 196.631 28.79C195.049 28.79 194.195 29.728 194.195 31.772V33.508C194.195 35.65 195.413 36.14 196.631 36.14C198.045 36.14 198.969 35.552 199.067 33.844H198.185C198.199 34.796 197.681 35.468 196.631 35.468C195.301 35.468 195.035 34.166 195.035 33.186V32.64H199.067ZM195.035 31.968C195.035 30.4 195.287 29.462 196.631 29.462C197.975 29.462 198.227 30.4 198.227 31.968H195.035ZM202.837 31.562C202.837 29.98 203.607 29.462 204.363 29.462C205.343 29.462 205.665 30.232 205.665 31.058V36H206.505V31.016C206.505 30.092 206.323 28.79 204.573 28.79C203.817 28.79 203.271 29.21 202.865 29.798H202.837V28.93H201.997V36H202.837V31.562ZM210.122 29.602V34.656C210.122 35.524 210.458 36.028 211.592 36.028C211.858 36.028 212.138 36.014 212.39 35.986V35.258C212.208 35.286 212.012 35.3 211.732 35.3C211.06 35.3 210.962 35.076 210.962 34.138V29.602H212.39V28.93H210.962V27.11L210.122 27.474V28.93H208.988V29.602H210.122ZM218.877 34.138C218.877 31.772 215.699 32.248 215.699 30.484C215.699 29.854 216.175 29.462 216.777 29.462C217.729 29.462 217.967 29.938 218.009 30.834H218.835C218.835 29.756 218.387 28.79 216.987 28.79C215.755 28.79 214.859 29.252 214.859 30.554C214.859 32.892 218.037 32.416 218.037 34.264C218.037 35.048 217.645 35.51 216.833 35.51C215.755 35.51 215.531 34.866 215.531 33.9H214.677C214.663 35.398 215.265 36.14 216.791 36.14C218.107 36.14 218.877 35.468 218.877 34.138ZM229.858 33.676C229.858 34.6 229.074 35.468 228.108 35.468C227.24 35.468 226.834 34.81 226.834 34.012C226.834 32.29 228.654 32.43 229.858 32.388V33.676ZM229.914 36H230.782C230.698 35.174 230.698 34.726 230.698 34.222V30.666C230.698 28.86 229.214 28.79 228.5 28.79C227.268 28.79 226.218 29.322 226.148 30.68H227.044C227.044 29.84 227.66 29.462 228.43 29.462C229.55 29.462 229.858 30.092 229.858 31.128V31.716C228.43 31.828 225.938 31.576 225.938 34.054C225.938 35.286 226.624 36.14 227.884 36.14C228.752 36.14 229.438 35.804 229.886 35.132H229.914V36ZM235 36V25.892H234.16V36H235ZM239.504 36V25.892H238.664V36H239.504ZM251.003 28.93V33.914C251.003 34.404 250.597 35.468 249.463 35.468C248.245 35.468 248.287 33.984 248.287 33.788V28.93H247.447V33.928C247.447 35.076 247.853 36.14 249.309 36.14C250.093 36.14 250.597 35.818 251.087 35.216H251.115V36H251.843V28.93H251.003ZM255.852 31.562C255.852 29.98 256.622 29.462 257.378 29.462C258.358 29.462 258.68 30.232 258.68 31.058V36H259.52V31.016C259.52 30.092 259.338 28.79 257.588 28.79C256.832 28.79 256.286 29.21 255.88 29.798H255.852V28.93H255.012V36H255.852V31.562ZM264.746 35.468C263.836 35.468 263.206 35.118 263.206 32.486C263.206 30.834 263.206 29.462 264.718 29.462C266.3 29.462 266.3 31.422 266.3 31.842V33.102C266.3 34.824 265.544 35.468 264.746 35.468ZM266.384 36H267.196C267.154 35.762 267.112 35.3 267.112 34.6V25.892H266.272V29.644L266.244 29.63C265.81 29.084 265.18 28.79 264.536 28.79C262.366 28.79 262.366 31.1 262.366 32.458C262.366 34.11 262.478 36.14 264.522 36.14C265.348 36.14 265.88 35.79 266.314 35.118L266.342 35.104L266.384 36ZM274.943 32.64C274.943 30.54 274.943 28.79 272.507 28.79C270.925 28.79 270.071 29.728 270.071 31.772V33.508C270.071 35.65 271.289 36.14 272.507 36.14C273.921 36.14 274.845 35.552 274.943 33.844H274.061C274.075 34.796 273.557 35.468 272.507 35.468C271.177 35.468 270.911 34.166 270.911 33.186V32.64H274.943ZM270.911 31.968C270.911 30.4 271.163 29.462 272.507 29.462C273.851 29.462 274.103 30.4 274.103 31.968H270.911ZM278.77 28.93H277.93V36H278.77V31.45C278.77 30.26 279.554 29.546 280.744 29.644V28.79C279.89 28.79 279.148 29.21 278.798 29.882H278.77V28.93ZM288.178 29.602V34.656C288.178 35.524 288.514 36.028 289.648 36.028C289.914 36.028 290.194 36.014 290.446 35.986V35.258C290.264 35.286 290.068 35.3 289.788 35.3C289.116 35.3 289.018 35.076 289.018 34.138V29.602H290.446V28.93H289.018V27.11L288.178 27.474V28.93H287.044V29.602H288.178ZM296.568 33.676C296.568 34.6 295.784 35.468 294.818 35.468C293.95 35.468 293.544 34.81 293.544 34.012C293.544 32.29 295.364 32.43 296.568 32.388V33.676ZM296.624 36H297.492C297.408 35.174 297.408 34.726 297.408 34.222V30.666C297.408 28.86 295.924 28.79 295.21 28.79C293.978 28.79 292.928 29.322 292.858 30.68H293.754C293.754 29.84 294.37 29.462 295.14 29.462C296.26 29.462 296.568 30.092 296.568 31.128V31.716C295.14 31.828 292.648 31.576 292.648 34.054C292.648 35.286 293.334 36.14 294.594 36.14C295.462 36.14 296.148 35.804 296.596 35.132H296.624V36ZM301.431 32.36C301.431 31.296 301.599 29.462 302.957 29.462C304.511 29.462 304.553 30.834 304.553 32.486C304.553 34.138 304.511 35.468 302.957 35.468C301.431 35.468 301.431 33.48 301.431 32.36ZM301.403 36V35.146H301.431C301.781 35.804 302.383 36.14 303.209 36.14C305.267 36.14 305.393 34.012 305.393 32.458C305.393 31.198 305.575 28.79 303.279 28.79C302.481 28.79 301.921 29.084 301.487 29.756L301.459 29.728V25.892H300.619V35.3C300.619 35.538 300.577 35.762 300.535 36H301.403ZM309.332 36V25.892H308.492V36H309.332ZM317.405 32.64C317.405 30.54 317.405 28.79 314.969 28.79C313.387 28.79 312.533 29.728 312.533 31.772V33.508C312.533 35.65 313.751 36.14 314.969 36.14C316.383 36.14 317.307 35.552 317.405 33.844H316.523C316.537 34.796 316.019 35.468 314.969 35.468C313.639 35.468 313.373 34.166 313.373 33.186V32.64H317.405ZM313.373 31.968C313.373 30.4 313.625 29.462 314.969 29.462C316.313 29.462 316.565 30.4 316.565 31.968H313.373ZM324.298 34.138C324.298 31.772 321.12 32.248 321.12 30.484C321.12 29.854 321.596 29.462 322.198 29.462C323.15 29.462 323.388 29.938 323.43 30.834H324.256C324.256 29.756 323.808 28.79 322.408 28.79C321.176 28.79 320.28 29.252 320.28 30.554C320.28 32.892 323.458 32.416 323.458 34.264C323.458 35.048 323.066 35.51 322.254 35.51C321.176 35.51 320.952 34.866 320.952 33.9H320.098C320.084 35.398 320.686 36.14 322.212 36.14C323.528 36.14 324.298 35.468 324.298 34.138ZM332.521 36V31.562C332.521 29.98 333.291 29.462 334.047 29.462C335.027 29.462 335.349 30.232 335.349 31.058V36H336.189V31.016C336.189 30.092 336.007 28.79 334.257 28.79C333.501 28.79 332.955 29.21 332.549 29.798H332.521V25.892H331.681V36H332.521ZM341.555 36.14C343.207 36.14 343.991 35.062 343.991 33.228V31.702C343.991 29.868 343.207 28.79 341.555 28.79C339.903 28.79 339.119 29.868 339.119 31.702V33.228C339.119 35.062 339.903 36.14 341.555 36.14ZM341.555 29.462C342.941 29.462 343.151 30.624 343.151 32.458C343.151 34.306 342.941 35.468 341.555 35.468C340.169 35.468 339.959 34.306 339.959 32.458C339.959 30.624 340.169 29.462 341.555 29.462ZM347.79 31.828C347.79 30.078 348.742 29.462 349.288 29.462C350.674 29.462 350.884 30.624 350.884 32.458C350.884 34.306 350.674 35.468 349.288 35.468C348.518 35.468 347.79 34.698 347.79 33.088V31.828ZM347.762 28.93H346.95V38.674H347.79V35.202L347.818 35.216C348.252 35.888 348.77 36.14 349.288 36.14C351.094 36.14 351.724 35.062 351.724 33.228V31.646C351.724 30.722 351.71 28.79 349.498 28.79C348.938 28.79 348.238 29.084 347.79 29.77L347.762 29.784V28.93ZM355.663 36V28.93H354.823V36H355.663ZM355.761 26.956V25.892H354.725V26.956H355.761ZM359.886 31.562C359.886 29.98 360.656 29.462 361.412 29.462C362.392 29.462 362.714 30.232 362.714 31.058V36H363.554V31.016C363.554 30.092 363.372 28.79 361.622 28.79C360.866 28.79 360.32 29.21 359.914 29.798H359.886V28.93H359.046V36H359.886V31.562ZM368.725 29.462C369.509 29.462 370.307 30.022 370.307 31.506C370.307 33.578 370.251 33.9 370.041 34.446C369.915 34.782 369.467 35.244 368.767 35.244C367.241 35.244 367.241 33.774 367.241 32.304C367.241 31.254 367.269 29.462 368.725 29.462ZM370.363 29.812L370.335 29.784C370.027 29.154 369.313 28.79 368.599 28.79C367.171 28.79 366.681 29.896 366.611 30.19C366.415 30.946 366.401 30.96 366.401 32.598C366.401 34.166 366.541 35.916 368.571 35.916C369.243 35.916 369.915 35.664 370.279 35.062H370.307C370.307 37.176 370.405 38.058 368.767 38.058C367.983 38.058 367.381 37.582 367.437 36.77H366.597C366.541 37.484 366.891 38.73 368.655 38.73C370.671 38.73 371.147 37.806 371.147 36.252V30.302C371.147 29.938 371.161 29.588 371.189 28.916H370.363V29.812ZM379.295 29.602V34.656C379.295 35.524 379.631 36.028 380.765 36.028C381.031 36.028 381.311 36.014 381.563 35.986V35.258C381.381 35.286 381.185 35.3 380.905 35.3C380.233 35.3 380.135 35.076 380.135 34.138V29.602H381.563V28.93H380.135V27.11L379.295 27.474V28.93H378.161V29.602H379.295ZM384.928 36V31.562C384.928 29.98 385.698 29.462 386.454 29.462C387.434 29.462 387.756 30.232 387.756 31.058V36H388.596V31.016C388.596 30.092 388.414 28.79 386.664 28.79C385.908 28.79 385.362 29.21 384.956 29.798H384.928V25.892H384.088V36H384.928ZM396.398 32.64C396.398 30.54 396.398 28.79 393.962 28.79C392.38 28.79 391.526 29.728 391.526 31.772V33.508C391.526 35.65 392.744 36.14 393.962 36.14C395.376 36.14 396.3 35.552 396.398 33.844H395.516C395.53 34.796 395.012 35.468 393.962 35.468C392.632 35.468 392.366 34.166 392.366 33.186V32.64H396.398ZM392.366 31.968C392.366 30.4 392.618 29.462 393.962 29.462C395.306 29.462 395.558 30.4 395.558 31.968H392.366ZM400.029 38.674H400.855L403.781 28.93H402.941L401.275 34.726H401.247L399.525 28.93H398.615L400.855 36.014L400.029 38.674ZM8.70053 58H9.75053L11.2345 51.952H11.2625L12.8165 58H13.8665L15.8125 50.93H14.9725L13.3905 57.118H13.3625L11.7945 50.93H10.7585L9.26053 57.118H9.23253L7.65053 50.93H6.75453L8.70053 58ZM20.4604 58.14C22.1124 58.14 22.8964 57.062 22.8964 55.228V53.702C22.8964 51.868 22.1124 50.79 20.4604 50.79C18.8084 50.79 18.0244 51.868 18.0244 53.702V55.228C18.0244 57.062 18.8084 58.14 20.4604 58.14ZM20.4604 51.462C21.8464 51.462 22.0564 52.624 22.0564 54.458C22.0564 56.306 21.8464 57.468 20.4604 57.468C19.0744 57.468 18.8644 56.306 18.8644 54.458C18.8644 52.624 19.0744 51.462 20.4604 51.462ZM29.4391 50.93V55.914C29.4391 56.404 29.0331 57.468 27.8991 57.468C26.6811 57.468 26.7231 55.984 26.7231 55.788V50.93H25.8831V55.928C25.8831 57.076 26.2891 58.14 27.7451 58.14C28.5291 58.14 29.0331 57.818 29.5231 57.216H29.5511V58H30.2791V50.93H29.4391ZM34.5678 58V47.892H33.7278V58H34.5678ZM40.0653 57.468C39.1553 57.468 38.5253 57.118 38.5253 54.486C38.5253 52.834 38.5253 51.462 40.0373 51.462C41.6193 51.462 41.6193 53.422 41.6193 53.842V55.102C41.6193 56.824 40.8633 57.468 40.0653 57.468ZM41.7033 58H42.5153C42.4733 57.762 42.4313 57.3 42.4313 56.6V47.892H41.5913V51.644L41.5633 51.63C41.1293 51.084 40.4993 50.79 39.8553 50.79C37.6853 50.79 37.6853 53.1 37.6853 54.458C37.6853 56.11 37.7973 58.14 39.8413 58.14C40.6673 58.14 41.1993 57.79 41.6333 57.118L41.6613 57.104L41.7033 58ZM46.412 53.562C46.412 51.98 47.182 51.462 47.938 51.462C48.918 51.462 49.24 52.232 49.24 53.058V58H50.08V53.016C50.08 52.092 49.898 50.79 48.148 50.79C47.392 50.79 46.846 51.21 46.44 51.798H46.412V50.93H45.572V58H46.412V53.562ZM53.0948 50.426H53.8368L54.6768 47.892H53.6548L53.0948 50.426ZM57.8585 51.602V56.656C57.8585 57.524 58.1945 58.028 59.3285 58.028C59.5945 58.028 59.8745 58.014 60.1265 57.986V57.258C59.9445 57.286 59.7485 57.3 59.4685 57.3C58.7965 57.3 58.6985 57.076 58.6985 56.138V51.602H60.1265V50.93H58.6985V49.11L57.8585 49.474V50.93H56.7245V51.602H57.8585ZM67.9805 53.45C67.9805 52.526 68.3865 51.462 69.4505 51.462C70.2765 51.462 70.5285 52.246 70.5425 52.946V58H71.3825V53.45C71.3825 52.526 71.7885 51.462 72.8525 51.462C73.6785 51.462 73.9305 52.246 73.9445 52.946V58H74.7845V52.736C74.7425 51.602 74.1265 50.79 72.9505 50.79C72.1665 50.79 71.5645 51.196 71.2145 51.896C70.9765 51.196 70.3325 50.79 69.6045 50.79C68.8205 50.79 68.2605 51.224 67.9245 51.798H67.8965V50.916H67.1405V58H67.9805V53.45ZM82.5824 54.64C82.5824 52.54 82.5824 50.79 80.1464 50.79C78.5644 50.79 77.7104 51.728 77.7104 53.772V55.508C77.7104 57.65 78.9284 58.14 80.1464 58.14C81.5604 58.14 82.4844 57.552 82.5824 55.844H81.7004C81.7144 56.796 81.1964 57.468 80.1464 57.468C78.8164 57.468 78.5504 56.166 78.5504 55.186V54.64H82.5824ZM78.5504 53.968C78.5504 52.4 78.8024 51.462 80.1464 51.462C81.4904 51.462 81.7424 52.4 81.7424 53.968H78.5504ZM90.2031 54.64C90.2031 52.54 90.2031 50.79 87.7671 50.79C86.1851 50.79 85.3311 51.728 85.3311 53.772V55.508C85.3311 57.65 86.5491 58.14 87.7671 58.14C89.1811 58.14 90.1051 57.552 90.2031 55.844H89.3211C89.3351 56.796 88.8171 57.468 87.7671 57.468C86.4371 57.468 86.1711 56.166 86.1711 55.186V54.64H90.2031ZM86.1711 53.968C86.1711 52.4 86.4231 51.462 87.7671 51.462C89.1111 51.462 89.3631 52.4 89.3631 53.968H86.1711ZM93.6378 51.602V56.656C93.6378 57.524 93.9738 58.028 95.1078 58.028C95.3738 58.028 95.6538 58.014 95.9058 57.986V57.258C95.7238 57.286 95.5278 57.3 95.2478 57.3C94.5758 57.3 94.4778 57.076 94.4778 56.138V51.602H95.9058V50.93H94.4778V49.11L93.6378 49.474V50.93H92.5038V51.602H93.6378ZM104.166 58H105.216L106.7 51.952H106.728L108.282 58H109.332L111.278 50.93H110.438L108.856 57.118H108.828L107.26 50.93H106.224L104.726 57.118H104.698L103.116 50.93H102.22L104.166 58ZM114.792 58V50.93H113.952V58H114.792ZM114.89 48.956V47.892H113.854V48.956H114.89ZM118.679 51.602V56.656C118.679 57.524 119.015 58.028 120.149 58.028C120.415 58.028 120.695 58.014 120.947 57.986V57.258C120.765 57.286 120.569 57.3 120.289 57.3C119.617 57.3 119.519 57.076 119.519 56.138V51.602H120.947V50.93H119.519V49.11L118.679 49.474V50.93H117.545V51.602H118.679ZM124.312 58V53.562C124.312 51.98 125.082 51.462 125.838 51.462C126.818 51.462 127.14 52.232 127.14 53.058V58H127.98V53.016C127.98 52.092 127.798 50.79 126.048 50.79C125.292 50.79 124.746 51.21 124.34 51.798H124.312V47.892H123.472V58H124.312ZM136.1 51.602V56.656C136.1 57.524 136.436 58.028 137.57 58.028C137.836 58.028 138.116 58.014 138.368 57.986V57.258C138.186 57.286 137.99 57.3 137.71 57.3C137.038 57.3 136.94 57.076 136.94 56.138V51.602H138.368V50.93H136.94V49.11L136.1 49.474V50.93H134.966V51.602H136.1ZM141.732 58V53.562C141.732 51.98 142.502 51.462 143.258 51.462C144.238 51.462 144.56 52.232 144.56 53.058V58H145.4V53.016C145.4 52.092 145.218 50.79 143.468 50.79C142.712 50.79 142.166 51.21 141.76 51.798H141.732V47.892H140.892V58H141.732ZM153.203 54.64C153.203 52.54 153.203 50.79 150.767 50.79C149.185 50.79 148.331 51.728 148.331 53.772V55.508C148.331 57.65 149.549 58.14 150.767 58.14C152.181 58.14 153.105 57.552 153.203 55.844H152.321C152.335 56.796 151.817 57.468 150.767 57.468C149.437 57.468 149.171 56.166 149.171 55.186V54.64H153.203ZM149.171 53.968C149.171 52.4 149.423 51.462 150.767 51.462C152.111 51.462 152.363 52.4 152.363 53.968H149.171ZM164.599 56.138C164.599 53.772 161.421 54.248 161.421 52.484C161.421 51.854 161.897 51.462 162.499 51.462C163.451 51.462 163.689 51.938 163.731 52.834H164.557C164.557 51.756 164.109 50.79 162.709 50.79C161.477 50.79 160.581 51.252 160.581 52.554C160.581 54.892 163.759 54.416 163.759 56.264C163.759 57.048 163.367 57.51 162.555 57.51C161.477 57.51 161.253 56.866 161.253 55.9H160.399C160.385 57.398 160.987 58.14 162.513 58.14C163.829 58.14 164.599 57.468 164.599 56.138ZM168.319 58V53.562C168.319 51.98 169.089 51.462 169.845 51.462C170.825 51.462 171.147 52.232 171.147 53.058V58H171.987V53.016C171.987 52.092 171.805 50.79 170.055 50.79C169.299 50.79 168.753 51.21 168.347 51.798H168.319V47.892H167.479V58H168.319ZM177.353 58.14C179.005 58.14 179.789 57.062 179.789 55.228V53.702C179.789 51.868 179.005 50.79 177.353 50.79C175.701 50.79 174.917 51.868 174.917 53.702V55.228C174.917 57.062 175.701 58.14 177.353 58.14ZM177.353 51.462C178.739 51.462 178.949 52.624 178.949 54.458C178.949 56.306 178.739 57.468 177.353 57.468C175.967 57.468 175.757 56.306 175.757 54.458C175.757 52.624 175.967 51.462 177.353 51.462ZM184.974 58.14C186.626 58.14 187.41 57.062 187.41 55.228V53.702C187.41 51.868 186.626 50.79 184.974 50.79C183.322 50.79 182.538 51.868 182.538 53.702V55.228C182.538 57.062 183.322 58.14 184.974 58.14ZM184.974 51.462C186.36 51.462 186.57 52.624 186.57 54.458C186.57 56.306 186.36 57.468 184.974 57.468C183.588 57.468 183.378 56.306 183.378 54.458C183.378 52.624 183.588 51.462 184.974 51.462ZM190.845 51.602V56.656C190.845 57.524 191.181 58.028 192.315 58.028C192.581 58.028 192.861 58.014 193.113 57.986V57.258C192.931 57.286 192.735 57.3 192.455 57.3C191.783 57.3 191.685 57.076 191.685 56.138V51.602H193.113V50.93H191.685V49.11L190.845 49.474V50.93H189.711V51.602H190.845ZM200.327 54.64C200.327 52.54 200.327 50.79 197.891 50.79C196.309 50.79 195.455 51.728 195.455 53.772V55.508C195.455 57.65 196.673 58.14 197.891 58.14C199.305 58.14 200.229 57.552 200.327 55.844H199.445C199.459 56.796 198.941 57.468 197.891 57.468C196.561 57.468 196.295 56.166 196.295 55.186V54.64H200.327ZM196.295 53.968C196.295 52.4 196.547 51.462 197.891 51.462C199.235 51.462 199.487 52.4 199.487 53.968H196.295ZM204.154 50.93H203.314V58H204.154V53.45C204.154 52.26 204.938 51.546 206.128 51.644V50.79C205.274 50.79 204.532 51.21 204.182 51.882H204.154V50.93ZM212.516 56.138C212.516 53.772 209.338 54.248 209.338 52.484C209.338 51.854 209.814 51.462 210.416 51.462C211.368 51.462 211.606 51.938 211.648 52.834H212.474C212.474 51.756 212.026 50.79 210.626 50.79C209.394 50.79 208.498 51.252 208.498 52.554C208.498 54.892 211.676 54.416 211.676 56.264C211.676 57.048 211.284 57.51 210.472 57.51C209.394 57.51 209.17 56.866 209.17 55.9H208.316C208.302 57.398 208.904 58.14 210.43 58.14C211.746 58.14 212.516 57.468 212.516 56.138ZM215.578 58H216.614V56.936H215.578V58Z" fill="white"/>
</svg>
