<svg width="498" height="49" viewBox="0 0 498 49" fill="none" xmlns="http://www.w3.org/2000/svg">
<rect width="498" height="47" fill="black" fill-opacity="0.69"/>
<path d="M11.374 5.892L8.182 16H9.078L9.876 13.34H13.838L14.65 16H15.588L12.438 5.892H11.374ZM10.142 12.584L11.85 6.872H11.878L13.6 12.584H10.142ZM24.3428 16H25.2388V6.648H27.7028V5.892H21.8788V6.648H24.3428V16ZM32.8035 14.936H32.7755L30.3815 5.892H29.4295L32.2435 16H33.3635L36.1635 5.892H35.2955L32.8035 14.936ZM43.957 8.93H43.117V16H43.957V11.45C43.957 10.26 44.741 9.546 45.931 9.644V8.79C45.077 8.79 44.335 9.21 43.985 9.882H43.957V8.93ZM53.0475 12.64C53.0475 10.54 53.0475 8.79 50.6115 8.79C49.0295 8.79 48.1755 9.728 48.1755 11.772V13.508C48.1755 15.65 49.3935 16.14 50.6115 16.14C52.0255 16.14 52.9495 15.552 53.0475 13.844H52.1655C52.1795 14.796 51.6615 15.468 50.6115 15.468C49.2815 15.468 49.0155 14.166 49.0155 13.186V12.64H53.0475ZM49.0155 11.968C49.0155 10.4 49.2675 9.462 50.6115 9.462C51.9555 9.462 52.2075 10.4 52.2075 11.968H49.0155ZM56.8462 11.828C56.8462 10.078 57.7982 9.462 58.3442 9.462C59.7302 9.462 59.9402 10.624 59.9402 12.458C59.9402 14.306 59.7302 15.468 58.3442 15.468C57.5742 15.468 56.8462 14.698 56.8462 13.088V11.828ZM56.8182 8.93H56.0062V18.674H56.8462V15.202L56.8742 15.216C57.3082 15.888 57.8262 16.14 58.3442 16.14C60.1502 16.14 60.7802 15.062 60.7802 13.228V11.646C60.7802 10.722 60.7662 8.79 58.5542 8.79C57.9942 8.79 57.2942 9.084 56.8462 9.77L56.8182 9.784V8.93ZM65.8529 16.14C67.5049 16.14 68.2889 15.062 68.2889 13.228V11.702C68.2889 9.868 67.5049 8.79 65.8529 8.79C64.2009 8.79 63.4169 9.868 63.4169 11.702V13.228C63.4169 15.062 64.2009 16.14 65.8529 16.14ZM65.8529 9.462C67.2389 9.462 67.4489 10.624 67.4489 12.458C67.4489 14.306 67.2389 15.468 65.8529 15.468C64.4669 15.468 64.2569 14.306 64.2569 12.458C64.2569 10.624 64.4669 9.462 65.8529 9.462ZM72.1156 8.93H71.2756V16H72.1156V11.45C72.1156 10.26 72.8996 9.546 74.0896 9.644V8.79C73.2356 8.79 72.4936 9.21 72.1436 9.882H72.1156V8.93ZM77.0201 9.602V14.656C77.0201 15.524 77.3561 16.028 78.4901 16.028C78.7561 16.028 79.0361 16.014 79.2881 15.986V15.258C79.1061 15.286 78.9101 15.3 78.6301 15.3C77.9581 15.3 77.8601 15.076 77.8601 14.138V9.602H79.2881V8.93H77.8601V7.11L77.0201 7.474V8.93H75.8861V9.602H77.0201ZM88.5701 16.14C90.2221 16.14 91.0061 15.062 91.0061 13.228V11.702C91.0061 9.868 90.2221 8.79 88.5701 8.79C86.9181 8.79 86.1341 9.868 86.1341 11.702V13.228C86.1341 15.062 86.9181 16.14 88.5701 16.14ZM88.5701 9.462C89.9561 9.462 90.1661 10.624 90.1661 12.458C90.1661 14.306 89.9561 15.468 88.5701 15.468C87.1841 15.468 86.9741 14.306 86.9741 12.458C86.9741 10.624 87.1841 9.462 88.5701 9.462ZM94.4828 16H95.3228V9.602H96.7508V8.93H95.3228V7.726C95.3228 7.32 95.3228 6.592 96.1348 6.592H96.7648V5.892C96.5548 5.864 96.4148 5.836 96.2888 5.836C94.5808 5.836 94.4828 7.068 94.4828 7.74V8.93H93.3488V9.602H94.4828V16ZM106.733 16.196C109.127 16.196 109.295 13.83 109.295 13.102H108.343C108.329 14.404 107.895 15.44 106.733 15.44C104.605 15.44 104.577 13.634 104.577 10.946C104.577 8.258 104.605 6.452 106.733 6.452C108.021 6.452 108.329 7.502 108.329 8.622H109.225C109.225 7.712 109.183 5.696 106.733 5.696C103.709 5.696 103.681 8.216 103.681 10.946C103.681 13.676 103.709 16.196 106.733 16.196ZM114.391 16.14C116.043 16.14 116.827 15.062 116.827 13.228V11.702C116.827 9.868 116.043 8.79 114.391 8.79C112.739 8.79 111.955 9.868 111.955 11.702V13.228C111.955 15.062 112.739 16.14 114.391 16.14ZM114.391 9.462C115.777 9.462 115.987 10.624 115.987 12.458C115.987 14.306 115.777 15.468 114.391 15.468C113.005 15.468 112.795 14.306 112.795 12.458C112.795 10.624 113.005 9.462 114.391 9.462ZM120.878 16V5.892H120.038V16H120.878ZM127.873 8.93V13.914C127.873 14.404 127.467 15.468 126.333 15.468C125.115 15.468 125.157 13.984 125.157 13.788V8.93H124.317V13.928C124.317 15.076 124.723 16.14 126.179 16.14C126.963 16.14 127.467 15.818 127.957 15.216H127.985V16H128.713V8.93H127.873ZM132.708 11.45C132.708 10.526 133.114 9.462 134.178 9.462C135.004 9.462 135.256 10.246 135.27 10.946V16H136.11V11.45C136.11 10.526 136.516 9.462 137.58 9.462C138.406 9.462 138.658 10.246 138.672 10.946V16H139.512V10.736C139.47 9.602 138.854 8.79 137.678 8.79C136.894 8.79 136.292 9.196 135.942 9.896C135.704 9.196 135.06 8.79 134.332 8.79C133.548 8.79 132.988 9.224 132.652 9.798H132.624V8.916H131.868V16H132.708V11.45ZM143.46 12.36C143.46 11.296 143.628 9.462 144.986 9.462C146.54 9.462 146.582 10.834 146.582 12.486C146.582 14.138 146.54 15.468 144.986 15.468C143.46 15.468 143.46 13.48 143.46 12.36ZM143.432 16V15.146H143.46C143.81 15.804 144.412 16.14 145.238 16.14C147.296 16.14 147.422 14.012 147.422 12.458C147.422 11.198 147.604 8.79 145.308 8.79C144.51 8.79 143.95 9.084 143.516 9.756L143.488 9.728V5.892H142.648V15.3C142.648 15.538 142.606 15.762 142.564 16H143.432ZM151.36 16V8.93H150.52V16H151.36ZM151.458 6.956V5.892H150.422V6.956H151.458ZM155.584 11.562C155.584 9.98 156.354 9.462 157.11 9.462C158.09 9.462 158.412 10.232 158.412 11.058V16H159.252V11.016C159.252 10.092 159.07 8.79 157.32 8.79C156.564 8.79 156.018 9.21 155.612 9.798H155.584V8.93H154.744V16H155.584V11.562ZM167.055 12.64C167.055 10.54 167.055 8.79 164.619 8.79C163.037 8.79 162.183 9.728 162.183 11.772V13.508C162.183 15.65 163.401 16.14 164.619 16.14C166.033 16.14 166.957 15.552 167.055 13.844H166.173C166.187 14.796 165.669 15.468 164.619 15.468C163.289 15.468 163.023 14.166 163.023 13.186V12.64H167.055ZM163.023 11.968C163.023 10.4 163.275 9.462 164.619 9.462C165.963 9.462 166.215 10.4 166.215 11.968H163.023ZM178.451 14.138C178.451 11.772 175.273 12.248 175.273 10.484C175.273 9.854 175.749 9.462 176.351 9.462C177.303 9.462 177.541 9.938 177.583 10.834H178.409C178.409 9.756 177.961 8.79 176.561 8.79C175.329 8.79 174.433 9.252 174.433 10.554C174.433 12.892 177.611 12.416 177.611 14.264C177.611 15.048 177.219 15.51 176.407 15.51C175.329 15.51 175.105 14.866 175.105 13.9H174.251C174.237 15.398 174.839 16.14 176.365 16.14C177.681 16.14 178.451 15.468 178.451 14.138ZM183.584 16.14C185.236 16.14 186.02 15.062 186.02 13.228V11.702C186.02 9.868 185.236 8.79 183.584 8.79C181.932 8.79 181.148 9.868 181.148 11.702V13.228C181.148 15.062 181.932 16.14 183.584 16.14ZM183.584 9.462C184.97 9.462 185.18 10.624 185.18 12.458C185.18 14.306 184.97 15.468 183.584 15.468C182.198 15.468 181.988 14.306 181.988 12.458C181.988 10.624 182.198 9.462 183.584 9.462ZM191.205 16.14C192.857 16.14 193.641 15.062 193.641 13.228V11.702C193.641 9.868 192.857 8.79 191.205 8.79C189.553 8.79 188.769 9.868 188.769 11.702V13.228C188.769 15.062 189.553 16.14 191.205 16.14ZM191.205 9.462C192.591 9.462 192.801 10.624 192.801 12.458C192.801 14.306 192.591 15.468 191.205 15.468C189.819 15.468 189.609 14.306 189.609 12.458C189.609 10.624 189.819 9.462 191.205 9.462ZM197.412 11.562C197.412 9.98 198.182 9.462 198.938 9.462C199.918 9.462 200.24 10.232 200.24 11.058V16H201.08V11.016C201.08 10.092 200.898 8.79 199.148 8.79C198.392 8.79 197.846 9.21 197.44 9.798H197.412V8.93H196.572V16H197.412V11.562ZM212.294 13.676C212.294 14.6 211.51 15.468 210.544 15.468C209.676 15.468 209.27 14.81 209.27 14.012C209.27 12.29 211.09 12.43 212.294 12.388V13.676ZM212.35 16H213.218C213.134 15.174 213.134 14.726 213.134 14.222V10.666C213.134 8.86 211.65 8.79 210.936 8.79C209.704 8.79 208.654 9.322 208.584 10.68H209.48C209.48 9.84 210.096 9.462 210.866 9.462C211.986 9.462 212.294 10.092 212.294 11.128V11.716C210.866 11.828 208.374 11.576 208.374 14.054C208.374 15.286 209.06 16.14 210.32 16.14C211.188 16.14 211.874 15.804 212.322 15.132H212.35V16ZM216.862 16H217.702V9.602H219.13V8.93H217.702V7.726C217.702 7.32 217.702 6.592 218.514 6.592H219.144V5.892C218.934 5.864 218.794 5.836 218.668 5.836C216.96 5.836 216.862 7.068 216.862 7.74V8.93H215.728V9.602H216.862V16ZM222.117 9.602V14.656C222.117 15.524 222.453 16.028 223.587 16.028C223.853 16.028 224.133 16.014 224.385 15.986V15.258C224.203 15.286 224.007 15.3 223.727 15.3C223.055 15.3 222.957 15.076 222.957 14.138V9.602H224.385V8.93H222.957V7.11L222.117 7.474V8.93H220.983V9.602H222.117ZM231.599 12.64C231.599 10.54 231.599 8.79 229.163 8.79C227.581 8.79 226.727 9.728 226.727 11.772V13.508C226.727 15.65 227.945 16.14 229.163 16.14C230.577 16.14 231.501 15.552 231.599 13.844H230.717C230.731 14.796 230.213 15.468 229.163 15.468C227.833 15.468 227.567 14.166 227.567 13.186V12.64H231.599ZM227.567 11.968C227.567 10.4 227.819 9.462 229.163 9.462C230.507 9.462 230.759 10.4 230.759 11.968H227.567ZM235.426 8.93H234.586V16H235.426V11.45C235.426 10.26 236.21 9.546 237.4 9.644V8.79C236.546 8.79 235.804 9.21 235.454 9.882H235.426V8.93ZM245.45 16V8.93H244.61V16H245.45ZM245.548 6.956V5.892H244.512V6.956H245.548ZM249.338 9.602V14.656C249.338 15.524 249.674 16.028 250.808 16.028C251.074 16.028 251.354 16.014 251.606 15.986V15.258C251.424 15.286 251.228 15.3 250.948 15.3C250.276 15.3 250.178 15.076 250.178 14.138V9.602H251.606V8.93H250.178V7.11L249.338 7.474V8.93H248.204V9.602H249.338ZM259.474 16V11.562C259.474 9.98 260.244 9.462 261 9.462C261.98 9.462 262.302 10.232 262.302 11.058V16H263.142V11.016C263.142 10.092 262.96 8.79 261.21 8.79C260.454 8.79 259.908 9.21 259.502 9.798H259.474V5.892H258.634V16H259.474ZM269.852 13.676C269.852 14.6 269.068 15.468 268.102 15.468C267.234 15.468 266.828 14.81 266.828 14.012C266.828 12.29 268.648 12.43 269.852 12.388V13.676ZM269.908 16H270.776C270.692 15.174 270.692 14.726 270.692 14.222V10.666C270.692 8.86 269.208 8.79 268.494 8.79C267.262 8.79 266.212 9.322 266.142 10.68H267.038C267.038 9.84 267.654 9.462 268.424 9.462C269.544 9.462 269.852 10.092 269.852 11.128V11.716C268.424 11.828 265.932 11.576 265.932 14.054C265.932 15.286 266.618 16.14 267.878 16.14C268.746 16.14 269.432 15.804 269.88 15.132H269.908V16ZM274.743 11.828C274.743 10.078 275.695 9.462 276.241 9.462C277.627 9.462 277.837 10.624 277.837 12.458C277.837 14.306 277.627 15.468 276.241 15.468C275.471 15.468 274.743 14.698 274.743 13.088V11.828ZM274.715 8.93H273.903V18.674H274.743V15.202L274.771 15.216C275.205 15.888 275.723 16.14 276.241 16.14C278.047 16.14 278.677 15.062 278.677 13.228V11.646C278.677 10.722 278.663 8.79 276.451 8.79C275.891 8.79 275.191 9.084 274.743 9.77L274.715 9.784V8.93ZM282.364 11.828C282.364 10.078 283.316 9.462 283.862 9.462C285.248 9.462 285.458 10.624 285.458 12.458C285.458 14.306 285.248 15.468 283.862 15.468C283.092 15.468 282.364 14.698 282.364 13.088V11.828ZM282.336 8.93H281.524V18.674H282.364V15.202L282.392 15.216C282.826 15.888 283.344 16.14 283.862 16.14C285.668 16.14 286.298 15.062 286.298 13.228V11.646C286.298 10.722 286.284 8.79 284.072 8.79C283.512 8.79 282.812 9.084 282.364 9.77L282.336 9.784V8.93ZM293.807 12.64C293.807 10.54 293.807 8.79 291.371 8.79C289.789 8.79 288.935 9.728 288.935 11.772V13.508C288.935 15.65 290.153 16.14 291.371 16.14C292.785 16.14 293.709 15.552 293.807 13.844H292.925C292.939 14.796 292.421 15.468 291.371 15.468C290.041 15.468 289.775 14.166 289.775 13.186V12.64H293.807ZM289.775 11.968C289.775 10.4 290.027 9.462 291.371 9.462C292.715 9.462 292.967 10.4 292.967 11.968H289.775ZM297.577 11.562C297.577 9.98 298.347 9.462 299.103 9.462C300.083 9.462 300.405 10.232 300.405 11.058V16H301.245V11.016C301.245 10.092 301.063 8.79 299.313 8.79C298.557 8.79 298.011 9.21 297.605 9.798H297.577V8.93H296.737V16H297.577V11.562ZM309.048 12.64C309.048 10.54 309.048 8.79 306.612 8.79C305.03 8.79 304.176 9.728 304.176 11.772V13.508C304.176 15.65 305.394 16.14 306.612 16.14C308.026 16.14 308.95 15.552 309.048 13.844H308.166C308.18 14.796 307.662 15.468 306.612 15.468C305.282 15.468 305.016 14.166 305.016 13.186V12.64H309.048ZM305.016 11.968C305.016 10.4 305.268 9.462 306.612 9.462C307.956 9.462 308.208 10.4 308.208 11.968H305.016ZM314.093 15.468C313.183 15.468 312.553 15.118 312.553 12.486C312.553 10.834 312.553 9.462 314.065 9.462C315.647 9.462 315.647 11.422 315.647 11.842V13.102C315.647 14.824 314.891 15.468 314.093 15.468ZM315.731 16H316.543C316.501 15.762 316.459 15.3 316.459 14.6V5.892H315.619V9.644L315.591 9.63C315.157 9.084 314.527 8.79 313.883 8.79C311.713 8.79 311.713 11.1 311.713 12.458C311.713 14.11 311.825 16.14 313.869 16.14C314.695 16.14 315.227 15.79 315.661 15.118L315.689 15.104L315.731 16ZM319.781 16H320.817V14.936H319.781V16ZM333.954 8.454C333.954 6.998 333.506 5.696 331.406 5.696C329.754 5.696 328.648 6.424 328.662 8.174C328.676 9.182 328.76 9.784 330.72 10.988C332.176 11.884 333.086 12.276 333.086 13.648C333.086 14.81 332.512 15.44 331.336 15.44C329.53 15.44 329.446 14.278 329.446 13.158H328.522C328.438 15.132 329.32 16.196 331.294 16.196C333.058 16.196 333.982 15.314 333.982 13.508C333.982 11.548 332.708 11.282 331.462 10.386C330.314 9.56 329.558 9.518 329.558 8.02C329.558 6.83 330.244 6.452 331.336 6.452C332.708 6.452 333.016 7.208 333.044 8.454H333.954ZM337.51 9.602V14.656C337.51 15.524 337.846 16.028 338.98 16.028C339.246 16.028 339.526 16.014 339.778 15.986V15.258C339.596 15.286 339.4 15.3 339.12 15.3C338.448 15.3 338.35 15.076 338.35 14.138V9.602H339.778V8.93H338.35V7.11L337.51 7.474V8.93H336.376V9.602H337.51ZM345.915 8.93V13.914C345.915 14.404 345.509 15.468 344.375 15.468C343.157 15.468 343.199 13.984 343.199 13.788V8.93H342.359V13.928C342.359 15.076 342.765 16.14 344.221 16.14C345.005 16.14 345.509 15.818 345.999 15.216H346.027V16H346.755V8.93H345.915ZM352.038 15.468C351.128 15.468 350.498 15.118 350.498 12.486C350.498 10.834 350.498 9.462 352.01 9.462C353.592 9.462 353.592 11.422 353.592 11.842V13.102C353.592 14.824 352.836 15.468 352.038 15.468ZM353.676 16H354.488C354.446 15.762 354.404 15.3 354.404 14.6V5.892H353.564V9.644L353.536 9.63C353.102 9.084 352.472 8.79 351.828 8.79C349.658 8.79 349.658 11.1 349.658 12.458C349.658 14.11 349.77 16.14 351.814 16.14C352.64 16.14 353.172 15.79 353.606 15.118L353.634 15.104L353.676 16ZM362.234 12.64C362.234 10.54 362.234 8.79 359.798 8.79C358.216 8.79 357.362 9.728 357.362 11.772V13.508C357.362 15.65 358.58 16.14 359.798 16.14C361.212 16.14 362.136 15.552 362.234 13.844H361.352C361.366 14.796 360.848 15.468 359.798 15.468C358.468 15.468 358.202 14.166 358.202 13.186V12.64H362.234ZM358.202 11.968C358.202 10.4 358.454 9.462 359.798 9.462C361.142 9.462 361.394 10.4 361.394 11.968H358.202ZM366.005 11.562C366.005 9.98 366.775 9.462 367.531 9.462C368.511 9.462 368.833 10.232 368.833 11.058V16H369.673V11.016C369.673 10.092 369.491 8.79 367.741 8.79C366.985 8.79 366.439 9.21 366.033 9.798H366.005V8.93H365.165V16H366.005V11.562ZM373.29 9.602V14.656C373.29 15.524 373.626 16.028 374.76 16.028C375.026 16.028 375.306 16.014 375.558 15.986V15.258C375.376 15.286 375.18 15.3 374.9 15.3C374.228 15.3 374.13 15.076 374.13 14.138V9.602H375.558V8.93H374.13V7.11L373.29 7.474V8.93H372.156V9.602H373.29ZM382.044 14.138C382.044 11.772 378.866 12.248 378.866 10.484C378.866 9.854 379.342 9.462 379.944 9.462C380.896 9.462 381.134 9.938 381.176 10.834H382.002C382.002 9.756 381.554 8.79 380.154 8.79C378.922 8.79 378.026 9.252 378.026 10.554C378.026 12.892 381.204 12.416 381.204 14.264C381.204 15.048 380.812 15.51 380 15.51C378.922 15.51 378.698 14.866 378.698 13.9H377.844C377.83 15.398 378.432 16.14 379.958 16.14C381.274 16.14 382.044 15.468 382.044 14.138ZM393.025 13.676C393.025 14.6 392.241 15.468 391.275 15.468C390.407 15.468 390.001 14.81 390.001 14.012C390.001 12.29 391.821 12.43 393.025 12.388V13.676ZM393.081 16H393.949C393.865 15.174 393.865 14.726 393.865 14.222V10.666C393.865 8.86 392.381 8.79 391.667 8.79C390.435 8.79 389.385 9.322 389.315 10.68H390.211C390.211 9.84 390.827 9.462 391.597 9.462C392.717 9.462 393.025 10.092 393.025 11.128V11.716C391.597 11.828 389.105 11.576 389.105 14.054C389.105 15.286 389.791 16.14 391.051 16.14C391.919 16.14 392.605 15.804 393.053 15.132H393.081V16ZM397.888 11.562C397.888 9.98 398.658 9.462 399.414 9.462C400.394 9.462 400.716 10.232 400.716 11.058V16H401.556V11.016C401.556 10.092 401.374 8.79 399.624 8.79C398.868 8.79 398.322 9.21 397.916 9.798H397.888V8.93H397.048V16H397.888V11.562ZM406.782 15.468C405.872 15.468 405.242 15.118 405.242 12.486C405.242 10.834 405.242 9.462 406.754 9.462C408.336 9.462 408.336 11.422 408.336 11.842V13.102C408.336 14.824 407.58 15.468 406.782 15.468ZM408.42 16H409.232C409.19 15.762 409.148 15.3 409.148 14.6V5.892H408.308V9.644L408.28 9.63C407.846 9.084 407.216 8.79 406.572 8.79C404.402 8.79 404.402 11.1 404.402 12.458C404.402 14.11 404.514 16.14 406.558 16.14C407.384 16.14 407.916 15.79 408.35 15.118L408.378 15.104L408.42 16ZM417.661 11.828C417.661 10.078 418.613 9.462 419.159 9.462C420.545 9.462 420.755 10.624 420.755 12.458C420.755 14.306 420.545 15.468 419.159 15.468C418.389 15.468 417.661 14.698 417.661 13.088V11.828ZM417.633 8.93H416.821V18.674H417.661V15.202L417.689 15.216C418.123 15.888 418.641 16.14 419.159 16.14C420.965 16.14 421.595 15.062 421.595 13.228V11.646C421.595 10.722 421.581 8.79 419.369 8.79C418.809 8.79 418.109 9.084 417.661 9.77L417.633 9.784V8.93ZM428.011 13.676C428.011 14.6 427.227 15.468 426.261 15.468C425.393 15.468 424.987 14.81 424.987 14.012C424.987 12.29 426.807 12.43 428.011 12.388V13.676ZM428.067 16H428.935C428.851 15.174 428.851 14.726 428.851 14.222V10.666C428.851 8.86 427.367 8.79 426.653 8.79C425.421 8.79 424.371 9.322 424.301 10.68H425.197C425.197 9.84 425.813 9.462 426.583 9.462C427.703 9.462 428.011 10.092 428.011 11.128V11.716C426.583 11.828 424.091 11.576 424.091 14.054C424.091 15.286 424.777 16.14 426.037 16.14C426.905 16.14 427.591 15.804 428.039 15.132H428.067V16ZM432.93 8.93H432.09V16H432.93V11.45C432.93 10.26 433.714 9.546 434.904 9.644V8.79C434.05 8.79 433.308 9.21 432.958 9.882H432.93V8.93ZM442.021 12.64C442.021 10.54 442.021 8.79 439.585 8.79C438.003 8.79 437.149 9.728 437.149 11.772V13.508C437.149 15.65 438.367 16.14 439.585 16.14C440.999 16.14 441.923 15.552 442.021 13.844H441.139C441.153 14.796 440.635 15.468 439.585 15.468C438.255 15.468 437.989 14.166 437.989 13.186V12.64H442.021ZM437.989 11.968C437.989 10.4 438.241 9.462 439.585 9.462C440.929 9.462 441.181 10.4 441.181 11.968H437.989ZM445.791 11.562C445.791 9.98 446.561 9.462 447.317 9.462C448.297 9.462 448.619 10.232 448.619 11.058V16H449.459V11.016C449.459 10.092 449.277 8.79 447.527 8.79C446.771 8.79 446.225 9.21 445.819 9.798H445.791V8.93H444.951V16H445.791V11.562ZM453.076 9.602V14.656C453.076 15.524 453.412 16.028 454.546 16.028C454.812 16.028 455.092 16.014 455.344 15.986V15.258C455.162 15.286 454.966 15.3 454.686 15.3C454.014 15.3 453.916 15.076 453.916 14.138V9.602H455.344V8.93H453.916V7.11L453.076 7.474V8.93H451.942V9.602H453.076ZM461.83 14.138C461.83 11.772 458.652 12.248 458.652 10.484C458.652 9.854 459.128 9.462 459.73 9.462C460.682 9.462 460.92 9.938 460.962 10.834H461.788C461.788 9.756 461.34 8.79 459.94 8.79C458.708 8.79 457.812 9.252 457.812 10.554C457.812 12.892 460.99 12.416 460.99 14.264C460.99 15.048 460.598 15.51 459.786 15.51C458.708 15.51 458.484 14.866 458.484 13.9H457.63C457.616 15.398 458.218 16.14 459.744 16.14C461.06 16.14 461.83 15.468 461.83 14.138ZM470.333 16V5.892H469.493V16H470.333ZM478.407 12.64C478.407 10.54 478.407 8.79 475.971 8.79C474.389 8.79 473.535 9.728 473.535 11.772V13.508C473.535 15.65 474.753 16.14 475.971 16.14C477.385 16.14 478.309 15.552 478.407 13.844H477.525C477.539 14.796 477.021 15.468 475.971 15.468C474.641 15.468 474.375 14.166 474.375 13.186V12.64H478.407ZM474.375 11.968C474.375 10.4 474.627 9.462 475.971 9.462C477.315 9.462 477.567 10.4 477.567 11.968H474.375ZM481.884 16H482.724V9.602H484.152V8.93H482.724V7.726C482.724 7.32 482.724 6.592 483.536 6.592H484.166V5.892C483.956 5.864 483.816 5.836 483.69 5.836C481.982 5.836 481.884 7.068 481.884 7.74V8.93H480.75V9.602H481.884V16ZM487.138 9.602V14.656C487.138 15.524 487.474 16.028 488.608 16.028C488.874 16.028 489.154 16.014 489.406 15.986V15.258C489.224 15.286 489.028 15.3 488.748 15.3C488.076 15.3 487.978 15.076 487.978 14.138V9.602H489.406V8.93H487.978V7.11L487.138 7.474V8.93H486.004V9.602H487.138ZM9.358 31.602V36.656C9.358 37.524 9.694 38.028 10.828 38.028C11.094 38.028 11.374 38.014 11.626 37.986V37.258C11.444 37.286 11.248 37.3 10.968 37.3C10.296 37.3 10.198 37.076 10.198 36.138V31.602H11.626V30.93H10.198V29.11L9.358 29.474V30.93H8.224V31.602H9.358ZM18.8405 34.64C18.8405 32.54 18.8405 30.79 16.4045 30.79C14.8225 30.79 13.9685 31.728 13.9685 33.772V35.508C13.9685 37.65 15.1865 38.14 16.4045 38.14C17.8185 38.14 18.7425 37.552 18.8405 35.844H17.9585C17.9725 36.796 17.4545 37.468 16.4045 37.468C15.0745 37.468 14.8085 36.166 14.8085 35.186V34.64H18.8405ZM14.8085 33.968C14.8085 32.4 15.0605 31.462 16.4045 31.462C17.7485 31.462 18.0005 32.4 18.0005 33.968H14.8085ZM22.6672 30.93H21.8272V38H22.6672V33.45C22.6672 32.26 23.4512 31.546 24.6412 31.644V30.79C23.7872 30.79 23.0452 31.21 22.6952 31.882H22.6672V30.93ZM27.9637 30.93H27.1237V38H27.9637V33.45C27.9637 32.26 28.7477 31.546 29.9377 31.644V30.79C29.0837 30.79 28.3417 31.21 27.9917 31.882H27.9637V30.93ZM33.4842 38V30.93H32.6442V38H33.4842ZM33.5822 28.956V27.892H32.5462V28.956H33.5822ZM41.1797 38V30.93H40.3397V38H41.1797ZM41.2777 28.956V27.892H40.2417V28.956H41.2777ZM37.4137 38H38.2537V31.602H39.6817V30.93H38.2537V29.726C38.2537 29.32 38.2537 28.592 39.0657 28.592H39.6957V27.892C39.4857 27.864 39.3457 27.836 39.2197 27.836C37.5117 27.836 37.4137 29.068 37.4137 29.74V30.93H36.2797V31.602H37.4137V38ZM49.1784 34.64C49.1784 32.54 49.1784 30.79 46.7424 30.79C45.1604 30.79 44.3064 31.728 44.3064 33.772V35.508C44.3064 37.65 45.5244 38.14 46.7424 38.14C48.1564 38.14 49.0804 37.552 49.1784 35.844H48.2964C48.3104 36.796 47.7924 37.468 46.7424 37.468C45.4124 37.468 45.1464 36.166 45.1464 35.186V34.64H49.1784ZM45.1464 33.968C45.1464 32.4 45.3984 31.462 46.7424 31.462C48.0864 31.462 48.3384 32.4 48.3384 33.968H45.1464ZM54.2231 37.468C53.3131 37.468 52.6831 37.118 52.6831 34.486C52.6831 32.834 52.6831 31.462 54.1951 31.462C55.7771 31.462 55.7771 33.422 55.7771 33.842V35.102C55.7771 36.824 55.0211 37.468 54.2231 37.468ZM55.8611 38H56.6731C56.6311 37.762 56.5891 37.3 56.5891 36.6V27.892H55.7491V31.644L55.7211 31.63C55.2871 31.084 54.6571 30.79 54.0131 30.79C51.8431 30.79 51.8431 33.1 51.8431 34.458C51.8431 36.11 51.9551 38.14 53.9991 38.14C54.8251 38.14 55.3571 37.79 55.7911 37.118L55.8191 37.104L55.8611 38ZM67.8313 35.676C67.8313 36.6 67.0473 37.468 66.0813 37.468C65.2133 37.468 64.8073 36.81 64.8073 36.012C64.8073 34.29 66.6273 34.43 67.8313 34.388V35.676ZM67.8873 38H68.7553C68.6713 37.174 68.6713 36.726 68.6713 36.222V32.666C68.6713 30.86 67.1873 30.79 66.4733 30.79C65.2413 30.79 64.1913 31.322 64.1213 32.68H65.0173C65.0173 31.84 65.6333 31.462 66.4033 31.462C67.5233 31.462 67.8313 32.092 67.8313 33.128V33.716C66.4033 33.828 63.9113 33.576 63.9113 36.054C63.9113 37.286 64.5973 38.14 65.8573 38.14C66.7253 38.14 67.4113 37.804 67.8593 37.132H67.8873V38ZM72.694 33.562C72.694 31.98 73.464 31.462 74.22 31.462C75.2 31.462 75.522 32.232 75.522 33.058V38H76.362V33.016C76.362 32.092 76.18 30.79 74.43 30.79C73.674 30.79 73.128 31.21 72.722 31.798H72.694V30.93H71.854V38H72.694V33.562ZM81.5887 37.468C80.6787 37.468 80.0487 37.118 80.0487 34.486C80.0487 32.834 80.0487 31.462 81.5607 31.462C83.1427 31.462 83.1427 33.422 83.1427 33.842V35.102C83.1427 36.824 82.3867 37.468 81.5887 37.468ZM83.2267 38H84.0387C83.9967 37.762 83.9547 37.3 83.9547 36.6V27.892H83.1147V31.644L83.0867 31.63C82.6527 31.084 82.0227 30.79 81.3787 30.79C79.2087 30.79 79.2087 33.1 79.2087 34.458C79.2087 36.11 79.3207 38.14 81.3647 38.14C82.1907 38.14 82.7227 37.79 83.1567 37.118L83.1847 37.104L83.2267 38ZM92.1029 31.602V36.656C92.1029 37.524 92.4389 38.028 93.5729 38.028C93.8389 38.028 94.1189 38.014 94.3709 37.986V37.258C94.1889 37.286 93.9929 37.3 93.7129 37.3C93.0409 37.3 92.9429 37.076 92.9429 36.138V31.602H94.3709V30.93H92.9429V29.11L92.1029 29.474V30.93H90.9689V31.602H92.1029ZM97.7354 38V33.562C97.7354 31.98 98.5054 31.462 99.2614 31.462C100.241 31.462 100.563 32.232 100.563 33.058V38H101.403V33.016C101.403 32.092 101.221 30.79 99.4714 30.79C98.7154 30.79 98.1694 31.21 97.7634 31.798H97.7354V27.892H96.8954V38H97.7354ZM109.206 34.64C109.206 32.54 109.206 30.79 106.77 30.79C105.188 30.79 104.334 31.728 104.334 33.772V35.508C104.334 37.65 105.552 38.14 106.77 38.14C108.184 38.14 109.108 37.552 109.206 35.844H108.324C108.338 36.796 107.82 37.468 106.77 37.468C105.44 37.468 105.174 36.166 105.174 35.186V34.64H109.206ZM105.174 33.968C105.174 32.4 105.426 31.462 106.77 31.462C108.114 31.462 108.366 32.4 108.366 33.968H105.174ZM117.872 38H118.922L120.406 31.952H120.434L121.988 38H123.038L124.984 30.93H124.144L122.562 37.118H122.534L120.966 30.93H119.93L118.432 37.118H118.404L116.822 30.93H115.926L117.872 38ZM128.218 38V33.562C128.218 31.98 128.988 31.462 129.744 31.462C130.724 31.462 131.046 32.232 131.046 33.058V38H131.886V33.016C131.886 32.092 131.704 30.79 129.954 30.79C129.198 30.79 128.652 31.21 128.246 31.798H128.218V27.892H127.378V38H128.218ZM137.253 38.14C138.905 38.14 139.689 37.062 139.689 35.228V33.702C139.689 31.868 138.905 30.79 137.253 30.79C135.601 30.79 134.817 31.868 134.817 33.702V35.228C134.817 37.062 135.601 38.14 137.253 38.14ZM137.253 31.462C138.639 31.462 138.849 32.624 138.849 34.458C138.849 36.306 138.639 37.468 137.253 37.468C135.867 37.468 135.657 36.306 135.657 34.458C135.657 32.624 135.867 31.462 137.253 31.462ZM143.74 38V27.892H142.9V38H143.74ZM151.813 34.64C151.813 32.54 151.813 30.79 149.377 30.79C147.795 30.79 146.941 31.728 146.941 33.772V35.508C146.941 37.65 148.159 38.14 149.377 38.14C150.791 38.14 151.715 37.552 151.813 35.844H150.931C150.945 36.796 150.427 37.468 149.377 37.468C148.047 37.468 147.781 36.166 147.781 35.186V34.64H151.813ZM147.781 33.968C147.781 32.4 148.033 31.462 149.377 31.462C150.721 31.462 150.973 32.4 150.973 33.968H147.781ZM163.237 32.96C163.307 31.476 162.481 30.79 161.263 30.79C160.297 30.79 159.499 31.154 159.135 32.162C158.953 32.694 158.925 33.8 158.925 34.5C158.925 36.25 158.925 38.14 161.319 38.14C161.977 38.14 163.321 37.818 163.251 35.914H162.411C162.369 36.768 162.229 37.468 161.123 37.468C159.821 37.468 159.821 35.774 159.821 34.5C159.821 33.562 159.905 32.596 160.017 32.274C160.199 31.756 160.633 31.462 161.151 31.462C162.117 31.462 162.439 32.078 162.397 32.96H163.237ZM168.343 38.14C169.995 38.14 170.779 37.062 170.779 35.228V33.702C170.779 31.868 169.995 30.79 168.343 30.79C166.691 30.79 165.907 31.868 165.907 33.702V35.228C165.907 37.062 166.691 38.14 168.343 38.14ZM168.343 31.462C169.729 31.462 169.939 32.624 169.939 34.458C169.939 36.306 169.729 37.468 168.343 37.468C166.957 37.468 166.747 36.306 166.747 34.458C166.747 32.624 166.957 31.462 168.343 31.462ZM177.321 30.93V35.914C177.321 36.404 176.915 37.468 175.781 37.468C174.563 37.468 174.605 35.984 174.605 35.788V30.93H173.765V35.928C173.765 37.076 174.171 38.14 175.627 38.14C176.411 38.14 176.915 37.818 177.405 37.216H177.433V38H178.161V30.93H177.321ZM182.17 33.562C182.17 31.98 182.94 31.462 183.696 31.462C184.676 31.462 184.998 32.232 184.998 33.058V38H185.838V33.016C185.838 32.092 185.656 30.79 183.906 30.79C183.15 30.79 182.604 31.21 182.198 31.798H182.17V30.93H181.33V38H182.17V33.562ZM189.455 31.602V36.656C189.455 37.524 189.791 38.028 190.925 38.028C191.191 38.028 191.471 38.014 191.723 37.986V37.258C191.541 37.286 191.345 37.3 191.065 37.3C190.393 37.3 190.295 37.076 190.295 36.138V31.602H191.723V30.93H190.295V29.11L189.455 29.474V30.93H188.321V31.602H189.455ZM195.143 30.93H194.303V38H195.143V33.45C195.143 32.26 195.927 31.546 197.117 31.644V30.79C196.263 30.79 195.521 31.21 195.171 31.882H195.143V30.93ZM200.244 40.674H201.07L203.996 30.93H203.156L201.49 36.726H201.462L199.74 30.93H198.83L201.07 38.014L200.244 40.674ZM212.121 38H213.171L214.655 31.952H214.683L216.237 38H217.287L219.233 30.93H218.393L216.811 37.118H216.783L215.215 30.93H214.179L212.681 37.118H212.653L211.071 30.93H210.175L212.121 38ZM225.225 35.676C225.225 36.6 224.441 37.468 223.475 37.468C222.607 37.468 222.201 36.81 222.201 36.012C222.201 34.29 224.021 34.43 225.225 34.388V35.676ZM225.281 38H226.149C226.065 37.174 226.065 36.726 226.065 36.222V32.666C226.065 30.86 224.581 30.79 223.867 30.79C222.635 30.79 221.585 31.322 221.515 32.68H222.411C222.411 31.84 223.027 31.462 223.797 31.462C224.917 31.462 225.225 32.092 225.225 33.128V33.716C223.797 33.828 221.305 33.576 221.305 36.054C221.305 37.286 221.991 38.14 223.251 38.14C224.119 38.14 224.805 37.804 225.253 37.132H225.281V38ZM229.751 31.602V36.656C229.751 37.524 230.087 38.028 231.221 38.028C231.487 38.028 231.767 38.014 232.019 37.986V37.258C231.837 37.286 231.641 37.3 231.361 37.3C230.689 37.3 230.591 37.076 230.591 36.138V31.602H232.019V30.93H230.591V29.11L229.751 29.474V30.93H228.617V31.602H229.751ZM238.534 32.96C238.604 31.476 237.778 30.79 236.56 30.79C235.594 30.79 234.796 31.154 234.432 32.162C234.25 32.694 234.222 33.8 234.222 34.5C234.222 36.25 234.222 38.14 236.616 38.14C237.274 38.14 238.618 37.818 238.548 35.914H237.708C237.666 36.768 237.526 37.468 236.42 37.468C235.118 37.468 235.118 35.774 235.118 34.5C235.118 33.562 235.202 32.596 235.314 32.274C235.496 31.756 235.93 31.462 236.448 31.462C237.414 31.462 237.736 32.078 237.694 32.96H238.534ZM242.225 38V33.562C242.225 31.98 242.995 31.462 243.751 31.462C244.731 31.462 245.053 32.232 245.053 33.058V38H245.893V33.016C245.893 32.092 245.711 30.79 243.961 30.79C243.205 30.79 242.659 31.21 242.253 31.798H242.225V27.892H241.385V38H242.225ZM253.696 34.64C253.696 32.54 253.696 30.79 251.26 30.79C249.678 30.79 248.824 31.728 248.824 33.772V35.508C248.824 37.65 250.042 38.14 251.26 38.14C252.674 38.14 253.598 37.552 253.696 35.844H252.814C252.828 36.796 252.31 37.468 251.26 37.468C249.93 37.468 249.664 36.166 249.664 35.186V34.64H253.696ZM249.664 33.968C249.664 32.4 249.916 31.462 251.26 31.462C252.604 31.462 252.856 32.4 252.856 33.968H249.664ZM258.741 37.468C257.831 37.468 257.201 37.118 257.201 34.486C257.201 32.834 257.201 31.462 258.713 31.462C260.295 31.462 260.295 33.422 260.295 33.842V35.102C260.295 36.824 259.539 37.468 258.741 37.468ZM260.379 38H261.191C261.149 37.762 261.107 37.3 261.107 36.6V27.892H260.267V31.644L260.239 31.63C259.805 31.084 259.175 30.79 258.531 30.79C256.361 30.79 256.361 33.1 256.361 34.458C256.361 36.11 256.473 38.14 258.517 38.14C259.343 38.14 259.875 37.79 260.309 37.118L260.337 37.104L260.379 38ZM269.871 38V30.93H269.031V38H269.871ZM269.969 28.956V27.892H268.933V28.956H269.969ZM274.094 33.562C274.094 31.98 274.864 31.462 275.62 31.462C276.6 31.462 276.922 32.232 276.922 33.058V38H277.762V33.016C277.762 32.092 277.58 30.79 275.83 30.79C275.074 30.79 274.528 31.21 274.122 31.798H274.094V30.93H273.254V38H274.094V33.562ZM286.219 38V33.562C286.219 31.98 286.989 31.462 287.745 31.462C288.725 31.462 289.047 32.232 289.047 33.058V38H289.887V33.016C289.887 32.092 289.705 30.79 287.955 30.79C287.199 30.79 286.653 31.21 286.247 31.798H286.219V27.892H285.379V38H286.219ZM295.253 38.14C296.905 38.14 297.689 37.062 297.689 35.228V33.702C297.689 31.868 296.905 30.79 295.253 30.79C293.601 30.79 292.817 31.868 292.817 33.702V35.228C292.817 37.062 293.601 38.14 295.253 38.14ZM295.253 31.462C296.639 31.462 296.849 32.624 296.849 34.458C296.849 36.306 296.639 37.468 295.253 37.468C293.867 37.468 293.657 36.306 293.657 34.458C293.657 32.624 293.867 31.462 295.253 31.462ZM301.516 30.93H300.676V38H301.516V33.45C301.516 32.26 302.3 31.546 303.49 31.644V30.79C302.636 30.79 301.894 31.21 301.544 31.882H301.516V30.93ZM306.812 30.93H305.973V38H306.812V33.45C306.812 32.26 307.597 31.546 308.787 31.644V30.79C307.933 30.79 307.191 31.21 306.841 31.882H306.812V30.93ZM313.467 38.14C315.119 38.14 315.903 37.062 315.903 35.228V33.702C315.903 31.868 315.119 30.79 313.467 30.79C311.815 30.79 311.031 31.868 311.031 33.702V35.228C311.031 37.062 311.815 38.14 313.467 38.14ZM313.467 31.462C314.853 31.462 315.063 32.624 315.063 34.458C315.063 36.306 314.853 37.468 313.467 37.468C312.081 37.468 311.871 36.306 311.871 34.458C311.871 32.624 312.081 31.462 313.467 31.462ZM319.73 30.93H318.89V38H319.73V33.45C319.73 32.26 320.514 31.546 321.704 31.644V30.79C320.85 30.79 320.108 31.21 319.758 31.882H319.73V30.93ZM323.328 38H324.364V36.936H323.328V38Z" fill="white"/>
</svg>
