<svg width="523" height="55" viewBox="0 0 523 55" fill="none" xmlns="http://www.w3.org/2000/svg">
<rect width="491" height="55" fill="black" fill-opacity="0.69"/>
<path d="M11.374 9.892L8.182 20H9.078L9.876 17.34H13.838L14.65 20H15.588L12.438 9.892H11.374ZM10.142 16.584L11.85 10.872H11.878L13.6 16.584H10.142ZM23.0408 13.602V18.656C23.0408 19.524 23.3768 20.028 24.5108 20.028C24.7768 20.028 25.0568 20.014 25.3088 19.986V19.258C25.1268 19.286 24.9308 19.3 24.6508 19.3C23.9788 19.3 23.8808 19.076 23.8808 18.138V13.602H25.3088V12.93H23.8808V11.11L23.0408 11.474V12.93H21.9068V13.602H23.0408ZM28.9533 20V12.93H28.1133V20H28.9533ZM29.0513 10.956V9.892H28.0153V10.956H29.0513ZM33.1628 15.45C33.1628 14.526 33.5688 13.462 34.6328 13.462C35.4588 13.462 35.7108 14.246 35.7248 14.946V20H36.5648V15.45C36.5648 14.526 36.9708 13.462 38.0348 13.462C38.8608 13.462 39.1128 14.246 39.1268 14.946V20H39.9668V14.736C39.9248 13.602 39.3088 12.79 38.1328 12.79C37.3488 12.79 36.7468 13.196 36.3968 13.896C36.1588 13.196 35.5148 12.79 34.7868 12.79C34.0028 12.79 33.4428 13.224 33.1068 13.798H33.0788V12.916H32.3228V20H33.1628V15.45ZM47.7647 16.64C47.7647 14.54 47.7647 12.79 45.3287 12.79C43.7467 12.79 42.8927 13.728 42.8927 15.772V17.508C42.8927 19.65 44.1107 20.14 45.3287 20.14C46.7427 20.14 47.6667 19.552 47.7647 17.844H46.8827C46.8967 18.796 46.3787 19.468 45.3287 19.468C43.9987 19.468 43.7327 18.166 43.7327 17.186V16.64H47.7647ZM43.7327 15.968C43.7327 14.4 43.9847 13.462 45.3287 13.462C46.6727 13.462 46.9247 14.4 46.9247 15.968H43.7327ZM51.8154 20V9.892H50.9754V20H51.8154ZM58.7969 17.676C58.7969 18.6 58.0129 19.468 57.0469 19.468C56.1789 19.468 55.7729 18.81 55.7729 18.012C55.7729 16.29 57.5929 16.43 58.7969 16.388V17.676ZM58.8529 20H59.7209C59.6369 19.174 59.6369 18.726 59.6369 18.222V14.666C59.6369 12.86 58.1529 12.79 57.4389 12.79C56.2069 12.79 55.1569 13.322 55.0869 14.68H55.9829C55.9829 13.84 56.5989 13.462 57.3689 13.462C58.4889 13.462 58.7969 14.092 58.7969 15.128V15.716C57.3689 15.828 54.8769 15.576 54.8769 18.054C54.8769 19.286 55.5629 20.14 56.8229 20.14C57.6909 20.14 58.3769 19.804 58.8249 19.132H58.8529V20ZM63.6876 15.828C63.6876 14.078 64.6396 13.462 65.1856 13.462C66.5716 13.462 66.7816 14.624 66.7816 16.458C66.7816 18.306 66.5716 19.468 65.1856 19.468C64.4156 19.468 63.6876 18.698 63.6876 17.088V15.828ZM63.6596 12.93H62.8476V22.674H63.6876V19.202L63.7156 19.216C64.1496 19.888 64.6676 20.14 65.1856 20.14C66.9916 20.14 67.6216 19.062 67.6216 17.228V15.646C67.6216 14.722 67.6076 12.79 65.3956 12.79C64.8356 12.79 64.1356 13.084 63.6876 13.77L63.6596 13.784V12.93ZM74.4023 18.138C74.4023 15.772 71.2243 16.248 71.2243 14.484C71.2243 13.854 71.7003 13.462 72.3023 13.462C73.2543 13.462 73.4923 13.938 73.5343 14.834H74.3603C74.3603 13.756 73.9123 12.79 72.5123 12.79C71.2803 12.79 70.3843 13.252 70.3843 14.554C70.3843 16.892 73.5623 16.416 73.5623 18.264C73.5623 19.048 73.1703 19.51 72.3583 19.51C71.2803 19.51 71.0563 18.866 71.0563 17.9H70.2023C70.1883 19.398 70.7903 20.14 72.3163 20.14C73.6323 20.14 74.4023 19.468 74.4023 18.138ZM81.9717 16.64C81.9717 14.54 81.9717 12.79 79.5357 12.79C77.9537 12.79 77.0997 13.728 77.0997 15.772V17.508C77.0997 19.65 78.3177 20.14 79.5357 20.14C80.9497 20.14 81.8737 19.552 81.9717 17.844H81.0897C81.1037 18.796 80.5857 19.468 79.5357 19.468C78.2057 19.468 77.9397 18.166 77.9397 17.186V16.64H81.9717ZM77.9397 15.968C77.9397 14.4 78.1917 13.462 79.5357 13.462C80.8797 13.462 81.1317 14.4 81.1317 15.968H77.9397ZM90.232 15.45C90.232 14.526 90.638 13.462 91.702 13.462C92.528 13.462 92.78 14.246 92.794 14.946V20H93.634V15.45C93.634 14.526 94.04 13.462 95.104 13.462C95.93 13.462 96.182 14.246 96.196 14.946V20H97.036V14.736C96.994 13.602 96.378 12.79 95.202 12.79C94.418 12.79 93.816 13.196 93.466 13.896C93.228 13.196 92.584 12.79 91.856 12.79C91.072 12.79 90.512 13.224 90.176 13.798H90.148V12.916H89.392V20H90.232V15.45ZM103.742 17.676C103.742 18.6 102.958 19.468 101.992 19.468C101.124 19.468 100.718 18.81 100.718 18.012C100.718 16.29 102.538 16.43 103.742 16.388V17.676ZM103.798 20H104.666C104.582 19.174 104.582 18.726 104.582 18.222V14.666C104.582 12.86 103.098 12.79 102.384 12.79C101.152 12.79 100.102 13.322 100.032 14.68H100.928C100.928 13.84 101.544 13.462 102.314 13.462C103.434 13.462 103.742 14.092 103.742 15.128V15.716C102.314 15.828 99.8218 15.576 99.8218 18.054C99.8218 19.286 100.508 20.14 101.768 20.14C102.636 20.14 103.322 19.804 103.77 19.132H103.798V20ZM108.633 15.828C108.633 14.078 109.585 13.462 110.131 13.462C111.517 13.462 111.727 14.624 111.727 16.458C111.727 18.306 111.517 19.468 110.131 19.468C109.361 19.468 108.633 18.698 108.633 17.088V15.828ZM108.605 12.93H107.793V22.674H108.633V19.202L108.661 19.216C109.095 19.888 109.613 20.14 110.131 20.14C111.937 20.14 112.567 19.062 112.567 17.228V15.646C112.567 14.722 112.553 12.79 110.341 12.79C109.781 12.79 109.081 13.084 108.633 13.77L108.605 13.784V12.93ZM120.393 13.602V18.656C120.393 19.524 120.729 20.028 121.863 20.028C122.129 20.028 122.409 20.014 122.661 19.986V19.258C122.479 19.286 122.283 19.3 122.003 19.3C121.331 19.3 121.233 19.076 121.233 18.138V13.602H122.661V12.93H121.233V11.11L120.393 11.474V12.93H119.259V13.602H120.393ZM126.025 20V15.562C126.025 13.98 126.795 13.462 127.551 13.462C128.531 13.462 128.853 14.232 128.853 15.058V20H129.693V15.016C129.693 14.092 129.511 12.79 127.761 12.79C127.005 12.79 126.459 13.21 126.053 13.798H126.025V9.892H125.185V20H126.025ZM136.404 17.676C136.404 18.6 135.62 19.468 134.654 19.468C133.786 19.468 133.38 18.81 133.38 18.012C133.38 16.29 135.2 16.43 136.404 16.388V17.676ZM136.46 20H137.328C137.244 19.174 137.244 18.726 137.244 18.222V14.666C137.244 12.86 135.76 12.79 135.046 12.79C133.814 12.79 132.764 13.322 132.694 14.68H133.59C133.59 13.84 134.206 13.462 134.976 13.462C136.096 13.462 136.404 14.092 136.404 15.128V15.716C134.976 15.828 132.484 15.576 132.484 18.054C132.484 19.286 133.17 20.14 134.43 20.14C135.298 20.14 135.984 19.804 136.432 19.132H136.46V20ZM140.931 13.602V18.656C140.931 19.524 141.267 20.028 142.401 20.028C142.667 20.028 142.947 20.014 143.199 19.986V19.258C143.017 19.286 142.821 19.3 142.541 19.3C141.869 19.3 141.771 19.076 141.771 18.138V13.602H143.199V12.93H141.771V11.11L140.931 11.474V12.93H139.797V13.602H140.931ZM154.189 18.138C154.189 15.772 151.011 16.248 151.011 14.484C151.011 13.854 151.487 13.462 152.089 13.462C153.041 13.462 153.279 13.938 153.321 14.834H154.147C154.147 13.756 153.699 12.79 152.299 12.79C151.067 12.79 150.171 13.252 150.171 14.554C150.171 16.892 153.349 16.416 153.349 18.264C153.349 19.048 152.957 19.51 152.145 19.51C151.067 19.51 150.843 18.866 150.843 17.9H149.989C149.975 19.398 150.577 20.14 152.103 20.14C153.419 20.14 154.189 19.468 154.189 18.138ZM157.908 20V15.562C157.908 13.98 158.678 13.462 159.434 13.462C160.414 13.462 160.736 14.232 160.736 15.058V20H161.576V15.016C161.576 14.092 161.394 12.79 159.644 12.79C158.888 12.79 158.342 13.21 157.936 13.798H157.908V9.892H157.068V20H157.908ZM166.943 20.14C168.595 20.14 169.379 19.062 169.379 17.228V15.702C169.379 13.868 168.595 12.79 166.943 12.79C165.291 12.79 164.507 13.868 164.507 15.702V17.228C164.507 19.062 165.291 20.14 166.943 20.14ZM166.943 13.462C168.329 13.462 168.539 14.624 168.539 16.458C168.539 18.306 168.329 19.468 166.943 19.468C165.557 19.468 165.347 18.306 165.347 16.458C165.347 14.624 165.557 13.462 166.943 13.462ZM173.541 20H174.591L176.075 13.952H176.103L177.657 20H178.707L180.653 12.93H179.813L178.231 19.118H178.203L176.635 12.93H175.599L174.101 19.118H174.073L172.491 12.93H171.595L173.541 20ZM187.009 18.138C187.009 15.772 183.831 16.248 183.831 14.484C183.831 13.854 184.307 13.462 184.909 13.462C185.861 13.462 186.099 13.938 186.141 14.834H186.967C186.967 13.756 186.519 12.79 185.119 12.79C183.887 12.79 182.991 13.252 182.991 14.554C182.991 16.892 186.169 16.416 186.169 18.264C186.169 19.048 185.777 19.51 184.965 19.51C183.887 19.51 183.663 18.866 183.663 17.9H182.809C182.795 19.398 183.397 20.14 184.923 20.14C186.239 20.14 187.009 19.468 187.009 18.138ZM194.896 13.602V18.656C194.896 19.524 195.232 20.028 196.366 20.028C196.632 20.028 196.912 20.014 197.164 19.986V19.258C196.982 19.286 196.786 19.3 196.506 19.3C195.834 19.3 195.736 19.076 195.736 18.138V13.602H197.164V12.93H195.736V11.11L194.896 11.474V12.93H193.762V13.602H194.896ZM200.529 20V15.562C200.529 13.98 201.299 13.462 202.055 13.462C203.035 13.462 203.357 14.232 203.357 15.058V20H204.197V15.016C204.197 14.092 204.015 12.79 202.265 12.79C201.509 12.79 200.963 13.21 200.557 13.798H200.529V9.892H199.689V20H200.529ZM211.999 16.64C211.999 14.54 211.999 12.79 209.563 12.79C207.981 12.79 207.127 13.728 207.127 15.772V17.508C207.127 19.65 208.345 20.14 209.563 20.14C210.977 20.14 211.901 19.552 211.999 17.844H211.117C211.131 18.796 210.613 19.468 209.563 19.468C208.233 19.468 207.967 18.166 207.967 17.186V16.64H211.999ZM207.967 15.968C207.967 14.4 208.219 13.462 209.563 13.462C210.907 13.462 211.159 14.4 211.159 15.968H207.967ZM223.396 18.138C223.396 15.772 220.218 16.248 220.218 14.484C220.218 13.854 220.694 13.462 221.296 13.462C222.248 13.462 222.486 13.938 222.528 14.834H223.354C223.354 13.756 222.906 12.79 221.506 12.79C220.274 12.79 219.378 13.252 219.378 14.554C219.378 16.892 222.556 16.416 222.556 18.264C222.556 19.048 222.164 19.51 221.352 19.51C220.274 19.51 220.05 18.866 220.05 17.9H219.196C219.182 19.398 219.784 20.14 221.31 20.14C222.626 20.14 223.396 19.468 223.396 18.138ZM230.265 14.96C230.335 13.476 229.509 12.79 228.291 12.79C227.325 12.79 226.527 13.154 226.163 14.162C225.981 14.694 225.953 15.8 225.953 16.5C225.953 18.25 225.953 20.14 228.347 20.14C229.005 20.14 230.349 19.818 230.279 17.914H229.439C229.397 18.768 229.257 19.468 228.151 19.468C226.849 19.468 226.849 17.774 226.849 16.5C226.849 15.562 226.933 14.596 227.045 14.274C227.227 13.756 227.661 13.462 228.179 13.462C229.145 13.462 229.467 14.078 229.425 14.96H230.265ZM233.956 20V15.562C233.956 13.98 234.726 13.462 235.482 13.462C236.462 13.462 236.784 14.232 236.784 15.058V20H237.624V15.016C237.624 14.092 237.442 12.79 235.692 12.79C234.936 12.79 234.39 13.21 233.984 13.798H233.956V9.892H233.116V20H233.956ZM242.991 20.14C244.643 20.14 245.427 19.062 245.427 17.228V15.702C245.427 13.868 244.643 12.79 242.991 12.79C241.339 12.79 240.555 13.868 240.555 15.702V17.228C240.555 19.062 241.339 20.14 242.991 20.14ZM242.991 13.462C244.377 13.462 244.587 14.624 244.587 16.458C244.587 18.306 244.377 19.468 242.991 19.468C241.605 19.468 241.395 18.306 241.395 16.458C241.395 14.624 241.605 13.462 242.991 13.462ZM250.612 20.14C252.264 20.14 253.048 19.062 253.048 17.228V15.702C253.048 13.868 252.264 12.79 250.612 12.79C248.96 12.79 248.176 13.868 248.176 15.702V17.228C248.176 19.062 248.96 20.14 250.612 20.14ZM250.612 13.462C251.998 13.462 252.208 14.624 252.208 16.458C252.208 18.306 251.998 19.468 250.612 19.468C249.226 19.468 249.016 18.306 249.016 16.458C249.016 14.624 249.226 13.462 250.612 13.462ZM257.099 20V9.892H256.259V20H257.099ZM268.948 18.138C268.948 15.772 265.77 16.248 265.77 14.484C265.77 13.854 266.246 13.462 266.848 13.462C267.8 13.462 268.038 13.938 268.08 14.834H268.906C268.906 13.756 268.458 12.79 267.058 12.79C265.826 12.79 264.93 13.252 264.93 14.554C264.93 16.892 268.108 16.416 268.108 18.264C268.108 19.048 267.716 19.51 266.904 19.51C265.826 19.51 265.602 18.866 265.602 17.9H264.748C264.734 19.398 265.336 20.14 266.862 20.14C268.178 20.14 268.948 19.468 268.948 18.138ZM272.667 20V15.562C272.667 13.98 273.437 13.462 274.193 13.462C275.173 13.462 275.495 14.232 275.495 15.058V20H276.335V15.016C276.335 14.092 276.153 12.79 274.403 12.79C273.647 12.79 273.101 13.21 272.695 13.798H272.667V9.892H271.827V20H272.667ZM281.702 20.14C283.354 20.14 284.138 19.062 284.138 17.228V15.702C284.138 13.868 283.354 12.79 281.702 12.79C280.05 12.79 279.266 13.868 279.266 15.702V17.228C279.266 19.062 280.05 20.14 281.702 20.14ZM281.702 13.462C283.088 13.462 283.298 14.624 283.298 16.458C283.298 18.306 283.088 19.468 281.702 19.468C280.316 19.468 280.106 18.306 280.106 16.458C280.106 14.624 280.316 13.462 281.702 13.462ZM289.322 20.14C290.974 20.14 291.758 19.062 291.758 17.228V15.702C291.758 13.868 290.974 12.79 289.322 12.79C287.67 12.79 286.886 13.868 286.886 15.702V17.228C286.886 19.062 287.67 20.14 289.322 20.14ZM289.322 13.462C290.708 13.462 290.918 14.624 290.918 16.458C290.918 18.306 290.708 19.468 289.322 19.468C287.936 19.468 287.726 18.306 287.726 16.458C287.726 14.624 287.936 13.462 289.322 13.462ZM295.193 13.602V18.656C295.193 19.524 295.529 20.028 296.663 20.028C296.929 20.028 297.209 20.014 297.461 19.986V19.258C297.279 19.286 297.083 19.3 296.803 19.3C296.131 19.3 296.033 19.076 296.033 18.138V13.602H297.461V12.93H296.033V11.11L295.193 11.474V12.93H294.059V13.602H295.193ZM301.106 20V12.93H300.266V20H301.106ZM301.204 10.956V9.892H300.168V10.956H301.204ZM305.329 15.562C305.329 13.98 306.099 13.462 306.855 13.462C307.835 13.462 308.157 14.232 308.157 15.058V20H308.997V15.016C308.997 14.092 308.815 12.79 307.065 12.79C306.309 12.79 305.763 13.21 305.357 13.798H305.329V12.93H304.489V20H305.329V15.562ZM314.168 13.462C314.952 13.462 315.75 14.022 315.75 15.506C315.75 17.578 315.694 17.9 315.484 18.446C315.358 18.782 314.91 19.244 314.21 19.244C312.684 19.244 312.684 17.774 312.684 16.304C312.684 15.254 312.712 13.462 314.168 13.462ZM315.806 13.812L315.778 13.784C315.47 13.154 314.756 12.79 314.042 12.79C312.614 12.79 312.124 13.896 312.054 14.19C311.858 14.946 311.844 14.96 311.844 16.598C311.844 18.166 311.984 19.916 314.014 19.916C314.686 19.916 315.358 19.664 315.722 19.062H315.75C315.75 21.176 315.848 22.058 314.21 22.058C313.426 22.058 312.824 21.582 312.88 20.77H312.04C311.984 21.484 312.334 22.73 314.098 22.73C316.114 22.73 316.59 21.806 316.59 20.252V14.302C316.59 13.938 316.604 13.588 316.632 12.916H315.806V13.812ZM323.693 18.138C323.693 15.772 320.515 16.248 320.515 14.484C320.515 13.854 320.991 13.462 321.593 13.462C322.545 13.462 322.783 13.938 322.825 14.834H323.651C323.651 13.756 323.203 12.79 321.803 12.79C320.571 12.79 319.675 13.252 319.675 14.554C319.675 16.892 322.853 16.416 322.853 18.264C322.853 19.048 322.461 19.51 321.649 19.51C320.571 19.51 320.347 18.866 320.347 17.9H319.493C319.479 19.398 320.081 20.14 321.607 20.14C322.923 20.14 323.693 19.468 323.693 18.138ZM331.579 13.602V18.656C331.579 19.524 331.915 20.028 333.049 20.028C333.315 20.028 333.595 20.014 333.847 19.986V19.258C333.665 19.286 333.469 19.3 333.189 19.3C332.517 19.3 332.419 19.076 332.419 18.138V13.602H333.847V12.93H332.419V11.11L331.579 11.474V12.93H330.445V13.602H331.579ZM337.212 20V15.562C337.212 13.98 337.982 13.462 338.738 13.462C339.718 13.462 340.04 14.232 340.04 15.058V20H340.88V15.016C340.88 14.092 340.698 12.79 338.948 12.79C338.192 12.79 337.646 13.21 337.24 13.798H337.212V9.892H336.372V20H337.212ZM347.591 17.676C347.591 18.6 346.807 19.468 345.841 19.468C344.973 19.468 344.567 18.81 344.567 18.012C344.567 16.29 346.387 16.43 347.591 16.388V17.676ZM347.647 20H348.515C348.431 19.174 348.431 18.726 348.431 18.222V14.666C348.431 12.86 346.947 12.79 346.233 12.79C345.001 12.79 343.951 13.322 343.881 14.68H344.777C344.777 13.84 345.393 13.462 346.163 13.462C347.283 13.462 347.591 14.092 347.591 15.128V15.716C346.163 15.828 343.671 15.576 343.671 18.054C343.671 19.286 344.357 20.14 345.617 20.14C346.485 20.14 347.171 19.804 347.619 19.132H347.647V20ZM352.117 13.602V18.656C352.117 19.524 352.453 20.028 353.587 20.028C353.853 20.028 354.133 20.014 354.385 19.986V19.258C354.203 19.286 354.007 19.3 353.727 19.3C353.055 19.3 352.957 19.076 352.957 18.138V13.602H354.385V12.93H352.957V11.11L352.117 11.474V12.93H350.983V13.602H352.117ZM362.253 20V15.562C362.253 13.98 363.023 13.462 363.779 13.462C364.759 13.462 365.081 14.232 365.081 15.058V20H365.921V15.016C365.921 14.092 365.739 12.79 363.989 12.79C363.233 12.79 362.687 13.21 362.281 13.798H362.253V9.892H361.413V20H362.253ZM372.632 17.676C372.632 18.6 371.848 19.468 370.882 19.468C370.014 19.468 369.608 18.81 369.608 18.012C369.608 16.29 371.428 16.43 372.632 16.388V17.676ZM372.688 20H373.556C373.472 19.174 373.472 18.726 373.472 18.222V14.666C373.472 12.86 371.988 12.79 371.274 12.79C370.042 12.79 368.992 13.322 368.922 14.68H369.818C369.818 13.84 370.434 13.462 371.204 13.462C372.324 13.462 372.632 14.092 372.632 15.128V15.716C371.204 15.828 368.712 15.576 368.712 18.054C368.712 19.286 369.398 20.14 370.658 20.14C371.526 20.14 372.212 19.804 372.66 19.132H372.688V20ZM377.523 15.828C377.523 14.078 378.475 13.462 379.021 13.462C380.407 13.462 380.617 14.624 380.617 16.458C380.617 18.306 380.407 19.468 379.021 19.468C378.251 19.468 377.523 18.698 377.523 17.088V15.828ZM377.495 12.93H376.683V22.674H377.523V19.202L377.551 19.216C377.985 19.888 378.503 20.14 379.021 20.14C380.827 20.14 381.457 19.062 381.457 17.228V15.646C381.457 14.722 381.443 12.79 379.231 12.79C378.671 12.79 377.971 13.084 377.523 13.77L377.495 13.784V12.93ZM385.143 15.828C385.143 14.078 386.095 13.462 386.641 13.462C388.027 13.462 388.237 14.624 388.237 16.458C388.237 18.306 388.027 19.468 386.641 19.468C385.871 19.468 385.143 18.698 385.143 17.088V15.828ZM385.115 12.93H384.303V22.674H385.143V19.202L385.171 19.216C385.605 19.888 386.123 20.14 386.641 20.14C388.447 20.14 389.077 19.062 389.077 17.228V15.646C389.077 14.722 389.063 12.79 386.851 12.79C386.291 12.79 385.591 13.084 385.143 13.77L385.115 13.784V12.93ZM396.586 16.64C396.586 14.54 396.586 12.79 394.15 12.79C392.568 12.79 391.714 13.728 391.714 15.772V17.508C391.714 19.65 392.932 20.14 394.15 20.14C395.564 20.14 396.488 19.552 396.586 17.844H395.704C395.718 18.796 395.2 19.468 394.15 19.468C392.82 19.468 392.554 18.166 392.554 17.186V16.64H396.586ZM392.554 15.968C392.554 14.4 392.806 13.462 394.15 13.462C395.494 13.462 395.746 14.4 395.746 15.968H392.554ZM400.357 15.562C400.357 13.98 401.127 13.462 401.883 13.462C402.863 13.462 403.185 14.232 403.185 15.058V20H404.025V15.016C404.025 14.092 403.843 12.79 402.093 12.79C401.337 12.79 400.791 13.21 400.385 13.798H400.357V12.93H399.517V20H400.357V15.562ZM411.828 16.64C411.828 14.54 411.828 12.79 409.392 12.79C407.81 12.79 406.956 13.728 406.956 15.772V17.508C406.956 19.65 408.174 20.14 409.392 20.14C410.806 20.14 411.73 19.552 411.828 17.844H410.946C410.96 18.796 410.442 19.468 409.392 19.468C408.062 19.468 407.796 18.166 407.796 17.186V16.64H411.828ZM407.796 15.968C407.796 14.4 408.048 13.462 409.392 13.462C410.736 13.462 410.988 14.4 410.988 15.968H407.796ZM416.872 19.468C415.962 19.468 415.332 19.118 415.332 16.486C415.332 14.834 415.332 13.462 416.844 13.462C418.426 13.462 418.426 15.422 418.426 15.842V17.102C418.426 18.824 417.67 19.468 416.872 19.468ZM418.51 20H419.322C419.28 19.762 419.238 19.3 419.238 18.6V9.892H418.398V13.644L418.37 13.63C417.936 13.084 417.306 12.79 416.662 12.79C414.492 12.79 414.492 15.1 414.492 16.458C414.492 18.11 414.604 20.14 416.648 20.14C417.474 20.14 418.006 19.79 418.44 19.118L418.468 19.104L418.51 20ZM430.481 17.676C430.481 18.6 429.697 19.468 428.731 19.468C427.863 19.468 427.457 18.81 427.457 18.012C427.457 16.29 429.277 16.43 430.481 16.388V17.676ZM430.537 20H431.405C431.321 19.174 431.321 18.726 431.321 18.222V14.666C431.321 12.86 429.837 12.79 429.123 12.79C427.891 12.79 426.841 13.322 426.771 14.68H427.667C427.667 13.84 428.283 13.462 429.053 13.462C430.173 13.462 430.481 14.092 430.481 15.128V15.716C429.053 15.828 426.561 15.576 426.561 18.054C426.561 19.286 427.247 20.14 428.507 20.14C429.375 20.14 430.061 19.804 430.509 19.132H430.537V20ZM435.049 20H435.889V13.602H437.317V12.93H435.889V11.726C435.889 11.32 435.889 10.592 436.701 10.592H437.331V9.892C437.121 9.864 436.981 9.836 436.855 9.836C435.147 9.836 435.049 11.068 435.049 11.74V12.93H433.915V13.602H435.049V20ZM440.304 13.602V18.656C440.304 19.524 440.64 20.028 441.774 20.028C442.04 20.028 442.32 20.014 442.572 19.986V19.258C442.39 19.286 442.194 19.3 441.914 19.3C441.242 19.3 441.144 19.076 441.144 18.138V13.602H442.572V12.93H441.144V11.11L440.304 11.474V12.93H439.17V13.602H440.304ZM449.786 16.64C449.786 14.54 449.786 12.79 447.35 12.79C445.768 12.79 444.914 13.728 444.914 15.772V17.508C444.914 19.65 446.132 20.14 447.35 20.14C448.764 20.14 449.688 19.552 449.786 17.844H448.904C448.918 18.796 448.4 19.468 447.35 19.468C446.02 19.468 445.754 18.166 445.754 17.186V16.64H449.786ZM445.754 15.968C445.754 14.4 446.006 13.462 447.35 13.462C448.694 13.462 448.946 14.4 448.946 15.968H445.754ZM453.613 12.93H452.773V20H453.613V15.45C453.613 14.26 454.397 13.546 455.587 13.644V12.79C454.733 12.79 453.991 13.21 453.641 13.882H453.613V12.93ZM463.021 13.602V18.656C463.021 19.524 463.357 20.028 464.491 20.028C464.757 20.028 465.037 20.014 465.289 19.986V19.258C465.107 19.286 464.911 19.3 464.631 19.3C463.959 19.3 463.861 19.076 463.861 18.138V13.602H465.289V12.93H463.861V11.11L463.021 11.474V12.93H461.887V13.602H463.021ZM468.653 20V15.562C468.653 13.98 469.423 13.462 470.179 13.462C471.159 13.462 471.481 14.232 471.481 15.058V20H472.321V15.016C472.321 14.092 472.139 12.79 470.389 12.79C469.633 12.79 469.087 13.21 468.681 13.798H468.653V9.892H467.813V20H468.653ZM480.124 16.64C480.124 14.54 480.124 12.79 477.688 12.79C476.106 12.79 475.252 13.728 475.252 15.772V17.508C475.252 19.65 476.47 20.14 477.688 20.14C479.102 20.14 480.026 19.552 480.124 17.844H479.242C479.256 18.796 478.738 19.468 477.688 19.468C476.358 19.468 476.092 18.166 476.092 17.186V16.64H480.124ZM476.092 15.968C476.092 14.4 476.344 13.462 477.688 13.462C479.032 13.462 479.284 14.4 479.284 15.968H476.092ZM11.85 42.196C14.244 42.196 14.412 39.83 14.412 39.102H13.46C13.446 40.404 13.012 41.44 11.85 41.44C9.722 41.44 9.694 39.634 9.694 36.946C9.694 34.258 9.722 32.452 11.85 32.452C13.138 32.452 13.446 33.502 13.446 34.622H14.342C14.342 33.712 14.3 31.696 11.85 31.696C8.826 31.696 8.798 34.216 8.798 36.946C8.798 39.676 8.826 42.196 11.85 42.196ZM19.508 42.14C21.16 42.14 21.944 41.062 21.944 39.228V37.702C21.944 35.868 21.16 34.79 19.508 34.79C17.856 34.79 17.072 35.868 17.072 37.702V39.228C17.072 41.062 17.856 42.14 19.508 42.14ZM19.508 35.462C20.894 35.462 21.104 36.624 21.104 38.458C21.104 40.306 20.894 41.468 19.508 41.468C18.122 41.468 17.912 40.306 17.912 38.458C17.912 36.624 18.122 35.462 19.508 35.462ZM25.9947 42V31.892H25.1547V42H25.9947ZM32.9902 34.93V39.914C32.9902 40.404 32.5842 41.468 31.4502 41.468C30.2322 41.468 30.2742 39.984 30.2742 39.788V34.93H29.4342V39.928C29.4342 41.076 29.8402 42.14 31.2962 42.14C32.0802 42.14 32.5842 41.818 33.0742 41.216H33.1022V42H33.8302V34.93H32.9902ZM37.8249 37.45C37.8249 36.526 38.2309 35.462 39.2949 35.462C40.1209 35.462 40.3729 36.246 40.3869 36.946V42H41.2269V37.45C41.2269 36.526 41.6329 35.462 42.6969 35.462C43.5229 35.462 43.7749 36.246 43.7889 36.946V42H44.6289V36.736C44.5869 35.602 43.9709 34.79 42.7949 34.79C42.0109 34.79 41.4089 35.196 41.0589 35.896C40.8209 35.196 40.1769 34.79 39.4489 34.79C38.6649 34.79 38.1049 35.224 37.7689 35.798H37.7409V34.916H36.9849V42H37.8249V37.45ZM48.5768 38.36C48.5768 37.296 48.7448 35.462 50.1028 35.462C51.6568 35.462 51.6988 36.834 51.6988 38.486C51.6988 40.138 51.6568 41.468 50.1028 41.468C48.5768 41.468 48.5768 39.48 48.5768 38.36ZM48.5488 42V41.146H48.5768C48.9268 41.804 49.5288 42.14 50.3548 42.14C52.4128 42.14 52.5388 40.012 52.5388 38.458C52.5388 37.198 52.7208 34.79 50.4248 34.79C49.6268 34.79 49.0668 35.084 48.6328 35.756L48.6048 35.728V31.892H47.7648V41.3C47.7648 41.538 47.7228 41.762 47.6808 42H48.5488ZM56.4775 42V34.93H55.6375V42H56.4775ZM56.5755 32.956V31.892H55.5395V32.956H56.5755ZM60.701 37.562C60.701 35.98 61.471 35.462 62.227 35.462C63.207 35.462 63.529 36.232 63.529 37.058V42H64.369V37.016C64.369 36.092 64.187 34.79 62.437 34.79C61.681 34.79 61.135 35.21 60.729 35.798H60.701V34.93H59.861V42H60.701V37.562ZM72.1717 38.64C72.1717 36.54 72.1717 34.79 69.7357 34.79C68.1537 34.79 67.2997 35.728 67.2997 37.772V39.508C67.2997 41.65 68.5177 42.14 69.7357 42.14C71.1497 42.14 72.0737 41.552 72.1717 39.844H71.2897C71.3037 40.796 70.7857 41.468 69.7357 41.468C68.4057 41.468 68.1397 40.166 68.1397 39.186V38.64H72.1717ZM68.1397 37.968C68.1397 36.4 68.3917 35.462 69.7357 35.462C71.0797 35.462 71.3317 36.4 71.3317 37.968H68.1397ZM80.432 37.45C80.432 36.526 80.838 35.462 81.902 35.462C82.728 35.462 82.98 36.246 82.994 36.946V42H83.834V37.45C83.834 36.526 84.24 35.462 85.304 35.462C86.13 35.462 86.382 36.246 86.396 36.946V42H87.236V36.736C87.194 35.602 86.578 34.79 85.402 34.79C84.618 34.79 84.016 35.196 83.666 35.896C83.428 35.196 82.784 34.79 82.056 34.79C81.272 34.79 80.712 35.224 80.376 35.798H80.348V34.916H79.592V42H80.432V37.45ZM93.9418 39.676C93.9418 40.6 93.1578 41.468 92.1918 41.468C91.3238 41.468 90.9178 40.81 90.9178 40.012C90.9178 38.29 92.7378 38.43 93.9418 38.388V39.676ZM93.9978 42H94.8658C94.7818 41.174 94.7818 40.726 94.7818 40.222V36.666C94.7818 34.86 93.2978 34.79 92.5838 34.79C91.3518 34.79 90.3018 35.322 90.2318 36.68H91.1278C91.1278 35.84 91.7438 35.462 92.5138 35.462C93.6338 35.462 93.9418 36.092 93.9418 37.128V37.716C92.5138 37.828 90.0218 37.576 90.0218 40.054C90.0218 41.286 90.7078 42.14 91.9678 42.14C92.8358 42.14 93.5218 41.804 93.9698 41.132H93.9978V42ZM101.927 40.138C101.927 37.772 98.7486 38.248 98.7486 36.484C98.7486 35.854 99.2246 35.462 99.8266 35.462C100.779 35.462 101.017 35.938 101.059 36.834H101.885C101.885 35.756 101.437 34.79 100.037 34.79C98.8046 34.79 97.9085 35.252 97.9085 36.554C97.9085 38.892 101.087 38.416 101.087 40.264C101.087 41.048 100.695 41.51 99.8826 41.51C98.8046 41.51 98.5805 40.866 98.5805 39.9H97.7265C97.7125 41.398 98.3145 42.14 99.8406 42.14C101.157 42.14 101.927 41.468 101.927 40.138ZM108.768 40.138C108.768 37.772 105.59 38.248 105.59 36.484C105.59 35.854 106.066 35.462 106.668 35.462C107.62 35.462 107.858 35.938 107.9 36.834H108.726C108.726 35.756 108.278 34.79 106.878 34.79C105.646 34.79 104.75 35.252 104.75 36.554C104.75 38.892 107.928 38.416 107.928 40.264C107.928 41.048 107.536 41.51 106.724 41.51C105.646 41.51 105.422 40.866 105.422 39.9H104.568C104.554 41.398 105.156 42.14 106.682 42.14C107.998 42.14 108.768 41.468 108.768 40.138ZM115.245 39.676C115.245 40.6 114.461 41.468 113.495 41.468C112.627 41.468 112.221 40.81 112.221 40.012C112.221 38.29 114.041 38.43 115.245 38.388V39.676ZM115.301 42H116.169C116.085 41.174 116.085 40.726 116.085 40.222V36.666C116.085 34.86 114.601 34.79 113.887 34.79C112.655 34.79 111.605 35.322 111.535 36.68H112.431C112.431 35.84 113.047 35.462 113.817 35.462C114.937 35.462 115.245 36.092 115.245 37.128V37.716C113.817 37.828 111.325 37.576 111.325 40.054C111.325 41.286 112.011 42.14 113.271 42.14C114.139 42.14 114.825 41.804 115.273 41.132H115.301V42ZM123.258 36.96C123.328 35.476 122.502 34.79 121.284 34.79C120.318 34.79 119.52 35.154 119.156 36.162C118.974 36.694 118.946 37.8 118.946 38.5C118.946 40.25 118.946 42.14 121.34 42.14C121.998 42.14 123.342 41.818 123.272 39.914H122.432C122.39 40.768 122.25 41.468 121.144 41.468C119.842 41.468 119.842 39.774 119.842 38.5C119.842 37.562 119.926 36.596 120.038 36.274C120.22 35.756 120.654 35.462 121.172 35.462C122.138 35.462 122.46 36.078 122.418 36.96H123.258ZM127.005 34.93H126.165V42H127.005V37.45C127.005 36.26 127.789 35.546 128.979 35.644V34.79C128.125 34.79 127.383 35.21 127.033 35.882H127.005V34.93ZM136.096 38.64C136.096 36.54 136.096 34.79 133.66 34.79C132.078 34.79 131.224 35.728 131.224 37.772V39.508C131.224 41.65 132.442 42.14 133.66 42.14C135.074 42.14 135.998 41.552 136.096 39.844H135.214C135.228 40.796 134.71 41.468 133.66 41.468C132.33 41.468 132.064 40.166 132.064 39.186V38.64H136.096ZM132.064 37.968C132.064 36.4 132.316 35.462 133.66 35.462C135.004 35.462 135.256 36.4 135.256 37.968H132.064ZM139.209 42H140.245V40.936H139.209V42Z" fill="white"/>
</svg>
