<svg width="422" height="241" viewBox="0 0 422 241" fill="none" xmlns="http://www.w3.org/2000/svg">
<path d="M5.4 3.1C5.4 2.596 5.004 2.2 4.5 2.2H4.41L5.31 0.129999C3.69 2.11 3.6 2.47 3.6 3.1C3.6 3.604 3.996 4 4.5 4C5.004 4 5.4 3.604 5.4 3.1ZM2.88 3.1C2.88 2.596 2.484 2.2 1.98 2.2H1.89L2.79 0.129999C1.17 2.11 1.08 2.47 1.08 3.1C1.08 3.604 1.476 4 1.98 4C2.484 4 2.88 3.604 2.88 3.1ZM18.8163 1.3H9.27633V4.54L10.5363 1.93H13.5963V12.01L11.6163 13H16.4763L14.4963 12.01V1.93H17.5563L18.8163 4.54V1.3ZM23.58 1.3V12.19L22.14 13H25.92L24.48 12.19V6.844C25.02 6.178 26.1 5.314 27.18 5.314C28.35 5.314 28.89 6.16 28.89 7.6V12.19L27.45 13H31.23L29.79 12.19V7.33C29.79 5.35 28.8 4.63 27.54 4.63C26.28 4.63 25.11 5.62 24.48 6.304V0.129999L22.14 0.85L23.58 1.3ZM40.9465 8.14C40.9465 6.16 40.1365 4.63 37.8505 4.63C35.7085 4.63 33.9265 6.322 33.9265 8.95C33.9265 11.38 35.3665 13.27 37.7065 13.27C40.4065 13.27 40.9465 10.66 40.9465 10.66C40.9465 10.66 40.1365 12.46 38.1565 12.46C36.3565 12.46 34.8265 11.344 34.8265 8.662C34.8265 8.482 34.8265 8.32 34.8445 8.14H40.9465ZM37.8145 5.062C39.0745 5.062 39.9565 5.89 39.9565 6.79C39.9565 7.51 39.3265 7.6 38.4265 7.6H34.9345C35.3305 5.872 36.6805 5.062 37.8145 5.062ZM45.6216 5.8V12.19L44.1816 13H47.9616L46.5216 12.19V7.06C47.3316 6.16 48.0156 5.602 48.3756 5.602C48.9696 5.602 48.8796 6.16 49.5096 6.16C49.9416 6.16 50.2116 5.854 50.2116 5.476C50.2116 4.936 49.8516 4.63 49.2216 4.63C48.7176 4.63 48.2856 4.828 47.7276 5.368L46.5216 6.52V4.63L44.1816 5.35L45.6216 5.8ZM60.2965 8.14C60.2965 6.16 59.4865 4.63 57.2005 4.63C55.0585 4.63 53.2765 6.322 53.2765 8.95C53.2765 11.38 54.7165 13.27 57.0565 13.27C59.7565 13.27 60.2965 10.66 60.2965 10.66C60.2965 10.66 59.4865 12.46 57.5065 12.46C55.7065 12.46 54.1765 11.344 54.1765 8.662C54.1765 8.482 54.1765 8.32 54.1945 8.14H60.2965ZM57.1645 5.062C58.4245 5.062 59.3065 5.89 59.3065 6.79C59.3065 7.51 58.6765 7.6 57.7765 7.6H54.2845C54.6805 5.872 56.0305 5.062 57.1645 5.062ZM63.9816 1.3C63.9816 1.804 64.3776 2.2 64.8816 2.2H64.9716L64.0716 4.27C65.6916 2.29 65.7816 1.93 65.7816 1.3C65.7816 0.795999 65.3856 0.399999 64.8816 0.399999C64.3776 0.399999 63.9816 0.795999 63.9816 1.3ZM74.9566 4.63L74.2366 5.35C74.2366 5.35 73.6066 4.63 72.3466 4.63C70.9066 4.63 69.7366 5.476 69.7366 6.79C69.7366 9.508 74.5966 8.752 74.5966 11.074C74.5966 12.28 73.5166 12.73 72.7066 12.73C72.1666 12.73 71.1766 12.568 70.6006 11.38L69.8266 9.76V13.27L70.4566 12.208C70.4746 12.262 71.0326 13.27 72.7066 13.27C74.1466 13.27 75.4066 12.406 75.4066 10.786C75.4066 7.816 70.4566 8.5 70.4566 6.52C70.4566 5.8 71.1586 5.17 72.3466 5.17C73.6066 5.17 74.1466 5.98 74.1466 5.98L74.9566 7.438V4.63ZM87.6209 8.662C86.3969 9.094 85.2989 9.94 85.2989 11.2C85.2989 12.478 86.1089 13.27 87.3509 13.27C88.0709 13.27 88.6829 12.91 89.0969 12.64L90.4289 11.758C90.4289 12.712 90.4289 13.27 91.0589 13.27C91.6889 13.27 92.9489 11.74 92.9489 11.74L91.3289 12.37V7.24C91.3289 5.71 90.6809 4.63 88.7189 4.63C87.6389 4.63 85.6049 5.62 85.6049 6.736C85.6049 7.258 85.9109 7.492 86.2529 7.492C86.5949 7.492 86.9009 7.294 86.9009 6.736C86.9009 6.484 86.8649 6.304 86.8649 6.16C86.8649 5.71 87.4409 5.17 88.5389 5.17C89.5289 5.17 90.4289 5.638 90.4289 7.24V7.69L87.6209 8.662ZM89.3129 11.92C88.7909 12.262 88.3409 12.604 87.6389 12.604C86.7389 12.604 86.2529 11.884 86.2529 11.11C86.2529 10.12 86.7029 9.508 88.2689 8.95L90.4289 8.194V11.182L89.3129 11.92ZM96.904 5.8V12.19L95.464 13H99.244L97.804 12.19V6.844C98.344 6.178 99.424 5.314 100.504 5.314C101.674 5.314 102.214 6.16 102.214 7.6V12.19L100.774 13H104.554L103.114 12.19V7.33C103.114 5.35 102.124 4.63 100.864 4.63C99.604 4.63 98.434 5.62 97.804 6.304V4.63L95.464 5.35L96.904 5.8ZM116.424 2.29L117.054 1.93H121.734L122.994 4.54V1.3H113.724L115.524 2.29V12.01L113.724 13H123.264V9.76L122.004 12.37H117.054L116.424 12.01V7.24H119.394L120.474 8.95V4.9L119.394 6.61H116.424V2.29ZM128.3 1.3V12.19L126.86 13H130.64L129.2 12.19V0.129999L126.86 0.85L128.3 1.3ZM140.621 8.14C140.621 6.16 139.811 4.63 137.525 4.63C135.383 4.63 133.601 6.322 133.601 8.95C133.601 11.38 135.041 13.27 137.381 13.27C140.081 13.27 140.621 10.66 140.621 10.66C140.621 10.66 139.811 12.46 137.831 12.46C136.031 12.46 134.501 11.344 134.501 8.662C134.501 8.482 134.501 8.32 134.519 8.14H140.621ZM137.489 5.062C138.749 5.062 139.631 5.89 139.631 6.79C139.631 7.51 139.001 7.6 138.101 7.6H134.609C135.005 5.872 136.355 5.062 137.489 5.062ZM145.027 15.97L143.587 16.78H147.367L145.927 15.97V11.848C145.981 11.974 146.647 13.27 148.447 13.27C150.067 13.27 151.957 12.01 151.957 8.95C151.957 5.62 150.247 4.63 148.627 4.63C146.737 4.63 145.927 6.34 145.927 6.34V4.63L143.587 5.35L145.027 5.8V15.97ZM145.927 7.24C145.927 7.24 146.557 5.17 148.357 5.17C149.725 5.17 150.967 6.25 150.967 8.95C150.967 11.47 149.725 12.73 148.357 12.73C146.827 12.73 145.927 11.56 145.927 10.21V7.24ZM156.464 1.3V12.19L155.024 13H158.804L157.364 12.19V6.844C157.904 6.178 158.984 5.314 160.064 5.314C161.234 5.314 161.774 6.16 161.774 7.6V12.19L160.334 13H164.114L162.674 12.19V7.33C162.674 5.35 161.684 4.63 160.424 4.63C159.164 4.63 157.994 5.62 157.364 6.304V0.129999L155.024 0.85L156.464 1.3ZM169.222 8.662C167.998 9.094 166.9 9.94 166.9 11.2C166.9 12.478 167.71 13.27 168.952 13.27C169.672 13.27 170.284 12.91 170.698 12.64L172.03 11.758C172.03 12.712 172.03 13.27 172.66 13.27C173.29 13.27 174.55 11.74 174.55 11.74L172.93 12.37V7.24C172.93 5.71 172.282 4.63 170.32 4.63C169.24 4.63 167.206 5.62 167.206 6.736C167.206 7.258 167.512 7.492 167.854 7.492C168.196 7.492 168.502 7.294 168.502 6.736C168.502 6.484 168.466 6.304 168.466 6.16C168.466 5.71 169.042 5.17 170.14 5.17C171.13 5.17 172.03 5.638 172.03 7.24V7.69L169.222 8.662ZM170.914 11.92C170.392 12.262 169.942 12.604 169.24 12.604C168.34 12.604 167.854 11.884 167.854 11.11C167.854 10.12 168.304 9.508 169.87 8.95L172.03 8.194V11.182L170.914 11.92ZM178.505 5.8V12.19L177.065 13H180.845L179.405 12.19V6.844C179.945 6.178 181.025 5.314 182.105 5.314C183.275 5.314 183.815 6.16 183.815 7.6V12.19L182.375 13H186.155L184.715 12.19V7.33C184.715 5.35 183.725 4.63 182.465 4.63C181.205 4.63 180.035 5.62 179.405 6.304V4.63L177.065 5.35L178.505 5.8ZM188.49 5.44H190.2V11.38C190.2 12.73 190.74 13.27 191.64 13.27C192.63 13.27 193.134 12.064 193.17 11.938C193.152 11.974 192.72 12.64 192 12.64C191.37 12.64 191.1 12.1 191.1 11.38V5.44H193.17V4.9H191.1V3.01L188.49 5.44ZM202.891 5.35L205.231 4.63V12.19L206.671 13H202.891L204.331 12.19V5.8L202.891 5.35ZM203.701 1.93C203.701 2.434 204.097 2.83 204.601 2.83C205.105 2.83 205.501 2.434 205.501 1.93C205.501 1.426 205.105 1.03 204.601 1.03C204.097 1.03 203.701 1.426 203.701 1.93ZM211.088 5.8V12.19L209.648 13H213.428L211.988 12.19V6.844C212.528 6.178 213.608 5.314 214.688 5.314C215.858 5.314 216.398 6.16 216.398 7.6V12.19L214.958 13H218.738L217.298 12.19V7.33C217.298 5.35 216.308 4.63 215.048 4.63C213.788 4.63 212.618 5.62 211.988 6.304V4.63L209.648 5.35L211.088 5.8ZM227.548 5.44H229.258V11.38C229.258 12.73 229.798 13.27 230.698 13.27C231.688 13.27 232.192 12.064 232.228 11.938C232.21 11.974 231.778 12.64 231.058 12.64C230.428 12.64 230.158 12.1 230.158 11.38V5.44H232.228V4.9H230.158V3.01L227.548 5.44ZM236.824 1.3V12.19L235.384 13H239.164L237.724 12.19V6.844C238.264 6.178 239.344 5.314 240.424 5.314C241.594 5.314 242.134 6.16 242.134 7.6V12.19L240.694 13H244.474L243.034 12.19V7.33C243.034 5.35 242.044 4.63 240.784 4.63C239.524 4.63 238.354 5.62 237.724 6.304V0.129999L235.384 0.85L236.824 1.3ZM254.19 8.14C254.19 6.16 253.38 4.63 251.094 4.63C248.952 4.63 247.17 6.322 247.17 8.95C247.17 11.38 248.61 13.27 250.95 13.27C253.65 13.27 254.19 10.66 254.19 10.66C254.19 10.66 253.38 12.46 251.4 12.46C249.6 12.46 248.07 11.344 248.07 8.662C248.07 8.482 248.07 8.32 248.088 8.14H254.19ZM251.058 5.062C252.318 5.062 253.2 5.89 253.2 6.79C253.2 7.51 252.57 7.6 251.67 7.6H248.178C248.574 5.872 249.924 5.062 251.058 5.062ZM265.341 5.8V12.19L263.901 13H267.681L266.241 12.19V7.06C267.051 6.16 267.735 5.602 268.095 5.602C268.689 5.602 268.599 6.16 269.229 6.16C269.661 6.16 269.931 5.854 269.931 5.476C269.931 4.936 269.571 4.63 268.941 4.63C268.437 4.63 268.005 4.828 267.447 5.368L266.241 6.52V4.63L263.901 5.35L265.341 5.8ZM276.596 5.116C278.09 5.116 279.71 6.43 279.71 9.418C279.71 11.542 278.432 12.784 277.1 12.784C275.624 12.784 273.986 11.47 273.986 8.482C273.986 6.322 275.282 5.116 276.596 5.116ZM272.996 8.95C272.996 11.38 274.346 13.27 276.848 13.27C279.17 13.27 280.7 11.38 280.7 8.95C280.7 6.52 279.35 4.63 276.848 4.63C274.526 4.63 272.996 6.52 272.996 8.95ZM287.361 5.116C288.855 5.116 290.475 6.43 290.475 9.418C290.475 11.542 289.197 12.784 287.865 12.784C286.389 12.784 284.751 11.47 284.751 8.482C284.751 6.322 286.047 5.116 287.361 5.116ZM283.761 8.95C283.761 11.38 285.111 13.27 287.613 13.27C289.935 13.27 291.465 11.38 291.465 8.95C291.465 6.52 290.115 4.63 287.613 4.63C285.291 4.63 283.761 6.52 283.761 8.95ZM302.176 6.844C302.716 6.178 303.796 5.314 304.876 5.314C306.046 5.314 306.586 6.16 306.586 7.6V12.19L305.146 13H308.926L307.486 12.19V7.33C307.486 5.35 306.496 4.63 305.236 4.63C303.976 4.63 302.806 5.62 302.086 6.412C301.798 5.116 300.934 4.63 299.926 4.63C298.666 4.63 297.496 5.62 296.866 6.304V4.63L294.526 5.35L295.966 5.8V12.19L294.526 13H298.306L296.866 12.19V6.844C297.406 6.178 298.486 5.314 299.566 5.314C300.736 5.314 301.276 6.16 301.276 7.6V12.19L299.836 13H303.616L302.176 12.19V6.844ZM312.069 12.19C312.069 12.694 312.465 13.09 312.969 13.09C313.473 13.09 313.869 12.694 313.869 12.19C313.869 11.686 313.473 11.29 312.969 11.29C312.465 11.29 312.069 11.686 312.069 12.19ZM3.33 30.29L5.13 29.3H0.63L2.43 30.29V40.01L0.63 41H5.13L3.33 40.01V30.29ZM7.83563 33.44H9.54563V39.38C9.54563 40.73 10.0856 41.27 10.9856 41.27C11.9756 41.27 12.4796 40.064 12.5156 39.938C12.4976 39.974 12.0656 40.64 11.3456 40.64C10.7156 40.64 10.4456 40.1 10.4456 39.38V33.44H12.5156V32.9H10.4456V31.01L7.83563 33.44ZM22.237 33.35L24.577 32.63V40.19L26.017 41H22.237L23.677 40.19V33.8L22.237 33.35ZM23.047 29.93C23.047 30.434 23.443 30.83 23.947 30.83C24.451 30.83 24.847 30.434 24.847 29.93C24.847 29.426 24.451 29.03 23.947 29.03C23.443 29.03 23.047 29.426 23.047 29.93ZM34.6641 32.63L33.9441 33.35C33.9441 33.35 33.3141 32.63 32.0541 32.63C30.6141 32.63 29.4441 33.476 29.4441 34.79C29.4441 37.508 34.3041 36.752 34.3041 39.074C34.3041 40.28 33.2241 40.73 32.4141 40.73C31.8741 40.73 30.8841 40.568 30.3081 39.38L29.5341 37.76V41.27L30.1641 40.208C30.1821 40.262 30.7401 41.27 32.4141 41.27C33.8541 41.27 35.1141 40.406 35.1141 38.786C35.1141 35.816 30.1641 36.5 30.1641 34.52C30.1641 33.8 30.8661 33.17 32.0541 33.17C33.3141 33.17 33.8541 33.98 33.8541 33.98L34.6641 35.438V32.63ZM46.2663 29.3V40.19L44.8263 41H48.6063L47.1663 40.19V28.13L44.8263 28.85L46.2663 29.3ZM53.9799 36.662C52.7559 37.094 51.6579 37.94 51.6579 39.2C51.6579 40.478 52.4679 41.27 53.7099 41.27C54.4299 41.27 55.0419 40.91 55.4559 40.64L56.7879 39.758C56.7879 40.712 56.7879 41.27 57.4179 41.27C58.0479 41.27 59.3079 39.74 59.3079 39.74L57.6879 40.37V35.24C57.6879 33.71 57.0399 32.63 55.0779 32.63C53.9979 32.63 51.9639 33.62 51.9639 34.736C51.9639 35.258 52.2699 35.492 52.6119 35.492C52.9539 35.492 53.2599 35.294 53.2599 34.736C53.2599 34.484 53.2239 34.304 53.2239 34.16C53.2239 33.71 53.7999 33.17 54.8979 33.17C55.8879 33.17 56.7879 33.638 56.7879 35.24V35.69L53.9799 36.662ZM55.6719 39.92C55.1499 40.262 54.6999 40.604 53.9979 40.604C53.0979 40.604 52.6119 39.884 52.6119 39.11C52.6119 38.12 53.0619 37.508 54.6279 36.95L56.7879 36.194V39.182L55.6719 39.92ZM63.263 33.8V40.19L61.823 41H65.603L64.163 40.19V35.06C64.973 34.16 65.657 33.602 66.017 33.602C66.611 33.602 66.521 34.16 67.151 34.16C67.583 34.16 67.853 33.854 67.853 33.476C67.853 32.936 67.493 32.63 66.863 32.63C66.359 32.63 65.927 32.828 65.369 33.368L64.163 34.52V32.63L61.823 33.35L63.263 33.8ZM71.4579 35.51C71.4579 36.698 72.0879 37.724 73.2219 38.156C72.4479 38.3 71.5479 38.696 71.5479 39.74C71.5479 40.352 72.0159 40.82 72.5019 40.964C71.8899 41.072 70.7379 41.36 70.7379 42.62C70.7379 43.7 71.7279 45.05 74.5179 45.05C77.3979 45.05 78.9279 43.25 78.9279 41.9C78.9279 40.55 78.0279 40.1 77.1279 40.1H73.0779C72.8079 40.1 72.3579 40.01 72.3579 39.47C72.3579 38.534 73.8699 38.39 74.5179 38.39C76.4079 38.39 77.5779 37.094 77.5779 35.51C77.5779 34.178 76.7679 33.44 76.7679 33.44C76.7679 33.44 77.3979 33.62 77.8479 33.62C78.5679 33.62 78.8379 33.206 78.8379 32.72C78.8379 32.36 78.5859 32 78.0819 32C77.6499 32 77.3979 32.324 77.3979 32.702C77.3979 32.936 77.5779 33.17 77.1279 33.17C76.4079 33.17 75.7779 32.63 74.5179 32.63C72.6279 32.63 71.4579 33.926 71.4579 35.51ZM77.1279 41C77.7579 41 78.2979 41.27 78.2979 41.99C78.2979 42.8 77.3079 44.24 74.6979 44.24C72.4479 44.24 71.6379 43.25 71.6379 42.35C71.6379 41.108 73.3839 41.018 73.4199 41H77.1279ZM72.4479 35.51C72.4479 33.98 73.3839 33.08 74.5179 33.08C75.6519 33.08 76.5879 33.98 76.5879 35.51C76.5879 37.04 75.6519 37.94 74.5179 37.94C73.3839 37.94 72.4479 37.04 72.4479 35.51ZM88.9137 36.14C88.9137 34.16 88.1037 32.63 85.8177 32.63C83.6757 32.63 81.8937 34.322 81.8937 36.95C81.8937 39.38 83.3337 41.27 85.6737 41.27C88.3737 41.27 88.9137 38.66 88.9137 38.66C88.9137 38.66 88.1037 40.46 86.1237 40.46C84.3237 40.46 82.7937 39.344 82.7937 36.662C82.7937 36.482 82.7937 36.32 82.8117 36.14H88.9137ZM85.7817 33.062C87.0417 33.062 87.9237 33.89 87.9237 34.79C87.9237 35.51 87.2937 35.6 86.3937 35.6H82.9017C83.2977 33.872 84.6477 33.062 85.7817 33.062ZM101.037 36.662C99.8125 37.094 98.7145 37.94 98.7145 39.2C98.7145 40.478 99.5245 41.27 100.767 41.27C101.487 41.27 102.099 40.91 102.513 40.64L103.845 39.758C103.845 40.712 103.845 41.27 104.475 41.27C105.105 41.27 106.365 39.74 106.365 39.74L104.745 40.37V35.24C104.745 33.71 104.097 32.63 102.135 32.63C101.055 32.63 99.0205 33.62 99.0205 34.736C99.0205 35.258 99.3265 35.492 99.6685 35.492C100.011 35.492 100.317 35.294 100.317 34.736C100.317 34.484 100.281 34.304 100.281 34.16C100.281 33.71 100.857 33.17 101.955 33.17C102.945 33.17 103.845 33.638 103.845 35.24V35.69L101.037 36.662ZM102.729 39.92C102.207 40.262 101.757 40.604 101.055 40.604C100.155 40.604 99.6685 39.884 99.6685 39.11C99.6685 38.12 100.119 37.508 101.685 36.95L103.845 36.194V39.182L102.729 39.92ZM110.32 33.8V40.19L108.88 41H112.66L111.22 40.19V34.844C111.76 34.178 112.84 33.314 113.92 33.314C115.09 33.314 115.63 34.16 115.63 35.6V40.19L114.19 41H117.97L116.53 40.19V35.33C116.53 33.35 115.54 32.63 114.28 32.63C113.02 32.63 111.85 33.62 111.22 34.304V32.63L108.88 33.35L110.32 33.8ZM126.784 29.3V34.052C126.73 33.926 126.064 32.63 124.264 32.63C122.644 32.63 120.754 33.89 120.754 36.95C120.754 40.1 122.464 41.27 124.084 41.27C125.974 41.27 126.784 39.56 126.784 39.56V41.27L129.124 40.55L127.684 40.1V28.13L125.344 28.85L126.784 29.3ZM126.784 38.66C126.784 38.66 126.154 40.73 124.354 40.73C122.986 40.73 121.744 39.56 121.744 36.95C121.744 34.43 122.986 33.17 124.354 33.17C125.884 33.17 126.784 34.34 126.784 35.69V38.66ZM144.067 32.63L143.347 33.35C143.347 33.35 142.717 32.63 141.457 32.63C140.017 32.63 138.847 33.476 138.847 34.79C138.847 37.508 143.707 36.752 143.707 39.074C143.707 40.28 142.627 40.73 141.817 40.73C141.277 40.73 140.287 40.568 139.711 39.38L138.937 37.76V41.27L139.567 40.208C139.585 40.262 140.143 41.27 141.817 41.27C143.257 41.27 144.517 40.406 144.517 38.786C144.517 35.816 139.567 36.5 139.567 34.52C139.567 33.8 140.269 33.17 141.457 33.17C142.717 33.17 143.257 33.98 143.257 33.98L144.067 35.438V32.63ZM154.863 32.63L154.143 34.25C154.143 34.25 153.423 32.63 151.443 32.63C149.823 32.63 147.933 33.89 147.933 36.95C147.933 40.1 149.643 41.27 151.263 41.27C153.153 41.27 153.963 39.56 153.963 39.56V43.97L152.523 44.78H156.303L154.863 43.97V32.63ZM153.963 38.66C153.963 38.66 153.333 40.73 151.533 40.73C150.165 40.73 148.923 39.56 148.923 36.95C148.923 34.43 150.165 33.17 151.533 33.17C153.063 33.17 153.963 34.34 153.963 35.69V38.66ZM164.855 33.8V39.056C164.315 39.722 163.235 40.586 162.155 40.586C160.985 40.586 160.445 39.74 160.445 38.3V32.63L158.105 33.35L159.545 33.8V38.57C159.545 40.55 160.535 41.27 161.795 41.27C163.055 41.27 164.225 40.28 164.855 39.596V41.27L167.195 40.55L165.755 40.1V32.63L163.415 33.35L164.855 33.8ZM172.4 36.662C171.176 37.094 170.078 37.94 170.078 39.2C170.078 40.478 170.888 41.27 172.13 41.27C172.85 41.27 173.462 40.91 173.876 40.64L175.208 39.758C175.208 40.712 175.208 41.27 175.838 41.27C176.468 41.27 177.728 39.74 177.728 39.74L176.108 40.37V35.24C176.108 33.71 175.46 32.63 173.498 32.63C172.418 32.63 170.384 33.62 170.384 34.736C170.384 35.258 170.69 35.492 171.032 35.492C171.374 35.492 171.68 35.294 171.68 34.736C171.68 34.484 171.644 34.304 171.644 34.16C171.644 33.71 172.22 33.17 173.318 33.17C174.308 33.17 175.208 33.638 175.208 35.24V35.69L172.4 36.662ZM174.092 39.92C173.57 40.262 173.12 40.604 172.418 40.604C171.518 40.604 171.032 39.884 171.032 39.11C171.032 38.12 171.482 37.508 173.048 36.95L175.208 36.194V39.182L174.092 39.92ZM179.883 33.44H181.593V39.38C181.593 40.73 182.133 41.27 183.033 41.27C184.023 41.27 184.527 40.064 184.563 39.938C184.545 39.974 184.113 40.64 183.393 40.64C182.763 40.64 182.493 40.1 182.493 39.38V33.44H184.563V32.9H182.493V31.01L179.883 33.44ZM187.449 33.44H189.159V39.38C189.159 40.73 189.699 41.27 190.599 41.27C191.589 41.27 192.093 40.064 192.129 39.938C192.111 39.974 191.679 40.64 190.959 40.64C190.329 40.64 190.059 40.1 190.059 39.38V33.44H192.129V32.9H190.059V31.01L187.449 33.44ZM195.375 33.35L197.715 32.63V40.19L199.155 41H195.375L196.815 40.19V33.8L195.375 33.35ZM196.185 29.93C196.185 30.434 196.581 30.83 197.085 30.83C197.589 30.83 197.985 30.434 197.985 29.93C197.985 29.426 197.589 29.03 197.085 29.03C196.581 29.03 196.185 29.426 196.185 29.93ZM203.572 33.8V40.19L202.132 41H205.912L204.472 40.19V34.844C205.012 34.178 206.092 33.314 207.172 33.314C208.342 33.314 208.882 34.16 208.882 35.6V40.19L207.442 41H211.222L209.782 40.19V35.33C209.782 33.35 208.792 32.63 207.532 32.63C206.272 32.63 205.102 33.62 204.472 34.304V32.63L202.132 33.35L203.572 33.8ZM214.456 35.51C214.456 36.698 215.086 37.724 216.22 38.156C215.446 38.3 214.546 38.696 214.546 39.74C214.546 40.352 215.014 40.82 215.5 40.964C214.888 41.072 213.736 41.36 213.736 42.62C213.736 43.7 214.726 45.05 217.516 45.05C220.396 45.05 221.926 43.25 221.926 41.9C221.926 40.55 221.026 40.1 220.126 40.1H216.076C215.806 40.1 215.356 40.01 215.356 39.47C215.356 38.534 216.868 38.39 217.516 38.39C219.406 38.39 220.576 37.094 220.576 35.51C220.576 34.178 219.766 33.44 219.766 33.44C219.766 33.44 220.396 33.62 220.846 33.62C221.566 33.62 221.836 33.206 221.836 32.72C221.836 32.36 221.584 32 221.08 32C220.648 32 220.396 32.324 220.396 32.702C220.396 32.936 220.576 33.17 220.126 33.17C219.406 33.17 218.776 32.63 217.516 32.63C215.626 32.63 214.456 33.926 214.456 35.51ZM220.126 41C220.756 41 221.296 41.27 221.296 41.99C221.296 42.8 220.306 44.24 217.696 44.24C215.446 44.24 214.636 43.25 214.636 42.35C214.636 41.108 216.382 41.018 216.418 41H220.126ZM215.446 35.51C215.446 33.98 216.382 33.08 217.516 33.08C218.65 33.08 219.586 33.98 219.586 35.51C219.586 37.04 218.65 37.94 217.516 37.94C216.382 37.94 215.446 37.04 215.446 35.51ZM6.3 60.63L5.58 61.35C5.58 61.35 4.95 60.63 3.69 60.63C2.25 60.63 1.08 61.476 1.08 62.79C1.08 65.508 5.94 64.752 5.94 67.074C5.94 68.28 4.86 68.73 4.05 68.73C3.51 68.73 2.52 68.568 1.944 67.38L1.17 65.76V69.27L1.8 68.208C1.818 68.262 2.376 69.27 4.05 69.27C5.49 69.27 6.75 68.406 6.75 66.786C6.75 63.816 1.8 64.5 1.8 62.52C1.8 61.8 2.502 61.17 3.69 61.17C4.95 61.17 5.49 61.98 5.49 61.98L6.3 63.438V60.63ZM13.6765 61.116C15.1705 61.116 16.7905 62.43 16.7905 65.418C16.7905 67.542 15.5125 68.784 14.1805 68.784C12.7045 68.784 11.0665 67.47 11.0665 64.482C11.0665 62.322 12.3625 61.116 13.6765 61.116ZM10.0765 64.95C10.0765 67.38 11.4265 69.27 13.9285 69.27C16.2505 69.27 17.7805 67.38 17.7805 64.95C17.7805 62.52 16.4305 60.63 13.9285 60.63C11.6065 60.63 10.0765 62.52 10.0765 64.95ZM27.3171 61.35L29.6571 60.63V68.19L31.0971 69H27.3171L28.7571 68.19V61.8L27.3171 61.35ZM28.1271 57.93C28.1271 58.434 28.5231 58.83 29.0271 58.83C29.5311 58.83 29.9271 58.434 29.9271 57.93C29.9271 57.426 29.5311 57.03 29.0271 57.03C28.5231 57.03 28.1271 57.426 28.1271 57.93ZM33.7141 61.44H35.4241V67.38C35.4241 68.73 35.9641 69.27 36.8641 69.27C37.8541 69.27 38.3581 68.064 38.3941 67.938C38.3761 67.974 37.9441 68.64 37.2241 68.64C36.5941 68.64 36.3241 68.1 36.3241 67.38V61.44H38.3941V60.9H36.3241V59.01L33.7141 61.44ZM48.1155 61.35L50.4555 60.63V68.19L51.8955 69H48.1155L49.5555 68.19V61.8L48.1155 61.35ZM48.9255 57.93C48.9255 58.434 49.3215 58.83 49.8255 58.83C50.3295 58.83 50.7255 58.434 50.7255 57.93C50.7255 57.426 50.3295 57.03 49.8255 57.03C49.3215 57.03 48.9255 57.426 48.9255 57.93ZM60.5426 60.63L59.8226 61.35C59.8226 61.35 59.1926 60.63 57.9326 60.63C56.4926 60.63 55.3226 61.476 55.3226 62.79C55.3226 65.508 60.1826 64.752 60.1826 67.074C60.1826 68.28 59.1026 68.73 58.2926 68.73C57.7526 68.73 56.7626 68.568 56.1866 67.38L55.4126 65.76V69.27L56.0426 68.208C56.0606 68.262 56.6186 69.27 58.2926 69.27C59.7326 69.27 60.9926 68.406 60.9926 66.786C60.9926 63.816 56.0426 64.5 56.0426 62.52C56.0426 61.8 56.7446 61.17 57.9326 61.17C59.1926 61.17 59.7326 61.98 59.7326 61.98L60.5426 63.438V60.63ZM72.1448 57.3V68.19L70.7048 69H74.4848L73.0448 68.19V62.844C73.5848 62.178 74.6648 61.314 75.7448 61.314C76.9148 61.314 77.4548 62.16 77.4548 63.6V68.19L76.0148 69H79.7948L78.3548 68.19V63.33C78.3548 61.35 77.3648 60.63 76.1048 60.63C74.8448 60.63 73.6748 61.62 73.0448 62.304V56.13L70.7048 56.85L72.1448 57.3ZM84.9033 64.662C83.6793 65.094 82.5813 65.94 82.5813 67.2C82.5813 68.478 83.3913 69.27 84.6333 69.27C85.3533 69.27 85.9653 68.91 86.3793 68.64L87.7113 67.758C87.7113 68.712 87.7113 69.27 88.3413 69.27C88.9713 69.27 90.2313 67.74 90.2313 67.74L88.6113 68.37V63.24C88.6113 61.71 87.9633 60.63 86.0013 60.63C84.9213 60.63 82.8873 61.62 82.8873 62.736C82.8873 63.258 83.1933 63.492 83.5353 63.492C83.8773 63.492 84.1833 63.294 84.1833 62.736C84.1833 62.484 84.1473 62.304 84.1473 62.16C84.1473 61.71 84.7233 61.17 85.8213 61.17C86.8113 61.17 87.7113 61.638 87.7113 63.24V63.69L84.9033 64.662ZM86.5953 67.92C86.0733 68.262 85.6233 68.604 84.9213 68.604C84.0213 68.604 83.5353 67.884 83.5353 67.11C83.5353 66.12 83.9853 65.508 85.5513 64.95L87.7113 64.194V67.182L86.5953 67.92ZM94.1864 61.8V68.19L92.7464 69H96.5264L95.0864 68.19V63.06C95.8964 62.16 96.5804 61.602 96.9404 61.602C97.5344 61.602 97.4444 62.16 98.0744 62.16C98.5064 62.16 98.7764 61.854 98.7764 61.476C98.7764 60.936 98.4164 60.63 97.7864 60.63C97.2824 60.63 96.8504 60.828 96.2924 61.368L95.0864 62.52V60.63L92.7464 61.35L94.1864 61.8ZM107.961 57.3V62.052C107.907 61.926 107.241 60.63 105.441 60.63C103.821 60.63 101.931 61.89 101.931 64.95C101.931 68.1 103.641 69.27 105.261 69.27C107.151 69.27 107.961 67.56 107.961 67.56V69.27L110.301 68.55L108.861 68.1V56.13L106.521 56.85L107.961 57.3ZM107.961 66.66C107.961 66.66 107.331 68.73 105.531 68.73C104.163 68.73 102.921 67.56 102.921 64.95C102.921 62.43 104.163 61.17 105.531 61.17C107.061 61.17 107.961 62.34 107.961 63.69V66.66ZM119.214 61.44H120.924V67.38C120.924 68.73 121.464 69.27 122.364 69.27C123.354 69.27 123.858 68.064 123.894 67.938C123.876 67.974 123.444 68.64 122.724 68.64C122.094 68.64 121.824 68.1 121.824 67.38V61.44H123.894V60.9H121.824V59.01L119.214 61.44ZM130.74 61.116C132.234 61.116 133.854 62.43 133.854 65.418C133.854 67.542 132.576 68.784 131.244 68.784C129.768 68.784 128.13 67.47 128.13 64.482C128.13 62.322 129.426 61.116 130.74 61.116ZM127.14 64.95C127.14 67.38 128.49 69.27 130.992 69.27C133.314 69.27 134.844 67.38 134.844 64.95C134.844 62.52 133.494 60.63 130.992 60.63C128.67 60.63 127.14 62.52 127.14 64.95ZM144.92 63.51C144.92 64.698 145.55 65.724 146.684 66.156C145.91 66.3 145.01 66.696 145.01 67.74C145.01 68.352 145.478 68.82 145.964 68.964C145.352 69.072 144.2 69.36 144.2 70.62C144.2 71.7 145.19 73.05 147.98 73.05C150.86 73.05 152.39 71.25 152.39 69.9C152.39 68.55 151.49 68.1 150.59 68.1H146.54C146.27 68.1 145.82 68.01 145.82 67.47C145.82 66.534 147.332 66.39 147.98 66.39C149.87 66.39 151.04 65.094 151.04 63.51C151.04 62.178 150.23 61.44 150.23 61.44C150.23 61.44 150.86 61.62 151.31 61.62C152.03 61.62 152.3 61.206 152.3 60.72C152.3 60.36 152.048 60 151.544 60C151.112 60 150.86 60.324 150.86 60.702C150.86 60.936 151.04 61.17 150.59 61.17C149.87 61.17 149.24 60.63 147.98 60.63C146.09 60.63 144.92 61.926 144.92 63.51ZM150.59 69C151.22 69 151.76 69.27 151.76 69.99C151.76 70.8 150.77 72.24 148.16 72.24C145.91 72.24 145.1 71.25 145.1 70.35C145.1 69.108 146.846 69.018 146.882 69H150.59ZM145.91 63.51C145.91 61.98 146.846 61.08 147.98 61.08C149.114 61.08 150.05 61.98 150.05 63.51C150.05 65.04 149.114 65.94 147.98 65.94C146.846 65.94 145.91 65.04 145.91 63.51ZM162.376 64.14C162.376 62.16 161.566 60.63 159.28 60.63C157.138 60.63 155.356 62.322 155.356 64.95C155.356 67.38 156.796 69.27 159.136 69.27C161.836 69.27 162.376 66.66 162.376 66.66C162.376 66.66 161.566 68.46 159.586 68.46C157.786 68.46 156.256 67.344 156.256 64.662C156.256 64.482 156.256 64.32 156.274 64.14H162.376ZM159.244 61.062C160.504 61.062 161.386 61.89 161.386 62.79C161.386 63.51 160.756 63.6 159.856 63.6H156.364C156.76 61.872 158.11 61.062 159.244 61.062ZM165.251 61.44H166.961V67.38C166.961 68.73 167.501 69.27 168.401 69.27C169.391 69.27 169.895 68.064 169.931 67.938C169.913 67.974 169.481 68.64 168.761 68.64C168.131 68.64 167.861 68.1 167.861 67.38V61.44H169.931V60.9H167.861V59.01L165.251 61.44ZM182.065 64.662C180.841 65.094 179.743 65.94 179.743 67.2C179.743 68.478 180.553 69.27 181.795 69.27C182.515 69.27 183.127 68.91 183.541 68.64L184.873 67.758C184.873 68.712 184.873 69.27 185.503 69.27C186.133 69.27 187.393 67.74 187.393 67.74L185.773 68.37V63.24C185.773 61.71 185.125 60.63 183.163 60.63C182.083 60.63 180.049 61.62 180.049 62.736C180.049 63.258 180.355 63.492 180.697 63.492C181.039 63.492 181.345 63.294 181.345 62.736C181.345 62.484 181.309 62.304 181.309 62.16C181.309 61.71 181.885 61.17 182.983 61.17C183.973 61.17 184.873 61.638 184.873 63.24V63.69L182.065 64.662ZM183.757 67.92C183.235 68.262 182.785 68.604 182.083 68.604C181.183 68.604 180.697 67.884 180.697 67.11C180.697 66.12 181.147 65.508 182.713 64.95L184.873 64.194V67.182L183.757 67.92ZM191.348 61.8V68.19L189.908 69H193.688L192.248 68.19V63.06C193.058 62.16 193.742 61.602 194.102 61.602C194.696 61.602 194.606 62.16 195.236 62.16C195.668 62.16 195.938 61.854 195.938 61.476C195.938 60.936 195.578 60.63 194.948 60.63C194.444 60.63 194.012 60.828 193.454 61.368L192.248 62.52V60.63L189.908 61.35L191.348 61.8ZM202.603 61.116C204.097 61.116 205.717 62.43 205.717 65.418C205.717 67.542 204.439 68.784 203.107 68.784C201.631 68.784 199.993 67.47 199.993 64.482C199.993 62.322 201.289 61.116 202.603 61.116ZM199.003 64.95C199.003 67.38 200.353 69.27 202.855 69.27C205.177 69.27 206.707 67.38 206.707 64.95C206.707 62.52 205.357 60.63 202.855 60.63C200.533 60.63 199.003 62.52 199.003 64.95ZM216.067 61.8V67.056C215.527 67.722 214.447 68.586 213.367 68.586C212.197 68.586 211.657 67.74 211.657 66.3V60.63L209.317 61.35L210.757 61.8V66.57C210.757 68.55 211.747 69.27 213.007 69.27C214.267 69.27 215.437 68.28 216.067 67.596V69.27L218.407 68.55L216.967 68.1V60.63L214.627 61.35L216.067 61.8ZM222.64 61.8V68.19L221.2 69H224.98L223.54 68.19V62.844C224.08 62.178 225.16 61.314 226.24 61.314C227.41 61.314 227.95 62.16 227.95 63.6V68.19L226.51 69H230.29L228.85 68.19V63.33C228.85 61.35 227.86 60.63 226.6 60.63C225.34 60.63 224.17 61.62 223.54 62.304V60.63L221.2 61.35L222.64 61.8ZM239.105 57.3V62.052C239.051 61.926 238.385 60.63 236.585 60.63C234.965 60.63 233.075 61.89 233.075 64.95C233.075 68.1 234.785 69.27 236.405 69.27C238.295 69.27 239.105 67.56 239.105 67.56V69.27L241.445 68.55L240.005 68.1V56.13L237.665 56.85L239.105 57.3ZM239.105 66.66C239.105 66.66 238.475 68.73 236.675 68.73C235.307 68.73 234.065 67.56 234.065 64.95C234.065 62.43 235.307 61.17 236.675 61.17C238.205 61.17 239.105 62.34 239.105 63.69V66.66ZM250.717 61.35L253.057 60.63V68.19L254.497 69H250.717L252.157 68.19V61.8L250.717 61.35ZM251.527 57.93C251.527 58.434 251.923 58.83 252.427 58.83C252.931 58.83 253.327 58.434 253.327 57.93C253.327 57.426 252.931 57.03 252.427 57.03C251.923 57.03 251.527 57.426 251.527 57.93ZM257.115 61.44H258.825V67.38C258.825 68.73 259.365 69.27 260.265 69.27C261.255 69.27 261.759 68.064 261.795 67.938C261.777 67.974 261.345 68.64 260.625 68.64C259.995 68.64 259.725 68.1 259.725 67.38V61.44H261.795V60.9H259.725V59.01L257.115 61.44ZM265.49 68.19C265.49 68.694 265.886 69.09 266.39 69.09C266.894 69.09 267.29 68.694 267.29 68.19C267.29 67.686 266.894 67.29 266.39 67.29C265.886 67.29 265.49 67.686 265.49 68.19ZM4.266 85.3H0L1.8 86.29L5.706 92.086V96.01L3.906 97H8.406L6.606 96.01V91.978L10.44 86.29L12.24 85.3H8.316L9.756 86.2L6.282 91.33L2.826 86.2L4.266 85.3ZM19.698 92.14C19.698 90.16 18.888 88.63 16.602 88.63C14.46 88.63 12.678 90.322 12.678 92.95C12.678 95.38 14.118 97.27 16.458 97.27C19.158 97.27 19.698 94.66 19.698 94.66C19.698 94.66 18.888 96.46 16.908 96.46C15.108 96.46 13.578 95.344 13.578 92.662C13.578 92.482 13.578 92.32 13.596 92.14H19.698ZM16.566 89.062C17.826 89.062 18.708 89.89 18.708 90.79C18.708 91.51 18.078 91.6 17.178 91.6H13.686C14.082 89.872 15.432 89.062 16.566 89.062ZM22.5731 89.44H24.2831V95.38C24.2831 96.73 24.8231 97.27 25.7231 97.27C26.7131 97.27 27.2171 96.064 27.2531 95.938C27.2351 95.974 26.8031 96.64 26.0831 96.64C25.4531 96.64 25.1831 96.1 25.1831 95.38V89.44H27.2531V88.9H25.1831V87.01L22.5731 89.44ZM49.4845 88.9H45.9025L47.3425 89.62L45.5605 95.074L43.1305 88.63L40.6465 95.11L38.8825 89.62L40.3225 88.9H36.3445L37.9645 89.71L40.3945 97.27L42.9325 90.664L45.4345 97.27L47.8645 89.71L49.4845 88.9ZM58.5914 92.14C58.5914 90.16 57.7814 88.63 55.4954 88.63C53.3534 88.63 51.5714 90.322 51.5714 92.95C51.5714 95.38 53.0114 97.27 55.3514 97.27C58.0514 97.27 58.5914 94.66 58.5914 94.66C58.5914 94.66 57.7814 96.46 55.8014 96.46C54.0014 96.46 52.4714 95.344 52.4714 92.662C52.4714 92.482 52.4714 92.32 52.4894 92.14H58.5914ZM55.4594 89.062C56.7194 89.062 57.6014 89.89 57.6014 90.79C57.6014 91.51 56.9714 91.6 56.0714 91.6H52.5794C52.9754 89.872 54.3254 89.062 55.4594 89.062ZM73.9723 88.63L73.2523 89.35C73.2523 89.35 72.6223 88.63 71.3623 88.63C69.9223 88.63 68.7523 89.476 68.7523 90.79C68.7523 93.508 73.6123 92.752 73.6123 95.074C73.6123 96.28 72.5323 96.73 71.7223 96.73C71.1823 96.73 70.1923 96.568 69.6163 95.38L68.8423 93.76V97.27L69.4723 96.208C69.4903 96.262 70.0483 97.27 71.7223 97.27C73.1623 97.27 74.4223 96.406 74.4223 94.786C74.4223 91.816 69.4723 92.5 69.4723 90.52C69.4723 89.8 70.1743 89.17 71.3623 89.17C72.6223 89.17 73.1623 89.98 73.1623 89.98L73.9723 91.438V88.63ZM84.7688 88.63L84.0488 90.25C84.0488 90.25 83.3288 88.63 81.3488 88.63C79.7288 88.63 77.8388 89.89 77.8388 92.95C77.8388 96.1 79.5488 97.27 81.1688 97.27C83.0588 97.27 83.8688 95.56 83.8688 95.56V99.97L82.4288 100.78H86.2088L84.7688 99.97V88.63ZM83.8688 94.66C83.8688 94.66 83.2388 96.73 81.4388 96.73C80.0708 96.73 78.8288 95.56 78.8288 92.95C78.8288 90.43 80.0708 89.17 81.4388 89.17C82.9688 89.17 83.8688 90.34 83.8688 91.69V94.66ZM94.7609 89.8V95.056C94.2209 95.722 93.1409 96.586 92.0609 96.586C90.8909 96.586 90.3509 95.74 90.3509 94.3V88.63L88.0109 89.35L89.4509 89.8V94.57C89.4509 96.55 90.4409 97.27 91.7009 97.27C92.9609 97.27 94.1309 96.28 94.7609 95.596V97.27L97.1009 96.55L95.6609 96.1V88.63L93.3209 89.35L94.7609 89.8ZM106.914 92.14C106.914 90.16 106.104 88.63 103.818 88.63C101.676 88.63 99.8937 90.322 99.8937 92.95C99.8937 95.38 101.334 97.27 103.674 97.27C106.374 97.27 106.914 94.66 106.914 94.66C106.914 94.66 106.104 96.46 104.124 96.46C102.324 96.46 100.794 95.344 100.794 92.662C100.794 92.482 100.794 92.32 100.812 92.14H106.914ZM103.782 89.062C105.042 89.062 105.924 89.89 105.924 90.79C105.924 91.51 105.294 91.6 104.394 91.6H100.902C101.298 89.872 102.648 89.062 103.782 89.062ZM117.169 92.14C117.169 90.16 116.359 88.63 114.073 88.63C111.931 88.63 110.149 90.322 110.149 92.95C110.149 95.38 111.589 97.27 113.929 97.27C116.629 97.27 117.169 94.66 117.169 94.66C117.169 94.66 116.359 96.46 114.379 96.46C112.579 96.46 111.049 95.344 111.049 92.662C111.049 92.482 111.049 92.32 111.067 92.14H117.169ZM114.037 89.062C115.297 89.062 116.179 89.89 116.179 90.79C116.179 91.51 115.549 91.6 114.649 91.6H111.157C111.553 89.872 112.903 89.062 114.037 89.062ZM126.47 96.46H121.934L127.514 88.9H120.944V91.42L121.97 89.44H126.056L120.494 97H127.514V94.48L126.47 96.46ZM137.872 92.14C137.872 90.16 137.062 88.63 134.776 88.63C132.634 88.63 130.852 90.322 130.852 92.95C130.852 95.38 132.292 97.27 134.632 97.27C137.332 97.27 137.872 94.66 137.872 94.66C137.872 94.66 137.062 96.46 135.082 96.46C133.282 96.46 131.752 95.344 131.752 92.662C131.752 92.482 131.752 92.32 131.77 92.14H137.872ZM134.74 89.062C136 89.062 136.882 89.89 136.882 90.79C136.882 91.51 136.252 91.6 135.352 91.6H131.86C132.256 89.872 133.606 89.062 134.74 89.062ZM148.213 97.27L148.933 95.65C148.933 95.65 149.653 97.27 151.633 97.27C153.253 97.27 155.143 96.01 155.143 92.95C155.143 89.62 153.433 88.63 151.813 88.63C149.923 88.63 149.113 90.34 149.113 90.34V84.13L146.773 84.85L148.213 85.3V97.27ZM149.113 91.24C149.113 91.24 149.743 89.17 151.543 89.17C152.911 89.17 154.153 90.25 154.153 92.95C154.153 95.47 152.911 96.73 151.543 96.73C150.013 96.73 149.113 95.56 149.113 94.21V91.24ZM167.439 88.9H163.839L165.279 89.62L162.993 95.344L160.257 89.62L161.697 88.9H157.665L159.285 89.71L162.543 96.46L161.553 98.98C161.337 99.502 161.103 99.952 160.869 99.952C160.545 99.952 160.563 99.394 159.951 99.394C159.573 99.394 159.231 99.7 159.231 100.168C159.231 100.69 159.627 101.05 160.221 101.05C160.887 101.05 161.517 100.546 162.093 99.088L165.819 89.71L167.439 88.9ZM188.854 88.9H185.272L186.712 89.62L184.93 95.074L182.5 88.63L180.016 95.11L178.252 89.62L179.692 88.9H175.714L177.334 89.71L179.764 97.27L182.302 90.664L184.804 97.27L187.234 89.71L188.854 88.9ZM191.293 89.35L193.633 88.63V96.19L195.073 97H191.293L192.733 96.19V89.8L191.293 89.35ZM192.103 85.93C192.103 86.434 192.499 86.83 193.003 86.83C193.507 86.83 193.903 86.434 193.903 85.93C193.903 85.426 193.507 85.03 193.003 85.03C192.499 85.03 192.103 85.426 192.103 85.93ZM197.69 89.44H199.4V95.38C199.4 96.73 199.94 97.27 200.84 97.27C201.83 97.27 202.334 96.064 202.37 95.938C202.352 95.974 201.92 96.64 201.2 96.64C200.57 96.64 200.3 96.1 200.3 95.38V89.44H202.37V88.9H200.3V87.01L197.69 89.44ZM206.966 85.3V96.19L205.526 97H209.306L207.866 96.19V90.844C208.406 90.178 209.486 89.314 210.566 89.314C211.736 89.314 212.276 90.16 212.276 91.6V96.19L210.836 97H214.616L213.176 96.19V91.33C213.176 89.35 212.186 88.63 210.926 88.63C209.666 88.63 208.496 89.62 207.866 90.304V84.13L205.526 84.85L206.966 85.3ZM217.762 96.19C217.762 96.694 218.158 97.09 218.662 97.09H218.752L217.852 99.16C219.472 97.18 219.562 96.82 219.562 96.19C219.562 95.686 219.166 95.29 218.662 95.29C218.158 95.29 217.762 95.686 217.762 96.19ZM5.4 115.1C5.4 114.596 5.004 114.2 4.5 114.2H4.41L5.31 112.13C3.69 114.11 3.6 114.47 3.6 115.1C3.6 115.604 3.996 116 4.5 116C5.004 116 5.4 115.604 5.4 115.1ZM2.88 115.1C2.88 114.596 2.484 114.2 1.98 114.2H1.89L2.79 112.13C1.17 114.11 1.08 114.47 1.08 115.1C1.08 115.604 1.476 116 1.98 116C2.484 116 2.88 115.604 2.88 115.1ZM21.4263 113.3H16.9263L18.7263 114.29V118.61H11.6163V114.29L13.4163 113.3H8.91633L10.7163 114.29V124.01L8.91633 125H13.4163L11.6163 124.01V119.24H18.7263V124.01L16.9263 125H21.4263L19.6263 124.01V114.29L21.4263 113.3ZM28.08 117.116C29.574 117.116 31.194 118.43 31.194 121.418C31.194 123.542 29.916 124.784 28.584 124.784C27.108 124.784 25.47 123.47 25.47 120.482C25.47 118.322 26.766 117.116 28.08 117.116ZM24.48 120.95C24.48 123.38 25.83 125.27 28.332 125.27C30.654 125.27 32.184 123.38 32.184 120.95C32.184 118.52 30.834 116.63 28.332 116.63C26.01 116.63 24.48 118.52 24.48 120.95ZM47.7548 116.9H44.1728L45.6128 117.62L43.8308 123.074L41.4008 116.63L38.9168 123.11L37.1528 117.62L38.5928 116.9H34.6148L36.2348 117.71L38.6648 125.27L41.2028 118.664L43.7048 125.27L46.1348 117.71L47.7548 116.9ZM59.0811 120.662C57.8571 121.094 56.7591 121.94 56.7591 123.2C56.7591 124.478 57.5691 125.27 58.8111 125.27C59.5311 125.27 60.1431 124.91 60.5571 124.64L61.8891 123.758C61.8891 124.712 61.8891 125.27 62.5191 125.27C63.1491 125.27 64.4091 123.74 64.4091 123.74L62.7891 124.37V119.24C62.7891 117.71 62.1411 116.63 60.1791 116.63C59.0991 116.63 57.0651 117.62 57.0651 118.736C57.0651 119.258 57.3711 119.492 57.7131 119.492C58.0551 119.492 58.3611 119.294 58.3611 118.736C58.3611 118.484 58.3251 118.304 58.3251 118.16C58.3251 117.71 58.9011 117.17 59.9991 117.17C60.9891 117.17 61.8891 117.638 61.8891 119.24V119.69L59.0811 120.662ZM60.7731 123.92C60.2511 124.262 59.8011 124.604 59.0991 124.604C58.1991 124.604 57.7131 123.884 57.7131 123.11C57.7131 122.12 58.1631 121.508 59.7291 120.95L61.8891 120.194V123.182L60.7731 123.92ZM68.3641 117.8V124.19L66.9241 125H70.7041L69.2641 124.19V119.06C70.0741 118.16 70.7581 117.602 71.1181 117.602C71.7121 117.602 71.6221 118.16 72.2521 118.16C72.6841 118.16 72.9541 117.854 72.9541 117.476C72.9541 116.936 72.5941 116.63 71.9641 116.63C71.4601 116.63 71.0281 116.828 70.4701 117.368L69.2641 118.52V116.63L66.9241 117.35L68.3641 117.8ZM83.0391 120.14C83.0391 118.16 82.2291 116.63 79.9431 116.63C77.8011 116.63 76.0191 118.322 76.0191 120.95C76.0191 123.38 77.4591 125.27 79.7991 125.27C82.4991 125.27 83.0391 122.66 83.0391 122.66C83.0391 122.66 82.2291 124.46 80.2491 124.46C78.4491 124.46 76.9191 123.344 76.9191 120.662C76.9191 120.482 76.9191 120.32 76.9371 120.14H83.0391ZM79.9071 117.062C81.1671 117.062 82.0491 117.89 82.0491 118.79C82.0491 119.51 81.4191 119.6 80.5191 119.6H77.0271C77.4231 117.872 78.7731 117.062 79.9071 117.062ZM101.894 116.9H98.2939L99.7339 117.62L97.4479 123.344L94.7119 117.62L96.1519 116.9H92.1199L93.7399 117.71L96.9979 124.46L96.0079 126.98C95.7919 127.502 95.5579 127.952 95.3239 127.952C94.9999 127.952 95.0179 127.394 94.4059 127.394C94.0279 127.394 93.6859 127.7 93.6859 128.168C93.6859 128.69 94.0819 129.05 94.6759 129.05C95.3419 129.05 95.9719 128.546 96.5479 127.088L100.274 117.71L101.894 116.9ZM107.66 117.116C109.154 117.116 110.774 118.43 110.774 121.418C110.774 123.542 109.496 124.784 108.164 124.784C106.688 124.784 105.05 123.47 105.05 120.482C105.05 118.322 106.346 117.116 107.66 117.116ZM104.06 120.95C104.06 123.38 105.41 125.27 107.912 125.27C110.234 125.27 111.764 123.38 111.764 120.95C111.764 118.52 110.414 116.63 107.912 116.63C105.59 116.63 104.06 118.52 104.06 120.95ZM121.125 117.8V123.056C120.585 123.722 119.505 124.586 118.425 124.586C117.255 124.586 116.715 123.74 116.715 122.3V116.63L114.375 117.35L115.815 117.8V122.57C115.815 124.55 116.805 125.27 118.065 125.27C119.325 125.27 120.495 124.28 121.125 123.596V125.27L123.465 124.55L122.025 124.1V116.63L119.685 117.35L121.125 117.8ZM130.397 119.6C132.557 119.6 134.087 117.98 134.087 116C134.087 113.48 132.143 112.13 130.127 112.13C127.967 112.13 126.347 113.66 126.347 115.37C126.347 116.18 126.779 116.63 127.319 116.63C127.769 116.63 128.057 116.306 128.057 115.91C128.057 115.244 127.427 115.19 127.427 114.56C127.427 113.75 128.417 112.67 130.127 112.67C131.747 112.67 133.187 113.84 133.187 115.73C133.187 117.71 131.837 118.79 129.947 118.79H129.353L129.893 122.3L130.397 119.6ZM129.047 124.19C129.047 124.694 129.443 125.09 129.947 125.09C130.451 125.09 130.847 124.694 130.847 124.19C130.847 123.686 130.451 123.29 129.947 123.29C129.443 123.29 129.047 123.686 129.047 124.19ZM137.859 113.3C137.859 113.804 138.255 114.2 138.759 114.2H138.849L137.949 116.27C139.569 114.29 139.659 113.93 139.659 113.3C139.659 112.796 139.263 112.4 138.759 112.4C138.255 112.4 137.859 112.796 137.859 113.3ZM140.379 113.3C140.379 113.804 140.775 114.2 141.279 114.2H141.369L140.469 116.27C142.089 114.29 142.179 113.93 142.179 113.3C142.179 112.796 141.783 112.4 141.279 112.4C140.775 112.4 140.379 112.796 140.379 113.3ZM154.583 120.662C153.359 121.094 152.261 121.94 152.261 123.2C152.261 124.478 153.071 125.27 154.313 125.27C155.033 125.27 155.645 124.91 156.059 124.64L157.391 123.758C157.391 124.712 157.391 125.27 158.021 125.27C158.651 125.27 159.911 123.74 159.911 123.74L158.291 124.37V119.24C158.291 117.71 157.643 116.63 155.681 116.63C154.601 116.63 152.567 117.62 152.567 118.736C152.567 119.258 152.873 119.492 153.215 119.492C153.557 119.492 153.863 119.294 153.863 118.736C153.863 118.484 153.827 118.304 153.827 118.16C153.827 117.71 154.403 117.17 155.501 117.17C156.491 117.17 157.391 117.638 157.391 119.24V119.69L154.583 120.662ZM156.275 123.92C155.753 124.262 155.303 124.604 154.601 124.604C153.701 124.604 153.215 123.884 153.215 123.11C153.215 122.12 153.665 121.508 155.231 120.95L157.391 120.194V123.182L156.275 123.92ZM163.866 117.8V124.19L162.426 125H166.206L164.766 124.19V118.844C165.306 118.178 166.386 117.314 167.466 117.314C168.636 117.314 169.176 118.16 169.176 119.6V124.19L167.736 125H171.516L170.076 124.19V119.33C170.076 117.35 169.086 116.63 167.826 116.63C166.566 116.63 165.396 117.62 164.766 118.304V116.63L162.426 117.35L163.866 117.8ZM180.33 113.3V118.052C180.276 117.926 179.61 116.63 177.81 116.63C176.19 116.63 174.3 117.89 174.3 120.95C174.3 124.1 176.01 125.27 177.63 125.27C179.52 125.27 180.33 123.56 180.33 123.56V125.27L182.67 124.55L181.23 124.1V112.13L178.89 112.85L180.33 113.3ZM180.33 122.66C180.33 122.66 179.7 124.73 177.9 124.73C176.532 124.73 175.29 123.56 175.29 120.95C175.29 118.43 176.532 117.17 177.9 117.17C179.43 117.17 180.33 118.34 180.33 119.69V122.66ZM196.713 115.1C196.713 114.596 196.317 114.2 195.813 114.2H195.723L196.623 112.13C195.003 114.11 194.913 114.47 194.913 115.1C194.913 115.604 195.309 116 195.813 116C196.317 116 196.713 115.604 196.713 115.1ZM194.193 115.1C194.193 114.596 193.797 114.2 193.293 114.2H193.203L194.103 112.13C192.483 114.11 192.393 114.47 192.393 115.1C192.393 115.604 192.789 116 193.293 116C193.797 116 194.193 115.604 194.193 115.1ZM202.93 114.29L204.73 113.3H200.23L202.03 114.29V124.01L200.23 125H204.73L202.93 124.01V114.29ZM208.245 113.3C208.245 113.804 208.641 114.2 209.145 114.2H209.235L208.335 116.27C209.955 114.29 210.045 113.93 210.045 113.3C210.045 112.796 209.649 112.4 209.145 112.4C208.641 112.4 208.245 112.796 208.245 113.3ZM221.2 118.844C221.74 118.178 222.82 117.314 223.9 117.314C225.07 117.314 225.61 118.16 225.61 119.6V124.19L224.17 125H227.95L226.51 124.19V119.33C226.51 117.35 225.52 116.63 224.26 116.63C223 116.63 221.83 117.62 221.11 118.412C220.822 117.116 219.958 116.63 218.95 116.63C217.69 116.63 216.52 117.62 215.89 118.304V116.63L213.55 117.35L214.99 117.8V124.19L213.55 125H217.33L215.89 124.19V118.844C216.43 118.178 217.51 117.314 218.59 117.314C219.76 117.314 220.3 118.16 220.3 119.6V124.19L218.86 125H222.64L221.2 124.19V118.844ZM236.849 117.44H238.559V124.19L237.119 125H241.079L239.459 124.19V117.44H241.529V116.9H239.459V116.18C239.459 113.66 239.963 112.76 240.683 112.76C241.313 112.76 241.205 113.75 242.015 113.75C242.375 113.75 242.699 113.498 242.699 113.048C242.699 112.4 241.943 112.13 241.403 112.13C239.603 112.13 238.559 113.75 238.559 116.9H236.849V117.44ZM244.773 117.35L247.113 116.63V124.19L248.553 125H244.773L246.213 124.19V117.8L244.773 117.35ZM245.583 113.93C245.583 114.434 245.979 114.83 246.483 114.83C246.987 114.83 247.383 114.434 247.383 113.93C247.383 113.426 246.987 113.03 246.483 113.03C245.979 113.03 245.583 113.426 245.583 113.93ZM252.97 117.8V124.19L251.53 125H255.31L253.87 124.19V118.844C254.41 118.178 255.49 117.314 256.57 117.314C257.74 117.314 258.28 118.16 258.28 119.6V124.19L256.84 125H260.62L259.18 124.19V119.33C259.18 117.35 258.19 116.63 256.93 116.63C255.67 116.63 254.5 117.62 253.87 118.304V116.63L251.53 117.35L252.97 117.8ZM270.334 120.14C270.334 118.16 269.524 116.63 267.238 116.63C265.096 116.63 263.314 118.322 263.314 120.95C263.314 123.38 264.754 125.27 267.094 125.27C269.794 125.27 270.334 122.66 270.334 122.66C270.334 122.66 269.524 124.46 267.544 124.46C265.744 124.46 264.214 123.344 264.214 120.662C264.214 120.482 264.214 120.32 264.232 120.14H270.334ZM267.202 117.062C268.462 117.062 269.344 117.89 269.344 118.79C269.344 119.51 268.714 119.6 267.814 119.6H264.322C264.718 117.872 266.068 117.062 267.202 117.062ZM274.019 124.19C274.019 124.694 274.415 125.09 274.919 125.09C275.423 125.09 275.819 124.694 275.819 124.19C275.819 123.686 275.423 123.29 274.919 123.29C274.415 123.29 274.019 123.686 274.019 124.19ZM279.774 113.3C279.774 113.804 280.17 114.2 280.674 114.2H280.764L279.864 116.27C281.484 114.29 281.574 113.93 281.574 113.3C281.574 112.796 281.178 112.4 280.674 112.4C280.17 112.4 279.774 112.796 279.774 113.3ZM282.294 113.3C282.294 113.804 282.69 114.2 283.194 114.2H283.284L282.384 116.27C284.004 114.29 284.094 113.93 284.094 113.3C284.094 112.796 283.698 112.4 283.194 112.4C282.69 112.4 282.294 112.796 282.294 113.3ZM3.042 148.662C1.818 149.094 0.72 149.94 0.72 151.2C0.72 152.478 1.53 153.27 2.772 153.27C3.492 153.27 4.104 152.91 4.518 152.64L5.85 151.758C5.85 152.712 5.85 153.27 6.48 153.27C7.11 153.27 8.37 151.74 8.37 151.74L6.75 152.37V147.24C6.75 145.71 6.102 144.63 4.14 144.63C3.06 144.63 1.026 145.62 1.026 146.736C1.026 147.258 1.332 147.492 1.674 147.492C2.016 147.492 2.322 147.294 2.322 146.736C2.322 146.484 2.286 146.304 2.286 146.16C2.286 145.71 2.862 145.17 3.96 145.17C4.95 145.17 5.85 145.638 5.85 147.24V147.69L3.042 148.662ZM4.734 151.92C4.212 152.262 3.762 152.604 3.06 152.604C2.16 152.604 1.674 151.884 1.674 151.11C1.674 150.12 2.124 149.508 3.69 148.95L5.85 148.194V151.182L4.734 151.92ZM12.3251 145.8V152.19L10.8851 153H14.6651L13.2251 152.19V146.844C13.7651 146.178 14.8451 145.314 15.9251 145.314C17.0951 145.314 17.6351 146.16 17.6351 147.6V152.19L16.1951 153H19.9751L18.5351 152.19V147.33C18.5351 145.35 17.5451 144.63 16.2851 144.63C15.0251 144.63 13.8551 145.62 13.2251 146.304V144.63L10.8851 145.35L12.3251 145.8ZM28.7895 141.3V146.052C28.7355 145.926 28.0695 144.63 26.2695 144.63C24.6495 144.63 22.7595 145.89 22.7595 148.95C22.7595 152.1 24.4695 153.27 26.0895 153.27C27.9795 153.27 28.7895 151.56 28.7895 151.56V153.27L31.1295 152.55L29.6895 152.1V140.13L27.3495 140.85L28.7895 141.3ZM28.7895 150.66C28.7895 150.66 28.1595 152.73 26.3595 152.73C24.9915 152.73 23.7495 151.56 23.7495 148.95C23.7495 146.43 24.9915 145.17 26.3595 145.17C27.8895 145.17 28.7895 146.34 28.7895 147.69V150.66ZM42.8143 148.662C41.5903 149.094 40.4923 149.94 40.4923 151.2C40.4923 152.478 41.3023 153.27 42.5443 153.27C43.2643 153.27 43.8763 152.91 44.2903 152.64L45.6223 151.758C45.6223 152.712 45.6223 153.27 46.2523 153.27C46.8823 153.27 48.1423 151.74 48.1423 151.74L46.5223 152.37V147.24C46.5223 145.71 45.8743 144.63 43.9123 144.63C42.8323 144.63 40.7983 145.62 40.7983 146.736C40.7983 147.258 41.1043 147.492 41.4463 147.492C41.7883 147.492 42.0943 147.294 42.0943 146.736C42.0943 146.484 42.0583 146.304 42.0583 146.16C42.0583 145.71 42.6343 145.17 43.7323 145.17C44.7223 145.17 45.6223 145.638 45.6223 147.24V147.69L42.8143 148.662ZM44.5063 151.92C43.9843 152.262 43.5343 152.604 42.8323 152.604C41.9323 152.604 41.4463 151.884 41.4463 151.11C41.4463 150.12 41.8963 149.508 43.4623 148.95L45.6223 148.194V151.182L44.5063 151.92ZM56.7731 145.44H58.4831V151.38C58.4831 152.73 59.0231 153.27 59.9231 153.27C60.9131 153.27 61.4171 152.064 61.4531 151.938C61.4351 151.974 61.0031 152.64 60.2831 152.64C59.6531 152.64 59.3831 152.1 59.3831 151.38V145.44H61.4531V144.9H59.3831V143.01L56.7731 145.44ZM66.0487 141.3V152.19L64.6087 153H68.3887L66.9487 152.19V146.844C67.4887 146.178 68.5687 145.314 69.6487 145.314C70.8187 145.314 71.3587 146.16 71.3587 147.6V152.19L69.9187 153H73.6987L72.2587 152.19V147.33C72.2587 145.35 71.2687 144.63 70.0087 144.63C68.7487 144.63 67.5787 145.62 66.9487 146.304V140.13L64.6087 140.85L66.0487 141.3ZM79.9952 145.116C81.4892 145.116 83.1092 146.43 83.1092 149.418C83.1092 151.542 81.8312 152.784 80.4992 152.784C79.0232 152.784 77.3852 151.47 77.3852 148.482C77.3852 146.322 78.6812 145.116 79.9952 145.116ZM76.3952 148.95C76.3952 151.38 77.7452 153.27 80.2472 153.27C82.5692 153.27 84.0992 151.38 84.0992 148.95C84.0992 146.52 82.7492 144.63 80.2472 144.63C77.9252 144.63 76.3952 146.52 76.3952 148.95ZM93.4601 145.8V151.056C92.9201 151.722 91.8401 152.586 90.7601 152.586C89.5901 152.586 89.0501 151.74 89.0501 150.3V144.63L86.7101 145.35L88.1501 145.8V150.57C88.1501 152.55 89.1401 153.27 90.4001 153.27C91.6601 153.27 92.8301 152.28 93.4601 151.596V153.27L95.8001 152.55L94.3601 152.1V144.63L92.0201 145.35L93.4601 145.8ZM104.263 144.63L103.543 145.35C103.543 145.35 102.913 144.63 101.653 144.63C100.213 144.63 99.0429 145.476 99.0429 146.79C99.0429 149.508 103.903 148.752 103.903 151.074C103.903 152.28 102.823 152.73 102.013 152.73C101.473 152.73 100.483 152.568 99.9069 151.38L99.1329 149.76V153.27L99.7629 152.208C99.7809 152.262 100.339 153.27 102.013 153.27C103.453 153.27 104.713 152.406 104.713 150.786C104.713 147.816 99.7629 148.5 99.7629 146.52C99.7629 145.8 100.465 145.17 101.653 145.17C102.913 145.17 103.453 145.98 103.453 145.98L104.263 147.438V144.63ZM110.451 148.662C109.227 149.094 108.129 149.94 108.129 151.2C108.129 152.478 108.939 153.27 110.181 153.27C110.901 153.27 111.513 152.91 111.927 152.64L113.259 151.758C113.259 152.712 113.259 153.27 113.889 153.27C114.519 153.27 115.779 151.74 115.779 151.74L114.159 152.37V147.24C114.159 145.71 113.511 144.63 111.549 144.63C110.469 144.63 108.435 145.62 108.435 146.736C108.435 147.258 108.741 147.492 109.083 147.492C109.425 147.492 109.731 147.294 109.731 146.736C109.731 146.484 109.695 146.304 109.695 146.16C109.695 145.71 110.271 145.17 111.369 145.17C112.359 145.17 113.259 145.638 113.259 147.24V147.69L110.451 148.662ZM112.143 151.92C111.621 152.262 111.171 152.604 110.469 152.604C109.569 152.604 109.083 151.884 109.083 151.11C109.083 150.12 109.533 149.508 111.099 148.95L113.259 148.194V151.182L112.143 151.92ZM119.734 145.8V152.19L118.294 153H122.074L120.634 152.19V146.844C121.174 146.178 122.254 145.314 123.334 145.314C124.504 145.314 125.044 146.16 125.044 147.6V152.19L123.604 153H127.384L125.944 152.19V147.33C125.944 145.35 124.954 144.63 123.694 144.63C122.434 144.63 121.264 145.62 120.634 146.304V144.63L118.294 145.35L119.734 145.8ZM136.199 141.3V146.052C136.145 145.926 135.479 144.63 133.679 144.63C132.059 144.63 130.169 145.89 130.169 148.95C130.169 152.1 131.879 153.27 133.499 153.27C135.389 153.27 136.199 151.56 136.199 151.56V153.27L138.539 152.55L137.099 152.1V140.13L134.759 140.85L136.199 141.3ZM136.199 150.66C136.199 150.66 135.569 152.73 133.769 152.73C132.401 152.73 131.159 151.56 131.159 148.95C131.159 146.43 132.401 145.17 133.769 145.17C135.299 145.17 136.199 146.34 136.199 147.69V150.66ZM151.412 145.116C152.906 145.116 154.526 146.43 154.526 149.418C154.526 151.542 153.248 152.784 151.916 152.784C150.44 152.784 148.802 151.47 148.802 148.482C148.802 146.322 150.098 145.116 151.412 145.116ZM147.812 148.95C147.812 151.38 149.162 153.27 151.664 153.27C153.986 153.27 155.516 151.38 155.516 148.95C155.516 146.52 154.166 144.63 151.664 144.63C149.342 144.63 147.812 146.52 147.812 148.95ZM158.216 145.44H159.926V151.38C159.926 152.73 160.466 153.27 161.366 153.27C162.356 153.27 162.86 152.064 162.896 151.938C162.878 151.974 162.446 152.64 161.726 152.64C161.096 152.64 160.826 152.1 160.826 151.38V145.44H162.896V144.9H160.826V143.01L158.216 145.44ZM167.492 141.3V152.19L166.052 153H169.832L168.392 152.19V146.844C168.932 146.178 170.012 145.314 171.092 145.314C172.262 145.314 172.802 146.16 172.802 147.6V152.19L171.362 153H175.142L173.702 152.19V147.33C173.702 145.35 172.712 144.63 171.452 144.63C170.192 144.63 169.022 145.62 168.392 146.304V140.13L166.052 140.85L167.492 141.3ZM184.859 148.14C184.859 146.16 184.049 144.63 181.763 144.63C179.621 144.63 177.839 146.322 177.839 148.95C177.839 151.38 179.279 153.27 181.619 153.27C184.319 153.27 184.859 150.66 184.859 150.66C184.859 150.66 184.049 152.46 182.069 152.46C180.269 152.46 178.739 151.344 178.739 148.662C178.739 148.482 178.739 148.32 178.757 148.14H184.859ZM181.727 145.062C182.987 145.062 183.869 145.89 183.869 146.79C183.869 147.51 183.239 147.6 182.339 147.6H178.847C179.243 145.872 180.593 145.062 181.727 145.062ZM189.534 145.8V152.19L188.094 153H191.874L190.434 152.19V147.06C191.244 146.16 191.928 145.602 192.288 145.602C192.882 145.602 192.792 146.16 193.422 146.16C193.854 146.16 194.124 145.854 194.124 145.476C194.124 144.936 193.764 144.63 193.134 144.63C192.63 144.63 192.198 144.828 191.64 145.368L190.434 146.52V144.63L188.094 145.35L189.534 145.8ZM203.394 145.44H205.104V152.19L203.664 153H207.624L206.004 152.19V145.44H208.074V144.9H206.004V144.18C206.004 141.66 206.508 140.76 207.228 140.76C207.858 140.76 207.75 141.75 208.56 141.75C208.92 141.75 209.244 141.498 209.244 141.048C209.244 140.4 208.488 140.13 207.948 140.13C206.148 140.13 205.104 141.75 205.104 144.9H203.394V145.44ZM214.918 145.116C216.412 145.116 218.032 146.43 218.032 149.418C218.032 151.542 216.754 152.784 215.422 152.784C213.946 152.784 212.308 151.47 212.308 148.482C212.308 146.322 213.604 145.116 214.918 145.116ZM211.318 148.95C211.318 151.38 212.668 153.27 215.17 153.27C217.492 153.27 219.022 151.38 219.022 148.95C219.022 146.52 217.672 144.63 215.17 144.63C212.848 144.63 211.318 146.52 211.318 148.95ZM223.523 145.8V152.19L222.083 153H225.863L224.423 152.19V147.06C225.233 146.16 225.917 145.602 226.277 145.602C226.871 145.602 226.781 146.16 227.411 146.16C227.843 146.16 228.113 145.854 228.113 145.476C228.113 144.936 227.753 144.63 227.123 144.63C226.619 144.63 226.187 144.828 225.629 145.368L224.423 146.52V144.63L222.083 145.35L223.523 145.8ZM238.828 146.844C239.368 146.178 240.448 145.314 241.528 145.314C242.698 145.314 243.238 146.16 243.238 147.6V152.19L241.798 153H245.578L244.138 152.19V147.33C244.138 145.35 243.148 144.63 241.888 144.63C240.628 144.63 239.458 145.62 238.738 146.412C238.45 145.116 237.586 144.63 236.578 144.63C235.318 144.63 234.148 145.62 233.518 146.304V144.63L231.178 145.35L232.618 145.8V152.19L231.178 153H234.958L233.518 152.19V146.844C234.058 146.178 235.138 145.314 236.218 145.314C237.388 145.314 237.928 146.16 237.928 147.6V152.19L236.488 153H240.268L238.828 152.19V146.844ZM253.941 144.63L253.221 145.35C253.221 145.35 252.591 144.63 251.331 144.63C249.891 144.63 248.721 145.476 248.721 146.79C248.721 149.508 253.581 148.752 253.581 151.074C253.581 152.28 252.501 152.73 251.691 152.73C251.151 152.73 250.161 152.568 249.585 151.38L248.811 149.76V153.27L249.441 152.208C249.459 152.262 250.017 153.27 251.691 153.27C253.131 153.27 254.391 152.406 254.391 150.786C254.391 147.816 249.441 148.5 249.441 146.52C249.441 145.8 250.143 145.17 251.331 145.17C252.591 145.17 253.131 145.98 253.131 145.98L253.941 147.438V144.63ZM267.793 145.116C269.287 145.116 270.907 146.43 270.907 149.418C270.907 151.542 269.629 152.784 268.297 152.784C266.821 152.784 265.183 151.47 265.183 148.482C265.183 146.322 266.479 145.116 267.793 145.116ZM264.193 148.95C264.193 151.38 265.543 153.27 268.045 153.27C270.367 153.27 271.897 151.38 271.897 148.95C271.897 146.52 270.547 144.63 268.045 144.63C265.723 144.63 264.193 146.52 264.193 148.95ZM274.688 145.44H276.398V152.19L274.958 153H278.918L277.298 152.19V145.44H279.368V144.9H277.298V144.18C277.298 141.66 277.802 140.76 278.522 140.76C279.152 140.76 279.044 141.75 279.854 141.75C280.214 141.75 280.538 141.498 280.538 141.048C280.538 140.4 279.782 140.13 279.242 140.13C277.442 140.13 276.398 141.75 276.398 144.9H274.688V145.44ZM288.727 145.44H290.437V151.38C290.437 152.73 290.977 153.27 291.877 153.27C292.867 153.27 293.371 152.064 293.407 151.938C293.389 151.974 292.957 152.64 292.237 152.64C291.607 152.64 291.337 152.1 291.337 151.38V145.44H293.407V144.9H291.337V143.01L288.727 145.44ZM298.093 145.8V152.19L296.653 153H300.433L298.993 152.19V147.06C299.803 146.16 300.487 145.602 300.847 145.602C301.441 145.602 301.351 146.16 301.981 146.16C302.413 146.16 302.683 145.854 302.683 145.476C302.683 144.936 302.323 144.63 301.693 144.63C301.189 144.63 300.757 144.828 300.199 145.368L298.993 146.52V144.63L296.653 145.35L298.093 145.8ZM305.748 145.35L308.088 144.63V152.19L309.528 153H305.748L307.188 152.19V145.8L305.748 145.35ZM306.558 141.93C306.558 142.434 306.954 142.83 307.458 142.83C307.962 142.83 308.358 142.434 308.358 141.93C308.358 141.426 307.962 141.03 307.458 141.03C306.954 141.03 306.558 141.426 306.558 141.93ZM313.495 145.71L316.735 153.27L319.975 145.71L321.595 144.9H317.995L319.435 145.62L316.915 151.434L314.431 145.62L315.871 144.9H311.875L313.495 145.71ZM324.025 145.35L326.365 144.63V152.19L327.805 153H324.025L325.465 152.19V145.8L324.025 145.35ZM324.835 141.93C324.835 142.434 325.231 142.83 325.735 142.83C326.239 142.83 326.635 142.434 326.635 141.93C326.635 141.426 326.239 141.03 325.735 141.03C325.231 141.03 324.835 141.426 324.835 141.93ZM333.194 148.662C331.97 149.094 330.872 149.94 330.872 151.2C330.872 152.478 331.682 153.27 332.924 153.27C333.644 153.27 334.256 152.91 334.67 152.64L336.002 151.758C336.002 152.712 336.002 153.27 336.632 153.27C337.262 153.27 338.522 151.74 338.522 151.74L336.902 152.37V147.24C336.902 145.71 336.254 144.63 334.292 144.63C333.212 144.63 331.178 145.62 331.178 146.736C331.178 147.258 331.484 147.492 331.826 147.492C332.168 147.492 332.474 147.294 332.474 146.736C332.474 146.484 332.438 146.304 332.438 146.16C332.438 145.71 333.014 145.17 334.112 145.17C335.102 145.17 336.002 145.638 336.002 147.24V147.69L333.194 148.662ZM334.886 151.92C334.364 152.262 333.914 152.604 333.212 152.604C332.312 152.604 331.826 151.884 331.826 151.11C331.826 150.12 332.276 149.508 333.842 148.95L336.002 148.194V151.182L334.886 151.92ZM342.387 141.3V152.19L340.947 153H344.727L343.287 152.19V140.13L340.947 140.85L342.387 141.3ZM358.053 145.062C359.583 145.062 359.745 145.98 359.745 146.16C359.745 146.448 359.583 146.502 359.583 146.898C359.583 147.294 359.835 147.564 360.267 147.564C360.717 147.564 360.951 147.204 360.951 146.736C360.951 145.746 359.889 144.63 358.089 144.63C355.947 144.63 354.165 146.34 354.165 148.95C354.165 151.38 355.605 153.27 357.945 153.27C360.645 153.27 361.185 150.66 361.185 150.66C361.185 150.66 360.375 152.46 358.395 152.46C356.595 152.46 355.065 151.344 355.065 148.662C355.065 146.196 356.793 145.062 358.053 145.062ZM365.594 141.3V152.19L364.154 153H367.934L366.494 152.19V146.844C367.034 146.178 368.114 145.314 369.194 145.314C370.364 145.314 370.904 146.16 370.904 147.6V152.19L369.464 153H373.244L371.804 152.19V147.33C371.804 145.35 370.814 144.63 369.554 144.63C368.294 144.63 367.124 145.62 366.494 146.304V140.13L364.154 140.85L365.594 141.3ZM378.353 148.662C377.129 149.094 376.031 149.94 376.031 151.2C376.031 152.478 376.841 153.27 378.083 153.27C378.803 153.27 379.415 152.91 379.829 152.64L381.161 151.758C381.161 152.712 381.161 153.27 381.791 153.27C382.421 153.27 383.681 151.74 383.681 151.74L382.061 152.37V147.24C382.061 145.71 381.413 144.63 379.451 144.63C378.371 144.63 376.337 145.62 376.337 146.736C376.337 147.258 376.643 147.492 376.985 147.492C377.327 147.492 377.633 147.294 377.633 146.736C377.633 146.484 377.597 146.304 377.597 146.16C377.597 145.71 378.173 145.17 379.271 145.17C380.261 145.17 381.161 145.638 381.161 147.24V147.69L378.353 148.662ZM380.045 151.92C379.523 152.262 379.073 152.604 378.371 152.604C377.471 152.604 376.985 151.884 376.985 151.11C376.985 150.12 377.435 149.508 379.001 148.95L381.161 148.194V151.182L380.045 151.92ZM385.836 145.44H387.546V151.38C387.546 152.73 388.086 153.27 388.986 153.27C389.976 153.27 390.48 152.064 390.516 151.938C390.498 151.974 390.066 152.64 389.346 152.64C388.716 152.64 388.446 152.1 388.446 151.38V145.44H390.516V144.9H388.446V143.01L385.836 145.44ZM393.401 145.44H395.111V151.38C395.111 152.73 395.651 153.27 396.551 153.27C397.541 153.27 398.045 152.064 398.081 151.938C398.063 151.974 397.631 152.64 396.911 152.64C396.281 152.64 396.011 152.1 396.011 151.38V145.44H398.081V144.9H396.011V143.01L393.401 145.44ZM408.347 148.14C408.347 146.16 407.537 144.63 405.251 144.63C403.109 144.63 401.327 146.322 401.327 148.95C401.327 151.38 402.767 153.27 405.107 153.27C407.807 153.27 408.347 150.66 408.347 150.66C408.347 150.66 407.537 152.46 405.557 152.46C403.757 152.46 402.227 151.344 402.227 148.662C402.227 148.482 402.227 148.32 402.245 148.14H408.347ZM405.215 145.062C406.475 145.062 407.357 145.89 407.357 146.79C407.357 147.51 406.727 147.6 405.827 147.6H402.335C402.731 145.872 404.081 145.062 405.215 145.062ZM413.022 145.8V152.19L411.582 153H415.362L413.922 152.19V147.06C414.732 146.16 415.416 145.602 415.776 145.602C416.37 145.602 416.28 146.16 416.91 146.16C417.342 146.16 417.612 145.854 417.612 145.476C417.612 144.936 417.252 144.63 416.622 144.63C416.118 144.63 415.686 144.828 415.128 145.368L413.922 146.52V144.63L411.582 145.35L413.022 145.8ZM419.51 152.19C419.51 152.694 419.906 153.09 420.41 153.09C420.914 153.09 421.31 152.694 421.31 152.19C421.31 151.686 420.914 151.29 420.41 151.29C419.906 151.29 419.51 151.686 419.51 152.19ZM1.89 170.29L5.238 181.27L8.586 171.388L12.042 181.27L15.39 170.29L17.28 169.3H13.122L14.742 170.2L12.132 178.822L8.712 169.03L5.418 178.768L2.808 170.2L4.428 169.3H0L1.89 170.29ZM25.2879 176.14C25.2879 174.16 24.4779 172.63 22.1919 172.63C20.0499 172.63 18.2679 174.322 18.2679 176.95C18.2679 179.38 19.7079 181.27 22.0479 181.27C24.7479 181.27 25.2879 178.66 25.2879 178.66C25.2879 178.66 24.4779 180.46 22.4979 180.46C20.6979 180.46 19.1679 179.344 19.1679 176.662C19.1679 176.482 19.1679 176.32 19.1859 176.14H25.2879ZM22.1559 173.062C23.4159 173.062 24.2979 173.89 24.2979 174.79C24.2979 175.51 23.6679 175.6 22.7679 175.6H19.2759C19.6719 173.872 21.0219 173.062 22.1559 173.062ZM34.6388 173.44H36.3488V179.38C36.3488 180.73 36.8888 181.27 37.7888 181.27C38.7788 181.27 39.2828 180.064 39.3188 179.938C39.3008 179.974 38.8688 180.64 38.1488 180.64C37.5188 180.64 37.2488 180.1 37.2488 179.38V173.44H39.3188V172.9H37.2488V171.01L34.6388 173.44ZM44.9764 176.662C43.7524 177.094 42.6544 177.94 42.6544 179.2C42.6544 180.478 43.4644 181.27 44.7064 181.27C45.4264 181.27 46.0384 180.91 46.4524 180.64L47.7844 179.758C47.7844 180.712 47.7844 181.27 48.4144 181.27C49.0444 181.27 50.3044 179.74 50.3044 179.74L48.6844 180.37V175.24C48.6844 173.71 48.0364 172.63 46.0744 172.63C44.9944 172.63 42.9604 173.62 42.9604 174.736C42.9604 175.258 43.2664 175.492 43.6084 175.492C43.9504 175.492 44.2564 175.294 44.2564 174.736C44.2564 174.484 44.2204 174.304 44.2204 174.16C44.2204 173.71 44.7964 173.17 45.8944 173.17C46.8844 173.17 47.7844 173.638 47.7844 175.24V175.69L44.9764 176.662ZM46.6684 179.92C46.1464 180.262 45.6964 180.604 44.9944 180.604C44.0944 180.604 43.6084 179.884 43.6084 179.11C43.6084 178.12 44.0584 177.508 45.6244 176.95L47.7844 176.194V179.182L46.6684 179.92ZM54.1695 169.3V180.19L52.7295 181H56.5095L55.0695 180.19V168.13L52.7295 168.85L54.1695 169.3ZM61.721 168.13L59.381 168.85L60.821 169.3V180.19L59.381 181H63.161L61.721 180.19V168.13ZM66.185 181H67.931L66.653 180.19L62.837 176.446L65.735 173.71L67.751 172.9H63.971L65.051 173.62L61.811 176.698L66.185 181ZM79.5104 176.662C78.2864 177.094 77.1884 177.94 77.1884 179.2C77.1884 180.478 77.9984 181.27 79.2404 181.27C79.9604 181.27 80.5724 180.91 80.9864 180.64L82.3184 179.758C82.3184 180.712 82.3184 181.27 82.9484 181.27C83.5784 181.27 84.8384 179.74 84.8384 179.74L83.2184 180.37V175.24C83.2184 173.71 82.5704 172.63 80.6084 172.63C79.5284 172.63 77.4944 173.62 77.4944 174.736C77.4944 175.258 77.8004 175.492 78.1424 175.492C78.4844 175.492 78.7904 175.294 78.7904 174.736C78.7904 174.484 78.7544 174.304 78.7544 174.16C78.7544 173.71 79.3304 173.17 80.4284 173.17C81.4184 173.17 82.3184 173.638 82.3184 175.24V175.69L79.5104 176.662ZM81.2024 179.92C80.6804 180.262 80.2304 180.604 79.5284 180.604C78.6284 180.604 78.1424 179.884 78.1424 179.11C78.1424 178.12 78.5924 177.508 80.1584 176.95L82.3184 176.194V179.182L81.2024 179.92ZM87.9834 181.27L88.7034 179.65C88.7034 179.65 89.4234 181.27 91.4034 181.27C93.0234 181.27 94.9134 180.01 94.9134 176.95C94.9134 173.62 93.2034 172.63 91.5834 172.63C89.6934 172.63 88.8834 174.34 88.8834 174.34V168.13L86.5434 168.85L87.9834 169.3V181.27ZM88.8834 175.24C88.8834 175.24 89.5134 173.17 91.3134 173.17C92.6814 173.17 93.9234 174.25 93.9234 176.95C93.9234 179.47 92.6814 180.73 91.3134 180.73C89.7834 180.73 88.8834 179.56 88.8834 178.21V175.24ZM101.666 173.116C103.16 173.116 104.78 174.43 104.78 177.418C104.78 179.542 103.502 180.784 102.17 180.784C100.694 180.784 99.0555 179.47 99.0555 176.482C99.0555 174.322 100.352 173.116 101.666 173.116ZM98.0655 176.95C98.0655 179.38 99.4155 181.27 101.918 181.27C104.24 181.27 105.77 179.38 105.77 176.95C105.77 174.52 104.42 172.63 101.918 172.63C99.5955 172.63 98.0655 174.52 98.0655 176.95ZM115.13 173.8V179.056C114.59 179.722 113.51 180.586 112.43 180.586C111.26 180.586 110.72 179.74 110.72 178.3V172.63L108.38 173.35L109.82 173.8V178.57C109.82 180.55 110.81 181.27 112.07 181.27C113.33 181.27 114.5 180.28 115.13 179.596V181.27L117.47 180.55L116.03 180.1V172.63L113.69 173.35L115.13 173.8ZM119.903 173.44H121.613V179.38C121.613 180.73 122.153 181.27 123.053 181.27C124.043 181.27 124.547 180.064 124.583 179.938C124.565 179.974 124.133 180.64 123.413 180.64C122.783 180.64 122.513 180.1 122.513 179.38V173.44H124.583V172.9H122.513V171.01L119.903 173.44ZM141.325 176.14C141.325 174.16 140.515 172.63 138.229 172.63C136.087 172.63 134.305 174.322 134.305 176.95C134.305 179.38 135.745 181.27 138.085 181.27C140.785 181.27 141.325 178.66 141.325 178.66C141.325 178.66 140.515 180.46 138.535 180.46C136.735 180.46 135.205 179.344 135.205 176.662C135.205 176.482 135.205 176.32 135.223 176.14H141.325ZM138.193 173.062C139.453 173.062 140.335 173.89 140.335 174.79C140.335 175.51 139.705 175.6 138.805 175.6H135.313C135.709 173.872 137.059 173.062 138.193 173.062ZM145.55 173.71L148.79 181.27L152.03 173.71L153.65 172.9H150.05L151.49 173.62L148.97 179.434L146.486 173.62L147.926 172.9H143.93L145.55 173.71ZM162.749 176.14C162.749 174.16 161.939 172.63 159.653 172.63C157.511 172.63 155.729 174.322 155.729 176.95C155.729 179.38 157.169 181.27 159.509 181.27C162.209 181.27 162.749 178.66 162.749 178.66C162.749 178.66 161.939 180.46 159.959 180.46C158.159 180.46 156.629 179.344 156.629 176.662C156.629 176.482 156.629 176.32 156.647 176.14H162.749ZM159.617 173.062C160.877 173.062 161.759 173.89 161.759 174.79C161.759 175.51 161.129 175.6 160.229 175.6H156.737C157.133 173.872 158.483 173.062 159.617 173.062ZM167.424 173.8V180.19L165.984 181H169.764L168.324 180.19V175.06C169.134 174.16 169.818 173.602 170.178 173.602C170.772 173.602 170.682 174.16 171.312 174.16C171.744 174.16 172.014 173.854 172.014 173.476C172.014 172.936 171.654 172.63 171.024 172.63C170.52 172.63 170.088 172.828 169.53 173.368L168.324 174.52V172.63L165.984 173.35L167.424 173.8ZM184.223 172.9H180.623L182.063 173.62L179.777 179.344L177.041 173.62L178.481 172.9H174.449L176.069 173.71L179.327 180.46L178.337 182.98C178.121 183.502 177.887 183.952 177.653 183.952C177.329 183.952 177.347 183.394 176.735 183.394C176.357 183.394 176.015 183.7 176.015 184.168C176.015 184.69 176.411 185.05 177.005 185.05C177.671 185.05 178.301 184.546 178.877 183.088L182.603 173.71L184.223 172.9ZM186.292 173.44H188.002V179.38C188.002 180.73 188.542 181.27 189.442 181.27C190.432 181.27 190.936 180.064 190.972 179.938C190.954 179.974 190.522 180.64 189.802 180.64C189.172 180.64 188.902 180.1 188.902 179.38V173.44H190.972V172.9H188.902V171.01L186.292 173.44ZM195.568 169.3V180.19L194.128 181H197.908L196.468 180.19V174.844C197.008 174.178 198.088 173.314 199.168 173.314C200.338 173.314 200.878 174.16 200.878 175.6V180.19L199.438 181H203.218L201.778 180.19V175.33C201.778 173.35 200.788 172.63 199.528 172.63C198.268 172.63 197.098 173.62 196.468 174.304V168.13L194.128 168.85L195.568 169.3ZM205.914 173.35L208.254 172.63V180.19L209.694 181H205.914L207.354 180.19V173.8L205.914 173.35ZM206.724 169.93C206.724 170.434 207.12 170.83 207.624 170.83C208.128 170.83 208.524 170.434 208.524 169.93C208.524 169.426 208.128 169.03 207.624 169.03C207.12 169.03 206.724 169.426 206.724 169.93ZM214.111 173.8V180.19L212.671 181H216.451L215.011 180.19V174.844C215.551 174.178 216.631 173.314 217.711 173.314C218.881 173.314 219.421 174.16 219.421 175.6V180.19L217.981 181H221.761L220.321 180.19V175.33C220.321 173.35 219.331 172.63 218.071 172.63C216.811 172.63 215.641 173.62 215.011 174.304V172.63L212.671 173.35L214.111 173.8ZM224.996 175.51C224.996 176.698 225.626 177.724 226.76 178.156C225.986 178.3 225.086 178.696 225.086 179.74C225.086 180.352 225.554 180.82 226.04 180.964C225.428 181.072 224.276 181.36 224.276 182.62C224.276 183.7 225.266 185.05 228.056 185.05C230.936 185.05 232.466 183.25 232.466 181.9C232.466 180.55 231.566 180.1 230.666 180.1H226.616C226.346 180.1 225.896 180.01 225.896 179.47C225.896 178.534 227.408 178.39 228.056 178.39C229.946 178.39 231.116 177.094 231.116 175.51C231.116 174.178 230.306 173.44 230.306 173.44C230.306 173.44 230.936 173.62 231.386 173.62C232.106 173.62 232.376 173.206 232.376 172.72C232.376 172.36 232.124 172 231.62 172C231.188 172 230.936 172.324 230.936 172.702C230.936 172.936 231.116 173.17 230.666 173.17C229.946 173.17 229.316 172.63 228.056 172.63C226.166 172.63 224.996 173.926 224.996 175.51ZM230.666 181C231.296 181 231.836 181.27 231.836 181.99C231.836 182.8 230.846 184.24 228.236 184.24C225.986 184.24 225.176 183.25 225.176 182.35C225.176 181.108 226.922 181.018 226.958 181H230.666ZM225.986 175.51C225.986 173.98 226.922 173.08 228.056 173.08C229.19 173.08 230.126 173.98 230.126 175.51C230.126 177.04 229.19 177.94 228.056 177.94C226.922 177.94 225.986 177.04 225.986 175.51ZM248.927 176.14C248.927 174.16 248.117 172.63 245.831 172.63C243.689 172.63 241.907 174.322 241.907 176.95C241.907 179.38 243.347 181.27 245.687 181.27C248.387 181.27 248.927 178.66 248.927 178.66C248.927 178.66 248.117 180.46 246.137 180.46C244.337 180.46 242.807 179.344 242.807 176.662C242.807 176.482 242.807 176.32 242.825 176.14H248.927ZM245.795 173.062C247.055 173.062 247.937 173.89 247.937 174.79C247.937 175.51 247.307 175.6 246.407 175.6H242.915C243.311 173.872 244.661 173.062 245.795 173.062ZM253.512 169.3V180.19L252.072 181H255.852L254.412 180.19V168.13L252.072 168.85L253.512 169.3ZM264.484 172.63L263.764 173.35C263.764 173.35 263.134 172.63 261.874 172.63C260.434 172.63 259.264 173.476 259.264 174.79C259.264 177.508 264.124 176.752 264.124 179.074C264.124 180.28 263.044 180.73 262.234 180.73C261.694 180.73 260.704 180.568 260.128 179.38L259.354 177.76V181.27L259.984 180.208C260.002 180.262 260.56 181.27 262.234 181.27C263.674 181.27 264.934 180.406 264.934 178.786C264.934 175.816 259.984 176.5 259.984 174.52C259.984 173.8 260.686 173.17 261.874 173.17C263.134 173.17 263.674 173.98 263.674 173.98L264.484 175.438V172.63ZM275.28 176.14C275.28 174.16 274.47 172.63 272.184 172.63C270.042 172.63 268.26 174.322 268.26 176.95C268.26 179.38 269.7 181.27 272.04 181.27C274.74 181.27 275.28 178.66 275.28 178.66C275.28 178.66 274.47 180.46 272.49 180.46C270.69 180.46 269.16 179.344 269.16 176.662C269.16 176.482 269.16 176.32 269.178 176.14H275.28ZM272.148 173.062C273.408 173.062 274.29 173.89 274.29 174.79C274.29 175.51 273.66 175.6 272.76 175.6H269.268C269.664 173.872 271.014 173.062 272.148 173.062ZM285.621 176.68H295.161V176.05H285.621V176.68ZM7.65 204.14C7.65 202.16 6.84 200.63 4.554 200.63C2.412 200.63 0.63 202.322 0.63 204.95C0.63 207.38 2.07 209.27 4.41 209.27C7.11 209.27 7.65 206.66 7.65 206.66C7.65 206.66 6.84 208.46 4.86 208.46C3.06 208.46 1.53 207.344 1.53 204.662C1.53 204.482 1.53 204.32 1.548 204.14H7.65ZM4.518 201.062C5.778 201.062 6.66 201.89 6.66 202.79C6.66 203.51 6.03 203.6 5.13 203.6H1.638C2.034 201.872 3.384 201.062 4.518 201.062ZM13.1711 201.62L14.4311 200.9H10.4351L12.1451 201.71L14.4851 204.77L11.9651 208.19L10.2551 209H13.8371L12.5771 208.28L14.8271 205.22L17.1851 208.28L15.9251 209H19.9031L18.1931 208.19L15.3491 204.482L17.3831 201.71L19.1651 200.9H15.5291L16.7891 201.62L15.0071 204.032L13.1711 201.62ZM25.9598 201.062C27.4898 201.062 27.6518 201.98 27.6518 202.16C27.6518 202.448 27.4898 202.502 27.4898 202.898C27.4898 203.294 27.7418 203.564 28.1738 203.564C28.6238 203.564 28.8578 203.204 28.8578 202.736C28.8578 201.746 27.7958 200.63 25.9958 200.63C23.8538 200.63 22.0718 202.34 22.0718 204.95C22.0718 207.38 23.5118 209.27 25.8518 209.27C28.5518 209.27 29.0918 206.66 29.0918 206.66C29.0918 206.66 28.2818 208.46 26.3018 208.46C24.5018 208.46 22.9718 207.344 22.9718 204.662C22.9718 202.196 24.6998 201.062 25.9598 201.062ZM39.1711 204.14C39.1711 202.16 38.3611 200.63 36.0751 200.63C33.9331 200.63 32.1511 202.322 32.1511 204.95C32.1511 207.38 33.5911 209.27 35.9311 209.27C38.6311 209.27 39.1711 206.66 39.1711 206.66C39.1711 206.66 38.3611 208.46 36.3811 208.46C34.5811 208.46 33.0511 207.344 33.0511 204.662C33.0511 204.482 33.0511 204.32 33.0691 204.14H39.1711ZM36.0391 201.062C37.2991 201.062 38.1811 201.89 38.1811 202.79C38.1811 203.51 37.5511 203.6 36.6511 203.6H33.1591C33.5551 201.872 34.9051 201.062 36.0391 201.062ZM43.5762 211.97L42.1362 212.78H45.9162L44.4762 211.97V207.848C44.5302 207.974 45.1962 209.27 46.9962 209.27C48.6162 209.27 50.5062 208.01 50.5062 204.95C50.5062 201.62 48.7962 200.63 47.1762 200.63C45.2862 200.63 44.4762 202.34 44.4762 202.34V200.63L42.1362 201.35L43.5762 201.8V211.97ZM44.4762 203.24C44.4762 203.24 45.1062 201.17 46.9062 201.17C48.2742 201.17 49.5162 202.25 49.5162 204.95C49.5162 207.47 48.2742 208.73 46.9062 208.73C45.3762 208.73 44.4762 207.56 44.4762 206.21V203.24ZM53.3032 201.44H55.0132V207.38C55.0132 208.73 55.5532 209.27 56.4532 209.27C57.4432 209.27 57.9472 208.064 57.9832 207.938C57.9652 207.974 57.5332 208.64 56.8132 208.64C56.1832 208.64 55.9132 208.1 55.9132 207.38V201.44H57.9832V200.9H55.9132V199.01L53.3032 201.44ZM67.3446 201.44H69.0546V207.38C69.0546 208.73 69.5946 209.27 70.4946 209.27C71.4846 209.27 71.9886 208.064 72.0246 207.938C72.0066 207.974 71.5746 208.64 70.8546 208.64C70.2246 208.64 69.9546 208.1 69.9546 207.38V201.44H72.0246V200.9H69.9546V199.01L67.3446 201.44ZM76.6202 197.3V208.19L75.1802 209H78.9602L77.5202 208.19V202.844C78.0602 202.178 79.1402 201.314 80.2202 201.314C81.3902 201.314 81.9302 202.16 81.9302 203.6V208.19L80.4902 209H84.2702L82.8302 208.19V203.33C82.8302 201.35 81.8402 200.63 80.5802 200.63C79.3202 200.63 78.1502 201.62 77.5202 202.304V196.13L75.1802 196.85L76.6202 197.3ZM93.9867 204.14C93.9867 202.16 93.1767 200.63 90.8907 200.63C88.7487 200.63 86.9667 202.322 86.9667 204.95C86.9667 207.38 88.4067 209.27 90.7467 209.27C93.4467 209.27 93.9867 206.66 93.9867 206.66C93.9867 206.66 93.1767 208.46 91.1967 208.46C89.3967 208.46 87.8667 207.344 87.8667 204.662C87.8667 204.482 87.8667 204.32 87.8847 204.14H93.9867ZM90.8547 201.062C92.1147 201.062 92.9967 201.89 92.9967 202.79C92.9967 203.51 92.3667 203.6 91.4667 203.6H87.9747C88.3707 201.872 89.7207 201.062 90.8547 201.062ZM106.398 198.29L107.028 197.93H111.708L112.968 200.54V197.3H103.698L105.498 198.29V208.01L103.698 209H113.238V205.76L111.978 208.37H107.028L106.398 208.01V203.24H109.368L110.448 204.95V200.9L109.368 202.61H106.398V198.29ZM118.273 197.3V208.19L116.833 209H120.613L119.173 208.19V196.13L116.833 196.85L118.273 197.3ZM130.595 204.14C130.595 202.16 129.785 200.63 127.499 200.63C125.357 200.63 123.575 202.322 123.575 204.95C123.575 207.38 125.015 209.27 127.355 209.27C130.055 209.27 130.595 206.66 130.595 206.66C130.595 206.66 129.785 208.46 127.805 208.46C126.005 208.46 124.475 207.344 124.475 204.662C124.475 204.482 124.475 204.32 124.493 204.14H130.595ZM127.463 201.062C128.723 201.062 129.605 201.89 129.605 202.79C129.605 203.51 128.975 203.6 128.075 203.6H124.583C124.979 201.872 126.329 201.062 127.463 201.062ZM135 211.97L133.56 212.78H137.34L135.9 211.97V207.848C135.954 207.974 136.62 209.27 138.42 209.27C140.04 209.27 141.93 208.01 141.93 204.95C141.93 201.62 140.22 200.63 138.6 200.63C136.71 200.63 135.9 202.34 135.9 202.34V200.63L133.56 201.35L135 201.8V211.97ZM135.9 203.24C135.9 203.24 136.53 201.17 138.33 201.17C139.698 201.17 140.94 202.25 140.94 204.95C140.94 207.47 139.698 208.73 138.33 208.73C136.8 208.73 135.9 207.56 135.9 206.21V203.24ZM146.437 197.3V208.19L144.997 209H148.777L147.337 208.19V202.844C147.877 202.178 148.957 201.314 150.037 201.314C151.207 201.314 151.747 202.16 151.747 203.6V208.19L150.307 209H154.087L152.647 208.19V203.33C152.647 201.35 151.657 200.63 150.397 200.63C149.137 200.63 147.967 201.62 147.337 202.304V196.13L144.997 196.85L146.437 197.3ZM159.196 204.662C157.972 205.094 156.874 205.94 156.874 207.2C156.874 208.478 157.684 209.27 158.926 209.27C159.646 209.27 160.258 208.91 160.672 208.64L162.004 207.758C162.004 208.712 162.004 209.27 162.634 209.27C163.264 209.27 164.524 207.74 164.524 207.74L162.904 208.37V203.24C162.904 201.71 162.256 200.63 160.294 200.63C159.214 200.63 157.18 201.62 157.18 202.736C157.18 203.258 157.486 203.492 157.828 203.492C158.17 203.492 158.476 203.294 158.476 202.736C158.476 202.484 158.44 202.304 158.44 202.16C158.44 201.71 159.016 201.17 160.114 201.17C161.104 201.17 162.004 201.638 162.004 203.24V203.69L159.196 204.662ZM160.888 207.92C160.366 208.262 159.916 208.604 159.214 208.604C158.314 208.604 157.828 207.884 157.828 207.11C157.828 206.12 158.278 205.508 159.844 204.95L162.004 204.194V207.182L160.888 207.92ZM168.479 201.8V208.19L167.039 209H170.819L169.379 208.19V202.844C169.919 202.178 170.999 201.314 172.079 201.314C173.249 201.314 173.789 202.16 173.789 203.6V208.19L172.349 209H176.129L174.689 208.19V203.33C174.689 201.35 173.699 200.63 172.439 200.63C171.179 200.63 170.009 201.62 169.379 202.304V200.63L167.039 201.35L168.479 201.8ZM178.463 201.44H180.173V207.38C180.173 208.73 180.713 209.27 181.613 209.27C182.603 209.27 183.107 208.064 183.143 207.938C183.125 207.974 182.693 208.64 181.973 208.64C181.343 208.64 181.073 208.1 181.073 207.38V201.44H183.143V200.9H181.073V199.01L178.463 201.44ZM192.864 201.35L195.204 200.63V208.19L196.644 209H192.864L194.304 208.19V201.8L192.864 201.35ZM193.674 197.93C193.674 198.434 194.07 198.83 194.574 198.83C195.078 198.83 195.474 198.434 195.474 197.93C195.474 197.426 195.078 197.03 194.574 197.03C194.07 197.03 193.674 197.426 193.674 197.93ZM201.061 201.8V208.19L199.621 209H203.401L201.961 208.19V202.844C202.501 202.178 203.581 201.314 204.661 201.314C205.831 201.314 206.371 202.16 206.371 203.6V208.19L204.931 209H208.711L207.271 208.19V203.33C207.271 201.35 206.281 200.63 205.021 200.63C203.761 200.63 202.591 201.62 201.961 202.304V200.63L199.621 201.35L201.061 201.8ZM217.522 201.44H219.232V207.38C219.232 208.73 219.772 209.27 220.672 209.27C221.662 209.27 222.166 208.064 222.202 207.938C222.184 207.974 221.752 208.64 221.032 208.64C220.402 208.64 220.132 208.1 220.132 207.38V201.44H222.202V200.9H220.132V199.01L217.522 201.44ZM226.797 197.3V208.19L225.357 209H229.137L227.697 208.19V202.844C228.237 202.178 229.317 201.314 230.397 201.314C231.567 201.314 232.107 202.16 232.107 203.6V208.19L230.667 209H234.447L233.007 208.19V203.33C233.007 201.35 232.017 200.63 230.757 200.63C229.497 200.63 228.327 201.62 227.697 202.304V196.13L225.357 196.85L226.797 197.3ZM244.164 204.14C244.164 202.16 243.354 200.63 241.068 200.63C238.926 200.63 237.144 202.322 237.144 204.95C237.144 207.38 238.584 209.27 240.924 209.27C243.624 209.27 244.164 206.66 244.164 206.66C244.164 206.66 243.354 208.46 241.374 208.46C239.574 208.46 238.044 207.344 238.044 204.662C238.044 204.482 238.044 204.32 238.062 204.14H244.164ZM241.032 201.062C242.292 201.062 243.174 201.89 243.174 202.79C243.174 203.51 242.544 203.6 241.644 203.6H238.152C238.548 201.872 239.898 201.062 241.032 201.062ZM255.315 201.8V208.19L253.875 209H257.655L256.215 208.19V203.06C257.025 202.16 257.709 201.602 258.069 201.602C258.663 201.602 258.573 202.16 259.203 202.16C259.635 202.16 259.905 201.854 259.905 201.476C259.905 200.936 259.545 200.63 258.915 200.63C258.411 200.63 257.979 200.828 257.421 201.368L256.215 202.52V200.63L253.875 201.35L255.315 201.8ZM266.569 201.116C268.063 201.116 269.683 202.43 269.683 205.418C269.683 207.542 268.405 208.784 267.073 208.784C265.597 208.784 263.959 207.47 263.959 204.482C263.959 202.322 265.255 201.116 266.569 201.116ZM262.969 204.95C262.969 207.38 264.319 209.27 266.821 209.27C269.143 209.27 270.673 207.38 270.673 204.95C270.673 202.52 269.323 200.63 266.821 200.63C264.499 200.63 262.969 202.52 262.969 204.95ZM277.334 201.116C278.828 201.116 280.448 202.43 280.448 205.418C280.448 207.542 279.17 208.784 277.838 208.784C276.362 208.784 274.724 207.47 274.724 204.482C274.724 202.322 276.02 201.116 277.334 201.116ZM273.734 204.95C273.734 207.38 275.084 209.27 277.586 209.27C279.908 209.27 281.438 207.38 281.438 204.95C281.438 202.52 280.088 200.63 277.586 200.63C275.264 200.63 273.734 202.52 273.734 204.95ZM292.149 202.844C292.689 202.178 293.769 201.314 294.849 201.314C296.019 201.314 296.559 202.16 296.559 203.6V208.19L295.119 209H298.899L297.459 208.19V203.33C297.459 201.35 296.469 200.63 295.209 200.63C293.949 200.63 292.779 201.62 292.059 202.412C291.771 201.116 290.907 200.63 289.899 200.63C288.639 200.63 287.469 201.62 286.839 202.304V200.63L284.499 201.35L285.939 201.8V208.19L284.499 209H288.279L286.839 208.19V202.844C287.379 202.178 288.459 201.314 289.539 201.314C290.709 201.314 291.249 202.16 291.249 203.6V208.19L289.809 209H293.589L292.149 208.19V202.844ZM302.042 208.19C302.042 208.694 302.438 209.09 302.942 209.09C303.446 209.09 303.842 208.694 303.842 208.19C303.842 207.686 303.446 207.29 302.942 207.29C302.438 207.29 302.042 207.686 302.042 208.19ZM1.98 232.59C1.98 238.728 6.408 240.078 6.642 240.15C6.48 240.078 2.97 238.548 2.97 232.59C2.97 226.632 6.48 225.102 6.642 225.03C6.408 225.102 1.98 226.452 1.98 232.59ZM9.52453 236.19C9.52453 236.694 9.92053 237.09 10.4245 237.09C10.9285 237.09 11.3245 236.694 11.3245 236.19C11.3245 235.686 10.9285 235.29 10.4245 235.29C9.92053 235.29 9.52453 235.686 9.52453 236.19ZM15.2796 236.19C15.2796 236.694 15.6756 237.09 16.1796 237.09C16.6836 237.09 17.0796 236.694 17.0796 236.19C17.0796 235.686 16.6836 235.29 16.1796 235.29C15.6756 235.29 15.2796 235.686 15.2796 236.19ZM21.0347 236.19C21.0347 236.694 21.4307 237.09 21.9347 237.09C22.4387 237.09 22.8347 236.694 22.8347 236.19C22.8347 235.686 22.4387 235.29 21.9347 235.29C21.4307 235.29 21.0347 235.686 21.0347 236.19ZM30.3718 232.59C30.3718 226.452 25.9438 225.102 25.7098 225.03C25.8718 225.102 29.3818 226.632 29.3818 232.59C29.3818 238.548 25.8718 240.078 25.7098 240.15C25.9438 240.078 30.3718 238.728 30.3718 232.59Z" fill="black"/>
</svg>
