<svg width="145" height="32" viewBox="0 0 145 32" fill="none" xmlns="http://www.w3.org/2000/svg">
<rect width="145" height="31" fill="black" fill-opacity="0.69"/>
<path d="M7.952 20H8.848V15.184H11.984V14.428H8.848V10.648H12.222V9.892H7.952V20ZM18.3074 12.93V17.914C18.3074 18.404 17.9014 19.468 16.7674 19.468C15.5494 19.468 15.5914 17.984 15.5914 17.788V12.93H14.7514V17.928C14.7514 19.076 15.1574 20.14 16.6134 20.14C17.3974 20.14 17.9014 19.818 18.3914 19.216H18.4194V20H19.1474V12.93H18.3074ZM23.2121 12.93H22.3721V20H23.2121V15.45C23.2121 14.26 23.9961 13.546 25.1861 13.644V12.79C24.3321 12.79 23.5901 13.21 23.2401 13.882H23.2121V12.93ZM32.3121 9.892V20H36.9881V19.244H33.2081V15.184H36.7221V14.428H33.2081V10.648H36.8901V9.892H32.3121ZM40.8568 20V9.892H40.0168V20H40.8568ZM45.3603 20V12.93H44.5203V20H45.3603ZM45.4583 10.956V9.892H44.4223V10.956H45.4583ZM52.7058 18.138C52.7058 15.772 49.5278 16.248 49.5278 14.484C49.5278 13.854 50.0038 13.462 50.6058 13.462C51.5578 13.462 51.7958 13.938 51.8378 14.834H52.6638C52.6638 13.756 52.2158 12.79 50.8158 12.79C49.5838 12.79 48.6878 13.252 48.6878 14.554C48.6878 16.892 51.8658 16.416 51.8658 18.264C51.8658 19.048 51.4738 19.51 50.6618 19.51C49.5838 19.51 49.3598 18.866 49.3598 17.9H48.5058C48.4918 19.398 49.0938 20.14 50.6198 20.14C51.9358 20.14 52.7058 19.468 52.7058 18.138ZM60.2753 16.64C60.2753 14.54 60.2753 12.79 57.8393 12.79C56.2573 12.79 55.4033 13.728 55.4033 15.772V17.508C55.4033 19.65 56.6213 20.14 57.8393 20.14C59.2533 20.14 60.1773 19.552 60.2753 17.844H59.3933C59.4073 18.796 58.8893 19.468 57.8393 19.468C56.5093 19.468 56.2433 18.166 56.2433 17.186V16.64H60.2753ZM56.2433 15.968C56.2433 14.4 56.4953 13.462 57.8393 13.462C59.1833 13.462 59.4353 14.4 59.4353 15.968H56.2433ZM63.108 21.47H63.85L64.69 18.936H63.668L63.108 21.47ZM73.207 14.386V10.648H74.985C75.699 10.648 76.623 10.676 76.623 12.356C76.623 13.504 76.217 14.386 74.929 14.386H73.207ZM75.167 20C76.861 20 77.729 19.006 77.729 17.186C77.729 15.912 77.379 15.03 76.049 14.75V14.722C77.323 14.372 77.519 13.532 77.519 12.314C77.519 10.536 76.707 9.892 75.125 9.892H72.311V20H75.167ZM73.207 15.142H75.027C76.567 15.142 76.833 16.36 76.833 17.256C76.833 18.74 76.119 19.244 74.635 19.244H73.207V15.142ZM85.303 16.64C85.303 14.54 85.303 12.79 82.867 12.79C81.285 12.79 80.431 13.728 80.431 15.772V17.508C80.431 19.65 81.649 20.14 82.867 20.14C84.281 20.14 85.205 19.552 85.303 17.844H84.421C84.435 18.796 83.917 19.468 82.867 19.468C81.537 19.468 81.271 18.166 81.271 17.186V16.64H85.303ZM81.271 15.968C81.271 14.4 81.523 13.462 82.867 13.462C84.211 13.462 84.463 14.4 84.463 15.968H81.271ZM92.9237 16.64C92.9237 14.54 92.9237 12.79 90.4877 12.79C88.9057 12.79 88.0517 13.728 88.0517 15.772V17.508C88.0517 19.65 89.2697 20.14 90.4877 20.14C91.9017 20.14 92.8257 19.552 92.9237 17.844H92.0417C92.0557 18.796 91.5377 19.468 90.4877 19.468C89.1577 19.468 88.8917 18.166 88.8917 17.186V16.64H92.9237ZM88.8917 15.968C88.8917 14.4 89.1437 13.462 90.4877 13.462C91.8317 13.462 92.0837 14.4 92.0837 15.968H88.8917ZM96.3584 13.602V18.656C96.3584 19.524 96.6944 20.028 97.8284 20.028C98.0944 20.028 98.3744 20.014 98.6264 19.986V19.258C98.4444 19.286 98.2484 19.3 97.9684 19.3C97.2964 19.3 97.1984 19.076 97.1984 18.138V13.602H98.6264V12.93H97.1984V11.11L96.3584 11.474V12.93H95.2244V13.602H96.3584ZM101.991 20V15.562C101.991 13.98 102.761 13.462 103.517 13.462C104.497 13.462 104.819 14.232 104.819 15.058V20H105.659V15.016C105.659 14.092 105.477 12.79 103.727 12.79C102.971 12.79 102.425 13.21 102.019 13.798H101.991V9.892H101.151V20H101.991ZM111.026 20.14C112.678 20.14 113.462 19.062 113.462 17.228V15.702C113.462 13.868 112.678 12.79 111.026 12.79C109.374 12.79 108.59 13.868 108.59 15.702V17.228C108.59 19.062 109.374 20.14 111.026 20.14ZM111.026 13.462C112.412 13.462 112.622 14.624 112.622 16.458C112.622 18.306 112.412 19.468 111.026 19.468C109.64 19.468 109.43 18.306 109.43 16.458C109.43 14.624 109.64 13.462 111.026 13.462ZM116.588 12.93H115.678L117.778 20H118.744L120.844 12.93H120.032L118.31 18.936H118.282L116.588 12.93ZM127.924 16.64C127.924 14.54 127.924 12.79 125.488 12.79C123.906 12.79 123.052 13.728 123.052 15.772V17.508C123.052 19.65 124.27 20.14 125.488 20.14C126.902 20.14 127.826 19.552 127.924 17.844H127.042C127.056 18.796 126.538 19.468 125.488 19.468C124.158 19.468 123.892 18.166 123.892 17.186V16.64H127.924ZM123.892 15.968C123.892 14.4 124.144 13.462 125.488 13.462C126.832 13.462 127.084 14.4 127.084 15.968H123.892ZM131.694 15.562C131.694 13.98 132.464 13.462 133.22 13.462C134.2 13.462 134.522 14.232 134.522 15.058V20H135.362V15.016C135.362 14.092 135.18 12.79 133.43 12.79C132.674 12.79 132.128 13.21 131.722 13.798H131.694V12.93H130.854V20H131.694V15.562Z" fill="white"/>
</svg>
