<svg width="437" height="68" viewBox="0 0 437 68" fill="none" xmlns="http://www.w3.org/2000/svg">
<rect width="437" height="50" fill="black" fill-opacity="0.69"/>
<path d="M7.904 18V13.184H11.88V18H12.776V7.892H11.88V12.428H7.904V7.892H7.008V18H7.904ZM18.2873 18.14C19.9393 18.14 20.7233 17.062 20.7233 15.228V13.702C20.7233 11.868 19.9393 10.79 18.2873 10.79C16.6353 10.79 15.8513 11.868 15.8513 13.702V15.228C15.8513 17.062 16.6353 18.14 18.2873 18.14ZM18.2873 11.462C19.6733 11.462 19.8833 12.624 19.8833 14.458C19.8833 16.306 19.6733 17.468 18.2873 17.468C16.9013 17.468 16.6913 16.306 16.6913 14.458C16.6913 12.624 16.9013 11.462 18.2873 11.462ZM24.886 18H25.936L27.42 11.952H27.448L29.002 18H30.052L31.998 10.93H31.158L29.576 17.118H29.548L27.98 10.93H26.944L25.446 17.118H25.418L23.836 10.93H22.94L24.886 18ZM39.7634 13.828C39.7634 12.078 40.7154 11.462 41.2614 11.462C42.6474 11.462 42.8574 12.624 42.8574 14.458C42.8574 16.306 42.6474 17.468 41.2614 17.468C40.4914 17.468 39.7634 16.698 39.7634 15.088V13.828ZM39.7354 10.93H38.9234V20.674H39.7634V17.202L39.7914 17.216C40.2254 17.888 40.7434 18.14 41.2614 18.14C43.0674 18.14 43.6974 17.062 43.6974 15.228V13.646C43.6974 12.722 43.6834 10.79 41.4714 10.79C40.9114 10.79 40.2114 11.084 39.7634 11.77L39.7354 11.784V10.93ZM47.6361 18V7.892H46.7961V18H47.6361ZM54.6176 15.676C54.6176 16.6 53.8336 17.468 52.8676 17.468C51.9996 17.468 51.5936 16.81 51.5936 16.012C51.5936 14.29 53.4136 14.43 54.6176 14.388V15.676ZM54.6736 18H55.5416C55.4576 17.174 55.4576 16.726 55.4576 16.222V12.666C55.4576 10.86 53.9736 10.79 53.2596 10.79C52.0276 10.79 50.9776 11.322 50.9076 12.68H51.8036C51.8036 11.84 52.4196 11.462 53.1896 11.462C54.3096 11.462 54.6176 12.092 54.6176 13.128V13.716C53.1896 13.828 50.6976 13.576 50.6976 16.054C50.6976 17.286 51.3836 18.14 52.6436 18.14C53.5116 18.14 54.1976 17.804 54.6456 17.132H54.6736V18ZM59.3403 20.674H60.1663L63.0923 10.93H62.2523L60.5863 16.726H60.5583L58.8363 10.93H57.9263L60.1663 18.014L59.3403 20.674ZM66.6017 18V10.93H65.7617V18H66.6017ZM66.6997 8.956V7.892H65.6637V8.956H66.6997ZM70.8252 13.562C70.8252 11.98 71.5952 11.462 72.3512 11.462C73.3312 11.462 73.6532 12.232 73.6532 13.058V18H74.4932V13.016C74.4932 12.092 74.3112 10.79 72.5612 10.79C71.8052 10.79 71.2592 11.21 70.8532 11.798H70.8252V10.93H69.9852V18H70.8252V13.562ZM79.664 11.462C80.448 11.462 81.246 12.022 81.246 13.506C81.246 15.578 81.19 15.9 80.98 16.446C80.854 16.782 80.406 17.244 79.706 17.244C78.18 17.244 78.18 15.774 78.18 14.304C78.18 13.254 78.208 11.462 79.664 11.462ZM81.302 11.812L81.274 11.784C80.966 11.154 80.252 10.79 79.538 10.79C78.11 10.79 77.62 11.896 77.55 12.19C77.354 12.946 77.34 12.96 77.34 14.598C77.34 16.166 77.48 17.916 79.51 17.916C80.182 17.916 80.854 17.664 81.218 17.062H81.246C81.246 19.176 81.344 20.058 79.706 20.058C78.922 20.058 78.32 19.582 78.376 18.77H77.536C77.48 19.484 77.83 20.73 79.594 20.73C81.61 20.73 82.086 19.806 82.086 18.252V12.302C82.086 11.938 82.1 11.588 82.128 10.916H81.302V11.812ZM93.3282 15.676C93.3282 16.6 92.5442 17.468 91.5782 17.468C90.7102 17.468 90.3042 16.81 90.3042 16.012C90.3042 14.29 92.1242 14.43 93.3282 14.388V15.676ZM93.3842 18H94.2522C94.1682 17.174 94.1682 16.726 94.1682 16.222V12.666C94.1682 10.86 92.6842 10.79 91.9702 10.79C90.7382 10.79 89.6882 11.322 89.6182 12.68H90.5142C90.5142 11.84 91.1302 11.462 91.9002 11.462C93.0202 11.462 93.3282 12.092 93.3282 13.128V13.716C91.9002 13.828 89.4082 13.576 89.4082 16.054C89.4082 17.286 90.0942 18.14 91.3542 18.14C92.2222 18.14 92.9082 17.804 93.3562 17.132H93.3842V18ZM98.1909 13.562C98.1909 11.98 98.9609 11.462 99.7169 11.462C100.697 11.462 101.019 12.232 101.019 13.058V18H101.859V13.016C101.859 12.092 101.677 10.79 99.9269 10.79C99.1709 10.79 98.6249 11.21 98.2189 11.798H98.1909V10.93H97.3509V18H98.1909V13.562ZM110.595 18V10.93H109.755V18H110.595ZM110.693 8.956V7.892H109.657V8.956H110.693ZM114.819 13.562C114.819 11.98 115.589 11.462 116.345 11.462C117.325 11.462 117.647 12.232 117.647 13.058V18H118.487V13.016C118.487 12.092 118.305 10.79 116.555 10.79C115.799 10.79 115.253 11.21 114.847 11.798H114.819V10.93H113.979V18H114.819V13.562ZM125.561 16.138C125.561 13.772 122.383 14.248 122.383 12.484C122.383 11.854 122.859 11.462 123.461 11.462C124.413 11.462 124.651 11.938 124.693 12.834H125.519C125.519 11.756 125.071 10.79 123.671 10.79C122.439 10.79 121.543 11.252 121.543 12.554C121.543 14.892 124.721 14.416 124.721 16.264C124.721 17.048 124.329 17.51 123.517 17.51C122.439 17.51 122.215 16.866 122.215 15.9H121.361C121.347 17.398 121.949 18.14 123.475 18.14C124.791 18.14 125.561 17.468 125.561 16.138ZM128.945 11.602V16.656C128.945 17.524 129.281 18.028 130.415 18.028C130.681 18.028 130.961 18.014 131.213 17.986V17.258C131.031 17.286 130.835 17.3 130.555 17.3C129.883 17.3 129.785 17.076 129.785 16.138V11.602H131.213V10.93H129.785V9.11L128.945 9.474V10.93H127.811V11.602H128.945ZM134.633 10.93H133.793V18H134.633V13.45C134.633 12.26 135.417 11.546 136.607 11.644V10.79C135.753 10.79 135.011 11.21 134.661 11.882H134.633V10.93ZM142.646 10.93V15.914C142.646 16.404 142.24 17.468 141.106 17.468C139.888 17.468 139.93 15.984 139.93 15.788V10.93H139.09V15.928C139.09 17.076 139.496 18.14 140.952 18.14C141.736 18.14 142.24 17.818 142.73 17.216H142.758V18H143.486V10.93H142.646ZM147.48 13.45C147.48 12.526 147.886 11.462 148.95 11.462C149.776 11.462 150.028 12.246 150.042 12.946V18H150.882V13.45C150.882 12.526 151.288 11.462 152.352 11.462C153.178 11.462 153.43 12.246 153.444 12.946V18H154.284V12.736C154.242 11.602 153.626 10.79 152.45 10.79C151.666 10.79 151.064 11.196 150.714 11.896C150.476 11.196 149.832 10.79 149.104 10.79C148.32 10.79 147.76 11.224 147.424 11.798H147.396V10.916H146.64V18H147.48V13.45ZM162.082 14.64C162.082 12.54 162.082 10.79 159.646 10.79C158.064 10.79 157.21 11.728 157.21 13.772V15.508C157.21 17.65 158.428 18.14 159.646 18.14C161.06 18.14 161.984 17.552 162.082 15.844H161.2C161.214 16.796 160.696 17.468 159.646 17.468C158.316 17.468 158.05 16.166 158.05 15.186V14.64H162.082ZM158.05 13.968C158.05 12.4 158.302 11.462 159.646 11.462C160.99 11.462 161.242 12.4 161.242 13.968H158.05ZM165.853 13.562C165.853 11.98 166.623 11.462 167.379 11.462C168.359 11.462 168.681 12.232 168.681 13.058V18H169.521V13.016C169.521 12.092 169.339 10.79 167.589 10.79C166.833 10.79 166.287 11.21 165.881 11.798H165.853V10.93H165.013V18H165.853V13.562ZM173.138 11.602V16.656C173.138 17.524 173.474 18.028 174.608 18.028C174.874 18.028 175.154 18.014 175.406 17.986V17.258C175.224 17.286 175.028 17.3 174.748 17.3C174.076 17.3 173.978 17.076 173.978 16.138V11.602H175.406V10.93H173.978V9.11L173.138 9.474V10.93H172.004V11.602H173.138ZM183.274 14.36C183.274 13.296 183.442 11.462 184.8 11.462C186.354 11.462 186.396 12.834 186.396 14.486C186.396 16.138 186.354 17.468 184.8 17.468C183.274 17.468 183.274 15.48 183.274 14.36ZM183.246 18V17.146H183.274C183.624 17.804 184.226 18.14 185.052 18.14C187.11 18.14 187.236 16.012 187.236 14.458C187.236 13.198 187.418 10.79 185.122 10.79C184.324 10.79 183.764 11.084 183.33 11.756L183.302 11.728V7.892H182.462V17.3C182.462 17.538 182.42 17.762 182.378 18H183.246ZM194.744 14.64C194.744 12.54 194.744 10.79 192.308 10.79C190.726 10.79 189.872 11.728 189.872 13.772V15.508C189.872 17.65 191.09 18.14 192.308 18.14C193.722 18.14 194.646 17.552 194.744 15.844H193.862C193.876 16.796 193.358 17.468 192.308 17.468C190.978 17.468 190.712 16.166 190.712 15.186V14.64H194.744ZM190.712 13.968C190.712 12.4 190.964 11.462 192.308 11.462C193.652 11.462 193.904 12.4 193.904 13.968H190.712ZM198.515 13.562C198.515 11.98 199.285 11.462 200.041 11.462C201.021 11.462 201.343 12.232 201.343 13.058V18H202.183V13.016C202.183 12.092 202.001 10.79 200.251 10.79C199.495 10.79 198.949 11.21 198.543 11.798H198.515V10.93H197.675V18H198.515V13.562ZM209.986 14.64C209.986 12.54 209.986 10.79 207.55 10.79C205.968 10.79 205.114 11.728 205.114 13.772V15.508C205.114 17.65 206.332 18.14 207.55 18.14C208.964 18.14 209.888 17.552 209.986 15.844H209.104C209.118 16.796 208.6 17.468 207.55 17.468C206.22 17.468 205.954 16.166 205.954 15.186V14.64H209.986ZM205.954 13.968C205.954 12.4 206.206 11.462 207.55 11.462C208.894 11.462 209.146 12.4 209.146 13.968H205.954ZM217.229 18V10.93H216.389V18H217.229ZM217.327 8.956V7.892H216.291V8.956H217.327ZM213.463 18H214.303V11.602H215.731V10.93H214.303V9.726C214.303 9.32 214.303 8.592 215.115 8.592H215.745V7.892C215.535 7.864 215.395 7.836 215.269 7.836C213.561 7.836 213.463 9.068 213.463 9.74V10.93H212.329V11.602H213.463V18ZM221.041 11.602V16.656C221.041 17.524 221.377 18.028 222.511 18.028C222.777 18.028 223.057 18.014 223.309 17.986V17.258C223.127 17.286 222.931 17.3 222.651 17.3C221.979 17.3 221.881 17.076 221.881 16.138V11.602H223.309V10.93H221.881V9.11L221.041 9.474V10.93H219.907V11.602H221.041ZM229.796 16.138C229.796 13.772 226.618 14.248 226.618 12.484C226.618 11.854 227.094 11.462 227.696 11.462C228.648 11.462 228.886 11.938 228.928 12.834H229.754C229.754 11.756 229.306 10.79 227.906 10.79C226.674 10.79 225.778 11.252 225.778 12.554C225.778 14.892 228.956 14.416 228.956 16.264C228.956 17.048 228.564 17.51 227.752 17.51C226.674 17.51 226.45 16.866 226.45 15.9H225.596C225.582 17.398 226.184 18.14 227.71 18.14C229.026 18.14 229.796 17.468 229.796 16.138ZM237.879 20.674H238.705L241.631 10.93H240.791L239.125 16.726H239.097L237.375 10.93H236.465L238.705 18.014L237.879 20.674ZM246.274 18.14C247.926 18.14 248.71 17.062 248.71 15.228V13.702C248.71 11.868 247.926 10.79 246.274 10.79C244.622 10.79 243.838 11.868 243.838 13.702V15.228C243.838 17.062 244.622 18.14 246.274 18.14ZM246.274 11.462C247.66 11.462 247.87 12.624 247.87 14.458C247.87 16.306 247.66 17.468 246.274 17.468C244.888 17.468 244.678 16.306 244.678 14.458C244.678 12.624 244.888 11.462 246.274 11.462ZM255.253 10.93V15.914C255.253 16.404 254.847 17.468 253.713 17.468C252.495 17.468 252.537 15.984 252.537 15.788V10.93H251.697V15.928C251.697 17.076 252.103 18.14 253.559 18.14C254.343 18.14 254.847 17.818 255.337 17.216H255.365V18H256.093V10.93H255.253ZM260.157 10.93H259.317V18H260.157V13.45C260.157 12.26 260.941 11.546 262.131 11.644V10.79C261.277 10.79 260.535 11.21 260.185 11.882H260.157V10.93ZM269.901 14.36C269.901 13.296 270.069 11.462 271.427 11.462C272.981 11.462 273.023 12.834 273.023 14.486C273.023 16.138 272.981 17.468 271.427 17.468C269.901 17.468 269.901 15.48 269.901 14.36ZM269.873 18V17.146H269.901C270.251 17.804 270.853 18.14 271.679 18.14C273.737 18.14 273.863 16.012 273.863 14.458C273.863 13.198 274.045 10.79 271.749 10.79C270.951 10.79 270.391 11.084 269.957 11.756L269.929 11.728V7.892H269.089V17.3C269.089 17.538 269.047 17.762 269.005 18H269.873ZM277.578 10.93H276.738V18H277.578V13.45C277.578 12.26 278.362 11.546 279.552 11.644V10.79C278.698 10.79 277.956 11.21 277.606 11.882H277.578V10.93ZM285.577 15.676C285.577 16.6 284.793 17.468 283.827 17.468C282.959 17.468 282.553 16.81 282.553 16.012C282.553 14.29 284.373 14.43 285.577 14.388V15.676ZM285.633 18H286.501C286.417 17.174 286.417 16.726 286.417 16.222V12.666C286.417 10.86 284.933 10.79 284.219 10.79C282.987 10.79 281.937 11.322 281.867 12.68H282.763C282.763 11.84 283.379 11.462 284.149 11.462C285.269 11.462 285.577 12.092 285.577 13.128V13.716C284.149 13.828 281.657 13.576 281.657 16.054C281.657 17.286 282.343 18.14 283.603 18.14C284.471 18.14 285.157 17.804 285.605 17.132H285.633V18ZM290.719 18V10.93H289.879V18H290.719ZM290.817 8.956V7.892H289.781V8.956H290.817ZM294.943 13.562C294.943 11.98 295.713 11.462 296.469 11.462C297.449 11.462 297.771 12.232 297.771 13.058V18H298.611V13.016C298.611 12.092 298.429 10.79 296.679 10.79C295.923 10.79 295.377 11.21 294.971 11.798H294.943V10.93H294.103V18H294.943V13.562ZM301.906 18H302.942V16.936H301.906V18ZM313.419 13.1C315.365 13.1 315.071 15.046 315.085 15.48C315.099 16.026 315.141 17.706 315.225 18H316.079C316.051 17.608 315.981 17.216 315.981 16.824C315.981 13.212 315.897 13.044 314.483 12.75V12.722C315.841 12.414 316.051 11.574 316.051 10.314C316.051 8.536 315.561 7.892 313.615 7.892H310.829V18H311.725V13.1H313.419ZM311.725 8.648H313.559C314.609 8.648 315.155 8.914 315.155 10.3C315.155 11.994 314.525 12.344 313.181 12.344H311.725V8.648ZM323.821 14.64C323.821 12.54 323.821 10.79 321.385 10.79C319.803 10.79 318.949 11.728 318.949 13.772V15.508C318.949 17.65 320.167 18.14 321.385 18.14C322.799 18.14 323.723 17.552 323.821 15.844H322.939C322.953 16.796 322.435 17.468 321.385 17.468C320.055 17.468 319.789 16.166 319.789 15.186V14.64H323.821ZM319.789 13.968C319.789 12.4 320.041 11.462 321.385 11.462C322.729 11.462 322.981 12.4 322.981 13.968H319.789ZM327.255 11.602V16.656C327.255 17.524 327.591 18.028 328.725 18.028C328.991 18.028 329.271 18.014 329.523 17.986V17.258C329.341 17.286 329.145 17.3 328.865 17.3C328.193 17.3 328.095 17.076 328.095 16.138V11.602H329.523V10.93H328.095V9.11L327.255 9.474V10.93H326.121V11.602H327.255ZM332.944 10.93H332.104V18H332.944V13.45C332.944 12.26 333.728 11.546 334.918 11.644V10.79C334.064 10.79 333.322 11.21 332.972 11.882H332.944V10.93ZM338.464 18V10.93H337.624V18H338.464ZM338.562 8.956V7.892H337.526V8.956H338.562ZM346.538 14.64C346.538 12.54 346.538 10.79 344.102 10.79C342.52 10.79 341.666 11.728 341.666 13.772V15.508C341.666 17.65 342.884 18.14 344.102 18.14C345.516 18.14 346.44 17.552 346.538 15.844H345.656C345.67 16.796 345.152 17.468 344.102 17.468C342.772 17.468 342.506 16.166 342.506 15.186V14.64H346.538ZM342.506 13.968C342.506 12.4 342.758 11.462 344.102 11.462C345.446 11.462 345.698 12.4 345.698 13.968H342.506ZM349.664 10.93H348.754L350.854 18H351.82L353.92 10.93H353.108L351.386 16.936H351.358L349.664 10.93ZM361 14.64C361 12.54 361 10.79 358.564 10.79C356.982 10.79 356.128 11.728 356.128 13.772V15.508C356.128 17.65 357.346 18.14 358.564 18.14C359.978 18.14 360.902 17.552 361 15.844H360.118C360.132 16.796 359.614 17.468 358.564 17.468C357.234 17.468 356.968 16.166 356.968 15.186V14.64H361ZM356.968 13.968C356.968 12.4 357.22 11.462 358.564 11.462C359.908 11.462 360.16 12.4 360.16 13.968H356.968ZM366.045 17.468C365.135 17.468 364.505 17.118 364.505 14.486C364.505 12.834 364.505 11.462 366.017 11.462C367.599 11.462 367.599 13.422 367.599 13.842V15.102C367.599 16.824 366.843 17.468 366.045 17.468ZM367.683 18H368.495C368.453 17.762 368.411 17.3 368.411 16.6V7.892H367.571V11.644L367.543 11.63C367.109 11.084 366.479 10.79 365.835 10.79C363.665 10.79 363.665 13.1 363.665 14.458C363.665 16.11 363.777 18.14 365.821 18.14C366.647 18.14 367.179 17.79 367.613 17.118L367.641 17.104L367.683 18ZM376.601 18H377.441V11.602H378.869V10.93H377.441V9.726C377.441 9.32 377.441 8.592 378.253 8.592H378.883V7.892C378.673 7.864 378.533 7.836 378.407 7.836C376.699 7.836 376.601 9.068 376.601 9.74V10.93H375.467V11.602H376.601V18ZM382.247 10.93H381.407V18H382.247V13.45C382.247 12.26 383.031 11.546 384.221 11.644V10.79C383.367 10.79 382.625 11.21 382.275 11.882H382.247V10.93ZM388.902 18.14C390.554 18.14 391.338 17.062 391.338 15.228V13.702C391.338 11.868 390.554 10.79 388.902 10.79C387.25 10.79 386.466 11.868 386.466 13.702V15.228C386.466 17.062 387.25 18.14 388.902 18.14ZM388.902 11.462C390.288 11.462 390.498 12.624 390.498 14.458C390.498 16.306 390.288 17.468 388.902 17.468C387.516 17.468 387.306 16.306 387.306 14.458C387.306 12.624 387.516 11.462 388.902 11.462ZM395.094 13.45C395.094 12.526 395.5 11.462 396.564 11.462C397.39 11.462 397.642 12.246 397.656 12.946V18H398.496V13.45C398.496 12.526 398.902 11.462 399.966 11.462C400.792 11.462 401.044 12.246 401.058 12.946V18H401.898V12.736C401.856 11.602 401.24 10.79 400.064 10.79C399.28 10.79 398.678 11.196 398.328 11.896C398.09 11.196 397.446 10.79 396.718 10.79C395.934 10.79 395.374 11.224 395.038 11.798H395.01V10.916H394.254V18H395.094V13.45ZM411.316 18H412.212V8.648H414.676V7.892H408.852V8.648H411.316V18ZM420.781 14.64C420.781 12.54 420.781 10.79 418.345 10.79C416.763 10.79 415.909 11.728 415.909 13.772V15.508C415.909 17.65 417.127 18.14 418.345 18.14C419.759 18.14 420.683 17.552 420.781 15.844H419.899C419.913 16.796 419.395 17.468 418.345 17.468C417.015 17.468 416.749 16.166 416.749 15.186V14.64H420.781ZM416.749 13.968C416.749 12.4 417.001 11.462 418.345 11.462C419.689 11.462 419.941 12.4 419.941 13.968H416.749ZM425.826 17.468C424.916 17.468 424.286 17.118 424.286 14.486C424.286 12.834 424.286 11.462 425.798 11.462C427.38 11.462 427.38 13.422 427.38 13.842V15.102C427.38 16.824 426.624 17.468 425.826 17.468ZM427.464 18H428.276C428.234 17.762 428.192 17.3 428.192 16.6V7.892H427.352V11.644L427.324 11.63C426.89 11.084 426.26 10.79 425.616 10.79C423.446 10.79 423.446 13.1 423.446 14.458C423.446 16.11 423.558 18.14 425.602 18.14C426.428 18.14 426.96 17.79 427.394 17.118L427.422 17.104L427.464 18ZM11.544 36.64C11.544 34.54 11.544 32.79 9.108 32.79C7.526 32.79 6.672 33.728 6.672 35.772V37.508C6.672 39.65 7.89 40.14 9.108 40.14C10.522 40.14 11.446 39.552 11.544 37.844H10.662C10.676 38.796 10.158 39.468 9.108 39.468C7.778 39.468 7.512 38.166 7.512 37.186V36.64H11.544ZM7.512 35.968C7.512 34.4 7.764 33.462 9.108 33.462C10.452 33.462 10.704 34.4 10.704 35.968H7.512ZM16.5887 39.468C15.6787 39.468 15.0487 39.118 15.0487 36.486C15.0487 34.834 15.0487 33.462 16.5607 33.462C18.1427 33.462 18.1427 35.422 18.1427 35.842V37.102C18.1427 38.824 17.3867 39.468 16.5887 39.468ZM18.2267 40H19.0387C18.9967 39.762 18.9547 39.3 18.9547 38.6V29.892H18.1147V33.644L18.0867 33.63C17.6527 33.084 17.0227 32.79 16.3787 32.79C14.2087 32.79 14.2087 35.1 14.2087 36.458C14.2087 38.11 14.3207 40.14 16.3647 40.14C17.1907 40.14 17.7227 39.79 18.1567 39.118L18.1847 39.104L18.2267 40ZM25.7074 32.93V37.914C25.7074 38.404 25.3014 39.468 24.1674 39.468C22.9494 39.468 22.9914 37.984 22.9914 37.788V32.93H22.1514V37.928C22.1514 39.076 22.5574 40.14 24.0134 40.14C24.7974 40.14 25.3014 39.818 25.7914 39.216H25.8194V40H26.5474V32.93H25.7074ZM33.7061 34.96C33.7761 33.476 32.9501 32.79 31.7321 32.79C30.7661 32.79 29.9681 33.154 29.6041 34.162C29.4221 34.694 29.3941 35.8 29.3941 36.5C29.3941 38.25 29.3941 40.14 31.7881 40.14C32.4461 40.14 33.7901 39.818 33.7201 37.914H32.8801C32.8381 38.768 32.6981 39.468 31.5921 39.468C30.2901 39.468 30.2901 37.774 30.2901 36.5C30.2901 35.562 30.3741 34.596 30.4861 34.274C30.6681 33.756 31.1021 33.462 31.6201 33.462C32.5861 33.462 32.9081 34.078 32.8661 34.96H33.7061ZM40.1555 37.676C40.1555 38.6 39.3715 39.468 38.4055 39.468C37.5375 39.468 37.1315 38.81 37.1315 38.012C37.1315 36.29 38.9515 36.43 40.1555 36.388V37.676ZM40.2115 40H41.0795C40.9955 39.174 40.9955 38.726 40.9955 38.222V34.666C40.9955 32.86 39.5115 32.79 38.7975 32.79C37.5655 32.79 36.5155 33.322 36.4455 34.68H37.3415C37.3415 33.84 37.9575 33.462 38.7275 33.462C39.8475 33.462 40.1555 34.092 40.1555 35.128V35.716C38.7275 35.828 36.2355 35.576 36.2355 38.054C36.2355 39.286 36.9215 40.14 38.1815 40.14C39.0495 40.14 39.7355 39.804 40.1835 39.132H40.2115V40ZM44.6822 33.602V38.656C44.6822 39.524 45.0182 40.028 46.1522 40.028C46.4182 40.028 46.6982 40.014 46.9502 39.986V39.258C46.7682 39.286 46.5722 39.3 46.2922 39.3C45.6202 39.3 45.5222 39.076 45.5222 38.138V33.602H46.9502V32.93H45.5222V31.11L44.6822 31.474V32.93H43.5482V33.602H44.6822ZM50.5947 40V32.93H49.7547V40H50.5947ZM50.6927 30.956V29.892H49.6567V30.956H50.6927ZM56.2322 40.14C57.8842 40.14 58.6682 39.062 58.6682 37.228V35.702C58.6682 33.868 57.8842 32.79 56.2322 32.79C54.5802 32.79 53.7962 33.868 53.7962 35.702V37.228C53.7962 39.062 54.5802 40.14 56.2322 40.14ZM56.2322 33.462C57.6182 33.462 57.8282 34.624 57.8282 36.458C57.8282 38.306 57.6182 39.468 56.2322 39.468C54.8462 39.468 54.6362 38.306 54.6362 36.458C54.6362 34.624 54.8462 33.462 56.2322 33.462ZM62.4389 35.562C62.4389 33.98 63.2089 33.462 63.9649 33.462C64.9449 33.462 65.2669 34.232 65.2669 35.058V40H66.1069V35.016C66.1069 34.092 65.9249 32.79 64.1749 32.79C63.4189 32.79 62.8729 33.21 62.4669 33.798H62.4389V32.93H61.5989V40H62.4389V35.562ZM72.8176 37.676C72.8176 38.6 72.0336 39.468 71.0676 39.468C70.1996 39.468 69.7936 38.81 69.7936 38.012C69.7936 36.29 71.6136 36.43 72.8176 36.388V37.676ZM72.8736 40H73.7416C73.6576 39.174 73.6576 38.726 73.6576 38.222V34.666C73.6576 32.86 72.1736 32.79 71.4596 32.79C70.2276 32.79 69.1776 33.322 69.1076 34.68H70.0036C70.0036 33.84 70.6196 33.462 71.3896 33.462C72.5096 33.462 72.8176 34.092 72.8176 35.128V35.716C71.3896 35.828 68.8976 35.576 68.8976 38.054C68.8976 39.286 69.5836 40.14 70.8436 40.14C71.7116 40.14 72.3976 39.804 72.8456 39.132H72.8736V40ZM77.9603 40V29.892H77.1203V40H77.9603ZM86.0434 32.93H85.1334L87.2334 40H88.1994L90.2994 32.93H89.4874L87.7654 38.936H87.7374L86.0434 32.93ZM93.8088 40V32.93H92.9688V40H93.8088ZM93.9068 30.956V29.892H92.8708V30.956H93.9068ZM99.3063 39.468C98.3963 39.468 97.7663 39.118 97.7663 36.486C97.7663 34.834 97.7663 33.462 99.2783 33.462C100.86 33.462 100.86 35.422 100.86 35.842V37.102C100.86 38.824 100.104 39.468 99.3063 39.468ZM100.944 40H101.756C101.714 39.762 101.672 39.3 101.672 38.6V29.892H100.832V33.644L100.804 33.63C100.37 33.084 99.7403 32.79 99.0963 32.79C96.9263 32.79 96.9263 35.1 96.9263 36.458C96.9263 38.11 97.0383 40.14 99.0823 40.14C99.9083 40.14 100.44 39.79 100.874 39.118L100.902 39.104L100.944 40ZM109.503 36.64C109.503 34.54 109.503 32.79 107.067 32.79C105.485 32.79 104.631 33.728 104.631 35.772V37.508C104.631 39.65 105.849 40.14 107.067 40.14C108.481 40.14 109.405 39.552 109.503 37.844H108.621C108.635 38.796 108.117 39.468 107.067 39.468C105.737 39.468 105.471 38.166 105.471 37.186V36.64H109.503ZM105.471 35.968C105.471 34.4 105.723 33.462 107.067 33.462C108.411 33.462 108.663 34.4 108.663 35.968H105.471ZM114.688 40.14C116.34 40.14 117.124 39.062 117.124 37.228V35.702C117.124 33.868 116.34 32.79 114.688 32.79C113.036 32.79 112.252 33.868 112.252 35.702V37.228C112.252 39.062 113.036 40.14 114.688 40.14ZM114.688 33.462C116.074 33.462 116.284 34.624 116.284 36.458C116.284 38.306 116.074 39.468 114.688 39.468C113.302 39.468 113.092 38.306 113.092 36.458C113.092 34.624 113.302 33.462 114.688 33.462ZM124.016 38.138C124.016 35.772 120.838 36.248 120.838 34.484C120.838 33.854 121.314 33.462 121.916 33.462C122.868 33.462 123.106 33.938 123.148 34.834H123.974C123.974 33.756 123.526 32.79 122.126 32.79C120.894 32.79 119.998 33.252 119.998 34.554C119.998 36.892 123.176 36.416 123.176 38.264C123.176 39.048 122.784 39.51 121.972 39.51C120.894 39.51 120.67 38.866 120.67 37.9H119.816C119.802 39.398 120.404 40.14 121.93 40.14C123.246 40.14 124.016 39.468 124.016 38.138ZM127.078 40H128.114V38.936H127.078V40ZM140.229 40V39.244H136.883V29.892H135.987V40H140.229ZM147.434 36.64C147.434 34.54 147.434 32.79 144.998 32.79C143.416 32.79 142.562 33.728 142.562 35.772V37.508C142.562 39.65 143.78 40.14 144.998 40.14C146.412 40.14 147.336 39.552 147.434 37.844H146.552C146.566 38.796 146.048 39.468 144.998 39.468C143.668 39.468 143.402 38.166 143.402 37.186V36.64H147.434ZM143.402 35.968C143.402 34.4 143.654 33.462 144.998 33.462C146.342 33.462 146.594 34.4 146.594 35.968H143.402ZM154.355 34.96C154.425 33.476 153.599 32.79 152.381 32.79C151.415 32.79 150.617 33.154 150.253 34.162C150.071 34.694 150.043 35.8 150.043 36.5C150.043 38.25 150.043 40.14 152.437 40.14C153.095 40.14 154.439 39.818 154.369 37.914H153.529C153.487 38.768 153.347 39.468 152.241 39.468C150.939 39.468 150.939 37.774 150.939 36.5C150.939 35.562 151.023 34.596 151.135 34.274C151.317 33.756 151.751 33.462 152.269 33.462C153.235 33.462 153.557 34.078 153.515 34.96H154.355ZM157.71 33.602V38.656C157.71 39.524 158.046 40.028 159.18 40.028C159.446 40.028 159.726 40.014 159.978 39.986V39.258C159.796 39.286 159.6 39.3 159.32 39.3C158.648 39.3 158.55 39.076 158.55 38.138V33.602H159.978V32.93H158.55V31.11L157.71 31.474V32.93H156.576V33.602H157.71ZM166.115 32.93V37.914C166.115 38.404 165.709 39.468 164.575 39.468C163.357 39.468 163.399 37.984 163.399 37.788V32.93H162.559V37.928C162.559 39.076 162.965 40.14 164.421 40.14C165.205 40.14 165.709 39.818 166.199 39.216H166.227V40H166.955V32.93H166.115ZM171.02 32.93H170.18V40H171.02V35.45C171.02 34.26 171.804 33.546 172.994 33.644V32.79C172.14 32.79 171.398 33.21 171.048 33.882H171.02V32.93ZM180.11 36.64C180.11 34.54 180.11 32.79 177.674 32.79C176.092 32.79 175.238 33.728 175.238 35.772V37.508C175.238 39.65 176.456 40.14 177.674 40.14C179.088 40.14 180.012 39.552 180.11 37.844H179.228C179.242 38.796 178.724 39.468 177.674 39.468C176.344 39.468 176.078 38.166 176.078 37.186V36.64H180.11ZM176.078 35.968C176.078 34.4 176.33 33.462 177.674 33.462C179.018 33.462 179.27 34.4 179.27 35.968H176.078ZM188.384 36.36C188.384 35.296 188.552 33.462 189.91 33.462C191.464 33.462 191.506 34.834 191.506 36.486C191.506 38.138 191.464 39.468 189.91 39.468C188.384 39.468 188.384 37.48 188.384 36.36ZM188.356 40V39.146H188.384C188.734 39.804 189.336 40.14 190.162 40.14C192.22 40.14 192.346 38.012 192.346 36.458C192.346 35.198 192.528 32.79 190.232 32.79C189.434 32.79 188.874 33.084 188.44 33.756L188.412 33.728V29.892H187.572V39.3C187.572 39.538 187.53 39.762 187.488 40H188.356ZM195.865 42.674H196.691L199.617 32.93H198.777L197.111 38.726H197.083L195.361 32.93H194.451L196.691 40.014L195.865 42.674ZM209.03 29.892L205.838 40H206.734L207.532 37.34H211.494L212.306 40H213.244L210.094 29.892H209.03ZM207.798 36.584L209.506 30.872H209.534L211.256 36.584H207.798ZM216.529 35.562C216.529 33.98 217.299 33.462 218.055 33.462C219.035 33.462 219.357 34.232 219.357 35.058V40H220.197V35.016C220.197 34.092 220.015 32.79 218.265 32.79C217.509 32.79 216.963 33.21 216.557 33.798H216.529V32.93H215.689V40H216.529V35.562ZM224.43 40V32.93H223.59V40H224.43ZM224.528 30.956V29.892H223.492V30.956H224.528ZM228.317 33.602V38.656C228.317 39.524 228.653 40.028 229.787 40.028C230.053 40.028 230.333 40.014 230.585 39.986V39.258C230.403 39.286 230.207 39.3 229.927 39.3C229.255 39.3 229.157 39.076 229.157 38.138V33.602H230.585V32.93H229.157V31.11L228.317 31.474V32.93H227.183V33.602H228.317ZM236.708 37.676C236.708 38.6 235.924 39.468 234.958 39.468C234.09 39.468 233.684 38.81 233.684 38.012C233.684 36.29 235.504 36.43 236.708 36.388V37.676ZM236.764 40H237.632C237.548 39.174 237.548 38.726 237.548 38.222V34.666C237.548 32.86 236.064 32.79 235.35 32.79C234.118 32.79 233.068 33.322 232.998 34.68H233.894C233.894 33.84 234.51 33.462 235.28 33.462C236.4 33.462 236.708 34.092 236.708 35.128V35.716C235.28 35.828 232.788 35.576 232.788 38.054C232.788 39.286 233.474 40.14 234.734 40.14C235.602 40.14 236.288 39.804 236.736 39.132H236.764V40ZM248.23 40.196C250.624 40.196 250.792 37.83 250.792 37.102H249.84C249.826 38.404 249.392 39.44 248.23 39.44C246.102 39.44 246.074 37.634 246.074 34.946C246.074 32.258 246.102 30.452 248.23 30.452C249.518 30.452 249.826 31.502 249.826 32.622H250.722C250.722 31.712 250.68 29.696 248.23 29.696C245.206 29.696 245.178 32.216 245.178 34.946C245.178 37.676 245.206 40.196 248.23 40.196ZM255.888 40.14C257.54 40.14 258.324 39.062 258.324 37.228V35.702C258.324 33.868 257.54 32.79 255.888 32.79C254.236 32.79 253.452 33.868 253.452 35.702V37.228C253.452 39.062 254.236 40.14 255.888 40.14ZM255.888 33.462C257.274 33.462 257.484 34.624 257.484 36.458C257.484 38.306 257.274 39.468 255.888 39.468C254.502 39.468 254.292 38.306 254.292 36.458C254.292 34.624 254.502 33.462 255.888 33.462ZM262.375 40V29.892H261.535V40H262.375ZM266.878 40V29.892H266.038V40H266.878ZM271.382 40V32.93H270.542V40H271.382ZM271.48 30.956V29.892H270.444V30.956H271.48ZM275.605 35.562C275.605 33.98 276.375 33.462 277.131 33.462C278.111 33.462 278.433 34.232 278.433 35.058V40H279.273V35.016C279.273 34.092 279.091 32.79 277.341 32.79C276.585 32.79 276.039 33.21 275.633 33.798H275.605V32.93H274.765V40H275.605V35.562ZM286.348 38.138C286.348 35.772 283.17 36.248 283.17 34.484C283.17 33.854 283.646 33.462 284.248 33.462C285.2 33.462 285.438 33.938 285.48 34.834H286.306C286.306 33.756 285.858 32.79 284.458 32.79C283.226 32.79 282.33 33.252 282.33 34.554C282.33 36.892 285.508 36.416 285.508 38.264C285.508 39.048 285.116 39.51 284.304 39.51C283.226 39.51 283.002 38.866 283.002 37.9H282.148C282.134 39.398 282.736 40.14 284.262 40.14C285.578 40.14 286.348 39.468 286.348 38.138ZM289.409 40H290.445V38.936H289.409V40Z" fill="white"/>
</svg>
