<svg width="224" height="15" viewBox="0 0 224 15" fill="none" xmlns="http://www.w3.org/2000/svg">
<path d="M9.18 3.705C9.03 1.755 7.35 0.944999 5.58 0.944999C2.31 0.944999 0.915 3.615 0.915 6.585C0.915 9.585 2.295 12.225 5.58 12.225C7.32 12.225 8.985 11.19 9.3 9.375H8.25C7.98 10.725 6.78 11.325 5.58 11.325C2.805 11.325 1.965 8.805 1.965 6.585C1.965 4.365 2.805 1.845 5.58 1.845C6.81 1.845 7.95 2.385 8.13 3.705H9.18ZM18.2099 8.235C18.2099 9.63 17.4899 11.4 15.6749 11.4C13.8599 11.4 13.1399 9.63 13.1399 8.235C13.1399 6.84 13.8599 5.07 15.6749 5.07C17.4899 5.07 18.2099 6.84 18.2099 8.235ZM15.6749 4.245C13.2749 4.245 12.1649 6.255 12.1649 8.235C12.1649 10.215 13.2749 12.225 15.6749 12.225C18.0749 12.225 19.1849 10.215 19.1849 8.235C19.1849 6.255 18.0749 4.245 15.6749 4.245ZM23.4548 1.17H22.5548V12H23.4548V1.17ZM32.405 8.805C32.405 10.155 31.73 11.4 30.245 11.4C29.015 11.4 28.265 10.635 28.265 9.33V4.47H27.365V9.18C27.365 10.05 27.56 12.225 30.02 12.225C30.995 12.225 31.85 11.79 32.375 10.86L32.405 10.89L32.45 12H33.38C33.35 11.49 33.305 10.89 33.305 10.305V4.47H32.405V8.805ZM38.04 4.47H37.11C37.14 4.98 37.185 5.58 37.185 6.165V12H38.085V7.665C38.085 6.315 38.76 5.07 40.245 5.07C41.475 5.07 42.225 5.835 42.225 7.14V12H43.125V7.665C43.125 6.315 43.8 5.07 45.285 5.07C46.515 5.07 47.265 5.835 47.265 7.14V12H48.165V7.29C48.165 6.42 47.97 4.245 45.51 4.245C44.34 4.245 43.47 5.01 42.915 5.895C42.585 4.905 41.655 4.245 40.47 4.245C39.495 4.245 38.64 4.68 38.115 5.61L38.085 5.58L38.04 4.47ZM55.2101 5.07C56.9201 5.07 57.5051 6.69 57.5051 8.13C57.5051 9.525 57.0701 11.4 55.3451 11.4C53.3801 11.4 52.7801 9.795 52.7801 8.085C52.7801 6.555 53.4551 5.07 55.2101 5.07ZM52.7801 10.89L52.8101 10.83C53.4251 11.73 54.3401 12.225 55.4351 12.225C57.6251 12.225 58.4801 10.095 58.4801 8.205C58.4801 6.255 57.6251 4.245 55.3901 4.245C54.3851 4.245 53.3351 4.725 52.8101 5.61L52.7801 5.58V1.17H51.8801V10.305C51.8801 10.89 51.8351 11.49 51.8051 12H52.7351L52.7801 10.89ZM61.88 4.47V12H62.78V4.47H61.88ZM62.855 1.17H61.805V2.295H62.855V1.17ZM67.5902 7.665C67.5902 6.315 68.2652 5.07 69.7502 5.07C70.9802 5.07 71.7302 5.835 71.7302 7.14V12H72.6302V7.29C72.6302 6.42 72.4352 4.245 69.9752 4.245C69.0002 4.245 68.1452 4.68 67.6202 5.61L67.5902 5.58L67.5452 4.47H66.6152C66.6452 4.98 66.6902 5.58 66.6902 6.165V12H67.5902V7.665ZM82.8702 8.445C82.8702 6.09 81.9552 4.245 79.4352 4.245C77.2002 4.245 76.0752 6.195 76.0752 8.235C76.0752 10.29 77.1252 12.225 79.3752 12.225C81.1902 12.225 82.3152 11.4 82.7802 9.6H81.8352C81.6102 10.635 80.7252 11.4 79.6602 11.4C77.8152 11.4 77.0802 10.05 77.0502 8.445H82.8702ZM77.0802 7.62C77.2002 6.3 77.9802 5.07 79.4502 5.07C81.0102 5.07 81.7902 6.165 81.8952 7.62H77.0802ZM86.6902 10.785L86.0452 13.86H86.8252L87.9052 10.785H86.6902ZM103.785 12V11.1H98.4298C100.035 9.555 103.65 6.51 103.65 4.08C103.65 2.28 102.21 1.395 100.545 1.395C98.7448 1.395 97.3648 2.535 97.3648 4.365H98.4148C98.4148 3.15 99.2698 2.295 100.515 2.295C101.64 2.295 102.6 2.925 102.6 4.14C102.6 6 98.6098 9.765 97.2598 10.98V12H103.785ZM110.515 2.295C112.72 2.295 112.915 5.265 112.915 6.81C112.915 8.355 112.72 11.325 110.515 11.325C108.31 11.325 108.115 8.355 108.115 6.81C108.115 5.265 108.31 2.295 110.515 2.295ZM110.515 1.395C107.68 1.395 107.065 4.17 107.065 6.81C107.065 9.45 107.68 12.225 110.515 12.225C113.35 12.225 113.965 9.45 113.965 6.81C113.965 4.17 113.35 1.395 110.515 1.395ZM118.025 9.99C118.025 11.01 117.92 12.225 119.825 12.225C120.125 12.225 120.455 12.165 120.74 12.09V11.31C120.5 11.385 120.23 11.4 119.96 11.4C119.27 11.4 118.91 11.025 118.925 10.335V5.295H120.635V4.47H118.925V2.475L118.025 2.865V4.47H116.525V5.295H118.025V9.99ZM124.775 1.17H123.875V12H124.775V7.665C124.775 6.315 125.45 5.07 126.935 5.07C128.165 5.07 128.915 5.835 128.915 7.14V12H129.815V7.29C129.815 6.42 129.62 4.245 127.16 4.245C126.185 4.245 125.33 4.68 124.805 5.61H124.775V1.17ZM140.399 8.175L142.784 2.07L145.124 8.175H140.399ZM138.944 12L140.084 9.075H145.469L146.624 12H147.689L143.369 1.17H142.229L137.939 12H138.944ZM151.259 8.055C151.259 6.525 151.934 5.07 153.689 5.07C155.399 5.07 155.984 6.66 155.984 8.1C155.984 9.495 155.549 11.4 153.824 11.4C151.859 11.4 151.259 9.765 151.259 8.055ZM151.259 10.83H151.289C151.904 11.73 152.819 12.225 153.914 12.225C156.104 12.225 156.959 10.095 156.959 8.205C156.959 6.255 156.104 4.245 153.869 4.245C152.864 4.245 151.814 4.725 151.289 5.61L151.259 5.58L151.214 4.47H150.284C150.314 4.98 150.374 5.58 150.359 6.165V14.88H151.259V10.83ZM161.244 7.47C161.274 6.03 161.979 5.07 163.314 5.07C163.494 5.07 163.689 5.115 163.869 5.13V4.26C163.569 4.245 163.269 4.23 162.969 4.245C162.219 4.275 161.544 4.815 161.274 5.58H161.244L161.199 4.47H160.269C160.299 4.98 160.359 5.58 160.344 6.165V12H161.244V7.47ZM166.854 4.47V12H167.754V4.47H166.854ZM167.829 1.17H166.779V2.295H167.829V1.17ZM172.579 1.17H171.679V12H172.579V1.17ZM176.819 10.785L176.174 13.86H176.954L178.034 10.785H176.819ZM188.379 4.23C189.219 3.825 190.029 3.33 190.719 2.67V12H191.694V1.62H190.764C190.089 2.295 189.264 2.895 188.379 3.255V4.23ZM199.732 2.295C201.157 2.295 202.177 3.3 202.177 4.725C202.177 6.165 201.112 7.185 199.672 7.185C198.307 7.185 197.452 6.225 197.452 4.86C197.452 3.42 198.187 2.295 199.732 2.295ZM196.432 9.45C196.567 11.1 197.617 12.225 199.462 12.225C202.777 12.225 203.407 9.315 203.407 6.525C203.407 3.945 202.732 1.395 199.717 1.395C197.707 1.395 196.402 2.805 196.402 4.785C196.402 6.645 197.707 8.01 199.582 8.01C200.782 8.01 201.817 7.425 202.327 6.42H202.357C202.357 7.995 202.102 11.325 199.732 11.325C198.457 11.325 197.527 10.815 197.482 9.45H196.432ZM209.567 2.295C210.992 2.295 212.012 3.3 212.012 4.725C212.012 6.165 210.947 7.185 209.507 7.185C208.142 7.185 207.287 6.225 207.287 4.86C207.287 3.42 208.022 2.295 209.567 2.295ZM206.267 9.45C206.402 11.1 207.452 12.225 209.297 12.225C212.612 12.225 213.242 9.315 213.242 6.525C213.242 3.945 212.567 1.395 209.552 1.395C207.542 1.395 206.237 2.805 206.237 4.785C206.237 6.645 207.542 8.01 209.417 8.01C210.617 8.01 211.652 7.425 212.162 6.42H212.192C212.192 7.995 211.937 11.325 209.567 11.325C208.292 11.325 207.362 10.815 207.317 9.45H206.267ZM219.401 2.295C220.826 2.295 221.846 3.3 221.846 4.725C221.846 6.165 220.781 7.185 219.341 7.185C217.976 7.185 217.121 6.225 217.121 4.86C217.121 3.42 217.856 2.295 219.401 2.295ZM216.101 9.45C216.236 11.1 217.286 12.225 219.131 12.225C222.446 12.225 223.076 9.315 223.076 6.525C223.076 3.945 222.401 1.395 219.386 1.395C217.376 1.395 216.071 2.805 216.071 4.785C216.071 6.645 217.376 8.01 219.251 8.01C220.451 8.01 221.486 7.425 221.996 6.42H222.026C222.026 7.995 221.771 11.325 219.401 11.325C218.126 11.325 217.196 10.815 217.151 9.45H216.101Z" fill="white"/>
</svg>
