<svg width="251" height="84" viewBox="0 0 251 84" fill="none" xmlns="http://www.w3.org/2000/svg">
<path d="M2.595 43.175L4.98 37.07L7.32 43.175H2.595ZM1.14 47L2.28 44.075H7.665L8.82 47H9.885L5.565 36.17H4.425L0.135 47H1.14ZM13.4549 43.055C13.4549 41.525 14.1299 40.07 15.8849 40.07C17.5949 40.07 18.1799 41.66 18.1799 43.1C18.1799 44.495 17.7449 46.4 16.0199 46.4C14.0549 46.4 13.4549 44.765 13.4549 43.055ZM13.4549 45.83H13.4849C14.0999 46.73 15.0149 47.225 16.1099 47.225C18.2999 47.225 19.1549 45.095 19.1549 43.205C19.1549 41.255 18.2999 39.245 16.0649 39.245C15.0599 39.245 14.0099 39.725 13.4849 40.61L13.4549 40.58L13.4099 39.47H12.4799C12.5099 39.98 12.5699 40.58 12.5549 41.165V49.88H13.4549V45.83ZM23.4398 42.47C23.4698 41.03 24.1748 40.07 25.5098 40.07C25.6898 40.07 25.8848 40.115 26.0648 40.13V39.26C25.7648 39.245 25.4648 39.23 25.1648 39.245C24.4148 39.275 23.7398 39.815 23.4698 40.58H23.4398L23.3948 39.47H22.4648C22.4948 39.98 22.5548 40.58 22.5398 41.165V47H23.4398V42.47ZM29.05 39.47V47H29.95V39.47H29.05ZM30.025 36.17H28.975V37.295H30.025V36.17ZM34.7752 36.17H33.8752V47H34.7752V36.17ZM50.4352 47V46.1H45.0802C46.6852 44.555 50.3002 41.51 50.3002 39.08C50.3002 37.28 48.8602 36.395 47.1952 36.395C45.3952 36.395 44.0152 37.535 44.0152 39.365H45.0652C45.0652 38.15 45.9202 37.295 47.1652 37.295C48.2902 37.295 49.2502 37.925 49.2502 39.14C49.2502 41 45.2602 44.765 43.9102 45.98V47H50.4352ZM57.1651 37.295C59.3701 37.295 59.5651 40.265 59.5651 41.81C59.5651 43.355 59.3701 46.325 57.1651 46.325C54.9601 46.325 54.7651 43.355 54.7651 41.81C54.7651 40.265 54.9601 37.295 57.1651 37.295ZM57.1651 36.395C54.3301 36.395 53.7151 39.17 53.7151 41.81C53.7151 44.45 54.3301 47.225 57.1651 47.225C60.0001 47.225 60.6151 44.45 60.6151 41.81C60.6151 39.17 60.0001 36.395 57.1651 36.395ZM64.6751 44.99C64.6751 46.01 64.5701 47.225 66.4751 47.225C66.7751 47.225 67.1051 47.165 67.3901 47.09V46.31C67.1501 46.385 66.8801 46.4 66.6101 46.4C65.9201 46.4 65.5601 46.025 65.5751 45.335V40.295H67.2851V39.47H65.5751V37.475L64.6751 37.865V39.47H63.1751V40.295H64.6751V44.99ZM71.4252 36.17H70.5252V47H71.4252V42.665C71.4252 41.315 72.1002 40.07 73.5852 40.07C74.8152 40.07 75.5652 40.835 75.5652 42.14V47H76.4652V42.29C76.4652 41.42 76.2702 39.245 73.8102 39.245C72.8352 39.245 71.9802 39.68 71.4552 40.61H71.4252V36.17ZM80.6902 45.785L80.0452 48.86H80.8252L81.9052 45.785H80.6902ZM92.2498 39.23C93.0898 38.825 93.8998 38.33 94.5898 37.67V47H95.5648V36.62H94.6348C93.9598 37.295 93.1348 37.895 92.2498 38.255V39.23ZM103.603 37.295C105.028 37.295 106.048 38.3 106.048 39.725C106.048 41.165 104.983 42.185 103.543 42.185C102.178 42.185 101.323 41.225 101.323 39.86C101.323 38.42 102.058 37.295 103.603 37.295ZM100.303 44.45C100.438 46.1 101.488 47.225 103.333 47.225C106.648 47.225 107.278 44.315 107.278 41.525C107.278 38.945 106.603 36.395 103.588 36.395C101.578 36.395 100.273 37.805 100.273 39.785C100.273 41.645 101.578 43.01 103.453 43.01C104.653 43.01 105.688 42.425 106.198 41.42H106.228C106.228 42.995 105.973 46.325 103.603 46.325C102.328 46.325 101.398 45.815 101.353 44.45H100.303ZM113.438 37.295C114.863 37.295 115.883 38.3 115.883 39.725C115.883 41.165 114.818 42.185 113.378 42.185C112.013 42.185 111.158 41.225 111.158 39.86C111.158 38.42 111.893 37.295 113.438 37.295ZM110.138 44.45C110.273 46.1 111.323 47.225 113.168 47.225C116.483 47.225 117.113 44.315 117.113 41.525C117.113 38.945 116.438 36.395 113.423 36.395C111.413 36.395 110.108 37.805 110.108 39.785C110.108 41.645 111.413 43.01 113.288 43.01C114.488 43.01 115.523 42.425 116.033 41.42H116.063C116.063 42.995 115.808 46.325 113.438 46.325C112.163 46.325 111.233 45.815 111.188 44.45H110.138ZM123.273 37.295C124.698 37.295 125.718 38.3 125.718 39.725C125.718 41.165 124.653 42.185 123.213 42.185C121.848 42.185 120.993 41.225 120.993 39.86C120.993 38.42 121.728 37.295 123.273 37.295ZM119.973 44.45C120.108 46.1 121.158 47.225 123.003 47.225C126.318 47.225 126.948 44.315 126.948 41.525C126.948 38.945 126.273 36.395 123.258 36.395C121.248 36.395 119.943 37.805 119.943 39.785C119.943 41.645 121.248 43.01 123.123 43.01C124.323 43.01 125.358 42.425 125.868 41.42H125.898C125.898 42.995 125.643 46.325 123.273 46.325C121.998 46.325 121.068 45.815 121.023 44.45H119.973Z" fill="white"/>
<path d="M9.5 7.7L8.5 8.6C8.5 8.6 7.3 7.7 5.2 7.7C2.5 7.7 1.2 9.16 1.2 10.8C1.2 12.68 2.62 13.5 5.32 14.46C8.1 15.44 9.1 16.2 9.1 18C9.1 19.6 7.8 20.7 5.9 20.7C3.7 20.7 2.6 19.5 2.6 19.5L1.3 16.4V21.3L2.26 20.2C2.26 20.2 3.5 21.3 5.9 21.3C8.6 21.3 10.1 19.76 10.1 17.8C10.1 15.2 8 14.3 5.52 13.46C3.08 12.64 2.2 11.94 2.2 10.66C2.2 9.46 3.3 8.3 5.2 8.3C7.1 8.3 8.2 9.3 8.2 9.3L9.5 12V7.7ZM18.3286 12.18C20.0286 12.18 20.2086 13.2 20.2086 13.4C20.2086 13.72 20.0286 13.78 20.0286 14.22C20.0286 14.66 20.3086 14.96 20.7886 14.96C21.2886 14.96 21.5486 14.56 21.5486 14.04C21.5486 12.94 20.3686 11.7 18.3686 11.7C15.9886 11.7 14.0086 13.6 14.0086 16.5C14.0086 19.2 15.6086 21.3 18.2086 21.3C21.2086 21.3 21.8086 18.4 21.8086 18.4C21.8086 18.4 20.9086 20.4 18.7086 20.4C16.7086 20.4 15.0086 19.16 15.0086 16.18C15.0086 13.44 16.9286 12.18 18.3286 12.18ZM26.7078 8V20.1L25.1078 21H29.3078L27.7078 20.1V14.16C28.3078 13.42 29.5078 12.46 30.7078 12.46C32.0078 12.46 32.6078 13.4 32.6078 15V20.1L31.0078 21H35.2078L33.6078 20.1V14.7C33.6078 12.5 32.5078 11.7 31.1078 11.7C29.7078 11.7 28.4078 12.8 27.7078 13.56V6.7L25.1078 7.5L26.7078 8ZM42.2039 12.24C43.8639 12.24 45.6639 13.7 45.6639 17.02C45.6639 19.38 44.2439 20.76 42.7639 20.76C41.1239 20.76 39.3039 19.3 39.3039 15.98C39.3039 13.58 40.7439 12.24 42.2039 12.24ZM38.2039 16.5C38.2039 19.2 39.7039 21.3 42.4839 21.3C45.0639 21.3 46.7639 19.2 46.7639 16.5C46.7639 13.8 45.2639 11.7 42.4839 11.7C39.9039 11.7 38.2039 13.8 38.2039 16.5ZM54.1648 12.24C55.8248 12.24 57.6248 13.7 57.6248 17.02C57.6248 19.38 56.2048 20.76 54.7248 20.76C53.0848 20.76 51.2648 19.3 51.2648 15.98C51.2648 13.58 52.7048 12.24 54.1648 12.24ZM50.1648 16.5C50.1648 19.2 51.6648 21.3 54.4448 21.3C57.0248 21.3 58.7248 19.2 58.7248 16.5C58.7248 13.8 57.2248 11.7 54.4448 11.7C51.8648 11.7 50.1648 13.8 50.1648 16.5ZM63.6258 8V20.1L62.0258 21H66.2258L64.6258 20.1V6.7L62.0258 7.5L63.6258 8ZM85.5117 7.7L84.5117 8.6C84.5117 8.6 83.3117 7.7 81.2117 7.7C78.5117 7.7 77.2117 9.16 77.2117 10.8C77.2117 12.68 78.6317 13.5 81.3317 14.46C84.1117 15.44 85.1117 16.2 85.1117 18C85.1117 19.6 83.8117 20.7 81.9117 20.7C79.7117 20.7 78.6117 19.5 78.6117 19.5L77.3117 16.4V21.3L78.2717 20.2C78.2717 20.2 79.5117 21.3 81.9117 21.3C84.6117 21.3 86.1117 19.76 86.1117 17.8C86.1117 15.2 84.0117 14.3 81.5317 13.46C79.0917 12.64 78.2117 11.94 78.2117 10.66C78.2117 9.46 79.3117 8.3 81.2117 8.3C83.1117 8.3 84.2117 9.3 84.2117 9.3L85.5117 12V7.7ZM91.5203 8V20.1L89.9203 21H94.1203L92.5203 20.1V14.16C93.1203 13.42 94.3203 12.46 95.5203 12.46C96.8203 12.46 97.4203 13.4 97.4203 15V20.1L95.8203 21H100.02L98.4203 20.1V14.7C98.4203 12.5 97.3203 11.7 95.9203 11.7C94.5203 11.7 93.2203 12.8 92.5203 13.56V6.7L89.9203 7.5L91.5203 8ZM107.016 12.24C108.676 12.24 110.476 13.7 110.476 17.02C110.476 19.38 109.056 20.76 107.576 20.76C105.936 20.76 104.116 19.3 104.116 15.98C104.116 13.58 105.556 12.24 107.016 12.24ZM103.016 16.5C103.016 19.2 104.516 21.3 107.296 21.3C109.876 21.3 111.576 19.2 111.576 16.5C111.576 13.8 110.076 11.7 107.296 11.7C104.716 11.7 103.016 13.8 103.016 16.5ZM118.977 12.24C120.637 12.24 122.437 13.7 122.437 17.02C122.437 19.38 121.017 20.76 119.537 20.76C117.897 20.76 116.077 19.3 116.077 15.98C116.077 13.58 117.517 12.24 118.977 12.24ZM114.977 16.5C114.977 19.2 116.477 21.3 119.257 21.3C121.837 21.3 123.537 19.2 123.537 16.5C123.537 13.8 122.037 11.7 119.257 11.7C116.677 11.7 114.977 13.8 114.977 16.5ZM126.538 12.6H128.438V19.2C128.438 20.7 129.038 21.3 130.038 21.3C131.138 21.3 131.698 19.96 131.738 19.82C131.718 19.86 131.238 20.6 130.438 20.6C129.738 20.6 129.438 20 129.438 19.2V12.6H131.738V12H129.438V9.9L126.538 12.6ZM135.345 12.5L137.945 11.7V20.1L139.545 21H135.345L136.945 20.1V13L135.345 12.5ZM136.245 8.7C136.245 9.26 136.685 9.7 137.245 9.7C137.805 9.7 138.245 9.26 138.245 8.7C138.245 8.14 137.805 7.7 137.245 7.7C136.685 7.7 136.245 8.14 136.245 8.7ZM144.452 13V20.1L142.852 21H147.052L145.452 20.1V14.16C146.052 13.42 147.252 12.46 148.452 12.46C149.752 12.46 150.352 13.4 150.352 15V20.1L148.752 21H152.952L151.352 20.1V14.7C151.352 12.5 150.252 11.7 148.852 11.7C147.452 11.7 146.152 12.8 145.452 13.56V11.7L142.852 12.5L144.452 13ZM156.546 14.9C156.546 16.22 157.246 17.36 158.506 17.84C157.646 18 156.646 18.44 156.646 19.6C156.646 20.28 157.166 20.8 157.706 20.96C157.026 21.08 155.746 21.4 155.746 22.8C155.746 24 156.846 25.5 159.946 25.5C163.146 25.5 164.846 23.5 164.846 22C164.846 20.5 163.846 20 162.846 20H158.346C158.046 20 157.546 19.9 157.546 19.3C157.546 18.26 159.226 18.1 159.946 18.1C162.046 18.1 163.346 16.66 163.346 14.9C163.346 13.42 162.446 12.6 162.446 12.6C162.446 12.6 163.146 12.8 163.646 12.8C164.446 12.8 164.746 12.34 164.746 11.8C164.746 11.4 164.466 11 163.906 11C163.426 11 163.146 11.36 163.146 11.78C163.146 12.04 163.346 12.3 162.846 12.3C162.046 12.3 161.346 11.7 159.946 11.7C157.846 11.7 156.546 13.14 156.546 14.9ZM162.846 21C163.546 21 164.146 21.3 164.146 22.1C164.146 23 163.046 24.6 160.146 24.6C157.646 24.6 156.746 23.5 156.746 22.5C156.746 21.12 158.686 21.02 158.726 21H162.846ZM157.646 14.9C157.646 13.2 158.686 12.2 159.946 12.2C161.206 12.2 162.246 13.2 162.246 14.9C162.246 16.6 161.206 17.6 159.946 17.6C158.686 17.6 157.646 16.6 157.646 14.9Z" fill="white"/>
</svg>
