<svg width="474" height="48" viewBox="0 0 474 48" fill="none" xmlns="http://www.w3.org/2000/svg">
<rect width="299" height="48" fill="black" fill-opacity="0.69"/>
<path d="M7.05 6.892V17H11.726V16.244H7.946V12.184H11.46V11.428H7.946V7.648H11.628V6.892H7.05ZM13.7747 17H14.7127L16.3367 13.934L17.8907 17H18.9127L16.8687 13.192L18.7167 9.93H17.7927L16.3927 12.59L15.1047 9.93H14.0967L15.8467 13.234L13.7747 17ZM25.3061 11.96C25.3761 10.476 24.5501 9.79 23.3321 9.79C22.3661 9.79 21.5681 10.154 21.2041 11.162C21.0221 11.694 20.9941 12.8 20.9941 13.5C20.9941 15.25 20.9941 17.14 23.3881 17.14C24.0461 17.14 25.3901 16.818 25.3201 14.914H24.4801C24.4381 15.768 24.2981 16.468 23.1921 16.468C21.8901 16.468 21.8901 14.774 21.8901 13.5C21.8901 12.562 21.9741 11.596 22.0861 11.274C22.2681 10.756 22.7021 10.462 23.2201 10.462C24.1861 10.462 24.5081 11.078 24.4661 11.96H25.3061ZM32.8475 13.64C32.8475 11.54 32.8475 9.79 30.4115 9.79C28.8295 9.79 27.9755 10.728 27.9755 12.772V14.508C27.9755 16.65 29.1935 17.14 30.4115 17.14C31.8255 17.14 32.7495 16.552 32.8475 14.844H31.9655C31.9795 15.796 31.4615 16.468 30.4115 16.468C29.0815 16.468 28.8155 15.166 28.8155 14.186V13.64H32.8475ZM28.8155 12.968C28.8155 11.4 29.0675 10.462 30.4115 10.462C31.7555 10.462 32.0075 11.4 32.0075 12.968H28.8155ZM36.6742 9.93H35.8342V17H36.6742V12.45C36.6742 11.26 37.4582 10.546 38.6482 10.644V9.79C37.7942 9.79 37.0522 10.21 36.7022 10.882H36.6742V9.93ZM41.9427 12.828C41.9427 11.078 42.8947 10.462 43.4407 10.462C44.8267 10.462 45.0367 11.624 45.0367 13.458C45.0367 15.306 44.8267 16.468 43.4407 16.468C42.6707 16.468 41.9427 15.698 41.9427 14.088V12.828ZM41.9147 9.93H41.1027V19.674H41.9427V16.202L41.9707 16.216C42.4047 16.888 42.9227 17.14 43.4407 17.14C45.2467 17.14 45.8767 16.062 45.8767 14.228V12.646C45.8767 11.722 45.8627 9.79 43.6507 9.79C43.0907 9.79 42.3907 10.084 41.9427 10.77L41.9147 10.784V9.93ZM49.1994 10.602V15.656C49.1994 16.524 49.5354 17.028 50.6694 17.028C50.9354 17.028 51.2154 17.014 51.4674 16.986V16.258C51.2854 16.286 51.0894 16.3 50.8094 16.3C50.1374 16.3 50.0394 16.076 50.0394 15.138V10.602H51.4674V9.93H50.0394V8.11L49.1994 8.474V9.93H48.0654V10.602H49.1994ZM59.0414 17H59.8814V10.602H61.3094V9.93H59.8814V8.726C59.8814 8.32 59.8814 7.592 60.6934 7.592H61.3234V6.892C61.1134 6.864 60.9734 6.836 60.8474 6.836C59.1394 6.836 59.0414 8.068 59.0414 8.74V9.93H57.9074V10.602H59.0414V17ZM64.6879 9.93H63.8479V17H64.6879V12.45C64.6879 11.26 65.4719 10.546 66.6619 10.644V9.79C65.8079 9.79 65.0659 10.21 64.7159 10.882H64.6879V9.93ZM71.3424 17.14C72.9944 17.14 73.7784 16.062 73.7784 14.228V12.702C73.7784 10.868 72.9944 9.79 71.3424 9.79C69.6904 9.79 68.9064 10.868 68.9064 12.702V14.228C68.9064 16.062 69.6904 17.14 71.3424 17.14ZM71.3424 10.462C72.7284 10.462 72.9384 11.624 72.9384 13.458C72.9384 15.306 72.7284 16.468 71.3424 16.468C69.9564 16.468 69.7464 15.306 69.7464 13.458C69.7464 11.624 69.9564 10.462 71.3424 10.462ZM77.5351 12.45C77.5351 11.526 77.9411 10.462 79.0051 10.462C79.8311 10.462 80.0831 11.246 80.0971 11.946V17H80.9371V12.45C80.9371 11.526 81.3431 10.462 82.4071 10.462C83.2331 10.462 83.4851 11.246 83.4991 11.946V17H84.3391V11.736C84.2971 10.602 83.6811 9.79 82.5051 9.79C81.7211 9.79 81.1191 10.196 80.7691 10.896C80.5311 10.196 79.8871 9.79 79.1591 9.79C78.3751 9.79 77.8151 10.224 77.4791 10.798H77.4511V9.916H76.6951V17H77.5351V12.45ZM93.0845 17V11.82H93.1125L96.7665 17H97.8865L93.9945 11.61L97.7745 6.892H96.6965L93.1125 11.526H93.0845V6.892H92.1885V17H93.0845ZM105.04 13.64C105.04 11.54 105.04 9.79 102.604 9.79C101.022 9.79 100.168 10.728 100.168 12.772V14.508C100.168 16.65 101.386 17.14 102.604 17.14C104.018 17.14 104.942 16.552 105.04 14.844H104.158C104.172 15.796 103.654 16.468 102.604 16.468C101.274 16.468 101.008 15.166 101.008 14.186V13.64H105.04ZM101.008 12.968C101.008 11.4 101.26 10.462 102.604 10.462C103.948 10.462 104.2 11.4 104.2 12.968H101.008ZM108.167 9.93H107.257L109.357 17H110.323L112.423 9.93H111.611L109.889 15.936H109.861L108.167 9.93ZM118.411 14.676C118.411 15.6 117.627 16.468 116.661 16.468C115.793 16.468 115.387 15.81 115.387 15.012C115.387 13.29 117.207 13.43 118.411 13.388V14.676ZM118.467 17H119.335C119.251 16.174 119.251 15.726 119.251 15.222V11.666C119.251 9.86 117.767 9.79 117.053 9.79C115.821 9.79 114.771 10.322 114.701 11.68H115.597C115.597 10.84 116.213 10.462 116.983 10.462C118.103 10.462 118.411 11.092 118.411 12.128V12.716C116.983 12.828 114.491 12.576 114.491 15.054C114.491 16.286 115.177 17.14 116.437 17.14C117.305 17.14 117.991 16.804 118.439 16.132H118.467V17ZM129.625 12.1C131.571 12.1 131.277 14.046 131.291 14.48C131.305 15.026 131.347 16.706 131.431 17H132.285C132.257 16.608 132.187 16.216 132.187 15.824C132.187 12.212 132.103 12.044 130.689 11.75V11.722C132.047 11.414 132.257 10.574 132.257 9.314C132.257 7.536 131.767 6.892 129.821 6.892H127.035V17H127.931V12.1H129.625ZM127.931 7.648H129.765C130.815 7.648 131.361 7.914 131.361 9.3C131.361 10.994 130.731 11.344 129.387 11.344H127.931V7.648ZM137.591 17.14C139.243 17.14 140.027 16.062 140.027 14.228V12.702C140.027 10.868 139.243 9.79 137.591 9.79C135.939 9.79 135.155 10.868 135.155 12.702V14.228C135.155 16.062 135.939 17.14 137.591 17.14ZM137.591 10.462C138.977 10.462 139.187 11.624 139.187 13.458C139.187 15.306 138.977 16.468 137.591 16.468C136.205 16.468 135.995 15.306 135.995 13.458C135.995 11.624 136.205 10.462 137.591 10.462ZM146.92 15.138C146.92 12.772 143.742 13.248 143.742 11.484C143.742 10.854 144.218 10.462 144.82 10.462C145.772 10.462 146.01 10.938 146.052 11.834H146.878C146.878 10.756 146.43 9.79 145.03 9.79C143.798 9.79 142.902 10.252 142.902 11.554C142.902 13.892 146.08 13.416 146.08 15.264C146.08 16.048 145.688 16.51 144.876 16.51C143.798 16.51 143.574 15.866 143.574 14.9H142.72C142.706 16.398 143.308 17.14 144.834 17.14C146.15 17.14 146.92 16.468 146.92 15.138ZM154.489 13.64C154.489 11.54 154.489 9.79 152.053 9.79C150.471 9.79 149.617 10.728 149.617 12.772V14.508C149.617 16.65 150.835 17.14 152.053 17.14C153.467 17.14 154.391 16.552 154.489 14.844H153.607C153.621 15.796 153.103 16.468 152.053 16.468C150.723 16.468 150.457 15.166 150.457 14.186V13.64H154.489ZM150.457 12.968C150.457 11.4 150.709 10.462 152.053 10.462C153.397 10.462 153.649 11.4 153.649 12.968H150.457ZM158.26 12.562C158.26 10.98 159.03 10.462 159.786 10.462C160.766 10.462 161.088 11.232 161.088 12.058V17H161.928V12.016C161.928 11.092 161.746 9.79 159.996 9.79C159.24 9.79 158.694 10.21 158.288 10.798H158.26V9.93H157.42V17H158.26V12.562ZM165.586 17H166.426V10.602H167.854V9.93H166.426V8.726C166.426 8.32 166.426 7.592 167.238 7.592H167.868V6.892C167.658 6.864 167.518 6.836 167.392 6.836C165.684 6.836 165.586 8.068 165.586 8.74V9.93H164.452V10.602H165.586V17ZM175.027 13.64C175.027 11.54 175.027 9.79 172.591 9.79C171.009 9.79 170.155 10.728 170.155 12.772V14.508C170.155 16.65 171.373 17.14 172.591 17.14C174.005 17.14 174.929 16.552 175.027 14.844H174.145C174.159 15.796 173.641 16.468 172.591 16.468C171.261 16.468 170.995 15.166 170.995 14.186V13.64H175.027ZM170.995 12.968C170.995 11.4 171.247 10.462 172.591 10.462C173.935 10.462 174.187 11.4 174.187 12.968H170.995ZM179.078 17V6.892H178.238V17H179.078ZM184.575 16.468C183.665 16.468 183.035 16.118 183.035 13.486C183.035 11.834 183.035 10.462 184.547 10.462C186.129 10.462 186.129 12.422 186.129 12.842V14.102C186.129 15.824 185.373 16.468 184.575 16.468ZM186.213 17H187.025C186.983 16.762 186.941 16.3 186.941 15.6V6.892H186.101V10.644L186.073 10.63C185.639 10.084 185.009 9.79 184.365 9.79C182.195 9.79 182.195 12.1 182.195 13.458C182.195 15.11 182.307 17.14 184.351 17.14C185.177 17.14 185.709 16.79 186.143 16.118L186.171 16.104L186.213 17ZM189.984 9.426H190.726L191.566 6.892H190.544L189.984 9.426ZM197.289 15.138C197.289 12.772 194.111 13.248 194.111 11.484C194.111 10.854 194.587 10.462 195.189 10.462C196.141 10.462 196.379 10.938 196.421 11.834H197.247C197.247 10.756 196.799 9.79 195.399 9.79C194.167 9.79 193.271 10.252 193.271 11.554C193.271 13.892 196.449 13.416 196.449 15.264C196.449 16.048 196.057 16.51 195.245 16.51C194.167 16.51 193.943 15.866 193.943 14.9H193.089C193.075 16.398 193.677 17.14 195.203 17.14C196.519 17.14 197.289 16.468 197.289 15.138ZM8.478 28.892H7.736L6.896 31.426H7.918L8.478 28.892ZM10.55 28.892H9.808L8.968 31.426H9.99L10.55 28.892ZM16.2154 28.892L13.0234 39H13.9194L14.7174 36.34H18.6794L19.4914 39H20.4294L17.2794 28.892H16.2154ZM14.9834 35.584L16.6914 29.872H16.7194L18.4414 35.584H14.9834ZM23.9947 39V28.892H23.1547V39H23.9947ZM28.4982 39V28.892H27.6582V39H28.4982ZM38.9053 28.892L35.7133 39H36.6093L37.4073 36.34H41.3693L42.1813 39H43.1193L39.9693 28.892H38.9053ZM37.6733 35.584L39.3813 29.872H39.4093L41.1313 35.584H37.6733ZM46.3905 34.45C46.3905 33.526 46.7965 32.462 47.8605 32.462C48.6865 32.462 48.9385 33.246 48.9525 33.946V39H49.7925V34.45C49.7925 33.526 50.1985 32.462 51.2625 32.462C52.0885 32.462 52.3405 33.246 52.3545 33.946V39H53.1945V33.736C53.1525 32.602 52.5365 31.79 51.3605 31.79C50.5765 31.79 49.9745 32.196 49.6245 32.896C49.3865 32.196 48.7425 31.79 48.0145 31.79C47.2305 31.79 46.6705 32.224 46.3345 32.798H46.3065V31.916H45.5505V39H46.3905V34.45ZM60.9924 35.64C60.9924 33.54 60.9924 31.79 58.5564 31.79C56.9744 31.79 56.1204 32.728 56.1204 34.772V36.508C56.1204 38.65 57.3384 39.14 58.5564 39.14C59.9704 39.14 60.8944 38.552 60.9924 36.844H60.1104C60.1244 37.796 59.6064 38.468 58.5564 38.468C57.2264 38.468 56.9604 37.166 56.9604 36.186V35.64H60.9924ZM56.9604 34.968C56.9604 33.4 57.2124 32.462 58.5564 32.462C59.9004 32.462 60.1524 33.4 60.1524 34.968H56.9604ZM64.8191 31.93H63.9791V39H64.8191V34.45C64.8191 33.26 65.6031 32.546 66.7931 32.644V31.79C65.9391 31.79 65.1971 32.21 64.8471 32.882H64.8191V31.93ZM70.3396 39V31.93H69.4996V39H70.3396ZM70.4376 29.956V28.892H69.4016V29.956H70.4376ZM77.7131 33.96C77.7831 32.476 76.9571 31.79 75.7391 31.79C74.7731 31.79 73.9751 32.154 73.6111 33.162C73.4291 33.694 73.4011 34.8 73.4011 35.5C73.4011 37.25 73.4011 39.14 75.7951 39.14C76.4531 39.14 77.7971 38.818 77.7271 36.914H76.8871C76.8451 37.768 76.7051 38.468 75.5991 38.468C74.2971 38.468 74.2971 36.774 74.2971 35.5C74.2971 34.562 74.3811 33.596 74.4931 33.274C74.6751 32.756 75.1091 32.462 75.6271 32.462C76.5931 32.462 76.9151 33.078 76.8731 33.96H77.7131ZM84.1625 36.676C84.1625 37.6 83.3785 38.468 82.4125 38.468C81.5445 38.468 81.1385 37.81 81.1385 37.012C81.1385 35.29 82.9585 35.43 84.1625 35.388V36.676ZM84.2185 39H85.0865C85.0025 38.174 85.0025 37.726 85.0025 37.222V33.666C85.0025 31.86 83.5185 31.79 82.8045 31.79C81.5725 31.79 80.5225 32.322 80.4525 33.68H81.3485C81.3485 32.84 81.9645 32.462 82.7345 32.462C83.8545 32.462 84.1625 33.092 84.1625 34.128V34.716C82.7345 34.828 80.2425 34.576 80.2425 37.054C80.2425 38.286 80.9285 39.14 82.1885 39.14C83.0565 39.14 83.7425 38.804 84.1905 38.132H84.2185V39ZM89.0253 34.562C89.0253 32.98 89.7953 32.462 90.5513 32.462C91.5313 32.462 91.8533 33.232 91.8533 34.058V39H92.6933V34.016C92.6933 33.092 92.5113 31.79 90.7613 31.79C90.0053 31.79 89.4593 32.21 89.0533 32.798H89.0253V31.93H88.1853V39H89.0253V34.562ZM101.359 39V34.184H105.335V39H106.231V28.892H105.335V33.428H101.359V28.892H100.463V39H101.359ZM110.609 39V31.93H109.769V39H110.609ZM110.707 29.956V28.892H109.671V29.956H110.707ZM116.05 32.462C116.834 32.462 117.632 33.022 117.632 34.506C117.632 36.578 117.576 36.9 117.366 37.446C117.24 37.782 116.792 38.244 116.092 38.244C114.566 38.244 114.566 36.774 114.566 35.304C114.566 34.254 114.594 32.462 116.05 32.462ZM117.688 32.812L117.66 32.784C117.352 32.154 116.638 31.79 115.924 31.79C114.496 31.79 114.006 32.896 113.936 33.19C113.74 33.946 113.726 33.96 113.726 35.598C113.726 37.166 113.866 38.916 115.896 38.916C116.568 38.916 117.24 38.664 117.604 38.062H117.632C117.632 40.176 117.73 41.058 116.092 41.058C115.308 41.058 114.706 40.582 114.762 39.77H113.922C113.866 40.484 114.216 41.73 115.98 41.73C117.996 41.73 118.472 40.806 118.472 39.252V33.302C118.472 32.938 118.486 32.588 118.514 31.916H117.688V32.812ZM122.453 39V34.562C122.453 32.98 123.223 32.462 123.979 32.462C124.959 32.462 125.281 33.232 125.281 34.058V39H126.121V34.016C126.121 33.092 125.939 31.79 124.189 31.79C123.433 31.79 122.887 32.21 122.481 32.798H122.453V28.892H121.613V39H122.453ZM136.425 34.1C138.371 34.1 138.077 36.046 138.091 36.48C138.105 37.026 138.147 38.706 138.231 39H139.085C139.057 38.608 138.987 38.216 138.987 37.824C138.987 34.212 138.903 34.044 137.489 33.75V33.722C138.847 33.414 139.057 32.574 139.057 31.314C139.057 29.536 138.567 28.892 136.621 28.892H133.835V39H134.731V34.1H136.425ZM134.731 29.648H136.565C137.615 29.648 138.161 29.914 138.161 31.3C138.161 32.994 137.531 33.344 136.187 33.344H134.731V29.648ZM146.827 35.64C146.827 33.54 146.827 31.79 144.391 31.79C142.809 31.79 141.955 32.728 141.955 34.772V36.508C141.955 38.65 143.173 39.14 144.391 39.14C145.805 39.14 146.729 38.552 146.827 36.844H145.945C145.959 37.796 145.441 38.468 144.391 38.468C143.061 38.468 142.795 37.166 142.795 36.186V35.64H146.827ZM142.795 34.968C142.795 33.4 143.047 32.462 144.391 32.462C145.735 32.462 145.987 33.4 145.987 34.968H142.795ZM149.954 31.93H149.044L151.144 39H152.11L154.21 31.93H153.398L151.676 37.936H151.648L149.954 31.93ZM157.719 39V31.93H156.879V39H157.719ZM157.817 29.956V28.892H156.781V29.956H157.817ZM165.065 37.138C165.065 34.772 161.887 35.248 161.887 33.484C161.887 32.854 162.363 32.462 162.965 32.462C163.917 32.462 164.155 32.938 164.197 33.834H165.023C165.023 32.756 164.575 31.79 163.175 31.79C161.943 31.79 161.047 32.252 161.047 33.554C161.047 35.892 164.225 35.416 164.225 37.264C164.225 38.048 163.833 38.51 163.021 38.51C161.943 38.51 161.719 37.866 161.719 36.9H160.865C160.851 38.398 161.453 39.14 162.979 39.14C164.295 39.14 165.065 38.468 165.065 37.138ZM169.064 39V31.93H168.224V39H169.064ZM169.162 29.956V28.892H168.126V29.956H169.162ZM172.952 32.602V37.656C172.952 38.524 173.288 39.028 174.422 39.028C174.688 39.028 174.968 39.014 175.22 38.986V38.258C175.038 38.286 174.842 38.3 174.562 38.3C173.89 38.3 173.792 38.076 173.792 37.138V32.602H175.22V31.93H173.792V30.11L172.952 30.474V31.93H171.818V32.602H172.952ZM182.434 35.64C182.434 33.54 182.434 31.79 179.998 31.79C178.416 31.79 177.562 32.728 177.562 34.772V36.508C177.562 38.65 178.78 39.14 179.998 39.14C181.412 39.14 182.336 38.552 182.434 36.844H181.552C181.566 37.796 181.048 38.468 179.998 38.468C178.668 38.468 178.402 37.166 178.402 36.186V35.64H182.434ZM178.402 34.968C178.402 33.4 178.654 32.462 179.998 32.462C181.342 32.462 181.594 33.4 181.594 34.968H178.402ZM187.479 38.468C186.569 38.468 185.939 38.118 185.939 35.486C185.939 33.834 185.939 32.462 187.451 32.462C189.033 32.462 189.033 34.422 189.033 34.842V36.102C189.033 37.824 188.277 38.468 187.479 38.468ZM189.117 39H189.929C189.887 38.762 189.845 38.3 189.845 37.6V28.892H189.005V32.644L188.977 32.63C188.543 32.084 187.913 31.79 187.269 31.79C185.099 31.79 185.099 34.1 185.099 35.458C185.099 37.11 185.211 39.14 187.255 39.14C188.081 39.14 188.613 38.79 189.047 38.118L189.075 38.104L189.117 39ZM193.028 31.426H193.77L194.61 28.892H193.588L193.028 31.426ZM195.1 31.426H195.842L196.682 28.892H195.66L195.1 31.426ZM206.445 38.468C205.535 38.468 204.905 38.118 204.905 35.486C204.905 33.834 204.905 32.462 206.417 32.462C207.999 32.462 207.999 34.422 207.999 34.842V36.102C207.999 37.824 207.243 38.468 206.445 38.468ZM208.083 39H208.895C208.853 38.762 208.811 38.3 208.811 37.6V28.892H207.971V32.644L207.943 32.63C207.509 32.084 206.879 31.79 206.235 31.79C204.065 31.79 204.065 34.1 204.065 35.458C204.065 37.11 204.177 39.14 206.221 39.14C207.047 39.14 207.579 38.79 208.013 38.118L208.041 38.104L208.083 39ZM214.205 39.14C215.857 39.14 216.641 38.062 216.641 36.228V34.702C216.641 32.868 215.857 31.79 214.205 31.79C212.553 31.79 211.769 32.868 211.769 34.702V36.228C211.769 38.062 212.553 39.14 214.205 39.14ZM214.205 32.462C215.591 32.462 215.801 33.624 215.801 35.458C215.801 37.306 215.591 38.468 214.205 38.468C212.819 38.468 212.609 37.306 212.609 35.458C212.609 33.624 212.819 32.462 214.205 32.462ZM223.562 33.96C223.632 32.476 222.806 31.79 221.588 31.79C220.622 31.79 219.824 32.154 219.46 33.162C219.278 33.694 219.25 34.8 219.25 35.5C219.25 37.25 219.25 39.14 221.644 39.14C222.302 39.14 223.646 38.818 223.576 36.914H222.736C222.694 37.768 222.554 38.468 221.448 38.468C220.146 38.468 220.146 36.774 220.146 35.5C220.146 34.562 220.23 33.596 220.342 33.274C220.524 32.756 220.958 32.462 221.476 32.462C222.442 32.462 222.764 33.078 222.722 33.96H223.562ZM230.025 31.93V36.914C230.025 37.404 229.619 38.468 228.485 38.468C227.267 38.468 227.309 36.984 227.309 36.788V31.93H226.469V36.928C226.469 38.076 226.875 39.14 228.331 39.14C229.115 39.14 229.619 38.818 230.109 38.216H230.137V39H230.865V31.93H230.025ZM234.86 34.45C234.86 33.526 235.266 32.462 236.33 32.462C237.156 32.462 237.408 33.246 237.422 33.946V39H238.262V34.45C238.262 33.526 238.668 32.462 239.732 32.462C240.558 32.462 240.81 33.246 240.824 33.946V39H241.664V33.736C241.622 32.602 241.006 31.79 239.83 31.79C239.046 31.79 238.444 32.196 238.094 32.896C237.856 32.196 237.212 31.79 236.484 31.79C235.7 31.79 235.14 32.224 234.804 32.798H234.776V31.916H234.02V39H234.86V34.45ZM249.462 35.64C249.462 33.54 249.462 31.79 247.026 31.79C245.444 31.79 244.59 32.728 244.59 34.772V36.508C244.59 38.65 245.808 39.14 247.026 39.14C248.44 39.14 249.364 38.552 249.462 36.844H248.58C248.594 37.796 248.076 38.468 247.026 38.468C245.696 38.468 245.43 37.166 245.43 36.186V35.64H249.462ZM245.43 34.968C245.43 33.4 245.682 32.462 247.026 32.462C248.37 32.462 248.622 33.4 248.622 34.968H245.43ZM253.233 34.562C253.233 32.98 254.003 32.462 254.759 32.462C255.739 32.462 256.061 33.232 256.061 34.058V39H256.901V34.016C256.901 33.092 256.719 31.79 254.969 31.79C254.213 31.79 253.667 32.21 253.261 32.798H253.233V31.93H252.393V39H253.233V34.562ZM260.517 32.602V37.656C260.517 38.524 260.853 39.028 261.987 39.028C262.253 39.028 262.533 39.014 262.785 38.986V38.258C262.603 38.286 262.407 38.3 262.127 38.3C261.455 38.3 261.357 38.076 261.357 37.138V32.602H262.785V31.93H261.357V30.11L260.517 30.474V31.93H259.383V32.602H260.517ZM268.908 36.676C268.908 37.6 268.124 38.468 267.158 38.468C266.29 38.468 265.884 37.81 265.884 37.012C265.884 35.29 267.704 35.43 268.908 35.388V36.676ZM268.964 39H269.832C269.748 38.174 269.748 37.726 269.748 37.222V33.666C269.748 31.86 268.264 31.79 267.55 31.79C266.318 31.79 265.268 32.322 265.198 33.68H266.094C266.094 32.84 266.71 32.462 267.48 32.462C268.6 32.462 268.908 33.092 268.908 34.128V34.716C267.48 34.828 264.988 34.576 264.988 37.054C264.988 38.286 265.674 39.14 266.934 39.14C267.802 39.14 268.488 38.804 268.936 38.132H268.964V39ZM273.827 31.93H272.987V39H273.827V34.45C273.827 33.26 274.611 32.546 275.801 32.644V31.79C274.947 31.79 274.205 32.21 273.855 32.882H273.827V31.93ZM278.927 41.674H279.753L282.679 31.93H281.839L280.173 37.726H280.145L278.423 31.93H277.513L279.753 39.014L278.927 41.674ZM284.553 39H285.589V37.936H284.553V39Z" fill="white"/>
</svg>
