<svg width="229" height="31" viewBox="0 0 229 31" fill="none" xmlns="http://www.w3.org/2000/svg">
<rect width="229" height="31" fill="black" fill-opacity="0.69"/>
<path d="M8.946 9.648H10.122C12.614 9.648 13.006 10.488 13.006 13.386C13.006 17.516 12.74 18.244 10.038 18.244H8.946V9.648ZM8.05 19H10.36C13.412 19 13.902 17.348 13.902 13.988C13.902 10.544 13.552 8.892 10.724 8.892H8.05V19ZM20.6313 16.676C20.6313 17.6 19.8473 18.468 18.8813 18.468C18.0133 18.468 17.6073 17.81 17.6073 17.012C17.6073 15.29 19.4273 15.43 20.6313 15.388V16.676ZM20.6873 19H21.5553C21.4713 18.174 21.4713 17.726 21.4713 17.222V13.666C21.4713 11.86 19.9873 11.79 19.2733 11.79C18.0413 11.79 16.9913 12.322 16.9213 13.68H17.8173C17.8173 12.84 18.4333 12.462 19.2033 12.462C20.3233 12.462 20.6313 13.092 20.6313 14.128V14.716C19.2033 14.828 16.7113 14.576 16.7113 17.054C16.7113 18.286 17.3973 19.14 18.6573 19.14C19.5253 19.14 20.2113 18.804 20.6593 18.132H20.6873V19ZM24.85 11.93H23.94L26.04 19H27.006L29.106 11.93H28.294L26.572 17.936H26.544L24.85 11.93ZM32.6154 19V11.93H31.7754V19H32.6154ZM32.7134 9.956V8.892H31.6774V9.956H32.7134ZM38.1129 18.468C37.2029 18.468 36.5729 18.118 36.5729 15.486C36.5729 13.834 36.5729 12.462 38.0849 12.462C39.6669 12.462 39.6669 14.422 39.6669 14.842V16.102C39.6669 17.824 38.9109 18.468 38.1129 18.468ZM39.7509 19H40.5629C40.5209 18.762 40.4789 18.3 40.4789 17.6V8.892H39.6389V12.644L39.6109 12.63C39.1769 12.084 38.5469 11.79 37.9029 11.79C35.7329 11.79 35.7329 14.1 35.7329 15.458C35.7329 17.11 35.8449 19.14 37.8889 19.14C38.7149 19.14 39.2469 18.79 39.6809 18.118L39.7089 18.104L39.7509 19ZM48.2211 19H49.1171V14.184H52.2531V13.428H49.1171V9.648H52.4911V8.892H48.2211V19ZM56.0845 19V11.93H55.2445V19H56.0845ZM56.1825 9.956V8.892H55.1465V9.956H56.1825ZM59.9721 12.602V17.656C59.9721 18.524 60.3081 19.028 61.4421 19.028C61.7081 19.028 61.9881 19.014 62.2401 18.986V18.258C62.0581 18.286 61.8621 18.3 61.5821 18.3C60.9101 18.3 60.8121 18.076 60.8121 17.138V12.602H62.2401V11.93H60.8121V10.11L59.9721 10.474V11.93H58.8381V12.602H59.9721ZM64.3025 19H68.1665V18.328H65.2265L68.0965 12.63V11.93H64.4705V12.602H67.2425L64.3025 18.314V19ZM74.7887 17.138C74.7887 14.772 71.6107 15.248 71.6107 13.484C71.6107 12.854 72.0867 12.462 72.6887 12.462C73.6407 12.462 73.8787 12.938 73.9207 13.834H74.7467C74.7467 12.756 74.2987 11.79 72.8987 11.79C71.6667 11.79 70.7707 12.252 70.7707 13.554C70.7707 15.892 73.9487 15.416 73.9487 17.264C73.9487 18.048 73.5567 18.51 72.7447 18.51C71.6667 18.51 71.4427 17.866 71.4427 16.9H70.5887C70.5747 18.398 71.1767 19.14 72.7027 19.14C74.0187 19.14 74.7887 18.468 74.7887 17.138ZM78.7881 19V11.93H77.9481V19H78.7881ZM78.8861 9.956V8.892H77.8501V9.956H78.8861ZM82.9976 14.45C82.9976 13.526 83.4036 12.462 84.4676 12.462C85.2936 12.462 85.5456 13.246 85.5596 13.946V19H86.3996V14.45C86.3996 13.526 86.8056 12.462 87.8696 12.462C88.6956 12.462 88.9476 13.246 88.9616 13.946V19H89.8016V13.736C89.7596 12.602 89.1436 11.79 87.9676 11.79C87.1836 11.79 86.5816 12.196 86.2316 12.896C85.9936 12.196 85.3496 11.79 84.6216 11.79C83.8376 11.79 83.2776 12.224 82.9416 12.798H82.9136V11.916H82.1576V19H82.9976V14.45ZM93.7355 14.45C93.7355 13.526 94.1415 12.462 95.2055 12.462C96.0315 12.462 96.2835 13.246 96.2975 13.946V19H97.1375V14.45C97.1375 13.526 97.5435 12.462 98.6075 12.462C99.4335 12.462 99.6855 13.246 99.6995 13.946V19H100.539V13.736C100.497 12.602 99.8815 11.79 98.7055 11.79C97.9215 11.79 97.3195 12.196 96.9695 12.896C96.7315 12.196 96.0875 11.79 95.3595 11.79C94.5755 11.79 94.0155 12.224 93.6795 12.798H93.6515V11.916H92.8955V19H93.7355V14.45ZM105.901 19.14C107.553 19.14 108.337 18.062 108.337 16.228V14.702C108.337 12.868 107.553 11.79 105.901 11.79C104.249 11.79 103.465 12.868 103.465 14.702V16.228C103.465 18.062 104.249 19.14 105.901 19.14ZM105.901 12.462C107.287 12.462 107.497 13.624 107.497 15.458C107.497 17.306 107.287 18.468 105.901 18.468C104.515 18.468 104.305 17.306 104.305 15.458C104.305 13.624 104.515 12.462 105.901 12.462ZM112.108 14.562C112.108 12.98 112.878 12.462 113.634 12.462C114.614 12.462 114.936 13.232 114.936 14.058V19H115.776V14.016C115.776 13.092 115.594 11.79 113.844 11.79C113.088 11.79 112.542 12.21 112.136 12.798H112.108V11.93H111.268V19H112.108V14.562ZM122.851 17.138C122.851 14.772 119.673 15.248 119.673 13.484C119.673 12.854 120.149 12.462 120.751 12.462C121.703 12.462 121.941 12.938 121.983 13.834H122.809C122.809 12.756 122.361 11.79 120.961 11.79C119.729 11.79 118.833 12.252 118.833 13.554C118.833 15.892 122.011 15.416 122.011 17.264C122.011 18.048 121.619 18.51 120.807 18.51C119.729 18.51 119.505 17.866 119.505 16.9H118.651C118.637 18.398 119.239 19.14 120.765 19.14C122.081 19.14 122.851 18.468 122.851 17.138ZM134.224 13.96C134.294 12.476 133.468 11.79 132.25 11.79C131.284 11.79 130.486 12.154 130.122 13.162C129.94 13.694 129.912 14.8 129.912 15.5C129.912 17.25 129.912 19.14 132.306 19.14C132.964 19.14 134.308 18.818 134.238 16.914H133.398C133.356 17.768 133.216 18.468 132.11 18.468C130.808 18.468 130.808 16.774 130.808 15.5C130.808 14.562 130.892 13.596 131.004 13.274C131.186 12.756 131.62 12.462 132.138 12.462C133.104 12.462 133.426 13.078 133.384 13.96H134.224ZM140.673 16.676C140.673 17.6 139.889 18.468 138.923 18.468C138.055 18.468 137.649 17.81 137.649 17.012C137.649 15.29 139.469 15.43 140.673 15.388V16.676ZM140.729 19H141.597C141.513 18.174 141.513 17.726 141.513 17.222V13.666C141.513 11.86 140.029 11.79 139.315 11.79C138.083 11.79 137.033 12.322 136.963 13.68H137.859C137.859 12.84 138.475 12.462 139.245 12.462C140.365 12.462 140.673 13.092 140.673 14.128V14.716C139.245 14.828 136.753 14.576 136.753 17.054C136.753 18.286 137.439 19.14 138.699 19.14C139.567 19.14 140.253 18.804 140.701 18.132H140.729V19ZM145.592 11.93H144.752V19H145.592V14.45C145.592 13.26 146.376 12.546 147.566 12.644V11.79C146.712 11.79 145.97 12.21 145.62 12.882H145.592V11.93ZM150.496 12.602V17.656C150.496 18.524 150.832 19.028 151.966 19.028C152.232 19.028 152.512 19.014 152.764 18.986V18.258C152.582 18.286 152.386 18.3 152.106 18.3C151.434 18.3 151.336 18.076 151.336 17.138V12.602H152.764V11.93H151.336V10.11L150.496 10.474V11.93H149.362V12.602H150.496ZM157.543 19.14C159.195 19.14 159.979 18.062 159.979 16.228V14.702C159.979 12.868 159.195 11.79 157.543 11.79C155.891 11.79 155.107 12.868 155.107 14.702V16.228C155.107 18.062 155.891 19.14 157.543 19.14ZM157.543 12.462C158.929 12.462 159.139 13.624 159.139 15.458C159.139 17.306 158.929 18.468 157.543 18.468C156.157 18.468 155.947 17.306 155.947 15.458C155.947 13.624 156.157 12.462 157.543 12.462ZM165.163 19.14C166.815 19.14 167.599 18.062 167.599 16.228V14.702C167.599 12.868 166.815 11.79 165.163 11.79C163.511 11.79 162.727 12.868 162.727 14.702V16.228C162.727 18.062 163.511 19.14 165.163 19.14ZM165.163 12.462C166.549 12.462 166.759 13.624 166.759 15.458C166.759 17.306 166.549 18.468 165.163 18.468C163.777 18.468 163.567 17.306 163.567 15.458C163.567 13.624 163.777 12.462 165.163 12.462ZM171.37 14.562C171.37 12.98 172.14 12.462 172.896 12.462C173.876 12.462 174.198 13.232 174.198 14.058V19H175.038V14.016C175.038 13.092 174.856 11.79 173.106 11.79C172.35 11.79 171.804 12.21 171.398 12.798H171.37V11.93H170.53V19H171.37V14.562ZM183.438 8.598C182.738 10.628 182.234 12.728 182.234 14.884C182.234 16.928 182.766 18.916 183.382 20.848H184.068C183.494 18.846 183.13 16.76 183.13 14.674C183.13 12.616 183.564 10.586 184.068 8.598H183.438ZM191.82 18.244H187.83C191.092 13.344 191.806 12.546 191.806 11.118C191.806 9.452 190.448 9.088 189.314 9.088C188.18 9.088 186.878 9.676 186.878 11.622H187.718C187.718 10.614 188.25 9.844 189.314 9.844C190.084 9.844 190.91 10.012 190.91 11.314C190.91 12.616 189.02 14.856 186.85 18.216V19H191.82V18.244ZM195.437 12.21C195.437 10.012 196.403 9.844 197.033 9.844C197.663 9.844 198.629 10.012 198.629 12.21V16.032C198.629 18.23 197.663 18.398 197.033 18.398C196.403 18.398 195.437 18.23 195.437 16.032V12.21ZM197.033 9.088C194.541 9.088 194.541 11.23 194.541 13.064V15.178C194.541 17.012 194.541 19.154 197.033 19.154C199.525 19.154 199.525 17.012 199.525 15.178V13.064C199.525 11.23 199.525 9.088 197.033 9.088ZM203.057 12.21C203.057 10.012 204.023 9.844 204.653 9.844C205.283 9.844 206.249 10.012 206.249 12.21V16.032C206.249 18.23 205.283 18.398 204.653 18.398C204.023 18.398 203.057 18.23 203.057 16.032V12.21ZM204.653 9.088C202.161 9.088 202.161 11.23 202.161 13.064V15.178C202.161 17.012 202.161 19.154 204.653 19.154C207.145 19.154 207.145 17.012 207.145 15.178V13.064C207.145 11.23 207.145 9.088 204.653 9.088ZM212.274 13.568C211.098 13.568 210.72 12.77 210.72 11.65C210.72 10.502 211.028 9.76 212.274 9.76C213.52 9.76 213.828 10.502 213.828 11.65C213.828 12.77 213.45 13.568 212.274 13.568ZM213.282 13.862C214.5 13.61 214.724 12.63 214.724 11.524C214.724 10.628 214.654 9.088 212.274 9.088C209.894 9.088 209.824 10.628 209.824 11.524C209.824 12.63 210.048 13.61 211.238 13.862L211.266 13.89C209.936 14.184 209.726 15.164 209.726 16.354C209.726 17.628 210.062 19.154 212.274 19.154C214.486 19.154 214.822 17.628 214.822 16.354C214.822 15.164 214.612 14.184 213.282 13.89V13.862ZM212.274 18.482C211.014 18.482 210.622 17.6 210.622 16.466C210.622 15.416 210.734 14.24 212.274 14.24C213.814 14.24 213.926 15.416 213.926 16.466C213.926 17.6 213.534 18.482 212.274 18.482ZM217.627 8.598C218.131 10.586 218.565 12.616 218.565 14.674C218.565 16.76 218.201 18.846 217.627 20.848H218.313C218.929 18.916 219.461 16.928 219.461 14.884C219.461 12.728 218.957 10.628 218.257 8.598H217.627ZM222.326 19H223.362V17.936H222.326V19Z" fill="white"/>
</svg>
