<svg width="404" height="30" viewBox="0 0 404 30" fill="none" xmlns="http://www.w3.org/2000/svg">
<rect width="390.103" height="30" fill="black" fill-opacity="0.69"/>
<path d="M6.952 17H7.848V12.184H10.984V11.428H7.848V7.648H11.222V6.892H6.952V17ZM14.5914 9.93H13.7514V17H14.5914V12.45C14.5914 11.26 15.3754 10.546 16.5654 10.644V9.79C15.7114 9.79 14.9694 10.21 14.6194 10.882H14.5914V9.93ZM22.5899 14.676C22.5899 15.6 21.8059 16.468 20.8399 16.468C19.9719 16.468 19.5659 15.81 19.5659 15.012C19.5659 13.29 21.3859 13.43 22.5899 13.388V14.676ZM22.6459 17H23.5139C23.4299 16.174 23.4299 15.726 23.4299 15.222V11.666C23.4299 9.86 21.9459 9.79 21.2319 9.79C19.9999 9.79 18.9499 10.322 18.8799 11.68H19.7759C19.7759 10.84 20.3919 10.462 21.1619 10.462C22.2819 10.462 22.5899 11.092 22.5899 12.128V12.716C21.1619 12.828 18.6699 12.576 18.6699 15.054C18.6699 16.286 19.3559 17.14 20.6159 17.14C21.4839 17.14 22.1699 16.804 22.6179 16.132H22.6459V17ZM27.4386 12.45C27.4386 11.526 27.8446 10.462 28.9086 10.462C29.7346 10.462 29.9866 11.246 30.0006 11.946V17H30.8406V12.45C30.8406 11.526 31.2466 10.462 32.3106 10.462C33.1366 10.462 33.3886 11.246 33.4026 11.946V17H34.2426V11.736C34.2006 10.602 33.5846 9.79 32.4086 9.79C31.6246 9.79 31.0226 10.196 30.6726 10.896C30.4346 10.196 29.7906 9.79 29.0626 9.79C28.2786 9.79 27.7186 10.224 27.3826 10.798H27.3546V9.916H26.5986V17H27.4386V12.45ZM42.0405 13.64C42.0405 11.54 42.0405 9.79 39.6045 9.79C38.0225 9.79 37.1685 10.728 37.1685 12.772V14.508C37.1685 16.65 38.3865 17.14 39.6045 17.14C41.0185 17.14 41.9425 16.552 42.0405 14.844H41.1585C41.1725 15.796 40.6545 16.468 39.6045 16.468C38.2745 16.468 38.0085 15.166 38.0085 14.186V13.64H42.0405ZM38.0085 12.968C38.0085 11.4 38.2605 10.462 39.6045 10.462C40.9485 10.462 41.2005 11.4 41.2005 12.968H38.0085ZM48.9332 15.138C48.9332 12.772 45.7552 13.248 45.7552 11.484C45.7552 10.854 46.2312 10.462 46.8332 10.462C47.7852 10.462 48.0232 10.938 48.0652 11.834H48.8912C48.8912 10.756 48.4432 9.79 47.0432 9.79C45.8112 9.79 44.9152 10.252 44.9152 11.554C44.9152 13.892 48.0932 13.416 48.0932 15.264C48.0932 16.048 47.7012 16.51 46.8892 16.51C45.8112 16.51 45.5872 15.866 45.5872 14.9H44.7332C44.7192 16.398 45.3212 17.14 46.8472 17.14C48.1632 17.14 48.9332 16.468 48.9332 15.138ZM56.8621 17H57.7021V10.602H59.1301V9.93H57.7021V8.726C57.7021 8.32 57.7021 7.592 58.5141 7.592H59.1441V6.892C58.9341 6.864 58.7941 6.836 58.6681 6.836C56.9601 6.836 56.8621 8.068 56.8621 8.74V9.93H55.7281V10.602H56.8621V17ZM62.5086 9.93H61.6686V17H62.5086V12.45C62.5086 11.26 63.2926 10.546 64.4826 10.644V9.79C63.6286 9.79 62.8866 10.21 62.5366 10.882H62.5086V9.93ZM69.1631 17.14C70.8151 17.14 71.5991 16.062 71.5991 14.228V12.702C71.5991 10.868 70.8151 9.79 69.1631 9.79C67.5111 9.79 66.7271 10.868 66.7271 12.702V14.228C66.7271 16.062 67.5111 17.14 69.1631 17.14ZM69.1631 10.462C70.5491 10.462 70.7591 11.624 70.7591 13.458C70.7591 15.306 70.5491 16.468 69.1631 16.468C67.7771 16.468 67.5671 15.306 67.5671 13.458C67.5671 11.624 67.7771 10.462 69.1631 10.462ZM75.3558 12.45C75.3558 11.526 75.7618 10.462 76.8258 10.462C77.6518 10.462 77.9038 11.246 77.9178 11.946V17H78.7578V12.45C78.7578 11.526 79.1638 10.462 80.2278 10.462C81.0538 10.462 81.3058 11.246 81.3198 11.946V17H82.1598V11.736C82.1178 10.602 81.5018 9.79 80.3258 9.79C79.5418 9.79 78.9398 10.196 78.5898 10.896C78.3518 10.196 77.7078 9.79 76.9798 9.79C76.1958 9.79 75.6358 10.224 75.2998 10.798H75.2718V9.916H74.5158V17H75.3558V12.45ZM89.8692 17H90.7652V12.184H93.9012V11.428H90.7652V7.648H94.1392V6.892H89.8692V17ZM97.5086 9.93H96.6686V17H97.5086V12.45C97.5086 11.26 98.2926 10.546 99.4826 10.644V9.79C98.6286 9.79 97.8866 10.21 97.5366 10.882H97.5086V9.93ZM106.599 13.64C106.599 11.54 106.599 9.79 104.163 9.79C102.581 9.79 101.727 10.728 101.727 12.772V14.508C101.727 16.65 102.945 17.14 104.163 17.14C105.577 17.14 106.501 16.552 106.599 14.844H105.717C105.731 15.796 105.213 16.468 104.163 16.468C102.833 16.468 102.567 15.166 102.567 14.186V13.64H106.599ZM102.567 12.968C102.567 11.4 102.819 10.462 104.163 10.462C105.507 10.462 105.759 11.4 105.759 12.968H102.567ZM111.644 16.468C110.734 16.468 110.104 16.118 110.104 13.486C110.104 11.834 110.104 10.462 111.616 10.462C113.198 10.462 113.198 12.422 113.198 12.842V14.102C113.198 15.824 112.442 16.468 111.644 16.468ZM113.282 17H114.094C114.052 16.762 114.01 16.3 114.01 15.6V6.892H113.17V10.644L113.142 10.63C112.708 10.084 112.078 9.79 111.434 9.79C109.264 9.79 109.264 12.1 109.264 13.458C109.264 15.11 109.376 17.14 111.42 17.14C112.246 17.14 112.778 16.79 113.212 16.118L113.24 16.104L113.282 17ZM121.84 13.64C121.84 11.54 121.84 9.79 119.404 9.79C117.822 9.79 116.968 10.728 116.968 12.772V14.508C116.968 16.65 118.186 17.14 119.404 17.14C120.818 17.14 121.742 16.552 121.84 14.844H120.958C120.972 15.796 120.454 16.468 119.404 16.468C118.074 16.468 117.808 15.166 117.808 14.186V13.64H121.84ZM117.808 12.968C117.808 11.4 118.06 10.462 119.404 10.462C120.748 10.462 121 11.4 121 12.968H117.808ZM125.667 9.93H124.827V17H125.667V12.45C125.667 11.26 126.451 10.546 127.641 10.644V9.79C126.787 9.79 126.045 10.21 125.695 10.882H125.667V9.93ZM131.188 17V9.93H130.348V17H131.188ZM131.286 7.956V6.892H130.25V7.956H131.286ZM138.561 11.96C138.631 10.476 137.805 9.79 136.587 9.79C135.621 9.79 134.823 10.154 134.459 11.162C134.277 11.694 134.249 12.8 134.249 13.5C134.249 15.25 134.249 17.14 136.643 17.14C137.301 17.14 138.645 16.818 138.575 14.914H137.735C137.693 15.768 137.553 16.468 136.447 16.468C135.145 16.468 135.145 14.774 135.145 13.5C135.145 12.562 135.229 11.596 135.341 11.274C135.523 10.756 135.957 10.462 136.475 10.462C137.441 10.462 137.763 11.078 137.721 11.96H138.561ZM141.441 17H142.281V13.15H142.309L144.829 17H145.893L143.219 13.08L145.725 9.93H144.745L142.309 13.052H142.281V6.892H141.441V17ZM155.068 15.824H155.04L152.996 6.892H152.044L154.48 17H155.6L157.686 8.012H157.714L159.744 17H160.92L163.426 6.892H162.544L160.388 15.754H160.36L158.33 6.892H157.126L155.068 15.824ZM166.94 17V9.93H166.1V17H166.94ZM167.038 7.956V6.892H166.002V7.956H167.038ZM174.285 15.138C174.285 12.772 171.107 13.248 171.107 11.484C171.107 10.854 171.583 10.462 172.185 10.462C173.137 10.462 173.375 10.938 173.417 11.834H174.243C174.243 10.756 173.795 9.79 172.395 9.79C171.163 9.79 170.267 10.252 170.267 11.554C170.267 13.892 173.445 13.416 173.445 15.264C173.445 16.048 173.053 16.51 172.241 16.51C171.163 16.51 170.939 15.866 170.939 14.9H170.085C170.071 16.398 170.673 17.14 172.199 17.14C173.515 17.14 174.285 16.468 174.285 15.138ZM181.855 13.64C181.855 11.54 181.855 9.79 179.419 9.79C177.837 9.79 176.983 10.728 176.983 12.772V14.508C176.983 16.65 178.201 17.14 179.419 17.14C180.833 17.14 181.757 16.552 181.855 14.844H180.973C180.987 15.796 180.469 16.468 179.419 16.468C178.089 16.468 177.823 15.166 177.823 14.186V13.64H181.855ZM177.823 12.968C177.823 11.4 178.075 10.462 179.419 10.462C180.763 10.462 181.015 11.4 181.015 12.968H177.823ZM185.611 12.45C185.611 11.526 186.017 10.462 187.081 10.462C187.907 10.462 188.159 11.246 188.173 11.946V17H189.013V12.45C189.013 11.526 189.419 10.462 190.483 10.462C191.309 10.462 191.561 11.246 191.575 11.946V17H192.415V11.736C192.373 10.602 191.757 9.79 190.581 9.79C189.797 9.79 189.195 10.196 188.845 10.896C188.607 10.196 187.963 9.79 187.235 9.79C186.451 9.79 185.891 10.224 185.555 10.798H185.527V9.916H184.771V17H185.611V12.45ZM199.121 14.676C199.121 15.6 198.337 16.468 197.371 16.468C196.503 16.468 196.097 15.81 196.097 15.012C196.097 13.29 197.917 13.43 199.121 13.388V14.676ZM199.177 17H200.045C199.961 16.174 199.961 15.726 199.961 15.222V11.666C199.961 9.86 198.477 9.79 197.763 9.79C196.531 9.79 195.481 10.322 195.411 11.68H196.307C196.307 10.84 196.923 10.462 197.693 10.462C198.813 10.462 199.121 11.092 199.121 12.128V12.716C197.693 12.828 195.201 12.576 195.201 15.054C195.201 16.286 195.887 17.14 197.147 17.14C198.015 17.14 198.701 16.804 199.149 16.132H199.177V17ZM203.984 12.562C203.984 10.98 204.754 10.462 205.51 10.462C206.49 10.462 206.812 11.232 206.812 12.058V17H207.652V12.016C207.652 11.092 207.47 9.79 205.72 9.79C204.964 9.79 204.418 10.21 204.012 10.798H203.984V9.93H203.144V17H203.984V12.562ZM210.667 9.426H211.409L212.249 6.892H211.227L210.667 9.426ZM217.972 15.138C217.972 12.772 214.794 13.248 214.794 11.484C214.794 10.854 215.27 10.462 215.872 10.462C216.824 10.462 217.062 10.938 217.104 11.834H217.93C217.93 10.756 217.482 9.79 216.082 9.79C214.85 9.79 213.954 10.252 213.954 11.554C213.954 13.892 217.132 13.416 217.132 15.264C217.132 16.048 216.74 16.51 215.928 16.51C214.85 16.51 214.626 15.866 214.626 14.9H213.772C213.758 16.398 214.36 17.14 215.886 17.14C217.202 17.14 217.972 16.468 217.972 15.138ZM226.979 6.892H226.237L225.397 9.426H226.419L226.979 6.892ZM229.051 6.892H228.309L227.469 9.426H228.491L229.051 6.892ZM233.247 17V12.184H237.223V17H238.119V6.892H237.223V11.428H233.247V6.892H232.351V17H233.247ZM242.496 17V9.93H241.656V17H242.496ZM242.594 7.956V6.892H241.558V7.956H242.594ZM247.937 10.462C248.721 10.462 249.519 11.022 249.519 12.506C249.519 14.578 249.463 14.9 249.253 15.446C249.127 15.782 248.679 16.244 247.979 16.244C246.453 16.244 246.453 14.774 246.453 13.304C246.453 12.254 246.481 10.462 247.937 10.462ZM249.575 10.812L249.547 10.784C249.239 10.154 248.525 9.79 247.811 9.79C246.383 9.79 245.893 10.896 245.823 11.19C245.627 11.946 245.613 11.96 245.613 13.598C245.613 15.166 245.753 16.916 247.783 16.916C248.455 16.916 249.127 16.664 249.491 16.062H249.519C249.519 18.176 249.617 19.058 247.979 19.058C247.195 19.058 246.593 18.582 246.649 17.77H245.809C245.753 18.484 246.103 19.73 247.867 19.73C249.883 19.73 250.359 18.806 250.359 17.252V11.302C250.359 10.938 250.373 10.588 250.401 9.916H249.575V10.812ZM254.34 17V12.562C254.34 10.98 255.11 10.462 255.866 10.462C256.846 10.462 257.168 11.232 257.168 12.058V17H258.008V12.016C258.008 11.092 257.826 9.79 256.076 9.79C255.32 9.79 254.774 10.21 254.368 10.798H254.34V6.892H253.5V17H254.34ZM270.972 9.454C270.972 7.998 270.524 6.696 268.424 6.696C266.772 6.696 265.666 7.424 265.68 9.174C265.694 10.182 265.778 10.784 267.738 11.988C269.194 12.884 270.104 13.276 270.104 14.648C270.104 15.81 269.53 16.44 268.354 16.44C266.548 16.44 266.464 15.278 266.464 14.158H265.54C265.456 16.132 266.338 17.196 268.312 17.196C270.076 17.196 271 16.314 271 14.508C271 12.548 269.726 12.282 268.48 11.386C267.332 10.56 266.576 10.518 266.576 9.02C266.576 7.83 267.262 7.452 268.354 7.452C269.726 7.452 270.034 8.208 270.062 9.454H270.972ZM278.014 11.96C278.084 10.476 277.258 9.79 276.04 9.79C275.074 9.79 274.276 10.154 273.912 11.162C273.73 11.694 273.702 12.8 273.702 13.5C273.702 15.25 273.702 17.14 276.096 17.14C276.754 17.14 278.098 16.818 278.028 14.914H277.188C277.146 15.768 277.006 16.468 275.9 16.468C274.598 16.468 274.598 14.774 274.598 13.5C274.598 12.562 274.682 11.596 274.794 11.274C274.976 10.756 275.41 10.462 275.928 10.462C276.894 10.462 277.216 11.078 277.174 11.96H278.014ZM281.706 17V12.562C281.706 10.98 282.476 10.462 283.232 10.462C284.212 10.462 284.534 11.232 284.534 12.058V17H285.374V12.016C285.374 11.092 285.192 9.79 283.442 9.79C282.686 9.79 282.14 10.21 281.734 10.798H281.706V6.892H280.866V17H281.706ZM290.74 17.14C292.392 17.14 293.176 16.062 293.176 14.228V12.702C293.176 10.868 292.392 9.79 290.74 9.79C289.088 9.79 288.304 10.868 288.304 12.702V14.228C288.304 16.062 289.088 17.14 290.74 17.14ZM290.74 10.462C292.126 10.462 292.336 11.624 292.336 13.458C292.336 15.306 292.126 16.468 290.74 16.468C289.354 16.468 289.144 15.306 289.144 13.458C289.144 11.624 289.354 10.462 290.74 10.462ZM298.361 17.14C300.013 17.14 300.797 16.062 300.797 14.228V12.702C300.797 10.868 300.013 9.79 298.361 9.79C296.709 9.79 295.925 10.868 295.925 12.702V14.228C295.925 16.062 296.709 17.14 298.361 17.14ZM298.361 10.462C299.747 10.462 299.957 11.624 299.957 13.458C299.957 15.306 299.747 16.468 298.361 16.468C296.975 16.468 296.765 15.306 296.765 13.458C296.765 11.624 296.975 10.462 298.361 10.462ZM304.848 17V6.892H304.008V17H304.848ZM308.273 9.426H309.015L309.855 6.892H308.833L308.273 9.426ZM310.345 9.426H311.087L311.927 6.892H310.905L310.345 9.426ZM320.402 12.45C320.402 11.526 320.808 10.462 321.872 10.462C322.698 10.462 322.95 11.246 322.964 11.946V17H323.804V12.45C323.804 11.526 324.21 10.462 325.274 10.462C326.1 10.462 326.352 11.246 326.366 11.946V17H327.206V11.736C327.164 10.602 326.548 9.79 325.372 9.79C324.588 9.79 323.986 10.196 323.636 10.896C323.398 10.196 322.754 9.79 322.026 9.79C321.242 9.79 320.682 10.224 320.346 10.798H320.318V9.916H319.562V17H320.402V12.45ZM332.568 17.14C334.22 17.14 335.004 16.062 335.004 14.228V12.702C335.004 10.868 334.22 9.79 332.568 9.79C330.916 9.79 330.132 10.868 330.132 12.702V14.228C330.132 16.062 330.916 17.14 332.568 17.14ZM332.568 10.462C333.954 10.462 334.164 11.624 334.164 13.458C334.164 15.306 333.954 16.468 332.568 16.468C331.182 16.468 330.972 15.306 330.972 13.458C330.972 11.624 331.182 10.462 332.568 10.462ZM338.131 9.93H337.221L339.321 17H340.287L342.387 9.93H341.575L339.853 15.936H339.825L338.131 9.93ZM345.896 17V9.93H345.056V17H345.896ZM345.994 7.956V6.892H344.958V7.956H345.994ZM353.97 13.64C353.97 11.54 353.97 9.79 351.534 9.79C349.952 9.79 349.098 10.728 349.098 12.772V14.508C349.098 16.65 350.316 17.14 351.534 17.14C352.948 17.14 353.872 16.552 353.97 14.844H353.088C353.102 15.796 352.584 16.468 351.534 16.468C350.204 16.468 349.938 15.166 349.938 14.186V13.64H353.97ZM349.938 12.968C349.938 11.4 350.19 10.462 351.534 10.462C352.878 10.462 353.13 11.4 353.13 12.968H349.938ZM362.188 6.598C361.488 8.628 360.984 10.728 360.984 12.884C360.984 14.928 361.516 16.916 362.132 18.848H362.818C362.244 16.846 361.88 14.76 361.88 12.674C361.88 10.616 362.314 8.586 362.818 6.598H362.188ZM366.3 9.734C366.916 9.328 367.476 8.866 368.008 8.362V17H368.848V7.242H368.064C367.574 7.844 366.944 8.32 366.3 8.768V9.734ZM375.698 12.394C374.34 12.394 374.172 11.162 374.172 10.084C374.172 8.964 374.368 7.844 375.754 7.844C377.364 7.844 377.378 8.978 377.378 10.196C377.378 10.84 377.322 12.394 375.698 12.394ZM375.614 13.15C376.314 13.15 376.986 12.898 377.406 12.296H377.434C377.364 15.32 377.462 16.398 375.684 16.398C374.662 16.398 374.27 15.796 374.284 14.83H373.388C373.43 16.482 374.158 17.154 375.796 17.154C378.218 17.154 378.274 15.628 378.274 12.072V10.868C378.274 8.516 378.19 7.088 375.726 7.088C373.766 7.088 373.276 8.376 373.276 10.084C373.276 12.156 373.878 13.15 375.614 13.15ZM384.999 13.864C384.999 15.026 384.929 16.398 383.417 16.398C381.569 16.398 381.765 14.032 381.765 13.948C381.765 12.282 382.465 11.61 383.487 11.61C384.635 11.61 384.999 12.352 384.999 13.864ZM385.797 9.412C385.769 7.886 385.041 7.088 383.529 7.088C381.373 7.088 380.925 8.264 380.925 10.63V13.822C380.925 15.768 381.149 17.154 383.529 17.154C385.671 17.154 385.895 15.516 385.895 13.612C385.895 13.318 386.049 10.854 383.711 10.854C382.857 10.854 382.157 11.204 381.793 11.918L381.765 11.932V11.078C381.765 9.594 381.793 7.844 383.473 7.844C384.453 7.844 384.845 8.446 384.901 9.412H385.797ZM391.024 11.568C389.848 11.568 389.47 10.77 389.47 9.65C389.47 8.502 389.778 7.76 391.024 7.76C392.27 7.76 392.578 8.502 392.578 9.65C392.578 10.77 392.2 11.568 391.024 11.568ZM392.032 11.862C393.25 11.61 393.474 10.63 393.474 9.524C393.474 8.628 393.404 7.088 391.024 7.088C388.644 7.088 388.574 8.628 388.574 9.524C388.574 10.63 388.798 11.61 389.988 11.862L390.016 11.89C388.686 12.184 388.476 13.164 388.476 14.354C388.476 15.628 388.812 17.154 391.024 17.154C393.236 17.154 393.572 15.628 393.572 14.354C393.572 13.164 393.362 12.184 392.032 11.89V11.862ZM391.024 16.482C389.764 16.482 389.372 15.6 389.372 14.466C389.372 13.416 389.484 12.24 391.024 12.24C392.564 12.24 392.676 13.416 392.676 14.466C392.676 15.6 392.284 16.482 391.024 16.482ZM396.376 6.598C396.88 8.586 397.314 10.616 397.314 12.674C397.314 14.76 396.95 16.846 396.376 18.848H397.062C397.678 16.916 398.21 14.928 398.21 12.884C398.21 10.728 397.706 8.628 397.006 6.598H396.376ZM401.076 17H402.112V15.936H401.076V17Z" fill="white"/>
</svg>
