<svg width="322" height="53" viewBox="0 0 322 53" fill="none" xmlns="http://www.w3.org/2000/svg">
<rect width="313.367" height="53" fill="black" fill-opacity="0.69"/>
<path d="M7.77889 12.946C7.77889 10.258 7.80689 8.452 9.93489 8.452C12.0629 8.452 12.0909 10.258 12.0909 12.946C12.0909 15.634 12.0629 17.44 9.93489 17.44C7.80689 17.44 7.77889 15.634 7.77889 12.946ZM6.88289 12.946C6.88289 15.676 6.91089 18.196 9.93489 18.196C12.9589 18.196 12.9869 15.676 12.9869 12.946C12.9869 10.216 12.9589 7.696 9.93489 7.696C6.91089 7.696 6.88289 10.216 6.88289 12.946ZM16.6222 18H17.4622V11.602H18.8902V10.93H17.4622V9.726C17.4622 9.32 17.4622 8.592 18.2742 8.592H18.9042V7.892C18.6942 7.864 18.5542 7.836 18.4282 7.836C16.7202 7.836 16.6222 9.068 16.6222 9.74V10.93H15.4882V11.602H16.6222V18ZM25.6847 18V10.93H24.8447V18H25.6847ZM25.7827 8.956V7.892H24.7467V8.956H25.7827ZM21.9187 18H22.7587V11.602H24.1867V10.93H22.7587V9.726C22.7587 9.32 22.7587 8.592 23.5707 8.592H24.2007V7.892C23.9907 7.864 23.8507 7.836 23.7247 7.836C22.0167 7.836 21.9187 9.068 21.9187 9.74V10.93H20.7847V11.602H21.9187V18ZM32.9834 12.96C33.0534 11.476 32.2274 10.79 31.0094 10.79C30.0434 10.79 29.2454 11.154 28.8814 12.162C28.6994 12.694 28.6714 13.8 28.6714 14.5C28.6714 16.25 28.6714 18.14 31.0654 18.14C31.7234 18.14 33.0674 17.818 32.9974 15.914H32.1574C32.1154 16.768 31.9754 17.468 30.8694 17.468C29.5674 17.468 29.5674 15.774 29.5674 14.5C29.5674 13.562 29.6514 12.596 29.7634 12.274C29.9454 11.756 30.3794 11.462 30.8974 11.462C31.8634 11.462 32.1854 12.078 32.1434 12.96H32.9834ZM36.9548 18V10.93H36.1148V18H36.9548ZM37.0528 8.956V7.892H36.0168V8.956H37.0528ZM43.9363 15.676C43.9363 16.6 43.1523 17.468 42.1863 17.468C41.3183 17.468 40.9123 16.81 40.9123 16.012C40.9123 14.29 42.7323 14.43 43.9363 14.388V15.676ZM43.9923 18H44.8603C44.7763 17.174 44.7763 16.726 44.7763 16.222V12.666C44.7763 10.86 43.2923 10.79 42.5783 10.79C41.3463 10.79 40.2963 11.322 40.2263 12.68H41.1223C41.1223 11.84 41.7383 11.462 42.5083 11.462C43.6283 11.462 43.9363 12.092 43.9363 13.128V13.716C42.5083 13.828 40.0163 13.576 40.0163 16.054C40.0163 17.286 40.7023 18.14 41.9623 18.14C42.8303 18.14 43.5163 17.804 43.9643 17.132H43.9923V18ZM49.079 18V7.892H48.239V18H49.079ZM57.47 11.602V16.656C57.47 17.524 57.806 18.028 58.94 18.028C59.206 18.028 59.486 18.014 59.738 17.986V17.258C59.556 17.286 59.36 17.3 59.08 17.3C58.408 17.3 58.31 17.076 58.31 16.138V11.602H59.738V10.93H58.31V9.11L57.47 9.474V10.93H56.336V11.602H57.47ZM63.1585 10.93H62.3185V18H63.1585V13.45C63.1585 12.26 63.9425 11.546 65.1325 11.644V10.79C64.2785 10.79 63.5365 11.21 63.1865 11.882H63.1585V10.93ZM71.157 15.676C71.157 16.6 70.373 17.468 69.407 17.468C68.539 17.468 68.133 16.81 68.133 16.012C68.133 14.29 69.953 14.43 71.157 14.388V15.676ZM71.213 18H72.081C71.997 17.174 71.997 16.726 71.997 16.222V12.666C71.997 10.86 70.513 10.79 69.799 10.79C68.567 10.79 67.517 11.322 67.447 12.68H68.343C68.343 11.84 68.959 11.462 69.729 11.462C70.849 11.462 71.157 12.092 71.157 13.128V13.716C69.729 13.828 67.237 13.576 67.237 16.054C67.237 17.286 67.923 18.14 69.183 18.14C70.051 18.14 70.737 17.804 71.185 17.132H71.213V18ZM76.2997 18V10.93H75.4597V18H76.2997ZM76.3977 8.956V7.892H75.3617V8.956H76.3977ZM80.8032 18V7.892H79.9632V18H80.8032ZM88.8767 14.64C88.8767 12.54 88.8767 10.79 86.4407 10.79C84.8587 10.79 84.0047 11.728 84.0047 13.772V15.508C84.0047 17.65 85.2227 18.14 86.4407 18.14C87.8547 18.14 88.7787 17.552 88.8767 15.844H87.9947C88.0087 16.796 87.4907 17.468 86.4407 17.468C85.1107 17.468 84.8447 16.166 84.8447 15.186V14.64H88.8767ZM84.8447 13.968C84.8447 12.4 85.0967 11.462 86.4407 11.462C87.7847 11.462 88.0367 12.4 88.0367 13.968H84.8447ZM92.7034 10.93H91.8634V18H92.7034V13.45C92.7034 12.26 93.4874 11.546 94.6774 11.644V10.79C93.8234 10.79 93.0814 11.21 92.7314 11.882H92.7034V10.93ZM103.861 18.14C105.513 18.14 106.297 17.062 106.297 15.228V13.702C106.297 11.868 105.513 10.79 103.861 10.79C102.209 10.79 101.425 11.868 101.425 13.702V15.228C101.425 17.062 102.209 18.14 103.861 18.14ZM103.861 11.462C105.247 11.462 105.457 12.624 105.457 14.458C105.457 16.306 105.247 17.468 103.861 17.468C102.475 17.468 102.265 16.306 102.265 14.458C102.265 12.624 102.475 11.462 103.861 11.462ZM109.774 18H110.614V11.602H112.042V10.93H110.614V9.726C110.614 9.32 110.614 8.592 111.426 8.592H112.056V7.892C111.846 7.864 111.706 7.836 111.58 7.836C109.872 7.836 109.774 9.068 109.774 9.74V10.93H108.64V11.602H109.774V18ZM119.532 11.602V16.656C119.532 17.524 119.868 18.028 121.002 18.028C121.268 18.028 121.548 18.014 121.8 17.986V17.258C121.618 17.286 121.422 17.3 121.142 17.3C120.47 17.3 120.372 17.076 120.372 16.138V11.602H121.8V10.93H120.372V9.11L119.532 9.474V10.93H118.398V11.602H119.532ZM125.165 18V13.562C125.165 11.98 125.935 11.462 126.691 11.462C127.671 11.462 127.993 12.232 127.993 13.058V18H128.833V13.016C128.833 12.092 128.651 10.79 126.901 10.79C126.145 10.79 125.599 11.21 125.193 11.798H125.165V7.892H124.325V18H125.165ZM136.635 14.64C136.635 12.54 136.635 10.79 134.199 10.79C132.617 10.79 131.763 11.728 131.763 13.772V15.508C131.763 17.65 132.981 18.14 134.199 18.14C135.613 18.14 136.537 17.552 136.635 15.844H135.753C135.767 16.796 135.249 17.468 134.199 17.468C132.869 17.468 132.603 16.166 132.603 15.186V14.64H136.635ZM132.603 13.968C132.603 12.4 132.855 11.462 134.199 11.462C135.543 11.462 135.795 12.4 135.795 13.968H132.603ZM148.382 18V10.93H147.542V18H148.382ZM148.48 8.956V7.892H147.444V8.956H148.48ZM144.616 18H145.456V11.602H146.884V10.93H145.456V9.726C145.456 9.32 145.456 8.592 146.268 8.592H146.898V7.892C146.688 7.864 146.548 7.836 146.422 7.836C144.714 7.836 144.616 9.068 144.616 9.74V10.93H143.482V11.602H144.616V18ZM152.81 18V7.892H151.97V18H152.81ZM157.02 13.45C157.02 12.526 157.426 11.462 158.49 11.462C159.316 11.462 159.568 12.246 159.582 12.946V18H160.422V13.45C160.422 12.526 160.828 11.462 161.892 11.462C162.718 11.462 162.97 12.246 162.984 12.946V18H163.824V12.736C163.782 11.602 163.166 10.79 161.99 10.79C161.206 10.79 160.604 11.196 160.254 11.896C160.016 11.196 159.372 10.79 158.644 10.79C157.86 10.79 157.3 11.224 156.964 11.798H156.936V10.916H156.18V18H157.02V13.45ZM173.059 7.892H172.317L171.477 10.426H172.499L173.059 7.892ZM175.131 7.892H174.389L173.549 10.426H174.571L175.131 7.892ZM179.327 18V13.184H183.303V18H184.199V7.892H183.303V12.428H179.327V7.892H178.431V18H179.327ZM188.576 18V10.93H187.736V18H188.576ZM188.674 8.956V7.892H187.638V8.956H188.674ZM194.017 11.462C194.801 11.462 195.599 12.022 195.599 13.506C195.599 15.578 195.543 15.9 195.333 16.446C195.207 16.782 194.759 17.244 194.059 17.244C192.533 17.244 192.533 15.774 192.533 14.304C192.533 13.254 192.561 11.462 194.017 11.462ZM195.655 11.812L195.627 11.784C195.319 11.154 194.605 10.79 193.891 10.79C192.463 10.79 191.973 11.896 191.903 12.19C191.707 12.946 191.693 12.96 191.693 14.598C191.693 16.166 191.833 17.916 193.863 17.916C194.535 17.916 195.207 17.664 195.571 17.062H195.599C195.599 19.176 195.697 20.058 194.059 20.058C193.275 20.058 192.673 19.582 192.729 18.77H191.889C191.833 19.484 192.183 20.73 193.947 20.73C195.963 20.73 196.439 19.806 196.439 18.252V12.302C196.439 11.938 196.453 11.588 196.481 10.916H195.655V11.812ZM200.42 18V13.562C200.42 11.98 201.19 11.462 201.946 11.462C202.926 11.462 203.248 12.232 203.248 13.058V18H204.088V13.016C204.088 12.092 203.906 10.79 202.156 10.79C201.4 10.79 200.854 11.21 200.448 11.798H200.42V7.892H199.58V18H200.42ZM217.052 10.454C217.052 8.998 216.604 7.696 214.504 7.696C212.852 7.696 211.746 8.424 211.76 10.174C211.774 11.182 211.858 11.784 213.818 12.988C215.274 13.884 216.184 14.276 216.184 15.648C216.184 16.81 215.61 17.44 214.434 17.44C212.628 17.44 212.544 16.278 212.544 15.158H211.62C211.536 17.132 212.418 18.196 214.392 18.196C216.156 18.196 217.08 17.314 217.08 15.508C217.08 13.548 215.806 13.282 214.56 12.386C213.412 11.56 212.656 11.518 212.656 10.02C212.656 8.83 213.342 8.452 214.434 8.452C215.806 8.452 216.114 9.208 216.142 10.454H217.052ZM224.094 12.96C224.164 11.476 223.338 10.79 222.12 10.79C221.154 10.79 220.356 11.154 219.992 12.162C219.81 12.694 219.782 13.8 219.782 14.5C219.782 16.25 219.782 18.14 222.176 18.14C222.834 18.14 224.178 17.818 224.108 15.914H223.268C223.226 16.768 223.086 17.468 221.98 17.468C220.678 17.468 220.678 15.774 220.678 14.5C220.678 13.562 220.762 12.596 220.874 12.274C221.056 11.756 221.49 11.462 222.008 11.462C222.974 11.462 223.296 12.078 223.254 12.96H224.094ZM227.786 18V13.562C227.786 11.98 228.556 11.462 229.312 11.462C230.292 11.462 230.614 12.232 230.614 13.058V18H231.454V13.016C231.454 12.092 231.272 10.79 229.522 10.79C228.766 10.79 228.22 11.21 227.814 11.798H227.786V7.892H226.946V18H227.786ZM236.82 18.14C238.472 18.14 239.256 17.062 239.256 15.228V13.702C239.256 11.868 238.472 10.79 236.82 10.79C235.168 10.79 234.384 11.868 234.384 13.702V15.228C234.384 17.062 235.168 18.14 236.82 18.14ZM236.82 11.462C238.206 11.462 238.416 12.624 238.416 14.458C238.416 16.306 238.206 17.468 236.82 17.468C235.434 17.468 235.224 16.306 235.224 14.458C235.224 12.624 235.434 11.462 236.82 11.462ZM244.441 18.14C246.093 18.14 246.877 17.062 246.877 15.228V13.702C246.877 11.868 246.093 10.79 244.441 10.79C242.789 10.79 242.005 11.868 242.005 13.702V15.228C242.005 17.062 242.789 18.14 244.441 18.14ZM244.441 11.462C245.827 11.462 246.037 12.624 246.037 14.458C246.037 16.306 245.827 17.468 244.441 17.468C243.055 17.468 242.845 16.306 242.845 14.458C242.845 12.624 243.055 11.462 244.441 11.462ZM250.928 18V7.892H250.088V18H250.928ZM254.353 10.426H255.095L255.935 7.892H254.913L254.353 10.426ZM256.425 10.426H257.167L258.007 7.892H256.985L256.425 10.426ZM266.44 7.598C265.74 9.628 265.236 11.728 265.236 13.884C265.236 15.928 265.768 17.916 266.384 19.848H267.07C266.496 17.846 266.132 15.76 266.132 13.674C266.132 11.616 266.566 9.586 267.07 7.598H266.44ZM270.552 10.734C271.168 10.328 271.728 9.866 272.26 9.362V18H273.1V8.242H272.316C271.826 8.844 271.196 9.32 270.552 9.768V10.734ZM279.95 13.394C278.592 13.394 278.424 12.162 278.424 11.084C278.424 9.964 278.62 8.844 280.006 8.844C281.616 8.844 281.63 9.978 281.63 11.196C281.63 11.84 281.574 13.394 279.95 13.394ZM279.866 14.15C280.566 14.15 281.238 13.898 281.658 13.296H281.686C281.616 16.32 281.714 17.398 279.936 17.398C278.914 17.398 278.522 16.796 278.536 15.83H277.64C277.682 17.482 278.41 18.154 280.048 18.154C282.47 18.154 282.526 16.628 282.526 13.072V11.868C282.526 9.516 282.442 8.088 279.978 8.088C278.018 8.088 277.528 9.376 277.528 11.084C277.528 13.156 278.13 14.15 279.866 14.15ZM289.251 14.864C289.251 16.026 289.181 17.398 287.669 17.398C285.821 17.398 286.017 15.032 286.017 14.948C286.017 13.282 286.717 12.61 287.739 12.61C288.887 12.61 289.251 13.352 289.251 14.864ZM290.049 10.412C290.021 8.886 289.293 8.088 287.781 8.088C285.625 8.088 285.177 9.264 285.177 11.63V14.822C285.177 16.768 285.401 18.154 287.781 18.154C289.923 18.154 290.147 16.516 290.147 14.612C290.147 14.318 290.301 11.854 287.963 11.854C287.109 11.854 286.409 12.204 286.045 12.918L286.017 12.932V12.078C286.017 10.594 286.045 8.844 287.725 8.844C288.705 8.844 289.097 9.446 289.153 10.412H290.049ZM295.276 12.568C294.1 12.568 293.722 11.77 293.722 10.65C293.722 9.502 294.03 8.76 295.276 8.76C296.522 8.76 296.83 9.502 296.83 10.65C296.83 11.77 296.452 12.568 295.276 12.568ZM296.284 12.862C297.502 12.61 297.726 11.63 297.726 10.524C297.726 9.628 297.656 8.088 295.276 8.088C292.896 8.088 292.826 9.628 292.826 10.524C292.826 11.63 293.05 12.61 294.24 12.862L294.268 12.89C292.938 13.184 292.728 14.164 292.728 15.354C292.728 16.628 293.064 18.154 295.276 18.154C297.488 18.154 297.824 16.628 297.824 15.354C297.824 14.164 297.614 13.184 296.284 12.89V12.862ZM295.276 17.482C294.016 17.482 293.624 16.6 293.624 15.466C293.624 14.416 293.736 13.24 295.276 13.24C296.816 13.24 296.928 14.416 296.928 15.466C296.928 16.6 296.536 17.482 295.276 17.482ZM300.629 7.598C301.133 9.586 301.567 11.616 301.567 13.674C301.567 15.76 301.203 17.846 300.629 19.848H301.315C301.931 17.916 302.463 15.928 302.463 13.884C302.463 11.728 301.959 9.628 301.259 7.598H300.629ZM7.73689 36.36C7.73689 35.296 7.90489 33.462 9.26289 33.462C10.8169 33.462 10.8589 34.834 10.8589 36.486C10.8589 38.138 10.8169 39.468 9.26289 39.468C7.73689 39.468 7.73689 37.48 7.73689 36.36ZM7.70889 40V39.146H7.73689C8.08689 39.804 8.68889 40.14 9.51489 40.14C11.5729 40.14 11.6989 38.012 11.6989 36.458C11.6989 35.198 11.8809 32.79 9.58489 32.79C8.78689 32.79 8.22689 33.084 7.79289 33.756L7.76489 33.728V29.892H6.92489V39.3C6.92489 39.538 6.88289 39.762 6.84089 40H7.70889ZM15.2176 42.674H16.0436L18.9696 32.93H18.1296L16.4636 38.726H16.4356L14.7136 32.93H13.8036L16.0436 40.014L15.2176 42.674ZM25.9605 40H26.8565V35.184H29.9925V34.428H26.8565V30.648H30.2305V29.892H25.9605V40ZM33.5999 32.93H32.7599V40H33.5999V35.45C33.5999 34.26 34.3839 33.546 35.5739 33.644V32.79C34.7199 32.79 33.9779 33.21 33.6279 33.882H33.5999V32.93ZM42.6904 36.64C42.6904 34.54 42.6904 32.79 40.2544 32.79C38.6724 32.79 37.8184 33.728 37.8184 35.772V37.508C37.8184 39.65 39.0364 40.14 40.2544 40.14C41.6684 40.14 42.5924 39.552 42.6904 37.844H41.8084C41.8224 38.796 41.3044 39.468 40.2544 39.468C38.9244 39.468 38.6584 38.166 38.6584 37.186V36.64H42.6904ZM38.6584 35.968C38.6584 34.4 38.9104 33.462 40.2544 33.462C41.5984 33.462 41.8504 34.4 41.8504 35.968H38.6584ZM47.7351 39.468C46.8251 39.468 46.1951 39.118 46.1951 36.486C46.1951 34.834 46.1951 33.462 47.7071 33.462C49.2891 33.462 49.2891 35.422 49.2891 35.842V37.102C49.2891 38.824 48.5331 39.468 47.7351 39.468ZM49.3731 40H50.1851C50.1431 39.762 50.1011 39.3 50.1011 38.6V29.892H49.2611V33.644L49.2331 33.63C48.7991 33.084 48.1691 32.79 47.5251 32.79C45.3551 32.79 45.3551 35.1 45.3551 36.458C45.3551 38.11 45.4671 40.14 47.5111 40.14C48.3371 40.14 48.8691 39.79 49.3031 39.118L49.3311 39.104L49.3731 40ZM57.9318 36.64C57.9318 34.54 57.9318 32.79 55.4958 32.79C53.9138 32.79 53.0598 33.728 53.0598 35.772V37.508C53.0598 39.65 54.2778 40.14 55.4958 40.14C56.9098 40.14 57.8338 39.552 57.9318 37.844H57.0498C57.0638 38.796 56.5458 39.468 55.4958 39.468C54.1658 39.468 53.8998 38.166 53.8998 37.186V36.64H57.9318ZM53.8998 35.968C53.8998 34.4 54.1518 33.462 55.4958 33.462C56.8398 33.462 57.0918 34.4 57.0918 35.968H53.8998ZM61.7585 32.93H60.9185V40H61.7585V35.45C61.7585 34.26 62.5425 33.546 63.7325 33.644V32.79C62.8785 32.79 62.1365 33.21 61.7865 33.882H61.7585V32.93ZM67.279 40V32.93H66.439V40H67.279ZM67.377 30.956V29.892H66.341V30.956H67.377ZM74.6525 34.96C74.7225 33.476 73.8965 32.79 72.6785 32.79C71.7125 32.79 70.9145 33.154 70.5505 34.162C70.3685 34.694 70.3405 35.8 70.3405 36.5C70.3405 38.25 70.3405 40.14 72.7345 40.14C73.3925 40.14 74.7365 39.818 74.6665 37.914H73.8265C73.7845 38.768 73.6445 39.468 72.5385 39.468C71.2365 39.468 71.2365 37.774 71.2365 36.5C71.2365 35.562 71.3205 34.596 71.4325 34.274C71.6145 33.756 72.0485 33.462 72.5665 33.462C73.5325 33.462 73.8545 34.078 73.8125 34.96H74.6525ZM77.5319 40H78.3719V36.15H78.3999L80.9199 40H81.9839L79.3099 36.08L81.8159 32.93H80.8359L78.3999 36.052H78.3719V29.892H77.5319V40ZM91.1588 38.824H91.1308L89.0868 29.892H88.1348L90.5708 40H91.6908L93.7768 31.012H93.8048L95.8348 40H97.0108L99.5168 29.892H98.6348L96.4788 38.754H96.4508L94.4208 29.892H93.2168L91.1588 38.824ZM103.031 40V32.93H102.191V40H103.031ZM103.129 30.956V29.892H102.093V30.956H103.129ZM110.376 38.138C110.376 35.772 107.198 36.248 107.198 34.484C107.198 33.854 107.674 33.462 108.276 33.462C109.228 33.462 109.466 33.938 109.508 34.834H110.334C110.334 33.756 109.886 32.79 108.486 32.79C107.254 32.79 106.358 33.252 106.358 34.554C106.358 36.892 109.536 36.416 109.536 38.264C109.536 39.048 109.144 39.51 108.332 39.51C107.254 39.51 107.03 38.866 107.03 37.9H106.176C106.162 39.398 106.764 40.14 108.29 40.14C109.606 40.14 110.376 39.468 110.376 38.138ZM117.946 36.64C117.946 34.54 117.946 32.79 115.51 32.79C113.928 32.79 113.074 33.728 113.074 35.772V37.508C113.074 39.65 114.292 40.14 115.51 40.14C116.924 40.14 117.848 39.552 117.946 37.844H117.064C117.078 38.796 116.56 39.468 115.51 39.468C114.18 39.468 113.914 38.166 113.914 37.186V36.64H117.946ZM113.914 35.968C113.914 34.4 114.166 33.462 115.51 33.462C116.854 33.462 117.106 34.4 117.106 35.968H113.914ZM121.703 35.45C121.703 34.526 122.109 33.462 123.173 33.462C123.999 33.462 124.251 34.246 124.265 34.946V40H125.105V35.45C125.105 34.526 125.511 33.462 126.575 33.462C127.401 33.462 127.653 34.246 127.667 34.946V40H128.507V34.736C128.465 33.602 127.849 32.79 126.673 32.79C125.889 32.79 125.287 33.196 124.937 33.896C124.699 33.196 124.055 32.79 123.327 32.79C122.543 32.79 121.983 33.224 121.647 33.798H121.619V32.916H120.863V40H121.703V35.45ZM135.212 37.676C135.212 38.6 134.428 39.468 133.462 39.468C132.594 39.468 132.188 38.81 132.188 38.012C132.188 36.29 134.008 36.43 135.212 36.388V37.676ZM135.268 40H136.136C136.052 39.174 136.052 38.726 136.052 38.222V34.666C136.052 32.86 134.568 32.79 133.854 32.79C132.622 32.79 131.572 33.322 131.502 34.68H132.398C132.398 33.84 133.014 33.462 133.784 33.462C134.904 33.462 135.212 34.092 135.212 35.128V35.716C133.784 35.828 131.292 35.576 131.292 38.054C131.292 39.286 131.978 40.14 133.238 40.14C134.106 40.14 134.792 39.804 135.24 39.132H135.268V40ZM140.075 35.562C140.075 33.98 140.845 33.462 141.601 33.462C142.581 33.462 142.903 34.232 142.903 35.058V40H143.743V35.016C143.743 34.092 143.561 32.79 141.811 32.79C141.055 32.79 140.509 33.21 140.103 33.798H140.075V32.93H139.235V40H140.075V35.562ZM147.038 40H148.074V38.936H147.038V40Z" fill="white"/>
</svg>
