<svg width="370" height="30" viewBox="0 0 370 30" fill="none" xmlns="http://www.w3.org/2000/svg">
<rect width="370" height="30" fill="black" fill-opacity="0.69"/>
<path d="M9.64418 17.4689C12.0382 17.4689 12.2062 15.1029 12.2062 14.3749H11.2542C11.2402 15.6769 10.8062 16.7129 9.64418 16.7129C7.51618 16.7129 7.48818 14.9069 7.48818 12.2189C7.48818 9.53095 7.51618 7.72495 9.64418 7.72495C10.9322 7.72495 11.2402 8.77495 11.2402 9.89495H12.1362C12.1362 8.98495 12.0942 6.96895 9.64418 6.96895C6.62018 6.96895 6.59218 9.48895 6.59218 12.2189C6.59218 14.9489 6.62018 17.4689 9.64418 17.4689ZM16.1682 17.2729V7.16495H15.3282V17.2729H16.1682ZM20.6717 17.2729V10.2029H19.8317V17.2729H20.6717ZM20.7697 8.22895V7.16495H19.7337V8.22895H20.7697ZM24.9232 13.1009C24.9232 11.3509 25.8752 10.7349 26.4212 10.7349C27.8072 10.7349 28.0172 11.8969 28.0172 13.7309C28.0172 15.5789 27.8072 16.7409 26.4212 16.7409C25.6512 16.7409 24.9232 15.9709 24.9232 14.3609V13.1009ZM24.8952 10.2029H24.0832V19.9469H24.9232V16.4749L24.9512 16.4889C25.3852 17.1609 25.9032 17.4129 26.4212 17.4129C28.2272 17.4129 28.8572 16.3349 28.8572 14.5009V12.9189C28.8572 11.9949 28.8432 10.0629 26.6312 10.0629C26.0712 10.0629 25.3712 10.3569 24.9232 11.0429L24.8952 11.0569V10.2029ZM36.7254 17.2729H37.5654V10.8749H38.9934V10.2029H37.5654V8.99895C37.5654 8.59295 37.5654 7.86495 38.3774 7.86495H39.0074V7.16495C38.7974 7.13695 38.6574 7.10895 38.5314 7.10895C36.8234 7.10895 36.7254 8.34095 36.7254 9.01295V10.2029H35.5914V10.8749H36.7254V17.2729ZM42.3719 10.2029H41.5319V17.2729H42.3719V12.7229C42.3719 11.5329 43.1559 10.8189 44.3459 10.9169V10.0629C43.4919 10.0629 42.7499 10.4829 42.3999 11.1549H42.3719V10.2029ZM49.0264 17.4129C50.6784 17.4129 51.4624 16.3349 51.4624 14.5009V12.9749C51.4624 11.1409 50.6784 10.0629 49.0264 10.0629C47.3744 10.0629 46.5904 11.1409 46.5904 12.9749V14.5009C46.5904 16.3349 47.3744 17.4129 49.0264 17.4129ZM49.0264 10.7349C50.4124 10.7349 50.6224 11.8969 50.6224 13.7309C50.6224 15.5789 50.4124 16.7409 49.0264 16.7409C47.6404 16.7409 47.4304 15.5789 47.4304 13.7309C47.4304 11.8969 47.6404 10.7349 49.0264 10.7349ZM55.2191 12.7229C55.2191 11.7989 55.6251 10.7349 56.6891 10.7349C57.5151 10.7349 57.7671 11.5189 57.7811 12.2189V17.2729H58.6211V12.7229C58.6211 11.7989 59.0271 10.7349 60.0911 10.7349C60.9171 10.7349 61.1691 11.5189 61.1831 12.2189V17.2729H62.0231V12.0089C61.9811 10.8749 61.3651 10.0629 60.1891 10.0629C59.4051 10.0629 58.8031 10.4689 58.4531 11.1689C58.2151 10.4689 57.5711 10.0629 56.8431 10.0629C56.0591 10.0629 55.4991 10.4969 55.1631 11.0709H55.1351V10.1889H54.3791V17.2729H55.2191V12.7229ZM72.6305 17.4689C75.0245 17.4689 75.1925 15.1029 75.1925 14.3749H74.2405C74.2265 15.6769 73.7925 16.7129 72.6305 16.7129C70.5025 16.7129 70.4745 14.9069 70.4745 12.2189C70.4745 9.53095 70.5025 7.72495 72.6305 7.72495C73.9185 7.72495 74.2265 8.77495 74.2265 9.89495H75.1225C75.1225 8.98495 75.0805 6.96895 72.6305 6.96895C69.6065 6.96895 69.5785 9.48895 69.5785 12.2189C69.5785 14.9489 69.6065 17.4689 72.6305 17.4689ZM78.9305 10.2029H78.0905V17.2729H78.9305V12.7229C78.9305 11.5329 79.7145 10.8189 80.9045 10.9169V10.0629C80.0505 10.0629 79.3085 10.4829 78.9585 11.1549H78.9305V10.2029ZM84.451 17.2729V10.2029H83.611V17.2729H84.451ZM84.549 8.22895V7.16495H83.513V8.22895H84.549ZM91.8245 12.2329C91.8945 10.7489 91.0685 10.0629 89.8505 10.0629C88.8845 10.0629 88.0865 10.4269 87.7225 11.4349C87.5405 11.9669 87.5125 13.0729 87.5125 13.7729C87.5125 15.5229 87.5125 17.4129 89.9065 17.4129C90.5645 17.4129 91.9085 17.0909 91.8385 15.1869H90.9985C90.9565 16.0409 90.8165 16.7409 89.7105 16.7409C88.4085 16.7409 88.4085 15.0469 88.4085 13.7729C88.4085 12.8349 88.4925 11.8689 88.6045 11.5469C88.7865 11.0289 89.2205 10.7349 89.7385 10.7349C90.7045 10.7349 91.0265 11.3509 90.9845 12.2329H91.8245ZM94.7039 17.2729H95.5439V13.4229H95.5719L98.0919 17.2729H99.1559L96.4819 13.3529L98.9879 10.2029H98.0079L95.5719 13.3249H95.5439V7.16495H94.7039V17.2729ZM106.207 13.9129C106.207 11.8129 106.207 10.0629 103.771 10.0629C102.189 10.0629 101.335 11.0009 101.335 13.0449V14.7809C101.335 16.9229 102.553 17.4129 103.771 17.4129C105.185 17.4129 106.109 16.8249 106.207 15.1169H105.325C105.339 16.0689 104.821 16.7409 103.771 16.7409C102.441 16.7409 102.175 15.4389 102.175 14.4589V13.9129H106.207ZM102.175 13.2409C102.175 11.6729 102.427 10.7349 103.771 10.7349C105.115 10.7349 105.367 11.6729 105.367 13.2409H102.175ZM109.642 10.8749V15.9289C109.642 16.7969 109.978 17.3009 111.112 17.3009C111.378 17.3009 111.658 17.2869 111.91 17.2589V16.5309C111.728 16.5589 111.532 16.5729 111.252 16.5729C110.58 16.5729 110.482 16.3489 110.482 15.4109V10.8749H111.91V10.2029H110.482V8.38295L109.642 8.74695V10.2029H108.508V10.8749H109.642ZM114.939 10.8749V15.9289C114.939 16.7969 115.275 17.3009 116.409 17.3009C116.675 17.3009 116.955 17.2869 117.207 17.2589V16.5309C117.025 16.5589 116.829 16.5729 116.549 16.5729C115.877 16.5729 115.779 16.3489 115.779 15.4109V10.8749H117.207V10.2029H115.779V8.38295L114.939 8.74695V10.2029H113.805V10.8749H114.939ZM125.859 7.16495H125.117L124.277 9.69895H125.299L125.859 7.16495ZM127.931 7.16495H127.189L126.349 9.69895H127.371L127.931 7.16495ZM132.112 17.2729V8.03295H132.14L135.192 17.2729H136.228L139.196 8.03295H139.224V17.2729H140.12V7.16495H138.692L135.752 16.2929H135.724L132.742 7.16495H131.216V17.2729H132.112ZM144.072 19.9469H144.898L147.824 10.2029H146.984L145.318 15.9989H145.29L143.568 10.2029H142.658L144.898 17.2869L144.072 19.9469ZM154.815 17.2729H155.711V12.4569H158.847V11.7009H155.711V7.92095H159.085V7.16495H154.815V17.2729ZM162.679 17.2729V10.2029H161.839V17.2729H162.679ZM162.777 8.22895V7.16495H161.741V8.22895H162.777ZM166.958 10.2029H166.118V17.2729H166.958V12.7229C166.958 11.5329 167.742 10.8189 168.932 10.9169V10.0629C168.078 10.0629 167.336 10.4829 166.986 11.1549H166.958V10.2029ZM175.321 15.4109C175.321 13.0449 172.143 13.5209 172.143 11.7569C172.143 11.1269 172.619 10.7349 173.221 10.7349C174.173 10.7349 174.411 11.2109 174.453 12.1069H175.279C175.279 11.0289 174.831 10.0629 173.431 10.0629C172.199 10.0629 171.303 10.5249 171.303 11.8269C171.303 14.1649 174.481 13.6889 174.481 15.5369C174.481 16.3209 174.089 16.7829 173.277 16.7829C172.199 16.7829 171.975 16.1389 171.975 15.1729H171.121C171.107 16.6709 171.709 17.4129 173.235 17.4129C174.551 17.4129 175.321 16.7409 175.321 15.4109ZM178.704 10.8749V15.9289C178.704 16.7969 179.04 17.3009 180.174 17.3009C180.44 17.3009 180.72 17.2869 180.972 17.2589V16.5309C180.79 16.5589 180.594 16.5729 180.314 16.5729C179.642 16.5729 179.544 16.3489 179.544 15.4109V10.8749H180.972V10.2029H179.544V8.38295L178.704 8.74695V10.2029H177.57V10.8749H178.704ZM190.688 12.3729C192.634 12.3729 192.34 14.3189 192.354 14.7529C192.368 15.2989 192.41 16.9789 192.494 17.2729H193.348C193.32 16.8809 193.25 16.4889 193.25 16.0969C193.25 12.4849 193.166 12.3169 191.752 12.0229V11.9949C193.11 11.6869 193.32 10.8469 193.32 9.58695C193.32 7.80895 192.83 7.16495 190.884 7.16495H188.098V17.2729H188.994V12.3729H190.688ZM188.994 7.92095H190.828C191.878 7.92095 192.424 8.18695 192.424 9.57295C192.424 11.2669 191.794 11.6169 190.45 11.6169H188.994V7.92095ZM197.52 17.2729V10.2029H196.68V17.2729H197.52ZM197.618 8.22895V7.16495H196.582V8.22895H197.618ZM201.45 17.2729H202.29V10.8749H203.718V10.2029H202.29V8.99895C202.29 8.59295 202.29 7.86495 203.102 7.86495H203.732V7.16495C203.522 7.13695 203.382 7.10895 203.256 7.10895C201.548 7.10895 201.45 8.34095 201.45 9.01295V10.2029H200.316V10.8749H201.45V17.2729ZM205.202 17.2729V7.16495H204.362V17.2729H205.202ZM213.214 13.9129C213.214 11.8129 213.214 10.0629 210.778 10.0629C209.196 10.0629 208.342 11.0009 208.342 13.0449V14.7809C208.342 16.9229 209.56 17.4129 210.778 17.4129C212.192 17.4129 213.116 16.8249 213.214 15.1169H212.332C212.346 16.0689 211.828 16.7409 210.778 16.7409C209.448 16.7409 209.182 15.4389 209.182 14.4589V13.9129H213.214ZM209.182 13.2409C209.182 11.6729 209.434 10.7349 210.778 10.7349C212.122 10.7349 212.374 11.6729 212.374 13.2409H209.182ZM216.187 9.69895H216.929L217.769 7.16495H216.747L216.187 9.69895ZM218.259 9.69895H219.001L219.841 7.16495H218.819L218.259 9.69895ZM231.088 14.9489C231.088 15.8729 230.304 16.7409 229.338 16.7409C228.47 16.7409 228.064 16.0829 228.064 15.2849C228.064 13.5629 229.884 13.7029 231.088 13.6609V14.9489ZM231.144 17.2729H232.012C231.928 16.4469 231.928 15.9989 231.928 15.4949V11.9389C231.928 10.1329 230.444 10.0629 229.73 10.0629C228.498 10.0629 227.448 10.5949 227.378 11.9529H228.274C228.274 11.1129 228.89 10.7349 229.66 10.7349C230.78 10.7349 231.088 11.3649 231.088 12.4009V12.9889C229.66 13.1009 227.168 12.8489 227.168 15.3269C227.168 16.5589 227.854 17.4129 229.114 17.4129C229.982 17.4129 230.668 17.0769 231.116 16.4049H231.144V17.2729ZM237.225 16.7409C236.315 16.7409 235.685 16.3909 235.685 13.7589C235.685 12.1069 235.685 10.7349 237.197 10.7349C238.779 10.7349 238.779 12.6949 238.779 13.1149V14.3749C238.779 16.0969 238.023 16.7409 237.225 16.7409ZM238.863 17.2729H239.675C239.633 17.0349 239.591 16.5729 239.591 15.8729V7.16495H238.751V10.9169L238.723 10.9029C238.289 10.3569 237.659 10.0629 237.015 10.0629C234.845 10.0629 234.845 12.3729 234.845 13.7309C234.845 15.3829 234.957 17.4129 237.001 17.4129C237.827 17.4129 238.359 17.0629 238.793 16.3909L238.821 16.3769L238.863 17.2729ZM242.927 10.2029H242.017L244.117 17.2729H245.083L247.183 10.2029H246.371L244.649 16.2089H244.621L242.927 10.2029ZM254.263 13.9129C254.263 11.8129 254.263 10.0629 251.827 10.0629C250.245 10.0629 249.391 11.0009 249.391 13.0449V14.7809C249.391 16.9229 250.609 17.4129 251.827 17.4129C253.241 17.4129 254.165 16.8249 254.263 15.1169H253.381C253.395 16.0689 252.877 16.7409 251.827 16.7409C250.497 16.7409 250.231 15.4389 250.231 14.4589V13.9129H254.263ZM250.231 13.2409C250.231 11.6729 250.483 10.7349 251.827 10.7349C253.171 10.7349 253.423 11.6729 253.423 13.2409H250.231ZM258.09 10.2029H257.25V17.2729H258.09V12.7229C258.09 11.5329 258.874 10.8189 260.064 10.9169V10.0629C259.21 10.0629 258.468 10.4829 258.118 11.1549H258.09V10.2029ZM262.994 10.8749V15.9289C262.994 16.7969 263.33 17.3009 264.464 17.3009C264.73 17.3009 265.01 17.2869 265.262 17.2589V16.5309C265.08 16.5589 264.884 16.5729 264.604 16.5729C263.932 16.5729 263.834 16.3489 263.834 15.4109V10.8749H265.262V10.2029H263.834V8.38295L262.994 8.74695V10.2029H261.86V10.8749H262.994ZM268.906 17.2729V10.2029H268.066V17.2729H268.906ZM269.004 8.22895V7.16495H267.968V8.22895H269.004ZM276.252 15.4109C276.252 13.0449 273.074 13.5209 273.074 11.7569C273.074 11.1269 273.55 10.7349 274.152 10.7349C275.104 10.7349 275.342 11.2109 275.384 12.1069H276.21C276.21 11.0289 275.762 10.0629 274.362 10.0629C273.13 10.0629 272.234 10.5249 272.234 11.8269C272.234 14.1649 275.412 13.6889 275.412 15.5369C275.412 16.3209 275.02 16.7829 274.208 16.7829C273.13 16.7829 272.906 16.1389 272.906 15.1729H272.052C272.038 16.6709 272.64 17.4129 274.166 17.4129C275.482 17.4129 276.252 16.7409 276.252 15.4109ZM283.821 13.9129C283.821 11.8129 283.821 10.0629 281.385 10.0629C279.803 10.0629 278.949 11.0009 278.949 13.0449V14.7809C278.949 16.9229 280.167 17.4129 281.385 17.4129C282.799 17.4129 283.723 16.8249 283.821 15.1169H282.939C282.953 16.0689 282.435 16.7409 281.385 16.7409C280.055 16.7409 279.789 15.4389 279.789 14.4589V13.9129H283.821ZM279.789 13.2409C279.789 11.6729 280.041 10.7349 281.385 10.7349C282.729 10.7349 282.981 11.6729 282.981 13.2409H279.789ZM287.578 12.7229C287.578 11.7989 287.984 10.7349 289.048 10.7349C289.874 10.7349 290.126 11.5189 290.14 12.2189V17.2729H290.98V12.7229C290.98 11.7989 291.386 10.7349 292.45 10.7349C293.276 10.7349 293.528 11.5189 293.542 12.2189V17.2729H294.382V12.0089C294.34 10.8749 293.724 10.0629 292.548 10.0629C291.764 10.0629 291.162 10.4689 290.812 11.1689C290.574 10.4689 289.93 10.0629 289.202 10.0629C288.418 10.0629 287.858 10.4969 287.522 11.0709H287.494V10.1889H286.738V17.2729H287.578V12.7229ZM302.18 13.9129C302.18 11.8129 302.18 10.0629 299.744 10.0629C298.162 10.0629 297.308 11.0009 297.308 13.0449V14.7809C297.308 16.9229 298.526 17.4129 299.744 17.4129C301.158 17.4129 302.082 16.8249 302.18 15.1169H301.298C301.312 16.0689 300.794 16.7409 299.744 16.7409C298.414 16.7409 298.148 15.4389 298.148 14.4589V13.9129H302.18ZM298.148 13.2409C298.148 11.6729 298.4 10.7349 299.744 10.7349C301.088 10.7349 301.34 11.6729 301.34 13.2409H298.148ZM305.951 12.8349C305.951 11.2529 306.721 10.7349 307.477 10.7349C308.457 10.7349 308.779 11.5049 308.779 12.3309V17.2729H309.619V12.2889C309.619 11.3649 309.437 10.0629 307.687 10.0629C306.931 10.0629 306.385 10.4829 305.979 11.0709H305.951V10.2029H305.111V17.2729H305.951V12.8349ZM313.235 10.8749V15.9289C313.235 16.7969 313.571 17.3009 314.705 17.3009C314.971 17.3009 315.251 17.2869 315.503 17.2589V16.5309C315.321 16.5589 315.125 16.5729 314.845 16.5729C314.173 16.5729 314.075 16.3489 314.075 15.4109V10.8749H315.503V10.2029H314.075V8.38295L313.235 8.74695V10.2029H312.101V10.8749H313.235ZM323.315 6.87095C322.615 8.90095 322.111 11.0009 322.111 13.1569C322.111 15.2009 322.643 17.1889 323.259 19.1209H323.945C323.371 17.1189 323.007 15.0329 323.007 12.9469C323.007 10.8889 323.441 8.85895 323.945 6.87095H323.315ZM331.697 16.5169H327.707C330.969 11.6169 331.683 10.8189 331.683 9.39095C331.683 7.72495 330.325 7.36095 329.191 7.36095C328.057 7.36095 326.755 7.94895 326.755 9.89495H327.595C327.595 8.88695 328.127 8.11695 329.191 8.11695C329.961 8.11695 330.787 8.28495 330.787 9.58695C330.787 10.8889 328.897 13.1289 326.727 16.4889V17.2729H331.697V16.5169ZM335.314 10.4829C335.314 8.28495 336.28 8.11695 336.91 8.11695C337.54 8.11695 338.506 8.28495 338.506 10.4829V14.3049C338.506 16.5029 337.54 16.6709 336.91 16.6709C336.28 16.6709 335.314 16.5029 335.314 14.3049V10.4829ZM336.91 7.36095C334.418 7.36095 334.418 9.50295 334.418 11.3369V13.4509C334.418 15.2849 334.418 17.4269 336.91 17.4269C339.402 17.4269 339.402 15.2849 339.402 13.4509V11.3369C339.402 9.50295 339.402 7.36095 336.91 7.36095ZM342.668 10.0069C343.284 9.60095 343.844 9.13895 344.376 8.63495V17.2729H345.216V7.51495H344.432C343.942 8.11695 343.312 8.59295 342.668 9.04095V10.0069ZM351.437 12.5969C353.215 12.4569 353.663 13.1289 353.663 14.8089C353.663 15.8449 353.299 16.6709 351.997 16.6709C350.891 16.6709 350.387 15.9429 350.415 14.8789H349.519C349.463 16.6289 350.429 17.4269 352.123 17.4269C353.719 17.4269 354.559 16.4049 354.559 14.6129C354.559 13.4649 354.293 12.3729 352.935 12.2329V12.2049C354.167 11.9109 354.461 10.8749 354.461 9.74095C354.461 8.00495 353.551 7.36095 351.913 7.36095C350.387 7.36095 349.561 8.45295 349.659 9.89495H350.555C350.513 8.88695 350.905 8.11695 352.025 8.11695C353.131 8.11695 353.565 8.78895 353.565 9.85295C353.565 11.3089 352.879 11.9669 351.437 11.8409V12.5969ZM357.504 6.87095C358.008 8.85895 358.442 10.8889 358.442 12.9469C358.442 15.0329 358.078 17.1189 357.504 19.1209H358.19C358.806 17.1889 359.338 15.2009 359.338 13.1569C359.338 11.0009 358.834 8.90095 358.134 6.87095H357.504Z" fill="white"/>
</svg>
