<svg width="360" height="150" viewBox="0 0 360 150" fill="none" xmlns="http://www.w3.org/2000/svg">
<rect width="360" height="150" fill="black" fill-opacity="0.69"/>
<path d="M9.44361 18.1C11.3896 18.1 11.0956 20.046 11.1096 20.48C11.1236 21.026 11.1656 22.706 11.2496 23H12.1036C12.0756 22.608 12.0056 22.216 12.0056 21.824C12.0056 18.212 11.9216 18.044 10.5076 17.75V17.722C11.8656 17.414 12.0756 16.574 12.0756 15.314C12.0756 13.536 11.5856 12.892 9.63961 12.892H6.85361V23H7.74961V18.1H9.44361ZM7.74961 13.648H9.58361C10.6336 13.648 11.1796 13.914 11.1796 15.3C11.1796 16.994 10.5496 17.344 9.20561 17.344H7.74961V13.648ZM19.8456 19.64C19.8456 17.54 19.8456 15.79 17.4096 15.79C15.8276 15.79 14.9736 16.728 14.9736 18.772V20.508C14.9736 22.65 16.1916 23.14 17.4096 23.14C18.8236 23.14 19.7476 22.552 19.8456 20.844H18.9636C18.9776 21.796 18.4596 22.468 17.4096 22.468C16.0796 22.468 15.8136 21.166 15.8136 20.186V19.64H19.8456ZM15.8136 18.968C15.8136 17.4 16.0656 16.462 17.4096 16.462C18.7536 16.462 19.0056 17.4 19.0056 18.968H15.8136ZM23.2803 16.602V21.656C23.2803 22.524 23.6163 23.028 24.7503 23.028C25.0163 23.028 25.2963 23.014 25.5483 22.986V22.258C25.3663 22.286 25.1703 22.3 24.8903 22.3C24.2183 22.3 24.1203 22.076 24.1203 21.138V16.602H25.5483V15.93H24.1203V14.11L23.2803 14.474V15.93H22.1463V16.602H23.2803ZM28.9688 15.93H28.1288V23H28.9688V18.45C28.9688 17.26 29.7528 16.546 30.9428 16.644V15.79C30.0888 15.79 29.3468 16.21 28.9968 16.882H28.9688V15.93ZM34.4893 23V15.93H33.6493V23H34.4893ZM34.5873 13.956V12.892H33.5513V13.956H34.5873ZM42.5628 19.64C42.5628 17.54 42.5628 15.79 40.1268 15.79C38.5448 15.79 37.6908 16.728 37.6908 18.772V20.508C37.6908 22.65 38.9088 23.14 40.1268 23.14C41.5408 23.14 42.4648 22.552 42.5628 20.844H41.6808C41.6948 21.796 41.1768 22.468 40.1268 22.468C38.7968 22.468 38.5308 21.166 38.5308 20.186V19.64H42.5628ZM38.5308 18.968C38.5308 17.4 38.7828 16.462 40.1268 16.462C41.4708 16.462 41.7228 17.4 41.7228 18.968H38.5308ZM45.6895 15.93H44.7795L46.8795 23H47.8455L49.9455 15.93H49.1335L47.4115 21.936H47.3835L45.6895 15.93ZM57.0249 19.64C57.0249 17.54 57.0249 15.79 54.5889 15.79C53.0069 15.79 52.1529 16.728 52.1529 18.772V20.508C52.1529 22.65 53.3709 23.14 54.5889 23.14C56.0029 23.14 56.9269 22.552 57.0249 20.844H56.1429C56.1569 21.796 55.6389 22.468 54.5889 22.468C53.2589 22.468 52.9929 21.166 52.9929 20.186V19.64H57.0249ZM52.9929 18.968C52.9929 17.4 53.2449 16.462 54.5889 16.462C55.9329 16.462 56.1849 17.4 56.1849 18.968H52.9929ZM62.0696 22.468C61.1596 22.468 60.5296 22.118 60.5296 19.486C60.5296 17.834 60.5296 16.462 62.0416 16.462C63.6236 16.462 63.6236 18.422 63.6236 18.842V20.102C63.6236 21.824 62.8676 22.468 62.0696 22.468ZM63.7076 23H64.5196C64.4776 22.762 64.4356 22.3 64.4356 21.6V12.892H63.5956V16.644L63.5676 16.63C63.1336 16.084 62.5036 15.79 61.8596 15.79C59.6896 15.79 59.6896 18.1 59.6896 19.458C59.6896 21.11 59.8016 23.14 61.8456 23.14C62.6716 23.14 63.2036 22.79 63.6376 22.118L63.6656 22.104L63.7076 23ZM72.6258 23H73.4658V16.602H74.8938V15.93H73.4658V14.726C73.4658 14.32 73.4658 13.592 74.2778 13.592H74.9078V12.892C74.6978 12.864 74.5578 12.836 74.4318 12.836C72.7238 12.836 72.6258 14.068 72.6258 14.74V15.93H71.4918V16.602H72.6258V23ZM78.2723 15.93H77.4323V23H78.2723V18.45C78.2723 17.26 79.0563 16.546 80.2463 16.644V15.79C79.3923 15.79 78.6503 16.21 78.3003 16.882H78.2723V15.93ZM84.9268 23.14C86.5788 23.14 87.3628 22.062 87.3628 20.228V18.702C87.3628 16.868 86.5788 15.79 84.9268 15.79C83.2748 15.79 82.4908 16.868 82.4908 18.702V20.228C82.4908 22.062 83.2748 23.14 84.9268 23.14ZM84.9268 16.462C86.3128 16.462 86.5228 17.624 86.5228 19.458C86.5228 21.306 86.3128 22.468 84.9268 22.468C83.5408 22.468 83.3308 21.306 83.3308 19.458C83.3308 17.624 83.5408 16.462 84.9268 16.462ZM91.1195 18.45C91.1195 17.526 91.5255 16.462 92.5895 16.462C93.4155 16.462 93.6675 17.246 93.6815 17.946V23H94.5215V18.45C94.5215 17.526 94.9275 16.462 95.9915 16.462C96.8175 16.462 97.0695 17.246 97.0835 17.946V23H97.9235V17.736C97.8815 16.602 97.2655 15.79 96.0895 15.79C95.3055 15.79 94.7035 16.196 94.3535 16.896C94.1155 16.196 93.4715 15.79 92.7435 15.79C91.9595 15.79 91.3995 16.224 91.0635 16.798H91.0355V15.916H90.2795V23H91.1195V18.45ZM107.341 23H108.237V13.648H110.701V12.892H104.877V13.648H107.341V23ZM113.996 23V18.562C113.996 16.98 114.766 16.462 115.522 16.462C116.502 16.462 116.824 17.232 116.824 18.058V23H117.664V18.016C117.664 17.092 117.482 15.79 115.732 15.79C114.976 15.79 114.43 16.21 114.024 16.798H113.996V12.892H113.156V23H113.996ZM125.466 19.64C125.466 17.54 125.466 15.79 123.03 15.79C121.448 15.79 120.594 16.728 120.594 18.772V20.508C120.594 22.65 121.812 23.14 123.03 23.14C124.444 23.14 125.368 22.552 125.466 20.844H124.584C124.598 21.796 124.08 22.468 123.03 22.468C121.7 22.468 121.434 21.166 121.434 20.186V19.64H125.466ZM121.434 18.968C121.434 17.4 121.686 16.462 123.03 16.462C124.374 16.462 124.626 17.4 124.626 18.968H121.434ZM137.829 22.146C137.353 22.328 136.709 22.44 135.939 22.44C133.755 22.44 133.783 20.494 133.783 17.946C133.783 15.398 133.755 13.452 135.939 13.452C137.353 13.452 137.927 14.152 137.927 15.482H138.823C138.865 13.522 137.871 12.696 135.939 12.696C132.649 12.696 132.887 15.986 132.887 17.946C132.887 19.906 132.649 23.196 135.939 23.196C136.891 23.196 137.829 23.056 138.725 22.776V17.722H135.785V18.478H137.829V22.146ZM145.692 15.93V20.914C145.692 21.404 145.286 22.468 144.152 22.468C142.934 22.468 142.976 20.984 142.976 20.788V15.93H142.136V20.928C142.136 22.076 142.542 23.14 143.998 23.14C144.782 23.14 145.286 22.818 145.776 22.216H145.804V23H146.532V15.93H145.692ZM153.299 20.676C153.299 21.6 152.515 22.468 151.549 22.468C150.681 22.468 150.275 21.81 150.275 21.012C150.275 19.29 152.095 19.43 153.299 19.388V20.676ZM153.355 23H154.223C154.139 22.174 154.139 21.726 154.139 21.222V17.666C154.139 15.86 152.655 15.79 151.941 15.79C150.709 15.79 149.659 16.322 149.589 17.68H150.485C150.485 16.84 151.101 16.462 151.871 16.462C152.991 16.462 153.299 17.092 153.299 18.128V18.716C151.871 18.828 149.379 18.576 149.379 21.054C149.379 22.286 150.065 23.14 151.325 23.14C152.193 23.14 152.879 22.804 153.327 22.132H153.355V23ZM158.217 15.93H157.377V23H158.217V18.45C158.217 17.26 159.001 16.546 160.191 16.644V15.79C159.337 15.79 158.595 16.21 158.245 16.882H158.217V15.93ZM164.732 22.468C163.822 22.468 163.192 22.118 163.192 19.486C163.192 17.834 163.192 16.462 164.704 16.462C166.286 16.462 166.286 18.422 166.286 18.842V20.102C166.286 21.824 165.53 22.468 164.732 22.468ZM166.37 23H167.182C167.14 22.762 167.098 22.3 167.098 21.6V12.892H166.258V16.644L166.23 16.63C165.796 16.084 165.166 15.79 164.522 15.79C162.352 15.79 162.352 18.1 162.352 19.458C162.352 21.11 162.464 23.14 164.508 23.14C165.334 23.14 165.866 22.79 166.3 22.118L166.328 22.104L166.37 23ZM171.358 23V15.93H170.518V23H171.358ZM171.456 13.956V12.892H170.42V13.956H171.456ZM178.34 20.676C178.34 21.6 177.556 22.468 176.59 22.468C175.722 22.468 175.316 21.81 175.316 21.012C175.316 19.29 177.136 19.43 178.34 19.388V20.676ZM178.396 23H179.264C179.18 22.174 179.18 21.726 179.18 21.222V17.666C179.18 15.86 177.696 15.79 176.982 15.79C175.75 15.79 174.7 16.322 174.63 17.68H175.526C175.526 16.84 176.142 16.462 176.912 16.462C178.032 16.462 178.34 17.092 178.34 18.128V18.716C176.912 18.828 174.42 18.576 174.42 21.054C174.42 22.286 175.106 23.14 176.366 23.14C177.234 23.14 177.92 22.804 178.368 22.132H178.396V23ZM183.203 18.562C183.203 16.98 183.973 16.462 184.729 16.462C185.709 16.462 186.031 17.232 186.031 18.058V23H186.871V18.016C186.871 17.092 186.689 15.79 184.939 15.79C184.183 15.79 183.637 16.21 183.231 16.798H183.203V15.93H182.363V23H183.203V18.562ZM189.885 24.47H190.627L191.467 21.936H190.445L189.885 24.47ZM8.37961 34.892H7.63761L6.79761 37.426H7.81961L8.37961 34.892ZM10.4516 34.892H9.70961L8.86961 37.426H9.89161L10.4516 34.892ZM18.525 44.146C18.049 44.328 17.405 44.44 16.635 44.44C14.451 44.44 14.479 42.494 14.479 39.946C14.479 37.398 14.451 35.452 16.635 35.452C18.049 35.452 18.623 36.152 18.623 37.482H19.519C19.561 35.522 18.567 34.696 16.635 34.696C13.345 34.696 13.583 37.986 13.583 39.946C13.583 41.906 13.345 45.196 16.635 45.196C17.587 45.196 18.525 45.056 19.421 44.776V39.722H16.481V40.478H18.525V44.146ZM26.3883 37.93V42.914C26.3883 43.404 25.9823 44.468 24.8483 44.468C23.6303 44.468 23.6723 42.984 23.6723 42.788V37.93H22.8323V42.928C22.8323 44.076 23.2383 45.14 24.6943 45.14C25.4783 45.14 25.9823 44.818 26.4723 44.216H26.5003V45H27.2283V37.93H26.3883ZM31.237 40.562C31.237 38.98 32.007 38.462 32.763 38.462C33.743 38.462 34.065 39.232 34.065 40.058V45H34.905V40.016C34.905 39.092 34.723 37.79 32.973 37.79C32.217 37.79 31.671 38.21 31.265 38.798H31.237V37.93H30.397V45H31.237V40.562ZM43.6412 45V36.054L43.6692 36.026L47.7852 45H49.1432V34.892H48.2472V43.74L48.2192 43.768L44.1172 34.892H42.7452V45H43.6412ZM56.0778 42.676C56.0778 43.6 55.2938 44.468 54.3278 44.468C53.4598 44.468 53.0538 43.81 53.0538 43.012C53.0538 41.29 54.8738 41.43 56.0778 41.388V42.676ZM56.1338 45H57.0018C56.9178 44.174 56.9178 43.726 56.9178 43.222V39.666C56.9178 37.86 55.4338 37.79 54.7198 37.79C53.4878 37.79 52.4378 38.322 52.3678 39.68H53.2638C53.2638 38.84 53.8798 38.462 54.6498 38.462C55.7698 38.462 56.0778 39.092 56.0778 40.128V40.716C54.6498 40.828 52.1578 40.576 52.1578 43.054C52.1578 44.286 52.8438 45.14 54.1038 45.14C54.9718 45.14 55.6578 44.804 56.1058 44.132H56.1338V45ZM60.6045 38.602V43.656C60.6045 44.524 60.9405 45.028 62.0745 45.028C62.3405 45.028 62.6205 45.014 62.8725 44.986V44.258C62.6905 44.286 62.4945 44.3 62.2145 44.3C61.5425 44.3 61.4445 44.076 61.4445 43.138V38.602H62.8725V37.93H61.4445V36.11L60.6045 36.474V37.93H59.4705V38.602H60.6045ZM66.517 45V37.93H65.677V45H66.517ZM66.615 35.956V34.892H65.579V35.956H66.615ZM72.1545 45.14C73.8065 45.14 74.5905 44.062 74.5905 42.228V40.702C74.5905 38.868 73.8065 37.79 72.1545 37.79C70.5025 37.79 69.7185 38.868 69.7185 40.702V42.228C69.7185 44.062 70.5025 45.14 72.1545 45.14ZM72.1545 38.462C73.5405 38.462 73.7505 39.624 73.7505 41.458C73.7505 43.306 73.5405 44.468 72.1545 44.468C70.7685 44.468 70.5585 43.306 70.5585 41.458C70.5585 39.624 70.7685 38.462 72.1545 38.462ZM78.3612 40.562C78.3612 38.98 79.1312 38.462 79.8872 38.462C80.8672 38.462 81.1892 39.232 81.1892 40.058V45H82.0292V40.016C82.0292 39.092 81.8472 37.79 80.0972 37.79C79.3412 37.79 78.7952 38.21 78.3892 38.798H78.3612V37.93H77.5212V45H78.3612V40.562ZM85.3239 45H86.3599V43.936H85.3239V45ZM85.3239 38.994H86.3599V37.93H85.3239V38.994ZM95.269 45V37.93H94.429V45H95.269ZM95.367 35.956V34.892H94.331V35.956H95.367ZM99.4925 40.562C99.4925 38.98 100.262 38.462 101.018 38.462C101.998 38.462 102.32 39.232 102.32 40.058V45H103.16V40.016C103.16 39.092 102.978 37.79 101.228 37.79C100.472 37.79 99.9265 38.21 99.5205 38.798H99.4925V37.93H98.6525V45H99.4925V40.562ZM110.235 43.138C110.235 40.772 107.057 41.248 107.057 39.484C107.057 38.854 107.533 38.462 108.135 38.462C109.087 38.462 109.325 38.938 109.367 39.834H110.193C110.193 38.756 109.745 37.79 108.345 37.79C107.113 37.79 106.217 38.252 106.217 39.554C106.217 41.892 109.395 41.416 109.395 43.264C109.395 44.048 109.003 44.51 108.191 44.51C107.113 44.51 106.889 43.866 106.889 42.9H106.035C106.021 44.398 106.623 45.14 108.149 45.14C109.465 45.14 110.235 44.468 110.235 43.138ZM114.235 45V37.93H113.395V45H114.235ZM114.333 35.956V34.892H113.297V35.956H114.333ZM119.732 44.468C118.822 44.468 118.192 44.118 118.192 41.486C118.192 39.834 118.192 38.462 119.704 38.462C121.286 38.462 121.286 40.422 121.286 40.842V42.102C121.286 43.824 120.53 44.468 119.732 44.468ZM121.37 45H122.182C122.14 44.762 122.098 44.3 122.098 43.6V34.892H121.258V38.644L121.23 38.63C120.796 38.084 120.166 37.79 119.522 37.79C117.352 37.79 117.352 40.1 117.352 41.458C117.352 43.11 117.464 45.14 119.508 45.14C120.334 45.14 120.866 44.79 121.3 44.118L121.328 44.104L121.37 45ZM129.929 41.64C129.929 39.54 129.929 37.79 127.493 37.79C125.911 37.79 125.057 38.728 125.057 40.772V42.508C125.057 44.65 126.275 45.14 127.493 45.14C128.907 45.14 129.831 44.552 129.929 42.844H129.047C129.061 43.796 128.543 44.468 127.493 44.468C126.163 44.468 125.897 43.166 125.897 42.186V41.64H129.929ZM125.897 40.968C125.897 39.4 126.149 38.462 127.493 38.462C128.837 38.462 129.089 39.4 129.089 40.968H125.897ZM137.867 38.602V43.656C137.867 44.524 138.203 45.028 139.337 45.028C139.603 45.028 139.883 45.014 140.135 44.986V44.258C139.953 44.286 139.757 44.3 139.477 44.3C138.805 44.3 138.707 44.076 138.707 43.138V38.602H140.135V37.93H138.707V36.11L137.867 36.474V37.93H136.733V38.602H137.867ZM143.5 45V40.562C143.5 38.98 144.27 38.462 145.026 38.462C146.006 38.462 146.328 39.232 146.328 40.058V45H147.168V40.016C147.168 39.092 146.986 37.79 145.236 37.79C144.48 37.79 143.934 38.21 143.528 38.798H143.5V34.892H142.66V45H143.5ZM154.97 41.64C154.97 39.54 154.97 37.79 152.534 37.79C150.952 37.79 150.098 38.728 150.098 40.772V42.508C150.098 44.65 151.316 45.14 152.534 45.14C153.948 45.14 154.872 44.552 154.97 42.844H154.088C154.102 43.796 153.584 44.468 152.534 44.468C151.204 44.468 150.938 43.166 150.938 42.186V41.64H154.97ZM150.938 40.968C150.938 39.4 151.19 38.462 152.534 38.462C153.878 38.462 154.13 39.4 154.13 40.968H150.938ZM163.384 34.892H162.488V41.906C162.488 44.51 163.86 45.196 165.442 45.196C167.024 45.196 168.396 44.51 168.396 41.906V34.892H167.5V41.248C167.5 42.564 167.5 44.44 165.442 44.44C163.384 44.44 163.384 42.564 163.384 41.248V34.892ZM176.932 37.454C176.932 35.998 176.484 34.696 174.384 34.696C172.732 34.696 171.626 35.424 171.64 37.174C171.654 38.182 171.738 38.784 173.698 39.988C175.154 40.884 176.064 41.276 176.064 42.648C176.064 43.81 175.49 44.44 174.314 44.44C172.508 44.44 172.424 43.278 172.424 42.158H171.5C171.416 44.132 172.298 45.196 174.272 45.196C176.036 45.196 176.96 44.314 176.96 42.508C176.96 40.548 175.686 40.282 174.44 39.386C173.292 38.56 172.536 38.518 172.536 37.02C172.536 35.83 173.222 35.452 174.314 35.452C175.686 35.452 175.994 36.208 176.022 37.454H176.932ZM179.886 37.426H180.628L181.468 34.892H180.446L179.886 37.426ZM187.191 43.138C187.191 40.772 184.013 41.248 184.013 39.484C184.013 38.854 184.489 38.462 185.091 38.462C186.043 38.462 186.281 38.938 186.323 39.834H187.149C187.149 38.756 186.701 37.79 185.301 37.79C184.069 37.79 183.173 38.252 183.173 39.554C183.173 41.892 186.351 41.416 186.351 43.264C186.351 44.048 185.959 44.51 185.147 44.51C184.069 44.51 183.845 43.866 183.845 42.9H182.991C182.977 44.398 183.579 45.14 185.105 45.14C186.421 45.14 187.191 44.468 187.191 43.138ZM196.688 44.468C195.778 44.468 195.148 44.118 195.148 41.486C195.148 39.834 195.148 38.462 196.66 38.462C198.242 38.462 198.242 40.422 198.242 40.842V42.102C198.242 43.824 197.486 44.468 196.688 44.468ZM198.326 45H199.138C199.096 44.762 199.054 44.3 199.054 43.6V34.892H198.214V38.644L198.186 38.63C197.752 38.084 197.122 37.79 196.478 37.79C194.308 37.79 194.308 40.1 194.308 41.458C194.308 43.11 194.42 45.14 196.464 45.14C197.29 45.14 197.822 44.79 198.256 44.118L198.284 44.104L198.326 45ZM206.885 41.64C206.885 39.54 206.885 37.79 204.449 37.79C202.867 37.79 202.013 38.728 202.013 40.772V42.508C202.013 44.65 203.231 45.14 204.449 45.14C205.863 45.14 206.787 44.552 206.885 42.844H206.003C206.017 43.796 205.499 44.468 204.449 44.468C203.119 44.468 202.853 43.166 202.853 42.186V41.64H206.885ZM202.853 40.968C202.853 39.4 203.105 38.462 204.449 38.462C205.793 38.462 206.045 39.4 206.045 40.968H202.853ZM213.414 42.676C213.414 43.6 212.63 44.468 211.664 44.468C210.796 44.468 210.39 43.81 210.39 43.012C210.39 41.29 212.21 41.43 213.414 41.388V42.676ZM213.47 45H214.338C214.254 44.174 214.254 43.726 214.254 43.222V39.666C214.254 37.86 212.77 37.79 212.056 37.79C210.824 37.79 209.774 38.322 209.704 39.68H210.6C210.6 38.84 211.216 38.462 211.986 38.462C213.106 38.462 213.414 39.092 213.414 40.128V40.716C211.986 40.828 209.494 40.576 209.494 43.054C209.494 44.286 210.18 45.14 211.44 45.14C212.308 45.14 212.994 44.804 213.442 44.132H213.47V45ZM219.55 44.468C218.64 44.468 218.01 44.118 218.01 41.486C218.01 39.834 218.01 38.462 219.522 38.462C221.104 38.462 221.104 40.422 221.104 40.842V42.102C221.104 43.824 220.348 44.468 219.55 44.468ZM221.188 45H222C221.958 44.762 221.916 44.3 221.916 43.6V34.892H221.076V38.644L221.048 38.63C220.614 38.084 219.984 37.79 219.34 37.79C217.17 37.79 217.17 40.1 217.17 41.458C217.17 43.11 217.282 45.14 219.326 45.14C220.152 45.14 220.684 44.79 221.118 44.118L221.146 44.104L221.188 45ZM226.177 45V34.892H225.337V45H226.177ZM230.261 47.674H231.087L234.013 37.93H233.173L231.507 43.726H231.479L229.757 37.93H228.847L231.087 45.014L230.261 47.674ZM243.16 45.14C244.812 45.14 245.596 44.062 245.596 42.228V40.702C245.596 38.868 244.812 37.79 243.16 37.79C241.508 37.79 240.724 38.868 240.724 40.702V42.228C240.724 44.062 241.508 45.14 243.16 45.14ZM243.16 38.462C244.546 38.462 244.756 39.624 244.756 41.458C244.756 43.306 244.546 44.468 243.16 44.468C241.774 44.468 241.564 43.306 241.564 41.458C241.564 39.624 241.774 38.462 243.16 38.462ZM249.366 41.36C249.366 40.296 249.534 38.462 250.892 38.462C252.446 38.462 252.488 39.834 252.488 41.486C252.488 43.138 252.446 44.468 250.892 44.468C249.366 44.468 249.366 42.48 249.366 41.36ZM249.338 45V44.146H249.366C249.716 44.804 250.318 45.14 251.144 45.14C253.202 45.14 253.328 43.012 253.328 41.458C253.328 40.198 253.51 37.79 251.214 37.79C250.416 37.79 249.856 38.084 249.422 38.756L249.394 38.728V34.892H248.554V44.3C248.554 44.538 248.512 44.762 248.47 45H249.338ZM260.109 43.138C260.109 40.772 256.931 41.248 256.931 39.484C256.931 38.854 257.407 38.462 258.009 38.462C258.961 38.462 259.199 38.938 259.241 39.834H260.067C260.067 38.756 259.619 37.79 258.219 37.79C256.987 37.79 256.091 38.252 256.091 39.554C256.091 41.892 259.269 41.416 259.269 43.264C259.269 44.048 258.877 44.51 258.065 44.51C256.987 44.51 256.763 43.866 256.763 42.9H255.909C255.895 44.398 256.497 45.14 258.023 45.14C259.339 45.14 260.109 44.468 260.109 43.138ZM267.678 41.64C267.678 39.54 267.678 37.79 265.242 37.79C263.66 37.79 262.806 38.728 262.806 40.772V42.508C262.806 44.65 264.024 45.14 265.242 45.14C266.656 45.14 267.58 44.552 267.678 42.844H266.796C266.81 43.796 266.292 44.468 265.242 44.468C263.912 44.468 263.646 43.166 263.646 42.186V41.64H267.678ZM263.646 40.968C263.646 39.4 263.898 38.462 265.242 38.462C266.586 38.462 266.838 39.4 266.838 40.968H263.646ZM274.571 43.138C274.571 40.772 271.393 41.248 271.393 39.484C271.393 38.854 271.869 38.462 272.471 38.462C273.423 38.462 273.661 38.938 273.703 39.834H274.529C274.529 38.756 274.081 37.79 272.681 37.79C271.449 37.79 270.553 38.252 270.553 39.554C270.553 41.892 273.731 41.416 273.731 43.264C273.731 44.048 273.339 44.51 272.527 44.51C271.449 44.51 271.225 43.866 271.225 42.9H270.371C270.357 44.398 270.959 45.14 272.485 45.14C273.801 45.14 274.571 44.468 274.571 43.138ZM281.413 43.138C281.413 40.772 278.235 41.248 278.235 39.484C278.235 38.854 278.711 38.462 279.313 38.462C280.265 38.462 280.503 38.938 280.545 39.834H281.371C281.371 38.756 280.923 37.79 279.523 37.79C278.291 37.79 277.395 38.252 277.395 39.554C277.395 41.892 280.573 41.416 280.573 43.264C280.573 44.048 280.181 44.51 279.369 44.51C278.291 44.51 278.067 43.866 278.067 42.9H277.213C277.199 44.398 277.801 45.14 279.327 45.14C280.643 45.14 281.413 44.468 281.413 43.138ZM285.412 45V37.93H284.572V45H285.412ZM285.51 35.956V34.892H284.474V35.956H285.51ZM291.049 45.14C292.701 45.14 293.485 44.062 293.485 42.228V40.702C293.485 38.868 292.701 37.79 291.049 37.79C289.397 37.79 288.613 38.868 288.613 40.702V42.228C288.613 44.062 289.397 45.14 291.049 45.14ZM291.049 38.462C292.435 38.462 292.645 39.624 292.645 41.458C292.645 43.306 292.435 44.468 291.049 44.468C289.663 44.468 289.453 43.306 289.453 41.458C289.453 39.624 289.663 38.462 291.049 38.462ZM297.256 40.562C297.256 38.98 298.026 38.462 298.782 38.462C299.762 38.462 300.084 39.232 300.084 40.058V45H300.924V40.016C300.924 39.092 300.742 37.79 298.992 37.79C298.236 37.79 297.69 38.21 297.284 38.798H297.256V37.93H296.416V45H297.256V40.562ZM304.079 37.426H304.821L305.661 34.892H304.639L304.079 37.426ZM306.151 37.426H306.893L307.733 34.892H306.711L306.151 37.426ZM316.166 34.598C315.466 36.628 314.962 38.728 314.962 40.884C314.962 42.928 315.494 44.916 316.11 46.848H316.796C316.222 44.846 315.858 42.76 315.858 40.674C315.858 38.616 316.292 36.586 316.796 34.598H316.166ZM324.547 44.244H320.557C323.819 39.344 324.533 38.546 324.533 37.118C324.533 35.452 323.175 35.088 322.041 35.088C320.907 35.088 319.605 35.676 319.605 37.622H320.445C320.445 36.614 320.977 35.844 322.041 35.844C322.811 35.844 323.637 36.012 323.637 37.314C323.637 38.616 321.747 40.856 319.577 44.216V45H324.547V44.244ZM328.164 38.21C328.164 36.012 329.13 35.844 329.76 35.844C330.39 35.844 331.356 36.012 331.356 38.21V42.032C331.356 44.23 330.39 44.398 329.76 44.398C329.13 44.398 328.164 44.23 328.164 42.032V38.21ZM329.76 35.088C327.268 35.088 327.268 37.23 327.268 39.064V41.178C327.268 43.012 327.268 45.154 329.76 45.154C332.252 45.154 332.252 43.012 332.252 41.178V39.064C332.252 37.23 332.252 35.088 329.76 35.088ZM335.519 37.734C336.135 37.328 336.695 36.866 337.227 36.362V45H338.067V35.242H337.283C336.793 35.844 336.163 36.32 335.519 36.768V37.734ZM346.597 41.864C346.597 43.026 346.527 44.398 345.015 44.398C343.167 44.398 343.363 42.032 343.363 41.948C343.363 40.282 344.063 39.61 345.085 39.61C346.233 39.61 346.597 40.352 346.597 41.864ZM347.395 37.412C347.367 35.886 346.639 35.088 345.127 35.088C342.971 35.088 342.523 36.264 342.523 38.63V41.822C342.523 43.768 342.747 45.154 345.127 45.154C347.269 45.154 347.493 43.516 347.493 41.612C347.493 41.318 347.647 38.854 345.309 38.854C344.455 38.854 343.755 39.204 343.391 39.918L343.363 39.932V39.078C343.363 37.594 343.391 35.844 345.071 35.844C346.051 35.844 346.443 36.446 346.499 37.412H347.395ZM350.354 34.598C350.858 36.586 351.292 38.616 351.292 40.674C351.292 42.76 350.928 44.846 350.354 46.848H351.04C351.656 44.916 352.188 42.928 352.188 40.884C352.188 38.728 351.684 36.628 350.984 34.598H350.354ZM9.27561 56.892L6.08361 67H6.97961L7.77761 64.34H11.7396L12.5516 67H13.4896L10.3396 56.892H9.27561ZM8.04361 63.584L9.75161 57.872H9.77961L11.5016 63.584H8.04361ZM16.7749 63.36C16.7749 62.296 16.9429 60.462 18.3009 60.462C19.8549 60.462 19.8969 61.834 19.8969 63.486C19.8969 65.138 19.8549 66.468 18.3009 66.468C16.7749 66.468 16.7749 64.48 16.7749 63.36ZM16.7469 67V66.146H16.7749C17.1249 66.804 17.7269 67.14 18.5529 67.14C20.6109 67.14 20.7369 65.012 20.7369 63.458C20.7369 62.198 20.9189 59.79 18.6229 59.79C17.8249 59.79 17.2649 60.084 16.8309 60.756L16.8029 60.728V56.892H15.9629V66.3C15.9629 66.538 15.9209 66.762 15.8789 67H16.7469ZM25.8096 67.14C27.4616 67.14 28.2456 66.062 28.2456 64.228V62.702C28.2456 60.868 27.4616 59.79 25.8096 59.79C24.1576 59.79 23.3736 60.868 23.3736 62.702V64.228C23.3736 66.062 24.1576 67.14 25.8096 67.14ZM25.8096 60.462C27.1956 60.462 27.4056 61.624 27.4056 63.458C27.4056 65.306 27.1956 66.468 25.8096 66.468C24.4236 66.468 24.2136 65.306 24.2136 63.458C24.2136 61.624 24.4236 60.462 25.8096 60.462ZM31.3723 59.93H30.4623L32.5623 67H33.5283L35.6283 59.93H34.8163L33.0943 65.936H33.0663L31.3723 59.93ZM42.7077 63.64C42.7077 61.54 42.7077 59.79 40.2717 59.79C38.6897 59.79 37.8357 60.728 37.8357 62.772V64.508C37.8357 66.65 39.0537 67.14 40.2717 67.14C41.6857 67.14 42.6097 66.552 42.7077 64.844H41.8257C41.8397 65.796 41.3217 66.468 40.2717 66.468C38.9417 66.468 38.6757 65.166 38.6757 64.186V63.64H42.7077ZM38.6757 62.968C38.6757 61.4 38.9277 60.462 40.2717 60.462C41.6157 60.462 41.8677 61.4 41.8677 62.968H38.6757ZM45.8204 67H46.8564V65.936H45.8204V67ZM45.8204 60.994H46.8564V59.93H45.8204V60.994ZM57.3335 62.1C59.2795 62.1 58.9855 64.046 58.9995 64.48C59.0135 65.026 59.0555 66.706 59.1395 67H59.9935C59.9655 66.608 59.8955 66.216 59.8955 65.824C59.8955 62.212 59.8115 62.044 58.3975 61.75V61.722C59.7555 61.414 59.9655 60.574 59.9655 59.314C59.9655 57.536 59.4755 56.892 57.5295 56.892H54.7435V67H55.6395V62.1H57.3335ZM55.6395 57.648H57.4735C58.5235 57.648 59.0695 57.914 59.0695 59.3C59.0695 60.994 58.4395 61.344 57.0955 61.344H55.6395V57.648ZM64.1655 67V59.93H63.3255V67H64.1655ZM64.2635 57.956V56.892H63.2275V57.956H64.2635ZM71.539 61.96C71.609 60.476 70.783 59.79 69.565 59.79C68.599 59.79 67.801 60.154 67.437 61.162C67.255 61.694 67.227 62.8 67.227 63.5C67.227 65.25 67.227 67.14 69.621 67.14C70.279 67.14 71.623 66.818 71.553 64.914H70.713C70.671 65.768 70.531 66.468 69.425 66.468C68.123 66.468 68.123 64.774 68.123 63.5C68.123 62.562 68.207 61.596 68.319 61.274C68.501 60.756 68.935 60.462 69.453 60.462C70.419 60.462 70.741 61.078 70.699 61.96H71.539ZM75.2304 67V62.562C75.2304 60.98 76.0004 60.462 76.7564 60.462C77.7364 60.462 78.0584 61.232 78.0584 62.058V67H78.8984V62.016C78.8984 61.092 78.7164 59.79 76.9664 59.79C76.2104 59.79 75.6644 60.21 75.2584 60.798H75.2304V56.892H74.3904V67H75.2304ZM85.6091 64.676C85.6091 65.6 84.8251 66.468 83.8591 66.468C82.9911 66.468 82.5851 65.81 82.5851 65.012C82.5851 63.29 84.4051 63.43 85.6091 63.388V64.676ZM85.6651 67H86.5331C86.4491 66.174 86.4491 65.726 86.4491 65.222V61.666C86.4491 59.86 84.9651 59.79 84.2511 59.79C83.0191 59.79 81.9691 60.322 81.8991 61.68H82.7951C82.7951 60.84 83.4111 60.462 84.1811 60.462C85.3011 60.462 85.6091 61.092 85.6091 62.128V62.716C84.1811 62.828 81.6891 62.576 81.6891 65.054C81.6891 66.286 82.3751 67.14 83.6351 67.14C84.5031 67.14 85.1891 66.804 85.6371 66.132H85.6651V67ZM90.5278 59.93H89.6878V67H90.5278V62.45C90.5278 61.26 91.3118 60.546 92.5018 60.644V59.79C91.6478 59.79 90.9058 60.21 90.5558 60.882H90.5278V59.93ZM97.0423 66.468C96.1323 66.468 95.5023 66.118 95.5023 63.486C95.5023 61.834 95.5023 60.462 97.0143 60.462C98.5963 60.462 98.5963 62.422 98.5963 62.842V64.102C98.5963 65.824 97.8403 66.468 97.0423 66.468ZM98.6803 67H99.4923C99.4503 66.762 99.4083 66.3 99.4083 65.6V56.892H98.5683V60.644L98.5403 60.63C98.1063 60.084 97.4763 59.79 96.8323 59.79C94.6623 59.79 94.6623 62.1 94.6623 63.458C94.6623 65.11 94.7743 67.14 96.8183 67.14C97.6443 67.14 98.1763 66.79 98.6103 66.118L98.6383 66.104L98.6803 67ZM108.088 67V57.76H108.116L111.168 67H112.204L115.172 57.76H115.2V67H116.096V56.892H114.668L111.728 66.02H111.7L108.718 56.892H107.192V67H108.088ZM122.947 64.676C122.947 65.6 122.163 66.468 121.197 66.468C120.329 66.468 119.923 65.81 119.923 65.012C119.923 63.29 121.743 63.43 122.947 63.388V64.676ZM123.003 67H123.871C123.787 66.174 123.787 65.726 123.787 65.222V61.666C123.787 59.86 122.303 59.79 121.589 59.79C120.357 59.79 119.307 60.322 119.237 61.68H120.133C120.133 60.84 120.749 60.462 121.519 60.462C122.639 60.462 122.947 61.092 122.947 62.128V62.716C121.519 62.828 119.027 62.576 119.027 65.054C119.027 66.286 119.713 67.14 120.973 67.14C121.841 67.14 122.527 66.804 122.975 66.132H123.003V67ZM130.96 61.96C131.03 60.476 130.204 59.79 128.986 59.79C128.02 59.79 127.222 60.154 126.858 61.162C126.676 61.694 126.648 62.8 126.648 63.5C126.648 65.25 126.648 67.14 129.042 67.14C129.7 67.14 131.044 66.818 130.974 64.914H130.134C130.092 65.768 129.952 66.468 128.846 66.468C127.544 66.468 127.544 64.774 127.544 63.5C127.544 62.562 127.628 61.596 127.74 61.274C127.922 60.756 128.356 60.462 128.874 60.462C129.84 60.462 130.162 61.078 130.12 61.96H130.96ZM133.839 67H134.679V63.15H134.707L137.227 67H138.291L135.617 63.08L138.123 59.93H137.143L134.707 63.052H134.679V56.892H133.839V67ZM146.78 56.892H146.038L145.198 59.426H146.22L146.78 56.892ZM148.852 56.892H148.11L147.27 59.426H148.292L148.852 56.892ZM156.925 66.146C156.449 66.328 155.805 66.44 155.035 66.44C152.851 66.44 152.879 64.494 152.879 61.946C152.879 59.398 152.851 57.452 155.035 57.452C156.449 57.452 157.023 58.152 157.023 59.482H157.919C157.961 57.522 156.967 56.696 155.035 56.696C151.745 56.696 151.983 59.986 151.983 61.946C151.983 63.906 151.745 67.196 155.035 67.196C155.987 67.196 156.925 67.056 157.821 66.776V61.722H154.881V62.478H156.925V66.146ZM163.431 67.14C165.083 67.14 165.867 66.062 165.867 64.228V62.702C165.867 60.868 165.083 59.79 163.431 59.79C161.779 59.79 160.995 60.868 160.995 62.702V64.228C160.995 66.062 161.779 67.14 163.431 67.14ZM163.431 60.462C164.817 60.462 165.027 61.624 165.027 63.458C165.027 65.306 164.817 66.468 163.431 66.468C162.045 66.468 161.835 65.306 161.835 63.458C161.835 61.624 162.045 60.462 163.431 60.462ZM170.911 66.468C170.001 66.468 169.371 66.118 169.371 63.486C169.371 61.834 169.371 60.462 170.883 60.462C172.465 60.462 172.465 62.422 172.465 62.842V64.102C172.465 65.824 171.709 66.468 170.911 66.468ZM172.549 67H173.361C173.319 66.762 173.277 66.3 173.277 65.6V56.892H172.437V60.644L172.409 60.63C171.975 60.084 171.345 59.79 170.701 59.79C168.531 59.79 168.531 62.1 168.531 63.458C168.531 65.11 168.643 67.14 170.687 67.14C171.513 67.14 172.045 66.79 172.479 66.118L172.507 66.104L172.549 67ZM176.32 68.47H177.062L177.902 65.936H176.88L176.32 68.47ZM187.945 56.892L184.753 67H185.649L186.447 64.34H190.409L191.221 67H192.159L189.009 56.892H187.945ZM186.713 63.584L188.421 57.872H188.449L190.171 63.584H186.713ZM195.43 62.45C195.43 61.526 195.836 60.462 196.9 60.462C197.726 60.462 197.978 61.246 197.992 61.946V67H198.832V62.45C198.832 61.526 199.238 60.462 200.302 60.462C201.128 60.462 201.38 61.246 201.394 61.946V67H202.234V61.736C202.192 60.602 201.576 59.79 200.4 59.79C199.616 59.79 199.014 60.196 198.664 60.896C198.426 60.196 197.782 59.79 197.054 59.79C196.27 59.79 195.71 60.224 195.374 60.798H195.346V59.916H194.59V67H195.43V62.45ZM210.032 63.64C210.032 61.54 210.032 59.79 207.596 59.79C206.014 59.79 205.16 60.728 205.16 62.772V64.508C205.16 66.65 206.378 67.14 207.596 67.14C209.01 67.14 209.934 66.552 210.032 64.844H209.15C209.164 65.796 208.646 66.468 207.596 66.468C206.266 66.468 206 65.166 206 64.186V63.64H210.032ZM206 62.968C206 61.4 206.252 60.462 207.596 60.462C208.94 60.462 209.192 61.4 209.192 62.968H206ZM213.859 59.93H213.019V67H213.859V62.45C213.859 61.26 214.643 60.546 215.833 60.644V59.79C214.979 59.79 214.237 60.21 213.887 60.882H213.859V59.93ZM219.38 67V59.93H218.54V67H219.38ZM219.478 57.956V56.892H218.442V57.956H219.478ZM226.753 61.96C226.823 60.476 225.997 59.79 224.779 59.79C223.813 59.79 223.015 60.154 222.651 61.162C222.469 61.694 222.441 62.8 222.441 63.5C222.441 65.25 222.441 67.14 224.835 67.14C225.493 67.14 226.837 66.818 226.767 64.914H225.927C225.885 65.768 225.745 66.468 224.639 66.468C223.337 66.468 223.337 64.774 223.337 63.5C223.337 62.562 223.421 61.596 223.533 61.274C223.715 60.756 224.149 60.462 224.667 60.462C225.633 60.462 225.955 61.078 225.913 61.96H226.753ZM233.202 64.676C233.202 65.6 232.418 66.468 231.452 66.468C230.584 66.468 230.178 65.81 230.178 65.012C230.178 63.29 231.998 63.43 233.202 63.388V64.676ZM233.258 67H234.126C234.042 66.174 234.042 65.726 234.042 65.222V61.666C234.042 59.86 232.558 59.79 231.844 59.79C230.612 59.79 229.562 60.322 229.492 61.68H230.388C230.388 60.84 231.004 60.462 231.774 60.462C232.894 60.462 233.202 61.092 233.202 62.128V62.716C231.774 62.828 229.282 62.576 229.282 65.054C229.282 66.286 229.968 67.14 231.228 67.14C232.096 67.14 232.782 66.804 233.23 66.132H233.258V67ZM245.327 64.676C245.327 65.6 244.543 66.468 243.577 66.468C242.709 66.468 242.303 65.81 242.303 65.012C242.303 63.29 244.123 63.43 245.327 63.388V64.676ZM245.383 67H246.251C246.167 66.174 246.167 65.726 246.167 65.222V61.666C246.167 59.86 244.683 59.79 243.969 59.79C242.737 59.79 241.687 60.322 241.617 61.68H242.513C242.513 60.84 243.129 60.462 243.899 60.462C245.019 60.462 245.327 61.092 245.327 62.128V62.716C243.899 62.828 241.407 62.576 241.407 65.054C241.407 66.286 242.093 67.14 243.353 67.14C244.221 67.14 244.907 66.804 245.355 66.132H245.383V67ZM250.189 62.562C250.189 60.98 250.959 60.462 251.715 60.462C252.695 60.462 253.017 61.232 253.017 62.058V67H253.857V62.016C253.857 61.092 253.675 59.79 251.925 59.79C251.169 59.79 250.623 60.21 250.217 60.798H250.189V59.93H249.349V67H250.189V62.562ZM259.084 66.468C258.174 66.468 257.544 66.118 257.544 63.486C257.544 61.834 257.544 60.462 259.056 60.462C260.638 60.462 260.638 62.422 260.638 62.842V64.102C260.638 65.824 259.882 66.468 259.084 66.468ZM260.722 67H261.534C261.492 66.762 261.45 66.3 261.45 65.6V56.892H260.61V60.644L260.582 60.63C260.148 60.084 259.518 59.79 258.874 59.79C256.704 59.79 256.704 62.1 256.704 63.458C256.704 65.11 256.816 67.14 258.86 67.14C259.686 67.14 260.218 66.79 260.652 66.118L260.68 66.104L260.722 67ZM274.022 66.146C273.546 66.328 272.902 66.44 272.132 66.44C269.948 66.44 269.976 64.494 269.976 61.946C269.976 59.398 269.948 57.452 272.132 57.452C273.546 57.452 274.12 58.152 274.12 59.482H275.016C275.058 57.522 274.064 56.696 272.132 56.696C268.842 56.696 269.08 59.986 269.08 61.946C269.08 63.906 268.842 67.196 272.132 67.196C273.084 67.196 274.022 67.056 274.918 66.776V61.722H271.978V62.478H274.022V66.146ZM281.886 59.93V64.914C281.886 65.404 281.48 66.468 280.346 66.468C279.128 66.468 279.17 64.984 279.17 64.788V59.93H278.33V64.928C278.33 66.076 278.736 67.14 280.192 67.14C280.976 67.14 281.48 66.818 281.97 66.216H281.998V67H282.726V59.93H281.886ZM286.734 62.562C286.734 60.98 287.504 60.462 288.26 60.462C289.24 60.462 289.562 61.232 289.562 62.058V67H290.402V62.016C290.402 61.092 290.22 59.79 288.47 59.79C287.714 59.79 287.168 60.21 286.762 60.798H286.734V59.93H285.894V67H286.734V62.562ZM297.477 65.138C297.477 62.772 294.299 63.248 294.299 61.484C294.299 60.854 294.775 60.462 295.377 60.462C296.329 60.462 296.567 60.938 296.609 61.834H297.435C297.435 60.756 296.987 59.79 295.587 59.79C294.355 59.79 293.459 60.252 293.459 61.554C293.459 63.892 296.637 63.416 296.637 65.264C296.637 66.048 296.245 66.51 295.433 66.51C294.355 66.51 294.131 65.866 294.131 64.9H293.277C293.263 66.398 293.865 67.14 295.391 67.14C296.707 67.14 297.477 66.468 297.477 65.138ZM300.538 67H301.574V65.936H300.538V67ZM304.902 59.426H305.644L306.484 56.892H305.462L304.902 59.426ZM306.974 59.426H307.716L308.556 56.892H307.534L306.974 59.426ZM7.74961 83.386V79.648H9.52761C10.2416 79.648 11.1656 79.676 11.1656 81.356C11.1656 82.504 10.7596 83.386 9.47161 83.386H7.74961ZM9.70961 89C11.4036 89 12.2716 88.006 12.2716 86.186C12.2716 84.912 11.9216 84.03 10.5916 83.75V83.722C11.8656 83.372 12.0616 82.532 12.0616 81.314C12.0616 79.536 11.2496 78.892 9.66761 78.892H6.85361V89H9.70961ZM7.74961 84.142H9.56961C11.1096 84.142 11.3756 85.36 11.3756 86.256C11.3756 87.74 10.6616 88.244 9.17761 88.244H7.74961V84.142ZM19.8456 85.64C19.8456 83.54 19.8456 81.79 17.4096 81.79C15.8276 81.79 14.9736 82.728 14.9736 84.772V86.508C14.9736 88.65 16.1916 89.14 17.4096 89.14C18.8236 89.14 19.7476 88.552 19.8456 86.844H18.9636C18.9776 87.796 18.4596 88.468 17.4096 88.468C16.0796 88.468 15.8136 87.166 15.8136 86.186V85.64H19.8456ZM15.8136 84.968C15.8136 83.4 16.0656 82.462 17.4096 82.462C18.7536 82.462 19.0056 83.4 19.0056 84.968H15.8136ZM23.8963 89V78.892H23.0563V89H23.8963ZM29.5338 89.14C31.1858 89.14 31.9698 88.062 31.9698 86.228V84.702C31.9698 82.868 31.1858 81.79 29.5338 81.79C27.8818 81.79 27.0978 82.868 27.0978 84.702V86.228C27.0978 88.062 27.8818 89.14 29.5338 89.14ZM29.5338 82.462C30.9198 82.462 31.1298 83.624 31.1298 85.458C31.1298 87.306 30.9198 88.468 29.5338 88.468C28.1478 88.468 27.9378 87.306 27.9378 85.458C27.9378 83.624 28.1478 82.462 29.5338 82.462ZM36.1325 89H37.1825L38.6665 82.952H38.6945L40.2485 89H41.2985L43.2445 81.93H42.4045L40.8225 88.118H40.7945L39.2265 81.93H38.1905L36.6925 88.118H36.6645L35.0825 81.93H34.1865L36.1325 89ZM45.8204 89H46.8564V87.936H45.8204V89ZM45.8204 82.994H46.8564V81.93H45.8204V82.994ZM55.6815 89V79.76H55.7095L58.7615 89H59.7975L62.7655 79.76H62.7935V89H63.6895V78.892H62.2615L59.3215 88.02H59.2935L56.3115 78.892H54.7855V89H55.6815ZM68.0619 89V81.93H67.2219V89H68.0619ZM68.1599 79.956V78.892H67.1239V79.956H68.1599ZM71.4735 89H72.3135V85.15H72.3415L74.8615 89H75.9255L73.2515 85.08L75.7575 81.93H74.7775L72.3415 85.052H72.3135V78.892H71.4735V89ZM82.9769 85.64C82.9769 83.54 82.9769 81.79 80.5409 81.79C78.9589 81.79 78.1049 82.728 78.1049 84.772V86.508C78.1049 88.65 79.3229 89.14 80.5409 89.14C81.9549 89.14 82.8789 88.552 82.9769 86.844H82.0949C82.1089 87.796 81.5909 88.468 80.5409 88.468C79.2109 88.468 78.9449 87.166 78.9449 86.186V85.64H82.9769ZM78.9449 84.968C78.9449 83.4 79.1969 82.462 80.5409 82.462C81.8849 82.462 82.1369 83.4 82.1369 84.968H78.9449ZM90.4531 89H91.3491V84.296H93.0571C94.7931 84.296 95.4511 83.372 95.4511 81.342C95.4511 79.004 94.0651 78.892 93.2251 78.892H90.4531V89ZM91.3491 79.648H93.0011C93.8131 79.648 94.5551 79.788 94.5551 81.51C94.5551 83.092 93.9531 83.54 93.0151 83.54H91.3491V79.648ZM98.9278 81.93H98.0878V89H98.9278V84.45C98.9278 83.26 99.7118 82.546 100.902 82.644V81.79C100.048 81.79 99.3058 82.21 98.9558 82.882H98.9278V81.93ZM104.448 89V81.93H103.608V89H104.448ZM104.546 79.956V78.892H103.51V79.956H104.546ZM108.672 84.562C108.672 82.98 109.442 82.462 110.198 82.462C111.178 82.462 111.5 83.232 111.5 84.058V89H112.34V84.016C112.34 83.092 112.158 81.79 110.408 81.79C109.652 81.79 109.106 82.21 108.7 82.798H108.672V81.93H107.832V89H108.672V84.562ZM117.566 88.468C116.656 88.468 116.026 88.118 116.026 85.486C116.026 83.834 116.026 82.462 117.538 82.462C119.12 82.462 119.12 84.422 119.12 84.842V86.102C119.12 87.824 118.364 88.468 117.566 88.468ZM119.204 89H120.016C119.974 88.762 119.932 88.3 119.932 87.6V78.892H119.092V82.644L119.064 82.63C118.63 82.084 118 81.79 117.356 81.79C115.186 81.79 115.186 84.1 115.186 85.458C115.186 87.11 115.298 89.14 117.342 89.14C118.168 89.14 118.7 88.79 119.134 88.118L119.162 88.104L119.204 89ZM124.193 89V81.93H123.353V89H124.193ZM124.291 79.956V78.892H123.255V79.956H124.291ZM127.773 81.93H126.863L128.963 89H129.929L132.029 81.93H131.217L129.495 87.936H129.467L127.773 81.93ZM135.538 89V81.93H134.698V89H135.538ZM135.636 79.956V78.892H134.6V79.956H135.636ZM140.042 89V78.892H139.202V89H140.042ZM144.545 89V78.892H143.705V89H144.545ZM152.619 85.64C152.619 83.54 152.619 81.79 150.183 81.79C148.601 81.79 147.747 82.728 147.747 84.772V86.508C147.747 88.65 148.965 89.14 150.183 89.14C151.597 89.14 152.521 88.552 152.619 86.844H151.737C151.751 87.796 151.233 88.468 150.183 88.468C148.853 88.468 148.587 87.166 148.587 86.186V85.64H152.619ZM148.587 84.968C148.587 83.4 148.839 82.462 150.183 82.462C151.527 82.462 151.779 83.4 151.779 84.968H148.587ZM161.677 78.892H160.935L160.095 81.426H161.117L161.677 78.892ZM163.749 78.892H163.007L162.167 81.426H163.189L163.749 78.892ZM166.348 86.144C166.348 87.6 166.544 89.196 168.756 89.196C169.064 89.196 171.22 89.196 171.22 86.816V78.892H170.324V86.69C170.324 88.02 169.596 88.44 168.77 88.44C167.356 88.44 167.244 87.264 167.244 86.144H166.348ZM178.127 81.93V86.914C178.127 87.404 177.721 88.468 176.587 88.468C175.369 88.468 175.411 86.984 175.411 86.788V81.93H174.571V86.928C174.571 88.076 174.977 89.14 176.433 89.14C177.217 89.14 177.721 88.818 178.211 88.216H178.239V89H178.967V81.93H178.127ZM186.098 87.138C186.098 84.772 182.92 85.248 182.92 83.484C182.92 82.854 183.396 82.462 183.998 82.462C184.95 82.462 185.188 82.938 185.23 83.834H186.056C186.056 82.756 185.608 81.79 184.208 81.79C182.976 81.79 182.08 82.252 182.08 83.554C182.08 85.892 185.258 85.416 185.258 87.264C185.258 88.048 184.866 88.51 184.054 88.51C182.976 88.51 182.752 87.866 182.752 86.9H181.898C181.884 88.398 182.486 89.14 184.012 89.14C185.328 89.14 186.098 88.468 186.098 87.138ZM189.481 82.602V87.656C189.481 88.524 189.817 89.028 190.951 89.028C191.217 89.028 191.497 89.014 191.749 88.986V88.258C191.567 88.286 191.371 88.3 191.091 88.3C190.419 88.3 190.321 88.076 190.321 87.138V82.602H191.749V81.93H190.321V80.11L189.481 80.474V81.93H188.347V82.602H189.481ZM199.897 89V78.892H199.057V89H199.897ZM205.535 89.14C207.187 89.14 207.971 88.062 207.971 86.228V84.702C207.971 82.868 207.187 81.79 205.535 81.79C203.883 81.79 203.099 82.868 203.099 84.702V86.228C203.099 88.062 203.883 89.14 205.535 89.14ZM205.535 82.462C206.921 82.462 207.131 83.624 207.131 85.458C207.131 87.306 206.921 88.468 205.535 88.468C204.149 88.468 203.939 87.306 203.939 85.458C203.939 83.624 204.149 82.462 205.535 82.462ZM213.155 89.14C214.807 89.14 215.591 88.062 215.591 86.228V84.702C215.591 82.868 214.807 81.79 213.155 81.79C211.503 81.79 210.719 82.868 210.719 84.702V86.228C210.719 88.062 211.503 89.14 213.155 89.14ZM213.155 82.462C214.541 82.462 214.751 83.624 214.751 85.458C214.751 87.306 214.541 88.468 213.155 88.468C211.769 88.468 211.559 87.306 211.559 85.458C211.559 83.624 211.769 82.462 213.155 82.462ZM218.55 89H219.39V85.15H219.418L221.938 89H223.002L220.328 85.08L222.834 81.93H221.854L219.418 85.052H219.39V78.892H218.55V89ZM226.483 89V81.93H225.643V89H226.483ZM226.581 79.956V78.892H225.545V79.956H226.581ZM230.707 84.562C230.707 82.98 231.477 82.462 232.233 82.462C233.213 82.462 233.535 83.232 233.535 84.058V89H234.375V84.016C234.375 83.092 234.193 81.79 232.443 81.79C231.687 81.79 231.141 82.21 230.735 82.798H230.707V81.93H229.867V89H230.707V84.562ZM239.546 82.462C240.33 82.462 241.128 83.022 241.128 84.506C241.128 86.578 241.072 86.9 240.862 87.446C240.736 87.782 240.288 88.244 239.588 88.244C238.062 88.244 238.062 86.774 238.062 85.304C238.062 84.254 238.09 82.462 239.546 82.462ZM241.184 82.812L241.156 82.784C240.848 82.154 240.134 81.79 239.42 81.79C237.992 81.79 237.502 82.896 237.432 83.19C237.236 83.946 237.222 83.96 237.222 85.598C237.222 87.166 237.362 88.916 239.392 88.916C240.064 88.916 240.736 88.664 241.1 88.062H241.128C241.128 90.176 241.226 91.058 239.588 91.058C238.804 91.058 238.202 90.582 238.258 89.77H237.418C237.362 90.484 237.712 91.73 239.476 91.73C241.492 91.73 241.968 90.806 241.968 89.252V83.302C241.968 82.938 241.982 82.588 242.01 81.916H241.184V82.812ZM251.866 89.14C253.518 89.14 254.302 88.062 254.302 86.228V84.702C254.302 82.868 253.518 81.79 251.866 81.79C250.214 81.79 249.43 82.868 249.43 84.702V86.228C249.43 88.062 250.214 89.14 251.866 89.14ZM251.866 82.462C253.252 82.462 253.462 83.624 253.462 85.458C253.462 87.306 253.252 88.468 251.866 88.468C250.48 88.468 250.27 87.306 250.27 85.458C250.27 83.624 250.48 82.462 251.866 82.462ZM260.845 81.93V86.914C260.845 87.404 260.439 88.468 259.305 88.468C258.087 88.468 258.129 86.984 258.129 86.788V81.93H257.289V86.928C257.289 88.076 257.695 89.14 259.151 89.14C259.935 89.14 260.439 88.818 260.929 88.216H260.957V89H261.685V81.93H260.845ZM265.357 82.602V87.656C265.357 88.524 265.693 89.028 266.827 89.028C267.093 89.028 267.373 89.014 267.625 88.986V88.258C267.443 88.286 267.247 88.3 266.967 88.3C266.295 88.3 266.197 88.076 266.197 87.138V82.602H267.625V81.93H266.197V80.11L265.357 80.474V81.93H264.223V82.602H265.357ZM275.199 89H276.039V82.602H277.467V81.93H276.039V80.726C276.039 80.32 276.039 79.592 276.851 79.592H277.481V78.892C277.271 78.864 277.131 78.836 277.005 78.836C275.297 78.836 275.199 80.068 275.199 80.74V81.93H274.065V82.602H275.199V89ZM282.204 89.14C283.856 89.14 284.64 88.062 284.64 86.228V84.702C284.64 82.868 283.856 81.79 282.204 81.79C280.552 81.79 279.768 82.868 279.768 84.702V86.228C279.768 88.062 280.552 89.14 282.204 89.14ZM282.204 82.462C283.59 82.462 283.8 83.624 283.8 85.458C283.8 87.306 283.59 88.468 282.204 88.468C280.818 88.468 280.608 87.306 280.608 85.458C280.608 83.624 280.818 82.462 282.204 82.462ZM288.466 81.93H287.626V89H288.466V84.45C288.466 83.26 289.25 82.546 290.44 82.644V81.79C289.586 81.79 288.844 82.21 288.494 82.882H288.466V81.93ZM298.196 84.45C298.196 83.526 298.602 82.462 299.666 82.462C300.492 82.462 300.744 83.246 300.758 83.946V89H301.598V84.45C301.598 83.526 302.004 82.462 303.068 82.462C303.894 82.462 304.146 83.246 304.16 83.946V89H305V83.736C304.958 82.602 304.342 81.79 303.166 81.79C302.382 81.79 301.78 82.196 301.43 82.896C301.192 82.196 300.548 81.79 299.82 81.79C299.036 81.79 298.476 82.224 298.14 82.798H298.112V81.916H297.356V89H298.196V84.45ZM308.808 91.674H309.634L312.56 81.93H311.72L310.054 87.726H310.026L308.304 81.93H307.394L309.634 89.014L308.808 91.674ZM318.912 87.138C318.912 84.772 315.734 85.248 315.734 83.484C315.734 82.854 316.21 82.462 316.812 82.462C317.764 82.462 318.002 82.938 318.044 83.834H318.87C318.87 82.756 318.422 81.79 317.022 81.79C315.79 81.79 314.894 82.252 314.894 83.554C314.894 85.892 318.072 85.416 318.072 87.264C318.072 88.048 317.68 88.51 316.868 88.51C315.79 88.51 315.566 87.866 315.566 86.9H314.712C314.698 88.398 315.3 89.14 316.826 89.14C318.142 89.14 318.912 88.468 318.912 87.138ZM326.481 85.64C326.481 83.54 326.481 81.79 324.045 81.79C322.463 81.79 321.609 82.728 321.609 84.772V86.508C321.609 88.65 322.827 89.14 324.045 89.14C325.459 89.14 326.383 88.552 326.481 86.844H325.599C325.613 87.796 325.095 88.468 324.045 88.468C322.715 88.468 322.449 87.166 322.449 86.186V85.64H326.481ZM322.449 84.968C322.449 83.4 322.701 82.462 324.045 82.462C325.389 82.462 325.641 83.4 325.641 84.968H322.449ZM330.532 89V78.892H329.692V89H330.532ZM334.461 89H335.301V82.602H336.729V81.93H335.301V80.726C335.301 80.32 335.301 79.592 336.113 79.592H336.743V78.892C336.533 78.864 336.393 78.836 336.267 78.836C334.559 78.836 334.461 80.068 334.461 80.74V81.93H333.327V82.602H334.461V89ZM10.3536 108.676C10.3536 109.6 9.56961 110.468 8.60361 110.468C7.73561 110.468 7.32961 109.81 7.32961 109.012C7.32961 107.29 9.14961 107.43 10.3536 107.388V108.676ZM10.4096 111H11.2776C11.1936 110.174 11.1936 109.726 11.1936 109.222V105.666C11.1936 103.86 9.70961 103.79 8.99561 103.79C7.76361 103.79 6.71361 104.322 6.64361 105.68H7.53961C7.53961 104.84 8.15561 104.462 8.92561 104.462C10.0456 104.462 10.3536 105.092 10.3536 106.128V106.716C8.92561 106.828 6.43361 106.576 6.43361 109.054C6.43361 110.286 7.11961 111.14 8.37961 111.14C9.24761 111.14 9.93361 110.804 10.3816 110.132H10.4096V111ZM15.2163 106.562C15.2163 104.98 15.9863 104.462 16.7423 104.462C17.7223 104.462 18.0443 105.232 18.0443 106.058V111H18.8843V106.016C18.8843 105.092 18.7023 103.79 16.9523 103.79C16.1963 103.79 15.6503 104.21 15.2443 104.798H15.2163V103.93H14.3763V111H15.2163V106.562ZM24.111 110.468C23.201 110.468 22.571 110.118 22.571 107.486C22.571 105.834 22.571 104.462 24.083 104.462C25.665 104.462 25.665 106.422 25.665 106.842V108.102C25.665 109.824 24.909 110.468 24.111 110.468ZM25.749 111H26.561C26.519 110.762 26.477 110.3 26.477 109.6V100.892H25.637V104.644L25.609 104.63C25.175 104.084 24.545 103.79 23.901 103.79C21.731 103.79 21.731 106.1 21.731 107.458C21.731 109.11 21.843 111.14 23.887 111.14C24.713 111.14 25.245 110.79 25.679 110.118L25.707 110.104L25.749 111ZM34.9472 106.45C34.9472 105.526 35.3532 104.462 36.4172 104.462C37.2432 104.462 37.4952 105.246 37.5092 105.946V111H38.3492V106.45C38.3492 105.526 38.7552 104.462 39.8192 104.462C40.6452 104.462 40.8972 105.246 40.9112 105.946V111H41.7512V105.736C41.7092 104.602 41.0932 103.79 39.9172 103.79C39.1332 103.79 38.5312 104.196 38.1812 104.896C37.9432 104.196 37.2992 103.79 36.5712 103.79C35.7872 103.79 35.2272 104.224 34.8912 104.798H34.8632V103.916H34.1072V111H34.9472V106.45ZM45.5591 113.674H46.3851L49.3111 103.93H48.4711L46.8051 109.726H46.7771L45.0551 103.93H44.1451L46.3851 111.014L45.5591 113.674ZM56.75 111H57.59V104.602H59.018V103.93H57.59V102.726C57.59 102.32 57.59 101.592 58.402 101.592H59.032V100.892C58.822 100.864 58.682 100.836 58.556 100.836C56.848 100.836 56.75 102.068 56.75 102.74V103.93H55.616V104.602H56.75V111ZM65.0985 108.676C65.0985 109.6 64.3145 110.468 63.3485 110.468C62.4805 110.468 62.0745 109.81 62.0745 109.012C62.0745 107.29 63.8945 107.43 65.0985 107.388V108.676ZM65.1545 111H66.0225C65.9385 110.174 65.9385 109.726 65.9385 109.222V105.666C65.9385 103.86 64.4545 103.79 63.7405 103.79C62.5085 103.79 61.4585 104.322 61.3885 105.68H62.2845C62.2845 104.84 62.9005 104.462 63.6705 104.462C64.7905 104.462 65.0985 105.092 65.0985 106.128V106.716C63.6705 106.828 61.1785 106.576 61.1785 109.054C61.1785 110.286 61.8645 111.14 63.1245 111.14C63.9925 111.14 64.6785 110.804 65.1265 110.132H65.1545V111ZM69.9472 106.45C69.9472 105.526 70.3532 104.462 71.4172 104.462C72.2432 104.462 72.4952 105.246 72.5092 105.946V111H73.3492V106.45C73.3492 105.526 73.7552 104.462 74.8192 104.462C75.6452 104.462 75.8972 105.246 75.9112 105.946V111H76.7512V105.736C76.7092 104.602 76.0932 103.79 74.9172 103.79C74.1332 103.79 73.5312 104.196 73.1812 104.896C72.9432 104.196 72.2992 103.79 71.5712 103.79C70.7872 103.79 70.2272 104.224 69.8912 104.798H69.8632V103.916H69.1072V111H69.9472V106.45ZM80.9791 111V103.93H80.1391V111H80.9791ZM81.0771 101.956V100.892H80.0411V101.956H81.0771ZM85.4826 111V100.892H84.6426V111H85.4826ZM89.5662 113.674H90.3922L93.3182 103.93H92.4782L90.8122 109.726H90.7842L89.0622 103.93H88.1522L90.3922 111.014L89.5662 113.674ZM95.1923 111H96.2283V109.936H95.1923V111ZM99.5558 103.426H100.298L101.138 100.892H100.116L99.5558 103.426ZM101.628 103.426H102.37L103.21 100.892H102.188L101.628 103.426Z" fill="white"/>
</svg>
