<svg width="395" height="50" viewBox="0 0 395 50" fill="none" xmlns="http://www.w3.org/2000/svg">
<rect y="0.0849609" width="395" height="49.9149" fill="black" fill-opacity="0.69"/>
<path d="M9.374 7.892L6.182 18H7.078L7.876 15.34H11.838L12.65 18H13.588L10.438 7.892H9.374ZM8.142 14.584L9.85 8.872H9.878L11.6 14.584H8.142ZM17.1533 18V7.892H16.3133V18H17.1533ZM21.6568 18V7.892H20.8168V18H21.6568ZM30.6638 18V10.93H29.8238V18H30.6638ZM30.7618 8.956V7.892H29.7258V8.956H30.7618ZM34.8734 13.45C34.8734 12.526 35.2794 11.462 36.3434 11.462C37.1694 11.462 37.4214 12.246 37.4354 12.946V18H38.2754V13.45C38.2754 12.526 38.6814 11.462 39.7454 11.462C40.5714 11.462 40.8234 12.246 40.8374 12.946V18H41.6774V12.736C41.6354 11.602 41.0194 10.79 39.8434 10.79C39.0594 10.79 38.4574 11.196 38.1074 11.896C37.8694 11.196 37.2254 10.79 36.4974 10.79C35.7134 10.79 35.1534 11.224 34.8174 11.798H34.7894V10.916H34.0334V18H34.8734V13.45ZM48.3833 15.676C48.3833 16.6 47.5993 17.468 46.6333 17.468C45.7653 17.468 45.3593 16.81 45.3593 16.012C45.3593 14.29 47.1793 14.43 48.3833 14.388V15.676ZM48.4393 18H49.3073C49.2233 17.174 49.2233 16.726 49.2233 16.222V12.666C49.2233 10.86 47.7393 10.79 47.0253 10.79C45.7933 10.79 44.7433 11.322 44.6733 12.68H45.5693C45.5693 11.84 46.1853 11.462 46.9553 11.462C48.0753 11.462 48.3833 12.092 48.3833 13.128V13.716C46.9553 13.828 44.4633 13.576 44.4633 16.054C44.4633 17.286 45.1493 18.14 46.4093 18.14C47.2773 18.14 47.9633 17.804 48.4113 17.132H48.4393V18ZM54.464 11.462C55.248 11.462 56.046 12.022 56.046 13.506C56.046 15.578 55.99 15.9 55.78 16.446C55.654 16.782 55.206 17.244 54.506 17.244C52.98 17.244 52.98 15.774 52.98 14.304C52.98 13.254 53.008 11.462 54.464 11.462ZM56.102 11.812L56.074 11.784C55.766 11.154 55.052 10.79 54.338 10.79C52.91 10.79 52.42 11.896 52.35 12.19C52.154 12.946 52.14 12.96 52.14 14.598C52.14 16.166 52.28 17.916 54.31 17.916C54.982 17.916 55.654 17.664 56.018 17.062H56.046C56.046 19.176 56.144 20.058 54.506 20.058C53.722 20.058 53.12 19.582 53.176 18.77H52.336C52.28 19.484 52.63 20.73 54.394 20.73C56.41 20.73 56.886 19.806 56.886 18.252V12.302C56.886 11.938 56.9 11.588 56.928 10.916H56.102V11.812ZM64.7167 14.64C64.7167 12.54 64.7167 10.79 62.2807 10.79C60.6987 10.79 59.8447 11.728 59.8447 13.772V15.508C59.8447 17.65 61.0627 18.14 62.2807 18.14C63.6947 18.14 64.6187 17.552 64.7167 15.844H63.8347C63.8487 16.796 63.3307 17.468 62.2807 17.468C60.9507 17.468 60.6847 16.166 60.6847 15.186V14.64H64.7167ZM60.6847 13.968C60.6847 12.4 60.9367 11.462 62.2807 11.462C63.6247 11.462 63.8767 12.4 63.8767 13.968H60.6847ZM71.6094 16.138C71.6094 13.772 68.4314 14.248 68.4314 12.484C68.4314 11.854 68.9074 11.462 69.5094 11.462C70.4614 11.462 70.6994 11.938 70.7414 12.834H71.5674C71.5674 11.756 71.1194 10.79 69.7194 10.79C68.4874 10.79 67.5914 11.252 67.5914 12.554C67.5914 14.892 70.7694 14.416 70.7694 16.264C70.7694 17.048 70.3774 17.51 69.5654 17.51C68.4874 17.51 68.2634 16.866 68.2634 15.9H67.4094C67.3954 17.398 67.9974 18.14 69.5234 18.14C70.8394 18.14 71.6094 17.468 71.6094 16.138ZM80.2243 18H81.2743L82.7583 11.952H82.7863L84.3403 18H85.3903L87.3363 10.93H86.4963L84.9143 17.118H84.8863L83.3183 10.93H82.2823L80.7843 17.118H80.7563L79.1743 10.93H78.2783L80.2243 18ZM94.4202 14.64C94.4202 12.54 94.4202 10.79 91.9842 10.79C90.4022 10.79 89.5482 11.728 89.5482 13.772V15.508C89.5482 17.65 90.7662 18.14 91.9842 18.14C93.3982 18.14 94.3222 17.552 94.4202 15.844H93.5382C93.5522 16.796 93.0342 17.468 91.9842 17.468C90.6542 17.468 90.3882 16.166 90.3882 15.186V14.64H94.4202ZM90.3882 13.968C90.3882 12.4 90.6402 11.462 91.9842 11.462C93.3282 11.462 93.5802 12.4 93.5802 13.968H90.3882ZM98.2469 10.93H97.4069V18H98.2469V13.45C98.2469 12.26 99.0309 11.546 100.221 11.644V10.79C99.3669 10.79 98.6249 11.21 98.2749 11.882H98.2469V10.93ZM107.337 14.64C107.337 12.54 107.337 10.79 104.901 10.79C103.319 10.79 102.465 11.728 102.465 13.772V15.508C102.465 17.65 103.683 18.14 104.901 18.14C106.315 18.14 107.239 17.552 107.337 15.844H106.455C106.469 16.796 105.951 17.468 104.901 17.468C103.571 17.468 103.305 16.166 103.305 15.186V14.64H107.337ZM103.305 13.968C103.305 12.4 103.557 11.462 104.901 11.462C106.245 11.462 106.497 12.4 106.497 13.968H103.305ZM115.668 10.93H114.828V18H115.668V13.45C115.668 12.26 116.452 11.546 117.642 11.644V10.79C116.788 10.79 116.046 11.21 115.696 11.882H115.668V10.93ZM124.758 14.64C124.758 12.54 124.758 10.79 122.322 10.79C120.74 10.79 119.886 11.728 119.886 13.772V15.508C119.886 17.65 121.104 18.14 122.322 18.14C123.736 18.14 124.66 17.552 124.758 15.844H123.876C123.89 16.796 123.372 17.468 122.322 17.468C120.992 17.468 120.726 16.166 120.726 15.186V14.64H124.758ZM120.726 13.968C120.726 12.4 120.978 11.462 122.322 11.462C123.666 11.462 123.918 12.4 123.918 13.968H120.726ZM128.193 11.602V16.656C128.193 17.524 128.529 18.028 129.663 18.028C129.929 18.028 130.209 18.014 130.461 17.986V17.258C130.279 17.286 130.083 17.3 129.803 17.3C129.131 17.3 129.033 17.076 129.033 16.138V11.602H130.461V10.93H129.033V9.11L128.193 9.474V10.93H127.059V11.602H128.193ZM133.881 10.93H133.041V18H133.881V13.45C133.881 12.26 134.665 11.546 135.855 11.644V10.79C135.001 10.79 134.259 11.21 133.909 11.882H133.881V10.93ZM139.402 18V10.93H138.562V18H139.402ZM139.5 8.956V7.892H138.464V8.956H139.5ZM147.475 14.64C147.475 12.54 147.475 10.79 145.039 10.79C143.457 10.79 142.603 11.728 142.603 13.772V15.508C142.603 17.65 143.821 18.14 145.039 18.14C146.453 18.14 147.377 17.552 147.475 15.844H146.593C146.607 16.796 146.089 17.468 145.039 17.468C143.709 17.468 143.443 16.166 143.443 15.186V14.64H147.475ZM143.443 13.968C143.443 12.4 143.695 11.462 145.039 11.462C146.383 11.462 146.635 12.4 146.635 13.968H143.443ZM150.602 10.93H149.692L151.792 18H152.758L154.858 10.93H154.046L152.324 16.936H152.296L150.602 10.93ZM161.937 14.64C161.937 12.54 161.937 10.79 159.501 10.79C157.919 10.79 157.065 11.728 157.065 13.772V15.508C157.065 17.65 158.283 18.14 159.501 18.14C160.915 18.14 161.839 17.552 161.937 15.844H161.055C161.069 16.796 160.551 17.468 159.501 17.468C158.171 17.468 157.905 16.166 157.905 15.186V14.64H161.937ZM157.905 13.968C157.905 12.4 158.157 11.462 159.501 11.462C160.845 11.462 161.097 12.4 161.097 13.968H157.905ZM166.982 17.468C166.072 17.468 165.442 17.118 165.442 14.486C165.442 12.834 165.442 11.462 166.954 11.462C168.536 11.462 168.536 13.422 168.536 13.842V15.102C168.536 16.824 167.78 17.468 166.982 17.468ZM168.62 18H169.432C169.39 17.762 169.348 17.3 169.348 16.6V7.892H168.508V11.644L168.48 11.63C168.046 11.084 167.416 10.79 166.772 10.79C164.602 10.79 164.602 13.1 164.602 14.458C164.602 16.11 164.714 18.14 166.758 18.14C167.584 18.14 168.116 17.79 168.55 17.118L168.578 17.104L168.62 18ZM177.538 18H178.378V11.602H179.806V10.93H178.378V9.726C178.378 9.32 178.378 8.592 179.19 8.592H179.82V7.892C179.61 7.864 179.47 7.836 179.344 7.836C177.636 7.836 177.538 9.068 177.538 9.74V10.93H176.404V11.602H177.538V18ZM183.185 10.93H182.345V18H183.185V13.45C183.185 12.26 183.969 11.546 185.159 11.644V10.79C184.305 10.79 183.563 11.21 183.213 11.882H183.185V10.93ZM189.839 18.14C191.491 18.14 192.275 17.062 192.275 15.228V13.702C192.275 11.868 191.491 10.79 189.839 10.79C188.187 10.79 187.403 11.868 187.403 13.702V15.228C187.403 17.062 188.187 18.14 189.839 18.14ZM189.839 11.462C191.225 11.462 191.435 12.624 191.435 14.458C191.435 16.306 191.225 17.468 189.839 17.468C188.453 17.468 188.243 16.306 188.243 14.458C188.243 12.624 188.453 11.462 189.839 11.462ZM196.032 13.45C196.032 12.526 196.438 11.462 197.502 11.462C198.328 11.462 198.58 12.246 198.594 12.946V18H199.434V13.45C199.434 12.526 199.84 11.462 200.904 11.462C201.73 11.462 201.982 12.246 201.996 12.946V18H202.836V12.736C202.794 11.602 202.178 10.79 201.002 10.79C200.218 10.79 199.616 11.196 199.266 11.896C199.028 11.196 198.384 10.79 197.656 10.79C196.872 10.79 196.312 11.224 195.976 11.798H195.948V10.916H195.192V18H196.032V13.45ZM212.253 18H213.149V8.648H215.613V7.892H209.789V8.648H212.253V18ZM218.908 18V13.562C218.908 11.98 219.678 11.462 220.434 11.462C221.414 11.462 221.736 12.232 221.736 13.058V18H222.576V13.016C222.576 12.092 222.394 10.79 220.644 10.79C219.888 10.79 219.342 11.21 218.936 11.798H218.908V7.892H218.068V18H218.908ZM230.379 14.64C230.379 12.54 230.379 10.79 227.943 10.79C226.361 10.79 225.507 11.728 225.507 13.772V15.508C225.507 17.65 226.725 18.14 227.943 18.14C229.357 18.14 230.281 17.552 230.379 15.844H229.497C229.511 16.796 228.993 17.468 227.943 17.468C226.613 17.468 226.347 16.166 226.347 15.186V14.64H230.379ZM226.347 13.968C226.347 12.4 226.599 11.462 227.943 11.462C229.287 11.462 229.539 12.4 229.539 13.968H226.347ZM242.741 17.146C242.265 17.328 241.621 17.44 240.851 17.44C238.667 17.44 238.695 15.494 238.695 12.946C238.695 10.398 238.667 8.452 240.851 8.452C242.265 8.452 242.839 9.152 242.839 10.482H243.735C243.777 8.522 242.783 7.696 240.851 7.696C237.561 7.696 237.799 10.986 237.799 12.946C237.799 14.906 237.561 18.196 240.851 18.196C241.803 18.196 242.741 18.056 243.637 17.776V12.722H240.697V13.478H242.741V17.146ZM250.604 10.93V15.914C250.604 16.404 250.198 17.468 249.064 17.468C247.846 17.468 247.888 15.984 247.888 15.788V10.93H247.048V15.928C247.048 17.076 247.454 18.14 248.91 18.14C249.694 18.14 250.198 17.818 250.688 17.216H250.716V18H251.444V10.93H250.604ZM258.211 15.676C258.211 16.6 257.427 17.468 256.461 17.468C255.593 17.468 255.187 16.81 255.187 16.012C255.187 14.29 257.007 14.43 258.211 14.388V15.676ZM258.267 18H259.135C259.051 17.174 259.051 16.726 259.051 16.222V12.666C259.051 10.86 257.567 10.79 256.853 10.79C255.621 10.79 254.571 11.322 254.501 12.68H255.397C255.397 11.84 256.013 11.462 256.783 11.462C257.903 11.462 258.211 12.092 258.211 13.128V13.716C256.783 13.828 254.291 13.576 254.291 16.054C254.291 17.286 254.977 18.14 256.237 18.14C257.105 18.14 257.791 17.804 258.239 17.132H258.267V18ZM263.13 10.93H262.29V18H263.13V13.45C263.13 12.26 263.914 11.546 265.104 11.644V10.79C264.25 10.79 263.508 11.21 263.158 11.882H263.13V10.93ZM269.644 17.468C268.734 17.468 268.104 17.118 268.104 14.486C268.104 12.834 268.104 11.462 269.616 11.462C271.198 11.462 271.198 13.422 271.198 13.842V15.102C271.198 16.824 270.442 17.468 269.644 17.468ZM271.282 18H272.094C272.052 17.762 272.01 17.3 272.01 16.6V7.892H271.17V11.644L271.142 11.63C270.708 11.084 270.078 10.79 269.434 10.79C267.264 10.79 267.264 13.1 267.264 14.458C267.264 16.11 267.376 18.14 269.42 18.14C270.246 18.14 270.778 17.79 271.212 17.118L271.24 17.104L271.282 18ZM276.271 18V10.93H275.431V18H276.271ZM276.369 8.956V7.892H275.333V8.956H276.369ZM283.252 15.676C283.252 16.6 282.468 17.468 281.502 17.468C280.634 17.468 280.228 16.81 280.228 16.012C280.228 14.29 282.048 14.43 283.252 14.388V15.676ZM283.308 18H284.176C284.092 17.174 284.092 16.726 284.092 16.222V12.666C284.092 10.86 282.608 10.79 281.894 10.79C280.662 10.79 279.612 11.322 279.542 12.68H280.438C280.438 11.84 281.054 11.462 281.824 11.462C282.944 11.462 283.252 12.092 283.252 13.128V13.716C281.824 13.828 279.332 13.576 279.332 16.054C279.332 17.286 280.018 18.14 281.278 18.14C282.146 18.14 282.832 17.804 283.28 17.132H283.308V18ZM288.115 13.562C288.115 11.98 288.885 11.462 289.641 11.462C290.621 11.462 290.943 12.232 290.943 13.058V18H291.783V13.016C291.783 12.092 291.601 10.79 289.851 10.79C289.095 10.79 288.549 11.21 288.143 11.798H288.115V10.93H287.275V18H288.115V13.562ZM294.798 19.47H295.54L296.38 16.936H295.358L294.798 19.47ZM8.478 29.892H7.736L6.896 32.426H7.918L8.478 29.892ZM10.55 29.892H9.808L8.968 32.426H9.99L10.55 29.892ZM16.2154 29.892L13.0234 40H13.9194L14.7174 37.34H18.6794L19.4914 40H20.4294L17.2794 29.892H16.2154ZM14.9834 36.584L16.6914 30.872H16.7194L18.4414 36.584H14.9834ZM23.7707 32.93H22.9307V40H23.7707V35.45C23.7707 34.26 24.5547 33.546 25.7447 33.644V32.79C24.8907 32.79 24.1487 33.21 23.7987 33.882H23.7707V32.93ZM28.9972 35.45C28.9972 34.526 29.4032 33.462 30.4672 33.462C31.2932 33.462 31.5452 34.246 31.5592 34.946V40H32.3992V35.45C32.3992 34.526 32.8052 33.462 33.8692 33.462C34.6952 33.462 34.9472 34.246 34.9612 34.946V40H35.8012V34.736C35.7592 33.602 35.1432 32.79 33.9672 32.79C33.1832 32.79 32.5812 33.196 32.2312 33.896C31.9932 33.196 31.3492 32.79 30.6212 32.79C29.8372 32.79 29.2772 33.224 28.9412 33.798H28.9132V32.916H28.1572V40H28.9972V35.45ZM43.5991 36.64C43.5991 34.54 43.5991 32.79 41.1631 32.79C39.5811 32.79 38.7271 33.728 38.7271 35.772V37.508C38.7271 39.65 39.9451 40.14 41.1631 40.14C42.5771 40.14 43.5011 39.552 43.5991 37.844H42.7171C42.7311 38.796 42.2131 39.468 41.1631 39.468C39.8331 39.468 39.5671 38.166 39.5671 37.186V36.64H43.5991ZM39.5671 35.968C39.5671 34.4 39.8191 33.462 41.1631 33.462C42.5071 33.462 42.7591 34.4 42.7591 35.968H39.5671ZM48.6438 39.468C47.7338 39.468 47.1038 39.118 47.1038 36.486C47.1038 34.834 47.1038 33.462 48.6158 33.462C50.1978 33.462 50.1978 35.422 50.1978 35.842V37.102C50.1978 38.824 49.4418 39.468 48.6438 39.468ZM50.2818 40H51.0938C51.0518 39.762 51.0098 39.3 51.0098 38.6V29.892H50.1698V33.644L50.1418 33.63C49.7078 33.084 49.0778 32.79 48.4338 32.79C46.2638 32.79 46.2638 35.1 46.2638 36.458C46.2638 38.11 46.3758 40.14 48.4198 40.14C49.2458 40.14 49.7778 39.79 50.2118 39.118L50.2398 39.104L50.2818 40ZM59.158 33.602V38.656C59.158 39.524 59.494 40.028 60.628 40.028C60.894 40.028 61.174 40.014 61.426 39.986V39.258C61.244 39.286 61.048 39.3 60.768 39.3C60.096 39.3 59.998 39.076 59.998 38.138V33.602H61.426V32.93H59.998V31.11L59.158 31.474V32.93H58.024V33.602H59.158ZM66.2045 40.14C67.8565 40.14 68.6405 39.062 68.6405 37.228V35.702C68.6405 33.868 67.8565 32.79 66.2045 32.79C64.5525 32.79 63.7685 33.868 63.7685 35.702V37.228C63.7685 39.062 64.5525 40.14 66.2045 40.14ZM66.2045 33.462C67.5905 33.462 67.8005 34.624 67.8005 36.458C67.8005 38.306 67.5905 39.468 66.2045 39.468C64.8185 39.468 64.6085 38.306 64.6085 36.458C64.6085 34.624 64.8185 33.462 66.2045 33.462ZM76.5787 33.602V38.656C76.5787 39.524 76.9147 40.028 78.0487 40.028C78.3147 40.028 78.5947 40.014 78.8467 39.986V39.258C78.6647 39.286 78.4687 39.3 78.1887 39.3C77.5167 39.3 77.4187 39.076 77.4187 38.138V33.602H78.8467V32.93H77.4187V31.11L76.5787 31.474V32.93H75.4447V33.602H76.5787ZM82.2112 40V35.562C82.2112 33.98 82.9812 33.462 83.7372 33.462C84.7172 33.462 85.0392 34.232 85.0392 35.058V40H85.8792V35.016C85.8792 34.092 85.6972 32.79 83.9472 32.79C83.1912 32.79 82.6452 33.21 82.2392 33.798H82.2112V29.892H81.3712V40H82.2112ZM93.6819 36.64C93.6819 34.54 93.6819 32.79 91.2459 32.79C89.6639 32.79 88.8099 33.728 88.8099 35.772V37.508C88.8099 39.65 90.0279 40.14 91.2459 40.14C92.6599 40.14 93.5839 39.552 93.6819 37.844H92.7999C92.8139 38.796 92.2959 39.468 91.2459 39.468C89.9159 39.468 89.6499 38.166 89.6499 37.186V36.64H93.6819ZM89.6499 35.968C89.6499 34.4 89.9019 33.462 91.2459 33.462C92.5899 33.462 92.8419 34.4 92.8419 35.968H89.6499ZM101.942 35.45C101.942 34.526 102.348 33.462 103.412 33.462C104.238 33.462 104.49 34.246 104.504 34.946V40H105.344V35.45C105.344 34.526 105.75 33.462 106.814 33.462C107.64 33.462 107.892 34.246 107.906 34.946V40H108.746V34.736C108.704 33.602 108.088 32.79 106.912 32.79C106.128 32.79 105.526 33.196 105.176 33.896C104.938 33.196 104.294 32.79 103.566 32.79C102.782 32.79 102.222 33.224 101.886 33.798H101.858V32.916H101.102V40H101.942V35.45ZM112.974 40V32.93H112.134V40H112.974ZM113.072 30.956V29.892H112.036V30.956H113.072ZM117.478 40V29.892H116.638V40H117.478ZM120.889 40H121.729V36.15H121.757L124.277 40H125.341L122.667 36.08L125.173 32.93H124.193L121.757 36.052H121.729V29.892H120.889V40ZM132.71 33.602V38.656C132.71 39.524 133.046 40.028 134.18 40.028C134.446 40.028 134.726 40.014 134.978 39.986V39.258C134.796 39.286 134.6 39.3 134.32 39.3C133.648 39.3 133.55 39.076 133.55 38.138V33.602H134.978V32.93H133.55V31.11L132.71 31.474V32.93H131.576V33.602H132.71ZM142.192 36.64C142.192 34.54 142.192 32.79 139.756 32.79C138.174 32.79 137.32 33.728 137.32 35.772V37.508C137.32 39.65 138.538 40.14 139.756 40.14C141.17 40.14 142.094 39.552 142.192 37.844H141.31C141.324 38.796 140.806 39.468 139.756 39.468C138.426 39.468 138.16 38.166 138.16 37.186V36.64H142.192ZM138.16 35.968C138.16 34.4 138.412 33.462 139.756 33.462C141.1 33.462 141.352 34.4 141.352 35.968H138.16ZM149.813 36.64C149.813 34.54 149.813 32.79 147.377 32.79C145.795 32.79 144.941 33.728 144.941 35.772V37.508C144.941 39.65 146.159 40.14 147.377 40.14C148.791 40.14 149.715 39.552 149.813 37.844H148.931C148.945 38.796 148.427 39.468 147.377 39.468C146.047 39.468 145.781 38.166 145.781 37.186V36.64H149.813ZM145.781 35.968C145.781 34.4 146.033 33.462 147.377 33.462C148.721 33.462 148.973 34.4 148.973 35.968H145.781ZM153.248 33.602V38.656C153.248 39.524 153.584 40.028 154.718 40.028C154.984 40.028 155.264 40.014 155.516 39.986V39.258C155.334 39.286 155.138 39.3 154.858 39.3C154.186 39.3 154.088 39.076 154.088 38.138V33.602H155.516V32.93H154.088V31.11L153.248 31.474V32.93H152.114V33.602H153.248ZM158.88 40V35.562C158.88 33.98 159.65 33.462 160.406 33.462C161.386 33.462 161.708 34.232 161.708 35.058V40H162.548V35.016C162.548 34.092 162.366 32.79 160.616 32.79C159.86 32.79 159.314 33.21 158.908 33.798H158.88V29.892H158.04V40H158.88ZM165.843 40H166.879V38.936H165.843V40ZM165.843 33.994H166.879V32.93H165.843V33.994ZM177.188 29.892L173.996 40H174.892L175.69 37.34H179.652L180.464 40H181.402L178.252 29.892H177.188ZM175.956 36.584L177.664 30.872H177.692L179.414 36.584H175.956ZM184.673 35.45C184.673 34.526 185.079 33.462 186.143 33.462C186.969 33.462 187.221 34.246 187.235 34.946V40H188.075V35.45C188.075 34.526 188.481 33.462 189.545 33.462C190.371 33.462 190.623 34.246 190.637 34.946V40H191.477V34.736C191.435 33.602 190.819 32.79 189.643 32.79C188.859 32.79 188.257 33.196 187.907 33.896C187.669 33.196 187.025 32.79 186.297 32.79C185.513 32.79 184.953 33.224 184.617 33.798H184.589V32.916H183.833V40H184.673V35.45ZM199.275 36.64C199.275 34.54 199.275 32.79 196.839 32.79C195.257 32.79 194.403 33.728 194.403 35.772V37.508C194.403 39.65 195.621 40.14 196.839 40.14C198.253 40.14 199.177 39.552 199.275 37.844H198.393C198.407 38.796 197.889 39.468 196.839 39.468C195.509 39.468 195.243 38.166 195.243 37.186V36.64H199.275ZM195.243 35.968C195.243 34.4 195.495 33.462 196.839 33.462C198.183 33.462 198.435 34.4 198.435 35.968H195.243ZM203.102 32.93H202.262V40H203.102V35.45C203.102 34.26 203.886 33.546 205.076 33.644V32.79C204.222 32.79 203.48 33.21 203.13 33.882H203.102V32.93ZM208.622 40V32.93H207.782V40H208.622ZM208.72 30.956V29.892H207.684V30.956H208.72ZM215.996 34.96C216.066 33.476 215.24 32.79 214.022 32.79C213.056 32.79 212.258 33.154 211.894 34.162C211.712 34.694 211.684 35.8 211.684 36.5C211.684 38.25 211.684 40.14 214.078 40.14C214.736 40.14 216.08 39.818 216.01 37.914H215.17C215.128 38.768 214.988 39.468 213.882 39.468C212.58 39.468 212.58 37.774 212.58 36.5C212.58 35.562 212.664 34.596 212.776 34.274C212.958 33.756 213.392 33.462 213.91 33.462C214.876 33.462 215.198 34.078 215.156 34.96H215.996ZM222.445 37.676C222.445 38.6 221.661 39.468 220.695 39.468C219.827 39.468 219.421 38.81 219.421 38.012C219.421 36.29 221.241 36.43 222.445 36.388V37.676ZM222.501 40H223.369C223.285 39.174 223.285 38.726 223.285 38.222V34.666C223.285 32.86 221.801 32.79 221.087 32.79C219.855 32.79 218.805 33.322 218.735 34.68H219.631C219.631 33.84 220.247 33.462 221.017 33.462C222.137 33.462 222.445 34.092 222.445 35.128V35.716C221.017 35.828 218.525 35.576 218.525 38.054C218.525 39.286 219.211 40.14 220.471 40.14C221.339 40.14 222.025 39.804 222.473 39.132H222.501V40ZM226.37 32.426H227.112L227.952 29.892H226.93L226.37 32.426ZM233.676 38.138C233.676 35.772 230.498 36.248 230.498 34.484C230.498 33.854 230.974 33.462 231.576 33.462C232.528 33.462 232.766 33.938 232.808 34.834H233.634C233.634 33.756 233.186 32.79 231.786 32.79C230.554 32.79 229.658 33.252 229.658 34.554C229.658 36.892 232.836 36.416 232.836 38.264C232.836 39.048 232.444 39.51 231.632 39.51C230.554 39.51 230.33 38.866 230.33 37.9H229.476C229.462 39.398 230.064 40.14 231.59 40.14C232.906 40.14 233.676 39.468 233.676 38.138ZM243.117 33.462C243.901 33.462 244.699 34.022 244.699 35.506C244.699 37.578 244.643 37.9 244.433 38.446C244.307 38.782 243.859 39.244 243.159 39.244C241.633 39.244 241.633 37.774 241.633 36.304C241.633 35.254 241.661 33.462 243.117 33.462ZM244.755 33.812L244.727 33.784C244.419 33.154 243.705 32.79 242.991 32.79C241.563 32.79 241.073 33.896 241.003 34.19C240.807 34.946 240.793 34.96 240.793 36.598C240.793 38.166 240.933 39.916 242.963 39.916C243.635 39.916 244.307 39.664 244.671 39.062H244.699C244.699 41.176 244.797 42.058 243.159 42.058C242.375 42.058 241.773 41.582 241.829 40.77H240.989C240.933 41.484 241.283 42.73 243.047 42.73C245.063 42.73 245.539 41.806 245.539 40.252V34.302C245.539 33.938 245.553 33.588 245.581 32.916H244.755V33.812ZM252.291 32.93V37.914C252.291 38.404 251.885 39.468 250.751 39.468C249.533 39.468 249.575 37.984 249.575 37.788V32.93H248.735V37.928C248.735 39.076 249.141 40.14 250.597 40.14C251.381 40.14 251.885 39.818 252.375 39.216H252.403V40H253.131V32.93H252.291ZM257.14 35.562C257.14 33.98 257.91 33.462 258.666 33.462C259.646 33.462 259.968 34.232 259.968 35.058V40H260.808V35.016C260.808 34.092 260.626 32.79 258.876 32.79C258.12 32.79 257.574 33.21 257.168 33.798H257.14V32.93H256.3V40H257.14V35.562ZM268.928 33.602V38.656C268.928 39.524 269.264 40.028 270.398 40.028C270.664 40.028 270.944 40.014 271.196 39.986V39.258C271.014 39.286 270.818 39.3 270.538 39.3C269.866 39.3 269.768 39.076 269.768 38.138V33.602H271.196V32.93H269.768V31.11L268.928 31.474V32.93H267.794V33.602H268.928ZM275.975 40.14C277.627 40.14 278.411 39.062 278.411 37.228V35.702C278.411 33.868 277.627 32.79 275.975 32.79C274.323 32.79 273.539 33.868 273.539 35.702V37.228C273.539 39.062 274.323 40.14 275.975 40.14ZM275.975 33.462C277.361 33.462 277.571 34.624 277.571 36.458C277.571 38.306 277.361 39.468 275.975 39.468C274.589 39.468 274.379 38.306 274.379 36.458C274.379 34.624 274.589 33.462 275.975 33.462ZM281.845 33.602V38.656C281.845 39.524 282.181 40.028 283.315 40.028C283.581 40.028 283.861 40.014 284.113 39.986V39.258C283.931 39.286 283.735 39.3 283.455 39.3C282.783 39.3 282.685 39.076 282.685 38.138V33.602H284.113V32.93H282.685V31.11L281.845 31.474V32.93H280.711V33.602H281.845ZM287.758 40V32.93H286.918V40H287.758ZM287.856 30.956V29.892H286.82V30.956H287.856ZM291.982 35.562C291.982 33.98 292.752 33.462 293.508 33.462C294.488 33.462 294.81 34.232 294.81 35.058V40H295.65V35.016C295.65 34.092 295.468 32.79 293.718 32.79C292.962 32.79 292.416 33.21 292.01 33.798H291.982V32.93H291.142V40H291.982V35.562ZM300.82 33.462C301.604 33.462 302.402 34.022 302.402 35.506C302.402 37.578 302.346 37.9 302.136 38.446C302.01 38.782 301.562 39.244 300.862 39.244C299.336 39.244 299.336 37.774 299.336 36.304C299.336 35.254 299.364 33.462 300.82 33.462ZM302.458 33.812L302.43 33.784C302.122 33.154 301.408 32.79 300.694 32.79C299.266 32.79 298.776 33.896 298.706 34.19C298.51 34.946 298.496 34.96 298.496 36.598C298.496 38.166 298.636 39.916 300.666 39.916C301.338 39.916 302.01 39.664 302.374 39.062H302.402C302.402 41.176 302.5 42.058 300.862 42.058C300.078 42.058 299.476 41.582 299.532 40.77H298.692C298.636 41.484 298.986 42.73 300.75 42.73C302.766 42.73 303.242 41.806 303.242 40.252V34.302C303.242 33.938 303.256 33.588 303.284 32.916H302.458V33.812ZM310.914 40H311.754V36.15H311.782L314.302 40H315.366L312.692 36.08L315.198 32.93H314.218L311.782 36.052H311.754V29.892H310.914V40ZM318.848 40V32.93H318.008V40H318.848ZM318.946 30.956V29.892H317.91V30.956H318.946ZM324.345 39.468C323.435 39.468 322.805 39.118 322.805 36.486C322.805 34.834 322.805 33.462 324.317 33.462C325.899 33.462 325.899 35.422 325.899 35.842V37.102C325.899 38.824 325.143 39.468 324.345 39.468ZM325.983 40H326.795C326.753 39.762 326.711 39.3 326.711 38.6V29.892H325.871V33.644L325.843 33.63C325.409 33.084 324.779 32.79 324.135 32.79C321.965 32.79 321.965 35.1 321.965 36.458C321.965 38.11 322.077 40.14 324.121 40.14C324.947 40.14 325.479 39.79 325.913 39.118L325.941 39.104L325.983 40ZM333.814 38.138C333.814 35.772 330.636 36.248 330.636 34.484C330.636 33.854 331.112 33.462 331.714 33.462C332.666 33.462 332.904 33.938 332.946 34.834H333.772C333.772 33.756 333.324 32.79 331.924 32.79C330.692 32.79 329.796 33.252 329.796 34.554C329.796 36.892 332.974 36.416 332.974 38.264C332.974 39.048 332.582 39.51 331.77 39.51C330.692 39.51 330.468 38.866 330.468 37.9H329.614C329.6 39.398 330.202 40.14 331.728 40.14C333.044 40.14 333.814 39.468 333.814 38.138ZM336.735 32.426H337.477L338.317 29.892H337.295L336.735 32.426ZM338.807 32.426H339.549L340.389 29.892H339.367L338.807 32.426ZM348.822 29.598C348.122 31.628 347.618 33.728 347.618 35.884C347.618 37.928 348.15 39.916 348.766 41.848H349.452C348.878 39.846 348.514 37.76 348.514 35.674C348.514 33.616 348.948 31.586 349.452 29.598H348.822ZM357.204 39.244H353.214C356.476 34.344 357.19 33.546 357.19 32.118C357.19 30.452 355.832 30.088 354.698 30.088C353.564 30.088 352.262 30.676 352.262 32.622H353.102C353.102 31.614 353.634 30.844 354.698 30.844C355.468 30.844 356.294 31.012 356.294 32.314C356.294 33.616 354.404 35.856 352.234 39.216V40H357.204V39.244ZM360.821 33.21C360.821 31.012 361.787 30.844 362.417 30.844C363.047 30.844 364.013 31.012 364.013 33.21V37.032C364.013 39.23 363.047 39.398 362.417 39.398C361.787 39.398 360.821 39.23 360.821 37.032V33.21ZM362.417 30.088C359.925 30.088 359.925 32.23 359.925 34.064V36.178C359.925 38.012 359.925 40.154 362.417 40.154C364.909 40.154 364.909 38.012 364.909 36.178V34.064C364.909 32.23 364.909 30.088 362.417 30.088ZM368.175 32.734C368.791 32.328 369.351 31.866 369.883 31.362V40H370.723V30.242H369.939C369.449 30.844 368.819 31.32 368.175 31.768V32.734ZM375.698 36.808L378.414 31.082H378.442V36.808H375.698ZM379.282 30.242H377.952L374.942 36.752V37.564H378.442V40H379.282V37.564H380.43V36.808H379.282V30.242ZM383.011 29.598C383.515 31.586 383.949 33.616 383.949 35.674C383.949 37.76 383.585 39.846 383.011 41.848H383.697C384.313 39.916 384.845 37.928 384.845 35.884C384.845 33.728 384.341 31.628 383.641 29.598H383.011Z" fill="white"/>
</svg>
