<svg width="422" height="139" viewBox="0 0 422 139" fill="none" xmlns="http://www.w3.org/2000/svg">
<rect width="422" height="139" fill="black" fill-opacity="0.69"/>
<path d="M13.8 15.9842C13.8 15.5362 13.448 15.1842 13 15.1842H12.92L13.72 13.3442C12.28 15.1042 12.2 15.4242 12.2 15.9842C12.2 16.4322 12.552 16.7842 13 16.7842C13.448 16.7842 13.8 16.4322 13.8 15.9842ZM11.56 15.9842C11.56 15.5362 11.208 15.1842 10.76 15.1842H10.68L11.48 13.3442C10.04 15.1042 9.96 15.4242 9.96 15.9842C9.96 16.4322 10.312 16.7842 10.76 16.7842C11.208 16.7842 11.56 16.4322 11.56 15.9842ZM19.3256 15.2642L20.9256 14.3842H16.9256L18.5256 15.2642V23.9042L16.9256 24.7842H20.9256L19.3256 23.9042V15.2642ZM23.3306 18.0642H24.8506V23.3442C24.8506 24.5442 25.3306 25.0242 26.1306 25.0242C27.0106 25.0242 27.4586 23.9522 27.4906 23.8402C27.4746 23.8722 27.0906 24.4642 26.4506 24.4642C25.8906 24.4642 25.6506 23.9842 25.6506 23.3442V18.0642H27.4906V17.5842H25.6506V15.9042L23.3306 18.0642ZM36.1319 17.9842L38.2119 17.3442V24.0642L39.4919 24.7842H36.1319L37.4119 24.0642V18.3842L36.1319 17.9842ZM36.8519 14.9442C36.8519 15.3922 37.2039 15.7442 37.6519 15.7442C38.0999 15.7442 38.4519 15.3922 38.4519 14.9442C38.4519 14.4962 38.0999 14.1442 37.6519 14.1442C37.2039 14.1442 36.8519 14.4962 36.8519 14.9442ZM47.1781 17.3442L46.5381 17.9842C46.5381 17.9842 45.9781 17.3442 44.8581 17.3442C43.5781 17.3442 42.5381 18.0962 42.5381 19.2642C42.5381 21.6802 46.8581 21.0082 46.8581 23.0722C46.8581 24.1442 45.8981 24.5442 45.1781 24.5442C44.6981 24.5442 43.8181 24.4002 43.3061 23.3442L42.6181 21.9042V25.0242L43.1781 24.0802C43.1941 24.1282 43.6901 25.0242 45.1781 25.0242C46.4581 25.0242 47.5781 24.2562 47.5781 22.8162C47.5781 20.1762 43.1781 20.7842 43.1781 19.0242C43.1781 18.3842 43.8021 17.8242 44.8581 17.8242C45.9781 17.8242 46.4581 18.5442 46.4581 18.5442L47.1781 19.8402V17.3442ZM55.9713 18.0642H57.4913V23.3442C57.4913 24.5442 57.9713 25.0242 58.7713 25.0242C59.6513 25.0242 60.0993 23.9522 60.1313 23.8402C60.1153 23.8722 59.7313 24.4642 59.0913 24.4642C58.5313 24.4642 58.2913 23.9842 58.2913 23.3442V18.0642H60.1313V17.5842H58.2913V15.9042L55.9713 18.0642ZM64.2162 14.3842V24.0642L62.9362 24.7842H66.2962L65.0162 24.0642V19.3122C65.4962 18.7202 66.4562 17.9522 67.4162 17.9522C68.4562 17.9522 68.9362 18.7042 68.9362 19.9842V24.0642L67.6562 24.7842H71.0162L69.7362 24.0642V19.7442C69.7362 17.9842 68.8562 17.3442 67.7362 17.3442C66.6162 17.3442 65.5762 18.2242 65.0162 18.8322V13.3442L62.9362 13.9842L64.2162 14.3842ZM79.6531 20.4642C79.6531 18.7042 78.9331 17.3442 76.9011 17.3442C74.9971 17.3442 73.4131 18.8482 73.4131 21.1842C73.4131 23.3442 74.6931 25.0242 76.7731 25.0242C79.1731 25.0242 79.6531 22.7042 79.6531 22.7042C79.6531 22.7042 78.9331 24.3042 77.1731 24.3042C75.5731 24.3042 74.2131 23.3122 74.2131 20.9282C74.2131 20.7682 74.2131 20.6242 74.2291 20.4642H79.6531ZM76.8691 17.7282C77.9891 17.7282 78.7731 18.4642 78.7731 19.2642C78.7731 19.9042 78.2131 19.9842 77.4131 19.9842H74.3091C74.6611 18.4482 75.8611 17.7282 76.8691 17.7282ZM88.765 19.9042C88.765 20.9602 89.325 21.8722 90.333 22.2562C89.645 22.3842 88.845 22.7362 88.845 23.6642C88.845 24.2082 89.261 24.6242 89.693 24.7522C89.149 24.8482 88.125 25.1042 88.125 26.2242C88.125 27.1842 89.005 28.3842 91.485 28.3842C94.045 28.3842 95.405 26.7842 95.405 25.5842C95.405 24.3842 94.605 23.9842 93.805 23.9842H90.205C89.965 23.9842 89.565 23.9042 89.565 23.4242C89.565 22.5922 90.909 22.4642 91.485 22.4642C93.165 22.4642 94.205 21.3122 94.205 19.9042C94.205 18.7202 93.485 18.0642 93.485 18.0642C93.485 18.0642 94.045 18.2242 94.445 18.2242C95.085 18.2242 95.325 17.8562 95.325 17.4242C95.325 17.1042 95.101 16.7842 94.653 16.7842C94.269 16.7842 94.045 17.0722 94.045 17.4082C94.045 17.6162 94.205 17.8242 93.805 17.8242C93.165 17.8242 92.605 17.3442 91.485 17.3442C89.805 17.3442 88.765 18.4962 88.765 19.9042ZM93.805 24.7842C94.365 24.7842 94.845 25.0242 94.845 25.6642C94.845 26.3842 93.965 27.6642 91.645 27.6642C89.645 27.6642 88.925 26.7842 88.925 25.9842C88.925 24.8802 90.477 24.8002 90.509 24.7842H93.805ZM89.645 19.9042C89.645 18.5442 90.477 17.7442 91.485 17.7442C92.493 17.7442 93.325 18.5442 93.325 19.9042C93.325 21.2642 92.493 22.0642 91.485 22.0642C90.477 22.0642 89.645 21.2642 89.645 19.9042ZM99.3212 18.3842V24.0642L98.0412 24.7842H101.401L100.121 24.0642V19.5042C100.841 18.7042 101.449 18.2082 101.769 18.2082C102.297 18.2082 102.217 18.7042 102.777 18.7042C103.161 18.7042 103.401 18.4322 103.401 18.0962C103.401 17.6162 103.081 17.3442 102.521 17.3442C102.073 17.3442 101.689 17.5202 101.193 18.0002L100.121 19.0242V17.3442L98.0412 17.9842L99.3212 18.3842ZM112.366 20.4642C112.366 18.7042 111.646 17.3442 109.614 17.3442C107.71 17.3442 106.126 18.8482 106.126 21.1842C106.126 23.3442 107.406 25.0242 109.486 25.0242C111.886 25.0242 112.366 22.7042 112.366 22.7042C112.366 22.7042 111.646 24.3042 109.886 24.3042C108.286 24.3042 106.926 23.3122 106.926 20.9282C106.926 20.7682 106.926 20.6242 106.942 20.4642H112.366ZM109.582 17.7282C110.702 17.7282 111.486 18.4642 111.486 19.2642C111.486 19.9042 110.926 19.9842 110.126 19.9842H107.022C107.374 18.4482 108.574 17.7282 109.582 17.7282ZM117.385 20.9282C116.297 21.3122 115.321 22.0642 115.321 23.1842C115.321 24.3202 116.041 25.0242 117.145 25.0242C117.785 25.0242 118.329 24.7042 118.697 24.4642L119.881 23.6802C119.881 24.5282 119.881 25.0242 120.441 25.0242C121.001 25.0242 122.121 23.6642 122.121 23.6642L120.681 24.2242V19.6642C120.681 18.3042 120.105 17.3442 118.361 17.3442C117.401 17.3442 115.593 18.2242 115.593 19.2162C115.593 19.6802 115.865 19.8882 116.169 19.8882C116.473 19.8882 116.745 19.7122 116.745 19.2162C116.745 18.9922 116.713 18.8322 116.713 18.7042C116.713 18.3042 117.225 17.8242 118.201 17.8242C119.081 17.8242 119.881 18.2402 119.881 19.6642V20.0642L117.385 20.9282ZM118.889 23.8242C118.425 24.1282 118.025 24.4322 117.401 24.4322C116.601 24.4322 116.169 23.7922 116.169 23.1042C116.169 22.2242 116.569 21.6802 117.961 21.1842L119.881 20.5122V23.1682L118.889 23.8242ZM124.037 18.0642H125.557V23.3442C125.557 24.5442 126.037 25.0242 126.837 25.0242C127.717 25.0242 128.165 23.9522 128.197 23.8402C128.181 23.8722 127.797 24.4642 127.157 24.4642C126.597 24.4642 126.357 23.9842 126.357 23.3442V18.0642H128.197V17.5842H126.357V15.9042L124.037 18.0642ZM143.078 20.4642C143.078 18.7042 142.358 17.3442 140.326 17.3442C138.422 17.3442 136.838 18.8482 136.838 21.1842C136.838 23.3442 138.118 25.0242 140.198 25.0242C142.598 25.0242 143.078 22.7042 143.078 22.7042C143.078 22.7042 142.358 24.3042 140.598 24.3042C138.998 24.3042 137.638 23.3122 137.638 20.9282C137.638 20.7682 137.638 20.6242 137.654 20.4642H143.078ZM140.294 17.7282C141.414 17.7282 142.198 18.4642 142.198 19.2642C142.198 19.9042 141.638 19.9842 140.838 19.9842H137.734C138.086 18.4482 139.286 17.7282 140.294 17.7282ZM152.194 17.3442L151.554 18.7842C151.554 18.7842 150.914 17.3442 149.154 17.3442C147.714 17.3442 146.034 18.4642 146.034 21.1842C146.034 23.9842 147.554 25.0242 148.994 25.0242C150.674 25.0242 151.394 23.5042 151.394 23.5042V27.4242L150.114 28.1442H153.474L152.194 27.4242V17.3442ZM151.394 22.7042C151.394 22.7042 150.834 24.5442 149.234 24.5442C148.018 24.5442 146.914 23.5042 146.914 21.1842C146.914 18.9442 148.018 17.8242 149.234 17.8242C150.594 17.8242 151.394 18.8642 151.394 20.0642V22.7042ZM161.076 18.3842V23.0562C160.596 23.6482 159.636 24.4162 158.676 24.4162C157.636 24.4162 157.156 23.6642 157.156 22.3842V17.3442L155.076 17.9842L156.356 18.3842V22.6242C156.356 24.3842 157.236 25.0242 158.356 25.0242C159.476 25.0242 160.516 24.1442 161.076 23.5362V25.0242L163.156 24.3842L161.876 23.9842V17.3442L159.796 17.9842L161.076 18.3842ZM167.782 20.9282C166.694 21.3122 165.718 22.0642 165.718 23.1842C165.718 24.3202 166.438 25.0242 167.542 25.0242C168.182 25.0242 168.726 24.7042 169.094 24.4642L170.278 23.6802C170.278 24.5282 170.278 25.0242 170.838 25.0242C171.398 25.0242 172.518 23.6642 172.518 23.6642L171.078 24.2242V19.6642C171.078 18.3042 170.502 17.3442 168.758 17.3442C167.798 17.3442 165.99 18.2242 165.99 19.2162C165.99 19.6802 166.262 19.8882 166.566 19.8882C166.87 19.8882 167.142 19.7122 167.142 19.2162C167.142 18.9922 167.11 18.8322 167.11 18.7042C167.11 18.3042 167.622 17.8242 168.598 17.8242C169.478 17.8242 170.278 18.2402 170.278 19.6642V20.0642L167.782 20.9282ZM169.286 23.8242C168.822 24.1282 168.422 24.4322 167.798 24.4322C166.998 24.4322 166.566 23.7922 166.566 23.1042C166.566 22.2242 166.966 21.6802 168.358 21.1842L170.278 20.5122V23.1682L169.286 23.8242ZM175.954 14.3842V24.0642L174.674 24.7842H178.034L176.754 24.0642V13.3442L174.674 13.9842L175.954 14.3842ZM180.666 17.9842L182.746 17.3442V24.0642L184.026 24.7842H180.666L181.946 24.0642V18.3842L180.666 17.9842ZM181.386 14.9442C181.386 15.3922 181.738 15.7442 182.186 15.7442C182.634 15.7442 182.986 15.3922 182.986 14.9442C182.986 14.4962 182.634 14.1442 182.186 14.1442C181.738 14.1442 181.386 14.4962 181.386 14.9442ZM191.713 17.3442L191.073 17.9842C191.073 17.9842 190.513 17.3442 189.393 17.3442C188.113 17.3442 187.073 18.0962 187.073 19.2642C187.073 21.6802 191.393 21.0082 191.393 23.0722C191.393 24.1442 190.433 24.5442 189.713 24.5442C189.233 24.5442 188.353 24.4002 187.841 23.3442L187.153 21.9042V25.0242L187.713 24.0802C187.729 24.1282 188.225 25.0242 189.713 25.0242C190.993 25.0242 192.113 24.2562 192.113 22.8162C192.113 20.1762 187.713 20.7842 187.713 19.0242C187.713 18.3842 188.337 17.8242 189.393 17.8242C190.513 17.8242 190.993 18.5442 190.993 18.5442L191.713 19.8402V17.3442ZM201.309 20.4642C201.309 18.7042 200.589 17.3442 198.557 17.3442C196.653 17.3442 195.069 18.8482 195.069 21.1842C195.069 23.3442 196.349 25.0242 198.429 25.0242C200.829 25.0242 201.309 22.7042 201.309 22.7042C201.309 22.7042 200.589 24.3042 198.829 24.3042C197.229 24.3042 195.869 23.3122 195.869 20.9282C195.869 20.7682 195.869 20.6242 195.885 20.4642H201.309ZM198.525 17.7282C199.645 17.7282 200.429 18.4642 200.429 19.2642C200.429 19.9042 199.869 19.9842 199.069 19.9842H195.965C196.317 18.4482 197.517 17.7282 198.525 17.7282ZM205.465 18.3842V24.0642L204.185 24.7842H207.545L206.265 24.0642V19.5042C206.985 18.7042 207.593 18.2082 207.913 18.2082C208.441 18.2082 208.361 18.7042 208.921 18.7042C209.305 18.7042 209.545 18.4322 209.545 18.0962C209.545 17.6162 209.225 17.3442 208.665 17.3442C208.217 17.3442 207.833 17.5202 207.337 18.0002L206.265 19.0242V17.3442L204.185 17.9842L205.465 18.3842ZM211.232 24.0642C211.232 24.5122 211.584 24.8642 212.032 24.8642C212.48 24.8642 212.832 24.5122 212.832 24.0642C212.832 23.6162 212.48 23.2642 212.032 23.2642C211.584 23.2642 211.232 23.6162 211.232 24.0642ZM222.824 15.2642L225.8 25.0242L228.776 16.2402L231.848 25.0242L234.824 15.2642L236.504 14.3842H232.808L234.248 15.1842L231.928 22.8482L228.888 14.1442L225.96 22.8002L223.64 15.1842L225.08 14.3842H221.144L222.824 15.2642ZM239.863 14.3842V24.0642L238.583 24.7842H241.943L240.663 24.0642V19.3122C241.143 18.7202 242.103 17.9522 243.063 17.9522C244.103 17.9522 244.583 18.7042 244.583 19.9842V24.0642L243.303 24.7842H246.663L245.383 24.0642V19.7442C245.383 17.9842 244.503 17.3442 243.383 17.3442C242.263 17.3442 241.223 18.2242 240.663 18.8322V13.3442L238.583 13.9842L239.863 14.3842ZM255.3 20.4642C255.3 18.7042 254.58 17.3442 252.548 17.3442C250.644 17.3442 249.06 18.8482 249.06 21.1842C249.06 23.3442 250.34 25.0242 252.42 25.0242C254.82 25.0242 255.3 22.7042 255.3 22.7042C255.3 22.7042 254.58 24.3042 252.82 24.3042C251.22 24.3042 249.86 23.3122 249.86 20.9282C249.86 20.7682 249.86 20.6242 249.876 20.4642H255.3ZM252.516 17.7282C253.636 17.7282 254.42 18.4642 254.42 19.2642C254.42 19.9042 253.86 19.9842 253.06 19.9842H249.956C250.308 18.4482 251.508 17.7282 252.516 17.7282ZM259.456 18.3842V24.0642L258.176 24.7842H261.536L260.256 24.0642V19.3122C260.736 18.7202 261.696 17.9522 262.656 17.9522C263.696 17.9522 264.176 18.7042 264.176 19.9842V24.0642L262.896 24.7842H266.256L264.976 24.0642V19.7442C264.976 17.9842 264.096 17.3442 262.976 17.3442C261.856 17.3442 260.816 18.2242 260.256 18.8322V17.3442L258.176 17.9842L259.456 18.3842ZM274.087 18.0642H275.607V23.3442C275.607 24.5442 276.087 25.0242 276.887 25.0242C277.767 25.0242 278.215 23.9522 278.247 23.8402C278.231 23.8722 277.847 24.4642 277.207 24.4642C276.647 24.4642 276.407 23.9842 276.407 23.3442V18.0642H278.247V17.5842H276.407V15.9042L274.087 18.0642ZM292.252 17.5842H289.068L290.348 18.2242L288.764 23.0722L286.604 17.3442L284.396 23.1042L282.828 18.2242L284.108 17.5842H280.572L282.012 18.3042L284.172 25.0242L286.428 19.1522L288.652 25.0242L290.812 18.3042L292.252 17.5842ZM297.307 17.7762C298.635 17.7762 300.075 18.9442 300.075 21.6002C300.075 23.4882 298.939 24.5922 297.755 24.5922C296.443 24.5922 294.987 23.4242 294.987 20.7682C294.987 18.8482 296.139 17.7762 297.307 17.7762ZM294.107 21.1842C294.107 23.3442 295.307 25.0242 297.531 25.0242C299.595 25.0242 300.955 23.3442 300.955 21.1842C300.955 19.0242 299.755 17.3442 297.531 17.3442C295.467 17.3442 294.107 19.0242 294.107 21.1842ZM310.472 27.4242L309.192 28.1442H312.552L311.272 27.4242V23.7602C311.32 23.8722 311.912 25.0242 313.512 25.0242C314.952 25.0242 316.632 23.9042 316.632 21.1842C316.632 18.2242 315.112 17.3442 313.672 17.3442C311.992 17.3442 311.272 18.8642 311.272 18.8642V17.3442L309.192 17.9842L310.472 18.3842V27.4242ZM311.272 19.6642C311.272 19.6642 311.832 17.8242 313.432 17.8242C314.648 17.8242 315.752 18.7842 315.752 21.1842C315.752 23.4242 314.648 24.5442 313.432 24.5442C312.072 24.5442 311.272 23.5042 311.272 22.3042V19.6642ZM325.678 20.4642C325.678 18.7042 324.958 17.3442 322.926 17.3442C321.022 17.3442 319.438 18.8482 319.438 21.1842C319.438 23.3442 320.718 25.0242 322.798 25.0242C325.198 25.0242 325.678 22.7042 325.678 22.7042C325.678 22.7042 324.958 24.3042 323.198 24.3042C321.598 24.3042 320.238 23.3122 320.238 20.9282C320.238 20.7682 320.238 20.6242 320.254 20.4642H325.678ZM322.894 17.7282C324.014 17.7282 324.798 18.4642 324.798 19.2642C324.798 19.9042 324.238 19.9842 323.438 19.9842H320.334C320.686 18.4482 321.886 17.7282 322.894 17.7282ZM331.754 17.7762C333.082 17.7762 334.522 18.9442 334.522 21.6002C334.522 23.4882 333.386 24.5922 332.202 24.5922C330.89 24.5922 329.434 23.4242 329.434 20.7682C329.434 18.8482 330.586 17.7762 331.754 17.7762ZM328.554 21.1842C328.554 23.3442 329.754 25.0242 331.978 25.0242C334.042 25.0242 335.402 23.3442 335.402 21.1842C335.402 19.0242 334.202 17.3442 331.978 17.3442C329.914 17.3442 328.554 19.0242 328.554 21.1842ZM339.163 27.4242L337.883 28.1442H341.243L339.963 27.4242V23.7602C340.011 23.8722 340.603 25.0242 342.203 25.0242C343.643 25.0242 345.323 23.9042 345.323 21.1842C345.323 18.2242 343.803 17.3442 342.363 17.3442C340.683 17.3442 339.963 18.8642 339.963 18.8642V17.3442L337.883 17.9842L339.163 18.3842V27.4242ZM339.963 19.6642C339.963 19.6642 340.523 17.8242 342.123 17.8242C343.339 17.8242 344.443 18.7842 344.443 21.1842C344.443 23.4242 343.339 24.5442 342.123 24.5442C340.763 24.5442 339.963 23.5042 339.963 22.3042V19.6642ZM349.329 14.3842V24.0642L348.049 24.7842H351.409L350.129 24.0642V13.3442L348.049 13.9842L349.329 14.3842ZM360.281 20.4642C360.281 18.7042 359.561 17.3442 357.529 17.3442C355.625 17.3442 354.041 18.8482 354.041 21.1842C354.041 23.3442 355.321 25.0242 357.401 25.0242C359.801 25.0242 360.281 22.7042 360.281 22.7042C360.281 22.7042 359.561 24.3042 357.801 24.3042C356.201 24.3042 354.841 23.3122 354.841 20.9282C354.841 20.7682 354.841 20.6242 354.857 20.4642H360.281ZM357.497 17.7282C358.617 17.7282 359.401 18.4642 359.401 19.2642C359.401 19.9042 358.841 19.9842 358.041 19.9842H354.937C355.289 18.4482 356.489 17.7282 357.497 17.7282ZM370.113 14.3842V24.0642L368.833 24.7842H372.193L370.913 24.0642V19.3122C371.393 18.7202 372.353 17.9522 373.313 17.9522C374.353 17.9522 374.833 18.7042 374.833 19.9842V24.0642L373.553 24.7842H376.913L375.633 24.0642V19.7442C375.633 17.9842 374.753 17.3442 373.633 17.3442C372.513 17.3442 371.473 18.2242 370.913 18.8322V13.3442L368.833 13.9842L370.113 14.3842ZM381.454 20.9282C380.366 21.3122 379.39 22.0642 379.39 23.1842C379.39 24.3202 380.11 25.0242 381.214 25.0242C381.854 25.0242 382.398 24.7042 382.766 24.4642L383.95 23.6802C383.95 24.5282 383.95 25.0242 384.51 25.0242C385.07 25.0242 386.19 23.6642 386.19 23.6642L384.75 24.2242V19.6642C384.75 18.3042 384.174 17.3442 382.43 17.3442C381.47 17.3442 379.662 18.2242 379.662 19.2162C379.662 19.6802 379.934 19.8882 380.238 19.8882C380.542 19.8882 380.814 19.7122 380.814 19.2162C380.814 18.9922 380.782 18.8322 380.782 18.7042C380.782 18.3042 381.294 17.8242 382.27 17.8242C383.15 17.8242 383.95 18.2402 383.95 19.6642V20.0642L381.454 20.9282ZM382.958 23.8242C382.494 24.1282 382.094 24.4322 381.47 24.4322C380.67 24.4322 380.238 23.7922 380.238 23.1042C380.238 22.2242 380.638 21.6802 382.03 21.1842L383.95 20.5122V23.1682L382.958 23.8242ZM388.993 18.3042L391.873 25.0242L394.753 18.3042L396.193 17.5842H392.993L394.273 18.2242L392.033 23.3922L389.825 18.2242L391.105 17.5842H387.553L388.993 18.3042ZM404.281 20.4642C404.281 18.7042 403.561 17.3442 401.529 17.3442C399.625 17.3442 398.041 18.8482 398.041 21.1842C398.041 23.3442 399.321 25.0242 401.401 25.0242C403.801 25.0242 404.281 22.7042 404.281 22.7042C404.281 22.7042 403.561 24.3042 401.801 24.3042C400.201 24.3042 398.841 23.3122 398.841 20.9282C398.841 20.7682 398.841 20.6242 398.857 20.4642H404.281ZM401.497 17.7282C402.617 17.7282 403.401 18.4642 403.401 19.2642C403.401 19.9042 402.841 19.9842 402.041 19.9842H398.937C399.289 18.4482 400.489 17.7282 401.497 17.7282ZM11.704 45.9282C10.616 46.3122 9.64 47.0642 9.64 48.1842C9.64 49.3202 10.36 50.0242 11.464 50.0242C12.104 50.0242 12.648 49.7042 13.016 49.4642L14.2 48.6802C14.2 49.5282 14.2 50.0242 14.76 50.0242C15.32 50.0242 16.44 48.6642 16.44 48.6642L15 49.2242V44.6642C15 43.3042 14.424 42.3442 12.68 42.3442C11.72 42.3442 9.912 43.2242 9.912 44.2162C9.912 44.6802 10.184 44.8882 10.488 44.8882C10.792 44.8882 11.064 44.7122 11.064 44.2162C11.064 43.9922 11.032 43.8322 11.032 43.7042C11.032 43.3042 11.544 42.8242 12.52 42.8242C13.4 42.8242 14.2 43.2402 14.2 44.6642V45.0642L11.704 45.9282ZM13.208 48.8242C12.744 49.1282 12.344 49.4322 11.72 49.4322C10.92 49.4322 10.488 48.7922 10.488 48.1042C10.488 47.2242 10.888 46.6802 12.28 46.1842L14.2 45.5122V48.1682L13.208 48.8242ZM24.9119 44.9042C24.9119 45.9602 25.4719 46.8722 26.4799 47.2562C25.7919 47.3842 24.9919 47.7362 24.9919 48.6642C24.9919 49.2082 25.4079 49.6242 25.8399 49.7522C25.2959 49.8482 24.2719 50.1042 24.2719 51.2242C24.2719 52.1842 25.1519 53.3842 27.6319 53.3842C30.1919 53.3842 31.5519 51.7842 31.5519 50.5842C31.5519 49.3842 30.7519 48.9842 29.9519 48.9842H26.3519C26.1119 48.9842 25.7119 48.9042 25.7119 48.4242C25.7119 47.5922 27.0559 47.4642 27.6319 47.4642C29.3119 47.4642 30.3519 46.3122 30.3519 44.9042C30.3519 43.7202 29.6319 43.0642 29.6319 43.0642C29.6319 43.0642 30.1919 43.2242 30.5919 43.2242C31.2319 43.2242 31.4719 42.8562 31.4719 42.4242C31.4719 42.1042 31.2479 41.7842 30.7999 41.7842C30.4159 41.7842 30.1919 42.0722 30.1919 42.4082C30.1919 42.6162 30.3519 42.8242 29.9519 42.8242C29.3119 42.8242 28.7519 42.3442 27.6319 42.3442C25.9519 42.3442 24.9119 43.4962 24.9119 44.9042ZM29.9519 49.7842C30.5119 49.7842 30.9919 50.0242 30.9919 50.6642C30.9919 51.3842 30.1119 52.6642 27.7919 52.6642C25.7919 52.6642 25.0719 51.7842 25.0719 50.9842C25.0719 49.8802 26.6239 49.8002 26.6559 49.7842H29.9519ZM25.7919 44.9042C25.7919 43.5442 26.6239 42.7442 27.6319 42.7442C28.6399 42.7442 29.4719 43.5442 29.4719 44.9042C29.4719 46.2642 28.6399 47.0642 27.6319 47.0642C26.6239 47.0642 25.7919 46.2642 25.7919 44.9042ZM39.7881 43.3842V48.0562C39.3081 48.6482 38.3481 49.4162 37.3881 49.4162C36.3481 49.4162 35.8681 48.6642 35.8681 47.3842V42.3442L33.7881 42.9842L35.0681 43.3842V47.6242C35.0681 49.3842 35.9481 50.0242 37.0681 50.0242C38.1881 50.0242 39.2281 49.1442 39.7881 48.5362V50.0242L41.8681 49.3842L40.5881 48.9842V42.3442L38.5081 42.9842L39.7881 43.3842ZM45.6306 43.3842V49.0642L44.3506 49.7842H47.7106L46.4306 49.0642V44.3122C46.9106 43.7202 47.8706 42.9522 48.8306 42.9522C49.8706 42.9522 50.3506 43.7042 50.3506 44.9842V49.0642L49.0706 49.7842H52.4306L51.1506 49.0642V44.7442C51.1506 42.9842 50.2706 42.3442 49.1506 42.3442C48.0306 42.3442 46.9906 43.2242 46.4306 43.8322V42.3442L44.3506 42.9842L45.6306 43.3842ZM60.2619 43.0642H61.7819V48.3442C61.7819 49.5442 62.2619 50.0242 63.0619 50.0242C63.9419 50.0242 64.3899 48.9522 64.4219 48.8402C64.4059 48.8722 64.0219 49.4642 63.3819 49.4642C62.8219 49.4642 62.5819 48.9842 62.5819 48.3442V43.0642H64.4219V42.5842H62.5819V40.9042L60.2619 43.0642ZM68.5069 39.3842V49.0642L67.2269 49.7842H70.5869L69.3069 49.0642V44.3122C69.7869 43.7202 70.7469 42.9522 71.7069 42.9522C72.7469 42.9522 73.2269 43.7042 73.2269 44.9842V49.0642L71.9469 49.7842H75.3069L74.0269 49.0642V44.7442C74.0269 42.9842 73.1469 42.3442 72.0269 42.3442C70.9069 42.3442 69.8669 43.2242 69.3069 43.8322V38.3442L67.2269 38.9842L68.5069 39.3842ZM83.9438 45.4642C83.9438 43.7042 83.2238 42.3442 81.1918 42.3442C79.2878 42.3442 77.7038 43.8482 77.7038 46.1842C77.7038 48.3442 78.9838 50.0242 81.0638 50.0242C83.4638 50.0242 83.9438 47.7042 83.9438 47.7042C83.9438 47.7042 83.2238 49.3042 81.4638 49.3042C79.8638 49.3042 78.5038 48.3122 78.5038 45.9282C78.5038 45.7682 78.5038 45.6242 78.5198 45.4642H83.9438ZM81.1598 42.7282C82.2798 42.7282 83.0638 43.4642 83.0638 44.2642C83.0638 44.9042 82.5038 44.9842 81.7038 44.9842H78.5998C78.9518 43.4482 80.1518 42.7282 81.1598 42.7282ZM94.9474 42.5842H91.7474L93.0274 43.2242L90.9954 48.3122L88.5634 43.2242L89.8434 42.5842H86.2594L87.6994 43.3042L90.5954 49.3042L89.7154 51.5442C89.5234 52.0082 89.3154 52.4082 89.1074 52.4082C88.8194 52.4082 88.8354 51.9122 88.2914 51.9122C87.9554 51.9122 87.6514 52.1842 87.6514 52.6002C87.6514 53.0642 88.0034 53.3842 88.5314 53.3842C89.1234 53.3842 89.6834 52.9362 90.1954 51.6402L93.5074 43.3042L94.9474 42.5842ZM105.007 45.9282C103.919 46.3122 102.943 47.0642 102.943 48.1842C102.943 49.3202 103.663 50.0242 104.767 50.0242C105.407 50.0242 105.951 49.7042 106.319 49.4642L107.503 48.6802C107.503 49.5282 107.503 50.0242 108.063 50.0242C108.623 50.0242 109.743 48.6642 109.743 48.6642L108.303 49.2242V44.6642C108.303 43.3042 107.727 42.3442 105.983 42.3442C105.023 42.3442 103.215 43.2242 103.215 44.2162C103.215 44.6802 103.487 44.8882 103.791 44.8882C104.095 44.8882 104.367 44.7122 104.367 44.2162C104.367 43.9922 104.335 43.8322 104.335 43.7042C104.335 43.3042 104.847 42.8242 105.823 42.8242C106.703 42.8242 107.503 43.2402 107.503 44.6642V45.0642L105.007 45.9282ZM106.511 48.8242C106.047 49.1282 105.647 49.4322 105.023 49.4322C104.223 49.4322 103.791 48.7922 103.791 48.1042C103.791 47.2242 104.191 46.6802 105.583 46.1842L107.503 45.5122V48.1682L106.511 48.8242ZM113.259 43.3842V49.0642L111.979 49.7842H115.339L114.059 49.0642V44.5042C114.779 43.7042 115.387 43.2082 115.707 43.2082C116.235 43.2082 116.155 43.7042 116.715 43.7042C117.099 43.7042 117.339 43.4322 117.339 43.0962C117.339 42.6162 117.019 42.3442 116.459 42.3442C116.011 42.3442 115.627 42.5202 115.131 43.0002L114.059 44.0242V42.3442L111.979 42.9842L113.259 43.3842ZM126.303 45.4642C126.303 43.7042 125.583 42.3442 123.551 42.3442C121.647 42.3442 120.063 43.8482 120.063 46.1842C120.063 48.3442 121.343 50.0242 123.423 50.0242C125.823 50.0242 126.303 47.7042 126.303 47.7042C126.303 47.7042 125.583 49.3042 123.823 49.3042C122.223 49.3042 120.863 48.3122 120.863 45.9282C120.863 45.7682 120.863 45.6242 120.879 45.4642H126.303ZM123.519 42.7282C124.639 42.7282 125.423 43.4642 125.423 44.2642C125.423 44.9042 124.863 44.9842 124.063 44.9842H120.959C121.311 43.4482 122.511 42.7282 123.519 42.7282ZM141.175 45.4642C141.175 43.7042 140.455 42.3442 138.423 42.3442C136.519 42.3442 134.935 43.8482 134.935 46.1842C134.935 48.3442 136.215 50.0242 138.295 50.0242C140.695 50.0242 141.175 47.7042 141.175 47.7042C141.175 47.7042 140.455 49.3042 138.695 49.3042C137.095 49.3042 135.735 48.3122 135.735 45.9282C135.735 45.7682 135.735 45.6242 135.751 45.4642H141.175ZM138.391 42.7282C139.511 42.7282 140.295 43.4642 140.295 44.2642C140.295 44.9042 139.735 44.9842 138.935 44.9842H135.831C136.183 43.4482 137.383 42.7282 138.391 42.7282ZM150.291 42.3442L149.651 43.7842C149.651 43.7842 149.011 42.3442 147.251 42.3442C145.811 42.3442 144.131 43.4642 144.131 46.1842C144.131 48.9842 145.651 50.0242 147.091 50.0242C148.771 50.0242 149.491 48.5042 149.491 48.5042V52.4242L148.211 53.1442H151.571L150.291 52.4242V42.3442ZM149.491 47.7042C149.491 47.7042 148.931 49.5442 147.331 49.5442C146.115 49.5442 145.011 48.5042 145.011 46.1842C145.011 43.9442 146.115 42.8242 147.331 42.8242C148.691 42.8242 149.491 43.8642 149.491 45.0642V47.7042ZM159.172 43.3842V48.0562C158.692 48.6482 157.732 49.4162 156.772 49.4162C155.732 49.4162 155.252 48.6642 155.252 47.3842V42.3442L153.172 42.9842L154.452 43.3842V47.6242C154.452 49.3842 155.332 50.0242 156.452 50.0242C157.572 50.0242 158.612 49.1442 159.172 48.5362V50.0242L161.252 49.3842L159.972 48.9842V42.3442L157.892 42.9842L159.172 43.3842ZM165.879 45.9282C164.791 46.3122 163.815 47.0642 163.815 48.1842C163.815 49.3202 164.535 50.0242 165.639 50.0242C166.279 50.0242 166.823 49.7042 167.191 49.4642L168.375 48.6802C168.375 49.5282 168.375 50.0242 168.935 50.0242C169.495 50.0242 170.615 48.6642 170.615 48.6642L169.175 49.2242V44.6642C169.175 43.3042 168.599 42.3442 166.855 42.3442C165.895 42.3442 164.087 43.2242 164.087 44.2162C164.087 44.6802 164.359 44.8882 164.663 44.8882C164.967 44.8882 165.239 44.7122 165.239 44.2162C165.239 43.9922 165.207 43.8322 165.207 43.7042C165.207 43.3042 165.719 42.8242 166.695 42.8242C167.575 42.8242 168.375 43.2402 168.375 44.6642V45.0642L165.879 45.9282ZM167.383 48.8242C166.919 49.1282 166.519 49.4322 165.895 49.4322C165.095 49.4322 164.663 48.7922 164.663 48.1042C164.663 47.2242 165.063 46.6802 166.455 46.1842L168.375 45.5122V48.1682L167.383 48.8242ZM174.051 39.3842V49.0642L172.771 49.7842H176.131L174.851 49.0642V38.3442L172.771 38.9842L174.051 39.3842ZM179.163 49.0642C179.163 49.5122 179.515 49.8642 179.963 49.8642C180.411 49.8642 180.763 49.5122 180.763 49.0642C180.763 48.6162 180.411 48.2642 179.963 48.2642C179.515 48.2642 179.163 48.6162 179.163 49.0642ZM184.279 39.3842C184.279 39.8322 184.631 40.1842 185.079 40.1842H185.159L184.359 42.0242C185.799 40.2642 185.879 39.9442 185.879 39.3842C185.879 38.9362 185.527 38.5842 185.079 38.5842C184.631 38.5842 184.279 38.9362 184.279 39.3842ZM186.519 39.3842C186.519 39.8322 186.871 40.1842 187.319 40.1842H187.399L186.599 42.0242C188.039 40.2642 188.119 39.9442 188.119 39.3842C188.119 38.9362 187.767 38.5842 187.319 38.5842C186.871 38.5842 186.519 38.9362 186.519 39.3842ZM12.36 96.4522V95.6542H9.532V96.4522H12.36ZM22.342 94.8842C24.288 94.8842 23.994 96.8302 24.008 97.2642C24.022 97.8102 24.064 99.4902 24.148 99.7842H25.002C24.974 99.3922 24.904 99.0002 24.904 98.6082C24.904 94.9962 24.82 94.8282 23.406 94.5342V94.5062C24.764 94.1982 24.974 93.3582 24.974 92.0982C24.974 90.3202 24.484 89.6762 22.538 89.6762H19.752V99.7842H20.648V94.8842H22.342ZM20.648 90.4322H22.482C23.532 90.4322 24.078 90.6982 24.078 92.0842C24.078 93.7782 23.448 94.1282 22.104 94.1282H20.648V90.4322ZM29.174 99.7842V92.7142H28.334V99.7842H29.174ZM29.272 90.7402V89.6762H28.236V90.7402H29.272ZM36.5475 94.7442C36.6175 93.2602 35.7915 92.5742 34.5735 92.5742C33.6075 92.5742 32.8095 92.9382 32.4455 93.9462C32.2635 94.4782 32.2355 95.5842 32.2355 96.2842C32.2355 98.0342 32.2355 99.9242 34.6295 99.9242C35.2875 99.9242 36.6315 99.6022 36.5615 97.6982H35.7215C35.6795 98.5522 35.5395 99.2522 34.4335 99.2522C33.1315 99.2522 33.1315 97.5582 33.1315 96.2842C33.1315 95.3462 33.2155 94.3802 33.3275 94.0582C33.5095 93.5402 33.9435 93.2462 34.4615 93.2462C35.4275 93.2462 35.7495 93.8622 35.7075 94.7442H36.5475ZM40.2389 99.7842V95.3462C40.2389 93.7642 41.0089 93.2462 41.7649 93.2462C42.7449 93.2462 43.0669 94.0162 43.0669 94.8422V99.7842H43.9069V94.8002C43.9069 93.8762 43.7249 92.5742 41.9749 92.5742C41.2189 92.5742 40.6729 92.9942 40.2669 93.5822H40.2389V89.6762H39.3989V99.7842H40.2389ZM50.6176 97.4602C50.6176 98.3842 49.8336 99.2522 48.8676 99.2522C47.9996 99.2522 47.5936 98.5942 47.5936 97.7962C47.5936 96.0742 49.4136 96.2142 50.6176 96.1722V97.4602ZM50.6736 99.7842H51.5416C51.4576 98.9582 51.4576 98.5102 51.4576 98.0062V94.4502C51.4576 92.6442 49.9736 92.5742 49.2596 92.5742C48.0276 92.5742 46.9776 93.1062 46.9076 94.4642H47.8036C47.8036 93.6242 48.4196 93.2462 49.1896 93.2462C50.3096 93.2462 50.6176 93.8762 50.6176 94.9122V95.5002C49.1896 95.6122 46.6976 95.3602 46.6976 97.8382C46.6976 99.0702 47.3836 99.9242 48.6436 99.9242C49.5116 99.9242 50.1976 99.5882 50.6456 98.9162H50.6736V99.7842ZM55.5363 92.7142H54.6963V99.7842H55.5363V95.2342C55.5363 94.0442 56.3203 93.3302 57.5103 93.4282V92.5742C56.6563 92.5742 55.9143 92.9942 55.5643 93.6662H55.5363V92.7142ZM62.0508 99.2522C61.1408 99.2522 60.5108 98.9022 60.5108 96.2702C60.5108 94.6182 60.5108 93.2462 62.0228 93.2462C63.6048 93.2462 63.6048 95.2062 63.6048 95.6262V96.8862C63.6048 98.6082 62.8488 99.2522 62.0508 99.2522ZM63.6888 99.7842H64.5008C64.4588 99.5462 64.4168 99.0842 64.4168 98.3842V89.6762H63.5768V93.4282L63.5488 93.4142C63.1148 92.8682 62.4848 92.5742 61.8408 92.5742C59.6708 92.5742 59.6708 94.8842 59.6708 96.2422C59.6708 97.8942 59.7828 99.9242 61.8268 99.9242C62.6528 99.9242 63.1848 99.5742 63.6188 98.9022L63.6468 98.8882L63.6888 99.7842ZM73.097 99.7842V90.5442H73.125L76.177 99.7842H77.213L80.181 90.5442H80.209V99.7842H81.105V89.6762H79.677L76.737 98.8042H76.709L73.727 89.6762H72.201V99.7842H73.097ZM87.9555 97.4602C87.9555 98.3842 87.1715 99.2522 86.2055 99.2522C85.3375 99.2522 84.9315 98.5942 84.9315 97.7962C84.9315 96.0742 86.7515 96.2142 87.9555 96.1722V97.4602ZM88.0115 99.7842H88.8795C88.7955 98.9582 88.7955 98.5102 88.7955 98.0062V94.4502C88.7955 92.6442 87.3115 92.5742 86.5975 92.5742C85.3655 92.5742 84.3155 93.1062 84.2455 94.4642H85.1415C85.1415 93.6242 85.7575 93.2462 86.5275 93.2462C87.6475 93.2462 87.9555 93.8762 87.9555 94.9122V95.5002C86.5275 95.6122 84.0355 95.3602 84.0355 97.8382C84.0355 99.0702 84.7215 99.9242 85.9815 99.9242C86.8495 99.9242 87.5355 99.5882 87.9835 98.9162H88.0115V99.7842ZM95.9682 94.7442C96.0382 93.2602 95.2122 92.5742 93.9942 92.5742C93.0282 92.5742 92.2302 92.9382 91.8662 93.9462C91.6842 94.4782 91.6562 95.5842 91.6562 96.2842C91.6562 98.0342 91.6562 99.9242 94.0502 99.9242C94.7082 99.9242 96.0522 99.6022 95.9822 97.6982H95.1422C95.1002 98.5522 94.9602 99.2522 93.8542 99.2522C92.5522 99.2522 92.5522 97.5582 92.5522 96.2842C92.5522 95.3462 92.6362 94.3802 92.7482 94.0582C92.9302 93.5402 93.3642 93.2462 93.8822 93.2462C94.8482 93.2462 95.1702 93.8622 95.1282 94.7442H95.9682ZM98.8476 99.7842H99.6876V95.9342H99.7156L102.236 99.7842H103.3L100.626 95.8642L103.132 92.7142H102.152L99.7156 95.8362H99.6876V89.6762H98.8476V99.7842ZM105.563 101.254H106.305L107.145 98.7202H106.123L105.563 101.254ZM116.292 89.6762H115.55L114.71 92.2102H115.732L116.292 89.6762ZM118.364 89.6762H117.622L116.782 92.2102H117.804L118.364 89.6762ZM126.437 98.9302C125.961 99.1122 125.317 99.2242 124.547 99.2242C122.363 99.2242 122.391 97.2782 122.391 94.7302C122.391 92.1822 122.363 90.2362 124.547 90.2362C125.961 90.2362 126.535 90.9362 126.535 92.2662H127.431C127.473 90.3062 126.479 89.4802 124.547 89.4802C121.257 89.4802 121.495 92.7702 121.495 94.7302C121.495 96.6902 121.257 99.9802 124.547 99.9802C125.499 99.9802 126.437 99.8402 127.333 99.5602V94.5062H124.393V95.2622H126.437V98.9302ZM134.301 92.7142V97.6982C134.301 98.1882 133.895 99.2522 132.761 99.2522C131.543 99.2522 131.585 97.7682 131.585 97.5722V92.7142H130.745V97.7122C130.745 98.8602 131.151 99.9242 132.607 99.9242C133.391 99.9242 133.895 99.6022 134.385 99.0002H134.413V99.7842H135.141V92.7142H134.301ZM139.149 95.3462C139.149 93.7642 139.919 93.2462 140.675 93.2462C141.655 93.2462 141.977 94.0162 141.977 94.8422V99.7842H142.817V94.8002C142.817 93.8762 142.635 92.5742 140.885 92.5742C140.129 92.5742 139.583 92.9942 139.177 93.5822H139.149V92.7142H138.309V99.7842H139.149V95.3462ZM151.554 99.7842V90.8382L151.582 90.8102L155.698 99.7842H157.056V89.6762H156.16V98.5242L156.132 98.5522L152.03 89.6762H150.658V99.7842H151.554ZM163.99 97.4602C163.99 98.3842 163.206 99.2522 162.24 99.2522C161.372 99.2522 160.966 98.5942 160.966 97.7962C160.966 96.0742 162.786 96.2142 163.99 96.1722V97.4602ZM164.046 99.7842H164.914C164.83 98.9582 164.83 98.5102 164.83 98.0062V94.4502C164.83 92.6442 163.346 92.5742 162.632 92.5742C161.4 92.5742 160.35 93.1062 160.28 94.4642H161.176C161.176 93.6242 161.792 93.2462 162.562 93.2462C163.682 93.2462 163.99 93.8762 163.99 94.9122V95.5002C162.562 95.6122 160.07 95.3602 160.07 97.8382C160.07 99.0702 160.756 99.9242 162.016 99.9242C162.884 99.9242 163.57 99.5882 164.018 98.9162H164.046V99.7842ZM168.517 93.3862V98.4402C168.517 99.3082 168.853 99.8122 169.987 99.8122C170.253 99.8122 170.533 99.7982 170.785 99.7702V99.0422C170.603 99.0702 170.407 99.0842 170.127 99.0842C169.455 99.0842 169.357 98.8602 169.357 97.9222V93.3862H170.785V92.7142H169.357V90.8942L168.517 91.2582V92.7142H167.383V93.3862H168.517ZM174.429 99.7842V92.7142H173.589V99.7842H174.429ZM174.527 90.7402V89.6762H173.491V90.7402H174.527ZM180.067 99.9242C181.719 99.9242 182.503 98.8462 182.503 97.0122V95.4862C182.503 93.6522 181.719 92.5742 180.067 92.5742C178.415 92.5742 177.631 93.6522 177.631 95.4862V97.0122C177.631 98.8462 178.415 99.9242 180.067 99.9242ZM180.067 93.2462C181.453 93.2462 181.663 94.4082 181.663 96.2422C181.663 98.0902 181.453 99.2522 180.067 99.2522C178.681 99.2522 178.471 98.0902 178.471 96.2422C178.471 94.4082 178.681 93.2462 180.067 93.2462ZM186.274 95.3462C186.274 93.7642 187.044 93.2462 187.8 93.2462C188.78 93.2462 189.102 94.0162 189.102 94.8422V99.7842H189.942V94.8002C189.942 93.8762 189.76 92.5742 188.01 92.5742C187.254 92.5742 186.708 92.9942 186.302 93.5822H186.274V92.7142H185.434V99.7842H186.274V95.3462ZM193.236 99.7842H194.272V98.7202H193.236V99.7842ZM193.236 93.7782H194.272V92.7142H193.236V93.7782ZM203.181 99.7842V92.7142H202.341V99.7842H203.181ZM203.279 90.7402V89.6762H202.243V90.7402H203.279ZM207.405 95.3462C207.405 93.7642 208.175 93.2462 208.931 93.2462C209.911 93.2462 210.233 94.0162 210.233 94.8422V99.7842H211.073V94.8002C211.073 93.8762 210.891 92.5742 209.141 92.5742C208.385 92.5742 207.839 92.9942 207.433 93.5822H207.405V92.7142H206.565V99.7842H207.405V95.3462ZM218.148 97.9222C218.148 95.5562 214.97 96.0322 214.97 94.2682C214.97 93.6382 215.446 93.2462 216.048 93.2462C217 93.2462 217.238 93.7222 217.28 94.6182H218.106C218.106 93.5402 217.658 92.5742 216.258 92.5742C215.026 92.5742 214.13 93.0362 214.13 94.3382C214.13 96.6762 217.308 96.2002 217.308 98.0482C217.308 98.8322 216.916 99.2942 216.104 99.2942C215.026 99.2942 214.802 98.6502 214.802 97.6842H213.948C213.934 99.1822 214.536 99.9242 216.062 99.9242C217.378 99.9242 218.148 99.2522 218.148 97.9222ZM222.147 99.7842V92.7142H221.307V99.7842H222.147ZM222.245 90.7402V89.6762H221.209V90.7402H222.245ZM227.645 99.2522C226.735 99.2522 226.105 98.9022 226.105 96.2702C226.105 94.6182 226.105 93.2462 227.617 93.2462C229.199 93.2462 229.199 95.2062 229.199 95.6262V96.8862C229.199 98.6082 228.443 99.2522 227.645 99.2522ZM229.283 99.7842H230.095C230.053 99.5462 230.011 99.0842 230.011 98.3842V89.6762H229.171V93.4282L229.143 93.4142C228.709 92.8682 228.079 92.5742 227.435 92.5742C225.265 92.5742 225.265 94.8842 225.265 96.2422C225.265 97.8942 225.377 99.9242 227.421 99.9242C228.247 99.9242 228.779 99.5742 229.213 98.9022L229.241 98.8882L229.283 99.7842ZM237.841 96.4242C237.841 94.3242 237.841 92.5742 235.405 92.5742C233.823 92.5742 232.969 93.5122 232.969 95.5562V97.2922C232.969 99.4342 234.187 99.9242 235.405 99.9242C236.819 99.9242 237.743 99.3362 237.841 97.6282H236.959C236.973 98.5802 236.455 99.2522 235.405 99.2522C234.075 99.2522 233.809 97.9502 233.809 96.9702V96.4242H237.841ZM233.809 95.7522C233.809 94.1842 234.061 93.2462 235.405 93.2462C236.749 93.2462 237.001 94.1842 237.001 95.7522H233.809ZM245.779 93.3862V98.4402C245.779 99.3082 246.115 99.8122 247.249 99.8122C247.515 99.8122 247.795 99.7982 248.047 99.7702V99.0422C247.865 99.0702 247.669 99.0842 247.389 99.0842C246.717 99.0842 246.619 98.8602 246.619 97.9222V93.3862H248.047V92.7142H246.619V90.8942L245.779 91.2582V92.7142H244.645V93.3862H245.779ZM251.412 99.7842V95.3462C251.412 93.7642 252.182 93.2462 252.938 93.2462C253.918 93.2462 254.24 94.0162 254.24 94.8422V99.7842H255.08V94.8002C255.08 93.8762 254.898 92.5742 253.148 92.5742C252.392 92.5742 251.846 92.9942 251.44 93.5822H251.412V89.6762H250.572V99.7842H251.412ZM262.883 96.4242C262.883 94.3242 262.883 92.5742 260.447 92.5742C258.865 92.5742 258.011 93.5122 258.011 95.5562V97.2922C258.011 99.4342 259.229 99.9242 260.447 99.9242C261.861 99.9242 262.785 99.3362 262.883 97.6282H262.001C262.015 98.5802 261.497 99.2522 260.447 99.2522C259.117 99.2522 258.851 97.9502 258.851 96.9702V96.4242H262.883ZM258.851 95.7522C258.851 94.1842 259.103 93.2462 260.447 93.2462C261.791 93.2462 262.043 94.1842 262.043 95.7522H258.851ZM271.297 89.6762H270.401V96.6902C270.401 99.2942 271.773 99.9802 273.355 99.9802C274.937 99.9802 276.309 99.2942 276.309 96.6902V89.6762H275.413V96.0322C275.413 97.3482 275.413 99.2242 273.355 99.2242C271.297 99.2242 271.297 97.3482 271.297 96.0322V89.6762ZM284.844 92.2382C284.844 90.7822 284.396 89.4802 282.296 89.4802C280.644 89.4802 279.538 90.2082 279.552 91.9582C279.566 92.9662 279.65 93.5682 281.61 94.7722C283.066 95.6682 283.976 96.0602 283.976 97.4322C283.976 98.5942 283.402 99.2242 282.226 99.2242C280.42 99.2242 280.336 98.0622 280.336 96.9422H279.412C279.328 98.9162 280.21 99.9802 282.184 99.9802C283.948 99.9802 284.872 99.0982 284.872 97.2922C284.872 95.3322 283.598 95.0662 282.352 94.1702C281.204 93.3442 280.448 93.3022 280.448 91.8042C280.448 90.6142 281.134 90.2362 282.226 90.2362C283.598 90.2362 283.906 90.9922 283.934 92.2382H284.844ZM287.798 92.2102H288.54L289.38 89.6762H288.358L287.798 92.2102ZM295.104 97.9222C295.104 95.5562 291.926 96.0322 291.926 94.2682C291.926 93.6382 292.402 93.2462 293.004 93.2462C293.956 93.2462 294.194 93.7222 294.236 94.6182H295.062C295.062 93.5402 294.614 92.5742 293.214 92.5742C291.982 92.5742 291.086 93.0362 291.086 94.3382C291.086 96.6762 294.264 96.2002 294.264 98.0482C294.264 98.8322 293.872 99.2942 293.06 99.2942C291.982 99.2942 291.758 98.6502 291.758 97.6842H290.904C290.89 99.1822 291.492 99.9242 293.018 99.9242C294.334 99.9242 295.104 99.2522 295.104 97.9222ZM304.601 99.2522C303.691 99.2522 303.061 98.9022 303.061 96.2702C303.061 94.6182 303.061 93.2462 304.573 93.2462C306.155 93.2462 306.155 95.2062 306.155 95.6262V96.8862C306.155 98.6082 305.399 99.2522 304.601 99.2522ZM306.239 99.7842H307.051C307.009 99.5462 306.967 99.0842 306.967 98.3842V89.6762H306.127V93.4282L306.099 93.4142C305.665 92.8682 305.035 92.5742 304.391 92.5742C302.221 92.5742 302.221 94.8842 302.221 96.2422C302.221 97.8942 302.333 99.9242 304.377 99.9242C305.203 99.9242 305.735 99.5742 306.169 98.9022L306.197 98.8882L306.239 99.7842ZM314.798 96.4242C314.798 94.3242 314.798 92.5742 312.362 92.5742C310.78 92.5742 309.926 93.5122 309.926 95.5562V97.2922C309.926 99.4342 311.144 99.9242 312.362 99.9242C313.776 99.9242 314.7 99.3362 314.798 97.6282H313.916C313.93 98.5802 313.412 99.2522 312.362 99.2522C311.032 99.2522 310.766 97.9502 310.766 96.9702V96.4242H314.798ZM310.766 95.7522C310.766 94.1842 311.018 93.2462 312.362 93.2462C313.706 93.2462 313.958 94.1842 313.958 95.7522H310.766ZM321.326 97.4602C321.326 98.3842 320.542 99.2522 319.576 99.2522C318.708 99.2522 318.302 98.5942 318.302 97.7962C318.302 96.0742 320.122 96.2142 321.326 96.1722V97.4602ZM321.382 99.7842H322.25C322.166 98.9582 322.166 98.5102 322.166 98.0062V94.4502C322.166 92.6442 320.682 92.5742 319.968 92.5742C318.736 92.5742 317.686 93.1062 317.616 94.4642H318.512C318.512 93.6242 319.128 93.2462 319.898 93.2462C321.018 93.2462 321.326 93.8762 321.326 94.9122V95.5002C319.898 95.6122 317.406 95.3602 317.406 97.8382C317.406 99.0702 318.092 99.9242 319.352 99.9242C320.22 99.9242 320.906 99.5882 321.354 98.9162H321.382V99.7842ZM327.463 99.2522C326.553 99.2522 325.923 98.9022 325.923 96.2702C325.923 94.6182 325.923 93.2462 327.435 93.2462C329.017 93.2462 329.017 95.2062 329.017 95.6262V96.8862C329.017 98.6082 328.261 99.2522 327.463 99.2522ZM329.101 99.7842H329.913C329.871 99.5462 329.829 99.0842 329.829 98.3842V89.6762H328.989V93.4282L328.961 93.4142C328.527 92.8682 327.897 92.5742 327.253 92.5742C325.083 92.5742 325.083 94.8842 325.083 96.2422C325.083 97.8942 325.195 99.9242 327.239 99.9242C328.065 99.9242 328.597 99.5742 329.031 98.9022L329.059 98.8882L329.101 99.7842ZM334.09 99.7842V89.6762H333.25V99.7842H334.09ZM338.173 102.458H338.999L341.925 92.7142H341.085L339.419 98.5102H339.391L337.669 92.7142H336.759L338.999 99.7982L338.173 102.458ZM12.108 121.924C13.76 121.924 14.544 120.846 14.544 119.012V117.486C14.544 115.652 13.76 114.574 12.108 114.574C10.456 114.574 9.672 115.652 9.672 117.486V119.012C9.672 120.846 10.456 121.924 12.108 121.924ZM12.108 115.246C13.494 115.246 13.704 116.408 13.704 118.242C13.704 120.09 13.494 121.252 12.108 121.252C10.722 121.252 10.512 120.09 10.512 118.242C10.512 116.408 10.722 115.246 12.108 115.246ZM18.3147 118.144C18.3147 117.08 18.4827 115.246 19.8407 115.246C21.3947 115.246 21.4367 116.618 21.4367 118.27C21.4367 119.922 21.3947 121.252 19.8407 121.252C18.3147 121.252 18.3147 119.264 18.3147 118.144ZM18.2867 121.784V120.93H18.3147C18.6647 121.588 19.2667 121.924 20.0927 121.924C22.1507 121.924 22.2767 119.796 22.2767 118.242C22.2767 116.982 22.4587 114.574 20.1627 114.574C19.3647 114.574 18.8047 114.868 18.3707 115.54L18.3427 115.512V111.676H17.5027V121.084C17.5027 121.322 17.4607 121.546 17.4187 121.784H18.2867ZM29.0574 119.922C29.0574 117.556 25.8794 118.032 25.8794 116.268C25.8794 115.638 26.3554 115.246 26.9574 115.246C27.9094 115.246 28.1474 115.722 28.1894 116.618H29.0154C29.0154 115.54 28.5674 114.574 27.1674 114.574C25.9354 114.574 25.0394 115.036 25.0394 116.338C25.0394 118.676 28.2174 118.2 28.2174 120.048C28.2174 120.832 27.8254 121.294 27.0134 121.294C25.9354 121.294 25.7114 120.65 25.7114 119.684H24.8574C24.8434 121.182 25.4454 121.924 26.9714 121.924C28.2874 121.924 29.0574 121.252 29.0574 119.922ZM36.6268 118.424C36.6268 116.324 36.6268 114.574 34.1908 114.574C32.6088 114.574 31.7548 115.512 31.7548 117.556V119.292C31.7548 121.434 32.9728 121.924 34.1908 121.924C35.6048 121.924 36.5288 121.336 36.6268 119.628H35.7448C35.7588 120.58 35.2408 121.252 34.1908 121.252C32.8608 121.252 32.5948 119.95 32.5948 118.97V118.424H36.6268ZM32.5948 117.752C32.5948 116.184 32.8468 115.246 34.1908 115.246C35.5348 115.246 35.7868 116.184 35.7868 117.752H32.5948ZM43.5195 119.922C43.5195 117.556 40.3415 118.032 40.3415 116.268C40.3415 115.638 40.8175 115.246 41.4195 115.246C42.3715 115.246 42.6095 115.722 42.6515 116.618H43.4775C43.4775 115.54 43.0295 114.574 41.6295 114.574C40.3975 114.574 39.5015 115.036 39.5015 116.338C39.5015 118.676 42.6795 118.2 42.6795 120.048C42.6795 120.832 42.2875 121.294 41.4755 121.294C40.3975 121.294 40.1735 120.65 40.1735 119.684H39.3195C39.3055 121.182 39.9075 121.924 41.4335 121.924C42.7495 121.924 43.5195 121.252 43.5195 119.922ZM50.3609 119.922C50.3609 117.556 47.1829 118.032 47.1829 116.268C47.1829 115.638 47.6589 115.246 48.2609 115.246C49.2129 115.246 49.4509 115.722 49.4929 116.618H50.3189C50.3189 115.54 49.8709 114.574 48.4709 114.574C47.2389 114.574 46.3429 115.036 46.3429 116.338C46.3429 118.676 49.5209 118.2 49.5209 120.048C49.5209 120.832 49.1289 121.294 48.3169 121.294C47.2389 121.294 47.0149 120.65 47.0149 119.684H46.1609C46.1469 121.182 46.7489 121.924 48.2749 121.924C49.5909 121.924 50.3609 121.252 50.3609 119.922ZM54.3603 121.784V114.714H53.5203V121.784H54.3603ZM54.4583 112.74V111.676H53.4223V112.74H54.4583ZM59.9978 121.924C61.6498 121.924 62.4338 120.846 62.4338 119.012V117.486C62.4338 115.652 61.6498 114.574 59.9978 114.574C58.3458 114.574 57.5618 115.652 57.5618 117.486V119.012C57.5618 120.846 58.3458 121.924 59.9978 121.924ZM59.9978 115.246C61.3838 115.246 61.5938 116.408 61.5938 118.242C61.5938 120.09 61.3838 121.252 59.9978 121.252C58.6118 121.252 58.4018 120.09 58.4018 118.242C58.4018 116.408 58.6118 115.246 59.9978 115.246ZM66.2045 117.346C66.2045 115.764 66.9745 115.246 67.7305 115.246C68.7105 115.246 69.0325 116.016 69.0325 116.842V121.784H69.8725V116.8C69.8725 115.876 69.6905 114.574 67.9405 114.574C67.1845 114.574 66.6385 114.994 66.2325 115.582H66.2045V114.714H65.3645V121.784H66.2045V117.346ZM73.0272 114.21H73.7692L74.6092 111.676H73.5872L73.0272 114.21ZM75.0992 114.21H75.8412L76.6812 111.676H75.6592L75.0992 114.21ZM85.1142 111.382C84.4142 113.412 83.9102 115.512 83.9102 117.668C83.9102 119.712 84.4422 121.7 85.0582 123.632H85.7442C85.1702 121.63 84.8062 119.544 84.8062 117.458C84.8062 115.4 85.2402 113.37 85.7442 111.382H85.1142ZM93.4957 121.028H89.5057C92.7677 116.128 93.4817 115.33 93.4817 113.902C93.4817 112.236 92.1237 111.872 90.9897 111.872C89.8557 111.872 88.5537 112.46 88.5537 114.406H89.3937C89.3937 113.398 89.9257 112.628 90.9897 112.628C91.7597 112.628 92.5857 112.796 92.5857 114.098C92.5857 115.4 90.6957 117.64 88.5257 121V121.784H93.4957V121.028ZM97.1124 114.994C97.1124 112.796 98.0784 112.628 98.7084 112.628C99.3384 112.628 100.304 112.796 100.304 114.994V118.816C100.304 121.014 99.3384 121.182 98.7084 121.182C98.0784 121.182 97.1124 121.014 97.1124 118.816V114.994ZM98.7084 111.872C96.2164 111.872 96.2164 114.014 96.2164 115.848V117.962C96.2164 119.796 96.2164 121.938 98.7084 121.938C101.2 121.938 101.2 119.796 101.2 117.962V115.848C101.2 114.014 101.2 111.872 98.7084 111.872ZM104.467 114.518C105.083 114.112 105.643 113.65 106.175 113.146V121.784H107.015V112.026H106.231C105.741 112.628 105.111 113.104 104.467 113.552V114.518ZM115.546 118.648C115.546 119.81 115.476 121.182 113.964 121.182C112.116 121.182 112.312 118.816 112.312 118.732C112.312 117.066 113.012 116.394 114.034 116.394C115.182 116.394 115.546 117.136 115.546 118.648ZM116.344 114.196C116.316 112.67 115.588 111.872 114.076 111.872C111.92 111.872 111.472 113.048 111.472 115.414V118.606C111.472 120.552 111.696 121.938 114.076 121.938C116.218 121.938 116.442 120.3 116.442 118.396C116.442 118.102 116.596 115.638 114.258 115.638C113.404 115.638 112.704 115.988 112.34 116.702L112.312 116.716V115.862C112.312 114.378 112.34 112.628 114.02 112.628C115 112.628 115.392 113.23 115.448 114.196H116.344ZM119.303 111.382C119.807 113.37 120.241 115.4 120.241 117.458C120.241 119.544 119.877 121.63 119.303 123.632H119.989C120.605 121.7 121.137 119.712 121.137 117.668C121.137 115.512 120.633 113.412 119.933 111.382H119.303ZM124.002 121.784H125.038V120.72H124.002V121.784Z" fill="white"/>
</svg>
