<svg width="431" height="24" viewBox="0 0 431 24" fill="none" xmlns="http://www.w3.org/2000/svg">
<rect width="416.273" height="24" fill="black" fill-opacity="0.69"/>
<path d="M8.80625 14H9.70225V9.184H12.8382V8.428H9.70225V4.648H13.0762V3.892H8.80625V14ZM17.8037 14.14C19.4557 14.14 20.2397 13.062 20.2397 11.228V9.702C20.2397 7.868 19.4557 6.79 17.8037 6.79C16.1517 6.79 15.3677 7.868 15.3677 9.702V11.228C15.3677 13.062 16.1517 14.14 17.8037 14.14ZM17.8037 7.462C19.1897 7.462 19.3997 8.624 19.3997 10.458C19.3997 12.306 19.1897 13.468 17.8037 13.468C16.4177 13.468 16.2077 12.306 16.2077 10.458C16.2077 8.624 16.4177 7.462 17.8037 7.462ZM24.0664 6.93H23.2264V14H24.0664V9.45C24.0664 8.26 24.8504 7.546 26.0404 7.644V6.79C25.1864 6.79 24.4444 7.21 24.0944 7.882H24.0664V6.93ZM29.2928 9.45C29.2928 8.526 29.6988 7.462 30.7628 7.462C31.5888 7.462 31.8408 8.246 31.8548 8.946V14H32.6948V9.45C32.6948 8.526 33.1008 7.462 34.1648 7.462C34.9908 7.462 35.2428 8.246 35.2568 8.946V14H36.0968V8.736C36.0548 7.602 35.4388 6.79 34.2628 6.79C33.4788 6.79 32.8768 7.196 32.5268 7.896C32.2888 7.196 31.6448 6.79 30.9168 6.79C30.1328 6.79 29.5728 7.224 29.2368 7.798H29.2088V6.916H28.4528V14H29.2928V9.45ZM43.8947 10.64C43.8947 8.54 43.8947 6.79 41.4587 6.79C39.8767 6.79 39.0227 7.728 39.0227 9.772V11.508C39.0227 13.65 40.2407 14.14 41.4587 14.14C42.8727 14.14 43.7967 13.552 43.8947 11.844H43.0127C43.0267 12.796 42.5087 13.468 41.4587 13.468C40.1287 13.468 39.8627 12.166 39.8627 11.186V10.64H43.8947ZM39.8627 9.968C39.8627 8.4 40.1147 7.462 41.4587 7.462C42.8027 7.462 43.0547 8.4 43.0547 9.968H39.8627ZM47.7214 6.93H46.8814V14H47.7214V9.45C47.7214 8.26 48.5054 7.546 49.6954 7.644V6.79C48.8414 6.79 48.0994 7.21 47.7494 7.882H47.7214V6.93ZM59.6214 14.196C62.0154 14.196 62.1834 11.83 62.1834 11.102H61.2314C61.2174 12.404 60.7834 13.44 59.6214 13.44C57.4934 13.44 57.4654 11.634 57.4654 8.946C57.4654 6.258 57.4934 4.452 59.6214 4.452C60.9094 4.452 61.2174 5.502 61.2174 6.622H62.1134C62.1134 5.712 62.0714 3.696 59.6214 3.696C56.5974 3.696 56.5694 6.216 56.5694 8.946C56.5694 11.676 56.5974 14.196 59.6214 14.196ZM67.2794 14.14C68.9314 14.14 69.7154 13.062 69.7154 11.228V9.702C69.7154 7.868 68.9314 6.79 67.2794 6.79C65.6274 6.79 64.8434 7.868 64.8434 9.702V11.228C64.8434 13.062 65.6274 14.14 67.2794 14.14ZM67.2794 7.462C68.6654 7.462 68.8754 8.624 68.8754 10.458C68.8754 12.306 68.6654 13.468 67.2794 13.468C65.8934 13.468 65.6834 12.306 65.6834 10.458C65.6834 8.624 65.8934 7.462 67.2794 7.462ZM73.7661 14V3.892H72.9261V14H73.7661ZM80.7617 6.93V11.914C80.7617 12.404 80.3557 13.468 79.2217 13.468C78.0037 13.468 78.0457 11.984 78.0457 11.788V6.93H77.2057V11.928C77.2057 13.076 77.6117 14.14 79.0677 14.14C79.8517 14.14 80.3557 13.818 80.8457 13.216H80.8737V14H81.6017V6.93H80.7617ZM85.5964 9.45C85.5964 8.526 86.0024 7.462 87.0664 7.462C87.8924 7.462 88.1444 8.246 88.1584 8.946V14H88.9984V9.45C88.9984 8.526 89.4044 7.462 90.4684 7.462C91.2944 7.462 91.5464 8.246 91.5604 8.946V14H92.4004V8.736C92.3584 7.602 91.7424 6.79 90.5664 6.79C89.7824 6.79 89.1804 7.196 88.8304 7.896C88.5924 7.196 87.9484 6.79 87.2204 6.79C86.4364 6.79 85.8764 7.224 85.5404 7.798H85.5124V6.916H84.7564V14H85.5964V9.45ZM96.3483 10.36C96.3483 9.296 96.5163 7.462 97.8743 7.462C99.4283 7.462 99.4703 8.834 99.4703 10.486C99.4703 12.138 99.4283 13.468 97.8743 13.468C96.3483 13.468 96.3483 11.48 96.3483 10.36ZM96.3203 14V13.146H96.3483C96.6983 13.804 97.3003 14.14 98.1263 14.14C100.184 14.14 100.31 12.012 100.31 10.458C100.31 9.198 100.492 6.79 98.1963 6.79C97.3983 6.79 96.8383 7.084 96.4043 7.756L96.3763 7.728V3.892H95.5363V13.3C95.5363 13.538 95.4943 13.762 95.4523 14H96.3203ZM104.249 14V6.93H103.409V14H104.249ZM104.347 4.956V3.892H103.311V4.956H104.347ZM108.472 9.562C108.472 7.98 109.242 7.462 109.998 7.462C110.978 7.462 111.3 8.232 111.3 9.058V14H112.14V9.016C112.14 8.092 111.958 6.79 110.208 6.79C109.452 6.79 108.906 7.21 108.5 7.798H108.472V6.93H107.632V14H108.472V9.562ZM119.943 10.64C119.943 8.54 119.943 6.79 117.507 6.79C115.925 6.79 115.071 7.728 115.071 9.772V11.508C115.071 13.65 116.289 14.14 117.507 14.14C118.921 14.14 119.845 13.552 119.943 11.844H119.061C119.075 12.796 118.557 13.468 117.507 13.468C116.177 13.468 115.911 12.166 115.911 11.186V10.64H119.943ZM115.911 9.968C115.911 8.4 116.163 7.462 117.507 7.462C118.851 7.462 119.103 8.4 119.103 9.968H115.911ZM131.339 12.138C131.339 9.772 128.161 10.248 128.161 8.484C128.161 7.854 128.637 7.462 129.239 7.462C130.191 7.462 130.429 7.938 130.471 8.834H131.297C131.297 7.756 130.849 6.79 129.449 6.79C128.217 6.79 127.321 7.252 127.321 8.554C127.321 10.892 130.499 10.416 130.499 12.264C130.499 13.048 130.107 13.51 129.295 13.51C128.217 13.51 127.993 12.866 127.993 11.9H127.139C127.125 13.398 127.727 14.14 129.253 14.14C130.569 14.14 131.339 13.468 131.339 12.138ZM134.723 7.602V12.656C134.723 13.524 135.059 14.028 136.193 14.028C136.459 14.028 136.739 14.014 136.991 13.986V13.258C136.809 13.286 136.613 13.3 136.333 13.3C135.661 13.3 135.563 13.076 135.563 12.138V7.602H136.991V6.93H135.563V5.11L134.723 5.474V6.93H133.589V7.602H134.723ZM143.127 6.93V11.914C143.127 12.404 142.721 13.468 141.587 13.468C140.369 13.468 140.411 11.984 140.411 11.788V6.93H139.571V11.928C139.571 13.076 139.977 14.14 141.433 14.14C142.217 14.14 142.721 13.818 143.211 13.216H143.239V14H143.967V6.93H143.127ZM149.25 13.468C148.34 13.468 147.71 13.118 147.71 10.486C147.71 8.834 147.71 7.462 149.222 7.462C150.804 7.462 150.804 9.422 150.804 9.842V11.102C150.804 12.824 150.048 13.468 149.25 13.468ZM150.888 14H151.7C151.658 13.762 151.616 13.3 151.616 12.6V3.892H150.776V7.644L150.748 7.63C150.314 7.084 149.684 6.79 149.04 6.79C146.87 6.79 146.87 9.1 146.87 10.458C146.87 12.11 146.982 14.14 149.026 14.14C149.852 14.14 150.384 13.79 150.818 13.118L150.846 13.104L150.888 14ZM159.447 10.64C159.447 8.54 159.447 6.79 157.011 6.79C155.429 6.79 154.575 7.728 154.575 9.772V11.508C154.575 13.65 155.793 14.14 157.011 14.14C158.425 14.14 159.349 13.552 159.447 11.844H158.565C158.579 12.796 158.061 13.468 157.011 13.468C155.681 13.468 155.415 12.166 155.415 11.186V10.64H159.447ZM155.415 9.968C155.415 8.4 155.667 7.462 157.011 7.462C158.355 7.462 158.607 8.4 158.607 9.968H155.415ZM163.217 9.562C163.217 7.98 163.987 7.462 164.743 7.462C165.723 7.462 166.045 8.232 166.045 9.058V14H166.885V9.016C166.885 8.092 166.703 6.79 164.953 6.79C164.197 6.79 163.651 7.21 163.245 7.798H163.217V6.93H162.377V14H163.217V9.562ZM170.502 7.602V12.656C170.502 13.524 170.838 14.028 171.972 14.028C172.238 14.028 172.518 14.014 172.77 13.986V13.258C172.588 13.286 172.392 13.3 172.112 13.3C171.44 13.3 171.342 13.076 171.342 12.138V7.602H172.77V6.93H171.342V5.11L170.502 5.474V6.93H169.368V7.602H170.502ZM180.694 6.93H179.854V14H180.694V9.45C180.694 8.26 181.478 7.546 182.668 7.644V6.79C181.814 6.79 181.072 7.21 180.722 7.882H180.694V6.93ZM189.785 10.64C189.785 8.54 189.785 6.79 187.349 6.79C185.767 6.79 184.913 7.728 184.913 9.772V11.508C184.913 13.65 186.131 14.14 187.349 14.14C188.763 14.14 189.687 13.552 189.785 11.844H188.903C188.917 12.796 188.399 13.468 187.349 13.468C186.019 13.468 185.753 12.166 185.753 11.186V10.64H189.785ZM185.753 9.968C185.753 8.4 186.005 7.462 187.349 7.462C188.693 7.462 188.945 8.4 188.945 9.968H185.753ZM193.261 14H194.101V7.602H195.529V6.93H194.101V5.726C194.101 5.32 194.101 4.592 194.913 4.592H195.543V3.892C195.333 3.864 195.193 3.836 195.067 3.836C193.359 3.836 193.261 5.068 193.261 5.74V6.93H192.127V7.602H193.261V14ZM197.013 14V3.892H196.173V14H197.013ZM205.026 10.64C205.026 8.54 205.026 6.79 202.59 6.79C201.008 6.79 200.154 7.728 200.154 9.772V11.508C200.154 13.65 201.372 14.14 202.59 14.14C204.004 14.14 204.928 13.552 205.026 11.844H204.144C204.158 12.796 203.64 13.468 202.59 13.468C201.26 13.468 200.994 12.166 200.994 11.186V10.64H205.026ZM200.994 9.968C200.994 8.4 201.246 7.462 202.59 7.462C203.934 7.462 204.186 8.4 204.186 9.968H200.994ZM211.947 8.96C212.017 7.476 211.191 6.79 209.973 6.79C209.007 6.79 208.209 7.154 207.845 8.162C207.663 8.694 207.635 9.8 207.635 10.5C207.635 12.25 207.635 14.14 210.029 14.14C210.687 14.14 212.031 13.818 211.961 11.914H211.121C211.079 12.768 210.939 13.468 209.833 13.468C208.531 13.468 208.531 11.774 208.531 10.5C208.531 9.562 208.615 8.596 208.727 8.274C208.909 7.756 209.343 7.462 209.861 7.462C210.827 7.462 211.149 8.078 211.107 8.96H211.947ZM215.302 7.602V12.656C215.302 13.524 215.638 14.028 216.772 14.028C217.038 14.028 217.318 14.014 217.57 13.986V13.258C217.388 13.286 217.192 13.3 216.912 13.3C216.24 13.3 216.142 13.076 216.142 12.138V7.602H217.57V6.93H216.142V5.11L215.302 5.474V6.93H214.168V7.602H215.302ZM224.057 12.138C224.057 9.772 220.879 10.248 220.879 8.484C220.879 7.854 221.355 7.462 221.957 7.462C222.909 7.462 223.147 7.938 223.189 8.834H224.015C224.015 7.756 223.567 6.79 222.167 6.79C220.935 6.79 220.039 7.252 220.039 8.554C220.039 10.892 223.217 10.416 223.217 12.264C223.217 13.048 222.825 13.51 222.013 13.51C220.935 13.51 220.711 12.866 220.711 11.9H219.857C219.843 13.398 220.445 14.14 221.971 14.14C223.287 14.14 224.057 13.468 224.057 12.138ZM233.693 14.14C235.345 14.14 236.129 13.062 236.129 11.228V9.702C236.129 7.868 235.345 6.79 233.693 6.79C232.041 6.79 231.257 7.868 231.257 9.702V11.228C231.257 13.062 232.041 14.14 233.693 14.14ZM233.693 7.462C235.079 7.462 235.289 8.624 235.289 10.458C235.289 12.306 235.079 13.468 233.693 13.468C232.307 13.468 232.097 12.306 232.097 10.458C232.097 8.624 232.307 7.462 233.693 7.462ZM239.9 9.562C239.9 7.98 240.67 7.462 241.426 7.462C242.406 7.462 242.728 8.232 242.728 9.058V14H243.568V9.016C243.568 8.092 243.386 6.79 241.636 6.79C240.88 6.79 240.334 7.21 239.928 7.798H239.9V6.93H239.06V14H239.9V9.562ZM251.212 14H252.052V10.15H252.08L254.6 14H255.664L252.99 10.08L255.496 6.93H254.516L252.08 10.052H252.052V3.892H251.212V14ZM259.146 14V6.93H258.306V14H259.146ZM259.244 4.956V3.892H258.208V4.956H259.244ZM263.649 14V3.892H262.809V14H263.649ZM268.153 14V3.892H267.313V14H268.153ZM276.226 10.64C276.226 8.54 276.226 6.79 273.79 6.79C272.208 6.79 271.354 7.728 271.354 9.772V11.508C271.354 13.65 272.572 14.14 273.79 14.14C275.204 14.14 276.128 13.552 276.226 11.844H275.344C275.358 12.796 274.84 13.468 273.79 13.468C272.46 13.468 272.194 12.166 272.194 11.186V10.64H276.226ZM272.194 9.968C272.194 8.4 272.446 7.462 273.79 7.462C275.134 7.462 275.386 8.4 275.386 9.968H272.194ZM280.053 6.93H279.213V14H280.053V9.45C280.053 8.26 280.837 7.546 282.027 7.644V6.79C281.173 6.79 280.431 7.21 280.081 7.882H280.053V6.93ZM288.416 12.138C288.416 9.772 285.238 10.248 285.238 8.484C285.238 7.854 285.714 7.462 286.316 7.462C287.268 7.462 287.506 7.938 287.548 8.834H288.374C288.374 7.756 287.926 6.79 286.526 6.79C285.294 6.79 284.398 7.252 284.398 8.554C284.398 10.892 287.576 10.416 287.576 12.264C287.576 13.048 287.184 13.51 286.372 13.51C285.294 13.51 285.07 12.866 285.07 11.9H284.216C284.202 13.398 284.804 14.14 286.33 14.14C287.646 14.14 288.416 13.468 288.416 12.138ZM296.694 6.93H295.854V14H296.694V9.45C296.694 8.26 297.478 7.546 298.668 7.644V6.79C297.814 6.79 297.072 7.21 296.722 7.882H296.694V6.93ZM305.785 10.64C305.785 8.54 305.785 6.79 303.349 6.79C301.767 6.79 300.913 7.728 300.913 9.772V11.508C300.913 13.65 302.131 14.14 303.349 14.14C304.763 14.14 305.687 13.552 305.785 11.844H304.903C304.917 12.796 304.399 13.468 303.349 13.468C302.019 13.468 301.753 12.166 301.753 11.186V10.64H305.785ZM301.753 9.968C301.753 8.4 302.005 7.462 303.349 7.462C304.693 7.462 304.945 8.4 304.945 9.968H301.753ZM310.83 13.468C309.92 13.468 309.29 13.118 309.29 10.486C309.29 8.834 309.29 7.462 310.802 7.462C312.384 7.462 312.384 9.422 312.384 9.842V11.102C312.384 12.824 311.628 13.468 310.83 13.468ZM312.468 14H313.28C313.238 13.762 313.196 13.3 313.196 12.6V3.892H312.356V7.644L312.328 7.63C311.894 7.084 311.264 6.79 310.62 6.79C308.45 6.79 308.45 9.1 308.45 10.458C308.45 12.11 308.562 14.14 310.606 14.14C311.432 14.14 311.964 13.79 312.398 13.118L312.426 13.104L312.468 14ZM321.386 14H322.226V7.602H323.654V6.93H322.226V5.726C322.226 5.32 322.226 4.592 323.038 4.592H323.668V3.892C323.458 3.864 323.318 3.836 323.192 3.836C321.484 3.836 321.386 5.068 321.386 5.74V6.93H320.252V7.602H321.386V14ZM325.138 14V3.892H324.298V14H325.138ZM332.059 11.676C332.059 12.6 331.275 13.468 330.309 13.468C329.441 13.468 329.035 12.81 329.035 12.012C329.035 10.29 330.855 10.43 332.059 10.388V11.676ZM332.115 14H332.983C332.899 13.174 332.899 12.726 332.899 12.222V8.666C332.899 6.86 331.415 6.79 330.701 6.79C329.469 6.79 328.419 7.322 328.349 8.68H329.245C329.245 7.84 329.861 7.462 330.631 7.462C331.751 7.462 332.059 8.092 332.059 9.128V9.716C330.631 9.828 328.139 9.576 328.139 12.054C328.139 13.286 328.825 14.14 330.085 14.14C330.953 14.14 331.639 13.804 332.087 13.132H332.115V14ZM338.139 7.462C338.923 7.462 339.721 8.022 339.721 9.506C339.721 11.578 339.665 11.9 339.455 12.446C339.329 12.782 338.881 13.244 338.181 13.244C336.655 13.244 336.655 11.774 336.655 10.304C336.655 9.254 336.683 7.462 338.139 7.462ZM339.777 7.812L339.749 7.784C339.441 7.154 338.727 6.79 338.013 6.79C336.585 6.79 336.095 7.896 336.025 8.19C335.829 8.946 335.815 8.96 335.815 10.598C335.815 12.166 335.955 13.916 337.985 13.916C338.657 13.916 339.329 13.664 339.693 13.062H339.721C339.721 15.176 339.819 16.058 338.181 16.058C337.397 16.058 336.795 15.582 336.851 14.77H336.011C335.955 15.484 336.305 16.73 338.069 16.73C340.085 16.73 340.561 15.806 340.561 14.252V8.302C340.561 7.938 340.575 7.588 340.603 6.916H339.777V7.812ZM347.664 12.138C347.664 9.772 344.486 10.248 344.486 8.484C344.486 7.854 344.962 7.462 345.564 7.462C346.516 7.462 346.754 7.938 346.796 8.834H347.622C347.622 7.756 347.174 6.79 345.774 6.79C344.542 6.79 343.646 7.252 343.646 8.554C343.646 10.892 346.824 10.416 346.824 12.264C346.824 13.048 346.432 13.51 345.62 13.51C344.542 13.51 344.318 12.866 344.318 11.9H343.464C343.45 13.398 344.052 14.14 345.578 14.14C346.894 14.14 347.664 13.468 347.664 12.138ZM350.725 14H351.761V12.936H350.725V14Z" fill="white"/>
</svg>
