<svg width="431" height="24" viewBox="0 0 431 24" fill="none" xmlns="http://www.w3.org/2000/svg">
<rect width="393" height="24" fill="black" fill-opacity="0.69"/>
<path d="M9.80022 4.648H10.9762C13.4682 4.648 13.8602 5.488 13.8602 8.386C13.8602 12.516 13.5942 13.244 10.8922 13.244H9.80022V4.648ZM8.90422 14H11.2142C14.2662 14 14.7562 12.348 14.7562 8.988C14.7562 5.544 14.4062 3.892 11.5782 3.892H8.90422V14ZM18.5875 16.674H19.4135L22.3395 6.93H21.4995L19.8335 12.726H19.8055L18.0835 6.93H17.1735L19.4135 14.014L18.5875 16.674ZM25.8489 14V3.892H25.0089V14H25.8489ZM32.8304 11.676C32.8304 12.6 32.0464 13.468 31.0804 13.468C30.2124 13.468 29.8064 12.81 29.8064 12.012C29.8064 10.29 31.6264 10.43 32.8304 10.388V11.676ZM32.8864 14H33.7544C33.6704 13.174 33.6704 12.726 33.6704 12.222V8.666C33.6704 6.86 32.1864 6.79 31.4724 6.79C30.2404 6.79 29.1904 7.322 29.1204 8.68H30.0164C30.0164 7.84 30.6324 7.462 31.4024 7.462C32.5224 7.462 32.8304 8.092 32.8304 9.128V9.716C31.4024 9.828 28.9104 9.576 28.9104 12.054C28.9104 13.286 29.5964 14.14 30.8564 14.14C31.7244 14.14 32.4104 13.804 32.8584 13.132H32.8864V14ZM37.6931 9.562C37.6931 7.98 38.4631 7.462 39.2191 7.462C40.1991 7.462 40.5211 8.232 40.5211 9.058V14H41.3611V9.016C41.3611 8.092 41.1791 6.79 39.4291 6.79C38.6731 6.79 38.1271 7.21 37.7211 7.798H37.6931V6.93H36.8531V14H37.6931V9.562ZM50.1114 14V8.82H50.1394L53.7934 14H54.9134L51.0214 8.61L54.8014 3.892H53.7234L50.1394 8.526H50.1114V3.892H49.2154V14H50.1114ZM58.4974 14V3.892H57.6574V14H58.4974ZM66.5709 10.64C66.5709 8.54 66.5709 6.79 64.1349 6.79C62.5529 6.79 61.6989 7.728 61.6989 9.772V11.508C61.6989 13.65 62.9169 14.14 64.1349 14.14C65.5489 14.14 66.4729 13.552 66.5709 11.844H65.6889C65.7029 12.796 65.1849 13.468 64.1349 13.468C62.8049 13.468 62.5389 12.166 62.5389 11.186V10.64H66.5709ZM62.5389 9.968C62.5389 8.4 62.7909 7.462 64.1349 7.462C65.4789 7.462 65.7309 8.4 65.7309 9.968H62.5389ZM70.3416 10.36C70.3416 9.296 70.5096 7.462 71.8676 7.462C73.4216 7.462 73.4636 8.834 73.4636 10.486C73.4636 12.138 73.4216 13.468 71.8676 13.468C70.3416 13.468 70.3416 11.48 70.3416 10.36ZM70.3136 14V13.146H70.3416C70.6916 13.804 71.2936 14.14 72.1196 14.14C74.1776 14.14 74.3036 12.012 74.3036 10.458C74.3036 9.198 74.4856 6.79 72.1896 6.79C71.3916 6.79 70.8316 7.084 70.3976 7.756L70.3696 7.728V3.892H69.5296V13.3C69.5296 13.538 69.4876 13.762 69.4456 14H70.3136ZM79.3763 14.14C81.0283 14.14 81.8123 13.062 81.8123 11.228V9.702C81.8123 7.868 81.0283 6.79 79.3763 6.79C77.7243 6.79 76.9403 7.868 76.9403 9.702V11.228C76.9403 13.062 77.7243 14.14 79.3763 14.14ZM79.3763 7.462C80.7623 7.462 80.9723 8.624 80.9723 10.458C80.9723 12.306 80.7623 13.468 79.3763 13.468C77.9903 13.468 77.7803 12.306 77.7803 10.458C77.7803 8.624 77.9903 7.462 79.3763 7.462ZM85.863 14V3.892H85.023V14H85.863ZM91.3605 13.468C90.4505 13.468 89.8205 13.118 89.8205 10.486C89.8205 8.834 89.8205 7.462 91.3325 7.462C92.9145 7.462 92.9145 9.422 92.9145 9.842V11.102C92.9145 12.824 92.1585 13.468 91.3605 13.468ZM92.9985 14H93.8105C93.7685 13.762 93.7265 13.3 93.7265 12.6V3.892H92.8865V7.644L92.8585 7.63C92.4245 7.084 91.7945 6.79 91.1505 6.79C88.9805 6.79 88.9805 9.1 88.9805 10.458C88.9805 12.11 89.0925 14.14 91.1365 14.14C91.9625 14.14 92.4945 13.79 92.9285 13.118L92.9565 13.104L92.9985 14ZM101.875 7.602V12.656C101.875 13.524 102.211 14.028 103.345 14.028C103.611 14.028 103.891 14.014 104.143 13.986V13.258C103.961 13.286 103.765 13.3 103.485 13.3C102.813 13.3 102.715 13.076 102.715 12.138V7.602H104.143V6.93H102.715V5.11L101.875 5.474V6.93H100.741V7.602H101.875ZM110.265 11.676C110.265 12.6 109.481 13.468 108.515 13.468C107.647 13.468 107.241 12.81 107.241 12.012C107.241 10.29 109.061 10.43 110.265 10.388V11.676ZM110.321 14H111.189C111.105 13.174 111.105 12.726 111.105 12.222V8.666C111.105 6.86 109.621 6.79 108.907 6.79C107.675 6.79 106.625 7.322 106.555 8.68H107.451C107.451 7.84 108.067 7.462 108.837 7.462C109.957 7.462 110.265 8.092 110.265 9.128V9.716C108.837 9.828 106.345 9.576 106.345 12.054C106.345 13.286 107.031 14.14 108.291 14.14C109.159 14.14 109.845 13.804 110.293 13.132H110.321V14ZM115.408 14V3.892H114.568V14H115.408ZM118.819 14H119.659V10.15H119.687L122.207 14H123.271L120.597 10.08L123.103 6.93H122.123L119.687 10.052H119.659V3.892H118.819V14ZM129.595 12.138C129.595 9.772 126.417 10.248 126.417 8.484C126.417 7.854 126.893 7.462 127.495 7.462C128.447 7.462 128.685 7.938 128.727 8.834H129.553C129.553 7.756 129.105 6.79 127.705 6.79C126.473 6.79 125.577 7.252 125.577 8.554C125.577 10.892 128.755 10.416 128.755 12.264C128.755 13.048 128.363 13.51 127.551 13.51C126.473 13.51 126.249 12.866 126.249 11.9H125.395C125.381 13.398 125.983 14.14 127.509 14.14C128.825 14.14 129.595 13.468 129.595 12.138ZM140.576 11.676C140.576 12.6 139.792 13.468 138.826 13.468C137.958 13.468 137.552 12.81 137.552 12.012C137.552 10.29 139.372 10.43 140.576 10.388V11.676ZM140.632 14H141.5C141.416 13.174 141.416 12.726 141.416 12.222V8.666C141.416 6.86 139.932 6.79 139.218 6.79C137.986 6.79 136.936 7.322 136.866 8.68H137.762C137.762 7.84 138.378 7.462 139.148 7.462C140.268 7.462 140.576 8.092 140.576 9.128V9.716C139.148 9.828 136.656 9.576 136.656 12.054C136.656 13.286 137.342 14.14 138.602 14.14C139.47 14.14 140.156 13.804 140.604 13.132H140.632V14ZM145.438 10.36C145.438 9.296 145.606 7.462 146.964 7.462C148.518 7.462 148.56 8.834 148.56 10.486C148.56 12.138 148.518 13.468 146.964 13.468C145.438 13.468 145.438 11.48 145.438 10.36ZM145.41 14V13.146H145.438C145.788 13.804 146.39 14.14 147.216 14.14C149.274 14.14 149.4 12.012 149.4 10.458C149.4 9.198 149.582 6.79 147.286 6.79C146.488 6.79 145.928 7.084 145.494 7.756L145.466 7.728V3.892H144.626V13.3C144.626 13.538 144.584 13.762 144.542 14H145.41ZM154.473 14.14C156.125 14.14 156.909 13.062 156.909 11.228V9.702C156.909 7.868 156.125 6.79 154.473 6.79C152.821 6.79 152.037 7.868 152.037 9.702V11.228C152.037 13.062 152.821 14.14 154.473 14.14ZM154.473 7.462C155.859 7.462 156.069 8.624 156.069 10.458C156.069 12.306 155.859 13.468 154.473 13.468C153.087 13.468 152.877 12.306 152.877 10.458C152.877 8.624 153.087 7.462 154.473 7.462ZM163.452 6.93V11.914C163.452 12.404 163.046 13.468 161.912 13.468C160.694 13.468 160.736 11.984 160.736 11.788V6.93H159.896V11.928C159.896 13.076 160.302 14.14 161.758 14.14C162.542 14.14 163.046 13.818 163.536 13.216H163.564V14H164.292V6.93H163.452ZM167.965 7.602V12.656C167.965 13.524 168.301 14.028 169.435 14.028C169.701 14.028 169.981 14.014 170.233 13.986V13.258C170.051 13.286 169.855 13.3 169.575 13.3C168.903 13.3 168.805 13.076 168.805 12.138V7.602H170.233V6.93H168.805V5.11L167.965 5.474V6.93H166.831V7.602H167.965ZM178.101 14V9.562C178.101 7.98 178.871 7.462 179.627 7.462C180.607 7.462 180.929 8.232 180.929 9.058V14H181.769V9.016C181.769 8.092 181.587 6.79 179.837 6.79C179.081 6.79 178.535 7.21 178.129 7.798H178.101V3.892H177.261V14H178.101ZM186.001 14V6.93H185.161V14H186.001ZM186.099 4.956V3.892H185.063V4.956H186.099ZM193.347 12.138C193.347 9.772 190.169 10.248 190.169 8.484C190.169 7.854 190.645 7.462 191.247 7.462C192.199 7.462 192.437 7.938 192.479 8.834H193.305C193.305 7.756 192.857 6.79 191.457 6.79C190.225 6.79 189.329 7.252 189.329 8.554C189.329 10.892 192.507 10.416 192.507 12.264C192.507 13.048 192.115 13.51 191.303 13.51C190.225 13.51 190.001 12.866 190.001 11.9H189.147C189.133 13.398 189.735 14.14 191.261 14.14C192.577 14.14 193.347 13.468 193.347 12.138ZM201.598 9.828C201.598 8.078 202.55 7.462 203.096 7.462C204.482 7.462 204.692 8.624 204.692 10.458C204.692 12.306 204.482 13.468 203.096 13.468C202.326 13.468 201.598 12.698 201.598 11.088V9.828ZM201.57 6.93H200.758V16.674H201.598V13.202L201.626 13.216C202.06 13.888 202.578 14.14 203.096 14.14C204.902 14.14 205.532 13.062 205.532 11.228V9.646C205.532 8.722 205.518 6.79 203.306 6.79C202.746 6.79 202.046 7.084 201.598 7.77L201.57 7.784V6.93ZM209.47 14V3.892H208.63V14H209.47ZM216.452 11.676C216.452 12.6 215.668 13.468 214.702 13.468C213.834 13.468 213.428 12.81 213.428 12.012C213.428 10.29 215.248 10.43 216.452 10.388V11.676ZM216.508 14H217.376C217.292 13.174 217.292 12.726 217.292 12.222V8.666C217.292 6.86 215.808 6.79 215.094 6.79C213.862 6.79 212.812 7.322 212.742 8.68H213.638C213.638 7.84 214.254 7.462 215.024 7.462C216.144 7.462 216.452 8.092 216.452 9.128V9.716C215.024 9.828 212.532 9.576 212.532 12.054C212.532 13.286 213.218 14.14 214.478 14.14C215.346 14.14 216.032 13.804 216.48 13.132H216.508V14ZM221.315 9.562C221.315 7.98 222.085 7.462 222.841 7.462C223.821 7.462 224.143 8.232 224.143 9.058V14H224.983V9.016C224.983 8.092 224.801 6.79 223.051 6.79C222.295 6.79 221.749 7.21 221.343 7.798H221.315V6.93H220.475V14H221.315V9.562ZM232.057 12.138C232.057 9.772 228.879 10.248 228.879 8.484C228.879 7.854 229.355 7.462 229.957 7.462C230.909 7.462 231.147 7.938 231.189 8.834H232.015C232.015 7.756 231.567 6.79 230.167 6.79C228.935 6.79 228.039 7.252 228.039 8.554C228.039 10.892 231.217 10.416 231.217 12.264C231.217 13.048 230.825 13.51 230.013 13.51C228.935 13.51 228.711 12.866 228.711 11.9H227.857C227.843 13.398 228.445 14.14 229.971 14.14C231.287 14.14 232.057 13.468 232.057 12.138ZM239.986 14H240.826V7.602H242.254V6.93H240.826V5.726C240.826 5.32 240.826 4.592 241.638 4.592H242.268V3.892C242.058 3.864 241.918 3.836 241.792 3.836C240.084 3.836 239.986 5.068 239.986 5.74V6.93H238.852V7.602H239.986V14ZM246.991 14.14C248.643 14.14 249.427 13.062 249.427 11.228V9.702C249.427 7.868 248.643 6.79 246.991 6.79C245.339 6.79 244.555 7.868 244.555 9.702V11.228C244.555 13.062 245.339 14.14 246.991 14.14ZM246.991 7.462C248.377 7.462 248.587 8.624 248.587 10.458C248.587 12.306 248.377 13.468 246.991 13.468C245.605 13.468 245.395 12.306 245.395 10.458C245.395 8.624 245.605 7.462 246.991 7.462ZM253.253 6.93H252.413V14H253.253V9.45C253.253 8.26 254.037 7.546 255.227 7.644V6.79C254.373 6.79 253.631 7.21 253.281 7.882H253.253V6.93ZM262.661 7.602V12.656C262.661 13.524 262.997 14.028 264.131 14.028C264.397 14.028 264.677 14.014 264.929 13.986V13.258C264.747 13.286 264.551 13.3 264.271 13.3C263.599 13.3 263.501 13.076 263.501 12.138V7.602H264.929V6.93H263.501V5.11L262.661 5.474V6.93H261.527V7.602H262.661ZM268.294 14V9.562C268.294 7.98 269.064 7.462 269.82 7.462C270.8 7.462 271.122 8.232 271.122 9.058V14H271.962V9.016C271.962 8.092 271.78 6.79 270.03 6.79C269.274 6.79 268.728 7.21 268.322 7.798H268.294V3.892H267.454V14H268.294ZM279.765 10.64C279.765 8.54 279.765 6.79 277.329 6.79C275.747 6.79 274.893 7.728 274.893 9.772V11.508C274.893 13.65 276.111 14.14 277.329 14.14C278.743 14.14 279.667 13.552 279.765 11.844H278.883C278.897 12.796 278.379 13.468 277.329 13.468C275.999 13.468 275.733 12.166 275.733 11.186V10.64H279.765ZM275.733 9.968C275.733 8.4 275.985 7.462 277.329 7.462C278.673 7.462 278.925 8.4 278.925 9.968H275.733ZM287.745 14H288.585V7.602H290.013V6.93H288.585V5.726C288.585 5.32 288.585 4.592 289.397 4.592H290.027V3.892C289.817 3.864 289.677 3.836 289.551 3.836C287.843 3.836 287.745 5.068 287.745 5.74V6.93H286.611V7.602H287.745V14ZM296.107 6.93V11.914C296.107 12.404 295.701 13.468 294.567 13.468C293.349 13.468 293.391 11.984 293.391 11.788V6.93H292.551V11.928C292.551 13.076 292.957 14.14 294.413 14.14C295.197 14.14 295.701 13.818 296.191 13.216H296.219V14H296.947V6.93H296.107ZM300.62 7.602V12.656C300.62 13.524 300.956 14.028 302.09 14.028C302.356 14.028 302.636 14.014 302.888 13.986V13.258C302.706 13.286 302.51 13.3 302.23 13.3C301.558 13.3 301.46 13.076 301.46 12.138V7.602H302.888V6.93H301.46V5.11L300.62 5.474V6.93H299.486V7.602H300.62ZM309.025 6.93V11.914C309.025 12.404 308.619 13.468 307.485 13.468C306.267 13.468 306.309 11.984 306.309 11.788V6.93H305.469V11.928C305.469 13.076 305.875 14.14 307.331 14.14C308.115 14.14 308.619 13.818 309.109 13.216H309.137V14H309.865V6.93H309.025ZM313.929 6.93H313.089V14H313.929V9.45C313.929 8.26 314.713 7.546 315.903 7.644V6.79C315.049 6.79 314.307 7.21 313.957 7.882H313.929V6.93ZM323.02 10.64C323.02 8.54 323.02 6.79 320.584 6.79C319.002 6.79 318.148 7.728 318.148 9.772V11.508C318.148 13.65 319.366 14.14 320.584 14.14C321.998 14.14 322.922 13.552 323.02 11.844H322.138C322.152 12.796 321.634 13.468 320.584 13.468C319.254 13.468 318.988 12.166 318.988 11.186V10.64H323.02ZM318.988 9.968C318.988 8.4 319.24 7.462 320.584 7.462C321.928 7.462 322.18 8.4 322.18 9.968H318.988ZM326.132 14H327.168V12.936H326.132V14Z" fill="white"/>
</svg>
