<svg width="512" height="49" viewBox="0 0 512 49" fill="none" xmlns="http://www.w3.org/2000/svg">
<rect width="512" height="49" fill="black" fill-opacity="0.69"/>
<path d="M11.66 16H12.556V6.648H15.02V5.892H9.196V6.648H11.66V16ZM17.6676 16H18.7176L20.2016 9.952H20.2296L21.7836 16H22.8336L24.7796 8.93H23.9396L22.3576 15.118H22.3296L20.7616 8.93H19.7256L18.2276 15.118H18.1996L16.6176 8.93H15.7216L17.6676 16ZM29.4275 16.14C31.0795 16.14 31.8635 15.062 31.8635 13.228V11.702C31.8635 9.868 31.0795 8.79 29.4275 8.79C27.7755 8.79 26.9915 9.868 26.9915 11.702V13.228C26.9915 15.062 27.7755 16.14 29.4275 16.14ZM29.4275 9.462C30.8135 9.462 31.0235 10.624 31.0235 12.458C31.0235 14.306 30.8135 15.468 29.4275 15.468C28.0415 15.468 27.8315 14.306 27.8315 12.458C27.8315 10.624 28.0415 9.462 29.4275 9.462ZM40.1378 12.36C40.1378 11.296 40.3058 9.462 41.6638 9.462C43.2178 9.462 43.2598 10.834 43.2598 12.486C43.2598 14.138 43.2178 15.468 41.6638 15.468C40.1378 15.468 40.1378 13.48 40.1378 12.36ZM40.1098 16V15.146H40.1378C40.4878 15.804 41.0898 16.14 41.9158 16.14C43.9738 16.14 44.0998 14.012 44.0998 12.458C44.0998 11.198 44.2818 8.79 41.9858 8.79C41.1878 8.79 40.6278 9.084 40.1938 9.756L40.1658 9.728V5.892H39.3258V15.3C39.3258 15.538 39.2838 15.762 39.2418 16H40.1098ZM49.1725 16.14C50.8245 16.14 51.6085 15.062 51.6085 13.228V11.702C51.6085 9.868 50.8245 8.79 49.1725 8.79C47.5205 8.79 46.7365 9.868 46.7365 11.702V13.228C46.7365 15.062 47.5205 16.14 49.1725 16.14ZM49.1725 9.462C50.5585 9.462 50.7685 10.624 50.7685 12.458C50.7685 14.306 50.5585 15.468 49.1725 15.468C47.7865 15.468 47.5765 14.306 47.5765 12.458C47.5765 10.624 47.7865 9.462 49.1725 9.462ZM55.2392 18.674H56.0652L58.9912 8.93H58.1512L56.4852 14.726H56.4572L54.7352 8.93H53.8252L56.0652 16.014L55.2392 18.674ZM65.3426 14.138C65.3426 11.772 62.1646 12.248 62.1646 10.484C62.1646 9.854 62.6406 9.462 63.2426 9.462C64.1946 9.462 64.4326 9.938 64.4746 10.834H65.3006C65.3006 9.756 64.8526 8.79 63.4526 8.79C62.2206 8.79 61.3246 9.252 61.3246 10.554C61.3246 12.892 64.5026 12.416 64.5026 14.264C64.5026 15.048 64.1106 15.51 63.2986 15.51C62.2206 15.51 61.9966 14.866 61.9966 13.9H61.1426C61.1286 15.398 61.7306 16.14 63.2566 16.14C64.5726 16.14 65.3426 15.468 65.3426 14.138ZM73.9575 16H75.0075L76.4915 9.952H76.5195L78.0735 16H79.1235L81.0695 8.93H80.2295L78.6475 15.118H78.6195L77.0515 8.93H76.0155L74.5175 15.118H74.4895L72.9075 8.93H72.0115L73.9575 16ZM84.3034 16V11.562C84.3034 9.98 85.0734 9.462 85.8294 9.462C86.8094 9.462 87.1314 10.232 87.1314 11.058V16H87.9714V11.016C87.9714 10.092 87.7894 8.79 86.0394 8.79C85.2834 8.79 84.7374 9.21 84.3314 9.798H84.3034V5.892H83.4634V16H84.3034ZM93.3381 16.14C94.9901 16.14 95.7741 15.062 95.7741 13.228V11.702C95.7741 9.868 94.9901 8.79 93.3381 8.79C91.6861 8.79 90.9021 9.868 90.9021 11.702V13.228C90.9021 15.062 91.6861 16.14 93.3381 16.14ZM93.3381 9.462C94.7241 9.462 94.9341 10.624 94.9341 12.458C94.9341 14.306 94.7241 15.468 93.3381 15.468C91.9521 15.468 91.7421 14.306 91.7421 12.458C91.7421 10.624 91.9521 9.462 93.3381 9.462ZM103.236 16H104.076V12.15H104.104L106.624 16H107.688L105.014 12.08L107.52 8.93H106.54L104.104 12.052H104.076V5.892H103.236V16ZM110.89 11.562C110.89 9.98 111.66 9.462 112.416 9.462C113.396 9.462 113.718 10.232 113.718 11.058V16H114.558V11.016C114.558 10.092 114.376 8.79 112.626 8.79C111.87 8.79 111.324 9.21 110.918 9.798H110.89V8.93H110.05V16H110.89V11.562ZM122.36 12.64C122.36 10.54 122.36 8.79 119.924 8.79C118.342 8.79 117.488 9.728 117.488 11.772V13.508C117.488 15.65 118.706 16.14 119.924 16.14C121.338 16.14 122.262 15.552 122.36 13.844H121.478C121.492 14.796 120.974 15.468 119.924 15.468C118.594 15.468 118.328 14.166 118.328 13.186V12.64H122.36ZM118.328 11.968C118.328 10.4 118.58 9.462 119.924 9.462C121.268 9.462 121.52 10.4 121.52 11.968H118.328ZM126.523 16H127.573L129.057 9.952H129.085L130.639 16H131.689L133.635 8.93H132.795L131.213 15.118H131.185L129.617 8.93H128.581L127.083 15.118H127.055L125.473 8.93H124.577L126.523 16ZM140.729 5.892V16H145.405V15.244H141.625V11.184H145.139V10.428H141.625V6.648H145.307V5.892H140.729ZM149.049 8.93H148.209V16H149.049V11.45C149.049 10.26 149.833 9.546 151.023 9.644V8.79C150.169 8.79 149.427 9.21 149.077 9.882H149.049V8.93ZM154.57 16V8.93H153.73V16H154.57ZM154.668 6.956V5.892H153.632V6.956H154.668ZM161.943 10.96C162.013 9.476 161.187 8.79 159.969 8.79C159.003 8.79 158.205 9.154 157.841 10.162C157.659 10.694 157.631 11.8 157.631 12.5C157.631 14.25 157.631 16.14 160.025 16.14C160.683 16.14 162.027 15.818 161.957 13.914H161.117C161.075 14.768 160.935 15.468 159.829 15.468C158.527 15.468 158.527 13.774 158.527 12.5C158.527 11.562 158.611 10.596 158.723 10.274C158.905 9.756 159.339 9.462 159.857 9.462C160.823 9.462 161.145 10.078 161.103 10.96H161.943ZM172.896 13.676C172.896 14.6 172.112 15.468 171.146 15.468C170.278 15.468 169.872 14.81 169.872 14.012C169.872 12.29 171.692 12.43 172.896 12.388V13.676ZM172.952 16H173.82C173.736 15.174 173.736 14.726 173.736 14.222V10.666C173.736 8.86 172.252 8.79 171.538 8.79C170.306 8.79 169.256 9.322 169.186 10.68H170.082C170.082 9.84 170.698 9.462 171.468 9.462C172.588 9.462 172.896 10.092 172.896 11.128V11.716C171.468 11.828 168.976 11.576 168.976 14.054C168.976 15.286 169.662 16.14 170.922 16.14C171.79 16.14 172.476 15.804 172.924 15.132H172.952V16ZM177.759 11.562C177.759 9.98 178.529 9.462 179.285 9.462C180.265 9.462 180.587 10.232 180.587 11.058V16H181.427V11.016C181.427 10.092 181.245 8.79 179.495 8.79C178.739 8.79 178.193 9.21 177.787 9.798H177.759V8.93H176.919V16H177.759V11.562ZM186.654 15.468C185.744 15.468 185.114 15.118 185.114 12.486C185.114 10.834 185.114 9.462 186.626 9.462C188.208 9.462 188.208 11.422 188.208 11.842V13.102C188.208 14.824 187.452 15.468 186.654 15.468ZM188.292 16H189.104C189.062 15.762 189.02 15.3 189.02 14.6V5.892H188.18V9.644L188.152 9.63C187.718 9.084 187.088 8.79 186.444 8.79C184.274 8.79 184.274 11.1 184.274 12.458C184.274 14.11 184.386 16.14 186.43 16.14C187.256 16.14 187.788 15.79 188.222 15.118L188.25 15.104L188.292 16ZM197.756 6.648H198.932C201.424 6.648 201.816 7.488 201.816 10.386C201.816 14.516 201.55 15.244 198.848 15.244H197.756V6.648ZM196.86 16H199.17C202.222 16 202.712 14.348 202.712 10.988C202.712 7.544 202.362 5.892 199.534 5.892H196.86V16ZM206.543 18.674H207.369L210.295 8.93H209.455L207.789 14.726H207.761L206.039 8.93H205.129L207.369 16.014L206.543 18.674ZM213.804 16V5.892H212.964V16H213.804ZM220.786 13.676C220.786 14.6 220.002 15.468 219.036 15.468C218.168 15.468 217.762 14.81 217.762 14.012C217.762 12.29 219.582 12.43 220.786 12.388V13.676ZM220.842 16H221.71C221.626 15.174 221.626 14.726 221.626 14.222V10.666C221.626 8.86 220.142 8.79 219.428 8.79C218.196 8.79 217.146 9.322 217.076 10.68H217.972C217.972 9.84 218.588 9.462 219.358 9.462C220.478 9.462 220.786 10.092 220.786 11.128V11.716C219.358 11.828 216.866 11.576 216.866 14.054C216.866 15.286 217.552 16.14 218.812 16.14C219.68 16.14 220.366 15.804 220.814 15.132H220.842V16ZM225.649 11.562C225.649 9.98 226.419 9.462 227.175 9.462C228.155 9.462 228.477 10.232 228.477 11.058V16H229.317V11.016C229.317 10.092 229.135 8.79 227.385 8.79C226.629 8.79 226.083 9.21 225.677 9.798H225.649V8.93H224.809V16H225.649V11.562ZM237.773 12.36C237.773 11.296 237.941 9.462 239.299 9.462C240.853 9.462 240.895 10.834 240.895 12.486C240.895 14.138 240.853 15.468 239.299 15.468C237.773 15.468 237.773 13.48 237.773 12.36ZM237.745 16V15.146H237.773C238.123 15.804 238.725 16.14 239.551 16.14C241.609 16.14 241.735 14.012 241.735 12.458C241.735 11.198 241.917 8.79 239.621 8.79C238.823 8.79 238.263 9.084 237.829 9.756L237.801 9.728V5.892H236.961V15.3C236.961 15.538 236.919 15.762 236.877 16H237.745ZM249.244 12.64C249.244 10.54 249.244 8.79 246.808 8.79C245.226 8.79 244.372 9.728 244.372 11.772V13.508C244.372 15.65 245.59 16.14 246.808 16.14C248.222 16.14 249.146 15.552 249.244 13.844H248.362C248.376 14.796 247.858 15.468 246.808 15.468C245.478 15.468 245.212 14.166 245.212 13.186V12.64H249.244ZM245.212 11.968C245.212 10.4 245.464 9.462 246.808 9.462C248.152 9.462 248.404 10.4 248.404 11.968H245.212ZM252.72 16H253.56V9.602H254.988V8.93H253.56V7.726C253.56 7.32 253.56 6.592 254.372 6.592H255.002V5.892C254.792 5.864 254.652 5.836 254.526 5.836C252.818 5.836 252.72 7.068 252.72 7.74V8.93H251.586V9.602H252.72V16ZM259.725 16.14C261.377 16.14 262.161 15.062 262.161 13.228V11.702C262.161 9.868 261.377 8.79 259.725 8.79C258.073 8.79 257.289 9.868 257.289 11.702V13.228C257.289 15.062 258.073 16.14 259.725 16.14ZM259.725 9.462C261.111 9.462 261.321 10.624 261.321 12.458C261.321 14.306 261.111 15.468 259.725 15.468C258.339 15.468 258.129 14.306 258.129 12.458C258.129 10.624 258.339 9.462 259.725 9.462ZM265.988 8.93H265.148V16H265.988V11.45C265.988 10.26 266.772 9.546 267.962 9.644V8.79C267.108 8.79 266.366 9.21 266.016 9.882H265.988V8.93ZM275.078 12.64C275.078 10.54 275.078 8.79 272.642 8.79C271.06 8.79 270.206 9.728 270.206 11.772V13.508C270.206 15.65 271.424 16.14 272.642 16.14C274.056 16.14 274.98 15.552 275.078 13.844H274.196C274.21 14.796 273.692 15.468 272.642 15.468C271.312 15.468 271.046 14.166 271.046 13.186V12.64H275.078ZM271.046 11.968C271.046 10.4 271.298 9.462 272.642 9.462C273.986 9.462 274.238 10.4 274.238 11.968H271.046ZM283.016 9.602V14.656C283.016 15.524 283.352 16.028 284.486 16.028C284.752 16.028 285.032 16.014 285.284 15.986V15.258C285.102 15.286 284.906 15.3 284.626 15.3C283.954 15.3 283.856 15.076 283.856 14.138V9.602H285.284V8.93H283.856V7.11L283.016 7.474V8.93H281.882V9.602H283.016ZM288.649 16V11.562C288.649 9.98 289.419 9.462 290.175 9.462C291.155 9.462 291.477 10.232 291.477 11.058V16H292.317V11.016C292.317 10.092 292.135 8.79 290.385 8.79C289.629 8.79 289.083 9.21 288.677 9.798H288.649V5.892H287.809V16H288.649ZM300.119 12.64C300.119 10.54 300.119 8.79 297.683 8.79C296.101 8.79 295.247 9.728 295.247 11.772V13.508C295.247 15.65 296.465 16.14 297.683 16.14C299.097 16.14 300.021 15.552 300.119 13.844H299.237C299.251 14.796 298.733 15.468 297.683 15.468C296.353 15.468 296.087 14.166 296.087 13.186V12.64H300.119ZM296.087 11.968C296.087 10.4 296.339 9.462 297.683 9.462C299.027 9.462 299.279 10.4 299.279 11.968H296.087ZM308.38 11.45C308.38 10.526 308.786 9.462 309.85 9.462C310.676 9.462 310.928 10.246 310.942 10.946V16H311.782V11.45C311.782 10.526 312.188 9.462 313.252 9.462C314.078 9.462 314.33 10.246 314.344 10.946V16H315.184V10.736C315.142 9.602 314.526 8.79 313.35 8.79C312.566 8.79 311.964 9.196 311.614 9.896C311.376 9.196 310.732 8.79 310.004 8.79C309.22 8.79 308.66 9.224 308.324 9.798H308.296V8.916H307.54V16H308.38V11.45ZM321.89 13.676C321.89 14.6 321.106 15.468 320.14 15.468C319.272 15.468 318.866 14.81 318.866 14.012C318.866 12.29 320.686 12.43 321.89 12.388V13.676ZM321.946 16H322.814C322.73 15.174 322.73 14.726 322.73 14.222V10.666C322.73 8.86 321.246 8.79 320.532 8.79C319.3 8.79 318.25 9.322 318.18 10.68H319.076C319.076 9.84 319.692 9.462 320.462 9.462C321.582 9.462 321.89 10.092 321.89 11.128V11.716C320.462 11.828 317.97 11.576 317.97 14.054C317.97 15.286 318.656 16.14 319.916 16.14C320.784 16.14 321.47 15.804 321.918 15.132H321.946V16ZM329.874 14.138C329.874 11.772 326.696 12.248 326.696 10.484C326.696 9.854 327.172 9.462 327.774 9.462C328.726 9.462 328.964 9.938 329.006 10.834H329.832C329.832 9.756 329.384 8.79 327.984 8.79C326.752 8.79 325.856 9.252 325.856 10.554C325.856 12.892 329.034 12.416 329.034 14.264C329.034 15.048 328.642 15.51 327.83 15.51C326.752 15.51 326.528 14.866 326.528 13.9H325.674C325.66 15.398 326.262 16.14 327.788 16.14C329.104 16.14 329.874 15.468 329.874 14.138ZM336.716 14.138C336.716 11.772 333.538 12.248 333.538 10.484C333.538 9.854 334.014 9.462 334.616 9.462C335.568 9.462 335.806 9.938 335.848 10.834H336.674C336.674 9.756 336.226 8.79 334.826 8.79C333.594 8.79 332.698 9.252 332.698 10.554C332.698 12.892 335.876 12.416 335.876 14.264C335.876 15.048 335.484 15.51 334.672 15.51C333.594 15.51 333.37 14.866 333.37 13.9H332.516C332.502 15.398 333.104 16.14 334.63 16.14C335.946 16.14 336.716 15.468 336.716 14.138ZM343.193 13.676C343.193 14.6 342.409 15.468 341.443 15.468C340.575 15.468 340.169 14.81 340.169 14.012C340.169 12.29 341.989 12.43 343.193 12.388V13.676ZM343.249 16H344.117C344.033 15.174 344.033 14.726 344.033 14.222V10.666C344.033 8.86 342.549 8.79 341.835 8.79C340.603 8.79 339.553 9.322 339.483 10.68H340.379C340.379 9.84 340.995 9.462 341.765 9.462C342.885 9.462 343.193 10.092 343.193 11.128V11.716C341.765 11.828 339.273 11.576 339.273 14.054C339.273 15.286 339.959 16.14 341.219 16.14C342.087 16.14 342.773 15.804 343.221 15.132H343.249V16ZM351.206 10.96C351.276 9.476 350.45 8.79 349.232 8.79C348.266 8.79 347.468 9.154 347.104 10.162C346.922 10.694 346.894 11.8 346.894 12.5C346.894 14.25 346.894 16.14 349.288 16.14C349.946 16.14 351.29 15.818 351.22 13.914H350.38C350.338 14.768 350.198 15.468 349.092 15.468C347.79 15.468 347.79 13.774 347.79 12.5C347.79 11.562 347.874 10.596 347.986 10.274C348.168 9.756 348.602 9.462 349.12 9.462C350.086 9.462 350.408 10.078 350.366 10.96H351.206ZM354.953 8.93H354.113V16H354.953V11.45C354.953 10.26 355.737 9.546 356.927 9.644V8.79C356.073 8.79 355.331 9.21 354.981 9.882H354.953V8.93ZM364.044 12.64C364.044 10.54 364.044 8.79 361.608 8.79C360.026 8.79 359.172 9.728 359.172 11.772V13.508C359.172 15.65 360.39 16.14 361.608 16.14C363.022 16.14 363.946 15.552 364.044 13.844H363.162C363.176 14.796 362.658 15.468 361.608 15.468C360.278 15.468 360.012 14.166 360.012 13.186V12.64H364.044ZM360.012 11.968C360.012 10.4 360.264 9.462 361.608 9.462C362.952 9.462 363.204 10.4 363.204 11.968H360.012ZM376.168 12.64C376.168 10.54 376.168 8.79 373.732 8.79C372.15 8.79 371.296 9.728 371.296 11.772V13.508C371.296 15.65 372.514 16.14 373.732 16.14C375.146 16.14 376.07 15.552 376.168 13.844H375.286C375.3 14.796 374.782 15.468 373.732 15.468C372.402 15.468 372.136 14.166 372.136 13.186V12.64H376.168ZM372.136 11.968C372.136 10.4 372.388 9.462 373.732 9.462C375.076 9.462 375.328 10.4 375.328 11.968H372.136ZM378.399 16H379.337L380.961 12.934L382.515 16H383.537L381.493 12.192L383.341 8.93H382.417L381.017 11.59L379.729 8.93H378.721L380.471 12.234L378.399 16ZM386.808 11.828C386.808 10.078 387.76 9.462 388.306 9.462C389.692 9.462 389.902 10.624 389.902 12.458C389.902 14.306 389.692 15.468 388.306 15.468C387.536 15.468 386.808 14.698 386.808 13.088V11.828ZM386.78 8.93H385.968V18.674H386.808V15.202L386.836 15.216C387.27 15.888 387.788 16.14 388.306 16.14C390.112 16.14 390.742 15.062 390.742 13.228V11.646C390.742 10.722 390.728 8.79 388.516 8.79C387.956 8.79 387.256 9.084 386.808 9.77L386.78 9.784V8.93ZM394.681 16V5.892H393.841V16H394.681ZM401.662 13.676C401.662 14.6 400.878 15.468 399.912 15.468C399.044 15.468 398.638 14.81 398.638 14.012C398.638 12.29 400.458 12.43 401.662 12.388V13.676ZM401.718 16H402.586C402.502 15.174 402.502 14.726 402.502 14.222V10.666C402.502 8.86 401.018 8.79 400.304 8.79C399.072 8.79 398.022 9.322 397.952 10.68H398.848C398.848 9.84 399.464 9.462 400.234 9.462C401.354 9.462 401.662 10.092 401.662 11.128V11.716C400.234 11.828 397.742 11.576 397.742 14.054C397.742 15.286 398.428 16.14 399.688 16.14C400.556 16.14 401.242 15.804 401.69 15.132H401.718V16ZM406.805 16V8.93H405.965V16H406.805ZM406.903 6.956V5.892H405.867V6.956H406.903ZM411.028 11.562C411.028 9.98 411.798 9.462 412.554 9.462C413.534 9.462 413.856 10.232 413.856 11.058V16H414.696V11.016C414.696 10.092 414.514 8.79 412.764 8.79C412.008 8.79 411.462 9.21 411.056 9.798H411.028V8.93H410.188V16H411.028V11.562ZM423.153 16V11.562C423.153 9.98 423.923 9.462 424.679 9.462C425.659 9.462 425.981 10.232 425.981 11.058V16H426.821V11.016C426.821 10.092 426.639 8.79 424.889 8.79C424.133 8.79 423.587 9.21 423.181 9.798H423.153V5.892H422.313V16H423.153ZM432.187 16.14C433.839 16.14 434.623 15.062 434.623 13.228V11.702C434.623 9.868 433.839 8.79 432.187 8.79C430.535 8.79 429.751 9.868 429.751 11.702V13.228C429.751 15.062 430.535 16.14 432.187 16.14ZM432.187 9.462C433.573 9.462 433.783 10.624 433.783 12.458C433.783 14.306 433.573 15.468 432.187 15.468C430.801 15.468 430.591 14.306 430.591 12.458C430.591 10.624 430.801 9.462 432.187 9.462ZM438.786 16H439.836L441.32 9.952H441.348L442.902 16H443.952L445.898 8.93H445.058L443.476 15.118H443.448L441.88 8.93H440.844L439.346 15.118H439.318L437.736 8.93H436.84L438.786 16ZM455.049 16.14C456.701 16.14 457.485 15.062 457.485 13.228V11.702C457.485 9.868 456.701 8.79 455.049 8.79C453.397 8.79 452.613 9.868 452.613 11.702V13.228C452.613 15.062 453.397 16.14 455.049 16.14ZM455.049 9.462C456.435 9.462 456.645 10.624 456.645 12.458C456.645 14.306 456.435 15.468 455.049 15.468C453.663 15.468 453.453 14.306 453.453 12.458C453.453 10.624 453.663 9.462 455.049 9.462ZM464.028 8.93V13.914C464.028 14.404 463.622 15.468 462.488 15.468C461.27 15.468 461.312 13.984 461.312 13.788V8.93H460.472V13.928C460.472 15.076 460.878 16.14 462.334 16.14C463.118 16.14 463.622 15.818 464.112 15.216H464.14V16H464.868V8.93H464.028ZM468.541 9.602V14.656C468.541 15.524 468.877 16.028 470.011 16.028C470.277 16.028 470.557 16.014 470.809 15.986V15.258C470.627 15.286 470.431 15.3 470.151 15.3C469.479 15.3 469.381 15.076 469.381 14.138V9.602H470.809V8.93H469.381V7.11L468.541 7.474V8.93H467.407V9.602H468.541ZM12.108 38.14C13.76 38.14 14.544 37.062 14.544 35.228V33.702C14.544 31.868 13.76 30.79 12.108 30.79C10.456 30.79 9.672 31.868 9.672 33.702V35.228C9.672 37.062 10.456 38.14 12.108 38.14ZM12.108 31.462C13.494 31.462 13.704 32.624 13.704 34.458C13.704 36.306 13.494 37.468 12.108 37.468C10.722 37.468 10.512 36.306 10.512 34.458C10.512 32.624 10.722 31.462 12.108 31.462ZM18.0207 38H18.8607V31.602H20.2887V30.93H18.8607V29.726C18.8607 29.32 18.8607 28.592 19.6727 28.592H20.3027V27.892C20.0927 27.864 19.9527 27.836 19.8267 27.836C18.1187 27.836 18.0207 29.068 18.0207 29.74V30.93H16.8867V31.602H18.0207V38ZM31.2647 32.96C31.3347 31.476 30.5087 30.79 29.2907 30.79C28.3247 30.79 27.5267 31.154 27.1627 32.162C26.9807 32.694 26.9527 33.8 26.9527 34.5C26.9527 36.25 26.9527 38.14 29.3467 38.14C30.0047 38.14 31.3487 37.818 31.2787 35.914H30.4387C30.3967 36.768 30.2567 37.468 29.1507 37.468C27.8487 37.468 27.8487 35.774 27.8487 34.5C27.8487 33.562 27.9327 32.596 28.0447 32.274C28.2267 31.756 28.6607 31.462 29.1787 31.462C30.1447 31.462 30.4667 32.078 30.4247 32.96H31.2647ZM34.9561 38V33.562C34.9561 31.98 35.7261 31.462 36.4821 31.462C37.4621 31.462 37.7841 32.232 37.7841 33.058V38H38.6241V33.016C38.6241 32.092 38.4421 30.79 36.6921 30.79C35.9361 30.79 35.3901 31.21 34.9841 31.798H34.9561V27.892H34.1161V38H34.9561ZM45.3348 35.676C45.3348 36.6 44.5508 37.468 43.5848 37.468C42.7168 37.468 42.3108 36.81 42.3108 36.012C42.3108 34.29 44.1308 34.43 45.3348 34.388V35.676ZM45.3908 38H46.2588C46.1748 37.174 46.1748 36.726 46.1748 36.222V32.666C46.1748 30.86 44.6908 30.79 43.9768 30.79C42.7448 30.79 41.6948 31.322 41.6248 32.68H42.5208C42.5208 31.84 43.1368 31.462 43.9068 31.462C45.0268 31.462 45.3348 32.092 45.3348 33.128V33.716C43.9068 33.828 41.4148 33.576 41.4148 36.054C41.4148 37.286 42.1008 38.14 43.3608 38.14C44.2288 38.14 44.9148 37.804 45.3628 37.132H45.3908V38ZM50.2535 30.93H49.4135V38H50.2535V33.45C50.2535 32.26 51.0375 31.546 52.2275 31.644V30.79C51.3735 30.79 50.6315 31.21 50.2815 31.882H50.2535V30.93ZM58.252 35.676C58.252 36.6 57.468 37.468 56.502 37.468C55.634 37.468 55.228 36.81 55.228 36.012C55.228 34.29 57.048 34.43 58.252 34.388V35.676ZM58.308 38H59.176C59.092 37.174 59.092 36.726 59.092 36.222V32.666C59.092 30.86 57.608 30.79 56.894 30.79C55.662 30.79 54.612 31.322 54.542 32.68H55.438C55.438 31.84 56.054 31.462 56.824 31.462C57.944 31.462 58.252 32.092 58.252 33.128V33.716C56.824 33.828 54.332 33.576 54.332 36.054C54.332 37.286 55.018 38.14 56.278 38.14C57.146 38.14 57.832 37.804 58.28 37.132H58.308V38ZM66.2647 32.96C66.3347 31.476 65.5087 30.79 64.2907 30.79C63.3247 30.79 62.5267 31.154 62.1627 32.162C61.9807 32.694 61.9527 33.8 61.9527 34.5C61.9527 36.25 61.9527 38.14 64.3467 38.14C65.0047 38.14 66.3487 37.818 66.2787 35.914H65.4387C65.3967 36.768 65.2567 37.468 64.1507 37.468C62.8487 37.468 62.8487 35.774 62.8487 34.5C62.8487 33.562 62.9327 32.596 63.0447 32.274C63.2267 31.756 63.6607 31.462 64.1787 31.462C65.1447 31.462 65.4667 32.078 65.4247 32.96H66.2647ZM69.6201 31.602V36.656C69.6201 37.524 69.9561 38.028 71.0901 38.028C71.3561 38.028 71.6361 38.014 71.8881 37.986V37.258C71.7061 37.286 71.5101 37.3 71.2301 37.3C70.5581 37.3 70.4601 37.076 70.4601 36.138V31.602H71.8881V30.93H70.4601V29.11L69.6201 29.474V30.93H68.4861V31.602H69.6201ZM79.1026 34.64C79.1026 32.54 79.1026 30.79 76.6666 30.79C75.0846 30.79 74.2306 31.728 74.2306 33.772V35.508C74.2306 37.65 75.4486 38.14 76.6666 38.14C78.0806 38.14 79.0046 37.552 79.1026 35.844H78.2206C78.2346 36.796 77.7166 37.468 76.6666 37.468C75.3366 37.468 75.0706 36.166 75.0706 35.186V34.64H79.1026ZM75.0706 33.968C75.0706 32.4 75.3226 31.462 76.6666 31.462C78.0106 31.462 78.2626 32.4 78.2626 33.968H75.0706ZM82.9293 30.93H82.0893V38H82.9293V33.45C82.9293 32.26 83.7133 31.546 84.9033 31.644V30.79C84.0493 30.79 83.3073 31.21 82.9573 31.882H82.9293V30.93ZM92.9533 38V30.93H92.1133V38H92.9533ZM93.0513 28.956V27.892H92.0153V28.956H93.0513ZM96.8408 31.602V36.656C96.8408 37.524 97.1768 38.028 98.3108 38.028C98.5768 38.028 98.8568 38.014 99.1088 37.986V37.258C98.9268 37.286 98.7308 37.3 98.4508 37.3C97.7788 37.3 97.6808 37.076 97.6808 36.138V31.602H99.1088V30.93H97.6808V29.11L96.8408 29.474V30.93H95.7068V31.602H96.8408ZM109.735 35.676C109.735 36.6 108.951 37.468 107.985 37.468C107.117 37.468 106.711 36.81 106.711 36.012C106.711 34.29 108.531 34.43 109.735 34.388V35.676ZM109.791 38H110.659C110.575 37.174 110.575 36.726 110.575 36.222V32.666C110.575 30.86 109.091 30.79 108.377 30.79C107.145 30.79 106.095 31.322 106.025 32.68H106.921C106.921 31.84 107.537 31.462 108.307 31.462C109.427 31.462 109.735 32.092 109.735 33.128V33.716C108.307 33.828 105.815 33.576 105.815 36.054C105.815 37.286 106.501 38.14 107.761 38.14C108.629 38.14 109.315 37.804 109.763 37.132H109.791V38ZM114.878 38V27.892H114.038V38H114.878ZM119.381 38V27.892H118.541V38H119.381ZM131.23 36.138C131.23 33.772 128.052 34.248 128.052 32.484C128.052 31.854 128.528 31.462 129.13 31.462C130.082 31.462 130.32 31.938 130.362 32.834H131.188C131.188 31.756 130.74 30.79 129.34 30.79C128.108 30.79 127.212 31.252 127.212 32.554C127.212 34.892 130.39 34.416 130.39 36.264C130.39 37.048 129.998 37.51 129.186 37.51C128.108 37.51 127.884 36.866 127.884 35.9H127.03C127.016 37.398 127.618 38.14 129.144 38.14C130.46 38.14 131.23 37.468 131.23 36.138ZM138.799 34.64C138.799 32.54 138.799 30.79 136.363 30.79C134.781 30.79 133.927 31.728 133.927 33.772V35.508C133.927 37.65 135.145 38.14 136.363 38.14C137.777 38.14 138.701 37.552 138.799 35.844H137.917C137.931 36.796 137.413 37.468 136.363 37.468C135.033 37.468 134.767 36.166 134.767 35.186V34.64H138.799ZM134.767 33.968C134.767 32.4 135.019 31.462 136.363 31.462C137.707 31.462 137.959 32.4 137.959 33.968H134.767ZM146.42 34.64C146.42 32.54 146.42 30.79 143.984 30.79C142.402 30.79 141.548 31.728 141.548 33.772V35.508C141.548 37.65 142.766 38.14 143.984 38.14C145.398 38.14 146.322 37.552 146.42 35.844H145.538C145.552 36.796 145.034 37.468 143.984 37.468C142.654 37.468 142.388 36.166 142.388 35.186V34.64H146.42ZM142.388 33.968C142.388 32.4 142.64 31.462 143.984 31.462C145.328 31.462 145.58 32.4 145.58 33.968H142.388ZM150.177 33.45C150.177 32.526 150.583 31.462 151.647 31.462C152.473 31.462 152.725 32.246 152.739 32.946V38H153.579V33.45C153.579 32.526 153.985 31.462 155.049 31.462C155.875 31.462 156.127 32.246 156.141 32.946V38H156.981V32.736C156.939 31.602 156.323 30.79 155.147 30.79C154.363 30.79 153.761 31.196 153.411 31.896C153.173 31.196 152.529 30.79 151.801 30.79C151.017 30.79 150.457 31.224 150.121 31.798H150.093V30.916H149.337V38H150.177V33.45ZM164.779 34.64C164.779 32.54 164.779 30.79 162.343 30.79C160.761 30.79 159.907 31.728 159.907 33.772V35.508C159.907 37.65 161.125 38.14 162.343 38.14C163.757 38.14 164.681 37.552 164.779 35.844H163.897C163.911 36.796 163.393 37.468 162.343 37.468C161.013 37.468 160.747 36.166 160.747 35.186V34.64H164.779ZM160.747 33.968C160.747 32.4 160.999 31.462 162.343 31.462C163.687 31.462 163.939 32.4 163.939 33.968H160.747ZM169.823 37.468C168.913 37.468 168.283 37.118 168.283 34.486C168.283 32.834 168.283 31.462 169.795 31.462C171.377 31.462 171.377 33.422 171.377 33.842V35.102C171.377 36.824 170.621 37.468 169.823 37.468ZM171.461 38H172.273C172.231 37.762 172.189 37.3 172.189 36.6V27.892H171.349V31.644L171.321 31.63C170.887 31.084 170.257 30.79 169.613 30.79C167.443 30.79 167.443 33.1 167.443 34.458C167.443 36.11 167.555 38.14 169.599 38.14C170.425 38.14 170.957 37.79 171.391 37.118L171.419 37.104L171.461 38ZM180.38 38H181.22V31.602H182.648V30.93H181.22V29.726C181.22 29.32 181.22 28.592 182.032 28.592H182.662V27.892C182.452 27.864 182.312 27.836 182.186 27.836C180.478 27.836 180.38 29.068 180.38 29.74V30.93H179.246V31.602H180.38V38ZM187.384 38.14C189.036 38.14 189.82 37.062 189.82 35.228V33.702C189.82 31.868 189.036 30.79 187.384 30.79C185.732 30.79 184.948 31.868 184.948 33.702V35.228C184.948 37.062 185.732 38.14 187.384 38.14ZM187.384 31.462C188.77 31.462 188.98 32.624 188.98 34.458C188.98 36.306 188.77 37.468 187.384 37.468C185.998 37.468 185.788 36.306 185.788 34.458C185.788 32.624 185.998 31.462 187.384 31.462ZM193.647 30.93H192.807V38H193.647V33.45C193.647 32.26 194.431 31.546 195.621 31.644V30.79C194.767 30.79 194.025 31.21 193.675 31.882H193.647V30.93ZM203.055 31.602V36.656C203.055 37.524 203.391 38.028 204.525 38.028C204.791 38.028 205.071 38.014 205.323 37.986V37.258C205.141 37.286 204.945 37.3 204.665 37.3C203.993 37.3 203.895 37.076 203.895 36.138V31.602H205.323V30.93H203.895V29.11L203.055 29.474V30.93H201.921V31.602H203.055ZM208.687 38V33.562C208.687 31.98 209.457 31.462 210.213 31.462C211.193 31.462 211.515 32.232 211.515 33.058V38H212.355V33.016C212.355 32.092 212.173 30.79 210.423 30.79C209.667 30.79 209.121 31.21 208.715 31.798H208.687V27.892H207.847V38H208.687ZM220.158 34.64C220.158 32.54 220.158 30.79 217.722 30.79C216.14 30.79 215.286 31.728 215.286 33.772V35.508C215.286 37.65 216.504 38.14 217.722 38.14C219.136 38.14 220.06 37.552 220.158 35.844H219.276C219.29 36.796 218.772 37.468 217.722 37.468C216.392 37.468 216.126 36.166 216.126 35.186V34.64H220.158ZM216.126 33.968C216.126 32.4 216.378 31.462 217.722 31.462C219.066 31.462 219.318 32.4 219.318 33.968H216.126ZM223.915 33.45C223.915 32.526 224.321 31.462 225.385 31.462C226.211 31.462 226.463 32.246 226.477 32.946V38H227.317V33.45C227.317 32.526 227.723 31.462 228.787 31.462C229.613 31.462 229.865 32.246 229.879 32.946V38H230.719V32.736C230.677 31.602 230.061 30.79 228.885 30.79C228.101 30.79 227.499 31.196 227.149 31.896C226.911 31.196 226.267 30.79 225.539 30.79C224.755 30.79 224.195 31.224 223.859 31.798H223.831V30.916H223.075V38H223.915V33.45ZM238.834 31.602V36.656C238.834 37.524 239.17 38.028 240.304 38.028C240.57 38.028 240.85 38.014 241.102 37.986V37.258C240.92 37.286 240.724 37.3 240.444 37.3C239.772 37.3 239.674 37.076 239.674 36.138V31.602H241.102V30.93H239.674V29.11L238.834 29.474V30.93H237.7V31.602H238.834ZM245.881 38.14C247.533 38.14 248.317 37.062 248.317 35.228V33.702C248.317 31.868 247.533 30.79 245.881 30.79C244.229 30.79 243.445 31.868 243.445 33.702V35.228C243.445 37.062 244.229 38.14 245.881 38.14ZM245.881 31.462C247.267 31.462 247.477 32.624 247.477 34.458C247.477 36.306 247.267 37.468 245.881 37.468C244.495 37.468 244.285 36.306 244.285 34.458C244.285 32.624 244.495 31.462 245.881 31.462ZM256.591 34.36C256.591 33.296 256.759 31.462 258.117 31.462C259.671 31.462 259.713 32.834 259.713 34.486C259.713 36.138 259.671 37.468 258.117 37.468C256.591 37.468 256.591 35.48 256.591 34.36ZM256.563 38V37.146H256.591C256.941 37.804 257.543 38.14 258.369 38.14C260.427 38.14 260.553 36.012 260.553 34.458C260.553 33.198 260.735 30.79 258.439 30.79C257.641 30.79 257.081 31.084 256.647 31.756L256.619 31.728V27.892H255.779V37.3C255.779 37.538 255.737 37.762 255.695 38H256.563ZM268.062 34.64C268.062 32.54 268.062 30.79 265.626 30.79C264.044 30.79 263.19 31.728 263.19 33.772V35.508C263.19 37.65 264.408 38.14 265.626 38.14C267.04 38.14 267.964 37.552 268.062 35.844H267.18C267.194 36.796 266.676 37.468 265.626 37.468C264.296 37.468 264.03 36.166 264.03 35.186V34.64H268.062ZM264.03 33.968C264.03 32.4 264.282 31.462 265.626 31.462C266.97 31.462 267.222 32.4 267.222 33.968H264.03ZM276 31.602V36.656C276 37.524 276.336 38.028 277.47 38.028C277.736 38.028 278.016 38.014 278.268 37.986V37.258C278.086 37.286 277.89 37.3 277.61 37.3C276.938 37.3 276.84 37.076 276.84 36.138V31.602H278.268V30.93H276.84V29.11L276 29.474V30.93H274.866V31.602H276ZM281.632 38V33.562C281.632 31.98 282.402 31.462 283.158 31.462C284.138 31.462 284.46 32.232 284.46 33.058V38H285.3V33.016C285.3 32.092 285.118 30.79 283.368 30.79C282.612 30.79 282.066 31.21 281.66 31.798H281.632V27.892H280.792V38H281.632ZM293.103 34.64C293.103 32.54 293.103 30.79 290.667 30.79C289.085 30.79 288.231 31.728 288.231 33.772V35.508C288.231 37.65 289.449 38.14 290.667 38.14C292.081 38.14 293.005 37.552 293.103 35.844H292.221C292.235 36.796 291.717 37.468 290.667 37.468C289.337 37.468 289.071 36.166 289.071 35.186V34.64H293.103ZM289.071 33.968C289.071 32.4 289.323 31.462 290.667 31.462C292.011 31.462 292.263 32.4 292.263 33.968H289.071ZM304.499 36.138C304.499 33.772 301.321 34.248 301.321 32.484C301.321 31.854 301.797 31.462 302.399 31.462C303.351 31.462 303.589 31.938 303.631 32.834H304.457C304.457 31.756 304.009 30.79 302.609 30.79C301.377 30.79 300.481 31.252 300.481 32.554C300.481 34.892 303.659 34.416 303.659 36.264C303.659 37.048 303.267 37.51 302.455 37.51C301.377 37.51 301.153 36.866 301.153 35.9H300.299C300.285 37.398 300.887 38.14 302.413 38.14C303.729 38.14 304.499 37.468 304.499 36.138ZM308.219 38V33.562C308.219 31.98 308.989 31.462 309.745 31.462C310.725 31.462 311.047 32.232 311.047 33.058V38H311.887V33.016C311.887 32.092 311.705 30.79 309.955 30.79C309.199 30.79 308.653 31.21 308.247 31.798H308.219V27.892H307.379V38H308.219ZM317.253 38.14C318.905 38.14 319.689 37.062 319.689 35.228V33.702C319.689 31.868 318.905 30.79 317.253 30.79C315.601 30.79 314.817 31.868 314.817 33.702V35.228C314.817 37.062 315.601 38.14 317.253 38.14ZM317.253 31.462C318.639 31.462 318.849 32.624 318.849 34.458C318.849 36.306 318.639 37.468 317.253 37.468C315.867 37.468 315.657 36.306 315.657 34.458C315.657 32.624 315.867 31.462 317.253 31.462ZM324.874 38.14C326.526 38.14 327.31 37.062 327.31 35.228V33.702C327.31 31.868 326.526 30.79 324.874 30.79C323.222 30.79 322.438 31.868 322.438 33.702V35.228C322.438 37.062 323.222 38.14 324.874 38.14ZM324.874 31.462C326.26 31.462 326.47 32.624 326.47 34.458C326.47 36.306 326.26 37.468 324.874 37.468C323.488 37.468 323.278 36.306 323.278 34.458C323.278 32.624 323.488 31.462 324.874 31.462ZM330.745 31.602V36.656C330.745 37.524 331.081 38.028 332.215 38.028C332.481 38.028 332.761 38.014 333.013 37.986V37.258C332.831 37.286 332.635 37.3 332.355 37.3C331.683 37.3 331.585 37.076 331.585 36.138V31.602H333.013V30.93H331.585V29.11L330.745 29.474V30.93H329.611V31.602H330.745ZM340.227 34.64C340.227 32.54 340.227 30.79 337.791 30.79C336.209 30.79 335.355 31.728 335.355 33.772V35.508C335.355 37.65 336.573 38.14 337.791 38.14C339.205 38.14 340.129 37.552 340.227 35.844H339.345C339.359 36.796 338.841 37.468 337.791 37.468C336.461 37.468 336.195 36.166 336.195 35.186V34.64H340.227ZM336.195 33.968C336.195 32.4 336.447 31.462 337.791 31.462C339.135 31.462 339.387 32.4 339.387 33.968H336.195ZM344.054 30.93H343.214V38H344.054V33.45C344.054 32.26 344.838 31.546 346.028 31.644V30.79C345.174 30.79 344.432 31.21 344.082 31.882H344.054V30.93ZM352.416 36.138C352.416 33.772 349.238 34.248 349.238 32.484C349.238 31.854 349.714 31.462 350.316 31.462C351.268 31.462 351.506 31.938 351.548 32.834H352.374C352.374 31.756 351.926 30.79 350.526 30.79C349.294 30.79 348.398 31.252 348.398 32.554C348.398 34.892 351.576 34.416 351.576 36.264C351.576 37.048 351.184 37.51 350.372 37.51C349.294 37.51 349.07 36.866 349.07 35.9H348.216C348.202 37.398 348.804 38.14 350.33 38.14C351.646 38.14 352.416 37.468 352.416 36.138ZM355.478 38H356.514V36.936H355.478V38Z" fill="white"/>
</svg>
