<svg width="414" height="306" viewBox="0 0 414 306" fill="none" xmlns="http://www.w3.org/2000/svg">
<path d="M49.98 14.59C49.98 20.728 54.408 22.078 54.642 22.15C54.48 22.078 50.97 20.548 50.97 14.59C50.97 8.632 54.48 7.102 54.642 7.03C54.408 7.102 49.98 8.452 49.98 14.59ZM57.5245 18.19C57.5245 18.694 57.9205 19.09 58.4245 19.09C58.9285 19.09 59.3245 18.694 59.3245 18.19C59.3245 17.686 58.9285 17.29 58.4245 17.29C57.9205 17.29 57.5245 17.686 57.5245 18.19ZM63.2796 18.19C63.2796 18.694 63.6756 19.09 64.1796 19.09C64.6836 19.09 65.0796 18.694 65.0796 18.19C65.0796 17.686 64.6836 17.29 64.1796 17.29C63.6756 17.29 63.2796 17.686 63.2796 18.19ZM69.0347 18.19C69.0347 18.694 69.4307 19.09 69.9347 19.09C70.4387 19.09 70.8347 18.694 70.8347 18.19C70.8347 17.686 70.4387 17.29 69.9347 17.29C69.4307 17.29 69.0347 17.686 69.0347 18.19ZM78.3718 14.59C78.3718 8.452 73.9438 7.102 73.7098 7.03C73.8718 7.102 77.3818 8.632 77.3818 14.59C77.3818 20.548 73.8718 22.078 73.7098 22.15C73.9438 22.078 78.3718 20.728 78.3718 14.59ZM48.63 47H53.94C56.55 47 58.26 45.83 58.26 43.76C58.26 41.06 55.56 40.88 55.56 40.88V40.79C55.56 40.79 57.81 40.304 57.81 38.144C57.81 36.344 56.37 35.3 53.94 35.3H48.63L50.43 36.29V46.01L48.63 47ZM53.85 41.24C55.47 41.24 57.27 41.78 57.27 43.76C57.27 45.74 55.56 46.37 53.94 46.37H51.96L51.33 46.01V41.24H53.85ZM51.33 36.29L51.978 35.93H53.94C55.38 35.93 56.82 36.524 56.82 38.234C56.82 39.854 55.38 40.61 53.94 40.61H51.33V36.29ZM67.98 39.8V45.056C67.44 45.722 66.36 46.586 65.28 46.586C64.11 46.586 63.57 45.74 63.57 44.3V38.63L61.23 39.35L62.67 39.8V44.57C62.67 46.55 63.66 47.27 64.92 47.27C66.18 47.27 67.35 46.28 67.98 45.596V47.27L70.32 46.55L68.88 46.1V38.63L66.54 39.35L67.98 39.8ZM72.7528 39.44H74.4628V45.38C74.4628 46.73 75.0028 47.27 75.9028 47.27C76.8928 47.27 77.3968 46.064 77.4328 45.938C77.4148 45.974 76.9828 46.64 76.2628 46.64C75.6328 46.64 75.3628 46.1 75.3628 45.38V39.44H77.4328V38.9H75.3628V37.01L72.7528 39.44ZM99.6642 38.9H96.0822L97.5222 39.62L95.7402 45.074L93.3102 38.63L90.8262 45.11L89.0622 39.62L90.5022 38.9H86.5242L88.1442 39.71L90.5742 47.27L93.1122 40.664L95.6142 47.27L98.0442 39.71L99.6642 38.9ZM108.771 42.14C108.771 40.16 107.961 38.63 105.675 38.63C103.533 38.63 101.751 40.322 101.751 42.95C101.751 45.38 103.191 47.27 105.531 47.27C108.231 47.27 108.771 44.66 108.771 44.66C108.771 44.66 107.961 46.46 105.981 46.46C104.181 46.46 102.651 45.344 102.651 42.662C102.651 42.482 102.651 42.32 102.669 42.14H108.771ZM105.639 39.062C106.899 39.062 107.781 39.89 107.781 40.79C107.781 41.51 107.151 41.6 106.251 41.6H102.759C103.155 39.872 104.505 39.062 105.639 39.062ZM124.602 35.3V40.052C124.548 39.926 123.882 38.63 122.082 38.63C120.462 38.63 118.572 39.89 118.572 42.95C118.572 46.1 120.282 47.27 121.902 47.27C123.792 47.27 124.602 45.56 124.602 45.56V47.27L126.942 46.55L125.502 46.1V34.13L123.162 34.85L124.602 35.3ZM124.602 44.66C124.602 44.66 123.972 46.73 122.172 46.73C120.804 46.73 119.562 45.56 119.562 42.95C119.562 40.43 120.804 39.17 122.172 39.17C123.702 39.17 124.602 40.34 124.602 41.69V44.66ZM133.339 39.116C134.833 39.116 136.453 40.43 136.453 43.418C136.453 45.542 135.175 46.784 133.843 46.784C132.367 46.784 130.729 45.47 130.729 42.482C130.729 40.322 132.025 39.116 133.339 39.116ZM129.739 42.95C129.739 45.38 131.089 47.27 133.591 47.27C135.913 47.27 137.443 45.38 137.443 42.95C137.443 40.52 136.093 38.63 133.591 38.63C131.269 38.63 129.739 40.52 129.739 42.95ZM141.944 39.8V46.19L140.504 47H144.284L142.844 46.19V40.844C143.384 40.178 144.464 39.314 145.544 39.314C146.714 39.314 147.254 40.16 147.254 41.6V46.19L145.814 47H149.594L148.154 46.19V41.33C148.154 39.35 147.164 38.63 145.904 38.63C144.644 38.63 143.474 39.62 142.844 40.304V38.63L140.504 39.35L141.944 39.8ZM152.738 35.3C152.738 35.804 153.134 36.2 153.638 36.2H153.728L152.828 38.27C154.448 36.29 154.538 35.93 154.538 35.3C154.538 34.796 154.142 34.4 153.638 34.4C153.134 34.4 152.738 34.796 152.738 35.3ZM157.683 39.44H159.393V45.38C159.393 46.73 159.933 47.27 160.833 47.27C161.823 47.27 162.327 46.064 162.363 45.938C162.345 45.974 161.913 46.64 161.193 46.64C160.563 46.64 160.293 46.1 160.293 45.38V39.44H162.363V38.9H160.293V37.01L157.683 39.44ZM171.725 39.44H173.435V45.38C173.435 46.73 173.975 47.27 174.875 47.27C175.865 47.27 176.369 46.064 176.405 45.938C176.387 45.974 175.955 46.64 175.235 46.64C174.605 46.64 174.335 46.1 174.335 45.38V39.44H176.405V38.9H174.335V37.01L171.725 39.44ZM182.062 42.662C180.838 43.094 179.74 43.94 179.74 45.2C179.74 46.478 180.55 47.27 181.792 47.27C182.512 47.27 183.124 46.91 183.538 46.64L184.87 45.758C184.87 46.712 184.87 47.27 185.5 47.27C186.13 47.27 187.39 45.74 187.39 45.74L185.77 46.37V41.24C185.77 39.71 185.122 38.63 183.16 38.63C182.08 38.63 180.046 39.62 180.046 40.736C180.046 41.258 180.352 41.492 180.694 41.492C181.036 41.492 181.342 41.294 181.342 40.736C181.342 40.484 181.306 40.304 181.306 40.16C181.306 39.71 181.882 39.17 182.98 39.17C183.97 39.17 184.87 39.638 184.87 41.24V41.69L182.062 42.662ZM183.754 45.92C183.232 46.262 182.782 46.604 182.08 46.604C181.18 46.604 180.694 45.884 180.694 45.11C180.694 44.12 181.144 43.508 182.71 42.95L184.87 42.194V45.182L183.754 45.92ZM191.255 35.3V46.19L189.815 47H193.595L192.155 46.19V34.13L189.815 34.85L191.255 35.3ZM198.807 34.13L196.467 34.85L197.907 35.3V46.19L196.467 47H200.247L198.807 46.19V34.13ZM203.271 47H205.017L203.739 46.19L199.923 42.446L202.821 39.71L204.837 38.9H201.057L202.137 39.62L198.897 42.698L203.271 47ZM216.596 42.662C215.372 43.094 214.274 43.94 214.274 45.2C214.274 46.478 215.084 47.27 216.326 47.27C217.046 47.27 217.658 46.91 218.072 46.64L219.404 45.758C219.404 46.712 219.404 47.27 220.034 47.27C220.664 47.27 221.924 45.74 221.924 45.74L220.304 46.37V41.24C220.304 39.71 219.656 38.63 217.694 38.63C216.614 38.63 214.58 39.62 214.58 40.736C214.58 41.258 214.886 41.492 215.228 41.492C215.57 41.492 215.876 41.294 215.876 40.736C215.876 40.484 215.84 40.304 215.84 40.16C215.84 39.71 216.416 39.17 217.514 39.17C218.504 39.17 219.404 39.638 219.404 41.24V41.69L216.596 42.662ZM218.288 45.92C217.766 46.262 217.316 46.604 216.614 46.604C215.714 46.604 215.228 45.884 215.228 45.11C215.228 44.12 215.678 43.508 217.244 42.95L219.404 42.194V45.182L218.288 45.92ZM225.069 47.27L225.789 45.65C225.789 45.65 226.509 47.27 228.489 47.27C230.109 47.27 231.999 46.01 231.999 42.95C231.999 39.62 230.289 38.63 228.669 38.63C226.779 38.63 225.969 40.34 225.969 40.34V34.13L223.629 34.85L225.069 35.3V47.27ZM225.969 41.24C225.969 41.24 226.599 39.17 228.399 39.17C229.767 39.17 231.009 40.25 231.009 42.95C231.009 45.47 229.767 46.73 228.399 46.73C226.869 46.73 225.969 45.56 225.969 44.21V41.24ZM238.751 39.116C240.245 39.116 241.865 40.43 241.865 43.418C241.865 45.542 240.587 46.784 239.255 46.784C237.779 46.784 236.141 45.47 236.141 42.482C236.141 40.322 237.437 39.116 238.751 39.116ZM235.151 42.95C235.151 45.38 236.501 47.27 239.003 47.27C241.325 47.27 242.855 45.38 242.855 42.95C242.855 40.52 241.505 38.63 239.003 38.63C236.681 38.63 235.151 40.52 235.151 42.95ZM252.216 39.8V45.056C251.676 45.722 250.596 46.586 249.516 46.586C248.346 46.586 247.806 45.74 247.806 44.3V38.63L245.466 39.35L246.906 39.8V44.57C246.906 46.55 247.896 47.27 249.156 47.27C250.416 47.27 251.586 46.28 252.216 45.596V47.27L254.556 46.55L253.116 46.1V38.63L250.776 39.35L252.216 39.8ZM256.989 39.44H258.699V45.38C258.699 46.73 259.239 47.27 260.139 47.27C261.129 47.27 261.633 46.064 261.669 45.938C261.651 45.974 261.219 46.64 260.499 46.64C259.869 46.64 259.599 46.1 259.599 45.38V39.44H261.669V38.9H259.599V37.01L256.989 39.44ZM271.031 39.44H272.741V45.38C272.741 46.73 273.281 47.27 274.181 47.27C275.171 47.27 275.675 46.064 275.711 45.938C275.693 45.974 275.261 46.64 274.541 46.64C273.911 46.64 273.641 46.1 273.641 45.38V39.44H275.711V38.9H273.641V37.01L271.031 39.44ZM280.306 35.3V46.19L278.866 47H282.646L281.206 46.19V40.844C281.746 40.178 282.826 39.314 283.906 39.314C285.076 39.314 285.616 40.16 285.616 41.6V46.19L284.176 47H287.956L286.516 46.19V41.33C286.516 39.35 285.526 38.63 284.266 38.63C283.006 38.63 281.836 39.62 281.206 40.304V34.13L278.866 34.85L280.306 35.3ZM297.673 42.14C297.673 40.16 296.863 38.63 294.577 38.63C292.435 38.63 290.653 40.322 290.653 42.95C290.653 45.38 292.093 47.27 294.433 47.27C297.133 47.27 297.673 44.66 297.673 44.66C297.673 44.66 296.863 46.46 294.883 46.46C293.083 46.46 291.553 45.344 291.553 42.662C291.553 42.482 291.553 42.32 291.571 42.14H297.673ZM294.541 39.062C295.801 39.062 296.683 39.89 296.683 40.79C296.683 41.51 296.053 41.6 295.153 41.6H291.661C292.057 39.872 293.407 39.062 294.541 39.062ZM310.084 36.29L310.714 35.93H315.394L316.654 38.54V35.3H307.384L309.184 36.29V46.01L307.384 47H316.924V43.76L315.664 46.37H310.714L310.084 46.01V41.24H313.054L314.134 42.95V38.9L313.054 40.61H310.084V36.29ZM321.959 35.3V46.19L320.519 47H324.299L322.859 46.19V34.13L320.519 34.85L321.959 35.3ZM334.281 42.14C334.281 40.16 333.471 38.63 331.185 38.63C329.043 38.63 327.261 40.322 327.261 42.95C327.261 45.38 328.701 47.27 331.041 47.27C333.741 47.27 334.281 44.66 334.281 44.66C334.281 44.66 333.471 46.46 331.491 46.46C329.691 46.46 328.161 45.344 328.161 42.662C328.161 42.482 328.161 42.32 328.179 42.14H334.281ZM331.149 39.062C332.409 39.062 333.291 39.89 333.291 40.79C333.291 41.51 332.661 41.6 331.761 41.6H328.269C328.665 39.872 330.015 39.062 331.149 39.062ZM338.686 49.97L337.246 50.78H341.026L339.586 49.97V45.848C339.64 45.974 340.306 47.27 342.106 47.27C343.726 47.27 345.616 46.01 345.616 42.95C345.616 39.62 343.906 38.63 342.286 38.63C340.396 38.63 339.586 40.34 339.586 40.34V38.63L337.246 39.35L338.686 39.8V49.97ZM339.586 41.24C339.586 41.24 340.216 39.17 342.016 39.17C343.384 39.17 344.626 40.25 344.626 42.95C344.626 45.47 343.384 46.73 342.016 46.73C340.486 46.73 339.586 45.56 339.586 44.21V41.24ZM350.123 35.3V46.19L348.683 47H352.463L351.023 46.19V40.844C351.563 40.178 352.643 39.314 353.723 39.314C354.893 39.314 355.433 40.16 355.433 41.6V46.19L353.993 47H357.773L356.333 46.19V41.33C356.333 39.35 355.343 38.63 354.083 38.63C352.823 38.63 351.653 39.62 351.023 40.304V34.13L348.683 34.85L350.123 35.3ZM362.881 42.662C361.657 43.094 360.559 43.94 360.559 45.2C360.559 46.478 361.369 47.27 362.611 47.27C363.331 47.27 363.943 46.91 364.357 46.64L365.689 45.758C365.689 46.712 365.689 47.27 366.319 47.27C366.949 47.27 368.209 45.74 368.209 45.74L366.589 46.37V41.24C366.589 39.71 365.941 38.63 363.979 38.63C362.899 38.63 360.865 39.62 360.865 40.736C360.865 41.258 361.171 41.492 361.513 41.492C361.855 41.492 362.161 41.294 362.161 40.736C362.161 40.484 362.125 40.304 362.125 40.16C362.125 39.71 362.701 39.17 363.799 39.17C364.789 39.17 365.689 39.638 365.689 41.24V41.69L362.881 42.662ZM364.573 45.92C364.051 46.262 363.601 46.604 362.899 46.604C361.999 46.604 361.513 45.884 361.513 45.11C361.513 44.12 361.963 43.508 363.529 42.95L365.689 42.194V45.182L364.573 45.92ZM372.165 39.8V46.19L370.725 47H374.505L373.065 46.19V40.844C373.605 40.178 374.685 39.314 375.765 39.314C376.935 39.314 377.475 40.16 377.475 41.6V46.19L376.035 47H379.815L378.375 46.19V41.33C378.375 39.35 377.385 38.63 376.125 38.63C374.865 38.63 373.695 39.62 373.065 40.304V38.63L370.725 39.35L372.165 39.8ZM382.149 39.44H383.859V45.38C383.859 46.73 384.399 47.27 385.299 47.27C386.289 47.27 386.793 46.064 386.829 45.938C386.811 45.974 386.379 46.64 385.659 46.64C385.029 46.64 384.759 46.1 384.759 45.38V39.44H386.829V38.9H384.759V37.01L382.149 39.44ZM390.525 46.19C390.525 46.694 390.921 47.09 391.425 47.09C391.929 47.09 392.325 46.694 392.325 46.19C392.325 45.686 391.929 45.29 391.425 45.29C390.921 45.29 390.525 45.686 390.525 46.19ZM49.62 69.15C49.62 65.46 51.87 63.57 54.21 63.57C56.55 63.57 58.8 65.46 58.8 69.15C58.8 72.84 56.55 74.73 54.21 74.73C51.87 74.73 49.62 72.84 49.62 69.15ZM54.21 63.03C50.88 63.03 48.63 65.55 48.63 69.15C48.63 72.75 50.88 75.27 54.21 75.27C57.54 75.27 59.79 72.75 59.79 69.15C59.79 65.55 57.54 63.03 54.21 63.03ZM64.2077 63.3V74.19L62.7677 75H66.5477L65.1077 74.19V68.844C65.6477 68.178 66.7277 67.314 67.8077 67.314C68.9777 67.314 69.5177 68.16 69.5177 69.6V74.19L68.0777 75H71.8577L70.4177 74.19V69.33C70.4177 67.35 69.4277 66.63 68.1677 66.63C66.9077 66.63 65.7377 67.62 65.1077 68.304V62.13L62.7677 62.85L64.2077 63.3ZM75.0042 74.19C75.0042 74.694 75.4002 75.09 75.9042 75.09H75.9942L75.0942 77.16C76.7142 75.18 76.8042 74.82 76.8042 74.19C76.8042 73.686 76.4082 73.29 75.9042 73.29C75.4002 73.29 75.0042 73.686 75.0042 74.19ZM87.9551 77.97L86.5151 78.78H90.2951L88.8551 77.97V73.848C88.9091 73.974 89.5751 75.27 91.3751 75.27C92.9951 75.27 94.8851 74.01 94.8851 70.95C94.8851 67.62 93.1751 66.63 91.5551 66.63C89.6651 66.63 88.8551 68.34 88.8551 68.34V66.63L86.5151 67.35L87.9551 67.8V77.97ZM88.8551 69.24C88.8551 69.24 89.4851 67.17 91.2851 67.17C92.6531 67.17 93.8951 68.25 93.8951 70.95C93.8951 73.47 92.6531 74.73 91.2851 74.73C89.7551 74.73 88.8551 73.56 88.8551 72.21V69.24ZM99.3921 63.3V74.19L97.9521 75H101.732L100.292 74.19V62.13L97.9521 62.85L99.3921 63.3ZM111.714 70.14C111.714 68.16 110.904 66.63 108.618 66.63C106.476 66.63 104.694 68.322 104.694 70.95C104.694 73.38 106.134 75.27 108.474 75.27C111.174 75.27 111.714 72.66 111.714 72.66C111.714 72.66 110.904 74.46 108.924 74.46C107.124 74.46 105.594 73.344 105.594 70.662C105.594 70.482 105.594 70.32 105.612 70.14H111.714ZM108.582 67.062C109.842 67.062 110.724 67.89 110.724 68.79C110.724 69.51 110.094 69.6 109.194 69.6H105.702C106.098 67.872 107.448 67.062 108.582 67.062ZM117.361 70.662C116.137 71.094 115.039 71.94 115.039 73.2C115.039 74.478 115.849 75.27 117.091 75.27C117.811 75.27 118.423 74.91 118.837 74.64L120.169 73.758C120.169 74.712 120.169 75.27 120.799 75.27C121.429 75.27 122.689 73.74 122.689 73.74L121.069 74.37V69.24C121.069 67.71 120.421 66.63 118.459 66.63C117.379 66.63 115.345 67.62 115.345 68.736C115.345 69.258 115.651 69.492 115.993 69.492C116.335 69.492 116.641 69.294 116.641 68.736C116.641 68.484 116.605 68.304 116.605 68.16C116.605 67.71 117.181 67.17 118.279 67.17C119.269 67.17 120.169 67.638 120.169 69.24V69.69L117.361 70.662ZM119.053 73.92C118.531 74.262 118.081 74.604 117.379 74.604C116.479 74.604 115.993 73.884 115.993 73.11C115.993 72.12 116.443 71.508 118.009 70.95L120.169 70.194V73.182L119.053 73.92ZM130.874 66.63L130.154 67.35C130.154 67.35 129.524 66.63 128.264 66.63C126.824 66.63 125.654 67.476 125.654 68.79C125.654 71.508 130.514 70.752 130.514 73.074C130.514 74.28 129.434 74.73 128.624 74.73C128.084 74.73 127.094 74.568 126.518 73.38L125.744 71.76V75.27L126.374 74.208C126.392 74.262 126.95 75.27 128.624 75.27C130.064 75.27 131.324 74.406 131.324 72.786C131.324 69.816 126.374 70.5 126.374 68.52C126.374 67.8 127.076 67.17 128.264 67.17C129.524 67.17 130.064 67.98 130.064 67.98L130.874 69.438V66.63ZM141.67 70.14C141.67 68.16 140.86 66.63 138.574 66.63C136.432 66.63 134.65 68.322 134.65 70.95C134.65 73.38 136.09 75.27 138.43 75.27C141.13 75.27 141.67 72.66 141.67 72.66C141.67 72.66 140.86 74.46 138.88 74.46C137.08 74.46 135.55 73.344 135.55 70.662C135.55 70.482 135.55 70.32 135.568 70.14H141.67ZM138.538 67.062C139.798 67.062 140.68 67.89 140.68 68.79C140.68 69.51 140.05 69.6 139.15 69.6H135.658C136.054 67.872 137.404 67.062 138.538 67.062ZM145.355 74.19C145.355 74.694 145.751 75.09 146.255 75.09H146.345L145.445 77.16C147.065 75.18 147.155 74.82 147.155 74.19C147.155 73.686 146.759 73.29 146.255 73.29C145.751 73.29 145.355 73.686 145.355 74.19ZM158.486 63.3V74.19L157.046 75H160.826L159.386 74.19V62.13L157.046 62.85L158.486 63.3ZM170.808 70.14C170.808 68.16 169.998 66.63 167.712 66.63C165.57 66.63 163.788 68.322 163.788 70.95C163.788 73.38 165.228 75.27 167.568 75.27C170.268 75.27 170.808 72.66 170.808 72.66C170.808 72.66 169.998 74.46 168.018 74.46C166.218 74.46 164.688 73.344 164.688 70.662C164.688 70.482 164.688 70.32 164.706 70.14H170.808ZM167.676 67.062C168.936 67.062 169.818 67.89 169.818 68.79C169.818 69.51 169.188 69.6 168.288 69.6H164.796C165.192 67.872 166.542 67.062 167.676 67.062ZM173.683 67.44H175.393V73.38C175.393 74.73 175.933 75.27 176.833 75.27C177.823 75.27 178.327 74.064 178.363 73.938C178.345 73.974 177.913 74.64 177.193 74.64C176.563 74.64 176.293 74.1 176.293 73.38V67.44H178.363V66.9H176.293V65.01L173.683 67.44ZM182.059 63.3C182.059 63.804 182.455 64.2 182.959 64.2H183.049L182.149 66.27C183.769 64.29 183.859 63.93 183.859 63.3C183.859 62.796 183.463 62.4 182.959 62.4C182.455 62.4 182.059 62.796 182.059 63.3ZM193.034 66.63L192.314 67.35C192.314 67.35 191.684 66.63 190.424 66.63C188.984 66.63 187.814 67.476 187.814 68.79C187.814 71.508 192.674 70.752 192.674 73.074C192.674 74.28 191.594 74.73 190.784 74.73C190.244 74.73 189.254 74.568 188.678 73.38L187.904 71.76V75.27L188.534 74.208C188.552 74.262 189.11 75.27 190.784 75.27C192.224 75.27 193.484 74.406 193.484 72.786C193.484 69.816 188.534 70.5 188.534 68.52C188.534 67.8 189.236 67.17 190.424 67.17C191.684 67.17 192.224 67.98 192.224 67.98L193.034 69.438V66.63ZM202.926 67.44H204.636V73.38C204.636 74.73 205.176 75.27 206.076 75.27C207.066 75.27 207.57 74.064 207.606 73.938C207.588 73.974 207.156 74.64 206.436 74.64C205.806 74.64 205.536 74.1 205.536 73.38V67.44H207.606V66.9H205.536V65.01L202.926 67.44ZM213.263 70.662C212.039 71.094 210.941 71.94 210.941 73.2C210.941 74.478 211.751 75.27 212.993 75.27C213.713 75.27 214.325 74.91 214.739 74.64L216.071 73.758C216.071 74.712 216.071 75.27 216.701 75.27C217.331 75.27 218.591 73.74 218.591 73.74L216.971 74.37V69.24C216.971 67.71 216.323 66.63 214.361 66.63C213.281 66.63 211.247 67.62 211.247 68.736C211.247 69.258 211.553 69.492 211.895 69.492C212.237 69.492 212.543 69.294 212.543 68.736C212.543 68.484 212.507 68.304 212.507 68.16C212.507 67.71 213.083 67.17 214.181 67.17C215.171 67.17 216.071 67.638 216.071 69.24V69.69L213.263 70.662ZM214.955 73.92C214.433 74.262 213.983 74.604 213.281 74.604C212.381 74.604 211.895 73.884 211.895 73.11C211.895 72.12 212.345 71.508 213.911 70.95L216.071 70.194V73.182L214.955 73.92ZM222.457 63.3V74.19L221.017 75H224.797L223.357 74.19V62.13L221.017 62.85L222.457 63.3ZM230.008 62.13L227.668 62.85L229.108 63.3V74.19L227.668 75H231.448L230.008 74.19V62.13ZM234.472 75H236.218L234.94 74.19L231.124 70.446L234.022 67.71L236.038 66.9H232.258L233.338 67.62L230.098 70.698L234.472 75ZM247.797 70.662C246.573 71.094 245.475 71.94 245.475 73.2C245.475 74.478 246.285 75.27 247.527 75.27C248.247 75.27 248.859 74.91 249.273 74.64L250.605 73.758C250.605 74.712 250.605 75.27 251.235 75.27C251.865 75.27 253.125 73.74 253.125 73.74L251.505 74.37V69.24C251.505 67.71 250.857 66.63 248.895 66.63C247.815 66.63 245.781 67.62 245.781 68.736C245.781 69.258 246.087 69.492 246.429 69.492C246.771 69.492 247.077 69.294 247.077 68.736C247.077 68.484 247.041 68.304 247.041 68.16C247.041 67.71 247.617 67.17 248.715 67.17C249.705 67.17 250.605 67.638 250.605 69.24V69.69L247.797 70.662ZM249.489 73.92C248.967 74.262 248.517 74.604 247.815 74.604C246.915 74.604 246.429 73.884 246.429 73.11C246.429 72.12 246.879 71.508 248.445 70.95L250.605 70.194V73.182L249.489 73.92ZM256.271 75.27L256.991 73.65C256.991 73.65 257.711 75.27 259.691 75.27C261.311 75.27 263.201 74.01 263.201 70.95C263.201 67.62 261.491 66.63 259.871 66.63C257.981 66.63 257.171 68.34 257.171 68.34V62.13L254.831 62.85L256.271 63.3V75.27ZM257.171 69.24C257.171 69.24 257.801 67.17 259.601 67.17C260.969 67.17 262.211 68.25 262.211 70.95C262.211 73.47 260.969 74.73 259.601 74.73C258.071 74.73 257.171 73.56 257.171 72.21V69.24ZM269.953 67.116C271.447 67.116 273.067 68.43 273.067 71.418C273.067 73.542 271.789 74.784 270.457 74.784C268.981 74.784 267.343 73.47 267.343 70.482C267.343 68.322 268.639 67.116 269.953 67.116ZM266.353 70.95C266.353 73.38 267.703 75.27 270.205 75.27C272.527 75.27 274.057 73.38 274.057 70.95C274.057 68.52 272.707 66.63 270.205 66.63C267.883 66.63 266.353 68.52 266.353 70.95ZM283.418 67.8V73.056C282.878 73.722 281.798 74.586 280.718 74.586C279.548 74.586 279.008 73.74 279.008 72.3V66.63L276.668 67.35L278.108 67.8V72.57C278.108 74.55 279.098 75.27 280.358 75.27C281.618 75.27 282.788 74.28 283.418 73.596V75.27L285.758 74.55L284.318 74.1V66.63L281.978 67.35L283.418 67.8ZM288.19 67.44H289.9V73.38C289.9 74.73 290.44 75.27 291.34 75.27C292.33 75.27 292.834 74.064 292.87 73.938C292.852 73.974 292.42 74.64 291.7 74.64C291.07 74.64 290.8 74.1 290.8 73.38V67.44H292.87V66.9H290.8V65.01L288.19 67.44ZM302.232 67.44H303.942V73.38C303.942 74.73 304.482 75.27 305.382 75.27C306.372 75.27 306.876 74.064 306.912 73.938C306.894 73.974 306.462 74.64 305.742 74.64C305.112 74.64 304.842 74.1 304.842 73.38V67.44H306.912V66.9H304.842V65.01L302.232 67.44ZM311.507 63.3V74.19L310.067 75H313.847L312.407 74.19V68.844C312.947 68.178 314.027 67.314 315.107 67.314C316.277 67.314 316.817 68.16 316.817 69.6V74.19L315.377 75H319.157L317.717 74.19V69.33C317.717 67.35 316.727 66.63 315.467 66.63C314.207 66.63 313.037 67.62 312.407 68.304V62.13L310.067 62.85L311.507 63.3ZM328.874 70.14C328.874 68.16 328.064 66.63 325.778 66.63C323.636 66.63 321.854 68.322 321.854 70.95C321.854 73.38 323.294 75.27 325.634 75.27C328.334 75.27 328.874 72.66 328.874 72.66C328.874 72.66 328.064 74.46 326.084 74.46C324.284 74.46 322.754 73.344 322.754 70.662C322.754 70.482 322.754 70.32 322.772 70.14H328.874ZM325.742 67.062C327.002 67.062 327.884 67.89 327.884 68.79C327.884 69.51 327.254 69.6 326.354 69.6H322.862C323.258 67.872 324.608 67.062 325.742 67.062ZM51.33 92.29L51.96 91.93H56.64L57.9 94.54V91.3H48.63L50.43 92.29V102.01L48.63 103H58.17V99.76L56.91 102.37H51.96L51.33 102.01V97.24H54.3L55.38 98.95V94.9L54.3 96.61H51.33V92.29ZM63.2058 91.3V102.19L61.7658 103H65.5458L64.1058 102.19V90.13L61.7658 90.85L63.2058 91.3ZM75.5273 98.14C75.5273 96.16 74.7173 94.63 72.4313 94.63C70.2893 94.63 68.5073 96.322 68.5073 98.95C68.5073 101.38 69.9473 103.27 72.2873 103.27C74.9873 103.27 75.5273 100.66 75.5273 100.66C75.5273 100.66 74.7173 102.46 72.7373 102.46C70.9373 102.46 69.4073 101.344 69.4073 98.662C69.4073 98.482 69.4073 98.32 69.4253 98.14H75.5273ZM72.3953 95.062C73.6553 95.062 74.5373 95.89 74.5373 96.79C74.5373 97.51 73.9073 97.6 73.0073 97.6H69.5153C69.9113 95.872 71.2613 95.062 72.3953 95.062ZM79.9324 105.97L78.4924 106.78H82.2724L80.8324 105.97V101.848C80.8864 101.974 81.5524 103.27 83.3524 103.27C84.9724 103.27 86.8624 102.01 86.8624 98.95C86.8624 95.62 85.1524 94.63 83.5324 94.63C81.6424 94.63 80.8324 96.34 80.8324 96.34V94.63L78.4924 95.35L79.9324 95.8V105.97ZM80.8324 97.24C80.8324 97.24 81.4624 95.17 83.2624 95.17C84.6304 95.17 85.8724 96.25 85.8724 98.95C85.8724 101.47 84.6304 102.73 83.2624 102.73C81.7324 102.73 80.8324 101.56 80.8324 100.21V97.24ZM91.3695 91.3V102.19L89.9295 103H93.7095L92.2695 102.19V96.844C92.8095 96.178 93.8895 95.314 94.9695 95.314C96.1395 95.314 96.6795 96.16 96.6795 97.6V102.19L95.2395 103H99.0195L97.5795 102.19V97.33C97.5795 95.35 96.5895 94.63 95.3295 94.63C94.0695 94.63 92.8995 95.62 92.2695 96.304V90.13L89.9295 90.85L91.3695 91.3ZM104.128 98.662C102.904 99.094 101.806 99.94 101.806 101.2C101.806 102.478 102.616 103.27 103.858 103.27C104.578 103.27 105.19 102.91 105.604 102.64L106.936 101.758C106.936 102.712 106.936 103.27 107.566 103.27C108.196 103.27 109.456 101.74 109.456 101.74L107.836 102.37V97.24C107.836 95.71 107.188 94.63 105.226 94.63C104.146 94.63 102.112 95.62 102.112 96.736C102.112 97.258 102.418 97.492 102.76 97.492C103.102 97.492 103.408 97.294 103.408 96.736C103.408 96.484 103.372 96.304 103.372 96.16C103.372 95.71 103.948 95.17 105.046 95.17C106.036 95.17 106.936 95.638 106.936 97.24V97.69L104.128 98.662ZM105.82 101.92C105.298 102.262 104.848 102.604 104.146 102.604C103.246 102.604 102.76 101.884 102.76 101.11C102.76 100.12 103.21 99.508 104.776 98.95L106.936 98.194V101.182L105.82 101.92ZM113.411 95.8V102.19L111.971 103H115.751L114.311 102.19V96.844C114.851 96.178 115.931 95.314 117.011 95.314C118.181 95.314 118.721 96.16 118.721 97.6V102.19L117.281 103H121.061L119.621 102.19V97.33C119.621 95.35 118.631 94.63 117.371 94.63C116.111 94.63 114.941 95.62 114.311 96.304V94.63L111.971 95.35L113.411 95.8ZM123.395 95.44H125.105V101.38C125.105 102.73 125.645 103.27 126.545 103.27C127.535 103.27 128.039 102.064 128.075 101.938C128.057 101.974 127.625 102.64 126.905 102.64C126.275 102.64 126.005 102.1 126.005 101.38V95.44H128.075V94.9H126.005V93.01L123.395 95.44ZM137.797 95.35L140.137 94.63V102.19L141.577 103H137.797L139.237 102.19V95.8L137.797 95.35ZM138.607 91.93C138.607 92.434 139.003 92.83 139.507 92.83C140.011 92.83 140.407 92.434 140.407 91.93C140.407 91.426 140.011 91.03 139.507 91.03C139.003 91.03 138.607 91.426 138.607 91.93ZM145.994 95.8V102.19L144.554 103H148.334L146.894 102.19V96.844C147.434 96.178 148.514 95.314 149.594 95.314C150.764 95.314 151.304 96.16 151.304 97.6V102.19L149.864 103H153.644L152.204 102.19V97.33C152.204 95.35 151.214 94.63 149.954 94.63C148.694 94.63 147.524 95.62 146.894 96.304V94.63L144.554 95.35L145.994 95.8ZM162.454 95.44H164.164V101.38C164.164 102.73 164.704 103.27 165.604 103.27C166.594 103.27 167.098 102.064 167.134 101.938C167.116 101.974 166.684 102.64 165.964 102.64C165.334 102.64 165.064 102.1 165.064 101.38V95.44H167.134V94.9H165.064V93.01L162.454 95.44ZM171.73 91.3V102.19L170.29 103H174.07L172.63 102.19V96.844C173.17 96.178 174.25 95.314 175.33 95.314C176.5 95.314 177.04 96.16 177.04 97.6V102.19L175.6 103H179.38L177.94 102.19V97.33C177.94 95.35 176.95 94.63 175.69 94.63C174.43 94.63 173.26 95.62 172.63 96.304V90.13L170.29 90.85L171.73 91.3ZM189.096 98.14C189.096 96.16 188.286 94.63 186 94.63C183.858 94.63 182.076 96.322 182.076 98.95C182.076 101.38 183.516 103.27 185.856 103.27C188.556 103.27 189.096 100.66 189.096 100.66C189.096 100.66 188.286 102.46 186.306 102.46C184.506 102.46 182.976 101.344 182.976 98.662C182.976 98.482 182.976 98.32 182.994 98.14H189.096ZM185.964 95.062C187.224 95.062 188.106 95.89 188.106 96.79C188.106 97.51 187.476 97.6 186.576 97.6H183.084C183.48 95.872 184.83 95.062 185.964 95.062ZM200.247 95.8V102.19L198.807 103H202.587L201.147 102.19V97.06C201.957 96.16 202.641 95.602 203.001 95.602C203.595 95.602 203.505 96.16 204.135 96.16C204.567 96.16 204.837 95.854 204.837 95.476C204.837 94.936 204.477 94.63 203.847 94.63C203.343 94.63 202.911 94.828 202.353 95.368L201.147 96.52V94.63L198.807 95.35L200.247 95.8ZM211.502 95.116C212.996 95.116 214.616 96.43 214.616 99.418C214.616 101.542 213.338 102.784 212.006 102.784C210.53 102.784 208.892 101.47 208.892 98.482C208.892 96.322 210.188 95.116 211.502 95.116ZM207.902 98.95C207.902 101.38 209.252 103.27 211.754 103.27C214.076 103.27 215.606 101.38 215.606 98.95C215.606 96.52 214.256 94.63 211.754 94.63C209.432 94.63 207.902 96.52 207.902 98.95ZM222.267 95.116C223.761 95.116 225.381 96.43 225.381 99.418C225.381 101.542 224.103 102.784 222.771 102.784C221.295 102.784 219.657 101.47 219.657 98.482C219.657 96.322 220.953 95.116 222.267 95.116ZM218.667 98.95C218.667 101.38 220.017 103.27 222.519 103.27C224.841 103.27 226.371 101.38 226.371 98.95C226.371 96.52 225.021 94.63 222.519 94.63C220.197 94.63 218.667 96.52 218.667 98.95ZM237.082 96.844C237.622 96.178 238.702 95.314 239.782 95.314C240.952 95.314 241.492 96.16 241.492 97.6V102.19L240.052 103H243.832L242.392 102.19V97.33C242.392 95.35 241.402 94.63 240.142 94.63C238.882 94.63 237.712 95.62 236.992 96.412C236.704 95.116 235.84 94.63 234.832 94.63C233.572 94.63 232.402 95.62 231.772 96.304V94.63L229.432 95.35L230.872 95.8V102.19L229.432 103H233.212L231.772 102.19V96.844C232.312 96.178 233.392 95.314 234.472 95.314C235.642 95.314 236.182 96.16 236.182 97.6V102.19L234.742 103H238.522L237.082 102.19V96.844ZM246.975 102.19C246.975 102.694 247.371 103.09 247.875 103.09C248.379 103.09 248.775 102.694 248.775 102.19C248.775 101.686 248.379 101.29 247.875 101.29C247.371 101.29 246.975 101.686 246.975 102.19ZM51.33 153.24H53.76L54.84 154.95V150.9L53.76 152.61H51.33V148.29L51.96 147.93H56.28L57.54 150.54V147.3H48.63L50.43 148.29V158.01L48.63 159H53.31L51.33 158.01V153.24ZM63.1179 151.116C64.6119 151.116 66.2319 152.43 66.2319 155.418C66.2319 157.542 64.9539 158.784 63.6219 158.784C62.1459 158.784 60.5079 157.47 60.5079 154.482C60.5079 152.322 61.8039 151.116 63.1179 151.116ZM59.5179 154.95C59.5179 157.38 60.8679 159.27 63.3699 159.27C65.6919 159.27 67.2219 157.38 67.2219 154.95C67.2219 152.52 65.8719 150.63 63.3699 150.63C61.0479 150.63 59.5179 152.52 59.5179 154.95ZM71.7227 151.8V158.19L70.2827 159H74.0627L72.6227 158.19V153.06C73.4327 152.16 74.1167 151.602 74.4767 151.602C75.0707 151.602 74.9807 152.16 75.6107 152.16C76.0427 152.16 76.3127 151.854 76.3127 151.476C76.3127 150.936 75.9527 150.63 75.3227 150.63C74.8187 150.63 74.3867 150.828 73.8287 151.368L72.6227 152.52V150.63L70.2827 151.35L71.7227 151.8ZM85.8534 151.35L88.1934 150.63V158.19L89.6334 159H85.8534L87.2934 158.19V151.8L85.8534 151.35ZM86.6634 147.93C86.6634 148.434 87.0594 148.83 87.5634 148.83C88.0674 148.83 88.4634 148.434 88.4634 147.93C88.4634 147.426 88.0674 147.03 87.5634 147.03C87.0594 147.03 86.6634 147.426 86.6634 147.93ZM92.3405 151.44H94.0505V158.19L92.6105 159H96.5705L94.9505 158.19V151.44H97.0205V150.9H94.9505V150.18C94.9505 147.66 95.4545 146.76 96.1745 146.76C96.8045 146.76 96.6965 147.75 97.5065 147.75C97.8665 147.75 98.1905 147.498 98.1905 147.048C98.1905 146.4 97.4345 146.13 96.8945 146.13C95.0945 146.13 94.0505 147.75 94.0505 150.9H92.3405V151.44ZM109.44 148.29L111.24 147.3H106.74L108.54 148.29V158.01L106.74 159H111.24L109.44 158.01V148.29ZM124.669 151.062C126.199 151.062 126.361 151.98 126.361 152.16C126.361 152.448 126.199 152.502 126.199 152.898C126.199 153.294 126.451 153.564 126.883 153.564C127.333 153.564 127.567 153.204 127.567 152.736C127.567 151.746 126.505 150.63 124.705 150.63C122.563 150.63 120.781 152.34 120.781 154.95C120.781 157.38 122.221 159.27 124.561 159.27C127.261 159.27 127.801 156.66 127.801 156.66C127.801 156.66 126.991 158.46 125.011 158.46C123.211 158.46 121.681 157.344 121.681 154.662C121.681 152.196 123.409 151.062 124.669 151.062ZM133.272 154.662C132.048 155.094 130.95 155.94 130.95 157.2C130.95 158.478 131.76 159.27 133.002 159.27C133.722 159.27 134.334 158.91 134.748 158.64L136.08 157.758C136.08 158.712 136.08 159.27 136.71 159.27C137.34 159.27 138.6 157.74 138.6 157.74L136.98 158.37V153.24C136.98 151.71 136.332 150.63 134.37 150.63C133.29 150.63 131.256 151.62 131.256 152.736C131.256 153.258 131.562 153.492 131.904 153.492C132.246 153.492 132.552 153.294 132.552 152.736C132.552 152.484 132.516 152.304 132.516 152.16C132.516 151.71 133.092 151.17 134.19 151.17C135.18 151.17 136.08 151.638 136.08 153.24V153.69L133.272 154.662ZM134.964 157.92C134.442 158.262 133.992 158.604 133.29 158.604C132.39 158.604 131.904 157.884 131.904 157.11C131.904 156.12 132.354 155.508 133.92 154.95L136.08 154.194V157.182L134.964 157.92ZM142.556 151.8V158.19L141.116 159H144.896L143.456 158.19V152.844C143.996 152.178 145.076 151.314 146.156 151.314C147.326 151.314 147.866 152.16 147.866 153.6V158.19L146.426 159H150.206L148.766 158.19V153.33C148.766 151.35 147.776 150.63 146.516 150.63C145.256 150.63 144.086 151.62 143.456 152.304V150.63L141.116 151.35L142.556 151.8ZM154.34 151.8V158.19L152.9 159H156.68L155.24 158.19V152.844C155.78 152.178 156.86 151.314 157.94 151.314C159.11 151.314 159.65 152.16 159.65 153.6V158.19L158.21 159H161.99L160.55 158.19V153.33C160.55 151.35 159.56 150.63 158.3 150.63C157.04 150.63 155.87 151.62 155.24 152.304V150.63L152.9 151.35L154.34 151.8ZM168.284 151.116C169.778 151.116 171.398 152.43 171.398 155.418C171.398 157.542 170.12 158.784 168.788 158.784C167.312 158.784 165.674 157.47 165.674 154.482C165.674 152.322 166.97 151.116 168.284 151.116ZM164.684 154.95C164.684 157.38 166.034 159.27 168.536 159.27C170.858 159.27 172.388 157.38 172.388 154.95C172.388 152.52 171.038 150.63 168.536 150.63C166.214 150.63 164.684 152.52 164.684 154.95ZM175.089 151.44H176.799V157.38C176.799 158.73 177.339 159.27 178.239 159.27C179.229 159.27 179.733 158.064 179.769 157.938C179.751 157.974 179.319 158.64 178.599 158.64C177.969 158.64 177.699 158.1 177.699 157.38V151.44H179.769V150.9H177.699V149.01L175.089 151.44ZM183.465 158.19C183.465 158.694 183.861 159.09 184.365 159.09H184.455L183.555 161.16C185.175 159.18 185.265 158.82 185.265 158.19C185.265 157.686 184.869 157.29 184.365 157.29C183.861 157.29 183.465 157.686 183.465 158.19ZM194.886 151.44H196.596V157.38C196.596 158.73 197.136 159.27 198.036 159.27C199.026 159.27 199.53 158.064 199.566 157.938C199.548 157.974 199.116 158.64 198.396 158.64C197.766 158.64 197.496 158.1 197.496 157.38V151.44H199.566V150.9H197.496V149.01L194.886 151.44ZM204.161 147.3V158.19L202.721 159H206.501L205.061 158.19V152.844C205.601 152.178 206.681 151.314 207.761 151.314C208.931 151.314 209.471 152.16 209.471 153.6V158.19L208.031 159H211.811L210.371 158.19V153.33C210.371 151.35 209.381 150.63 208.121 150.63C206.861 150.63 205.691 151.62 205.061 152.304V146.13L202.721 146.85L204.161 147.3ZM221.528 154.14C221.528 152.16 220.718 150.63 218.432 150.63C216.29 150.63 214.508 152.322 214.508 154.95C214.508 157.38 215.948 159.27 218.288 159.27C220.988 159.27 221.528 156.66 221.528 156.66C221.528 156.66 220.718 158.46 218.738 158.46C216.938 158.46 215.408 157.344 215.408 154.662C215.408 154.482 215.408 154.32 215.426 154.14H221.528ZM218.396 151.062C219.656 151.062 220.538 151.89 220.538 152.79C220.538 153.51 219.908 153.6 219.008 153.6H215.516C215.912 151.872 217.262 151.062 218.396 151.062ZM226.203 151.8V158.19L224.763 159H228.543L227.103 158.19V152.844C227.643 152.178 228.723 151.314 229.803 151.314C230.973 151.314 231.513 152.16 231.513 153.6V158.19L230.073 159H233.853L232.413 158.19V153.33C232.413 151.35 231.423 150.63 230.163 150.63C228.903 150.63 227.733 151.62 227.103 152.304V150.63L224.763 151.35L226.203 151.8ZM252.167 150.9H248.567L250.007 151.62L247.721 157.344L244.985 151.62L246.425 150.9H242.393L244.013 151.71L247.271 158.46L246.281 160.98C246.065 161.502 245.831 161.952 245.597 161.952C245.273 161.952 245.291 161.394 244.679 161.394C244.301 161.394 243.959 161.7 243.959 162.168C243.959 162.69 244.355 163.05 244.949 163.05C245.615 163.05 246.245 162.546 246.821 161.088L250.547 151.71L252.167 150.9ZM257.933 151.116C259.427 151.116 261.047 152.43 261.047 155.418C261.047 157.542 259.769 158.784 258.437 158.784C256.961 158.784 255.323 157.47 255.323 154.482C255.323 152.322 256.619 151.116 257.933 151.116ZM254.333 154.95C254.333 157.38 255.683 159.27 258.185 159.27C260.507 159.27 262.037 157.38 262.037 154.95C262.037 152.52 260.687 150.63 258.185 150.63C255.863 150.63 254.333 152.52 254.333 154.95ZM271.398 151.8V157.056C270.858 157.722 269.778 158.586 268.698 158.586C267.528 158.586 266.988 157.74 266.988 156.3V150.63L264.648 151.35L266.088 151.8V156.57C266.088 158.55 267.078 159.27 268.338 159.27C269.598 159.27 270.768 158.28 271.398 157.596V159.27L273.738 158.55L272.298 158.1V150.63L269.958 151.35L271.398 151.8ZM285.418 154.662C284.194 155.094 283.096 155.94 283.096 157.2C283.096 158.478 283.906 159.27 285.148 159.27C285.868 159.27 286.48 158.91 286.894 158.64L288.226 157.758C288.226 158.712 288.226 159.27 288.856 159.27C289.486 159.27 290.746 157.74 290.746 157.74L289.126 158.37V153.24C289.126 151.71 288.478 150.63 286.516 150.63C285.436 150.63 283.402 151.62 283.402 152.736C283.402 153.258 283.708 153.492 284.05 153.492C284.392 153.492 284.698 153.294 284.698 152.736C284.698 152.484 284.662 152.304 284.662 152.16C284.662 151.71 285.238 151.17 286.336 151.17C287.326 151.17 288.226 151.638 288.226 153.24V153.69L285.418 154.662ZM287.11 157.92C286.588 158.262 286.138 158.604 285.436 158.604C284.536 158.604 284.05 157.884 284.05 157.11C284.05 156.12 284.5 155.508 286.066 154.95L288.226 154.194V157.182L287.11 157.92ZM294.701 151.8V158.19L293.261 159H297.041L295.601 158.19V153.06C296.411 152.16 297.095 151.602 297.455 151.602C298.049 151.602 297.959 152.16 298.589 152.16C299.021 152.16 299.291 151.854 299.291 151.476C299.291 150.936 298.931 150.63 298.301 150.63C297.797 150.63 297.365 150.828 296.807 151.368L295.601 152.52V150.63L293.261 151.35L294.701 151.8ZM309.376 154.14C309.376 152.16 308.566 150.63 306.28 150.63C304.138 150.63 302.356 152.322 302.356 154.95C302.356 157.38 303.796 159.27 306.136 159.27C308.836 159.27 309.376 156.66 309.376 156.66C309.376 156.66 308.566 158.46 306.586 158.46C304.786 158.46 303.256 157.344 303.256 154.662C303.256 154.482 303.256 154.32 303.274 154.14H309.376ZM306.244 151.062C307.504 151.062 308.386 151.89 308.386 152.79C308.386 153.51 307.756 153.6 306.856 153.6H303.364C303.76 151.872 305.11 151.062 306.244 151.062ZM320.437 147.3V158.19L318.997 159H322.777L321.337 158.19V146.13L318.997 146.85L320.437 147.3ZM332.759 154.14C332.759 152.16 331.949 150.63 329.663 150.63C327.521 150.63 325.739 152.322 325.739 154.95C325.739 157.38 327.179 159.27 329.519 159.27C332.219 159.27 332.759 156.66 332.759 156.66C332.759 156.66 331.949 158.46 329.969 158.46C328.169 158.46 326.639 157.344 326.639 154.662C326.639 154.482 326.639 154.32 326.657 154.14H332.759ZM329.627 151.062C330.887 151.062 331.769 151.89 331.769 152.79C331.769 153.51 331.139 153.6 330.239 153.6H326.747C327.143 151.872 328.493 151.062 329.627 151.062ZM338.406 154.662C337.182 155.094 336.084 155.94 336.084 157.2C336.084 158.478 336.894 159.27 338.136 159.27C338.856 159.27 339.468 158.91 339.882 158.64L341.214 157.758C341.214 158.712 341.214 159.27 341.844 159.27C342.474 159.27 343.734 157.74 343.734 157.74L342.114 158.37V153.24C342.114 151.71 341.466 150.63 339.504 150.63C338.424 150.63 336.39 151.62 336.39 152.736C336.39 153.258 336.696 153.492 337.038 153.492C337.38 153.492 337.686 153.294 337.686 152.736C337.686 152.484 337.65 152.304 337.65 152.16C337.65 151.71 338.226 151.17 339.324 151.17C340.314 151.17 341.214 151.638 341.214 153.24V153.69L338.406 154.662ZM340.098 157.92C339.576 158.262 339.126 158.604 338.424 158.604C337.524 158.604 337.038 157.884 337.038 157.11C337.038 156.12 337.488 155.508 339.054 154.95L341.214 154.194V157.182L340.098 157.92ZM346.887 151.71L350.127 159.27L353.367 151.71L354.987 150.9H351.387L352.827 151.62L350.307 157.434L347.823 151.62L349.263 150.9H345.267L346.887 151.71ZM357.418 151.35L359.758 150.63V158.19L361.198 159H357.418L358.858 158.19V151.8L357.418 151.35ZM358.228 147.93C358.228 148.434 358.624 148.83 359.128 148.83C359.632 148.83 360.028 148.434 360.028 147.93C360.028 147.426 359.632 147.03 359.128 147.03C358.624 147.03 358.228 147.426 358.228 147.93ZM365.615 151.8V158.19L364.175 159H367.955L366.515 158.19V152.844C367.055 152.178 368.135 151.314 369.215 151.314C370.385 151.314 370.925 152.16 370.925 153.6V158.19L369.485 159H373.265L371.825 158.19V153.33C371.825 151.35 370.835 150.63 369.575 150.63C368.315 150.63 367.145 151.62 366.515 152.304V150.63L364.175 151.35L365.615 151.8ZM376.499 153.51C376.499 154.698 377.129 155.724 378.263 156.156C377.489 156.3 376.589 156.696 376.589 157.74C376.589 158.352 377.057 158.82 377.543 158.964C376.931 159.072 375.779 159.36 375.779 160.62C375.779 161.7 376.769 163.05 379.559 163.05C382.439 163.05 383.969 161.25 383.969 159.9C383.969 158.55 383.069 158.1 382.169 158.1H378.119C377.849 158.1 377.399 158.01 377.399 157.47C377.399 156.534 378.911 156.39 379.559 156.39C381.449 156.39 382.619 155.094 382.619 153.51C382.619 152.178 381.809 151.44 381.809 151.44C381.809 151.44 382.439 151.62 382.889 151.62C383.609 151.62 383.879 151.206 383.879 150.72C383.879 150.36 383.627 150 383.123 150C382.691 150 382.439 150.324 382.439 150.702C382.439 150.936 382.619 151.17 382.169 151.17C381.449 151.17 380.819 150.63 379.559 150.63C377.669 150.63 376.499 151.926 376.499 153.51ZM382.169 159C382.799 159 383.339 159.27 383.339 159.99C383.339 160.8 382.349 162.24 379.739 162.24C377.489 162.24 376.679 161.25 376.679 160.35C376.679 159.108 378.425 159.018 378.461 159H382.169ZM377.489 153.51C377.489 151.98 378.425 151.08 379.559 151.08C380.693 151.08 381.629 151.98 381.629 153.51C381.629 155.04 380.693 155.94 379.559 155.94C378.425 155.94 377.489 155.04 377.489 153.51ZM56.28 180.844C56.82 180.178 57.9 179.314 58.98 179.314C60.15 179.314 60.69 180.16 60.69 181.6V186.19L59.25 187H63.03L61.59 186.19V181.33C61.59 179.35 60.6 178.63 59.34 178.63C58.08 178.63 56.91 179.62 56.19 180.412C55.902 179.116 55.038 178.63 54.03 178.63C52.77 178.63 51.6 179.62 50.97 180.304V178.63L48.63 179.35L50.07 179.8V186.19L48.63 187H52.41L50.97 186.19V180.844C51.51 180.178 52.59 179.314 53.67 179.314C54.84 179.314 55.38 180.16 55.38 181.6V186.19L53.94 187H57.72L56.28 186.19V180.844ZM72.743 182.14C72.743 180.16 71.933 178.63 69.647 178.63C67.505 178.63 65.723 180.322 65.723 182.95C65.723 185.38 67.163 187.27 69.503 187.27C72.203 187.27 72.743 184.66 72.743 184.66C72.743 184.66 71.933 186.46 69.953 186.46C68.153 186.46 66.623 185.344 66.623 182.662C66.623 182.482 66.623 182.32 66.641 182.14H72.743ZM69.611 179.062C70.871 179.062 71.753 179.89 71.753 180.79C71.753 181.51 71.123 181.6 70.223 181.6H66.731C67.127 179.872 68.477 179.062 69.611 179.062ZM76.968 186.19C76.968 186.694 77.364 187.09 77.868 187.09C78.372 187.09 78.768 186.694 78.768 186.19C78.768 185.686 78.372 185.29 77.868 185.29C77.364 185.29 76.968 185.686 76.968 186.19ZM81.648 186.19C81.648 186.694 82.044 187.09 82.548 187.09C83.052 187.09 83.448 186.694 83.448 186.19C83.448 185.686 83.052 185.29 82.548 185.29C82.044 185.29 81.648 185.686 81.648 186.19ZM86.328 186.19C86.328 186.694 86.724 187.09 87.228 187.09C87.732 187.09 88.128 186.694 88.128 186.19C88.128 185.686 87.732 185.29 87.228 185.29C86.724 185.29 86.328 185.686 86.328 186.19ZM92.273 186.19C92.273 186.694 92.669 187.09 93.173 187.09C93.677 187.09 94.073 186.694 94.073 186.19C94.073 185.686 93.677 185.29 93.173 185.29C92.669 185.29 92.273 185.686 92.273 186.19ZM106.466 182.662C105.242 183.094 104.144 183.94 104.144 185.2C104.144 186.478 104.954 187.27 106.196 187.27C106.916 187.27 107.528 186.91 107.942 186.64L109.274 185.758C109.274 186.712 109.274 187.27 109.904 187.27C110.534 187.27 111.794 185.74 111.794 185.74L110.174 186.37V181.24C110.174 179.71 109.526 178.63 107.564 178.63C106.484 178.63 104.45 179.62 104.45 180.736C104.45 181.258 104.756 181.492 105.098 181.492C105.44 181.492 105.746 181.294 105.746 180.736C105.746 180.484 105.71 180.304 105.71 180.16C105.71 179.71 106.286 179.17 107.384 179.17C108.374 179.17 109.274 179.638 109.274 181.24V181.69L106.466 182.662ZM108.158 185.92C107.636 186.262 107.186 186.604 106.484 186.604C105.584 186.604 105.098 185.884 105.098 185.11C105.098 184.12 105.548 183.508 107.114 182.95L109.274 182.194V185.182L108.158 185.92ZM115.659 175.3V186.19L114.219 187H117.999L116.559 186.19V174.13L114.219 174.85L115.659 175.3ZM124.56 179.116C126.054 179.116 127.674 180.43 127.674 183.418C127.674 185.542 126.396 186.784 125.064 186.784C123.588 186.784 121.95 185.47 121.95 182.482C121.95 180.322 123.246 179.116 124.56 179.116ZM120.96 182.95C120.96 185.38 122.31 187.27 124.812 187.27C127.134 187.27 128.664 185.38 128.664 182.95C128.664 180.52 127.314 178.63 124.812 178.63C122.49 178.63 120.96 180.52 120.96 182.95ZM133.165 179.8V186.19L131.725 187H135.505L134.065 186.19V180.844C134.605 180.178 135.685 179.314 136.765 179.314C137.935 179.314 138.475 180.16 138.475 181.6V186.19L137.035 187H140.815L139.375 186.19V181.33C139.375 179.35 138.385 178.63 137.125 178.63C135.865 178.63 134.695 179.62 134.065 180.304V178.63L131.725 179.35L133.165 179.8ZM150.53 182.14C150.53 180.16 149.72 178.63 147.434 178.63C145.292 178.63 143.51 180.322 143.51 182.95C143.51 185.38 144.95 187.27 147.29 187.27C149.99 187.27 150.53 184.66 150.53 184.66C150.53 184.66 149.72 186.46 147.74 186.46C145.94 186.46 144.41 185.344 144.41 182.662C144.41 182.482 144.41 182.32 144.428 182.14H150.53ZM147.398 179.062C148.658 179.062 149.54 179.89 149.54 180.79C149.54 181.51 148.91 181.6 148.01 181.6H144.518C144.914 179.872 146.264 179.062 147.398 179.062ZM154.755 186.19C154.755 186.694 155.151 187.09 155.655 187.09C156.159 187.09 156.555 186.694 156.555 186.19C156.555 185.686 156.159 185.29 155.655 185.29C155.151 185.29 154.755 185.686 154.755 186.19ZM159.435 186.19C159.435 186.694 159.831 187.09 160.335 187.09C160.839 187.09 161.235 186.694 161.235 186.19C161.235 185.686 160.839 185.29 160.335 185.29C159.831 185.29 159.435 185.686 159.435 186.19ZM164.115 186.19C164.115 186.694 164.511 187.09 165.015 187.09C165.519 187.09 165.915 186.694 165.915 186.19C165.915 185.686 165.519 185.29 165.015 185.29C164.511 185.29 164.115 185.686 164.115 186.19ZM170.06 186.19C170.06 186.694 170.456 187.09 170.96 187.09C171.464 187.09 171.86 186.694 171.86 186.19C171.86 185.686 171.464 185.29 170.96 185.29C170.456 185.29 170.06 185.686 170.06 186.19ZM181.841 179.35L184.181 178.63V186.19L185.621 187H181.841L183.281 186.19V179.8L181.841 179.35ZM182.651 175.93C182.651 176.434 183.047 176.83 183.551 176.83C184.055 176.83 184.451 176.434 184.451 175.93C184.451 175.426 184.055 175.03 183.551 175.03C183.047 175.03 182.651 175.426 182.651 175.93ZM190.038 179.8V186.19L188.598 187H192.378L190.938 186.19V180.844C191.478 180.178 192.558 179.314 193.638 179.314C194.808 179.314 195.348 180.16 195.348 181.6V186.19L193.908 187H197.688L196.248 186.19V181.33C196.248 179.35 195.258 178.63 193.998 178.63C192.738 178.63 191.568 179.62 190.938 180.304V178.63L188.598 179.35L190.038 179.8ZM209.27 182.662C208.046 183.094 206.948 183.94 206.948 185.2C206.948 186.478 207.758 187.27 209 187.27C209.72 187.27 210.332 186.91 210.746 186.64L212.078 185.758C212.078 186.712 212.078 187.27 212.708 187.27C213.338 187.27 214.598 185.74 214.598 185.74L212.978 186.37V181.24C212.978 179.71 212.33 178.63 210.368 178.63C209.288 178.63 207.254 179.62 207.254 180.736C207.254 181.258 207.56 181.492 207.902 181.492C208.244 181.492 208.55 181.294 208.55 180.736C208.55 180.484 208.514 180.304 208.514 180.16C208.514 179.71 209.09 179.17 210.188 179.17C211.178 179.17 212.078 179.638 212.078 181.24V181.69L209.27 182.662ZM210.962 185.92C210.44 186.262 209.99 186.604 209.288 186.604C208.388 186.604 207.902 185.884 207.902 185.11C207.902 184.12 208.352 183.508 209.918 182.95L212.078 182.194V185.182L210.962 185.92ZM225.029 179.8V186.19L223.589 187H227.369L225.929 186.19V181.06C226.739 180.16 227.423 179.602 227.783 179.602C228.377 179.602 228.287 180.16 228.917 180.16C229.349 180.16 229.619 179.854 229.619 179.476C229.619 178.936 229.259 178.63 228.629 178.63C228.125 178.63 227.693 178.828 227.135 179.368L225.929 180.52V178.63L223.589 179.35L225.029 179.8ZM236.284 179.116C237.778 179.116 239.398 180.43 239.398 183.418C239.398 185.542 238.12 186.784 236.788 186.784C235.312 186.784 233.674 185.47 233.674 182.482C233.674 180.322 234.97 179.116 236.284 179.116ZM232.684 182.95C232.684 185.38 234.034 187.27 236.536 187.27C238.858 187.27 240.388 185.38 240.388 182.95C240.388 180.52 239.038 178.63 236.536 178.63C234.214 178.63 232.684 180.52 232.684 182.95ZM247.048 179.116C248.542 179.116 250.162 180.43 250.162 183.418C250.162 185.542 248.884 186.784 247.552 186.784C246.076 186.784 244.438 185.47 244.438 182.482C244.438 180.322 245.734 179.116 247.048 179.116ZM243.448 182.95C243.448 185.38 244.798 187.27 247.3 187.27C249.622 187.27 251.152 185.38 251.152 182.95C251.152 180.52 249.802 178.63 247.3 178.63C244.978 178.63 243.448 180.52 243.448 182.95ZM261.863 180.844C262.403 180.178 263.483 179.314 264.563 179.314C265.733 179.314 266.273 180.16 266.273 181.6V186.19L264.833 187H268.613L267.173 186.19V181.33C267.173 179.35 266.183 178.63 264.923 178.63C263.663 178.63 262.493 179.62 261.773 180.412C261.485 179.116 260.621 178.63 259.613 178.63C258.353 178.63 257.183 179.62 256.553 180.304V178.63L254.213 179.35L255.653 179.8V186.19L254.213 187H257.993L256.553 186.19V180.844C257.093 180.178 258.173 179.314 259.253 179.314C260.423 179.314 260.963 180.16 260.963 181.6V186.19L259.523 187H263.303L261.863 186.19V180.844ZM272.296 186.19C272.296 186.694 272.692 187.09 273.196 187.09C273.7 187.09 274.096 186.694 274.096 186.19C274.096 185.686 273.7 185.29 273.196 185.29C272.692 185.29 272.296 185.686 272.296 186.19ZM276.976 186.19C276.976 186.694 277.372 187.09 277.876 187.09C278.38 187.09 278.776 186.694 278.776 186.19C278.776 185.686 278.38 185.29 277.876 185.29C277.372 185.29 276.976 185.686 276.976 186.19ZM281.656 186.19C281.656 186.694 282.052 187.09 282.556 187.09C283.06 187.09 283.456 186.694 283.456 186.19C283.456 185.686 283.06 185.29 282.556 185.29C282.052 185.29 281.656 185.686 281.656 186.19ZM287.601 186.19C287.601 186.694 287.997 187.09 288.501 187.09C289.005 187.09 289.401 186.694 289.401 186.19C289.401 185.686 289.005 185.29 288.501 185.29C287.997 185.29 287.601 185.686 287.601 186.19ZM311.892 178.9H308.31L309.75 179.62L307.968 185.074L305.538 178.63L303.054 185.11L301.29 179.62L302.73 178.9H298.752L300.372 179.71L302.802 187.27L305.34 180.664L307.842 187.27L310.272 179.71L311.892 178.9ZM314.33 179.35L316.67 178.63V186.19L318.11 187H314.33L315.77 186.19V179.8L314.33 179.35ZM315.14 175.93C315.14 176.434 315.536 176.83 316.04 176.83C316.544 176.83 316.94 176.434 316.94 175.93C316.94 175.426 316.544 175.03 316.04 175.03C315.536 175.03 315.14 175.426 315.14 175.93ZM320.727 179.44H322.437V185.38C322.437 186.73 322.977 187.27 323.877 187.27C324.867 187.27 325.371 186.064 325.407 185.938C325.389 185.974 324.957 186.64 324.237 186.64C323.607 186.64 323.337 186.1 323.337 185.38V179.44H325.407V178.9H323.337V177.01L320.727 179.44ZM330.003 175.3V186.19L328.563 187H332.343L330.903 186.19V180.844C331.443 180.178 332.523 179.314 333.603 179.314C334.773 179.314 335.313 180.16 335.313 181.6V186.19L333.873 187H337.653L336.213 186.19V181.33C336.213 179.35 335.223 178.63 333.963 178.63C332.703 178.63 331.533 179.62 330.903 180.304V174.13L328.563 174.85L330.003 175.3ZM349.237 182.662C348.013 183.094 346.915 183.94 346.915 185.2C346.915 186.478 347.725 187.27 348.967 187.27C349.687 187.27 350.299 186.91 350.713 186.64L352.045 185.758C352.045 186.712 352.045 187.27 352.675 187.27C353.305 187.27 354.565 185.74 354.565 185.74L352.945 186.37V181.24C352.945 179.71 352.297 178.63 350.335 178.63C349.255 178.63 347.221 179.62 347.221 180.736C347.221 181.258 347.527 181.492 347.869 181.492C348.211 181.492 348.517 181.294 348.517 180.736C348.517 180.484 348.481 180.304 348.481 180.16C348.481 179.71 349.057 179.17 350.155 179.17C351.145 179.17 352.045 179.638 352.045 181.24V181.69L349.237 182.662ZM350.929 185.92C350.407 186.262 349.957 186.604 349.255 186.604C348.355 186.604 347.869 185.884 347.869 185.11C347.869 184.12 348.319 183.508 349.885 182.95L352.045 182.194V185.182L350.929 185.92ZM358.52 179.8V186.19L357.08 187H360.86L359.42 186.19V180.844C359.96 180.178 361.04 179.314 362.12 179.314C363.29 179.314 363.83 180.16 363.83 181.6V186.19L362.39 187H366.17L364.73 186.19V181.33C364.73 179.35 363.74 178.63 362.48 178.63C361.22 178.63 360.05 179.62 359.42 180.304V178.63L357.08 179.35L358.52 179.8ZM51.33 204.29L51.96 203.93H56.64L57.9 206.54V203.3H48.63L50.43 204.29V214.01L48.63 215H58.17V211.76L56.91 214.37H51.96L51.33 214.01V209.24H54.3L55.38 210.95V206.9L54.3 208.61H51.33V204.29ZM63.2058 203.3V214.19L61.7658 215H65.5458L64.1058 214.19V202.13L61.7658 202.85L63.2058 203.3ZM75.5273 210.14C75.5273 208.16 74.7173 206.63 72.4313 206.63C70.2893 206.63 68.5073 208.322 68.5073 210.95C68.5073 213.38 69.9473 215.27 72.2873 215.27C74.9873 215.27 75.5273 212.66 75.5273 212.66C75.5273 212.66 74.7173 214.46 72.7373 214.46C70.9373 214.46 69.4073 213.344 69.4073 210.662C69.4073 210.482 69.4073 210.32 69.4253 210.14H75.5273ZM72.3953 207.062C73.6553 207.062 74.5373 207.89 74.5373 208.79C74.5373 209.51 73.9073 209.6 73.0073 209.6H69.5153C69.9113 207.872 71.2613 207.062 72.3953 207.062ZM79.9324 217.97L78.4924 218.78H82.2724L80.8324 217.97V213.848C80.8864 213.974 81.5524 215.27 83.3524 215.27C84.9724 215.27 86.8624 214.01 86.8624 210.95C86.8624 207.62 85.1524 206.63 83.5324 206.63C81.6424 206.63 80.8324 208.34 80.8324 208.34V206.63L78.4924 207.35L79.9324 207.8V217.97ZM80.8324 209.24C80.8324 209.24 81.4624 207.17 83.2624 207.17C84.6304 207.17 85.8724 208.25 85.8724 210.95C85.8724 213.47 84.6304 214.73 83.2624 214.73C81.7324 214.73 80.8324 213.56 80.8324 212.21V209.24ZM91.3695 203.3V214.19L89.9295 215H93.7095L92.2695 214.19V208.844C92.8095 208.178 93.8895 207.314 94.9695 207.314C96.1395 207.314 96.6795 208.16 96.6795 209.6V214.19L95.2395 215H99.0195L97.5795 214.19V209.33C97.5795 207.35 96.5895 206.63 95.3295 206.63C94.0695 206.63 92.8995 207.62 92.2695 208.304V202.13L89.9295 202.85L91.3695 203.3ZM104.128 210.662C102.904 211.094 101.806 211.94 101.806 213.2C101.806 214.478 102.616 215.27 103.858 215.27C104.578 215.27 105.19 214.91 105.604 214.64L106.936 213.758C106.936 214.712 106.936 215.27 107.566 215.27C108.196 215.27 109.456 213.74 109.456 213.74L107.836 214.37V209.24C107.836 207.71 107.188 206.63 105.226 206.63C104.146 206.63 102.112 207.62 102.112 208.736C102.112 209.258 102.418 209.492 102.76 209.492C103.102 209.492 103.408 209.294 103.408 208.736C103.408 208.484 103.372 208.304 103.372 208.16C103.372 207.71 103.948 207.17 105.046 207.17C106.036 207.17 106.936 207.638 106.936 209.24V209.69L104.128 210.662ZM105.82 213.92C105.298 214.262 104.848 214.604 104.146 214.604C103.246 214.604 102.76 213.884 102.76 213.11C102.76 212.12 103.21 211.508 104.776 210.95L106.936 210.194V213.182L105.82 213.92ZM113.411 207.8V214.19L111.971 215H115.751L114.311 214.19V208.844C114.851 208.178 115.931 207.314 117.011 207.314C118.181 207.314 118.721 208.16 118.721 209.6V214.19L117.281 215H121.061L119.621 214.19V209.33C119.621 207.35 118.631 206.63 117.371 206.63C116.111 206.63 114.941 207.62 114.311 208.304V206.63L111.971 207.35L113.411 207.8ZM123.395 207.44H125.105V213.38C125.105 214.73 125.645 215.27 126.545 215.27C127.535 215.27 128.039 214.064 128.075 213.938C128.057 213.974 127.625 214.64 126.905 214.64C126.275 214.64 126.005 214.1 126.005 213.38V207.44H128.075V206.9H126.005V205.01L123.395 207.44ZM131.771 214.19C131.771 214.694 132.167 215.09 132.671 215.09C133.175 215.09 133.571 214.694 133.571 214.19C133.571 213.686 133.175 213.29 132.671 213.29C132.167 213.29 131.771 213.686 131.771 214.19Z" fill="black"/>
<path d="M91.6437 262.682H95.1717V261.842H91.6437V262.682ZM103.845 266H104.741L104.755 256.732H107.961V255.892H100.569V256.732H103.831L103.845 266ZM114.981 262.682C114.981 260.484 114.127 258.762 111.775 258.762C109.689 258.762 108.639 260.582 108.639 262.486C108.639 264.404 109.619 266.21 111.719 266.21C113.413 266.21 114.463 265.44 114.897 263.76H114.015C113.805 264.726 112.979 265.44 111.985 265.44C110.263 265.44 109.577 264.18 109.549 262.682H114.981ZM109.577 261.912C109.689 260.68 110.417 259.532 111.789 259.532C113.245 259.532 113.973 260.554 114.071 261.912H109.577ZM119.078 261.772C119.106 260.428 119.764 259.532 121.01 259.532C121.178 259.532 121.36 259.574 121.528 259.588V258.776C121.248 258.762 120.968 258.748 120.688 258.762C119.988 258.79 119.358 259.294 119.106 260.008H119.078L119.036 258.972H118.168C118.196 259.448 118.252 260.008 118.238 260.554V266H119.078V261.772ZM125.004 261.772C125.032 260.428 125.69 259.532 126.936 259.532C127.104 259.532 127.286 259.574 127.454 259.588V258.776C127.174 258.762 126.894 258.748 126.614 258.762C125.914 258.79 125.284 259.294 125.032 260.008H125.004L124.962 258.972H124.094C124.122 259.448 124.178 260.008 124.164 260.554V266H125.004V261.772ZM129.778 258.972L132.69 266L131.626 268.688H132.55L136.428 258.972H135.518L133.166 264.852L130.8 258.972H129.778ZM145.743 266L145.757 260.722L150.601 266H151.847L146.765 260.456L151.427 255.892H150.279L145.757 260.344L145.743 255.892H144.847V266H145.743ZM160.09 262.682C160.09 260.484 159.236 258.762 156.884 258.762C154.798 258.762 153.748 260.582 153.748 262.486C153.748 264.404 154.728 266.21 156.828 266.21C158.522 266.21 159.572 265.44 160.006 263.76H159.124C158.914 264.726 158.088 265.44 157.094 265.44C155.372 265.44 154.686 264.18 154.658 262.682H160.09ZM154.686 261.912C154.798 260.68 155.526 259.532 156.898 259.532C158.354 259.532 159.082 260.554 159.18 261.912H154.686ZM163.949 264.124C163.949 265.076 163.851 266.21 165.629 266.21C165.909 266.21 166.217 266.154 166.483 266.084V265.356C166.259 265.426 166.007 265.44 165.755 265.44C165.111 265.44 164.775 265.09 164.789 264.446V259.742H166.385V258.972H164.789V257.11L163.949 257.474V258.972H162.549V259.742H163.949V264.124ZM169.314 264.124C169.314 265.076 169.216 266.21 170.994 266.21C171.274 266.21 171.582 266.154 171.848 266.084V265.356C171.624 265.426 171.372 265.44 171.12 265.44C170.476 265.44 170.14 265.09 170.154 264.446V259.742H171.75V258.972H170.154V257.11L169.314 257.474V258.972H167.914V259.742H169.314V264.124ZM180.696 262.682C180.696 260.484 179.842 258.762 177.49 258.762C175.404 258.762 174.354 260.582 174.354 262.486C174.354 264.404 175.334 266.21 177.434 266.21C179.128 266.21 180.178 265.44 180.612 263.76H179.73C179.52 264.726 178.694 265.44 177.7 265.44C175.978 265.44 175.292 264.18 175.264 262.682H180.696ZM175.292 261.912C175.404 260.68 176.132 259.532 177.504 259.532C178.96 259.532 179.688 260.554 179.786 261.912H175.292ZM184.794 261.772C184.822 260.428 185.48 259.532 186.726 259.532C186.894 259.532 187.076 259.574 187.244 259.588V258.776C186.964 258.762 186.684 258.748 186.404 258.762C185.704 258.79 185.074 259.294 184.822 260.008H184.794L184.752 258.972H183.884C183.912 259.448 183.968 260.008 183.954 260.554V266H184.794V261.772ZM190.03 258.972V266H190.87V258.972H190.03ZM190.94 255.892H189.96V256.942H190.94V255.892ZM195.359 261.954C195.359 260.694 195.989 259.532 197.375 259.532C198.523 259.532 199.223 260.246 199.223 261.464V266H200.063V261.604C200.063 260.792 199.881 258.762 197.585 258.762C196.675 258.762 195.877 259.168 195.387 260.036L195.359 260.008L195.317 258.972H194.449C194.477 259.448 194.519 260.008 194.519 260.554V266H195.359V261.954ZM208.543 262.332C208.543 263.704 207.927 265.202 206.317 265.202C204.777 265.202 204.119 263.648 204.119 262.36C204.119 261.072 204.763 259.532 206.289 259.532C207.801 259.532 208.543 260.988 208.543 262.332ZM208.543 260.008L208.515 260.064C207.955 259.252 207.227 258.762 206.205 258.762C204.063 258.762 203.209 260.526 203.209 262.43C203.209 264.362 204.119 265.972 206.233 265.972C207.143 265.972 208.109 265.482 208.515 264.656H208.543V265.972C208.515 267.148 207.507 267.918 206.415 267.918C205.519 267.918 204.525 267.638 204.427 266.798H203.517C203.517 268.254 205.029 268.688 206.303 268.688C206.961 268.688 207.339 268.632 207.899 268.366C209.453 267.638 209.383 266.168 209.383 264.768V260.554C209.383 260.008 209.425 259.448 209.453 258.972H208.585L208.543 260.008ZM213.459 264.866L212.857 267.736H213.585L214.593 264.866H213.459ZM224.415 266H225.311L225.325 256.732H228.531V255.892H221.139V256.732H224.401L224.415 266ZM231.808 255.892H230.968V266H231.808V261.954C231.808 260.694 232.438 259.532 233.824 259.532C234.972 259.532 235.672 260.246 235.672 261.464V266H236.512V261.604C236.512 260.792 236.33 258.762 234.034 258.762C233.124 258.762 232.326 259.168 231.836 260.036H231.808V255.892ZM246.07 262.682C246.07 260.484 245.216 258.762 242.864 258.762C240.778 258.762 239.728 260.582 239.728 262.486C239.728 264.404 240.708 266.21 242.808 266.21C244.502 266.21 245.552 265.44 245.986 263.76H245.104C244.894 264.726 244.068 265.44 243.074 265.44C241.352 265.44 240.666 264.18 240.638 262.682H246.07ZM240.666 261.912C240.778 260.68 241.506 259.532 242.878 259.532C244.334 259.532 245.062 260.554 245.16 261.912H240.666ZM261.148 266V265.16H255.842V261.198H260.742V260.358H255.842V256.732H260.938V255.892H254.932V266H261.148ZM265.436 255.892H264.596V266H265.436V255.892ZM275.008 262.682C275.008 260.484 274.154 258.762 271.802 258.762C269.716 258.762 268.666 260.582 268.666 262.486C268.666 264.404 269.646 266.21 271.746 266.21C273.44 266.21 274.49 265.44 274.924 263.76H274.042C273.832 264.726 273.006 265.44 272.012 265.44C270.29 265.44 269.604 264.18 269.576 262.682H275.008ZM269.604 261.912C269.716 260.68 270.444 259.532 271.816 259.532C273.272 259.532 274 260.554 274.098 261.912H269.604ZM278.965 262.318C278.965 260.89 279.595 259.532 281.233 259.532C282.829 259.532 283.375 261.016 283.375 262.36C283.375 263.662 282.969 265.44 281.359 265.44C279.525 265.44 278.965 263.914 278.965 262.318ZM278.965 264.908H278.993C279.567 265.748 280.421 266.21 281.443 266.21C283.487 266.21 284.285 264.222 284.285 262.458C284.285 260.638 283.487 258.762 281.401 258.762C280.463 258.762 279.483 259.21 278.993 260.036L278.965 260.008L278.923 258.972H278.055C278.083 259.448 278.139 260.008 278.125 260.554V268.688H278.965V264.908ZM288.284 255.892H287.444V266H288.284V261.954C288.284 260.694 288.914 259.532 290.3 259.532C291.448 259.532 292.148 260.246 292.148 261.464V266H292.988V261.604C292.988 260.792 292.806 258.762 290.51 258.762C289.6 258.762 288.802 259.168 288.312 260.036H288.284V255.892ZM296.918 264.04C296.918 262.276 299.41 262.5 300.6 262.458C300.684 263.928 300.334 265.44 298.5 265.44C297.646 265.44 296.918 264.992 296.918 264.04ZM300.6 261.688C299.578 261.744 298.36 261.604 297.422 262.01C296.582 262.36 296.008 263.088 296.008 264.04C296.008 265.412 297.044 266.21 298.346 266.21C299.298 266.21 300.236 265.65 300.544 265.062L300.586 264.964H300.614L300.642 266H301.51C301.482 265.524 301.426 264.964 301.44 264.418V261.086C301.468 259.476 300.502 258.762 298.948 258.762C297.604 258.762 296.526 259.308 296.316 260.75H297.212C297.324 259.798 298.052 259.532 298.934 259.532C299.928 259.532 300.516 259.896 300.6 261.044V261.688ZM305.864 261.954C305.864 260.694 306.494 259.532 307.88 259.532C309.028 259.532 309.728 260.246 309.728 261.464V266H310.568V261.604C310.568 260.792 310.386 258.762 308.09 258.762C307.18 258.762 306.382 259.168 305.892 260.036L305.864 260.008L305.822 258.972H304.954C304.982 259.448 305.024 260.008 305.024 260.554V266H305.864V261.954ZM314.805 264.124C314.805 265.076 314.707 266.21 316.485 266.21C316.765 266.21 317.073 266.154 317.339 266.084V265.356C317.115 265.426 316.863 265.44 316.611 265.44C315.967 265.44 315.631 265.09 315.645 264.446V259.742H317.241V258.972H315.645V257.11L314.805 257.474V258.972H313.405V259.742H314.805V264.124ZM325.575 258.972V266H326.415V258.972H325.575ZM326.485 255.892H325.505V256.942H326.485V255.892ZM330.905 261.954C330.905 260.694 331.535 259.532 332.921 259.532C334.069 259.532 334.769 260.246 334.769 261.464V266H335.609V261.604C335.609 260.792 335.427 258.762 333.131 258.762C332.221 258.762 331.423 259.168 330.933 260.036L330.905 260.008L330.863 258.972H329.995C330.023 259.448 330.065 260.008 330.065 260.554V266H330.905V261.954ZM345.143 264.124C345.143 265.076 345.045 266.21 346.823 266.21C347.103 266.21 347.411 266.154 347.677 266.084V265.356C347.453 265.426 347.201 265.44 346.949 265.44C346.305 265.44 345.969 265.09 345.983 264.446V259.742H347.579V258.972H345.983V257.11L345.143 257.474V258.972H343.743V259.742H345.143V264.124ZM351.443 255.892H350.603V266H351.443V261.954C351.443 260.694 352.073 259.532 353.459 259.532C354.607 259.532 355.307 260.246 355.307 261.464V266H356.147V261.604C356.147 260.792 355.965 258.762 353.669 258.762C352.759 258.762 351.961 259.168 351.471 260.036H351.443V255.892ZM365.704 262.682C365.704 260.484 364.85 258.762 362.498 258.762C360.412 258.762 359.362 260.582 359.362 262.486C359.362 264.404 360.342 266.21 362.442 266.21C364.136 266.21 365.186 265.44 365.62 263.76H364.738C364.528 264.726 363.702 265.44 362.708 265.44C360.986 265.44 360.3 264.18 360.272 262.682H365.704ZM360.3 261.912C360.412 260.68 361.14 259.532 362.512 259.532C363.968 259.532 364.696 260.554 364.794 261.912H360.3ZM375.098 261.772C375.126 260.428 375.784 259.532 377.03 259.532C377.198 259.532 377.38 259.574 377.548 259.588V258.776C377.268 258.762 376.988 258.748 376.708 258.762C376.008 258.79 375.378 259.294 375.126 260.008H375.098L375.056 258.972H374.188C374.216 259.448 374.272 260.008 374.258 260.554V266H375.098V261.772ZM385.458 262.486C385.458 263.788 384.786 265.44 383.092 265.44C381.398 265.44 380.726 263.788 380.726 262.486C380.726 261.184 381.398 259.532 383.092 259.532C384.786 259.532 385.458 261.184 385.458 262.486ZM383.092 258.762C380.852 258.762 379.816 260.638 379.816 262.486C379.816 264.334 380.852 266.21 383.092 266.21C385.332 266.21 386.368 264.334 386.368 262.486C386.368 260.638 385.332 258.762 383.092 258.762ZM394.637 262.486C394.637 263.788 393.965 265.44 392.271 265.44C390.577 265.44 389.905 263.788 389.905 262.486C389.905 261.184 390.577 259.532 392.271 259.532C393.965 259.532 394.637 261.184 394.637 262.486ZM392.271 258.762C390.031 258.762 388.995 260.638 388.995 262.486C388.995 264.334 390.031 266.21 392.271 266.21C394.511 266.21 395.547 264.334 395.547 262.486C395.547 260.638 394.511 258.762 392.271 258.762ZM399.463 258.972H398.595C398.623 259.448 398.665 260.008 398.665 260.554V266H399.505V261.954C399.505 260.694 400.135 259.532 401.521 259.532C402.669 259.532 403.369 260.246 403.369 261.464V266H404.209V261.954C404.209 260.694 404.839 259.532 406.225 259.532C407.373 259.532 408.073 260.246 408.073 261.464V266H408.913V261.604C408.913 260.792 408.731 258.762 406.435 258.762C405.343 258.762 404.531 259.476 404.013 260.302C403.705 259.378 402.837 258.762 401.731 258.762C400.821 258.762 400.023 259.168 399.533 260.036L399.505 260.008L399.463 258.972Z" fill="black"/>
</svg>
