<svg width="447" height="22" viewBox="0 0 447 22" fill="none" xmlns="http://www.w3.org/2000/svg">
<rect width="447" height="22" fill="black" fill-opacity="0.69"/>
<path d="M11.4791 3.892L8.28712 14H9.18312L9.98112 11.34H13.9431L14.7551 14H15.6931L12.5431 3.892H11.4791ZM10.2471 10.584L11.9551 4.872H11.9831L13.7051 10.584H10.2471ZM26.6039 12.138C26.6039 9.772 23.4259 10.248 23.4259 8.484C23.4259 7.854 23.9019 7.462 24.5039 7.462C25.4559 7.462 25.6939 7.938 25.7359 8.834H26.5619C26.5619 7.756 26.1139 6.79 24.7139 6.79C23.4819 6.79 22.5859 7.252 22.5859 8.554C22.5859 10.892 25.7639 10.416 25.7639 12.264C25.7639 13.048 25.3719 13.51 24.5599 13.51C23.4819 13.51 23.2579 12.866 23.2579 11.9H22.4039C22.3899 13.398 22.9919 14.14 24.5179 14.14C25.8339 14.14 26.6039 13.468 26.6039 12.138ZM33.4733 8.96C33.5433 7.476 32.7173 6.79 31.4993 6.79C30.5333 6.79 29.7353 7.154 29.3713 8.162C29.1893 8.694 29.1613 9.8 29.1613 10.5C29.1613 12.25 29.1613 14.14 31.5553 14.14C32.2133 14.14 33.5573 13.818 33.4873 11.914H32.6473C32.6053 12.768 32.4653 13.468 31.3593 13.468C30.0573 13.468 30.0573 11.774 30.0573 10.5C30.0573 9.562 30.1413 8.596 30.2533 8.274C30.4353 7.756 30.8693 7.462 31.3873 7.462C32.3533 7.462 32.6753 8.078 32.6333 8.96H33.4733ZM41.0147 10.64C41.0147 8.54 41.0147 6.79 38.5787 6.79C36.9967 6.79 36.1427 7.728 36.1427 9.772V11.508C36.1427 13.65 37.3607 14.14 38.5787 14.14C39.9927 14.14 40.9167 13.552 41.0147 11.844H40.1327C40.1467 12.796 39.6287 13.468 38.5787 13.468C37.2487 13.468 36.9827 12.166 36.9827 11.186V10.64H41.0147ZM36.9827 9.968C36.9827 8.4 37.2347 7.462 38.5787 7.462C39.9227 7.462 40.1747 8.4 40.1747 9.968H36.9827ZM44.7854 9.562C44.7854 7.98 45.5554 7.462 46.3114 7.462C47.2914 7.462 47.6134 8.232 47.6134 9.058V14H48.4534V9.016C48.4534 8.092 48.2714 6.79 46.5214 6.79C45.7654 6.79 45.2194 7.21 44.8134 7.798H44.7854V6.93H43.9454V14H44.7854V9.562ZM56.2562 10.64C56.2562 8.54 56.2562 6.79 53.8202 6.79C52.2382 6.79 51.3842 7.728 51.3842 9.772V11.508C51.3842 13.65 52.6022 14.14 53.8202 14.14C55.2342 14.14 56.1582 13.552 56.2562 11.844H55.3742C55.3882 12.796 54.8702 13.468 53.8202 13.468C52.4902 13.468 52.2242 12.166 52.2242 11.186V10.64H56.2562ZM52.2242 9.968C52.2242 8.4 52.4762 7.462 53.8202 7.462C55.1642 7.462 55.4162 8.4 55.4162 9.968H52.2242ZM64.2364 14H65.0764V7.602H66.5044V6.93H65.0764V5.726C65.0764 5.32 65.0764 4.592 65.8884 4.592H66.5184V3.892C66.3084 3.864 66.1684 3.836 66.0424 3.836C64.3344 3.836 64.2364 5.068 64.2364 5.74V6.93H63.1024V7.602H64.2364V14ZM69.8829 6.93H69.0429V14H69.8829V9.45C69.8829 8.26 70.6669 7.546 71.8569 7.644V6.79C71.0029 6.79 70.2609 7.21 69.9109 7.882H69.8829V6.93ZM76.5373 14.14C78.1893 14.14 78.9733 13.062 78.9733 11.228V9.702C78.9733 7.868 78.1893 6.79 76.5373 6.79C74.8853 6.79 74.1013 7.868 74.1013 9.702V11.228C74.1013 13.062 74.8853 14.14 76.5373 14.14ZM76.5373 7.462C77.9233 7.462 78.1333 8.624 78.1333 10.458C78.1333 12.306 77.9233 13.468 76.5373 13.468C75.1513 13.468 74.9413 12.306 74.9413 10.458C74.9413 8.624 75.1513 7.462 76.5373 7.462ZM82.73 9.45C82.73 8.526 83.136 7.462 84.2 7.462C85.026 7.462 85.278 8.246 85.292 8.946V14H86.132V9.45C86.132 8.526 86.538 7.462 87.602 7.462C88.428 7.462 88.68 8.246 88.694 8.946V14H89.534V8.736C89.492 7.602 88.876 6.79 87.7 6.79C86.916 6.79 86.314 7.196 85.964 7.896C85.726 7.196 85.082 6.79 84.354 6.79C83.57 6.79 83.01 7.224 82.674 7.798H82.646V6.916H81.89V14H82.73V9.45ZM100.743 11.676C100.743 12.6 99.9594 13.468 98.9934 13.468C98.1254 13.468 97.7194 12.81 97.7194 12.012C97.7194 10.29 99.5394 10.43 100.743 10.388V11.676ZM100.799 14H101.667C101.583 13.174 101.583 12.726 101.583 12.222V8.666C101.583 6.86 100.099 6.79 99.3854 6.79C98.1534 6.79 97.1034 7.322 97.0334 8.68H97.9294C97.9294 7.84 98.5454 7.462 99.3154 7.462C100.435 7.462 100.743 8.092 100.743 9.128V9.716C99.3154 9.828 96.8234 9.576 96.8234 12.054C96.8234 13.286 97.5094 14.14 98.7694 14.14C99.6374 14.14 100.323 13.804 100.771 13.132H100.799V14ZM105.606 9.562C105.606 7.98 106.376 7.462 107.132 7.462C108.112 7.462 108.434 8.232 108.434 9.058V14H109.274V9.016C109.274 8.092 109.092 6.79 107.342 6.79C106.586 6.79 106.04 7.21 105.634 7.798H105.606V6.93H104.766V14H105.606V9.562ZM119.144 8.568C117.968 8.568 117.59 7.77 117.59 6.65C117.59 5.502 117.898 4.76 119.144 4.76C120.39 4.76 120.698 5.502 120.698 6.65C120.698 7.77 120.32 8.568 119.144 8.568ZM120.152 8.862C121.37 8.61 121.594 7.63 121.594 6.524C121.594 5.628 121.524 4.088 119.144 4.088C116.764 4.088 116.694 5.628 116.694 6.524C116.694 7.63 116.918 8.61 118.108 8.862L118.136 8.89C116.806 9.184 116.596 10.164 116.596 11.354C116.596 12.628 116.932 14.154 119.144 14.154C121.356 14.154 121.692 12.628 121.692 11.354C121.692 10.164 121.482 9.184 120.152 8.89V8.862ZM119.144 13.482C117.884 13.482 117.492 12.6 117.492 11.466C117.492 10.416 117.604 9.24 119.144 9.24C120.684 9.24 120.796 10.416 120.796 11.466C120.796 12.6 120.404 13.482 119.144 13.482ZM125.169 7.21C125.169 5.012 126.135 4.844 126.765 4.844C127.395 4.844 128.361 5.012 128.361 7.21V11.032C128.361 13.23 127.395 13.398 126.765 13.398C126.135 13.398 125.169 13.23 125.169 11.032V7.21ZM126.765 4.088C124.273 4.088 124.273 6.23 124.273 8.064V10.178C124.273 12.012 124.273 14.154 126.765 14.154C129.257 14.154 129.257 12.012 129.257 10.178V8.064C129.257 6.23 129.257 4.088 126.765 4.088ZM132.034 6.426H132.776L133.616 3.892H132.594L132.034 6.426ZM139.339 12.138C139.339 9.772 136.161 10.248 136.161 8.484C136.161 7.854 136.637 7.462 137.239 7.462C138.191 7.462 138.429 7.938 138.471 8.834H139.297C139.297 7.756 138.849 6.79 137.449 6.79C136.217 6.79 135.321 7.252 135.321 8.554C135.321 10.892 138.499 10.416 138.499 12.264C138.499 13.048 138.107 13.51 137.295 13.51C136.217 13.51 135.993 12.866 135.993 11.9H135.139C135.125 13.398 135.727 14.14 137.253 14.14C138.569 14.14 139.339 13.468 139.339 12.138ZM147.548 9.45C147.548 8.526 147.954 7.462 149.018 7.462C149.844 7.462 150.096 8.246 150.11 8.946V14H150.95V9.45C150.95 8.526 151.356 7.462 152.42 7.462C153.246 7.462 153.498 8.246 153.512 8.946V14H154.352V8.736C154.31 7.602 153.694 6.79 152.518 6.79C151.734 6.79 151.132 7.196 150.782 7.896C150.544 7.196 149.9 6.79 149.172 6.79C148.388 6.79 147.828 7.224 147.492 7.798H147.464V6.916H146.708V14H147.548V9.45ZM159.714 14.14C161.366 14.14 162.15 13.062 162.15 11.228V9.702C162.15 7.868 161.366 6.79 159.714 6.79C158.062 6.79 157.278 7.868 157.278 9.702V11.228C157.278 13.062 158.062 14.14 159.714 14.14ZM159.714 7.462C161.1 7.462 161.31 8.624 161.31 10.458C161.31 12.306 161.1 13.468 159.714 13.468C158.328 13.468 158.118 12.306 158.118 10.458C158.118 8.624 158.328 7.462 159.714 7.462ZM165.277 6.93H164.367L166.467 14H167.433L169.533 6.93H168.721L166.999 12.936H166.971L165.277 6.93ZM173.042 14V6.93H172.202V14H173.042ZM173.14 4.956V3.892H172.104V4.956H173.14ZM181.116 10.64C181.116 8.54 181.116 6.79 178.68 6.79C177.098 6.79 176.244 7.728 176.244 9.772V11.508C176.244 13.65 177.462 14.14 178.68 14.14C180.094 14.14 181.018 13.552 181.116 11.844H180.234C180.248 12.796 179.73 13.468 178.68 13.468C177.35 13.468 177.084 12.166 177.084 11.186V10.64H181.116ZM177.084 9.968C177.084 8.4 177.336 7.462 178.68 7.462C180.024 7.462 180.276 8.4 180.276 9.968H177.084ZM189.054 7.602V12.656C189.054 13.524 189.39 14.028 190.524 14.028C190.79 14.028 191.07 14.014 191.322 13.986V13.258C191.14 13.286 190.944 13.3 190.664 13.3C189.992 13.3 189.894 13.076 189.894 12.138V7.602H191.322V6.93H189.894V5.11L189.054 5.474V6.93H187.92V7.602H189.054ZM194.687 14V9.562C194.687 7.98 195.457 7.462 196.213 7.462C197.193 7.462 197.515 8.232 197.515 9.058V14H198.355V9.016C198.355 8.092 198.173 6.79 196.423 6.79C195.667 6.79 195.121 7.21 194.715 7.798H194.687V3.892H193.847V14H194.687ZM206.157 10.64C206.157 8.54 206.157 6.79 203.721 6.79C202.139 6.79 201.285 7.728 201.285 9.772V11.508C201.285 13.65 202.503 14.14 203.721 14.14C205.135 14.14 206.059 13.552 206.157 11.844H205.275C205.289 12.796 204.771 13.468 203.721 13.468C202.391 13.468 202.125 12.166 202.125 11.186V10.64H206.157ZM202.125 9.968C202.125 8.4 202.377 7.462 203.721 7.462C205.065 7.462 205.317 8.4 205.317 9.968H202.125ZM215.706 13.468C214.796 13.468 214.166 13.118 214.166 10.486C214.166 8.834 214.166 7.462 215.678 7.462C217.26 7.462 217.26 9.422 217.26 9.842V11.102C217.26 12.824 216.504 13.468 215.706 13.468ZM217.344 14H218.156C218.114 13.762 218.072 13.3 218.072 12.6V3.892H217.232V7.644L217.204 7.63C216.77 7.084 216.14 6.79 215.496 6.79C213.326 6.79 213.326 9.1 213.326 10.458C213.326 12.11 213.438 14.14 215.482 14.14C216.308 14.14 216.84 13.79 217.274 13.118L217.302 13.104L217.344 14ZM225.902 10.64C225.902 8.54 225.902 6.79 223.466 6.79C221.884 6.79 221.03 7.728 221.03 9.772V11.508C221.03 13.65 222.248 14.14 223.466 14.14C224.88 14.14 225.804 13.552 225.902 11.844H225.02C225.034 12.796 224.516 13.468 223.466 13.468C222.136 13.468 221.87 12.166 221.87 11.186V10.64H225.902ZM221.87 9.968C221.87 8.4 222.122 7.462 223.466 7.462C224.81 7.462 225.062 8.4 225.062 9.968H221.87ZM229.701 9.828C229.701 8.078 230.653 7.462 231.199 7.462C232.585 7.462 232.795 8.624 232.795 10.458C232.795 12.306 232.585 13.468 231.199 13.468C230.429 13.468 229.701 12.698 229.701 11.088V9.828ZM229.673 6.93H228.861V16.674H229.701V13.202L229.729 13.216C230.163 13.888 230.681 14.14 231.199 14.14C233.005 14.14 233.635 13.062 233.635 11.228V9.646C233.635 8.722 233.621 6.79 231.409 6.79C230.849 6.79 230.149 7.084 229.701 7.77L229.673 7.784V6.93ZM237.574 14V6.93H236.734V14H237.574ZM237.672 4.956V3.892H236.636V4.956H237.672ZM244.947 8.96C245.017 7.476 244.191 6.79 242.973 6.79C242.007 6.79 241.209 7.154 240.845 8.162C240.663 8.694 240.635 9.8 240.635 10.5C240.635 12.25 240.635 14.14 243.029 14.14C243.687 14.14 245.031 13.818 244.961 11.914H244.121C244.079 12.768 243.939 13.468 242.833 13.468C241.531 13.468 241.531 11.774 241.531 10.5C241.531 9.562 241.615 8.596 241.727 8.274C241.909 7.756 242.343 7.462 242.861 7.462C243.827 7.462 244.149 8.078 244.107 8.96H244.947ZM248.303 7.602V12.656C248.303 13.524 248.639 14.028 249.773 14.028C250.039 14.028 250.319 14.014 250.571 13.986V13.258C250.389 13.286 250.193 13.3 249.913 13.3C249.241 13.3 249.143 13.076 249.143 12.138V7.602H250.571V6.93H249.143V5.11L248.303 5.474V6.93H247.169V7.602H248.303ZM257.057 12.138C257.057 9.772 253.879 10.248 253.879 8.484C253.879 7.854 254.355 7.462 254.957 7.462C255.909 7.462 256.147 7.938 256.189 8.834H257.015C257.015 7.756 256.567 6.79 255.167 6.79C253.935 6.79 253.039 7.252 253.039 8.554C253.039 10.892 256.217 10.416 256.217 12.264C256.217 13.048 255.825 13.51 255.013 13.51C253.935 13.51 253.711 12.866 253.711 11.9H252.857C252.843 13.398 253.445 14.14 254.971 14.14C256.287 14.14 257.057 13.468 257.057 12.138ZM265.672 14H266.722L268.206 7.952H268.234L269.788 14H270.838L272.784 6.93H271.944L270.362 13.118H270.334L268.766 6.93H267.73L266.232 13.118H266.204L264.622 6.93H263.726L265.672 14ZM276.018 14V9.562C276.018 7.98 276.788 7.462 277.544 7.462C278.524 7.462 278.846 8.232 278.846 9.058V14H279.686V9.016C279.686 8.092 279.504 6.79 277.754 6.79C276.998 6.79 276.452 7.21 276.046 7.798H276.018V3.892H275.178V14H276.018ZM286.397 11.676C286.397 12.6 285.613 13.468 284.647 13.468C283.779 13.468 283.373 12.81 283.373 12.012C283.373 10.29 285.193 10.43 286.397 10.388V11.676ZM286.453 14H287.321C287.237 13.174 287.237 12.726 287.237 12.222V8.666C287.237 6.86 285.753 6.79 285.039 6.79C283.807 6.79 282.757 7.322 282.687 8.68H283.583C283.583 7.84 284.199 7.462 284.969 7.462C286.089 7.462 286.397 8.092 286.397 9.128V9.716C284.969 9.828 282.477 9.576 282.477 12.054C282.477 13.286 283.163 14.14 284.423 14.14C285.291 14.14 285.977 13.804 286.425 13.132H286.453V14ZM290.923 7.602V12.656C290.923 13.524 291.259 14.028 292.393 14.028C292.659 14.028 292.939 14.014 293.191 13.986V13.258C293.009 13.286 292.813 13.3 292.533 13.3C291.861 13.3 291.763 13.076 291.763 12.138V7.602H293.191V6.93H291.763V5.11L290.923 5.474V6.93H289.789V7.602H290.923ZM303.817 11.676C303.817 12.6 303.033 13.468 302.067 13.468C301.199 13.468 300.793 12.81 300.793 12.012C300.793 10.29 302.613 10.43 303.817 10.388V11.676ZM303.873 14H304.741C304.657 13.174 304.657 12.726 304.657 12.222V8.666C304.657 6.86 303.173 6.79 302.459 6.79C301.227 6.79 300.177 7.322 300.107 8.68H301.003C301.003 7.84 301.619 7.462 302.389 7.462C303.509 7.462 303.817 8.092 303.817 9.128V9.716C302.389 9.828 299.897 9.576 299.897 12.054C299.897 13.286 300.583 14.14 301.843 14.14C302.711 14.14 303.397 13.804 303.845 13.132H303.873V14ZM308.666 9.45C308.666 8.526 309.072 7.462 310.136 7.462C310.962 7.462 311.214 8.246 311.228 8.946V14H312.068V9.45C312.068 8.526 312.474 7.462 313.538 7.462C314.364 7.462 314.616 8.246 314.63 8.946V14H315.47V8.736C315.428 7.602 314.812 6.79 313.636 6.79C312.852 6.79 312.25 7.196 311.9 7.896C311.662 7.196 311.018 6.79 310.29 6.79C309.506 6.79 308.946 7.224 308.61 7.798H308.582V6.916H307.826V14H308.666V9.45ZM323.268 10.64C323.268 8.54 323.268 6.79 320.832 6.79C319.25 6.79 318.396 7.728 318.396 9.772V11.508C318.396 13.65 319.614 14.14 320.832 14.14C322.246 14.14 323.17 13.552 323.268 11.844H322.386C322.4 12.796 321.882 13.468 320.832 13.468C319.502 13.468 319.236 12.166 319.236 11.186V10.64H323.268ZM319.236 9.968C319.236 8.4 319.488 7.462 320.832 7.462C322.176 7.462 322.428 8.4 322.428 9.968H319.236ZM327.095 6.93H326.255V14H327.095V9.45C327.095 8.26 327.879 7.546 329.069 7.644V6.79C328.215 6.79 327.473 7.21 327.123 7.882H327.095V6.93ZM332.615 14V6.93H331.775V14H332.615ZM332.713 4.956V3.892H331.677V4.956H332.713ZM339.989 8.96C340.059 7.476 339.233 6.79 338.015 6.79C337.049 6.79 336.251 7.154 335.887 8.162C335.705 8.694 335.677 9.8 335.677 10.5C335.677 12.25 335.677 14.14 338.071 14.14C338.729 14.14 340.073 13.818 340.003 11.914H339.163C339.121 12.768 338.981 13.468 337.875 13.468C336.573 13.468 336.573 11.774 336.573 10.5C336.573 9.562 336.657 8.596 336.769 8.274C336.951 7.756 337.385 7.462 337.903 7.462C338.869 7.462 339.191 8.078 339.149 8.96H339.989ZM346.438 11.676C346.438 12.6 345.654 13.468 344.688 13.468C343.82 13.468 343.414 12.81 343.414 12.012C343.414 10.29 345.234 10.43 346.438 10.388V11.676ZM346.494 14H347.362C347.278 13.174 347.278 12.726 347.278 12.222V8.666C347.278 6.86 345.794 6.79 345.08 6.79C343.848 6.79 342.798 7.322 342.728 8.68H343.624C343.624 7.84 344.24 7.462 345.01 7.462C346.13 7.462 346.438 8.092 346.438 9.128V9.716C345.01 9.828 342.518 9.576 342.518 12.054C342.518 13.286 343.204 14.14 344.464 14.14C345.332 14.14 346.018 13.804 346.466 13.132H346.494V14ZM351.301 9.562C351.301 7.98 352.071 7.462 352.827 7.462C353.807 7.462 354.129 8.232 354.129 9.058V14H354.969V9.016C354.969 8.092 354.787 6.79 353.037 6.79C352.281 6.79 351.735 7.21 351.329 7.798H351.301V6.93H350.461V14H351.301V9.562ZM363.453 9.828C363.453 8.078 364.405 7.462 364.951 7.462C366.337 7.462 366.547 8.624 366.547 10.458C366.547 12.306 366.337 13.468 364.951 13.468C364.181 13.468 363.453 12.698 363.453 11.088V9.828ZM363.425 6.93H362.613V16.674H363.453V13.202L363.481 13.216C363.915 13.888 364.433 14.14 364.951 14.14C366.757 14.14 367.387 13.062 367.387 11.228V9.646C367.387 8.722 367.373 6.79 365.161 6.79C364.601 6.79 363.901 7.084 363.453 7.77L363.425 7.784V6.93ZM371.102 6.93H370.262V14H371.102V9.45C371.102 8.26 371.886 7.546 373.076 7.644V6.79C372.222 6.79 371.48 7.21 371.13 7.882H371.102V6.93ZM377.756 14.14C379.408 14.14 380.192 13.062 380.192 11.228V9.702C380.192 7.868 379.408 6.79 377.756 6.79C376.104 6.79 375.32 7.868 375.32 9.702V11.228C375.32 13.062 376.104 14.14 377.756 14.14ZM377.756 7.462C379.142 7.462 379.352 8.624 379.352 10.458C379.352 12.306 379.142 13.468 377.756 13.468C376.37 13.468 376.16 12.306 376.16 10.458C376.16 8.624 376.37 7.462 377.756 7.462ZM383.949 9.45C383.949 8.526 384.355 7.462 385.419 7.462C386.245 7.462 386.497 8.246 386.511 8.946V14H387.351V9.45C387.351 8.526 387.757 7.462 388.821 7.462C389.647 7.462 389.899 8.246 389.913 8.946V14H390.753V8.736C390.711 7.602 390.095 6.79 388.919 6.79C388.135 6.79 387.533 7.196 387.183 7.896C386.945 7.196 386.301 6.79 385.573 6.79C384.789 6.79 384.229 7.224 383.893 7.798H383.865V6.916H383.109V14H383.949V9.45ZM399.484 14V6.93H398.644V14H399.484ZM399.582 4.956V3.892H398.546V4.956H399.582ZM406.83 12.138C406.83 9.772 403.652 10.248 403.652 8.484C403.652 7.854 404.128 7.462 404.73 7.462C405.682 7.462 405.92 7.938 405.962 8.834H406.788C406.788 7.756 406.34 6.79 404.94 6.79C403.708 6.79 402.812 7.252 402.812 8.554C402.812 10.892 405.99 10.416 405.99 12.264C405.99 13.048 405.598 13.51 404.786 13.51C403.708 13.51 403.484 12.866 403.484 11.9H402.63C402.616 13.398 403.218 14.14 404.744 14.14C406.06 14.14 406.83 13.468 406.83 12.138ZM415.333 14V3.892H414.493V14H415.333ZM419.836 14V6.93H418.996V14H419.836ZM419.934 4.956V3.892H418.898V4.956H419.934ZM423.248 14H424.088V10.15H424.116L426.636 14H427.7L425.026 10.08L427.532 6.93H426.552L424.116 10.052H424.088V3.892H423.248V14ZM434.751 10.64C434.751 8.54 434.751 6.79 432.315 6.79C430.733 6.79 429.879 7.728 429.879 9.772V11.508C429.879 13.65 431.097 14.14 432.315 14.14C433.729 14.14 434.653 13.552 434.751 11.844H433.869C433.883 12.796 433.365 13.468 432.315 13.468C430.985 13.468 430.719 12.166 430.719 11.186V10.64H434.751ZM430.719 9.968C430.719 8.4 430.971 7.462 432.315 7.462C433.659 7.462 433.911 8.4 433.911 9.968H430.719ZM437.864 14H438.9V12.936H437.864V14Z" fill="white"/>
</svg>
