<svg width="314" height="388" viewBox="0 0 314 388" fill="none" xmlns="http://www.w3.org/2000/svg">
<path d="M144.05 168.8C150.17 168.8 156.29 172.76 156.29 181.76C156.29 192.2 149.45 195.08 144.05 195.08C139.01 195.08 135.266 192.704 135.266 189.464C135.266 188.744 135.914 188.024 135.914 186.8C135.914 185.432 135.41 183.848 133.394 183.848C131.594 183.848 130.73 185.288 130.73 187.16C130.73 191.84 135.77 196.88 144.05 196.88C153.77 196.88 160.25 190.76 160.25 181.76C160.25 172.688 154.49 167 145.562 166.64L160.25 152.6H131.09V161.24L133.97 156.2H153.41L138.65 170.24C138.938 170.024 141.026 168.8 144.05 168.8ZM175.01 181.76C175.01 183.776 176.594 185.36 178.61 185.36C180.626 185.36 182.21 183.776 182.21 181.76C182.21 179.744 180.626 178.16 178.61 178.16C176.594 178.16 175.01 179.744 175.01 181.76Z" fill="white"/>
<path d="M106.009 287.046C105.829 284.706 103.813 283.734 101.689 283.734C97.7652 283.734 96.0912 286.938 96.0912 290.502C96.0912 294.102 97.7472 297.27 101.689 297.27C103.777 297.27 105.775 296.028 106.153 293.85H104.893C104.569 295.47 103.129 296.19 101.689 296.19C98.3592 296.19 97.3512 293.166 97.3512 290.502C97.3512 287.838 98.3592 284.814 101.689 284.814C103.165 284.814 104.533 285.462 104.749 287.046H106.009ZM116.845 292.482C116.845 294.156 115.981 296.28 113.803 296.28C111.625 296.28 110.761 294.156 110.761 292.482C110.761 290.808 111.625 288.684 113.803 288.684C115.981 288.684 116.845 290.808 116.845 292.482ZM113.803 287.694C110.923 287.694 109.591 290.106 109.591 292.482C109.591 294.858 110.923 297.27 113.803 297.27C116.683 297.27 118.015 294.858 118.015 292.482C118.015 290.106 116.683 287.694 113.803 287.694ZM123.049 287.964H121.933C121.969 288.576 122.023 289.296 122.023 289.998V297H123.103V291.798C123.103 290.178 123.913 288.684 125.695 288.684C127.171 288.684 128.071 289.602 128.071 291.168V297H129.151V291.798C129.151 290.178 129.961 288.684 131.743 288.684C133.219 288.684 134.119 289.602 134.119 291.168V297H135.199V291.348C135.199 290.304 134.965 287.694 132.013 287.694C130.609 287.694 129.565 288.612 128.899 289.674C128.503 288.486 127.387 287.694 125.965 287.694C124.795 287.694 123.769 288.216 123.139 289.332L123.103 289.296L123.049 287.964ZM139.855 287.964V297H140.935V287.964H139.855ZM141.025 284.004H139.765V285.354H141.025V284.004ZM146.707 291.798C146.707 290.178 147.517 288.684 149.299 288.684C150.775 288.684 151.675 289.602 151.675 291.168V297H152.755V291.348C152.755 290.304 152.521 287.694 149.569 287.694C148.399 287.694 147.373 288.216 146.743 289.332L146.707 289.296L146.653 287.964H145.537C145.573 288.576 145.627 289.296 145.627 289.998V297H146.707V291.798ZM163.657 292.284C163.657 294.048 162.865 295.974 160.795 295.974C158.815 295.974 157.969 293.976 157.969 292.32C157.969 290.664 158.797 288.684 160.759 288.684C162.703 288.684 163.657 290.556 163.657 292.284ZM163.657 289.296L163.621 289.368C162.901 288.324 161.965 287.694 160.651 287.694C157.897 287.694 156.799 289.962 156.799 292.41C156.799 294.894 157.969 296.964 160.687 296.964C161.857 296.964 163.099 296.334 163.621 295.272H163.657V296.964C163.621 298.476 162.325 299.466 160.921 299.466C159.769 299.466 158.491 299.106 158.365 298.026H157.195C157.195 299.898 159.139 300.456 160.777 300.456C161.623 300.456 162.109 300.384 162.829 300.042C164.827 299.106 164.737 297.216 164.737 295.416V289.998C164.737 289.296 164.791 288.576 164.827 287.964H163.711L163.657 289.296ZM175.735 290.214C175.735 291.888 177.175 292.302 178.597 292.644C180.037 292.968 181.459 293.184 181.459 294.48C181.459 295.74 180.253 296.28 179.101 296.28C177.877 296.28 176.689 295.884 176.599 294.534H175.429C175.465 296.532 177.265 297.27 178.831 297.27C180.739 297.27 182.629 296.352 182.629 294.318C182.629 293.346 182.035 292.536 181.099 292.212C178.651 291.348 176.905 291.474 176.905 290.142C176.905 289.08 177.931 288.684 178.939 288.684C180.055 288.684 181.063 289.062 181.171 290.196H182.341C182.197 288.288 180.757 287.694 179.047 287.694C177.463 287.694 175.735 288.342 175.735 290.214ZM193.447 292.482C193.447 294.156 192.583 296.28 190.405 296.28C188.227 296.28 187.363 294.156 187.363 292.482C187.363 290.808 188.227 288.684 190.405 288.684C192.583 288.684 193.447 290.808 193.447 292.482ZM190.405 287.694C187.525 287.694 186.193 290.106 186.193 292.482C186.193 294.858 187.525 297.27 190.405 297.27C193.285 297.27 194.617 294.858 194.617 292.482C194.617 290.106 193.285 287.694 190.405 287.694ZM205.249 292.482C205.249 294.156 204.385 296.28 202.207 296.28C200.029 296.28 199.165 294.156 199.165 292.482C199.165 290.808 200.029 288.684 202.207 288.684C204.385 288.684 205.249 290.808 205.249 292.482ZM202.207 287.694C199.327 287.694 197.995 290.106 197.995 292.482C197.995 294.858 199.327 297.27 202.207 297.27C205.087 297.27 206.419 294.858 206.419 292.482C206.419 290.106 205.087 287.694 202.207 287.694ZM211.525 291.798C211.525 290.178 212.335 288.684 214.117 288.684C215.593 288.684 216.493 289.602 216.493 291.168V297H217.573V291.348C217.573 290.304 217.339 287.694 214.387 287.694C213.217 287.694 212.191 288.216 211.561 289.332L211.525 289.296L211.471 287.964H210.355C210.391 288.576 210.445 289.296 210.445 289.998V297H211.525V291.798Z" fill="white"/>
<path d="M90.6696 240.03L89.6796 241.02C89.6796 241.02 88.5096 240.03 86.4396 240.03C83.1276 240.03 80.7696 242.37 80.7696 246.24C80.7696 249.75 83.1096 252.27 86.4396 252.27C90.2016 252.27 90.9396 249.3 90.9396 249.3C90.9396 249.3 89.7696 251.64 86.7996 251.64C84.0996 251.64 81.7596 249.75 81.7596 245.88C81.7596 242.46 84.0096 240.57 86.4396 240.57C88.4196 240.57 89.4996 241.74 89.4996 241.74L90.6696 244.44V240.03ZM96.6887 247.662C95.4647 248.094 94.3667 248.94 94.3667 250.2C94.3667 251.478 95.1767 252.27 96.4187 252.27C97.1387 252.27 97.7507 251.91 98.1647 251.64L99.4967 250.758C99.4967 251.712 99.4967 252.27 100.127 252.27C100.757 252.27 102.017 250.74 102.017 250.74L100.397 251.37V246.24C100.397 244.71 99.7487 243.63 97.7867 243.63C96.7067 243.63 94.6727 244.62 94.6727 245.736C94.6727 246.258 94.9787 246.492 95.3207 246.492C95.6627 246.492 95.9687 246.294 95.9687 245.736C95.9687 245.484 95.9327 245.304 95.9327 245.16C95.9327 244.71 96.5087 244.17 97.6067 244.17C98.5967 244.17 99.4967 244.638 99.4967 246.24V246.69L96.6887 247.662ZM98.3807 250.92C97.8587 251.262 97.4087 251.604 96.7067 251.604C95.8067 251.604 95.3207 250.884 95.3207 250.11C95.3207 249.12 95.7707 248.508 97.3367 247.95L99.4967 247.194V250.182L98.3807 250.92ZM105.972 244.8V251.19L104.532 252H108.312L106.872 251.19V245.844C107.412 245.178 108.492 244.314 109.572 244.314C110.742 244.314 111.282 245.16 111.282 246.6V251.19L109.842 252H113.622L112.182 251.19V246.33C112.182 244.35 111.192 243.63 109.932 243.63C108.672 243.63 107.502 244.62 106.872 245.304V243.63L104.532 244.35L105.972 244.8ZM131.936 243.9H128.336L129.776 244.62L127.49 250.344L124.754 244.62L126.194 243.9H122.162L123.782 244.71L127.04 251.46L126.05 253.98C125.834 254.502 125.6 254.952 125.366 254.952C125.042 254.952 125.06 254.394 124.448 254.394C124.07 254.394 123.728 254.7 123.728 255.168C123.728 255.69 124.124 256.05 124.718 256.05C125.384 256.05 126.014 255.546 126.59 254.088L130.316 244.71L131.936 243.9ZM137.702 244.116C139.196 244.116 140.816 245.43 140.816 248.418C140.816 250.542 139.538 251.784 138.206 251.784C136.73 251.784 135.092 250.47 135.092 247.482C135.092 245.322 136.388 244.116 137.702 244.116ZM134.102 247.95C134.102 250.38 135.452 252.27 137.954 252.27C140.276 252.27 141.806 250.38 141.806 247.95C141.806 245.52 140.456 243.63 137.954 243.63C135.632 243.63 134.102 245.52 134.102 247.95ZM151.167 244.8V250.056C150.627 250.722 149.547 251.586 148.467 251.586C147.297 251.586 146.757 250.74 146.757 249.3V243.63L144.417 244.35L145.857 244.8V249.57C145.857 251.55 146.847 252.27 148.107 252.27C149.367 252.27 150.537 251.28 151.167 250.596V252.27L153.507 251.55L152.067 251.1V243.63L149.727 244.35L151.167 244.8ZM170.695 240.03L169.795 240.84C169.795 240.84 168.715 240.03 166.825 240.03C164.395 240.03 163.225 241.344 163.225 242.82C163.225 244.512 164.503 245.25 166.933 246.114C169.435 246.996 170.335 247.68 170.335 249.3C170.335 250.74 169.165 251.73 167.455 251.73C165.475 251.73 164.485 250.65 164.485 250.65L163.315 247.86V252.27L164.179 251.28C164.179 251.28 165.295 252.27 167.455 252.27C169.885 252.27 171.235 250.884 171.235 249.12C171.235 246.78 169.345 245.97 167.113 245.214C164.917 244.476 164.125 243.846 164.125 242.694C164.125 241.614 165.115 240.57 166.825 240.57C168.535 240.57 169.525 241.47 169.525 241.47L170.695 243.9V240.03ZM175.923 254.97L174.483 255.78H178.263L176.823 254.97V250.848C176.877 250.974 177.543 252.27 179.343 252.27C180.963 252.27 182.853 251.01 182.853 247.95C182.853 244.62 181.143 243.63 179.523 243.63C177.633 243.63 176.823 245.34 176.823 245.34V243.63L174.483 244.35L175.923 244.8V254.97ZM176.823 246.24C176.823 246.24 177.453 244.17 179.253 244.17C180.621 244.17 181.863 245.25 181.863 247.95C181.863 250.47 180.621 251.73 179.253 251.73C177.723 251.73 176.823 250.56 176.823 249.21V246.24ZM189.61 244.116C191.104 244.116 192.724 245.43 192.724 248.418C192.724 250.542 191.446 251.784 190.114 251.784C188.638 251.784 187 250.47 187 247.482C187 245.322 188.296 244.116 189.61 244.116ZM186.01 247.95C186.01 250.38 187.36 252.27 189.862 252.27C192.184 252.27 193.714 250.38 193.714 247.95C193.714 245.52 192.364 243.63 189.862 243.63C187.54 243.63 186.01 245.52 186.01 247.95ZM196.415 244.44H198.125V250.38C198.125 251.73 198.665 252.27 199.565 252.27C200.555 252.27 201.059 251.064 201.095 250.938C201.077 250.974 200.645 251.64 199.925 251.64C199.295 251.64 199.025 251.1 199.025 250.38V244.44H201.095V243.9H199.025V242.01L196.415 244.44ZM210.816 244.35L213.156 243.63V251.19L214.596 252H210.816L212.256 251.19V244.8L210.816 244.35ZM211.626 240.93C211.626 241.434 212.022 241.83 212.526 241.83C213.03 241.83 213.426 241.434 213.426 240.93C213.426 240.426 213.03 240.03 212.526 240.03C212.022 240.03 211.626 240.426 211.626 240.93ZM217.213 244.44H218.923V250.38C218.923 251.73 219.463 252.27 220.363 252.27C221.353 252.27 221.857 251.064 221.893 250.938C221.875 250.974 221.443 251.64 220.723 251.64C220.093 251.64 219.823 251.1 219.823 250.38V244.44H221.893V243.9H219.823V242.01L217.213 244.44ZM229.279 246.6C231.439 246.6 232.969 244.98 232.969 243C232.969 240.48 231.025 239.13 229.009 239.13C226.849 239.13 225.229 240.66 225.229 242.37C225.229 243.18 225.661 243.63 226.201 243.63C226.651 243.63 226.939 243.306 226.939 242.91C226.939 242.244 226.309 242.19 226.309 241.56C226.309 240.75 227.299 239.67 229.009 239.67C230.629 239.67 232.069 240.84 232.069 242.73C232.069 244.71 230.719 245.79 228.829 245.79H228.235L228.775 249.3L229.279 246.6ZM227.929 251.19C227.929 251.694 228.325 252.09 228.829 252.09C229.333 252.09 229.729 251.694 229.729 251.19C229.729 250.686 229.333 250.29 228.829 250.29C228.325 250.29 227.929 250.686 227.929 251.19Z" fill="white"/>
<rect x="31.5" y="106.5" width="250" height="281" stroke="white"/>
</svg>
