<svg width="251" height="282" viewBox="0 0 251 282" fill="none" xmlns="http://www.w3.org/2000/svg">
<path fill-rule="evenodd" clip-rule="evenodd" d="M1 1H250V281H1V1ZM0 0H1H250H251V1V281V282H250H1H0V281V1V0ZM125.29 75.76C125.29 66.76 119.17 62.8 113.05 62.8C110.026 62.8 107.938 64.024 107.65 64.24L122.41 50.2H102.97L100.09 55.24V46.6H129.25L114.562 60.64C123.49 61 129.25 66.688 129.25 75.76C129.25 84.76 122.77 90.88 113.05 90.88C104.77 90.88 99.7298 85.84 99.7298 81.16C99.7298 79.288 100.594 77.848 102.394 77.848C104.41 77.848 104.914 79.432 104.914 80.8C104.914 81.4927 104.706 82.024 104.526 82.4852C104.388 82.839 104.266 83.1515 104.266 83.464C104.266 86.704 108.01 89.08 113.05 89.08C118.45 89.08 125.29 86.2 125.29 75.76ZM147.61 79.36C145.594 79.36 144.01 77.776 144.01 75.76C144.01 73.744 145.594 72.16 147.61 72.16C149.626 72.16 151.21 73.744 151.21 75.76C151.21 77.776 149.626 79.36 147.61 79.36ZM47.5889 181.694C49.4429 181.694 50.9549 182.81 51.0449 184.736H49.8749C49.7849 183.35 48.9029 182.684 47.4089 182.684C45.7529 182.684 44.7269 184.412 44.7269 186.464C44.7269 188.534 45.7529 190.28 47.4089 190.28C48.8129 190.28 49.7849 189.416 49.8749 188.174H51.0449C50.7569 190.244 49.5689 191.27 47.5169 191.27C44.8169 191.27 43.5569 188.948 43.5569 186.482C43.5569 184.034 44.9069 181.694 47.5889 181.694ZM54.9869 178.004H56.0669V191H54.9869V178.004ZM61.8571 191H60.7771V181.964H61.8571V191ZM60.6871 178.004H61.9471V179.354H60.6871V178.004ZM69.9694 181.694C71.8234 181.694 73.3354 182.81 73.4254 184.736H72.2554C72.1654 183.35 71.2834 182.684 69.7894 182.684C68.1334 182.684 67.1074 184.412 67.1074 186.464C67.1074 188.534 68.1334 190.28 69.7894 190.28C71.1934 190.28 72.1654 189.416 72.2554 188.174H73.4254C73.1374 190.244 71.9494 191.27 69.8974 191.27C67.1974 191.27 65.9374 188.948 65.9374 186.482C65.9374 184.034 67.2874 181.694 69.9694 181.694ZM76.5609 178.004H77.6409V185.654L82.0149 181.964H83.4009L78.8289 185.87L83.7609 191H82.3929L77.6409 186.104V191H76.5609V178.004ZM94.836 188.771L94.8362 188.735C94.8365 188.686 94.8367 188.637 94.8367 188.588V182.954H93.0367V181.964H94.8367V180.038L95.9167 179.57V181.964H97.9687V182.954H95.9167V189.002C95.8987 189.83 96.3307 190.28 97.1587 190.28C97.4827 190.28 97.8067 190.262 98.0947 190.172V191.108C97.7527 191.198 97.3567 191.27 96.9967 191.27C94.8235 191.27 94.8301 189.952 94.836 188.771ZM105.421 190.28C107.599 190.28 108.463 188.156 108.463 186.482C108.463 184.808 107.599 182.684 105.421 182.684C103.243 182.684 102.379 184.808 102.379 186.482C102.379 188.156 103.243 190.28 105.421 190.28ZM101.209 186.482C101.209 184.106 102.541 181.694 105.421 181.694C108.301 181.694 109.633 184.106 109.633 186.482C109.633 188.858 108.301 191.27 105.421 191.27C102.541 191.27 101.209 188.858 101.209 186.482ZM123.583 190.28C125.941 190.28 126.661 188.318 126.661 186.266C126.661 184.43 125.851 182.684 123.745 182.684C121.693 182.684 121.027 184.592 121.027 186.32C121.027 187.994 121.513 190.28 123.583 190.28ZM127.867 191H126.751L126.697 189.668L126.661 189.596C125.923 190.676 124.825 191.27 123.565 191.27C120.883 191.27 119.857 188.714 119.857 186.446C119.857 184.106 120.883 181.694 123.565 181.694C124.771 181.694 126.031 182.27 126.661 183.332L126.697 183.296V178.004H127.777V188.966C127.777 189.544 127.813 190.135 127.846 190.667L127.846 190.672C127.853 190.784 127.86 190.894 127.867 191ZM135.834 190.28C138.012 190.28 138.876 188.156 138.876 186.482C138.876 184.808 138.012 182.684 135.834 182.684C133.656 182.684 132.792 184.808 132.792 186.482C132.792 188.156 133.656 190.28 135.834 190.28ZM131.622 186.482C131.622 184.106 132.954 181.694 135.834 181.694C138.714 181.694 140.046 184.106 140.046 186.482C140.046 188.858 138.714 191.27 135.834 191.27C132.954 191.27 131.622 188.858 131.622 186.482ZM142.569 181.964H143.757L146.457 189.578H146.493L149.229 181.964H150.507L153.171 189.506H153.207L155.817 181.964H157.005L153.639 191H152.613L149.841 183.206H149.805L146.979 191H145.881L142.569 181.964ZM164.187 182.684C162.405 182.684 161.595 184.178 161.595 185.798V191H160.515V183.998C160.515 183.42 160.478 182.83 160.445 182.298L160.445 182.297L160.445 182.297L160.437 182.166C160.433 182.098 160.429 182.03 160.425 181.964H161.541L161.595 183.296L161.631 183.332C162.261 182.216 163.287 181.694 164.457 181.694C167.409 181.694 167.643 184.304 167.643 185.348V191H166.563V185.168C166.563 183.602 165.663 182.684 164.187 182.684ZM172.335 178.004H173.415V191H172.335V178.004ZM181.671 190.28C183.849 190.28 184.713 188.156 184.713 186.482C184.713 184.808 183.849 182.684 181.671 182.684C179.493 182.684 178.629 184.808 178.629 186.482C178.629 188.156 179.493 190.28 181.671 190.28ZM177.459 186.482C177.459 184.106 178.791 181.694 181.671 181.694C184.551 181.694 185.883 184.106 185.883 186.482C185.883 188.858 184.551 191.27 181.671 191.27C178.791 191.27 177.459 188.858 177.459 186.482ZM194.402 186.456C192.764 186.468 190.287 186.486 190.287 188.48C190.287 189.704 191.223 190.28 192.321 190.28C194.679 190.28 195.129 188.336 195.021 186.446C194.836 186.453 194.627 186.454 194.402 186.456ZM193.937 185.478C194.308 185.476 194.674 185.475 195.021 185.456V184.628C194.913 183.152 194.157 182.684 192.879 182.684C191.745 182.684 190.809 183.026 190.665 184.25H189.513C189.783 182.396 191.169 181.694 192.897 181.694C194.895 181.694 196.137 182.612 196.101 184.682V188.966C196.088 189.498 196.126 190.04 196.16 190.537C196.172 190.697 196.182 190.851 196.191 191H195.075L195.039 189.668H195.003L194.949 189.794C194.553 190.55 193.347 191.27 192.123 191.27C190.449 191.27 189.117 190.244 189.117 188.48C189.117 187.256 189.855 186.32 190.935 185.87C191.822 185.486 192.904 185.482 193.937 185.478H193.937ZM203.823 190.28C206.181 190.28 206.901 188.318 206.901 186.266C206.901 184.43 206.091 182.684 203.985 182.684C201.933 182.684 201.267 184.592 201.267 186.32C201.267 187.994 201.753 190.28 203.823 190.28ZM208.107 191H206.991L206.937 189.668L206.901 189.596C206.163 190.676 205.065 191.27 203.805 191.27C201.123 191.27 200.097 188.714 200.097 186.446C200.097 184.106 201.123 181.694 203.805 181.694C205.011 181.694 206.271 182.27 206.901 183.332L206.937 183.296V178.004H208.017V188.966C208.017 189.544 208.054 190.134 208.087 190.666L208.087 190.667L208.087 190.667C208.094 190.781 208.101 190.892 208.107 191ZM209.277 192.8H42.7289V193.7H209.277V192.8ZM59.6696 134.03L58.6796 135.02C58.6796 135.02 57.5096 134.03 55.4396 134.03C52.1276 134.03 49.7696 136.37 49.7696 140.24C49.7696 143.75 52.1096 146.27 55.4396 146.27C59.2016 146.27 59.9396 143.3 59.9396 143.3C59.9396 143.3 58.7696 145.64 55.7996 145.64C53.0996 145.64 50.7596 143.75 50.7596 139.88C50.7596 136.46 53.0096 134.57 55.4396 134.57C57.4196 134.57 58.4996 135.74 58.4996 135.74L59.6696 138.44V134.03ZM65.6887 141.662C64.4647 142.094 63.3667 142.94 63.3667 144.2C63.3667 145.478 64.1767 146.27 65.4187 146.27C66.1387 146.27 66.7507 145.91 67.1647 145.64L68.4967 144.758C68.4967 145.712 68.4967 146.27 69.1267 146.27C69.7567 146.27 71.0167 144.74 71.0167 144.74L69.3967 145.37V140.24C69.3967 138.71 68.7487 137.63 66.7867 137.63C65.7067 137.63 63.6727 138.62 63.6727 139.736C63.6727 140.258 63.9787 140.492 64.3207 140.492C64.6627 140.492 64.9687 140.294 64.9687 139.736C64.9687 139.592 64.957 139.472 64.947 139.369L64.9443 139.341C64.9378 139.274 64.9327 139.215 64.9327 139.16C64.9327 138.71 65.5087 138.17 66.6067 138.17C67.5967 138.17 68.4967 138.638 68.4967 140.24V140.69L65.6887 141.662ZM67.3807 144.92C67.3359 144.949 67.2917 144.979 67.2478 145.008C66.7796 145.318 66.3485 145.604 65.7067 145.604C64.8067 145.604 64.3207 144.884 64.3207 144.11C64.3207 143.12 64.7707 142.508 66.3367 141.95L68.4967 141.194V144.182L67.3807 144.92ZM74.9718 138.8V145.19L73.5318 146H77.3118L75.8718 145.19V139.844C76.4118 139.178 77.4918 138.314 78.5718 138.314C79.7418 138.314 80.2818 139.16 80.2818 140.6V145.19L78.8418 146H82.6218L81.1818 145.19V140.33C81.1818 138.35 80.1918 137.63 78.9318 137.63C77.6718 137.63 76.5018 138.62 75.8718 139.304V137.63L73.5318 138.35L74.9718 138.8ZM100.936 137.9H97.3359L98.7759 138.62L96.4899 144.344L93.7539 138.62L95.1939 137.9H91.1619L92.7819 138.71L96.0399 145.46L95.0499 147.98C94.8339 148.502 94.5999 148.952 94.3659 148.952C94.2295 148.952 94.1537 148.853 94.0659 148.738C93.9453 148.581 93.8022 148.394 93.4479 148.394C93.0699 148.394 92.7279 148.7 92.7279 149.168C92.7279 149.69 93.1239 150.05 93.7179 150.05C94.3839 150.05 95.0139 149.546 95.5899 148.088L99.3159 138.71L100.936 137.9ZM106.702 138.116C108.196 138.116 109.816 139.43 109.816 142.418C109.816 144.542 108.538 145.784 107.206 145.784C105.73 145.784 104.092 144.47 104.092 141.482C104.092 139.322 105.388 138.116 106.702 138.116ZM103.102 141.95C103.102 144.38 104.452 146.27 106.954 146.27C109.276 146.27 110.806 144.38 110.806 141.95C110.806 139.52 109.456 137.63 106.954 137.63C104.632 137.63 103.102 139.52 103.102 141.95ZM120.167 138.8V144.056C119.627 144.722 118.547 145.586 117.467 145.586C116.297 145.586 115.757 144.74 115.757 143.3V137.63L113.417 138.35L114.857 138.8V143.57C114.857 145.55 115.847 146.27 117.107 146.27C118.367 146.27 119.537 145.28 120.167 144.596V146.27L122.507 145.55L121.067 145.1V137.63L118.727 138.35L120.167 138.8ZM139.695 134.03L138.795 134.84C138.795 134.84 137.715 134.03 135.825 134.03C133.395 134.03 132.225 135.344 132.225 136.82C132.225 138.512 133.503 139.25 135.933 140.114C138.435 140.996 139.335 141.68 139.335 143.3C139.335 144.74 138.165 145.73 136.455 145.73C134.475 145.73 133.485 144.65 133.485 144.65L132.315 141.86V146.27L133.179 145.28C133.179 145.28 134.295 146.27 136.455 146.27C138.885 146.27 140.235 144.884 140.235 143.12C140.235 140.78 138.345 139.97 136.113 139.214C133.917 138.476 133.125 137.846 133.125 136.694C133.125 135.614 134.115 134.57 135.825 134.57C137.535 134.57 138.525 135.47 138.525 135.47L139.695 137.9V134.03ZM144.923 148.97L143.483 149.78H147.263L145.823 148.97V144.848C145.877 144.974 146.543 146.27 148.343 146.27C149.963 146.27 151.853 145.01 151.853 141.95C151.853 138.62 150.143 137.63 148.523 137.63C146.633 137.63 145.823 139.34 145.823 139.34V137.63L143.483 138.35L144.923 138.8V148.97ZM145.823 140.24C145.823 140.24 146.453 138.17 148.253 138.17C149.621 138.17 150.863 139.25 150.863 141.95C150.863 144.47 149.621 145.73 148.253 145.73C146.723 145.73 145.823 144.56 145.823 143.21V140.24ZM158.61 138.116C160.104 138.116 161.724 139.43 161.724 142.418C161.724 144.542 160.446 145.784 159.114 145.784C157.638 145.784 156 144.47 156 141.482C156 139.322 157.296 138.116 158.61 138.116ZM155.01 141.95C155.01 144.38 156.36 146.27 158.862 146.27C161.184 146.27 162.714 144.38 162.714 141.95C162.714 139.52 161.364 137.63 158.862 137.63C156.54 137.63 155.01 139.52 155.01 141.95ZM165.415 138.44H167.125V144.38C167.125 145.73 167.665 146.27 168.565 146.27C169.555 146.27 170.059 145.064 170.095 144.938C170.077 144.974 169.645 145.64 168.925 145.64C168.295 145.64 168.025 145.1 168.025 144.38V138.44H170.095V137.9H168.025V136.01L165.415 138.44ZM179.816 138.35L182.156 137.63V145.19L183.596 146H179.816L181.256 145.19V138.8L179.816 138.35ZM180.626 134.93C180.626 135.434 181.022 135.83 181.526 135.83C182.03 135.83 182.426 135.434 182.426 134.93C182.426 134.426 182.03 134.03 181.526 134.03C181.022 134.03 180.626 134.426 180.626 134.93ZM186.213 138.44H187.923V144.38C187.923 145.73 188.463 146.27 189.363 146.27C190.353 146.27 190.857 145.064 190.893 144.938C190.875 144.974 190.443 145.64 189.723 145.64C189.093 145.64 188.823 145.1 188.823 144.38V138.44H190.893V137.9H188.823V136.01L186.213 138.44ZM198.279 140.6C200.439 140.6 201.969 138.98 201.969 137C201.969 134.48 200.025 133.13 198.009 133.13C195.849 133.13 194.229 134.66 194.229 136.37C194.229 137.18 194.661 137.63 195.201 137.63C195.651 137.63 195.939 137.306 195.939 136.91C195.939 136.572 195.777 136.392 195.617 136.214C195.462 136.041 195.309 135.871 195.309 135.56C195.309 134.75 196.299 133.67 198.009 133.67C199.629 133.67 201.069 134.84 201.069 136.73C201.069 138.71 199.719 139.79 197.829 139.79H197.235L197.775 143.3L198.279 140.6ZM196.929 145.19C196.929 145.694 197.325 146.09 197.829 146.09C198.333 146.09 198.729 145.694 198.729 145.19C198.729 144.686 198.333 144.29 197.829 144.29C197.325 144.29 196.929 144.686 196.929 145.19Z" fill="white"/>
</svg>
