<svg width="314" height="389" viewBox="0 0 314 389" fill="none" xmlns="http://www.w3.org/2000/svg">
<path d="M147.996 195.8H163.116L157.356 192.56V185H167.436V182.84H157.356V151.52L132.516 185H153.756V192.56L147.996 195.8ZM153.756 182.84H136.836L153.756 160.016V182.84ZM180.424 181.76C180.424 183.776 182.008 185.36 184.024 185.36C186.04 185.36 187.624 183.776 187.624 181.76C187.624 179.744 186.04 178.16 184.024 178.16C182.008 178.16 180.424 179.744 180.424 181.76Z" fill="white"/>
<path d="M106.009 287.046C105.829 284.706 103.813 283.734 101.689 283.734C97.7652 283.734 96.0912 286.938 96.0912 290.502C96.0912 294.102 97.7472 297.27 101.689 297.27C103.777 297.27 105.775 296.028 106.153 293.85H104.893C104.569 295.47 103.129 296.19 101.689 296.19C98.3592 296.19 97.3512 293.166 97.3512 290.502C97.3512 287.838 98.3592 284.814 101.689 284.814C103.165 284.814 104.533 285.462 104.749 287.046H106.009ZM116.845 292.482C116.845 294.156 115.981 296.28 113.803 296.28C111.625 296.28 110.761 294.156 110.761 292.482C110.761 290.808 111.625 288.684 113.803 288.684C115.981 288.684 116.845 290.808 116.845 292.482ZM113.803 287.694C110.923 287.694 109.591 290.106 109.591 292.482C109.591 294.858 110.923 297.27 113.803 297.27C116.683 297.27 118.015 294.858 118.015 292.482C118.015 290.106 116.683 287.694 113.803 287.694ZM123.049 287.964H121.933C121.969 288.576 122.023 289.296 122.023 289.998V297H123.103V291.798C123.103 290.178 123.913 288.684 125.695 288.684C127.171 288.684 128.071 289.602 128.071 291.168V297H129.151V291.798C129.151 290.178 129.961 288.684 131.743 288.684C133.219 288.684 134.119 289.602 134.119 291.168V297H135.199V291.348C135.199 290.304 134.965 287.694 132.013 287.694C130.609 287.694 129.565 288.612 128.899 289.674C128.503 288.486 127.387 287.694 125.965 287.694C124.795 287.694 123.769 288.216 123.139 289.332L123.103 289.296L123.049 287.964ZM139.855 287.964V297H140.935V287.964H139.855ZM141.025 284.004H139.765V285.354H141.025V284.004ZM146.707 291.798C146.707 290.178 147.517 288.684 149.299 288.684C150.775 288.684 151.675 289.602 151.675 291.168V297H152.755V291.348C152.755 290.304 152.521 287.694 149.569 287.694C148.399 287.694 147.373 288.216 146.743 289.332L146.707 289.296L146.653 287.964H145.537C145.573 288.576 145.627 289.296 145.627 289.998V297H146.707V291.798ZM163.657 292.284C163.657 294.048 162.865 295.974 160.795 295.974C158.815 295.974 157.969 293.976 157.969 292.32C157.969 290.664 158.797 288.684 160.759 288.684C162.703 288.684 163.657 290.556 163.657 292.284ZM163.657 289.296L163.621 289.368C162.901 288.324 161.965 287.694 160.651 287.694C157.897 287.694 156.799 289.962 156.799 292.41C156.799 294.894 157.969 296.964 160.687 296.964C161.857 296.964 163.099 296.334 163.621 295.272H163.657V296.964C163.621 298.476 162.325 299.466 160.921 299.466C159.769 299.466 158.491 299.106 158.365 298.026H157.195C157.195 299.898 159.139 300.456 160.777 300.456C161.623 300.456 162.109 300.384 162.829 300.042C164.827 299.106 164.737 297.216 164.737 295.416V289.998C164.737 289.296 164.791 288.576 164.827 287.964H163.711L163.657 289.296ZM175.735 290.214C175.735 291.888 177.175 292.302 178.597 292.644C180.037 292.968 181.459 293.184 181.459 294.48C181.459 295.74 180.253 296.28 179.101 296.28C177.877 296.28 176.689 295.884 176.599 294.534H175.429C175.465 296.532 177.265 297.27 178.831 297.27C180.739 297.27 182.629 296.352 182.629 294.318C182.629 293.346 182.035 292.536 181.099 292.212C178.651 291.348 176.905 291.474 176.905 290.142C176.905 289.08 177.931 288.684 178.939 288.684C180.055 288.684 181.063 289.062 181.171 290.196H182.341C182.197 288.288 180.757 287.694 179.047 287.694C177.463 287.694 175.735 288.342 175.735 290.214ZM193.447 292.482C193.447 294.156 192.583 296.28 190.405 296.28C188.227 296.28 187.363 294.156 187.363 292.482C187.363 290.808 188.227 288.684 190.405 288.684C192.583 288.684 193.447 290.808 193.447 292.482ZM190.405 287.694C187.525 287.694 186.193 290.106 186.193 292.482C186.193 294.858 187.525 297.27 190.405 297.27C193.285 297.27 194.617 294.858 194.617 292.482C194.617 290.106 193.285 287.694 190.405 287.694ZM205.249 292.482C205.249 294.156 204.385 296.28 202.207 296.28C200.029 296.28 199.165 294.156 199.165 292.482C199.165 290.808 200.029 288.684 202.207 288.684C204.385 288.684 205.249 290.808 205.249 292.482ZM202.207 287.694C199.327 287.694 197.995 290.106 197.995 292.482C197.995 294.858 199.327 297.27 202.207 297.27C205.087 297.27 206.419 294.858 206.419 292.482C206.419 290.106 205.087 287.694 202.207 287.694ZM211.525 291.798C211.525 290.178 212.335 288.684 214.117 288.684C215.593 288.684 216.493 289.602 216.493 291.168V297H217.573V291.348C217.573 290.304 217.339 287.694 214.387 287.694C213.217 287.694 212.191 288.216 211.561 289.332L211.525 289.296L211.471 287.964H210.355C210.391 288.576 210.445 289.296 210.445 289.998V297H211.525V291.798Z" fill="white"/>
<path d="M83.0875 237.03L82.1875 237.84C82.1875 237.84 81.1075 237.03 79.2175 237.03C76.7875 237.03 75.6175 238.344 75.6175 239.82C75.6175 241.512 76.8955 242.25 79.3255 243.114C81.8275 243.996 82.7275 244.68 82.7275 246.3C82.7275 247.74 81.5575 248.73 79.8475 248.73C77.8675 248.73 76.8775 247.65 76.8775 247.65L75.7075 244.86V249.27L76.5715 248.28C76.5715 248.28 77.6875 249.27 79.8475 249.27C82.2775 249.27 83.6275 247.884 83.6275 246.12C83.6275 243.78 81.7375 242.97 79.5055 242.214C77.3095 241.476 76.5175 240.846 76.5175 239.694C76.5175 238.614 77.5075 237.57 79.2175 237.57C80.9275 237.57 81.9175 238.47 81.9175 238.47L83.0875 240.9V237.03ZM88.3152 251.97L86.8752 252.78H90.6552L89.2152 251.97V247.848C89.2692 247.974 89.9352 249.27 91.7352 249.27C93.3552 249.27 95.2452 248.01 95.2452 244.95C95.2452 241.62 93.5352 240.63 91.9152 240.63C90.0252 240.63 89.2152 242.34 89.2152 242.34V240.63L86.8752 241.35L88.3152 241.8V251.97ZM89.2152 243.24C89.2152 243.24 89.8452 241.17 91.6452 241.17C93.0132 241.17 94.2552 242.25 94.2552 244.95C94.2552 247.47 93.0132 248.73 91.6452 248.73C90.1152 248.73 89.2152 247.56 89.2152 246.21V243.24ZM102.002 241.116C103.496 241.116 105.116 242.43 105.116 245.418C105.116 247.542 103.838 248.784 102.506 248.784C101.03 248.784 99.3923 247.47 99.3923 244.482C99.3923 242.322 100.688 241.116 102.002 241.116ZM98.4023 244.95C98.4023 247.38 99.7523 249.27 102.254 249.27C104.576 249.27 106.106 247.38 106.106 244.95C106.106 242.52 104.756 240.63 102.254 240.63C99.9323 240.63 98.4023 242.52 98.4023 244.95ZM108.807 241.44H110.517V247.38C110.517 248.73 111.057 249.27 111.957 249.27C112.947 249.27 113.451 248.064 113.487 247.938C113.469 247.974 113.037 248.64 112.317 248.64C111.687 248.64 111.417 248.1 111.417 247.38V241.44H113.487V240.9H111.417V239.01L108.807 241.44ZM122.849 241.44H124.559V247.38C124.559 248.73 125.099 249.27 125.999 249.27C126.989 249.27 127.493 248.064 127.529 247.938C127.511 247.974 127.079 248.64 126.359 248.64C125.729 248.64 125.459 248.1 125.459 247.38V241.44H127.529V240.9H125.459V239.01L122.849 241.44ZM132.124 237.3V248.19L130.684 249H134.464L133.024 248.19V242.844C133.564 242.178 134.644 241.314 135.724 241.314C136.894 241.314 137.434 242.16 137.434 243.6V248.19L135.994 249H139.774L138.334 248.19V243.33C138.334 241.35 137.344 240.63 136.084 240.63C134.824 240.63 133.654 241.62 133.024 242.304V236.13L130.684 236.85L132.124 237.3ZM149.491 244.14C149.491 242.16 148.681 240.63 146.395 240.63C144.253 240.63 142.471 242.322 142.471 244.95C142.471 247.38 143.911 249.27 146.251 249.27C148.951 249.27 149.491 246.66 149.491 246.66C149.491 246.66 148.681 248.46 146.701 248.46C144.901 248.46 143.371 247.344 143.371 244.662C143.371 244.482 143.371 244.32 143.389 244.14H149.491ZM146.359 241.062C147.619 241.062 148.501 241.89 148.501 242.79C148.501 243.51 147.871 243.6 146.971 243.6H143.479C143.875 241.872 145.225 241.062 146.359 241.062ZM161.901 238.29L162.531 237.93H167.211L168.471 240.54V237.3H159.201L161.001 238.29V248.01L159.201 249H168.741V245.76L167.481 248.37H162.531L161.901 248.01V243.24H164.871L165.951 244.95V240.9L164.871 242.61H161.901V238.29ZM173.777 237.3V248.19L172.337 249H176.117L174.677 248.19V236.13L172.337 236.85L173.777 237.3ZM186.099 244.14C186.099 242.16 185.289 240.63 183.003 240.63C180.861 240.63 179.079 242.322 179.079 244.95C179.079 247.38 180.519 249.27 182.859 249.27C185.559 249.27 186.099 246.66 186.099 246.66C186.099 246.66 185.289 248.46 183.309 248.46C181.509 248.46 179.979 247.344 179.979 244.662C179.979 244.482 179.979 244.32 179.997 244.14H186.099ZM182.967 241.062C184.227 241.062 185.109 241.89 185.109 242.79C185.109 243.51 184.479 243.6 183.579 243.6H180.087C180.483 241.872 181.833 241.062 182.967 241.062ZM190.504 251.97L189.064 252.78H192.844L191.404 251.97V247.848C191.458 247.974 192.124 249.27 193.924 249.27C195.544 249.27 197.434 248.01 197.434 244.95C197.434 241.62 195.724 240.63 194.104 240.63C192.214 240.63 191.404 242.34 191.404 242.34V240.63L189.064 241.35L190.504 241.8V251.97ZM191.404 243.24C191.404 243.24 192.034 241.17 193.834 241.17C195.202 241.17 196.444 242.25 196.444 244.95C196.444 247.47 195.202 248.73 193.834 248.73C192.304 248.73 191.404 247.56 191.404 246.21V243.24ZM201.941 237.3V248.19L200.501 249H204.281L202.841 248.19V242.844C203.381 242.178 204.461 241.314 205.541 241.314C206.711 241.314 207.251 242.16 207.251 243.6V248.19L205.811 249H209.591L208.151 248.19V243.33C208.151 241.35 207.161 240.63 205.901 240.63C204.641 240.63 203.471 241.62 202.841 242.304V236.13L200.501 236.85L201.941 237.3ZM214.699 244.662C213.475 245.094 212.377 245.94 212.377 247.2C212.377 248.478 213.187 249.27 214.429 249.27C215.149 249.27 215.761 248.91 216.175 248.64L217.507 247.758C217.507 248.712 217.507 249.27 218.137 249.27C218.767 249.27 220.027 247.74 220.027 247.74L218.407 248.37V243.24C218.407 241.71 217.759 240.63 215.797 240.63C214.717 240.63 212.683 241.62 212.683 242.736C212.683 243.258 212.989 243.492 213.331 243.492C213.673 243.492 213.979 243.294 213.979 242.736C213.979 242.484 213.943 242.304 213.943 242.16C213.943 241.71 214.519 241.17 215.617 241.17C216.607 241.17 217.507 241.638 217.507 243.24V243.69L214.699 244.662ZM216.391 247.92C215.869 248.262 215.419 248.604 214.717 248.604C213.817 248.604 213.331 247.884 213.331 247.11C213.331 246.12 213.781 245.508 215.347 244.95L217.507 244.194V247.182L216.391 247.92ZM223.983 241.8V248.19L222.543 249H226.323L224.883 248.19V242.844C225.423 242.178 226.503 241.314 227.583 241.314C228.753 241.314 229.293 242.16 229.293 243.6V248.19L227.853 249H231.633L230.193 248.19V243.33C230.193 241.35 229.203 240.63 227.943 240.63C226.683 240.63 225.513 241.62 224.883 242.304V240.63L222.543 241.35L223.983 241.8ZM233.967 241.44H235.677V247.38C235.677 248.73 236.217 249.27 237.117 249.27C238.107 249.27 238.611 248.064 238.647 247.938C238.629 247.974 238.197 248.64 237.477 248.64C236.847 248.64 236.577 248.1 236.577 247.38V241.44H238.647V240.9H236.577V239.01L233.967 241.44Z" fill="white"/>
<rect x="31.5" y="107.5" width="250" height="281" stroke="white"/>
</svg>
