<svg width="251" height="282" viewBox="0 0 251 282" fill="none" xmlns="http://www.w3.org/2000/svg">
<path fill-rule="evenodd" clip-rule="evenodd" d="M1 1H250V281H1V1ZM0 0H1H250H251V1V281V282H250H1H0V281V1V0ZM132.116 88.8H116.996L122.756 85.56V78H101.516L126.356 44.52V75.84H136.436V78H126.356V85.56L132.116 88.8ZM105.836 75.84H122.756V53.016L105.836 75.84ZM153.024 78.36C151.008 78.36 149.424 76.776 149.424 74.76C149.424 72.744 151.008 71.16 153.024 71.16C155.04 71.16 156.624 72.744 156.624 74.76C156.624 76.776 155.04 78.36 153.024 78.36ZM47.5889 180.694C49.4429 180.694 50.9549 181.81 51.0449 183.736H49.8749C49.7849 182.35 48.9029 181.684 47.4089 181.684C45.7529 181.684 44.7269 183.412 44.7269 185.464C44.7269 187.534 45.7529 189.28 47.4089 189.28C48.8129 189.28 49.7849 188.416 49.8749 187.174H51.0449C50.7569 189.244 49.5689 190.27 47.5169 190.27C44.8169 190.27 43.5569 187.948 43.5569 185.482C43.5569 183.034 44.9069 180.694 47.5889 180.694ZM54.9869 177.004H56.0669V190H54.9869V177.004ZM61.8571 190H60.7771V180.964H61.8571V190ZM60.6871 177.004H61.9471V178.354H60.6871V177.004ZM69.9694 180.694C71.8234 180.694 73.3354 181.81 73.4254 183.736H72.2554C72.1654 182.35 71.2834 181.684 69.7894 181.684C68.1334 181.684 67.1074 183.412 67.1074 185.464C67.1074 187.534 68.1334 189.28 69.7894 189.28C71.1934 189.28 72.1654 188.416 72.2554 187.174H73.4254C73.1374 189.244 71.9494 190.27 69.8974 190.27C67.1974 190.27 65.9374 187.948 65.9374 185.482C65.9374 183.034 67.2874 180.694 69.9694 180.694ZM76.5609 177.004H77.6409V184.654L82.0149 180.964H83.4009L78.8289 184.87L83.7609 190H82.3929L77.6409 185.104V190H76.5609V177.004ZM94.836 187.771V187.77C94.8363 187.709 94.8367 187.648 94.8367 187.588V181.954H93.0367V180.964H94.8367V179.038L95.9167 178.57V180.964H97.9687V181.954H95.9167V188.002C95.8987 188.83 96.3307 189.28 97.1587 189.28C97.4827 189.28 97.8067 189.262 98.0947 189.172V190.108C97.7527 190.198 97.3567 190.27 96.9967 190.27C94.8235 190.27 94.8301 188.952 94.836 187.771ZM105.421 189.28C107.599 189.28 108.463 187.156 108.463 185.482C108.463 183.808 107.599 181.684 105.421 181.684C103.243 181.684 102.379 183.808 102.379 185.482C102.379 187.156 103.243 189.28 105.421 189.28ZM101.209 185.482C101.209 183.106 102.541 180.694 105.421 180.694C108.301 180.694 109.633 183.106 109.633 185.482C109.633 187.858 108.301 190.27 105.421 190.27C102.541 190.27 101.209 187.858 101.209 185.482ZM123.583 189.28C125.941 189.28 126.661 187.318 126.661 185.266C126.661 183.43 125.851 181.684 123.745 181.684C121.693 181.684 121.027 183.592 121.027 185.32C121.027 186.994 121.513 189.28 123.583 189.28ZM127.867 190H126.751L126.697 188.668L126.661 188.596C125.923 189.676 124.825 190.27 123.565 190.27C120.883 190.27 119.857 187.714 119.857 185.446C119.857 183.106 120.883 180.694 123.565 180.694C124.771 180.694 126.031 181.27 126.661 182.332L126.697 182.296V177.004H127.777V187.966C127.777 188.544 127.813 189.135 127.846 189.667C127.853 189.781 127.86 189.892 127.867 190ZM135.834 189.28C138.012 189.28 138.876 187.156 138.876 185.482C138.876 183.808 138.012 181.684 135.834 181.684C133.656 181.684 132.792 183.808 132.792 185.482C132.792 187.156 133.656 189.28 135.834 189.28ZM131.622 185.482C131.622 183.106 132.954 180.694 135.834 180.694C138.714 180.694 140.046 183.106 140.046 185.482C140.046 187.858 138.714 190.27 135.834 190.27C132.954 190.27 131.622 187.858 131.622 185.482ZM142.569 180.964H143.757L146.457 188.578H146.493L149.229 180.964H150.507L153.171 188.506H153.207L155.817 180.964H157.005L153.639 190H152.613L149.841 182.206H149.805L146.979 190H145.881L142.569 180.964ZM164.187 181.684C162.405 181.684 161.595 183.178 161.595 184.798V190H160.515V182.998C160.515 182.42 160.478 181.83 160.445 181.298L160.445 181.297L160.445 181.297C160.438 181.183 160.431 181.072 160.425 180.964H161.541L161.595 182.296L161.631 182.332C162.261 181.216 163.287 180.694 164.457 180.694C167.409 180.694 167.643 183.304 167.643 184.348V190H166.563V184.168C166.563 182.602 165.663 181.684 164.187 181.684ZM172.335 177.004H173.415V190H172.335V177.004ZM181.671 189.28C183.849 189.28 184.713 187.156 184.713 185.482C184.713 183.808 183.849 181.684 181.671 181.684C179.493 181.684 178.629 183.808 178.629 185.482C178.629 187.156 179.493 189.28 181.671 189.28ZM177.459 185.482C177.459 183.106 178.791 180.694 181.671 180.694C184.551 180.694 185.883 183.106 185.883 185.482C185.883 187.858 184.551 190.27 181.671 190.27C178.791 190.27 177.459 187.858 177.459 185.482ZM194.402 185.456C192.764 185.468 190.287 185.486 190.287 187.48C190.287 188.704 191.223 189.28 192.321 189.28C194.679 189.28 195.129 187.336 195.021 185.446C194.836 185.453 194.627 185.454 194.402 185.456ZM193.937 184.478C194.308 184.476 194.674 184.475 195.021 184.456V183.628C194.913 182.152 194.157 181.684 192.879 181.684C191.745 181.684 190.809 182.026 190.665 183.25H189.513C189.783 181.396 191.169 180.694 192.897 180.694C194.895 180.694 196.137 181.612 196.101 183.682V187.966C196.088 188.498 196.126 189.04 196.16 189.537L196.161 189.541L196.169 189.663L196.178 189.79C196.183 189.861 196.187 189.931 196.191 190H195.075L195.039 188.668H195.003L194.949 188.794C194.553 189.55 193.347 190.27 192.123 190.27C190.449 190.27 189.117 189.244 189.117 187.48C189.117 186.256 189.855 185.32 190.935 184.87C191.822 184.486 192.904 184.482 193.937 184.478H193.937ZM203.823 189.28C206.181 189.28 206.901 187.318 206.901 185.266C206.901 183.43 206.091 181.684 203.985 181.684C201.933 181.684 201.267 183.592 201.267 185.32C201.267 186.994 201.753 189.28 203.823 189.28ZM208.107 190H206.991L206.937 188.668L206.901 188.596C206.163 189.676 205.065 190.27 203.805 190.27C201.123 190.27 200.097 187.714 200.097 185.446C200.097 183.106 201.123 180.694 203.805 180.694C205.011 180.694 206.271 181.27 206.901 182.332L206.937 182.296V177.004H208.017V187.966C208.017 188.544 208.054 189.134 208.087 189.666L208.087 189.667L208.087 189.667C208.094 189.781 208.101 189.892 208.107 190ZM209.277 191.8H42.7289V192.7H209.277V191.8ZM52.0875 112.03L51.1875 112.84C51.1875 112.84 50.1075 112.03 48.2175 112.03C45.7875 112.03 44.6175 113.344 44.6175 114.82C44.6175 116.512 45.8955 117.25 48.3255 118.114C50.8275 118.996 51.7275 119.68 51.7275 121.3C51.7275 122.74 50.5575 123.73 48.8475 123.73C46.8675 123.73 45.8775 122.65 45.8775 122.65L44.7075 119.86V124.27L45.5715 123.28C45.5715 123.28 46.6875 124.27 48.8475 124.27C51.2775 124.27 52.6275 122.884 52.6275 121.12C52.6275 118.78 50.7375 117.97 48.5055 117.214C46.3095 116.476 45.5175 115.846 45.5175 114.694C45.5175 113.614 46.5075 112.57 48.2175 112.57C49.9275 112.57 50.9175 113.47 50.9175 113.47L52.0875 115.9V112.03ZM57.3152 126.97L55.8752 127.78H59.6552L58.2152 126.97V122.848C58.2692 122.974 58.9352 124.27 60.7352 124.27C62.3552 124.27 64.2452 123.01 64.2452 119.95C64.2452 116.62 62.5352 115.63 60.9152 115.63C59.0252 115.63 58.2152 117.34 58.2152 117.34V115.63L55.8752 116.35L57.3152 116.8V126.97ZM58.2152 118.24C58.2152 118.24 58.8452 116.17 60.6452 116.17C62.0132 116.17 63.2552 117.25 63.2552 119.95C63.2552 122.47 62.0132 123.73 60.6452 123.73C59.1152 123.73 58.2152 122.56 58.2152 121.21V118.24ZM71.0023 116.116C72.4963 116.116 74.1163 117.43 74.1163 120.418C74.1163 122.542 72.8383 123.784 71.5063 123.784C70.0303 123.784 68.3923 122.47 68.3923 119.482C68.3923 117.322 69.6883 116.116 71.0023 116.116ZM67.4023 119.95C67.4023 122.38 68.7523 124.27 71.2543 124.27C73.5763 124.27 75.1063 122.38 75.1063 119.95C75.1063 117.52 73.7563 115.63 71.2543 115.63C68.9323 115.63 67.4023 117.52 67.4023 119.95ZM77.8071 116.44H79.5171V122.38C79.5171 123.73 80.0571 124.27 80.9571 124.27C81.9471 124.27 82.4511 123.064 82.4871 122.938C82.4691 122.974 82.0371 123.64 81.3171 123.64C80.6871 123.64 80.4171 123.1 80.4171 122.38V116.44H82.4871V115.9H80.4171V114.01L77.8071 116.44ZM91.8485 116.44H93.5585V122.38C93.5585 123.73 94.0985 124.27 94.9985 124.27C95.9885 124.27 96.4925 123.064 96.5285 122.938C96.5105 122.974 96.0785 123.64 95.3585 123.64C94.7285 123.64 94.4585 123.1 94.4585 122.38V116.44H96.5285V115.9H94.4585V114.01L91.8485 116.44ZM101.124 112.3V123.19L99.6841 124H103.464L102.024 123.19V117.844C102.564 117.178 103.644 116.314 104.724 116.314C105.894 116.314 106.434 117.16 106.434 118.6V123.19L104.994 124H108.774L107.334 123.19V118.33C107.334 116.35 106.344 115.63 105.084 115.63C103.824 115.63 102.654 116.62 102.024 117.304V111.13L99.6841 111.85L101.124 112.3ZM118.491 119.14C118.491 117.16 117.681 115.63 115.395 115.63C113.253 115.63 111.471 117.322 111.471 119.95C111.471 122.38 112.911 124.27 115.251 124.27C117.951 124.27 118.491 121.66 118.491 121.66C118.491 121.66 117.681 123.46 115.701 123.46C113.901 123.46 112.371 122.344 112.371 119.662C112.371 119.482 112.371 119.32 112.389 119.14H118.491ZM115.359 116.062C116.619 116.062 117.501 116.89 117.501 117.79C117.501 118.51 116.871 118.6 115.971 118.6H112.479C112.875 116.872 114.225 116.062 115.359 116.062ZM130.901 113.29L131.531 112.93H136.211L137.471 115.54V112.3H128.201L130.001 113.29V123.01L128.201 124H137.741V120.76L136.481 123.37H131.531L130.901 123.01V118.24H133.871L134.951 119.95V115.9L133.871 117.61H130.901V113.29ZM142.777 112.3V123.19L141.337 124H145.117L143.677 123.19V111.13L141.337 111.85L142.777 112.3ZM155.099 119.14C155.099 117.16 154.289 115.63 152.003 115.63C149.861 115.63 148.079 117.322 148.079 119.95C148.079 122.38 149.519 124.27 151.859 124.27C154.559 124.27 155.099 121.66 155.099 121.66C155.099 121.66 154.289 123.46 152.309 123.46C150.509 123.46 148.979 122.344 148.979 119.662C148.979 119.482 148.979 119.32 148.997 119.14H155.099ZM151.967 116.062C153.227 116.062 154.109 116.89 154.109 117.79C154.109 118.51 153.479 118.6 152.579 118.6H149.087C149.483 116.872 150.833 116.062 151.967 116.062ZM159.504 126.97L158.064 127.78H161.844L160.404 126.97V122.848C160.458 122.974 161.124 124.27 162.924 124.27C164.544 124.27 166.434 123.01 166.434 119.95C166.434 116.62 164.724 115.63 163.104 115.63C161.214 115.63 160.404 117.34 160.404 117.34V115.63L158.064 116.35L159.504 116.8V126.97ZM160.404 118.24C160.404 118.24 161.034 116.17 162.834 116.17C164.202 116.17 165.444 117.25 165.444 119.95C165.444 122.47 164.202 123.73 162.834 123.73C161.304 123.73 160.404 122.56 160.404 121.21V118.24ZM170.941 112.3V123.19L169.501 124H173.281L171.841 123.19V117.844C172.381 117.178 173.461 116.314 174.541 116.314C175.711 116.314 176.251 117.16 176.251 118.6V123.19L174.811 124H178.591L177.151 123.19V118.33C177.151 116.35 176.161 115.63 174.901 115.63C173.641 115.63 172.471 116.62 171.841 117.304V111.13L169.501 111.85L170.941 112.3ZM183.699 119.662C182.475 120.094 181.377 120.94 181.377 122.2C181.377 123.478 182.187 124.27 183.429 124.27C184.149 124.27 184.761 123.91 185.175 123.64L186.507 122.758C186.507 123.712 186.507 124.27 187.137 124.27C187.767 124.27 189.027 122.74 189.027 122.74L187.407 123.37V118.24C187.407 116.71 186.759 115.63 184.797 115.63C183.717 115.63 181.683 116.62 181.683 117.736C181.683 118.258 181.989 118.492 182.331 118.492C182.673 118.492 182.979 118.294 182.979 117.736C182.979 117.592 182.968 117.472 182.958 117.369C182.954 117.336 182.951 117.305 182.949 117.275C182.946 117.234 182.943 117.196 182.943 117.16C182.943 116.71 183.519 116.17 184.617 116.17C185.607 116.17 186.507 116.638 186.507 118.24V118.69L183.699 119.662ZM185.259 123.007L185.259 123.008C184.79 123.318 184.359 123.604 183.717 123.604C182.817 123.604 182.331 122.884 182.331 122.11C182.331 121.12 182.781 120.508 184.347 119.95L186.507 119.194V122.182L185.391 122.92C185.347 122.949 185.303 122.978 185.259 123.007ZM192.983 116.8V123.19L191.543 124H195.323L193.883 123.19V117.844C194.423 117.178 195.503 116.314 196.583 116.314C197.753 116.314 198.293 117.16 198.293 118.6V123.19L196.853 124H200.633L199.193 123.19V118.33C199.193 116.35 198.202 115.63 196.943 115.63C195.683 115.63 194.513 116.62 193.883 117.304V115.63L191.543 116.35L192.983 116.8ZM202.967 116.44H204.677V122.38C204.677 123.73 205.217 124.27 206.117 124.27C207.107 124.27 207.611 123.064 207.647 122.938C207.629 122.974 207.197 123.64 206.477 123.64C205.847 123.64 205.577 123.1 205.577 122.38V116.44H207.647V115.9H205.577V114.01L202.967 116.44Z" fill="white"/>
</svg>
