<svg width="221" height="93" viewBox="0 0 221 93" fill="none" xmlns="http://www.w3.org/2000/svg">
<rect width="221" height="69" fill="black" fill-opacity="0.69"/>
<path d="M6.374 3.892L3.182 14H4.078L4.876 11.34H8.838L9.65 14H10.588L7.438 3.892H6.374ZM5.142 10.584L6.85 4.872H6.878L8.6 10.584H5.142ZM18.4048 9.828C18.4048 8.078 19.3568 7.462 19.9028 7.462C21.2888 7.462 21.4988 8.624 21.4988 10.458C21.4988 12.306 21.2888 13.468 19.9028 13.468C19.1328 13.468 18.4048 12.698 18.4048 11.088V9.828ZM18.3768 6.93H17.5648V16.674H18.4048V13.202L18.4328 13.216C18.8668 13.888 19.3848 14.14 19.9028 14.14C21.7088 14.14 22.3388 13.062 22.3388 11.228V9.646C22.3388 8.722 22.3248 6.79 20.1128 6.79C19.5528 6.79 18.8528 7.084 18.4048 7.77L18.3768 7.784V6.93ZM28.7555 11.676C28.7555 12.6 27.9715 13.468 27.0055 13.468C26.1375 13.468 25.7315 12.81 25.7315 12.012C25.7315 10.29 27.5515 10.43 28.7555 10.388V11.676ZM28.8115 14H29.6795C29.5955 13.174 29.5955 12.726 29.5955 12.222V8.666C29.5955 6.86 28.1115 6.79 27.3975 6.79C26.1655 6.79 25.1155 7.322 25.0455 8.68H25.9415C25.9415 7.84 26.5575 7.462 27.3275 7.462C28.4475 7.462 28.7555 8.092 28.7555 9.128V9.716C27.3275 9.828 24.8355 9.576 24.8355 12.054C24.8355 13.286 25.5215 14.14 26.7815 14.14C27.6495 14.14 28.3355 13.804 28.7835 13.132H28.8115V14ZM34.8362 7.462C35.6202 7.462 36.4182 8.022 36.4182 9.506C36.4182 11.578 36.3622 11.9 36.1522 12.446C36.0262 12.782 35.5782 13.244 34.8782 13.244C33.3522 13.244 33.3522 11.774 33.3522 10.304C33.3522 9.254 33.3802 7.462 34.8362 7.462ZM36.4742 7.812L36.4462 7.784C36.1382 7.154 35.4242 6.79 34.7102 6.79C33.2822 6.79 32.7922 7.896 32.7222 8.19C32.5262 8.946 32.5122 8.96 32.5122 10.598C32.5122 12.166 32.6522 13.916 34.6822 13.916C35.3542 13.916 36.0262 13.664 36.3902 13.062H36.4182C36.4182 15.176 36.5162 16.058 34.8782 16.058C34.0942 16.058 33.4922 15.582 33.5482 14.77H32.7082C32.6522 15.484 33.0022 16.73 34.7662 16.73C36.7822 16.73 37.2582 15.806 37.2582 14.252V8.302C37.2582 7.938 37.2722 7.588 37.3002 6.916H36.4742V7.812ZM45.0889 10.64C45.0889 8.54 45.0889 6.79 42.6529 6.79C41.0709 6.79 40.2169 7.728 40.2169 9.772V11.508C40.2169 13.65 41.4349 14.14 42.6529 14.14C44.0669 14.14 44.9909 13.552 45.0889 11.844H44.2069C44.2209 12.796 43.7029 13.468 42.6529 13.468C41.3229 13.468 41.0569 12.166 41.0569 11.186V10.64H45.0889ZM41.0569 9.968C41.0569 8.4 41.3089 7.462 42.6529 7.462C43.9969 7.462 44.2489 8.4 44.2489 9.968H41.0569ZM54.7771 14.14C56.4291 14.14 57.2131 13.062 57.2131 11.228V9.702C57.2131 7.868 56.4291 6.79 54.7771 6.79C53.1251 6.79 52.3411 7.868 52.3411 9.702V11.228C52.3411 13.062 53.1251 14.14 54.7771 14.14ZM54.7771 7.462C56.1631 7.462 56.3731 8.624 56.3731 10.458C56.3731 12.306 56.1631 13.468 54.7771 13.468C53.3911 13.468 53.1811 12.306 53.1811 10.458C53.1811 8.624 53.3911 7.462 54.7771 7.462ZM60.6898 14H61.5298V7.602H62.9578V6.93H61.5298V5.726C61.5298 5.32 61.5298 4.592 62.3418 4.592H62.9718V3.892C62.7618 3.864 62.6218 3.836 62.4958 3.836C60.7878 3.836 60.6898 5.068 60.6898 5.74V6.93H59.5558V7.602H60.6898V14ZM70.1398 3.892V14H74.8158V13.244H71.0358V9.184H74.5498V8.428H71.0358V4.648H74.7178V3.892H70.1398ZM78.4605 6.93H77.6205V14H78.4605V9.45C78.4605 8.26 79.2445 7.546 80.4345 7.644V6.79C79.5805 6.79 78.8385 7.21 78.4885 7.882H78.4605V6.93ZM83.981 14V6.93H83.141V14H83.981ZM84.079 4.956V3.892H83.043V4.956H84.079ZM91.3545 8.96C91.4245 7.476 90.5985 6.79 89.3805 6.79C88.4145 6.79 87.6165 7.154 87.2525 8.162C87.0705 8.694 87.0425 9.8 87.0425 10.5C87.0425 12.25 87.0425 14.14 89.4365 14.14C90.0945 14.14 91.4385 13.818 91.3685 11.914H90.5285C90.4865 12.768 90.3465 13.468 89.2405 13.468C87.9385 13.468 87.9385 11.774 87.9385 10.5C87.9385 9.562 88.0225 8.596 88.1345 8.274C88.3165 7.756 88.7505 7.462 89.2685 7.462C90.2345 7.462 90.5565 8.078 90.5145 8.96H91.3545ZM99.7595 14V9.184H103.735V14H104.631V3.892H103.735V8.428H99.7595V3.892H98.8635V14H99.7595ZM111.487 11.676C111.487 12.6 110.703 13.468 109.737 13.468C108.869 13.468 108.463 12.81 108.463 12.012C108.463 10.29 110.283 10.43 111.487 10.388V11.676ZM111.543 14H112.411C112.327 13.174 112.327 12.726 112.327 12.222V8.666C112.327 6.86 110.843 6.79 110.129 6.79C108.897 6.79 107.847 7.322 107.777 8.68H108.673C108.673 7.84 109.289 7.462 110.059 7.462C111.179 7.462 111.487 8.092 111.487 9.128V9.716C110.059 9.828 107.567 9.576 107.567 12.054C107.567 13.286 108.253 14.14 109.513 14.14C110.381 14.14 111.067 13.804 111.515 13.132H111.543V14ZM116.405 6.93H115.565V14H116.405V9.45C116.405 8.26 117.189 7.546 118.379 7.644V6.79C117.525 6.79 116.783 7.21 116.433 7.882H116.405V6.93ZM121.702 6.93H120.862V14H121.702V9.45C121.702 8.26 122.486 7.546 123.676 7.644V6.79C122.822 6.79 122.08 7.21 121.73 7.882H121.702V6.93ZM127.222 14V6.93H126.382V14H127.222ZM127.32 4.956V3.892H126.284V4.956H127.32ZM134.568 12.138C134.568 9.772 131.39 10.248 131.39 8.484C131.39 7.854 131.866 7.462 132.468 7.462C133.42 7.462 133.658 7.938 133.7 8.834H134.526C134.526 7.756 134.078 6.79 132.678 6.79C131.446 6.79 130.55 7.252 130.55 8.554C130.55 10.892 133.728 10.416 133.728 12.264C133.728 13.048 133.336 13.51 132.524 13.51C131.446 13.51 131.222 12.866 131.222 11.9H130.368C130.354 13.398 130.956 14.14 132.482 14.14C133.798 14.14 134.568 13.468 134.568 12.138ZM142.735 3.598C142.035 5.628 141.531 7.728 141.531 9.884C141.531 11.928 142.063 13.916 142.679 15.848H143.365C142.791 13.846 142.427 11.76 142.427 9.674C142.427 7.616 142.861 5.586 143.365 3.598H142.735ZM150.444 8.96C150.514 7.476 149.688 6.79 148.47 6.79C147.504 6.79 146.706 7.154 146.342 8.162C146.16 8.694 146.132 9.8 146.132 10.5C146.132 12.25 146.132 14.14 148.526 14.14C149.184 14.14 150.528 13.818 150.458 11.914H149.618C149.576 12.768 149.436 13.468 148.33 13.468C147.028 13.468 147.028 11.774 147.028 10.5C147.028 9.562 147.112 8.596 147.224 8.274C147.406 7.756 147.84 7.462 148.358 7.462C149.324 7.462 149.646 8.078 149.604 8.96H150.444ZM155.55 14.14C157.202 14.14 157.986 13.062 157.986 11.228V9.702C157.986 7.868 157.202 6.79 155.55 6.79C153.898 6.79 153.114 7.868 153.114 9.702V11.228C153.114 13.062 153.898 14.14 155.55 14.14ZM155.55 7.462C156.936 7.462 157.146 8.624 157.146 10.458C157.146 12.306 156.936 13.468 155.55 13.468C154.164 13.468 153.954 12.306 153.954 10.458C153.954 8.624 154.164 7.462 155.55 7.462ZM162.037 14V3.892H161.197V14H162.037ZM169.032 6.93V11.914C169.032 12.404 168.626 13.468 167.492 13.468C166.274 13.468 166.316 11.984 166.316 11.788V6.93H165.476V11.928C165.476 13.076 165.882 14.14 167.338 14.14C168.122 14.14 168.626 13.818 169.116 13.216H169.144V14H169.872V6.93H169.032ZM173.867 9.45C173.867 8.526 174.273 7.462 175.337 7.462C176.163 7.462 176.415 8.246 176.429 8.946V14H177.269V9.45C177.269 8.526 177.675 7.462 178.739 7.462C179.565 7.462 179.817 8.246 179.831 8.946V14H180.671V8.736C180.629 7.602 180.013 6.79 178.837 6.79C178.053 6.79 177.451 7.196 177.101 7.896C176.863 7.196 176.219 6.79 175.491 6.79C174.707 6.79 174.147 7.224 173.811 7.798H173.783V6.916H173.027V14H173.867V9.45ZM184.619 10.36C184.619 9.296 184.787 7.462 186.145 7.462C187.699 7.462 187.741 8.834 187.741 10.486C187.741 12.138 187.699 13.468 186.145 13.468C184.619 13.468 184.619 11.48 184.619 10.36ZM184.591 14V13.146H184.619C184.969 13.804 185.571 14.14 186.397 14.14C188.455 14.14 188.581 12.012 188.581 10.458C188.581 9.198 188.763 6.79 186.467 6.79C185.669 6.79 185.109 7.084 184.675 7.756L184.647 7.728V3.892H183.807V13.3C183.807 13.538 183.765 13.762 183.723 14H184.591ZM192.519 14V6.93H191.679V14H192.519ZM192.617 4.956V3.892H191.581V4.956H192.617ZM196.743 9.562C196.743 7.98 197.513 7.462 198.269 7.462C199.249 7.462 199.571 8.232 199.571 9.058V14H200.411V9.016C200.411 8.092 200.229 6.79 198.479 6.79C197.723 6.79 197.177 7.21 196.771 7.798H196.743V6.93H195.903V14H196.743V9.562ZM208.214 10.64C208.214 8.54 208.214 6.79 205.778 6.79C204.196 6.79 203.342 7.728 203.342 9.772V11.508C203.342 13.65 204.56 14.14 205.778 14.14C207.192 14.14 208.116 13.552 208.214 11.844H207.332C207.346 12.796 206.828 13.468 205.778 13.468C204.448 13.468 204.182 12.166 204.182 11.186V10.64H208.214ZM204.182 9.968C204.182 8.4 204.434 7.462 205.778 7.462C207.122 7.462 207.374 8.4 207.374 9.968H204.182ZM7.816 34.138C7.816 31.772 4.638 32.248 4.638 30.484C4.638 29.854 5.114 29.462 5.716 29.462C6.668 29.462 6.906 29.938 6.948 30.834H7.774C7.774 29.756 7.326 28.79 5.926 28.79C4.694 28.79 3.798 29.252 3.798 30.554C3.798 32.892 6.976 32.416 6.976 34.264C6.976 35.048 6.584 35.51 5.772 35.51C4.694 35.51 4.47 34.866 4.47 33.9H3.616C3.602 35.398 4.204 36.14 5.73 36.14C7.046 36.14 7.816 35.468 7.816 34.138ZM14.6854 30.96C14.7554 29.476 13.9294 28.79 12.7114 28.79C11.7454 28.79 10.9474 29.154 10.5834 30.162C10.4014 30.694 10.3734 31.8 10.3734 32.5C10.3734 34.25 10.3734 36.14 12.7674 36.14C13.4254 36.14 14.7694 35.818 14.6994 33.914H13.8594C13.8174 34.768 13.6774 35.468 12.5714 35.468C11.2694 35.468 11.2694 33.774 11.2694 32.5C11.2694 31.562 11.3534 30.596 11.4654 30.274C11.6474 29.756 12.0814 29.462 12.5994 29.462C13.5654 29.462 13.8874 30.078 13.8454 30.96H14.6854ZM18.3768 36V31.562C18.3768 29.98 19.1468 29.462 19.9028 29.462C20.8828 29.462 21.2048 30.232 21.2048 31.058V36H22.0448V31.016C22.0448 30.092 21.8628 28.79 20.1128 28.79C19.3568 28.79 18.8108 29.21 18.4048 29.798H18.3768V25.892H17.5368V36H18.3768ZM27.4115 36.14C29.0635 36.14 29.8475 35.062 29.8475 33.228V31.702C29.8475 29.868 29.0635 28.79 27.4115 28.79C25.7595 28.79 24.9755 29.868 24.9755 31.702V33.228C24.9755 35.062 25.7595 36.14 27.4115 36.14ZM27.4115 29.462C28.7975 29.462 29.0075 30.624 29.0075 32.458C29.0075 34.306 28.7975 35.468 27.4115 35.468C26.0255 35.468 25.8155 34.306 25.8155 32.458C25.8155 30.624 26.0255 29.462 27.4115 29.462ZM35.0322 36.14C36.6842 36.14 37.4682 35.062 37.4682 33.228V31.702C37.4682 29.868 36.6842 28.79 35.0322 28.79C33.3802 28.79 32.5962 29.868 32.5962 31.702V33.228C32.5962 35.062 33.3802 36.14 35.0322 36.14ZM35.0322 29.462C36.4182 29.462 36.6282 30.624 36.6282 32.458C36.6282 34.306 36.4182 35.468 35.0322 35.468C33.6462 35.468 33.4362 34.306 33.4362 32.458C33.4362 30.624 33.6462 29.462 35.0322 29.462ZM41.5189 36V25.892H40.6789V36H41.5189ZM53.368 34.138C53.368 31.772 50.19 32.248 50.19 30.484C50.19 29.854 50.666 29.462 51.268 29.462C52.22 29.462 52.458 29.938 52.5 30.834H53.326C53.326 29.756 52.878 28.79 51.478 28.79C50.246 28.79 49.35 29.252 49.35 30.554C49.35 32.892 52.528 32.416 52.528 34.264C52.528 35.048 52.136 35.51 51.324 35.51C50.246 35.51 50.022 34.866 50.022 33.9H49.168C49.154 35.398 49.756 36.14 51.282 36.14C52.598 36.14 53.368 35.468 53.368 34.138ZM57.0874 36V31.562C57.0874 29.98 57.8574 29.462 58.6134 29.462C59.5934 29.462 59.9154 30.232 59.9154 31.058V36H60.7554V31.016C60.7554 30.092 60.5734 28.79 58.8234 28.79C58.0674 28.79 57.5214 29.21 57.1154 29.798H57.0874V25.892H56.2474V36H57.0874ZM66.1221 36.14C67.7741 36.14 68.5581 35.062 68.5581 33.228V31.702C68.5581 29.868 67.7741 28.79 66.1221 28.79C64.4701 28.79 63.6861 29.868 63.6861 31.702V33.228C63.6861 35.062 64.4701 36.14 66.1221 36.14ZM66.1221 29.462C67.5081 29.462 67.7181 30.624 67.7181 32.458C67.7181 34.306 67.5081 35.468 66.1221 35.468C64.7361 35.468 64.5261 34.306 64.5261 32.458C64.5261 30.624 64.7361 29.462 66.1221 29.462ZM73.7428 36.14C75.3948 36.14 76.1788 35.062 76.1788 33.228V31.702C76.1788 29.868 75.3948 28.79 73.7428 28.79C72.0908 28.79 71.3068 29.868 71.3068 31.702V33.228C71.3068 35.062 72.0908 36.14 73.7428 36.14ZM73.7428 29.462C75.1288 29.462 75.3388 30.624 75.3388 32.458C75.3388 34.306 75.1288 35.468 73.7428 35.468C72.3568 35.468 72.1468 34.306 72.1468 32.458C72.1468 30.624 72.3568 29.462 73.7428 29.462ZM79.6135 29.602V34.656C79.6135 35.524 79.9495 36.028 81.0835 36.028C81.3495 36.028 81.6295 36.014 81.8815 35.986V35.258C81.6995 35.286 81.5035 35.3 81.2235 35.3C80.5515 35.3 80.4535 35.076 80.4535 34.138V29.602H81.8815V28.93H80.4535V27.11L79.6135 27.474V28.93H78.4795V29.602H79.6135ZM89.096 32.64C89.096 30.54 89.096 28.79 86.66 28.79C85.078 28.79 84.224 29.728 84.224 31.772V33.508C84.224 35.65 85.442 36.14 86.66 36.14C88.074 36.14 88.998 35.552 89.096 33.844H88.214C88.228 34.796 87.71 35.468 86.66 35.468C85.33 35.468 85.064 34.166 85.064 33.186V32.64H89.096ZM85.064 31.968C85.064 30.4 85.316 29.462 86.66 29.462C88.004 29.462 88.256 30.4 88.256 31.968H85.064ZM92.9227 28.93H92.0827V36H92.9227V31.45C92.9227 30.26 93.7067 29.546 94.8967 29.644V28.79C94.0427 28.79 93.3007 29.21 92.9507 29.882H92.9227V28.93ZM97.3091 25.598C97.8131 27.586 98.2471 29.616 98.2471 31.674C98.2471 33.76 97.8831 35.846 97.3091 37.848H97.9951C98.6111 35.916 99.1431 33.928 99.1431 31.884C99.1431 29.728 98.6391 27.628 97.9391 25.598H97.3091ZM108.444 35.468C107.534 35.468 106.904 35.118 106.904 32.486C106.904 30.834 106.904 29.462 108.416 29.462C109.998 29.462 109.998 31.422 109.998 31.842V33.102C109.998 34.824 109.242 35.468 108.444 35.468ZM110.082 36H110.894C110.852 35.762 110.81 35.3 110.81 34.6V25.892H109.97V29.644L109.942 29.63C109.508 29.084 108.878 28.79 108.234 28.79C106.064 28.79 106.064 31.1 106.064 32.458C106.064 34.11 106.176 36.14 108.22 36.14C109.046 36.14 109.578 35.79 110.012 35.118L110.04 35.104L110.082 36ZM115.071 36V28.93H114.231V36H115.071ZM115.169 26.956V25.892H114.133V26.956H115.169ZM122.052 33.676C122.052 34.6 121.268 35.468 120.302 35.468C119.434 35.468 119.028 34.81 119.028 34.012C119.028 32.29 120.848 32.43 122.052 32.388V33.676ZM122.108 36H122.976C122.892 35.174 122.892 34.726 122.892 34.222V30.666C122.892 28.86 121.408 28.79 120.694 28.79C119.462 28.79 118.412 29.322 118.342 30.68H119.238C119.238 29.84 119.854 29.462 120.624 29.462C121.744 29.462 122.052 30.092 122.052 31.128V31.716C120.624 31.828 118.132 31.576 118.132 34.054C118.132 35.286 118.818 36.14 120.078 36.14C120.946 36.14 121.632 35.804 122.08 35.132H122.108V36ZM126.971 28.93H126.131V36H126.971V31.45C126.971 30.26 127.755 29.546 128.945 29.644V28.79C128.091 28.79 127.349 29.21 126.999 29.882H126.971V28.93ZM132.072 38.674H132.898L135.824 28.93H134.984L133.318 34.726H133.29L131.568 28.93H130.658L132.898 36.014L132.072 38.674ZM137.418 37.47H138.16L139 34.936H137.978L137.418 37.47ZM147.069 36H147.909V29.602H149.337V28.93H147.909V27.726C147.909 27.32 147.909 26.592 148.721 26.592H149.351V25.892C149.141 25.864 149.001 25.836 148.875 25.836C147.167 25.836 147.069 27.068 147.069 27.74V28.93H145.935V29.602H147.069V36ZM155.431 28.93V33.914C155.431 34.404 155.025 35.468 153.891 35.468C152.673 35.468 152.715 33.984 152.715 33.788V28.93H151.875V33.928C151.875 35.076 152.281 36.14 153.737 36.14C154.521 36.14 155.025 35.818 155.515 35.216H155.543V36H156.271V28.93H155.431ZM160.56 36V25.892H159.72V36H160.56ZM165.063 36V25.892H164.223V36H165.063ZM175.204 36.14C176.856 36.14 177.64 35.062 177.64 33.228V31.702C177.64 29.868 176.856 28.79 175.204 28.79C173.552 28.79 172.768 29.868 172.768 31.702V33.228C172.768 35.062 173.552 36.14 175.204 36.14ZM175.204 29.462C176.59 29.462 176.8 30.624 176.8 32.458C176.8 34.306 176.59 35.468 175.204 35.468C173.818 35.468 173.608 34.306 173.608 32.458C173.608 30.624 173.818 29.462 175.204 29.462ZM181.117 36H181.957V29.602H183.385V28.93H181.957V27.726C181.957 27.32 181.957 26.592 182.769 26.592H183.399V25.892C183.189 25.864 183.049 25.836 182.923 25.836C181.215 25.836 181.117 27.068 181.117 27.74V28.93H179.983V29.602H181.117V36ZM191.267 28.93H190.427V36H191.267V31.45C191.267 30.26 192.051 29.546 193.241 29.644V28.79C192.387 28.79 191.645 29.21 191.295 29.882H191.267V28.93ZM199.266 33.676C199.266 34.6 198.482 35.468 197.516 35.468C196.648 35.468 196.242 34.81 196.242 34.012C196.242 32.29 198.062 32.43 199.266 32.388V33.676ZM199.322 36H200.19C200.106 35.174 200.106 34.726 200.106 34.222V30.666C200.106 28.86 198.622 28.79 197.908 28.79C196.676 28.79 195.626 29.322 195.556 30.68H196.452C196.452 29.84 197.068 29.462 197.838 29.462C198.958 29.462 199.266 30.092 199.266 31.128V31.716C197.838 31.828 195.346 31.576 195.346 34.054C195.346 35.286 196.032 36.14 197.292 36.14C198.16 36.14 198.846 35.804 199.294 35.132H199.322V36ZM205.346 29.462C206.13 29.462 206.928 30.022 206.928 31.506C206.928 33.578 206.872 33.9 206.662 34.446C206.536 34.782 206.088 35.244 205.388 35.244C203.862 35.244 203.862 33.774 203.862 32.304C203.862 31.254 203.89 29.462 205.346 29.462ZM206.984 29.812L206.956 29.784C206.648 29.154 205.934 28.79 205.22 28.79C203.792 28.79 203.302 29.896 203.232 30.19C203.036 30.946 203.022 30.96 203.022 32.598C203.022 34.166 203.162 35.916 205.192 35.916C205.864 35.916 206.536 35.664 206.9 35.062H206.928C206.928 37.176 207.026 38.058 205.388 38.058C204.604 38.058 204.002 37.582 204.058 36.77H203.218C203.162 37.484 203.512 38.73 205.276 38.73C207.292 38.73 207.768 37.806 207.768 36.252V30.302C207.768 29.938 207.782 29.588 207.81 28.916H206.984V29.812ZM215.599 32.64C215.599 30.54 215.599 28.79 213.163 28.79C211.581 28.79 210.727 29.728 210.727 31.772V33.508C210.727 35.65 211.945 36.14 213.163 36.14C214.577 36.14 215.501 35.552 215.599 33.844H214.717C214.731 34.796 214.213 35.468 213.163 35.468C211.833 35.468 211.567 34.166 211.567 33.186V32.64H215.599ZM211.567 31.968C211.567 30.4 211.819 29.462 213.163 29.462C214.507 29.462 214.759 30.4 214.759 31.968H211.567ZM7.452 55.676C7.452 56.6 6.668 57.468 5.702 57.468C4.834 57.468 4.428 56.81 4.428 56.012C4.428 54.29 6.248 54.43 7.452 54.388V55.676ZM7.508 58H8.376C8.292 57.174 8.292 56.726 8.292 56.222V52.666C8.292 50.86 6.808 50.79 6.094 50.79C4.862 50.79 3.812 51.322 3.742 52.68H4.638C4.638 51.84 5.254 51.462 6.024 51.462C7.144 51.462 7.452 52.092 7.452 53.128V53.716C6.024 53.828 3.532 53.576 3.532 56.054C3.532 57.286 4.218 58.14 5.478 58.14C6.346 58.14 7.032 57.804 7.48 57.132H7.508V58ZM12.3147 53.562C12.3147 51.98 13.0847 51.462 13.8407 51.462C14.8207 51.462 15.1427 52.232 15.1427 53.058V58H15.9827V53.016C15.9827 52.092 15.8007 50.79 14.0507 50.79C13.2947 50.79 12.7487 51.21 12.3427 51.798H12.3147V50.93H11.4747V58H12.3147V53.562ZM21.2094 57.468C20.2994 57.468 19.6694 57.118 19.6694 54.486C19.6694 52.834 19.6694 51.462 21.1814 51.462C22.7634 51.462 22.7634 53.422 22.7634 53.842V55.102C22.7634 56.824 22.0074 57.468 21.2094 57.468ZM22.8474 58H23.6594C23.6174 57.762 23.5754 57.3 23.5754 56.6V47.892H22.7354V51.644L22.7074 51.63C22.2734 51.084 21.6434 50.79 20.9994 50.79C18.8294 50.79 18.8294 53.1 18.8294 54.458C18.8294 56.11 18.9414 58.14 20.9854 58.14C21.8114 58.14 22.3434 57.79 22.7774 57.118L22.8054 57.104L22.8474 58ZM32.0596 58V53.562C32.0596 51.98 32.8296 51.462 33.5856 51.462C34.5656 51.462 34.8876 52.232 34.8876 53.058V58H35.7276V53.016C35.7276 52.092 35.5456 50.79 33.7956 50.79C33.0396 50.79 32.4936 51.21 32.0876 51.798H32.0596V47.892H31.2196V58H32.0596ZM42.4383 55.676C42.4383 56.6 41.6543 57.468 40.6883 57.468C39.8203 57.468 39.4143 56.81 39.4143 56.012C39.4143 54.29 41.2343 54.43 42.4383 54.388V55.676ZM42.4943 58H43.3623C43.2783 57.174 43.2783 56.726 43.2783 56.222V52.666C43.2783 50.86 41.7943 50.79 41.0803 50.79C39.8483 50.79 38.7983 51.322 38.7283 52.68H39.6243C39.6243 51.84 40.2403 51.462 41.0103 51.462C42.1303 51.462 42.4383 52.092 42.4383 53.128V53.716C41.0103 53.828 38.5183 53.576 38.5183 56.054C38.5183 57.286 39.2043 58.14 40.4643 58.14C41.3323 58.14 42.0183 57.804 42.4663 57.132H42.4943V58ZM46.965 51.602V56.656C46.965 57.524 47.301 58.028 48.435 58.028C48.701 58.028 48.981 58.014 49.233 57.986V57.258C49.051 57.286 48.855 57.3 48.575 57.3C47.903 57.3 47.805 57.076 47.805 56.138V51.602H49.233V50.93H47.805V49.11L46.965 49.474V50.93H45.831V51.602H46.965ZM56.4475 54.64C56.4475 52.54 56.4475 50.79 54.0115 50.79C52.4295 50.79 51.5755 51.728 51.5755 53.772V55.508C51.5755 57.65 52.7935 58.14 54.0115 58.14C55.4255 58.14 56.3495 57.552 56.4475 55.844H55.5655C55.5795 56.796 55.0615 57.468 54.0115 57.468C52.6815 57.468 52.4155 56.166 52.4155 55.186V54.64H56.4475ZM52.4155 53.968C52.4155 52.4 52.6675 51.462 54.0115 51.462C55.3555 51.462 55.6075 52.4 55.6075 53.968H52.4155ZM67.8437 56.138C67.8437 53.772 64.6657 54.248 64.6657 52.484C64.6657 51.854 65.1417 51.462 65.7437 51.462C66.6957 51.462 66.9337 51.938 66.9757 52.834H67.8017C67.8017 51.756 67.3537 50.79 65.9537 50.79C64.7217 50.79 63.8257 51.252 63.8257 52.554C63.8257 54.892 67.0037 54.416 67.0037 56.264C67.0037 57.048 66.6117 57.51 65.7997 57.51C64.7217 57.51 64.4977 56.866 64.4977 55.9H63.6437C63.6297 57.398 64.2317 58.14 65.7577 58.14C67.0737 58.14 67.8437 57.468 67.8437 56.138ZM71.4231 60.674H72.2491L75.1751 50.93H74.3351L72.6691 56.726H72.6411L70.9191 50.93H70.0091L72.2491 58.014L71.4231 60.674ZM78.3905 53.45C78.3905 52.526 78.7965 51.462 79.8605 51.462C80.6865 51.462 80.9385 52.246 80.9525 52.946V58H81.7925V53.45C81.7925 52.526 82.1985 51.462 83.2625 51.462C84.0885 51.462 84.3405 52.246 84.3545 52.946V58H85.1945V52.736C85.1525 51.602 84.5365 50.79 83.3605 50.79C82.5765 50.79 81.9745 51.196 81.6245 51.896C81.3865 51.196 80.7425 50.79 80.0145 50.79C79.2305 50.79 78.6705 51.224 78.3345 51.798H78.3065V50.916H77.5505V58H78.3905V53.45ZM89.1424 54.36C89.1424 53.296 89.3104 51.462 90.6684 51.462C92.2224 51.462 92.2644 52.834 92.2644 54.486C92.2644 56.138 92.2224 57.468 90.6684 57.468C89.1424 57.468 89.1424 55.48 89.1424 54.36ZM89.1144 58V57.146H89.1424C89.4924 57.804 90.0944 58.14 90.9204 58.14C92.9784 58.14 93.1044 56.012 93.1044 54.458C93.1044 53.198 93.2864 50.79 90.9904 50.79C90.1924 50.79 89.6324 51.084 89.1984 51.756L89.1704 51.728V47.892H88.3304V57.3C88.3304 57.538 88.2884 57.762 88.2464 58H89.1144ZM98.1771 58.14C99.8291 58.14 100.613 57.062 100.613 55.228V53.702C100.613 51.868 99.8291 50.79 98.1771 50.79C96.5251 50.79 95.7411 51.868 95.7411 53.702V55.228C95.7411 57.062 96.5251 58.14 98.1771 58.14ZM98.1771 51.462C99.5631 51.462 99.7731 52.624 99.7731 54.458C99.7731 56.306 99.5631 57.468 98.1771 57.468C96.7911 57.468 96.5811 56.306 96.5811 54.458C96.5811 52.624 96.7911 51.462 98.1771 51.462ZM104.664 58V47.892H103.824V58H104.664ZM112.009 56.138C112.009 53.772 108.831 54.248 108.831 52.484C108.831 51.854 109.307 51.462 109.909 51.462C110.861 51.462 111.099 51.938 111.141 52.834H111.967C111.967 51.756 111.519 50.79 110.119 50.79C108.887 50.79 107.991 51.252 107.991 52.554C107.991 54.892 111.169 54.416 111.169 56.264C111.169 57.048 110.777 57.51 109.965 57.51C108.887 57.51 108.663 56.866 108.663 55.9H107.809C107.795 57.398 108.397 58.14 109.923 58.14C111.239 58.14 112.009 57.468 112.009 56.138ZM115.071 58H116.107V56.936H115.071V58Z" fill="white"/>
</svg>
