<svg width="298" height="67" viewBox="0 0 298 67" fill="none" xmlns="http://www.w3.org/2000/svg">
<rect width="296" height="47" fill="black" fill-opacity="0.69"/>
<path d="M6.946 4.648H8.122C10.614 4.648 11.006 5.488 11.006 8.386C11.006 12.516 10.74 13.244 8.038 13.244H6.946V4.648ZM6.05 14H8.36C11.412 14 11.902 12.348 11.902 8.988C11.902 5.544 11.552 3.892 8.724 3.892H6.05V14ZM15.7333 16.674H16.5593L19.4853 6.93H18.6453L16.9793 12.726H16.9513L15.2293 6.93H14.3193L16.5593 14.014L15.7333 16.674ZM22.9947 14V3.892H22.1547V14H22.9947ZM29.9762 11.676C29.9762 12.6 29.1922 13.468 28.2262 13.468C27.3582 13.468 26.9522 12.81 26.9522 12.012C26.9522 10.29 28.7722 10.43 29.9762 10.388V11.676ZM30.0322 14H30.9002C30.8162 13.174 30.8162 12.726 30.8162 12.222V8.666C30.8162 6.86 29.3322 6.79 28.6182 6.79C27.3862 6.79 26.3362 7.322 26.2662 8.68H27.1622C27.1622 7.84 27.7782 7.462 28.5482 7.462C29.6682 7.462 29.9762 8.092 29.9762 9.128V9.716C28.5482 9.828 26.0562 9.576 26.0562 12.054C26.0562 13.286 26.7422 14.14 28.0022 14.14C28.8702 14.14 29.5562 13.804 30.0042 13.132H30.0322V14ZM34.8389 9.562C34.8389 7.98 35.6089 7.462 36.3649 7.462C37.3449 7.462 37.6669 8.232 37.6669 9.058V14H38.5069V9.016C38.5069 8.092 38.3249 6.79 36.5749 6.79C35.8189 6.79 35.2729 7.21 34.8669 7.798H34.8389V6.93H33.9989V14H34.8389V9.562ZM47.2571 14V8.82H47.2851L50.9391 14H52.0591L48.1671 8.61L51.9471 3.892H50.8691L47.2851 8.526H47.2571V3.892H46.3611V14H47.2571ZM55.6431 14V3.892H54.8031V14H55.6431ZM63.7167 10.64C63.7167 8.54 63.7167 6.79 61.2807 6.79C59.6987 6.79 58.8447 7.728 58.8447 9.772V11.508C58.8447 13.65 60.0627 14.14 61.2807 14.14C62.6947 14.14 63.6187 13.552 63.7167 11.844H62.8347C62.8487 12.796 62.3307 13.468 61.2807 13.468C59.9507 13.468 59.6847 12.166 59.6847 11.186V10.64H63.7167ZM59.6847 9.968C59.6847 8.4 59.9367 7.462 61.2807 7.462C62.6247 7.462 62.8767 8.4 62.8767 9.968H59.6847ZM67.4874 10.36C67.4874 9.296 67.6554 7.462 69.0134 7.462C70.5674 7.462 70.6094 8.834 70.6094 10.486C70.6094 12.138 70.5674 13.468 69.0134 13.468C67.4874 13.468 67.4874 11.48 67.4874 10.36ZM67.4594 14V13.146H67.4874C67.8374 13.804 68.4394 14.14 69.2654 14.14C71.3234 14.14 71.4494 12.012 71.4494 10.458C71.4494 9.198 71.6314 6.79 69.3354 6.79C68.5374 6.79 67.9774 7.084 67.5434 7.756L67.5154 7.728V3.892H66.6754V13.3C66.6754 13.538 66.6334 13.762 66.5914 14H67.4594ZM76.5221 14.14C78.1741 14.14 78.9581 13.062 78.9581 11.228V9.702C78.9581 7.868 78.1741 6.79 76.5221 6.79C74.8701 6.79 74.0861 7.868 74.0861 9.702V11.228C74.0861 13.062 74.8701 14.14 76.5221 14.14ZM76.5221 7.462C77.9081 7.462 78.1181 8.624 78.1181 10.458C78.1181 12.306 77.9081 13.468 76.5221 13.468C75.1361 13.468 74.9261 12.306 74.9261 10.458C74.9261 8.624 75.1361 7.462 76.5221 7.462ZM83.0088 14V3.892H82.1688V14H83.0088ZM88.5063 13.468C87.5963 13.468 86.9663 13.118 86.9663 10.486C86.9663 8.834 86.9663 7.462 88.4783 7.462C90.0603 7.462 90.0603 9.422 90.0603 9.842V11.102C90.0603 12.824 89.3043 13.468 88.5063 13.468ZM90.1443 14H90.9563C90.9143 13.762 90.8723 13.3 90.8723 12.6V3.892H90.0323V7.644L90.0043 7.63C89.5703 7.084 88.9403 6.79 88.2963 6.79C86.1263 6.79 86.1263 9.1 86.1263 10.458C86.1263 12.11 86.2383 14.14 88.2823 14.14C89.1083 14.14 89.6403 13.79 90.0743 13.118L90.1023 13.104L90.1443 14ZM93.915 6.426H94.657L95.497 3.892H94.475L93.915 6.426ZM101.221 12.138C101.221 9.772 98.0427 10.248 98.0427 8.484C98.0427 7.854 98.5187 7.462 99.1207 7.462C100.073 7.462 100.311 7.938 100.353 8.834H101.179C101.179 7.756 100.731 6.79 99.3307 6.79C98.0987 6.79 97.2027 7.252 97.2027 8.554C97.2027 10.892 100.381 10.416 100.381 12.264C100.381 13.048 99.9887 13.51 99.1767 13.51C98.0987 13.51 97.8747 12.866 97.8747 11.9H97.0207C97.0067 13.398 97.6087 14.14 99.1347 14.14C100.451 14.14 101.221 13.468 101.221 12.138ZM110.718 13.468C109.808 13.468 109.178 13.118 109.178 10.486C109.178 8.834 109.178 7.462 110.69 7.462C112.272 7.462 112.272 9.422 112.272 9.842V11.102C112.272 12.824 111.516 13.468 110.718 13.468ZM112.356 14H113.168C113.126 13.762 113.084 13.3 113.084 12.6V3.892H112.244V7.644L112.216 7.63C111.782 7.084 111.152 6.79 110.508 6.79C108.338 6.79 108.338 9.1 108.338 10.458C108.338 12.11 108.45 14.14 110.494 14.14C111.32 14.14 111.852 13.79 112.286 13.118L112.314 13.104L112.356 14ZM117.12 6.93H116.28V14H117.12V9.45C117.12 8.26 117.904 7.546 119.094 7.644V6.79C118.24 6.79 117.498 7.21 117.148 7.882H117.12V6.93ZM125.119 11.676C125.119 12.6 124.335 13.468 123.369 13.468C122.501 13.468 122.095 12.81 122.095 12.012C122.095 10.29 123.915 10.43 125.119 10.388V11.676ZM125.175 14H126.043C125.959 13.174 125.959 12.726 125.959 12.222V8.666C125.959 6.86 124.475 6.79 123.761 6.79C122.529 6.79 121.479 7.322 121.409 8.68H122.305C122.305 7.84 122.921 7.462 123.691 7.462C124.811 7.462 125.119 8.092 125.119 9.128V9.716C123.691 9.828 121.199 9.576 121.199 12.054C121.199 13.286 121.885 14.14 123.145 14.14C124.013 14.14 124.699 13.804 125.147 13.132H125.175V14ZM130.373 14H131.423L132.907 7.952H132.935L134.489 14H135.539L137.485 6.93H136.645L135.063 13.118H135.035L133.467 6.93H132.431L130.933 13.118H130.905L129.323 6.93H128.427L130.373 14ZM140.999 14V6.93H140.159V14H140.999ZM141.097 4.956V3.892H140.061V4.956H141.097ZM145.223 9.562C145.223 7.98 145.993 7.462 146.749 7.462C147.729 7.462 148.051 8.232 148.051 9.058V14H148.891V9.016C148.891 8.092 148.709 6.79 146.959 6.79C146.203 6.79 145.657 7.21 145.251 7.798H145.223V6.93H144.383V14H145.223V9.562ZM154.062 7.462C154.846 7.462 155.644 8.022 155.644 9.506C155.644 11.578 155.588 11.9 155.378 12.446C155.252 12.782 154.804 13.244 154.104 13.244C152.578 13.244 152.578 11.774 152.578 10.304C152.578 9.254 152.606 7.462 154.062 7.462ZM155.7 7.812L155.672 7.784C155.364 7.154 154.65 6.79 153.936 6.79C152.508 6.79 152.018 7.896 151.948 8.19C151.752 8.946 151.738 8.96 151.738 10.598C151.738 12.166 151.878 13.916 153.908 13.916C154.58 13.916 155.252 13.664 155.616 13.062H155.644C155.644 15.176 155.742 16.058 154.104 16.058C153.32 16.058 152.718 15.582 152.774 14.77H151.934C151.878 15.484 152.228 16.73 153.992 16.73C156.008 16.73 156.484 15.806 156.484 14.252V8.302C156.484 7.938 156.498 7.588 156.526 6.916H155.7V7.812ZM166.382 14.14C168.034 14.14 168.818 13.062 168.818 11.228V9.702C168.818 7.868 168.034 6.79 166.382 6.79C164.73 6.79 163.946 7.868 163.946 9.702V11.228C163.946 13.062 164.73 14.14 166.382 14.14ZM166.382 7.462C167.768 7.462 167.978 8.624 167.978 10.458C167.978 12.306 167.768 13.468 166.382 13.468C164.996 13.468 164.786 12.306 164.786 10.458C164.786 8.624 164.996 7.462 166.382 7.462ZM172.295 14H173.135V7.602H174.563V6.93H173.135V5.726C173.135 5.32 173.135 4.592 173.947 4.592H174.577V3.892C174.367 3.864 174.227 3.836 174.101 3.836C172.393 3.836 172.295 5.068 172.295 5.74V6.93H171.161V7.602H172.295V14ZM182.053 7.602V12.656C182.053 13.524 182.389 14.028 183.523 14.028C183.789 14.028 184.069 14.014 184.321 13.986V13.258C184.139 13.286 183.943 13.3 183.663 13.3C182.991 13.3 182.893 13.076 182.893 12.138V7.602H184.321V6.93H182.893V5.11L182.053 5.474V6.93H180.919V7.602H182.053ZM187.685 14V9.562C187.685 7.98 188.455 7.462 189.211 7.462C190.191 7.462 190.513 8.232 190.513 9.058V14H191.353V9.016C191.353 8.092 191.171 6.79 189.421 6.79C188.665 6.79 188.119 7.21 187.713 7.798H187.685V3.892H186.845V14H187.685ZM199.156 10.64C199.156 8.54 199.156 6.79 196.72 6.79C195.138 6.79 194.284 7.728 194.284 9.772V11.508C194.284 13.65 195.502 14.14 196.72 14.14C198.134 14.14 199.058 13.552 199.156 11.844H198.274C198.288 12.796 197.77 13.468 196.72 13.468C195.39 13.468 195.124 12.166 195.124 11.186V10.64H199.156ZM195.124 9.968C195.124 8.4 195.376 7.462 196.72 7.462C198.064 7.462 198.316 8.4 198.316 9.968H195.124ZM208.844 14.14C210.496 14.14 211.28 13.062 211.28 11.228V9.702C211.28 7.868 210.496 6.79 208.844 6.79C207.192 6.79 206.408 7.868 206.408 9.702V11.228C206.408 13.062 207.192 14.14 208.844 14.14ZM208.844 7.462C210.23 7.462 210.44 8.624 210.44 10.458C210.44 12.306 210.23 13.468 208.844 13.468C207.458 13.468 207.248 12.306 207.248 10.458C207.248 8.624 207.458 7.462 208.844 7.462ZM217.823 6.93V11.914C217.823 12.404 217.417 13.468 216.283 13.468C215.065 13.468 215.107 11.984 215.107 11.788V6.93H214.267V11.928C214.267 13.076 214.673 14.14 216.129 14.14C216.913 14.14 217.417 13.818 217.907 13.216H217.935V14H218.663V6.93H217.823ZM222.335 7.602V12.656C222.335 13.524 222.671 14.028 223.805 14.028C224.071 14.028 224.351 14.014 224.603 13.986V13.258C224.421 13.286 224.225 13.3 223.945 13.3C223.273 13.3 223.175 13.076 223.175 12.138V7.602H224.603V6.93H223.175V5.11L222.335 5.474V6.93H221.201V7.602H222.335ZM231.44 14V6.93H230.6V14H231.44ZM231.538 4.956V3.892H230.502V4.956H231.538ZM227.674 14H228.514V7.602H229.942V6.93H228.514V5.726C228.514 5.32 228.514 4.592 229.326 4.592H229.956V3.892C229.746 3.864 229.606 3.836 229.48 3.836C227.772 3.836 227.674 5.068 227.674 5.74V6.93H226.54V7.602H227.674V14ZM235.253 7.602V12.656C235.253 13.524 235.589 14.028 236.723 14.028C236.989 14.028 237.269 14.014 237.521 13.986V13.258C237.339 13.286 237.143 13.3 236.863 13.3C236.191 13.3 236.093 13.076 236.093 12.138V7.602H237.521V6.93H236.093V5.11L235.253 5.474V6.93H234.119V7.602H235.253ZM244.007 12.138C244.007 9.772 240.829 10.248 240.829 8.484C240.829 7.854 241.305 7.462 241.907 7.462C242.859 7.462 243.097 7.938 243.139 8.834H243.965C243.965 7.756 243.517 6.79 242.117 6.79C240.885 6.79 239.989 7.252 239.989 8.554C239.989 10.892 243.167 10.416 243.167 12.264C243.167 13.048 242.775 13.51 241.963 13.51C240.885 13.51 240.661 12.866 240.661 11.9H239.807C239.793 13.398 240.395 14.14 241.921 14.14C243.237 14.14 244.007 13.468 244.007 12.138ZM251.894 7.602V12.656C251.894 13.524 252.23 14.028 253.364 14.028C253.63 14.028 253.91 14.014 254.162 13.986V13.258C253.98 13.286 253.784 13.3 253.504 13.3C252.832 13.3 252.734 13.076 252.734 12.138V7.602H254.162V6.93H252.734V5.11L251.894 5.474V6.93H250.76V7.602H251.894ZM257.526 14V9.562C257.526 7.98 258.296 7.462 259.052 7.462C260.032 7.462 260.354 8.232 260.354 9.058V14H261.194V9.016C261.194 8.092 261.012 6.79 259.262 6.79C258.506 6.79 257.96 7.21 257.554 7.798H257.526V3.892H256.686V14H257.526ZM268.997 10.64C268.997 8.54 268.997 6.79 266.561 6.79C264.979 6.79 264.125 7.728 264.125 9.772V11.508C264.125 13.65 265.343 14.14 266.561 14.14C267.975 14.14 268.899 13.552 268.997 11.844H268.115C268.129 12.796 267.611 13.468 266.561 13.468C265.231 13.468 264.965 12.166 264.965 11.186V10.64H268.997ZM264.965 9.968C264.965 8.4 265.217 7.462 266.561 7.462C267.905 7.462 268.157 8.4 268.157 9.968H264.965ZM272.628 16.674H273.454L276.38 6.93H275.54L273.874 12.726H273.846L272.124 6.93H271.214L273.454 14.014L272.628 16.674ZM7.086 36H8.136L9.62 29.952H9.648L11.202 36H12.252L14.198 28.93H13.358L11.776 35.118H11.748L10.18 28.93H9.144L7.646 35.118H7.618L6.036 28.93H5.14L7.086 36ZM21.2819 32.64C21.2819 30.54 21.2819 28.79 18.8459 28.79C17.2639 28.79 16.4099 29.728 16.4099 31.772V33.508C16.4099 35.65 17.6279 36.14 18.8459 36.14C20.2599 36.14 21.1839 35.552 21.2819 33.844H20.3999C20.4139 34.796 19.8959 35.468 18.8459 35.468C17.5159 35.468 17.2499 34.166 17.2499 33.186V32.64H21.2819ZM17.2499 31.968C17.2499 30.4 17.5019 29.462 18.8459 29.462C20.1899 29.462 20.4419 30.4 20.4419 31.968H17.2499ZM25.1086 28.93H24.2686V36H25.1086V31.45C25.1086 30.26 25.8926 29.546 27.0826 29.644V28.79C26.2286 28.79 25.4866 29.21 25.1366 29.882H25.1086V28.93ZM34.1991 32.64C34.1991 30.54 34.1991 28.79 31.7631 28.79C30.1811 28.79 29.3271 29.728 29.3271 31.772V33.508C29.3271 35.65 30.5451 36.14 31.7631 36.14C33.1771 36.14 34.1011 35.552 34.1991 33.844H33.3171C33.3311 34.796 32.8131 35.468 31.7631 35.468C30.4331 35.468 30.1671 34.166 30.1671 33.186V32.64H34.1991ZM30.1671 31.968C30.1671 30.4 30.4191 29.462 31.7631 29.462C33.1071 29.462 33.3591 30.4 33.3591 31.968H30.1671ZM42.5013 31.828C42.5013 30.078 43.4533 29.462 43.9993 29.462C45.3853 29.462 45.5953 30.624 45.5953 32.458C45.5953 34.306 45.3853 35.468 43.9993 35.468C43.2293 35.468 42.5013 34.698 42.5013 33.088V31.828ZM42.4733 28.93H41.6613V38.674H42.5013V35.202L42.5293 35.216C42.9633 35.888 43.4813 36.14 43.9993 36.14C45.8053 36.14 46.4353 35.062 46.4353 33.228V31.646C46.4353 30.722 46.4213 28.79 44.2093 28.79C43.6493 28.79 42.9493 29.084 42.5013 29.77L42.4733 29.784V28.93ZM50.374 36V25.892H49.534V36H50.374ZM57.3555 33.676C57.3555 34.6 56.5715 35.468 55.6055 35.468C54.7375 35.468 54.3315 34.81 54.3315 34.012C54.3315 32.29 56.1515 32.43 57.3555 32.388V33.676ZM57.4115 36H58.2795C58.1955 35.174 58.1955 34.726 58.1955 34.222V30.666C58.1955 28.86 56.7115 28.79 55.9975 28.79C54.7655 28.79 53.7155 29.322 53.6455 30.68H54.5415C54.5415 29.84 55.1575 29.462 55.9275 29.462C57.0475 29.462 57.3555 30.092 57.3555 31.128V31.716C55.9275 31.828 53.4355 31.576 53.4355 34.054C53.4355 35.286 54.1215 36.14 55.3815 36.14C56.2495 36.14 56.9355 35.804 57.3835 35.132H57.4115V36ZM62.2182 31.562C62.2182 29.98 62.9882 29.462 63.7442 29.462C64.7242 29.462 65.0462 30.232 65.0462 31.058V36H65.8862V31.016C65.8862 30.092 65.7042 28.79 63.9542 28.79C63.1982 28.79 62.6522 29.21 62.2462 29.798H62.2182V28.93H61.3782V36H62.2182V31.562ZM69.8389 31.562C69.8389 29.98 70.6089 29.462 71.3649 29.462C72.3449 29.462 72.6669 30.232 72.6669 31.058V36H73.5069V31.016C73.5069 30.092 73.3249 28.79 71.5749 28.79C70.8189 28.79 70.2729 29.21 69.8669 29.798H69.8389V28.93H68.9989V36H69.8389V31.562ZM77.7396 36V28.93H76.8996V36H77.7396ZM77.8376 26.956V25.892H76.8016V26.956H77.8376ZM81.9631 31.562C81.9631 29.98 82.7331 29.462 83.4891 29.462C84.4691 29.462 84.7911 30.232 84.7911 31.058V36H85.6311V31.016C85.6311 30.092 85.4491 28.79 83.6991 28.79C82.9431 28.79 82.3971 29.21 81.9911 29.798H81.9631V28.93H81.1231V36H81.9631V31.562ZM90.8018 29.462C91.5858 29.462 92.3838 30.022 92.3838 31.506C92.3838 33.578 92.3278 33.9 92.1178 34.446C91.9918 34.782 91.5438 35.244 90.8438 35.244C89.3178 35.244 89.3178 33.774 89.3178 32.304C89.3178 31.254 89.3458 29.462 90.8018 29.462ZM92.4398 29.812L92.4118 29.784C92.1038 29.154 91.3898 28.79 90.6758 28.79C89.2478 28.79 88.7578 29.896 88.6878 30.19C88.4918 30.946 88.4778 30.96 88.4778 32.598C88.4778 34.166 88.6178 35.916 90.6478 35.916C91.3198 35.916 91.9918 35.664 92.3558 35.062H92.3838C92.3838 37.176 92.4818 38.058 90.8438 38.058C90.0598 38.058 89.4578 37.582 89.5138 36.77H88.6738C88.6178 37.484 88.9678 38.73 90.7318 38.73C92.7478 38.73 93.2238 37.806 93.2238 36.252V30.302C93.2238 29.938 93.2378 29.588 93.2658 28.916H92.4398V29.812ZM103.122 36.14C104.774 36.14 105.558 35.062 105.558 33.228V31.702C105.558 29.868 104.774 28.79 103.122 28.79C101.47 28.79 100.686 29.868 100.686 31.702V33.228C100.686 35.062 101.47 36.14 103.122 36.14ZM103.122 29.462C104.508 29.462 104.718 30.624 104.718 32.458C104.718 34.306 104.508 35.468 103.122 35.468C101.736 35.468 101.526 34.306 101.526 32.458C101.526 30.624 101.736 29.462 103.122 29.462ZM109.329 31.562C109.329 29.98 110.099 29.462 110.855 29.462C111.835 29.462 112.157 30.232 112.157 31.058V36H112.997V31.016C112.997 30.092 112.815 28.79 111.065 28.79C110.309 28.79 109.763 29.21 109.357 29.798H109.329V28.93H108.489V36H109.329V31.562ZM121.845 36H122.895L124.379 29.952H124.407L125.961 36H127.011L128.957 28.93H128.117L126.535 35.118H126.507L124.939 28.93H123.903L122.405 35.118H122.377L120.795 28.93H119.899L121.845 36ZM136.041 32.64C136.041 30.54 136.041 28.79 133.605 28.79C132.023 28.79 131.169 29.728 131.169 31.772V33.508C131.169 35.65 132.387 36.14 133.605 36.14C135.019 36.14 135.943 35.552 136.041 33.844H135.159C135.173 34.796 134.655 35.468 133.605 35.468C132.275 35.468 132.009 34.166 132.009 33.186V32.64H136.041ZM132.009 31.968C132.009 30.4 132.261 29.462 133.605 29.462C134.949 29.462 135.201 30.4 135.201 31.968H132.009ZM142.57 33.676C142.57 34.6 141.786 35.468 140.82 35.468C139.952 35.468 139.546 34.81 139.546 34.012C139.546 32.29 141.366 32.43 142.57 32.388V33.676ZM142.626 36H143.494C143.41 35.174 143.41 34.726 143.41 34.222V30.666C143.41 28.86 141.926 28.79 141.212 28.79C139.98 28.79 138.93 29.322 138.86 30.68H139.756C139.756 29.84 140.372 29.462 141.142 29.462C142.262 29.462 142.57 30.092 142.57 31.128V31.716C141.142 31.828 138.65 31.576 138.65 34.054C138.65 35.286 139.336 36.14 140.596 36.14C141.464 36.14 142.15 35.804 142.598 35.132H142.626V36ZM147.488 28.93H146.648V36H147.488V31.45C147.488 30.26 148.272 29.546 149.462 29.644V28.79C148.608 28.79 147.866 29.21 147.516 29.882H147.488V28.93ZM153.009 36V28.93H152.169V36H153.009ZM153.107 26.956V25.892H152.071V26.956H153.107ZM157.232 31.562C157.232 29.98 158.002 29.462 158.758 29.462C159.738 29.462 160.06 30.232 160.06 31.058V36H160.9V31.016C160.9 30.092 160.718 28.79 158.968 28.79C158.212 28.79 157.666 29.21 157.26 29.798H157.232V28.93H156.392V36H157.232V31.562ZM166.071 29.462C166.855 29.462 167.653 30.022 167.653 31.506C167.653 33.578 167.597 33.9 167.387 34.446C167.261 34.782 166.813 35.244 166.113 35.244C164.587 35.244 164.587 33.774 164.587 32.304C164.587 31.254 164.615 29.462 166.071 29.462ZM167.709 29.812L167.681 29.784C167.373 29.154 166.659 28.79 165.945 28.79C164.517 28.79 164.027 29.896 163.957 30.19C163.761 30.946 163.747 30.96 163.747 32.598C163.747 34.166 163.887 35.916 165.917 35.916C166.589 35.916 167.261 35.664 167.625 35.062H167.653C167.653 37.176 167.751 38.058 166.113 38.058C165.329 38.058 164.727 37.582 164.783 36.77H163.943C163.887 37.484 164.237 38.73 166.001 38.73C168.017 38.73 168.493 37.806 168.493 36.252V30.302C168.493 29.938 168.507 29.588 168.535 28.916H167.709V29.812ZM178.251 35.468C177.341 35.468 176.711 35.118 176.711 32.486C176.711 30.834 176.711 29.462 178.223 29.462C179.805 29.462 179.805 31.422 179.805 31.842V33.102C179.805 34.824 179.049 35.468 178.251 35.468ZM179.889 36H180.701C180.659 35.762 180.617 35.3 180.617 34.6V25.892H179.777V29.644L179.749 29.63C179.315 29.084 178.685 28.79 178.041 28.79C175.871 28.79 175.871 31.1 175.871 32.458C175.871 34.11 175.983 36.14 178.027 36.14C178.853 36.14 179.385 35.79 179.819 35.118L179.847 35.104L179.889 36ZM187.37 28.93V33.914C187.37 34.404 186.964 35.468 185.83 35.468C184.612 35.468 184.654 33.984 184.654 33.788V28.93H183.814V33.928C183.814 35.076 184.22 36.14 185.676 36.14C186.46 36.14 186.964 35.818 187.454 35.216H187.482V36H188.21V28.93H187.37ZM192.275 28.93H191.435V36H192.275V31.45C192.275 30.26 193.059 29.546 194.249 29.644V28.79C193.395 28.79 192.653 29.21 192.303 29.882H192.275V28.93ZM197.795 36V28.93H196.955V36H197.795ZM197.893 26.956V25.892H196.857V26.956H197.893ZM202.019 31.562C202.019 29.98 202.789 29.462 203.545 29.462C204.525 29.462 204.847 30.232 204.847 31.058V36H205.687V31.016C205.687 30.092 205.505 28.79 203.755 28.79C202.999 28.79 202.453 29.21 202.047 29.798H202.019V28.93H201.179V36H202.019V31.562ZM210.857 29.462C211.641 29.462 212.439 30.022 212.439 31.506C212.439 33.578 212.383 33.9 212.173 34.446C212.047 34.782 211.599 35.244 210.899 35.244C209.373 35.244 209.373 33.774 209.373 32.304C209.373 31.254 209.401 29.462 210.857 29.462ZM212.495 29.812L212.467 29.784C212.159 29.154 211.445 28.79 210.731 28.79C209.303 28.79 208.813 29.896 208.743 30.19C208.547 30.946 208.533 30.96 208.533 32.598C208.533 34.166 208.673 35.916 210.703 35.916C211.375 35.916 212.047 35.664 212.411 35.062H212.439C212.439 37.176 212.537 38.058 210.899 38.058C210.115 38.058 209.513 37.582 209.569 36.77H208.729C208.673 37.484 209.023 38.73 210.787 38.73C212.803 38.73 213.279 37.806 213.279 36.252V30.302C213.279 29.938 213.293 29.588 213.321 28.916H212.495V29.812ZM221.428 29.602V34.656C221.428 35.524 221.764 36.028 222.898 36.028C223.164 36.028 223.444 36.014 223.696 35.986V35.258C223.514 35.286 223.318 35.3 223.038 35.3C222.366 35.3 222.268 35.076 222.268 34.138V29.602H223.696V28.93H222.268V27.11L221.428 27.474V28.93H220.294V29.602H221.428ZM227.06 36V31.562C227.06 29.98 227.83 29.462 228.586 29.462C229.566 29.462 229.888 30.232 229.888 31.058V36H230.728V31.016C230.728 30.092 230.546 28.79 228.796 28.79C228.04 28.79 227.494 29.21 227.088 29.798H227.06V25.892H226.22V36H227.06ZM238.531 32.64C238.531 30.54 238.531 28.79 236.095 28.79C234.513 28.79 233.659 29.728 233.659 31.772V33.508C233.659 35.65 234.877 36.14 236.095 36.14C237.509 36.14 238.433 35.552 238.531 33.844H237.649C237.663 34.796 237.145 35.468 236.095 35.468C234.765 35.468 234.499 34.166 234.499 33.186V32.64H238.531ZM234.499 31.968C234.499 30.4 234.751 29.462 236.095 29.462C237.439 29.462 237.691 30.4 237.691 31.968H234.499ZM249.563 33.676C249.563 34.6 248.779 35.468 247.813 35.468C246.945 35.468 246.539 34.81 246.539 34.012C246.539 32.29 248.359 32.43 249.563 32.388V33.676ZM249.619 36H250.487C250.403 35.174 250.403 34.726 250.403 34.222V30.666C250.403 28.86 248.919 28.79 248.205 28.79C246.973 28.79 245.923 29.322 245.853 30.68H246.749C246.749 29.84 247.365 29.462 248.135 29.462C249.255 29.462 249.563 30.092 249.563 31.128V31.716C248.135 31.828 245.643 31.576 245.643 34.054C245.643 35.286 246.329 36.14 247.589 36.14C248.457 36.14 249.143 35.804 249.591 35.132H249.619V36ZM254.09 29.602V34.656C254.09 35.524 254.426 36.028 255.56 36.028C255.826 36.028 256.106 36.014 256.358 35.986V35.258C256.176 35.286 255.98 35.3 255.7 35.3C255.028 35.3 254.93 35.076 254.93 34.138V29.602H256.358V28.93H254.93V27.11L254.09 27.474V28.93H252.956V29.602H254.09ZM259.386 29.602V34.656C259.386 35.524 259.722 36.028 260.856 36.028C261.122 36.028 261.402 36.014 261.654 35.986V35.258C261.472 35.286 261.276 35.3 260.996 35.3C260.324 35.3 260.226 35.076 260.226 34.138V29.602H261.654V28.93H260.226V27.11L259.386 27.474V28.93H258.252V29.602H259.386ZM267.777 33.676C267.777 34.6 266.993 35.468 266.027 35.468C265.159 35.468 264.753 34.81 264.753 34.012C264.753 32.29 266.573 32.43 267.777 32.388V33.676ZM267.833 36H268.701C268.617 35.174 268.617 34.726 268.617 34.222V30.666C268.617 28.86 267.133 28.79 266.419 28.79C265.187 28.79 264.137 29.322 264.067 30.68H264.963C264.963 29.84 265.579 29.462 266.349 29.462C267.469 29.462 267.777 30.092 267.777 31.128V31.716C266.349 31.828 263.857 31.576 263.857 34.054C263.857 35.286 264.543 36.14 265.803 36.14C266.671 36.14 267.357 35.804 267.805 35.132H267.833V36ZM275.789 30.96C275.859 29.476 275.033 28.79 273.815 28.79C272.849 28.79 272.051 29.154 271.687 30.162C271.505 30.694 271.477 31.8 271.477 32.5C271.477 34.25 271.477 36.14 273.871 36.14C274.529 36.14 275.873 35.818 275.803 33.914H274.963C274.921 34.768 274.781 35.468 273.675 35.468C272.373 35.468 272.373 33.774 272.373 32.5C272.373 31.562 272.457 30.596 272.569 30.274C272.751 29.756 273.185 29.462 273.703 29.462C274.669 29.462 274.991 30.078 274.949 30.96H275.789ZM278.669 36H279.509V32.15H279.537L282.057 36H283.121L280.447 32.08L282.953 28.93H281.973L279.537 32.052H279.509V25.892H278.669V36ZM285.664 36H286.7V34.936H285.664V36Z" fill="white"/>
</svg>
