<svg width="340" height="49" viewBox="0 0 340 49" fill="none" xmlns="http://www.w3.org/2000/svg">
<rect width="340" height="49" fill="black" fill-opacity="0.69"/>
<path d="M8.896 14H9.792V9.296H11.5C13.236 9.296 13.894 8.372 13.894 6.342C13.894 4.004 12.508 3.892 11.668 3.892H8.896V14ZM9.792 4.648H11.444C12.256 4.648 12.998 4.788 12.998 6.51C12.998 8.092 12.396 8.54 11.458 8.54H9.792V4.648ZM17.5947 14V3.892H16.7547V14H17.5947ZM24.5762 11.676C24.5762 12.6 23.7922 13.468 22.8262 13.468C21.9582 13.468 21.5522 12.81 21.5522 12.012C21.5522 10.29 23.3722 10.43 24.5762 10.388V11.676ZM24.6322 14H25.5002C25.4162 13.174 25.4162 12.726 25.4162 12.222V8.666C25.4162 6.86 23.9322 6.79 23.2182 6.79C21.9862 6.79 20.9362 7.322 20.8662 8.68H21.7622C21.7622 7.84 22.3782 7.462 23.1482 7.462C24.2682 7.462 24.5762 8.092 24.5762 9.128V9.716C23.1482 9.828 20.6562 9.576 20.6562 12.054C20.6562 13.286 21.3422 14.14 22.6022 14.14C23.4702 14.14 24.1562 13.804 24.6042 13.132H24.6322V14ZM29.4389 9.562C29.4389 7.98 30.2089 7.462 30.9649 7.462C31.9449 7.462 32.2669 8.232 32.2669 9.058V14H33.1069V9.016C33.1069 8.092 32.9249 6.79 31.1749 6.79C30.4189 6.79 29.8729 7.21 29.4669 7.798H29.4389V6.93H28.5989V14H29.4389V9.562ZM37.0596 9.562C37.0596 7.98 37.8296 7.462 38.5856 7.462C39.5656 7.462 39.8876 8.232 39.8876 9.058V14H40.7276V9.016C40.7276 8.092 40.5456 6.79 38.7956 6.79C38.0396 6.79 37.4936 7.21 37.0876 7.798H37.0596V6.93H36.2196V14H37.0596V9.562ZM44.9603 14V6.93H44.1203V14H44.9603ZM45.0583 4.956V3.892H44.0223V4.956H45.0583ZM49.1838 9.562C49.1838 7.98 49.9538 7.462 50.7098 7.462C51.6898 7.462 52.0118 8.232 52.0118 9.058V14H52.8518V9.016C52.8518 8.092 52.6698 6.79 50.9198 6.79C50.1638 6.79 49.6178 7.21 49.2118 7.798H49.1838V6.93H48.3438V14H49.1838V9.562ZM58.0225 7.462C58.8065 7.462 59.6045 8.022 59.6045 9.506C59.6045 11.578 59.5485 11.9 59.3385 12.446C59.2125 12.782 58.7645 13.244 58.0645 13.244C56.5385 13.244 56.5385 11.774 56.5385 10.304C56.5385 9.254 56.5665 7.462 58.0225 7.462ZM59.6605 7.812L59.6325 7.784C59.3245 7.154 58.6105 6.79 57.8965 6.79C56.4685 6.79 55.9785 7.896 55.9085 8.19C55.7125 8.946 55.6985 8.96 55.6985 10.598C55.6985 12.166 55.8385 13.916 57.8685 13.916C58.5405 13.916 59.2125 13.664 59.5765 13.062H59.6045C59.6045 15.176 59.7025 16.058 58.0645 16.058C57.2805 16.058 56.6785 15.582 56.7345 14.77H55.8945C55.8385 15.484 56.1885 16.73 57.9525 16.73C59.9685 16.73 60.4445 15.806 60.4445 14.252V8.302C60.4445 7.938 60.4585 7.588 60.4865 6.916H59.6605V7.812ZM70.3428 14.14C71.9948 14.14 72.7788 13.062 72.7788 11.228V9.702C72.7788 7.868 71.9948 6.79 70.3428 6.79C68.6908 6.79 67.9068 7.868 67.9068 9.702V11.228C67.9068 13.062 68.6908 14.14 70.3428 14.14ZM70.3428 7.462C71.7288 7.462 71.9388 8.624 71.9388 10.458C71.9388 12.306 71.7288 13.468 70.3428 13.468C68.9568 13.468 68.7468 12.306 68.7468 10.458C68.7468 8.624 68.9568 7.462 70.3428 7.462ZM76.2555 14H77.0955V7.602H78.5235V6.93H77.0955V5.726C77.0955 5.32 77.0955 4.592 77.9075 4.592H78.5375V3.892C78.3275 3.864 78.1875 3.836 78.0615 3.836C76.3535 3.836 76.2555 5.068 76.2555 5.74V6.93H75.1215V7.602H76.2555V14ZM86.0135 7.602V12.656C86.0135 13.524 86.3495 14.028 87.4835 14.028C87.7495 14.028 88.0295 14.014 88.2815 13.986V13.258C88.0995 13.286 87.9035 13.3 87.6235 13.3C86.9515 13.3 86.8535 13.076 86.8535 12.138V7.602H88.2815V6.93H86.8535V5.11L86.0135 5.474V6.93H84.8795V7.602H86.0135ZM91.646 14V9.562C91.646 7.98 92.416 7.462 93.172 7.462C94.152 7.462 94.474 8.232 94.474 9.058V14H95.314V9.016C95.314 8.092 95.132 6.79 93.382 6.79C92.626 6.79 92.08 7.21 91.674 7.798H91.646V3.892H90.806V14H91.646ZM103.117 10.64C103.117 8.54 103.117 6.79 100.681 6.79C99.0987 6.79 98.2447 7.728 98.2447 9.772V11.508C98.2447 13.65 99.4627 14.14 100.681 14.14C102.095 14.14 103.019 13.552 103.117 11.844H102.235C102.249 12.796 101.731 13.468 100.681 13.468C99.3507 13.468 99.0847 12.166 99.0847 11.186V10.64H103.117ZM99.0847 9.968C99.0847 8.4 99.3367 7.462 100.681 7.462C102.025 7.462 102.277 8.4 102.277 9.968H99.0847ZM111.377 9.45C111.377 8.526 111.783 7.462 112.847 7.462C113.673 7.462 113.925 8.246 113.939 8.946V14H114.779V9.45C114.779 8.526 115.185 7.462 116.249 7.462C117.075 7.462 117.327 8.246 117.341 8.946V14H118.181V8.736C118.139 7.602 117.523 6.79 116.347 6.79C115.563 6.79 114.961 7.196 114.611 7.896C114.373 7.196 113.729 6.79 113.001 6.79C112.217 6.79 111.657 7.224 111.321 7.798H111.293V6.916H110.537V14H111.377V9.45ZM124.887 11.676C124.887 12.6 124.103 13.468 123.137 13.468C122.269 13.468 121.863 12.81 121.863 12.012C121.863 10.29 123.683 10.43 124.887 10.388V11.676ZM124.943 14H125.811C125.727 13.174 125.727 12.726 125.727 12.222V8.666C125.727 6.86 124.243 6.79 123.529 6.79C122.297 6.79 121.247 7.322 121.177 8.68H122.073C122.073 7.84 122.689 7.462 123.459 7.462C124.579 7.462 124.887 8.092 124.887 9.128V9.716C123.459 9.828 120.967 9.576 120.967 12.054C120.967 13.286 121.653 14.14 122.913 14.14C123.781 14.14 124.467 13.804 124.915 13.132H124.943V14ZM132.871 12.138C132.871 9.772 129.693 10.248 129.693 8.484C129.693 7.854 130.169 7.462 130.771 7.462C131.723 7.462 131.961 7.938 132.003 8.834H132.829C132.829 7.756 132.381 6.79 130.981 6.79C129.749 6.79 128.853 7.252 128.853 8.554C128.853 10.892 132.031 10.416 132.031 12.264C132.031 13.048 131.639 13.51 130.827 13.51C129.749 13.51 129.525 12.866 129.525 11.9H128.671C128.657 13.398 129.259 14.14 130.785 14.14C132.101 14.14 132.871 13.468 132.871 12.138ZM139.713 12.138C139.713 9.772 136.535 10.248 136.535 8.484C136.535 7.854 137.011 7.462 137.613 7.462C138.565 7.462 138.803 7.938 138.845 8.834H139.671C139.671 7.756 139.223 6.79 137.823 6.79C136.591 6.79 135.695 7.252 135.695 8.554C135.695 10.892 138.873 10.416 138.873 12.264C138.873 13.048 138.481 13.51 137.669 13.51C136.591 13.51 136.367 12.866 136.367 11.9H135.513C135.499 13.398 136.101 14.14 137.627 14.14C138.943 14.14 139.713 13.468 139.713 12.138ZM146.19 11.676C146.19 12.6 145.406 13.468 144.44 13.468C143.572 13.468 143.166 12.81 143.166 12.012C143.166 10.29 144.986 10.43 146.19 10.388V11.676ZM146.246 14H147.114C147.03 13.174 147.03 12.726 147.03 12.222V8.666C147.03 6.86 145.546 6.79 144.832 6.79C143.6 6.79 142.55 7.322 142.48 8.68H143.376C143.376 7.84 143.992 7.462 144.762 7.462C145.882 7.462 146.19 8.092 146.19 9.128V9.716C144.762 9.828 142.27 9.576 142.27 12.054C142.27 13.286 142.956 14.14 144.216 14.14C145.084 14.14 145.77 13.804 146.218 13.132H146.246V14ZM154.203 8.96C154.273 7.476 153.447 6.79 152.229 6.79C151.263 6.79 150.465 7.154 150.101 8.162C149.919 8.694 149.891 9.8 149.891 10.5C149.891 12.25 149.891 14.14 152.285 14.14C152.943 14.14 154.287 13.818 154.217 11.914H153.377C153.335 12.768 153.195 13.468 152.089 13.468C150.787 13.468 150.787 11.774 150.787 10.5C150.787 9.562 150.871 8.596 150.983 8.274C151.165 7.756 151.599 7.462 152.117 7.462C153.083 7.462 153.405 8.078 153.363 8.96H154.203ZM157.95 6.93H157.11V14H157.95V9.45C157.95 8.26 158.734 7.546 159.924 7.644V6.79C159.07 6.79 158.328 7.21 157.978 7.882H157.95V6.93ZM167.041 10.64C167.041 8.54 167.041 6.79 164.605 6.79C163.023 6.79 162.169 7.728 162.169 9.772V11.508C162.169 13.65 163.387 14.14 164.605 14.14C166.019 14.14 166.943 13.552 167.041 11.844H166.159C166.173 12.796 165.655 13.468 164.605 13.468C163.275 13.468 163.009 12.166 163.009 11.186V10.64H167.041ZM163.009 9.968C163.009 8.4 163.261 7.462 164.605 7.462C165.949 7.462 166.201 8.4 166.201 9.968H163.009ZM175.315 10.36C175.315 9.296 175.483 7.462 176.841 7.462C178.395 7.462 178.437 8.834 178.437 10.486C178.437 12.138 178.395 13.468 176.841 13.468C175.315 13.468 175.315 11.48 175.315 10.36ZM175.287 14V13.146H175.315C175.665 13.804 176.267 14.14 177.093 14.14C179.151 14.14 179.277 12.012 179.277 10.458C179.277 9.198 179.459 6.79 177.163 6.79C176.365 6.79 175.805 7.084 175.371 7.756L175.343 7.728V3.892H174.503V13.3C174.503 13.538 174.461 13.762 174.419 14H175.287ZM182.796 16.674H183.622L186.548 6.93H185.708L184.042 12.726H184.014L182.292 6.93H181.382L183.622 14.014L182.796 16.674ZM193.945 7.602V12.656C193.945 13.524 194.281 14.028 195.415 14.028C195.681 14.028 195.961 14.014 196.213 13.986V13.258C196.031 13.286 195.835 13.3 195.555 13.3C194.883 13.3 194.785 13.076 194.785 12.138V7.602H196.213V6.93H194.785V5.11L193.945 5.474V6.93H192.811V7.602H193.945ZM199.577 14V9.562C199.577 7.98 200.347 7.462 201.103 7.462C202.083 7.462 202.405 8.232 202.405 9.058V14H203.245V9.016C203.245 8.092 203.063 6.79 201.313 6.79C200.557 6.79 200.011 7.21 199.605 7.798H199.577V3.892H198.737V14H199.577ZM211.048 10.64C211.048 8.54 211.048 6.79 208.612 6.79C207.03 6.79 206.176 7.728 206.176 9.772V11.508C206.176 13.65 207.394 14.14 208.612 14.14C210.026 14.14 210.95 13.552 211.048 11.844H210.166C210.18 12.796 209.662 13.468 208.612 13.468C207.282 13.468 207.016 12.166 207.016 11.186V10.64H211.048ZM207.016 9.968C207.016 8.4 207.268 7.462 208.612 7.462C209.956 7.462 210.208 8.4 210.208 9.968H207.016ZM218.986 7.602V12.656C218.986 13.524 219.322 14.028 220.456 14.028C220.722 14.028 221.002 14.014 221.254 13.986V13.258C221.072 13.286 220.876 13.3 220.596 13.3C219.924 13.3 219.826 13.076 219.826 12.138V7.602H221.254V6.93H219.826V5.11L218.986 5.474V6.93H217.852V7.602H218.986ZM225.011 14H226.061L227.545 7.952H227.573L229.127 14H230.177L232.123 6.93H231.283L229.701 13.118H229.673L228.105 6.93H227.069L225.571 13.118H225.543L223.961 6.93H223.065L225.011 14ZM236.771 14.14C238.423 14.14 239.207 13.062 239.207 11.228V9.702C239.207 7.868 238.423 6.79 236.771 6.79C235.119 6.79 234.335 7.868 234.335 9.702V11.228C234.335 13.062 235.119 14.14 236.771 14.14ZM236.771 7.462C238.157 7.462 238.367 8.624 238.367 10.458C238.367 12.306 238.157 13.468 236.771 13.468C235.385 13.468 235.175 12.306 235.175 10.458C235.175 8.624 235.385 7.462 236.771 7.462ZM250.603 12.138C250.603 9.772 247.425 10.248 247.425 8.484C247.425 7.854 247.901 7.462 248.503 7.462C249.455 7.462 249.693 7.938 249.735 8.834H250.561C250.561 7.756 250.113 6.79 248.713 6.79C247.481 6.79 246.585 7.252 246.585 8.554C246.585 10.892 249.763 10.416 249.763 12.264C249.763 13.048 249.371 13.51 248.559 13.51C247.481 13.51 247.257 12.866 247.257 11.9H246.403C246.389 13.398 246.991 14.14 248.517 14.14C249.833 14.14 250.603 13.468 250.603 12.138ZM254.322 14V9.562C254.322 7.98 255.092 7.462 255.848 7.462C256.828 7.462 257.15 8.232 257.15 9.058V14H257.99V9.016C257.99 8.092 257.808 6.79 256.058 6.79C255.302 6.79 254.756 7.21 254.35 7.798H254.322V3.892H253.482V14H254.322ZM263.357 14.14C265.009 14.14 265.793 13.062 265.793 11.228V9.702C265.793 7.868 265.009 6.79 263.357 6.79C261.705 6.79 260.921 7.868 260.921 9.702V11.228C260.921 13.062 261.705 14.14 263.357 14.14ZM263.357 7.462C264.743 7.462 264.953 8.624 264.953 10.458C264.953 12.306 264.743 13.468 263.357 13.468C261.971 13.468 261.761 12.306 261.761 10.458C261.761 8.624 261.971 7.462 263.357 7.462ZM270.978 14.14C272.63 14.14 273.414 13.062 273.414 11.228V9.702C273.414 7.868 272.63 6.79 270.978 6.79C269.326 6.79 268.542 7.868 268.542 9.702V11.228C268.542 13.062 269.326 14.14 270.978 14.14ZM270.978 7.462C272.364 7.462 272.574 8.624 272.574 10.458C272.574 12.306 272.364 13.468 270.978 13.468C269.592 13.468 269.382 12.306 269.382 10.458C269.382 8.624 269.592 7.462 270.978 7.462ZM276.848 7.602V12.656C276.848 13.524 277.184 14.028 278.318 14.028C278.584 14.028 278.864 14.014 279.116 13.986V13.258C278.934 13.286 278.738 13.3 278.458 13.3C277.786 13.3 277.688 13.076 277.688 12.138V7.602H279.116V6.93H277.688V5.11L276.848 5.474V6.93H275.714V7.602H276.848ZM286.331 10.64C286.331 8.54 286.331 6.79 283.895 6.79C282.313 6.79 281.459 7.728 281.459 9.772V11.508C281.459 13.65 282.677 14.14 283.895 14.14C285.309 14.14 286.233 13.552 286.331 11.844H285.449C285.463 12.796 284.945 13.468 283.895 13.468C282.565 13.468 282.299 12.166 282.299 11.186V10.64H286.331ZM282.299 9.968C282.299 8.4 282.551 7.462 283.895 7.462C285.239 7.462 285.491 8.4 285.491 9.968H282.299ZM290.157 6.93H289.317V14H290.157V9.45C290.157 8.26 290.941 7.546 292.131 7.644V6.79C291.277 6.79 290.535 7.21 290.185 7.882H290.157V6.93ZM298.52 12.138C298.52 9.772 295.342 10.248 295.342 8.484C295.342 7.854 295.818 7.462 296.42 7.462C297.372 7.462 297.61 7.938 297.652 8.834H298.478C298.478 7.756 298.03 6.79 296.63 6.79C295.398 6.79 294.502 7.252 294.502 8.554C294.502 10.892 297.68 10.416 297.68 12.264C297.68 13.048 297.288 13.51 296.476 13.51C295.398 13.51 295.174 12.866 295.174 11.9H294.32C294.306 13.398 294.908 14.14 296.434 14.14C297.75 14.14 298.52 13.468 298.52 12.138ZM9.638 25.598C8.938 27.628 8.434 29.728 8.434 31.884C8.434 33.928 8.966 35.916 9.582 37.848H10.268C9.694 35.846 9.33 33.76 9.33 31.674C9.33 29.616 9.764 27.586 10.268 25.598H9.638ZM14.1975 36V31.562C14.1975 29.98 14.9675 29.462 15.7235 29.462C16.7035 29.462 17.0255 30.232 17.0255 31.058V36H17.8655V31.016C17.8655 30.092 17.6835 28.79 15.9335 28.79C15.1775 28.79 14.6315 29.21 14.2255 29.798H14.1975V25.892H13.3575V36H14.1975ZM25.6682 32.64C25.6682 30.54 25.6682 28.79 23.2322 28.79C21.6502 28.79 20.7962 29.728 20.7962 31.772V33.508C20.7962 35.65 22.0142 36.14 23.2322 36.14C24.6462 36.14 25.5702 35.552 25.6682 33.844H24.7862C24.8002 34.796 24.2822 35.468 23.2322 35.468C21.9022 35.468 21.6362 34.166 21.6362 33.186V32.64H25.6682ZM21.6362 31.968C21.6362 30.4 21.8882 29.462 23.2322 29.462C24.5762 29.462 24.8282 30.4 24.8282 31.968H21.6362ZM29.4949 28.93H28.6549V36H29.4949V31.45C29.4949 30.26 30.2789 29.546 31.4689 29.644V28.79C30.6149 28.79 29.8729 29.21 29.5229 29.882H29.4949V28.93ZM38.5854 32.64C38.5854 30.54 38.5854 28.79 36.1494 28.79C34.5674 28.79 33.7134 29.728 33.7134 31.772V33.508C33.7134 35.65 34.9314 36.14 36.1494 36.14C37.5634 36.14 38.4874 35.552 38.5854 33.844H37.7034C37.7174 34.796 37.1994 35.468 36.1494 35.468C34.8194 35.468 34.5534 34.166 34.5534 33.186V32.64H38.5854ZM34.5534 31.968C34.5534 30.4 34.8054 29.462 36.1494 29.462C37.4934 29.462 37.7454 30.4 37.7454 31.968H34.5534ZM46.5236 29.602V34.656C46.5236 35.524 46.8596 36.028 47.9936 36.028C48.2596 36.028 48.5396 36.014 48.7916 35.986V35.258C48.6096 35.286 48.4136 35.3 48.1336 35.3C47.4616 35.3 47.3636 35.076 47.3636 34.138V29.602H48.7916V28.93H47.3636V27.11L46.5236 27.474V28.93H45.3896V29.602H46.5236ZM52.1561 36V31.562C52.1561 29.98 52.9261 29.462 53.6821 29.462C54.6621 29.462 54.9841 30.232 54.9841 31.058V36H55.8241V31.016C55.8241 30.092 55.6421 28.79 53.8921 28.79C53.1361 28.79 52.5901 29.21 52.1841 29.798H52.1561V25.892H51.3161V36H52.1561ZM63.6268 32.64C63.6268 30.54 63.6268 28.79 61.1908 28.79C59.6088 28.79 58.7548 29.728 58.7548 31.772V33.508C58.7548 35.65 59.9728 36.14 61.1908 36.14C62.6048 36.14 63.5288 35.552 63.6268 33.844H62.7448C62.7588 34.796 62.2408 35.468 61.1908 35.468C59.8608 35.468 59.5948 34.166 59.5948 33.186V32.64H63.6268ZM59.5948 31.968C59.5948 30.4 59.8468 29.462 61.1908 29.462C62.5348 29.462 62.7868 30.4 62.7868 31.968H59.5948ZM71.887 31.45C71.887 30.526 72.293 29.462 73.357 29.462C74.183 29.462 74.435 30.246 74.449 30.946V36H75.289V31.45C75.289 30.526 75.695 29.462 76.759 29.462C77.585 29.462 77.837 30.246 77.851 30.946V36H78.691V30.736C78.649 29.602 78.033 28.79 76.857 28.79C76.073 28.79 75.471 29.196 75.121 29.896C74.883 29.196 74.239 28.79 73.511 28.79C72.727 28.79 72.167 29.224 71.831 29.798H71.803V28.916H71.047V36H71.887V31.45ZM85.3969 33.676C85.3969 34.6 84.6129 35.468 83.6469 35.468C82.7789 35.468 82.3729 34.81 82.3729 34.012C82.3729 32.29 84.1929 32.43 85.3969 32.388V33.676ZM85.4529 36H86.3209C86.2369 35.174 86.2369 34.726 86.2369 34.222V30.666C86.2369 28.86 84.7529 28.79 84.0389 28.79C82.8069 28.79 81.7569 29.322 81.6869 30.68H82.5829C82.5829 29.84 83.1989 29.462 83.9689 29.462C85.0889 29.462 85.3969 30.092 85.3969 31.128V31.716C83.9689 31.828 81.4769 31.576 81.4769 34.054C81.4769 35.286 82.1629 36.14 83.4229 36.14C84.2909 36.14 84.9769 35.804 85.4249 35.132H85.4529V36ZM90.2876 31.828C90.2876 30.078 91.2396 29.462 91.7856 29.462C93.1716 29.462 93.3816 30.624 93.3816 32.458C93.3816 34.306 93.1716 35.468 91.7856 35.468C91.0156 35.468 90.2876 34.698 90.2876 33.088V31.828ZM90.2596 28.93H89.4476V38.674H90.2876V35.202L90.3156 35.216C90.7496 35.888 91.2676 36.14 91.7856 36.14C93.5916 36.14 94.2216 35.062 94.2216 33.228V31.646C94.2216 30.722 94.2076 28.79 91.9956 28.79C91.4356 28.79 90.7356 29.084 90.2876 29.77L90.2596 29.784V28.93ZM103.798 36.14C105.45 36.14 106.234 35.062 106.234 33.228V31.702C106.234 29.868 105.45 28.79 103.798 28.79C102.146 28.79 101.362 29.868 101.362 31.702V33.228C101.362 35.062 102.146 36.14 103.798 36.14ZM103.798 29.462C105.184 29.462 105.394 30.624 105.394 32.458C105.394 34.306 105.184 35.468 103.798 35.468C102.412 35.468 102.202 34.306 102.202 32.458C102.202 30.624 102.412 29.462 103.798 29.462ZM109.711 36H110.551V29.602H111.979V28.93H110.551V27.726C110.551 27.32 110.551 26.592 111.363 26.592H111.993V25.892C111.783 25.864 111.643 25.836 111.517 25.836C109.809 25.836 109.711 27.068 109.711 27.74V28.93H108.577V29.602H109.711V36ZM119.469 29.602V34.656C119.469 35.524 119.805 36.028 120.939 36.028C121.205 36.028 121.485 36.014 121.737 35.986V35.258C121.555 35.286 121.359 35.3 121.079 35.3C120.407 35.3 120.309 35.076 120.309 34.138V29.602H121.737V28.93H120.309V27.11L119.469 27.474V28.93H118.335V29.602H119.469ZM125.101 36V31.562C125.101 29.98 125.871 29.462 126.627 29.462C127.607 29.462 127.929 30.232 127.929 31.058V36H128.769V31.016C128.769 30.092 128.587 28.79 126.837 28.79C126.081 28.79 125.535 29.21 125.129 29.798H125.101V25.892H124.261V36H125.101ZM136.572 32.64C136.572 30.54 136.572 28.79 134.136 28.79C132.554 28.79 131.7 29.728 131.7 31.772V33.508C131.7 35.65 132.918 36.14 134.136 36.14C135.55 36.14 136.474 35.552 136.572 33.844H135.69C135.704 34.796 135.186 35.468 134.136 35.468C132.806 35.468 132.54 34.166 132.54 33.186V32.64H136.572ZM132.54 31.968C132.54 30.4 132.792 29.462 134.136 29.462C135.48 29.462 135.732 30.4 135.732 31.968H132.54ZM147.996 30.96C148.066 29.476 147.24 28.79 146.022 28.79C145.056 28.79 144.258 29.154 143.894 30.162C143.712 30.694 143.684 31.8 143.684 32.5C143.684 34.25 143.684 36.14 146.078 36.14C146.736 36.14 148.08 35.818 148.01 33.914H147.17C147.128 34.768 146.988 35.468 145.882 35.468C144.58 35.468 144.58 33.774 144.58 32.5C144.58 31.562 144.664 30.596 144.776 30.274C144.958 29.756 145.392 29.462 145.91 29.462C146.876 29.462 147.198 30.078 147.156 30.96H147.996ZM154.445 33.676C154.445 34.6 153.661 35.468 152.695 35.468C151.827 35.468 151.421 34.81 151.421 34.012C151.421 32.29 153.241 32.43 154.445 32.388V33.676ZM154.501 36H155.369C155.285 35.174 155.285 34.726 155.285 34.222V30.666C155.285 28.86 153.801 28.79 153.087 28.79C151.855 28.79 150.805 29.322 150.735 30.68H151.631C151.631 29.84 152.247 29.462 153.017 29.462C154.137 29.462 154.445 30.092 154.445 31.128V31.716C153.017 31.828 150.525 31.576 150.525 34.054C150.525 35.286 151.211 36.14 152.471 36.14C153.339 36.14 154.025 35.804 154.473 35.132H154.501V36ZM159.014 36H159.854V29.602H161.282V28.93H159.854V27.726C159.854 27.32 159.854 26.592 160.666 26.592H161.296V25.892C161.086 25.864 160.946 25.836 160.82 25.836C159.112 25.836 159.014 27.068 159.014 27.74V28.93H157.88V29.602H159.014V36ZM168.455 32.64C168.455 30.54 168.455 28.79 166.019 28.79C164.437 28.79 163.583 29.728 163.583 31.772V33.508C163.583 35.65 164.801 36.14 166.019 36.14C167.433 36.14 168.357 35.552 168.455 33.844H167.573C167.587 34.796 167.069 35.468 166.019 35.468C164.689 35.468 164.423 34.166 164.423 33.186V32.64H168.455ZM164.423 31.968C164.423 30.4 164.675 29.462 166.019 29.462C167.363 29.462 167.615 30.4 167.615 31.968H164.423ZM171.889 29.602V34.656C171.889 35.524 172.225 36.028 173.359 36.028C173.625 36.028 173.905 36.014 174.157 35.986V35.258C173.975 35.286 173.779 35.3 173.499 35.3C172.827 35.3 172.729 35.076 172.729 34.138V29.602H174.157V28.93H172.729V27.11L171.889 27.474V28.93H170.755V29.602H171.889ZM181.372 32.64C181.372 30.54 181.372 28.79 178.936 28.79C177.354 28.79 176.5 29.728 176.5 31.772V33.508C176.5 35.65 177.718 36.14 178.936 36.14C180.35 36.14 181.274 35.552 181.372 33.844H180.49C180.504 34.796 179.986 35.468 178.936 35.468C177.606 35.468 177.34 34.166 177.34 33.186V32.64H181.372ZM177.34 31.968C177.34 30.4 177.592 29.462 178.936 29.462C180.28 29.462 180.532 30.4 180.532 31.968H177.34ZM185.198 28.93H184.358V36H185.198V31.45C185.198 30.26 185.982 29.546 187.172 29.644V28.79C186.318 28.79 185.576 29.21 185.226 29.882H185.198V28.93ZM190.719 36V28.93H189.879V36H190.719ZM190.817 26.956V25.892H189.781V26.956H190.817ZM197.7 33.676C197.7 34.6 196.916 35.468 195.95 35.468C195.082 35.468 194.676 34.81 194.676 34.012C194.676 32.29 196.496 32.43 197.7 32.388V33.676ZM197.756 36H198.624C198.54 35.174 198.54 34.726 198.54 34.222V30.666C198.54 28.86 197.056 28.79 196.342 28.79C195.11 28.79 194.06 29.322 193.99 30.68H194.886C194.886 29.84 195.502 29.462 196.272 29.462C197.392 29.462 197.7 30.092 197.7 31.128V31.716C196.272 31.828 193.78 31.576 193.78 34.054C193.78 35.286 194.466 36.14 195.726 36.14C196.594 36.14 197.28 35.804 197.728 35.132H197.756V36ZM208.481 36.14C210.133 36.14 210.917 35.062 210.917 33.228V31.702C210.917 29.868 210.133 28.79 208.481 28.79C206.829 28.79 206.045 29.868 206.045 31.702V33.228C206.045 35.062 206.829 36.14 208.481 36.14ZM208.481 29.462C209.867 29.462 210.077 30.624 210.077 32.458C210.077 34.306 209.867 35.468 208.481 35.468C207.095 35.468 206.885 34.306 206.885 32.458C206.885 30.624 207.095 29.462 208.481 29.462ZM214.393 36H215.233V29.602H216.661V28.93H215.233V27.726C215.233 27.32 215.233 26.592 216.045 26.592H216.675V25.892C216.465 25.864 216.325 25.836 216.199 25.836C214.491 25.836 214.393 27.068 214.393 27.74V28.93H213.259V29.602H214.393V36ZM224.151 29.602V34.656C224.151 35.524 224.487 36.028 225.621 36.028C225.887 36.028 226.167 36.014 226.419 35.986V35.258C226.237 35.286 226.041 35.3 225.761 35.3C225.089 35.3 224.991 35.076 224.991 34.138V29.602H226.419V28.93H224.991V27.11L224.151 27.474V28.93H223.017V29.602H224.151ZM229.784 36V31.562C229.784 29.98 230.554 29.462 231.31 29.462C232.29 29.462 232.612 30.232 232.612 31.058V36H233.452V31.016C233.452 30.092 233.27 28.79 231.52 28.79C230.764 28.79 230.218 29.21 229.812 29.798H229.784V25.892H228.944V36H229.784ZM241.255 32.64C241.255 30.54 241.255 28.79 238.819 28.79C237.237 28.79 236.383 29.728 236.383 31.772V33.508C236.383 35.65 237.601 36.14 238.819 36.14C240.233 36.14 241.157 35.552 241.255 33.844H240.373C240.387 34.796 239.869 35.468 238.819 35.468C237.489 35.468 237.223 34.166 237.223 33.186V32.64H241.255ZM237.223 31.968C237.223 30.4 237.475 29.462 238.819 29.462C240.163 29.462 240.415 30.4 240.415 31.968H237.223ZM245.305 36V28.93H244.465V36H245.305ZM245.403 26.956V25.892H244.367V26.956H245.403ZM249.585 28.93H248.745V36H249.585V31.45C249.585 30.26 250.369 29.546 251.559 29.644V28.79C250.705 28.79 249.963 29.21 249.613 29.882H249.585V28.93ZM262.451 34.138C262.451 31.772 259.273 32.248 259.273 30.484C259.273 29.854 259.749 29.462 260.351 29.462C261.303 29.462 261.541 29.938 261.583 30.834H262.409C262.409 29.756 261.961 28.79 260.561 28.79C259.329 28.79 258.433 29.252 258.433 30.554C258.433 32.892 261.611 32.416 261.611 34.264C261.611 35.048 261.219 35.51 260.407 35.51C259.329 35.51 259.105 34.866 259.105 33.9H258.251C258.237 35.398 258.839 36.14 260.365 36.14C261.681 36.14 262.451 35.468 262.451 34.138ZM269.32 30.96C269.39 29.476 268.564 28.79 267.346 28.79C266.38 28.79 265.582 29.154 265.218 30.162C265.036 30.694 265.008 31.8 265.008 32.5C265.008 34.25 265.008 36.14 267.402 36.14C268.06 36.14 269.404 35.818 269.334 33.914H268.494C268.452 34.768 268.312 35.468 267.206 35.468C265.904 35.468 265.904 33.774 265.904 32.5C265.904 31.562 265.988 30.596 266.1 30.274C266.282 29.756 266.716 29.462 267.234 29.462C268.2 29.462 268.522 30.078 268.48 30.96H269.32ZM273.012 36V31.562C273.012 29.98 273.782 29.462 274.538 29.462C275.518 29.462 275.84 30.232 275.84 31.058V36H276.68V31.016C276.68 30.092 276.498 28.79 274.748 28.79C273.992 28.79 273.446 29.21 273.04 29.798H273.012V25.892H272.172V36H273.012ZM282.046 36.14C283.698 36.14 284.482 35.062 284.482 33.228V31.702C284.482 29.868 283.698 28.79 282.046 28.79C280.394 28.79 279.61 29.868 279.61 31.702V33.228C279.61 35.062 280.394 36.14 282.046 36.14ZM282.046 29.462C283.432 29.462 283.642 30.624 283.642 32.458C283.642 34.306 283.432 35.468 282.046 35.468C280.66 35.468 280.45 34.306 280.45 32.458C280.45 30.624 280.66 29.462 282.046 29.462ZM289.667 36.14C291.319 36.14 292.103 35.062 292.103 33.228V31.702C292.103 29.868 291.319 28.79 289.667 28.79C288.015 28.79 287.231 29.868 287.231 31.702V33.228C287.231 35.062 288.015 36.14 289.667 36.14ZM289.667 29.462C291.053 29.462 291.263 30.624 291.263 32.458C291.263 34.306 291.053 35.468 289.667 35.468C288.281 35.468 288.071 34.306 288.071 32.458C288.071 30.624 288.281 29.462 289.667 29.462ZM296.154 36V25.892H295.314V36H296.154ZM299.523 25.598C300.027 27.586 300.461 29.616 300.461 31.674C300.461 33.76 300.097 35.846 299.523 37.848H300.209C300.825 35.916 301.357 33.928 301.357 31.884C301.357 29.728 300.853 27.628 300.153 25.598H299.523ZM304.223 36H305.259V34.936H304.223V36Z" fill="white"/>
</svg>
