<svg width="309" height="186" viewBox="0 0 309 186" fill="none" xmlns="http://www.w3.org/2000/svg">
<rect width="270" height="178" fill="black" fill-opacity="0.69"/>
<path d="M11.164 12.824H11.136L9.092 3.892H8.14L10.576 14H11.696L13.782 5.012H13.81L15.84 14H17.016L19.522 3.892H18.64L16.484 12.754H16.456L14.426 3.892H13.222L11.164 12.824ZM25.268 11.676C25.268 12.6 24.484 13.468 23.518 13.468C22.65 13.468 22.244 12.81 22.244 12.012C22.244 10.29 24.064 10.43 25.268 10.388V11.676ZM25.324 14H26.192C26.108 13.174 26.108 12.726 26.108 12.222V8.666C26.108 6.86 24.624 6.79 23.91 6.79C22.678 6.79 21.628 7.322 21.558 8.68H22.454C22.454 7.84 23.07 7.462 23.84 7.462C24.96 7.462 25.268 8.092 25.268 9.128V9.716C23.84 9.828 21.348 9.576 21.348 12.054C21.348 13.286 22.034 14.14 23.294 14.14C24.162 14.14 24.848 13.804 25.296 13.132H25.324V14ZM30.4107 14V3.892H29.5707V14H30.4107ZM33.8222 14H34.6622V10.15H34.6902L37.2102 14H38.2742L35.6002 10.08L38.1062 6.93H37.1262L34.6902 10.052H34.6622V3.892H33.8222V14ZM46.2592 14V6.93H45.4192V14H46.2592ZM46.3572 4.956V3.892H45.3212V4.956H46.3572ZM50.4827 9.562C50.4827 7.98 51.2527 7.462 52.0087 7.462C52.9887 7.462 53.3107 8.232 53.3107 9.058V14H54.1507V9.016C54.1507 8.092 53.9687 6.79 52.2187 6.79C51.4627 6.79 50.9167 7.21 50.5107 7.798H50.4827V6.93H49.6427V14H50.4827V9.562ZM57.1654 15.47H57.9074L58.7474 12.936H57.7254L57.1654 15.47ZM70.2324 12.138C70.2324 9.772 67.0544 10.248 67.0544 8.484C67.0544 7.854 67.5304 7.462 68.1324 7.462C69.0844 7.462 69.3224 7.938 69.3644 8.834H70.1904C70.1904 7.756 69.7424 6.79 68.3424 6.79C67.1104 6.79 66.2144 7.252 66.2144 8.554C66.2144 10.892 69.3924 10.416 69.3924 12.264C69.3924 13.048 69.0004 13.51 68.1884 13.51C67.1104 13.51 66.8864 12.866 66.8864 11.9H66.0324C66.0184 13.398 66.6204 14.14 68.1464 14.14C69.4624 14.14 70.2324 13.468 70.2324 12.138ZM77.8018 10.64C77.8018 8.54 77.8018 6.79 75.3658 6.79C73.7838 6.79 72.9298 7.728 72.9298 9.772V11.508C72.9298 13.65 74.1478 14.14 75.3658 14.14C76.7798 14.14 77.7038 13.552 77.8018 11.844H76.9198C76.9338 12.796 76.4158 13.468 75.3658 13.468C74.0358 13.468 73.7698 12.166 73.7698 11.186V10.64H77.8018ZM73.7698 9.968C73.7698 8.4 74.0218 7.462 75.3658 7.462C76.7098 7.462 76.9618 8.4 76.9618 9.968H73.7698ZM81.2365 7.602V12.656C81.2365 13.524 81.5725 14.028 82.7065 14.028C82.9725 14.028 83.2525 14.014 83.5045 13.986V13.258C83.3225 13.286 83.1265 13.3 82.8465 13.3C82.1745 13.3 82.0765 13.076 82.0765 12.138V7.602H83.5045V6.93H82.0765V5.11L81.2365 5.474V6.93H80.1025V7.602H81.2365ZM91.3725 10.36C91.3725 9.296 91.5405 7.462 92.8985 7.462C94.4525 7.462 94.4945 8.834 94.4945 10.486C94.4945 12.138 94.4525 13.468 92.8985 13.468C91.3725 13.468 91.3725 11.48 91.3725 10.36ZM91.3445 14V13.146H91.3725C91.7225 13.804 92.3245 14.14 93.1505 14.14C95.2085 14.14 95.3345 12.012 95.3345 10.458C95.3345 9.198 95.5165 6.79 93.2205 6.79C92.4225 6.79 91.8625 7.084 91.4285 7.756L91.4005 7.728V3.892H90.5605V13.3C90.5605 13.538 90.5185 13.762 90.4765 14H91.3445ZM100.407 14.14C102.059 14.14 102.843 13.062 102.843 11.228V9.702C102.843 7.868 102.059 6.79 100.407 6.79C98.7552 6.79 97.9712 7.868 97.9712 9.702V11.228C97.9712 13.062 98.7552 14.14 100.407 14.14ZM100.407 7.462C101.793 7.462 102.003 8.624 102.003 10.458C102.003 12.306 101.793 13.468 100.407 13.468C99.0212 13.468 98.8112 12.306 98.8112 10.458C98.8112 8.624 99.0212 7.462 100.407 7.462ZM106.6 9.45C106.6 8.526 107.006 7.462 108.07 7.462C108.896 7.462 109.148 8.246 109.162 8.946V14H110.002V9.45C110.002 8.526 110.408 7.462 111.472 7.462C112.298 7.462 112.55 8.246 112.564 8.946V14H113.404V8.736C113.362 7.602 112.746 6.79 111.57 6.79C110.786 6.79 110.184 7.196 109.834 7.896C109.596 7.196 108.952 6.79 108.224 6.79C107.44 6.79 106.88 7.224 106.544 7.798H106.516V6.916H105.76V14H106.6V9.45ZM117.352 10.36C117.352 9.296 117.52 7.462 118.878 7.462C120.432 7.462 120.474 8.834 120.474 10.486C120.474 12.138 120.432 13.468 118.878 13.468C117.352 13.468 117.352 11.48 117.352 10.36ZM117.324 14V13.146H117.352C117.702 13.804 118.304 14.14 119.13 14.14C121.188 14.14 121.314 12.012 121.314 10.458C121.314 9.198 121.496 6.79 119.2 6.79C118.402 6.79 117.842 7.084 117.408 7.756L117.38 7.728V3.892H116.54V13.3C116.54 13.538 116.498 13.762 116.456 14H117.324ZM128.095 12.138C128.095 9.772 124.917 10.248 124.917 8.484C124.917 7.854 125.393 7.462 125.995 7.462C126.947 7.462 127.185 7.938 127.227 8.834H128.053C128.053 7.756 127.605 6.79 126.205 6.79C124.973 6.79 124.077 7.252 124.077 8.554C124.077 10.892 127.255 10.416 127.255 12.264C127.255 13.048 126.863 13.51 126.051 13.51C124.973 13.51 124.749 12.866 124.749 11.9H123.895C123.881 13.398 124.483 14.14 126.009 14.14C127.325 14.14 128.095 13.468 128.095 12.138ZM139.075 11.676C139.075 12.6 138.291 13.468 137.325 13.468C136.457 13.468 136.051 12.81 136.051 12.012C136.051 10.29 137.871 10.43 139.075 10.388V11.676ZM139.131 14H139.999C139.915 13.174 139.915 12.726 139.915 12.222V8.666C139.915 6.86 138.431 6.79 137.717 6.79C136.485 6.79 135.435 7.322 135.365 8.68H136.261C136.261 7.84 136.877 7.462 137.647 7.462C138.767 7.462 139.075 8.092 139.075 9.128V9.716C137.647 9.828 135.155 9.576 135.155 12.054C135.155 13.286 135.841 14.14 137.101 14.14C137.969 14.14 138.655 13.804 139.103 13.132H139.131V14ZM143.602 7.602V12.656C143.602 13.524 143.938 14.028 145.072 14.028C145.338 14.028 145.618 14.014 145.87 13.986V13.258C145.688 13.286 145.492 13.3 145.212 13.3C144.54 13.3 144.442 13.076 144.442 12.138V7.602H145.87V6.93H144.442V5.11L143.602 5.474V6.93H142.468V7.602H143.602ZM153.29 6.734C153.906 6.328 154.466 5.866 154.998 5.362V14H155.838V4.242H155.054C154.564 4.844 153.934 5.32 153.29 5.768V6.734ZM160.911 6.734C161.527 6.328 162.087 5.866 162.619 5.362V14H163.459V4.242H162.675C162.185 4.844 161.555 5.32 160.911 5.768V6.734ZM168.322 14H169.358V12.936H168.322V14ZM168.322 7.994H169.358V6.93H168.322V7.994ZM173.301 7.21C173.301 5.012 174.267 4.844 174.897 4.844C175.527 4.844 176.493 5.012 176.493 7.21V11.032C176.493 13.23 175.527 13.398 174.897 13.398C174.267 13.398 173.301 13.23 173.301 11.032V7.21ZM174.897 4.088C172.405 4.088 172.405 6.23 172.405 8.064V10.178C172.405 12.012 172.405 14.154 174.897 14.154C177.389 14.154 177.389 12.012 177.389 10.178V8.064C177.389 6.23 177.389 4.088 174.897 4.088ZM182.434 9.394C181.076 9.394 180.908 8.162 180.908 7.084C180.908 5.964 181.104 4.844 182.49 4.844C184.1 4.844 184.114 5.978 184.114 7.196C184.114 7.84 184.058 9.394 182.434 9.394ZM182.35 10.15C183.05 10.15 183.722 9.898 184.142 9.296H184.17C184.1 12.32 184.198 13.398 182.42 13.398C181.398 13.398 181.006 12.796 181.02 11.83H180.124C180.166 13.482 180.894 14.154 182.532 14.154C184.954 14.154 185.01 12.628 185.01 9.072V7.868C185.01 5.516 184.926 4.088 182.462 4.088C180.502 4.088 180.012 5.376 180.012 7.084C180.012 9.156 180.614 10.15 182.35 10.15ZM187.786 15.47H188.528L189.368 12.936H188.346L187.786 15.47ZM197.438 14H198.278V7.602H199.706V6.93H198.278V5.726C198.278 5.32 198.278 4.592 199.09 4.592H199.72V3.892C199.51 3.864 199.37 3.836 199.244 3.836C197.536 3.836 197.438 5.068 197.438 5.74V6.93H196.304V7.602H197.438V14ZM204.442 14.14C206.094 14.14 206.878 13.062 206.878 11.228V9.702C206.878 7.868 206.094 6.79 204.442 6.79C202.79 6.79 202.006 7.868 202.006 9.702V11.228C202.006 13.062 202.79 14.14 204.442 14.14ZM204.442 7.462C205.828 7.462 206.038 8.624 206.038 10.458C206.038 12.306 205.828 13.468 204.442 13.468C203.056 13.468 202.846 12.306 202.846 10.458C202.846 8.624 203.056 7.462 204.442 7.462ZM210.705 6.93H209.865V14H210.705V9.45C210.705 8.26 211.489 7.546 212.679 7.644V6.79C211.825 6.79 211.083 7.21 210.733 7.882H210.705V6.93ZM220.001 6.734C220.617 6.328 221.177 5.866 221.709 5.362V14H222.549V4.242H221.765C221.275 4.844 220.645 5.32 220.001 5.768V6.734ZM227.621 6.734C228.237 6.328 228.797 5.866 229.329 5.362V14H230.169V4.242H229.385C228.895 4.844 228.265 5.32 227.621 5.768V6.734ZM235.032 14H236.068V12.936H235.032V14ZM235.032 7.994H236.068V6.93H235.032V7.994ZM239.746 6.734C240.362 6.328 240.922 5.866 241.454 5.362V14H242.294V4.242H241.51C241.02 4.844 240.39 5.32 239.746 5.768V6.734ZM246.568 4.998H250.656L247.52 14H248.5L251.51 5.138V4.242H246.568V4.998ZM13.18 36V35.244H9.834V25.892H8.938V36H13.18ZM20.3854 32.64C20.3854 30.54 20.3854 28.79 17.9494 28.79C16.3674 28.79 15.5134 29.728 15.5134 31.772V33.508C15.5134 35.65 16.7314 36.14 17.9494 36.14C19.3634 36.14 20.2874 35.552 20.3854 33.844H19.5034C19.5174 34.796 18.9994 35.468 17.9494 35.468C16.6194 35.468 16.3534 34.166 16.3534 33.186V32.64H20.3854ZM16.3534 31.968C16.3534 30.4 16.6054 29.462 17.9494 29.462C19.2934 29.462 19.5454 30.4 19.5454 31.968H16.3534ZM26.9141 33.676C26.9141 34.6 26.1301 35.468 25.1641 35.468C24.2961 35.468 23.8901 34.81 23.8901 34.012C23.8901 32.29 25.7101 32.43 26.9141 32.388V33.676ZM26.9701 36H27.8381C27.7541 35.174 27.7541 34.726 27.7541 34.222V30.666C27.7541 28.86 26.2701 28.79 25.5561 28.79C24.3241 28.79 23.2741 29.322 23.2041 30.68H24.1001C24.1001 29.84 24.7161 29.462 25.4861 29.462C26.6061 29.462 26.9141 30.092 26.9141 31.128V31.716C25.4861 31.828 22.9941 31.576 22.9941 34.054C22.9941 35.286 23.6801 36.14 24.9401 36.14C25.8081 36.14 26.4941 35.804 26.9421 35.132H26.9701V36ZM31.1328 28.93H30.2228L32.3228 36H33.2888L35.3888 28.93H34.5768L32.8548 34.936H32.8268L31.1328 28.93ZM42.4682 32.64C42.4682 30.54 42.4682 28.79 40.0322 28.79C38.4502 28.79 37.5962 29.728 37.5962 31.772V33.508C37.5962 35.65 38.8142 36.14 40.0322 36.14C41.4462 36.14 42.3702 35.552 42.4682 33.844H41.5862C41.6002 34.796 41.0822 35.468 40.0322 35.468C38.7022 35.468 38.4362 34.166 38.4362 33.186V32.64H42.4682ZM38.4362 31.968C38.4362 30.4 38.6882 29.462 40.0322 29.462C41.3762 29.462 41.6282 30.4 41.6282 31.968H38.4362ZM45.3009 37.47H46.0429L46.8829 34.936H45.8609L45.3009 37.47ZM58.368 34.138C58.368 31.772 55.19 32.248 55.19 30.484C55.19 29.854 55.666 29.462 56.268 29.462C57.22 29.462 57.458 29.938 57.5 30.834H58.326C58.326 29.756 57.878 28.79 56.478 28.79C55.246 28.79 54.35 29.252 54.35 30.554C54.35 32.892 57.528 32.416 57.528 34.264C57.528 35.048 57.136 35.51 56.324 35.51C55.246 35.51 55.022 34.866 55.022 33.9H54.168C54.154 35.398 54.756 36.14 56.282 36.14C57.598 36.14 58.368 35.468 58.368 34.138ZM65.9374 32.64C65.9374 30.54 65.9374 28.79 63.5014 28.79C61.9194 28.79 61.0654 29.728 61.0654 31.772V33.508C61.0654 35.65 62.2834 36.14 63.5014 36.14C64.9154 36.14 65.8394 35.552 65.9374 33.844H65.0554C65.0694 34.796 64.5514 35.468 63.5014 35.468C62.1714 35.468 61.9054 34.166 61.9054 33.186V32.64H65.9374ZM61.9054 31.968C61.9054 30.4 62.1574 29.462 63.5014 29.462C64.8454 29.462 65.0974 30.4 65.0974 31.968H61.9054ZM69.3721 29.602V34.656C69.3721 35.524 69.7081 36.028 70.8421 36.028C71.1081 36.028 71.3881 36.014 71.6401 35.986V35.258C71.4581 35.286 71.2621 35.3 70.9821 35.3C70.3101 35.3 70.2121 35.076 70.2121 34.138V29.602H71.6401V28.93H70.2121V27.11L69.3721 27.474V28.93H68.2381V29.602H69.3721ZM82.6581 30.96C82.7281 29.476 81.9021 28.79 80.6841 28.79C79.7181 28.79 78.9201 29.154 78.5561 30.162C78.3741 30.694 78.3461 31.8 78.3461 32.5C78.3461 34.25 78.3461 36.14 80.7401 36.14C81.3981 36.14 82.7421 35.818 82.6721 33.914H81.8321C81.7901 34.768 81.6501 35.468 80.5441 35.468C79.2421 35.468 79.2421 33.774 79.2421 32.5C79.2421 31.562 79.3261 30.596 79.4381 30.274C79.6201 29.756 80.0541 29.462 80.5721 29.462C81.5381 29.462 81.8601 30.078 81.8181 30.96H82.6581ZM89.1075 33.676C89.1075 34.6 88.3235 35.468 87.3575 35.468C86.4895 35.468 86.0835 34.81 86.0835 34.012C86.0835 32.29 87.9035 32.43 89.1075 32.388V33.676ZM89.1635 36H90.0315C89.9475 35.174 89.9475 34.726 89.9475 34.222V30.666C89.9475 28.86 88.4635 28.79 87.7495 28.79C86.5175 28.79 85.4675 29.322 85.3975 30.68H86.2935C86.2935 29.84 86.9095 29.462 87.6795 29.462C88.7995 29.462 89.1075 30.092 89.1075 31.128V31.716C87.6795 31.828 85.1875 31.576 85.1875 34.054C85.1875 35.286 85.8735 36.14 87.1335 36.14C88.0015 36.14 88.6875 35.804 89.1355 35.132H89.1635V36ZM94.0262 28.93H93.1862V36H94.0262V31.45C94.0262 30.26 94.8102 29.546 96.0002 29.644V28.79C95.1462 28.79 94.4042 29.21 94.0542 29.882H94.0262V28.93ZM103.77 32.36C103.77 31.296 103.938 29.462 105.296 29.462C106.85 29.462 106.892 30.834 106.892 32.486C106.892 34.138 106.85 35.468 105.296 35.468C103.77 35.468 103.77 33.48 103.77 32.36ZM103.742 36V35.146H103.77C104.12 35.804 104.722 36.14 105.548 36.14C107.606 36.14 107.732 34.012 107.732 32.458C107.732 31.198 107.914 28.79 105.618 28.79C104.82 28.79 104.26 29.084 103.826 29.756L103.798 29.728V25.892H102.958V35.3C102.958 35.538 102.916 35.762 102.874 36H103.742ZM112.805 36.14C114.457 36.14 115.241 35.062 115.241 33.228V31.702C115.241 29.868 114.457 28.79 112.805 28.79C111.153 28.79 110.369 29.868 110.369 31.702V33.228C110.369 35.062 111.153 36.14 112.805 36.14ZM112.805 29.462C114.191 29.462 114.401 30.624 114.401 32.458C114.401 34.306 114.191 35.468 112.805 35.468C111.419 35.468 111.209 34.306 111.209 32.458C111.209 30.624 111.419 29.462 112.805 29.462ZM118.998 31.45C118.998 30.526 119.404 29.462 120.468 29.462C121.294 29.462 121.546 30.246 121.56 30.946V36H122.4V31.45C122.4 30.526 122.806 29.462 123.87 29.462C124.696 29.462 124.948 30.246 124.962 30.946V36H125.802V30.736C125.76 29.602 125.144 28.79 123.968 28.79C123.184 28.79 122.582 29.196 122.232 29.896C121.994 29.196 121.35 28.79 120.622 28.79C119.838 28.79 119.278 29.224 118.942 29.798H118.914V28.916H118.158V36H118.998V31.45ZM129.749 32.36C129.749 31.296 129.917 29.462 131.275 29.462C132.829 29.462 132.871 30.834 132.871 32.486C132.871 34.138 132.829 35.468 131.275 35.468C129.749 35.468 129.749 33.48 129.749 32.36ZM129.721 36V35.146H129.749C130.099 35.804 130.701 36.14 131.527 36.14C133.585 36.14 133.711 34.012 133.711 32.458C133.711 31.198 133.893 28.79 131.597 28.79C130.799 28.79 130.239 29.084 129.805 29.756L129.777 29.728V25.892H128.937V35.3C128.937 35.538 128.895 35.762 128.853 36H129.721ZM140.492 34.138C140.492 31.772 137.314 32.248 137.314 30.484C137.314 29.854 137.79 29.462 138.392 29.462C139.344 29.462 139.582 29.938 139.624 30.834H140.45C140.45 29.756 140.002 28.79 138.602 28.79C137.37 28.79 136.474 29.252 136.474 30.554C136.474 32.892 139.652 32.416 139.652 34.264C139.652 35.048 139.26 35.51 138.448 35.51C137.37 35.51 137.146 34.866 137.146 33.9H136.292C136.278 35.398 136.88 36.14 138.406 36.14C139.722 36.14 140.492 35.468 140.492 34.138ZM143.554 36H144.59V34.936H143.554V36ZM9.946 48.648H11.122C13.614 48.648 14.006 49.488 14.006 52.386C14.006 56.516 13.74 57.244 11.038 57.244H9.946V48.648ZM9.05 58H11.36C14.412 58 14.902 56.348 14.902 52.988C14.902 49.544 14.552 47.892 11.724 47.892H9.05V58ZM18.9293 50.93H18.0893V58H18.9293V53.45C18.9293 52.26 19.7133 51.546 20.9033 51.644V50.79C20.0493 50.79 19.3073 51.21 18.9573 51.882H18.9293V50.93ZM24.4498 58V50.93H23.6098V58H24.4498ZM24.5478 48.956V47.892H23.5118V48.956H24.5478ZM28.0293 50.93H27.1193L29.2193 58H30.1853L32.2853 50.93H31.4733L29.7513 56.936H29.7233L28.0293 50.93ZM39.3647 54.64C39.3647 52.54 39.3647 50.79 36.9287 50.79C35.3467 50.79 34.4927 51.728 34.4927 53.772V55.508C34.4927 57.65 35.7107 58.14 36.9287 58.14C38.3427 58.14 39.2667 57.552 39.3647 55.844H38.4827C38.4967 56.796 37.9787 57.468 36.9287 57.468C35.5987 57.468 35.3327 56.166 35.3327 55.186V54.64H39.3647ZM35.3327 53.968C35.3327 52.4 35.5847 51.462 36.9287 51.462C38.2727 51.462 38.5247 52.4 38.5247 53.968H35.3327ZM47.3029 51.602V56.656C47.3029 57.524 47.6389 58.028 48.7729 58.028C49.0389 58.028 49.3189 58.014 49.5709 57.986V57.258C49.3889 57.286 49.1929 57.3 48.9129 57.3C48.2409 57.3 48.1429 57.076 48.1429 56.138V51.602H49.5709V50.93H48.1429V49.11L47.3029 49.474V50.93H46.1689V51.602H47.3029ZM54.3494 58.14C56.0014 58.14 56.7854 57.062 56.7854 55.228V53.702C56.7854 51.868 56.0014 50.79 54.3494 50.79C52.6974 50.79 51.9134 51.868 51.9134 53.702V55.228C51.9134 57.062 52.6974 58.14 54.3494 58.14ZM54.3494 51.462C55.7354 51.462 55.9454 52.624 55.9454 54.458C55.9454 56.306 55.7354 57.468 54.3494 57.468C52.9634 57.468 52.7534 56.306 52.7534 54.458C52.7534 52.624 52.9634 51.462 54.3494 51.462ZM67.2156 58.196C69.6096 58.196 69.7776 55.83 69.7776 55.102H68.8256C68.8116 56.404 68.3776 57.44 67.2156 57.44C65.0876 57.44 65.0596 55.634 65.0596 52.946C65.0596 50.258 65.0876 48.452 67.2156 48.452C68.5036 48.452 68.8116 49.502 68.8116 50.622H69.7076C69.7076 49.712 69.6656 47.696 67.2156 47.696C64.1916 47.696 64.1636 50.216 64.1636 52.946C64.1636 55.676 64.1916 58.196 67.2156 58.196ZM73.7396 58V47.892H72.8996V58H73.7396ZM81.8131 54.64C81.8131 52.54 81.8131 50.79 79.3771 50.79C77.7951 50.79 76.9411 51.728 76.9411 53.772V55.508C76.9411 57.65 78.1591 58.14 79.3771 58.14C80.7911 58.14 81.7151 57.552 81.8131 55.844H80.9311C80.9451 56.796 80.4271 57.468 79.3771 57.468C78.0471 57.468 77.7811 56.166 77.7811 55.186V54.64H81.8131ZM77.7811 53.968C77.7811 52.4 78.0331 51.462 79.3771 51.462C80.7211 51.462 80.9731 52.4 80.9731 53.968H77.7811ZM85.5698 53.45C85.5698 52.526 85.9758 51.462 87.0398 51.462C87.8658 51.462 88.1178 52.246 88.1318 52.946V58H88.9718V53.45C88.9718 52.526 89.3778 51.462 90.4418 51.462C91.2678 51.462 91.5198 52.246 91.5338 52.946V58H92.3738V52.736C92.3318 51.602 91.7158 50.79 90.5398 50.79C89.7558 50.79 89.1538 51.196 88.8038 51.896C88.5658 51.196 87.9218 50.79 87.1938 50.79C86.4098 50.79 85.8498 51.224 85.5138 51.798H85.4858V50.916H84.7298V58H85.5698V53.45ZM100.172 54.64C100.172 52.54 100.172 50.79 97.7357 50.79C96.1537 50.79 95.2997 51.728 95.2997 53.772V55.508C95.2997 57.65 96.5177 58.14 97.7357 58.14C99.1497 58.14 100.074 57.552 100.172 55.844H99.2897C99.3037 56.796 98.7857 57.468 97.7357 57.468C96.4057 57.468 96.1397 56.166 96.1397 55.186V54.64H100.172ZM96.1397 53.968C96.1397 52.4 96.3917 51.462 97.7357 51.462C99.0797 51.462 99.3317 52.4 99.3317 53.968H96.1397ZM103.606 51.602V56.656C103.606 57.524 103.942 58.028 105.076 58.028C105.342 58.028 105.622 58.014 105.874 57.986V57.258C105.692 57.286 105.496 57.3 105.216 57.3C104.544 57.3 104.446 57.076 104.446 56.138V51.602H105.874V50.93H104.446V49.11L103.606 49.474V50.93H102.472V51.602H103.606ZM113.089 54.64C113.089 52.54 113.089 50.79 110.653 50.79C109.071 50.79 108.217 51.728 108.217 53.772V55.508C108.217 57.65 109.435 58.14 110.653 58.14C112.067 58.14 112.991 57.552 113.089 55.844H112.207C112.221 56.796 111.703 57.468 110.653 57.468C109.323 57.468 109.057 56.166 109.057 55.186V54.64H113.089ZM109.057 53.968C109.057 52.4 109.309 51.462 110.653 51.462C111.997 51.462 112.249 52.4 112.249 53.968H109.057ZM120.565 58H121.461V53.296H123.169C124.905 53.296 125.563 52.372 125.563 50.342C125.563 48.004 124.177 47.892 123.337 47.892H120.565V58ZM121.461 48.648H123.113C123.925 48.648 124.667 48.788 124.667 50.51C124.667 52.092 124.065 52.54 123.127 52.54H121.461V48.648ZM131.742 55.676C131.742 56.6 130.958 57.468 129.992 57.468C129.124 57.468 128.718 56.81 128.718 56.012C128.718 54.29 130.538 54.43 131.742 54.388V55.676ZM131.798 58H132.666C132.582 57.174 132.582 56.726 132.582 56.222V52.666C132.582 50.86 131.098 50.79 130.384 50.79C129.152 50.79 128.102 51.322 128.032 52.68H128.928C128.928 51.84 129.544 51.462 130.314 51.462C131.434 51.462 131.742 52.092 131.742 53.128V53.716C130.314 53.828 127.822 53.576 127.822 56.054C127.822 57.286 128.508 58.14 129.768 58.14C130.636 58.14 131.322 57.804 131.77 57.132H131.798V58ZM136.661 50.93H135.821V58H136.661V53.45C136.661 52.26 137.445 51.546 138.635 51.644V50.79C137.781 50.79 137.039 51.21 136.689 51.882H136.661V50.93ZM141.089 58H141.929V54.15H141.957L144.477 58H145.541L142.867 54.08L145.373 50.93H144.393L141.957 54.052H141.929V47.892H141.089V58ZM148.084 58H149.12V56.936H148.084V58ZM161.837 57.146C161.361 57.328 160.717 57.44 159.947 57.44C157.763 57.44 157.791 55.494 157.791 52.946C157.791 50.398 157.763 48.452 159.947 48.452C161.361 48.452 161.935 49.152 161.935 50.482H162.831C162.873 48.522 161.879 47.696 159.947 47.696C156.657 47.696 156.895 50.986 156.895 52.946C156.895 54.906 156.657 58.196 159.947 58.196C160.899 58.196 161.837 58.056 162.733 57.776V52.722H159.793V53.478H161.837V57.146ZM170.779 54.64C170.779 52.54 170.779 50.79 168.343 50.79C166.761 50.79 165.907 51.728 165.907 53.772V55.508C165.907 57.65 167.125 58.14 168.343 58.14C169.757 58.14 170.681 57.552 170.779 55.844H169.897C169.911 56.796 169.393 57.468 168.343 57.468C167.013 57.468 166.747 56.166 166.747 55.186V54.64H170.779ZM166.747 53.968C166.747 52.4 166.999 51.462 168.343 51.462C169.687 51.462 169.939 52.4 169.939 53.968H166.747ZM177.307 55.676C177.307 56.6 176.523 57.468 175.557 57.468C174.689 57.468 174.283 56.81 174.283 56.012C174.283 54.29 176.103 54.43 177.307 54.388V55.676ZM177.363 58H178.231C178.147 57.174 178.147 56.726 178.147 56.222V52.666C178.147 50.86 176.663 50.79 175.949 50.79C174.717 50.79 173.667 51.322 173.597 52.68H174.493C174.493 51.84 175.109 51.462 175.879 51.462C176.999 51.462 177.307 52.092 177.307 53.128V53.716C175.879 53.828 173.387 53.576 173.387 56.054C173.387 57.286 174.073 58.14 175.333 58.14C176.201 58.14 176.887 57.804 177.335 57.132H177.363V58ZM182.226 50.93H181.386V58H182.226V53.45C182.226 52.26 183.01 51.546 184.2 51.644V50.79C183.346 50.79 182.604 51.21 182.254 51.882H182.226V50.93ZM194.742 50.93V55.914C194.742 56.404 194.336 57.468 193.202 57.468C191.984 57.468 192.026 55.984 192.026 55.788V50.93H191.186V55.928C191.186 57.076 191.592 58.14 193.048 58.14C193.832 58.14 194.336 57.818 194.826 57.216H194.854V58H195.582V50.93H194.742ZM199.619 53.828C199.619 52.078 200.571 51.462 201.117 51.462C202.503 51.462 202.713 52.624 202.713 54.458C202.713 56.306 202.503 57.468 201.117 57.468C200.347 57.468 199.619 56.698 199.619 55.088V53.828ZM199.591 50.93H198.779V60.674H199.619V57.202L199.647 57.216C200.081 57.888 200.599 58.14 201.117 58.14C202.923 58.14 203.553 57.062 203.553 55.228V53.646C203.553 52.722 203.539 50.79 201.327 50.79C200.767 50.79 200.067 51.084 199.619 51.77L199.591 51.784V50.93ZM206.554 58H207.59V56.936H206.554V58ZM13.782 79.146C13.306 79.328 12.662 79.44 11.892 79.44C9.708 79.44 9.736 77.494 9.736 74.946C9.736 72.398 9.708 70.452 11.892 70.452C13.306 70.452 13.88 71.152 13.88 72.482H14.776C14.818 70.522 13.824 69.696 11.892 69.696C8.602 69.696 8.84 72.986 8.84 74.946C8.84 76.906 8.602 80.196 11.892 80.196C12.844 80.196 13.782 80.056 14.678 79.776V74.722H11.738V75.478H13.782V79.146ZM22.7233 76.64C22.7233 74.54 22.7233 72.79 20.2873 72.79C18.7053 72.79 17.8513 73.728 17.8513 75.772V77.508C17.8513 79.65 19.0693 80.14 20.2873 80.14C21.7013 80.14 22.6253 79.552 22.7233 77.844H21.8413C21.8553 78.796 21.3373 79.468 20.2873 79.468C18.9573 79.468 18.6913 78.166 18.6913 77.186V76.64H22.7233ZM18.6913 75.968C18.6913 74.4 18.9433 73.462 20.2873 73.462C21.6313 73.462 21.8833 74.4 21.8833 75.968H18.6913ZM26.158 73.602V78.656C26.158 79.524 26.494 80.028 27.628 80.028C27.894 80.028 28.174 80.014 28.426 79.986V79.258C28.244 79.286 28.048 79.3 27.768 79.3C27.096 79.3 26.998 79.076 26.998 78.138V73.602H28.426V72.93H26.998V71.11L26.158 71.474V72.93H25.024V73.602H26.158ZM36.294 76.36C36.294 75.296 36.462 73.462 37.82 73.462C39.374 73.462 39.416 74.834 39.416 76.486C39.416 78.138 39.374 79.468 37.82 79.468C36.294 79.468 36.294 77.48 36.294 76.36ZM36.266 80V79.146H36.294C36.644 79.804 37.246 80.14 38.072 80.14C40.13 80.14 40.256 78.012 40.256 76.458C40.256 75.198 40.438 72.79 38.142 72.79C37.344 72.79 36.784 73.084 36.35 73.756L36.322 73.728V69.892H35.482V79.3C35.482 79.538 35.44 79.762 35.398 80H36.266ZM46.6727 77.676C46.6727 78.6 45.8887 79.468 44.9227 79.468C44.0547 79.468 43.6487 78.81 43.6487 78.012C43.6487 76.29 45.4687 76.43 46.6727 76.388V77.676ZM46.7287 80H47.5967C47.5127 79.174 47.5127 78.726 47.5127 78.222V74.666C47.5127 72.86 46.0287 72.79 45.3147 72.79C44.0827 72.79 43.0327 73.322 42.9627 74.68H43.8587C43.8587 73.84 44.4747 73.462 45.2447 73.462C46.3647 73.462 46.6727 74.092 46.6727 75.128V75.716C45.2447 75.828 42.7527 75.576 42.7527 78.054C42.7527 79.286 43.4387 80.14 44.6987 80.14C45.5667 80.14 46.2527 79.804 46.7007 79.132H46.7287V80ZM54.6854 74.96C54.7554 73.476 53.9294 72.79 52.7114 72.79C51.7454 72.79 50.9474 73.154 50.5834 74.162C50.4014 74.694 50.3734 75.8 50.3734 76.5C50.3734 78.25 50.3734 80.14 52.7674 80.14C53.4254 80.14 54.7694 79.818 54.6994 77.914H53.8594C53.8174 78.768 53.6774 79.468 52.5714 79.468C51.2694 79.468 51.2694 77.774 51.2694 76.5C51.2694 75.562 51.3534 74.596 51.4654 74.274C51.6474 73.756 52.0814 73.462 52.5994 73.462C53.5654 73.462 53.8874 74.078 53.8454 74.96H54.6854ZM57.5648 80H58.4048V76.15H58.4328L60.9528 80H62.0168L59.3428 76.08L61.8488 72.93H60.8688L58.4328 76.052H58.4048V69.892H57.5648V80ZM69.7217 76.36C69.7217 75.296 69.8897 73.462 71.2477 73.462C72.8017 73.462 72.8437 74.834 72.8437 76.486C72.8437 78.138 72.8017 79.468 71.2477 79.468C69.7217 79.468 69.7217 77.48 69.7217 76.36ZM69.6937 80V79.146H69.7217C70.0717 79.804 70.6737 80.14 71.4997 80.14C73.5577 80.14 73.6837 78.012 73.6837 76.458C73.6837 75.198 73.8657 72.79 71.5697 72.79C70.7717 72.79 70.2117 73.084 69.7777 73.756L69.7497 73.728V69.892H68.9097V79.3C68.9097 79.538 68.8677 79.762 68.8257 80H69.6937ZM77.2024 82.674H78.0284L80.9544 72.93H80.1144L78.4484 78.726H78.4204L76.6984 72.93H75.7884L78.0284 80.014L77.2024 82.674ZM88.2394 72.734C88.8554 72.328 89.4154 71.866 89.9474 71.362V80H90.7874V70.242H90.0034C89.5134 70.844 88.8834 71.32 88.2394 71.768V72.734ZM95.8601 72.734C96.4761 72.328 97.0361 71.866 97.5681 71.362V80H98.4081V70.242H97.6241C97.1341 70.844 96.5041 71.32 95.8601 71.768V72.734ZM103.271 80H104.307V78.936H103.271V80ZM103.271 73.994H104.307V72.93H103.271V73.994ZM107.984 72.734C108.6 72.328 109.16 71.866 109.692 71.362V80H110.532V70.242H109.748C109.258 70.844 108.628 71.32 107.984 71.768V72.734ZM117.761 73.756C116.991 73.756 116.599 73.966 116.039 74.484V70.998H119.693V70.242H115.199V75.534H116.011C116.151 74.862 116.907 74.512 117.537 74.512C119.091 74.512 119.189 75.73 119.189 76.948C119.189 78.11 119.035 79.398 117.565 79.398C116.403 79.398 115.969 78.768 115.997 77.662H115.101C115.059 79.37 115.913 80.154 117.579 80.154C119.679 80.154 120.085 78.572 120.085 76.948C120.085 75.772 120.155 73.756 117.761 73.756ZM8.896 102H9.792V97.296H11.5C13.236 97.296 13.894 96.372 13.894 94.342C13.894 92.004 12.508 91.892 11.668 91.892H8.896V102ZM9.792 92.648H11.444C12.256 92.648 12.998 92.788 12.998 94.51C12.998 96.092 12.396 96.54 11.458 96.54H9.792V92.648ZM20.0727 99.676C20.0727 100.6 19.2887 101.468 18.3227 101.468C17.4547 101.468 17.0487 100.81 17.0487 100.012C17.0487 98.29 18.8687 98.43 20.0727 98.388V99.676ZM20.1287 102H20.9967C20.9127 101.174 20.9127 100.726 20.9127 100.222V96.666C20.9127 94.86 19.4287 94.79 18.7147 94.79C17.4827 94.79 16.4327 95.322 16.3627 96.68H17.2587C17.2587 95.84 17.8747 95.462 18.6447 95.462C19.7647 95.462 20.0727 96.092 20.0727 97.128V97.716C18.6447 97.828 16.1527 97.576 16.1527 100.054C16.1527 101.286 16.8387 102.14 18.0987 102.14C18.9667 102.14 19.6527 101.804 20.1007 101.132H20.1287V102ZM24.9914 94.93H24.1514V102H24.9914V97.45C24.9914 96.26 25.7754 95.546 26.9654 95.644V94.79C26.1114 94.79 25.3694 95.21 25.0194 95.882H24.9914V94.93ZM29.4199 102H30.2599V98.15H30.2879L32.8079 102H33.8719L31.1979 98.08L33.7039 94.93H32.7239L30.2879 98.052H30.2599V91.892H29.4199V102ZM44.7268 96.96C44.7968 95.476 43.9708 94.79 42.7528 94.79C41.7868 94.79 40.9888 95.154 40.6248 96.162C40.4428 96.694 40.4148 97.8 40.4148 98.5C40.4148 100.25 40.4148 102.14 42.8088 102.14C43.4668 102.14 44.8108 101.818 44.7408 99.914H43.9008C43.8588 100.768 43.7188 101.468 42.6128 101.468C41.3108 101.468 41.3108 99.774 41.3108 98.5C41.3108 97.562 41.3948 96.596 41.5068 96.274C41.6888 95.756 42.1228 95.462 42.6408 95.462C43.6068 95.462 43.9288 96.078 43.8868 96.96H44.7268ZM51.1762 99.676C51.1762 100.6 50.3922 101.468 49.4262 101.468C48.5582 101.468 48.1522 100.81 48.1522 100.012C48.1522 98.29 49.9722 98.43 51.1762 98.388V99.676ZM51.2322 102H52.1002C52.0162 101.174 52.0162 100.726 52.0162 100.222V96.666C52.0162 94.86 50.5322 94.79 49.8182 94.79C48.5862 94.79 47.5362 95.322 47.4662 96.68H48.3622C48.3622 95.84 48.9782 95.462 49.7482 95.462C50.8682 95.462 51.1762 96.092 51.1762 97.128V97.716C49.7482 97.828 47.2562 97.576 47.2562 100.054C47.2562 101.286 47.9422 102.14 49.2022 102.14C50.0702 102.14 50.7562 101.804 51.2042 101.132H51.2322V102ZM56.0949 94.93H55.2549V102H56.0949V97.45C56.0949 96.26 56.8789 95.546 58.0689 95.644V94.79C57.2149 94.79 56.4729 95.21 56.1229 95.882H56.0949V94.93ZM64.4574 100.138C64.4574 97.772 61.2794 98.248 61.2794 96.484C61.2794 95.854 61.7554 95.462 62.3574 95.462C63.3094 95.462 63.5474 95.938 63.5894 96.834H64.4154C64.4154 95.756 63.9674 94.79 62.5674 94.79C61.3354 94.79 60.4394 95.252 60.4394 96.554C60.4394 98.892 63.6174 98.416 63.6174 100.264C63.6174 101.048 63.2254 101.51 62.4134 101.51C61.3354 101.51 61.1114 100.866 61.1114 99.9H60.2574C60.2434 101.398 60.8454 102.14 62.3714 102.14C63.6874 102.14 64.4574 101.468 64.4574 100.138ZM67.5188 102H68.5548V100.936H67.5188V102ZM80.3058 100.138C80.3058 97.772 77.1278 98.248 77.1278 96.484C77.1278 95.854 77.6038 95.462 78.2058 95.462C79.1578 95.462 79.3958 95.938 79.4378 96.834H80.2638C80.2638 95.756 79.8158 94.79 78.4158 94.79C77.1838 94.79 76.2878 95.252 76.2878 96.554C76.2878 98.892 79.4658 98.416 79.4658 100.264C79.4658 101.048 79.0738 101.51 78.2618 101.51C77.1838 101.51 76.9598 100.866 76.9598 99.9H76.1058C76.0918 101.398 76.6938 102.14 78.2198 102.14C79.5358 102.14 80.3058 101.468 80.3058 100.138ZM87.8753 98.64C87.8753 96.54 87.8753 94.79 85.4393 94.79C83.8573 94.79 83.0033 95.728 83.0033 97.772V99.508C83.0033 101.65 84.2213 102.14 85.4393 102.14C86.8533 102.14 87.7773 101.552 87.8753 99.844H86.9933C87.0073 100.796 86.4893 101.468 85.4393 101.468C84.1093 101.468 83.8433 100.166 83.8433 99.186V98.64H87.8753ZM83.8433 97.968C83.8433 96.4 84.0953 95.462 85.4393 95.462C86.7833 95.462 87.0353 96.4 87.0353 97.968H83.8433ZM91.31 95.602V100.656C91.31 101.524 91.646 102.028 92.78 102.028C93.046 102.028 93.326 102.014 93.578 101.986V101.258C93.396 101.286 93.2 101.3 92.92 101.3C92.248 101.3 92.15 101.076 92.15 100.138V95.602H93.578V94.93H92.15V93.11L91.31 93.474V94.93H90.176V95.602H91.31ZM104.596 96.96C104.666 95.476 103.84 94.79 102.622 94.79C101.656 94.79 100.858 95.154 100.494 96.162C100.312 96.694 100.284 97.8 100.284 98.5C100.284 100.25 100.284 102.14 102.678 102.14C103.336 102.14 104.68 101.818 104.61 99.914H103.77C103.728 100.768 103.588 101.468 102.482 101.468C101.18 101.468 101.18 99.774 101.18 98.5C101.18 97.562 101.264 96.596 101.376 96.274C101.558 95.756 101.992 95.462 102.51 95.462C103.476 95.462 103.798 96.078 103.756 96.96H104.596ZM111.045 99.676C111.045 100.6 110.261 101.468 109.295 101.468C108.427 101.468 108.021 100.81 108.021 100.012C108.021 98.29 109.841 98.43 111.045 98.388V99.676ZM111.101 102H111.969C111.885 101.174 111.885 100.726 111.885 100.222V96.666C111.885 94.86 110.401 94.79 109.687 94.79C108.455 94.79 107.405 95.322 107.335 96.68H108.231C108.231 95.84 108.847 95.462 109.617 95.462C110.737 95.462 111.045 96.092 111.045 97.128V97.716C109.617 97.828 107.125 97.576 107.125 100.054C107.125 101.286 107.811 102.14 109.071 102.14C109.939 102.14 110.625 101.804 111.073 101.132H111.101V102ZM115.964 94.93H115.124V102H115.964V97.45C115.964 96.26 116.748 95.546 117.938 95.644V94.79C117.084 94.79 116.342 95.21 115.992 95.882H115.964V94.93ZM125.708 98.36C125.708 97.296 125.876 95.462 127.234 95.462C128.788 95.462 128.83 96.834 128.83 98.486C128.83 100.138 128.788 101.468 127.234 101.468C125.708 101.468 125.708 99.48 125.708 98.36ZM125.68 102V101.146H125.708C126.058 101.804 126.66 102.14 127.486 102.14C129.544 102.14 129.67 100.012 129.67 98.458C129.67 97.198 129.852 94.79 127.556 94.79C126.758 94.79 126.198 95.084 125.764 95.756L125.736 95.728V91.892H124.896V101.3C124.896 101.538 124.854 101.762 124.812 102H125.68ZM134.743 102.14C136.395 102.14 137.179 101.062 137.179 99.228V97.702C137.179 95.868 136.395 94.79 134.743 94.79C133.091 94.79 132.307 95.868 132.307 97.702V99.228C132.307 101.062 133.091 102.14 134.743 102.14ZM134.743 95.462C136.129 95.462 136.339 96.624 136.339 98.458C136.339 100.306 136.129 101.468 134.743 101.468C133.357 101.468 133.147 100.306 133.147 98.458C133.147 96.624 133.357 95.462 134.743 95.462ZM140.935 97.45C140.935 96.526 141.341 95.462 142.405 95.462C143.231 95.462 143.483 96.246 143.497 96.946V102H144.337V97.45C144.337 96.526 144.743 95.462 145.807 95.462C146.633 95.462 146.885 96.246 146.899 96.946V102H147.739V96.736C147.697 95.602 147.081 94.79 145.905 94.79C145.121 94.79 144.519 95.196 144.169 95.896C143.931 95.196 143.287 94.79 142.559 94.79C141.775 94.79 141.215 95.224 140.879 95.798H140.851V94.916H140.095V102H140.935V97.45ZM151.687 98.36C151.687 97.296 151.855 95.462 153.213 95.462C154.767 95.462 154.809 96.834 154.809 98.486C154.809 100.138 154.767 101.468 153.213 101.468C151.687 101.468 151.687 99.48 151.687 98.36ZM151.659 102V101.146H151.687C152.037 101.804 152.639 102.14 153.465 102.14C155.523 102.14 155.649 100.012 155.649 98.458C155.649 97.198 155.831 94.79 153.535 94.79C152.737 94.79 152.177 95.084 151.743 95.756L151.715 95.728V91.892H150.875V101.3C150.875 101.538 150.833 101.762 150.791 102H151.659ZM162.43 100.138C162.43 97.772 159.252 98.248 159.252 96.484C159.252 95.854 159.728 95.462 160.33 95.462C161.282 95.462 161.52 95.938 161.562 96.834H162.388C162.388 95.756 161.94 94.79 160.54 94.79C159.308 94.79 158.412 95.252 158.412 96.554C158.412 98.892 161.59 98.416 161.59 100.264C161.59 101.048 161.198 101.51 160.386 101.51C159.308 101.51 159.084 100.866 159.084 99.9H158.23C158.216 101.398 158.818 102.14 160.344 102.14C161.66 102.14 162.43 101.468 162.43 100.138ZM170.359 102H171.199V95.602H172.627V94.93H171.199V93.726C171.199 93.32 171.199 92.592 172.011 92.592H172.641V91.892C172.431 91.864 172.291 91.836 172.165 91.836C170.457 91.836 170.359 93.068 170.359 93.74V94.93H169.225V95.602H170.359V102ZM177.363 102.14C179.015 102.14 179.799 101.062 179.799 99.228V97.702C179.799 95.868 179.015 94.79 177.363 94.79C175.711 94.79 174.927 95.868 174.927 97.702V99.228C174.927 101.062 175.711 102.14 177.363 102.14ZM177.363 95.462C178.749 95.462 178.959 96.624 178.959 98.458C178.959 100.306 178.749 101.468 177.363 101.468C175.977 101.468 175.767 100.306 175.767 98.458C175.767 96.624 175.977 95.462 177.363 95.462ZM183.626 94.93H182.786V102H183.626V97.45C183.626 96.26 184.41 95.546 185.6 95.644V94.79C184.746 94.79 184.004 95.21 183.654 95.882H183.626V94.93ZM192.922 94.734C193.538 94.328 194.098 93.866 194.63 93.362V102H195.47V92.242H194.686C194.196 92.844 193.566 93.32 192.922 93.768V94.734ZM200.543 94.734C201.159 94.328 201.719 93.866 202.251 93.362V102H203.091V92.242H202.307C201.817 92.844 201.187 93.32 200.543 93.768V94.734ZM207.954 102H208.99V100.936H207.954V102ZM207.954 95.994H208.99V94.93H207.954V95.994ZM212.667 94.734C213.283 94.328 213.843 93.866 214.375 93.362V102H215.215V92.242H214.431C213.941 92.844 213.311 93.32 212.667 93.768V94.734ZM222.15 96.568C220.974 96.568 220.596 95.77 220.596 94.65C220.596 93.502 220.904 92.76 222.15 92.76C223.396 92.76 223.704 93.502 223.704 94.65C223.704 95.77 223.326 96.568 222.15 96.568ZM223.158 96.862C224.376 96.61 224.6 95.63 224.6 94.524C224.6 93.628 224.53 92.088 222.15 92.088C219.77 92.088 219.7 93.628 219.7 94.524C219.7 95.63 219.924 96.61 221.114 96.862L221.142 96.89C219.812 97.184 219.602 98.164 219.602 99.354C219.602 100.628 219.938 102.154 222.15 102.154C224.362 102.154 224.698 100.628 224.698 99.354C224.698 98.164 224.488 97.184 223.158 96.89V96.862ZM222.15 101.482C220.89 101.482 220.498 100.6 220.498 99.466C220.498 98.416 220.61 97.24 222.15 97.24C223.69 97.24 223.802 98.416 223.802 99.466C223.802 100.6 223.41 101.482 222.15 101.482ZM10.912 117.462C11.696 117.462 12.494 118.022 12.494 119.506C12.494 121.578 12.438 121.9 12.228 122.446C12.102 122.782 11.654 123.244 10.954 123.244C9.428 123.244 9.428 121.774 9.428 120.304C9.428 119.254 9.456 117.462 10.912 117.462ZM12.55 117.812L12.522 117.784C12.214 117.154 11.5 116.79 10.786 116.79C9.358 116.79 8.868 117.896 8.798 118.19C8.602 118.946 8.588 118.96 8.588 120.598C8.588 122.166 8.728 123.916 10.758 123.916C11.43 123.916 12.102 123.664 12.466 123.062H12.494C12.494 125.176 12.592 126.058 10.954 126.058C10.17 126.058 9.568 125.582 9.624 124.77H8.784C8.728 125.484 9.078 126.73 10.842 126.73C12.858 126.73 13.334 125.806 13.334 124.252V118.302C13.334 117.938 13.348 117.588 13.376 116.916H12.55V117.812ZM21.1647 120.64C21.1647 118.54 21.1647 116.79 18.7287 116.79C17.1467 116.79 16.2927 117.728 16.2927 119.772V121.508C16.2927 123.65 17.5107 124.14 18.7287 124.14C20.1427 124.14 21.0667 123.552 21.1647 121.844H20.2827C20.2967 122.796 19.7787 123.468 18.7287 123.468C17.3987 123.468 17.1327 122.166 17.1327 121.186V120.64H21.1647ZM17.1327 119.968C17.1327 118.4 17.3847 117.462 18.7287 117.462C20.0727 117.462 20.3247 118.4 20.3247 119.968H17.1327ZM24.5994 117.602V122.656C24.5994 123.524 24.9354 124.028 26.0694 124.028C26.3354 124.028 26.6154 124.014 26.8674 123.986V123.258C26.6854 123.286 26.4894 123.3 26.2094 123.3C25.5374 123.3 25.4394 123.076 25.4394 122.138V117.602H26.8674V116.93H25.4394V115.11L24.5994 115.474V116.93H23.4654V117.602H24.5994ZM36.1494 124.14C37.8014 124.14 38.5854 123.062 38.5854 121.228V119.702C38.5854 117.868 37.8014 116.79 36.1494 116.79C34.4974 116.79 33.7134 117.868 33.7134 119.702V121.228C33.7134 123.062 34.4974 124.14 36.1494 124.14ZM36.1494 117.462C37.5354 117.462 37.7454 118.624 37.7454 120.458C37.7454 122.306 37.5354 123.468 36.1494 123.468C34.7634 123.468 34.5534 122.306 34.5534 120.458C34.5534 118.624 34.7634 117.462 36.1494 117.462ZM45.1281 116.93V121.914C45.1281 122.404 44.7221 123.468 43.5881 123.468C42.3701 123.468 42.4121 121.984 42.4121 121.788V116.93H41.5721V121.928C41.5721 123.076 41.9781 124.14 43.4341 124.14C44.2181 124.14 44.7221 123.818 45.2121 123.216H45.2401V124H45.9681V116.93H45.1281ZM49.6408 117.602V122.656C49.6408 123.524 49.9768 124.028 51.1108 124.028C51.3768 124.028 51.6568 124.014 51.9088 123.986V123.258C51.7268 123.286 51.5308 123.3 51.2508 123.3C50.5788 123.3 50.4808 123.076 50.4808 122.138V117.602H51.9088V116.93H50.4808V115.11L49.6408 115.474V116.93H48.5068V117.602H49.6408ZM54.3353 125.47H55.0773L55.9173 122.936H54.8953L54.3353 125.47ZM65.4983 117.462C66.2823 117.462 67.0803 118.022 67.0803 119.506C67.0803 121.578 67.0243 121.9 66.8143 122.446C66.6883 122.782 66.2403 123.244 65.5403 123.244C64.0143 123.244 64.0143 121.774 64.0143 120.304C64.0143 119.254 64.0423 117.462 65.4983 117.462ZM67.1363 117.812L67.1083 117.784C66.8003 117.154 66.0863 116.79 65.3723 116.79C63.9443 116.79 63.4543 117.896 63.3843 118.19C63.1883 118.946 63.1743 118.96 63.1743 120.598C63.1743 122.166 63.3143 123.916 65.3443 123.916C66.0163 123.916 66.6883 123.664 67.0523 123.062H67.0803C67.0803 125.176 67.1783 126.058 65.5403 126.058C64.7563 126.058 64.1543 125.582 64.2103 124.77H63.3703C63.3143 125.484 63.6643 126.73 65.4283 126.73C67.4443 126.73 67.9203 125.806 67.9203 124.252V118.302C67.9203 117.938 67.9343 117.588 67.9623 116.916H67.1363V117.812ZM73.315 124.14C74.967 124.14 75.751 123.062 75.751 121.228V119.702C75.751 117.868 74.967 116.79 73.315 116.79C71.663 116.79 70.879 117.868 70.879 119.702V121.228C70.879 123.062 71.663 124.14 73.315 124.14ZM73.315 117.462C74.701 117.462 74.911 118.624 74.911 120.458C74.911 122.306 74.701 123.468 73.315 123.468C71.929 123.468 71.719 122.306 71.719 120.458C71.719 118.624 71.929 117.462 73.315 117.462ZM83.6893 117.602V122.656C83.6893 123.524 84.0253 124.028 85.1593 124.028C85.4253 124.028 85.7053 124.014 85.9573 123.986V123.258C85.7753 123.286 85.5793 123.3 85.2993 123.3C84.6273 123.3 84.5293 123.076 84.5293 122.138V117.602H85.9573V116.93H84.5293V115.11L83.6893 115.474V116.93H82.5553V117.602H83.6893ZM90.7357 124.14C92.3877 124.14 93.1717 123.062 93.1717 121.228V119.702C93.1717 117.868 92.3877 116.79 90.7357 116.79C89.0837 116.79 88.2997 117.868 88.2997 119.702V121.228C88.2997 123.062 89.0837 124.14 90.7357 124.14ZM90.7357 117.462C92.1217 117.462 92.3317 118.624 92.3317 120.458C92.3317 122.306 92.1217 123.468 90.7357 123.468C89.3497 123.468 89.1397 122.306 89.1397 120.458C89.1397 118.624 89.3497 117.462 90.7357 117.462ZM102.86 124.14C104.512 124.14 105.296 123.062 105.296 121.228V119.702C105.296 117.868 104.512 116.79 102.86 116.79C101.208 116.79 100.424 117.868 100.424 119.702V121.228C100.424 123.062 101.208 124.14 102.86 124.14ZM102.86 117.462C104.246 117.462 104.456 118.624 104.456 120.458C104.456 122.306 104.246 123.468 102.86 123.468C101.474 123.468 101.264 122.306 101.264 120.458C101.264 118.624 101.474 117.462 102.86 117.462ZM111.839 116.93V121.914C111.839 122.404 111.433 123.468 110.299 123.468C109.081 123.468 109.123 121.984 109.123 121.788V116.93H108.283V121.928C108.283 123.076 108.689 124.14 110.145 124.14C110.929 124.14 111.433 123.818 111.923 123.216H111.951V124H112.679V116.93H111.839ZM116.351 117.602V122.656C116.351 123.524 116.687 124.028 117.821 124.028C118.087 124.028 118.367 124.014 118.619 123.986V123.258C118.437 123.286 118.241 123.3 117.961 123.3C117.289 123.3 117.191 123.076 117.191 122.138V117.602H118.619V116.93H117.191V115.11L116.351 115.474V116.93H115.217V117.602H116.351ZM125.106 122.138C125.106 119.772 121.928 120.248 121.928 118.484C121.928 117.854 122.404 117.462 123.006 117.462C123.958 117.462 124.196 117.938 124.238 118.834H125.064C125.064 117.756 124.616 116.79 123.216 116.79C121.984 116.79 121.088 117.252 121.088 118.554C121.088 120.892 124.266 120.416 124.266 122.264C124.266 123.048 123.874 123.51 123.062 123.51C121.984 123.51 121.76 122.866 121.76 121.9H120.906C120.892 123.398 121.494 124.14 123.02 124.14C124.336 124.14 125.106 123.468 125.106 122.138ZM129.105 124V116.93H128.265V124H129.105ZM129.203 114.956V113.892H128.167V114.956H129.203ZM134.603 123.468C133.693 123.468 133.063 123.118 133.063 120.486C133.063 118.834 133.063 117.462 134.575 117.462C136.157 117.462 136.157 119.422 136.157 119.842V121.102C136.157 122.824 135.401 123.468 134.603 123.468ZM136.241 124H137.053C137.011 123.762 136.969 123.3 136.969 122.6V113.892H136.129V117.644L136.101 117.63C135.667 117.084 135.037 116.79 134.393 116.79C132.223 116.79 132.223 119.1 132.223 120.458C132.223 122.11 132.335 124.14 134.379 124.14C135.205 124.14 135.737 123.79 136.171 123.118L136.199 123.104L136.241 124ZM144.799 120.64C144.799 118.54 144.799 116.79 142.363 116.79C140.781 116.79 139.927 117.728 139.927 119.772V121.508C139.927 123.65 141.145 124.14 142.363 124.14C143.777 124.14 144.701 123.552 144.799 121.844H143.917C143.931 122.796 143.413 123.468 142.363 123.468C141.033 123.468 140.767 122.166 140.767 121.186V120.64H144.799ZM140.767 119.968C140.767 118.4 141.019 117.462 142.363 117.462C143.707 117.462 143.959 118.4 143.959 119.968H140.767ZM153.074 124V119.562C153.074 117.98 153.844 117.462 154.6 117.462C155.58 117.462 155.902 118.232 155.902 119.058V124H156.742V119.016C156.742 118.092 156.56 116.79 154.81 116.79C154.054 116.79 153.508 117.21 153.102 117.798H153.074V113.892H152.234V124H153.074ZM160.974 124V116.93H160.134V124H160.974ZM161.072 114.956V113.892H160.036V114.956H161.072ZM165.478 124V113.892H164.638V124H165.478ZM169.981 124V113.892H169.141V124H169.981ZM173.267 125.47H174.009L174.849 122.936H173.827L173.267 125.47ZM183.604 124H184.654L186.138 117.952H186.166L187.72 124H188.77L190.716 116.93H189.876L188.294 123.118H188.266L186.698 116.93H185.662L184.164 123.118H184.136L182.554 116.93H181.658L183.604 124ZM196.708 121.676C196.708 122.6 195.924 123.468 194.958 123.468C194.09 123.468 193.684 122.81 193.684 122.012C193.684 120.29 195.504 120.43 196.708 120.388V121.676ZM196.764 124H197.632C197.548 123.174 197.548 122.726 197.548 122.222V118.666C197.548 116.86 196.064 116.79 195.35 116.79C194.118 116.79 193.068 117.322 192.998 118.68H193.894C193.894 117.84 194.51 117.462 195.28 117.462C196.4 117.462 196.708 118.092 196.708 119.128V119.716C195.28 119.828 192.788 119.576 192.788 122.054C192.788 123.286 193.474 124.14 194.734 124.14C195.602 124.14 196.288 123.804 196.736 123.132H196.764V124ZM201.851 124V116.93H201.011V124H201.851ZM201.949 114.956V113.892H200.913V114.956H201.949ZM205.738 117.602V122.656C205.738 123.524 206.074 124.028 207.208 124.028C207.474 124.028 207.754 124.014 208.006 123.986V123.258C207.824 123.286 207.628 123.3 207.348 123.3C206.676 123.3 206.578 123.076 206.578 122.138V117.602H208.006V116.93H206.578V115.11L205.738 115.474V116.93H204.604V117.602H205.738ZM210.713 124H211.749V122.936H210.713V124ZM11.164 144.824H11.136L9.092 135.892H8.14L10.576 146H11.696L13.782 137.012H13.81L15.84 146H17.016L19.522 135.892H18.64L16.484 144.754H16.456L14.426 135.892H13.222L11.164 144.824ZM22.7561 146V141.562C22.7561 139.98 23.5261 139.462 24.2821 139.462C25.2621 139.462 25.5841 140.232 25.5841 141.058V146H26.4241V141.016C26.4241 140.092 26.2421 138.79 24.4921 138.79C23.7361 138.79 23.1901 139.21 22.7841 139.798H22.7561V135.892H21.9161V146H22.7561ZM34.2268 142.64C34.2268 140.54 34.2268 138.79 31.7908 138.79C30.2088 138.79 29.3548 139.728 29.3548 141.772V143.508C29.3548 145.65 30.5728 146.14 31.7908 146.14C33.2048 146.14 34.1288 145.552 34.2268 143.844H33.3448C33.3588 144.796 32.8408 145.468 31.7908 145.468C30.4608 145.468 30.1948 144.166 30.1948 143.186V142.64H34.2268ZM30.1948 141.968C30.1948 140.4 30.4468 139.462 31.7908 139.462C33.1348 139.462 33.3868 140.4 33.3868 141.968H30.1948ZM37.9975 141.562C37.9975 139.98 38.7675 139.462 39.5235 139.462C40.5035 139.462 40.8255 140.232 40.8255 141.058V146H41.6655V141.016C41.6655 140.092 41.4835 138.79 39.7335 138.79C38.9775 138.79 38.4315 139.21 38.0255 139.798H37.9975V138.93H37.1575V146H37.9975V141.562ZM53.5937 146V138.93H52.7537V146H53.5937ZM53.6917 136.956V135.892H52.6557V136.956H53.6917ZM49.8277 146H50.6677V139.602H52.0957V138.93H50.6677V137.726C50.6677 137.32 50.6677 136.592 51.4797 136.592H52.1097V135.892C51.8997 135.864 51.7597 135.836 51.6337 135.836C49.9257 135.836 49.8277 137.068 49.8277 137.74V138.93H48.6937V139.602H49.8277V146ZM57.7984 138.93H56.9584V146H57.7984V141.45C57.7984 140.26 58.5824 139.546 59.7724 139.644V138.79C58.9184 138.79 58.1764 139.21 57.8264 139.882H57.7984V138.93ZM66.1609 144.138C66.1609 141.772 62.9829 142.248 62.9829 140.484C62.9829 139.854 63.4589 139.462 64.0609 139.462C65.0129 139.462 65.2509 139.938 65.2929 140.834H66.1189C66.1189 139.756 65.6709 138.79 64.2709 138.79C63.0389 138.79 62.1429 139.252 62.1429 140.554C62.1429 142.892 65.3209 142.416 65.3209 144.264C65.3209 145.048 64.9289 145.51 64.1169 145.51C63.0389 145.51 62.8149 144.866 62.8149 143.9H61.9609C61.9469 145.398 62.5489 146.14 64.0749 146.14C65.3909 146.14 66.1609 145.468 66.1609 144.138ZM69.5443 139.602V144.656C69.5443 145.524 69.8803 146.028 71.0143 146.028C71.2803 146.028 71.5603 146.014 71.8123 145.986V145.258C71.6303 145.286 71.4343 145.3 71.1543 145.3C70.4823 145.3 70.3843 145.076 70.3843 144.138V139.602H71.8123V138.93H70.3843V137.11L69.5443 137.474V138.93H68.4103V139.602H69.5443ZM79.6803 142.36C79.6803 141.296 79.8483 139.462 81.2063 139.462C82.7603 139.462 82.8023 140.834 82.8023 142.486C82.8023 144.138 82.7603 145.468 81.2063 145.468C79.6803 145.468 79.6803 143.48 79.6803 142.36ZM79.6523 146V145.146H79.6803C80.0303 145.804 80.6323 146.14 81.4583 146.14C83.5163 146.14 83.6423 144.012 83.6423 142.458C83.6423 141.198 83.8243 138.79 81.5283 138.79C80.7303 138.79 80.1703 139.084 79.7363 139.756L79.7083 139.728V135.892H78.8683V145.3C78.8683 145.538 78.8263 145.762 78.7843 146H79.6523ZM88.715 146.14C90.367 146.14 91.151 145.062 91.151 143.228V141.702C91.151 139.868 90.367 138.79 88.715 138.79C87.063 138.79 86.279 139.868 86.279 141.702V143.228C86.279 145.062 87.063 146.14 88.715 146.14ZM88.715 139.462C90.101 139.462 90.311 140.624 90.311 142.458C90.311 144.306 90.101 145.468 88.715 145.468C87.329 145.468 87.119 144.306 87.119 142.458C87.119 140.624 87.329 139.462 88.715 139.462ZM94.9077 141.45C94.9077 140.526 95.3137 139.462 96.3777 139.462C97.2037 139.462 97.4557 140.246 97.4697 140.946V146H98.3097V141.45C98.3097 140.526 98.7157 139.462 99.7797 139.462C100.606 139.462 100.858 140.246 100.872 140.946V146H101.712V140.736C101.67 139.602 101.054 138.79 99.8777 138.79C99.0937 138.79 98.4917 139.196 98.1417 139.896C97.9037 139.196 97.2597 138.79 96.5317 138.79C95.7477 138.79 95.1877 139.224 94.8517 139.798H94.8237V138.916H94.0677V146H94.9077V141.45ZM105.66 142.36C105.66 141.296 105.828 139.462 107.186 139.462C108.74 139.462 108.782 140.834 108.782 142.486C108.782 144.138 108.74 145.468 107.186 145.468C105.66 145.468 105.66 143.48 105.66 142.36ZM105.632 146V145.146H105.66C106.01 145.804 106.612 146.14 107.438 146.14C109.496 146.14 109.622 144.012 109.622 142.458C109.622 141.198 109.804 138.79 107.508 138.79C106.71 138.79 106.15 139.084 105.716 139.756L105.688 139.728V135.892H104.848V145.3C104.848 145.538 104.806 145.762 104.764 146H105.632ZM116.402 144.138C116.402 141.772 113.224 142.248 113.224 140.484C113.224 139.854 113.7 139.462 114.302 139.462C115.254 139.462 115.492 139.938 115.534 140.834H116.36C116.36 139.756 115.912 138.79 114.512 138.79C113.28 138.79 112.384 139.252 112.384 140.554C112.384 142.892 115.562 142.416 115.562 144.264C115.562 145.048 115.17 145.51 114.358 145.51C113.28 145.51 113.056 144.866 113.056 143.9H112.202C112.188 145.398 112.79 146.14 114.316 146.14C115.632 146.14 116.402 145.468 116.402 144.138ZM125.843 139.462C126.627 139.462 127.425 140.022 127.425 141.506C127.425 143.578 127.369 143.9 127.159 144.446C127.033 144.782 126.585 145.244 125.885 145.244C124.359 145.244 124.359 143.774 124.359 142.304C124.359 141.254 124.387 139.462 125.843 139.462ZM127.481 139.812L127.453 139.784C127.145 139.154 126.431 138.79 125.717 138.79C124.289 138.79 123.799 139.896 123.729 140.19C123.533 140.946 123.519 140.96 123.519 142.598C123.519 144.166 123.659 145.916 125.689 145.916C126.361 145.916 127.033 145.664 127.397 145.062H127.425C127.425 147.176 127.523 148.058 125.885 148.058C125.101 148.058 124.499 147.582 124.555 146.77H123.715C123.659 147.484 124.009 148.73 125.773 148.73C127.789 148.73 128.265 147.806 128.265 146.252V140.302C128.265 139.938 128.279 139.588 128.307 138.916H127.481V139.812ZM133.66 146.14C135.312 146.14 136.096 145.062 136.096 143.228V141.702C136.096 139.868 135.312 138.79 133.66 138.79C132.008 138.79 131.224 139.868 131.224 141.702V143.228C131.224 145.062 132.008 146.14 133.66 146.14ZM133.66 139.462C135.046 139.462 135.256 140.624 135.256 142.458C135.256 144.306 135.046 145.468 133.66 145.468C132.274 145.468 132.064 144.306 132.064 142.458C132.064 140.624 132.274 139.462 133.66 139.462ZM145.784 146.14C147.436 146.14 148.22 145.062 148.22 143.228V141.702C148.22 139.868 147.436 138.79 145.784 138.79C144.132 138.79 143.348 139.868 143.348 141.702V143.228C143.348 145.062 144.132 146.14 145.784 146.14ZM145.784 139.462C147.17 139.462 147.38 140.624 147.38 142.458C147.38 144.306 147.17 145.468 145.784 145.468C144.398 145.468 144.188 144.306 144.188 142.458C144.188 140.624 144.398 139.462 145.784 139.462ZM151.697 146H152.537V139.602H153.965V138.93H152.537V137.726C152.537 137.32 152.537 136.592 153.349 136.592H153.979V135.892C153.769 135.864 153.629 135.836 153.503 135.836C151.795 135.836 151.697 137.068 151.697 137.74V138.93H150.563V139.602H151.697V146ZM156.993 146H157.833V139.602H159.261V138.93H157.833V137.726C157.833 137.32 157.833 136.592 158.645 136.592H159.275V135.892C159.065 135.864 158.925 135.836 158.799 135.836C157.091 135.836 156.993 137.068 156.993 137.74V138.93H155.859V139.602H156.993V146ZM161.646 147.47H162.388L163.228 144.936H162.206L161.646 147.47ZM174.349 143.676C174.349 144.6 173.565 145.468 172.599 145.468C171.731 145.468 171.325 144.81 171.325 144.012C171.325 142.29 173.145 142.43 174.349 142.388V143.676ZM174.405 146H175.273C175.189 145.174 175.189 144.726 175.189 144.222V140.666C175.189 138.86 173.705 138.79 172.991 138.79C171.759 138.79 170.709 139.322 170.639 140.68H171.535C171.535 139.84 172.151 139.462 172.921 139.462C174.041 139.462 174.349 140.092 174.349 141.128V141.716C172.921 141.828 170.429 141.576 170.429 144.054C170.429 145.286 171.115 146.14 172.375 146.14C173.243 146.14 173.929 145.804 174.377 145.132H174.405V146ZM178.876 139.602V144.656C178.876 145.524 179.212 146.028 180.346 146.028C180.612 146.028 180.892 146.014 181.144 145.986V145.258C180.962 145.286 180.766 145.3 180.486 145.3C179.814 145.3 179.716 145.076 179.716 144.138V139.602H181.144V138.93H179.716V137.11L178.876 137.474V138.93H177.742V139.602H178.876ZM184.172 139.602V144.656C184.172 145.524 184.508 146.028 185.642 146.028C185.908 146.028 186.188 146.014 186.44 145.986V145.258C186.258 145.286 186.062 145.3 185.782 145.3C185.11 145.3 185.012 145.076 185.012 144.138V139.602H186.44V138.93H185.012V137.11L184.172 137.474V138.93H183.038V139.602H184.172ZM192.563 143.676C192.563 144.6 191.779 145.468 190.813 145.468C189.945 145.468 189.539 144.81 189.539 144.012C189.539 142.29 191.359 142.43 192.563 142.388V143.676ZM192.619 146H193.487C193.403 145.174 193.403 144.726 193.403 144.222V140.666C193.403 138.86 191.919 138.79 191.205 138.79C189.973 138.79 188.923 139.322 188.853 140.68H189.749C189.749 139.84 190.365 139.462 191.135 139.462C192.255 139.462 192.563 140.092 192.563 141.128V141.716C191.135 141.828 188.643 141.576 188.643 144.054C188.643 145.286 189.329 146.14 190.589 146.14C191.457 146.14 192.143 145.804 192.591 145.132H192.619V146ZM200.575 140.96C200.645 139.476 199.819 138.79 198.601 138.79C197.635 138.79 196.837 139.154 196.473 140.162C196.291 140.694 196.263 141.8 196.263 142.5C196.263 144.25 196.263 146.14 198.657 146.14C199.315 146.14 200.659 145.818 200.589 143.914H199.749C199.707 144.768 199.567 145.468 198.461 145.468C197.159 145.468 197.159 143.774 197.159 142.5C197.159 141.562 197.243 140.596 197.355 140.274C197.537 139.756 197.971 139.462 198.489 139.462C199.455 139.462 199.777 140.078 199.735 140.96H200.575ZM203.455 146H204.295V142.15H204.323L206.843 146H207.907L205.233 142.08L207.739 138.93H206.759L204.323 142.052H204.295V135.892H203.455V146ZM210.45 146H211.486V144.936H210.45V146ZM9.904 168V163.184H13.88V168H14.776V157.892H13.88V162.428H9.904V157.892H9.008V168H9.904ZM21.6313 165.676C21.6313 166.6 20.8473 167.468 19.8813 167.468C19.0133 167.468 18.6073 166.81 18.6073 166.012C18.6073 164.29 20.4273 164.43 21.6313 164.388V165.676ZM21.6873 168H22.5553C22.4713 167.174 22.4713 166.726 22.4713 166.222V162.666C22.4713 160.86 20.9873 160.79 20.2733 160.79C19.0413 160.79 17.9913 161.322 17.9213 162.68H18.8173C18.8173 161.84 19.4333 161.462 20.2033 161.462C21.3233 161.462 21.6313 162.092 21.6313 163.128V163.716C20.2033 163.828 17.7113 163.576 17.7113 166.054C17.7113 167.286 18.3973 168.14 19.6573 168.14C20.5253 168.14 21.2113 167.804 21.6593 167.132H21.6873V168ZM25.85 160.93H24.94L27.04 168H28.006L30.106 160.93H29.294L27.572 166.936H27.544L25.85 160.93ZM37.1854 164.64C37.1854 162.54 37.1854 160.79 34.7494 160.79C33.1674 160.79 32.3134 161.728 32.3134 163.772V165.508C32.3134 167.65 33.5314 168.14 34.7494 168.14C36.1634 168.14 37.0874 167.552 37.1854 165.844H36.3034C36.3174 166.796 35.7994 167.468 34.7494 167.468C33.4194 167.468 33.1534 166.166 33.1534 165.186V164.64H37.1854ZM33.1534 163.968C33.1534 162.4 33.4054 161.462 34.7494 161.462C36.0934 161.462 36.3454 162.4 36.3454 163.968H33.1534ZM45.1656 168H46.0056V161.602H47.4336V160.93H46.0056V159.726C46.0056 159.32 46.0056 158.592 46.8176 158.592H47.4476V157.892C47.2376 157.864 47.0976 157.836 46.9716 157.836C45.2636 157.836 45.1656 159.068 45.1656 159.74V160.93H44.0316V161.602H45.1656V168ZM53.5281 160.93V165.914C53.5281 166.404 53.1221 167.468 51.9881 167.468C50.7701 167.468 50.8121 165.984 50.8121 165.788V160.93H49.9721V165.928C49.9721 167.076 50.3781 168.14 51.8341 168.14C52.6181 168.14 53.1221 167.818 53.6121 167.216H53.6401V168H54.3681V160.93H53.5281ZM58.3768 163.562C58.3768 161.98 59.1468 161.462 59.9028 161.462C60.8828 161.462 61.2048 162.232 61.2048 163.058V168H62.0448V163.016C62.0448 162.092 61.8628 160.79 60.1128 160.79C59.3568 160.79 58.8108 161.21 58.4048 161.798H58.3768V160.93H57.5368V168H58.3768V163.562ZM66.1095 168H67.1455V166.936H66.1095V168ZM66.9915 165.62L67.1175 157.892H66.1375L66.2635 165.62H66.9915Z" fill="white"/>
</svg>
