<svg width="449" height="44" viewBox="0 0 449 44" fill="none" xmlns="http://www.w3.org/2000/svg">
<rect width="427" height="26" fill="black" fill-opacity="0.69"/>
<path d="M13.1462 16H14.0422V6.648H16.5062V5.892H10.6822V6.648H13.1462V16ZM19.8009 16V11.562C19.8009 9.98 20.5709 9.462 21.3269 9.462C22.3069 9.462 22.6289 10.232 22.6289 11.058V16H23.4689V11.016C23.4689 10.092 23.2869 8.79 21.5369 8.79C20.7809 8.79 20.2349 9.21 19.8289 9.798H19.8009V5.892H18.9609V16H19.8009ZM31.2716 12.64C31.2716 10.54 31.2716 8.79 28.8356 8.79C27.2536 8.79 26.3996 9.728 26.3996 11.772V13.508C26.3996 15.65 27.6176 16.14 28.8356 16.14C30.2496 16.14 31.1736 15.552 31.2716 13.844H30.3896C30.4036 14.796 29.8856 15.468 28.8356 15.468C27.5056 15.468 27.2396 14.166 27.2396 13.186V12.64H31.2716ZM27.2396 11.968C27.2396 10.4 27.4916 9.462 28.8356 9.462C30.1796 9.462 30.4316 10.4 30.4316 11.968H27.2396ZM41.2258 5.892L38.0338 16H38.9298L39.7278 13.34H43.6898L44.5018 16H45.4398L42.2898 5.892H41.2258ZM39.9938 12.584L41.7018 6.872H41.7298L43.4518 12.584H39.9938ZM48.7111 11.45C48.7111 10.526 49.1171 9.462 50.1811 9.462C51.0071 9.462 51.2591 10.246 51.2731 10.946V16H52.1131V11.45C52.1131 10.526 52.5191 9.462 53.5831 9.462C54.4091 9.462 54.6611 10.246 54.6751 10.946V16H55.5151V10.736C55.4731 9.602 54.8571 8.79 53.6811 8.79C52.8971 8.79 52.2951 9.196 51.9451 9.896C51.7071 9.196 51.0631 8.79 50.3351 8.79C49.5511 8.79 48.9911 9.224 48.6551 9.798H48.6271V8.916H47.8711V16H48.7111V11.45ZM63.313 12.64C63.313 10.54 63.313 8.79 60.877 8.79C59.295 8.79 58.441 9.728 58.441 11.772V13.508C58.441 15.65 59.659 16.14 60.877 16.14C62.291 16.14 63.215 15.552 63.313 13.844H62.431C62.445 14.796 61.927 15.468 60.877 15.468C59.547 15.468 59.281 14.166 59.281 13.186V12.64H63.313ZM59.281 11.968C59.281 10.4 59.533 9.462 60.877 9.462C62.221 9.462 62.473 10.4 62.473 11.968H59.281ZM67.1397 8.93H66.2997V16H67.1397V11.45C67.1397 10.26 67.9237 9.546 69.1137 9.644V8.79C68.2597 8.79 67.5177 9.21 67.1677 9.882H67.1397V8.93ZM72.6602 16V8.93H71.8202V16H72.6602ZM72.7582 6.956V5.892H71.7222V6.956H72.7582ZM80.0337 10.96C80.1037 9.476 79.2777 8.79 78.0597 8.79C77.0937 8.79 76.2957 9.154 75.9317 10.162C75.7497 10.694 75.7217 11.8 75.7217 12.5C75.7217 14.25 75.7217 16.14 78.1157 16.14C78.7737 16.14 80.1177 15.818 80.0477 13.914H79.2077C79.1657 14.768 79.0257 15.468 77.9197 15.468C76.6177 15.468 76.6177 13.774 76.6177 12.5C76.6177 11.562 76.7017 10.596 76.8137 10.274C76.9957 9.756 77.4297 9.462 77.9477 9.462C78.9137 9.462 79.2357 10.078 79.1937 10.96H80.0337ZM86.4831 13.676C86.4831 14.6 85.6991 15.468 84.7331 15.468C83.8651 15.468 83.4591 14.81 83.4591 14.012C83.4591 12.29 85.2791 12.43 86.4831 12.388V13.676ZM86.5391 16H87.4071C87.3231 15.174 87.3231 14.726 87.3231 14.222V10.666C87.3231 8.86 85.8391 8.79 85.1251 8.79C83.8931 8.79 82.8431 9.322 82.7731 10.68H83.6691C83.6691 9.84 84.2851 9.462 85.0551 9.462C86.1751 9.462 86.4831 10.092 86.4831 11.128V11.716C85.0551 11.828 82.5631 11.576 82.5631 14.054C82.5631 15.286 83.2491 16.14 84.5091 16.14C85.3771 16.14 86.0631 15.804 86.5111 15.132H86.5391V16ZM91.3458 11.562C91.3458 9.98 92.1158 9.462 92.8718 9.462C93.8518 9.462 94.1738 10.232 94.1738 11.058V16H95.0138V11.016C95.0138 10.092 94.8318 8.79 93.0818 8.79C92.3258 8.79 91.7798 9.21 91.3738 9.798H91.3458V8.93H90.5058V16H91.3458V11.562ZM103.722 6.648H104.898C107.39 6.648 107.782 7.488 107.782 10.386C107.782 14.516 107.516 15.244 104.814 15.244H103.722V6.648ZM102.826 16H105.136C108.188 16 108.678 14.348 108.678 10.988C108.678 7.544 108.328 5.892 105.5 5.892H102.826V16ZM112.705 8.93H111.865V16H112.705V11.45C112.705 10.26 113.489 9.546 114.679 9.644V8.79C113.825 8.79 113.083 9.21 112.733 9.882H112.705V8.93ZM121.796 12.64C121.796 10.54 121.796 8.79 119.36 8.79C117.778 8.79 116.924 9.728 116.924 11.772V13.508C116.924 15.65 118.142 16.14 119.36 16.14C120.774 16.14 121.698 15.552 121.796 13.844H120.914C120.928 14.796 120.41 15.468 119.36 15.468C118.03 15.468 117.764 14.166 117.764 13.186V12.64H121.796ZM117.764 11.968C117.764 10.4 118.016 9.462 119.36 9.462C120.704 9.462 120.956 10.4 120.956 11.968H117.764ZM128.325 13.676C128.325 14.6 127.541 15.468 126.575 15.468C125.707 15.468 125.301 14.81 125.301 14.012C125.301 12.29 127.121 12.43 128.325 12.388V13.676ZM128.381 16H129.249C129.165 15.174 129.165 14.726 129.165 14.222V10.666C129.165 8.86 127.681 8.79 126.967 8.79C125.735 8.79 124.685 9.322 124.615 10.68H125.511C125.511 9.84 126.127 9.462 126.897 9.462C128.017 9.462 128.325 10.092 128.325 11.128V11.716C126.897 11.828 124.405 11.576 124.405 14.054C124.405 15.286 125.091 16.14 126.351 16.14C127.219 16.14 127.905 15.804 128.353 15.132H128.381V16ZM133.173 11.45C133.173 10.526 133.579 9.462 134.643 9.462C135.469 9.462 135.721 10.246 135.735 10.946V16H136.575V11.45C136.575 10.526 136.981 9.462 138.045 9.462C138.871 9.462 139.123 10.246 139.137 10.946V16H139.977V10.736C139.935 9.602 139.319 8.79 138.143 8.79C137.359 8.79 136.757 9.196 136.407 9.896C136.169 9.196 135.525 8.79 134.797 8.79C134.013 8.79 133.453 9.224 133.117 9.798H133.089V8.916H132.333V16H133.173V11.45ZM148.709 16V8.93H147.869V16H148.709ZM148.807 6.956V5.892H147.771V6.956H148.807ZM156.054 14.138C156.054 11.772 152.876 12.248 152.876 10.484C152.876 9.854 153.352 9.462 153.954 9.462C154.906 9.462 155.144 9.938 155.186 10.834H156.012C156.012 9.756 155.564 8.79 154.164 8.79C152.932 8.79 152.036 9.252 152.036 10.554C152.036 12.892 155.214 12.416 155.214 14.264C155.214 15.048 154.822 15.51 154.01 15.51C152.932 15.51 152.708 14.866 152.708 13.9H151.854C151.84 15.398 152.442 16.14 153.968 16.14C155.284 16.14 156.054 15.468 156.054 14.138ZM164.529 6.648H165.705C168.197 6.648 168.589 7.488 168.589 10.386C168.589 14.516 168.323 15.244 165.621 15.244H164.529V6.648ZM163.633 16H165.943C168.995 16 169.485 14.348 169.485 10.988C169.485 7.544 169.135 5.892 166.307 5.892H163.633V16ZM177.306 12.64C177.306 10.54 177.306 8.79 174.87 8.79C173.288 8.79 172.434 9.728 172.434 11.772V13.508C172.434 15.65 173.652 16.14 174.87 16.14C176.284 16.14 177.208 15.552 177.306 13.844H176.424C176.438 14.796 175.92 15.468 174.87 15.468C173.54 15.468 173.274 14.166 173.274 13.186V12.64H177.306ZM173.274 11.968C173.274 10.4 173.526 9.462 174.87 9.462C176.214 9.462 176.466 10.4 176.466 11.968H173.274ZM183.835 13.676C183.835 14.6 183.051 15.468 182.085 15.468C181.217 15.468 180.811 14.81 180.811 14.012C180.811 12.29 182.631 12.43 183.835 12.388V13.676ZM183.891 16H184.759C184.675 15.174 184.675 14.726 184.675 14.222V10.666C184.675 8.86 183.191 8.79 182.477 8.79C181.245 8.79 180.195 9.322 180.125 10.68H181.021C181.021 9.84 181.637 9.462 182.407 9.462C183.527 9.462 183.835 10.092 183.835 11.128V11.716C182.407 11.828 179.915 11.576 179.915 14.054C179.915 15.286 180.601 16.14 181.861 16.14C182.729 16.14 183.415 15.804 183.863 15.132H183.891V16ZM189.972 15.468C189.062 15.468 188.432 15.118 188.432 12.486C188.432 10.834 188.432 9.462 189.944 9.462C191.526 9.462 191.526 11.422 191.526 11.842V13.102C191.526 14.824 190.77 15.468 189.972 15.468ZM191.61 16H192.422C192.38 15.762 192.338 15.3 192.338 14.6V5.892H191.498V9.644L191.47 9.63C191.036 9.084 190.406 8.79 189.762 8.79C187.592 8.79 187.592 11.1 187.592 12.458C187.592 14.11 187.704 16.14 189.748 16.14C190.574 16.14 191.106 15.79 191.54 15.118L191.568 15.104L191.61 16ZM200.766 5.598C200.066 7.628 199.562 9.728 199.562 11.884C199.562 13.928 200.094 15.916 200.71 17.848H201.396C200.822 15.846 200.458 13.76 200.458 11.674C200.458 9.616 200.892 7.586 201.396 5.598H200.766ZM209.148 15.244H205.158C208.42 10.344 209.134 9.546 209.134 8.118C209.134 6.452 207.776 6.088 206.642 6.088C205.508 6.088 204.206 6.676 204.206 8.622H205.046C205.046 7.614 205.578 6.844 206.642 6.844C207.412 6.844 208.238 7.012 208.238 8.314C208.238 9.616 206.348 11.856 204.178 15.216V16H209.148V15.244ZM212.764 9.21C212.764 7.012 213.73 6.844 214.36 6.844C214.99 6.844 215.956 7.012 215.956 9.21V13.032C215.956 15.23 214.99 15.398 214.36 15.398C213.73 15.398 212.764 15.23 212.764 13.032V9.21ZM214.36 6.088C211.868 6.088 211.868 8.23 211.868 10.064V12.178C211.868 14.012 211.868 16.154 214.36 16.154C216.852 16.154 216.852 14.012 216.852 12.178V10.064C216.852 8.23 216.852 6.088 214.36 6.088ZM220.119 8.734C220.735 8.328 221.295 7.866 221.827 7.362V16H222.667V6.242H221.883C221.393 6.844 220.763 7.32 220.119 7.768V8.734ZM229.896 9.756C229.126 9.756 228.734 9.966 228.174 10.484V6.998H231.828V6.242H227.334V11.534H228.146C228.286 10.862 229.042 10.512 229.672 10.512C231.226 10.512 231.324 11.73 231.324 12.948C231.324 14.11 231.17 15.398 229.7 15.398C228.538 15.398 228.104 14.768 228.132 13.662H227.236C227.194 15.37 228.048 16.154 229.714 16.154C231.814 16.154 232.22 14.572 232.22 12.948C232.22 11.772 232.29 9.756 229.896 9.756ZM234.954 5.598C235.458 7.586 235.892 9.616 235.892 11.674C235.892 13.76 235.528 15.846 234.954 17.848H235.64C236.256 15.916 236.788 13.928 236.788 11.884C236.788 9.728 236.284 7.628 235.584 5.598H234.954ZM244.871 8.93H244.031V16H244.871V11.45C244.871 10.26 245.655 9.546 246.845 9.644V8.79C245.991 8.79 245.249 9.21 244.899 9.882H244.871V8.93ZM253.962 12.64C253.962 10.54 253.962 8.79 251.526 8.79C249.944 8.79 249.09 9.728 249.09 11.772V13.508C249.09 15.65 250.308 16.14 251.526 16.14C252.94 16.14 253.864 15.552 253.962 13.844H253.08C253.094 14.796 252.576 15.468 251.526 15.468C250.196 15.468 249.93 14.166 249.93 13.186V12.64H253.962ZM249.93 11.968C249.93 10.4 250.182 9.462 251.526 9.462C252.87 9.462 253.122 10.4 253.122 11.968H249.93ZM257.397 9.602V14.656C257.397 15.524 257.733 16.028 258.867 16.028C259.133 16.028 259.413 16.014 259.665 15.986V15.258C259.483 15.286 259.287 15.3 259.007 15.3C258.335 15.3 258.237 15.076 258.237 14.138V9.602H259.665V8.93H258.237V7.11L257.397 7.474V8.93H256.263V9.602H257.397ZM263.085 8.93H262.245V16H263.085V11.45C263.085 10.26 263.869 9.546 265.059 9.644V8.79C264.205 8.79 263.463 9.21 263.113 9.882H263.085V8.93ZM268.606 16V8.93H267.766V16H268.606ZM268.704 6.956V5.892H267.668V6.956H268.704ZM272.185 8.93H271.275L273.375 16H274.341L276.441 8.93H275.629L273.907 14.936H273.879L272.185 8.93ZM283.52 12.64C283.52 10.54 283.52 8.79 281.084 8.79C279.502 8.79 278.648 9.728 278.648 11.772V13.508C278.648 15.65 279.866 16.14 281.084 16.14C282.498 16.14 283.422 15.552 283.52 13.844H282.638C282.652 14.796 282.134 15.468 281.084 15.468C279.754 15.468 279.488 14.166 279.488 13.186V12.64H283.52ZM279.488 11.968C279.488 10.4 279.74 9.462 281.084 9.462C282.428 9.462 282.68 10.4 282.68 11.968H279.488ZM288.565 15.468C287.655 15.468 287.025 15.118 287.025 12.486C287.025 10.834 287.025 9.462 288.537 9.462C290.119 9.462 290.119 11.422 290.119 11.842V13.102C290.119 14.824 289.363 15.468 288.565 15.468ZM290.203 16H291.015C290.973 15.762 290.931 15.3 290.931 14.6V5.892H290.091V9.644L290.063 9.63C289.629 9.084 288.999 8.79 288.355 8.79C286.185 8.79 286.185 11.1 286.185 12.458C286.185 14.11 286.297 16.14 288.341 16.14C289.167 16.14 289.699 15.79 290.133 15.118L290.161 15.104L290.203 16ZM299.121 16H299.961V9.602H301.389V8.93H299.961V7.726C299.961 7.32 299.961 6.592 300.773 6.592H301.403V5.892C301.193 5.864 301.053 5.836 300.927 5.836C299.219 5.836 299.121 7.068 299.121 7.74V8.93H297.987V9.602H299.121V16ZM304.768 8.93H303.928V16H304.768V11.45C304.768 10.26 305.552 9.546 306.742 9.644V8.79C305.888 8.79 305.146 9.21 304.796 9.882H304.768V8.93ZM311.422 16.14C313.074 16.14 313.858 15.062 313.858 13.228V11.702C313.858 9.868 313.074 8.79 311.422 8.79C309.77 8.79 308.986 9.868 308.986 11.702V13.228C308.986 15.062 309.77 16.14 311.422 16.14ZM311.422 9.462C312.808 9.462 313.018 10.624 313.018 12.458C313.018 14.306 312.808 15.468 311.422 15.468C310.036 15.468 309.826 14.306 309.826 12.458C309.826 10.624 310.036 9.462 311.422 9.462ZM317.615 11.45C317.615 10.526 318.021 9.462 319.085 9.462C319.911 9.462 320.163 10.246 320.177 10.946V16H321.017V11.45C321.017 10.526 321.423 9.462 322.487 9.462C323.313 9.462 323.565 10.246 323.579 10.946V16H324.419V10.736C324.377 9.602 323.761 8.79 322.585 8.79C321.801 8.79 321.199 9.196 320.849 9.896C320.611 9.196 319.967 8.79 319.239 8.79C318.455 8.79 317.895 9.224 317.559 9.798H317.531V8.916H316.775V16H317.615V11.45ZM332.072 16H332.968V11.296H334.676C336.412 11.296 337.07 10.372 337.07 8.342C337.07 6.004 335.684 5.892 334.844 5.892H332.072V16ZM332.968 6.648H334.62C335.432 6.648 336.174 6.788 336.174 8.51C336.174 10.092 335.572 10.54 334.634 10.54H332.968V6.648ZM341.905 16.14C343.557 16.14 344.341 15.062 344.341 13.228V11.702C344.341 9.868 343.557 8.79 341.905 8.79C340.253 8.79 339.469 9.868 339.469 11.702V13.228C339.469 15.062 340.253 16.14 341.905 16.14ZM341.905 9.462C343.291 9.462 343.501 10.624 343.501 12.458C343.501 14.306 343.291 15.468 341.905 15.468C340.519 15.468 340.309 14.306 340.309 12.458C340.309 10.624 340.519 9.462 341.905 9.462ZM348.504 16H349.554L351.038 9.952H351.066L352.62 16H353.67L355.616 8.93H354.776L353.194 15.118H353.166L351.598 8.93H350.562L349.064 15.118H349.036L347.454 8.93H346.558L348.504 16ZM362.7 12.64C362.7 10.54 362.7 8.79 360.264 8.79C358.682 8.79 357.828 9.728 357.828 11.772V13.508C357.828 15.65 359.046 16.14 360.264 16.14C361.678 16.14 362.602 15.552 362.7 13.844H361.818C361.832 14.796 361.314 15.468 360.264 15.468C358.934 15.468 358.668 14.166 358.668 13.186V12.64H362.7ZM358.668 11.968C358.668 10.4 358.92 9.462 360.264 9.462C361.608 9.462 361.86 10.4 361.86 11.968H358.668ZM366.526 8.93H365.686V16H366.526V11.45C366.526 10.26 367.31 9.546 368.5 9.644V8.79C367.646 8.79 366.904 9.21 366.554 9.882H366.526V8.93ZM375.472 16H376.368V11.296H378.076C379.812 11.296 380.47 10.372 380.47 8.342C380.47 6.004 379.084 5.892 378.244 5.892H375.472V16ZM376.368 6.648H378.02C378.832 6.648 379.574 6.788 379.574 8.51C379.574 10.092 378.972 10.54 378.034 10.54H376.368V6.648ZM385.305 16.14C386.957 16.14 387.741 15.062 387.741 13.228V11.702C387.741 9.868 386.957 8.79 385.305 8.79C383.653 8.79 382.869 9.868 382.869 11.702V13.228C382.869 15.062 383.653 16.14 385.305 16.14ZM385.305 9.462C386.691 9.462 386.901 10.624 386.901 12.458C386.901 14.306 386.691 15.468 385.305 15.468C383.919 15.468 383.709 14.306 383.709 12.458C383.709 10.624 383.919 9.462 385.305 9.462ZM395.362 12.64C395.362 10.54 395.362 8.79 392.926 8.79C391.344 8.79 390.49 9.728 390.49 11.772V13.508C390.49 15.65 391.708 16.14 392.926 16.14C394.34 16.14 395.264 15.552 395.362 13.844H394.48C394.494 14.796 393.976 15.468 392.926 15.468C391.596 15.468 391.33 14.166 391.33 13.186V12.64H395.362ZM391.33 11.968C391.33 10.4 391.582 9.462 392.926 9.462C394.27 9.462 394.522 10.4 394.522 11.968H391.33ZM398.797 9.602V14.656C398.797 15.524 399.133 16.028 400.267 16.028C400.533 16.028 400.813 16.014 401.065 15.986V15.258C400.883 15.286 400.687 15.3 400.407 15.3C399.735 15.3 399.637 15.076 399.637 14.138V9.602H401.065V8.93H399.637V7.11L398.797 7.474V8.93H397.663V9.602H398.797ZM404.485 8.93H403.645V16H404.485V11.45C404.485 10.26 405.269 9.546 406.459 9.644V8.79C405.605 8.79 404.863 9.21 404.513 9.882H404.485V8.93ZM409.586 18.674H410.412L413.338 8.93H412.498L410.832 14.726H410.804L409.082 8.93H408.172L410.412 16.014L409.586 18.674ZM415.212 16H416.248V14.936H415.212V16Z" fill="white"/>
</svg>
