<svg width="366" height="248" viewBox="0 0 366 248" fill="none" xmlns="http://www.w3.org/2000/svg">
<path d="M1.98 14.59C1.98 20.728 6.408 22.078 6.642 22.15C6.48 22.078 2.97 20.548 2.97 14.59C2.97 8.632 6.48 7.102 6.642 7.03C6.408 7.102 1.98 8.452 1.98 14.59ZM9.52453 18.19C9.52453 18.694 9.92053 19.09 10.4245 19.09C10.9285 19.09 11.3245 18.694 11.3245 18.19C11.3245 17.686 10.9285 17.29 10.4245 17.29C9.92053 17.29 9.52453 17.686 9.52453 18.19ZM15.2796 18.19C15.2796 18.694 15.6756 19.09 16.1796 19.09C16.6836 19.09 17.0796 18.694 17.0796 18.19C17.0796 17.686 16.6836 17.29 16.1796 17.29C15.6756 17.29 15.2796 17.686 15.2796 18.19ZM21.0347 18.19C21.0347 18.694 21.4307 19.09 21.9347 19.09C22.4387 19.09 22.8347 18.694 22.8347 18.19C22.8347 17.686 22.4387 17.29 21.9347 17.29C21.4307 17.29 21.0347 17.686 21.0347 18.19ZM30.3718 14.59C30.3718 8.452 25.9438 7.102 25.7098 7.03C25.8718 7.102 29.3818 8.632 29.3818 14.59C29.3818 20.548 25.8718 22.078 25.7098 22.15C25.9438 22.078 30.3718 20.728 30.3718 14.59ZM1.89 36.29L5.238 47.27L8.586 37.388L12.042 47.27L15.39 36.29L17.28 35.3H13.122L14.742 36.2L12.132 44.822L8.712 35.03L5.418 44.768L2.808 36.2L4.428 35.3H0L1.89 36.29ZM25.2879 42.14C25.2879 40.16 24.4779 38.63 22.1919 38.63C20.0499 38.63 18.2679 40.322 18.2679 42.95C18.2679 45.38 19.7079 47.27 22.0479 47.27C24.7479 47.27 25.2879 44.66 25.2879 44.66C25.2879 44.66 24.4779 46.46 22.4979 46.46C20.6979 46.46 19.1679 45.344 19.1679 42.662C19.1679 42.482 19.1679 42.32 19.1859 42.14H25.2879ZM22.1559 39.062C23.4159 39.062 24.2979 39.89 24.2979 40.79C24.2979 41.51 23.6679 41.6 22.7679 41.6H19.2759C19.6719 39.872 21.0219 39.062 22.1559 39.062ZM37.4108 42.662C36.1868 43.094 35.0888 43.94 35.0888 45.2C35.0888 46.478 35.8988 47.27 37.1408 47.27C37.8608 47.27 38.4728 46.91 38.8868 46.64L40.2188 45.758C40.2188 46.712 40.2188 47.27 40.8488 47.27C41.4788 47.27 42.7388 45.74 42.7388 45.74L41.1188 46.37V41.24C41.1188 39.71 40.4708 38.63 38.5088 38.63C37.4288 38.63 35.3948 39.62 35.3948 40.736C35.3948 41.258 35.7008 41.492 36.0428 41.492C36.3848 41.492 36.6908 41.294 36.6908 40.736C36.6908 40.484 36.6548 40.304 36.6548 40.16C36.6548 39.71 37.2308 39.17 38.3288 39.17C39.3188 39.17 40.2188 39.638 40.2188 41.24V41.69L37.4108 42.662ZM39.1028 45.92C38.5808 46.262 38.1308 46.604 37.4288 46.604C36.5288 46.604 36.0428 45.884 36.0428 45.11C36.0428 44.12 36.4928 43.508 38.0588 42.95L40.2188 42.194V45.182L39.1028 45.92ZM46.6038 35.3V46.19L45.1638 47H48.9438L47.5038 46.19V34.13L45.1638 34.85L46.6038 35.3ZM53.2554 35.3V46.19L51.8154 47H55.5954L54.1554 46.19V34.13L51.8154 34.85L53.2554 35.3ZM67.2827 34.13L64.9427 34.85L66.3827 35.3V46.19L64.9427 47H68.7227L67.2827 46.19V34.13ZM71.7467 47H73.4927L72.2147 46.19L68.3987 42.446L71.2967 39.71L73.3127 38.9H69.5327L70.6127 39.62L67.3727 42.698L71.7467 47ZM77.6243 39.8V46.19L76.1843 47H79.9643L78.5243 46.19V40.844C79.0643 40.178 80.1443 39.314 81.2243 39.314C82.3943 39.314 82.9343 40.16 82.9343 41.6V46.19L81.4943 47H85.2743L83.8343 46.19V41.33C83.8343 39.35 82.8443 38.63 81.5843 38.63C80.3243 38.63 79.1543 39.62 78.5243 40.304V38.63L76.1843 39.35L77.6243 39.8ZM91.5687 39.116C93.0627 39.116 94.6827 40.43 94.6827 43.418C94.6827 45.542 93.4047 46.784 92.0727 46.784C90.5967 46.784 88.9587 45.47 88.9587 42.482C88.9587 40.322 90.2547 39.116 91.5687 39.116ZM87.9687 42.95C87.9687 45.38 89.3187 47.27 91.8207 47.27C94.1427 47.27 95.6727 45.38 95.6727 42.95C95.6727 40.52 94.3227 38.63 91.8207 38.63C89.4987 38.63 87.9687 40.52 87.9687 42.95ZM111.244 38.9H107.662L109.102 39.62L107.32 45.074L104.89 38.63L102.406 45.11L100.642 39.62L102.082 38.9H98.1035L99.7235 39.71L102.154 47.27L104.692 40.664L107.194 47.27L109.624 39.71L111.244 38.9ZM120.158 39.35L122.498 38.63V46.19L123.938 47H120.158L121.598 46.19V39.8L120.158 39.35ZM120.968 35.93C120.968 36.434 121.364 36.83 121.868 36.83C122.372 36.83 122.768 36.434 122.768 35.93C122.768 35.426 122.372 35.03 121.868 35.03C121.364 35.03 120.968 35.426 120.968 35.93ZM126.555 39.44H128.265V45.38C128.265 46.73 128.805 47.27 129.705 47.27C130.695 47.27 131.199 46.064 131.235 45.938C131.217 45.974 130.785 46.64 130.065 46.64C129.435 46.64 129.165 46.1 129.165 45.38V39.44H131.235V38.9H129.165V37.01L126.555 39.44ZM140.956 39.35L143.296 38.63V46.19L144.736 47H140.956L142.396 46.19V39.8L140.956 39.35ZM141.766 35.93C141.766 36.434 142.162 36.83 142.666 36.83C143.17 36.83 143.566 36.434 143.566 35.93C143.566 35.426 143.17 35.03 142.666 35.03C142.162 35.03 141.766 35.426 141.766 35.93ZM153.383 38.63L152.663 39.35C152.663 39.35 152.033 38.63 150.773 38.63C149.333 38.63 148.163 39.476 148.163 40.79C148.163 43.508 153.023 42.752 153.023 45.074C153.023 46.28 151.943 46.73 151.133 46.73C150.593 46.73 149.603 46.568 149.027 45.38L148.253 43.76V47.27L148.883 46.208C148.901 46.262 149.459 47.27 151.133 47.27C152.573 47.27 153.833 46.406 153.833 44.786C153.833 41.816 148.883 42.5 148.883 40.52C148.883 39.8 149.585 39.17 150.773 39.17C152.033 39.17 152.573 39.98 152.573 39.98L153.383 41.438V38.63ZM163.275 39.44H164.985V45.38C164.985 46.73 165.525 47.27 166.425 47.27C167.415 47.27 167.919 46.064 167.955 45.938C167.937 45.974 167.505 46.64 166.785 46.64C166.155 46.64 165.885 46.1 165.885 45.38V39.44H167.955V38.9H165.885V37.01L163.275 39.44ZM172.551 35.3V46.19L171.111 47H174.891L173.451 46.19V40.844C173.991 40.178 175.071 39.314 176.151 39.314C177.321 39.314 177.861 40.16 177.861 41.6V46.19L176.421 47H180.201L178.761 46.19V41.33C178.761 39.35 177.771 38.63 176.511 38.63C175.251 38.63 174.081 39.62 173.451 40.304V34.13L171.111 34.85L172.551 35.3ZM189.918 42.14C189.918 40.16 189.108 38.63 186.822 38.63C184.68 38.63 182.898 40.322 182.898 42.95C182.898 45.38 184.338 47.27 186.678 47.27C189.378 47.27 189.918 44.66 189.918 44.66C189.918 44.66 189.108 46.46 187.128 46.46C185.328 46.46 183.798 45.344 183.798 42.662C183.798 42.482 183.798 42.32 183.816 42.14H189.918ZM186.786 39.062C188.046 39.062 188.928 39.89 188.928 40.79C188.928 41.51 188.298 41.6 187.398 41.6H183.906C184.302 39.872 185.652 39.062 186.786 39.062ZM194.593 39.8V46.19L193.153 47H196.933L195.493 46.19V41.06C196.303 40.16 196.987 39.602 197.347 39.602C197.941 39.602 197.851 40.16 198.481 40.16C198.913 40.16 199.183 39.854 199.183 39.476C199.183 38.936 198.823 38.63 198.193 38.63C197.689 38.63 197.257 38.828 196.699 39.368L195.493 40.52V38.63L193.153 39.35L194.593 39.8ZM209.268 42.14C209.268 40.16 208.458 38.63 206.172 38.63C204.03 38.63 202.248 40.322 202.248 42.95C202.248 45.38 203.688 47.27 206.028 47.27C208.728 47.27 209.268 44.66 209.268 44.66C209.268 44.66 208.458 46.46 206.478 46.46C204.678 46.46 203.148 45.344 203.148 42.662C203.148 42.482 203.148 42.32 203.166 42.14H209.268ZM206.136 39.062C207.396 39.062 208.278 39.89 208.278 40.79C208.278 41.51 207.648 41.6 206.748 41.6H203.256C203.652 39.872 205.002 39.062 206.136 39.062ZM212.953 46.19C212.953 46.694 213.349 47.09 213.853 47.09C214.357 47.09 214.753 46.694 214.753 46.19C214.753 45.686 214.357 45.29 213.853 45.29C213.349 45.29 212.953 45.686 212.953 46.19ZM1.89 64.29L5.238 75.27L8.586 65.388L12.042 75.27L15.39 64.29L17.28 63.3H13.122L14.742 64.2L12.132 72.822L8.712 63.03L5.418 72.768L2.808 64.2L4.428 63.3H0L1.89 64.29ZM25.2879 70.14C25.2879 68.16 24.4779 66.63 22.1919 66.63C20.0499 66.63 18.2679 68.322 18.2679 70.95C18.2679 73.38 19.7079 75.27 22.0479 75.27C24.7479 75.27 25.2879 72.66 25.2879 72.66C25.2879 72.66 24.4779 74.46 22.4979 74.46C20.6979 74.46 19.1679 73.344 19.1679 70.662C19.1679 70.482 19.1679 70.32 19.1859 70.14H25.2879ZM22.1559 67.062C23.4159 67.062 24.2979 67.89 24.2979 68.79C24.2979 69.51 23.6679 69.6 22.7679 69.6H19.2759C19.6719 67.872 21.0219 67.062 22.1559 67.062ZM37.4108 70.662C36.1868 71.094 35.0888 71.94 35.0888 73.2C35.0888 74.478 35.8988 75.27 37.1408 75.27C37.8608 75.27 38.4728 74.91 38.8868 74.64L40.2188 73.758C40.2188 74.712 40.2188 75.27 40.8488 75.27C41.4788 75.27 42.7388 73.74 42.7388 73.74L41.1188 74.37V69.24C41.1188 67.71 40.4708 66.63 38.5088 66.63C37.4288 66.63 35.3948 67.62 35.3948 68.736C35.3948 69.258 35.7008 69.492 36.0428 69.492C36.3848 69.492 36.6908 69.294 36.6908 68.736C36.6908 68.484 36.6548 68.304 36.6548 68.16C36.6548 67.71 37.2308 67.17 38.3288 67.17C39.3188 67.17 40.2188 67.638 40.2188 69.24V69.69L37.4108 70.662ZM39.1028 73.92C38.5808 74.262 38.1308 74.604 37.4288 74.604C36.5288 74.604 36.0428 73.884 36.0428 73.11C36.0428 72.12 36.4928 71.508 38.0588 70.95L40.2188 70.194V73.182L39.1028 73.92ZM46.6938 67.8V74.19L45.2538 75H49.0338L47.5938 74.19V69.06C48.4038 68.16 49.0878 67.602 49.4478 67.602C50.0418 67.602 49.9518 68.16 50.5818 68.16C51.0138 68.16 51.2838 67.854 51.2838 67.476C51.2838 66.936 50.9238 66.63 50.2938 66.63C49.7898 66.63 49.3578 66.828 48.7998 67.368L47.5938 68.52V66.63L45.2538 67.35L46.6938 67.8ZM61.3688 70.14C61.3688 68.16 60.5588 66.63 58.2728 66.63C56.1308 66.63 54.3488 68.322 54.3488 70.95C54.3488 73.38 55.7888 75.27 58.1288 75.27C60.8288 75.27 61.3688 72.66 61.3688 72.66C61.3688 72.66 60.5588 74.46 58.5788 74.46C56.7788 74.46 55.2488 73.344 55.2488 70.662C55.2488 70.482 55.2488 70.32 55.2668 70.14H61.3688ZM58.2368 67.062C59.4968 67.062 60.3788 67.89 60.3788 68.79C60.3788 69.51 59.7488 69.6 58.8488 69.6H55.3568C55.7528 67.872 57.1028 67.062 58.2368 67.062ZM70.7196 67.44H72.4296V73.38C72.4296 74.73 72.9696 75.27 73.8696 75.27C74.8596 75.27 75.3636 74.064 75.3996 73.938C75.3816 73.974 74.9496 74.64 74.2296 74.64C73.5996 74.64 73.3296 74.1 73.3296 73.38V67.44H75.3996V66.9H73.3296V65.01L70.7196 67.44ZM79.9952 63.3V74.19L78.5552 75H82.3352L80.8952 74.19V68.844C81.4352 68.178 82.5152 67.314 83.5952 67.314C84.7652 67.314 85.3052 68.16 85.3052 69.6V74.19L83.8652 75H87.6452L86.2052 74.19V69.33C86.2052 67.35 85.2152 66.63 83.9552 66.63C82.6952 66.63 81.5252 67.62 80.8952 68.304V62.13L78.5552 62.85L79.9952 63.3ZM90.3417 67.35L92.6817 66.63V74.19L94.1217 75H90.3417L91.7817 74.19V67.8L90.3417 67.35ZM91.1517 63.93C91.1517 64.434 91.5477 64.83 92.0517 64.83C92.5557 64.83 92.9517 64.434 92.9517 63.93C92.9517 63.426 92.5557 63.03 92.0517 63.03C91.5477 63.03 91.1517 63.426 91.1517 63.93ZM98.5388 67.8V74.19L97.0988 75H100.879L99.4388 74.19V68.844C99.9788 68.178 101.059 67.314 102.139 67.314C103.309 67.314 103.849 68.16 103.849 69.6V74.19L102.409 75H106.189L104.749 74.19V69.33C104.749 67.35 103.759 66.63 102.499 66.63C101.239 66.63 100.069 67.62 99.4388 68.304V66.63L97.0988 67.35L98.5388 67.8ZM111.133 62.13L108.793 62.85L110.233 63.3V74.19L108.793 75H112.573L111.133 74.19V62.13ZM115.597 75H117.343L116.065 74.19L112.249 70.446L115.147 67.71L117.163 66.9H113.383L114.463 67.62L111.223 70.698L115.597 75ZM120.035 67.35L122.375 66.63V74.19L123.815 75H120.035L121.475 74.19V67.8L120.035 67.35ZM120.845 63.93C120.845 64.434 121.241 64.83 121.745 64.83C122.249 64.83 122.645 64.434 122.645 63.93C122.645 63.426 122.249 63.03 121.745 63.03C121.241 63.03 120.845 63.426 120.845 63.93ZM128.232 67.8V74.19L126.792 75H130.572L129.132 74.19V68.844C129.672 68.178 130.752 67.314 131.832 67.314C133.002 67.314 133.542 68.16 133.542 69.6V74.19L132.102 75H135.882L134.442 74.19V69.33C134.442 67.35 133.452 66.63 132.192 66.63C130.932 66.63 129.762 67.62 129.132 68.304V66.63L126.792 67.35L128.232 67.8ZM139.116 69.51C139.116 70.698 139.746 71.724 140.88 72.156C140.106 72.3 139.206 72.696 139.206 73.74C139.206 74.352 139.674 74.82 140.16 74.964C139.548 75.072 138.396 75.36 138.396 76.62C138.396 77.7 139.386 79.05 142.176 79.05C145.056 79.05 146.586 77.25 146.586 75.9C146.586 74.55 145.686 74.1 144.786 74.1H140.736C140.466 74.1 140.016 74.01 140.016 73.47C140.016 72.534 141.528 72.39 142.176 72.39C144.066 72.39 145.236 71.094 145.236 69.51C145.236 68.178 144.426 67.44 144.426 67.44C144.426 67.44 145.056 67.62 145.506 67.62C146.226 67.62 146.496 67.206 146.496 66.72C146.496 66.36 146.244 66 145.74 66C145.308 66 145.056 66.324 145.056 66.702C145.056 66.936 145.236 67.17 144.786 67.17C144.066 67.17 143.436 66.63 142.176 66.63C140.286 66.63 139.116 67.926 139.116 69.51ZM144.786 75C145.416 75 145.956 75.27 145.956 75.99C145.956 76.8 144.966 78.24 142.356 78.24C140.106 78.24 139.296 77.25 139.296 76.35C139.296 75.108 141.042 75.018 141.078 75H144.786ZM140.106 69.51C140.106 67.98 141.042 67.08 142.176 67.08C143.31 67.08 144.246 67.98 144.246 69.51C144.246 71.04 143.31 71.94 142.176 71.94C141.042 71.94 140.106 71.04 140.106 69.51ZM158.44 70.662C157.216 71.094 156.118 71.94 156.118 73.2C156.118 74.478 156.928 75.27 158.17 75.27C158.89 75.27 159.502 74.91 159.916 74.64L161.248 73.758C161.248 74.712 161.248 75.27 161.878 75.27C162.508 75.27 163.768 73.74 163.768 73.74L162.148 74.37V69.24C162.148 67.71 161.5 66.63 159.538 66.63C158.458 66.63 156.424 67.62 156.424 68.736C156.424 69.258 156.73 69.492 157.072 69.492C157.414 69.492 157.72 69.294 157.72 68.736C157.72 68.484 157.684 68.304 157.684 68.16C157.684 67.71 158.26 67.17 159.358 67.17C160.348 67.17 161.248 67.638 161.248 69.24V69.69L158.44 70.662ZM160.132 73.92C159.61 74.262 159.16 74.604 158.458 74.604C157.558 74.604 157.072 73.884 157.072 73.11C157.072 72.12 157.522 71.508 159.088 70.95L161.248 70.194V73.182L160.132 73.92ZM166.913 75.27L167.633 73.65C167.633 73.65 168.353 75.27 170.333 75.27C171.953 75.27 173.843 74.01 173.843 70.95C173.843 67.62 172.133 66.63 170.513 66.63C168.623 66.63 167.813 68.34 167.813 68.34V62.13L165.473 62.85L166.913 63.3V75.27ZM167.813 69.24C167.813 69.24 168.443 67.17 170.243 67.17C171.611 67.17 172.853 68.25 172.853 70.95C172.853 73.47 171.611 74.73 170.243 74.73C168.713 74.73 167.813 73.56 167.813 72.21V69.24ZM180.595 67.116C182.089 67.116 183.709 68.43 183.709 71.418C183.709 73.542 182.431 74.784 181.099 74.784C179.623 74.784 177.985 73.47 177.985 70.482C177.985 68.322 179.281 67.116 180.595 67.116ZM176.995 70.95C176.995 73.38 178.345 75.27 180.847 75.27C183.169 75.27 184.699 73.38 184.699 70.95C184.699 68.52 183.349 66.63 180.847 66.63C178.525 66.63 176.995 68.52 176.995 70.95ZM194.06 67.8V73.056C193.52 73.722 192.44 74.586 191.36 74.586C190.19 74.586 189.65 73.74 189.65 72.3V66.63L187.31 67.35L188.75 67.8V72.57C188.75 74.55 189.74 75.27 191 75.27C192.26 75.27 193.43 74.28 194.06 73.596V75.27L196.4 74.55L194.96 74.1V66.63L192.62 67.35L194.06 67.8ZM198.833 67.44H200.543V73.38C200.543 74.73 201.083 75.27 201.983 75.27C202.973 75.27 203.477 74.064 203.513 73.938C203.495 73.974 203.062 74.64 202.343 74.64C201.713 74.64 201.443 74.1 201.443 73.38V67.44H203.513V66.9H201.443V65.01L198.833 67.44ZM212.874 67.44H214.584V73.38C214.584 74.73 215.124 75.27 216.024 75.27C217.014 75.27 217.518 74.064 217.554 73.938C217.536 73.974 217.104 74.64 216.384 74.64C215.754 74.64 215.484 74.1 215.484 73.38V67.44H217.554V66.9H215.484V65.01L212.874 67.44ZM222.15 63.3V74.19L220.71 75H224.49L223.05 74.19V68.844C223.59 68.178 224.67 67.314 225.75 67.314C226.92 67.314 227.46 68.16 227.46 69.6V74.19L226.02 75H229.8L228.36 74.19V69.33C228.36 67.35 227.37 66.63 226.11 66.63C224.85 66.63 223.68 67.62 223.05 68.304V62.13L220.71 62.85L222.15 63.3ZM239.516 70.14C239.516 68.16 238.706 66.63 236.42 66.63C234.278 66.63 232.496 68.322 232.496 70.95C232.496 73.38 233.936 75.27 236.276 75.27C238.976 75.27 239.516 72.66 239.516 72.66C239.516 72.66 238.706 74.46 236.726 74.46C234.926 74.46 233.396 73.344 233.396 70.662C233.396 70.482 233.396 70.32 233.414 70.14H239.516ZM236.384 67.062C237.644 67.062 238.526 67.89 238.526 68.79C238.526 69.51 237.896 69.6 236.996 69.6H233.504C233.9 67.872 235.25 67.062 236.384 67.062ZM251.927 64.29L252.557 63.93H257.237L258.497 66.54V63.3H249.227L251.027 64.29V74.01L249.227 75H258.767V71.76L257.507 74.37H252.557L251.927 74.01V69.24H254.897L255.977 70.95V66.9L254.897 68.61H251.927V64.29ZM263.803 63.3V74.19L262.363 75H266.143L264.703 74.19V62.13L262.363 62.85L263.803 63.3ZM276.124 70.14C276.124 68.16 275.314 66.63 273.028 66.63C270.886 66.63 269.104 68.322 269.104 70.95C269.104 73.38 270.544 75.27 272.884 75.27C275.584 75.27 276.124 72.66 276.124 72.66C276.124 72.66 275.314 74.46 273.334 74.46C271.534 74.46 270.004 73.344 270.004 70.662C270.004 70.482 270.004 70.32 270.022 70.14H276.124ZM272.992 67.062C274.252 67.062 275.134 67.89 275.134 68.79C275.134 69.51 274.504 69.6 273.604 69.6H270.112C270.508 67.872 271.858 67.062 272.992 67.062ZM280.529 77.97L279.089 78.78H282.869L281.429 77.97V73.848C281.483 73.974 282.149 75.27 283.949 75.27C285.569 75.27 287.459 74.01 287.459 70.95C287.459 67.62 285.749 66.63 284.129 66.63C282.239 66.63 281.429 68.34 281.429 68.34V66.63L279.089 67.35L280.529 67.8V77.97ZM281.429 69.24C281.429 69.24 282.059 67.17 283.859 67.17C285.227 67.17 286.469 68.25 286.469 70.95C286.469 73.47 285.227 74.73 283.859 74.73C282.329 74.73 281.429 73.56 281.429 72.21V69.24ZM291.966 63.3V74.19L290.526 75H294.306L292.866 74.19V68.844C293.406 68.178 294.486 67.314 295.566 67.314C296.736 67.314 297.276 68.16 297.276 69.6V74.19L295.836 75H299.616L298.176 74.19V69.33C298.176 67.35 297.186 66.63 295.926 66.63C294.666 66.63 293.496 67.62 292.866 68.304V62.13L290.526 62.85L291.966 63.3ZM304.725 70.662C303.501 71.094 302.403 71.94 302.403 73.2C302.403 74.478 303.213 75.27 304.455 75.27C305.175 75.27 305.787 74.91 306.201 74.64L307.533 73.758C307.533 74.712 307.533 75.27 308.163 75.27C308.793 75.27 310.053 73.74 310.053 73.74L308.433 74.37V69.24C308.433 67.71 307.785 66.63 305.823 66.63C304.743 66.63 302.709 67.62 302.709 68.736C302.709 69.258 303.015 69.492 303.357 69.492C303.699 69.492 304.005 69.294 304.005 68.736C304.005 68.484 303.969 68.304 303.969 68.16C303.969 67.71 304.545 67.17 305.643 67.17C306.633 67.17 307.533 67.638 307.533 69.24V69.69L304.725 70.662ZM306.417 73.92C305.895 74.262 305.445 74.604 304.743 74.604C303.843 74.604 303.357 73.884 303.357 73.11C303.357 72.12 303.807 71.508 305.373 70.95L307.533 70.194V73.182L306.417 73.92ZM314.008 67.8V74.19L312.568 75H316.348L314.908 74.19V68.844C315.448 68.178 316.528 67.314 317.608 67.314C318.778 67.314 319.318 68.16 319.318 69.6V74.19L317.878 75H321.658L320.218 74.19V69.33C320.218 67.35 319.228 66.63 317.968 66.63C316.708 66.63 315.538 67.62 314.908 68.304V66.63L312.568 67.35L314.008 67.8ZM323.992 67.44H325.702V73.38C325.702 74.73 326.242 75.27 327.142 75.27C328.132 75.27 328.636 74.064 328.672 73.938C328.654 73.974 328.222 74.64 327.502 74.64C326.872 74.64 326.602 74.1 326.602 73.38V67.44H328.672V66.9H326.602V65.01L323.992 67.44ZM340.806 70.662C339.582 71.094 338.484 71.94 338.484 73.2C338.484 74.478 339.294 75.27 340.536 75.27C341.256 75.27 341.868 74.91 342.282 74.64L343.614 73.758C343.614 74.712 343.614 75.27 344.244 75.27C344.874 75.27 346.134 73.74 346.134 73.74L344.514 74.37V69.24C344.514 67.71 343.866 66.63 341.904 66.63C340.824 66.63 338.79 67.62 338.79 68.736C338.79 69.258 339.096 69.492 339.438 69.492C339.78 69.492 340.086 69.294 340.086 68.736C340.086 68.484 340.05 68.304 340.05 68.16C340.05 67.71 340.626 67.17 341.724 67.17C342.714 67.17 343.614 67.638 343.614 69.24V69.69L340.806 70.662ZM342.498 73.92C341.976 74.262 341.526 74.604 340.824 74.604C339.924 74.604 339.438 73.884 339.438 73.11C339.438 72.12 339.888 71.508 341.454 70.95L343.614 70.194V73.182L342.498 73.92ZM354.319 66.63L353.599 67.35C353.599 67.35 352.969 66.63 351.709 66.63C350.269 66.63 349.099 67.476 349.099 68.79C349.099 71.508 353.959 70.752 353.959 73.074C353.959 74.28 352.879 74.73 352.069 74.73C351.529 74.73 350.539 74.568 349.963 73.38L349.189 71.76V75.27L349.819 74.208C349.837 74.262 350.395 75.27 352.069 75.27C353.509 75.27 354.769 74.406 354.769 72.786C354.769 69.816 349.819 70.5 349.819 68.52C349.819 67.8 350.521 67.17 351.709 67.17C352.969 67.17 353.509 67.98 353.509 67.98L354.319 69.438V66.63ZM13.14 94.9H9.558L10.998 95.62L9.216 101.074L6.786 94.63L4.302 101.11L2.538 95.62L3.978 94.9H0L1.62 95.71L4.05 103.27L6.588 96.664L9.09 103.27L11.52 95.71L13.14 94.9ZM22.2469 98.14C22.2469 96.16 21.4369 94.63 19.1509 94.63C17.0089 94.63 15.2269 96.322 15.2269 98.95C15.2269 101.38 16.6669 103.27 19.0069 103.27C21.7069 103.27 22.2469 100.66 22.2469 100.66C22.2469 100.66 21.4369 102.46 19.4569 102.46C17.6569 102.46 16.1269 101.344 16.1269 98.662C16.1269 98.482 16.1269 98.32 16.1449 98.14H22.2469ZM19.1149 95.062C20.3749 95.062 21.2569 95.89 21.2569 96.79C21.2569 97.51 20.6269 97.6 19.7269 97.6H16.2349C16.6309 95.872 17.9809 95.062 19.1149 95.062ZM31.5977 95.44H33.3077V101.38C33.3077 102.73 33.8477 103.27 34.7477 103.27C35.7377 103.27 36.2417 102.064 36.2777 101.938C36.2597 101.974 35.8277 102.64 35.1077 102.64C34.4777 102.64 34.2077 102.1 34.2077 101.38V95.44H36.2777V94.9H34.2077V93.01L31.5977 95.44ZM41.9354 98.662C40.7114 99.094 39.6134 99.94 39.6134 101.2C39.6134 102.478 40.4234 103.27 41.6654 103.27C42.3854 103.27 42.9974 102.91 43.4114 102.64L44.7434 101.758C44.7434 102.712 44.7434 103.27 45.3734 103.27C46.0034 103.27 47.2634 101.74 47.2634 101.74L45.6434 102.37V97.24C45.6434 95.71 44.9954 94.63 43.0334 94.63C41.9534 94.63 39.9194 95.62 39.9194 96.736C39.9194 97.258 40.2254 97.492 40.5674 97.492C40.9094 97.492 41.2154 97.294 41.2154 96.736C41.2154 96.484 41.1794 96.304 41.1794 96.16C41.1794 95.71 41.7554 95.17 42.8534 95.17C43.8434 95.17 44.7434 95.638 44.7434 97.24V97.69L41.9354 98.662ZM43.6274 101.92C43.1054 102.262 42.6554 102.604 41.9534 102.604C41.0534 102.604 40.5674 101.884 40.5674 101.11C40.5674 100.12 41.0174 99.508 42.5834 98.95L44.7434 98.194V101.182L43.6274 101.92ZM51.1284 91.3V102.19L49.6884 103H53.4684L52.0284 102.19V90.13L49.6884 90.85L51.1284 91.3ZM58.68 90.13L56.34 90.85L57.78 91.3V102.19L56.34 103H60.12L58.68 102.19V90.13ZM63.144 103H64.89L63.612 102.19L59.796 98.446L62.694 95.71L64.71 94.9H60.93L62.01 95.62L58.77 98.698L63.144 103ZM73.6973 95.44H75.4073V101.38C75.4073 102.73 75.9473 103.27 76.8473 103.27C77.8373 103.27 78.3413 102.064 78.3773 101.938C78.3593 101.974 77.9273 102.64 77.2073 102.64C76.5773 102.64 76.3073 102.1 76.3073 101.38V95.44H78.3773V94.9H76.3073V93.01L73.6973 95.44ZM85.223 95.116C86.717 95.116 88.337 96.43 88.337 99.418C88.337 101.542 87.059 102.784 85.727 102.784C84.251 102.784 82.613 101.47 82.613 98.482C82.613 96.322 83.909 95.116 85.223 95.116ZM81.623 98.95C81.623 101.38 82.973 103.27 85.475 103.27C87.797 103.27 89.327 101.38 89.327 98.95C89.327 96.52 87.977 94.63 85.475 94.63C83.153 94.63 81.623 96.52 81.623 98.95ZM92.9278 97.51C92.9278 98.698 93.5578 99.724 94.6918 100.156C93.9178 100.3 93.0178 100.696 93.0178 101.74C93.0178 102.352 93.4858 102.82 93.9718 102.964C93.3598 103.072 92.2078 103.36 92.2078 104.62C92.2078 105.7 93.1978 107.05 95.9878 107.05C98.8678 107.05 100.398 105.25 100.398 103.9C100.398 102.55 99.4978 102.1 98.5978 102.1H94.5478C94.2778 102.1 93.8278 102.01 93.8278 101.47C93.8278 100.534 95.3398 100.39 95.9878 100.39C97.8778 100.39 99.0478 99.094 99.0478 97.51C99.0478 96.178 98.2378 95.44 98.2378 95.44C98.2378 95.44 98.8678 95.62 99.3178 95.62C100.038 95.62 100.308 95.206 100.308 94.72C100.308 94.36 100.056 94 99.5518 94C99.1198 94 98.8678 94.324 98.8678 94.702C98.8678 94.936 99.0478 95.17 98.5978 95.17C97.8778 95.17 97.2478 94.63 95.9878 94.63C94.0978 94.63 92.9278 95.926 92.9278 97.51ZM98.5978 103C99.2278 103 99.7678 103.27 99.7678 103.99C99.7678 104.8 98.7778 106.24 96.1678 106.24C93.9178 106.24 93.1078 105.25 93.1078 104.35C93.1078 103.108 94.8538 103.018 94.8898 103H98.5978ZM93.9178 97.51C93.9178 95.98 94.8538 95.08 95.9878 95.08C97.1218 95.08 98.0578 95.98 98.0578 97.51C98.0578 99.04 97.1218 99.94 95.9878 99.94C94.8538 99.94 93.9178 99.04 93.9178 97.51ZM110.384 98.14C110.384 96.16 109.574 94.63 107.288 94.63C105.146 94.63 103.364 96.322 103.364 98.95C103.364 101.38 104.804 103.27 107.144 103.27C109.844 103.27 110.384 100.66 110.384 100.66C110.384 100.66 109.574 102.46 107.594 102.46C105.794 102.46 104.264 101.344 104.264 98.662C104.264 98.482 104.264 98.32 104.282 98.14H110.384ZM107.252 95.062C108.512 95.062 109.394 95.89 109.394 96.79C109.394 97.51 108.764 97.6 107.864 97.6H104.372C104.768 95.872 106.118 95.062 107.252 95.062ZM113.259 95.44H114.969V101.38C114.969 102.73 115.509 103.27 116.409 103.27C117.399 103.27 117.903 102.064 117.939 101.938C117.921 101.974 117.489 102.64 116.769 102.64C116.139 102.64 115.869 102.1 115.869 101.38V95.44H117.939V94.9H115.869V93.01L113.259 95.44ZM122.534 91.3V102.19L121.094 103H124.874L123.434 102.19V96.844C123.974 96.178 125.054 95.314 126.134 95.314C127.304 95.314 127.844 96.16 127.844 97.6V102.19L126.404 103H130.184L128.744 102.19V97.33C128.744 95.35 127.754 94.63 126.494 94.63C125.234 94.63 124.064 95.62 123.434 96.304V90.13L121.094 90.85L122.534 91.3ZM139.901 98.14C139.901 96.16 139.091 94.63 136.805 94.63C134.663 94.63 132.881 96.322 132.881 98.95C132.881 101.38 134.321 103.27 136.661 103.27C139.361 103.27 139.901 100.66 139.901 100.66C139.901 100.66 139.091 102.46 137.111 102.46C135.311 102.46 133.781 101.344 133.781 98.662C133.781 98.482 133.781 98.32 133.799 98.14H139.901ZM136.769 95.062C138.029 95.062 138.911 95.89 138.911 96.79C138.911 97.51 138.281 97.6 137.381 97.6H133.889C134.285 95.872 135.635 95.062 136.769 95.062ZM144.576 95.8V102.19L143.136 103H146.916L145.476 102.19V97.06C146.286 96.16 146.97 95.602 147.33 95.602C147.924 95.602 147.834 96.16 148.464 96.16C148.896 96.16 149.166 95.854 149.166 95.476C149.166 94.936 148.806 94.63 148.176 94.63C147.672 94.63 147.24 94.828 146.682 95.368L145.476 96.52V94.63L143.136 95.35L144.576 95.8ZM151.064 102.19C151.064 102.694 151.46 103.09 151.964 103.09C152.468 103.09 152.864 102.694 152.864 102.19C152.864 101.686 152.468 101.29 151.964 101.29C151.46 101.29 151.064 101.686 151.064 102.19ZM3.33 120.29L5.13 119.3H0.63L2.43 120.29V130.01L0.63 131H5.13L3.33 130.01V120.29ZM7.83563 123.44H9.54563V129.38C9.54563 130.73 10.0856 131.27 10.9856 131.27C11.9756 131.27 12.4796 130.064 12.5156 129.938C12.4976 129.974 12.0656 130.64 11.3456 130.64C10.7156 130.64 10.4456 130.1 10.4456 129.38V123.44H12.5156V122.9H10.4456V121.01L7.83563 123.44ZM22.237 123.35L24.577 122.63V130.19L26.017 131H22.237L23.677 130.19V123.8L22.237 123.35ZM23.047 119.93C23.047 120.434 23.443 120.83 23.947 120.83C24.451 120.83 24.847 120.434 24.847 119.93C24.847 119.426 24.451 119.03 23.947 119.03C23.443 119.03 23.047 119.426 23.047 119.93ZM34.6641 122.63L33.9441 123.35C33.9441 123.35 33.3141 122.63 32.0541 122.63C30.6141 122.63 29.4441 123.476 29.4441 124.79C29.4441 127.508 34.3041 126.752 34.3041 129.074C34.3041 130.28 33.2241 130.73 32.4141 130.73C31.8741 130.73 30.8841 130.568 30.3081 129.38L29.5341 127.76V131.27L30.1641 130.208C30.1821 130.262 30.7401 131.27 32.4141 131.27C33.8541 131.27 35.1141 130.406 35.1141 128.786C35.1141 125.816 30.1641 126.5 30.1641 124.52C30.1641 123.8 30.8661 123.17 32.0541 123.17C33.3141 123.17 33.8541 123.98 33.8541 123.98L34.6641 125.438V122.63ZM48.8043 123.062C50.3343 123.062 50.4963 123.98 50.4963 124.16C50.4963 124.448 50.3343 124.502 50.3343 124.898C50.3343 125.294 50.5863 125.564 51.0183 125.564C51.4683 125.564 51.7023 125.204 51.7023 124.736C51.7023 123.746 50.6403 122.63 48.8403 122.63C46.6983 122.63 44.9163 124.34 44.9163 126.95C44.9163 129.38 46.3563 131.27 48.6963 131.27C51.3963 131.27 51.9363 128.66 51.9363 128.66C51.9363 128.66 51.1263 130.46 49.1463 130.46C47.3463 130.46 45.8163 129.344 45.8163 126.662C45.8163 124.196 47.5443 123.062 48.8043 123.062ZM58.5956 123.116C60.0896 123.116 61.7096 124.43 61.7096 127.418C61.7096 129.542 60.4316 130.784 59.0996 130.784C57.6236 130.784 55.9856 129.47 55.9856 126.482C55.9856 124.322 57.2816 123.116 58.5956 123.116ZM54.9956 126.95C54.9956 129.38 56.3456 131.27 58.8476 131.27C61.1696 131.27 62.6996 129.38 62.6996 126.95C62.6996 124.52 61.3496 122.63 58.8476 122.63C56.5256 122.63 54.9956 124.52 54.9956 126.95ZM67.2005 123.8V130.19L65.7605 131H69.5405L68.1005 130.19V124.844C68.6405 124.178 69.7205 123.314 70.8005 123.314C71.9705 123.314 72.5105 124.16 72.5105 125.6V130.19L71.0705 131H74.8505L73.4105 130.19V125.33C73.4105 123.35 72.4205 122.63 71.1605 122.63C69.9005 122.63 68.7305 123.62 68.1005 124.304V122.63L65.7605 123.35L67.2005 123.8ZM83.2148 122.63L82.4948 123.35C82.4948 123.35 81.8648 122.63 80.6048 122.63C79.1648 122.63 77.9948 123.476 77.9948 124.79C77.9948 127.508 82.8548 126.752 82.8548 129.074C82.8548 130.28 81.7748 130.73 80.9648 130.73C80.4248 130.73 79.4348 130.568 78.8588 129.38L78.0848 127.76V131.27L78.7148 130.208C78.7328 130.262 79.2908 131.27 80.9648 131.27C82.4048 131.27 83.6648 130.406 83.6648 128.786C83.6648 125.816 78.7148 126.5 78.7148 124.52C78.7148 123.8 79.4168 123.17 80.6048 123.17C81.8648 123.17 82.4048 123.98 82.4048 123.98L83.2148 125.438V122.63ZM86.6313 123.44H88.3413V129.38C88.3413 130.73 88.8813 131.27 89.7813 131.27C90.7713 131.27 91.2753 130.064 91.3113 129.938C91.2933 129.974 90.8613 130.64 90.1413 130.64C89.5113 130.64 89.2413 130.1 89.2413 129.38V123.44H91.3113V122.9H89.2413V121.01L86.6313 123.44ZM96.969 126.662C95.745 127.094 94.647 127.94 94.647 129.2C94.647 130.478 95.457 131.27 96.699 131.27C97.419 131.27 98.031 130.91 98.445 130.64L99.777 129.758C99.777 130.712 99.777 131.27 100.407 131.27C101.037 131.27 102.297 129.74 102.297 129.74L100.677 130.37V125.24C100.677 123.71 100.029 122.63 98.067 122.63C96.987 122.63 94.953 123.62 94.953 124.736C94.953 125.258 95.259 125.492 95.601 125.492C95.943 125.492 96.249 125.294 96.249 124.736C96.249 124.484 96.213 124.304 96.213 124.16C96.213 123.71 96.789 123.17 97.887 123.17C98.877 123.17 99.777 123.638 99.777 125.24V125.69L96.969 126.662ZM98.661 129.92C98.139 130.262 97.689 130.604 96.987 130.604C96.087 130.604 95.601 129.884 95.601 129.11C95.601 128.12 96.051 127.508 97.617 126.95L99.777 126.194V129.182L98.661 129.92ZM106.252 123.8V130.19L104.812 131H108.592L107.152 130.19V124.844C107.692 124.178 108.772 123.314 109.852 123.314C111.022 123.314 111.562 124.16 111.562 125.6V130.19L110.122 131H113.902L112.462 130.19V125.33C112.462 123.35 111.472 122.63 110.212 122.63C108.952 122.63 107.782 123.62 107.152 124.304V122.63L104.812 123.35L106.252 123.8ZM116.236 123.44H117.946V129.38C117.946 130.73 118.486 131.27 119.386 131.27C120.376 131.27 120.88 130.064 120.916 129.938C120.898 129.974 120.466 130.64 119.746 130.64C119.116 130.64 118.846 130.1 118.846 129.38V123.44H120.916V122.9H118.846V121.01L116.236 123.44ZM125.512 119.3V130.19L124.072 131H127.852L126.412 130.19V118.13L124.072 118.85L125.512 119.3ZM139.958 122.9H136.358L137.798 123.62L135.512 129.344L132.776 123.62L134.216 122.9H130.184L131.804 123.71L135.062 130.46L134.072 132.98C133.856 133.502 133.622 133.952 133.388 133.952C133.064 133.952 133.082 133.394 132.47 133.394C132.092 133.394 131.75 133.7 131.75 134.168C131.75 134.69 132.146 135.05 132.74 135.05C133.406 135.05 134.036 134.546 134.612 133.088L138.338 123.71L139.958 122.9ZM152.463 123.116C153.957 123.116 155.577 124.43 155.577 127.418C155.577 129.542 154.299 130.784 152.967 130.784C151.491 130.784 149.853 129.47 149.853 126.482C149.853 124.322 151.149 123.116 152.463 123.116ZM148.863 126.95C148.863 129.38 150.213 131.27 152.715 131.27C155.037 131.27 156.567 129.38 156.567 126.95C156.567 124.52 155.217 122.63 152.715 122.63C150.393 122.63 148.863 124.52 148.863 126.95ZM161.068 123.8V130.19L159.628 131H163.408L161.968 130.19V124.844C162.508 124.178 163.588 123.314 164.668 123.314C165.838 123.314 166.378 124.16 166.378 125.6V130.19L164.938 131H168.718L167.278 130.19V125.33C167.278 123.35 166.288 122.63 165.028 122.63C163.768 122.63 162.598 123.62 161.968 124.304V122.63L159.628 123.35L161.068 123.8ZM181.488 123.116C182.982 123.116 184.602 124.43 184.602 127.418C184.602 129.542 183.324 130.784 181.992 130.784C180.516 130.784 178.878 129.47 178.878 126.482C178.878 124.322 180.174 123.116 181.488 123.116ZM177.888 126.95C177.888 129.38 179.238 131.27 181.74 131.27C184.062 131.27 185.592 129.38 185.592 126.95C185.592 124.52 184.242 122.63 181.74 122.63C179.418 122.63 177.888 124.52 177.888 126.95ZM194.953 123.8V129.056C194.413 129.722 193.333 130.586 192.253 130.586C191.083 130.586 190.543 129.74 190.543 128.3V122.63L188.203 123.35L189.643 123.8V128.57C189.643 130.55 190.633 131.27 191.893 131.27C193.153 131.27 194.323 130.28 194.953 129.596V131.27L197.293 130.55L195.853 130.1V122.63L193.513 123.35L194.953 123.8ZM201.525 123.8V130.19L200.085 131H203.865L202.425 130.19V125.06C203.235 124.16 203.919 123.602 204.279 123.602C204.873 123.602 204.783 124.16 205.413 124.16C205.845 124.16 206.115 123.854 206.115 123.476C206.115 122.936 205.755 122.63 205.125 122.63C204.621 122.63 204.189 122.828 203.631 123.368L202.425 124.52V122.63L200.085 123.35L201.525 123.8ZM223.306 124.844C223.846 124.178 224.926 123.314 226.006 123.314C227.176 123.314 227.716 124.16 227.716 125.6V130.19L226.276 131H230.056L228.616 130.19V125.33C228.616 123.35 227.626 122.63 226.366 122.63C225.106 122.63 223.936 123.62 223.216 124.412C222.928 123.116 222.064 122.63 221.056 122.63C219.796 122.63 218.626 123.62 217.996 124.304V122.63L215.656 123.35L217.096 123.8V130.19L215.656 131H219.436L217.996 130.19V124.844C218.536 124.178 219.616 123.314 220.696 123.314C221.866 123.314 222.406 124.16 222.406 125.6V130.19L220.966 131H224.746L223.306 130.19V124.844ZM232.749 123.35L235.089 122.63V130.19L236.529 131H232.749L234.189 130.19V123.8L232.749 123.35ZM233.559 119.93C233.559 120.434 233.955 120.83 234.459 120.83C234.963 120.83 235.359 120.434 235.359 119.93C235.359 119.426 234.963 119.03 234.459 119.03C233.955 119.03 233.559 119.426 233.559 119.93ZM240.946 123.8V130.19L239.506 131H243.286L241.846 130.19V124.844C242.386 124.178 243.466 123.314 244.546 123.314C245.716 123.314 246.256 124.16 246.256 125.6V130.19L244.816 131H248.596L247.156 130.19V125.33C247.156 123.35 246.166 122.63 244.906 122.63C243.646 122.63 242.476 123.62 241.846 124.304V122.63L239.506 123.35L240.946 123.8ZM257.411 119.3V124.052C257.357 123.926 256.691 122.63 254.891 122.63C253.271 122.63 251.381 123.89 251.381 126.95C251.381 130.1 253.091 131.27 254.711 131.27C256.601 131.27 257.411 129.56 257.411 129.56V131.27L259.751 130.55L258.311 130.1V118.13L255.971 118.85L257.411 119.3ZM257.411 128.66C257.411 128.66 256.781 130.73 254.981 130.73C253.613 130.73 252.371 129.56 252.371 126.95C252.371 124.43 253.613 123.17 254.981 123.17C256.511 123.17 257.411 124.34 257.411 125.69V128.66ZM268.218 122.63L267.498 123.35C267.498 123.35 266.868 122.63 265.608 122.63C264.168 122.63 262.998 123.476 262.998 124.79C262.998 127.508 267.858 126.752 267.858 129.074C267.858 130.28 266.778 130.73 265.968 130.73C265.428 130.73 264.438 130.568 263.862 129.38L263.088 127.76V131.27L263.718 130.208C263.736 130.262 264.294 131.27 265.968 131.27C267.408 131.27 268.668 130.406 268.668 128.786C268.668 125.816 263.718 126.5 263.718 124.52C263.718 123.8 264.42 123.17 265.608 123.17C266.868 123.17 267.408 123.98 267.408 123.98L268.218 125.438V122.63ZM272.444 130.19C272.444 130.694 272.84 131.09 273.344 131.09C273.848 131.09 274.244 130.694 274.244 130.19C274.244 129.686 273.848 129.29 273.344 129.29C272.84 129.29 272.444 129.686 272.444 130.19ZM3.33 153.24H5.76L6.84 154.95V150.9L5.76 152.61H3.33V148.29L3.96 147.93H8.28L9.54 150.54V147.3H0.63L2.43 148.29V158.01L0.63 159H5.31L3.33 158.01V153.24ZM15.1179 151.116C16.6119 151.116 18.2319 152.43 18.2319 155.418C18.2319 157.542 16.9539 158.784 15.6219 158.784C14.1459 158.784 12.5079 157.47 12.5079 154.482C12.5079 152.322 13.8039 151.116 15.1179 151.116ZM11.5179 154.95C11.5179 157.38 12.8679 159.27 15.3699 159.27C17.6919 159.27 19.2219 157.38 19.2219 154.95C19.2219 152.52 17.8719 150.63 15.3699 150.63C13.0479 150.63 11.5179 152.52 11.5179 154.95ZM23.7227 151.8V158.19L22.2827 159H26.0627L24.6227 158.19V153.06C25.4327 152.16 26.1167 151.602 26.4767 151.602C27.0707 151.602 26.9807 152.16 27.6107 152.16C28.0427 152.16 28.3127 151.854 28.3127 151.476C28.3127 150.936 27.9527 150.63 27.3227 150.63C26.8187 150.63 26.3867 150.828 25.8287 151.368L24.6227 152.52V150.63L22.2827 151.35L23.7227 151.8ZM30.2105 158.19C30.2105 158.694 30.6065 159.09 31.1105 159.09H31.2005L30.3005 161.16C31.9205 159.18 32.0105 158.82 32.0105 158.19C32.0105 157.686 31.6145 157.29 31.1105 157.29C30.6065 157.29 30.2105 157.686 30.2105 158.19ZM51.1353 150.9H47.5353L48.9753 151.62L46.6893 157.344L43.9533 151.62L45.3933 150.9H41.3613L42.9813 151.71L46.2393 158.46L45.2493 160.98C45.0333 161.502 44.7993 161.952 44.5653 161.952C44.2413 161.952 44.2593 161.394 43.6473 161.394C43.2693 161.394 42.9273 161.7 42.9273 162.168C42.9273 162.69 43.3233 163.05 43.9173 163.05C44.5833 163.05 45.2133 162.546 45.7893 161.088L49.5153 151.71L51.1353 150.9ZM56.9011 151.116C58.3951 151.116 60.0151 152.43 60.0151 155.418C60.0151 157.542 58.7371 158.784 57.4051 158.784C55.9291 158.784 54.2911 157.47 54.2911 154.482C54.2911 152.322 55.5871 151.116 56.9011 151.116ZM53.3011 154.95C53.3011 157.38 54.6511 159.27 57.1531 159.27C59.4751 159.27 61.0051 157.38 61.0051 154.95C61.0051 152.52 59.6551 150.63 57.1531 150.63C54.8311 150.63 53.3011 152.52 53.3011 154.95ZM70.3659 151.8V157.056C69.8259 157.722 68.7459 158.586 67.6659 158.586C66.4959 158.586 65.9559 157.74 65.9559 156.3V150.63L63.6159 151.35L65.0559 151.8V156.57C65.0559 158.55 66.0459 159.27 67.3059 159.27C68.5659 159.27 69.7359 158.28 70.3659 157.596V159.27L72.7059 158.55L71.2659 158.1V150.63L68.9259 151.35L70.3659 151.8ZM87.6445 150.63L86.9245 151.35C86.9245 151.35 86.2945 150.63 85.0345 150.63C83.5945 150.63 82.4245 151.476 82.4245 152.79C82.4245 155.508 87.2845 154.752 87.2845 157.074C87.2845 158.28 86.2045 158.73 85.3945 158.73C84.8545 158.73 83.8645 158.568 83.2885 157.38L82.5145 155.76V159.27L83.1445 158.208C83.1625 158.262 83.7205 159.27 85.3945 159.27C86.8345 159.27 88.0945 158.406 88.0945 156.786C88.0945 153.816 83.1445 154.5 83.1445 152.52C83.1445 151.8 83.8465 151.17 85.0345 151.17C86.2945 151.17 86.8345 151.98 86.8345 151.98L87.6445 153.438V150.63ZM98.441 154.14C98.441 152.16 97.631 150.63 95.345 150.63C93.203 150.63 91.421 152.322 91.421 154.95C91.421 157.38 92.861 159.27 95.201 159.27C97.901 159.27 98.441 156.66 98.441 156.66C98.441 156.66 97.631 158.46 95.651 158.46C93.851 158.46 92.321 157.344 92.321 154.662C92.321 154.482 92.321 154.32 92.339 154.14H98.441ZM95.309 151.062C96.569 151.062 97.451 151.89 97.451 152.79C97.451 153.51 96.821 153.6 95.921 153.6H92.429C92.825 151.872 94.175 151.062 95.309 151.062ZM108.696 154.14C108.696 152.16 107.886 150.63 105.6 150.63C103.458 150.63 101.676 152.322 101.676 154.95C101.676 157.38 103.116 159.27 105.456 159.27C108.156 159.27 108.696 156.66 108.696 156.66C108.696 156.66 107.886 158.46 105.906 158.46C104.106 158.46 102.576 157.344 102.576 154.662C102.576 154.482 102.576 154.32 102.594 154.14H108.696ZM105.564 151.062C106.824 151.062 107.706 151.89 107.706 152.79C107.706 153.51 107.076 153.6 106.176 153.6H102.684C103.08 151.872 104.43 151.062 105.564 151.062ZM112.381 158.19C112.381 158.694 112.777 159.09 113.281 159.09H113.371L112.471 161.16C114.091 159.18 114.181 158.82 114.181 158.19C114.181 157.686 113.785 157.29 113.281 157.29C112.777 157.29 112.381 157.686 112.381 158.19ZM124.162 151.35L126.502 150.63V158.19L127.942 159H124.162L125.602 158.19V151.8L124.162 151.35ZM124.972 147.93C124.972 148.434 125.368 148.83 125.872 148.83C126.376 148.83 126.772 148.434 126.772 147.93C126.772 147.426 126.376 147.03 125.872 147.03C125.368 147.03 124.972 147.426 124.972 147.93ZM130.559 151.44H132.269V157.38C132.269 158.73 132.809 159.27 133.709 159.27C134.699 159.27 135.203 158.064 135.239 157.938C135.221 157.974 134.789 158.64 134.069 158.64C133.439 158.64 133.169 158.1 133.169 157.38V151.44H135.239V150.9H133.169V149.01L130.559 151.44ZM144.96 151.35L147.3 150.63V158.19L148.74 159H144.96L146.4 158.19V151.8L144.96 151.35ZM145.77 147.93C145.77 148.434 146.166 148.83 146.67 148.83C147.174 148.83 147.57 148.434 147.57 147.93C147.57 147.426 147.174 147.03 146.67 147.03C146.166 147.03 145.77 147.426 145.77 147.93ZM157.387 150.63L156.667 151.35C156.667 151.35 156.037 150.63 154.777 150.63C153.337 150.63 152.167 151.476 152.167 152.79C152.167 155.508 157.027 154.752 157.027 157.074C157.027 158.28 155.947 158.73 155.137 158.73C154.597 158.73 153.607 158.568 153.031 157.38L152.257 155.76V159.27L152.887 158.208C152.905 158.262 153.463 159.27 155.137 159.27C156.577 159.27 157.837 158.406 157.837 156.786C157.837 153.816 152.887 154.5 152.887 152.52C152.887 151.8 153.589 151.17 154.777 151.17C156.037 151.17 156.577 151.98 156.577 151.98L157.387 153.438V150.63ZM170.052 154.662C168.828 155.094 167.73 155.94 167.73 157.2C167.73 158.478 168.54 159.27 169.782 159.27C170.502 159.27 171.114 158.91 171.528 158.64L172.86 157.758C172.86 158.712 172.86 159.27 173.49 159.27C174.12 159.27 175.38 157.74 175.38 157.74L173.76 158.37V153.24C173.76 151.71 173.112 150.63 171.15 150.63C170.07 150.63 168.036 151.62 168.036 152.736C168.036 153.258 168.342 153.492 168.684 153.492C169.026 153.492 169.332 153.294 169.332 152.736C169.332 152.484 169.296 152.304 169.296 152.16C169.296 151.71 169.872 151.17 170.97 151.17C171.96 151.17 172.86 151.638 172.86 153.24V153.69L170.052 154.662ZM171.744 157.92C171.222 158.262 170.772 158.604 170.07 158.604C169.17 158.604 168.684 157.884 168.684 157.11C168.684 156.12 169.134 155.508 170.7 154.95L172.86 154.194V157.182L171.744 157.92ZM185.361 151.71L188.601 159.27L191.841 151.71L193.461 150.9H189.861L191.301 151.62L188.781 157.434L186.297 151.62L187.737 150.9H183.741L185.361 151.71ZM202.56 154.14C202.56 152.16 201.75 150.63 199.464 150.63C197.322 150.63 195.54 152.322 195.54 154.95C195.54 157.38 196.98 159.27 199.32 159.27C202.02 159.27 202.56 156.66 202.56 156.66C202.56 156.66 201.75 158.46 199.77 158.46C197.97 158.46 196.44 157.344 196.44 154.662C196.44 154.482 196.44 154.32 196.458 154.14H202.56ZM199.428 151.062C200.688 151.062 201.57 151.89 201.57 152.79C201.57 153.51 200.94 153.6 200.04 153.6H196.548C196.944 151.872 198.294 151.062 199.428 151.062ZM207.235 151.8V158.19L205.795 159H209.575L208.135 158.19V153.06C208.945 152.16 209.629 151.602 209.989 151.602C210.583 151.602 210.493 152.16 211.123 152.16C211.555 152.16 211.825 151.854 211.825 151.476C211.825 150.936 211.465 150.63 210.835 150.63C210.331 150.63 209.899 150.828 209.341 151.368L208.135 152.52V150.63L205.795 151.35L207.235 151.8ZM224.034 150.9H220.434L221.874 151.62L219.588 157.344L216.852 151.62L218.292 150.9H214.26L215.88 151.71L219.138 158.46L218.148 160.98C217.932 161.502 217.698 161.952 217.464 161.952C217.14 161.952 217.158 161.394 216.546 161.394C216.168 161.394 215.826 161.7 215.826 162.168C215.826 162.69 216.222 163.05 216.816 163.05C217.482 163.05 218.112 162.546 218.688 161.088L222.414 151.71L224.034 150.9ZM233.569 159.27L234.289 157.65C234.289 157.65 235.009 159.27 236.989 159.27C238.609 159.27 240.499 158.01 240.499 154.95C240.499 151.62 238.789 150.63 237.169 150.63C235.279 150.63 234.469 152.34 234.469 152.34V146.13L232.129 146.85L233.569 147.3V159.27ZM234.469 153.24C234.469 153.24 235.099 151.17 236.899 151.17C238.267 151.17 239.509 152.25 239.509 154.95C239.509 157.47 238.267 158.73 236.899 158.73C235.369 158.73 234.469 157.56 234.469 156.21V153.24ZM243.651 151.35L245.991 150.63V158.19L247.431 159H243.651L245.091 158.19V151.8L243.651 151.35ZM244.461 147.93C244.461 148.434 244.857 148.83 245.361 148.83C245.865 148.83 246.261 148.434 246.261 147.93C246.261 147.426 245.865 147.03 245.361 147.03C244.857 147.03 244.461 147.426 244.461 147.93ZM250.948 153.51C250.948 154.698 251.578 155.724 252.712 156.156C251.938 156.3 251.038 156.696 251.038 157.74C251.038 158.352 251.506 158.82 251.992 158.964C251.38 159.072 250.228 159.36 250.228 160.62C250.228 161.7 251.218 163.05 254.008 163.05C256.888 163.05 258.418 161.25 258.418 159.9C258.418 158.55 257.518 158.1 256.618 158.1H252.568C252.298 158.1 251.848 158.01 251.848 157.47C251.848 156.534 253.36 156.39 254.008 156.39C255.898 156.39 257.068 155.094 257.068 153.51C257.068 152.178 256.258 151.44 256.258 151.44C256.258 151.44 256.888 151.62 257.338 151.62C258.058 151.62 258.328 151.206 258.328 150.72C258.328 150.36 258.076 150 257.572 150C257.14 150 256.888 150.324 256.888 150.702C256.888 150.936 257.068 151.17 256.618 151.17C255.898 151.17 255.268 150.63 254.008 150.63C252.118 150.63 250.948 151.926 250.948 153.51ZM256.618 159C257.248 159 257.788 159.27 257.788 159.99C257.788 160.8 256.798 162.24 254.188 162.24C251.938 162.24 251.128 161.25 251.128 160.35C251.128 159.108 252.874 159.018 252.91 159H256.618ZM251.938 153.51C251.938 151.98 252.874 151.08 254.008 151.08C255.142 151.08 256.078 151.98 256.078 153.51C256.078 155.04 255.142 155.94 254.008 155.94C252.874 155.94 251.938 155.04 251.938 153.51ZM270.56 148.29L271.19 147.93H275.87L277.13 150.54V147.3H267.86L269.66 148.29V158.01L267.86 159H277.4V155.76L276.14 158.37H271.19L270.56 158.01V153.24H273.53L274.61 154.95V150.9L273.53 152.61H270.56V148.29ZM282.435 147.3V158.19L280.995 159H284.775L283.335 158.19V146.13L280.995 146.85L282.435 147.3ZM294.757 154.14C294.757 152.16 293.947 150.63 291.661 150.63C289.519 150.63 287.737 152.322 287.737 154.95C287.737 157.38 289.177 159.27 291.517 159.27C294.217 159.27 294.757 156.66 294.757 156.66C294.757 156.66 293.947 158.46 291.967 158.46C290.167 158.46 288.637 157.344 288.637 154.662C288.637 154.482 288.637 154.32 288.655 154.14H294.757ZM291.625 151.062C292.885 151.062 293.767 151.89 293.767 152.79C293.767 153.51 293.137 153.6 292.237 153.6H288.745C289.141 151.872 290.491 151.062 291.625 151.062ZM299.162 161.97L297.722 162.78H301.502L300.062 161.97V157.848C300.116 157.974 300.782 159.27 302.582 159.27C304.202 159.27 306.092 158.01 306.092 154.95C306.092 151.62 304.382 150.63 302.762 150.63C300.872 150.63 300.062 152.34 300.062 152.34V150.63L297.722 151.35L299.162 151.8V161.97ZM300.062 153.24C300.062 153.24 300.692 151.17 302.492 151.17C303.86 151.17 305.102 152.25 305.102 154.95C305.102 157.47 303.86 158.73 302.492 158.73C300.962 158.73 300.062 157.56 300.062 156.21V153.24ZM310.599 147.3V158.19L309.159 159H312.939L311.499 158.19V152.844C312.039 152.178 313.119 151.314 314.199 151.314C315.369 151.314 315.909 152.16 315.909 153.6V158.19L314.469 159H318.249L316.809 158.19V153.33C316.809 151.35 315.819 150.63 314.559 150.63C313.299 150.63 312.129 151.62 311.499 152.304V146.13L309.159 146.85L310.599 147.3ZM323.358 154.662C322.134 155.094 321.036 155.94 321.036 157.2C321.036 158.478 321.846 159.27 323.088 159.27C323.808 159.27 324.42 158.91 324.834 158.64L326.166 157.758C326.166 158.712 326.166 159.27 326.796 159.27C327.426 159.27 328.686 157.74 328.686 157.74L327.066 158.37V153.24C327.066 151.71 326.418 150.63 324.456 150.63C323.376 150.63 321.342 151.62 321.342 152.736C321.342 153.258 321.648 153.492 321.99 153.492C322.332 153.492 322.638 153.294 322.638 152.736C322.638 152.484 322.602 152.304 322.602 152.16C322.602 151.71 323.178 151.17 324.276 151.17C325.266 151.17 326.166 151.638 326.166 153.24V153.69L323.358 154.662ZM325.05 157.92C324.528 158.262 324.078 158.604 323.376 158.604C322.476 158.604 321.99 157.884 321.99 157.11C321.99 156.12 322.44 155.508 324.006 154.95L326.166 154.194V157.182L325.05 157.92ZM332.641 151.8V158.19L331.201 159H334.981L333.541 158.19V152.844C334.081 152.178 335.161 151.314 336.241 151.314C337.411 151.314 337.951 152.16 337.951 153.6V158.19L336.511 159H340.291L338.851 158.19V153.33C338.851 151.35 337.861 150.63 336.601 150.63C335.341 150.63 334.171 151.62 333.541 152.304V150.63L331.201 151.35L332.641 151.8ZM342.625 151.44H344.335V157.38C344.335 158.73 344.875 159.27 345.775 159.27C346.765 159.27 347.269 158.064 347.305 157.938C347.287 157.974 346.855 158.64 346.135 158.64C345.505 158.64 345.235 158.1 345.235 157.38V151.44H347.305V150.9H345.235V149.01L342.625 151.44ZM351.001 158.19C351.001 158.694 351.397 159.09 351.901 159.09C352.405 159.09 352.801 158.694 352.801 158.19C352.801 157.686 352.405 157.29 351.901 157.29C351.397 157.29 351.001 157.686 351.001 158.19ZM3.33 176.29L5.13 175.3H0.63L2.43 176.29V186.01L0.63 187H5.13L3.33 186.01V176.29ZM7.83563 179.44H9.54563V185.38C9.54563 186.73 10.0856 187.27 10.9856 187.27C11.9756 187.27 12.4796 186.064 12.5156 185.938C12.4976 185.974 12.0656 186.64 11.3456 186.64C10.7156 186.64 10.4456 186.1 10.4456 185.38V179.44H12.5156V178.9H10.4456V177.01L7.83563 179.44ZM23.587 175.3V186.19L22.147 187H25.927L24.487 186.19V180.844C25.027 180.178 26.107 179.314 27.187 179.314C28.357 179.314 28.897 180.16 28.897 181.6V186.19L27.457 187H31.237L29.797 186.19V181.33C29.797 179.35 28.807 178.63 27.547 178.63C26.287 178.63 25.117 179.62 24.487 180.304V174.13L22.147 174.85L23.587 175.3ZM36.3455 182.662C35.1215 183.094 34.0235 183.94 34.0235 185.2C34.0235 186.478 34.8335 187.27 36.0755 187.27C36.7955 187.27 37.4075 186.91 37.8215 186.64L39.1535 185.758C39.1535 186.712 39.1535 187.27 39.7835 187.27C40.4135 187.27 41.6735 185.74 41.6735 185.74L40.0535 186.37V181.24C40.0535 179.71 39.4055 178.63 37.4435 178.63C36.3635 178.63 34.3295 179.62 34.3295 180.736C34.3295 181.258 34.6355 181.492 34.9775 181.492C35.3195 181.492 35.6255 181.294 35.6255 180.736C35.6255 180.484 35.5895 180.304 35.5895 180.16C35.5895 179.71 36.1655 179.17 37.2635 179.17C38.2535 179.17 39.1535 179.638 39.1535 181.24V181.69L36.3455 182.662ZM38.0375 185.92C37.5155 186.262 37.0655 186.604 36.3635 186.604C35.4635 186.604 34.9775 185.884 34.9775 185.11C34.9775 184.12 35.4275 183.508 36.9935 182.95L39.1535 182.194V185.182L38.0375 185.92ZM49.8586 178.63L49.1386 179.35C49.1386 179.35 48.5086 178.63 47.2486 178.63C45.8086 178.63 44.6386 179.476 44.6386 180.79C44.6386 183.508 49.4986 182.752 49.4986 185.074C49.4986 186.28 48.4186 186.73 47.6086 186.73C47.0686 186.73 46.0786 186.568 45.5026 185.38L44.7286 183.76V187.27L45.3586 186.208C45.3766 186.262 45.9346 187.27 47.6086 187.27C49.0486 187.27 50.3086 186.406 50.3086 184.786C50.3086 181.816 45.3586 182.5 45.3586 180.52C45.3586 179.8 46.0606 179.17 47.2486 179.17C48.5086 179.17 49.0486 179.98 49.0486 179.98L49.8586 181.438V178.63ZM61.4609 175.3V186.19L60.0209 187H63.8009L62.3609 186.19V180.844C62.9009 180.178 63.9809 179.314 65.0609 179.314C66.2309 179.314 66.7709 180.16 66.7709 181.6V186.19L65.3309 187H69.1109L67.6709 186.19V181.33C67.6709 179.35 66.6809 178.63 65.4209 178.63C64.1609 178.63 62.9909 179.62 62.3609 180.304V174.13L60.0209 174.85L61.4609 175.3ZM78.1073 179.8V185.056C77.5673 185.722 76.4873 186.586 75.4073 186.586C74.2373 186.586 73.6973 185.74 73.6973 184.3V178.63L71.3573 179.35L72.7973 179.8V184.57C72.7973 186.55 73.7873 187.27 75.0473 187.27C76.3073 187.27 77.4773 186.28 78.1073 185.596V187.27L80.4473 186.55L79.0073 186.1V178.63L76.6673 179.35L78.1073 179.8ZM84.6802 179.8V186.19L83.2402 187H87.0202L85.5802 186.19V181.06C86.3902 180.16 87.0742 179.602 87.4342 179.602C88.0282 179.602 87.9382 180.16 88.5682 180.16C89.0002 180.16 89.2702 179.854 89.2702 179.476C89.2702 178.936 88.9102 178.63 88.2802 178.63C87.7762 178.63 87.3442 178.828 86.7862 179.368L85.5802 180.52V178.63L83.2402 179.35L84.6802 179.8ZM91.9751 179.44H93.6851V185.38C93.6851 186.73 94.2251 187.27 95.1251 187.27C96.1151 187.27 96.6191 186.064 96.6551 185.938C96.6371 185.974 96.2051 186.64 95.4851 186.64C94.8551 186.64 94.5851 186.1 94.5851 185.38V179.44H96.6551V178.9H94.5851V177.01L91.9751 179.44ZM112.676 179.8V185.056C112.136 185.722 111.056 186.586 109.976 186.586C108.806 186.586 108.266 185.74 108.266 184.3V178.63L105.926 179.35L107.366 179.8V184.57C107.366 186.55 108.356 187.27 109.616 187.27C110.876 187.27 112.046 186.28 112.676 185.596V187.27L115.016 186.55L113.576 186.1V178.63L111.236 179.35L112.676 179.8ZM123.479 178.63L122.759 179.35C122.759 179.35 122.129 178.63 120.869 178.63C119.429 178.63 118.259 179.476 118.259 180.79C118.259 183.508 123.119 182.752 123.119 185.074C123.119 186.28 122.039 186.73 121.229 186.73C120.689 186.73 119.699 186.568 119.123 185.38L118.349 183.76V187.27L118.979 186.208C118.997 186.262 119.555 187.27 121.229 187.27C122.669 187.27 123.929 186.406 123.929 184.786C123.929 181.816 118.979 182.5 118.979 180.52C118.979 179.8 119.681 179.17 120.869 179.17C122.129 179.17 122.669 179.98 122.669 179.98L123.479 181.438V178.63ZM136.144 182.662C134.92 183.094 133.822 183.94 133.822 185.2C133.822 186.478 134.632 187.27 135.874 187.27C136.594 187.27 137.206 186.91 137.62 186.64L138.952 185.758C138.952 186.712 138.952 187.27 139.582 187.27C140.212 187.27 141.472 185.74 141.472 185.74L139.852 186.37V181.24C139.852 179.71 139.204 178.63 137.242 178.63C136.162 178.63 134.128 179.62 134.128 180.736C134.128 181.258 134.434 181.492 134.776 181.492C135.118 181.492 135.424 181.294 135.424 180.736C135.424 180.484 135.388 180.304 135.388 180.16C135.388 179.71 135.964 179.17 137.062 179.17C138.052 179.17 138.952 179.638 138.952 181.24V181.69L136.144 182.662ZM137.836 185.92C137.314 186.262 136.864 186.604 136.162 186.604C135.262 186.604 134.776 185.884 134.776 185.11C134.776 184.12 135.226 183.508 136.792 182.95L138.952 182.194V185.182L137.836 185.92ZM145.337 175.3V186.19L143.897 187H147.677L146.237 186.19V174.13L143.897 174.85L145.337 175.3ZM151.988 175.3V186.19L150.548 187H154.328L152.888 186.19V174.13L150.548 174.85L151.988 175.3ZM157.74 186.19C157.74 186.694 158.136 187.09 158.64 187.09H158.73L157.83 189.16C159.45 187.18 159.54 186.82 159.54 186.19C159.54 185.686 159.144 185.29 158.64 185.29C158.136 185.29 157.74 185.686 157.74 186.19ZM170.151 187.27L170.871 185.65C170.871 185.65 171.591 187.27 173.571 187.27C175.191 187.27 177.081 186.01 177.081 182.95C177.081 179.62 175.371 178.63 173.751 178.63C171.861 178.63 171.051 180.34 171.051 180.34V174.13L168.711 174.85L170.151 175.3V187.27ZM171.051 181.24C171.051 181.24 171.681 179.17 173.481 179.17C174.849 179.17 176.091 180.25 176.091 182.95C176.091 185.47 174.849 186.73 173.481 186.73C171.951 186.73 171.051 185.56 171.051 184.21V181.24ZM186.533 179.8V185.056C185.993 185.722 184.913 186.586 183.833 186.586C182.663 186.586 182.123 185.74 182.123 184.3V178.63L179.783 179.35L181.223 179.8V184.57C181.223 186.55 182.213 187.27 183.473 187.27C184.733 187.27 185.903 186.28 186.533 185.596V187.27L188.873 186.55L187.433 186.1V178.63L185.093 179.35L186.533 179.8ZM191.306 179.44H193.016V185.38C193.016 186.73 193.556 187.27 194.456 187.27C195.446 187.27 195.95 186.064 195.986 185.938C195.968 185.974 195.536 186.64 194.816 186.64C194.186 186.64 193.916 186.1 193.916 185.38V179.44H195.986V178.9H193.916V177.01L191.306 179.44ZM218.217 178.9H214.635L216.075 179.62L214.293 185.074L211.863 178.63L209.379 185.11L207.615 179.62L209.055 178.9H205.077L206.697 179.71L209.127 187.27L211.665 180.664L214.167 187.27L216.597 179.71L218.217 178.9ZM227.324 182.14C227.324 180.16 226.514 178.63 224.228 178.63C222.086 178.63 220.304 180.322 220.304 182.95C220.304 185.38 221.744 187.27 224.084 187.27C226.784 187.27 227.324 184.66 227.324 184.66C227.324 184.66 226.514 186.46 224.534 186.46C222.734 186.46 221.204 185.344 221.204 182.662C221.204 182.482 221.204 182.32 221.222 182.14H227.324ZM224.192 179.062C225.452 179.062 226.334 179.89 226.334 180.79C226.334 181.51 225.704 181.6 224.804 181.6H221.312C221.708 179.872 223.058 179.062 224.192 179.062ZM243.155 175.3V180.052C243.101 179.926 242.435 178.63 240.635 178.63C239.015 178.63 237.125 179.89 237.125 182.95C237.125 186.1 238.835 187.27 240.455 187.27C242.345 187.27 243.155 185.56 243.155 185.56V187.27L245.495 186.55L244.055 186.1V174.13L241.715 174.85L243.155 175.3ZM243.155 184.66C243.155 184.66 242.525 186.73 240.725 186.73C239.357 186.73 238.115 185.56 238.115 182.95C238.115 180.43 239.357 179.17 240.725 179.17C242.255 179.17 243.155 180.34 243.155 181.69V184.66ZM251.892 179.116C253.386 179.116 255.006 180.43 255.006 183.418C255.006 185.542 253.728 186.784 252.396 186.784C250.92 186.784 249.282 185.47 249.282 182.482C249.282 180.322 250.578 179.116 251.892 179.116ZM248.292 182.95C248.292 185.38 249.642 187.27 252.144 187.27C254.466 187.27 255.996 185.38 255.996 182.95C255.996 180.52 254.646 178.63 252.144 178.63C249.822 178.63 248.292 180.52 248.292 182.95ZM266.972 179.8V186.19L265.532 187H269.312L267.872 186.19V180.844C268.412 180.178 269.492 179.314 270.572 179.314C271.742 179.314 272.282 180.16 272.282 181.6V186.19L270.842 187H274.622L273.182 186.19V181.33C273.182 179.35 272.192 178.63 270.932 178.63C269.672 178.63 268.502 179.62 267.872 180.304V178.63L265.532 179.35L266.972 179.8ZM280.917 179.116C282.411 179.116 284.031 180.43 284.031 183.418C284.031 185.542 282.753 186.784 281.421 186.784C279.945 186.784 278.307 185.47 278.307 182.482C278.307 180.322 279.603 179.116 280.917 179.116ZM277.317 182.95C277.317 185.38 278.667 187.27 281.169 187.27C283.491 187.27 285.021 185.38 285.021 182.95C285.021 180.52 283.671 178.63 281.169 178.63C278.847 178.63 277.317 180.52 277.317 182.95ZM287.722 179.44H289.432V185.38C289.432 186.73 289.972 187.27 290.872 187.27C291.862 187.27 292.366 186.064 292.402 185.938C292.384 185.974 291.952 186.64 291.232 186.64C290.602 186.64 290.332 186.1 290.332 185.38V179.44H292.402V178.9H290.332V177.01L287.722 179.44ZM301.763 179.44H303.473V185.38C303.473 186.73 304.013 187.27 304.913 187.27C305.903 187.27 306.407 186.064 306.443 185.938C306.425 185.974 305.993 186.64 305.273 186.64C304.643 186.64 304.373 186.1 304.373 185.38V179.44H306.443V178.9H304.373V177.01L301.763 179.44ZM312.101 182.662C310.877 183.094 309.779 183.94 309.779 185.2C309.779 186.478 310.589 187.27 311.831 187.27C312.551 187.27 313.163 186.91 313.577 186.64L314.909 185.758C314.909 186.712 314.909 187.27 315.539 187.27C316.169 187.27 317.429 185.74 317.429 185.74L315.809 186.37V181.24C315.809 179.71 315.161 178.63 313.199 178.63C312.119 178.63 310.085 179.62 310.085 180.736C310.085 181.258 310.391 181.492 310.733 181.492C311.075 181.492 311.381 181.294 311.381 180.736C311.381 180.484 311.345 180.304 311.345 180.16C311.345 179.71 311.921 179.17 313.019 179.17C314.009 179.17 314.909 179.638 314.909 181.24V181.69L312.101 182.662ZM313.793 185.92C313.271 186.262 312.821 186.604 312.119 186.604C311.219 186.604 310.733 185.884 310.733 185.11C310.733 184.12 311.183 183.508 312.749 182.95L314.909 182.194V185.182L313.793 185.92ZM321.294 175.3V186.19L319.854 187H323.634L322.194 186.19V174.13L319.854 174.85L321.294 175.3ZM328.845 174.13L326.505 174.85L327.945 175.3V186.19L326.505 187H330.285L328.845 186.19V174.13ZM333.309 187H335.055L333.777 186.19L329.961 182.446L332.859 179.71L334.875 178.9H331.095L332.175 179.62L328.935 182.698L333.309 187ZM3.042 210.662C1.818 211.094 0.72 211.94 0.72 213.2C0.72 214.478 1.53 215.27 2.772 215.27C3.492 215.27 4.104 214.91 4.518 214.64L5.85 213.758C5.85 214.712 5.85 215.27 6.48 215.27C7.11 215.27 8.37 213.74 8.37 213.74L6.75 214.37V209.24C6.75 207.71 6.102 206.63 4.14 206.63C3.06 206.63 1.026 207.62 1.026 208.736C1.026 209.258 1.332 209.492 1.674 209.492C2.016 209.492 2.322 209.294 2.322 208.736C2.322 208.484 2.286 208.304 2.286 208.16C2.286 207.71 2.862 207.17 3.96 207.17C4.95 207.17 5.85 207.638 5.85 209.24V209.69L3.042 210.662ZM4.734 213.92C4.212 214.262 3.762 214.604 3.06 214.604C2.16 214.604 1.674 213.884 1.674 213.11C1.674 212.12 2.124 211.508 3.69 210.95L5.85 210.194V213.182L4.734 213.92ZM11.5151 215.27L12.2351 213.65C12.2351 213.65 12.9551 215.27 14.9351 215.27C16.5551 215.27 18.4451 214.01 18.4451 210.95C18.4451 207.62 16.7351 206.63 15.1151 206.63C13.2251 206.63 12.4151 208.34 12.4151 208.34V202.13L10.0751 202.85L11.5151 203.3V215.27ZM12.4151 209.24C12.4151 209.24 13.0451 207.17 14.8451 207.17C16.2131 207.17 17.4551 208.25 17.4551 210.95C17.4551 213.47 16.2131 214.73 14.8451 214.73C13.3151 214.73 12.4151 213.56 12.4151 212.21V209.24ZM25.1972 207.116C26.6912 207.116 28.3112 208.43 28.3112 211.418C28.3112 213.542 27.0332 214.784 25.7012 214.784C24.2252 214.784 22.5872 213.47 22.5872 210.482C22.5872 208.322 23.8832 207.116 25.1972 207.116ZM21.5972 210.95C21.5972 213.38 22.9472 215.27 25.4492 215.27C27.7712 215.27 29.3012 213.38 29.3012 210.95C29.3012 208.52 27.9512 206.63 25.4492 206.63C23.1272 206.63 21.5972 208.52 21.5972 210.95ZM38.662 207.8V213.056C38.122 213.722 37.042 214.586 35.962 214.586C34.792 214.586 34.252 213.74 34.252 212.3V206.63L31.912 207.35L33.352 207.8V212.57C33.352 214.55 34.342 215.27 35.602 215.27C36.862 215.27 38.032 214.28 38.662 213.596V215.27L41.002 214.55L39.562 214.1V206.63L37.222 207.35L38.662 207.8ZM43.4348 207.44H45.1448V213.38C45.1448 214.73 45.6848 215.27 46.5848 215.27C47.5748 215.27 48.0788 214.064 48.1148 213.938C48.0968 213.974 47.6648 214.64 46.9448 214.64C46.3148 214.64 46.0448 214.1 46.0448 213.38V207.44H48.1148V206.9H46.0448V205.01L43.4348 207.44ZM57.4762 207.44H59.1862V213.38C59.1862 214.73 59.7262 215.27 60.6262 215.27C61.6162 215.27 62.1202 214.064 62.1562 213.938C62.1382 213.974 61.7062 214.64 60.9862 214.64C60.3562 214.64 60.0862 214.1 60.0862 213.38V207.44H62.1562V206.9H60.0862V205.01L57.4762 207.44ZM66.7519 203.3V214.19L65.3119 215H69.0919L67.6519 214.19V208.844C68.1919 208.178 69.2719 207.314 70.3519 207.314C71.5219 207.314 72.0619 208.16 72.0619 209.6V214.19L70.6219 215H74.4019L72.9619 214.19V209.33C72.9619 207.35 71.9719 206.63 70.7119 206.63C69.4519 206.63 68.2819 207.62 67.6519 208.304V202.13L65.3119 202.85L66.7519 203.3ZM84.1184 210.14C84.1184 208.16 83.3084 206.63 81.0224 206.63C78.8804 206.63 77.0984 208.322 77.0984 210.95C77.0984 213.38 78.5384 215.27 80.8784 215.27C83.5784 215.27 84.1184 212.66 84.1184 212.66C84.1184 212.66 83.3084 214.46 81.3284 214.46C79.5284 214.46 77.9984 213.344 77.9984 210.662C77.9984 210.482 77.9984 210.32 78.0164 210.14H84.1184ZM80.9864 207.062C82.2464 207.062 83.1284 207.89 83.1284 208.79C83.1284 209.51 82.4984 209.6 81.5984 209.6H78.1064C78.5024 207.872 79.8524 207.062 80.9864 207.062ZM96.5292 204.29L97.1592 203.93H101.839L103.099 206.54V203.3H93.8292L95.6292 204.29V214.01L93.8292 215H103.369V211.76L102.109 214.37H97.1592L96.5292 214.01V209.24H99.4992L100.579 210.95V206.9L99.4992 208.61H96.5292V204.29ZM108.405 203.3V214.19L106.965 215H110.745L109.305 214.19V202.13L106.965 202.85L108.405 203.3ZM120.727 210.14C120.727 208.16 119.917 206.63 117.631 206.63C115.489 206.63 113.707 208.322 113.707 210.95C113.707 213.38 115.147 215.27 117.487 215.27C120.187 215.27 120.727 212.66 120.727 212.66C120.727 212.66 119.917 214.46 117.937 214.46C116.137 214.46 114.607 213.344 114.607 210.662C114.607 210.482 114.607 210.32 114.625 210.14H120.727ZM117.595 207.062C118.855 207.062 119.737 207.89 119.737 208.79C119.737 209.51 119.107 209.6 118.207 209.6H114.715C115.111 207.872 116.461 207.062 117.595 207.062ZM125.132 217.97L123.692 218.78H127.472L126.032 217.97V213.848C126.086 213.974 126.752 215.27 128.552 215.27C130.172 215.27 132.062 214.01 132.062 210.95C132.062 207.62 130.352 206.63 128.732 206.63C126.842 206.63 126.032 208.34 126.032 208.34V206.63L123.692 207.35L125.132 207.8V217.97ZM126.032 209.24C126.032 209.24 126.662 207.17 128.462 207.17C129.83 207.17 131.072 208.25 131.072 210.95C131.072 213.47 129.83 214.73 128.462 214.73C126.932 214.73 126.032 213.56 126.032 212.21V209.24ZM136.569 203.3V214.19L135.129 215H138.909L137.469 214.19V208.844C138.009 208.178 139.089 207.314 140.169 207.314C141.339 207.314 141.879 208.16 141.879 209.6V214.19L140.439 215H144.219L142.779 214.19V209.33C142.779 207.35 141.789 206.63 140.529 206.63C139.269 206.63 138.099 207.62 137.469 208.304V202.13L135.129 202.85L136.569 203.3ZM149.327 210.662C148.103 211.094 147.005 211.94 147.005 213.2C147.005 214.478 147.815 215.27 149.057 215.27C149.777 215.27 150.389 214.91 150.803 214.64L152.135 213.758C152.135 214.712 152.135 215.27 152.765 215.27C153.395 215.27 154.655 213.74 154.655 213.74L153.035 214.37V209.24C153.035 207.71 152.387 206.63 150.425 206.63C149.345 206.63 147.311 207.62 147.311 208.736C147.311 209.258 147.617 209.492 147.959 209.492C148.301 209.492 148.607 209.294 148.607 208.736C148.607 208.484 148.571 208.304 148.571 208.16C148.571 207.71 149.147 207.17 150.245 207.17C151.235 207.17 152.135 207.638 152.135 209.24V209.69L149.327 210.662ZM151.019 213.92C150.497 214.262 150.047 214.604 149.345 214.604C148.445 214.604 147.959 213.884 147.959 213.11C147.959 212.12 148.409 211.508 149.975 210.95L152.135 210.194V213.182L151.019 213.92ZM158.61 207.8V214.19L157.17 215H160.95L159.51 214.19V208.844C160.05 208.178 161.13 207.314 162.21 207.314C163.38 207.314 163.92 208.16 163.92 209.6V214.19L162.48 215H166.26L164.82 214.19V209.33C164.82 207.35 163.83 206.63 162.57 206.63C161.31 206.63 160.14 207.62 159.51 208.304V206.63L157.17 207.35L158.61 207.8ZM168.595 207.44H170.305V213.38C170.305 214.73 170.845 215.27 171.745 215.27C172.735 215.27 173.239 214.064 173.275 213.938C173.257 213.974 172.825 214.64 172.105 214.64C171.475 214.64 171.205 214.1 171.205 213.38V207.44H173.275V206.9H171.205V205.01L168.595 207.44ZM182.996 207.35L185.336 206.63V214.19L186.776 215H182.996L184.436 214.19V207.8L182.996 207.35ZM183.806 203.93C183.806 204.434 184.202 204.83 184.706 204.83C185.21 204.83 185.606 204.434 185.606 203.93C185.606 203.426 185.21 203.03 184.706 203.03C184.202 203.03 183.806 203.426 183.806 203.93ZM191.193 207.8V214.19L189.753 215H193.533L192.093 214.19V208.844C192.633 208.178 193.713 207.314 194.793 207.314C195.963 207.314 196.503 208.16 196.503 209.6V214.19L195.063 215H198.843L197.403 214.19V209.33C197.403 207.35 196.413 206.63 195.153 206.63C193.893 206.63 192.723 207.62 192.093 208.304V206.63L189.753 207.35L191.193 207.8ZM207.653 207.44H209.363V213.38C209.363 214.73 209.903 215.27 210.803 215.27C211.793 215.27 212.297 214.064 212.333 213.938C212.315 213.974 211.883 214.64 211.163 214.64C210.533 214.64 210.263 214.1 210.263 213.38V207.44H212.333V206.9H210.263V205.01L207.653 207.44ZM216.929 203.3V214.19L215.489 215H219.269L217.829 214.19V208.844C218.369 208.178 219.449 207.314 220.529 207.314C221.699 207.314 222.239 208.16 222.239 209.6V214.19L220.799 215H224.579L223.139 214.19V209.33C223.139 207.35 222.149 206.63 220.889 206.63C219.629 206.63 218.459 207.62 217.829 208.304V202.13L215.489 202.85L216.929 203.3ZM234.295 210.14C234.295 208.16 233.485 206.63 231.199 206.63C229.057 206.63 227.275 208.322 227.275 210.95C227.275 213.38 228.715 215.27 231.055 215.27C233.755 215.27 234.295 212.66 234.295 212.66C234.295 212.66 233.485 214.46 231.505 214.46C229.705 214.46 228.175 213.344 228.175 210.662C228.175 210.482 228.175 210.32 228.193 210.14H234.295ZM231.163 207.062C232.423 207.062 233.305 207.89 233.305 208.79C233.305 209.51 232.675 209.6 231.775 209.6H228.283C228.679 207.872 230.029 207.062 231.163 207.062ZM245.446 207.8V214.19L244.006 215H247.786L246.346 214.19V209.06C247.156 208.16 247.84 207.602 248.2 207.602C248.794 207.602 248.704 208.16 249.334 208.16C249.766 208.16 250.036 207.854 250.036 207.476C250.036 206.936 249.676 206.63 249.046 206.63C248.542 206.63 248.11 206.828 247.552 207.368L246.346 208.52V206.63L244.006 207.35L245.446 207.8ZM256.701 207.116C258.195 207.116 259.815 208.43 259.815 211.418C259.815 213.542 258.537 214.784 257.205 214.784C255.729 214.784 254.091 213.47 254.091 210.482C254.091 208.322 255.387 207.116 256.701 207.116ZM253.101 210.95C253.101 213.38 254.451 215.27 256.953 215.27C259.275 215.27 260.805 213.38 260.805 210.95C260.805 208.52 259.455 206.63 256.953 206.63C254.631 206.63 253.101 208.52 253.101 210.95ZM267.466 207.116C268.96 207.116 270.58 208.43 270.58 211.418C270.58 213.542 269.302 214.784 267.97 214.784C266.494 214.784 264.856 213.47 264.856 210.482C264.856 208.322 266.152 207.116 267.466 207.116ZM263.866 210.95C263.866 213.38 265.216 215.27 267.718 215.27C270.04 215.27 271.57 213.38 271.57 210.95C271.57 208.52 270.22 206.63 267.718 206.63C265.396 206.63 263.866 208.52 263.866 210.95ZM282.281 208.844C282.821 208.178 283.901 207.314 284.981 207.314C286.151 207.314 286.691 208.16 286.691 209.6V214.19L285.251 215H289.031L287.591 214.19V209.33C287.591 207.35 286.601 206.63 285.341 206.63C284.081 206.63 282.911 207.62 282.191 208.412C281.903 207.116 281.039 206.63 280.031 206.63C278.771 206.63 277.601 207.62 276.971 208.304V206.63L274.631 207.35L276.071 207.8V214.19L274.631 215H278.411L276.971 214.19V208.844C277.511 208.178 278.591 207.314 279.671 207.314C280.841 207.314 281.381 208.16 281.381 209.6V214.19L279.941 215H283.721L282.281 214.19V208.844ZM292.714 214.19C292.714 214.694 293.11 215.09 293.614 215.09C294.118 215.09 294.514 214.694 294.514 214.19C294.514 213.686 294.118 213.29 293.614 213.29C293.11 213.29 292.714 213.686 292.714 214.19ZM297.394 214.19C297.394 214.694 297.79 215.09 298.294 215.09C298.798 215.09 299.194 214.694 299.194 214.19C299.194 213.686 298.798 213.29 298.294 213.29C297.79 213.29 297.394 213.686 297.394 214.19ZM302.074 214.19C302.074 214.694 302.47 215.09 302.974 215.09C303.478 215.09 303.874 214.694 303.874 214.19C303.874 213.686 303.478 213.29 302.974 213.29C302.47 213.29 302.074 213.686 302.074 214.19ZM1.98 238.59C1.98 244.728 6.408 246.078 6.642 246.15C6.48 246.078 2.97 244.548 2.97 238.59C2.97 232.632 6.48 231.102 6.642 231.03C6.408 231.102 1.98 232.452 1.98 238.59ZM9.52453 242.19C9.52453 242.694 9.92053 243.09 10.4245 243.09C10.9285 243.09 11.3245 242.694 11.3245 242.19C11.3245 241.686 10.9285 241.29 10.4245 241.29C9.92053 241.29 9.52453 241.686 9.52453 242.19ZM15.2796 242.19C15.2796 242.694 15.6756 243.09 16.1796 243.09C16.6836 243.09 17.0796 242.694 17.0796 242.19C17.0796 241.686 16.6836 241.29 16.1796 241.29C15.6756 241.29 15.2796 241.686 15.2796 242.19ZM21.0347 242.19C21.0347 242.694 21.4307 243.09 21.9347 243.09C22.4387 243.09 22.8347 242.694 22.8347 242.19C22.8347 241.686 22.4387 241.29 21.9347 241.29C21.4307 241.29 21.0347 241.686 21.0347 242.19ZM30.3718 238.59C30.3718 232.452 25.9438 231.102 25.7098 231.03C25.8718 231.102 29.3818 232.632 29.3818 238.59C29.3818 244.548 25.8718 246.078 25.7098 246.15C25.9438 246.078 30.3718 244.728 30.3718 238.59Z" fill="black"/>
</svg>
