<svg width="140" height="28" viewBox="0 0 140 28" fill="none" xmlns="http://www.w3.org/2000/svg">
<rect width="140" height="28" fill="black" fill-opacity="0.69"/>
<path d="M5.952 17H6.848V12.184H9.984V11.428H6.848V7.648H10.222V6.892H5.952V17ZM16.3074 9.93V14.914C16.3074 15.404 15.9014 16.468 14.7674 16.468C13.5494 16.468 13.5914 14.984 13.5914 14.788V9.93H12.7514V14.928C12.7514 16.076 13.1574 17.14 14.6134 17.14C15.3974 17.14 15.9014 16.818 16.3914 16.216H16.4194V17H17.1474V9.93H16.3074ZM13.3954 9.006H14.2914V7.592H13.3954V9.006ZM15.6074 9.006H16.5034V7.592H15.6074V9.006ZM21.2121 9.93H20.3721V17H21.2121V12.45C21.2121 11.26 21.9961 10.546 23.1861 10.644V9.79C22.3321 9.79 21.5901 10.21 21.2401 10.882H21.2121V9.93ZM30.3121 6.892V17H34.9881V16.244H31.2081V12.184H34.7221V11.428H31.2081V7.648H34.8901V6.892H30.3121ZM38.8568 17V6.892H38.0168V17H38.8568ZM43.3603 17V9.93H42.5203V17H43.3603ZM43.4583 7.956V6.892H42.4223V7.956H43.4583ZM50.7058 15.138C50.7058 12.772 47.5278 13.248 47.5278 11.484C47.5278 10.854 48.0038 10.462 48.6058 10.462C49.5578 10.462 49.7958 10.938 49.8378 11.834H50.6638C50.6638 10.756 50.2158 9.79 48.8158 9.79C47.5838 9.79 46.6878 10.252 46.6878 11.554C46.6878 13.892 49.8658 13.416 49.8658 15.264C49.8658 16.048 49.4738 16.51 48.6618 16.51C47.5838 16.51 47.3598 15.866 47.3598 14.9H46.5058C46.4918 16.398 47.0938 17.14 48.6198 17.14C49.9358 17.14 50.7058 16.468 50.7058 15.138ZM58.2753 13.64C58.2753 11.54 58.2753 9.79 55.8393 9.79C54.2573 9.79 53.4033 10.728 53.4033 12.772V14.508C53.4033 16.65 54.6213 17.14 55.8393 17.14C57.2533 17.14 58.1773 16.552 58.2753 14.844H57.3933C57.4073 15.796 56.8893 16.468 55.8393 16.468C54.5093 16.468 54.2433 15.166 54.2433 14.186V13.64H58.2753ZM54.2433 12.968C54.2433 11.4 54.4953 10.462 55.8393 10.462C57.1833 10.462 57.4353 11.4 57.4353 12.968H54.2433ZM61.108 18.47H61.85L62.69 15.936H61.668L61.108 18.47ZM71.207 11.386V7.648H72.985C73.699 7.648 74.623 7.676 74.623 9.356C74.623 10.504 74.217 11.386 72.929 11.386H71.207ZM73.167 17C74.861 17 75.729 16.006 75.729 14.186C75.729 12.912 75.379 12.03 74.049 11.75V11.722C75.323 11.372 75.519 10.532 75.519 9.314C75.519 7.536 74.707 6.892 73.125 6.892H70.311V17H73.167ZM71.207 12.142H73.027C74.567 12.142 74.833 13.36 74.833 14.256C74.833 15.74 74.119 16.244 72.635 16.244H71.207V12.142ZM83.303 13.64C83.303 11.54 83.303 9.79 80.867 9.79C79.285 9.79 78.431 10.728 78.431 12.772V14.508C78.431 16.65 79.649 17.14 80.867 17.14C82.281 17.14 83.205 16.552 83.303 14.844H82.421C82.435 15.796 81.917 16.468 80.867 16.468C79.537 16.468 79.271 15.166 79.271 14.186V13.64H83.303ZM79.271 12.968C79.271 11.4 79.523 10.462 80.867 10.462C82.211 10.462 82.463 11.4 82.463 12.968H79.271ZM90.9237 13.64C90.9237 11.54 90.9237 9.79 88.4877 9.79C86.9057 9.79 86.0517 10.728 86.0517 12.772V14.508C86.0517 16.65 87.2697 17.14 88.4877 17.14C89.9017 17.14 90.8257 16.552 90.9237 14.844H90.0417C90.0557 15.796 89.5377 16.468 88.4877 16.468C87.1577 16.468 86.8917 15.166 86.8917 14.186V13.64H90.9237ZM86.8917 12.968C86.8917 11.4 87.1437 10.462 88.4877 10.462C89.8317 10.462 90.0837 11.4 90.0837 12.968H86.8917ZM94.3584 10.602V15.656C94.3584 16.524 94.6944 17.028 95.8284 17.028C96.0944 17.028 96.3744 17.014 96.6264 16.986V16.258C96.4444 16.286 96.2484 16.3 95.9684 16.3C95.2964 16.3 95.1984 16.076 95.1984 15.138V10.602H96.6264V9.93H95.1984V8.11L94.3584 8.474V9.93H93.2244V10.602H94.3584ZM99.9909 17V12.562C99.9909 10.98 100.761 10.462 101.517 10.462C102.497 10.462 102.819 11.232 102.819 12.058V17H103.659V12.016C103.659 11.092 103.477 9.79 101.727 9.79C100.971 9.79 100.425 10.21 100.019 10.798H99.9909V6.892H99.1509V17H99.9909ZM109.026 17.14C110.678 17.14 111.462 16.062 111.462 14.228V12.702C111.462 10.868 110.678 9.79 109.026 9.79C107.374 9.79 106.59 10.868 106.59 12.702V14.228C106.59 16.062 107.374 17.14 109.026 17.14ZM109.026 10.462C110.412 10.462 110.622 11.624 110.622 13.458C110.622 15.306 110.412 16.468 109.026 16.468C107.64 16.468 107.43 15.306 107.43 13.458C107.43 11.624 107.64 10.462 109.026 10.462ZM114.588 9.93H113.678L115.778 17H116.744L118.844 9.93H118.032L116.31 15.936H116.282L114.588 9.93ZM125.924 13.64C125.924 11.54 125.924 9.79 123.488 9.79C121.906 9.79 121.052 10.728 121.052 12.772V14.508C121.052 16.65 122.27 17.14 123.488 17.14C124.902 17.14 125.826 16.552 125.924 14.844H125.042C125.056 15.796 124.538 16.468 123.488 16.468C122.158 16.468 121.892 15.166 121.892 14.186V13.64H125.924ZM121.892 12.968C121.892 11.4 122.144 10.462 123.488 10.462C124.832 10.462 125.084 11.4 125.084 12.968H121.892ZM129.694 12.562C129.694 10.98 130.464 10.462 131.22 10.462C132.2 10.462 132.522 11.232 132.522 12.058V17H133.362V12.016C133.362 11.092 133.18 9.79 131.43 9.79C130.674 9.79 130.128 10.21 129.722 10.798H129.694V9.93H128.854V17H129.694V12.562ZM136.657 17H137.693V15.936H136.657V17Z" fill="white"/>
</svg>
