<svg width="449" height="50" viewBox="0 0 449 50" fill="none" xmlns="http://www.w3.org/2000/svg">
<rect width="411.725" height="50" fill="black" fill-opacity="0.69"/>
<path d="M12.9642 5.892H12.2222L11.3822 8.426H12.4042L12.9642 5.892ZM15.0362 5.892H14.2942L13.4542 8.426H14.4762L15.0362 5.892ZM17.6356 13.144C17.6356 14.6 17.8316 16.196 20.0436 16.196C20.3516 16.196 22.5076 16.196 22.5076 13.816V5.892H21.6116V13.69C21.6116 15.02 20.8836 15.44 20.0576 15.44C18.6436 15.44 18.5316 14.264 18.5316 13.144H17.6356ZM29.4143 8.93V13.914C29.4143 14.404 29.0083 15.468 27.8743 15.468C26.6563 15.468 26.6983 13.984 26.6983 13.788V8.93H25.8583V13.928C25.8583 15.076 26.2643 16.14 27.7203 16.14C28.5043 16.14 29.0083 15.818 29.4983 15.216H29.5263V16H30.2543V8.93H29.4143ZM34.543 16V5.892H33.703V16H34.543ZM38.6265 18.674H39.4525L42.3785 8.93H41.5385L39.8725 14.726H39.8445L38.1225 8.93H37.2125L39.4525 16.014L38.6265 18.674ZM49.5655 12.808L52.2815 7.082H52.3095V12.808H49.5655ZM53.1495 6.242H51.8195L48.8095 12.752V13.564H52.3095V16H53.1495V13.564H54.2975V12.808H53.1495V6.242ZM57.3962 9.602V14.656C57.3962 15.524 57.7322 16.028 58.8662 16.028C59.1322 16.028 59.4122 16.014 59.6642 15.986V15.258C59.4822 15.286 59.2862 15.3 59.0062 15.3C58.3342 15.3 58.2362 15.076 58.2362 14.138V9.602H59.6642V8.93H58.2362V7.11L57.3962 7.474V8.93H56.2622V9.602H57.3962ZM63.0286 16V11.562C63.0286 9.98 63.7986 9.462 64.5546 9.462C65.5346 9.462 65.8566 10.232 65.8566 11.058V16H66.6966V11.016C66.6966 10.092 66.5146 8.79 64.7646 8.79C64.0086 8.79 63.4626 9.21 63.0566 9.798H63.0286V5.892H62.1886V16H63.0286ZM69.8513 8.426H70.5933L71.4333 5.892H70.4113L69.8513 8.426ZM71.9233 8.426H72.6653L73.5053 5.892H72.4833L71.9233 8.426ZM81.9383 5.598C81.2383 7.628 80.7343 9.728 80.7343 11.884C80.7343 13.928 81.2663 15.916 81.8823 17.848H82.5683C81.9943 15.846 81.6303 13.76 81.6303 11.674C81.6303 9.616 82.0643 7.586 82.5683 5.598H81.9383ZM91.0058 8.454C91.0058 6.998 90.5578 5.696 88.4578 5.696C86.8058 5.696 85.6998 6.424 85.7138 8.174C85.7278 9.182 85.8118 9.784 87.7718 10.988C89.2278 11.884 90.1378 12.276 90.1378 13.648C90.1378 14.81 89.5638 15.44 88.3878 15.44C86.5818 15.44 86.4978 14.278 86.4978 13.158H85.5738C85.4898 15.132 86.3718 16.196 88.3458 16.196C90.1098 16.196 91.0338 15.314 91.0338 13.508C91.0338 11.548 89.7598 11.282 88.5138 10.386C87.3658 9.56 86.6098 9.518 86.6098 8.02C86.6098 6.83 87.2958 6.452 88.3878 6.452C89.7598 6.452 90.0678 7.208 90.0958 8.454H91.0058ZM98.7478 12.64C98.7478 10.54 98.7478 8.79 96.3118 8.79C94.7298 8.79 93.8758 9.728 93.8758 11.772V13.508C93.8758 15.65 95.0938 16.14 96.3118 16.14C97.7258 16.14 98.6498 15.552 98.7478 13.844H97.8658C97.8798 14.796 97.3618 15.468 96.3118 15.468C94.9818 15.468 94.7158 14.166 94.7158 13.186V12.64H98.7478ZM94.7158 11.968C94.7158 10.4 94.9678 9.462 96.3118 9.462C97.6558 9.462 97.9078 10.4 97.9078 11.968H94.7158ZM102.546 11.828C102.546 10.078 103.498 9.462 104.044 9.462C105.43 9.462 105.64 10.624 105.64 12.458C105.64 14.306 105.43 15.468 104.044 15.468C103.274 15.468 102.546 14.698 102.546 13.088V11.828ZM102.518 8.93H101.706V18.674H102.546V15.202L102.574 15.216C103.008 15.888 103.526 16.14 104.044 16.14C105.85 16.14 106.48 15.062 106.48 13.228V11.646C106.48 10.722 106.466 8.79 104.254 8.79C103.694 8.79 102.994 9.084 102.546 9.77L102.518 9.784V8.93ZM109.803 9.602V14.656C109.803 15.524 110.139 16.028 111.273 16.028C111.539 16.028 111.819 16.014 112.071 15.986V15.258C111.889 15.286 111.693 15.3 111.413 15.3C110.741 15.3 110.643 15.076 110.643 14.138V9.602H112.071V8.93H110.643V7.11L109.803 7.474V8.93H108.669V9.602H109.803ZM119.286 12.64C119.286 10.54 119.286 8.79 116.85 8.79C115.268 8.79 114.414 9.728 114.414 11.772V13.508C114.414 15.65 115.632 16.14 116.85 16.14C118.264 16.14 119.188 15.552 119.286 13.844H118.404C118.418 14.796 117.9 15.468 116.85 15.468C115.52 15.468 115.254 14.166 115.254 13.186V12.64H119.286ZM115.254 11.968C115.254 10.4 115.506 9.462 116.85 9.462C118.194 9.462 118.446 10.4 118.446 11.968H115.254ZM123.042 11.45C123.042 10.526 123.448 9.462 124.512 9.462C125.338 9.462 125.59 10.246 125.604 10.946V16H126.444V11.45C126.444 10.526 126.85 9.462 127.914 9.462C128.74 9.462 128.992 10.246 129.006 10.946V16H129.846V10.736C129.804 9.602 129.188 8.79 128.012 8.79C127.228 8.79 126.626 9.196 126.276 9.896C126.038 9.196 125.394 8.79 124.666 8.79C123.882 8.79 123.322 9.224 122.986 9.798H122.958V8.916H122.202V16H123.042V11.45ZM133.794 12.36C133.794 11.296 133.962 9.462 135.32 9.462C136.874 9.462 136.916 10.834 136.916 12.486C136.916 14.138 136.874 15.468 135.32 15.468C133.794 15.468 133.794 13.48 133.794 12.36ZM133.766 16V15.146H133.794C134.144 15.804 134.746 16.14 135.572 16.14C137.63 16.14 137.756 14.012 137.756 12.458C137.756 11.198 137.938 8.79 135.642 8.79C134.844 8.79 134.284 9.084 133.85 9.756L133.822 9.728V5.892H132.982V15.3C132.982 15.538 132.94 15.762 132.898 16H133.766ZM145.265 12.64C145.265 10.54 145.265 8.79 142.829 8.79C141.247 8.79 140.393 9.728 140.393 11.772V13.508C140.393 15.65 141.611 16.14 142.829 16.14C144.243 16.14 145.167 15.552 145.265 13.844H144.383C144.397 14.796 143.879 15.468 142.829 15.468C141.499 15.468 141.233 14.166 141.233 13.186V12.64H145.265ZM141.233 11.968C141.233 10.4 141.485 9.462 142.829 9.462C144.173 9.462 144.425 10.4 144.425 11.968H141.233ZM149.092 8.93H148.252V16H149.092V11.45C149.092 10.26 149.876 9.546 151.066 9.644V8.79C150.212 8.79 149.47 9.21 149.12 9.882H149.092V8.93ZM158.388 8.734C159.004 8.328 159.564 7.866 160.096 7.362V16H160.936V6.242H160.152C159.662 6.844 159.032 7.32 158.388 7.768V8.734ZM167.786 11.394C166.428 11.394 166.26 10.162 166.26 9.084C166.26 7.964 166.456 6.844 167.842 6.844C169.452 6.844 169.466 7.978 169.466 9.196C169.466 9.84 169.41 11.394 167.786 11.394ZM167.702 12.15C168.402 12.15 169.074 11.898 169.494 11.296H169.522C169.452 14.32 169.55 15.398 167.772 15.398C166.75 15.398 166.358 14.796 166.372 13.83H165.476C165.518 15.482 166.246 16.154 167.884 16.154C170.306 16.154 170.362 14.628 170.362 11.072V9.868C170.362 7.516 170.278 6.088 167.814 6.088C165.854 6.088 165.364 7.376 165.364 9.084C165.364 11.156 165.966 12.15 167.702 12.15ZM172.831 6.998H176.919L173.783 16H174.763L177.773 7.138V6.242H172.831V6.998ZM185.52 15.244H181.53C184.792 10.344 185.506 9.546 185.506 8.118C185.506 6.452 184.148 6.088 183.014 6.088C181.88 6.088 180.578 6.676 180.578 8.622H181.418C181.418 7.614 181.95 6.844 183.014 6.844C183.784 6.844 184.61 7.012 184.61 8.314C184.61 9.616 182.72 11.856 180.55 15.216V16H185.52V15.244ZM188.464 5.598C188.968 7.586 189.402 9.616 189.402 11.674C189.402 13.76 189.038 15.846 188.464 17.848H189.15C189.766 15.916 190.298 13.928 190.298 11.884C190.298 9.728 189.794 7.628 189.094 5.598H188.464ZM198.326 12.36C198.326 11.296 198.494 9.462 199.852 9.462C201.406 9.462 201.448 10.834 201.448 12.486C201.448 14.138 201.406 15.468 199.852 15.468C198.326 15.468 198.326 13.48 198.326 12.36ZM198.298 16V15.146H198.326C198.676 15.804 199.278 16.14 200.104 16.14C202.162 16.14 202.288 14.012 202.288 12.458C202.288 11.198 202.47 8.79 200.174 8.79C199.376 8.79 198.816 9.084 198.382 9.756L198.354 9.728V5.892H197.514V15.3C197.514 15.538 197.472 15.762 197.43 16H198.298ZM205.806 18.674H206.632L209.558 8.93H208.718L207.052 14.726H207.024L205.302 8.93H204.392L206.632 16.014L205.806 18.674ZM217.487 16V6.76H217.515L220.567 16H221.603L224.571 6.76H224.599V16H225.495V5.892H224.067L221.127 15.02H221.099L218.117 5.892H216.591V16H217.487ZM232.346 13.676C232.346 14.6 231.562 15.468 230.596 15.468C229.728 15.468 229.322 14.81 229.322 14.012C229.322 12.29 231.142 12.43 232.346 12.388V13.676ZM232.402 16H233.27C233.186 15.174 233.186 14.726 233.186 14.222V10.666C233.186 8.86 231.702 8.79 230.988 8.79C229.756 8.79 228.706 9.322 228.636 10.68H229.532C229.532 9.84 230.148 9.462 230.918 9.462C232.038 9.462 232.346 10.092 232.346 11.128V11.716C230.918 11.828 228.426 11.576 228.426 14.054C228.426 15.286 229.112 16.14 230.372 16.14C231.24 16.14 231.926 15.804 232.374 15.132H232.402V16ZM237.068 18.674H237.894L240.82 8.93H239.98L238.314 14.726H238.286L236.564 8.93H235.654L237.894 16.014L237.068 18.674ZM253.061 8.454C253.061 6.998 252.613 5.696 250.513 5.696C248.861 5.696 247.755 6.424 247.769 8.174C247.783 9.182 247.867 9.784 249.827 10.988C251.283 11.884 252.193 12.276 252.193 13.648C252.193 14.81 251.619 15.44 250.443 15.44C248.637 15.44 248.553 14.278 248.553 13.158H247.629C247.545 15.132 248.427 16.196 250.401 16.196C252.165 16.196 253.089 15.314 253.089 13.508C253.089 11.548 251.815 11.282 250.569 10.386C249.421 9.56 248.665 9.518 248.665 8.02C248.665 6.83 249.351 6.452 250.443 6.452C251.815 6.452 252.123 7.208 252.151 8.454H253.061ZM257.345 16H258.395L259.879 9.952H259.907L261.461 16H262.511L264.457 8.93H263.617L262.035 15.118H262.007L260.439 8.93H259.403L257.905 15.118H257.877L256.295 8.93H255.399L257.345 16ZM271.541 12.64C271.541 10.54 271.541 8.79 269.105 8.79C267.523 8.79 266.669 9.728 266.669 11.772V13.508C266.669 15.65 267.887 16.14 269.105 16.14C270.519 16.14 271.443 15.552 271.541 13.844H270.659C270.673 14.796 270.155 15.468 269.105 15.468C267.775 15.468 267.509 14.166 267.509 13.186V12.64H271.541ZM267.509 11.968C267.509 10.4 267.761 9.462 269.105 9.462C270.449 9.462 270.701 10.4 270.701 11.968H267.509ZM275.312 11.562C275.312 9.98 276.082 9.462 276.838 9.462C277.818 9.462 278.14 10.232 278.14 11.058V16H278.98V11.016C278.98 10.092 278.798 8.79 277.048 8.79C276.292 8.79 275.746 9.21 275.34 9.798H275.312V8.93H274.472V16H275.312V11.562ZM286.055 14.138C286.055 11.772 282.877 12.248 282.877 10.484C282.877 9.854 283.353 9.462 283.955 9.462C284.907 9.462 285.145 9.938 285.187 10.834H286.013C286.013 9.756 285.565 8.79 284.165 8.79C282.933 8.79 282.037 9.252 282.037 10.554C282.037 12.892 285.215 12.416 285.215 14.264C285.215 15.048 284.823 15.51 284.011 15.51C282.933 15.51 282.709 14.866 282.709 13.9H281.855C281.841 15.398 282.443 16.14 283.969 16.14C285.285 16.14 286.055 15.468 286.055 14.138ZM291.188 16.14C292.84 16.14 293.624 15.062 293.624 13.228V11.702C293.624 9.868 292.84 8.79 291.188 8.79C289.536 8.79 288.752 9.868 288.752 11.702V13.228C288.752 15.062 289.536 16.14 291.188 16.14ZM291.188 9.462C292.574 9.462 292.784 10.624 292.784 12.458C292.784 14.306 292.574 15.468 291.188 15.468C289.802 15.468 289.592 14.306 289.592 12.458C289.592 10.624 289.802 9.462 291.188 9.462ZM297.395 11.562C297.395 9.98 298.165 9.462 298.921 9.462C299.901 9.462 300.223 10.232 300.223 11.058V16H301.063V11.016C301.063 10.092 300.881 8.79 299.131 8.79C298.375 8.79 297.829 9.21 297.423 9.798H297.395V8.93H296.555V16H297.395V11.562ZM309.575 8.93H308.735V16H309.575V11.45C309.575 10.26 310.359 9.546 311.549 9.644V8.79C310.695 8.79 309.953 9.21 309.603 9.882H309.575V8.93ZM318.665 12.64C318.665 10.54 318.665 8.79 316.229 8.79C314.647 8.79 313.793 9.728 313.793 11.772V13.508C313.793 15.65 315.011 16.14 316.229 16.14C317.643 16.14 318.567 15.552 318.665 13.844H317.783C317.797 14.796 317.279 15.468 316.229 15.468C314.899 15.468 314.633 14.166 314.633 13.186V12.64H318.665ZM314.633 11.968C314.633 10.4 314.885 9.462 316.229 9.462C317.573 9.462 317.825 10.4 317.825 11.968H314.633ZM322.716 16V5.892H321.876V16H322.716ZM329.698 13.676C329.698 14.6 328.914 15.468 327.948 15.468C327.08 15.468 326.674 14.81 326.674 14.012C326.674 12.29 328.494 12.43 329.698 12.388V13.676ZM329.754 16H330.622C330.538 15.174 330.538 14.726 330.538 14.222V10.666C330.538 8.86 329.054 8.79 328.34 8.79C327.108 8.79 326.058 9.322 325.988 10.68H326.884C326.884 9.84 327.5 9.462 328.27 9.462C329.39 9.462 329.698 10.092 329.698 11.128V11.716C328.27 11.828 325.778 11.576 325.778 14.054C325.778 15.286 326.464 16.14 327.724 16.14C328.592 16.14 329.278 15.804 329.726 15.132H329.754V16ZM334.224 9.602V14.656C334.224 15.524 334.56 16.028 335.694 16.028C335.96 16.028 336.24 16.014 336.492 15.986V15.258C336.31 15.286 336.114 15.3 335.834 15.3C335.162 15.3 335.064 15.076 335.064 14.138V9.602H336.492V8.93H335.064V7.11L334.224 7.474V8.93H333.09V9.602H334.224ZM343.707 12.64C343.707 10.54 343.707 8.79 341.271 8.79C339.689 8.79 338.835 9.728 338.835 11.772V13.508C338.835 15.65 340.053 16.14 341.271 16.14C342.685 16.14 343.609 15.552 343.707 13.844H342.825C342.839 14.796 342.321 15.468 341.271 15.468C339.941 15.468 339.675 14.166 339.675 13.186V12.64H343.707ZM339.675 11.968C339.675 10.4 339.927 9.462 341.271 9.462C342.615 9.462 342.867 10.4 342.867 11.968H339.675ZM350.599 14.138C350.599 11.772 347.421 12.248 347.421 10.484C347.421 9.854 347.897 9.462 348.499 9.462C349.451 9.462 349.689 9.938 349.731 10.834H350.557C350.557 9.756 350.109 8.79 348.709 8.79C347.477 8.79 346.581 9.252 346.581 10.554C346.581 12.892 349.759 12.416 349.759 14.264C349.759 15.048 349.367 15.51 348.555 15.51C347.477 15.51 347.253 14.866 347.253 13.9H346.399C346.385 15.398 346.987 16.14 348.513 16.14C349.829 16.14 350.599 15.468 350.599 14.138ZM358.486 9.602V14.656C358.486 15.524 358.822 16.028 359.956 16.028C360.222 16.028 360.502 16.014 360.754 15.986V15.258C360.572 15.286 360.376 15.3 360.096 15.3C359.424 15.3 359.326 15.076 359.326 14.138V9.602H360.754V8.93H359.326V7.11L358.486 7.474V8.93H357.352V9.602H358.486ZM364.119 16V11.562C364.119 9.98 364.889 9.462 365.645 9.462C366.625 9.462 366.947 10.232 366.947 11.058V16H367.787V11.016C367.787 10.092 367.605 8.79 365.855 8.79C365.099 8.79 364.553 9.21 364.147 9.798H364.119V5.892H363.279V16H364.119ZM375.59 12.64C375.59 10.54 375.59 8.79 373.154 8.79C371.572 8.79 370.718 9.728 370.718 11.772V13.508C370.718 15.65 371.936 16.14 373.154 16.14C374.568 16.14 375.492 15.552 375.59 13.844H374.708C374.722 14.796 374.204 15.468 373.154 15.468C371.824 15.468 371.558 14.166 371.558 13.186V12.64H375.59ZM371.558 11.968C371.558 10.4 371.81 9.462 373.154 9.462C374.498 9.462 374.75 10.4 374.75 11.968H371.558ZM387.336 16V8.93H386.496V16H387.336ZM387.434 6.956V5.892H386.398V6.956H387.434ZM383.57 16H384.41V9.602H385.838V8.93H384.41V7.726C384.41 7.32 384.41 6.592 385.222 6.592H385.852V5.892C385.642 5.864 385.502 5.836 385.376 5.836C383.668 5.836 383.57 7.068 383.57 7.74V8.93H382.436V9.602H383.57V16ZM391.54 8.93H390.7V16H391.54V11.45C391.54 10.26 392.324 9.546 393.514 9.644V8.79C392.66 8.79 391.918 9.21 391.568 9.882H391.54V8.93ZM400.631 12.64C400.631 10.54 400.631 8.79 398.195 8.79C396.613 8.79 395.759 9.728 395.759 11.772V13.508C395.759 15.65 396.977 16.14 398.195 16.14C399.609 16.14 400.533 15.552 400.631 13.844H399.749C399.763 14.796 399.245 15.468 398.195 15.468C396.865 15.468 396.599 14.166 396.599 13.186V12.64H400.631ZM396.599 11.968C396.599 10.4 396.851 9.462 398.195 9.462C399.539 9.462 399.791 10.4 399.791 11.968H396.599ZM404.794 16H405.844L407.328 9.952H407.356L408.91 16H409.96L411.906 8.93H411.066L409.484 15.118H409.456L407.888 8.93H406.852L405.354 15.118H405.326L403.744 8.93H402.848L404.794 16ZM416.554 16.14C418.206 16.14 418.99 15.062 418.99 13.228V11.702C418.99 9.868 418.206 8.79 416.554 8.79C414.902 8.79 414.118 9.868 414.118 11.702V13.228C414.118 15.062 414.902 16.14 416.554 16.14ZM416.554 9.462C417.94 9.462 418.15 10.624 418.15 12.458C418.15 14.306 417.94 15.468 416.554 15.468C415.168 15.468 414.958 14.306 414.958 12.458C414.958 10.624 415.168 9.462 416.554 9.462ZM422.816 8.93H421.976V16H422.816V11.45C422.816 10.26 423.6 9.546 424.79 9.644V8.79C423.936 8.79 423.194 9.21 422.844 9.882H422.816V8.93ZM427.245 16H428.085V12.15H428.113L430.633 16H431.697L429.023 12.08L431.529 8.93H430.549L428.113 12.052H428.085V5.892H427.245V16ZM438.02 14.138C438.02 11.772 434.842 12.248 434.842 10.484C434.842 9.854 435.318 9.462 435.92 9.462C436.872 9.462 437.11 9.938 437.152 10.834H437.978C437.978 9.756 437.53 8.79 436.13 8.79C434.898 8.79 434.002 9.252 434.002 10.554C434.002 12.892 437.18 12.416 437.18 14.264C437.18 15.048 436.788 15.51 435.976 15.51C434.898 15.51 434.674 14.866 434.674 13.9H433.82C433.806 15.398 434.408 16.14 435.934 16.14C437.25 16.14 438.02 15.468 438.02 14.138ZM440.802 17.47H441.544L442.384 14.936H441.362L440.802 17.47ZM14.9382 35.676C14.9382 36.6 14.1542 37.468 13.1882 37.468C12.3202 37.468 11.9142 36.81 11.9142 36.012C11.9142 34.29 13.7342 34.43 14.9382 34.388V35.676ZM14.9942 38H15.8622C15.7782 37.174 15.7782 36.726 15.7782 36.222V32.666C15.7782 30.86 14.2942 30.79 13.5802 30.79C12.3482 30.79 11.2982 31.322 11.2282 32.68H12.1242C12.1242 31.84 12.7402 31.462 13.5102 31.462C14.6302 31.462 14.9382 32.092 14.9382 33.128V33.716C13.5102 33.828 11.0182 33.576 11.0182 36.054C11.0182 37.286 11.7042 38.14 12.9642 38.14C13.8322 38.14 14.5182 37.804 14.9662 37.132H14.9942V38ZM19.8009 33.562C19.8009 31.98 20.5709 31.462 21.3269 31.462C22.3069 31.462 22.6289 32.232 22.6289 33.058V38H23.4689V33.016C23.4689 32.092 23.2869 30.79 21.5369 30.79C20.7809 30.79 20.2349 31.21 19.8289 31.798H19.8009V30.93H18.9609V38H19.8009V33.562ZM35.7751 34.64C35.7751 32.54 35.7751 30.79 33.3391 30.79C31.7571 30.79 30.9031 31.728 30.9031 33.772V35.508C30.9031 37.65 32.1211 38.14 33.3391 38.14C34.7531 38.14 35.6771 37.552 35.7751 35.844H34.8931C34.9071 36.796 34.3891 37.468 33.3391 37.468C32.0091 37.468 31.7431 36.166 31.7431 35.186V34.64H35.7751ZM31.7431 33.968C31.7431 32.4 31.9951 31.462 33.3391 31.462C34.6831 31.462 34.9351 32.4 34.9351 33.968H31.7431ZM38.0058 38H38.9438L40.5678 34.934L42.1218 38H43.1438L41.0998 34.192L42.9478 30.93H42.0238L40.6238 33.59L39.3358 30.93H38.3278L40.0778 34.234L38.0058 38ZM46.4152 33.828C46.4152 32.078 47.3672 31.462 47.9132 31.462C49.2992 31.462 49.5092 32.624 49.5092 34.458C49.5092 36.306 49.2992 37.468 47.9132 37.468C47.1432 37.468 46.4152 36.698 46.4152 35.088V33.828ZM46.3872 30.93H45.5752V40.674H46.4152V37.202L46.4432 37.216C46.8772 37.888 47.3952 38.14 47.9132 38.14C49.7192 38.14 50.3492 37.062 50.3492 35.228V33.646C50.3492 32.722 50.3352 30.79 48.1232 30.79C47.5632 30.79 46.8632 31.084 46.4152 31.77L46.3872 31.784V30.93ZM54.0639 30.93H53.2239V38H54.0639V33.45C54.0639 32.26 54.8479 31.546 56.0379 31.644V30.79C55.1839 30.79 54.4419 31.21 54.0919 31.882H54.0639V30.93ZM63.1544 34.64C63.1544 32.54 63.1544 30.79 60.7184 30.79C59.1364 30.79 58.2824 31.728 58.2824 33.772V35.508C58.2824 37.65 59.5004 38.14 60.7184 38.14C62.1324 38.14 63.0564 37.552 63.1544 35.844H62.2724C62.2864 36.796 61.7684 37.468 60.7184 37.468C59.3884 37.468 59.1224 36.166 59.1224 35.186V34.64H63.1544ZM59.1224 33.968C59.1224 32.4 59.3744 31.462 60.7184 31.462C62.0624 31.462 62.3144 32.4 62.3144 33.968H59.1224ZM70.0471 36.138C70.0471 33.772 66.8691 34.248 66.8691 32.484C66.8691 31.854 67.3451 31.462 67.9471 31.462C68.8991 31.462 69.1371 31.938 69.1791 32.834H70.0051C70.0051 31.756 69.5571 30.79 68.1571 30.79C66.9251 30.79 66.0291 31.252 66.0291 32.554C66.0291 34.892 69.2071 34.416 69.2071 36.264C69.2071 37.048 68.8151 37.51 68.0031 37.51C66.9251 37.51 66.7011 36.866 66.7011 35.9H65.8471C65.8331 37.398 66.4351 38.14 67.9611 38.14C69.2771 38.14 70.0471 37.468 70.0471 36.138ZM76.8885 36.138C76.8885 33.772 73.7105 34.248 73.7105 32.484C73.7105 31.854 74.1865 31.462 74.7885 31.462C75.7405 31.462 75.9785 31.938 76.0205 32.834H76.8465C76.8465 31.756 76.3985 30.79 74.9985 30.79C73.7665 30.79 72.8705 31.252 72.8705 32.554C72.8705 34.892 76.0485 34.416 76.0485 36.264C76.0485 37.048 75.6565 37.51 74.8445 37.51C73.7665 37.51 73.5425 36.866 73.5425 35.9H72.6885C72.6745 37.398 73.2765 38.14 74.8025 38.14C76.1185 38.14 76.8885 37.468 76.8885 36.138ZM80.8879 38V30.93H80.0479V38H80.8879ZM80.9859 28.956V27.892H79.9499V28.956H80.9859ZM86.5255 38.14C88.1775 38.14 88.9615 37.062 88.9615 35.228V33.702C88.9615 31.868 88.1775 30.79 86.5255 30.79C84.8735 30.79 84.0895 31.868 84.0895 33.702V35.228C84.0895 37.062 84.8735 38.14 86.5255 38.14ZM86.5255 31.462C87.9115 31.462 88.1215 32.624 88.1215 34.458C88.1215 36.306 87.9115 37.468 86.5255 37.468C85.1395 37.468 84.9295 36.306 84.9295 34.458C84.9295 32.624 85.1395 31.462 86.5255 31.462ZM92.7322 33.562C92.7322 31.98 93.5022 31.462 94.2582 31.462C95.2382 31.462 95.5602 32.232 95.5602 33.058V38H96.4002V33.016C96.4002 32.092 96.2182 30.79 94.4682 30.79C93.7122 30.79 93.1662 31.21 92.7602 31.798H92.7322V30.93H91.8922V38H92.7322V33.562ZM106.27 38.14C107.922 38.14 108.706 37.062 108.706 35.228V33.702C108.706 31.868 107.922 30.79 106.27 30.79C104.618 30.79 103.834 31.868 103.834 33.702V35.228C103.834 37.062 104.618 38.14 106.27 38.14ZM106.27 31.462C107.656 31.462 107.866 32.624 107.866 34.458C107.866 36.306 107.656 37.468 106.27 37.468C104.884 37.468 104.674 36.306 104.674 34.458C104.674 32.624 104.884 31.462 106.27 31.462ZM112.183 38H113.023V31.602H114.451V30.93H113.023V29.726C113.023 29.32 113.023 28.592 113.835 28.592H114.465V27.892C114.255 27.864 114.115 27.836 113.989 27.836C112.281 27.836 112.183 29.068 112.183 29.74V30.93H111.049V31.602H112.183V38ZM122.277 33.562C122.277 31.98 123.047 31.462 123.803 31.462C124.783 31.462 125.105 32.232 125.105 33.058V38H125.945V33.016C125.945 32.092 125.763 30.79 124.013 30.79C123.257 30.79 122.711 31.21 122.305 31.798H122.277V30.93H121.437V38H122.277V33.562ZM132.656 35.676C132.656 36.6 131.872 37.468 130.906 37.468C130.038 37.468 129.632 36.81 129.632 36.012C129.632 34.29 131.452 34.43 132.656 34.388V35.676ZM132.712 38H133.58C133.496 37.174 133.496 36.726 133.496 36.222V32.666C133.496 30.86 132.012 30.79 131.298 30.79C130.066 30.79 129.016 31.322 128.946 32.68H129.842C129.842 31.84 130.458 31.462 131.228 31.462C132.348 31.462 132.656 32.092 132.656 33.128V33.716C131.228 33.828 128.736 33.576 128.736 36.054C128.736 37.286 129.422 38.14 130.682 38.14C131.55 38.14 132.236 37.804 132.684 37.132H132.712V38ZM137.182 31.602V36.656C137.182 37.524 137.518 38.028 138.652 38.028C138.918 38.028 139.198 38.014 139.45 37.986V37.258C139.268 37.286 139.072 37.3 138.792 37.3C138.12 37.3 138.022 37.076 138.022 36.138V31.602H139.45V30.93H138.022V29.11L137.182 29.474V30.93H136.048V31.602H137.182ZM143.095 38V30.93H142.255V38H143.095ZM143.193 28.956V27.892H142.157V28.956H143.193ZM148.732 38.14C150.384 38.14 151.168 37.062 151.168 35.228V33.702C151.168 31.868 150.384 30.79 148.732 30.79C147.08 30.79 146.296 31.868 146.296 33.702V35.228C146.296 37.062 147.08 38.14 148.732 38.14ZM148.732 31.462C150.118 31.462 150.328 32.624 150.328 34.458C150.328 36.306 150.118 37.468 148.732 37.468C147.346 37.468 147.136 36.306 147.136 34.458C147.136 32.624 147.346 31.462 148.732 31.462ZM154.939 33.562C154.939 31.98 155.709 31.462 156.465 31.462C157.445 31.462 157.767 32.232 157.767 33.058V38H158.607V33.016C158.607 32.092 158.425 30.79 156.675 30.79C155.919 30.79 155.373 31.21 154.967 31.798H154.939V30.93H154.099V38H154.939V33.562ZM165.318 35.676C165.318 36.6 164.534 37.468 163.568 37.468C162.7 37.468 162.294 36.81 162.294 36.012C162.294 34.29 164.114 34.43 165.318 34.388V35.676ZM165.374 38H166.242C166.158 37.174 166.158 36.726 166.158 36.222V32.666C166.158 30.86 164.674 30.79 163.96 30.79C162.728 30.79 161.678 31.322 161.608 32.68H162.504C162.504 31.84 163.12 31.462 163.89 31.462C165.01 31.462 165.318 32.092 165.318 33.128V33.716C163.89 33.828 161.398 33.576 161.398 36.054C161.398 37.286 162.084 38.14 163.344 38.14C164.212 38.14 164.898 37.804 165.346 37.132H165.374V38ZM170.461 38V27.892H169.621V38H170.461ZM179.216 33.828C179.216 32.078 180.168 31.462 180.714 31.462C182.1 31.462 182.31 32.624 182.31 34.458C182.31 36.306 182.1 37.468 180.714 37.468C179.944 37.468 179.216 36.698 179.216 35.088V33.828ZM179.188 30.93H178.376V40.674H179.216V37.202L179.244 37.216C179.678 37.888 180.196 38.14 180.714 38.14C182.52 38.14 183.15 37.062 183.15 35.228V33.646C183.15 32.722 183.136 30.79 180.924 30.79C180.364 30.79 179.664 31.084 179.216 31.77L179.188 31.784V30.93ZM186.864 30.93H186.024V38H186.864V33.45C186.864 32.26 187.648 31.546 188.838 31.644V30.79C187.984 30.79 187.242 31.21 186.892 31.882H186.864V30.93ZM192.385 38V30.93H191.545V38H192.385ZM192.483 28.956V27.892H191.447V28.956H192.483ZM197.882 37.468C196.972 37.468 196.342 37.118 196.342 34.486C196.342 32.834 196.342 31.462 197.854 31.462C199.436 31.462 199.436 33.422 199.436 33.842V35.102C199.436 36.824 198.68 37.468 197.882 37.468ZM199.52 38H200.332C200.29 37.762 200.248 37.3 200.248 36.6V27.892H199.408V31.644L199.38 31.63C198.946 31.084 198.316 30.79 197.672 30.79C195.502 30.79 195.502 33.1 195.502 34.458C195.502 36.11 195.614 38.14 197.658 38.14C198.484 38.14 199.016 37.79 199.45 37.118L199.478 37.104L199.52 38ZM208.079 34.64C208.079 32.54 208.079 30.79 205.643 30.79C204.061 30.79 203.207 31.728 203.207 33.772V35.508C203.207 37.65 204.425 38.14 205.643 38.14C207.057 38.14 207.981 37.552 208.079 35.844H207.197C207.211 36.796 206.693 37.468 205.643 37.468C204.313 37.468 204.047 36.166 204.047 35.186V34.64H208.079ZM204.047 33.968C204.047 32.4 204.299 31.462 205.643 31.462C206.987 31.462 207.239 32.4 207.239 33.968H204.047ZM210.912 39.47H211.654L212.494 36.936H211.472L210.912 39.47ZM221.249 38H222.299L223.783 31.952H223.811L225.365 38H226.415L228.361 30.93H227.521L225.939 37.118H225.911L224.343 30.93H223.307L221.809 37.118H221.781L220.199 30.93H219.303L221.249 38ZM231.875 38V30.93H231.035V38H231.875ZM231.973 28.956V27.892H230.937V28.956H231.973ZM235.762 31.602V36.656C235.762 37.524 236.098 38.028 237.232 38.028C237.498 38.028 237.778 38.014 238.03 37.986V37.258C237.848 37.286 237.652 37.3 237.372 37.3C236.7 37.3 236.602 37.076 236.602 36.138V31.602H238.03V30.93H236.602V29.11L235.762 29.474V30.93H234.628V31.602H235.762ZM241.395 38V33.562C241.395 31.98 242.165 31.462 242.921 31.462C243.901 31.462 244.223 32.232 244.223 33.058V38H245.063V33.016C245.063 32.092 244.881 30.79 243.131 30.79C242.375 30.79 241.829 31.21 241.423 31.798H241.395V27.892H240.555V38H241.395ZM254.793 37.468C253.883 37.468 253.253 37.118 253.253 34.486C253.253 32.834 253.253 31.462 254.765 31.462C256.347 31.462 256.347 33.422 256.347 33.842V35.102C256.347 36.824 255.591 37.468 254.793 37.468ZM256.431 38H257.243C257.201 37.762 257.159 37.3 257.159 36.6V27.892H256.319V31.644L256.291 31.63C255.857 31.084 255.227 30.79 254.583 30.79C252.413 30.79 252.413 33.1 252.413 34.458C252.413 36.11 252.525 38.14 254.569 38.14C255.395 38.14 255.927 37.79 256.361 37.118L256.389 37.104L256.431 38ZM264.99 34.64C264.99 32.54 264.99 30.79 262.554 30.79C260.972 30.79 260.118 31.728 260.118 33.772V35.508C260.118 37.65 261.336 38.14 262.554 38.14C263.968 38.14 264.892 37.552 264.99 35.844H264.108C264.122 36.796 263.604 37.468 262.554 37.468C261.224 37.468 260.958 36.166 260.958 35.186V34.64H264.99ZM260.958 33.968C260.958 32.4 261.21 31.462 262.554 31.462C263.898 31.462 264.15 32.4 264.15 33.968H260.958ZM271.518 35.676C271.518 36.6 270.734 37.468 269.768 37.468C268.9 37.468 268.494 36.81 268.494 36.012C268.494 34.29 270.314 34.43 271.518 34.388V35.676ZM271.574 38H272.442C272.358 37.174 272.358 36.726 272.358 36.222V32.666C272.358 30.86 270.874 30.79 270.16 30.79C268.928 30.79 267.878 31.322 267.808 32.68H268.704C268.704 31.84 269.32 31.462 270.09 31.462C271.21 31.462 271.518 32.092 271.518 33.128V33.716C270.09 33.828 267.598 33.576 267.598 36.054C267.598 37.286 268.284 38.14 269.544 38.14C270.412 38.14 271.098 37.804 271.546 37.132H271.574V38ZM276.045 31.602V36.656C276.045 37.524 276.381 38.028 277.515 38.028C277.781 38.028 278.061 38.014 278.313 37.986V37.258C278.131 37.286 277.935 37.3 277.655 37.3C276.983 37.3 276.885 37.076 276.885 36.138V31.602H278.313V30.93H276.885V29.11L276.045 29.474V30.93H274.911V31.602H276.045ZM281.677 38V33.562C281.677 31.98 282.447 31.462 283.203 31.462C284.183 31.462 284.505 32.232 284.505 33.058V38H285.345V33.016C285.345 32.092 285.163 30.79 283.413 30.79C282.657 30.79 282.111 31.21 281.705 31.798H281.677V27.892H280.837V38H281.677ZM288.64 38H289.676V36.936H288.64V38Z" fill="white"/>
</svg>
