<svg width="447" height="55" viewBox="0 0 447 55" fill="none" xmlns="http://www.w3.org/2000/svg">
<rect width="447" height="55" fill="black" fill-opacity="0.69"/>
<path d="M8.106 9.892V20H9.002V9.892H8.106ZM13.1975 15.562C13.1975 13.98 13.9675 13.462 14.7235 13.462C15.7035 13.462 16.0255 14.232 16.0255 15.058V20H16.8655V15.016C16.8655 14.092 16.6835 12.79 14.9335 12.79C14.1775 12.79 13.6315 13.21 13.2255 13.798H13.1975V12.93H12.3575V20H13.1975V15.562ZM20.4822 13.602V18.656C20.4822 19.524 20.8182 20.028 21.9522 20.028C22.2182 20.028 22.4982 20.014 22.7502 19.986V19.258C22.5682 19.286 22.3722 19.3 22.0922 19.3C21.4202 19.3 21.3222 19.076 21.3222 18.138V13.602H22.7502V12.93H21.3222V11.11L20.4822 11.474V12.93H19.3482V13.602H20.4822ZM29.9647 16.64C29.9647 14.54 29.9647 12.79 27.5287 12.79C25.9467 12.79 25.0927 13.728 25.0927 15.772V17.508C25.0927 19.65 26.3107 20.14 27.5287 20.14C28.9427 20.14 29.8667 19.552 29.9647 17.844H29.0827C29.0967 18.796 28.5787 19.468 27.5287 19.468C26.1987 19.468 25.9327 18.166 25.9327 17.186V16.64H29.9647ZM25.9327 15.968C25.9327 14.4 26.1847 13.462 27.5287 13.462C28.8727 13.462 29.1247 14.4 29.1247 15.968H25.9327ZM33.7914 12.93H32.9514V20H33.7914V15.45C33.7914 14.26 34.5754 13.546 35.7654 13.644V12.79C34.9114 12.79 34.1694 13.21 33.8194 13.882H33.7914V12.93ZM38.3879 12.93H37.4779L39.5779 20H40.5439L42.6439 12.93H41.8319L40.1099 18.936H40.0819L38.3879 12.93ZM46.1533 20V12.93H45.3133V20H46.1533ZM46.2513 10.956V9.892H45.2153V10.956H46.2513ZM54.2268 16.64C54.2268 14.54 54.2268 12.79 51.7908 12.79C50.2088 12.79 49.3548 13.728 49.3548 15.772V17.508C49.3548 19.65 50.5728 20.14 51.7908 20.14C53.2048 20.14 54.1288 19.552 54.2268 17.844H53.3448C53.3588 18.796 52.8408 19.468 51.7908 19.468C50.4608 19.468 50.1948 18.166 50.1948 17.186V16.64H54.2268ZM50.1948 15.968C50.1948 14.4 50.4468 13.462 51.7908 13.462C53.1348 13.462 53.3868 14.4 53.3868 15.968H50.1948ZM58.3895 20H59.4395L60.9235 13.952H60.9515L62.5055 20H63.5555L65.5015 12.93H64.6615L63.0795 19.118H63.0515L61.4835 12.93H60.4475L58.9495 19.118H58.9215L57.3395 12.93H56.4435L58.3895 20ZM73.2949 12.93H72.4549V20H73.2949V15.45C73.2949 14.26 74.0789 13.546 75.2689 13.644V12.79C74.4149 12.79 73.6729 13.21 73.3229 13.882H73.2949V12.93ZM82.3854 16.64C82.3854 14.54 82.3854 12.79 79.9494 12.79C78.3674 12.79 77.5134 13.728 77.5134 15.772V17.508C77.5134 19.65 78.7314 20.14 79.9494 20.14C81.3634 20.14 82.2874 19.552 82.3854 17.844H81.5034C81.5174 18.796 80.9994 19.468 79.9494 19.468C78.6194 19.468 78.3534 18.166 78.3534 17.186V16.64H82.3854ZM78.3534 15.968C78.3534 14.4 78.6054 13.462 79.9494 13.462C81.2934 13.462 81.5454 14.4 81.5454 15.968H78.3534ZM85.8201 13.602V18.656C85.8201 19.524 86.1561 20.028 87.2901 20.028C87.5561 20.028 87.8361 20.014 88.0881 19.986V19.258C87.9061 19.286 87.7101 19.3 87.4301 19.3C86.7581 19.3 86.6601 19.076 86.6601 18.138V13.602H88.0881V12.93H86.6601V11.11L85.8201 11.474V12.93H84.6861V13.602H85.8201ZM91.5086 12.93H90.6686V20H91.5086V15.45C91.5086 14.26 92.2926 13.546 93.4826 13.644V12.79C92.6286 12.79 91.8866 13.21 91.5366 13.882H91.5086V12.93ZM97.0291 20V12.93H96.1891V20H97.0291ZM97.1271 10.956V9.892H96.0911V10.956H97.1271ZM100.609 12.93H99.6986L101.799 20H102.765L104.865 12.93H104.053L102.331 18.936H102.303L100.609 12.93ZM111.944 16.64C111.944 14.54 111.944 12.79 109.508 12.79C107.926 12.79 107.072 13.728 107.072 15.772V17.508C107.072 19.65 108.29 20.14 109.508 20.14C110.922 20.14 111.846 19.552 111.944 17.844H111.062C111.076 18.796 110.558 19.468 109.508 19.468C108.178 19.468 107.912 18.166 107.912 17.186V16.64H111.944ZM107.912 15.968C107.912 14.4 108.164 13.462 109.508 13.462C110.852 13.462 111.104 14.4 111.104 15.968H107.912ZM116.989 19.468C116.079 19.468 115.449 19.118 115.449 16.486C115.449 14.834 115.449 13.462 116.961 13.462C118.543 13.462 118.543 15.422 118.543 15.842V17.102C118.543 18.824 117.787 19.468 116.989 19.468ZM118.627 20H119.439C119.397 19.762 119.355 19.3 119.355 18.6V9.892H118.515V13.644L118.487 13.63C118.053 13.084 117.423 12.79 116.779 12.79C114.609 12.79 114.609 15.1 114.609 16.458C114.609 18.11 114.721 20.14 116.765 20.14C117.591 20.14 118.123 19.79 118.557 19.118L118.585 19.104L118.627 20ZM127.545 20H128.385V13.602H129.813V12.93H128.385V11.726C128.385 11.32 128.385 10.592 129.197 10.592H129.827V9.892C129.617 9.864 129.477 9.836 129.351 9.836C127.643 9.836 127.545 11.068 127.545 11.74V12.93H126.411V13.602H127.545V20ZM133.191 12.93H132.351V20H133.191V15.45C133.191 14.26 133.975 13.546 135.165 13.644V12.79C134.311 12.79 133.569 13.21 133.219 13.882H133.191V12.93ZM139.846 20.14C141.498 20.14 142.282 19.062 142.282 17.228V15.702C142.282 13.868 141.498 12.79 139.846 12.79C138.194 12.79 137.41 13.868 137.41 15.702V17.228C137.41 19.062 138.194 20.14 139.846 20.14ZM139.846 13.462C141.232 13.462 141.442 14.624 141.442 16.458C141.442 18.306 141.232 19.468 139.846 19.468C138.46 19.468 138.25 18.306 138.25 16.458C138.25 14.624 138.46 13.462 139.846 13.462ZM146.039 15.45C146.039 14.526 146.445 13.462 147.509 13.462C148.335 13.462 148.587 14.246 148.601 14.946V20H149.441V15.45C149.441 14.526 149.847 13.462 150.911 13.462C151.737 13.462 151.989 14.246 152.003 14.946V20H152.843V14.736C152.801 13.602 152.185 12.79 151.009 12.79C150.225 12.79 149.623 13.196 149.273 13.896C149.035 13.196 148.391 12.79 147.663 12.79C146.879 12.79 146.319 13.224 145.983 13.798H145.955V12.916H145.199V20H146.039V15.45ZM160.496 20H161.392V15.296H163.1C164.836 15.296 165.494 14.372 165.494 12.342C165.494 10.004 164.108 9.892 163.268 9.892H160.496V20ZM161.392 10.648H163.044C163.856 10.648 164.598 10.788 164.598 12.51C164.598 14.092 163.996 14.54 163.058 14.54H161.392V10.648ZM168.915 20V15.562C168.915 13.98 169.685 13.462 170.441 13.462C171.421 13.462 171.743 14.232 171.743 15.058V20H172.583V15.016C172.583 14.092 172.401 12.79 170.651 12.79C169.895 12.79 169.349 13.21 168.943 13.798H168.915V9.892H168.075V20H168.915ZM176.815 20V12.93H175.975V20H176.815ZM176.913 10.956V9.892H175.877V10.956H176.913ZM181.319 20V9.892H180.479V20H181.319ZM190.298 10.648H191.474C193.966 10.648 194.358 11.488 194.358 14.386C194.358 18.516 194.092 19.244 191.39 19.244H190.298V10.648ZM189.402 20H191.712C194.764 20 195.254 18.348 195.254 14.988C195.254 11.544 194.904 9.892 192.076 9.892H189.402V20ZM200.639 20.14C202.291 20.14 203.075 19.062 203.075 17.228V15.702C203.075 13.868 202.291 12.79 200.639 12.79C198.987 12.79 198.203 13.868 198.203 15.702V17.228C198.203 19.062 198.987 20.14 200.639 20.14ZM200.639 13.462C202.025 13.462 202.235 14.624 202.235 16.458C202.235 18.306 202.025 19.468 200.639 19.468C199.253 19.468 199.043 18.306 199.043 16.458C199.043 14.624 199.253 13.462 200.639 13.462ZM206.846 15.562C206.846 13.98 207.616 13.462 208.372 13.462C209.352 13.462 209.674 14.232 209.674 15.058V20H210.514V15.016C210.514 14.092 210.332 12.79 208.582 12.79C207.826 12.79 207.28 13.21 206.874 13.798H206.846V12.93H206.006V20H206.846V15.562ZM217.225 17.676C217.225 18.6 216.441 19.468 215.475 19.468C214.607 19.468 214.201 18.81 214.201 18.012C214.201 16.29 216.021 16.43 217.225 16.388V17.676ZM217.281 20H218.149C218.065 19.174 218.065 18.726 218.065 18.222V14.666C218.065 12.86 216.581 12.79 215.867 12.79C214.635 12.79 213.585 13.322 213.515 14.68H214.411C214.411 13.84 215.027 13.462 215.797 13.462C216.917 13.462 217.225 14.092 217.225 15.128V15.716C215.797 15.828 213.305 15.576 213.305 18.054C213.305 19.286 213.991 20.14 215.251 20.14C216.119 20.14 216.805 19.804 217.253 19.132H217.281V20ZM222.087 20V15.562C222.087 13.98 222.857 13.462 223.613 13.462C224.593 13.462 224.915 14.232 224.915 15.058V20H225.755V15.016C225.755 14.092 225.573 12.79 223.823 12.79C223.067 12.79 222.521 13.21 222.115 13.798H222.087V9.892H221.247V20H222.087ZM232.48 12.93V17.914C232.48 18.404 232.074 19.468 230.94 19.468C229.722 19.468 229.764 17.984 229.764 17.788V12.93H228.924V17.928C228.924 19.076 229.33 20.14 230.786 20.14C231.57 20.14 232.074 19.818 232.564 19.216H232.592V20H233.32V12.93H232.48ZM241.179 16.64C241.179 14.54 241.179 12.79 238.743 12.79C237.161 12.79 236.307 13.728 236.307 15.772V17.508C236.307 19.65 237.525 20.14 238.743 20.14C240.157 20.14 241.081 19.552 241.179 17.844H240.297C240.311 18.796 239.793 19.468 238.743 19.468C237.413 19.468 237.147 18.166 237.147 17.186V16.64H241.179ZM237.147 15.968C237.147 14.4 237.399 13.462 238.743 13.462C240.087 13.462 240.339 14.4 240.339 15.968H237.147ZM253.961 12.454C253.961 10.998 253.513 9.696 251.413 9.696C249.761 9.696 248.655 10.424 248.669 12.174C248.683 13.182 248.767 13.784 250.727 14.988C252.183 15.884 253.093 16.276 253.093 17.648C253.093 18.81 252.519 19.44 251.343 19.44C249.537 19.44 249.453 18.278 249.453 17.158H248.529C248.445 19.132 249.327 20.196 251.301 20.196C253.065 20.196 253.989 19.314 253.989 17.508C253.989 15.548 252.715 15.282 251.469 14.386C250.321 13.56 249.565 13.518 249.565 12.02C249.565 10.83 250.251 10.452 251.343 10.452C252.715 10.452 253.023 11.208 253.051 12.454H253.961ZM257.853 20V15.562C257.853 13.98 258.623 13.462 259.379 13.462C260.359 13.462 260.681 14.232 260.681 15.058V20H261.521V15.016C261.521 14.092 261.339 12.79 259.589 12.79C258.833 12.79 258.287 13.21 257.881 13.798H257.853V9.892H257.013V20H257.853ZM266.888 20.14C268.54 20.14 269.324 19.062 269.324 17.228V15.702C269.324 13.868 268.54 12.79 266.888 12.79C265.236 12.79 264.452 13.868 264.452 15.702V17.228C264.452 19.062 265.236 20.14 266.888 20.14ZM266.888 13.462C268.274 13.462 268.484 14.624 268.484 16.458C268.484 18.306 268.274 19.468 266.888 19.468C265.502 19.468 265.292 18.306 265.292 16.458C265.292 14.624 265.502 13.462 266.888 13.462ZM273.486 20H274.536L276.02 13.952H276.048L277.602 20H278.652L280.598 12.93H279.758L278.176 19.118H278.148L276.58 12.93H275.544L274.046 19.118H274.018L272.436 12.93H271.54L273.486 20ZM288.28 9.598C287.58 11.628 287.076 13.728 287.076 15.884C287.076 17.928 287.608 19.916 288.224 21.848H288.91C288.336 19.846 287.972 17.76 287.972 15.674C287.972 13.616 288.406 11.586 288.91 9.598H288.28ZM292.391 12.734C293.007 12.328 293.567 11.866 294.099 11.362V20H294.939V10.242H294.155C293.665 10.844 293.035 11.32 292.391 11.768V12.734ZM301.79 15.394C300.432 15.394 300.264 14.162 300.264 13.084C300.264 11.964 300.46 10.844 301.846 10.844C303.456 10.844 303.47 11.978 303.47 13.196C303.47 13.84 303.414 15.394 301.79 15.394ZM301.706 16.15C302.406 16.15 303.078 15.898 303.498 15.296H303.526C303.456 18.32 303.554 19.398 301.776 19.398C300.754 19.398 300.362 18.796 300.376 17.83H299.48C299.522 19.482 300.25 20.154 301.888 20.154C304.31 20.154 304.366 18.628 304.366 15.072V13.868C304.366 11.516 304.282 10.088 301.818 10.088C299.858 10.088 299.368 11.376 299.368 13.084C299.368 15.156 299.97 16.15 301.706 16.15ZM309.411 15.394C308.053 15.394 307.885 14.162 307.885 13.084C307.885 11.964 308.081 10.844 309.467 10.844C311.077 10.844 311.091 11.978 311.091 13.196C311.091 13.84 311.035 15.394 309.411 15.394ZM309.327 16.15C310.027 16.15 310.699 15.898 311.119 15.296H311.147C311.077 18.32 311.175 19.398 309.397 19.398C308.375 19.398 307.983 18.796 307.997 17.83H307.101C307.143 19.482 307.871 20.154 309.509 20.154C311.931 20.154 311.987 18.628 311.987 15.072V13.868C311.987 11.516 311.903 10.088 309.439 10.088C307.479 10.088 306.989 11.376 306.989 13.084C306.989 15.156 307.591 16.15 309.327 16.15ZM317.409 13.756C316.639 13.756 316.247 13.966 315.687 14.484V10.998H319.341V10.242H314.847V15.534H315.659C315.799 14.862 316.555 14.512 317.185 14.512C318.739 14.512 318.837 15.73 318.837 16.948C318.837 18.11 318.683 19.398 317.213 19.398C316.051 19.398 315.617 18.768 315.645 17.662H314.749C314.707 19.37 315.561 20.154 317.227 20.154C319.327 20.154 319.733 18.572 319.733 16.948C319.733 15.772 319.803 13.756 317.409 13.756ZM322.468 9.598C322.972 11.586 323.406 13.616 323.406 15.674C323.406 17.76 323.042 19.846 322.468 21.848H323.154C323.77 19.916 324.302 17.928 324.302 15.884C324.302 13.728 323.798 11.628 323.098 9.598H322.468ZM327.168 20H328.204V18.936H327.168V20ZM8.946 32.648H10.122C12.614 32.648 13.006 33.488 13.006 36.386C13.006 40.516 12.74 41.244 10.038 41.244H8.946V32.648ZM8.05 42H10.36C13.412 42 13.902 40.348 13.902 36.988C13.902 33.544 13.552 31.892 10.724 31.892H8.05V42ZM21.7233 38.64C21.7233 36.54 21.7233 34.79 19.2873 34.79C17.7053 34.79 16.8513 35.728 16.8513 37.772V39.508C16.8513 41.65 18.0693 42.14 19.2873 42.14C20.7013 42.14 21.6253 41.552 21.7233 39.844H20.8413C20.8553 40.796 20.3373 41.468 19.2873 41.468C17.9573 41.468 17.6913 40.166 17.6913 39.186V38.64H21.7233ZM17.6913 37.968C17.6913 36.4 17.9433 35.462 19.2873 35.462C20.6313 35.462 20.8833 36.4 20.8833 37.968H17.6913ZM25.494 38.36C25.494 37.296 25.662 35.462 27.02 35.462C28.574 35.462 28.616 36.834 28.616 38.486C28.616 40.138 28.574 41.468 27.02 41.468C25.494 41.468 25.494 39.48 25.494 38.36ZM25.466 42V41.146H25.494C25.844 41.804 26.446 42.14 27.272 42.14C29.33 42.14 29.456 40.012 29.456 38.458C29.456 37.198 29.638 34.79 27.342 34.79C26.544 34.79 25.984 35.084 25.55 35.756L25.522 35.728V31.892H24.682V41.3C24.682 41.538 24.64 41.762 24.598 42H25.466ZM35.8727 39.676C35.8727 40.6 35.0887 41.468 34.1227 41.468C33.2547 41.468 32.8487 40.81 32.8487 40.012C32.8487 38.29 34.6687 38.43 35.8727 38.388V39.676ZM35.9287 42H36.7967C36.7127 41.174 36.7127 40.726 36.7127 40.222V36.666C36.7127 34.86 35.2287 34.79 34.5147 34.79C33.2827 34.79 32.2327 35.322 32.1627 36.68H33.0587C33.0587 35.84 33.6747 35.462 34.4447 35.462C35.5647 35.462 35.8727 36.092 35.8727 37.128V37.716C34.4447 37.828 31.9527 37.576 31.9527 40.054C31.9527 41.286 32.6387 42.14 33.8987 42.14C34.7667 42.14 35.4527 41.804 35.9007 41.132H35.9287V42ZM40.3994 35.602V40.656C40.3994 41.524 40.7354 42.028 41.8694 42.028C42.1354 42.028 42.4154 42.014 42.6674 41.986V41.258C42.4854 41.286 42.2894 41.3 42.0094 41.3C41.3374 41.3 41.2394 41.076 41.2394 40.138V35.602H42.6674V34.93H41.2394V33.11L40.3994 33.474V34.93H39.2654V35.602H40.3994ZM49.8819 38.64C49.8819 36.54 49.8819 34.79 47.4459 34.79C45.8639 34.79 45.0099 35.728 45.0099 37.772V39.508C45.0099 41.65 46.2279 42.14 47.4459 42.14C48.8599 42.14 49.7839 41.552 49.8819 39.844H48.9999C49.0139 40.796 48.4959 41.468 47.4459 41.468C46.1159 41.468 45.8499 40.166 45.8499 39.186V38.64H49.8819ZM45.8499 37.968C45.8499 36.4 46.1019 35.462 47.4459 35.462C48.7899 35.462 49.0419 36.4 49.0419 37.968H45.8499ZM59.5701 42.14C61.2221 42.14 62.0061 41.062 62.0061 39.228V37.702C62.0061 35.868 61.2221 34.79 59.5701 34.79C57.9181 34.79 57.1341 35.868 57.1341 37.702V39.228C57.1341 41.062 57.9181 42.14 59.5701 42.14ZM59.5701 35.462C60.9561 35.462 61.1661 36.624 61.1661 38.458C61.1661 40.306 60.9561 41.468 59.5701 41.468C58.1841 41.468 57.9741 40.306 57.9741 38.458C57.9741 36.624 58.1841 35.462 59.5701 35.462ZM65.1328 34.93H64.2228L66.3228 42H67.2888L69.3888 34.93H68.5768L66.8548 40.936H66.8268L65.1328 34.93ZM76.4682 38.64C76.4682 36.54 76.4682 34.79 74.0322 34.79C72.4502 34.79 71.5962 35.728 71.5962 37.772V39.508C71.5962 41.65 72.8142 42.14 74.0322 42.14C75.4462 42.14 76.3702 41.552 76.4682 39.844H75.5862C75.6002 40.796 75.0822 41.468 74.0322 41.468C72.7022 41.468 72.4362 40.166 72.4362 39.186V38.64H76.4682ZM72.4362 37.968C72.4362 36.4 72.6882 35.462 74.0322 35.462C75.3762 35.462 75.6282 36.4 75.6282 37.968H72.4362ZM80.2949 34.93H79.4549V42H80.2949V37.45C80.2949 36.26 81.0789 35.546 82.2689 35.644V34.79C81.4149 34.79 80.6729 35.21 80.3229 35.882H80.2949V34.93ZM89.7029 35.602V40.656C89.7029 41.524 90.0389 42.028 91.1729 42.028C91.4389 42.028 91.7189 42.014 91.9709 41.986V41.258C91.7889 41.286 91.5929 41.3 91.3129 41.3C90.6409 41.3 90.5429 41.076 90.5429 40.138V35.602H91.9709V34.93H90.5429V33.11L89.7029 33.474V34.93H88.5689V35.602H89.7029ZM95.3354 42V37.562C95.3354 35.98 96.1054 35.462 96.8614 35.462C97.8414 35.462 98.1634 36.232 98.1634 37.058V42H99.0034V37.016C99.0034 36.092 98.8214 34.79 97.0714 34.79C96.3154 34.79 95.7694 35.21 95.3634 35.798H95.3354V31.892H94.4954V42H95.3354ZM106.806 38.64C106.806 36.54 106.806 34.79 104.37 34.79C102.788 34.79 101.934 35.728 101.934 37.772V39.508C101.934 41.65 103.152 42.14 104.37 42.14C105.784 42.14 106.708 41.552 106.806 39.844H105.924C105.938 40.796 105.42 41.468 104.37 41.468C103.04 41.468 102.774 40.166 102.774 39.186V38.64H106.806ZM102.774 37.968C102.774 36.4 103.026 35.462 104.37 35.462C105.714 35.462 105.966 36.4 105.966 37.968H102.774ZM115.36 42V34.93H114.52V42H115.36ZM115.458 32.956V31.892H114.422V32.956H115.458ZM119.584 37.562C119.584 35.98 120.354 35.462 121.11 35.462C122.09 35.462 122.412 36.232 122.412 37.058V42H123.252V37.016C123.252 36.092 123.07 34.79 121.32 34.79C120.564 34.79 120.018 35.21 119.612 35.798H119.584V34.93H118.744V42H119.584V37.562ZM126.911 42H127.751V35.602H129.179V34.93H127.751V33.726C127.751 33.32 127.751 32.592 128.563 32.592H129.193V31.892C128.983 31.864 128.843 31.836 128.717 31.836C127.009 31.836 126.911 33.068 126.911 33.74V34.93H125.777V35.602H126.911V42ZM130.663 42V31.892H129.823V42H130.663ZM137.597 34.93V39.914C137.597 40.404 137.191 41.468 136.057 41.468C134.839 41.468 134.881 39.984 134.881 39.788V34.93H134.041V39.928C134.041 41.076 134.447 42.14 135.903 42.14C136.687 42.14 137.191 41.818 137.681 41.216H137.709V42H138.437V34.93H137.597ZM146.296 38.64C146.296 36.54 146.296 34.79 143.86 34.79C142.278 34.79 141.424 35.728 141.424 37.772V39.508C141.424 41.65 142.642 42.14 143.86 42.14C145.274 42.14 146.198 41.552 146.296 39.844H145.414C145.428 40.796 144.91 41.468 143.86 41.468C142.53 41.468 142.264 40.166 142.264 39.186V38.64H146.296ZM142.264 37.968C142.264 36.4 142.516 35.462 143.86 35.462C145.204 35.462 145.456 36.4 145.456 37.968H142.264ZM150.067 37.562C150.067 35.98 150.837 35.462 151.593 35.462C152.573 35.462 152.895 36.232 152.895 37.058V42H153.735V37.016C153.735 36.092 153.553 34.79 151.803 34.79C151.047 34.79 150.501 35.21 150.095 35.798H150.067V34.93H149.227V42H150.067V37.562ZM160.837 36.96C160.907 35.476 160.081 34.79 158.863 34.79C157.897 34.79 157.099 35.154 156.735 36.162C156.553 36.694 156.525 37.8 156.525 38.5C156.525 40.25 156.525 42.14 158.919 42.14C159.577 42.14 160.921 41.818 160.851 39.914H160.011C159.969 40.768 159.829 41.468 158.723 41.468C157.421 41.468 157.421 39.774 157.421 38.5C157.421 37.562 157.505 36.596 157.617 36.274C157.799 35.756 158.233 35.462 158.751 35.462C159.717 35.462 160.039 36.078 159.997 36.96H160.837ZM168.379 38.64C168.379 36.54 168.379 34.79 165.943 34.79C164.361 34.79 163.507 35.728 163.507 37.772V39.508C163.507 41.65 164.725 42.14 165.943 42.14C167.357 42.14 168.281 41.552 168.379 39.844H167.497C167.511 40.796 166.993 41.468 165.943 41.468C164.613 41.468 164.347 40.166 164.347 39.186V38.64H168.379ZM164.347 37.968C164.347 36.4 164.599 35.462 165.943 35.462C167.287 35.462 167.539 36.4 167.539 37.968H164.347ZM178.067 42.14C179.719 42.14 180.503 41.062 180.503 39.228V37.702C180.503 35.868 179.719 34.79 178.067 34.79C176.415 34.79 175.631 35.868 175.631 37.702V39.228C175.631 41.062 176.415 42.14 178.067 42.14ZM178.067 35.462C179.453 35.462 179.663 36.624 179.663 38.458C179.663 40.306 179.453 41.468 178.067 41.468C176.681 41.468 176.471 40.306 176.471 38.458C176.471 36.624 176.681 35.462 178.067 35.462ZM183.98 42H184.82V35.602H186.248V34.93H184.82V33.726C184.82 33.32 184.82 32.592 185.632 32.592H186.262V31.892C186.052 31.864 185.912 31.836 185.786 31.836C184.078 31.836 183.98 33.068 183.98 33.74V34.93H182.846V35.602H183.98V42ZM194.074 42V37.562C194.074 35.98 194.844 35.462 195.6 35.462C196.58 35.462 196.902 36.232 196.902 37.058V42H197.742V37.016C197.742 36.092 197.56 34.79 195.81 34.79C195.054 34.79 194.508 35.21 194.102 35.798H194.074V31.892H193.234V42H194.074ZM205.544 38.64C205.544 36.54 205.544 34.79 203.108 34.79C201.526 34.79 200.672 35.728 200.672 37.772V39.508C200.672 41.65 201.89 42.14 203.108 42.14C204.522 42.14 205.446 41.552 205.544 39.844H204.662C204.676 40.796 204.158 41.468 203.108 41.468C201.778 41.468 201.512 40.166 201.512 39.186V38.64H205.544ZM201.512 37.968C201.512 36.4 201.764 35.462 203.108 35.462C204.452 35.462 204.704 36.4 204.704 37.968H201.512ZM212.073 39.676C212.073 40.6 211.289 41.468 210.323 41.468C209.455 41.468 209.049 40.81 209.049 40.012C209.049 38.29 210.869 38.43 212.073 38.388V39.676ZM212.129 42H212.997C212.913 41.174 212.913 40.726 212.913 40.222V36.666C212.913 34.86 211.429 34.79 210.715 34.79C209.483 34.79 208.433 35.322 208.363 36.68H209.259C209.259 35.84 209.875 35.462 210.645 35.462C211.765 35.462 212.073 36.092 212.073 37.128V37.716C210.645 37.828 208.153 37.576 208.153 40.054C208.153 41.286 208.839 42.14 210.099 42.14C210.967 42.14 211.653 41.804 212.101 41.132H212.129V42ZM216.292 34.93H215.382L217.482 42H218.448L220.548 34.93H219.736L218.014 40.936H217.986L216.292 34.93ZM223.637 44.674H224.463L227.389 34.93H226.549L224.883 40.726H224.855L223.133 34.93H222.223L224.463 42.014L223.637 44.674ZM235.108 37.45C235.108 36.526 235.514 35.462 236.578 35.462C237.404 35.462 237.656 36.246 237.67 36.946V42H238.51V37.45C238.51 36.526 238.916 35.462 239.98 35.462C240.806 35.462 241.058 36.246 241.072 36.946V42H241.912V36.736C241.87 35.602 241.254 34.79 240.078 34.79C239.294 34.79 238.692 35.196 238.342 35.896C238.104 35.196 237.46 34.79 236.732 34.79C235.948 34.79 235.388 35.224 235.052 35.798H235.024V34.916H234.268V42H235.108V37.45ZM249.71 38.64C249.71 36.54 249.71 34.79 247.274 34.79C245.692 34.79 244.838 35.728 244.838 37.772V39.508C244.838 41.65 246.056 42.14 247.274 42.14C248.688 42.14 249.612 41.552 249.71 39.844H248.828C248.842 40.796 248.324 41.468 247.274 41.468C245.944 41.468 245.678 40.166 245.678 39.186V38.64H249.71ZM245.678 37.968C245.678 36.4 245.93 35.462 247.274 35.462C248.618 35.462 248.87 36.4 248.87 37.968H245.678ZM253.145 35.602V40.656C253.145 41.524 253.481 42.028 254.615 42.028C254.881 42.028 255.161 42.014 255.413 41.986V41.258C255.231 41.286 255.035 41.3 254.755 41.3C254.083 41.3 253.985 41.076 253.985 40.138V35.602H255.413V34.93H253.985V33.11L253.145 33.474V34.93H252.011V35.602H253.145ZM261.535 39.676C261.535 40.6 260.751 41.468 259.785 41.468C258.917 41.468 258.511 40.81 258.511 40.012C258.511 38.29 260.331 38.43 261.535 38.388V39.676ZM261.591 42H262.459C262.375 41.174 262.375 40.726 262.375 40.222V36.666C262.375 34.86 260.891 34.79 260.177 34.79C258.945 34.79 257.895 35.322 257.825 36.68H258.721C258.721 35.84 259.337 35.462 260.107 35.462C261.227 35.462 261.535 36.092 261.535 37.128V37.716C260.107 37.828 257.615 37.576 257.615 40.054C257.615 41.286 258.301 42.14 259.561 42.14C260.429 42.14 261.115 41.804 261.563 41.132H261.591V42ZM266.678 42V31.892H265.838V42H266.678ZM275.405 38.36C275.405 37.296 275.573 35.462 276.931 35.462C278.485 35.462 278.527 36.834 278.527 38.486C278.527 40.138 278.485 41.468 276.931 41.468C275.405 41.468 275.405 39.48 275.405 38.36ZM275.377 42V41.146H275.405C275.755 41.804 276.357 42.14 277.183 42.14C279.241 42.14 279.367 40.012 279.367 38.458C279.367 37.198 279.549 34.79 277.253 34.79C276.455 34.79 275.895 35.084 275.461 35.756L275.433 35.728V31.892H274.593V41.3C274.593 41.538 274.551 41.762 274.509 42H275.377ZM285.784 39.676C285.784 40.6 285 41.468 284.034 41.468C283.166 41.468 282.76 40.81 282.76 40.012C282.76 38.29 284.58 38.43 285.784 38.388V39.676ZM285.84 42H286.708C286.624 41.174 286.624 40.726 286.624 40.222V36.666C286.624 34.86 285.14 34.79 284.426 34.79C283.194 34.79 282.144 35.322 282.074 36.68H282.97C282.97 35.84 283.586 35.462 284.356 35.462C285.476 35.462 285.784 36.092 285.784 37.128V37.716C284.356 37.828 281.864 37.576 281.864 40.054C281.864 41.286 282.55 42.14 283.81 42.14C284.678 42.14 285.364 41.804 285.812 41.132H285.84V42ZM290.646 37.562C290.646 35.98 291.416 35.462 292.172 35.462C293.152 35.462 293.474 36.232 293.474 37.058V42H294.314V37.016C294.314 36.092 294.132 34.79 292.382 34.79C291.626 34.79 291.08 35.21 290.674 35.798H290.646V34.93H289.806V42H290.646V37.562ZM299.541 41.468C298.631 41.468 298.001 41.118 298.001 38.486C298.001 36.834 298.001 35.462 299.513 35.462C301.095 35.462 301.095 37.422 301.095 37.842V39.102C301.095 40.824 300.339 41.468 299.541 41.468ZM301.179 42H301.991C301.949 41.762 301.907 41.3 301.907 40.6V31.892H301.067V35.644L301.039 35.63C300.605 35.084 299.975 34.79 299.331 34.79C297.161 34.79 297.161 37.1 297.161 38.458C297.161 40.11 297.273 42.14 299.317 42.14C300.143 42.14 300.675 41.79 301.109 41.118L301.137 41.104L301.179 42ZM309.01 40.138C309.01 37.772 305.832 38.248 305.832 36.484C305.832 35.854 306.308 35.462 306.91 35.462C307.862 35.462 308.1 35.938 308.142 36.834H308.968C308.968 35.756 308.52 34.79 307.12 34.79C305.888 34.79 304.992 35.252 304.992 36.554C304.992 38.892 308.17 38.416 308.17 40.264C308.17 41.048 307.778 41.51 306.966 41.51C305.888 41.51 305.664 40.866 305.664 39.9H304.81C304.796 41.398 305.398 42.14 306.924 42.14C308.24 42.14 309.01 41.468 309.01 40.138ZM318.647 42.14C320.299 42.14 321.083 41.062 321.083 39.228V37.702C321.083 35.868 320.299 34.79 318.647 34.79C316.995 34.79 316.211 35.868 316.211 37.702V39.228C316.211 41.062 316.995 42.14 318.647 42.14ZM318.647 35.462C320.033 35.462 320.243 36.624 320.243 38.458C320.243 40.306 320.033 41.468 318.647 41.468C317.261 41.468 317.051 40.306 317.051 38.458C317.051 36.624 317.261 35.462 318.647 35.462ZM324.853 37.562C324.853 35.98 325.623 35.462 326.379 35.462C327.359 35.462 327.681 36.232 327.681 37.058V42H328.521V37.016C328.521 36.092 328.339 34.79 326.589 34.79C325.833 34.79 325.287 35.21 324.881 35.798H324.853V34.93H324.013V42H324.853V37.562ZM340.828 38.64C340.828 36.54 340.828 34.79 338.392 34.79C336.81 34.79 335.956 35.728 335.956 37.772V39.508C335.956 41.65 337.174 42.14 338.392 42.14C339.806 42.14 340.73 41.552 340.828 39.844H339.946C339.96 40.796 339.442 41.468 338.392 41.468C337.062 41.468 336.796 40.166 336.796 39.186V38.64H340.828ZM336.796 37.968C336.796 36.4 337.048 35.462 338.392 35.462C339.736 35.462 339.988 36.4 339.988 37.968H336.796ZM347.356 39.676C347.356 40.6 346.572 41.468 345.606 41.468C344.738 41.468 344.332 40.81 344.332 40.012C344.332 38.29 346.152 38.43 347.356 38.388V39.676ZM347.412 42H348.28C348.196 41.174 348.196 40.726 348.196 40.222V36.666C348.196 34.86 346.712 34.79 345.998 34.79C344.766 34.79 343.716 35.322 343.646 36.68H344.542C344.542 35.84 345.158 35.462 345.928 35.462C347.048 35.462 347.356 36.092 347.356 37.128V37.716C345.928 37.828 343.436 37.576 343.436 40.054C343.436 41.286 344.122 42.14 345.382 42.14C346.25 42.14 346.936 41.804 347.384 41.132H347.412V42ZM352.275 34.93H351.435V42H352.275V37.45C352.275 36.26 353.059 35.546 354.249 35.644V34.79C353.395 34.79 352.653 35.21 352.303 35.882H352.275V34.93ZM357.795 42V31.892H356.955V42H357.795ZM361.879 44.674H362.705L365.631 34.93H364.791L363.125 40.726H363.097L361.375 34.93H360.465L362.705 42.014L361.879 44.674ZM373.028 35.602V40.656C373.028 41.524 373.364 42.028 374.498 42.028C374.764 42.028 375.044 42.014 375.296 41.986V41.258C375.114 41.286 374.918 41.3 374.638 41.3C373.966 41.3 373.868 41.076 373.868 40.138V35.602H375.296V34.93H373.868V33.11L373.028 33.474V34.93H371.894V35.602H373.028ZM382.51 38.64C382.51 36.54 382.51 34.79 380.074 34.79C378.492 34.79 377.638 35.728 377.638 37.772V39.508C377.638 41.65 378.856 42.14 380.074 42.14C381.488 42.14 382.412 41.552 382.51 39.844H381.628C381.642 40.796 381.124 41.468 380.074 41.468C378.744 41.468 378.478 40.166 378.478 39.186V38.64H382.51ZM378.478 37.968C378.478 36.4 378.73 35.462 380.074 35.462C381.418 35.462 381.67 36.4 381.67 37.968H378.478ZM390.131 38.64C390.131 36.54 390.131 34.79 387.695 34.79C386.113 34.79 385.259 35.728 385.259 37.772V39.508C385.259 41.65 386.477 42.14 387.695 42.14C389.109 42.14 390.033 41.552 390.131 39.844H389.249C389.263 40.796 388.745 41.468 387.695 41.468C386.365 41.468 386.099 40.166 386.099 39.186V38.64H390.131ZM386.099 37.968C386.099 36.4 386.351 35.462 387.695 35.462C389.039 35.462 389.291 36.4 389.291 37.968H386.099ZM393.902 37.562C393.902 35.98 394.672 35.462 395.428 35.462C396.408 35.462 396.73 36.232 396.73 37.058V42H397.57V37.016C397.57 36.092 397.388 34.79 395.638 34.79C394.882 34.79 394.336 35.21 393.93 35.798H393.902V34.93H393.062V42H393.902V37.562ZM404.281 39.676C404.281 40.6 403.497 41.468 402.531 41.468C401.663 41.468 401.257 40.81 401.257 40.012C401.257 38.29 403.077 38.43 404.281 38.388V39.676ZM404.337 42H405.205C405.121 41.174 405.121 40.726 405.121 40.222V36.666C405.121 34.86 403.637 34.79 402.923 34.79C401.691 34.79 400.641 35.322 400.571 36.68H401.467C401.467 35.84 402.083 35.462 402.853 35.462C403.973 35.462 404.281 36.092 404.281 37.128V37.716C402.853 37.828 400.361 37.576 400.361 40.054C400.361 41.286 401.047 42.14 402.307 42.14C403.175 42.14 403.861 41.804 404.309 41.132H404.337V42ZM410.361 35.462C411.145 35.462 411.943 36.022 411.943 37.506C411.943 39.578 411.887 39.9 411.677 40.446C411.551 40.782 411.103 41.244 410.403 41.244C408.877 41.244 408.877 39.774 408.877 38.304C408.877 37.254 408.905 35.462 410.361 35.462ZM411.999 35.812L411.971 35.784C411.663 35.154 410.949 34.79 410.235 34.79C408.807 34.79 408.317 35.896 408.247 36.19C408.051 36.946 408.037 36.96 408.037 38.598C408.037 40.166 408.177 41.916 410.207 41.916C410.879 41.916 411.551 41.664 411.915 41.062H411.943C411.943 43.176 412.041 44.058 410.403 44.058C409.619 44.058 409.017 43.582 409.073 42.77H408.233C408.177 43.484 408.527 44.73 410.291 44.73C412.307 44.73 412.783 43.806 412.783 42.252V36.302C412.783 35.938 412.797 35.588 412.825 34.916H411.999V35.812ZM420.614 38.64C420.614 36.54 420.614 34.79 418.178 34.79C416.596 34.79 415.742 35.728 415.742 37.772V39.508C415.742 41.65 416.96 42.14 418.178 42.14C419.592 42.14 420.516 41.552 420.614 39.844H419.732C419.746 40.796 419.228 41.468 418.178 41.468C416.848 41.468 416.582 40.166 416.582 39.186V38.64H420.614ZM416.582 37.968C416.582 36.4 416.834 35.462 418.178 35.462C419.522 35.462 419.774 36.4 419.774 37.968H416.582ZM424.441 34.93H423.601V42H424.441V37.45C424.441 36.26 425.225 35.546 426.415 35.644V34.79C425.561 34.79 424.819 35.21 424.469 35.882H424.441V34.93ZM432.803 40.138C432.803 37.772 429.625 38.248 429.625 36.484C429.625 35.854 430.101 35.462 430.703 35.462C431.655 35.462 431.893 35.938 431.935 36.834H432.761C432.761 35.756 432.313 34.79 430.913 34.79C429.681 34.79 428.785 35.252 428.785 36.554C428.785 38.892 431.963 38.416 431.963 40.264C431.963 41.048 431.571 41.51 430.759 41.51C429.681 41.51 429.457 40.866 429.457 39.9H428.603C428.589 41.398 429.191 42.14 430.717 42.14C432.033 42.14 432.803 41.468 432.803 40.138ZM435.865 42H436.901V40.936H435.865V42Z" fill="white"/>
</svg>
