<svg width="364" height="39" viewBox="0 0 364 39" fill="none" xmlns="http://www.w3.org/2000/svg">
<rect width="364" height="39" fill="black" fill-opacity="0.69"/>
<path d="M9.834 13.892H8.938V20.906C8.938 23.51 10.31 24.196 11.892 24.196C13.474 24.196 14.846 23.51 14.846 20.906V13.892H13.95V20.248C13.95 21.564 13.95 23.44 11.892 23.44C9.834 23.44 9.834 21.564 9.834 20.248V13.892ZM18.2153 24H19.2513V22.936H18.2153V24ZM27.8848 16.454C27.8848 14.998 27.4368 13.696 25.3368 13.696C23.6848 13.696 22.5788 14.424 22.5928 16.174C22.6068 17.182 22.6908 17.784 24.6508 18.988C26.1068 19.884 27.0168 20.276 27.0168 21.648C27.0168 22.81 26.4428 23.44 25.2668 23.44C23.4608 23.44 23.3768 22.278 23.3768 21.158H22.4528C22.3688 23.132 23.2508 24.196 25.2248 24.196C26.9888 24.196 27.9128 23.314 27.9128 21.508C27.9128 19.548 26.6388 19.282 25.3928 18.386C24.2448 17.56 23.4888 17.518 23.4888 16.02C23.4888 14.83 24.1748 14.452 25.2668 14.452C26.6388 14.452 26.9468 15.208 26.9748 16.454H27.8848ZM37.9603 13.892L34.7683 24H35.6643L36.4623 21.34H40.4243L41.2363 24H42.1743L39.0243 13.892H37.9603ZM36.7283 20.584L38.4363 14.872H38.4643L40.1863 20.584H36.7283ZM45.5156 16.93H44.6756V24H45.5156V19.45C45.5156 18.26 46.2996 17.546 47.4896 17.644V16.79C46.6356 16.79 45.8936 17.21 45.5436 17.882H45.5156V16.93ZM50.7421 19.45C50.7421 18.526 51.1481 17.462 52.2121 17.462C53.0381 17.462 53.2901 18.246 53.3041 18.946V24H54.1441V19.45C54.1441 18.526 54.5501 17.462 55.6141 17.462C56.4401 17.462 56.6921 18.246 56.7061 18.946V24H57.5461V18.736C57.5041 17.602 56.8881 16.79 55.7121 16.79C54.9281 16.79 54.3261 17.196 53.9761 17.896C53.7381 17.196 53.0941 16.79 52.3661 16.79C51.5821 16.79 51.0221 17.224 50.6861 17.798H50.6581V16.916H49.9021V24H50.7421V19.45ZM61.354 26.674H62.18L65.106 16.93H64.266L62.6 22.726H62.572L60.85 16.93H59.94L62.18 24.014L61.354 26.674ZM75.9889 18.96C76.0589 17.476 75.2329 16.79 74.0149 16.79C73.0489 16.79 72.2509 17.154 71.8869 18.162C71.7049 18.694 71.6769 19.8 71.6769 20.5C71.6769 22.25 71.6769 24.14 74.0709 24.14C74.7289 24.14 76.0729 23.818 76.0029 21.914H75.1629C75.1209 22.768 74.9809 23.468 73.8749 23.468C72.5729 23.468 72.5729 21.774 72.5729 20.5C72.5729 19.562 72.6569 18.596 72.7689 18.274C72.9509 17.756 73.3849 17.462 73.9029 17.462C74.8689 17.462 75.1909 18.078 75.1489 18.96H75.9889ZM81.0943 24.14C82.7463 24.14 83.5303 23.062 83.5303 21.228V19.702C83.5303 17.868 82.7463 16.79 81.0943 16.79C79.4423 16.79 78.6583 17.868 78.6583 19.702V21.228C78.6583 23.062 79.4423 24.14 81.0943 24.14ZM81.0943 17.462C82.4803 17.462 82.6903 18.624 82.6903 20.458C82.6903 22.306 82.4803 23.468 81.0943 23.468C79.7083 23.468 79.4983 22.306 79.4983 20.458C79.4983 18.624 79.7083 17.462 81.0943 17.462ZM87.287 19.45C87.287 18.526 87.693 17.462 88.757 17.462C89.583 17.462 89.835 18.246 89.849 18.946V24H90.689V19.45C90.689 18.526 91.095 17.462 92.159 17.462C92.985 17.462 93.237 18.246 93.251 18.946V24H94.091V18.736C94.049 17.602 93.433 16.79 92.257 16.79C91.473 16.79 90.871 17.196 90.521 17.896C90.283 17.196 89.639 16.79 88.911 16.79C88.127 16.79 87.567 17.224 87.231 17.798H87.203V16.916H86.447V24H87.287V19.45ZM98.0249 19.45C98.0249 18.526 98.4309 17.462 99.4949 17.462C100.321 17.462 100.573 18.246 100.587 18.946V24H101.427V19.45C101.427 18.526 101.833 17.462 102.897 17.462C103.723 17.462 103.975 18.246 103.989 18.946V24H104.829V18.736C104.787 17.602 104.171 16.79 102.995 16.79C102.211 16.79 101.609 17.196 101.259 17.896C101.021 17.196 100.377 16.79 99.6489 16.79C98.8649 16.79 98.3049 17.224 97.9689 17.798H97.9409V16.916H97.1849V24H98.0249V19.45ZM112.627 20.64C112.627 18.54 112.627 16.79 110.191 16.79C108.609 16.79 107.755 17.728 107.755 19.772V21.508C107.755 23.65 108.973 24.14 110.191 24.14C111.605 24.14 112.529 23.552 112.627 21.844H111.745C111.759 22.796 111.241 23.468 110.191 23.468C108.861 23.468 108.595 22.166 108.595 21.186V20.64H112.627ZM108.595 19.968C108.595 18.4 108.847 17.462 110.191 17.462C111.535 17.462 111.787 18.4 111.787 19.968H108.595ZM116.454 16.93H115.614V24H116.454V19.45C116.454 18.26 117.238 17.546 118.428 17.644V16.79C117.574 16.79 116.832 17.21 116.482 17.882H116.454V16.93ZM124.844 18.96C124.914 17.476 124.088 16.79 122.87 16.79C121.904 16.79 121.106 17.154 120.742 18.162C120.56 18.694 120.532 19.8 120.532 20.5C120.532 22.25 120.532 24.14 122.926 24.14C123.584 24.14 124.928 23.818 124.858 21.914H124.018C123.976 22.768 123.836 23.468 122.73 23.468C121.428 23.468 121.428 21.774 121.428 20.5C121.428 19.562 121.512 18.596 121.624 18.274C121.806 17.756 122.24 17.462 122.758 17.462C123.724 17.462 124.046 18.078 124.004 18.96H124.844ZM128.815 24V16.93H127.975V24H128.815ZM128.913 14.956V13.892H127.877V14.956H128.913ZM135.797 21.676C135.797 22.6 135.013 23.468 134.047 23.468C133.179 23.468 132.773 22.81 132.773 22.012C132.773 20.29 134.593 20.43 135.797 20.388V21.676ZM135.853 24H136.721C136.637 23.174 136.637 22.726 136.637 22.222V18.666C136.637 16.86 135.153 16.79 134.439 16.79C133.207 16.79 132.157 17.322 132.087 18.68H132.983C132.983 17.84 133.599 17.462 134.369 17.462C135.489 17.462 135.797 18.092 135.797 19.128V19.716C134.369 19.828 131.877 19.576 131.877 22.054C131.877 23.286 132.563 24.14 133.823 24.14C134.691 24.14 135.377 23.804 135.825 23.132H135.853V24ZM140.94 24V13.892H140.1V24H140.94ZM151.333 20.668V19.87H148.505V20.668H151.333ZM159.621 18.386V14.648H161.399C162.113 14.648 163.037 14.676 163.037 16.356C163.037 17.504 162.631 18.386 161.343 18.386H159.621ZM161.581 24C163.275 24 164.143 23.006 164.143 21.186C164.143 19.912 163.793 19.03 162.463 18.75V18.722C163.737 18.372 163.933 17.532 163.933 16.314C163.933 14.536 163.121 13.892 161.539 13.892H158.725V24H161.581ZM159.621 19.142H161.441C162.981 19.142 163.247 20.36 163.247 21.256C163.247 22.74 162.533 23.244 161.049 23.244H159.621V19.142ZM171.717 20.64C171.717 18.54 171.717 16.79 169.281 16.79C167.699 16.79 166.845 17.728 166.845 19.772V21.508C166.845 23.65 168.063 24.14 169.281 24.14C170.695 24.14 171.619 23.552 171.717 21.844H170.835C170.849 22.796 170.331 23.468 169.281 23.468C167.951 23.468 167.685 22.166 167.685 21.186V20.64H171.717ZM167.685 19.968C167.685 18.4 167.937 17.462 169.281 17.462C170.625 17.462 170.877 18.4 170.877 19.968H167.685ZM181.671 13.892L178.479 24H179.375L180.173 21.34H184.135L184.947 24H185.885L182.735 13.892H181.671ZM180.439 20.584L182.147 14.872H182.175L183.897 20.584H180.439ZM189.45 24V13.892H188.61V24H189.45ZM193.954 24V13.892H193.114V24H193.954ZM203.647 24H204.543V14.648H207.007V13.892H201.183V14.648H203.647V24ZM210.301 24V19.562C210.301 17.98 211.071 17.462 211.827 17.462C212.807 17.462 213.129 18.232 213.129 19.058V24H213.969V19.016C213.969 18.092 213.787 16.79 212.037 16.79C211.281 16.79 210.735 17.21 210.329 17.798H210.301V13.892H209.461V24H210.301ZM220.68 21.676C220.68 22.6 219.896 23.468 218.93 23.468C218.062 23.468 217.656 22.81 217.656 22.012C217.656 20.29 219.476 20.43 220.68 20.388V21.676ZM220.736 24H221.604C221.52 23.174 221.52 22.726 221.52 22.222V18.666C221.52 16.86 220.036 16.79 219.322 16.79C218.09 16.79 217.04 17.322 216.97 18.68H217.866C217.866 17.84 218.482 17.462 219.252 17.462C220.372 17.462 220.68 18.092 220.68 19.128V19.716C219.252 19.828 216.76 19.576 216.76 22.054C216.76 23.286 217.446 24.14 218.706 24.14C219.574 24.14 220.26 23.804 220.708 23.132H220.736V24ZM225.207 17.602V22.656C225.207 23.524 225.543 24.028 226.677 24.028C226.943 24.028 227.223 24.014 227.475 23.986V23.258C227.293 23.286 227.097 23.3 226.817 23.3C226.145 23.3 226.047 23.076 226.047 22.138V17.602H227.475V16.93H226.047V15.11L225.207 15.474V16.93H224.073V17.602H225.207ZM236.687 24H237.583V19.8L240.467 13.892H239.571L237.149 18.918L234.839 13.892H233.831L236.687 19.8V24ZM244.391 24.14C246.043 24.14 246.827 23.062 246.827 21.228V19.702C246.827 17.868 246.043 16.79 244.391 16.79C242.739 16.79 241.955 17.868 241.955 19.702V21.228C241.955 23.062 242.739 24.14 244.391 24.14ZM244.391 17.462C245.777 17.462 245.987 18.624 245.987 20.458C245.987 22.306 245.777 23.468 244.391 23.468C243.005 23.468 242.795 22.306 242.795 20.458C242.795 18.624 243.005 17.462 244.391 17.462ZM253.37 16.93V21.914C253.37 22.404 252.964 23.468 251.83 23.468C250.612 23.468 250.654 21.984 250.654 21.788V16.93H249.814V21.928C249.814 23.076 250.22 24.14 251.676 24.14C252.46 24.14 252.964 23.818 253.454 23.216H253.482V24H254.21V16.93H253.37ZM264.878 24.196C267.272 24.196 267.44 21.83 267.44 21.102H266.488C266.474 22.404 266.04 23.44 264.878 23.44C262.75 23.44 262.722 21.634 262.722 18.946C262.722 16.258 262.75 14.452 264.878 14.452C266.166 14.452 266.474 15.502 266.474 16.622H267.37C267.37 15.712 267.328 13.696 264.878 13.696C261.854 13.696 261.826 16.216 261.826 18.946C261.826 21.676 261.854 24.196 264.878 24.196ZM273.88 21.676C273.88 22.6 273.096 23.468 272.13 23.468C271.262 23.468 270.856 22.81 270.856 22.012C270.856 20.29 272.676 20.43 273.88 20.388V21.676ZM273.936 24H274.804C274.72 23.174 274.72 22.726 274.72 22.222V18.666C274.72 16.86 273.236 16.79 272.522 16.79C271.29 16.79 270.24 17.322 270.17 18.68H271.066C271.066 17.84 271.682 17.462 272.452 17.462C273.572 17.462 273.88 18.092 273.88 19.128V19.716C272.452 19.828 269.96 19.576 269.96 22.054C269.96 23.286 270.646 24.14 271.906 24.14C272.774 24.14 273.46 23.804 273.908 23.132H273.936V24ZM278.743 19.562C278.743 17.98 279.513 17.462 280.269 17.462C281.249 17.462 281.571 18.232 281.571 19.058V24H282.411V19.016C282.411 18.092 282.229 16.79 280.479 16.79C279.723 16.79 279.177 17.21 278.771 17.798H278.743V16.93H277.903V24H278.743V19.562ZM291.021 18.386V14.648H292.799C293.513 14.648 294.437 14.676 294.437 16.356C294.437 17.504 294.031 18.386 292.743 18.386H291.021ZM292.981 24C294.675 24 295.543 23.006 295.543 21.186C295.543 19.912 295.193 19.03 293.863 18.75V18.722C295.137 18.372 295.333 17.532 295.333 16.314C295.333 14.536 294.521 13.892 292.939 13.892H290.125V24H292.981ZM291.021 19.142H292.841C294.381 19.142 294.647 20.36 294.647 21.256C294.647 22.74 293.933 23.244 292.449 23.244H291.021V19.142ZM303.117 20.64C303.117 18.54 303.117 16.79 300.681 16.79C299.099 16.79 298.245 17.728 298.245 19.772V21.508C298.245 23.65 299.463 24.14 300.681 24.14C302.095 24.14 303.019 23.552 303.117 21.844H302.235C302.249 22.796 301.731 23.468 300.681 23.468C299.351 23.468 299.085 22.166 299.085 21.186V20.64H303.117ZM299.085 19.968C299.085 18.4 299.337 17.462 300.681 17.462C302.025 17.462 302.277 18.4 302.277 19.968H299.085ZM311.335 13.598C310.635 15.628 310.131 17.728 310.131 19.884C310.131 21.928 310.663 23.916 311.279 25.848H311.965C311.391 23.846 311.027 21.76 311.027 19.674C311.027 17.616 311.461 15.586 311.965 13.598H311.335ZM315.447 16.734C316.063 16.328 316.623 15.866 317.155 15.362V24H317.995V14.242H317.211C316.721 14.844 316.091 15.32 315.447 15.768V16.734ZM324.845 19.394C323.487 19.394 323.319 18.162 323.319 17.084C323.319 15.964 323.515 14.844 324.901 14.844C326.511 14.844 326.525 15.978 326.525 17.196C326.525 17.84 326.469 19.394 324.845 19.394ZM324.761 20.15C325.461 20.15 326.133 19.898 326.553 19.296H326.581C326.511 22.32 326.609 23.398 324.831 23.398C323.809 23.398 323.417 22.796 323.431 21.83H322.535C322.577 23.482 323.305 24.154 324.943 24.154C327.365 24.154 327.421 22.628 327.421 19.072V17.868C327.421 15.516 327.337 14.088 324.873 14.088C322.913 14.088 322.423 15.376 322.423 17.084C322.423 19.156 323.025 20.15 324.761 20.15ZM332.466 19.394C331.108 19.394 330.94 18.162 330.94 17.084C330.94 15.964 331.136 14.844 332.522 14.844C334.132 14.844 334.146 15.978 334.146 17.196C334.146 17.84 334.09 19.394 332.466 19.394ZM332.382 20.15C333.082 20.15 333.754 19.898 334.174 19.296H334.202C334.132 22.32 334.23 23.398 332.452 23.398C331.43 23.398 331.038 22.796 331.052 21.83H330.156C330.198 23.482 330.926 24.154 332.564 24.154C334.986 24.154 335.042 22.628 335.042 19.072V17.868C335.042 15.516 334.958 14.088 332.494 14.088C330.534 14.088 330.044 15.376 330.044 17.084C330.044 19.156 330.646 20.15 332.382 20.15ZM338.575 17.21C338.575 15.012 339.541 14.844 340.171 14.844C340.801 14.844 341.767 15.012 341.767 17.21V21.032C341.767 23.23 340.801 23.398 340.171 23.398C339.541 23.398 338.575 23.23 338.575 21.032V17.21ZM340.171 14.088C337.679 14.088 337.679 16.23 337.679 18.064V20.178C337.679 22.012 337.679 24.154 340.171 24.154C342.663 24.154 342.663 22.012 342.663 20.178V18.064C342.663 16.23 342.663 14.088 340.171 14.088ZM345.524 13.598C346.028 15.586 346.462 17.616 346.462 19.674C346.462 21.76 346.098 23.846 345.524 25.848H346.21C346.826 23.916 347.358 21.928 347.358 19.884C347.358 17.728 346.854 15.628 346.154 13.598H345.524ZM350.223 24H351.259V22.936H350.223V24Z" fill="white"/>
</svg>
