<svg width="368" height="39" viewBox="0 0 368 39" fill="none" xmlns="http://www.w3.org/2000/svg">
<rect width="368" height="39" fill="black" fill-opacity="0.69"/>
<path d="M11.834 12.892H10.938V19.906C10.938 22.51 12.31 23.196 13.892 23.196C15.474 23.196 16.846 22.51 16.846 19.906V12.892H15.95V19.248C15.95 20.564 15.95 22.44 13.892 22.44C11.834 22.44 11.834 20.564 11.834 19.248V12.892ZM20.2153 23H21.2513V21.936H20.2153V23ZM29.8848 15.454C29.8848 13.998 29.4368 12.696 27.3368 12.696C25.6848 12.696 24.5788 13.424 24.5928 15.174C24.6068 16.182 24.6908 16.784 26.6508 17.988C28.1068 18.884 29.0168 19.276 29.0168 20.648C29.0168 21.81 28.4428 22.44 27.2668 22.44C25.4608 22.44 25.3768 21.278 25.3768 20.158H24.4528C24.3688 22.132 25.2508 23.196 27.2248 23.196C28.9888 23.196 29.9128 22.314 29.9128 20.508C29.9128 18.548 28.6388 18.282 27.3928 17.386C26.2448 16.56 25.4888 16.518 25.4888 15.02C25.4888 13.83 26.1748 13.452 27.2668 13.452C28.6388 13.452 28.9468 14.208 28.9748 15.454H29.8848ZM39.9603 12.892L36.7683 23H37.6643L38.4623 20.34H42.4243L43.2363 23H44.1743L41.0243 12.892H39.9603ZM38.7283 19.584L40.4363 13.872H40.4643L42.1863 19.584H38.7283ZM47.5156 15.93H46.6756V23H47.5156V18.45C47.5156 17.26 48.2996 16.546 49.4896 16.644V15.79C48.6356 15.79 47.8936 16.21 47.5436 16.882H47.5156V15.93ZM52.7421 18.45C52.7421 17.526 53.1481 16.462 54.2121 16.462C55.0381 16.462 55.2901 17.246 55.3041 17.946V23H56.1441V18.45C56.1441 17.526 56.5501 16.462 57.6141 16.462C58.4401 16.462 58.6921 17.246 58.7061 17.946V23H59.5461V17.736C59.5041 16.602 58.8881 15.79 57.7121 15.79C56.9281 15.79 56.3261 16.196 55.9761 16.896C55.7381 16.196 55.0941 15.79 54.3661 15.79C53.5821 15.79 53.0221 16.224 52.6861 16.798H52.6581V15.916H51.9021V23H52.7421V18.45ZM63.354 25.674H64.18L67.106 15.93H66.266L64.6 21.726H64.572L62.85 15.93H61.94L64.18 23.014L63.354 25.674ZM77.9889 17.96C78.0589 16.476 77.2329 15.79 76.0149 15.79C75.0489 15.79 74.2509 16.154 73.8869 17.162C73.7049 17.694 73.6769 18.8 73.6769 19.5C73.6769 21.25 73.6769 23.14 76.0709 23.14C76.7289 23.14 78.0729 22.818 78.0029 20.914H77.1629C77.1209 21.768 76.9809 22.468 75.8749 22.468C74.5729 22.468 74.5729 20.774 74.5729 19.5C74.5729 18.562 74.6569 17.596 74.7689 17.274C74.9509 16.756 75.3849 16.462 75.9029 16.462C76.8689 16.462 77.1909 17.078 77.1489 17.96H77.9889ZM83.0943 23.14C84.7463 23.14 85.5303 22.062 85.5303 20.228V18.702C85.5303 16.868 84.7463 15.79 83.0943 15.79C81.4423 15.79 80.6583 16.868 80.6583 18.702V20.228C80.6583 22.062 81.4423 23.14 83.0943 23.14ZM83.0943 16.462C84.4803 16.462 84.6903 17.624 84.6903 19.458C84.6903 21.306 84.4803 22.468 83.0943 22.468C81.7083 22.468 81.4983 21.306 81.4983 19.458C81.4983 17.624 81.7083 16.462 83.0943 16.462ZM89.287 18.45C89.287 17.526 89.693 16.462 90.757 16.462C91.583 16.462 91.835 17.246 91.849 17.946V23H92.689V18.45C92.689 17.526 93.095 16.462 94.159 16.462C94.985 16.462 95.237 17.246 95.251 17.946V23H96.091V17.736C96.049 16.602 95.433 15.79 94.257 15.79C93.473 15.79 92.871 16.196 92.521 16.896C92.283 16.196 91.639 15.79 90.911 15.79C90.127 15.79 89.567 16.224 89.231 16.798H89.203V15.916H88.447V23H89.287V18.45ZM100.025 18.45C100.025 17.526 100.431 16.462 101.495 16.462C102.321 16.462 102.573 17.246 102.587 17.946V23H103.427V18.45C103.427 17.526 103.833 16.462 104.897 16.462C105.723 16.462 105.975 17.246 105.989 17.946V23H106.829V17.736C106.787 16.602 106.171 15.79 104.995 15.79C104.211 15.79 103.609 16.196 103.259 16.896C103.021 16.196 102.377 15.79 101.649 15.79C100.865 15.79 100.305 16.224 99.9689 16.798H99.9409V15.916H99.1849V23H100.025V18.45ZM114.627 19.64C114.627 17.54 114.627 15.79 112.191 15.79C110.609 15.79 109.755 16.728 109.755 18.772V20.508C109.755 22.65 110.973 23.14 112.191 23.14C113.605 23.14 114.529 22.552 114.627 20.844H113.745C113.759 21.796 113.241 22.468 112.191 22.468C110.861 22.468 110.595 21.166 110.595 20.186V19.64H114.627ZM110.595 18.968C110.595 17.4 110.847 16.462 112.191 16.462C113.535 16.462 113.787 17.4 113.787 18.968H110.595ZM118.454 15.93H117.614V23H118.454V18.45C118.454 17.26 119.238 16.546 120.428 16.644V15.79C119.574 15.79 118.832 16.21 118.482 16.882H118.454V15.93ZM126.844 17.96C126.914 16.476 126.088 15.79 124.87 15.79C123.904 15.79 123.106 16.154 122.742 17.162C122.56 17.694 122.532 18.8 122.532 19.5C122.532 21.25 122.532 23.14 124.926 23.14C125.584 23.14 126.928 22.818 126.858 20.914H126.018C125.976 21.768 125.836 22.468 124.73 22.468C123.428 22.468 123.428 20.774 123.428 19.5C123.428 18.562 123.512 17.596 123.624 17.274C123.806 16.756 124.24 16.462 124.758 16.462C125.724 16.462 126.046 17.078 126.004 17.96H126.844ZM130.815 23V15.93H129.975V23H130.815ZM130.913 13.956V12.892H129.877V13.956H130.913ZM137.797 20.676C137.797 21.6 137.013 22.468 136.047 22.468C135.179 22.468 134.773 21.81 134.773 21.012C134.773 19.29 136.593 19.43 137.797 19.388V20.676ZM137.853 23H138.721C138.637 22.174 138.637 21.726 138.637 21.222V17.666C138.637 15.86 137.153 15.79 136.439 15.79C135.207 15.79 134.157 16.322 134.087 17.68H134.983C134.983 16.84 135.599 16.462 136.369 16.462C137.489 16.462 137.797 17.092 137.797 18.128V18.716C136.369 18.828 133.877 18.576 133.877 21.054C133.877 22.286 134.563 23.14 135.823 23.14C136.691 23.14 137.377 22.804 137.825 22.132H137.853V23ZM142.94 23V12.892H142.1V23H142.94ZM153.333 19.668V18.87H150.505V19.668H153.333ZM161.621 17.386V13.648H163.399C164.113 13.648 165.037 13.676 165.037 15.356C165.037 16.504 164.631 17.386 163.343 17.386H161.621ZM163.581 23C165.275 23 166.143 22.006 166.143 20.186C166.143 18.912 165.793 18.03 164.463 17.75V17.722C165.737 17.372 165.933 16.532 165.933 15.314C165.933 13.536 165.121 12.892 163.539 12.892H160.725V23H163.581ZM161.621 18.142H163.441C164.981 18.142 165.247 19.36 165.247 20.256C165.247 21.74 164.533 22.244 163.049 22.244H161.621V18.142ZM173.717 19.64C173.717 17.54 173.717 15.79 171.281 15.79C169.699 15.79 168.845 16.728 168.845 18.772V20.508C168.845 22.65 170.063 23.14 171.281 23.14C172.695 23.14 173.619 22.552 173.717 20.844H172.835C172.849 21.796 172.331 22.468 171.281 22.468C169.951 22.468 169.685 21.166 169.685 20.186V19.64H173.717ZM169.685 18.968C169.685 17.4 169.937 16.462 171.281 16.462C172.625 16.462 172.877 17.4 172.877 18.968H169.685ZM183.671 12.892L180.479 23H181.375L182.173 20.34H186.135L186.947 23H187.885L184.735 12.892H183.671ZM182.439 19.584L184.147 13.872H184.175L185.897 19.584H182.439ZM191.45 23V12.892H190.61V23H191.45ZM195.954 23V12.892H195.114V23H195.954ZM205.647 23H206.543V13.648H209.007V12.892H203.183V13.648H205.647V23ZM212.301 23V18.562C212.301 16.98 213.071 16.462 213.827 16.462C214.807 16.462 215.129 17.232 215.129 18.058V23H215.969V18.016C215.969 17.092 215.787 15.79 214.037 15.79C213.281 15.79 212.735 16.21 212.329 16.798H212.301V12.892H211.461V23H212.301ZM222.68 20.676C222.68 21.6 221.896 22.468 220.93 22.468C220.062 22.468 219.656 21.81 219.656 21.012C219.656 19.29 221.476 19.43 222.68 19.388V20.676ZM222.736 23H223.604C223.52 22.174 223.52 21.726 223.52 21.222V17.666C223.52 15.86 222.036 15.79 221.322 15.79C220.09 15.79 219.04 16.322 218.97 17.68H219.866C219.866 16.84 220.482 16.462 221.252 16.462C222.372 16.462 222.68 17.092 222.68 18.128V18.716C221.252 18.828 218.76 18.576 218.76 21.054C218.76 22.286 219.446 23.14 220.706 23.14C221.574 23.14 222.26 22.804 222.708 22.132H222.736V23ZM227.207 16.602V21.656C227.207 22.524 227.543 23.028 228.677 23.028C228.943 23.028 229.223 23.014 229.475 22.986V22.258C229.293 22.286 229.097 22.3 228.817 22.3C228.145 22.3 228.047 22.076 228.047 21.138V16.602H229.475V15.93H228.047V14.11L227.207 14.474V15.93H226.073V16.602H227.207ZM238.687 23H239.583V18.8L242.467 12.892H241.571L239.149 17.918L236.839 12.892H235.831L238.687 18.8V23ZM246.391 23.14C248.043 23.14 248.827 22.062 248.827 20.228V18.702C248.827 16.868 248.043 15.79 246.391 15.79C244.739 15.79 243.955 16.868 243.955 18.702V20.228C243.955 22.062 244.739 23.14 246.391 23.14ZM246.391 16.462C247.777 16.462 247.987 17.624 247.987 19.458C247.987 21.306 247.777 22.468 246.391 22.468C245.005 22.468 244.795 21.306 244.795 19.458C244.795 17.624 245.005 16.462 246.391 16.462ZM255.37 15.93V20.914C255.37 21.404 254.964 22.468 253.83 22.468C252.612 22.468 252.654 20.984 252.654 20.788V15.93H251.814V20.928C251.814 22.076 252.22 23.14 253.676 23.14C254.46 23.14 254.964 22.818 255.454 22.216H255.482V23H256.21V15.93H255.37ZM266.878 23.196C269.272 23.196 269.44 20.83 269.44 20.102H268.488C268.474 21.404 268.04 22.44 266.878 22.44C264.75 22.44 264.722 20.634 264.722 17.946C264.722 15.258 264.75 13.452 266.878 13.452C268.166 13.452 268.474 14.502 268.474 15.622H269.37C269.37 14.712 269.328 12.696 266.878 12.696C263.854 12.696 263.826 15.216 263.826 17.946C263.826 20.676 263.854 23.196 266.878 23.196ZM275.88 20.676C275.88 21.6 275.096 22.468 274.13 22.468C273.262 22.468 272.856 21.81 272.856 21.012C272.856 19.29 274.676 19.43 275.88 19.388V20.676ZM275.936 23H276.804C276.72 22.174 276.72 21.726 276.72 21.222V17.666C276.72 15.86 275.236 15.79 274.522 15.79C273.29 15.79 272.24 16.322 272.17 17.68H273.066C273.066 16.84 273.682 16.462 274.452 16.462C275.572 16.462 275.88 17.092 275.88 18.128V18.716C274.452 18.828 271.96 18.576 271.96 21.054C271.96 22.286 272.646 23.14 273.906 23.14C274.774 23.14 275.46 22.804 275.908 22.132H275.936V23ZM280.743 18.562C280.743 16.98 281.513 16.462 282.269 16.462C283.249 16.462 283.571 17.232 283.571 18.058V23H284.411V18.016C284.411 17.092 284.229 15.79 282.479 15.79C281.723 15.79 281.177 16.21 280.771 16.798H280.743V15.93H279.903V23H280.743V18.562ZM293.021 17.386V13.648H294.799C295.513 13.648 296.437 13.676 296.437 15.356C296.437 16.504 296.031 17.386 294.743 17.386H293.021ZM294.981 23C296.675 23 297.543 22.006 297.543 20.186C297.543 18.912 297.193 18.03 295.863 17.75V17.722C297.137 17.372 297.333 16.532 297.333 15.314C297.333 13.536 296.521 12.892 294.939 12.892H292.125V23H294.981ZM293.021 18.142H294.841C296.381 18.142 296.647 19.36 296.647 20.256C296.647 21.74 295.933 22.244 294.449 22.244H293.021V18.142ZM305.117 19.64C305.117 17.54 305.117 15.79 302.681 15.79C301.099 15.79 300.245 16.728 300.245 18.772V20.508C300.245 22.65 301.463 23.14 302.681 23.14C304.095 23.14 305.019 22.552 305.117 20.844H304.235C304.249 21.796 303.731 22.468 302.681 22.468C301.351 22.468 301.085 21.166 301.085 20.186V19.64H305.117ZM301.085 18.968C301.085 17.4 301.337 16.462 302.681 16.462C304.025 16.462 304.277 17.4 304.277 18.968H301.085ZM313.335 12.598C312.635 14.628 312.131 16.728 312.131 18.884C312.131 20.928 312.663 22.916 313.279 24.848H313.965C313.391 22.846 313.027 20.76 313.027 18.674C313.027 16.616 313.461 14.586 313.965 12.598H313.335ZM317.447 15.734C318.063 15.328 318.623 14.866 319.155 14.362V23H319.995V13.242H319.211C318.721 13.844 318.091 14.32 317.447 14.768V15.734ZM326.845 18.394C325.487 18.394 325.319 17.162 325.319 16.084C325.319 14.964 325.515 13.844 326.901 13.844C328.511 13.844 328.525 14.978 328.525 16.196C328.525 16.84 328.469 18.394 326.845 18.394ZM326.761 19.15C327.461 19.15 328.133 18.898 328.553 18.296H328.581C328.511 21.32 328.609 22.398 326.831 22.398C325.809 22.398 325.417 21.796 325.431 20.83H324.535C324.577 22.482 325.305 23.154 326.943 23.154C329.365 23.154 329.421 21.628 329.421 18.072V16.868C329.421 14.516 329.337 13.088 326.873 13.088C324.913 13.088 324.423 14.376 324.423 16.084C324.423 18.156 325.025 19.15 326.761 19.15ZM334.55 17.568C333.374 17.568 332.996 16.77 332.996 15.65C332.996 14.502 333.304 13.76 334.55 13.76C335.796 13.76 336.104 14.502 336.104 15.65C336.104 16.77 335.726 17.568 334.55 17.568ZM335.558 17.862C336.776 17.61 337 16.63 337 15.524C337 14.628 336.93 13.088 334.55 13.088C332.17 13.088 332.1 14.628 332.1 15.524C332.1 16.63 332.324 17.61 333.514 17.862L333.542 17.89C332.212 18.184 332.002 19.164 332.002 20.354C332.002 21.628 332.338 23.154 334.55 23.154C336.762 23.154 337.098 21.628 337.098 20.354C337.098 19.164 336.888 18.184 335.558 17.89V17.862ZM334.55 22.482C333.29 22.482 332.898 21.6 332.898 20.466C332.898 19.416 333.01 18.24 334.55 18.24C336.09 18.24 336.202 19.416 336.202 20.466C336.202 21.6 335.81 22.482 334.55 22.482ZM344.579 22.244H340.589C343.851 17.344 344.565 16.546 344.565 15.118C344.565 13.452 343.207 13.088 342.073 13.088C340.939 13.088 339.637 13.676 339.637 15.622H340.477C340.477 14.614 341.009 13.844 342.073 13.844C342.843 13.844 343.669 14.012 343.669 15.314C343.669 16.616 341.779 18.856 339.609 22.216V23H344.579V22.244ZM347.524 12.598C348.028 14.586 348.462 16.616 348.462 18.674C348.462 20.76 348.098 22.846 347.524 24.848H348.21C348.826 22.916 349.358 20.928 349.358 18.884C349.358 16.728 348.854 14.628 348.154 12.598H347.524ZM352.223 23H353.259V21.936H352.223V23Z" fill="white"/>
</svg>
