<svg width="377" height="40" viewBox="0 0 377 40" fill="none" xmlns="http://www.w3.org/2000/svg">
<rect width="377" height="40" fill="black" fill-opacity="0.69"/>
<path d="M9.542 18.1C11.488 18.1 11.194 20.046 11.208 20.48C11.222 21.026 11.264 22.706 11.348 23H12.202C12.174 22.608 12.104 22.216 12.104 21.824C12.104 18.212 12.02 18.044 10.606 17.75V17.722C11.964 17.414 12.174 16.574 12.174 15.314C12.174 13.536 11.684 12.892 9.738 12.892H6.952V23H7.848V18.1H9.542ZM7.848 13.648H9.682C10.732 13.648 11.278 13.914 11.278 15.3C11.278 16.994 10.648 17.344 9.304 17.344H7.848V13.648ZM18.852 20.676C18.852 21.6 18.068 22.468 17.102 22.468C16.234 22.468 15.828 21.81 15.828 21.012C15.828 19.29 17.648 19.43 18.852 19.388V20.676ZM18.908 23H19.776C19.692 22.174 19.692 21.726 19.692 21.222V17.666C19.692 15.86 18.208 15.79 17.494 15.79C16.262 15.79 15.212 16.322 15.142 17.68H16.038C16.038 16.84 16.654 16.462 17.424 16.462C18.544 16.462 18.852 17.092 18.852 18.128V18.716C17.424 18.828 14.932 18.576 14.932 21.054C14.932 22.286 15.618 23.14 16.878 23.14C17.746 23.14 18.432 22.804 18.88 22.132H18.908V23ZM23.7007 18.45C23.7007 17.526 24.1067 16.462 25.1707 16.462C25.9967 16.462 26.2487 17.246 26.2627 17.946V23H27.1027V18.45C27.1027 17.526 27.5087 16.462 28.5727 16.462C29.3987 16.462 29.6507 17.246 29.6647 17.946V23H30.5047V17.736C30.4627 16.602 29.8467 15.79 28.6707 15.79C27.8867 15.79 27.2847 16.196 26.9347 16.896C26.6967 16.196 26.0527 15.79 25.3247 15.79C24.5407 15.79 23.9807 16.224 23.6447 16.798H23.6167V15.916H22.8607V23H23.7007V18.45ZM34.4526 19.36C34.4526 18.296 34.6206 16.462 35.9786 16.462C37.5326 16.462 37.5746 17.834 37.5746 19.486C37.5746 21.138 37.5326 22.468 35.9786 22.468C34.4526 22.468 34.4526 20.48 34.4526 19.36ZM34.4246 23V22.146H34.4526C34.8026 22.804 35.4046 23.14 36.2306 23.14C38.2886 23.14 38.4146 21.012 38.4146 19.458C38.4146 18.198 38.5966 15.79 36.3006 15.79C35.5026 15.79 34.9426 16.084 34.5086 16.756L34.4806 16.728V12.892H33.6406V22.3C33.6406 22.538 33.5986 22.762 33.5566 23H34.4246ZM43.4873 23.14C45.1393 23.14 45.9233 22.062 45.9233 20.228V18.702C45.9233 16.868 45.1393 15.79 43.4873 15.79C41.8353 15.79 41.0513 16.868 41.0513 18.702V20.228C41.0513 22.062 41.8353 23.14 43.4873 23.14ZM43.4873 16.462C44.8733 16.462 45.0833 17.624 45.0833 19.458C45.0833 21.306 44.8733 22.468 43.4873 22.468C42.1013 22.468 41.8913 21.306 41.8913 19.458C41.8913 17.624 42.1013 16.462 43.4873 16.462ZM49.036 23H50.072V21.936H49.036V23ZM49.036 16.994H50.072V15.93H49.036V16.994ZM57.959 23H58.855V18.184H61.991V17.428H58.855V13.648H62.229V12.892H57.959V23ZM65.8224 23V15.93H64.9824V23H65.8224ZM65.9204 13.956V12.892H64.8844V13.956H65.9204ZM70.102 15.93H69.262V23H70.102V18.45C70.102 17.26 70.886 16.546 72.076 16.644V15.79C71.222 15.79 70.48 16.21 70.13 16.882H70.102V15.93ZM78.4644 21.138C78.4644 18.772 75.2864 19.248 75.2864 17.484C75.2864 16.854 75.7624 16.462 76.3644 16.462C77.3164 16.462 77.5544 16.938 77.5964 17.834H78.4224C78.4224 16.756 77.9744 15.79 76.5744 15.79C75.3424 15.79 74.4464 16.252 74.4464 17.554C74.4464 19.892 77.6244 19.416 77.6244 21.264C77.6244 22.048 77.2324 22.51 76.4204 22.51C75.3424 22.51 75.1184 21.866 75.1184 20.9H74.2644C74.2504 22.398 74.8524 23.14 76.3784 23.14C77.6944 23.14 78.4644 22.468 78.4644 21.138ZM81.8478 16.602V21.656C81.8478 22.524 82.1838 23.028 83.3178 23.028C83.5838 23.028 83.8638 23.014 84.1158 22.986V22.258C83.9338 22.286 83.7378 22.3 83.4578 22.3C82.7858 22.3 82.6878 22.076 82.6878 21.138V16.602H84.1158V15.93H82.6878V14.11L81.8478 14.474V15.93H80.7138V16.602H81.8478ZM92.1378 17.386V13.648H93.9158C94.6298 13.648 95.5538 13.676 95.5538 15.356C95.5538 16.504 95.1478 17.386 93.8598 17.386H92.1378ZM94.0978 23C95.7918 23 96.6598 22.006 96.6598 20.186C96.6598 18.912 96.3098 18.03 94.9798 17.75V17.722C96.2538 17.372 96.4498 16.532 96.4498 15.314C96.4498 13.536 95.6378 12.892 94.0558 12.892H91.2418V23H94.0978ZM92.1378 18.142H93.9578C95.4978 18.142 95.7638 19.36 95.7638 20.256C95.7638 21.74 95.0498 22.244 93.5658 22.244H92.1378V18.142ZM100.664 23V12.892H99.8238V23H100.664ZM106.301 23.14C107.953 23.14 108.737 22.062 108.737 20.228V18.702C108.737 16.868 107.953 15.79 106.301 15.79C104.649 15.79 103.865 16.868 103.865 18.702V20.228C103.865 22.062 104.649 23.14 106.301 23.14ZM106.301 16.462C107.687 16.462 107.897 17.624 107.897 19.458C107.897 21.306 107.687 22.468 106.301 22.468C104.915 22.468 104.705 21.306 104.705 19.458C104.705 17.624 104.915 16.462 106.301 16.462ZM113.922 23.14C115.574 23.14 116.358 22.062 116.358 20.228V18.702C116.358 16.868 115.574 15.79 113.922 15.79C112.27 15.79 111.486 16.868 111.486 18.702V20.228C111.486 22.062 112.27 23.14 113.922 23.14ZM113.922 16.462C115.308 16.462 115.518 17.624 115.518 19.458C115.518 21.306 115.308 22.468 113.922 22.468C112.536 22.468 112.326 21.306 112.326 19.458C112.326 17.624 112.536 16.462 113.922 16.462ZM121.403 22.468C120.493 22.468 119.863 22.118 119.863 19.486C119.863 17.834 119.863 16.462 121.375 16.462C122.957 16.462 122.957 18.422 122.957 18.842V20.102C122.957 21.824 122.201 22.468 121.403 22.468ZM123.041 23H123.853C123.811 22.762 123.769 22.3 123.769 21.6V12.892H122.929V16.644L122.901 16.63C122.467 16.084 121.837 15.79 121.193 15.79C119.023 15.79 119.023 18.1 119.023 19.458C119.023 21.11 119.135 23.14 121.179 23.14C122.005 23.14 122.537 22.79 122.971 22.118L122.999 22.104L123.041 23ZM132.281 18.828C132.281 17.078 133.233 16.462 133.779 16.462C135.165 16.462 135.375 17.624 135.375 19.458C135.375 21.306 135.165 22.468 133.779 22.468C133.009 22.468 132.281 21.698 132.281 20.088V18.828ZM132.253 15.93H131.441V25.674H132.281V22.202L132.309 22.216C132.743 22.888 133.261 23.14 133.779 23.14C135.585 23.14 136.215 22.062 136.215 20.228V18.646C136.215 17.722 136.201 15.79 133.989 15.79C133.429 15.79 132.729 16.084 132.281 16.77L132.253 16.784V15.93ZM142.632 20.676C142.632 21.6 141.848 22.468 140.882 22.468C140.014 22.468 139.608 21.81 139.608 21.012C139.608 19.29 141.428 19.43 142.632 19.388V20.676ZM142.688 23H143.556C143.472 22.174 143.472 21.726 143.472 21.222V17.666C143.472 15.86 141.988 15.79 141.274 15.79C140.042 15.79 138.992 16.322 138.922 17.68H139.818C139.818 16.84 140.434 16.462 141.204 16.462C142.324 16.462 142.632 17.092 142.632 18.128V18.716C141.204 18.828 138.712 18.576 138.712 21.054C138.712 22.286 139.398 23.14 140.658 23.14C141.526 23.14 142.212 22.804 142.66 22.132H142.688V23ZM147.55 15.93H146.71V23H147.55V18.45C147.55 17.26 148.334 16.546 149.524 16.644V15.79C148.67 15.79 147.928 16.21 147.578 16.882H147.55V15.93ZM152.455 16.602V21.656C152.455 22.524 152.791 23.028 153.925 23.028C154.191 23.028 154.471 23.014 154.723 22.986V22.258C154.541 22.286 154.345 22.3 154.065 22.3C153.393 22.3 153.295 22.076 153.295 21.138V16.602H154.723V15.93H153.295V14.11L152.455 14.474V15.93H151.321V16.602H152.455ZM162.003 12.892V23H162.899V12.892H162.003ZM166.506 12.892V23H167.402V12.892H166.506ZM176.045 12.598C175.345 14.628 174.841 16.728 174.841 18.884C174.841 20.928 175.373 22.916 175.989 24.848H176.675C176.101 22.846 175.737 20.76 175.737 18.674C175.737 16.616 176.171 14.586 176.675 12.598H176.045ZM180.157 15.734C180.773 15.328 181.333 14.866 181.865 14.362V23H182.705V13.242H181.921C181.431 13.844 180.801 14.32 180.157 14.768V15.734ZM189.556 18.394C188.198 18.394 188.03 17.162 188.03 16.084C188.03 14.964 188.226 13.844 189.612 13.844C191.222 13.844 191.236 14.978 191.236 16.196C191.236 16.84 191.18 18.394 189.556 18.394ZM189.472 19.15C190.172 19.15 190.844 18.898 191.264 18.296H191.292C191.222 21.32 191.32 22.398 189.542 22.398C188.52 22.398 188.128 21.796 188.142 20.83H187.246C187.288 22.482 188.016 23.154 189.654 23.154C192.076 23.154 192.132 21.628 192.132 18.072V16.868C192.132 14.516 192.048 13.088 189.584 13.088C187.624 13.088 187.134 14.376 187.134 16.084C187.134 18.156 187.736 19.15 189.472 19.15ZM197.26 17.568C196.084 17.568 195.706 16.77 195.706 15.65C195.706 14.502 196.014 13.76 197.26 13.76C198.506 13.76 198.814 14.502 198.814 15.65C198.814 16.77 198.436 17.568 197.26 17.568ZM198.268 17.862C199.486 17.61 199.71 16.63 199.71 15.524C199.71 14.628 199.64 13.088 197.26 13.088C194.88 13.088 194.81 14.628 194.81 15.524C194.81 16.63 195.034 17.61 196.224 17.862L196.252 17.89C194.922 18.184 194.712 19.164 194.712 20.354C194.712 21.628 195.048 23.154 197.26 23.154C199.472 23.154 199.808 21.628 199.808 20.354C199.808 19.164 199.598 18.184 198.268 17.89V17.862ZM197.26 22.482C196 22.482 195.608 21.6 195.608 20.466C195.608 19.416 195.72 18.24 197.26 18.24C198.8 18.24 198.912 19.416 198.912 20.466C198.912 21.6 198.52 22.482 197.26 22.482ZM205.175 16.756C204.405 16.756 204.013 16.966 203.453 17.484V13.998H207.107V13.242H202.613V18.534H203.425C203.565 17.862 204.321 17.512 204.951 17.512C206.505 17.512 206.603 18.73 206.603 19.948C206.603 21.11 206.449 22.398 204.979 22.398C203.817 22.398 203.383 21.768 203.411 20.662H202.515C202.473 22.37 203.327 23.154 204.993 23.154C207.093 23.154 207.499 21.572 207.499 19.948C207.499 18.772 207.569 16.756 205.175 16.756ZM210.234 12.598C210.738 14.586 211.172 16.616 211.172 18.674C211.172 20.76 210.808 22.846 210.234 24.848H210.92C211.536 22.916 212.068 20.928 212.068 18.884C212.068 16.728 211.564 14.628 210.864 12.598H210.234ZM220.095 19.36C220.095 18.296 220.263 16.462 221.621 16.462C223.175 16.462 223.217 17.834 223.217 19.486C223.217 21.138 223.175 22.468 221.621 22.468C220.095 22.468 220.095 20.48 220.095 19.36ZM220.067 23V22.146H220.095C220.445 22.804 221.047 23.14 221.873 23.14C223.931 23.14 224.057 21.012 224.057 19.458C224.057 18.198 224.239 15.79 221.943 15.79C221.145 15.79 220.585 16.084 220.151 16.756L220.123 16.728V12.892H219.283V22.3C219.283 22.538 219.241 22.762 219.199 23H220.067ZM227.575 25.674H228.401L231.327 15.93H230.487L228.821 21.726H228.793L227.071 15.93H226.161L228.401 23.014L227.575 25.674ZM243.148 22.146C242.672 22.328 242.028 22.44 241.258 22.44C239.074 22.44 239.102 20.494 239.102 17.946C239.102 15.398 239.074 13.452 241.258 13.452C242.672 13.452 243.246 14.152 243.246 15.482H244.142C244.184 13.522 243.19 12.696 241.258 12.696C237.968 12.696 238.206 15.986 238.206 17.946C238.206 19.906 237.968 23.196 241.258 23.196C242.21 23.196 243.148 23.056 244.044 22.776V17.722H241.104V18.478H243.148V22.146ZM252.09 19.64C252.09 17.54 252.09 15.79 249.654 15.79C248.072 15.79 247.218 16.728 247.218 18.772V20.508C247.218 22.65 248.436 23.14 249.654 23.14C251.068 23.14 251.992 22.552 252.09 20.844H251.208C251.222 21.796 250.704 22.468 249.654 22.468C248.324 22.468 248.058 21.166 248.058 20.186V19.64H252.09ZM248.058 18.968C248.058 17.4 248.31 16.462 249.654 16.462C250.998 16.462 251.25 17.4 251.25 18.968H248.058ZM257.274 23.14C258.926 23.14 259.71 22.062 259.71 20.228V18.702C259.71 16.868 258.926 15.79 257.274 15.79C255.622 15.79 254.838 16.868 254.838 18.702V20.228C254.838 22.062 255.622 23.14 257.274 23.14ZM257.274 16.462C258.66 16.462 258.87 17.624 258.87 19.458C258.87 21.306 258.66 22.468 257.274 22.468C255.888 22.468 255.678 21.306 255.678 19.458C255.678 17.624 255.888 16.462 257.274 16.462ZM263.537 15.93H262.697V23H263.537V18.45C263.537 17.26 264.321 16.546 265.511 16.644V15.79C264.657 15.79 263.915 16.21 263.565 16.882H263.537V15.93ZM269.996 16.462C270.78 16.462 271.578 17.022 271.578 18.506C271.578 20.578 271.522 20.9 271.312 21.446C271.186 21.782 270.738 22.244 270.038 22.244C268.512 22.244 268.512 20.774 268.512 19.304C268.512 18.254 268.54 16.462 269.996 16.462ZM271.634 16.812L271.606 16.784C271.298 16.154 270.584 15.79 269.87 15.79C268.442 15.79 267.952 16.896 267.882 17.19C267.686 17.946 267.672 17.96 267.672 19.598C267.672 21.166 267.812 22.916 269.842 22.916C270.514 22.916 271.186 22.664 271.55 22.062H271.578C271.578 24.176 271.676 25.058 270.038 25.058C269.254 25.058 268.652 24.582 268.708 23.77H267.868C267.812 24.484 268.162 25.73 269.926 25.73C271.942 25.73 272.418 24.806 272.418 23.252V17.302C272.418 16.938 272.432 16.588 272.46 15.916H271.634V16.812ZM280.248 19.64C280.248 17.54 280.248 15.79 277.812 15.79C276.23 15.79 275.376 16.728 275.376 18.772V20.508C275.376 22.65 276.594 23.14 277.812 23.14C279.226 23.14 280.15 22.552 280.248 20.844H279.366C279.38 21.796 278.862 22.468 277.812 22.468C276.482 22.468 276.216 21.166 276.216 20.186V19.64H280.248ZM276.216 18.968C276.216 17.4 276.468 16.462 277.812 16.462C279.156 16.462 279.408 17.4 279.408 18.968H276.216ZM287.725 23H288.621V18.296H290.329C292.065 18.296 292.723 17.372 292.723 15.342C292.723 13.004 291.337 12.892 290.497 12.892H287.725V23ZM288.621 13.648H290.273C291.085 13.648 291.827 13.788 291.827 15.51C291.827 17.092 291.225 17.54 290.287 17.54H288.621V13.648ZM293.667 23H294.703V21.936H293.667V23ZM305.488 23.196C307.882 23.196 308.05 20.83 308.05 20.102H307.098C307.084 21.404 306.65 22.44 305.488 22.44C303.36 22.44 303.332 20.634 303.332 17.946C303.332 15.258 303.36 13.452 305.488 13.452C306.776 13.452 307.084 14.502 307.084 15.622H307.98C307.98 14.712 307.938 12.696 305.488 12.696C302.464 12.696 302.436 15.216 302.436 17.946C302.436 20.676 302.464 23.196 305.488 23.196ZM313.146 23.14C314.798 23.14 315.582 22.062 315.582 20.228V18.702C315.582 16.868 314.798 15.79 313.146 15.79C311.494 15.79 310.71 16.868 310.71 18.702V20.228C310.71 22.062 311.494 23.14 313.146 23.14ZM313.146 16.462C314.532 16.462 314.742 17.624 314.742 19.458C314.742 21.306 314.532 22.468 313.146 22.468C311.76 22.468 311.55 21.306 311.55 19.458C311.55 17.624 311.76 16.462 313.146 16.462ZM322.475 21.138C322.475 18.772 319.297 19.248 319.297 17.484C319.297 16.854 319.773 16.462 320.375 16.462C321.327 16.462 321.565 16.938 321.607 17.834H322.433C322.433 16.756 321.985 15.79 320.585 15.79C319.353 15.79 318.457 16.252 318.457 17.554C318.457 19.892 321.635 19.416 321.635 21.264C321.635 22.048 321.243 22.51 320.431 22.51C319.353 22.51 319.129 21.866 319.129 20.9H318.275C318.261 22.398 318.863 23.14 320.389 23.14C321.705 23.14 322.475 22.468 322.475 21.138ZM326.18 18.45C326.18 17.526 326.586 16.462 327.65 16.462C328.476 16.462 328.728 17.246 328.742 17.946V23H329.582V18.45C329.582 17.526 329.988 16.462 331.052 16.462C331.878 16.462 332.13 17.246 332.144 17.946V23H332.984V17.736C332.942 16.602 332.326 15.79 331.15 15.79C330.366 15.79 329.764 16.196 329.414 16.896C329.176 16.196 328.532 15.79 327.804 15.79C327.02 15.79 326.46 16.224 326.124 16.798H326.096V15.916H325.34V23H326.18V18.45ZM339.69 20.676C339.69 21.6 338.906 22.468 337.94 22.468C337.072 22.468 336.666 21.81 336.666 21.012C336.666 19.29 338.486 19.43 339.69 19.388V20.676ZM339.746 23H340.614C340.53 22.174 340.53 21.726 340.53 21.222V17.666C340.53 15.86 339.046 15.79 338.332 15.79C337.1 15.79 336.05 16.322 335.98 17.68H336.876C336.876 16.84 337.492 16.462 338.262 16.462C339.382 16.462 339.69 17.092 339.69 18.128V18.716C338.262 18.828 335.77 18.576 335.77 21.054C335.77 22.286 336.456 23.14 337.716 23.14C338.584 23.14 339.27 22.804 339.718 22.132H339.746V23ZM344.217 16.602V21.656C344.217 22.524 344.553 23.028 345.687 23.028C345.953 23.028 346.233 23.014 346.485 22.986V22.258C346.303 22.286 346.107 22.3 345.827 22.3C345.155 22.3 345.057 22.076 345.057 21.138V16.602H346.485V15.93H345.057V14.11L344.217 14.474V15.93H343.083V16.602H344.217ZM351.263 23.14C352.915 23.14 353.699 22.062 353.699 20.228V18.702C353.699 16.868 352.915 15.79 351.263 15.79C349.611 15.79 348.827 16.868 348.827 18.702V20.228C348.827 22.062 349.611 23.14 351.263 23.14ZM351.263 16.462C352.649 16.462 352.859 17.624 352.859 19.458C352.859 21.306 352.649 22.468 351.263 22.468C349.877 22.468 349.667 21.306 349.667 19.458C349.667 17.624 349.877 16.462 351.263 16.462ZM360.592 21.138C360.592 18.772 357.414 19.248 357.414 17.484C357.414 16.854 357.89 16.462 358.492 16.462C359.444 16.462 359.682 16.938 359.724 17.834H360.55C360.55 16.756 360.102 15.79 358.702 15.79C357.47 15.79 356.574 16.252 356.574 17.554C356.574 19.892 359.752 19.416 359.752 21.264C359.752 22.048 359.36 22.51 358.548 22.51C357.47 22.51 357.246 21.866 357.246 20.9H356.392C356.378 22.398 356.98 23.14 358.506 23.14C359.822 23.14 360.592 22.468 360.592 21.138ZM363.653 23H364.689V21.936H363.653V23Z" fill="white"/>
</svg>
