<svg width="340" height="39" viewBox="0 0 340 39" fill="none" xmlns="http://www.w3.org/2000/svg">
<rect width="340" height="39" fill="black" fill-opacity="0.69"/>
<path d="M12.66 24H13.556V14.648H16.02V13.892H10.196V14.648H12.66V24ZM19.3147 24V19.562C19.3147 17.98 20.0847 17.462 20.8407 17.462C21.8207 17.462 22.1427 18.232 22.1427 19.058V24H22.9827V19.016C22.9827 18.092 22.8007 16.79 21.0507 16.79C20.2947 16.79 19.7487 17.21 19.3427 17.798H19.3147V13.892H18.4747V24H19.3147ZM30.7854 20.64C30.7854 18.54 30.7854 16.79 28.3494 16.79C26.7674 16.79 25.9134 17.728 25.9134 19.772V21.508C25.9134 23.65 27.1314 24.14 28.3494 24.14C29.7634 24.14 30.6874 23.552 30.7854 21.844H29.9034C29.9174 22.796 29.3994 23.468 28.3494 23.468C27.0194 23.468 26.7534 22.166 26.7534 21.186V20.64H30.7854ZM26.7534 19.968C26.7534 18.4 27.0054 17.462 28.3494 17.462C29.6934 17.462 29.9454 18.4 29.9454 19.968H26.7534ZM42.5456 24V23.244H39.1996V13.892H38.3036V24H42.5456ZM48.659 21.676C48.659 22.6 47.875 23.468 46.909 23.468C46.041 23.468 45.635 22.81 45.635 22.012C45.635 20.29 47.455 20.43 48.659 20.388V21.676ZM48.715 24H49.583C49.499 23.174 49.499 22.726 49.499 22.222V18.666C49.499 16.86 48.015 16.79 47.301 16.79C46.069 16.79 45.019 17.322 44.949 18.68H45.845C45.845 17.84 46.461 17.462 47.231 17.462C48.351 17.462 48.659 18.092 48.659 19.128V19.716C47.231 19.828 44.739 19.576 44.739 22.054C44.739 23.286 45.425 24.14 46.685 24.14C47.553 24.14 48.239 23.804 48.687 23.132H48.715V24ZM56.6437 22.138C56.6437 19.772 53.4657 20.248 53.4657 18.484C53.4657 17.854 53.9417 17.462 54.5437 17.462C55.4957 17.462 55.7337 17.938 55.7757 18.834H56.6017C56.6017 17.756 56.1537 16.79 54.7537 16.79C53.5217 16.79 52.6257 17.252 52.6257 18.554C52.6257 20.892 55.8037 20.416 55.8037 22.264C55.8037 23.048 55.4117 23.51 54.5997 23.51C53.5217 23.51 53.2977 22.866 53.2977 21.9H52.4437C52.4297 23.398 53.0317 24.14 54.5577 24.14C55.8737 24.14 56.6437 23.468 56.6437 22.138ZM60.0271 17.602V22.656C60.0271 23.524 60.3631 24.028 61.4971 24.028C61.7631 24.028 62.0431 24.014 62.2951 23.986V23.258C62.1131 23.286 61.9171 23.3 61.6371 23.3C60.9651 23.3 60.8671 23.076 60.8671 22.138V17.602H62.2951V16.93H60.8671V15.11L60.0271 15.474V16.93H58.8931V17.602H60.0271ZM69.3651 24H70.2611V19.296H71.9691C73.7051 19.296 74.3631 18.372 74.3631 16.342C74.3631 14.004 72.9771 13.892 72.1371 13.892H69.3651V24ZM70.2611 14.648H71.9131C72.7251 14.648 73.4671 14.788 73.4671 16.51C73.4671 18.092 72.8651 18.54 71.9271 18.54H70.2611V14.648ZM79.1978 24.14C80.8498 24.14 81.6338 23.062 81.6338 21.228V19.702C81.6338 17.868 80.8498 16.79 79.1978 16.79C77.5458 16.79 76.7618 17.868 76.7618 19.702V21.228C76.7618 23.062 77.5458 24.14 79.1978 24.14ZM79.1978 17.462C80.5838 17.462 80.7938 18.624 80.7938 20.458C80.7938 22.306 80.5838 23.468 79.1978 23.468C77.8118 23.468 77.6018 22.306 77.6018 20.458C77.6018 18.624 77.8118 17.462 79.1978 17.462ZM88.5265 22.138C88.5265 19.772 85.3485 20.248 85.3485 18.484C85.3485 17.854 85.8245 17.462 86.4265 17.462C87.3785 17.462 87.6165 17.938 87.6585 18.834H88.4845C88.4845 17.756 88.0365 16.79 86.6365 16.79C85.4045 16.79 84.5085 17.252 84.5085 18.554C84.5085 20.892 87.6865 20.416 87.6865 22.264C87.6865 23.048 87.2945 23.51 86.4825 23.51C85.4045 23.51 85.1805 22.866 85.1805 21.9H84.3265C84.3125 23.398 84.9145 24.14 86.4405 24.14C87.7565 24.14 88.5265 23.468 88.5265 22.138ZM95.368 22.138C95.368 19.772 92.19 20.248 92.19 18.484C92.19 17.854 92.666 17.462 93.268 17.462C94.22 17.462 94.458 17.938 94.5 18.834H95.326C95.326 17.756 94.878 16.79 93.478 16.79C92.246 16.79 91.35 17.252 91.35 18.554C91.35 20.892 94.528 20.416 94.528 22.264C94.528 23.048 94.136 23.51 93.324 23.51C92.246 23.51 92.022 22.866 92.022 21.9H91.168C91.154 23.398 91.756 24.14 93.282 24.14C94.598 24.14 95.368 23.468 95.368 22.138ZM102.937 20.64C102.937 18.54 102.937 16.79 100.501 16.79C98.9194 16.79 98.0654 17.728 98.0654 19.772V21.508C98.0654 23.65 99.2834 24.14 100.501 24.14C101.915 24.14 102.839 23.552 102.937 21.844H102.055C102.069 22.796 101.551 23.468 100.501 23.468C99.1714 23.468 98.9054 22.166 98.9054 21.186V20.64H102.937ZM98.9054 19.968C98.9054 18.4 99.1574 17.462 100.501 17.462C101.845 17.462 102.097 18.4 102.097 19.968H98.9054ZM110.876 17.602V22.656C110.876 23.524 111.212 24.028 112.346 24.028C112.612 24.028 112.892 24.014 113.144 23.986V23.258C112.962 23.286 112.766 23.3 112.486 23.3C111.814 23.3 111.716 23.076 111.716 22.138V17.602H113.144V16.93H111.716V15.11L110.876 15.474V16.93H109.742V17.602H110.876ZM116.564 16.93H115.724V24H116.564V19.45C116.564 18.26 117.348 17.546 118.538 17.644V16.79C117.684 16.79 116.942 17.21 116.592 17.882H116.564V16.93ZM124.563 21.676C124.563 22.6 123.779 23.468 122.813 23.468C121.945 23.468 121.539 22.81 121.539 22.012C121.539 20.29 123.359 20.43 124.563 20.388V21.676ZM124.619 24H125.487C125.403 23.174 125.403 22.726 125.403 22.222V18.666C125.403 16.86 123.919 16.79 123.205 16.79C121.973 16.79 120.923 17.322 120.853 18.68H121.749C121.749 17.84 122.365 17.462 123.135 17.462C124.255 17.462 124.563 18.092 124.563 19.128V19.716C123.135 19.828 120.643 19.576 120.643 22.054C120.643 23.286 121.329 24.14 122.589 24.14C123.457 24.14 124.143 23.804 124.591 23.132H124.619V24ZM129.705 24V16.93H128.865V24H129.705ZM129.803 14.956V13.892H128.767V14.956H129.803ZM134.209 24V13.892H133.369V24H134.209ZM142.282 20.64C142.282 18.54 142.282 16.79 139.846 16.79C138.264 16.79 137.41 17.728 137.41 19.772V21.508C137.41 23.65 138.628 24.14 139.846 24.14C141.26 24.14 142.184 23.552 142.282 21.844H141.4C141.414 22.796 140.896 23.468 139.846 23.468C138.516 23.468 138.25 22.166 138.25 21.186V20.64H142.282ZM138.25 19.968C138.25 18.4 138.502 17.462 139.846 17.462C141.19 17.462 141.442 18.4 141.442 19.968H138.25ZM146.109 16.93H145.269V24H146.109V19.45C146.109 18.26 146.893 17.546 148.083 17.644V16.79C147.229 16.79 146.487 17.21 146.137 17.882H146.109V16.93ZM155.797 13.598C155.097 15.628 154.593 17.728 154.593 19.884C154.593 21.928 155.125 23.916 155.741 25.848H156.427C155.853 23.846 155.489 21.76 155.489 19.674C155.489 17.616 155.923 15.586 156.427 13.598H155.797ZM159.909 16.734C160.525 16.328 161.085 15.866 161.617 15.362V24H162.457V14.242H161.673C161.183 14.844 160.553 15.32 159.909 15.768V16.734ZM169.307 19.394C167.949 19.394 167.781 18.162 167.781 17.084C167.781 15.964 167.977 14.844 169.363 14.844C170.973 14.844 170.987 15.978 170.987 17.196C170.987 17.84 170.931 19.394 169.307 19.394ZM169.223 20.15C169.923 20.15 170.595 19.898 171.015 19.296H171.043C170.973 22.32 171.071 23.398 169.293 23.398C168.271 23.398 167.879 22.796 167.893 21.83H166.997C167.039 23.482 167.767 24.154 169.405 24.154C171.827 24.154 171.883 22.628 171.883 19.072V17.868C171.883 15.516 171.799 14.088 169.335 14.088C167.375 14.088 166.885 15.376 166.885 17.084C166.885 19.156 167.487 20.15 169.223 20.15ZM177.306 17.756C176.536 17.756 176.144 17.966 175.584 18.484V14.998H179.238V14.242H174.744V19.534H175.556C175.696 18.862 176.452 18.512 177.082 18.512C178.636 18.512 178.734 19.73 178.734 20.948C178.734 22.11 178.58 23.398 177.11 23.398C175.948 23.398 175.514 22.768 175.542 21.662H174.646C174.604 23.37 175.458 24.154 177.124 24.154C179.224 24.154 179.63 22.572 179.63 20.948C179.63 19.772 179.7 17.756 177.306 17.756ZM187.041 23.244H183.051C186.313 18.344 187.027 17.546 187.027 16.118C187.027 14.452 185.669 14.088 184.535 14.088C183.401 14.088 182.099 14.676 182.099 16.622H182.939C182.939 15.614 183.471 14.844 184.535 14.844C185.305 14.844 186.131 15.012 186.131 16.314C186.131 17.616 184.241 19.856 182.071 23.216V24H187.041V23.244ZM189.985 13.598C190.489 15.586 190.923 17.616 190.923 19.674C190.923 21.76 190.559 23.846 189.985 25.848H190.671C191.287 23.916 191.819 21.928 191.819 19.884C191.819 17.728 191.315 15.628 190.615 13.598H189.985ZM199.846 20.36C199.846 19.296 200.014 17.462 201.372 17.462C202.926 17.462 202.968 18.834 202.968 20.486C202.968 22.138 202.926 23.468 201.372 23.468C199.846 23.468 199.846 21.48 199.846 20.36ZM199.818 24V23.146H199.846C200.196 23.804 200.798 24.14 201.624 24.14C203.682 24.14 203.808 22.012 203.808 20.458C203.808 19.198 203.99 16.79 201.694 16.79C200.896 16.79 200.336 17.084 199.902 17.756L199.874 17.728V13.892H199.034V23.3C199.034 23.538 198.992 23.762 198.95 24H199.818ZM207.327 26.674H208.153L211.079 16.93H210.239L208.573 22.726H208.545L206.823 16.93H205.913L208.153 24.014L207.327 26.674ZM220.492 13.892L217.3 24H218.196L218.994 21.34H222.956L223.768 24H224.706L221.556 13.892H220.492ZM219.26 20.584L220.968 14.872H220.996L222.718 20.584H219.26ZM228.271 24V13.892H227.431V24H228.271ZM232.201 24H233.041V17.602H234.469V16.93H233.041V15.726C233.041 15.32 233.041 14.592 233.853 14.592H234.483V13.892C234.273 13.864 234.133 13.836 234.007 13.836C232.299 13.836 232.201 15.068 232.201 15.74V16.93H231.067V17.602H232.201V24ZM237.847 16.93H237.007V24H237.847V19.45C237.847 18.26 238.631 17.546 239.821 17.644V16.79C238.967 16.79 238.225 17.21 237.875 17.882H237.847V16.93ZM246.938 20.64C246.938 18.54 246.938 16.79 244.502 16.79C242.92 16.79 242.066 17.728 242.066 19.772V21.508C242.066 23.65 243.284 24.14 244.502 24.14C245.916 24.14 246.84 23.552 246.938 21.844H246.056C246.07 22.796 245.552 23.468 244.502 23.468C243.172 23.468 242.906 22.166 242.906 21.186V20.64H246.938ZM242.906 19.968C242.906 18.4 243.158 17.462 244.502 17.462C245.846 17.462 246.098 18.4 246.098 19.968H242.906ZM251.982 23.468C251.072 23.468 250.442 23.118 250.442 20.486C250.442 18.834 250.442 17.462 251.954 17.462C253.536 17.462 253.536 19.422 253.536 19.842V21.102C253.536 22.824 252.78 23.468 251.982 23.468ZM253.62 24H254.432C254.39 23.762 254.348 23.3 254.348 22.6V13.892H253.508V17.644L253.48 17.63C253.046 17.084 252.416 16.79 251.772 16.79C249.602 16.79 249.602 19.1 249.602 20.458C249.602 22.11 249.714 24.14 251.758 24.14C252.584 24.14 253.116 23.79 253.55 23.118L253.578 23.104L253.62 24ZM266.319 24V23.244H262.973V13.892H262.077V24H266.319ZM269.016 24H270.052V22.936H269.016V24ZM280.151 22.824H280.123L278.079 13.892H277.127L279.563 24H280.683L282.769 15.012H282.797L284.827 24H286.003L288.509 13.892H287.627L285.471 22.754H285.443L283.413 13.892H282.209L280.151 22.824ZM291.799 16.93H290.959V24H291.799V19.45C291.799 18.26 292.583 17.546 293.773 17.644V16.79C292.919 16.79 292.177 17.21 291.827 17.882H291.799V16.93ZM300.89 20.64C300.89 18.54 300.89 16.79 298.454 16.79C296.872 16.79 296.018 17.728 296.018 19.772V21.508C296.018 23.65 297.236 24.14 298.454 24.14C299.868 24.14 300.792 23.552 300.89 21.844H300.008C300.022 22.796 299.504 23.468 298.454 23.468C297.124 23.468 296.858 22.166 296.858 21.186V20.64H300.89ZM296.858 19.968C296.858 18.4 297.11 17.462 298.454 17.462C299.798 17.462 300.05 18.4 300.05 19.968H296.858ZM303.848 24H304.688V20.15H304.716L307.236 24H308.3L305.626 20.08L308.132 16.93H307.152L304.716 20.052H304.688V13.892H303.848V24ZM315.352 20.64C315.352 18.54 315.352 16.79 312.916 16.79C311.334 16.79 310.48 17.728 310.48 19.772V21.508C310.48 23.65 311.698 24.14 312.916 24.14C314.33 24.14 315.254 23.552 315.352 21.844H314.47C314.484 22.796 313.966 23.468 312.916 23.468C311.586 23.468 311.32 22.166 311.32 21.186V20.64H315.352ZM311.32 19.968C311.32 18.4 311.572 17.462 312.916 17.462C314.26 17.462 314.512 18.4 314.512 19.968H311.32ZM319.179 16.93H318.339V24H319.179V19.45C319.179 18.26 319.963 17.546 321.153 17.644V16.79C320.299 16.79 319.557 17.21 319.207 17.882H319.179V16.93ZM322.777 24H323.813V22.936H322.777V24Z" fill="white"/>
</svg>
