<svg width="53" height="17" viewBox="0 0 53 17" fill="none" xmlns="http://www.w3.org/2000/svg">
<path d="M11.016 4.046C10.836 1.706 8.82 0.733999 6.696 0.733999C2.772 0.733999 1.098 3.938 1.098 7.502C1.098 11.102 2.754 14.27 6.696 14.27C8.784 14.27 10.782 13.028 11.16 10.85H9.9C9.576 12.47 8.136 13.19 6.696 13.19C3.366 13.19 2.358 10.166 2.358 7.502C2.358 4.838 3.366 1.814 6.696 1.814C8.172 1.814 9.54 2.462 9.756 4.046H11.016ZM16.3439 1.004H15.2639V14H16.3439V1.004ZM27.6421 9.482C27.6421 11.156 26.7781 13.28 24.6001 13.28C22.4221 13.28 21.5581 11.156 21.5581 9.482C21.5581 7.808 22.4221 5.684 24.6001 5.684C26.7781 5.684 27.6421 7.808 27.6421 9.482ZM24.6001 4.694C21.7201 4.694 20.3881 7.106 20.3881 9.482C20.3881 11.858 21.7201 14.27 24.6001 14.27C27.4801 14.27 28.8121 11.858 28.8121 9.482C28.8121 7.106 27.4801 4.694 24.6001 4.694ZM32.532 7.214C32.532 8.888 33.972 9.302 35.394 9.644C36.834 9.968 38.256 10.184 38.256 11.48C38.256 12.74 37.05 13.28 35.898 13.28C34.674 13.28 33.486 12.884 33.396 11.534H32.226C32.262 13.532 34.062 14.27 35.628 14.27C37.536 14.27 39.426 13.352 39.426 11.318C39.426 10.346 38.832 9.536 37.896 9.212C35.448 8.348 33.702 8.474 33.702 7.142C33.702 6.08 34.728 5.684 35.736 5.684C36.852 5.684 37.86 6.062 37.968 7.196H39.138C38.994 5.288 37.554 4.694 35.844 4.694C34.26 4.694 32.532 5.342 32.532 7.214ZM51.252 9.734C51.252 6.908 50.154 4.694 47.13 4.694C44.448 4.694 43.098 7.034 43.098 9.482C43.098 11.948 44.358 14.27 47.058 14.27C49.236 14.27 50.586 13.28 51.144 11.12H50.01C49.74 12.362 48.678 13.28 47.4 13.28C45.186 13.28 44.304 11.66 44.268 9.734H51.252ZM44.304 8.744C44.448 7.16 45.384 5.684 47.148 5.684C49.02 5.684 49.956 6.998 50.082 8.744H44.304Z" fill="white"/>
<path d="M0 15.8H52.206V16.7H0V15.8Z" fill="white"/>
</svg>
