<svg width="402" height="256" viewBox="0 0 402 256" fill="none" xmlns="http://www.w3.org/2000/svg">
<path d="M52.2968 9.3L51.1068 10H54.4248L53.0248 9.23L49.3428 0.899999H47.6488L49.1468 2.202L46.0948 9.23L44.6248 10H47.8588L46.5988 9.3L47.5368 7.13H51.3308L52.2968 9.3ZM49.4128 2.818L51.1208 6.64H47.7468L49.4128 2.818ZM63.4543 5.52H65.3443L66.1843 6.85V3.7L65.3443 5.03H63.4543V1.67L63.9443 1.39H67.3043L68.2843 3.42V0.899999H61.3543L62.7543 1.67V9.23L61.3543 10H64.9943L63.4543 9.23V5.52ZM73.0437 1.67L74.4437 0.899999H70.9437L72.3437 1.67V9.23L70.9437 10H74.4437L73.0437 9.23V1.67ZM84.5281 0.69L83.7581 1.46C83.7581 1.46 82.8481 0.69 81.2381 0.69C78.6621 0.69 76.8281 2.51 76.8281 5.52C76.8281 8.25 78.6481 10.21 81.2381 10.21C84.1641 10.21 84.7381 7.9 84.7381 7.9C84.7381 7.9 83.8281 9.72 81.5181 9.72C79.4181 9.72 77.5981 8.25 77.5981 5.24C77.5981 2.58 79.3481 1.11 81.2381 1.11C82.7781 1.11 83.6181 2.02 83.6181 2.02L84.5281 4.12V0.69ZM95.0336 0.899999H87.6136V3.42L88.5936 1.39H90.9736V9.23L89.4336 10H93.2136L91.6736 9.23V1.39H94.0536L95.0336 3.42V0.899999ZM99.7886 1.67L101.189 0.899999H97.6886L99.0886 1.67V9.23L97.6886 10H101.189L99.7886 9.23V1.67ZM104.343 5.45C104.343 2.58 106.093 1.11 107.913 1.11C109.733 1.11 111.483 2.58 111.483 5.45C111.483 8.32 109.733 9.79 107.913 9.79C106.093 9.79 104.343 8.32 104.343 5.45ZM107.913 0.69C105.323 0.69 103.573 2.65 103.573 5.45C103.573 8.25 105.323 10.21 107.913 10.21C110.503 10.21 112.253 8.25 112.253 5.45C112.253 2.65 110.503 0.69 107.913 0.69ZM123.039 8.698L115.535 0.899999H114.569L115.969 2.356V9.23L114.569 10H117.999L116.459 9.23V2.874L123.529 10.21V1.67L124.929 0.899999H121.499L123.039 1.67V8.698ZM132.068 10H136.198C138.228 10 139.558 9.09 139.558 7.48C139.558 5.38 137.458 5.24 137.458 5.24V5.17C137.458 5.17 139.208 4.792 139.208 3.112C139.208 1.712 138.088 0.899999 136.198 0.899999H132.068L133.468 1.67V9.23L132.068 10ZM136.128 5.52C137.388 5.52 138.788 5.94 138.788 7.48C138.788 9.02 137.458 9.51 136.198 9.51H134.658L134.168 9.23V5.52H136.128ZM134.168 1.67L134.672 1.39H136.198C137.318 1.39 138.438 1.852 138.438 3.182C138.438 4.442 137.318 5.03 136.198 5.03H134.168V1.67ZM149.4 9.3L148.21 10H151.528L150.128 9.23L146.446 0.899999H144.752L146.25 2.202L143.198 9.23L141.728 10H144.962L143.702 9.3L144.64 7.13H148.434L149.4 9.3ZM146.516 2.818L148.224 6.64H144.85L146.516 2.818ZM159.581 0.69L158.881 1.32C158.881 1.32 158.041 0.69 156.571 0.69C154.681 0.69 153.771 1.712 153.771 2.86C153.771 4.176 154.765 4.75 156.655 5.422C158.601 6.108 159.301 6.64 159.301 7.9C159.301 9.02 158.391 9.79 157.061 9.79C155.521 9.79 154.751 8.95 154.751 8.95L153.841 6.78V10.21L154.513 9.44C154.513 9.44 155.381 10.21 157.061 10.21C158.951 10.21 160.001 9.132 160.001 7.76C160.001 5.94 158.531 5.31 156.795 4.722C155.087 4.148 154.471 3.658 154.471 2.762C154.471 1.922 155.241 1.11 156.571 1.11C157.901 1.11 158.671 1.81 158.671 1.81L159.581 3.7V0.69ZM164.837 1.67L165.327 1.39H168.967L169.947 3.42V0.899999H162.737L164.137 1.67V9.23L162.737 10H170.157V7.48L169.177 9.51H165.327L164.837 9.23V5.52H167.147L167.987 6.85V3.7L167.147 5.03H164.837V1.67ZM176.593 10C179.043 10 181.423 8.74 181.423 5.45C181.423 2.16 179.043 0.899999 176.593 0.899999H173.023L174.423 1.67V9.23L173.023 10H176.593ZM175.123 1.67L175.613 1.39H176.593C178.273 1.39 180.653 2.23 180.653 5.45C180.653 8.67 178.273 9.51 176.593 9.51H175.613L175.123 9.23V1.67ZM189.609 5.45C189.609 2.58 191.359 1.11 193.179 1.11C194.999 1.11 196.749 2.58 196.749 5.45C196.749 8.32 194.999 9.79 193.179 9.79C191.359 9.79 189.609 8.32 189.609 5.45ZM193.179 0.69C190.589 0.69 188.839 2.65 188.839 5.45C188.839 8.25 190.589 10.21 193.179 10.21C195.769 10.21 197.519 8.25 197.519 5.45C197.519 2.65 195.769 0.69 193.179 0.69ZM208.305 8.698L200.801 0.899999H199.835L201.235 2.356V9.23L199.835 10H203.265L201.725 9.23V2.874L208.795 10.21V1.67L210.195 0.899999H206.765L208.305 1.67V8.698ZM225.314 0.69L224.544 1.46C224.544 1.46 223.634 0.69 221.884 0.69C219.308 0.69 217.334 2.51 217.334 5.52C217.334 8.25 219.154 10.21 221.744 10.21C223.704 10.21 224.684 9.09 224.684 9.09L225.244 10.14V6.43L226.504 5.66H222.864L224.544 6.43V8.67C224.544 8.67 223.704 9.72 221.954 9.72C219.924 9.72 218.104 8.32 218.104 5.24C218.104 2.51 219.994 1.11 221.884 1.11C223.564 1.11 224.404 2.02 224.404 2.02L225.314 4.12V0.69ZM236.445 1.67L237.845 0.899999H234.485L235.885 1.67V7.06C235.885 8.572 234.947 9.58 233.155 9.58C231.363 9.58 230.425 8.572 230.425 7.06V1.67L231.825 0.899999H228.325L229.725 1.67V7.06C229.725 8.936 230.887 10.21 233.155 10.21C235.311 10.21 236.445 8.936 236.445 7.06V1.67ZM246.104 0.69L245.404 1.32C245.404 1.32 244.564 0.69 243.094 0.69C241.204 0.69 240.294 1.712 240.294 2.86C240.294 4.176 241.288 4.75 243.178 5.422C245.124 6.108 245.824 6.64 245.824 7.9C245.824 9.02 244.914 9.79 243.584 9.79C242.044 9.79 241.274 8.95 241.274 8.95L240.364 6.78V10.21L241.036 9.44C241.036 9.44 241.904 10.21 243.584 10.21C245.474 10.21 246.524 9.132 246.524 7.76C246.524 5.94 245.054 5.31 243.318 4.722C241.61 4.148 240.994 3.658 240.994 2.762C240.994 1.922 241.764 1.11 243.094 1.11C244.424 1.11 245.194 1.81 245.194 1.81L246.104 3.7V0.69ZM263.733 0.899999H260.513L261.773 1.6L258.833 8.67L255.907 1.6L257.097 0.899999H253.807L255.207 1.74L258.721 10.21L262.263 1.67L263.733 0.899999ZM271.684 9.3L270.494 10H273.812L272.412 9.23L268.73 0.899999H267.036L268.534 2.202L265.482 9.23L264.012 10H267.246L265.986 9.3L266.924 7.13H270.718L271.684 9.3ZM268.8 2.818L270.508 6.64H267.134L268.8 2.818ZM284.105 8.698L276.601 0.899999H275.635L277.035 2.356V9.23L275.635 10H279.065L277.525 9.23V2.874L284.595 10.21V1.67L285.995 0.899999H282.565L284.105 1.67V8.698ZM299.294 0.69L298.594 1.32C298.594 1.32 297.754 0.69 296.284 0.69C294.394 0.69 293.484 1.712 293.484 2.86C293.484 4.176 294.478 4.75 296.368 5.422C298.314 6.108 299.014 6.64 299.014 7.9C299.014 9.02 298.104 9.79 296.774 9.79C295.234 9.79 294.464 8.95 294.464 8.95L293.554 6.78V10.21L294.226 9.44C294.226 9.44 295.094 10.21 296.774 10.21C298.664 10.21 299.714 9.132 299.714 7.76C299.714 5.94 298.244 5.31 296.508 4.722C294.8 4.148 294.184 3.658 294.184 2.762C294.184 1.922 294.954 1.11 296.284 1.11C297.614 1.11 298.384 1.81 298.384 1.81L299.294 3.7V0.69ZM309.632 9.3L308.442 10H311.76L310.36 9.23L306.678 0.899999H304.984L306.482 2.202L303.43 9.23L301.96 10H305.194L303.934 9.3L304.872 7.13H308.666L309.632 9.3ZM306.748 2.818L308.456 6.64H305.082L306.748 2.818ZM322.052 8.698L314.548 0.899999H313.582L314.982 2.356V9.23L313.582 10H317.012L315.472 9.23V2.874L322.542 10.21V1.67L323.942 0.899999H320.512L322.052 1.67V8.698ZM333.745 0.899999H326.325V3.42L327.305 1.39H329.685V9.23L328.145 10H331.925L330.385 9.23V1.39H332.765L333.745 3.42V0.899999ZM336.75 0.899999C336.75 1.292 337.058 1.6 337.45 1.6H337.52L336.82 3.21C338.08 1.67 338.15 1.39 338.15 0.899999C338.15 0.508 337.842 0.199999 337.45 0.199999C337.058 0.199999 336.75 0.508 336.75 0.899999ZM347.036 0.69L346.336 1.32C346.336 1.32 345.496 0.69 344.026 0.69C342.136 0.69 341.226 1.712 341.226 2.86C341.226 4.176 342.22 4.75 344.11 5.422C346.056 6.108 346.756 6.64 346.756 7.9C346.756 9.02 345.846 9.79 344.516 9.79C342.976 9.79 342.206 8.95 342.206 8.95L341.296 6.78V10.21L341.968 9.44C341.968 9.44 342.836 10.21 344.516 10.21C346.406 10.21 347.456 9.132 347.456 7.76C347.456 5.94 345.986 5.31 344.25 4.722C342.542 4.148 341.926 3.658 341.926 2.762C341.926 1.922 342.696 1.11 344.026 1.11C345.356 1.11 346.126 1.81 346.126 1.81L347.036 3.7V0.69ZM135.412 23.67L135.902 23.39H139.542L140.522 25.42V22.9H133.312L134.712 23.67V31.23L133.312 32H140.732V29.48L139.752 31.51H135.902L135.412 31.23V27.52H137.722L138.562 28.85V25.7L137.722 27.03H135.412V23.67ZM147.239 22.9H143.599L144.999 23.67V31.23L143.599 32H150.739V29.34L149.689 31.51H146.189L145.699 31.23V23.67L147.239 22.9ZM155.493 23.67L155.983 23.39H159.623L160.603 25.42V22.9H153.393L154.793 23.67V31.23L153.393 32H160.813V29.48L159.833 31.51H155.983L155.493 31.23V27.52H157.803L158.643 28.85V25.7L157.803 27.03H155.493V23.67ZM167.46 32L165.78 31.23V27.8H167.6C169.63 27.8 170.82 26.75 170.82 25.35C170.82 23.95 169.63 22.9 167.6 22.9H163.68L165.08 23.67V31.23L163.68 32H167.46ZM165.78 23.67L166.27 23.39H167.6C169.14 23.39 170.05 24.16 170.05 25.35C170.05 26.54 169.14 27.31 167.6 27.31H165.78V23.67ZM183.136 22.9H179.636L181.036 23.67V27.03H175.506V23.67L176.906 22.9H173.406L174.806 23.67V31.23L173.406 32H176.906L175.506 31.23V27.52H181.036V31.23L179.636 32H183.136L181.736 31.23V23.67L183.136 22.9ZM192.693 31.3L191.503 32H194.821L193.421 31.23L189.739 22.9H188.045L189.543 24.202L186.491 31.23L185.021 32H188.255L186.995 31.3L187.933 29.13H191.727L192.693 31.3ZM189.809 24.818L191.517 28.64H188.143L189.809 24.818ZM205.114 30.698L197.61 22.9H196.644L198.044 24.356V31.23L196.644 32H200.074L198.534 31.23V24.874L205.604 32.21V23.67L207.004 22.9H203.574L205.114 23.67V30.698ZM216.806 22.9H209.386V25.42L210.366 23.39H212.746V31.23L211.206 32H214.986L213.446 31.23V23.39H215.826L216.806 25.42V22.9ZM225.548 28.57C225.548 33.344 228.992 34.394 229.174 34.45C229.048 34.394 226.318 33.204 226.318 28.57C226.318 23.936 229.048 22.746 229.174 22.69C228.992 22.746 225.548 23.796 225.548 28.57ZM236.386 30.32L235.826 31.3H232.382L234.048 29.886C235.462 28.682 236.106 28.29 236.106 27.31C236.106 26.68 235.616 25.49 233.656 25.49C231.906 25.49 231.206 26.54 231.206 27.38C231.206 27.94 231.556 28.192 231.878 28.192C232.172 28.192 232.382 27.968 232.382 27.716C232.382 27.226 231.906 27.31 231.906 26.96C231.906 26.33 232.606 25.84 233.656 25.84C234.706 25.84 235.406 26.47 235.406 27.31C235.406 28.15 234.846 28.668 233.642 29.69L230.926 32H236.386V30.32ZM239.563 28.472C239.563 27.142 240.515 25.938 241.957 25.938C243.413 25.938 244.967 27.1 244.967 29.228C244.967 30.544 244.001 31.762 242.559 31.762C241.103 31.762 239.563 30.6 239.563 28.472ZM238.905 28.85C238.905 30.698 240.277 32.21 242.265 32.21C244.253 32.21 245.625 30.698 245.625 28.85C245.625 27.002 244.253 25.49 242.265 25.49C240.277 25.49 238.905 27.002 238.905 28.85ZM248.661 28.472C248.661 27.142 249.613 25.938 251.055 25.938C252.511 25.938 254.065 27.1 254.065 29.228C254.065 30.544 253.099 31.762 251.657 31.762C250.201 31.762 248.661 30.6 248.661 28.472ZM248.003 28.85C248.003 30.698 249.375 32.21 251.363 32.21C253.351 32.21 254.723 30.698 254.723 28.85C254.723 27.002 253.351 25.49 251.363 25.49C249.375 25.49 248.003 27.002 248.003 28.85ZM259.83 28.85C261.02 28.85 262.21 29.62 262.21 31.37C262.21 33.4 260.88 33.96 259.83 33.96C258.85 33.96 258.122 33.498 258.122 32.868C258.122 32.728 258.248 32.588 258.248 32.35C258.248 32.084 258.15 31.776 257.758 31.776C257.408 31.776 257.24 32.056 257.24 32.42C257.24 33.33 258.22 34.31 259.83 34.31C261.72 34.31 262.98 33.12 262.98 31.37C262.98 29.606 261.86 28.5 260.124 28.43L262.98 25.7H257.31V27.38L257.87 26.4H261.65L258.78 29.13C258.836 29.088 259.242 28.85 259.83 28.85ZM268.636 28.57C268.636 23.796 265.192 22.746 265.01 22.69C265.136 22.746 267.866 23.936 267.866 28.57C267.866 33.204 265.136 34.394 265.01 34.45C265.192 34.394 268.636 33.344 268.636 28.57ZM10.6409 67.67L13.2449 76.21L15.8489 68.524L18.5369 76.21L21.1409 67.67L22.6109 66.9H19.3769L20.6369 67.6L18.6069 74.306L15.9469 66.69L13.3849 74.264L11.3549 67.6L12.6149 66.9H9.1709L10.6409 67.67ZM28.2804 76L26.6004 75.23V71.8H28.3784L31.5284 76H33.1104L31.8224 75.23L29.2044 71.744C30.7444 71.506 31.6404 70.568 31.6404 69.35C31.6404 67.95 30.4504 66.9 28.4204 66.9H24.5004L25.9004 67.67V75.23L24.5004 76H28.2804ZM26.6004 67.67L27.0904 67.39H28.4204C29.9604 67.39 30.8704 68.16 30.8704 69.35C30.8704 70.54 29.9604 71.31 28.4204 71.31H26.6004V67.67ZM37.1742 67.67L38.5742 66.9H35.0742L36.4742 67.67V75.23L35.0742 76H38.5742L37.1742 75.23V67.67ZM48.6586 66.9H41.2386V69.42L42.2186 67.39H44.5986V75.23L43.0586 76H46.8386L45.2986 75.23V67.39H47.6786L48.6586 69.42V66.9ZM53.4136 67.67L53.9036 67.39H57.5436L58.5236 69.42V66.9H51.3136L52.7136 67.67V75.23L51.3136 76H58.7336V73.48L57.7536 75.51H53.9036L53.4136 75.23V71.52H55.7236L56.5636 72.85V69.7L55.7236 71.03H53.4136V67.67ZM70.0004 74.698L62.4964 66.9H61.5304L62.9304 68.356V75.23L61.5304 76H64.9604L63.4204 75.23V68.874L70.4904 76.21V67.67L71.8904 66.9H68.4604L70.0004 67.67V74.698ZM86.2113 75.3L85.0213 76H88.3393L86.9393 75.23L83.2573 66.9H81.5633L83.0613 68.202L80.0093 75.23L78.5393 76H81.7733L80.5133 75.3L81.4513 73.13H85.2453L86.2113 75.3ZM83.3273 68.818L85.0353 72.64H81.6613L83.3273 68.818ZM98.632 74.698L91.128 66.9H90.162L91.562 68.356V75.23L90.162 76H93.592L92.052 75.23V68.874L99.122 76.21V67.67L100.522 66.9H97.092L98.632 67.67V74.698ZM106.194 76C108.644 76 111.024 74.74 111.024 71.45C111.024 68.16 108.644 66.9 106.194 66.9H102.624L104.024 67.67V75.23L102.624 76H106.194ZM104.724 67.67L105.214 67.39H106.194C107.874 67.39 110.254 68.23 110.254 71.45C110.254 74.67 107.874 75.51 106.194 75.51H105.214L104.724 75.23V67.67ZM122.01 76C124.46 76 126.84 74.74 126.84 71.45C126.84 68.16 124.46 66.9 122.01 66.9H118.44L119.84 67.67V75.23L118.44 76H122.01ZM120.54 67.67L121.03 67.39H122.01C123.69 67.39 126.07 68.23 126.07 71.45C126.07 74.67 123.69 75.51 122.01 75.51H121.03L120.54 75.23V67.67ZM131.319 67.67L131.809 67.39H135.449L136.429 69.42V66.9H129.219L130.619 67.67V75.23L129.219 76H136.639V73.48L135.659 75.51H131.809L131.319 75.23V71.52H133.629L134.469 72.85V69.7L133.629 71.03H131.319V67.67ZM145.665 66.69L144.965 67.32C144.965 67.32 144.125 66.69 142.655 66.69C140.765 66.69 139.855 67.712 139.855 68.86C139.855 70.176 140.849 70.75 142.739 71.422C144.685 72.108 145.385 72.64 145.385 73.9C145.385 75.02 144.475 75.79 143.145 75.79C141.605 75.79 140.835 74.95 140.835 74.95L139.925 72.78V76.21L140.597 75.44C140.597 75.44 141.465 76.21 143.145 76.21C145.035 76.21 146.085 75.132 146.085 73.76C146.085 71.94 144.615 71.31 142.879 70.722C141.171 70.148 140.555 69.658 140.555 68.762C140.555 67.922 141.325 67.11 142.655 67.11C143.985 67.11 144.755 67.81 144.755 67.81L145.665 69.7V66.69ZM150.921 67.67L152.321 66.9H148.821L150.221 67.67V75.23L148.821 76H152.321L150.921 75.23V67.67ZM162.686 66.69L161.916 67.46C161.916 67.46 161.006 66.69 159.256 66.69C156.68 66.69 154.706 68.51 154.706 71.52C154.706 74.25 156.526 76.21 159.116 76.21C161.076 76.21 162.056 75.09 162.056 75.09L162.616 76.14V72.43L163.876 71.66H160.236L161.916 72.43V74.67C161.916 74.67 161.076 75.72 159.326 75.72C157.296 75.72 155.476 74.32 155.476 71.24C155.476 68.51 157.366 67.11 159.256 67.11C160.936 67.11 161.776 68.02 161.776 68.02L162.686 70.12V66.69ZM174.377 74.698L166.873 66.9H165.907L167.307 68.356V75.23L165.907 76H169.337L167.797 75.23V68.874L174.867 76.21V67.67L176.267 66.9H172.837L174.377 67.67V74.698ZM180.469 67.67L180.959 67.39H184.599L185.579 69.42V66.9H178.369L179.769 67.67V75.23L178.369 76H185.789V73.48L184.809 75.51H180.959L180.469 75.23V71.52H182.779L183.619 72.85V69.7L182.779 71.03H180.469V67.67ZM192.226 76C194.676 76 197.056 74.74 197.056 71.45C197.056 68.16 194.676 66.9 192.226 66.9H188.656L190.056 67.67V75.23L188.656 76H192.226ZM190.756 67.67L191.246 67.39H192.226C193.906 67.39 196.286 68.23 196.286 71.45C196.286 74.67 193.906 75.51 192.226 75.51H191.246L190.756 75.23V67.67ZM204.471 76H208.601C210.631 76 211.961 75.09 211.961 73.48C211.961 71.38 209.861 71.24 209.861 71.24V71.17C209.861 71.17 211.611 70.792 211.611 69.112C211.611 67.712 210.491 66.9 208.601 66.9H204.471L205.871 67.67V75.23L204.471 76ZM208.531 71.52C209.791 71.52 211.191 71.94 211.191 73.48C211.191 75.02 209.861 75.51 208.601 75.51H207.061L206.571 75.23V71.52H208.531ZM206.571 67.67L207.075 67.39H208.601C209.721 67.39 210.841 67.852 210.841 69.182C210.841 70.442 209.721 71.03 208.601 71.03H206.571V67.67ZM217.026 66.9H213.708L215.108 67.67L218.146 72.178V75.23L216.746 76H220.246L218.846 75.23V72.094L221.828 67.67L223.228 66.9H220.176L221.296 67.6L218.594 71.59L215.906 67.6L217.026 66.9ZM237.332 75.3L236.142 76H239.46L238.06 75.23L234.378 66.9H232.684L234.182 68.202L231.13 75.23L229.66 76H232.894L231.634 75.3L232.572 73.13H236.366L237.332 75.3ZM234.448 68.818L236.156 72.64H232.782L234.448 68.818ZM249.753 74.698L242.249 66.9H241.283L242.683 68.356V75.23L241.283 76H244.713L243.173 75.23V68.874L250.243 76.21V67.67L251.643 66.9H248.213L249.753 67.67V74.698ZM260.927 75.3L259.737 76H263.055L261.655 75.23L257.973 66.9H256.279L257.777 68.202L254.725 75.23L253.255 76H256.489L255.229 75.3L256.167 73.13H259.961L260.927 75.3ZM258.043 68.818L259.751 72.64H256.377L258.043 68.818ZM273.624 66.9H269.984L271.384 67.67V75.23L269.984 76H277.124V73.34L276.074 75.51H272.574L272.084 75.23V67.67L273.624 66.9ZM287.619 67.67L289.019 66.9H285.659L287.059 67.67V73.06C287.059 74.572 286.121 75.58 284.329 75.58C282.537 75.58 281.599 74.572 281.599 73.06V67.67L282.999 66.9H279.499L280.899 67.67V73.06C280.899 74.936 282.061 76.21 284.329 76.21C286.485 76.21 287.619 74.936 287.619 73.06V67.67ZM293.218 67.67L294.618 66.9H291.118L292.518 67.67V75.23L291.118 76H294.618L293.218 75.23V67.67ZM293.764 63.4L291.734 66.2L294.954 63.4H293.764ZM303.163 66.69L302.463 67.32C302.463 67.32 301.623 66.69 300.153 66.69C298.263 66.69 297.353 67.712 297.353 68.86C297.353 70.176 298.347 70.75 300.237 71.422C302.183 72.108 302.883 72.64 302.883 73.9C302.883 75.02 301.973 75.79 300.643 75.79C299.103 75.79 298.333 74.95 298.333 74.95L297.423 72.78V76.21L298.095 75.44C298.095 75.44 298.963 76.21 300.643 76.21C302.533 76.21 303.583 75.132 303.583 73.76C303.583 71.94 302.113 71.31 300.377 70.722C298.669 70.148 298.053 69.658 298.053 68.762C298.053 67.922 298.823 67.11 300.153 67.11C301.483 67.11 302.253 67.81 302.253 67.81L303.163 69.7V66.69ZM313.501 75.3L312.311 76H315.629L314.229 75.23L310.547 66.9H308.853L310.351 68.202L307.299 75.23L305.829 76H309.063L307.803 75.3L308.741 73.13H312.535L313.501 75.3ZM310.617 68.818L312.325 72.64H308.951L310.617 68.818ZM328.718 66.69L328.018 67.32C328.018 67.32 327.178 66.69 325.708 66.69C323.818 66.69 322.908 67.712 322.908 68.86C322.908 70.176 323.902 70.75 325.792 71.422C327.738 72.108 328.438 72.64 328.438 73.9C328.438 75.02 327.528 75.79 326.198 75.79C324.658 75.79 323.888 74.95 323.888 74.95L322.978 72.78V76.21L323.65 75.44C323.65 75.44 324.518 76.21 326.198 76.21C328.088 76.21 329.138 75.132 329.138 73.76C329.138 71.94 327.668 71.31 325.932 70.722C324.224 70.148 323.608 69.658 323.608 68.762C323.608 67.922 324.378 67.11 325.708 67.11C327.038 67.11 327.808 67.81 327.808 67.81L328.718 69.7V66.69ZM339.056 75.3L337.866 76H341.184L339.784 75.23L336.102 66.9H334.408L335.906 68.202L332.854 75.23L331.384 76H334.618L333.358 75.3L334.296 73.13H338.09L339.056 75.3ZM336.172 68.818L337.88 72.64H334.506L336.172 68.818ZM351.477 74.698L343.973 66.9H343.007L344.407 68.356V75.23L343.007 76H346.437L344.897 75.23V68.874L351.967 76.21V67.67L353.367 66.9H349.937L351.477 67.67V74.698ZM363.169 66.9H355.749V69.42L356.729 67.39H359.109V75.23L357.569 76H361.349L359.809 75.23V67.39H362.189L363.169 69.42V66.9ZM366.594 71.45C366.594 68.58 368.344 67.11 370.164 67.11C371.984 67.11 373.734 68.58 373.734 71.45C373.734 74.32 371.984 75.79 370.164 75.79C368.344 75.79 366.594 74.32 366.594 71.45ZM370.164 66.69C367.574 66.69 365.824 68.65 365.824 71.45C365.824 74.25 367.574 76.21 370.164 76.21C372.754 76.21 374.504 74.25 374.504 71.45C374.504 68.65 372.754 66.69 370.164 66.69ZM383.05 66.69L382.35 67.32C382.35 67.32 381.51 66.69 380.04 66.69C378.15 66.69 377.24 67.712 377.24 68.86C377.24 70.176 378.234 70.75 380.124 71.422C382.07 72.108 382.77 72.64 382.77 73.9C382.77 75.02 381.86 75.79 380.53 75.79C378.99 75.79 378.22 74.95 378.22 74.95L377.31 72.78V76.21L377.982 75.44C377.982 75.44 378.85 76.21 380.53 76.21C382.42 76.21 383.47 75.132 383.47 73.76C383.47 71.94 382 71.31 380.264 70.722C378.556 70.148 377.94 69.658 377.94 68.762C377.94 67.922 378.71 67.11 380.04 67.11C381.37 67.11 382.14 67.81 382.14 67.81L383.05 69.7V66.69ZM386.556 75.37C386.556 75.762 386.864 76.07 387.256 76.07H387.326L386.626 77.68C387.886 76.14 387.956 75.86 387.956 75.37C387.956 74.978 387.648 74.67 387.256 74.67C386.864 74.67 386.556 74.978 386.556 75.37ZM46.1171 97.3L44.9271 98H48.2451L46.8451 97.23L43.1631 88.9H41.4691L42.9671 90.202L39.9151 97.23L38.4451 98H41.6791L40.4191 97.3L41.3571 95.13H45.1511L46.1171 97.3ZM43.2331 90.818L44.9411 94.64H41.5671L43.2331 90.818ZM58.5379 96.698L51.0339 88.9H50.0679L51.4679 90.356V97.23L50.0679 98H53.4979L51.9579 97.23V90.874L59.0279 98.21V89.67L60.4279 88.9H56.9979L58.5379 89.67V96.698ZM69.712 97.3L68.522 98H71.84L70.44 97.23L66.758 88.9H65.064L66.562 90.202L63.51 97.23L62.04 98H65.274L64.014 97.3L64.952 95.13H68.746L69.712 97.3ZM66.828 90.818L68.536 94.64H65.162L66.828 90.818ZM82.5495 98L80.8695 97.23V93.8H82.6895C84.7195 93.8 85.9095 92.75 85.9095 91.35C85.9095 89.95 84.7195 88.9 82.6895 88.9H78.7695L80.1695 89.67V97.23L78.7695 98H82.5495ZM80.8695 89.67L81.3595 89.39H82.6895C84.2295 89.39 85.1395 90.16 85.1395 91.35C85.1395 92.54 84.2295 93.31 82.6895 93.31H80.8695V89.67ZM94.6249 97.3L93.4349 98H96.7529L95.3529 97.23L91.6709 88.9H89.9769L91.4749 90.202L88.4229 97.23L86.9529 98H90.1869L88.9269 97.3L89.8649 95.13H93.6589L94.6249 97.3ZM91.7409 90.818L93.4489 94.64H90.0749L91.7409 90.818ZM105.512 88.9H98.0917V91.42L99.0717 89.39H101.452V97.23L99.9117 98H103.692L102.152 97.23V89.39H104.532L105.512 91.42V88.9ZM111.947 98L110.267 97.23V93.8H112.045L115.195 98H116.777L115.489 97.23L112.871 93.744C114.411 93.506 115.307 92.568 115.307 91.35C115.307 89.95 114.117 88.9 112.087 88.9H108.167L109.567 89.67V97.23L108.167 98H111.947ZM110.267 89.67L110.757 89.39H112.087C113.627 89.39 114.537 90.16 114.537 91.35C114.537 92.54 113.627 93.31 112.087 93.31H110.267V89.67ZM120.841 89.67L122.241 88.9H118.741L120.141 89.67V97.23L118.741 98H122.241L120.841 97.23V89.67ZM121.387 85.4L119.357 88.2L122.577 85.4H121.387ZM132.325 88.69L131.555 89.46C131.555 89.46 130.645 88.69 129.035 88.69C126.459 88.69 124.625 90.51 124.625 93.52C124.625 96.25 126.445 98.21 129.035 98.21C131.961 98.21 132.535 95.9 132.535 95.9C132.535 95.9 131.625 97.72 129.315 97.72C127.215 97.72 125.395 96.25 125.395 93.24C125.395 90.58 127.145 89.11 129.035 89.11C130.575 89.11 131.415 90.02 131.415 90.02L132.325 92.12V88.69ZM137.23 89.67L138.63 88.9H135.13L136.53 89.67V97.23L135.13 98H138.63L137.23 97.23V89.67ZM148.197 97.3L147.007 98H150.325L148.925 97.23L145.243 88.9H143.549L145.047 90.202L141.995 97.23L140.525 98H143.759L142.499 97.3L143.437 95.13H147.231L148.197 97.3ZM145.313 90.818L147.021 94.64H143.647L145.313 90.818ZM160.894 88.9H157.254L158.654 89.67V97.23L157.254 98H164.394V95.34L163.344 97.51H159.844L159.354 97.23V89.67L160.894 88.9ZM174.231 97.3L173.041 98H176.359L174.959 97.23L171.277 88.9H169.583L171.081 90.202L168.029 97.23L166.559 98H169.793L168.533 97.3L169.471 95.13H173.265L174.231 97.3ZM171.347 90.818L173.055 94.64H169.681L171.347 90.818ZM182.032 98L180.352 97.23V93.8H182.172C184.202 93.8 185.392 92.75 185.392 91.35C185.392 89.95 184.202 88.9 182.172 88.9H178.252L179.652 89.67V97.23L178.252 98H182.032ZM180.352 89.67L180.842 89.39H182.172C183.712 89.39 184.622 90.16 184.622 91.35C184.622 92.54 183.712 93.31 182.172 93.31H180.352V89.67ZM194.107 97.3L192.917 98H196.235L194.835 97.23L191.153 88.9H189.459L190.957 90.202L187.905 97.23L186.435 98H189.669L188.409 97.3L189.347 95.13H193.141L194.107 97.3ZM191.223 90.818L192.931 94.64H189.557L191.223 90.818ZM198.478 97.37C198.478 97.762 198.786 98.07 199.178 98.07H199.248L198.548 99.68C199.808 98.14 199.878 97.86 199.878 97.37C199.878 96.978 199.57 96.67 199.178 96.67C198.786 96.67 198.478 96.978 198.478 97.37ZM207.641 98H210.931L209.531 97.23V90.16L213.171 98.21L216.937 90.048V97.23L215.537 98H219.037L217.637 97.23V89.67L219.037 88.9H216.937L213.297 96.768L209.713 88.9H207.641L209.041 89.67V97.23L207.641 98ZM228.596 97.3L227.406 98H230.724L229.324 97.23L225.642 88.9H223.948L225.446 90.202L222.394 97.23L220.924 98H224.158L222.898 97.3L223.836 95.13H227.63L228.596 97.3ZM225.712 90.818L227.42 94.64H224.046L225.712 90.818ZM236.396 98L234.716 97.23V93.8H236.494L239.644 98H241.226L239.938 97.23L237.32 93.744C238.86 93.506 239.756 92.568 239.756 91.35C239.756 89.95 238.566 88.9 236.536 88.9H232.616L234.016 89.67V97.23L232.616 98H236.396ZM234.716 89.67L235.206 89.39H236.536C238.076 89.39 238.986 90.16 238.986 91.35C238.986 92.54 238.076 93.31 236.536 93.31H234.716V89.67ZM245.29 89.67L246.69 88.9H243.19L244.59 89.67V97.23L243.19 98H246.69L245.29 97.23V89.67ZM256.257 97.3L255.067 98H258.385L256.985 97.23L253.303 88.9H251.609L253.107 90.202L250.055 97.23L248.585 98H251.819L250.559 97.3L251.497 95.13H255.291L256.257 97.3ZM253.373 90.818L255.081 94.64H251.707L253.373 90.818ZM268.677 96.698L261.173 88.9H260.207L261.607 90.356V97.23L260.207 98H263.637L262.097 97.23V90.874L269.167 98.21V89.67L270.567 88.9H267.137L268.677 89.67V96.698ZM279.852 97.3L278.662 98H281.98L280.58 97.23L276.898 88.9H275.204L276.702 90.202L273.65 97.23L272.18 98H275.414L274.154 97.3L275.092 95.13H278.886L279.852 97.3ZM276.968 90.818L278.676 94.64H275.302L276.968 90.818ZM296.091 97.3L294.901 98H298.219L296.819 97.23L293.137 88.9H291.443L292.941 90.202L289.889 97.23L288.419 98H291.653L290.393 97.3L291.331 95.13H295.125L296.091 97.3ZM293.207 90.818L294.915 94.64H291.541L293.207 90.818ZM303.752 88.9H300.112L301.512 89.67V97.23L300.112 98H307.252V95.34L306.202 97.51H302.702L302.212 97.23V89.67L303.752 88.9ZM309.906 98H313.196L311.796 97.23V90.16L315.436 98.21L319.202 90.048V97.23L317.802 98H321.302L319.902 97.23V89.67L321.302 88.9H319.202L315.562 96.768L311.978 88.9H309.906L311.306 89.67V97.23L309.906 98ZM325.779 89.67L326.269 89.39H329.909L330.889 91.42V88.9H323.679L325.079 89.67V97.23L323.679 98H331.099V95.48L330.119 97.51H326.269L325.779 97.23V93.52H328.089L328.929 94.85V91.7L328.089 93.03H325.779V89.67ZM336.066 89.67L337.466 88.9H333.966L335.366 89.67V97.23L333.966 98H337.466L336.066 97.23V89.67ZM343.42 98C345.87 98 348.25 96.74 348.25 93.45C348.25 90.16 345.87 88.9 343.42 88.9H339.85L341.25 89.67V97.23L339.85 98H343.42ZM341.95 89.67L342.44 89.39H343.42C345.1 89.39 347.48 90.23 347.48 93.45C347.48 96.67 345.1 97.51 343.42 97.51H342.44L341.95 97.23V89.67ZM357.387 97.3L356.197 98H359.515L358.115 97.23L354.433 88.9H352.739L354.237 90.202L351.185 97.23L349.715 98H352.949L351.689 97.3L352.627 95.13H356.421L357.387 97.3ZM354.503 90.818L356.211 94.64H352.837L354.503 90.818ZM116.995 119.3L115.805 120H119.123L117.723 119.23L114.041 110.9H112.347L113.845 112.202L110.793 119.23L109.323 120H112.557L111.297 119.3L112.235 117.13H116.029L116.995 119.3ZM114.111 112.818L115.819 116.64H112.445L114.111 112.818ZM129.416 118.698L121.912 110.9H120.946L122.346 112.356V119.23L120.946 120H124.376L122.836 119.23V112.874L129.906 120.21V111.67L131.306 110.9H127.876L129.416 111.67V118.698ZM136.978 120C139.428 120 141.808 118.74 141.808 115.45C141.808 112.16 139.428 110.9 136.978 110.9H133.408L134.808 111.67V119.23L133.408 120H136.978ZM135.508 111.67L135.998 111.39H136.978C138.658 111.39 141.038 112.23 141.038 115.45C141.038 118.67 138.658 119.51 136.978 119.51H135.998L135.508 119.23V111.67ZM149.223 120H152.513L151.113 119.23V112.16L154.753 120.21L158.519 112.048V119.23L157.119 120H160.619L159.219 119.23V111.67L160.619 110.9H158.519L154.879 118.768L151.295 110.9H149.223L150.623 111.67V119.23L149.223 120ZM165.096 111.67L165.586 111.39H169.226L170.206 113.42V110.9H162.996L164.396 111.67V119.23L162.996 120H170.416V117.48L169.436 119.51H165.586L165.096 119.23V115.52H167.406L168.246 116.85V113.7L167.406 115.03H165.096V111.67ZM177.063 120L175.383 119.23V115.8H177.161L180.311 120H181.893L180.605 119.23L177.987 115.744C179.527 115.506 180.423 114.568 180.423 113.35C180.423 111.95 179.233 110.9 177.203 110.9H173.283L174.683 111.67V119.23L173.283 120H177.063ZM175.383 111.67L175.873 111.39H177.203C178.743 111.39 179.653 112.16 179.653 113.35C179.653 114.54 178.743 115.31 177.203 115.31H175.383V111.67ZM191.42 110.69L190.65 111.46C190.65 111.46 189.74 110.69 188.13 110.69C185.554 110.69 183.72 112.51 183.72 115.52C183.72 118.25 185.54 120.21 188.13 120.21C191.056 120.21 191.63 117.9 191.63 117.9C191.63 117.9 190.72 119.72 188.41 119.72C186.31 119.72 184.49 118.25 184.49 115.24C184.49 112.58 186.24 111.11 188.13 111.11C189.67 111.11 190.51 112.02 190.51 112.02L191.42 114.12V110.69ZM196.326 111.67L196.816 111.39H200.456L201.436 113.42V110.9H194.226L195.626 111.67V119.23L194.226 120H201.646V117.48L200.666 119.51H196.816L196.326 119.23V115.52H198.636L199.476 116.85V113.7L198.636 115.03H196.326V111.67ZM208.082 120C210.532 120 212.912 118.74 212.912 115.45C212.912 112.16 210.532 110.9 208.082 110.9H204.512L205.912 111.67V119.23L204.512 120H208.082ZM206.612 111.67L207.102 111.39H208.082C209.762 111.39 212.142 112.23 212.142 115.45C212.142 118.67 209.762 119.51 208.082 119.51H207.102L206.612 119.23V111.67ZM217.391 111.67L217.881 111.39H221.521L222.501 113.42V110.9H215.291L216.691 111.67V119.23L215.291 120H222.711V117.48L221.731 119.51H217.881L217.391 119.23V115.52H219.701L220.541 116.85V113.7L219.701 115.03H217.391V111.67ZM231.738 110.69L231.038 111.32C231.038 111.32 230.198 110.69 228.728 110.69C226.838 110.69 225.928 111.712 225.928 112.86C225.928 114.176 226.922 114.75 228.812 115.422C230.758 116.108 231.458 116.64 231.458 117.9C231.458 119.02 230.548 119.79 229.218 119.79C227.678 119.79 226.908 118.95 226.908 118.95L225.998 116.78V120.21L226.67 119.44C226.67 119.44 227.538 120.21 229.218 120.21C231.108 120.21 232.158 119.132 232.158 117.76C232.158 115.94 230.688 115.31 228.952 114.722C227.244 114.148 226.628 113.658 226.628 112.762C226.628 111.922 227.398 111.11 228.728 111.11C230.058 111.11 230.828 111.81 230.828 111.81L231.738 113.7V110.69ZM247.113 119.3L245.923 120H249.241L247.841 119.23L244.159 110.9H242.465L243.963 112.202L240.911 119.23L239.441 120H242.675L241.415 119.3L242.353 117.13H246.147L247.113 119.3ZM244.229 112.818L245.937 116.64H242.563L244.229 112.818ZM254.774 110.9H251.134L252.534 111.67V119.23L251.134 120H258.274V117.34L257.224 119.51H253.724L253.234 119.23V111.67L254.774 110.9ZM269.598 110.9H266.378L267.638 111.6L264.698 118.67L261.772 111.6L262.962 110.9H259.672L261.072 111.74L264.586 120.21L268.128 111.67L269.598 110.9ZM273.588 111.67L274.078 111.39H277.718L278.698 113.42V110.9H271.488L272.888 111.67V119.23L271.488 120H278.908V117.48L277.928 119.51H274.078L273.588 119.23V115.52H275.898L276.738 116.85V113.7L275.898 115.03H273.588V111.67ZM287.935 110.69L287.235 111.32C287.235 111.32 286.395 110.69 284.925 110.69C283.035 110.69 282.125 111.712 282.125 112.86C282.125 114.176 283.119 114.75 285.009 115.422C286.955 116.108 287.655 116.64 287.655 117.9C287.655 119.02 286.745 119.79 285.415 119.79C283.875 119.79 283.105 118.95 283.105 118.95L282.195 116.78V120.21L282.867 119.44C282.867 119.44 283.735 120.21 285.415 120.21C287.305 120.21 288.355 119.132 288.355 117.76C288.355 115.94 286.885 115.31 285.149 114.722C283.441 114.148 282.825 113.658 282.825 112.762C282.825 111.922 283.595 111.11 284.925 111.11C286.255 111.11 287.025 111.81 287.025 111.81L287.935 113.7V110.69ZM291.441 119.37C291.441 119.762 291.749 120.07 292.141 120.07C292.533 120.07 292.841 119.762 292.841 119.37C292.841 118.978 292.533 118.67 292.141 118.67C291.749 118.67 291.441 118.978 291.441 119.37ZM51.6951 162.698L44.1911 154.9H43.2251L44.6251 156.356V163.23L43.2251 164H46.6551L45.1151 163.23V156.874L52.1851 164.21V155.67L53.5851 154.9H50.1551L51.6951 155.67V162.698ZM62.8693 163.3L61.6793 164H64.9973L63.5973 163.23L59.9153 154.9H58.2213L59.7193 156.202L56.6673 163.23L55.1973 164H58.4313L57.1713 163.3L58.1093 161.13H61.9033L62.8693 163.3ZM59.9853 156.818L61.6933 160.64H58.3193L59.9853 156.818ZM70.67 164L68.99 163.23V159.8H70.768L73.918 164H75.5L74.212 163.23L71.594 159.744C73.134 159.506 74.03 158.568 74.03 157.35C74.03 155.95 72.84 154.9 70.81 154.9H66.89L68.29 155.67V163.23L66.89 164H70.67ZM68.99 155.67L69.48 155.39H70.81C72.35 155.39 73.26 156.16 73.26 157.35C73.26 158.54 72.35 159.31 70.81 159.31H68.99V155.67ZM81.2438 164L79.5638 163.23V159.8H81.3418L84.4918 164H86.0738L84.7858 163.23L82.1678 159.744C83.7078 159.506 84.6038 158.568 84.6038 157.35C84.6038 155.95 83.4138 154.9 81.3838 154.9H77.4638L78.8638 155.67V163.23L77.4638 164H81.2438ZM79.5638 155.67L80.0538 155.39H81.3838C82.9238 155.39 83.8338 156.16 83.8338 157.35C83.8338 158.54 82.9238 159.31 81.3838 159.31H79.5638V155.67ZM95.2197 163.3L94.0297 164H97.3477L95.9477 163.23L92.2657 154.9H90.5717L92.0697 156.202L89.0177 163.23L87.5477 164H90.7817L89.5217 163.3L90.4597 161.13H94.2537L95.2197 163.3ZM92.3357 156.818L94.0437 160.64H90.6697L92.3357 156.818ZM106.106 154.9H98.6864V157.42L99.6664 155.39H102.046V163.23L100.506 164H104.286L102.746 163.23V155.39H105.126L106.106 157.42V154.9ZM110.861 155.67L112.261 154.9H108.761L110.161 155.67V163.23L108.761 164H112.261L110.861 163.23V155.67ZM115.416 159.45C115.416 156.58 117.166 155.11 118.986 155.11C120.806 155.11 122.556 156.58 122.556 159.45C122.556 162.32 120.806 163.79 118.986 163.79C117.166 163.79 115.416 162.32 115.416 159.45ZM118.986 154.69C116.396 154.69 114.646 156.65 114.646 159.45C114.646 162.25 116.396 164.21 118.986 164.21C121.576 164.21 123.326 162.25 123.326 159.45C123.326 156.65 121.576 154.69 118.986 154.69ZM134.112 162.698L126.608 154.9H125.642L127.042 156.356V163.23L125.642 164H129.072L127.532 163.23V156.874L134.602 164.21V155.67L136.002 154.9H132.572L134.112 155.67V162.698ZM152.577 154.9H149.357L150.617 155.6L147.677 162.67L144.751 155.6L145.941 154.9H142.651L144.051 155.74L147.565 164.21L151.107 155.67L152.577 154.9ZM154.676 159.45C154.676 156.58 156.426 155.11 158.246 155.11C160.066 155.11 161.816 156.58 161.816 159.45C161.816 162.32 160.066 163.79 158.246 163.79C156.426 163.79 154.676 162.32 154.676 159.45ZM158.246 154.69C155.656 154.69 153.906 156.65 153.906 159.45C153.906 162.25 155.656 164.21 158.246 164.21C160.836 164.21 162.586 162.25 162.586 159.45C162.586 156.65 160.836 154.69 158.246 154.69ZM167.072 155.67L168.472 154.9H164.972L166.372 155.67V163.23L164.972 164H168.472L167.072 163.23V155.67ZM178.556 154.69L177.786 155.46C177.786 155.46 176.876 154.69 175.266 154.69C172.69 154.69 170.856 156.51 170.856 159.52C170.856 162.25 172.676 164.21 175.266 164.21C178.192 164.21 178.766 161.9 178.766 161.9C178.766 161.9 177.856 163.72 175.546 163.72C173.446 163.72 171.626 162.25 171.626 159.24C171.626 156.58 173.376 155.11 175.266 155.11C176.806 155.11 177.646 156.02 177.646 156.02L178.556 158.12V154.69ZM183.462 155.67L183.952 155.39H187.592L188.572 157.42V154.9H181.362L182.762 155.67V163.23L181.362 164H188.782V161.48L187.802 163.51H183.952L183.462 163.23V159.52H185.772L186.612 160.85V157.7L185.772 159.03H183.462V155.67ZM196.685 164H200.815C202.845 164 204.175 163.09 204.175 161.48C204.175 159.38 202.075 159.24 202.075 159.24V159.17C202.075 159.17 203.825 158.792 203.825 157.112C203.825 155.712 202.705 154.9 200.815 154.9H196.685L198.085 155.67V163.23L196.685 164ZM200.745 159.52C202.005 159.52 203.405 159.94 203.405 161.48C203.405 163.02 202.075 163.51 200.815 163.51H199.275L198.785 163.23V159.52H200.745ZM198.785 155.67L199.289 155.39H200.815C201.935 155.39 203.055 155.852 203.055 157.182C203.055 158.442 201.935 159.03 200.815 159.03H198.785V155.67ZM209.24 154.9H205.922L207.322 155.67L210.36 160.178V163.23L208.96 164H212.46L211.06 163.23V160.094L214.042 155.67L215.442 154.9H212.39L213.51 155.6L210.808 159.59L208.12 155.6L209.24 154.9ZM230.064 154.9H222.644V157.42L223.624 155.39H226.004V163.23L224.464 164H228.244L226.704 163.23V155.39H229.084L230.064 157.42V154.9ZM233.489 159.45C233.489 156.58 235.239 155.11 237.059 155.11C238.879 155.11 240.629 156.58 240.629 159.45C240.629 162.32 238.879 163.79 237.059 163.79C235.239 163.79 233.489 162.32 233.489 159.45ZM237.059 154.69C234.469 154.69 232.719 156.65 232.719 159.45C232.719 162.25 234.469 164.21 237.059 164.21C239.649 164.21 241.399 162.25 241.399 159.45C241.399 156.65 239.649 154.69 237.059 154.69ZM243.785 164H247.075L245.675 163.23V156.16L249.315 164.21L253.081 156.048V163.23L251.681 164H255.181L253.781 163.23V155.67L255.181 154.9H253.081L249.441 162.768L245.857 154.9H243.785L245.185 155.67V163.23L243.785 164ZM264.74 163.3L263.55 164H266.868L265.468 163.23L261.786 154.9H260.092L261.59 156.202L258.538 163.23L257.068 164H260.302L259.042 163.3L259.98 161.13H263.774L264.74 163.3ZM261.856 156.818L263.564 160.64H260.19L261.856 156.818ZM262.654 151.4L260.624 154.2L263.844 151.4H262.654ZM274.921 154.69L274.221 155.32C274.221 155.32 273.381 154.69 271.911 154.69C270.021 154.69 269.111 155.712 269.111 156.86C269.111 158.176 270.105 158.75 271.995 159.422C273.941 160.108 274.641 160.64 274.641 161.9C274.641 163.02 273.731 163.79 272.401 163.79C270.861 163.79 270.091 162.95 270.091 162.95L269.181 160.78V164.21L269.853 163.44C269.853 163.44 270.721 164.21 272.401 164.21C274.291 164.21 275.341 163.132 275.341 161.76C275.341 159.94 273.871 159.31 272.135 158.722C270.427 158.148 269.811 157.658 269.811 156.762C269.811 155.922 270.581 155.11 271.911 155.11C273.241 155.11 274.011 155.81 274.011 155.81L274.921 157.7V154.69ZM285.213 159.52H287.103L287.943 160.85V157.7L287.103 159.03H285.213V155.67L285.703 155.39H289.063L290.043 157.42V154.9H283.113L284.513 155.67V163.23L283.113 164H286.753L285.213 163.23V159.52ZM294.803 155.67L295.293 155.39H298.933L299.913 157.42V154.9H292.703L294.103 155.67V163.23L292.703 164H300.123V161.48L299.143 163.51H295.293L294.803 163.23V159.52H297.113L297.953 160.85V157.7L297.113 159.03H294.803V155.67ZM306.77 164L305.09 163.23V159.8H306.868L310.018 164H311.6L310.312 163.23L307.694 159.744C309.234 159.506 310.13 158.568 310.13 157.35C310.13 155.95 308.94 154.9 306.91 154.9H302.99L304.39 155.67V163.23L302.99 164H306.77ZM305.09 155.67L305.58 155.39H306.91C308.45 155.39 309.36 156.16 309.36 157.35C309.36 158.54 308.45 159.31 306.91 159.31H305.09V155.67ZM317.343 164L315.663 163.23V159.8H317.441L320.591 164H322.173L320.885 163.23L318.267 159.744C319.807 159.506 320.703 158.568 320.703 157.35C320.703 155.95 319.513 154.9 317.483 154.9H313.563L314.963 155.67V163.23L313.563 164H317.343ZM315.663 155.67L316.153 155.39H317.483C319.023 155.39 319.933 156.16 319.933 157.35C319.933 158.54 319.023 159.31 317.483 159.31H315.663V155.67ZM326.237 155.67L326.727 155.39H330.367L331.347 157.42V154.9H324.137L325.537 155.67V163.23L324.137 164H331.557V161.48L330.577 163.51H326.727L326.237 163.23V159.52H328.547L329.387 160.85V157.7L328.547 159.03H326.237V155.67ZM336.524 155.67L337.924 154.9H334.424L335.824 155.67V163.23L334.424 164H337.924L336.524 163.23V155.67ZM344.088 164L342.408 163.23V159.8H344.186L347.336 164H348.918L347.63 163.23L345.012 159.744C346.552 159.506 347.448 158.568 347.448 157.35C347.448 155.95 346.258 154.9 344.228 154.9H340.308L341.708 155.67V163.23L340.308 164H344.088ZM342.408 155.67L342.898 155.39H344.228C345.768 155.39 346.678 156.16 346.678 157.35C346.678 158.54 345.768 159.31 344.228 159.31H342.408V155.67ZM358.064 163.3L356.874 164H360.192L358.792 163.23L355.11 154.9H353.416L354.914 156.202L351.862 163.23L350.392 164H353.626L352.366 163.3L353.304 161.13H357.098L358.064 163.3ZM355.18 156.818L356.888 160.64H353.514L355.18 156.818ZM8.30344 207.3L7.11344 208H10.4314L9.03144 207.23L5.34944 198.9H3.65544L5.15344 200.202L2.10144 207.23L0.631439 208H3.86544L2.60544 207.3L3.54344 205.13H7.33744L8.30344 207.3ZM5.41944 200.818L7.12744 204.64H3.75344L5.41944 200.818ZM25.0609 198.69L24.2909 199.46C24.2909 199.46 23.3809 198.69 21.7709 198.69C19.1949 198.69 17.3609 200.51 17.3609 203.52C17.3609 206.25 19.1809 208.21 21.7709 208.21C24.6969 208.21 25.2709 205.9 25.2709 205.9C25.2709 205.9 24.3609 207.72 22.0509 207.72C19.9509 207.72 18.1309 206.25 18.1309 203.24C18.1309 200.58 19.8809 199.11 21.7709 199.11C23.3109 199.11 24.1509 200.02 24.1509 200.02L25.0609 202.12V198.69ZM30.6664 201.868C31.8284 201.868 33.0884 202.89 33.0884 205.214C33.0884 206.866 32.0944 207.832 31.0584 207.832C29.9104 207.832 28.6364 206.81 28.6364 204.486C28.6364 202.806 29.6444 201.868 30.6664 201.868ZM27.8664 204.85C27.8664 206.74 28.9164 208.21 30.8624 208.21C32.6684 208.21 33.8584 206.74 33.8584 204.85C33.8584 202.96 32.8084 201.49 30.8624 201.49C29.0564 201.49 27.8664 202.96 27.8664 204.85ZM37.289 198.9V207.37L36.169 208H39.109L37.989 207.37V197.99L36.169 198.55L37.289 198.9ZM42.4625 198.9V207.37L41.3425 208H44.2825L43.1625 207.37V197.99L41.3425 198.55L42.4625 198.9ZM46.5859 202.05L48.4059 201.49V207.37L49.5259 208H46.5859L47.7059 207.37V202.4L46.5859 202.05ZM47.2159 199.39C47.2159 199.782 47.5239 200.09 47.9159 200.09C48.3079 200.09 48.6159 199.782 48.6159 199.39C48.6159 198.998 48.3079 198.69 47.9159 198.69C47.5239 198.69 47.2159 198.998 47.2159 199.39ZM56.2514 201.49L55.6914 202.05C55.6914 202.05 55.2014 201.49 54.2214 201.49C53.1014 201.49 52.1914 202.148 52.1914 203.17C52.1914 205.284 55.9714 204.696 55.9714 206.502C55.9714 207.44 55.1314 207.79 54.5014 207.79C54.0814 207.79 53.3114 207.664 52.8634 206.74L52.2614 205.48V208.21L52.7514 207.384C52.7654 207.426 53.1994 208.21 54.5014 208.21C55.6214 208.21 56.6014 207.538 56.6014 206.278C56.6014 203.968 52.7514 204.5 52.7514 202.96C52.7514 202.4 53.2974 201.91 54.2214 201.91C55.2014 201.91 55.6214 202.54 55.6214 202.54L56.2514 203.674V201.49ZM59.1886 202.05L61.0086 201.49V207.37L62.1286 208H59.1886L60.3086 207.37V202.4L59.1886 202.05ZM59.8186 199.39C59.8186 199.782 60.1266 200.09 60.5186 200.09C60.9106 200.09 61.2186 199.782 61.2186 199.39C61.2186 198.998 60.9106 198.69 60.5186 198.69C60.1266 198.69 59.8186 198.998 59.8186 199.39ZM67.2441 201.868C68.4061 201.868 69.6661 202.89 69.6661 205.214C69.6661 206.866 68.6721 207.832 67.6361 207.832C66.4881 207.832 65.2141 206.81 65.2141 204.486C65.2141 202.806 66.2221 201.868 67.2441 201.868ZM64.4441 204.85C64.4441 206.74 65.4941 208.21 67.4401 208.21C69.2461 208.21 70.4361 206.74 70.4361 204.85C70.4361 202.96 69.3861 201.49 67.4401 201.49C65.6341 201.49 64.4441 202.96 64.4441 204.85ZM73.9368 202.4V207.37L72.8168 208H75.7568L74.6368 207.37V203.212C75.0568 202.694 75.8968 202.022 76.7368 202.022C77.6468 202.022 78.0668 202.68 78.0668 203.8V207.37L76.9468 208H79.8868L78.7668 207.37V203.59C78.7668 202.05 77.9968 201.49 77.0168 201.49C76.0368 201.49 75.1268 202.26 74.6368 202.792V201.49L72.8168 202.05L73.9368 202.4ZM87.0191 208H91.1491C93.1791 208 94.5091 207.09 94.5091 205.48C94.5091 203.38 92.4091 203.24 92.4091 203.24V203.17C92.4091 203.17 94.1591 202.792 94.1591 201.112C94.1591 199.712 93.0391 198.9 91.1491 198.9H87.0191L88.4191 199.67V207.23L87.0191 208ZM91.0791 203.52C92.3391 203.52 93.7391 203.94 93.7391 205.48C93.7391 207.02 92.4091 207.51 91.1491 207.51H89.6091L89.1191 207.23V203.52H91.0791ZM89.1191 199.67L89.6231 199.39H91.1491C92.2691 199.39 93.3891 199.852 93.3891 201.182C93.3891 202.442 92.2691 203.03 91.1491 203.03H89.1191V199.67ZM102.629 204.22C102.629 202.68 101.999 201.49 100.221 201.49C98.5551 201.49 97.1691 202.806 97.1691 204.85C97.1691 206.74 98.2891 208.21 100.109 208.21C102.209 208.21 102.629 206.18 102.629 206.18C102.629 206.18 101.999 207.58 100.459 207.58C99.0591 207.58 97.8691 206.712 97.8691 204.626C97.8691 204.486 97.8691 204.36 97.8831 204.22H102.629ZM100.193 201.826C101.173 201.826 101.859 202.47 101.859 203.17C101.859 203.73 101.369 203.8 100.669 203.8H97.9531C98.2611 202.456 99.3111 201.826 100.193 201.826ZM104.865 202.12H106.195V206.74C106.195 207.79 106.615 208.21 107.315 208.21C108.085 208.21 108.477 207.272 108.505 207.174C108.491 207.202 108.155 207.72 107.595 207.72C107.105 207.72 106.895 207.3 106.895 206.74V202.12H108.505V201.7H106.895V200.23L104.865 202.12ZM120.76 201.7H117.974L119.094 202.26L117.708 206.502L115.818 201.49L113.886 206.53L112.514 202.26L113.634 201.7H110.54L111.8 202.33L113.69 208.21L115.664 203.072L117.61 208.21L119.5 202.33L120.76 201.7ZM127.843 204.22C127.843 202.68 127.213 201.49 125.435 201.49C123.769 201.49 122.383 202.806 122.383 204.85C122.383 206.74 123.503 208.21 125.323 208.21C127.423 208.21 127.843 206.18 127.843 206.18C127.843 206.18 127.213 207.58 125.673 207.58C124.273 207.58 123.083 206.712 123.083 204.626C123.083 204.486 123.083 204.36 123.097 204.22H127.843ZM125.407 201.826C126.387 201.826 127.073 202.47 127.073 203.17C127.073 203.73 126.583 203.8 125.883 203.8H123.167C123.475 202.456 124.525 201.826 125.407 201.826ZM135.819 204.22C135.819 202.68 135.189 201.49 133.411 201.49C131.745 201.49 130.359 202.806 130.359 204.85C130.359 206.74 131.479 208.21 133.299 208.21C135.399 208.21 135.819 206.18 135.819 206.18C135.819 206.18 135.189 207.58 133.649 207.58C132.249 207.58 131.059 206.712 131.059 204.626C131.059 204.486 131.059 204.36 131.073 204.22H135.819ZM133.383 201.826C134.363 201.826 135.049 202.47 135.049 203.17C135.049 203.73 134.559 203.8 133.859 203.8H131.143C131.451 202.456 132.501 201.826 133.383 201.826ZM139.455 202.4V207.37L138.335 208H141.275L140.155 207.37V203.212C140.575 202.694 141.415 202.022 142.255 202.022C143.165 202.022 143.585 202.68 143.585 203.8V207.37L142.465 208H145.405L144.285 207.37V203.59C144.285 202.05 143.515 201.49 142.535 201.49C141.555 201.49 140.645 202.26 140.155 202.792V201.49L138.335 202.05L139.455 202.4ZM154.413 204.626C153.461 204.962 152.607 205.62 152.607 206.6C152.607 207.594 153.237 208.21 154.203 208.21C154.763 208.21 155.239 207.93 155.561 207.72L156.597 207.034C156.597 207.776 156.597 208.21 157.087 208.21C157.577 208.21 158.557 207.02 158.557 207.02L157.297 207.51V203.52C157.297 202.33 156.793 201.49 155.267 201.49C154.427 201.49 152.845 202.26 152.845 203.128C152.845 203.534 153.083 203.716 153.349 203.716C153.615 203.716 153.853 203.562 153.853 203.128C153.853 202.932 153.825 202.792 153.825 202.68C153.825 202.33 154.273 201.91 155.127 201.91C155.897 201.91 156.597 202.274 156.597 203.52V203.87L154.413 204.626ZM155.729 207.16C155.323 207.426 154.973 207.692 154.427 207.692C153.727 207.692 153.349 207.132 153.349 206.53C153.349 205.76 153.699 205.284 154.917 204.85L156.597 204.262V206.586L155.729 207.16ZM171.71 198.69L171.01 199.32C171.01 199.32 170.17 198.69 168.7 198.69C166.81 198.69 165.9 199.712 165.9 200.86C165.9 202.176 166.894 202.75 168.784 203.422C170.73 204.108 171.43 204.64 171.43 205.9C171.43 207.02 170.52 207.79 169.19 207.79C167.65 207.79 166.88 206.95 166.88 206.95L165.97 204.78V208.21L166.642 207.44C166.642 207.44 167.51 208.21 169.19 208.21C171.08 208.21 172.13 207.132 172.13 205.76C172.13 203.94 170.66 203.31 168.924 202.722C167.216 202.148 166.6 201.658 166.6 200.762C166.6 199.922 167.37 199.11 168.7 199.11C170.03 199.11 170.8 199.81 170.8 199.81L171.71 201.7V198.69ZM174.586 202.12H175.916V206.74C175.916 207.79 176.336 208.21 177.036 208.21C177.806 208.21 178.198 207.272 178.226 207.174C178.212 207.202 177.876 207.72 177.316 207.72C176.826 207.72 176.616 207.3 176.616 206.74V202.12H178.226V201.7H176.616V200.23L174.586 202.12ZM181.871 202.4V207.37L180.751 208H183.691L182.571 207.37V203.38C183.201 202.68 183.733 202.246 184.013 202.246C184.475 202.246 184.405 202.68 184.895 202.68C185.231 202.68 185.441 202.442 185.441 202.148C185.441 201.728 185.161 201.49 184.671 201.49C184.279 201.49 183.943 201.644 183.509 202.064L182.571 202.96V201.49L180.751 202.05L181.871 202.4ZM193.285 204.22C193.285 202.68 192.655 201.49 190.877 201.49C189.211 201.49 187.825 202.806 187.825 204.85C187.825 206.74 188.945 208.21 190.765 208.21C192.865 208.21 193.285 206.18 193.285 206.18C193.285 206.18 192.655 207.58 191.115 207.58C189.715 207.58 188.525 206.712 188.525 204.626C188.525 204.486 188.525 204.36 188.539 204.22H193.285ZM190.849 201.826C191.829 201.826 192.515 202.47 192.515 203.17C192.515 203.73 192.025 203.8 191.325 203.8H188.609C188.917 202.456 189.967 201.826 190.849 201.826ZM197.677 204.626C196.725 204.962 195.871 205.62 195.871 206.6C195.871 207.594 196.501 208.21 197.467 208.21C198.027 208.21 198.503 207.93 198.825 207.72L199.861 207.034C199.861 207.776 199.861 208.21 200.351 208.21C200.841 208.21 201.821 207.02 201.821 207.02L200.561 207.51V203.52C200.561 202.33 200.057 201.49 198.531 201.49C197.691 201.49 196.109 202.26 196.109 203.128C196.109 203.534 196.347 203.716 196.613 203.716C196.879 203.716 197.117 203.562 197.117 203.128C197.117 202.932 197.089 202.792 197.089 202.68C197.089 202.33 197.537 201.91 198.391 201.91C199.161 201.91 199.861 202.274 199.861 203.52V203.87L197.677 204.626ZM198.993 207.16C198.587 207.426 198.237 207.692 197.691 207.692C196.991 207.692 196.613 207.132 196.613 206.53C196.613 205.76 196.963 205.284 198.181 204.85L199.861 204.262V206.586L198.993 207.16ZM209.727 203.212C210.147 202.694 210.987 202.022 211.827 202.022C212.737 202.022 213.157 202.68 213.157 203.8V207.37L212.037 208H214.977L213.857 207.37V203.59C213.857 202.05 213.087 201.49 212.107 201.49C211.127 201.49 210.217 202.26 209.657 202.876C209.433 201.868 208.761 201.49 207.977 201.49C206.997 201.49 206.087 202.26 205.597 202.792V201.49L203.777 202.05L204.897 202.4V207.37L203.777 208H206.717L205.597 207.37V203.212C206.017 202.694 206.857 202.022 207.697 202.022C208.607 202.022 209.027 202.68 209.027 203.8V207.37L207.907 208H210.847L209.727 207.37V203.212ZM224.908 201.868C226.07 201.868 227.33 202.89 227.33 205.214C227.33 206.866 226.336 207.832 225.3 207.832C224.152 207.832 222.878 206.81 222.878 204.486C222.878 202.806 223.886 201.868 224.908 201.868ZM222.108 204.85C222.108 206.74 223.158 208.21 225.104 208.21C226.91 208.21 228.1 206.74 228.1 204.85C228.1 202.96 227.05 201.49 225.104 201.49C223.298 201.49 222.108 202.96 222.108 204.85ZM230.271 202.12H231.601V207.37L230.481 208H233.561L232.301 207.37V202.12H233.911V201.7H232.301V201.14C232.301 199.18 232.693 198.48 233.253 198.48C233.743 198.48 233.659 199.25 234.289 199.25C234.569 199.25 234.821 199.054 234.821 198.704C234.821 198.2 234.233 197.99 233.813 197.99C232.413 197.99 231.601 199.25 231.601 201.7H230.271V202.12ZM245.11 198.9H241.47L242.87 199.67V207.23L241.47 208H248.61V205.34L247.56 207.51H244.06L243.57 207.23V199.67L245.11 198.9ZM251.265 202.05L253.085 201.49V207.37L254.205 208H251.265L252.385 207.37V202.4L251.265 202.05ZM251.895 199.39C251.895 199.782 252.203 200.09 252.595 200.09C252.987 200.09 253.295 199.782 253.295 199.39C253.295 198.998 252.987 198.69 252.595 198.69C252.203 198.69 251.895 198.998 251.895 199.39ZM256.94 203.73C256.94 204.654 257.43 205.452 258.312 205.788C257.71 205.9 257.01 206.208 257.01 207.02C257.01 207.496 257.374 207.86 257.752 207.972C257.276 208.056 256.38 208.28 256.38 209.26C256.38 210.1 257.15 211.15 259.32 211.15C261.56 211.15 262.75 209.75 262.75 208.7C262.75 207.65 262.05 207.3 261.35 207.3H258.2C257.99 207.3 257.64 207.23 257.64 206.81C257.64 206.082 258.816 205.97 259.32 205.97C260.79 205.97 261.7 204.962 261.7 203.73C261.7 202.694 261.07 202.12 261.07 202.12C261.07 202.12 261.56 202.26 261.91 202.26C262.47 202.26 262.68 201.938 262.68 201.56C262.68 201.28 262.484 201 262.092 201C261.756 201 261.56 201.252 261.56 201.546C261.56 201.728 261.7 201.91 261.35 201.91C260.79 201.91 260.3 201.49 259.32 201.49C257.85 201.49 256.94 202.498 256.94 203.73ZM261.35 208C261.84 208 262.26 208.21 262.26 208.77C262.26 209.4 261.49 210.52 259.46 210.52C257.71 210.52 257.08 209.75 257.08 209.05C257.08 208.084 258.438 208.014 258.466 208H261.35ZM257.71 203.73C257.71 202.54 258.438 201.84 259.32 201.84C260.202 201.84 260.93 202.54 260.93 203.73C260.93 204.92 260.202 205.62 259.32 205.62C258.438 205.62 257.71 204.92 257.71 203.73ZM266.107 198.9V207.37L264.987 208H267.927L266.807 207.37V203.212C267.227 202.694 268.067 202.022 268.907 202.022C269.817 202.022 270.237 202.68 270.237 203.8V207.37L269.117 208H272.057L270.937 207.37V203.59C270.937 202.05 270.167 201.49 269.187 201.49C268.207 201.49 267.297 202.26 266.807 202.792V197.99L264.987 198.55L266.107 198.9ZM273.874 202.12H275.204V206.74C275.204 207.79 275.624 208.21 276.324 208.21C277.094 208.21 277.486 207.272 277.514 207.174C277.5 207.202 277.164 207.72 276.604 207.72C276.114 207.72 275.904 207.3 275.904 206.74V202.12H277.514V201.7H275.904V200.23L273.874 202.12ZM286.951 204.626C285.999 204.962 285.145 205.62 285.145 206.6C285.145 207.594 285.775 208.21 286.741 208.21C287.301 208.21 287.777 207.93 288.099 207.72L289.135 207.034C289.135 207.776 289.135 208.21 289.625 208.21C290.115 208.21 291.095 207.02 291.095 207.02L289.835 207.51V203.52C289.835 202.33 289.331 201.49 287.805 201.49C286.965 201.49 285.383 202.26 285.383 203.128C285.383 203.534 285.621 203.716 285.887 203.716C286.153 203.716 286.391 203.562 286.391 203.128C286.391 202.932 286.363 202.792 286.363 202.68C286.363 202.33 286.811 201.91 287.665 201.91C288.435 201.91 289.135 202.274 289.135 203.52V203.87L286.951 204.626ZM288.267 207.16C287.861 207.426 287.511 207.692 286.965 207.692C286.265 207.692 285.887 207.132 285.887 206.53C285.887 205.76 286.237 205.284 287.455 204.85L289.135 204.262V206.586L288.267 207.16ZM294.172 202.4V207.37L293.052 208H295.992L294.872 207.37V203.212C295.292 202.694 296.132 202.022 296.972 202.022C297.882 202.022 298.302 202.68 298.302 203.8V207.37L297.182 208H300.122L299.002 207.37V203.59C299.002 202.05 298.232 201.49 297.252 201.49C296.272 201.49 295.362 202.26 294.872 202.792V201.49L293.052 202.05L294.172 202.4ZM306.977 198.9V202.596C306.935 202.498 306.417 201.49 305.017 201.49C303.757 201.49 302.287 202.47 302.287 204.85C302.287 207.3 303.617 208.21 304.877 208.21C306.347 208.21 306.977 206.88 306.977 206.88V208.21L308.797 207.65L307.677 207.3V197.99L305.857 198.55L306.977 198.9ZM306.977 206.18C306.977 206.18 306.487 207.79 305.087 207.79C304.023 207.79 303.057 206.88 303.057 204.85C303.057 202.89 304.023 201.91 305.087 201.91C306.277 201.91 306.977 202.82 306.977 203.87V206.18ZM317.885 204.626C316.933 204.962 316.079 205.62 316.079 206.6C316.079 207.594 316.709 208.21 317.675 208.21C318.235 208.21 318.711 207.93 319.033 207.72L320.069 207.034C320.069 207.776 320.069 208.21 320.559 208.21C321.049 208.21 322.029 207.02 322.029 207.02L320.769 207.51V203.52C320.769 202.33 320.265 201.49 318.739 201.49C317.899 201.49 316.317 202.26 316.317 203.128C316.317 203.534 316.555 203.716 316.821 203.716C317.087 203.716 317.325 203.562 317.325 203.128C317.325 202.932 317.297 202.792 317.297 202.68C317.297 202.33 317.745 201.91 318.599 201.91C319.369 201.91 320.069 202.274 320.069 203.52V203.87L317.885 204.626ZM319.201 207.16C318.795 207.426 318.445 207.692 317.899 207.692C317.199 207.692 316.821 207.132 316.821 206.53C316.821 205.76 317.171 205.284 318.389 204.85L320.069 204.262V206.586L319.201 207.16ZM325.106 202.4V207.37L323.986 208H326.926L325.806 207.37V203.212C326.226 202.694 327.066 202.022 327.906 202.022C328.816 202.022 329.236 202.68 329.236 203.8V207.37L328.116 208H331.056L329.936 207.37V203.59C329.936 202.05 329.166 201.49 328.186 201.49C327.206 201.49 326.296 202.26 325.806 202.792V201.49L323.986 202.05L325.106 202.4ZM338.958 203.45C338.958 200.58 340.708 199.11 342.528 199.11C344.348 199.11 346.098 200.58 346.098 203.45C346.098 206.32 344.348 207.79 342.528 207.79C340.708 207.79 338.958 206.32 338.958 203.45ZM342.528 198.69C339.938 198.69 338.188 200.65 338.188 203.45C338.188 206.25 339.938 208.21 342.528 208.21C345.118 208.21 346.868 206.25 346.868 203.45C346.868 200.65 345.118 198.69 342.528 198.69ZM349.744 208.21L350.304 206.95C350.304 206.95 350.864 208.21 352.404 208.21C353.664 208.21 355.134 207.23 355.134 204.85C355.134 202.26 353.804 201.49 352.544 201.49C351.074 201.49 350.444 202.82 350.444 202.82V197.99L348.624 198.55L349.744 198.9V208.21ZM350.444 203.52C350.444 203.52 350.934 201.91 352.334 201.91C353.398 201.91 354.364 202.75 354.364 204.85C354.364 206.81 353.398 207.79 352.334 207.79C351.144 207.79 350.444 206.88 350.444 205.83V203.52ZM361.995 201.49L361.435 202.05C361.435 202.05 360.945 201.49 359.965 201.49C358.845 201.49 357.935 202.148 357.935 203.17C357.935 205.284 361.715 204.696 361.715 206.502C361.715 207.44 360.875 207.79 360.245 207.79C359.825 207.79 359.055 207.664 358.607 206.74L358.005 205.48V208.21L358.495 207.384C358.509 207.426 358.943 208.21 360.245 208.21C361.365 208.21 362.345 207.538 362.345 206.278C362.345 203.968 358.495 204.5 358.495 202.96C358.495 202.4 359.041 201.91 359.965 201.91C360.945 201.91 361.365 202.54 361.365 202.54L361.995 203.674V201.49ZM364.653 202.12H365.983V206.74C365.983 207.79 366.403 208.21 367.103 208.21C367.873 208.21 368.265 207.272 368.293 207.174C368.279 207.202 367.943 207.72 367.383 207.72C366.893 207.72 366.683 207.3 366.683 206.74V202.12H368.293V201.7H366.683V200.23L364.653 202.12ZM372.693 204.626C371.741 204.962 370.887 205.62 370.887 206.6C370.887 207.594 371.517 208.21 372.483 208.21C373.043 208.21 373.519 207.93 373.841 207.72L374.877 207.034C374.877 207.776 374.877 208.21 375.367 208.21C375.857 208.21 376.837 207.02 376.837 207.02L375.577 207.51V203.52C375.577 202.33 375.073 201.49 373.547 201.49C372.707 201.49 371.125 202.26 371.125 203.128C371.125 203.534 371.363 203.716 371.629 203.716C371.895 203.716 372.133 203.562 372.133 203.128C372.133 202.932 372.105 202.792 372.105 202.68C372.105 202.33 372.553 201.91 373.407 201.91C374.177 201.91 374.877 202.274 374.877 203.52V203.87L372.693 204.626ZM374.009 207.16C373.603 207.426 373.253 207.692 372.707 207.692C372.007 207.692 371.629 207.132 371.629 206.53C371.629 205.76 371.979 205.284 373.197 204.85L374.877 204.262V206.586L374.009 207.16ZM381.817 201.826C383.007 201.826 383.133 202.54 383.133 202.68C383.133 202.904 383.007 202.946 383.007 203.254C383.007 203.562 383.203 203.772 383.539 203.772C383.889 203.772 384.071 203.492 384.071 203.128C384.071 202.358 383.245 201.49 381.845 201.49C380.179 201.49 378.793 202.82 378.793 204.85C378.793 206.74 379.913 208.21 381.733 208.21C383.833 208.21 384.253 206.18 384.253 206.18C384.253 206.18 383.623 207.58 382.083 207.58C380.683 207.58 379.493 206.712 379.493 204.626C379.493 202.708 380.837 201.826 381.817 201.826ZM387.683 198.9V207.37L386.563 208H389.503L388.383 207.37V197.99L386.563 198.55L387.683 198.9ZM397.266 204.22C397.266 202.68 396.636 201.49 394.858 201.49C393.192 201.49 391.806 202.806 391.806 204.85C391.806 206.74 392.926 208.21 394.746 208.21C396.846 208.21 397.266 206.18 397.266 206.18C397.266 206.18 396.636 207.58 395.096 207.58C393.696 207.58 392.506 206.712 392.506 204.626C392.506 204.486 392.506 204.36 392.52 204.22H397.266ZM394.83 201.826C395.81 201.826 396.496 202.47 396.496 203.17C396.496 203.73 396.006 203.8 395.306 203.8H392.59C392.898 202.456 393.948 201.826 394.83 201.826ZM400.132 207.37C400.132 207.762 400.44 208.07 400.832 208.07C401.224 208.07 401.532 207.762 401.532 207.37C401.532 206.978 401.224 206.67 400.832 206.67C400.44 206.67 400.132 206.978 400.132 207.37ZM52.421 220.69L51.651 221.46C51.651 221.46 50.741 220.69 49.131 220.69C46.555 220.69 44.721 222.51 44.721 225.52C44.721 228.25 46.541 230.21 49.131 230.21C52.057 230.21 52.631 227.9 52.631 227.9C52.631 227.9 51.721 229.72 49.411 229.72C47.311 229.72 45.491 228.25 45.491 225.24C45.491 222.58 47.241 221.11 49.131 221.11C50.671 221.11 51.511 222.02 51.511 222.02L52.421 224.12V220.69ZM58.0265 223.868C59.1885 223.868 60.4485 224.89 60.4485 227.214C60.4485 228.866 59.4545 229.832 58.4185 229.832C57.2705 229.832 55.9965 228.81 55.9965 226.486C55.9965 224.806 57.0045 223.868 58.0265 223.868ZM55.2265 226.85C55.2265 228.74 56.2765 230.21 58.2225 230.21C60.0285 230.21 61.2185 228.74 61.2185 226.85C61.2185 224.96 60.1685 223.49 58.2225 223.49C56.4165 223.49 55.2265 224.96 55.2265 226.85ZM69.5492 225.212C69.9692 224.694 70.8092 224.022 71.6492 224.022C72.5592 224.022 72.9792 224.68 72.9792 225.8V229.37L71.8592 230H74.7992L73.6792 229.37V225.59C73.6792 224.05 72.9092 223.49 71.9292 223.49C70.9492 223.49 70.0392 224.26 69.4792 224.876C69.2552 223.868 68.5832 223.49 67.7992 223.49C66.8192 223.49 65.9092 224.26 65.4192 224.792V223.49L63.5992 224.05L64.7192 224.4V229.37L63.5992 230H66.5392L65.4192 229.37V225.212C65.8392 224.694 66.6792 224.022 67.5192 224.022C68.4292 224.022 68.8492 224.68 68.8492 225.8V229.37L67.7292 230H70.6692L69.5492 229.37V225.212ZM82.8437 225.212C83.2637 224.694 84.1037 224.022 84.9437 224.022C85.8537 224.022 86.2737 224.68 86.2737 225.8V229.37L85.1537 230H88.0937L86.9737 229.37V225.59C86.9737 224.05 86.2037 223.49 85.2237 223.49C84.2437 223.49 83.3337 224.26 82.7737 224.876C82.5497 223.868 81.8777 223.49 81.0937 223.49C80.1137 223.49 79.2037 224.26 78.7137 224.792V223.49L76.8937 224.05L78.0137 224.4V229.37L76.8937 230H79.8337L78.7137 229.37V225.212C79.1337 224.694 79.9737 224.022 80.8137 224.022C81.7237 224.022 82.1437 224.68 82.1437 225.8V229.37L81.0237 230H83.9637L82.8437 229.37V225.212ZM95.0882 224.4V228.488C94.6682 229.006 93.8282 229.678 92.9882 229.678C92.0782 229.678 91.6582 229.02 91.6582 227.9V223.49L89.8382 224.05L90.9582 224.4V228.11C90.9582 229.65 91.7282 230.21 92.7082 230.21C93.6882 230.21 94.5982 229.44 95.0882 228.908V230.21L96.9082 229.65L95.7882 229.3V223.49L93.9682 224.05L95.0882 224.4ZM100.2 224.4V229.37L99.0804 230H102.02L100.9 229.37V225.212C101.32 224.694 102.16 224.022 103 224.022C103.91 224.022 104.33 224.68 104.33 225.8V229.37L103.21 230H106.15L105.03 229.37V225.59C105.03 224.05 104.26 223.49 103.28 223.49C102.3 223.49 101.39 224.26 100.9 224.792V223.49L99.0804 224.05L100.2 224.4ZM108.246 224.05L110.066 223.49V229.37L111.186 230H108.246L109.366 229.37V224.4L108.246 224.05ZM108.876 221.39C108.876 221.782 109.184 222.09 109.576 222.09C109.968 222.09 110.276 221.782 110.276 221.39C110.276 220.998 109.968 220.69 109.576 220.69C109.184 220.69 108.876 220.998 108.876 221.39ZM116.526 223.826C117.716 223.826 117.842 224.54 117.842 224.68C117.842 224.904 117.716 224.946 117.716 225.254C117.716 225.562 117.912 225.772 118.248 225.772C118.598 225.772 118.78 225.492 118.78 225.128C118.78 224.358 117.954 223.49 116.554 223.49C114.888 223.49 113.502 224.82 113.502 226.85C113.502 228.74 114.622 230.21 116.442 230.21C118.542 230.21 118.962 228.18 118.962 228.18C118.962 228.18 118.332 229.58 116.792 229.58C115.392 229.58 114.202 228.712 114.202 226.626C114.202 224.708 115.546 223.826 116.526 223.826ZM123.217 226.626C122.265 226.962 121.411 227.62 121.411 228.6C121.411 229.594 122.041 230.21 123.007 230.21C123.567 230.21 124.043 229.93 124.365 229.72L125.401 229.034C125.401 229.776 125.401 230.21 125.891 230.21C126.381 230.21 127.361 229.02 127.361 229.02L126.101 229.51V225.52C126.101 224.33 125.597 223.49 124.071 223.49C123.231 223.49 121.649 224.26 121.649 225.128C121.649 225.534 121.887 225.716 122.153 225.716C122.419 225.716 122.657 225.562 122.657 225.128C122.657 224.932 122.629 224.792 122.629 224.68C122.629 224.33 123.077 223.91 123.931 223.91C124.701 223.91 125.401 224.274 125.401 225.52V225.87L123.217 226.626ZM124.533 229.16C124.127 229.426 123.777 229.692 123.231 229.692C122.531 229.692 122.153 229.132 122.153 228.53C122.153 227.76 122.503 227.284 123.721 226.85L125.401 226.262V228.586L124.533 229.16ZM129.037 224.12H130.367V228.74C130.367 229.79 130.787 230.21 131.487 230.21C132.257 230.21 132.649 229.272 132.677 229.174C132.663 229.202 132.327 229.72 131.767 229.72C131.277 229.72 131.067 229.3 131.067 228.74V224.12H132.677V223.7H131.067V222.23L129.037 224.12ZM135.202 224.05L137.022 223.49V229.37L138.142 230H135.202L136.322 229.37V224.4L135.202 224.05ZM135.832 221.39C135.832 221.782 136.14 222.09 136.532 222.09C136.924 222.09 137.232 221.782 137.232 221.39C137.232 220.998 136.924 220.69 136.532 220.69C136.14 220.69 135.832 220.998 135.832 221.39ZM143.257 223.868C144.419 223.868 145.679 224.89 145.679 227.214C145.679 228.866 144.685 229.832 143.649 229.832C142.501 229.832 141.227 228.81 141.227 226.486C141.227 224.806 142.235 223.868 143.257 223.868ZM140.457 226.85C140.457 228.74 141.507 230.21 143.453 230.21C145.259 230.21 146.449 228.74 146.449 226.85C146.449 224.96 145.399 223.49 143.453 223.49C141.647 223.49 140.457 224.96 140.457 226.85ZM149.95 224.4V229.37L148.83 230H151.77L150.65 229.37V225.212C151.07 224.694 151.91 224.022 152.75 224.022C153.66 224.022 154.08 224.68 154.08 225.8V229.37L152.96 230H155.9L154.78 229.37V225.59C154.78 224.05 154.01 223.49 153.03 223.49C152.05 223.49 151.14 224.26 150.65 224.792V223.49L148.83 224.05L149.95 224.4ZM166.602 230C169.052 230 171.432 228.74 171.432 225.45C171.432 222.16 169.052 220.9 166.602 220.9H163.032L164.432 221.67V229.23L163.032 230H166.602ZM165.132 221.67L165.622 221.39H166.602C168.282 221.39 170.662 222.23 170.662 225.45C170.662 228.67 168.282 229.51 166.602 229.51H165.622L165.132 229.23V221.67ZM179.271 226.22C179.271 224.68 178.641 223.49 176.863 223.49C175.197 223.49 173.811 224.806 173.811 226.85C173.811 228.74 174.931 230.21 176.751 230.21C178.851 230.21 179.271 228.18 179.271 228.18C179.271 228.18 178.641 229.58 177.101 229.58C175.701 229.58 174.511 228.712 174.511 226.626C174.511 226.486 174.511 226.36 174.525 226.22H179.271ZM176.835 223.826C177.815 223.826 178.501 224.47 178.501 225.17C178.501 225.73 178.011 225.8 177.311 225.8H174.595C174.903 224.456 175.953 223.826 176.835 223.826ZM186.197 223.49L185.637 224.05C185.637 224.05 185.147 223.49 184.167 223.49C183.047 223.49 182.137 224.148 182.137 225.17C182.137 227.284 185.917 226.696 185.917 228.502C185.917 229.44 185.077 229.79 184.447 229.79C184.027 229.79 183.257 229.664 182.809 228.74L182.207 227.48V230.21L182.697 229.384C182.711 229.426 183.145 230.21 184.447 230.21C185.567 230.21 186.547 229.538 186.547 228.278C186.547 225.968 182.697 226.5 182.697 224.96C182.697 224.4 183.243 223.91 184.167 223.91C185.147 223.91 185.567 224.54 185.567 224.54L186.197 225.674V223.49ZM189.134 224.05L190.954 223.49V229.37L192.074 230H189.134L190.254 229.37V224.4L189.134 224.05ZM189.764 221.39C189.764 221.782 190.072 222.09 190.464 222.09C190.856 222.09 191.164 221.782 191.164 221.39C191.164 220.998 190.856 220.69 190.464 220.69C190.072 220.69 189.764 220.998 189.764 221.39ZM194.81 225.73C194.81 226.654 195.3 227.452 196.182 227.788C195.58 227.9 194.88 228.208 194.88 229.02C194.88 229.496 195.244 229.86 195.622 229.972C195.146 230.056 194.25 230.28 194.25 231.26C194.25 232.1 195.02 233.15 197.19 233.15C199.43 233.15 200.62 231.75 200.62 230.7C200.62 229.65 199.92 229.3 199.22 229.3H196.07C195.86 229.3 195.51 229.23 195.51 228.81C195.51 228.082 196.686 227.97 197.19 227.97C198.66 227.97 199.57 226.962 199.57 225.73C199.57 224.694 198.94 224.12 198.94 224.12C198.94 224.12 199.43 224.26 199.78 224.26C200.34 224.26 200.55 223.938 200.55 223.56C200.55 223.28 200.354 223 199.962 223C199.626 223 199.43 223.252 199.43 223.546C199.43 223.728 199.57 223.91 199.22 223.91C198.66 223.91 198.17 223.49 197.19 223.49C195.72 223.49 194.81 224.498 194.81 225.73ZM199.22 230C199.71 230 200.13 230.21 200.13 230.77C200.13 231.4 199.36 232.52 197.33 232.52C195.58 232.52 194.95 231.75 194.95 231.05C194.95 230.084 196.308 230.014 196.336 230H199.22ZM195.58 225.73C195.58 224.54 196.308 223.84 197.19 223.84C198.072 223.84 198.8 224.54 198.8 225.73C198.8 226.92 198.072 227.62 197.19 227.62C196.308 227.62 195.58 226.92 195.58 225.73ZM204.047 224.4V229.37L202.927 230H205.867L204.747 229.37V225.212C205.167 224.694 206.007 224.022 206.847 224.022C207.757 224.022 208.177 224.68 208.177 225.8V229.37L207.057 230H209.997L208.877 229.37V225.59C208.877 224.05 208.107 223.49 207.127 223.49C206.147 223.49 205.237 224.26 204.747 224.792V223.49L202.927 224.05L204.047 224.4ZM216.639 226.64H227.419V226.15H216.639V226.64ZM237.909 230C240.359 230 242.739 228.74 242.739 225.45C242.739 222.16 240.359 220.9 237.909 220.9H234.339L235.739 221.67V229.23L234.339 230H237.909ZM236.439 221.67L236.929 221.39H237.909C239.589 221.39 241.969 222.23 241.969 225.45C241.969 228.67 239.589 229.51 237.909 229.51H236.929L236.439 229.23V221.67ZM252.818 220.69L252.048 221.46C252.048 221.46 251.138 220.69 249.528 220.69C246.952 220.69 245.118 222.51 245.118 225.52C245.118 228.25 246.938 230.21 249.528 230.21C252.454 230.21 253.028 227.9 253.028 227.9C253.028 227.9 252.118 229.72 249.808 229.72C247.708 229.72 245.888 228.25 245.888 225.24C245.888 222.58 247.638 221.11 249.528 221.11C251.068 221.11 251.908 222.02 251.908 222.02L252.818 224.12V220.69ZM270.096 220.9H266.876L268.136 221.6L265.196 228.67L262.27 221.6L263.46 220.9H260.17L261.57 221.74L265.084 230.21L268.626 221.67L270.096 220.9ZM274.086 221.67L275.486 220.9H271.986L273.386 221.67V229.23L271.986 230H275.486L274.086 229.23V221.67ZM278.22 229.37C278.22 229.762 278.528 230.07 278.92 230.07H278.99L278.29 231.68C279.55 230.14 279.62 229.86 279.62 229.37C279.62 228.978 279.312 228.67 278.92 228.67C278.528 228.67 278.22 228.978 278.22 229.37ZM292.703 228.32L292.143 229.3H288.699L290.365 227.886C291.779 226.682 292.423 226.29 292.423 225.31C292.423 224.68 291.933 223.49 289.973 223.49C288.223 223.49 287.523 224.54 287.523 225.38C287.523 225.94 287.873 226.192 288.195 226.192C288.489 226.192 288.699 225.968 288.699 225.716C288.699 225.226 288.223 225.31 288.223 224.96C288.223 224.33 288.923 223.84 289.973 223.84C291.023 223.84 291.723 224.47 291.723 225.31C291.723 226.15 291.163 226.668 289.959 227.69L287.243 230H292.703V228.32ZM295.881 226.472C295.881 225.142 296.833 223.938 298.275 223.938C299.731 223.938 301.285 225.1 301.285 227.228C301.285 228.544 300.319 229.762 298.877 229.762C297.421 229.762 295.881 228.6 295.881 226.472ZM295.223 226.85C295.223 228.698 296.595 230.21 298.583 230.21C300.571 230.21 301.943 228.698 301.943 226.85C301.943 225.002 300.571 223.49 298.583 223.49C296.595 223.49 295.223 225.002 295.223 226.85ZM305.72 224.54V229.37L304.18 230H307.96L306.42 229.37V223.49L304.46 224.54H305.72ZM310.206 233.71C310.36 233.682 316.366 232.73 316.366 227.27C316.366 225.03 315.036 223.49 313.006 223.49C311.536 223.49 310.136 224.75 310.136 226.5C310.136 228.46 311.606 229.44 313.006 229.44C314.434 229.44 315.19 228.558 315.568 227.872C315.19 232.548 310.458 233.654 310.206 233.71ZM313.286 229.02C311.816 229.02 310.836 227.76 310.836 226.15C310.836 224.68 311.816 223.91 312.936 223.91C313.916 223.91 315.582 224.68 315.596 227.256C315.344 227.914 314.714 229.02 313.286 229.02ZM318.811 232.94L324.341 220.2H323.781L318.251 232.94H318.811ZM332.106 228.32L331.546 229.3H328.102L329.768 227.886C331.182 226.682 331.826 226.29 331.826 225.31C331.826 224.68 331.336 223.49 329.376 223.49C327.626 223.49 326.926 224.54 326.926 225.38C326.926 225.94 327.276 226.192 327.598 226.192C327.892 226.192 328.102 225.968 328.102 225.716C328.102 225.226 327.626 225.31 327.626 224.96C327.626 224.33 328.326 223.84 329.376 223.84C330.426 223.84 331.126 224.47 331.126 225.31C331.126 226.15 330.566 226.668 329.362 227.69L326.646 230H332.106V228.32ZM335.283 226.472C335.283 225.142 336.235 223.938 337.677 223.938C339.133 223.938 340.687 225.1 340.687 227.228C340.687 228.544 339.721 229.762 338.279 229.762C336.823 229.762 335.283 228.6 335.283 226.472ZM334.625 226.85C334.625 228.698 335.997 230.21 337.985 230.21C339.973 230.21 341.345 228.698 341.345 226.85C341.345 225.002 339.973 223.49 337.985 223.49C335.997 223.49 334.625 225.002 334.625 226.85ZM349.042 228.32L348.482 229.3H345.038L346.704 227.886C348.118 226.682 348.762 226.29 348.762 225.31C348.762 224.68 348.272 223.49 346.312 223.49C344.562 223.49 343.862 224.54 343.862 225.38C343.862 225.94 344.212 226.192 344.534 226.192C344.828 226.192 345.038 225.968 345.038 225.716C345.038 225.226 344.562 225.31 344.562 224.96C344.562 224.33 345.262 223.84 346.312 223.84C347.362 223.84 348.062 224.47 348.062 225.31C348.062 226.15 347.502 226.668 346.298 227.69L343.582 230H349.042V228.32ZM352.22 226.472C352.22 225.142 353.172 223.938 354.614 223.938C356.07 223.938 357.624 225.1 357.624 227.228C357.624 228.544 356.658 229.762 355.216 229.762C353.76 229.762 352.22 228.6 352.22 226.472ZM351.562 226.85C351.562 228.698 352.934 230.21 354.922 230.21C356.91 230.21 358.282 228.698 358.282 226.85C358.282 225.002 356.91 223.49 354.922 223.49C352.934 223.49 351.562 225.002 351.562 226.85ZM102.817 247.52H104.707L105.547 248.85V245.7L104.707 247.03H102.817V243.67L103.307 243.39H106.667L107.647 245.42V242.9H100.717L102.117 243.67V251.23L100.717 252H104.357L102.817 251.23V247.52ZM111.061 248.626C110.109 248.962 109.255 249.62 109.255 250.6C109.255 251.594 109.885 252.21 110.851 252.21C111.411 252.21 111.887 251.93 112.209 251.72L113.245 251.034C113.245 251.776 113.245 252.21 113.735 252.21C114.225 252.21 115.205 251.02 115.205 251.02L113.945 251.51V247.52C113.945 246.33 113.441 245.49 111.915 245.49C111.075 245.49 109.493 246.26 109.493 247.128C109.493 247.534 109.731 247.716 109.997 247.716C110.263 247.716 110.501 247.562 110.501 247.128C110.501 246.932 110.473 246.792 110.473 246.68C110.473 246.33 110.921 245.91 111.775 245.91C112.545 245.91 113.245 246.274 113.245 247.52V247.87L111.061 248.626ZM112.377 251.16C111.971 251.426 111.621 251.692 111.075 251.692C110.375 251.692 109.997 251.132 109.997 250.53C109.997 249.76 110.347 249.284 111.565 248.85L113.245 248.262V250.586L112.377 251.16ZM120.185 245.826C121.375 245.826 121.501 246.54 121.501 246.68C121.501 246.904 121.375 246.946 121.375 247.254C121.375 247.562 121.571 247.772 121.907 247.772C122.257 247.772 122.439 247.492 122.439 247.128C122.439 246.358 121.613 245.49 120.213 245.49C118.547 245.49 117.161 246.82 117.161 248.85C117.161 250.74 118.281 252.21 120.101 252.21C122.201 252.21 122.621 250.18 122.621 250.18C122.621 250.18 121.991 251.58 120.451 251.58C119.051 251.58 117.861 250.712 117.861 248.626C117.861 246.708 119.205 245.826 120.185 245.826ZM129.901 246.4V250.488C129.481 251.006 128.641 251.678 127.801 251.678C126.891 251.678 126.471 251.02 126.471 249.9V245.49L124.651 246.05L125.771 246.4V250.11C125.771 251.65 126.541 252.21 127.521 252.21C128.501 252.21 129.411 251.44 129.901 250.908V252.21L131.721 251.65L130.601 251.3V245.49L128.781 246.05L129.901 246.4ZM134.943 242.9V251.37L133.823 252H136.763L135.643 251.37V241.99L133.823 242.55L134.943 242.9ZM138.787 246.12H140.117V250.74C140.117 251.79 140.537 252.21 141.237 252.21C142.007 252.21 142.399 251.272 142.427 251.174C142.413 251.202 142.077 251.72 141.517 251.72C141.027 251.72 140.817 251.3 140.817 250.74V246.12H142.427V245.7H140.817V244.23L138.787 246.12ZM152.063 245.7H149.263L150.383 246.26L148.605 250.712L146.477 246.26L147.597 245.7H144.461L145.721 246.33L148.255 251.58L147.485 253.54C147.317 253.946 147.135 254.296 146.953 254.296C146.701 254.296 146.715 253.862 146.239 253.862C145.945 253.862 145.679 254.1 145.679 254.464C145.679 254.87 145.987 255.15 146.449 255.15C146.967 255.15 147.457 254.758 147.905 253.624L150.803 246.33L152.063 245.7ZM161.789 245.868C162.951 245.868 164.211 246.89 164.211 249.214C164.211 250.866 163.217 251.832 162.181 251.832C161.033 251.832 159.759 250.81 159.759 248.486C159.759 246.806 160.767 245.868 161.789 245.868ZM158.989 248.85C158.989 250.74 160.039 252.21 161.985 252.21C163.791 252.21 164.981 250.74 164.981 248.85C164.981 246.96 163.931 245.49 161.985 245.49C160.179 245.49 158.989 246.96 158.989 248.85ZM167.152 246.12H168.482V251.37L167.362 252H170.442L169.182 251.37V246.12H170.792V245.7H169.182V245.14C169.182 243.18 169.574 242.48 170.134 242.48C170.624 242.48 170.54 243.25 171.17 243.25C171.45 243.25 171.702 243.054 171.702 242.704C171.702 242.2 171.114 241.99 170.694 241.99C169.294 241.99 168.482 243.25 168.482 245.7H167.152V246.12ZM180.451 247.52H182.341L183.181 248.85V245.7L182.341 247.03H180.451V243.67L180.941 243.39H184.301L185.281 245.42V242.9H178.351L179.751 243.67V251.23L178.351 252H181.991L180.451 251.23V247.52ZM187.941 246.05L189.761 245.49V251.37L190.881 252H187.941L189.061 251.37V246.4L187.941 246.05ZM188.571 243.39C188.571 243.782 188.879 244.09 189.271 244.09C189.663 244.09 189.971 243.782 189.971 243.39C189.971 242.998 189.663 242.69 189.271 242.69C188.879 242.69 188.571 242.998 188.571 243.39ZM194.316 246.4V251.37L193.196 252H196.136L195.016 251.37V247.212C195.436 246.694 196.276 246.022 197.116 246.022C198.026 246.022 198.446 246.68 198.446 247.8V251.37L197.326 252H200.266L199.146 251.37V247.59C199.146 246.05 198.376 245.49 197.396 245.49C196.416 245.49 195.506 246.26 195.016 246.792V245.49L193.196 246.05L194.316 246.4ZM207.822 248.22C207.822 246.68 207.192 245.49 205.414 245.49C203.748 245.49 202.362 246.806 202.362 248.85C202.362 250.74 203.482 252.21 205.302 252.21C207.402 252.21 207.822 250.18 207.822 250.18C207.822 250.18 207.192 251.58 205.652 251.58C204.252 251.58 203.062 250.712 203.062 248.626C203.062 248.486 203.062 248.36 203.076 248.22H207.822ZM205.386 245.826C206.366 245.826 207.052 246.47 207.052 247.17C207.052 247.73 206.562 247.8 205.862 247.8H203.146C203.454 246.456 204.504 245.826 205.386 245.826ZM222.557 251.3L221.367 252H224.685L223.285 251.23L219.603 242.9H217.909L219.407 244.202L216.355 251.23L214.885 252H218.119L216.859 251.3L217.797 249.13H221.591L222.557 251.3ZM219.673 244.818L221.381 248.64H218.007L219.673 244.818ZM227.698 246.4V251.37L226.578 252H229.518L228.398 251.37V247.38C229.028 246.68 229.56 246.246 229.84 246.246C230.302 246.246 230.232 246.68 230.722 246.68C231.058 246.68 231.268 246.442 231.268 246.148C231.268 245.728 230.988 245.49 230.498 245.49C230.106 245.49 229.77 245.644 229.336 246.064L228.398 246.96V245.49L226.578 246.05L227.698 246.4ZM233.371 246.12H234.701V250.74C234.701 251.79 235.121 252.21 235.821 252.21C236.591 252.21 236.983 251.272 237.011 251.174C236.997 251.202 236.661 251.72 236.101 251.72C235.611 251.72 235.401 251.3 235.401 250.74V246.12H237.011V245.7H235.401V244.23L233.371 246.12ZM243.946 245.49L243.386 246.05C243.386 246.05 242.896 245.49 241.916 245.49C240.796 245.49 239.886 246.148 239.886 247.17C239.886 249.284 243.666 248.696 243.666 250.502C243.666 251.44 242.826 251.79 242.196 251.79C241.776 251.79 241.006 251.664 240.558 250.74L239.956 249.48V252.21L240.446 251.384C240.46 251.426 240.894 252.21 242.196 252.21C243.316 252.21 244.296 251.538 244.296 250.278C244.296 247.968 240.446 248.5 240.446 246.96C240.446 246.4 240.992 245.91 241.916 245.91C242.896 245.91 243.316 246.54 243.316 246.54L243.946 247.674V245.49ZM247.233 251.37C247.233 251.762 247.541 252.07 247.933 252.07H248.003L247.303 253.68C248.563 252.14 248.633 251.86 248.633 251.37C248.633 250.978 248.325 250.67 247.933 250.67C247.541 250.67 247.233 250.978 247.233 251.37ZM260.036 242.9H256.396L257.796 243.67V251.23L256.396 252H263.536V249.34L262.486 251.51H258.986L258.496 251.23V243.67L260.036 242.9ZM266.19 246.05L268.01 245.49V251.37L269.13 252H266.19L267.31 251.37V246.4L266.19 246.05ZM266.82 243.39C266.82 243.782 267.128 244.09 267.52 244.09C267.912 244.09 268.22 243.782 268.22 243.39C268.22 242.998 267.912 242.69 267.52 242.69C267.128 242.69 266.82 242.998 266.82 243.39ZM275.856 245.49L275.296 246.05C275.296 246.05 274.806 245.49 273.826 245.49C272.706 245.49 271.796 246.148 271.796 247.17C271.796 249.284 275.576 248.696 275.576 250.502C275.576 251.44 274.736 251.79 274.106 251.79C273.686 251.79 272.916 251.664 272.468 250.74L271.866 249.48V252.21L272.356 251.384C272.37 251.426 272.804 252.21 274.106 252.21C275.226 252.21 276.206 251.538 276.206 250.278C276.206 247.968 272.356 248.5 272.356 246.96C272.356 246.4 272.902 245.91 273.826 245.91C274.806 245.91 275.226 246.54 275.226 246.54L275.856 247.674V245.49ZM279.283 252.21L279.843 250.95C279.843 250.95 280.403 252.21 281.943 252.21C283.203 252.21 284.673 251.23 284.673 248.85C284.673 246.26 283.343 245.49 282.083 245.49C280.613 245.49 279.983 246.82 279.983 246.82V241.99L278.163 242.55L279.283 242.9V252.21ZM279.983 247.52C279.983 247.52 280.473 245.91 281.873 245.91C282.937 245.91 283.903 246.75 283.903 248.85C283.903 250.81 282.937 251.79 281.873 251.79C280.683 251.79 279.983 250.88 279.983 249.83V247.52ZM289.925 245.868C291.087 245.868 292.347 246.89 292.347 249.214C292.347 250.866 291.353 251.832 290.317 251.832C289.169 251.832 287.895 250.81 287.895 248.486C287.895 246.806 288.903 245.868 289.925 245.868ZM287.125 248.85C287.125 250.74 288.175 252.21 290.121 252.21C291.927 252.21 293.117 250.74 293.117 248.85C293.117 246.96 292.067 245.49 290.121 245.49C288.315 245.49 287.125 246.96 287.125 248.85ZM296.617 246.4V251.37L295.497 252H298.437L297.317 251.37V247.212C297.737 246.694 298.577 246.022 299.417 246.022C300.327 246.022 300.747 246.68 300.747 247.8V251.37L299.627 252H302.567L301.447 251.37V247.59C301.447 246.05 300.677 245.49 299.697 245.49C298.717 245.49 297.807 246.26 297.317 246.792V245.49L295.497 246.05L296.617 246.4Z" fill="white"/>
</svg>
