<svg width="516" height="326" viewBox="0 0 516 326" fill="none" xmlns="http://www.w3.org/2000/svg">
<path d="M66.6673 12.1L65.1373 13H69.4033L67.6033 12.01L62.8693 1.3H60.6913L62.6173 2.974L58.6933 12.01L56.8033 13H60.9613L59.3413 12.1L60.5473 9.31H65.4253L66.6673 12.1ZM62.9593 3.766L65.1553 8.68H60.8173L62.9593 3.766ZM81.0126 7.24H83.4426L84.5226 8.95V4.9L83.4426 6.61H81.0126V2.29L81.6426 1.93H85.9626L87.2226 4.54V1.3H78.3126L80.1126 2.29V12.01L78.3126 13H82.9926L81.0126 12.01V7.24ZM93.3419 2.29L95.1419 1.3H90.6419L92.4419 2.29V12.01L90.6419 13H95.1419L93.3419 12.01V2.29ZM108.108 1.03L107.118 2.02C107.118 2.02 105.948 1.03 103.878 1.03C100.566 1.03 98.2075 3.37 98.2075 7.24C98.2075 10.75 100.548 13.27 103.878 13.27C107.64 13.27 108.378 10.3 108.378 10.3C108.378 10.3 107.208 12.64 104.238 12.64C101.538 12.64 99.1975 10.75 99.1975 6.88C99.1975 3.46 101.448 1.57 103.878 1.57C105.858 1.57 106.938 2.74 106.938 2.74L108.108 5.44V1.03ZM121.615 1.3H112.075V4.54L113.335 1.93H116.395V12.01L114.415 13H119.275L117.295 12.01V1.93H120.355L121.615 4.54V1.3ZM127.728 2.29L129.528 1.3H125.028L126.828 2.29V12.01L125.028 13H129.528L127.728 12.01V2.29ZM133.584 7.15C133.584 3.46 135.834 1.57 138.174 1.57C140.514 1.57 142.764 3.46 142.764 7.15C142.764 10.84 140.514 12.73 138.174 12.73C135.834 12.73 133.584 10.84 133.584 7.15ZM138.174 1.03C134.844 1.03 132.594 3.55 132.594 7.15C132.594 10.75 134.844 13.27 138.174 13.27C141.504 13.27 143.754 10.75 143.754 7.15C143.754 3.55 141.504 1.03 138.174 1.03ZM157.622 11.326L147.974 1.3H146.732L148.532 3.172V12.01L146.732 13H151.142L149.162 12.01V3.838L158.252 13.27V2.29L160.052 1.3H155.642L157.622 2.29V11.326ZM169.23 13H174.54C177.15 13 178.86 11.83 178.86 9.76C178.86 7.06 176.16 6.88 176.16 6.88V6.79C176.16 6.79 178.41 6.304 178.41 4.144C178.41 2.344 176.97 1.3 174.54 1.3H169.23L171.03 2.29V12.01L169.23 13ZM174.45 7.24C176.07 7.24 177.87 7.78 177.87 9.76C177.87 11.74 176.16 12.37 174.54 12.37H172.56L171.93 12.01V7.24H174.45ZM171.93 2.29L172.578 1.93H174.54C175.98 1.93 177.42 2.524 177.42 4.234C177.42 5.854 175.98 6.61 174.54 6.61H171.93V2.29ZM191.514 12.1L189.984 13H194.25L192.45 12.01L187.716 1.3H185.538L187.464 2.974L183.54 12.01L181.65 13H185.808L184.188 12.1L185.394 9.31H190.272L191.514 12.1ZM187.806 3.766L190.002 8.68H185.664L187.806 3.766ZM204.604 1.03L203.704 1.84C203.704 1.84 202.624 1.03 200.734 1.03C198.304 1.03 197.134 2.344 197.134 3.82C197.134 5.512 198.412 6.25 200.842 7.114C203.344 7.996 204.244 8.68 204.244 10.3C204.244 11.74 203.074 12.73 201.364 12.73C199.384 12.73 198.394 11.65 198.394 11.65L197.224 8.86V13.27L198.088 12.28C198.088 12.28 199.204 13.27 201.364 13.27C203.794 13.27 205.144 11.884 205.144 10.12C205.144 7.78 203.254 6.97 201.022 6.214C198.826 5.476 198.034 4.846 198.034 3.694C198.034 2.614 199.024 1.57 200.734 1.57C202.444 1.57 203.434 2.47 203.434 2.47L204.604 4.9V1.03ZM211.361 2.29L211.991 1.93H216.671L217.931 4.54V1.3H208.661L210.461 2.29V12.01L208.661 13H218.201V9.76L216.941 12.37H211.991L211.361 12.01V7.24H214.331L215.411 8.95V4.9L214.331 6.61H211.361V2.29ZM226.477 13C229.627 13 232.687 11.38 232.687 7.15C232.687 2.92 229.627 1.3 226.477 1.3H221.887L223.687 2.29V12.01L221.887 13H226.477ZM224.587 2.29L225.217 1.93H226.477C228.637 1.93 231.697 3.01 231.697 7.15C231.697 11.29 228.637 12.37 226.477 12.37H225.217L224.587 12.01V2.29ZM243.212 7.15C243.212 3.46 245.462 1.57 247.802 1.57C250.142 1.57 252.392 3.46 252.392 7.15C252.392 10.84 250.142 12.73 247.802 12.73C245.462 12.73 243.212 10.84 243.212 7.15ZM247.802 1.03C244.472 1.03 242.222 3.55 242.222 7.15C242.222 10.75 244.472 13.27 247.802 13.27C251.132 13.27 253.382 10.75 253.382 7.15C253.382 3.55 251.132 1.03 247.802 1.03ZM267.249 11.326L257.601 1.3H256.359L258.159 3.172V12.01L256.359 13H260.769L258.789 12.01V3.838L267.879 13.27V2.29L269.679 1.3H265.269L267.249 2.29V11.326ZM289.118 1.03L288.128 2.02C288.128 2.02 286.958 1.03 284.708 1.03C281.396 1.03 278.858 3.37 278.858 7.24C278.858 10.75 281.198 13.27 284.528 13.27C287.048 13.27 288.308 11.83 288.308 11.83L289.028 13.18V8.41L290.648 7.42H285.968L288.128 8.41V11.29C288.128 11.29 287.048 12.64 284.798 12.64C282.188 12.64 279.848 10.84 279.848 6.88C279.848 3.37 282.278 1.57 284.708 1.57C286.868 1.57 287.948 2.74 287.948 2.74L289.118 5.44V1.03ZM303.429 2.29L305.229 1.3H300.909L302.709 2.29V9.22C302.709 11.164 301.503 12.46 299.199 12.46C296.895 12.46 295.689 11.164 295.689 9.22V2.29L297.489 1.3H292.989L294.789 2.29V9.22C294.789 11.632 296.283 13.27 299.199 13.27C301.971 13.27 303.429 11.632 303.429 9.22V2.29ZM315.849 1.03L314.949 1.84C314.949 1.84 313.869 1.03 311.979 1.03C309.549 1.03 308.379 2.344 308.379 3.82C308.379 5.512 309.657 6.25 312.087 7.114C314.589 7.996 315.489 8.68 315.489 10.3C315.489 11.74 314.319 12.73 312.609 12.73C310.629 12.73 309.639 11.65 309.639 11.65L308.469 8.86V13.27L309.333 12.28C309.333 12.28 310.449 13.27 312.609 13.27C315.039 13.27 316.389 11.884 316.389 10.12C316.389 7.78 314.499 6.97 312.267 6.214C310.071 5.476 309.279 4.846 309.279 3.694C309.279 2.614 310.269 1.57 311.979 1.57C313.689 1.57 314.679 2.47 314.679 2.47L315.849 4.9V1.03ZM338.514 1.3H334.374L335.994 2.2L332.214 11.29L328.452 2.2L329.982 1.3H325.752L327.552 2.38L332.07 13.27L336.624 2.29L338.514 1.3ZM348.736 12.1L347.206 13H351.472L349.672 12.01L344.938 1.3H342.76L344.686 2.974L340.762 12.01L338.872 13H343.03L341.41 12.1L342.616 9.31H347.494L348.736 12.1ZM345.028 3.766L347.224 8.68H342.886L345.028 3.766ZM364.706 11.326L355.058 1.3H353.816L355.616 3.172V12.01L353.816 13H358.226L356.246 12.01V3.838L365.336 13.27V2.29L367.136 1.3H362.726L364.706 2.29V11.326ZM384.235 1.03L383.335 1.84C383.335 1.84 382.255 1.03 380.365 1.03C377.935 1.03 376.765 2.344 376.765 3.82C376.765 5.512 378.043 6.25 380.473 7.114C382.975 7.996 383.875 8.68 383.875 10.3C383.875 11.74 382.705 12.73 380.995 12.73C379.015 12.73 378.025 11.65 378.025 11.65L376.855 8.86V13.27L377.719 12.28C377.719 12.28 378.835 13.27 380.995 13.27C383.425 13.27 384.775 11.884 384.775 10.12C384.775 7.78 382.885 6.97 380.653 6.214C378.457 5.476 377.665 4.846 377.665 3.694C377.665 2.614 378.655 1.57 380.365 1.57C382.075 1.57 383.065 2.47 383.065 2.47L384.235 4.9V1.03ZM397.526 12.1L395.996 13H400.262L398.462 12.01L393.728 1.3H391.55L393.476 2.974L389.552 12.01L387.662 13H391.82L390.2 12.1L391.406 9.31H396.284L397.526 12.1ZM393.818 3.766L396.014 8.68H391.676L393.818 3.766ZM413.496 11.326L403.848 1.3H402.606L404.406 3.172V12.01L402.606 13H407.016L405.036 12.01V3.838L414.126 13.27V2.29L415.926 1.3H411.516L413.496 2.29V11.326ZM428.529 1.3H418.989V4.54L420.249 1.93H423.309V12.01L421.329 13H426.189L424.209 12.01V1.93H427.269L428.529 4.54V1.3ZM432.392 1.3C432.392 1.804 432.788 2.2 433.292 2.2H433.382L432.482 4.27C434.102 2.29 434.192 1.93 434.192 1.3C434.192 0.795999 433.796 0.399999 433.292 0.399999C432.788 0.399999 432.392 0.795999 432.392 1.3ZM445.617 1.03L444.717 1.84C444.717 1.84 443.637 1.03 441.747 1.03C439.317 1.03 438.147 2.344 438.147 3.82C438.147 5.512 439.425 6.25 441.855 7.114C444.357 7.996 445.257 8.68 445.257 10.3C445.257 11.74 444.087 12.73 442.377 12.73C440.397 12.73 439.407 11.65 439.407 11.65L438.237 8.86V13.27L439.101 12.28C439.101 12.28 440.217 13.27 442.377 13.27C444.807 13.27 446.157 11.884 446.157 10.12C446.157 7.78 444.267 6.97 442.035 6.214C439.839 5.476 439.047 4.846 439.047 3.694C439.047 2.614 440.037 1.57 441.747 1.57C443.457 1.57 444.447 2.47 444.447 2.47L445.617 4.9V1.03ZM173.53 30.29L174.16 29.93H178.84L180.1 32.54V29.3H170.83L172.63 30.29V40.01L170.83 41H180.37V37.76L179.11 40.37H174.16L173.53 40.01V35.24H176.5L177.58 36.95V32.9L176.5 34.61H173.53V30.29ZM188.736 29.3H184.056L185.856 30.29V40.01L184.056 41H193.236V37.58L191.886 40.37H187.386L186.756 40.01V30.29L188.736 29.3ZM199.349 30.29L199.979 29.93H204.659L205.919 32.54V29.3H196.649L198.449 30.29V40.01L196.649 41H206.189V37.76L204.929 40.37H199.979L199.349 40.01V35.24H202.319L203.399 36.95V32.9L202.319 34.61H199.349V30.29ZM214.734 41L212.574 40.01V35.6H214.914C217.524 35.6 219.054 34.25 219.054 32.45C219.054 30.65 217.524 29.3 214.914 29.3H209.874L211.674 30.29V40.01L209.874 41H214.734ZM212.574 30.29L213.204 29.93H214.914C216.894 29.93 218.064 30.92 218.064 32.45C218.064 33.98 216.894 34.97 214.914 34.97H212.574V30.29ZM234.889 29.3H230.389L232.189 30.29V34.61H225.079V30.29L226.879 29.3H222.379L224.179 30.29V40.01L222.379 41H226.879L225.079 40.01V35.24H232.189V40.01L230.389 41H234.889L233.089 40.01V30.29L234.889 29.3ZM247.177 40.1L245.647 41H249.913L248.113 40.01L243.379 29.3H241.201L243.127 30.974L239.203 40.01L237.313 41H241.471L239.851 40.1L241.057 37.31H245.935L247.177 40.1ZM243.469 31.766L245.665 36.68H241.327L243.469 31.766ZM263.147 39.326L253.499 29.3H252.257L254.057 31.172V40.01L252.257 41H256.667L254.687 40.01V31.838L263.777 41.27V30.29L265.577 29.3H261.167L263.147 30.29V39.326ZM278.179 29.3H268.639V32.54L269.899 29.93H272.959V40.01L270.979 41H275.839L273.859 40.01V29.93H276.919L278.179 32.54V29.3ZM289.419 36.59C289.419 42.728 293.847 44.078 294.081 44.15C293.919 44.078 290.409 42.548 290.409 36.59C290.409 30.632 293.919 29.102 294.081 29.03C293.847 29.102 289.419 30.452 289.419 36.59ZM303.353 38.84L302.633 40.1H298.205L300.347 38.282C302.165 36.734 302.993 36.23 302.993 34.97C302.993 34.16 302.363 32.63 299.843 32.63C297.593 32.63 296.693 33.98 296.693 35.06C296.693 35.78 297.143 36.104 297.557 36.104C297.935 36.104 298.205 35.816 298.205 35.492C298.205 34.862 297.593 34.97 297.593 34.52C297.593 33.71 298.493 33.08 299.843 33.08C301.193 33.08 302.093 33.89 302.093 34.97C302.093 36.05 301.373 36.716 299.825 38.03L296.333 41H303.353V38.84ZM307.439 36.464C307.439 34.754 308.663 33.206 310.517 33.206C312.389 33.206 314.387 34.7 314.387 37.436C314.387 39.128 313.145 40.694 311.291 40.694C309.419 40.694 307.439 39.2 307.439 36.464ZM306.593 36.95C306.593 39.326 308.357 41.27 310.913 41.27C313.469 41.27 315.233 39.326 315.233 36.95C315.233 34.574 313.469 32.63 310.913 32.63C308.357 32.63 306.593 34.574 306.593 36.95ZM319.135 36.464C319.135 34.754 320.359 33.206 322.213 33.206C324.085 33.206 326.083 34.7 326.083 37.436C326.083 39.128 324.841 40.694 322.987 40.694C321.115 40.694 319.135 39.2 319.135 36.464ZM318.289 36.95C318.289 39.326 320.053 41.27 322.609 41.27C325.165 41.27 326.929 39.326 326.929 36.95C326.929 34.574 325.165 32.63 322.609 32.63C320.053 32.63 318.289 34.574 318.289 36.95ZM333.496 36.95C335.026 36.95 336.556 37.94 336.556 40.19C336.556 42.8 334.846 43.52 333.496 43.52C332.236 43.52 331.3 42.926 331.3 42.116C331.3 41.936 331.462 41.756 331.462 41.45C331.462 41.108 331.336 40.712 330.832 40.712C330.382 40.712 330.166 41.072 330.166 41.54C330.166 42.71 331.426 43.97 333.496 43.97C335.926 43.97 337.546 42.44 337.546 40.19C337.546 37.922 336.106 36.5 333.874 36.41L337.546 32.9H330.256V35.06L330.976 33.8H335.836L332.146 37.31C332.218 37.256 332.74 36.95 333.496 36.95ZM344.818 36.59C344.818 30.452 340.39 29.102 340.156 29.03C340.318 29.102 343.828 30.632 343.828 36.59C343.828 42.548 340.318 44.078 340.156 44.15C340.39 44.078 344.818 42.728 344.818 36.59ZM15.4476 86.29L18.7956 97.27L22.1436 87.388L25.5996 97.27L28.9476 86.29L30.8376 85.3H26.6796L28.2996 86.2L25.6896 94.822L22.2696 85.03L18.9756 94.768L16.3656 86.2L17.9856 85.3H13.5576L15.4476 86.29ZM38.1269 97L35.9669 96.01V91.6H38.2529L42.3029 97H44.3369L42.6809 96.01L39.3149 91.528C41.2949 91.222 42.4469 90.016 42.4469 88.45C42.4469 86.65 40.9169 85.3 38.3069 85.3H33.2669L35.0669 86.29V96.01L33.2669 97H38.1269ZM35.9669 86.29L36.5969 85.93H38.3069C40.2869 85.93 41.4569 86.92 41.4569 88.45C41.4569 89.98 40.2869 90.97 38.3069 90.97H35.9669V86.29ZM49.5618 86.29L51.3618 85.3H46.8618L48.6618 86.29V96.01L46.8618 97H51.3618L49.5618 96.01V86.29ZM64.3275 85.3H54.7875V88.54L56.0475 85.93H59.1075V96.01L57.1275 97H61.9875L60.0075 96.01V85.93H63.0675L64.3275 88.54V85.3ZM70.4411 86.29L71.0711 85.93H75.7511L77.0111 88.54V85.3H67.7411L69.5411 86.29V96.01L67.7411 97H77.2811V93.76L76.0211 96.37H71.0711L70.4411 96.01V91.24H73.4111L74.4911 92.95V88.9L73.4111 90.61H70.4411V86.29ZM91.7669 95.326L82.1189 85.3H80.8769L82.6769 87.172V96.01L80.8769 97H85.2869L83.3069 96.01V87.838L92.3969 97.27V86.29L94.1969 85.3H89.7869L91.7669 86.29V95.326ZM112.61 96.1L111.08 97H115.346L113.546 96.01L108.812 85.3H106.634L108.56 86.974L104.636 96.01L102.746 97H106.904L105.284 96.1L106.49 93.31H111.368L112.61 96.1ZM108.902 87.766L111.098 92.68H106.76L108.902 87.766ZM128.579 95.326L118.931 85.3H117.689L119.489 87.172V96.01L117.689 97H122.099L120.119 96.01V87.838L129.209 97.27V86.29L131.009 85.3H126.599L128.579 86.29V95.326ZM138.302 97C141.452 97 144.512 95.38 144.512 91.15C144.512 86.92 141.452 85.3 138.302 85.3H133.712L135.512 86.29V96.01L133.712 97H138.302ZM136.412 86.29L137.042 85.93H138.302C140.462 85.93 143.522 87.01 143.522 91.15C143.522 95.29 140.462 96.37 138.302 96.37H137.042L136.412 96.01V86.29ZM158.636 97C161.786 97 164.846 95.38 164.846 91.15C164.846 86.92 161.786 85.3 158.636 85.3H154.046L155.846 86.29V96.01L154.046 97H158.636ZM156.746 86.29L157.376 85.93H158.636C160.796 85.93 163.856 87.01 163.856 91.15C163.856 95.29 160.796 96.37 158.636 96.37H157.376L156.746 96.01V86.29ZM170.605 86.29L171.235 85.93H175.915L177.175 88.54V85.3H167.905L169.705 86.29V96.01L167.905 97H177.445V93.76L176.185 96.37H171.235L170.605 96.01V91.24H173.575L174.655 92.95V88.9L173.575 90.61H170.605V86.29ZM189.051 85.03L188.151 85.84C188.151 85.84 187.071 85.03 185.181 85.03C182.751 85.03 181.581 86.344 181.581 87.82C181.581 89.512 182.859 90.25 185.289 91.114C187.791 91.996 188.691 92.68 188.691 94.3C188.691 95.74 187.521 96.73 185.811 96.73C183.831 96.73 182.841 95.65 182.841 95.65L181.671 92.86V97.27L182.535 96.28C182.535 96.28 183.651 97.27 185.811 97.27C188.241 97.27 189.591 95.884 189.591 94.12C189.591 91.78 187.701 90.97 185.469 90.214C183.273 89.476 182.481 88.846 182.481 87.694C182.481 86.614 183.471 85.57 185.181 85.57C186.891 85.57 187.881 86.47 187.881 86.47L189.051 88.9V85.03ZM195.808 86.29L197.608 85.3H193.108L194.908 86.29V96.01L193.108 97H197.608L195.808 96.01V86.29ZM210.934 85.03L209.944 86.02C209.944 86.02 208.774 85.03 206.524 85.03C203.212 85.03 200.674 87.37 200.674 91.24C200.674 94.75 203.014 97.27 206.344 97.27C208.864 97.27 210.124 95.83 210.124 95.83L210.844 97.18V92.41L212.464 91.42H207.784L209.944 92.41V95.29C209.944 95.29 208.864 96.64 206.614 96.64C204.004 96.64 201.664 94.84 201.664 90.88C201.664 87.37 204.094 85.57 206.524 85.57C208.684 85.57 209.764 86.74 209.764 86.74L210.934 89.44V85.03ZM225.965 95.326L216.317 85.3H215.075L216.875 87.172V96.01L215.075 97H219.485L217.505 96.01V87.838L226.595 97.27V86.29L228.395 85.3H223.985L225.965 86.29V95.326ZM233.798 86.29L234.428 85.93H239.108L240.368 88.54V85.3H231.098L232.898 86.29V96.01L231.098 97H240.638V93.76L239.378 96.37H234.428L233.798 96.01V91.24H236.768L237.848 92.95V88.9L236.768 90.61H233.798V86.29ZM248.914 97C252.064 97 255.124 95.38 255.124 91.15C255.124 86.92 252.064 85.3 248.914 85.3H244.324L246.124 86.29V96.01L244.324 97H248.914ZM247.024 86.29L247.654 85.93H248.914C251.074 85.93 254.134 87.01 254.134 91.15C254.134 95.29 251.074 96.37 248.914 96.37H247.654L247.024 96.01V86.29ZM264.658 97H269.968C272.578 97 274.288 95.83 274.288 93.76C274.288 91.06 271.588 90.88 271.588 90.88V90.79C271.588 90.79 273.838 90.304 273.838 88.144C273.838 86.344 272.398 85.3 269.968 85.3H264.658L266.458 86.29V96.01L264.658 97ZM269.878 91.24C271.498 91.24 273.298 91.78 273.298 93.76C273.298 95.74 271.588 96.37 269.968 96.37H267.988L267.358 96.01V91.24H269.878ZM267.358 86.29L268.006 85.93H269.968C271.408 85.93 272.848 86.524 272.848 88.234C272.848 89.854 271.408 90.61 269.968 90.61H267.358V86.29ZM280.799 85.3H276.533L278.333 86.29L282.239 92.086V96.01L280.439 97H284.939L283.139 96.01V91.978L286.973 86.29L288.773 85.3H284.849L286.289 86.2L282.815 91.33L279.359 86.2L280.799 85.3ZM306.908 96.1L305.378 97H309.644L307.844 96.01L303.11 85.3H300.932L302.858 86.974L298.934 96.01L297.044 97H301.202L299.582 96.1L300.788 93.31H305.666L306.908 96.1ZM303.2 87.766L305.396 92.68H301.058L303.2 87.766ZM322.877 95.326L313.229 85.3H311.987L313.787 87.172V96.01L311.987 97H316.397L314.417 96.01V87.838L323.507 97.27V86.29L325.307 85.3H320.897L322.877 86.29V95.326ZM337.244 96.1L335.714 97H339.98L338.18 96.01L333.446 85.3H331.268L333.194 86.974L329.27 96.01L327.38 97H331.538L329.918 96.1L331.124 93.31H336.002L337.244 96.1ZM333.536 87.766L335.732 92.68H331.394L333.536 87.766ZM353.569 85.3H348.889L350.689 86.29V96.01L348.889 97H358.069V93.58L356.719 96.37H352.219L351.589 96.01V86.29L353.569 85.3ZM371.562 86.29L373.362 85.3H369.042L370.842 86.29V93.22C370.842 95.164 369.636 96.46 367.332 96.46C365.028 96.46 363.822 95.164 363.822 93.22V86.29L365.622 85.3H361.122L362.922 86.29V93.22C362.922 95.632 364.416 97.27 367.332 97.27C370.104 97.27 371.562 95.632 371.562 93.22V86.29ZM378.761 86.29L380.561 85.3H376.061L377.861 86.29V96.01L376.061 97H380.561L378.761 96.01V86.29ZM379.463 80.8L376.853 84.4L380.993 80.8H379.463ZM391.547 85.03L390.647 85.84C390.647 85.84 389.567 85.03 387.677 85.03C385.247 85.03 384.077 86.344 384.077 87.82C384.077 89.512 385.355 90.25 387.785 91.114C390.287 91.996 391.187 92.68 391.187 94.3C391.187 95.74 390.017 96.73 388.307 96.73C386.327 96.73 385.337 95.65 385.337 95.65L384.167 92.86V97.27L385.031 96.28C385.031 96.28 386.147 97.27 388.307 97.27C390.737 97.27 392.087 95.884 392.087 94.12C392.087 91.78 390.197 90.97 387.965 90.214C385.769 89.476 384.977 88.846 384.977 87.694C384.977 86.614 385.967 85.57 387.677 85.57C389.387 85.57 390.377 86.47 390.377 86.47L391.547 88.9V85.03ZM404.839 96.1L403.309 97H407.575L405.775 96.01L401.041 85.3H398.863L400.789 86.974L396.865 96.01L394.975 97H399.133L397.513 96.1L398.719 93.31H403.597L404.839 96.1ZM401.131 87.766L403.327 92.68H398.989L401.131 87.766ZM424.404 85.03L423.504 85.84C423.504 85.84 422.424 85.03 420.534 85.03C418.104 85.03 416.934 86.344 416.934 87.82C416.934 89.512 418.212 90.25 420.642 91.114C423.144 91.996 424.044 92.68 424.044 94.3C424.044 95.74 422.874 96.73 421.164 96.73C419.184 96.73 418.194 95.65 418.194 95.65L417.024 92.86V97.27L417.888 96.28C417.888 96.28 419.004 97.27 421.164 97.27C423.594 97.27 424.944 95.884 424.944 94.12C424.944 91.78 423.054 90.97 420.822 90.214C418.626 89.476 417.834 88.846 417.834 87.694C417.834 86.614 418.824 85.57 420.534 85.57C422.244 85.57 423.234 86.47 423.234 86.47L424.404 88.9V85.03ZM437.696 96.1L436.166 97H440.432L438.632 96.01L433.898 85.3H431.72L433.646 86.974L429.722 96.01L427.832 97H431.99L430.37 96.1L431.576 93.31H436.454L437.696 96.1ZM433.988 87.766L436.184 92.68H431.846L433.988 87.766ZM453.665 95.326L444.017 85.3H442.775L444.575 87.172V96.01L442.775 97H447.185L445.205 96.01V87.838L454.295 97.27V86.29L456.095 85.3H451.685L453.665 86.29V95.326ZM468.698 85.3H459.158V88.54L460.418 85.93H463.478V96.01L461.498 97H466.358L464.378 96.01V85.93H467.438L468.698 88.54V85.3ZM473.102 91.15C473.102 87.46 475.352 85.57 477.692 85.57C480.032 85.57 482.282 87.46 482.282 91.15C482.282 94.84 480.032 96.73 477.692 96.73C475.352 96.73 473.102 94.84 473.102 91.15ZM477.692 85.03C474.362 85.03 472.112 87.55 472.112 91.15C472.112 94.75 474.362 97.27 477.692 97.27C481.022 97.27 483.272 94.75 483.272 91.15C483.272 87.55 481.022 85.03 477.692 85.03ZM494.26 85.03L493.36 85.84C493.36 85.84 492.28 85.03 490.39 85.03C487.96 85.03 486.79 86.344 486.79 87.82C486.79 89.512 488.068 90.25 490.498 91.114C493 91.996 493.9 92.68 493.9 94.3C493.9 95.74 492.73 96.73 491.02 96.73C489.04 96.73 488.05 95.65 488.05 95.65L486.88 92.86V97.27L487.744 96.28C487.744 96.28 488.86 97.27 491.02 97.27C493.45 97.27 494.8 95.884 494.8 94.12C494.8 91.78 492.91 90.97 490.678 90.214C488.482 89.476 487.69 88.846 487.69 87.694C487.69 86.614 488.68 85.57 490.39 85.57C492.1 85.57 493.09 86.47 493.09 86.47L494.26 88.9V85.03ZM498.767 96.19C498.767 96.694 499.163 97.09 499.667 97.09H499.757L498.857 99.16C500.477 97.18 500.567 96.82 500.567 96.19C500.567 95.686 500.171 95.29 499.667 95.29C499.163 95.29 498.767 95.686 498.767 96.19ZM58.722 124.1L57.192 125H61.458L59.658 124.01L54.924 113.3H52.746L54.672 114.974L50.748 124.01L48.858 125H53.016L51.396 124.1L52.602 121.31H57.48L58.722 124.1ZM55.014 115.766L57.21 120.68H52.872L55.014 115.766ZM74.6915 123.326L65.0435 113.3H63.8015L65.6015 115.172V124.01L63.8015 125H68.2115L66.2315 124.01V115.838L75.3215 125.27V114.29L77.1215 113.3H72.7115L74.6915 114.29V123.326ZM89.0583 124.1L87.5283 125H91.7943L89.9943 124.01L85.2603 113.3H83.0823L85.0083 114.974L81.0843 124.01L79.1943 125H83.3523L81.7323 124.1L82.9383 121.31H87.8163L89.0583 124.1ZM85.3503 115.766L87.5463 120.68H83.2083L85.3503 115.766ZM105.564 125L103.404 124.01V119.6H105.744C108.354 119.6 109.884 118.25 109.884 116.45C109.884 114.65 108.354 113.3 105.744 113.3H100.704L102.504 114.29V124.01L100.704 125H105.564ZM103.404 114.29L104.034 113.93H105.744C107.724 113.93 108.894 114.92 108.894 116.45C108.894 117.98 107.724 118.97 105.744 118.97H103.404V114.29ZM121.089 124.1L119.559 125H123.825L122.025 124.01L117.291 113.3H115.113L117.039 114.974L113.115 124.01L111.225 125H115.383L113.763 124.1L114.969 121.31H119.847L121.089 124.1ZM117.381 115.766L119.577 120.68H115.239L117.381 115.766ZM135.086 113.3H125.546V116.54L126.806 113.93H129.866V124.01L127.886 125H132.746L130.766 124.01V113.93H133.826L135.086 116.54V113.3ZM143.36 125L141.2 124.01V119.6H143.486L147.536 125H149.57L147.914 124.01L144.548 119.528C146.528 119.222 147.68 118.016 147.68 116.45C147.68 114.65 146.15 113.3 143.54 113.3H138.5L140.3 114.29V124.01L138.5 125H143.36ZM141.2 114.29L141.83 113.93H143.54C145.52 113.93 146.69 114.92 146.69 116.45C146.69 117.98 145.52 118.97 143.54 118.97H141.2V114.29ZM154.795 114.29L156.595 113.3H152.095L153.895 114.29V124.01L152.095 125H156.595L154.795 124.01V114.29ZM155.497 108.8L152.887 112.4L157.027 108.8H155.497ZM169.561 113.03L168.571 114.02C168.571 114.02 167.401 113.03 165.331 113.03C162.019 113.03 159.661 115.37 159.661 119.24C159.661 122.75 162.001 125.27 165.331 125.27C169.093 125.27 169.831 122.3 169.831 122.3C169.831 122.3 168.661 124.64 165.691 124.64C162.991 124.64 160.651 122.75 160.651 118.88C160.651 115.46 162.901 113.57 165.331 113.57C167.311 113.57 168.391 114.74 168.391 114.74L169.561 117.44V113.03ZM175.868 114.29L177.668 113.3H173.168L174.968 114.29V124.01L173.168 125H177.668L175.868 124.01V114.29ZM189.967 124.1L188.437 125H192.703L190.903 124.01L186.169 113.3H183.991L185.917 114.974L181.993 124.01L180.103 125H184.261L182.641 124.1L183.847 121.31H188.725L189.967 124.1ZM186.259 115.766L188.455 120.68H184.117L186.259 115.766ZM206.293 113.3H201.613L203.413 114.29V124.01L201.613 125H210.793V121.58L209.443 124.37H204.943L204.313 124.01V114.29L206.293 113.3ZM223.44 124.1L221.91 125H226.176L224.376 124.01L219.642 113.3H217.464L219.39 114.974L215.466 124.01L213.576 125H217.734L216.114 124.1L217.32 121.31H222.198L223.44 124.1ZM219.732 115.766L221.928 120.68H217.59L219.732 115.766ZM233.469 125L231.309 124.01V119.6H233.649C236.259 119.6 237.789 118.25 237.789 116.45C237.789 114.65 236.259 113.3 233.649 113.3H228.609L230.409 114.29V124.01L228.609 125H233.469ZM231.309 114.29L231.939 113.93H233.649C235.629 113.93 236.799 114.92 236.799 116.45C236.799 117.98 235.629 118.97 233.649 118.97H231.309V114.29ZM248.995 124.1L247.465 125H251.731L249.931 124.01L245.197 113.3H243.019L244.945 114.974L241.021 124.01L239.131 125H243.289L241.669 124.1L242.875 121.31H247.753L248.995 124.1ZM245.287 115.766L247.483 120.68H243.145L245.287 115.766ZM254.614 124.19C254.614 124.694 255.01 125.09 255.514 125.09H255.604L254.704 127.16C256.324 125.18 256.414 124.82 256.414 124.19C256.414 123.686 256.018 123.29 255.514 123.29C255.01 123.29 254.614 123.686 254.614 124.19ZM266.395 125H270.625L268.825 124.01V114.92L273.505 125.27L278.347 114.776V124.01L276.547 125H281.047L279.247 124.01V114.29L281.047 113.3H278.347L273.667 123.416L269.059 113.3H266.395L268.195 114.29V124.01L266.395 125ZM293.337 124.1L291.807 125H296.073L294.273 124.01L289.539 113.3H287.361L289.287 114.974L285.363 124.01L283.473 125H287.631L286.011 124.1L287.217 121.31H292.095L293.337 124.1ZM289.629 115.766L291.825 120.68H287.487L289.629 115.766ZM303.367 125L301.207 124.01V119.6H303.493L307.543 125H309.577L307.921 124.01L304.555 119.528C306.535 119.222 307.687 118.016 307.687 116.45C307.687 114.65 306.157 113.3 303.547 113.3H298.507L300.307 114.29V124.01L298.507 125H303.367ZM301.207 114.29L301.837 113.93H303.547C305.527 113.93 306.697 114.92 306.697 116.45C306.697 117.98 305.527 118.97 303.547 118.97H301.207V114.29ZM314.802 114.29L316.602 113.3H312.102L313.902 114.29V124.01L312.102 125H316.602L314.802 124.01V114.29ZM328.901 124.1L327.371 125H331.637L329.837 124.01L325.103 113.3H322.925L324.851 114.974L320.927 124.01L319.037 125H323.195L321.575 124.1L322.781 121.31H327.659L328.901 124.1ZM325.193 115.766L327.389 120.68H323.051L325.193 115.766ZM344.871 123.326L335.223 113.3H333.981L335.781 115.172V124.01L333.981 125H338.391L336.411 124.01V115.838L345.501 125.27V114.29L347.301 113.3H342.891L344.871 114.29V123.326ZM359.238 124.1L357.708 125H361.974L360.174 124.01L355.44 113.3H353.262L355.188 114.974L351.264 124.01L349.374 125H353.532L351.912 124.1L353.118 121.31H357.996L359.238 124.1ZM355.53 115.766L357.726 120.68H353.388L355.53 115.766ZM380.117 124.1L378.587 125H382.853L381.053 124.01L376.319 113.3H374.141L376.067 114.974L372.143 124.01L370.253 125H374.411L372.791 124.1L373.997 121.31H378.875L380.117 124.1ZM376.409 115.766L378.605 120.68H374.267L376.409 115.766ZM389.966 113.3H385.286L387.086 114.29V124.01L385.286 125H394.466V121.58L393.116 124.37H388.616L387.986 124.01V114.29L389.966 113.3ZM397.879 125H402.109L400.309 124.01V114.92L404.989 125.27L409.831 114.776V124.01L408.031 125H412.531L410.731 124.01V114.29L412.531 113.3H409.831L405.151 123.416L400.543 113.3H397.879L399.679 114.29V124.01L397.879 125ZM418.288 114.29L418.918 113.93H423.598L424.858 116.54V113.3H415.588L417.388 114.29V124.01L415.588 125H425.128V121.76L423.868 124.37H418.918L418.288 124.01V119.24H421.258L422.338 120.95V116.9L421.258 118.61H418.288V114.29ZM431.513 114.29L433.313 113.3H428.813L430.613 114.29V124.01L428.813 125H433.313L431.513 124.01V114.29ZM440.969 125C444.119 125 447.179 123.38 447.179 119.15C447.179 114.92 444.119 113.3 440.969 113.3H436.379L438.179 114.29V124.01L436.379 125H440.969ZM439.079 114.29L439.709 113.93H440.969C443.129 113.93 446.189 115.01 446.189 119.15C446.189 123.29 443.129 124.37 440.969 124.37H439.709L439.079 124.01V114.29ZM458.927 124.1L457.397 125H461.663L459.863 124.01L455.129 113.3H452.951L454.877 114.974L450.953 124.01L449.063 125H453.221L451.601 124.1L452.807 121.31H457.685L458.927 124.1ZM455.219 115.766L457.415 120.68H453.077L455.219 115.766ZM149.851 152.1L148.321 153H152.587L150.787 152.01L146.053 141.3H143.875L145.801 142.974L141.877 152.01L139.987 153H144.145L142.525 152.1L143.731 149.31H148.609L149.851 152.1ZM146.143 143.766L148.339 148.68H144.001L146.143 143.766ZM165.82 151.326L156.172 141.3H154.93L156.73 143.172V152.01L154.93 153H159.34L157.36 152.01V143.838L166.45 153.27V142.29L168.25 141.3H163.84L165.82 142.29V151.326ZM175.543 153C178.693 153 181.753 151.38 181.753 147.15C181.753 142.92 178.693 141.3 175.543 141.3H170.953L172.753 142.29V152.01L170.953 153H175.543ZM173.653 142.29L174.283 141.93H175.543C177.703 141.93 180.763 143.01 180.763 147.15C180.763 151.29 177.703 152.37 175.543 152.37H174.283L173.653 152.01V142.29ZM191.287 153H195.517L193.717 152.01V142.92L198.397 153.27L203.239 142.776V152.01L201.439 153H205.939L204.139 152.01V142.29L205.939 141.3H203.239L198.559 151.416L193.951 141.3H191.287L193.087 142.29V152.01L191.287 153ZM211.695 142.29L212.325 141.93H217.005L218.265 144.54V141.3H208.995L210.795 142.29V152.01L208.995 153H218.535V149.76L217.275 152.37H212.325L211.695 152.01V147.24H214.665L215.745 148.95V144.9L214.665 146.61H211.695V142.29ZM227.081 153L224.921 152.01V147.6H227.207L231.257 153H233.291L231.635 152.01L228.269 147.528C230.249 147.222 231.401 146.016 231.401 144.45C231.401 142.65 229.871 141.3 227.261 141.3H222.221L224.021 142.29V152.01L222.221 153H227.081ZM224.921 142.29L225.551 141.93H227.261C229.241 141.93 230.411 142.92 230.411 144.45C230.411 145.98 229.241 146.97 227.261 146.97H224.921V142.29ZM245.54 141.03L244.55 142.02C244.55 142.02 243.38 141.03 241.31 141.03C237.998 141.03 235.64 143.37 235.64 147.24C235.64 150.75 237.98 153.27 241.31 153.27C245.072 153.27 245.81 150.3 245.81 150.3C245.81 150.3 244.64 152.64 241.67 152.64C238.97 152.64 236.63 150.75 236.63 146.88C236.63 143.46 238.88 141.57 241.31 141.57C243.29 141.57 244.37 142.74 244.37 142.74L245.54 145.44V141.03ZM251.847 142.29L252.477 141.93H257.157L258.417 144.54V141.3H249.147L250.947 142.29V152.01L249.147 153H258.687V149.76L257.427 152.37H252.477L251.847 152.01V147.24H254.817L255.897 148.95V144.9L254.817 146.61H251.847V142.29ZM266.963 153C270.113 153 273.173 151.38 273.173 147.15C273.173 142.92 270.113 141.3 266.963 141.3H262.373L264.173 142.29V152.01L262.373 153H266.963ZM265.073 142.29L265.703 141.93H266.963C269.123 141.93 272.183 143.01 272.183 147.15C272.183 151.29 269.123 152.37 266.963 152.37H265.703L265.073 152.01V142.29ZM278.932 142.29L279.562 141.93H284.242L285.502 144.54V141.3H276.232L278.032 142.29V152.01L276.232 153H285.772V149.76L284.512 152.37H279.562L278.932 152.01V147.24H281.902L282.982 148.95V144.9L281.902 146.61H278.932V142.29ZM297.378 141.03L296.478 141.84C296.478 141.84 295.398 141.03 293.508 141.03C291.078 141.03 289.908 142.344 289.908 143.82C289.908 145.512 291.186 146.25 293.616 147.114C296.118 147.996 297.018 148.68 297.018 150.3C297.018 151.74 295.848 152.73 294.138 152.73C292.158 152.73 291.168 151.65 291.168 151.65L289.998 148.86V153.27L290.862 152.28C290.862 152.28 291.978 153.27 294.138 153.27C296.568 153.27 297.918 151.884 297.918 150.12C297.918 147.78 296.028 146.97 293.796 146.214C291.6 145.476 290.808 144.846 290.808 143.694C290.808 142.614 291.798 141.57 293.508 141.57C295.218 141.57 296.208 142.47 296.208 142.47L297.378 144.9V141.03ZM317.145 152.1L315.615 153H319.881L318.081 152.01L313.347 141.3H311.169L313.095 142.974L309.171 152.01L307.281 153H311.439L309.819 152.1L311.025 149.31H315.903L317.145 152.1ZM313.437 143.766L315.633 148.68H311.295L313.437 143.766ZM326.995 141.3H322.315L324.115 142.29V152.01L322.315 153H331.495V149.58L330.145 152.37H325.645L325.015 152.01V142.29L326.995 141.3ZM346.055 141.3H341.915L343.535 142.2L339.755 151.29L335.993 142.2L337.523 141.3H333.293L335.093 142.38L339.611 153.27L344.165 142.29L346.055 141.3ZM351.185 142.29L351.815 141.93H356.495L357.755 144.54V141.3H348.485L350.285 142.29V152.01L348.485 153H358.025V149.76L356.765 152.37H351.815L351.185 152.01V147.24H354.155L355.235 148.95V144.9L354.155 146.61H351.185V142.29ZM369.631 141.03L368.731 141.84C368.731 141.84 367.651 141.03 365.761 141.03C363.331 141.03 362.161 142.344 362.161 143.82C362.161 145.512 363.439 146.25 365.869 147.114C368.371 147.996 369.271 148.68 369.271 150.3C369.271 151.74 368.101 152.73 366.391 152.73C364.411 152.73 363.421 151.65 363.421 151.65L362.251 148.86V153.27L363.115 152.28C363.115 152.28 364.231 153.27 366.391 153.27C368.821 153.27 370.171 151.884 370.171 150.12C370.171 147.78 368.281 146.97 366.049 146.214C363.853 145.476 363.061 144.846 363.061 143.694C363.061 142.614 364.051 141.57 365.761 141.57C367.471 141.57 368.461 142.47 368.461 142.47L369.631 144.9V141.03ZM374.138 152.19C374.138 152.694 374.534 153.09 375.038 153.09C375.542 153.09 375.938 152.694 375.938 152.19C375.938 151.686 375.542 151.29 375.038 151.29C374.534 151.29 374.138 151.686 374.138 152.19ZM65.8937 207.326L56.2457 197.3H55.0037L56.8037 199.172V208.01L55.0037 209H59.4137L57.4337 208.01V199.838L66.5237 209.27V198.29L68.3237 197.3H63.9137L65.8937 198.29V207.326ZM80.2605 208.1L78.7305 209H82.9965L81.1965 208.01L76.4625 197.3H74.2845L76.2105 198.974L72.2865 208.01L70.3965 209H74.5545L72.9345 208.1L74.1405 205.31H79.0185L80.2605 208.1ZM76.5525 199.766L78.7485 204.68H74.4105L76.5525 199.766ZM90.29 209L88.13 208.01V203.6H90.416L94.466 209H96.5L94.844 208.01L91.478 203.528C93.458 203.222 94.61 202.016 94.61 200.45C94.61 198.65 93.08 197.3 90.47 197.3H85.43L87.23 198.29V208.01L85.43 209H90.29ZM88.13 198.29L88.76 197.93H90.47C92.45 197.93 93.62 198.92 93.62 200.45C93.62 201.98 92.45 202.97 90.47 202.97H88.13V198.29ZM103.885 209L101.725 208.01V203.6H104.011L108.061 209H110.095L108.439 208.01L105.073 203.528C107.053 203.222 108.205 202.016 108.205 200.45C108.205 198.65 106.675 197.3 104.065 197.3H99.0249L100.825 198.29V208.01L99.0249 209H103.885ZM101.725 198.29L102.355 197.93H104.065C106.045 197.93 107.215 198.92 107.215 200.45C107.215 201.98 106.045 202.97 104.065 202.97H101.725V198.29ZM121.854 208.1L120.324 209H124.59L122.79 208.01L118.056 197.3H115.878L117.804 198.974L113.88 208.01L111.99 209H116.148L114.528 208.1L115.734 205.31H120.612L121.854 208.1ZM118.146 199.766L120.342 204.68H116.004L118.146 199.766ZM135.851 197.3H126.311V200.54L127.571 197.93H130.631V208.01L128.651 209H133.511L131.531 208.01V197.93H134.591L135.851 200.54V197.3ZM141.965 198.29L143.765 197.3H139.265L141.065 198.29V208.01L139.265 209H143.765L141.965 208.01V198.29ZM147.82 203.15C147.82 199.46 150.07 197.57 152.41 197.57C154.75 197.57 157 199.46 157 203.15C157 206.84 154.75 208.73 152.41 208.73C150.07 208.73 147.82 206.84 147.82 203.15ZM152.41 197.03C149.08 197.03 146.83 199.55 146.83 203.15C146.83 206.75 149.08 209.27 152.41 209.27C155.74 209.27 157.99 206.75 157.99 203.15C157.99 199.55 155.74 197.03 152.41 197.03ZM171.858 207.326L162.21 197.3H160.968L162.768 199.172V208.01L160.968 209H165.378L163.398 208.01V199.838L172.488 209.27V198.29L174.288 197.3H169.878L171.858 198.29V207.326ZM195.599 197.3H191.459L193.079 198.2L189.299 207.29L185.537 198.2L187.067 197.3H182.837L184.637 198.38L189.155 209.27L193.709 198.29L195.599 197.3ZM198.298 203.15C198.298 199.46 200.548 197.57 202.888 197.57C205.228 197.57 207.478 199.46 207.478 203.15C207.478 206.84 205.228 208.73 202.888 208.73C200.548 208.73 198.298 206.84 198.298 203.15ZM202.888 197.03C199.558 197.03 197.308 199.55 197.308 203.15C197.308 206.75 199.558 209.27 202.888 209.27C206.218 209.27 208.468 206.75 208.468 203.15C208.468 199.55 206.218 197.03 202.888 197.03ZM214.235 198.29L216.035 197.3H211.535L213.335 198.29V208.01L211.535 209H216.035L214.235 208.01V198.29ZM229.001 197.03L228.011 198.02C228.011 198.02 226.841 197.03 224.771 197.03C221.459 197.03 219.101 199.37 219.101 203.24C219.101 206.75 221.441 209.27 224.771 209.27C228.533 209.27 229.271 206.3 229.271 206.3C229.271 206.3 228.101 208.64 225.131 208.64C222.431 208.64 220.091 206.75 220.091 202.88C220.091 199.46 222.341 197.57 224.771 197.57C226.751 197.57 227.831 198.74 227.831 198.74L229.001 201.44V197.03ZM235.308 198.29L235.938 197.93H240.618L241.878 200.54V197.3H232.608L234.408 198.29V208.01L232.608 209H242.148V205.76L240.888 208.37H235.938L235.308 208.01V203.24H238.278L239.358 204.95V200.9L238.278 202.61H235.308V198.29ZM252.31 209H257.62C260.23 209 261.94 207.83 261.94 205.76C261.94 203.06 259.24 202.88 259.24 202.88V202.79C259.24 202.79 261.49 202.304 261.49 200.144C261.49 198.344 260.05 197.3 257.62 197.3H252.31L254.11 198.29V208.01L252.31 209ZM257.53 203.24C259.15 203.24 260.95 203.78 260.95 205.76C260.95 207.74 259.24 208.37 257.62 208.37H255.64L255.01 208.01V203.24H257.53ZM255.01 198.29L255.658 197.93H257.62C259.06 197.93 260.5 198.524 260.5 200.234C260.5 201.854 259.06 202.61 257.62 202.61H255.01V198.29ZM268.451 197.3H264.185L265.985 198.29L269.891 204.086V208.01L268.091 209H272.591L270.791 208.01V203.978L274.625 198.29L276.425 197.3H272.501L273.941 198.2L270.467 203.33L267.011 198.2L268.451 197.3ZM295.225 197.3H285.685V200.54L286.945 197.93H290.005V208.01L288.025 209H292.885L290.905 208.01V197.93H293.965L295.225 200.54V197.3ZM299.629 203.15C299.629 199.46 301.879 197.57 304.219 197.57C306.559 197.57 308.809 199.46 308.809 203.15C308.809 206.84 306.559 208.73 304.219 208.73C301.879 208.73 299.629 206.84 299.629 203.15ZM304.219 197.03C300.889 197.03 298.639 199.55 298.639 203.15C298.639 206.75 300.889 209.27 304.219 209.27C307.549 209.27 309.799 206.75 309.799 203.15C309.799 199.55 307.549 197.03 304.219 197.03ZM312.866 209H317.096L315.296 208.01V198.92L319.976 209.27L324.818 198.776V208.01L323.018 209H327.518L325.718 208.01V198.29L327.518 197.3H324.818L320.138 207.416L315.53 197.3H312.866L314.666 198.29V208.01L312.866 209ZM339.809 208.1L338.279 209H342.545L340.745 208.01L336.011 197.3H333.833L335.759 198.974L331.835 208.01L329.945 209H334.103L332.483 208.1L333.689 205.31H338.567L339.809 208.1ZM336.101 199.766L338.297 204.68H333.959L336.101 199.766ZM337.127 192.8L334.517 196.4L338.657 192.8H337.127ZM352.898 197.03L351.998 197.84C351.998 197.84 350.918 197.03 349.028 197.03C346.598 197.03 345.428 198.344 345.428 199.82C345.428 201.512 346.706 202.25 349.136 203.114C351.638 203.996 352.538 204.68 352.538 206.3C352.538 207.74 351.368 208.73 349.658 208.73C347.678 208.73 346.688 207.65 346.688 207.65L345.518 204.86V209.27L346.382 208.28C346.382 208.28 347.498 209.27 349.658 209.27C352.088 209.27 353.438 207.884 353.438 206.12C353.438 203.78 351.548 202.97 349.316 202.214C347.12 201.476 346.328 200.846 346.328 199.694C346.328 198.614 347.318 197.57 349.028 197.57C350.738 197.57 351.728 198.47 351.728 198.47L352.898 200.9V197.03ZM366.132 203.24H368.562L369.642 204.95V200.9L368.562 202.61H366.132V198.29L366.762 197.93H371.082L372.342 200.54V197.3H363.432L365.232 198.29V208.01L363.432 209H368.112L366.132 208.01V203.24ZM378.461 198.29L379.091 197.93H383.771L385.031 200.54V197.3H375.761L377.561 198.29V208.01L375.761 209H385.301V205.76L384.041 208.37H379.091L378.461 208.01V203.24H381.431L382.511 204.95V200.9L381.431 202.61H378.461V198.29ZM393.847 209L391.687 208.01V203.6H393.973L398.023 209H400.057L398.401 208.01L395.035 203.528C397.015 203.222 398.167 202.016 398.167 200.45C398.167 198.65 396.637 197.3 394.027 197.3H388.987L390.787 198.29V208.01L388.987 209H393.847ZM391.687 198.29L392.317 197.93H394.027C396.007 197.93 397.177 198.92 397.177 200.45C397.177 201.98 396.007 202.97 394.027 202.97H391.687V198.29ZM407.442 209L405.282 208.01V203.6H407.568L411.618 209H413.652L411.996 208.01L408.63 203.528C410.61 203.222 411.762 202.016 411.762 200.45C411.762 198.65 410.232 197.3 407.622 197.3H402.582L404.382 198.29V208.01L402.582 209H407.442ZM405.282 198.29L405.912 197.93H407.622C409.602 197.93 410.772 198.92 410.772 200.45C410.772 201.98 409.602 202.97 407.622 202.97H405.282V198.29ZM418.877 198.29L419.507 197.93H424.187L425.447 200.54V197.3H416.177L417.977 198.29V208.01L416.177 209H425.717V205.76L424.457 208.37H419.507L418.877 208.01V203.24H421.847L422.927 204.95V200.9L421.847 202.61H418.877V198.29ZM432.102 198.29L433.902 197.3H429.402L431.202 198.29V208.01L429.402 209H433.902L432.102 208.01V198.29ZM441.828 209L439.668 208.01V203.6H441.954L446.004 209H448.038L446.382 208.01L443.016 203.528C444.996 203.222 446.148 202.016 446.148 200.45C446.148 198.65 444.618 197.3 442.008 197.3H436.968L438.768 198.29V208.01L436.968 209H441.828ZM439.668 198.29L440.298 197.93H442.008C443.988 197.93 445.158 198.92 445.158 200.45C445.158 201.98 443.988 202.97 442.008 202.97H439.668V198.29ZM459.797 208.1L458.267 209H462.533L460.733 208.01L455.999 197.3H453.821L455.747 198.974L451.823 208.01L449.933 209H454.091L452.471 208.1L453.677 205.31H458.555L459.797 208.1ZM456.089 199.766L458.285 204.68H453.947L456.089 199.766ZM10.1044 264.1L8.57442 265H12.8404L11.0404 264.01L6.30642 253.3H4.12842L6.05442 254.974L2.13042 264.01L0.240417 265H4.39842L2.77842 264.1L3.98442 261.31H8.86242L10.1044 264.1ZM6.39642 255.766L8.59242 260.68H4.25442L6.39642 255.766ZM31.6497 253.03L30.6597 254.02C30.6597 254.02 29.4897 253.03 27.4197 253.03C24.1077 253.03 21.7497 255.37 21.7497 259.24C21.7497 262.75 24.0897 265.27 27.4197 265.27C31.1817 265.27 31.9197 262.3 31.9197 262.3C31.9197 262.3 30.7497 264.64 27.7797 264.64C25.0797 264.64 22.7397 262.75 22.7397 258.88C22.7397 255.46 24.9897 253.57 27.4197 253.57C29.3997 253.57 30.4797 254.74 30.4797 254.74L31.6497 257.44V253.03ZM38.8567 257.116C40.3507 257.116 41.9707 258.43 41.9707 261.418C41.9707 263.542 40.6927 264.784 39.3607 264.784C37.8847 264.784 36.2467 263.47 36.2467 260.482C36.2467 258.322 37.5427 257.116 38.8567 257.116ZM35.2567 260.95C35.2567 263.38 36.6067 265.27 39.1087 265.27C41.4307 265.27 42.9607 263.38 42.9607 260.95C42.9607 258.52 41.6107 256.63 39.1087 256.63C36.7867 256.63 35.2567 258.52 35.2567 260.95ZM47.3716 253.3V264.19L45.9316 265H49.7116L48.2716 264.19V252.13L45.9316 252.85L47.3716 253.3ZM54.0232 253.3V264.19L52.5832 265H56.3632L54.9232 264.19V252.13L52.5832 252.85L54.0232 253.3ZM59.3247 257.35L61.6647 256.63V264.19L63.1047 265H59.3247L60.7647 264.19V257.8L59.3247 257.35ZM60.1347 253.93C60.1347 254.434 60.5307 254.83 61.0347 254.83C61.5387 254.83 61.9347 254.434 61.9347 253.93C61.9347 253.426 61.5387 253.03 61.0347 253.03C60.5307 253.03 60.1347 253.426 60.1347 253.93ZM71.7517 256.63L71.0317 257.35C71.0317 257.35 70.4017 256.63 69.1417 256.63C67.7017 256.63 66.5317 257.476 66.5317 258.79C66.5317 261.508 71.3917 260.752 71.3917 263.074C71.3917 264.28 70.3117 264.73 69.5017 264.73C68.9617 264.73 67.9717 264.568 67.3957 263.38L66.6217 261.76V265.27L67.2517 264.208C67.2697 264.262 67.8277 265.27 69.5017 265.27C70.9417 265.27 72.2017 264.406 72.2017 262.786C72.2017 259.816 67.2517 260.5 67.2517 258.52C67.2517 257.8 67.9537 257.17 69.1417 257.17C70.4017 257.17 70.9417 257.98 70.9417 257.98L71.7517 259.438V256.63ZM75.5282 257.35L77.8682 256.63V264.19L79.3082 265H75.5282L76.9682 264.19V257.8L75.5282 257.35ZM76.3382 253.93C76.3382 254.434 76.7342 254.83 77.2382 254.83C77.7422 254.83 78.1382 254.434 78.1382 253.93C78.1382 253.426 77.7422 253.03 77.2382 253.03C76.7342 253.03 76.3382 253.426 76.3382 253.93ZM85.8853 257.116C87.3793 257.116 88.9993 258.43 88.9993 261.418C88.9993 263.542 87.7213 264.784 86.3893 264.784C84.9133 264.784 83.2753 263.47 83.2753 260.482C83.2753 258.322 84.5713 257.116 85.8853 257.116ZM82.2853 260.95C82.2853 263.38 83.6353 265.27 86.1373 265.27C88.4593 265.27 89.9893 263.38 89.9893 260.95C89.9893 258.52 88.6393 256.63 86.1373 256.63C83.8153 256.63 82.2853 258.52 82.2853 260.95ZM94.4901 257.8V264.19L93.0501 265H96.8301L95.3901 264.19V258.844C95.9301 258.178 97.0101 257.314 98.0901 257.314C99.2601 257.314 99.8001 258.16 99.8001 259.6V264.19L98.3601 265H102.14L100.7 264.19V259.33C100.7 257.35 99.7101 256.63 98.4501 256.63C97.1901 256.63 96.0201 257.62 95.3901 258.304V256.63L93.0501 257.35L94.4901 257.8ZM111.31 265H116.62C119.23 265 120.94 263.83 120.94 261.76C120.94 259.06 118.24 258.88 118.24 258.88V258.79C118.24 258.79 120.49 258.304 120.49 256.144C120.49 254.344 119.05 253.3 116.62 253.3H111.31L113.11 254.29V264.01L111.31 265ZM116.53 259.24C118.15 259.24 119.95 259.78 119.95 261.76C119.95 263.74 118.24 264.37 116.62 264.37H114.64L114.01 264.01V259.24H116.53ZM114.01 254.29L114.658 253.93H116.62C118.06 253.93 119.5 254.524 119.5 256.234C119.5 257.854 118.06 258.61 116.62 258.61H114.01V254.29ZM131.38 260.14C131.38 258.16 130.57 256.63 128.284 256.63C126.142 256.63 124.36 258.322 124.36 260.95C124.36 263.38 125.8 265.27 128.14 265.27C130.84 265.27 131.38 262.66 131.38 262.66C131.38 262.66 130.57 264.46 128.59 264.46C126.79 264.46 125.26 263.344 125.26 260.662C125.26 260.482 125.26 260.32 125.278 260.14H131.38ZM128.248 257.062C129.508 257.062 130.39 257.89 130.39 258.79C130.39 259.51 129.76 259.6 128.86 259.6H125.368C125.764 257.872 127.114 257.062 128.248 257.062ZM134.255 257.44H135.965V263.38C135.965 264.73 136.505 265.27 137.405 265.27C138.395 265.27 138.899 264.064 138.935 263.938C138.917 263.974 138.485 264.64 137.765 264.64C137.135 264.64 136.865 264.1 136.865 263.38V257.44H138.935V256.9H136.865V255.01L134.255 257.44ZM154.691 256.9H151.109L152.549 257.62L150.767 263.074L148.337 256.63L145.853 263.11L144.089 257.62L145.529 256.9H141.551L143.171 257.71L145.601 265.27L148.139 258.664L150.641 265.27L153.071 257.71L154.691 256.9ZM163.798 260.14C163.798 258.16 162.988 256.63 160.702 256.63C158.56 256.63 156.778 258.322 156.778 260.95C156.778 263.38 158.218 265.27 160.558 265.27C163.258 265.27 163.798 262.66 163.798 262.66C163.798 262.66 162.988 264.46 161.008 264.46C159.208 264.46 157.678 263.344 157.678 260.662C157.678 260.482 157.678 260.32 157.696 260.14H163.798ZM160.666 257.062C161.926 257.062 162.808 257.89 162.808 258.79C162.808 259.51 162.178 259.6 161.278 259.6H157.786C158.182 257.872 159.532 257.062 160.666 257.062ZM174.053 260.14C174.053 258.16 173.243 256.63 170.957 256.63C168.815 256.63 167.033 258.322 167.033 260.95C167.033 263.38 168.473 265.27 170.813 265.27C173.513 265.27 174.053 262.66 174.053 262.66C174.053 262.66 173.243 264.46 171.263 264.46C169.463 264.46 167.933 263.344 167.933 260.662C167.933 260.482 167.933 260.32 167.951 260.14H174.053ZM170.921 257.062C172.181 257.062 173.063 257.89 173.063 258.79C173.063 259.51 172.433 259.6 171.533 259.6H168.041C168.437 257.872 169.787 257.062 170.921 257.062ZM178.728 257.8V264.19L177.288 265H181.068L179.628 264.19V258.844C180.168 258.178 181.248 257.314 182.328 257.314C183.498 257.314 184.038 258.16 184.038 259.6V264.19L182.598 265H186.378L184.938 264.19V259.33C184.938 257.35 183.948 256.63 182.688 256.63C181.428 256.63 180.258 257.62 179.628 258.304V256.63L177.288 257.35L178.728 257.8ZM197.96 260.662C196.736 261.094 195.638 261.94 195.638 263.2C195.638 264.478 196.448 265.27 197.69 265.27C198.41 265.27 199.022 264.91 199.436 264.64L200.768 263.758C200.768 264.712 200.768 265.27 201.398 265.27C202.028 265.27 203.288 263.74 203.288 263.74L201.668 264.37V259.24C201.668 257.71 201.02 256.63 199.058 256.63C197.978 256.63 195.944 257.62 195.944 258.736C195.944 259.258 196.25 259.492 196.592 259.492C196.934 259.492 197.24 259.294 197.24 258.736C197.24 258.484 197.204 258.304 197.204 258.16C197.204 257.71 197.78 257.17 198.878 257.17C199.868 257.17 200.768 257.638 200.768 259.24V259.69L197.96 260.662ZM199.652 263.92C199.13 264.262 198.68 264.604 197.978 264.604C197.078 264.604 196.592 263.884 196.592 263.11C196.592 262.12 197.042 261.508 198.608 260.95L200.768 260.194V263.182L199.652 263.92ZM220.199 253.03L219.299 253.84C219.299 253.84 218.219 253.03 216.329 253.03C213.899 253.03 212.729 254.344 212.729 255.82C212.729 257.512 214.007 258.25 216.437 259.114C218.939 259.996 219.839 260.68 219.839 262.3C219.839 263.74 218.669 264.73 216.959 264.73C214.979 264.73 213.989 263.65 213.989 263.65L212.819 260.86V265.27L213.683 264.28C213.683 264.28 214.799 265.27 216.959 265.27C219.389 265.27 220.739 263.884 220.739 262.12C220.739 259.78 218.849 258.97 216.617 258.214C214.421 257.476 213.629 256.846 213.629 255.694C213.629 254.614 214.619 253.57 216.329 253.57C218.039 253.57 219.029 254.47 219.029 254.47L220.199 256.9V253.03ZM223.897 257.44H225.607V263.38C225.607 264.73 226.147 265.27 227.047 265.27C228.037 265.27 228.541 264.064 228.577 263.938C228.559 263.974 228.127 264.64 227.407 264.64C226.777 264.64 226.507 264.1 226.507 263.38V257.44H228.577V256.9H226.507V255.01L223.897 257.44ZM233.262 257.8V264.19L231.822 265H235.602L234.162 264.19V259.06C234.972 258.16 235.656 257.602 236.016 257.602C236.61 257.602 236.52 258.16 237.15 258.16C237.582 258.16 237.852 257.854 237.852 257.476C237.852 256.936 237.492 256.63 236.862 256.63C236.358 256.63 235.926 256.828 235.368 257.368L234.162 258.52V256.63L231.822 257.35L233.262 257.8ZM247.937 260.14C247.937 258.16 247.127 256.63 244.841 256.63C242.699 256.63 240.917 258.322 240.917 260.95C240.917 263.38 242.357 265.27 244.697 265.27C247.397 265.27 247.937 262.66 247.937 262.66C247.937 262.66 247.127 264.46 245.147 264.46C243.347 264.46 241.817 263.344 241.817 260.662C241.817 260.482 241.817 260.32 241.835 260.14H247.937ZM244.805 257.062C246.065 257.062 246.947 257.89 246.947 258.79C246.947 259.51 246.317 259.6 245.417 259.6H241.925C242.321 257.872 243.671 257.062 244.805 257.062ZM253.584 260.662C252.36 261.094 251.262 261.94 251.262 263.2C251.262 264.478 252.072 265.27 253.314 265.27C254.034 265.27 254.646 264.91 255.06 264.64L256.392 263.758C256.392 264.712 256.392 265.27 257.022 265.27C257.652 265.27 258.912 263.74 258.912 263.74L257.292 264.37V259.24C257.292 257.71 256.644 256.63 254.682 256.63C253.602 256.63 251.568 257.62 251.568 258.736C251.568 259.258 251.874 259.492 252.216 259.492C252.558 259.492 252.864 259.294 252.864 258.736C252.864 258.484 252.828 258.304 252.828 258.16C252.828 257.71 253.404 257.17 254.502 257.17C255.492 257.17 256.392 257.638 256.392 259.24V259.69L253.584 260.662ZM255.276 263.92C254.754 264.262 254.304 264.604 253.602 264.604C252.702 264.604 252.216 263.884 252.216 263.11C252.216 262.12 252.666 261.508 254.232 260.95L256.392 260.194V263.182L255.276 263.92ZM269.077 258.844C269.617 258.178 270.697 257.314 271.777 257.314C272.947 257.314 273.487 258.16 273.487 259.6V264.19L272.047 265H275.827L274.387 264.19V259.33C274.387 257.35 273.397 256.63 272.137 256.63C270.877 256.63 269.707 257.62 268.987 258.412C268.699 257.116 267.835 256.63 266.827 256.63C265.567 256.63 264.397 257.62 263.767 258.304V256.63L261.427 257.35L262.867 257.8V264.19L261.427 265H265.207L263.767 264.19V258.844C264.307 258.178 265.387 257.314 266.467 257.314C267.637 257.314 268.177 258.16 268.177 259.6V264.19L266.737 265H270.517L269.077 264.19V258.844ZM288.596 257.116C290.09 257.116 291.71 258.43 291.71 261.418C291.71 263.542 290.432 264.784 289.1 264.784C287.624 264.784 285.986 263.47 285.986 260.482C285.986 258.322 287.282 257.116 288.596 257.116ZM284.996 260.95C284.996 263.38 286.346 265.27 288.848 265.27C291.17 265.27 292.7 263.38 292.7 260.95C292.7 258.52 291.35 256.63 288.848 256.63C286.526 256.63 284.996 258.52 284.996 260.95ZM295.491 257.44H297.201V264.19L295.761 265H299.721L298.101 264.19V257.44H300.171V256.9H298.101V256.18C298.101 253.66 298.605 252.76 299.325 252.76C299.955 252.76 299.847 253.75 300.657 253.75C301.017 253.75 301.341 253.498 301.341 253.048C301.341 252.4 300.585 252.13 300.045 252.13C298.245 252.13 297.201 253.75 297.201 256.9H295.491V257.44ZM314.57 253.3H309.89L311.69 254.29V264.01L309.89 265H319.07V261.58L317.72 264.37H313.22L312.59 264.01V254.29L314.57 253.3ZM322.483 257.35L324.823 256.63V264.19L326.263 265H322.483L323.923 264.19V257.8L322.483 257.35ZM323.293 253.93C323.293 254.434 323.689 254.83 324.193 254.83C324.697 254.83 325.093 254.434 325.093 253.93C325.093 253.426 324.697 253.03 324.193 253.03C323.689 253.03 323.293 253.426 323.293 253.93ZM329.78 259.51C329.78 260.698 330.41 261.724 331.544 262.156C330.77 262.3 329.87 262.696 329.87 263.74C329.87 264.352 330.338 264.82 330.824 264.964C330.212 265.072 329.06 265.36 329.06 266.62C329.06 267.7 330.05 269.05 332.84 269.05C335.72 269.05 337.25 267.25 337.25 265.9C337.25 264.55 336.35 264.1 335.45 264.1H331.4C331.13 264.1 330.68 264.01 330.68 263.47C330.68 262.534 332.192 262.39 332.84 262.39C334.73 262.39 335.9 261.094 335.9 259.51C335.9 258.178 335.09 257.44 335.09 257.44C335.09 257.44 335.72 257.62 336.17 257.62C336.89 257.62 337.16 257.206 337.16 256.72C337.16 256.36 336.908 256 336.404 256C335.972 256 335.72 256.324 335.72 256.702C335.72 256.936 335.9 257.17 335.45 257.17C334.73 257.17 334.1 256.63 332.84 256.63C330.95 256.63 329.78 257.926 329.78 259.51ZM335.45 265C336.08 265 336.62 265.27 336.62 265.99C336.62 266.8 335.63 268.24 333.02 268.24C330.77 268.24 329.96 267.25 329.96 266.35C329.96 265.108 331.706 265.018 331.742 265H335.45ZM330.77 259.51C330.77 257.98 331.706 257.08 332.84 257.08C333.974 257.08 334.91 257.98 334.91 259.51C334.91 261.04 333.974 261.94 332.84 261.94C331.706 261.94 330.77 261.04 330.77 259.51ZM341.566 253.3V264.19L340.126 265H343.906L342.466 264.19V258.844C343.006 258.178 344.086 257.314 345.166 257.314C346.336 257.314 346.876 258.16 346.876 259.6V264.19L345.436 265H349.216L347.776 264.19V259.33C347.776 257.35 346.786 256.63 345.526 256.63C344.266 256.63 343.096 257.62 342.466 258.304V252.13L340.126 252.85L341.566 253.3ZM351.553 257.44H353.263V263.38C353.263 264.73 353.803 265.27 354.703 265.27C355.693 265.27 356.197 264.064 356.233 263.938C356.215 263.974 355.783 264.64 355.063 264.64C354.433 264.64 354.163 264.1 354.163 263.38V257.44H356.233V256.9H354.163V255.01L351.553 257.44ZM368.366 260.662C367.142 261.094 366.044 261.94 366.044 263.2C366.044 264.478 366.854 265.27 368.096 265.27C368.816 265.27 369.428 264.91 369.842 264.64L371.174 263.758C371.174 264.712 371.174 265.27 371.804 265.27C372.434 265.27 373.694 263.74 373.694 263.74L372.074 264.37V259.24C372.074 257.71 371.426 256.63 369.464 256.63C368.384 256.63 366.35 257.62 366.35 258.736C366.35 259.258 366.656 259.492 366.998 259.492C367.34 259.492 367.646 259.294 367.646 258.736C367.646 258.484 367.61 258.304 367.61 258.16C367.61 257.71 368.186 257.17 369.284 257.17C370.274 257.17 371.174 257.638 371.174 259.24V259.69L368.366 260.662ZM370.058 263.92C369.536 264.262 369.086 264.604 368.384 264.604C367.484 264.604 366.998 263.884 366.998 263.11C366.998 262.12 367.448 261.508 369.014 260.95L371.174 260.194V263.182L370.058 263.92ZM377.649 257.8V264.19L376.209 265H379.989L378.549 264.19V258.844C379.089 258.178 380.169 257.314 381.249 257.314C382.419 257.314 382.959 258.16 382.959 259.6V264.19L381.519 265H385.299L383.859 264.19V259.33C383.859 257.35 382.869 256.63 381.609 256.63C380.349 256.63 379.179 257.62 378.549 258.304V256.63L376.209 257.35L377.649 257.8ZM394.113 253.3V258.052C394.059 257.926 393.393 256.63 391.593 256.63C389.973 256.63 388.083 257.89 388.083 260.95C388.083 264.1 389.793 265.27 391.413 265.27C393.303 265.27 394.113 263.56 394.113 263.56V265.27L396.453 264.55L395.013 264.1V252.13L392.673 252.85L394.113 253.3ZM394.113 262.66C394.113 262.66 393.483 264.73 391.683 264.73C390.315 264.73 389.073 263.56 389.073 260.95C389.073 258.43 390.315 257.17 391.683 257.17C393.213 257.17 394.113 258.34 394.113 259.69V262.66ZM408.138 260.662C406.914 261.094 405.816 261.94 405.816 263.2C405.816 264.478 406.626 265.27 407.868 265.27C408.588 265.27 409.2 264.91 409.614 264.64L410.946 263.758C410.946 264.712 410.946 265.27 411.576 265.27C412.206 265.27 413.466 263.74 413.466 263.74L411.846 264.37V259.24C411.846 257.71 411.198 256.63 409.236 256.63C408.156 256.63 406.122 257.62 406.122 258.736C406.122 259.258 406.428 259.492 406.77 259.492C407.112 259.492 407.418 259.294 407.418 258.736C407.418 258.484 407.382 258.304 407.382 258.16C407.382 257.71 407.958 257.17 409.056 257.17C410.046 257.17 410.946 257.638 410.946 259.24V259.69L408.138 260.662ZM409.83 263.92C409.308 264.262 408.858 264.604 408.156 264.604C407.256 264.604 406.77 263.884 406.77 263.11C406.77 262.12 407.22 261.508 408.786 260.95L410.946 260.194V263.182L409.83 263.92ZM417.421 257.8V264.19L415.981 265H419.761L418.321 264.19V258.844C418.861 258.178 419.941 257.314 421.021 257.314C422.191 257.314 422.731 258.16 422.731 259.6V264.19L421.291 265H425.071L423.631 264.19V259.33C423.631 257.35 422.641 256.63 421.381 256.63C420.121 256.63 418.951 257.62 418.321 258.304V256.63L415.981 257.35L417.421 257.8ZM435.232 259.15C435.232 255.46 437.482 253.57 439.822 253.57C442.162 253.57 444.412 255.46 444.412 259.15C444.412 262.84 442.162 264.73 439.822 264.73C437.482 264.73 435.232 262.84 435.232 259.15ZM439.822 253.03C436.492 253.03 434.242 255.55 434.242 259.15C434.242 262.75 436.492 265.27 439.822 265.27C443.152 265.27 445.402 262.75 445.402 259.15C445.402 255.55 443.152 253.03 439.822 253.03ZM449.099 265.27L449.819 263.65C449.819 263.65 450.539 265.27 452.519 265.27C454.139 265.27 456.029 264.01 456.029 260.95C456.029 257.62 454.319 256.63 452.699 256.63C450.809 256.63 449.999 258.34 449.999 258.34V252.13L447.659 252.85L449.099 253.3V265.27ZM449.999 259.24C449.999 259.24 450.629 257.17 452.429 257.17C453.797 257.17 455.039 258.25 455.039 260.95C455.039 263.47 453.797 264.73 452.429 264.73C450.899 264.73 449.999 263.56 449.999 262.21V259.24ZM464.851 256.63L464.131 257.35C464.131 257.35 463.501 256.63 462.241 256.63C460.801 256.63 459.631 257.476 459.631 258.79C459.631 261.508 464.491 260.752 464.491 263.074C464.491 264.28 463.411 264.73 462.601 264.73C462.061 264.73 461.071 264.568 460.495 263.38L459.721 261.76V265.27L460.351 264.208C460.369 264.262 460.927 265.27 462.601 265.27C464.041 265.27 465.301 264.406 465.301 262.786C465.301 259.816 460.351 260.5 460.351 258.52C460.351 257.8 461.053 257.17 462.241 257.17C463.501 257.17 464.041 257.98 464.041 257.98L464.851 259.438V256.63ZM468.268 257.44H469.978V263.38C469.978 264.73 470.518 265.27 471.418 265.27C472.408 265.27 472.912 264.064 472.948 263.938C472.93 263.974 472.498 264.64 471.778 264.64C471.148 264.64 470.878 264.1 470.878 263.38V257.44H472.948V256.9H470.878V255.01L468.268 257.44ZM478.605 260.662C477.381 261.094 476.283 261.94 476.283 263.2C476.283 264.478 477.093 265.27 478.335 265.27C479.055 265.27 479.667 264.91 480.081 264.64L481.413 263.758C481.413 264.712 481.413 265.27 482.043 265.27C482.673 265.27 483.933 263.74 483.933 263.74L482.313 264.37V259.24C482.313 257.71 481.665 256.63 479.703 256.63C478.623 256.63 476.589 257.62 476.589 258.736C476.589 259.258 476.895 259.492 477.237 259.492C477.579 259.492 477.885 259.294 477.885 258.736C477.885 258.484 477.849 258.304 477.849 258.16C477.849 257.71 478.425 257.17 479.523 257.17C480.513 257.17 481.413 257.638 481.413 259.24V259.69L478.605 260.662ZM480.297 263.92C479.775 264.262 479.325 264.604 478.623 264.604C477.723 264.604 477.237 263.884 477.237 263.11C477.237 262.12 477.687 261.508 479.253 260.95L481.413 260.194V263.182L480.297 263.92ZM490.337 257.062C491.867 257.062 492.029 257.98 492.029 258.16C492.029 258.448 491.867 258.502 491.867 258.898C491.867 259.294 492.119 259.564 492.551 259.564C493.001 259.564 493.235 259.204 493.235 258.736C493.235 257.746 492.173 256.63 490.373 256.63C488.231 256.63 486.449 258.34 486.449 260.95C486.449 263.38 487.889 265.27 490.229 265.27C492.929 265.27 493.469 262.66 493.469 262.66C493.469 262.66 492.659 264.46 490.679 264.46C488.879 264.46 487.349 263.344 487.349 260.662C487.349 258.196 489.077 257.062 490.337 257.062ZM497.878 253.3V264.19L496.438 265H500.218L498.778 264.19V252.13L496.438 252.85L497.878 253.3ZM510.199 260.14C510.199 258.16 509.389 256.63 507.103 256.63C504.961 256.63 503.179 258.322 503.179 260.95C503.179 263.38 504.619 265.27 506.959 265.27C509.659 265.27 510.199 262.66 510.199 262.66C510.199 262.66 509.389 264.46 507.409 264.46C505.609 264.46 504.079 263.344 504.079 260.662C504.079 260.482 504.079 260.32 504.097 260.14H510.199ZM507.067 257.062C508.327 257.062 509.209 257.89 509.209 258.79C509.209 259.51 508.579 259.6 507.679 259.6H504.187C504.583 257.872 505.933 257.062 507.067 257.062ZM513.885 264.19C513.885 264.694 514.281 265.09 514.785 265.09C515.289 265.09 515.685 264.694 515.685 264.19C515.685 263.686 515.289 263.29 514.785 263.29C514.281 263.29 513.885 263.686 513.885 264.19ZM66.8271 281.03L65.8371 282.02C65.8371 282.02 64.6671 281.03 62.5971 281.03C59.2851 281.03 56.9271 283.37 56.9271 287.24C56.9271 290.75 59.2671 293.27 62.5971 293.27C66.3591 293.27 67.0971 290.3 67.0971 290.3C67.0971 290.3 65.9271 292.64 62.9571 292.64C60.2571 292.64 57.9171 290.75 57.9171 286.88C57.9171 283.46 60.1671 281.57 62.5971 281.57C64.5771 281.57 65.6571 282.74 65.6571 282.74L66.8271 285.44V281.03ZM74.0341 285.116C75.5281 285.116 77.1481 286.43 77.1481 289.418C77.1481 291.542 75.8701 292.784 74.5381 292.784C73.0621 292.784 71.4241 291.47 71.4241 288.482C71.4241 286.322 72.7201 285.116 74.0341 285.116ZM70.4341 288.95C70.4341 291.38 71.7841 293.27 74.2861 293.27C76.6081 293.27 78.1381 291.38 78.1381 288.95C78.1381 286.52 76.7881 284.63 74.2861 284.63C71.9641 284.63 70.4341 286.52 70.4341 288.95ZM88.8489 286.844C89.3889 286.178 90.4689 285.314 91.5489 285.314C92.7189 285.314 93.2589 286.16 93.2589 287.6V292.19L91.8189 293H95.5989L94.1589 292.19V287.33C94.1589 285.35 93.1689 284.63 91.9089 284.63C90.6489 284.63 89.4789 285.62 88.7589 286.412C88.4709 285.116 87.6069 284.63 86.5989 284.63C85.3389 284.63 84.1689 285.62 83.5389 286.304V284.63L81.1989 285.35L82.6389 285.8V292.19L81.1989 293H84.9789L83.5389 292.19V286.844C84.0789 286.178 85.1589 285.314 86.2389 285.314C87.4089 285.314 87.9489 286.16 87.9489 287.6V292.19L86.5089 293H90.2889L88.8489 292.19V286.844ZM105.942 286.844C106.482 286.178 107.562 285.314 108.642 285.314C109.812 285.314 110.352 286.16 110.352 287.6V292.19L108.912 293H112.692L111.252 292.19V287.33C111.252 285.35 110.262 284.63 109.002 284.63C107.742 284.63 106.572 285.62 105.852 286.412C105.564 285.116 104.7 284.63 103.692 284.63C102.432 284.63 101.262 285.62 100.632 286.304V284.63L98.2919 285.35L99.7319 285.8V292.19L98.2919 293H102.072L100.632 292.19V286.844C101.172 286.178 102.252 285.314 103.332 285.314C104.502 285.314 105.042 286.16 105.042 287.6V292.19L103.602 293H107.382L105.942 292.19V286.844ZM121.685 285.8V291.056C121.145 291.722 120.065 292.586 118.985 292.586C117.815 292.586 117.275 291.74 117.275 290.3V284.63L114.935 285.35L116.375 285.8V290.57C116.375 292.55 117.365 293.27 118.625 293.27C119.885 293.27 121.055 292.28 121.685 291.596V293.27L124.025 292.55L122.585 292.1V284.63L120.245 285.35L121.685 285.8ZM128.258 285.8V292.19L126.818 293H130.598L129.158 292.19V286.844C129.698 286.178 130.778 285.314 131.858 285.314C133.028 285.314 133.568 286.16 133.568 287.6V292.19L132.128 293H135.908L134.468 292.19V287.33C134.468 285.35 133.478 284.63 132.218 284.63C130.958 284.63 129.788 285.62 129.158 286.304V284.63L126.818 285.35L128.258 285.8ZM138.602 285.35L140.942 284.63V292.19L142.382 293H138.602L140.042 292.19V285.8L138.602 285.35ZM139.412 281.93C139.412 282.434 139.808 282.83 140.312 282.83C140.816 282.83 141.212 282.434 141.212 281.93C141.212 281.426 140.816 281.03 140.312 281.03C139.808 281.03 139.412 281.426 139.412 281.93ZM149.247 285.062C150.777 285.062 150.939 285.98 150.939 286.16C150.939 286.448 150.777 286.502 150.777 286.898C150.777 287.294 151.029 287.564 151.461 287.564C151.911 287.564 152.145 287.204 152.145 286.736C152.145 285.746 151.083 284.63 149.283 284.63C147.141 284.63 145.359 286.34 145.359 288.95C145.359 291.38 146.799 293.27 149.139 293.27C151.839 293.27 152.379 290.66 152.379 290.66C152.379 290.66 151.569 292.46 149.589 292.46C147.789 292.46 146.259 291.344 146.259 288.662C146.259 286.196 147.987 285.062 149.247 285.062ZM157.85 288.662C156.626 289.094 155.528 289.94 155.528 291.2C155.528 292.478 156.338 293.27 157.58 293.27C158.3 293.27 158.912 292.91 159.326 292.64L160.658 291.758C160.658 292.712 160.658 293.27 161.288 293.27C161.918 293.27 163.178 291.74 163.178 291.74L161.558 292.37V287.24C161.558 285.71 160.91 284.63 158.948 284.63C157.868 284.63 155.834 285.62 155.834 286.736C155.834 287.258 156.14 287.492 156.482 287.492C156.824 287.492 157.13 287.294 157.13 286.736C157.13 286.484 157.094 286.304 157.094 286.16C157.094 285.71 157.67 285.17 158.768 285.17C159.758 285.17 160.658 285.638 160.658 287.24V287.69L157.85 288.662ZM159.542 291.92C159.02 292.262 158.57 292.604 157.868 292.604C156.968 292.604 156.482 291.884 156.482 291.11C156.482 290.12 156.932 289.508 158.498 288.95L160.658 288.194V291.182L159.542 291.92ZM165.333 285.44H167.043V291.38C167.043 292.73 167.583 293.27 168.483 293.27C169.473 293.27 169.977 292.064 170.013 291.938C169.995 291.974 169.563 292.64 168.843 292.64C168.213 292.64 167.943 292.1 167.943 291.38V285.44H170.013V284.9H167.943V283.01L165.333 285.44ZM173.259 285.35L175.599 284.63V292.19L177.039 293H173.259L174.699 292.19V285.8L173.259 285.35ZM174.069 281.93C174.069 282.434 174.465 282.83 174.969 282.83C175.473 282.83 175.869 282.434 175.869 281.93C175.869 281.426 175.473 281.03 174.969 281.03C174.465 281.03 174.069 281.426 174.069 281.93ZM183.616 285.116C185.11 285.116 186.73 286.43 186.73 289.418C186.73 291.542 185.452 292.784 184.12 292.784C182.644 292.784 181.006 291.47 181.006 288.482C181.006 286.322 182.302 285.116 183.616 285.116ZM180.016 288.95C180.016 291.38 181.366 293.27 183.868 293.27C186.19 293.27 187.72 291.38 187.72 288.95C187.72 286.52 186.37 284.63 183.868 284.63C181.546 284.63 180.016 286.52 180.016 288.95ZM192.221 285.8V292.19L190.781 293H194.561L193.121 292.19V286.844C193.661 286.178 194.741 285.314 195.821 285.314C196.991 285.314 197.531 286.16 197.531 287.6V292.19L196.091 293H199.871L198.431 292.19V287.33C198.431 285.35 197.441 284.63 196.181 284.63C194.921 284.63 193.751 285.62 193.121 286.304V284.63L190.781 285.35L192.221 285.8ZM213.631 293C216.781 293 219.841 291.38 219.841 287.15C219.841 282.92 216.781 281.3 213.631 281.3H209.041L210.841 282.29V292.01L209.041 293H213.631ZM211.741 282.29L212.371 281.93H213.631C215.791 281.93 218.851 283.01 218.851 287.15C218.851 291.29 215.791 292.37 213.631 292.37H212.371L211.741 292.01V282.29ZM229.92 288.14C229.92 286.16 229.11 284.63 226.824 284.63C224.682 284.63 222.9 286.322 222.9 288.95C222.9 291.38 224.34 293.27 226.68 293.27C229.38 293.27 229.92 290.66 229.92 290.66C229.92 290.66 229.11 292.46 227.13 292.46C225.33 292.46 223.8 291.344 223.8 288.662C223.8 288.482 223.8 288.32 223.818 288.14H229.92ZM226.788 285.062C228.048 285.062 228.93 285.89 228.93 286.79C228.93 287.51 228.3 287.6 227.4 287.6H223.908C224.304 285.872 225.654 285.062 226.788 285.062ZM238.825 284.63L238.105 285.35C238.105 285.35 237.475 284.63 236.215 284.63C234.775 284.63 233.605 285.476 233.605 286.79C233.605 289.508 238.465 288.752 238.465 291.074C238.465 292.28 237.385 292.73 236.575 292.73C236.035 292.73 235.045 292.568 234.469 291.38L233.695 289.76V293.27L234.325 292.208C234.343 292.262 234.901 293.27 236.575 293.27C238.015 293.27 239.275 292.406 239.275 290.786C239.275 287.816 234.325 288.5 234.325 286.52C234.325 285.8 235.027 285.17 236.215 285.17C237.475 285.17 238.015 285.98 238.015 285.98L238.825 287.438V284.63ZM242.601 285.35L244.941 284.63V292.19L246.381 293H242.601L244.041 292.19V285.8L242.601 285.35ZM243.411 281.93C243.411 282.434 243.807 282.83 244.311 282.83C244.815 282.83 245.211 282.434 245.211 281.93C245.211 281.426 244.815 281.03 244.311 281.03C243.807 281.03 243.411 281.426 243.411 281.93ZM249.898 287.51C249.898 288.698 250.528 289.724 251.662 290.156C250.888 290.3 249.988 290.696 249.988 291.74C249.988 292.352 250.456 292.82 250.942 292.964C250.33 293.072 249.178 293.36 249.178 294.62C249.178 295.7 250.168 297.05 252.958 297.05C255.838 297.05 257.368 295.25 257.368 293.9C257.368 292.55 256.468 292.1 255.568 292.1H251.518C251.248 292.1 250.798 292.01 250.798 291.47C250.798 290.534 252.31 290.39 252.958 290.39C254.848 290.39 256.018 289.094 256.018 287.51C256.018 286.178 255.208 285.44 255.208 285.44C255.208 285.44 255.838 285.62 256.288 285.62C257.008 285.62 257.278 285.206 257.278 284.72C257.278 284.36 257.026 284 256.522 284C256.09 284 255.838 284.324 255.838 284.702C255.838 284.936 256.018 285.17 255.568 285.17C254.848 285.17 254.218 284.63 252.958 284.63C251.068 284.63 249.898 285.926 249.898 287.51ZM255.568 293C256.198 293 256.738 293.27 256.738 293.99C256.738 294.8 255.748 296.24 253.138 296.24C250.888 296.24 250.078 295.25 250.078 294.35C250.078 293.108 251.824 293.018 251.86 293H255.568ZM250.888 287.51C250.888 285.98 251.824 285.08 252.958 285.08C254.092 285.08 255.028 285.98 255.028 287.51C255.028 289.04 254.092 289.94 252.958 289.94C251.824 289.94 250.888 289.04 250.888 287.51ZM261.774 285.8V292.19L260.334 293H264.114L262.674 292.19V286.844C263.214 286.178 264.294 285.314 265.374 285.314C266.544 285.314 267.084 286.16 267.084 287.6V292.19L265.644 293H269.424L267.984 292.19V287.33C267.984 285.35 266.994 284.63 265.734 284.63C264.474 284.63 263.304 285.62 262.674 286.304V284.63L260.334 285.35L261.774 285.8ZM277.964 288.68H291.824V288.05H277.964V288.68ZM305.312 293C308.462 293 311.522 291.38 311.522 287.15C311.522 282.92 308.462 281.3 305.312 281.3H300.722L302.522 282.29V292.01L300.722 293H305.312ZM303.422 282.29L304.052 281.93H305.312C307.472 281.93 310.532 283.01 310.532 287.15C310.532 291.29 307.472 292.37 305.312 292.37H304.052L303.422 292.01V282.29ZM324.48 281.03L323.49 282.02C323.49 282.02 322.32 281.03 320.25 281.03C316.938 281.03 314.58 283.37 314.58 287.24C314.58 290.75 316.92 293.27 320.25 293.27C324.012 293.27 324.75 290.3 324.75 290.3C324.75 290.3 323.58 292.64 320.61 292.64C317.91 292.64 315.57 290.75 315.57 286.88C315.57 283.46 317.82 281.57 320.25 281.57C322.23 281.57 323.31 282.74 323.31 282.74L324.48 285.44V281.03ZM346.695 281.3H342.555L344.175 282.2L340.395 291.29L336.633 282.2L338.163 281.3H333.933L335.733 282.38L340.251 293.27L344.805 282.29L346.695 281.3ZM351.825 282.29L353.625 281.3H349.125L350.925 282.29V292.01L349.125 293H353.625L351.825 292.01V282.29ZM357.14 292.19C357.14 292.694 357.536 293.09 358.04 293.09H358.13L357.23 295.16C358.85 293.18 358.94 292.82 358.94 292.19C358.94 291.686 358.544 291.29 358.04 291.29C357.536 291.29 357.14 291.686 357.14 292.19ZM375.761 290.84L375.041 292.1H370.613L372.755 290.282C374.573 288.734 375.401 288.23 375.401 286.97C375.401 286.16 374.771 284.63 372.251 284.63C370.001 284.63 369.101 285.98 369.101 287.06C369.101 287.78 369.551 288.104 369.965 288.104C370.343 288.104 370.613 287.816 370.613 287.492C370.613 286.862 370.001 286.97 370.001 286.52C370.001 285.71 370.901 285.08 372.251 285.08C373.601 285.08 374.501 285.89 374.501 286.97C374.501 288.05 373.781 288.716 372.233 290.03L368.741 293H375.761V290.84ZM379.846 288.464C379.846 286.754 381.07 285.206 382.924 285.206C384.796 285.206 386.794 286.7 386.794 289.436C386.794 291.128 385.552 292.694 383.698 292.694C381.826 292.694 379.846 291.2 379.846 288.464ZM379 288.95C379 291.326 380.764 293.27 383.32 293.27C385.876 293.27 387.64 291.326 387.64 288.95C387.64 286.574 385.876 284.63 383.32 284.63C380.764 284.63 379 286.574 379 288.95ZM392.497 285.98V292.19L390.517 293H395.377L393.397 292.19V284.63L390.877 285.98H392.497ZM398.265 297.77C398.463 297.734 406.185 296.51 406.185 289.49C406.185 286.61 404.475 284.63 401.865 284.63C399.975 284.63 398.175 286.25 398.175 288.5C398.175 291.02 400.065 292.28 401.865 292.28C403.701 292.28 404.673 291.146 405.159 290.264C404.673 296.276 398.589 297.698 398.265 297.77ZM402.225 291.74C400.335 291.74 399.075 290.12 399.075 288.05C399.075 286.16 400.335 285.17 401.775 285.17C403.035 285.17 405.177 286.16 405.195 289.472C404.871 290.318 404.061 291.74 402.225 291.74ZM409.328 296.78L416.438 280.4H415.718L408.608 296.78H409.328ZM426.421 290.84L425.701 292.1H421.273L423.415 290.282C425.233 288.734 426.061 288.23 426.061 286.97C426.061 286.16 425.431 284.63 422.911 284.63C420.661 284.63 419.761 285.98 419.761 287.06C419.761 287.78 420.211 288.104 420.625 288.104C421.003 288.104 421.273 287.816 421.273 287.492C421.273 286.862 420.661 286.97 420.661 286.52C420.661 285.71 421.561 285.08 422.911 285.08C424.261 285.08 425.161 285.89 425.161 286.97C425.161 288.05 424.441 288.716 422.893 290.03L419.401 293H426.421V290.84ZM430.507 288.464C430.507 286.754 431.731 285.206 433.585 285.206C435.457 285.206 437.455 286.7 437.455 289.436C437.455 291.128 436.213 292.694 434.359 292.694C432.487 292.694 430.507 291.2 430.507 288.464ZM429.661 288.95C429.661 291.326 431.425 293.27 433.981 293.27C436.537 293.27 438.301 291.326 438.301 288.95C438.301 286.574 436.537 284.63 433.981 284.63C431.425 284.63 429.661 286.574 429.661 288.95ZM448.197 290.84L447.477 292.1H443.049L445.191 290.282C447.009 288.734 447.837 288.23 447.837 286.97C447.837 286.16 447.207 284.63 444.687 284.63C442.437 284.63 441.537 285.98 441.537 287.06C441.537 287.78 441.987 288.104 442.401 288.104C442.779 288.104 443.049 287.816 443.049 287.492C443.049 286.862 442.437 286.97 442.437 286.52C442.437 285.71 443.337 285.08 444.687 285.08C446.037 285.08 446.937 285.89 446.937 286.97C446.937 288.05 446.217 288.716 444.669 290.03L441.177 293H448.197V290.84ZM452.282 288.464C452.282 286.754 453.506 285.206 455.36 285.206C457.232 285.206 459.23 286.7 459.23 289.436C459.23 291.128 457.988 292.694 456.134 292.694C454.262 292.694 452.282 291.2 452.282 288.464ZM451.436 288.95C451.436 291.326 453.2 293.27 455.756 293.27C458.312 293.27 460.076 291.326 460.076 288.95C460.076 286.574 458.312 284.63 455.756 284.63C453.2 284.63 451.436 286.574 451.436 288.95ZM131.622 315.24H134.052L135.132 316.95V312.9L134.052 314.61H131.622V310.29L132.252 309.93H136.572L137.832 312.54V309.3H128.922L130.722 310.29V320.01L128.922 321H133.602L131.622 320.01V315.24ZM142.222 316.662C140.998 317.094 139.9 317.94 139.9 319.2C139.9 320.478 140.71 321.27 141.952 321.27C142.672 321.27 143.284 320.91 143.698 320.64L145.03 319.758C145.03 320.712 145.03 321.27 145.66 321.27C146.29 321.27 147.55 319.74 147.55 319.74L145.93 320.37V315.24C145.93 313.71 145.282 312.63 143.32 312.63C142.24 312.63 140.206 313.62 140.206 314.736C140.206 315.258 140.512 315.492 140.854 315.492C141.196 315.492 141.502 315.294 141.502 314.736C141.502 314.484 141.466 314.304 141.466 314.16C141.466 313.71 142.042 313.17 143.14 313.17C144.13 313.17 145.03 313.638 145.03 315.24V315.69L142.222 316.662ZM143.914 319.92C143.392 320.262 142.942 320.604 142.24 320.604C141.34 320.604 140.854 319.884 140.854 319.11C140.854 318.12 141.304 317.508 142.87 316.95L145.03 316.194V319.182L143.914 319.92ZM153.953 313.062C155.483 313.062 155.645 313.98 155.645 314.16C155.645 314.448 155.483 314.502 155.483 314.898C155.483 315.294 155.735 315.564 156.167 315.564C156.617 315.564 156.851 315.204 156.851 314.736C156.851 313.746 155.789 312.63 153.989 312.63C151.847 312.63 150.065 314.34 150.065 316.95C150.065 319.38 151.505 321.27 153.845 321.27C156.545 321.27 157.085 318.66 157.085 318.66C157.085 318.66 156.275 320.46 154.295 320.46C152.495 320.46 150.965 319.344 150.965 316.662C150.965 314.196 152.693 313.062 153.953 313.062ZM166.444 313.8V319.056C165.904 319.722 164.824 320.586 163.744 320.586C162.574 320.586 162.034 319.74 162.034 318.3V312.63L159.694 313.35L161.134 313.8V318.57C161.134 320.55 162.124 321.27 163.384 321.27C164.644 321.27 165.814 320.28 166.444 319.596V321.27L168.784 320.55L167.344 320.1V312.63L165.004 313.35L166.444 313.8ZM172.927 309.3V320.19L171.487 321H175.267L173.827 320.19V308.13L171.487 308.85L172.927 309.3ZM177.868 313.44H179.578V319.38C179.578 320.73 180.118 321.27 181.018 321.27C182.008 321.27 182.512 320.064 182.548 319.938C182.53 319.974 182.098 320.64 181.378 320.64C180.748 320.64 180.478 320.1 180.478 319.38V313.44H182.548V312.9H180.478V311.01L177.868 313.44ZM194.938 312.9H191.338L192.778 313.62L190.492 319.344L187.756 313.62L189.196 312.9H185.164L186.784 313.71L190.042 320.46L189.052 322.98C188.836 323.502 188.602 323.952 188.368 323.952C188.044 323.952 188.062 323.394 187.45 323.394C187.072 323.394 186.73 323.7 186.73 324.168C186.73 324.69 187.126 325.05 187.72 325.05C188.386 325.05 189.016 324.546 189.592 323.088L193.318 313.71L194.938 312.9ZM207.443 313.116C208.937 313.116 210.557 314.43 210.557 317.418C210.557 319.542 209.279 320.784 207.947 320.784C206.471 320.784 204.833 319.47 204.833 316.482C204.833 314.322 206.129 313.116 207.443 313.116ZM203.843 316.95C203.843 319.38 205.193 321.27 207.695 321.27C210.017 321.27 211.547 319.38 211.547 316.95C211.547 314.52 210.197 312.63 207.695 312.63C205.373 312.63 203.843 314.52 203.843 316.95ZM214.338 313.44H216.048V320.19L214.608 321H218.568L216.948 320.19V313.44H219.018V312.9H216.948V312.18C216.948 309.66 217.452 308.76 218.172 308.76C218.802 308.76 218.694 309.75 219.504 309.75C219.864 309.75 220.188 309.498 220.188 309.048C220.188 308.4 219.432 308.13 218.892 308.13C217.092 308.13 216.048 309.75 216.048 312.9H214.338V313.44ZM231.437 315.24H233.867L234.947 316.95V312.9L233.867 314.61H231.437V310.29L232.067 309.93H236.387L237.647 312.54V309.3H228.737L230.537 310.29V320.01L228.737 321H233.417L231.437 320.01V315.24ZM241.067 313.35L243.407 312.63V320.19L244.847 321H241.067L242.507 320.19V313.8L241.067 313.35ZM241.877 309.93C241.877 310.434 242.273 310.83 242.777 310.83C243.281 310.83 243.677 310.434 243.677 309.93C243.677 309.426 243.281 309.03 242.777 309.03C242.273 309.03 241.877 309.426 241.877 309.93ZM249.264 313.8V320.19L247.824 321H251.604L250.164 320.19V314.844C250.704 314.178 251.784 313.314 252.864 313.314C254.034 313.314 254.574 314.16 254.574 315.6V320.19L253.134 321H256.914L255.474 320.19V315.33C255.474 313.35 254.484 312.63 253.224 312.63C251.964 312.63 250.794 313.62 250.164 314.304V312.63L247.824 313.35L249.264 313.8ZM266.628 316.14C266.628 314.16 265.818 312.63 263.532 312.63C261.39 312.63 259.608 314.322 259.608 316.95C259.608 319.38 261.048 321.27 263.388 321.27C266.088 321.27 266.628 318.66 266.628 318.66C266.628 318.66 265.818 320.46 263.838 320.46C262.038 320.46 260.508 319.344 260.508 316.662C260.508 316.482 260.508 316.32 260.526 316.14H266.628ZM263.496 313.062C264.756 313.062 265.638 313.89 265.638 314.79C265.638 315.51 265.008 315.6 264.108 315.6H260.616C261.012 313.872 262.362 313.062 263.496 313.062ZM285.573 320.1L284.043 321H288.309L286.509 320.01L281.775 309.3H279.597L281.523 310.974L277.599 320.01L275.709 321H279.867L278.247 320.1L279.453 317.31H284.331L285.573 320.1ZM281.865 311.766L284.061 316.68H279.723L281.865 311.766ZM292.182 313.8V320.19L290.742 321H294.522L293.082 320.19V315.06C293.892 314.16 294.576 313.602 294.936 313.602C295.53 313.602 295.44 314.16 296.07 314.16C296.502 314.16 296.772 313.854 296.772 313.476C296.772 312.936 296.412 312.63 295.782 312.63C295.278 312.63 294.846 312.828 294.288 313.368L293.082 314.52V312.63L290.742 313.35L292.182 313.8ZM299.477 313.44H301.187V319.38C301.187 320.73 301.727 321.27 302.627 321.27C303.617 321.27 304.121 320.064 304.157 319.938C304.139 319.974 303.707 320.64 302.987 320.64C302.357 320.64 302.087 320.1 302.087 319.38V313.44H304.157V312.9H302.087V311.01L299.477 313.44ZM313.073 312.63L312.353 313.35C312.353 313.35 311.723 312.63 310.463 312.63C309.023 312.63 307.853 313.476 307.853 314.79C307.853 317.508 312.713 316.752 312.713 319.074C312.713 320.28 311.633 320.73 310.823 320.73C310.283 320.73 309.293 320.568 308.717 319.38L307.943 317.76V321.27L308.573 320.208C308.591 320.262 309.149 321.27 310.823 321.27C312.263 321.27 313.523 320.406 313.523 318.786C313.523 315.816 308.573 316.5 308.573 314.52C308.573 313.8 309.275 313.17 310.463 313.17C311.723 313.17 312.263 313.98 312.263 313.98L313.073 315.438V312.63ZM317.3 320.19C317.3 320.694 317.696 321.09 318.2 321.09H318.29L317.39 323.16C319.01 321.18 319.1 320.82 319.1 320.19C319.1 319.686 318.704 319.29 318.2 319.29C317.696 319.29 317.3 319.686 317.3 320.19ZM333.76 309.3H329.08L330.88 310.29V320.01L329.08 321H338.26V317.58L336.91 320.37H332.41L331.78 320.01V310.29L333.76 309.3ZM341.673 313.35L344.013 312.63V320.19L345.453 321H341.673L343.113 320.19V313.8L341.673 313.35ZM342.483 309.93C342.483 310.434 342.879 310.83 343.383 310.83C343.887 310.83 344.283 310.434 344.283 309.93C344.283 309.426 343.887 309.03 343.383 309.03C342.879 309.03 342.483 309.426 342.483 309.93ZM354.1 312.63L353.38 313.35C353.38 313.35 352.75 312.63 351.49 312.63C350.05 312.63 348.88 313.476 348.88 314.79C348.88 317.508 353.74 316.752 353.74 319.074C353.74 320.28 352.66 320.73 351.85 320.73C351.31 320.73 350.32 320.568 349.744 319.38L348.97 317.76V321.27L349.6 320.208C349.618 320.262 350.176 321.27 351.85 321.27C353.29 321.27 354.55 320.406 354.55 318.786C354.55 315.816 349.6 316.5 349.6 314.52C349.6 313.8 350.302 313.17 351.49 313.17C352.75 313.17 353.29 313.98 353.29 313.98L354.1 315.438V312.63ZM358.507 321.27L359.227 319.65C359.227 319.65 359.947 321.27 361.927 321.27C363.547 321.27 365.437 320.01 365.437 316.95C365.437 313.62 363.727 312.63 362.107 312.63C360.217 312.63 359.407 314.34 359.407 314.34V308.13L357.067 308.85L358.507 309.3V321.27ZM359.407 315.24C359.407 315.24 360.037 313.17 361.837 313.17C363.205 313.17 364.447 314.25 364.447 316.95C364.447 319.47 363.205 320.73 361.837 320.73C360.307 320.73 359.407 319.56 359.407 318.21V315.24ZM372.189 313.116C373.683 313.116 375.303 314.43 375.303 317.418C375.303 319.542 374.025 320.784 372.693 320.784C371.217 320.784 369.579 319.47 369.579 316.482C369.579 314.322 370.875 313.116 372.189 313.116ZM368.589 316.95C368.589 319.38 369.939 321.27 372.441 321.27C374.763 321.27 376.293 319.38 376.293 316.95C376.293 314.52 374.943 312.63 372.441 312.63C370.119 312.63 368.589 314.52 368.589 316.95ZM380.794 313.8V320.19L379.354 321H383.134L381.694 320.19V314.844C382.234 314.178 383.314 313.314 384.394 313.314C385.564 313.314 386.104 314.16 386.104 315.6V320.19L384.664 321H388.444L387.004 320.19V315.33C387.004 313.35 386.014 312.63 384.754 312.63C383.494 312.63 382.324 313.62 381.694 314.304V312.63L379.354 313.35L380.794 313.8Z" fill="white"/>
</svg>
