<svg width="25" height="13" viewBox="0 0 25 13" fill="none" xmlns="http://www.w3.org/2000/svg">
<path d="M3.22047 2.64V10.92L0.580469 12H7.06047L4.42047 10.92V0.839999L1.06047 2.64H3.22047ZM9.51878 5.952C9.51878 3.672 11.1508 1.608 13.6228 1.608C16.1188 1.608 18.7828 3.6 18.7828 7.248C18.7828 9.504 17.1268 11.592 14.6548 11.592C12.1588 11.592 9.51878 9.6 9.51878 5.952ZM8.39078 6.6C8.39078 9.768 10.7428 12.36 14.1508 12.36C17.5588 12.36 19.9108 9.768 19.9108 6.6C19.9108 3.432 17.5588 0.839999 14.1508 0.839999C10.7428 0.839999 8.39078 3.432 8.39078 6.6ZM22.1861 10.92C22.1861 11.592 22.7141 12.12 23.3861 12.12C24.0581 12.12 24.5861 11.592 24.5861 10.92C24.5861 10.248 24.0581 9.72 23.3861 9.72C22.7141 9.72 22.1861 10.248 22.1861 10.92Z" fill="white"/>
</svg>
