<svg width="15" height="13" viewBox="0 0 15 13" fill="none" xmlns="http://www.w3.org/2000/svg">
<path d="M9.80375 9.12L8.84375 10.8H2.93975L5.79575 8.376C8.21975 6.312 9.32375 5.64 9.32375 3.96C9.32375 2.88 8.48375 0.839999 5.12375 0.839999C2.12375 0.839999 0.92375 2.64 0.92375 4.08C0.92375 5.04 1.52375 5.472 2.07575 5.472C2.57975 5.472 2.93975 5.088 2.93975 4.656C2.93975 3.816 2.12375 3.96 2.12375 3.36C2.12375 2.28 3.32375 1.44 5.12375 1.44C6.92375 1.44 8.12375 2.52 8.12375 3.96C8.12375 5.4 7.16375 6.288 5.09975 8.04L0.44375 12H9.80375V9.12ZM12.3228 10.92C12.3228 11.592 12.8508 12.12 13.5228 12.12C14.1948 12.12 14.7228 11.592 14.7228 10.92C14.7228 10.248 14.1948 9.72 13.5228 9.72C12.8508 9.72 12.3228 10.248 12.3228 10.92Z" fill="white"/>
</svg>
