<svg width="61" height="20" viewBox="0 0 61 20" fill="none" xmlns="http://www.w3.org/2000/svg">
<path d="M7.55141 16C11.7514 16 15.8314 13.84 15.8314 8.2C15.8314 2.56 11.7514 0.399999 7.55141 0.399999H1.43141L3.83141 1.72V14.68L1.43141 16H7.55141ZM5.03141 1.72L5.87141 1.24H7.55141C10.4314 1.24 14.5114 2.68 14.5114 8.2C14.5114 13.72 10.4314 15.16 7.55141 15.16H5.87141L5.03141 14.68V1.72ZM24.7095 5.488C26.7015 5.488 28.8615 7.24 28.8615 11.224C28.8615 14.056 27.1575 15.712 25.3815 15.712C23.4135 15.712 21.2295 13.96 21.2295 9.976C21.2295 7.096 22.9575 5.488 24.7095 5.488ZM19.9095 10.6C19.9095 13.84 21.7095 16.36 25.0455 16.36C28.1415 16.36 30.1815 13.84 30.1815 10.6C30.1815 7.36 28.3815 4.84 25.0455 4.84C21.9495 4.84 19.9095 7.36 19.9095 10.6ZM36.1827 6.4V14.92L34.2627 16H39.3027L37.3827 14.92V7.792C38.1027 6.904 39.5427 5.752 40.9827 5.752C42.5427 5.752 43.2627 6.88 43.2627 8.8V14.92L41.3427 16H46.3827L44.4627 14.92V8.44C44.4627 5.8 43.1427 4.84 41.4627 4.84C39.7827 4.84 38.2227 6.16 37.3827 7.072V4.84L34.2627 5.8L36.1827 6.4ZM59.3352 9.52C59.3352 6.88 58.2552 4.84 55.2072 4.84C52.3512 4.84 49.9752 7.096 49.9752 10.6C49.9752 13.84 51.8952 16.36 55.0152 16.36C58.6152 16.36 59.3352 12.88 59.3352 12.88C59.3352 12.88 58.2552 15.28 55.6152 15.28C53.2152 15.28 51.1752 13.792 51.1752 10.216C51.1752 9.976 51.1752 9.76 51.1992 9.52H59.3352ZM55.1592 5.416C56.8392 5.416 58.0152 6.52 58.0152 7.72C58.0152 8.68 57.1752 8.8 55.9752 8.8H51.3192C51.8472 6.496 53.6472 5.416 55.1592 5.416Z" fill="#0025DC"/>
<path d="M0.591406 18.4H60.4152V19.6H0.591406V18.4Z" fill="#0025DC"/>
</svg>
