<svg width="23" height="13" viewBox="0 0 23 13" fill="none" xmlns="http://www.w3.org/2000/svg">
<path d="M3.29859 2.64V10.92L0.658594 12H7.13859L4.49859 10.92V0.839999L1.13859 2.64H3.29859ZM17.5889 9.12L16.6289 10.8H10.7249L13.5809 8.376C16.0049 6.312 17.1089 5.64 17.1089 3.96C17.1089 2.88 16.2689 0.839999 12.9089 0.839999C9.90891 0.839999 8.70891 2.64 8.70891 4.08C8.70891 5.04 9.30891 5.472 9.86091 5.472C10.3649 5.472 10.7249 5.088 10.7249 4.656C10.7249 3.816 9.90891 3.96 9.90891 3.36C9.90891 2.28 11.1089 1.44 12.9089 1.44C14.7089 1.44 15.9089 2.52 15.9089 3.96C15.9089 5.4 14.9489 6.288 12.8849 8.04L8.22891 12H17.5889V9.12ZM20.108 10.92C20.108 11.592 20.636 12.12 21.308 12.12C21.98 12.12 22.508 11.592 22.508 10.92C22.508 10.248 21.98 9.72 21.308 9.72C20.636 9.72 20.108 10.248 20.108 10.92Z" fill="white"/>
</svg>
