<svg width="16" height="19" viewBox="0 0 16 19" fill="none" xmlns="http://www.w3.org/2000/svg">
<path d="M0.1475 18.36C0.4115 18.312 10.7075 16.68 10.7075 7.32C10.7075 3.48 8.4275 0.839999 4.9475 0.839999C2.4275 0.839999 0.0275 3 0.0275 6C0.0275 9.36 2.5475 11.04 4.9475 11.04C7.3955 11.04 8.6915 9.528 9.3395 8.352C8.6915 16.368 0.5795 18.264 0.1475 18.36ZM5.4275 10.32C2.9075 10.32 1.2275 8.16 1.2275 5.4C1.2275 2.88 2.9075 1.56 4.8275 1.56C6.5075 1.56 9.3635 2.88 9.3875 7.296C8.9555 8.424 7.8755 10.32 5.4275 10.32ZM12.9791 10.92C12.9791 11.592 13.5071 12.12 14.1791 12.12C14.8511 12.12 15.3791 11.592 15.3791 10.92C15.3791 10.248 14.8511 9.72 14.1791 9.72C13.5071 9.72 12.9791 10.248 12.9791 10.92Z" fill="white"/>
</svg>
