<svg width="16" height="16" viewBox="0 0 16 16" fill="none" xmlns="http://www.w3.org/2000/svg">
<path d="M9.26188 3.36C9.26188 1.32 7.19788 0.24 5.18188 0.24C3.18988 0.24 1.10188 1.32 1.10188 3.36C1.10188 5.088 2.56588 6.048 4.24588 6.888C2.87788 7.416 0.261875 8.76 0.261875 11.4C0.261875 13.776 2.25388 15.36 5.34988 15.36C8.30188 15.36 10.4619 13.776 10.4619 11.28C10.4619 8.76 8.20588 7.632 6.04588 6.624C7.19788 6.24 9.26188 5.256 9.26188 3.36ZM9.26188 11.28C9.26188 13.56 7.41388 14.76 5.34988 14.76C3.28588 14.76 1.58188 13.56 1.58188 11.28C1.58188 9.072 3.69388 7.68 4.72588 7.128C6.90988 8.16 9.26188 9.096 9.26188 11.28ZM2.30188 3.36C2.30188 1.56 3.83788 0.839999 5.18188 0.839999C6.52588 0.839999 8.06188 1.56 8.06188 3.36C8.06188 5.136 6.38188 6.048 5.56588 6.408C3.81388 5.616 2.30188 4.824 2.30188 3.36ZM12.7447 13.92C12.7447 14.592 13.2727 15.12 13.9447 15.12C14.6167 15.12 15.1447 14.592 15.1447 13.92C15.1447 13.248 14.6167 12.72 13.9447 12.72C13.2727 12.72 12.7447 13.248 12.7447 13.92Z" fill="white"/>
</svg>
