<svg width="50" height="18" viewBox="0 0 50 18" fill="none" xmlns="http://www.w3.org/2000/svg">
<path d="M2.466 7.502C2.466 4.658 3.762 1.814 7.002 1.814C10.242 1.814 11.538 4.658 11.538 7.502C11.538 10.346 10.242 13.19 7.002 13.19C3.762 13.19 2.466 10.346 2.466 7.502ZM12.798 7.502C12.798 3.452 10.728 0.733999 7.002 0.733999C3.276 0.733999 1.206 3.452 1.206 7.502C1.206 11.552 3.276 14.27 7.002 14.27C10.728 14.27 12.798 11.552 12.798 7.502ZM18.1498 9.266C18.1498 7.43 18.9598 5.684 21.0658 5.684C23.1178 5.684 23.8198 7.592 23.8198 9.32C23.8198 10.994 23.2978 13.28 21.2278 13.28C18.8698 13.28 18.1498 11.318 18.1498 9.266ZM18.1498 12.596H18.1858C18.9238 13.676 20.0218 14.27 21.3358 14.27C23.9638 14.27 24.9898 11.714 24.9898 9.446C24.9898 7.106 23.9638 4.694 21.2818 4.694C20.0758 4.694 18.8158 5.27 18.1858 6.332L18.1498 6.296L18.0958 4.964H16.9798C17.0158 5.576 17.0878 6.296 17.0698 6.998V17.456H18.1498V12.596ZM36.6657 9.734C36.6657 6.908 35.5677 4.694 32.5437 4.694C29.8617 4.694 28.5117 7.034 28.5117 9.482C28.5117 11.948 29.7717 14.27 32.4717 14.27C34.6497 14.27 35.9997 13.28 36.5577 11.12H35.4237C35.1537 12.362 34.0917 13.28 32.8137 13.28C30.5997 13.28 29.7177 11.66 29.6817 9.734H36.6657ZM29.7177 8.744C29.8617 7.16 30.7977 5.684 32.5617 5.684C34.4337 5.684 35.3697 6.998 35.4957 8.744H29.7177ZM41.9337 8.798C41.9337 7.178 42.7437 5.684 44.5257 5.684C46.0017 5.684 46.9017 6.602 46.9017 8.168V14H47.9817V8.348C47.9817 7.304 47.7477 4.694 44.7957 4.694C43.6257 4.694 42.5997 5.216 41.9697 6.332L41.9337 6.296L41.8797 4.964H40.7637C40.7997 5.576 40.8537 6.296 40.8537 6.998V14H41.9337V8.798Z" fill="white"/>
<path d="M0 15.8H49.4217V16.7H0V15.8Z" fill="white"/>
</svg>
