<svg width="16" height="19" viewBox="0 0 16 19" fill="none" xmlns="http://www.w3.org/2000/svg">
<path d="M10.5635 0.839999C10.3235 0.887999 0.0275 2.52 0.0275 11.88C0.0275 15.72 2.3075 18.36 5.7875 18.36C8.3075 18.36 10.7075 16.2 10.7075 13.2C10.7075 9.84 8.1875 8.16 5.7875 8.16C3.3155 8.16 2.0195 9.696 1.3955 10.848C2.0435 2.832 10.1555 0.935999 10.5635 0.839999ZM5.3075 8.88C7.8275 8.88 9.5075 11.04 9.5075 13.8C9.5075 16.32 7.8275 17.64 5.9075 17.64C4.2275 17.64 1.3475 16.32 1.3475 11.904C1.7555 10.776 2.8355 8.88 5.3075 8.88ZM12.9791 16.92C12.9791 17.592 13.5071 18.12 14.1791 18.12C14.8511 18.12 15.3791 17.592 15.3791 16.92C15.3791 16.248 14.8511 15.72 14.1791 15.72C13.5071 15.72 12.9791 16.248 12.9791 16.92Z" fill="white"/>
</svg>
