<svg width="16" height="15" viewBox="0 0 16 15" fill="none" xmlns="http://www.w3.org/2000/svg">
<path d="M4.88328 5.6C6.92328 5.6 8.96328 6.92 8.96328 9.92C8.96328 13.4 6.68328 14.36 4.88328 14.36C3.20328 14.36 1.95528 13.568 1.95528 12.488C1.95528 12.248 2.17128 12.008 2.17128 11.6C2.17128 11.144 2.00328 10.616 1.33128 10.616C0.731281 10.616 0.443281 11.096 0.443281 11.72C0.443281 13.28 2.12328 14.96 4.88328 14.96C8.12328 14.96 10.2833 12.92 10.2833 9.92C10.2833 6.896 8.36328 5 5.38728 4.88L10.2833 0.2H0.563281V3.08L1.52328 1.4H8.00328L3.08328 6.08C3.17928 6.008 3.87528 5.6 4.88328 5.6ZM12.8033 9.92C12.8033 10.592 13.3313 11.12 14.0033 11.12C14.6753 11.12 15.2033 10.592 15.2033 9.92C15.2033 9.248 14.6753 8.72 14.0033 8.72C13.3313 8.72 12.8033 9.248 12.8033 9.92Z" fill="white"/>
</svg>
