<svg width="17" height="13" viewBox="0 0 17 13" fill="none" xmlns="http://www.w3.org/2000/svg">
<path d="M1.73363 5.952C1.73363 3.672 3.36563 1.608 5.83763 1.608C8.33363 1.608 10.9976 3.6 10.9976 7.248C10.9976 9.504 9.34163 11.592 6.86963 11.592C4.37363 11.592 1.73363 9.6 1.73363 5.952ZM0.605625 6.6C0.605625 9.768 2.95763 12.36 6.36563 12.36C9.77363 12.36 12.1256 9.768 12.1256 6.6C12.1256 3.432 9.77363 0.839999 6.36563 0.839999C2.95763 0.839999 0.605625 3.432 0.605625 6.6ZM14.4009 10.92C14.4009 11.592 14.9289 12.12 15.6009 12.12C16.2729 12.12 16.8009 11.592 16.8009 10.92C16.8009 10.248 16.2729 9.72 15.6009 9.72C14.9289 9.72 14.4009 10.248 14.4009 10.92Z" fill="white"/>
</svg>
