<svg width="385" height="81" viewBox="0 0 385 81" fill="none" xmlns="http://www.w3.org/2000/svg">
<path d="M4.2 3.3C4.2 2.908 3.892 2.6 3.5 2.6H3.43L4.13 0.99C2.87 2.53 2.8 2.81 2.8 3.3C2.8 3.692 3.108 4 3.5 4C3.892 4 4.2 3.692 4.2 3.3ZM2.24 3.3C2.24 2.908 1.932 2.6 1.54 2.6H1.47L2.17 0.99C0.91 2.53 0.84 2.81 0.84 3.3C0.84 3.692 1.148 4 1.54 4C1.932 4 2.24 3.692 2.24 3.3ZM15.3349 9.698L7.83092 1.9H6.86492L8.26492 3.356V10.23L6.86492 11H10.2949L8.75492 10.23V3.874L15.8249 11.21V2.67L17.2249 1.9H13.7949L15.3349 2.67V9.698ZM22.1271 4.868C23.2891 4.868 24.5491 5.89 24.5491 8.214C24.5491 9.866 23.5551 10.832 22.5191 10.832C21.3711 10.832 20.0971 9.81 20.0971 7.486C20.0971 5.806 21.1051 4.868 22.1271 4.868ZM19.3271 7.85C19.3271 9.74 20.3771 11.21 22.3231 11.21C24.1291 11.21 25.3191 9.74 25.3191 7.85C25.3191 5.96 24.2691 4.49 22.3231 4.49C20.5171 4.49 19.3271 5.96 19.3271 7.85ZM27.4198 5.12H28.7498V9.74C28.7498 10.79 29.1698 11.21 29.8698 11.21C30.6398 11.21 31.0318 10.272 31.0598 10.174C31.0458 10.202 30.7098 10.72 30.1498 10.72C29.6598 10.72 29.4498 10.3 29.4498 9.74V5.12H31.0598V4.7H29.4498V3.23L27.4198 5.12ZM39.1109 11.21L39.6709 9.95C39.6709 9.95 40.2309 11.21 41.7709 11.21C43.0309 11.21 44.5009 10.23 44.5009 7.85C44.5009 5.26 43.1709 4.49 41.9109 4.49C40.4409 4.49 39.8109 5.82 39.8109 5.82V0.99L37.9909 1.55L39.1109 1.9V11.21ZM39.8109 6.52C39.8109 6.52 40.3009 4.91 41.7009 4.91C42.7649 4.91 43.7309 5.75 43.7309 7.85C43.7309 9.81 42.7649 10.79 41.7009 10.79C40.5109 10.79 39.8109 9.88 39.8109 8.83V6.52ZM52.4125 7.22C52.4125 5.68 51.7825 4.49 50.0045 4.49C48.3385 4.49 46.9525 5.806 46.9525 7.85C46.9525 9.74 48.0725 11.21 49.8925 11.21C51.9925 11.21 52.4125 9.18 52.4125 9.18C52.4125 9.18 51.7825 10.58 50.2425 10.58C48.8425 10.58 47.6525 9.712 47.6525 7.626C47.6525 7.486 47.6525 7.36 47.6665 7.22H52.4125ZM49.9765 4.826C50.9565 4.826 51.6425 5.47 51.6425 6.17C51.6425 6.73 51.1525 6.8 50.4525 6.8H47.7365C48.0445 5.456 49.0945 4.826 49.9765 4.826ZM54.9287 5.05L56.7487 4.49V10.37L57.8687 11H54.9287L56.0487 10.37V5.4L54.9287 5.05ZM55.5587 2.39C55.5587 2.782 55.8667 3.09 56.2587 3.09C56.6507 3.09 56.9587 2.782 56.9587 2.39C56.9587 1.998 56.6507 1.69 56.2587 1.69C55.8667 1.69 55.5587 1.998 55.5587 2.39ZM61.3041 5.4V10.37L60.1841 11H63.1241L62.0041 10.37V6.212C62.4241 5.694 63.2641 5.022 64.1041 5.022C65.0141 5.022 65.4341 5.68 65.4341 6.8V10.37L64.3141 11H67.2541L66.1341 10.37V6.59C66.1341 5.05 65.3641 4.49 64.3841 4.49C63.4041 4.49 62.4941 5.26 62.0041 5.792V4.49L60.1841 5.05L61.3041 5.4ZM69.7698 6.73C69.7698 7.654 70.2598 8.452 71.1418 8.788C70.5398 8.9 69.8398 9.208 69.8398 10.02C69.8398 10.496 70.2038 10.86 70.5818 10.972C70.1058 11.056 69.2098 11.28 69.2098 12.26C69.2098 13.1 69.9798 14.15 72.1498 14.15C74.3898 14.15 75.5798 12.75 75.5798 11.7C75.5798 10.65 74.8798 10.3 74.1798 10.3H71.0298C70.8198 10.3 70.4698 10.23 70.4698 9.81C70.4698 9.082 71.6458 8.97 72.1498 8.97C73.6198 8.97 74.5298 7.962 74.5298 6.73C74.5298 5.694 73.8998 5.12 73.8998 5.12C73.8998 5.12 74.3898 5.26 74.7398 5.26C75.2998 5.26 75.5098 4.938 75.5098 4.56C75.5098 4.28 75.3138 4 74.9218 4C74.5858 4 74.3898 4.252 74.3898 4.546C74.3898 4.728 74.5298 4.91 74.1798 4.91C73.6198 4.91 73.1298 4.49 72.1498 4.49C70.6798 4.49 69.7698 5.498 69.7698 6.73ZM74.1798 11C74.6698 11 75.0898 11.21 75.0898 11.77C75.0898 12.4 74.3198 13.52 72.2898 13.52C70.5398 13.52 69.9098 12.75 69.9098 12.05C69.9098 11.084 71.2678 11.014 71.2958 11H74.1798ZM70.5398 6.73C70.5398 5.54 71.2678 4.84 72.1498 4.84C73.0318 4.84 73.7598 5.54 73.7598 6.73C73.7598 7.92 73.0318 8.62 72.1498 8.62C71.2678 8.62 70.5398 7.92 70.5398 6.73ZM85.9472 4.826C87.1372 4.826 87.2632 5.54 87.2632 5.68C87.2632 5.904 87.1372 5.946 87.1372 6.254C87.1372 6.562 87.3332 6.772 87.6692 6.772C88.0192 6.772 88.2012 6.492 88.2012 6.128C88.2012 5.358 87.3752 4.49 85.9752 4.49C84.3092 4.49 82.9232 5.82 82.9232 7.85C82.9232 9.74 84.0432 11.21 85.8632 11.21C87.9632 11.21 88.3832 9.18 88.3832 9.18C88.3832 9.18 87.7532 10.58 86.2132 10.58C84.8132 10.58 83.6232 9.712 83.6232 7.626C83.6232 5.708 84.9672 4.826 85.9472 4.826ZM93.5627 4.868C94.7247 4.868 95.9847 5.89 95.9847 8.214C95.9847 9.866 94.9907 10.832 93.9547 10.832C92.8067 10.832 91.5327 9.81 91.5327 7.486C91.5327 5.806 92.5407 4.868 93.5627 4.868ZM90.7627 7.85C90.7627 9.74 91.8127 11.21 93.7587 11.21C95.5647 11.21 96.7547 9.74 96.7547 7.85C96.7547 5.96 95.7047 4.49 93.7587 4.49C91.9527 4.49 90.7627 5.96 90.7627 7.85ZM101.935 4.868C103.097 4.868 104.357 5.89 104.357 8.214C104.357 9.866 103.363 10.832 102.327 10.832C101.179 10.832 99.9053 9.81 99.9053 7.486C99.9053 5.806 100.913 4.868 101.935 4.868ZM99.1353 7.85C99.1353 9.74 100.185 11.21 102.131 11.21C103.937 11.21 105.127 9.74 105.127 7.85C105.127 5.96 104.077 4.49 102.131 4.49C100.325 4.49 99.1353 5.96 99.1353 7.85ZM108.558 1.9V10.37L107.438 11H110.378L109.258 10.37V0.99L107.438 1.55L108.558 1.9ZM117.718 5.05L119.538 4.49V10.37L120.658 11H117.718L118.838 10.37V5.4L117.718 5.05ZM118.348 2.39C118.348 2.782 118.656 3.09 119.048 3.09C119.44 3.09 119.748 2.782 119.748 2.39C119.748 1.998 119.44 1.69 119.048 1.69C118.656 1.69 118.348 1.998 118.348 2.39ZM124.094 5.4V10.37L122.974 11H125.914L124.794 10.37V6.212C125.214 5.694 126.054 5.022 126.894 5.022C127.804 5.022 128.224 5.68 128.224 6.8V10.37L127.104 11H130.044L128.924 10.37V6.59C128.924 5.05 128.154 4.49 127.174 4.49C126.194 4.49 125.284 5.26 124.794 5.792V4.49L122.974 5.05L124.094 5.4ZM139.052 7.626C138.1 7.962 137.246 8.62 137.246 9.6C137.246 10.594 137.876 11.21 138.842 11.21C139.402 11.21 139.878 10.93 140.2 10.72L141.236 10.034C141.236 10.776 141.236 11.21 141.726 11.21C142.216 11.21 143.196 10.02 143.196 10.02L141.936 10.51V6.52C141.936 5.33 141.432 4.49 139.906 4.49C139.066 4.49 137.484 5.26 137.484 6.128C137.484 6.534 137.722 6.716 137.988 6.716C138.254 6.716 138.492 6.562 138.492 6.128C138.492 5.932 138.464 5.792 138.464 5.68C138.464 5.33 138.912 4.91 139.766 4.91C140.536 4.91 141.236 5.274 141.236 6.52V6.87L139.052 7.626ZM140.368 10.16C139.962 10.426 139.612 10.692 139.066 10.692C138.366 10.692 137.988 10.132 137.988 9.53C137.988 8.76 138.338 8.284 139.556 7.85L141.236 7.262V9.586L140.368 10.16ZM153.213 4.826C154.403 4.826 154.529 5.54 154.529 5.68C154.529 5.904 154.403 5.946 154.403 6.254C154.403 6.562 154.599 6.772 154.935 6.772C155.285 6.772 155.467 6.492 155.467 6.128C155.467 5.358 154.641 4.49 153.241 4.49C151.575 4.49 150.189 5.82 150.189 7.85C150.189 9.74 151.309 11.21 153.129 11.21C155.229 11.21 155.649 9.18 155.649 9.18C155.649 9.18 155.019 10.58 153.479 10.58C152.079 10.58 150.889 9.712 150.889 7.626C150.889 5.708 152.233 4.826 153.213 4.826ZM163.488 7.22C163.488 5.68 162.858 4.49 161.08 4.49C159.414 4.49 158.028 5.806 158.028 7.85C158.028 9.74 159.148 11.21 160.968 11.21C163.068 11.21 163.488 9.18 163.488 9.18C163.488 9.18 162.858 10.58 161.318 10.58C159.918 10.58 158.728 9.712 158.728 7.626C158.728 7.486 158.728 7.36 158.742 7.22H163.488ZM161.052 4.826C162.032 4.826 162.718 5.47 162.718 6.17C162.718 6.73 162.228 6.8 161.528 6.8H158.812C159.12 5.456 160.17 4.826 161.052 4.826ZM167.124 5.4V10.37L166.004 11H168.944L167.824 10.37V6.38C168.454 5.68 168.986 5.246 169.266 5.246C169.728 5.246 169.658 5.68 170.148 5.68C170.484 5.68 170.694 5.442 170.694 5.148C170.694 4.728 170.414 4.49 169.924 4.49C169.532 4.49 169.196 4.644 168.762 5.064L167.824 5.96V4.49L166.004 5.05L167.124 5.4ZM172.798 5.12H174.128V9.74C174.128 10.79 174.548 11.21 175.248 11.21C176.018 11.21 176.41 10.272 176.438 10.174C176.424 10.202 176.088 10.72 175.528 10.72C175.038 10.72 174.828 10.3 174.828 9.74V5.12H176.438V4.7H174.828V3.23L172.798 5.12ZM180.839 7.626C179.887 7.962 179.033 8.62 179.033 9.6C179.033 10.594 179.663 11.21 180.629 11.21C181.189 11.21 181.665 10.93 181.987 10.72L183.023 10.034C183.023 10.776 183.023 11.21 183.513 11.21C184.003 11.21 184.983 10.02 184.983 10.02L183.723 10.51V6.52C183.723 5.33 183.219 4.49 181.693 4.49C180.853 4.49 179.271 5.26 179.271 6.128C179.271 6.534 179.509 6.716 179.775 6.716C180.041 6.716 180.279 6.562 180.279 6.128C180.279 5.932 180.251 5.792 180.251 5.68C180.251 5.33 180.699 4.91 181.553 4.91C182.323 4.91 183.023 5.274 183.023 6.52V6.87L180.839 7.626ZM182.155 10.16C181.749 10.426 181.399 10.692 180.853 10.692C180.153 10.692 179.775 10.132 179.775 9.53C179.775 8.76 180.125 8.284 181.343 7.85L183.023 7.262V9.586L182.155 10.16ZM186.939 5.05L188.759 4.49V10.37L189.879 11H186.939L188.059 10.37V5.4L186.939 5.05ZM187.569 2.39C187.569 2.782 187.877 3.09 188.269 3.09C188.661 3.09 188.969 2.782 188.969 2.39C188.969 1.998 188.661 1.69 188.269 1.69C187.877 1.69 187.569 1.998 187.569 2.39ZM193.314 5.4V10.37L192.194 11H195.134L194.014 10.37V6.212C194.434 5.694 195.274 5.022 196.114 5.022C197.024 5.022 197.444 5.68 197.444 6.8V10.37L196.324 11H199.264L198.144 10.37V6.59C198.144 5.05 197.374 4.49 196.394 4.49C195.414 4.49 194.504 5.26 194.014 5.792V4.49L192.194 5.05L193.314 5.4ZM216.127 4.7H213.341L214.461 5.26L213.075 9.502L211.185 4.49L209.253 9.53L207.881 5.26L209.001 4.7H205.907L207.167 5.33L209.057 11.21L211.031 6.072L212.977 11.21L214.867 5.33L216.127 4.7ZM219.899 7.626C218.947 7.962 218.093 8.62 218.093 9.6C218.093 10.594 218.723 11.21 219.689 11.21C220.249 11.21 220.725 10.93 221.047 10.72L222.083 10.034C222.083 10.776 222.083 11.21 222.573 11.21C223.063 11.21 224.043 10.02 224.043 10.02L222.783 10.51V6.52C222.783 5.33 222.279 4.49 220.753 4.49C219.913 4.49 218.331 5.26 218.331 6.128C218.331 6.534 218.569 6.716 218.835 6.716C219.101 6.716 219.339 6.562 219.339 6.128C219.339 5.932 219.311 5.792 219.311 5.68C219.311 5.33 219.759 4.91 220.613 4.91C221.383 4.91 222.083 5.274 222.083 6.52V6.87L219.899 7.626ZM221.215 10.16C220.809 10.426 220.459 10.692 219.913 10.692C219.213 10.692 218.835 10.132 218.835 9.53C218.835 8.76 219.185 8.284 220.403 7.85L222.083 7.262V9.586L221.215 10.16ZM232.838 4.7H230.038L231.158 5.26L229.38 9.712L227.252 5.26L228.372 4.7H225.236L226.496 5.33L229.03 10.58L228.26 12.54C228.092 12.946 227.91 13.296 227.728 13.296C227.476 13.296 227.49 12.862 227.014 12.862C226.72 12.862 226.454 13.1 226.454 13.464C226.454 13.87 226.762 14.15 227.224 14.15C227.742 14.15 228.232 13.758 228.68 12.624L231.578 5.33L232.838 4.7ZM245.714 6.212C246.134 5.694 246.974 5.022 247.814 5.022C248.724 5.022 249.144 5.68 249.144 6.8V10.37L248.024 11H250.964L249.844 10.37V6.59C249.844 5.05 249.074 4.49 248.094 4.49C247.114 4.49 246.204 5.26 245.644 5.876C245.42 4.868 244.748 4.49 243.964 4.49C242.984 4.49 242.074 5.26 241.584 5.792V4.49L239.764 5.05L240.884 5.4V10.37L239.764 11H242.704L241.584 10.37V6.212C242.004 5.694 242.844 5.022 243.684 5.022C244.594 5.022 245.014 5.68 245.014 6.8V10.37L243.894 11H246.834L245.714 10.37V6.212ZM258.519 7.22C258.519 5.68 257.889 4.49 256.111 4.49C254.445 4.49 253.059 5.806 253.059 7.85C253.059 9.74 254.179 11.21 255.999 11.21C258.099 11.21 258.519 9.18 258.519 9.18C258.519 9.18 257.889 10.58 256.349 10.58C254.949 10.58 253.759 9.712 253.759 7.626C253.759 7.486 253.759 7.36 253.773 7.22H258.519ZM256.083 4.826C257.063 4.826 257.749 5.47 257.749 6.17C257.749 6.73 257.259 6.8 256.559 6.8H253.843C254.151 5.456 255.201 4.826 256.083 4.826ZM262.911 7.626C261.959 7.962 261.105 8.62 261.105 9.6C261.105 10.594 261.735 11.21 262.701 11.21C263.261 11.21 263.737 10.93 264.059 10.72L265.095 10.034C265.095 10.776 265.095 11.21 265.585 11.21C266.075 11.21 267.055 10.02 267.055 10.02L265.795 10.51V6.52C265.795 5.33 265.291 4.49 263.765 4.49C262.925 4.49 261.343 5.26 261.343 6.128C261.343 6.534 261.581 6.716 261.847 6.716C262.113 6.716 262.351 6.562 262.351 6.128C262.351 5.932 262.323 5.792 262.323 5.68C262.323 5.33 262.771 4.91 263.625 4.91C264.395 4.91 265.095 5.274 265.095 6.52V6.87L262.911 7.626ZM264.227 10.16C263.821 10.426 263.471 10.692 262.925 10.692C262.225 10.692 261.847 10.132 261.847 9.53C261.847 8.76 262.197 8.284 263.415 7.85L265.095 7.262V9.586L264.227 10.16ZM270.131 5.4V10.37L269.011 11H271.951L270.831 10.37V6.212C271.251 5.694 272.091 5.022 272.931 5.022C273.841 5.022 274.261 5.68 274.261 6.8V10.37L273.141 11H276.081L274.961 10.37V6.59C274.961 5.05 274.191 4.49 273.211 4.49C272.231 4.49 271.321 5.26 270.831 5.792V4.49L269.011 5.05L270.131 5.4ZM277.897 5.12H279.227V9.74C279.227 10.79 279.647 11.21 280.347 11.21C281.117 11.21 281.509 10.272 281.537 10.174C281.523 10.202 281.187 10.72 280.627 10.72C280.137 10.72 279.927 10.3 279.927 9.74V5.12H281.537V4.7H279.927V3.23L277.897 5.12ZM290.218 5.4V10.37L289.098 11H292.038L290.918 10.37V6.38C291.548 5.68 292.08 5.246 292.36 5.246C292.822 5.246 292.752 5.68 293.242 5.68C293.578 5.68 293.788 5.442 293.788 5.148C293.788 4.728 293.508 4.49 293.018 4.49C292.626 4.49 292.29 4.644 291.856 5.064L290.918 5.96V4.49L289.098 5.05L290.218 5.4ZM301.632 7.22C301.632 5.68 301.002 4.49 299.224 4.49C297.558 4.49 296.172 5.806 296.172 7.85C296.172 9.74 297.292 11.21 299.112 11.21C301.212 11.21 301.632 9.18 301.632 9.18C301.632 9.18 301.002 10.58 299.462 10.58C298.062 10.58 296.872 9.712 296.872 7.626C296.872 7.486 296.872 7.36 296.886 7.22H301.632ZM299.196 4.826C300.176 4.826 300.862 5.47 300.862 6.17C300.862 6.73 300.372 6.8 299.672 6.8H296.956C297.264 5.456 298.314 4.826 299.196 4.826ZM304.148 5.05L305.968 4.49V10.44C305.968 12.47 305.408 14.15 304.008 14.15C303.588 14.15 303.14 13.94 303.14 13.436C303.14 13.086 303.392 12.89 303.672 12.89C304.302 12.89 304.148 13.73 304.498 13.73C304.918 13.73 305.268 12.82 305.268 11V5.4L304.148 5.05ZM304.778 2.39C304.778 2.782 305.086 3.09 305.478 3.09C305.87 3.09 306.178 2.782 306.178 2.39C306.178 1.998 305.87 1.69 305.478 1.69C305.086 1.69 304.778 1.998 304.778 2.39ZM314.576 7.22C314.576 5.68 313.946 4.49 312.168 4.49C310.502 4.49 309.116 5.806 309.116 7.85C309.116 9.74 310.236 11.21 312.056 11.21C314.156 11.21 314.576 9.18 314.576 9.18C314.576 9.18 313.946 10.58 312.406 10.58C311.006 10.58 309.816 9.712 309.816 7.626C309.816 7.486 309.816 7.36 309.83 7.22H314.576ZM312.14 4.826C313.12 4.826 313.806 5.47 313.806 6.17C313.806 6.73 313.316 6.8 312.616 6.8H309.9C310.208 5.456 311.258 4.826 312.14 4.826ZM320.116 4.826C321.306 4.826 321.432 5.54 321.432 5.68C321.432 5.904 321.306 5.946 321.306 6.254C321.306 6.562 321.502 6.772 321.838 6.772C322.188 6.772 322.37 6.492 322.37 6.128C322.37 5.358 321.544 4.49 320.144 4.49C318.478 4.49 317.092 5.82 317.092 7.85C317.092 9.74 318.212 11.21 320.032 11.21C322.132 11.21 322.552 9.18 322.552 9.18C322.552 9.18 321.922 10.58 320.382 10.58C318.982 10.58 317.792 9.712 317.792 7.626C317.792 5.708 319.136 4.826 320.116 4.826ZM324.652 5.12H325.982V9.74C325.982 10.79 326.402 11.21 327.102 11.21C327.872 11.21 328.264 10.272 328.292 10.174C328.278 10.202 327.942 10.72 327.382 10.72C326.892 10.72 326.682 10.3 326.682 9.74V5.12H328.292V4.7H326.682V3.23L324.652 5.12ZM330.816 5.05L332.636 4.49V10.37L333.756 11H330.816L331.936 10.37V5.4L330.816 5.05ZM331.446 2.39C331.446 2.782 331.754 3.09 332.146 3.09C332.538 3.09 332.846 2.782 332.846 2.39C332.846 1.998 332.538 1.69 332.146 1.69C331.754 1.69 331.446 1.998 331.446 2.39ZM338.872 4.868C340.034 4.868 341.294 5.89 341.294 8.214C341.294 9.866 340.3 10.832 339.264 10.832C338.116 10.832 336.842 9.81 336.842 7.486C336.842 5.806 337.85 4.868 338.872 4.868ZM336.072 7.85C336.072 9.74 337.122 11.21 339.068 11.21C340.874 11.21 342.064 9.74 342.064 7.85C342.064 5.96 341.014 4.49 339.068 4.49C337.262 4.49 336.072 5.96 336.072 7.85ZM345.564 5.4V10.37L344.444 11H347.384L346.264 10.37V6.212C346.684 5.694 347.524 5.022 348.364 5.022C349.274 5.022 349.694 5.68 349.694 6.8V10.37L348.574 11H351.514L350.394 10.37V6.59C350.394 5.05 349.624 4.49 348.644 4.49C347.664 4.49 346.754 5.26 346.264 5.792V4.49L344.444 5.05L345.564 5.4ZM359.137 11.21L359.697 9.95C359.697 9.95 360.257 11.21 361.797 11.21C363.057 11.21 364.527 10.23 364.527 7.85C364.527 5.26 363.197 4.49 361.937 4.49C360.467 4.49 359.837 5.82 359.837 5.82V0.99L358.017 1.55L359.137 1.9V11.21ZM359.837 6.52C359.837 6.52 360.327 4.91 361.727 4.91C362.791 4.91 363.757 5.75 363.757 7.85C363.757 9.81 362.791 10.79 361.727 10.79C360.537 10.79 359.837 9.88 359.837 8.83V6.52ZM374.09 4.7H371.29L372.41 5.26L370.632 9.712L368.504 5.26L369.624 4.7H366.488L367.748 5.33L370.282 10.58L369.512 12.54C369.344 12.946 369.162 13.296 368.98 13.296C368.728 13.296 368.742 12.862 368.266 12.862C367.972 12.862 367.706 13.1 367.706 13.464C367.706 13.87 368.014 14.15 368.476 14.15C368.994 14.15 369.484 13.758 369.932 12.624L372.83 5.33L374.09 4.7ZM0.21 27.12H1.54V31.74C1.54 32.79 1.96 33.21 2.66 33.21C3.43 33.21 3.822 32.272 3.85 32.174C3.836 32.202 3.5 32.72 2.94 32.72C2.45 32.72 2.24 32.3 2.24 31.74V27.12H3.85V26.7H2.24V25.23L0.21 27.12ZM7.42438 23.9V32.37L6.30438 33H9.24438L8.12438 32.37V28.212C8.54438 27.694 9.38438 27.022 10.2244 27.022C11.1344 27.022 11.5544 27.68 11.5544 28.8V32.37L10.4344 33H13.3744L12.2544 32.37V28.59C12.2544 27.05 11.4844 26.49 10.5044 26.49C9.52438 26.49 8.61438 27.26 8.12438 27.792V22.99L6.30438 23.55L7.42438 23.9ZM20.9316 29.22C20.9316 27.68 20.3016 26.49 18.5236 26.49C16.8576 26.49 15.4716 27.806 15.4716 29.85C15.4716 31.74 16.5916 33.21 18.4116 33.21C20.5116 33.21 20.9316 31.18 20.9316 31.18C20.9316 31.18 20.3016 32.58 18.7616 32.58C17.3616 32.58 16.1716 31.712 16.1716 29.626C16.1716 29.486 16.1716 29.36 16.1856 29.22H20.9316ZM18.4956 26.826C19.4756 26.826 20.1616 27.47 20.1616 28.17C20.1616 28.73 19.6716 28.8 18.9716 28.8H16.2556C16.5636 27.456 17.6136 26.826 18.4956 26.826ZM29.3945 35.31L28.2745 35.94H31.2145L30.0945 35.31V32.104C30.1365 32.202 30.6545 33.21 32.0545 33.21C33.3145 33.21 34.7845 32.23 34.7845 29.85C34.7845 27.26 33.4545 26.49 32.1945 26.49C30.7245 26.49 30.0945 27.82 30.0945 27.82V26.49L28.2745 27.05L29.3945 27.4V35.31ZM30.0945 28.52C30.0945 28.52 30.5845 26.91 31.9845 26.91C33.0485 26.91 34.0145 27.75 34.0145 29.85C34.0145 31.81 33.0485 32.79 31.9845 32.79C30.7945 32.79 30.0945 31.88 30.0945 30.83V28.52ZM39.116 29.626C38.164 29.962 37.31 30.62 37.31 31.6C37.31 32.594 37.94 33.21 38.906 33.21C39.466 33.21 39.942 32.93 40.264 32.72L41.3 32.034C41.3 32.776 41.3 33.21 41.79 33.21C42.28 33.21 43.26 32.02 43.26 32.02L42 32.51V28.52C42 27.33 41.496 26.49 39.97 26.49C39.13 26.49 37.548 27.26 37.548 28.128C37.548 28.534 37.786 28.716 38.052 28.716C38.318 28.716 38.556 28.562 38.556 28.128C38.556 27.932 38.528 27.792 38.528 27.68C38.528 27.33 38.976 26.91 39.83 26.91C40.6 26.91 41.3 27.274 41.3 28.52V28.87L39.116 29.626ZM40.432 32.16C40.026 32.426 39.676 32.692 39.13 32.692C38.43 32.692 38.052 32.132 38.052 31.53C38.052 30.76 38.402 30.284 39.62 29.85L41.3 29.262V31.586L40.432 32.16ZM48.2402 26.826C49.4302 26.826 49.5562 27.54 49.5562 27.68C49.5562 27.904 49.4302 27.946 49.4302 28.254C49.4302 28.562 49.6262 28.772 49.9622 28.772C50.3122 28.772 50.4942 28.492 50.4942 28.128C50.4942 27.358 49.6682 26.49 48.2682 26.49C46.6022 26.49 45.2162 27.82 45.2162 29.85C45.2162 31.74 46.3362 33.21 48.1562 33.21C50.2562 33.21 50.6762 31.18 50.6762 31.18C50.6762 31.18 50.0462 32.58 48.5062 32.58C47.1062 32.58 45.9162 31.712 45.9162 29.626C45.9162 27.708 47.2602 26.826 48.2402 26.826ZM54.8056 22.99L52.9856 23.55L54.1056 23.9V32.37L52.9856 33H55.9256L54.8056 32.37V22.99ZM58.2776 33H59.6356L58.6416 32.37L55.6736 29.458L57.9276 27.33L59.4956 26.7H56.5556L57.3956 27.26L54.8756 29.654L58.2776 33ZM62.0791 32.37C62.0791 32.762 62.3871 33.07 62.7791 33.07C63.1711 33.07 63.4791 32.762 63.4791 32.37C63.4791 31.978 63.1711 31.67 62.7791 31.67C62.3871 31.67 62.0791 31.978 62.0791 32.37ZM78.942 23.9H71.522V26.42L72.502 24.39H74.882V32.23L73.342 33H77.122L75.582 32.23V24.39H77.962L78.942 26.42V23.9ZM82.647 23.9V32.37L81.527 33H84.467L83.347 32.37V28.212C83.767 27.694 84.607 27.022 85.447 27.022C86.357 27.022 86.777 27.68 86.777 28.8V32.37L85.657 33H88.597L87.477 32.37V28.59C87.477 27.05 86.707 26.49 85.727 26.49C84.747 26.49 83.837 27.26 83.347 27.792V22.99L81.527 23.55L82.647 23.9ZM96.1543 29.22C96.1543 27.68 95.5243 26.49 93.7463 26.49C92.0803 26.49 90.6943 27.806 90.6943 29.85C90.6943 31.74 91.8143 33.21 93.6343 33.21C95.7343 33.21 96.1543 31.18 96.1543 31.18C96.1543 31.18 95.5243 32.58 93.9843 32.58C92.5843 32.58 91.3943 31.712 91.3943 29.626C91.3943 29.486 91.3943 29.36 91.4083 29.22H96.1543ZM93.7183 26.826C94.6983 26.826 95.3843 27.47 95.3843 28.17C95.3843 28.73 94.8943 28.8 94.1943 28.8H91.4783C91.7863 27.456 92.8363 26.826 93.7183 26.826ZM103.497 27.12H104.827V32.37L103.707 33H106.787L105.527 32.37V27.12H107.137V26.7H105.527V26.14C105.527 24.18 105.919 23.48 106.479 23.48C106.969 23.48 106.885 24.25 107.515 24.25C107.795 24.25 108.047 24.054 108.047 23.704C108.047 23.2 107.459 22.99 107.039 22.99C105.639 22.99 104.827 24.25 104.827 26.7H103.497V27.12ZM110.71 23.9V32.37L109.59 33H112.53L111.41 32.37V22.99L109.59 23.55L110.71 23.9ZM117.633 26.868C118.795 26.868 120.055 27.89 120.055 30.214C120.055 31.866 119.061 32.832 118.025 32.832C116.877 32.832 115.603 31.81 115.603 29.486C115.603 27.806 116.611 26.868 117.633 26.868ZM114.833 29.85C114.833 31.74 115.883 33.21 117.829 33.21C119.635 33.21 120.825 31.74 120.825 29.85C120.825 27.96 119.775 26.49 117.829 26.49C116.023 26.49 114.833 27.96 114.833 29.85ZM126.23 26.826C127.42 26.826 127.546 27.54 127.546 27.68C127.546 27.904 127.42 27.946 127.42 28.254C127.42 28.562 127.616 28.772 127.952 28.772C128.302 28.772 128.484 28.492 128.484 28.128C128.484 27.358 127.658 26.49 126.258 26.49C124.592 26.49 123.206 27.82 123.206 29.85C123.206 31.74 124.326 33.21 126.146 33.21C128.246 33.21 128.666 31.18 128.666 31.18C128.666 31.18 128.036 32.58 126.496 32.58C125.096 32.58 123.906 31.712 123.906 29.626C123.906 27.708 125.25 26.826 126.23 26.826ZM132.795 22.99L130.975 23.55L132.095 23.9V32.37L130.975 33H133.915L132.795 32.37V22.99ZM136.267 33H137.625L136.631 32.37L133.663 29.458L135.917 27.33L137.485 26.7H134.545L135.385 27.26L132.865 29.654L136.267 33ZM140.069 32.37C140.069 32.762 140.377 33.07 140.769 33.07C141.161 33.07 141.469 32.762 141.469 32.37C141.469 31.978 141.161 31.67 140.769 31.67C140.377 31.67 140.069 31.978 140.069 32.37ZM162.669 31.698L155.165 23.9H154.199L155.599 25.356V32.23L154.199 33H157.629L156.089 32.23V25.874L163.159 33.21V24.67L164.559 23.9H161.129L162.669 24.67V31.698ZM169.461 26.868C170.623 26.868 171.883 27.89 171.883 30.214C171.883 31.866 170.889 32.832 169.853 32.832C168.705 32.832 167.431 31.81 167.431 29.486C167.431 27.806 168.439 26.868 169.461 26.868ZM166.661 29.85C166.661 31.74 167.711 33.21 169.657 33.21C171.463 33.21 172.653 31.74 172.653 29.85C172.653 27.96 171.603 26.49 169.657 26.49C167.851 26.49 166.661 27.96 166.661 29.85ZM182.87 26.868C184.032 26.868 185.292 27.89 185.292 30.214C185.292 31.866 184.298 32.832 183.262 32.832C182.114 32.832 180.84 31.81 180.84 29.486C180.84 27.806 181.848 26.868 182.87 26.868ZM180.07 29.85C180.07 31.74 181.12 33.21 183.066 33.21C184.872 33.21 186.062 31.74 186.062 29.85C186.062 27.96 185.012 26.49 183.066 26.49C181.26 26.49 180.07 27.96 180.07 29.85ZM189.563 27.4V32.37L188.443 33H191.383L190.263 32.37V28.212C190.683 27.694 191.523 27.022 192.363 27.022C193.273 27.022 193.693 27.68 193.693 28.8V32.37L192.573 33H195.513L194.393 32.37V28.59C194.393 27.05 193.623 26.49 192.643 26.49C191.663 26.49 190.753 27.26 190.263 27.792V26.49L188.443 27.05L189.563 27.4ZM203.068 29.22C203.068 27.68 202.438 26.49 200.66 26.49C198.994 26.49 197.608 27.806 197.608 29.85C197.608 31.74 198.728 33.21 200.548 33.21C202.648 33.21 203.068 31.18 203.068 31.18C203.068 31.18 202.438 32.58 200.898 32.58C199.498 32.58 198.308 31.712 198.308 29.626C198.308 29.486 198.308 29.36 198.322 29.22H203.068ZM200.632 26.826C201.612 26.826 202.298 27.47 202.298 28.17C202.298 28.73 201.808 28.8 201.108 28.8H198.392C198.7 27.456 199.75 26.826 200.632 26.826ZM210.341 27.12H211.671V31.74C211.671 32.79 212.091 33.21 212.791 33.21C213.561 33.21 213.953 32.272 213.981 32.174C213.967 32.202 213.631 32.72 213.071 32.72C212.581 32.72 212.371 32.3 212.371 31.74V27.12H213.981V26.7H212.371V25.23L210.341 27.12ZM219.306 26.868C220.468 26.868 221.728 27.89 221.728 30.214C221.728 31.866 220.734 32.832 219.698 32.832C218.55 32.832 217.276 31.81 217.276 29.486C217.276 27.806 218.284 26.868 219.306 26.868ZM216.506 29.85C216.506 31.74 217.556 33.21 219.502 33.21C221.308 33.21 222.498 31.74 222.498 29.85C222.498 27.96 221.448 26.49 219.502 26.49C217.696 26.49 216.506 27.96 216.506 29.85ZM227.678 26.868C228.84 26.868 230.1 27.89 230.1 30.214C230.1 31.866 229.106 32.832 228.07 32.832C226.922 32.832 225.648 31.81 225.648 29.486C225.648 27.806 226.656 26.868 227.678 26.868ZM224.878 29.85C224.878 31.74 225.928 33.21 227.874 33.21C229.68 33.21 230.87 31.74 230.87 29.85C230.87 27.96 229.82 26.49 227.874 26.49C226.068 26.49 224.878 27.96 224.878 29.85ZM235.001 22.99L233.181 23.55L234.301 23.9V32.37L233.181 33H236.121L235.001 32.37V22.99ZM238.473 33H239.831L238.837 32.37L235.869 29.458L238.123 27.33L239.691 26.7H236.751L237.591 27.26L235.071 29.654L238.473 33ZM248.837 29.626C247.885 29.962 247.031 30.62 247.031 31.6C247.031 32.594 247.661 33.21 248.627 33.21C249.187 33.21 249.663 32.93 249.985 32.72L251.021 32.034C251.021 32.776 251.021 33.21 251.511 33.21C252.001 33.21 252.981 32.02 252.981 32.02L251.721 32.51V28.52C251.721 27.33 251.217 26.49 249.691 26.49C248.851 26.49 247.269 27.26 247.269 28.128C247.269 28.534 247.507 28.716 247.773 28.716C248.039 28.716 248.277 28.562 248.277 28.128C248.277 27.932 248.249 27.792 248.249 27.68C248.249 27.33 248.697 26.91 249.551 26.91C250.321 26.91 251.021 27.274 251.021 28.52V28.87L248.837 29.626ZM250.153 32.16C249.747 32.426 249.397 32.692 248.851 32.692C248.151 32.692 247.773 32.132 247.773 31.53C247.773 30.76 248.123 30.284 249.341 29.85L251.021 29.262V31.586L250.153 32.16ZM264.384 26.49L263.824 27.05C263.824 27.05 263.334 26.49 262.354 26.49C261.234 26.49 260.324 27.148 260.324 28.17C260.324 30.284 264.104 29.696 264.104 31.502C264.104 32.44 263.264 32.79 262.634 32.79C262.214 32.79 261.444 32.664 260.996 31.74L260.394 30.48V33.21L260.884 32.384C260.898 32.426 261.332 33.21 262.634 33.21C263.754 33.21 264.734 32.538 264.734 31.278C264.734 28.968 260.884 29.5 260.884 27.96C260.884 27.4 261.43 26.91 262.354 26.91C263.334 26.91 263.754 27.54 263.754 27.54L264.384 28.674V26.49ZM268.371 23.9V32.37L267.251 33H270.191L269.071 32.37V28.212C269.491 27.694 270.331 27.022 271.171 27.022C272.081 27.022 272.501 27.68 272.501 28.8V32.37L271.381 33H274.321L273.201 32.37V28.59C273.201 27.05 272.431 26.49 271.451 26.49C270.471 26.49 269.561 27.26 269.071 27.792V22.99L267.251 23.55L268.371 23.9ZM279.219 26.868C280.381 26.868 281.641 27.89 281.641 30.214C281.641 31.866 280.647 32.832 279.611 32.832C278.463 32.832 277.189 31.81 277.189 29.486C277.189 27.806 278.197 26.868 279.219 26.868ZM276.419 29.85C276.419 31.74 277.469 33.21 279.415 33.21C281.221 33.21 282.411 31.74 282.411 29.85C282.411 27.96 281.361 26.49 279.415 26.49C277.609 26.49 276.419 27.96 276.419 29.85ZM284.511 27.12H285.841V31.74C285.841 32.79 286.261 33.21 286.961 33.21C287.731 33.21 288.123 32.272 288.151 32.174C288.137 32.202 287.801 32.72 287.241 32.72C286.751 32.72 286.541 32.3 286.541 31.74V27.12H288.151V26.7H286.541V25.23L284.511 27.12ZM297.588 29.626C296.636 29.962 295.782 30.62 295.782 31.6C295.782 32.594 296.412 33.21 297.378 33.21C297.938 33.21 298.414 32.93 298.736 32.72L299.772 32.034C299.772 32.776 299.772 33.21 300.262 33.21C300.752 33.21 301.732 32.02 301.732 32.02L300.472 32.51V28.52C300.472 27.33 299.968 26.49 298.442 26.49C297.602 26.49 296.02 27.26 296.02 28.128C296.02 28.534 296.258 28.716 296.524 28.716C296.79 28.716 297.028 28.562 297.028 28.128C297.028 27.932 297 27.792 297 27.68C297 27.33 297.448 26.91 298.302 26.91C299.072 26.91 299.772 27.274 299.772 28.52V28.87L297.588 29.626ZM298.904 32.16C298.498 32.426 298.148 32.692 297.602 32.692C296.902 32.692 296.524 32.132 296.524 31.53C296.524 30.76 296.874 30.284 298.092 29.85L299.772 29.262V31.586L298.904 32.16ZM303.408 27.12H304.738V31.74C304.738 32.79 305.158 33.21 305.858 33.21C306.628 33.21 307.02 32.272 307.048 32.174C307.034 32.202 306.698 32.72 306.138 32.72C305.648 32.72 305.438 32.3 305.438 31.74V27.12H307.048V26.7H305.438V25.23L303.408 27.12ZM314.33 27.12H315.66V31.74C315.66 32.79 316.08 33.21 316.78 33.21C317.55 33.21 317.942 32.272 317.97 32.174C317.956 32.202 317.62 32.72 317.06 32.72C316.57 32.72 316.36 32.3 316.36 31.74V27.12H317.97V26.7H316.36V25.23L314.33 27.12ZM321.544 23.9V32.37L320.424 33H323.364L322.244 32.37V28.212C322.664 27.694 323.504 27.022 324.344 27.022C325.254 27.022 325.674 27.68 325.674 28.8V32.37L324.554 33H327.494L326.374 32.37V28.59C326.374 27.05 325.604 26.49 324.624 26.49C323.644 26.49 322.734 27.26 322.244 27.792V22.99L320.424 23.55L321.544 23.9ZM335.051 29.22C335.051 27.68 334.421 26.49 332.643 26.49C330.977 26.49 329.591 27.806 329.591 29.85C329.591 31.74 330.711 33.21 332.531 33.21C334.631 33.21 335.051 31.18 335.051 31.18C335.051 31.18 334.421 32.58 332.881 32.58C331.481 32.58 330.291 31.712 330.291 29.626C330.291 29.486 330.291 29.36 330.305 29.22H335.051ZM332.615 26.826C333.595 26.826 334.281 27.47 334.281 28.17C334.281 28.73 333.791 28.8 333.091 28.8H330.375C330.683 27.456 331.733 26.826 332.615 26.826ZM1.4 57.31L0.28 57.94H3.22L2.1 57.31V54.104C2.142 54.202 2.66 55.21 4.06 55.21C5.32 55.21 6.79 54.23 6.79 51.85C6.79 49.26 5.46 48.49 4.2 48.49C2.73 48.49 2.1 49.82 2.1 49.82V48.49L0.28 49.05L1.4 49.4V57.31ZM2.1 50.52C2.1 50.52 2.59 48.91 3.99 48.91C5.054 48.91 6.02 49.75 6.02 51.85C6.02 53.81 5.054 54.79 3.99 54.79C2.8 54.79 2.1 53.88 2.1 52.83V50.52ZM12.0455 48.868C13.2075 48.868 14.4675 49.89 14.4675 52.214C14.4675 53.866 13.4735 54.832 12.4375 54.832C11.2895 54.832 10.0155 53.81 10.0155 51.486C10.0155 49.806 11.0235 48.868 12.0455 48.868ZM9.24547 51.85C9.24547 53.74 10.2955 55.21 12.2415 55.21C14.0475 55.21 15.2375 53.74 15.2375 51.85C15.2375 49.96 14.1875 48.49 12.2415 48.49C10.4355 48.49 9.24547 49.96 9.24547 51.85ZM18.5281 57.31L17.4081 57.94H20.3481L19.2281 57.31V54.104C19.2701 54.202 19.7881 55.21 21.1881 55.21C22.4481 55.21 23.9181 54.23 23.9181 51.85C23.9181 49.26 22.5881 48.49 21.3281 48.49C19.8581 48.49 19.2281 49.82 19.2281 49.82V48.49L17.4081 49.05L18.5281 49.4V57.31ZM19.2281 50.52C19.2281 50.52 19.7181 48.91 21.1181 48.91C22.1821 48.91 23.1481 49.75 23.1481 51.85C23.1481 53.81 22.1821 54.79 21.1181 54.79C19.9281 54.79 19.2281 53.88 19.2281 52.83V50.52ZM31.2736 49.4V53.488C30.8536 54.006 30.0136 54.678 29.1736 54.678C28.2636 54.678 27.8436 54.02 27.8436 52.9V48.49L26.0236 49.05L27.1436 49.4V53.11C27.1436 54.65 27.9136 55.21 28.8936 55.21C29.8736 55.21 30.7836 54.44 31.2736 53.908V55.21L33.0936 54.65L31.9736 54.3V48.49L30.1536 49.05L31.2736 49.4ZM36.3158 45.9V54.37L35.1958 55H38.1358L37.0158 54.37V44.99L35.1958 45.55L36.3158 45.9ZM42.3152 51.626C41.3632 51.962 40.5092 52.62 40.5092 53.6C40.5092 54.594 41.1392 55.21 42.1052 55.21C42.6652 55.21 43.1412 54.93 43.4632 54.72L44.4992 54.034C44.4992 54.776 44.4992 55.21 44.9892 55.21C45.4792 55.21 46.4592 54.02 46.4592 54.02L45.1992 54.51V50.52C45.1992 49.33 44.6952 48.49 43.1692 48.49C42.3292 48.49 40.7472 49.26 40.7472 50.128C40.7472 50.534 40.9852 50.716 41.2512 50.716C41.5172 50.716 41.7552 50.562 41.7552 50.128C41.7552 49.932 41.7272 49.792 41.7272 49.68C41.7272 49.33 42.1752 48.91 43.0292 48.91C43.7992 48.91 44.4992 49.274 44.4992 50.52V50.87L42.3152 51.626ZM43.6312 54.16C43.2252 54.426 42.8752 54.692 42.3292 54.692C41.6292 54.692 41.2512 54.132 41.2512 53.53C41.2512 52.76 41.6012 52.284 42.8192 51.85L44.4992 51.262V53.586L43.6312 54.16ZM49.5354 49.4V54.37L48.4154 55H51.3554L50.2354 54.37V50.38C50.8654 49.68 51.3974 49.246 51.6774 49.246C52.1394 49.246 52.0694 49.68 52.5594 49.68C52.8954 49.68 53.1054 49.442 53.1054 49.148C53.1054 48.728 52.8254 48.49 52.3354 48.49C51.9434 48.49 51.6074 48.644 51.1734 49.064L50.2354 49.96V48.49L48.4154 49.05L49.5354 49.4ZM62.2759 44.99L60.4559 45.55L61.5759 45.9V54.37L60.4559 55H63.3959L62.2759 54.37V44.99ZM65.7479 55H67.1059L66.1119 54.37L63.1439 51.458L65.3979 49.33L66.9659 48.7H64.0259L64.8659 49.26L62.3459 51.654L65.7479 55ZM69.1994 49.05L71.0194 48.49V54.37L72.1394 55H69.1994L70.3194 54.37V49.4L69.1994 49.05ZM69.8294 46.39C69.8294 46.782 70.1374 47.09 70.5294 47.09C70.9214 47.09 71.2294 46.782 71.2294 46.39C71.2294 45.998 70.9214 45.69 70.5294 45.69C70.1374 45.69 69.8294 45.998 69.8294 46.39ZM79.2148 45.9V49.596C79.1728 49.498 78.6548 48.49 77.2548 48.49C75.9948 48.49 74.5248 49.47 74.5248 51.85C74.5248 54.3 75.8548 55.21 77.1148 55.21C78.5848 55.21 79.2148 53.88 79.2148 53.88V55.21L81.0348 54.65L79.9148 54.3V44.99L78.0948 45.55L79.2148 45.9ZM79.2148 53.18C79.2148 53.18 78.7248 54.79 77.3248 54.79C76.2608 54.79 75.2948 53.88 75.2948 51.85C75.2948 49.89 76.2608 48.91 77.3248 48.91C78.5148 48.91 79.2148 49.82 79.2148 50.87V53.18ZM87.6203 48.49L87.0603 49.05C87.0603 49.05 86.5703 48.49 85.5903 48.49C84.4703 48.49 83.5603 49.148 83.5603 50.17C83.5603 52.284 87.3403 51.696 87.3403 53.502C87.3403 54.44 86.5003 54.79 85.8703 54.79C85.4503 54.79 84.6803 54.664 84.2323 53.74L83.6303 52.48V55.21L84.1203 54.384C84.1343 54.426 84.5683 55.21 85.8703 55.21C86.9903 55.21 87.9703 54.538 87.9703 53.278C87.9703 50.968 84.1203 51.5 84.1203 49.96C84.1203 49.4 84.6663 48.91 85.5903 48.91C86.5703 48.91 86.9903 49.54 86.9903 49.54L87.6203 50.674V48.49ZM90.9076 54.37C90.9076 54.762 91.2156 55.07 91.6076 55.07C91.9996 55.07 92.3076 54.762 92.3076 54.37C92.3076 53.978 91.9996 53.67 91.6076 53.67C91.2156 53.67 90.9076 53.978 90.9076 54.37ZM101.05 46.67L103.654 55.21L106.258 47.524L108.946 55.21L111.55 46.67L113.02 45.9H109.786L111.046 46.6L109.016 53.306L106.356 45.69L103.794 53.264L101.764 46.6L103.024 45.9H99.5805L101.05 46.67ZM115.96 45.9V54.37L114.84 55H117.78L116.66 54.37V50.212C117.08 49.694 117.92 49.022 118.76 49.022C119.67 49.022 120.09 49.68 120.09 50.8V54.37L118.97 55H121.91L120.79 54.37V50.59C120.79 49.05 120.02 48.49 119.04 48.49C118.06 48.49 117.15 49.26 116.66 49.792V44.99L114.84 45.55L115.96 45.9ZM129.467 51.22C129.467 49.68 128.837 48.49 127.059 48.49C125.393 48.49 124.007 49.806 124.007 51.85C124.007 53.74 125.127 55.21 126.947 55.21C129.047 55.21 129.467 53.18 129.467 53.18C129.467 53.18 128.837 54.58 127.297 54.58C125.897 54.58 124.707 53.712 124.707 51.626C124.707 51.486 124.707 51.36 124.721 51.22H129.467ZM127.031 48.826C128.011 48.826 128.697 49.47 128.697 50.17C128.697 50.73 128.207 50.8 127.507 50.8H124.791C125.099 49.456 126.149 48.826 127.031 48.826ZM133.103 49.4V54.37L131.983 55H134.923L133.803 54.37V50.212C134.223 49.694 135.063 49.022 135.903 49.022C136.813 49.022 137.233 49.68 137.233 50.8V54.37L136.113 55H139.053L137.933 54.37V50.59C137.933 49.05 137.163 48.49 136.183 48.49C135.203 48.49 134.293 49.26 133.803 49.792V48.49L131.983 49.05L133.103 49.4ZM150.596 48.49L150.036 49.05C150.036 49.05 149.546 48.49 148.566 48.49C147.446 48.49 146.536 49.148 146.536 50.17C146.536 52.284 150.316 51.696 150.316 53.502C150.316 54.44 149.476 54.79 148.846 54.79C148.426 54.79 147.656 54.664 147.208 53.74L146.606 52.48V55.21L147.096 54.384C147.11 54.426 147.544 55.21 148.846 55.21C149.966 55.21 150.946 54.538 150.946 53.278C150.946 50.968 147.096 51.5 147.096 49.96C147.096 49.4 147.642 48.91 148.566 48.91C149.546 48.91 149.966 49.54 149.966 49.54L150.596 50.674V48.49ZM156.333 48.868C157.495 48.868 158.755 49.89 158.755 52.214C158.755 53.866 157.761 54.832 156.725 54.832C155.577 54.832 154.303 53.81 154.303 51.486C154.303 49.806 155.311 48.868 156.333 48.868ZM153.533 51.85C153.533 53.74 154.583 55.21 156.529 55.21C158.335 55.21 159.525 53.74 159.525 51.85C159.525 49.96 158.475 48.49 156.529 48.49C154.723 48.49 153.533 49.96 153.533 51.85ZM167.856 50.212C168.276 49.694 169.116 49.022 169.956 49.022C170.866 49.022 171.286 49.68 171.286 50.8V54.37L170.166 55H173.106L171.986 54.37V50.59C171.986 49.05 171.216 48.49 170.236 48.49C169.256 48.49 168.346 49.26 167.786 49.876C167.562 48.868 166.89 48.49 166.106 48.49C165.126 48.49 164.216 49.26 163.726 49.792V48.49L161.906 49.05L163.026 49.4V54.37L161.906 55H164.846L163.726 54.37V50.212C164.146 49.694 164.986 49.022 165.826 49.022C166.736 49.022 167.156 49.68 167.156 50.8V54.37L166.036 55H168.976L167.856 54.37V50.212ZM180.66 51.22C180.66 49.68 180.03 48.49 178.252 48.49C176.586 48.49 175.2 49.806 175.2 51.85C175.2 53.74 176.32 55.21 178.14 55.21C180.24 55.21 180.66 53.18 180.66 53.18C180.66 53.18 180.03 54.58 178.49 54.58C177.09 54.58 175.9 53.712 175.9 51.626C175.9 51.486 175.9 51.36 175.914 51.22H180.66ZM178.224 48.826C179.204 48.826 179.89 49.47 179.89 50.17C179.89 50.73 179.4 50.8 178.7 50.8H175.984C176.292 49.456 177.342 48.826 178.224 48.826ZM185.976 48.868C187.138 48.868 188.398 49.89 188.398 52.214C188.398 53.866 187.404 54.832 186.368 54.832C185.22 54.832 183.946 53.81 183.946 51.486C183.946 49.806 184.954 48.868 185.976 48.868ZM183.176 51.85C183.176 53.74 184.226 55.21 186.172 55.21C187.978 55.21 189.168 53.74 189.168 51.85C189.168 49.96 188.118 48.49 186.172 48.49C184.366 48.49 183.176 49.96 183.176 51.85ZM192.669 49.4V54.37L191.549 55H194.489L193.369 54.37V50.212C193.789 49.694 194.629 49.022 195.469 49.022C196.379 49.022 196.799 49.68 196.799 50.8V54.37L195.679 55H198.619L197.499 54.37V50.59C197.499 49.05 196.729 48.49 195.749 48.49C194.769 48.49 193.859 49.26 193.369 49.792V48.49L191.549 49.05L192.669 49.4ZM206.175 51.22C206.175 49.68 205.545 48.49 203.767 48.49C202.101 48.49 200.715 49.806 200.715 51.85C200.715 53.74 201.835 55.21 203.655 55.21C205.755 55.21 206.175 53.18 206.175 53.18C206.175 53.18 205.545 54.58 204.005 54.58C202.605 54.58 201.415 53.712 201.415 51.626C201.415 51.486 201.415 51.36 201.429 51.22H206.175ZM203.739 48.826C204.719 48.826 205.405 49.47 205.405 50.17C205.405 50.73 204.915 50.8 204.215 50.8H201.499C201.807 49.456 202.857 48.826 203.739 48.826ZM218.488 45.9V49.596C218.446 49.498 217.928 48.49 216.528 48.49C215.268 48.49 213.798 49.47 213.798 51.85C213.798 54.3 215.128 55.21 216.388 55.21C217.858 55.21 218.488 53.88 218.488 53.88V55.21L220.308 54.65L219.188 54.3V44.99L217.368 45.55L218.488 45.9ZM218.488 53.18C218.488 53.18 217.998 54.79 216.598 54.79C215.534 54.79 214.568 53.88 214.568 51.85C214.568 49.89 215.534 48.91 216.598 48.91C217.788 48.91 218.488 49.82 218.488 50.87V53.18ZM222.483 49.05L224.303 48.49V54.37L225.423 55H222.483L223.603 54.37V49.4L222.483 49.05ZM223.113 46.39C223.113 46.782 223.421 47.09 223.813 47.09C224.205 47.09 224.513 46.782 224.513 46.39C224.513 45.998 224.205 45.69 223.813 45.69C223.421 45.69 223.113 45.998 223.113 46.39ZM232.498 45.9V49.596C232.456 49.498 231.938 48.49 230.538 48.49C229.278 48.49 227.808 49.47 227.808 51.85C227.808 54.3 229.138 55.21 230.398 55.21C231.868 55.21 232.498 53.88 232.498 53.88V55.21L234.318 54.65L233.198 54.3V44.99L231.378 45.55L232.498 45.9ZM232.498 53.18C232.498 53.18 232.008 54.79 230.608 54.79C229.544 54.79 228.578 53.88 228.578 51.85C228.578 49.89 229.544 48.91 230.608 48.91C231.798 48.91 232.498 49.82 232.498 50.87V53.18ZM241.251 49.12H242.581V53.74C242.581 54.79 243.001 55.21 243.701 55.21C244.471 55.21 244.863 54.272 244.891 54.174C244.877 54.202 244.541 54.72 243.981 54.72C243.491 54.72 243.281 54.3 243.281 53.74V49.12H244.891V48.7H243.281V47.23L241.251 49.12ZM248.535 49.4V54.37L247.415 55H250.355L249.235 54.37V50.38C249.865 49.68 250.397 49.246 250.677 49.246C251.139 49.246 251.069 49.68 251.559 49.68C251.895 49.68 252.105 49.442 252.105 49.148C252.105 48.728 251.825 48.49 251.335 48.49C250.943 48.49 250.607 48.644 250.173 49.064L249.235 49.96V48.49L247.415 49.05L248.535 49.4ZM261.601 48.7H258.801L259.921 49.26L258.143 53.712L256.015 49.26L257.135 48.7H253.999L255.259 49.33L257.793 54.58L257.023 56.54C256.855 56.946 256.673 57.296 256.491 57.296C256.239 57.296 256.253 56.862 255.777 56.862C255.483 56.862 255.217 57.1 255.217 57.464C255.217 57.87 255.525 58.15 255.987 58.15C256.505 58.15 256.995 57.758 257.443 56.624L260.341 49.33L261.601 48.7ZM268.247 49.12H269.577V53.74C269.577 54.79 269.997 55.21 270.697 55.21C271.467 55.21 271.859 54.272 271.887 54.174C271.873 54.202 271.537 54.72 270.977 54.72C270.487 54.72 270.277 54.3 270.277 53.74V49.12H271.887V48.7H270.277V47.23L268.247 49.12ZM277.211 48.868C278.373 48.868 279.633 49.89 279.633 52.214C279.633 53.866 278.639 54.832 277.603 54.832C276.455 54.832 275.181 53.81 275.181 51.486C275.181 49.806 276.189 48.868 277.211 48.868ZM274.411 51.85C274.411 53.74 275.461 55.21 277.407 55.21C279.213 55.21 280.403 53.74 280.403 51.85C280.403 49.96 279.353 48.49 277.407 48.49C275.601 48.49 274.411 49.96 274.411 51.85ZM293.771 50.212C294.191 49.694 295.031 49.022 295.871 49.022C296.781 49.022 297.201 49.68 297.201 50.8V54.37L296.081 55H299.021L297.901 54.37V50.59C297.901 49.05 297.131 48.49 296.151 48.49C295.171 48.49 294.261 49.26 293.701 49.876C293.477 48.868 292.805 48.49 292.021 48.49C291.041 48.49 290.131 49.26 289.641 49.792V48.49L287.821 49.05L288.941 49.4V54.37L287.821 55H290.761L289.641 54.37V50.212C290.061 49.694 290.901 49.022 291.741 49.022C292.651 49.022 293.071 49.68 293.071 50.8V54.37L291.951 55H294.891L293.771 54.37V50.212ZM303.915 48.868C305.077 48.868 306.337 49.89 306.337 52.214C306.337 53.866 305.343 54.832 304.307 54.832C303.159 54.832 301.885 53.81 301.885 51.486C301.885 49.806 302.893 48.868 303.915 48.868ZM301.115 51.85C301.115 53.74 302.165 55.21 304.111 55.21C305.917 55.21 307.107 53.74 307.107 51.85C307.107 49.96 306.057 48.49 304.111 48.49C302.305 48.49 301.115 49.96 301.115 51.85ZM312.512 48.826C313.702 48.826 313.828 49.54 313.828 49.68C313.828 49.904 313.702 49.946 313.702 50.254C313.702 50.562 313.898 50.772 314.234 50.772C314.584 50.772 314.766 50.492 314.766 50.128C314.766 49.358 313.94 48.49 312.54 48.49C310.874 48.49 309.488 49.82 309.488 51.85C309.488 53.74 310.608 55.21 312.428 55.21C314.528 55.21 314.948 53.18 314.948 53.18C314.948 53.18 314.318 54.58 312.778 54.58C311.378 54.58 310.188 53.712 310.188 51.626C310.188 49.708 311.532 48.826 312.512 48.826ZM319.077 44.99L317.257 45.55L318.377 45.9V54.37L317.257 55H320.197L319.077 54.37V44.99ZM322.549 55H323.907L322.913 54.37L319.945 51.458L322.199 49.33L323.767 48.7H320.827L321.667 49.26L319.147 51.654L322.549 55ZM330.758 49.12H332.088V53.74C332.088 54.79 332.508 55.21 333.208 55.21C333.978 55.21 334.37 54.272 334.398 54.174C334.384 54.202 334.048 54.72 333.488 54.72C332.998 54.72 332.788 54.3 332.788 53.74V49.12H334.398V48.7H332.788V47.23L330.758 49.12ZM342.382 51.22C342.382 49.68 341.752 48.49 339.974 48.49C338.308 48.49 336.922 49.806 336.922 51.85C336.922 53.74 338.042 55.21 339.862 55.21C341.962 55.21 342.382 53.18 342.382 53.18C342.382 53.18 341.752 54.58 340.212 54.58C338.812 54.58 337.622 53.712 337.622 51.626C337.622 51.486 337.622 51.36 337.636 51.22H342.382ZM339.946 48.826C340.926 48.826 341.612 49.47 341.612 50.17C341.612 50.73 341.122 50.8 340.422 50.8H337.706C338.014 49.456 339.064 48.826 339.946 48.826ZM350.358 51.22C350.358 49.68 349.728 48.49 347.95 48.49C346.284 48.49 344.898 49.806 344.898 51.85C344.898 53.74 346.018 55.21 347.838 55.21C349.938 55.21 350.358 53.18 350.358 53.18C350.358 53.18 349.728 54.58 348.188 54.58C346.788 54.58 345.598 53.712 345.598 51.626C345.598 51.486 345.598 51.36 345.612 51.22H350.358ZM347.922 48.826C348.902 48.826 349.588 49.47 349.588 50.17C349.588 50.73 349.098 50.8 348.398 50.8H345.682C345.99 49.456 347.04 48.826 347.922 48.826ZM353.994 49.4V54.37L352.874 55H355.814L354.694 54.37V50.212C355.114 49.694 355.954 49.022 356.794 49.022C357.704 49.022 358.124 49.68 358.124 50.8V54.37L357.004 55H359.944L358.824 54.37V50.59C358.824 49.05 358.054 48.49 357.074 48.49C356.094 48.49 355.184 49.26 354.694 49.792V48.49L352.874 49.05L353.994 49.4ZM363.916 51.626C362.964 51.962 362.11 52.62 362.11 53.6C362.11 54.594 362.74 55.21 363.706 55.21C364.266 55.21 364.742 54.93 365.064 54.72L366.1 54.034C366.1 54.776 366.1 55.21 366.59 55.21C367.08 55.21 368.06 54.02 368.06 54.02L366.8 54.51V50.52C366.8 49.33 366.296 48.49 364.77 48.49C363.93 48.49 362.348 49.26 362.348 50.128C362.348 50.534 362.586 50.716 362.852 50.716C363.118 50.716 363.356 50.562 363.356 50.128C363.356 49.932 363.328 49.792 363.328 49.68C363.328 49.33 363.776 48.91 364.63 48.91C365.4 48.91 366.1 49.274 366.1 50.52V50.87L363.916 51.626ZM365.232 54.16C364.826 54.426 364.476 54.692 363.93 54.692C363.23 54.692 362.852 54.132 362.852 53.53C362.852 52.76 363.202 52.284 364.42 51.85L366.1 51.262V53.586L365.232 54.16ZM370.436 50.73C370.436 51.654 370.926 52.452 371.808 52.788C371.206 52.9 370.506 53.208 370.506 54.02C370.506 54.496 370.87 54.86 371.248 54.972C370.772 55.056 369.876 55.28 369.876 56.26C369.876 57.1 370.646 58.15 372.816 58.15C375.056 58.15 376.246 56.75 376.246 55.7C376.246 54.65 375.546 54.3 374.846 54.3H371.696C371.486 54.3 371.136 54.23 371.136 53.81C371.136 53.082 372.312 52.97 372.816 52.97C374.286 52.97 375.196 51.962 375.196 50.73C375.196 49.694 374.566 49.12 374.566 49.12C374.566 49.12 375.056 49.26 375.406 49.26C375.966 49.26 376.176 48.938 376.176 48.56C376.176 48.28 375.98 48 375.588 48C375.252 48 375.056 48.252 375.056 48.546C375.056 48.728 375.196 48.91 374.846 48.91C374.286 48.91 373.796 48.49 372.816 48.49C371.346 48.49 370.436 49.498 370.436 50.73ZM374.846 55C375.336 55 375.756 55.21 375.756 55.77C375.756 56.4 374.986 57.52 372.956 57.52C371.206 57.52 370.576 56.75 370.576 56.05C370.576 55.084 371.934 55.014 371.962 55H374.846ZM371.206 50.73C371.206 49.54 371.934 48.84 372.816 48.84C373.698 48.84 374.426 49.54 374.426 50.73C374.426 51.92 373.698 52.62 372.816 52.62C371.934 52.62 371.206 51.92 371.206 50.73ZM384.013 51.22C384.013 49.68 383.383 48.49 381.605 48.49C379.939 48.49 378.553 49.806 378.553 51.85C378.553 53.74 379.673 55.21 381.493 55.21C383.593 55.21 384.013 53.18 384.013 53.18C384.013 53.18 383.383 54.58 381.843 54.58C380.443 54.58 379.253 53.712 379.253 51.626C379.253 51.486 379.253 51.36 379.267 51.22H384.013ZM381.577 48.826C382.557 48.826 383.243 49.47 383.243 50.17C383.243 50.73 382.753 50.8 382.053 50.8H379.337C379.645 49.456 380.695 48.826 381.577 48.826ZM1.61 71.4V76.37L0.49 77H3.43L2.31 76.37V72.38C2.94 71.68 3.472 71.246 3.752 71.246C4.214 71.246 4.144 71.68 4.634 71.68C4.97 71.68 5.18 71.442 5.18 71.148C5.18 70.728 4.9 70.49 4.41 70.49C4.018 70.49 3.682 70.644 3.248 71.064L2.31 71.96V70.49L0.49 71.05L1.61 71.4ZM10.3638 70.868C11.5258 70.868 12.7858 71.89 12.7858 74.214C12.7858 75.866 11.7918 76.832 10.7558 76.832C9.60783 76.832 8.33383 75.81 8.33383 73.486C8.33383 71.806 9.34183 70.868 10.3638 70.868ZM7.56383 73.85C7.56383 75.74 8.61383 77.21 10.5598 77.21C12.3658 77.21 13.5558 75.74 13.5558 73.85C13.5558 71.96 12.5058 70.49 10.5598 70.49C8.75383 70.49 7.56383 71.96 7.56383 73.85ZM23.0485 70.7H20.2485L21.3685 71.26L19.5905 75.712L17.4625 71.26L18.5825 70.7H15.4465L16.7065 71.33L19.2405 76.58L18.4705 78.54C18.3025 78.946 18.1205 79.296 17.9385 79.296C17.6865 79.296 17.7005 78.862 17.2245 78.862C16.9305 78.862 16.6645 79.1 16.6645 79.464C16.6645 79.87 16.9725 80.15 17.4345 80.15C17.9525 80.15 18.4425 79.758 18.8905 78.624L21.7885 71.33L23.0485 70.7ZM26.814 73.626C25.862 73.962 25.008 74.62 25.008 75.6C25.008 76.594 25.638 77.21 26.604 77.21C27.164 77.21 27.64 76.93 27.962 76.72L28.998 76.034C28.998 76.776 28.998 77.21 29.488 77.21C29.978 77.21 30.958 76.02 30.958 76.02L29.698 76.51V72.52C29.698 71.33 29.194 70.49 27.668 70.49C26.828 70.49 25.246 71.26 25.246 72.128C25.246 72.534 25.484 72.716 25.75 72.716C26.016 72.716 26.254 72.562 26.254 72.128C26.254 71.932 26.226 71.792 26.226 71.68C26.226 71.33 26.674 70.91 27.528 70.91C28.298 70.91 28.998 71.274 28.998 72.52V72.87L26.814 73.626ZM28.13 76.16C27.724 76.426 27.374 76.692 26.828 76.692C26.128 76.692 25.75 76.132 25.75 75.53C25.75 74.76 26.1 74.284 27.318 73.85L28.998 73.262V75.586L28.13 76.16ZM33.9642 67.9V76.37L32.8442 77H35.7842L34.6642 76.37V66.99L32.8442 67.55L33.9642 67.9ZM37.8077 71.12H39.1377V75.74C39.1377 76.79 39.5577 77.21 40.2577 77.21C41.0277 77.21 41.4197 76.272 41.4477 76.174C41.4337 76.202 41.0977 76.72 40.5377 76.72C40.0477 76.72 39.8377 76.3 39.8377 75.74V71.12H41.4477V70.7H39.8377V69.23L37.8077 71.12ZM51.084 70.7H48.284L49.404 71.26L47.626 75.712L45.498 71.26L46.618 70.7H43.482L44.742 71.33L47.276 76.58L46.506 78.54C46.338 78.946 46.156 79.296 45.974 79.296C45.722 79.296 45.736 78.862 45.26 78.862C44.966 78.862 44.7 79.1 44.7 79.464C44.7 79.87 45.008 80.15 45.47 80.15C45.988 80.15 46.478 79.758 46.926 78.624L49.824 71.33L51.084 70.7ZM51.9291 76.37C51.9291 76.762 52.2371 77.07 52.6291 77.07H52.6991L51.9991 78.68C53.2591 77.14 53.3291 76.86 53.3291 76.37C53.3291 75.978 53.0211 75.67 52.6291 75.67C52.2371 75.67 51.9291 75.978 51.9291 76.37ZM66.552 73.22C66.552 71.68 65.922 70.49 64.144 70.49C62.478 70.49 61.092 71.806 61.092 73.85C61.092 75.74 62.212 77.21 64.032 77.21C66.132 77.21 66.552 75.18 66.552 75.18C66.552 75.18 65.922 76.58 64.382 76.58C62.982 76.58 61.792 75.712 61.792 73.626C61.792 73.486 61.792 73.36 61.806 73.22H66.552ZM64.116 70.826C65.096 70.826 65.782 71.47 65.782 72.17C65.782 72.73 65.292 72.8 64.592 72.8H61.876C62.184 71.456 63.234 70.826 64.116 70.826ZM69.8381 71.33L72.3581 77.21L74.8781 71.33L76.1381 70.7H73.3381L74.4581 71.26L72.4981 75.782L70.5661 71.26L71.6861 70.7H68.5781L69.8381 71.33ZM83.2152 73.22C83.2152 71.68 82.5852 70.49 80.8072 70.49C79.1412 70.49 77.7552 71.806 77.7552 73.85C77.7552 75.74 78.8752 77.21 80.6952 77.21C82.7952 77.21 83.2152 75.18 83.2152 75.18C83.2152 75.18 82.5852 76.58 81.0452 76.58C79.6452 76.58 78.4552 75.712 78.4552 73.626C78.4552 73.486 78.4552 73.36 78.4692 73.22H83.2152ZM80.7792 70.826C81.7592 70.826 82.4452 71.47 82.4452 72.17C82.4452 72.73 81.9552 72.8 81.2552 72.8H78.5392C78.8472 71.456 79.8972 70.826 80.7792 70.826ZM86.8514 71.4V76.37L85.7314 77H88.6714L87.5514 76.37V72.38C88.1814 71.68 88.7134 71.246 88.9934 71.246C89.4554 71.246 89.3854 71.68 89.8754 71.68C90.2114 71.68 90.4214 71.442 90.4214 71.148C90.4214 70.728 90.1414 70.49 89.6514 70.49C89.2594 70.49 88.9234 70.644 88.4894 71.064L87.5514 71.96V70.49L85.7314 71.05L86.8514 71.4ZM99.9172 70.7H97.1172L98.2372 71.26L96.4592 75.712L94.3312 71.26L95.4512 70.7H92.3152L93.5752 71.33L96.1092 76.58L95.3392 78.54C95.1712 78.946 94.9892 79.296 94.8072 79.296C94.5552 79.296 94.5692 78.862 94.0932 78.862C93.7992 78.862 93.5332 79.1 93.5332 79.464C93.5332 79.87 93.8412 80.15 94.3032 80.15C94.8212 80.15 95.3112 79.758 95.7592 78.624L98.6572 71.33L99.9172 70.7ZM104.402 70.868C105.564 70.868 106.824 71.89 106.824 74.214C106.824 75.866 105.83 76.832 104.794 76.832C103.646 76.832 102.372 75.81 102.372 73.486C102.372 71.806 103.38 70.868 104.402 70.868ZM101.602 73.85C101.602 75.74 102.652 77.21 104.598 77.21C106.404 77.21 107.594 75.74 107.594 73.85C107.594 71.96 106.544 70.49 104.598 70.49C102.792 70.49 101.602 71.96 101.602 73.85ZM111.094 71.4V76.37L109.974 77H112.914L111.794 76.37V72.212C112.214 71.694 113.054 71.022 113.894 71.022C114.804 71.022 115.224 71.68 115.224 72.8V76.37L114.104 77H117.044L115.924 76.37V72.59C115.924 71.05 115.154 70.49 114.174 70.49C113.194 70.49 112.284 71.26 111.794 71.792V70.49L109.974 71.05L111.094 71.4ZM124.6 73.22C124.6 71.68 123.97 70.49 122.192 70.49C120.526 70.49 119.14 71.806 119.14 73.85C119.14 75.74 120.26 77.21 122.08 77.21C124.18 77.21 124.6 75.18 124.6 75.18C124.6 75.18 123.97 76.58 122.43 76.58C121.03 76.58 119.84 75.712 119.84 73.626C119.84 73.486 119.84 73.36 119.854 73.22H124.6ZM122.164 70.826C123.144 70.826 123.83 71.47 123.83 72.17C123.83 72.73 123.34 72.8 122.64 72.8H119.924C120.232 71.456 121.282 70.826 122.164 70.826ZM137.613 73.22C137.613 71.68 136.983 70.49 135.205 70.49C133.539 70.49 132.153 71.806 132.153 73.85C132.153 75.74 133.273 77.21 135.093 77.21C137.193 77.21 137.613 75.18 137.613 75.18C137.613 75.18 136.983 76.58 135.443 76.58C134.043 76.58 132.853 75.712 132.853 73.626C132.853 73.486 132.853 73.36 132.867 73.22H137.613ZM135.177 70.826C136.157 70.826 136.843 71.47 136.843 72.17C136.843 72.73 136.353 72.8 135.653 72.8H132.937C133.245 71.456 134.295 70.826 135.177 70.826ZM141.179 67.9V76.37L140.059 77H142.999L141.879 76.37V66.99L140.059 67.55L141.179 67.9ZM149.713 70.49L149.153 71.05C149.153 71.05 148.663 70.49 147.683 70.49C146.562 70.49 145.653 71.148 145.653 72.17C145.653 74.284 149.433 73.696 149.433 75.502C149.433 76.44 148.593 76.79 147.963 76.79C147.543 76.79 146.773 76.664 146.325 75.74L145.723 74.48V77.21L146.213 76.384C146.227 76.426 146.66 77.21 147.963 77.21C149.083 77.21 150.063 76.538 150.063 75.278C150.063 72.968 146.213 73.5 146.213 71.96C146.213 71.4 146.759 70.91 147.683 70.91C148.663 70.91 149.083 71.54 149.083 71.54L149.713 72.674V70.49ZM158.11 73.22C158.11 71.68 157.48 70.49 155.702 70.49C154.036 70.49 152.65 71.806 152.65 73.85C152.65 75.74 153.77 77.21 155.59 77.21C157.69 77.21 158.11 75.18 158.11 75.18C158.11 75.18 157.48 76.58 155.94 76.58C154.54 76.58 153.35 75.712 153.35 73.626C153.35 73.486 153.35 73.36 153.364 73.22H158.11ZM155.674 70.826C156.654 70.826 157.34 71.47 157.34 72.17C157.34 72.73 156.85 72.8 156.15 72.8H153.434C153.742 71.456 154.792 70.826 155.674 70.826ZM166.713 67.9V76.37L165.593 77H168.533L167.413 76.37V66.99L165.593 67.55L166.713 67.9ZM172.712 73.626C171.76 73.962 170.906 74.62 170.906 75.6C170.906 76.594 171.536 77.21 172.502 77.21C173.062 77.21 173.538 76.93 173.86 76.72L174.896 76.034C174.896 76.776 174.896 77.21 175.386 77.21C175.876 77.21 176.856 76.02 176.856 76.02L175.596 76.51V72.52C175.596 71.33 175.092 70.49 173.566 70.49C172.726 70.49 171.144 71.26 171.144 72.128C171.144 72.534 171.382 72.716 171.648 72.716C171.914 72.716 172.152 72.562 172.152 72.128C172.152 71.932 172.124 71.792 172.124 71.68C172.124 71.33 172.572 70.91 173.426 70.91C174.196 70.91 174.896 71.274 174.896 72.52V72.87L172.712 73.626ZM174.028 76.16C173.622 76.426 173.272 76.692 172.726 76.692C172.026 76.692 171.648 76.132 171.648 75.53C171.648 74.76 171.998 74.284 173.216 73.85L174.896 73.262V75.586L174.028 76.16ZM183.712 71.4V75.488C183.292 76.006 182.452 76.678 181.612 76.678C180.702 76.678 180.282 76.02 180.282 74.9V70.49L178.462 71.05L179.582 71.4V75.11C179.582 76.65 180.352 77.21 181.332 77.21C182.312 77.21 183.222 76.44 183.712 75.908V77.21L185.532 76.65L184.412 76.3V70.49L182.592 71.05L183.712 71.4ZM188.124 72.73C188.124 73.654 188.614 74.452 189.496 74.788C188.894 74.9 188.194 75.208 188.194 76.02C188.194 76.496 188.558 76.86 188.936 76.972C188.46 77.056 187.564 77.28 187.564 78.26C187.564 79.1 188.334 80.15 190.504 80.15C192.744 80.15 193.934 78.75 193.934 77.7C193.934 76.65 193.234 76.3 192.534 76.3H189.384C189.174 76.3 188.824 76.23 188.824 75.81C188.824 75.082 190 74.97 190.504 74.97C191.974 74.97 192.884 73.962 192.884 72.73C192.884 71.694 192.254 71.12 192.254 71.12C192.254 71.12 192.744 71.26 193.094 71.26C193.654 71.26 193.864 70.938 193.864 70.56C193.864 70.28 193.668 70 193.276 70C192.94 70 192.744 70.252 192.744 70.546C192.744 70.728 192.884 70.91 192.534 70.91C191.974 70.91 191.484 70.49 190.504 70.49C189.034 70.49 188.124 71.498 188.124 72.73ZM192.534 77C193.024 77 193.444 77.21 193.444 77.77C193.444 78.4 192.674 79.52 190.644 79.52C188.894 79.52 188.264 78.75 188.264 78.05C188.264 77.084 189.622 77.014 189.65 77H192.534ZM188.894 72.73C188.894 71.54 189.622 70.84 190.504 70.84C191.386 70.84 192.114 71.54 192.114 72.73C192.114 73.92 191.386 74.62 190.504 74.62C189.622 74.62 188.894 73.92 188.894 72.73ZM197.291 67.9V76.37L196.171 77H199.111L197.991 76.37V72.212C198.411 71.694 199.251 71.022 200.091 71.022C201.001 71.022 201.421 71.68 201.421 72.8V76.37L200.301 77H203.241L202.121 76.37V72.59C202.121 71.05 201.351 70.49 200.371 70.49C199.391 70.49 198.481 71.26 197.991 71.792V66.99L196.171 67.55L197.291 67.9ZM210.798 73.22C210.798 71.68 210.168 70.49 208.39 70.49C206.724 70.49 205.338 71.806 205.338 73.85C205.338 75.74 206.458 77.21 208.278 77.21C210.378 77.21 210.798 75.18 210.798 75.18C210.798 75.18 210.168 76.58 208.628 76.58C207.228 76.58 206.038 75.712 206.038 73.626C206.038 73.486 206.038 73.36 206.052 73.22H210.798ZM208.362 70.826C209.342 70.826 210.028 71.47 210.028 72.17C210.028 72.73 209.538 72.8 208.838 72.8H206.122C206.43 71.456 207.48 70.826 208.362 70.826ZM218.075 67.9V71.596C218.033 71.498 217.515 70.49 216.115 70.49C214.855 70.49 213.385 71.47 213.385 73.85C213.385 76.3 214.715 77.21 215.975 77.21C217.445 77.21 218.075 75.88 218.075 75.88V77.21L219.895 76.65L218.775 76.3V66.99L216.955 67.55L218.075 67.9ZM218.075 75.18C218.075 75.18 217.585 76.79 216.185 76.79C215.121 76.79 214.155 75.88 214.155 73.85C214.155 71.89 215.121 70.91 216.185 70.91C217.375 70.91 218.075 71.82 218.075 72.87V75.18ZM228.983 73.626C228.031 73.962 227.177 74.62 227.177 75.6C227.177 76.594 227.807 77.21 228.773 77.21C229.333 77.21 229.809 76.93 230.131 76.72L231.167 76.034C231.167 76.776 231.167 77.21 231.657 77.21C232.147 77.21 233.127 76.02 233.127 76.02L231.867 76.51V72.52C231.867 71.33 231.363 70.49 229.837 70.49C228.997 70.49 227.415 71.26 227.415 72.128C227.415 72.534 227.653 72.716 227.919 72.716C228.185 72.716 228.423 72.562 228.423 72.128C228.423 71.932 228.395 71.792 228.395 71.68C228.395 71.33 228.843 70.91 229.697 70.91C230.467 70.91 231.167 71.274 231.167 72.52V72.87L228.983 73.626ZM230.299 76.16C229.893 76.426 229.543 76.692 228.997 76.692C228.297 76.692 227.919 76.132 227.919 75.53C227.919 74.76 228.269 74.284 229.487 73.85L231.167 73.262V75.586L230.299 76.16ZM234.803 71.12H236.133V75.74C236.133 76.79 236.553 77.21 237.253 77.21C238.023 77.21 238.415 76.272 238.443 76.174C238.429 76.202 238.093 76.72 237.533 76.72C237.043 76.72 236.833 76.3 236.833 75.74V71.12H238.443V70.7H236.833V69.23L234.803 71.12ZM245.724 71.12H247.054V75.74C247.054 76.79 247.474 77.21 248.174 77.21C248.944 77.21 249.336 76.272 249.364 76.174C249.35 76.202 249.014 76.72 248.454 76.72C247.964 76.72 247.754 76.3 247.754 75.74V71.12H249.364V70.7H247.754V69.23L245.724 71.12ZM252.938 67.9V76.37L251.818 77H254.758L253.638 76.37V72.212C254.058 71.694 254.898 71.022 255.738 71.022C256.648 71.022 257.068 71.68 257.068 72.8V76.37L255.948 77H258.888L257.768 76.37V72.59C257.768 71.05 256.998 70.49 256.018 70.49C255.038 70.49 254.128 71.26 253.638 71.792V66.99L251.818 67.55L252.938 67.9ZM266.446 73.22C266.446 71.68 265.816 70.49 264.038 70.49C262.372 70.49 260.986 71.806 260.986 73.85C260.986 75.74 262.106 77.21 263.926 77.21C266.026 77.21 266.446 75.18 266.446 75.18C266.446 75.18 265.816 76.58 264.276 76.58C262.876 76.58 261.686 75.712 261.686 73.626C261.686 73.486 261.686 73.36 261.7 73.22H266.446ZM264.01 70.826C264.99 70.826 265.676 71.47 265.676 72.17C265.676 72.73 265.186 72.8 264.486 72.8H261.77C262.078 71.456 263.128 70.826 264.01 70.826ZM274.912 72.212C275.332 71.694 276.172 71.022 277.012 71.022C277.922 71.022 278.342 71.68 278.342 72.8V76.37L277.222 77H280.162L279.042 76.37V72.59C279.042 71.05 278.272 70.49 277.292 70.49C276.312 70.49 275.402 71.26 274.842 71.876C274.618 70.868 273.946 70.49 273.162 70.49C272.182 70.49 271.272 71.26 270.782 71.792V70.49L268.962 71.05L270.082 71.4V76.37L268.962 77H271.902L270.782 76.37V72.212C271.202 71.694 272.042 71.022 272.882 71.022C273.792 71.022 274.212 71.68 274.212 72.8V76.37L273.092 77H276.032L274.912 76.37V72.212ZM282.606 76.37C282.606 76.762 282.914 77.07 283.306 77.07C283.698 77.07 284.006 76.762 284.006 76.37C284.006 75.978 283.698 75.67 283.306 75.67C282.914 75.67 282.606 75.978 282.606 76.37ZM287.083 67.9C287.083 68.292 287.391 68.6 287.783 68.6H287.853L287.153 70.21C288.413 68.67 288.483 68.39 288.483 67.9C288.483 67.508 288.175 67.2 287.783 67.2C287.391 67.2 287.083 67.508 287.083 67.9ZM289.043 67.9C289.043 68.292 289.351 68.6 289.743 68.6H289.813L289.113 70.21C290.373 68.67 290.443 68.39 290.443 67.9C290.443 67.508 290.135 67.2 289.743 67.2C289.351 67.2 289.043 67.508 289.043 67.9Z" fill="white"/>
</svg>
