<svg width="249" height="22" viewBox="0 0 249 22" fill="none" xmlns="http://www.w3.org/2000/svg">
<rect width="249" height="22" fill="black" fill-opacity="0.69"/>
<path d="M11.108 8.568C9.932 8.568 9.554 7.77 9.554 6.65C9.554 5.502 9.862 4.76 11.108 4.76C12.354 4.76 12.662 5.502 12.662 6.65C12.662 7.77 12.284 8.568 11.108 8.568ZM12.116 8.862C13.334 8.61 13.558 7.63 13.558 6.524C13.558 5.628 13.488 4.088 11.108 4.088C8.728 4.088 8.658 5.628 8.658 6.524C8.658 7.63 8.882 8.61 10.072 8.862L10.1 8.89C8.77 9.184 8.56 10.164 8.56 11.354C8.56 12.628 8.896 14.154 11.108 14.154C13.32 14.154 13.656 12.628 13.656 11.354C13.656 10.164 13.446 9.184 12.116 8.89V8.862ZM11.108 13.482C9.848 13.482 9.456 12.6 9.456 11.466C9.456 10.416 9.568 9.24 11.108 9.24C12.648 9.24 12.76 10.416 12.76 11.466C12.76 12.6 12.368 13.482 11.108 13.482ZM17.1327 7.21C17.1327 5.012 18.0987 4.844 18.7287 4.844C19.3587 4.844 20.3247 5.012 20.3247 7.21V11.032C20.3247 13.23 19.3587 13.398 18.7287 13.398C18.0987 13.398 17.1327 13.23 17.1327 11.032V7.21ZM18.7287 4.088C16.2367 4.088 16.2367 6.23 16.2367 8.064V10.178C16.2367 12.012 16.2367 14.154 18.7287 14.154C21.2207 14.154 21.2207 12.012 21.2207 10.178V8.064C21.2207 6.23 21.2207 4.088 18.7287 4.088ZM23.9974 6.426H24.7394L25.5794 3.892H24.5574L23.9974 6.426ZM31.3031 12.138C31.3031 9.772 28.1251 10.248 28.1251 8.484C28.1251 7.854 28.6011 7.462 29.2031 7.462C30.1551 7.462 30.3931 7.938 30.4351 8.834H31.2611C31.2611 7.756 30.8131 6.79 29.4131 6.79C28.1811 6.79 27.2851 7.252 27.2851 8.554C27.2851 10.892 30.4631 10.416 30.4631 12.264C30.4631 13.048 30.0711 13.51 29.2591 13.51C28.1811 13.51 27.9571 12.866 27.9571 11.9H27.1031C27.0891 13.398 27.6911 14.14 29.2171 14.14C30.5331 14.14 31.3031 13.468 31.3031 12.138ZM39.526 10.36C39.526 9.296 39.694 7.462 41.052 7.462C42.606 7.462 42.648 8.834 42.648 10.486C42.648 12.138 42.606 13.468 41.052 13.468C39.526 13.468 39.526 11.48 39.526 10.36ZM39.498 14V13.146H39.526C39.876 13.804 40.478 14.14 41.304 14.14C43.362 14.14 43.488 12.012 43.488 10.458C43.488 9.198 43.67 6.79 41.374 6.79C40.576 6.79 40.016 7.084 39.582 7.756L39.554 7.728V3.892H38.714V13.3C38.714 13.538 38.672 13.762 38.63 14H39.498ZM49.9187 6.93V11.914C49.9187 12.404 49.5127 13.468 48.3787 13.468C47.1607 13.468 47.2027 11.984 47.2027 11.788V6.93H46.3627V11.928C46.3627 13.076 46.7687 14.14 48.2247 14.14C49.0087 14.14 49.5127 13.818 50.0027 13.216H50.0307V14H50.7587V6.93H49.9187ZM55.0474 14V3.892H54.2074V14H55.0474ZM59.551 14V3.892H58.711V14H59.551ZM64.0545 14V6.93H63.2145V14H64.0545ZM64.1525 4.956V3.892H63.1165V4.956H64.1525ZM72.128 10.64C72.128 8.54 72.128 6.79 69.692 6.79C68.11 6.79 67.256 7.728 67.256 9.772V11.508C67.256 13.65 68.474 14.14 69.692 14.14C71.106 14.14 72.03 13.552 72.128 11.844H71.246C71.26 12.796 70.742 13.468 69.692 13.468C68.362 13.468 68.096 12.166 68.096 11.186V10.64H72.128ZM68.096 9.968C68.096 8.4 68.348 7.462 69.692 7.462C71.036 7.462 71.288 8.4 71.288 9.968H68.096ZM79.0207 12.138C79.0207 9.772 75.8427 10.248 75.8427 8.484C75.8427 7.854 76.3187 7.462 76.9207 7.462C77.8727 7.462 78.1107 7.938 78.1527 8.834H78.9787C78.9787 7.756 78.5307 6.79 77.1307 6.79C75.8987 6.79 75.0027 7.252 75.0027 8.554C75.0027 10.892 78.1807 10.416 78.1807 12.264C78.1807 13.048 77.7887 13.51 76.9767 13.51C75.8987 13.51 75.6747 12.866 75.6747 11.9H74.8207C74.8067 13.398 75.4087 14.14 76.9347 14.14C78.2507 14.14 79.0207 13.468 79.0207 12.138ZM87.2716 9.828C87.2716 8.078 88.2236 7.462 88.7696 7.462C90.1556 7.462 90.3656 8.624 90.3656 10.458C90.3656 12.306 90.1556 13.468 88.7696 13.468C87.9996 13.468 87.2716 12.698 87.2716 11.088V9.828ZM87.2436 6.93H86.4316V16.674H87.2716V13.202L87.2996 13.216C87.7336 13.888 88.2516 14.14 88.7696 14.14C90.5756 14.14 91.2056 13.062 91.2056 11.228V9.646C91.2056 8.722 91.1916 6.79 88.9796 6.79C88.4196 6.79 87.7196 7.084 87.2716 7.77L87.2436 7.784V6.93ZM96.2783 14.14C97.9303 14.14 98.7143 13.062 98.7143 11.228V9.702C98.7143 7.868 97.9303 6.79 96.2783 6.79C94.6263 6.79 93.8423 7.868 93.8423 9.702V11.228C93.8423 13.062 94.6263 14.14 96.2783 14.14ZM96.2783 7.462C97.6643 7.462 97.8743 8.624 97.8743 10.458C97.8743 12.306 97.6643 13.468 96.2783 13.468C94.8923 13.468 94.6823 12.306 94.6823 10.458C94.6823 8.624 94.8923 7.462 96.2783 7.462ZM102.541 6.93H101.701V14H102.541V9.45C102.541 8.26 103.325 7.546 104.515 7.644V6.79C103.661 6.79 102.919 7.21 102.569 7.882H102.541V6.93ZM107.446 7.602V12.656C107.446 13.524 107.782 14.028 108.916 14.028C109.182 14.028 109.462 14.014 109.714 13.986V13.258C109.532 13.286 109.336 13.3 109.056 13.3C108.384 13.3 108.286 13.076 108.286 12.138V7.602H109.714V6.93H108.286V5.11L107.446 5.474V6.93H106.312V7.602H107.446ZM113.134 6.93H112.294V14H113.134V9.45C113.134 8.26 113.918 7.546 115.108 7.644V6.79C114.254 6.79 113.512 7.21 113.162 7.882H113.134V6.93ZM121.132 11.676C121.132 12.6 120.348 13.468 119.382 13.468C118.514 13.468 118.108 12.81 118.108 12.012C118.108 10.29 119.928 10.43 121.132 10.388V11.676ZM121.188 14H122.056C121.972 13.174 121.972 12.726 121.972 12.222V8.666C121.972 6.86 120.488 6.79 119.774 6.79C118.542 6.79 117.492 7.322 117.422 8.68H118.318C118.318 7.84 118.934 7.462 119.704 7.462C120.824 7.462 121.132 8.092 121.132 9.128V9.716C119.704 9.828 117.212 9.576 117.212 12.054C117.212 13.286 117.898 14.14 119.158 14.14C120.026 14.14 120.712 13.804 121.16 13.132H121.188V14ZM126.275 14V6.93H125.435V14H126.275ZM126.373 4.956V3.892H125.337V4.956H126.373ZM130.163 7.602V12.656C130.163 13.524 130.499 14.028 131.633 14.028C131.899 14.028 132.179 14.014 132.431 13.986V13.258C132.249 13.286 132.053 13.3 131.773 13.3C131.101 13.3 131.003 13.076 131.003 12.138V7.602H132.431V6.93H131.003V5.11L130.163 5.474V6.93H129.029V7.602H130.163ZM139.645 10.64C139.645 8.54 139.645 6.79 137.209 6.79C135.627 6.79 134.773 7.728 134.773 9.772V11.508C134.773 13.65 135.991 14.14 137.209 14.14C138.623 14.14 139.547 13.552 139.645 11.844H138.763C138.777 12.796 138.259 13.468 137.209 13.468C135.879 13.468 135.613 12.166 135.613 11.186V10.64H139.645ZM135.613 9.968C135.613 8.4 135.865 7.462 137.209 7.462C138.553 7.462 138.805 8.4 138.805 9.968H135.613ZM144.69 13.468C143.78 13.468 143.15 13.118 143.15 10.486C143.15 8.834 143.15 7.462 144.662 7.462C146.244 7.462 146.244 9.422 146.244 9.842V11.102C146.244 12.824 145.488 13.468 144.69 13.468ZM146.328 14H147.14C147.098 13.762 147.056 13.3 147.056 12.6V3.892H146.216V7.644L146.188 7.63C145.754 7.084 145.124 6.79 144.48 6.79C142.31 6.79 142.31 9.1 142.31 10.458C142.31 12.11 142.422 14.14 144.466 14.14C145.292 14.14 145.824 13.79 146.258 13.118L146.286 13.104L146.328 14ZM155.54 10.36C155.54 9.296 155.708 7.462 157.066 7.462C158.62 7.462 158.662 8.834 158.662 10.486C158.662 12.138 158.62 13.468 157.066 13.468C155.54 13.468 155.54 11.48 155.54 10.36ZM155.512 14V13.146H155.54C155.89 13.804 156.492 14.14 157.318 14.14C159.376 14.14 159.502 12.012 159.502 10.458C159.502 9.198 159.684 6.79 157.388 6.79C156.59 6.79 156.03 7.084 155.596 7.756L155.568 7.728V3.892H154.728V13.3C154.728 13.538 154.686 13.762 154.644 14H155.512ZM163.021 16.674H163.847L166.773 6.93H165.933L164.267 12.726H164.239L162.517 6.93H161.607L163.847 14.014L163.021 16.674ZM174.716 14V9.184H178.692V14H179.588V3.892H178.692V8.428H174.716V3.892H173.82V14H174.716ZM185.099 14.14C186.751 14.14 187.535 13.062 187.535 11.228V9.702C187.535 7.868 186.751 6.79 185.099 6.79C183.447 6.79 182.663 7.868 182.663 9.702V11.228C182.663 13.062 183.447 14.14 185.099 14.14ZM185.099 7.462C186.485 7.462 186.695 8.624 186.695 10.458C186.695 12.306 186.485 13.468 185.099 13.468C183.713 13.468 183.503 12.306 183.503 10.458C183.503 8.624 183.713 7.462 185.099 7.462ZM191.586 14V3.892H190.746V14H191.586ZM196.089 14V3.892H195.249V14H196.089ZM200.173 16.674H200.999L203.925 6.93H203.085L201.419 12.726H201.391L199.669 6.93H198.759L200.999 14.014L200.173 16.674ZM207.546 14H208.596L210.08 7.952H210.108L211.662 14H212.712L214.658 6.93H213.818L212.236 13.118H212.208L210.64 6.93H209.604L208.106 13.118H208.078L206.496 6.93H205.6L207.546 14ZM219.306 14.14C220.958 14.14 221.742 13.062 221.742 11.228V9.702C221.742 7.868 220.958 6.79 219.306 6.79C217.654 6.79 216.87 7.868 216.87 9.702V11.228C216.87 13.062 217.654 14.14 219.306 14.14ZM219.306 7.462C220.692 7.462 220.902 8.624 220.902 10.458C220.902 12.306 220.692 13.468 219.306 13.468C217.92 13.468 217.71 12.306 217.71 10.458C217.71 8.624 217.92 7.462 219.306 7.462ZM226.927 14.14C228.579 14.14 229.363 13.062 229.363 11.228V9.702C229.363 7.868 228.579 6.79 226.927 6.79C225.275 6.79 224.491 7.868 224.491 9.702V11.228C224.491 13.062 225.275 14.14 226.927 14.14ZM226.927 7.462C228.313 7.462 228.523 8.624 228.523 10.458C228.523 12.306 228.313 13.468 226.927 13.468C225.541 13.468 225.331 12.306 225.331 10.458C225.331 8.624 225.541 7.462 226.927 7.462ZM234.407 13.468C233.497 13.468 232.867 13.118 232.867 10.486C232.867 8.834 232.867 7.462 234.379 7.462C235.961 7.462 235.961 9.422 235.961 9.842V11.102C235.961 12.824 235.205 13.468 234.407 13.468ZM236.045 14H236.857C236.815 13.762 236.773 13.3 236.773 12.6V3.892H235.933V7.644L235.905 7.63C235.471 7.084 234.841 6.79 234.197 6.79C232.027 6.79 232.027 9.1 232.027 10.458C232.027 12.11 232.139 14.14 234.183 14.14C235.009 14.14 235.541 13.79 235.975 13.118L236.003 13.104L236.045 14ZM240.096 14H241.132V12.936H240.096V14Z" fill="white"/>
</svg>
