<svg width="369" height="32" viewBox="0 0 369 32" fill="none" xmlns="http://www.w3.org/2000/svg">
<rect width="369" height="32" fill="black" fill-opacity="0.69"/>
<path d="M11.85 20.196C14.244 20.196 14.412 17.83 14.412 17.102H13.46C13.446 18.404 13.012 19.44 11.85 19.44C9.722 19.44 9.694 17.634 9.694 14.946C9.694 12.258 9.722 10.452 11.85 10.452C13.138 10.452 13.446 11.502 13.446 12.622H14.342C14.342 11.712 14.3 9.696 11.85 9.696C8.826 9.696 8.798 12.216 8.798 14.946C8.798 17.676 8.826 20.196 11.85 20.196ZM18.374 20V9.892H17.534V20H18.374ZM25.3695 12.93V17.914C25.3695 18.404 24.9635 19.468 23.8295 19.468C22.6115 19.468 22.6535 17.984 22.6535 17.788V12.93H21.8135V17.928C21.8135 19.076 22.2195 20.14 23.6755 20.14C24.4595 20.14 24.9635 19.818 25.4535 19.216H25.4815V20H26.2095V12.93H25.3695ZM34.0682 16.64C34.0682 14.54 34.0682 12.79 31.6322 12.79C30.0502 12.79 29.1962 13.728 29.1962 15.772V17.508C29.1962 19.65 30.4142 20.14 31.6322 20.14C33.0462 20.14 33.9702 19.552 34.0682 17.844H33.1862C33.2002 18.796 32.6822 19.468 31.6322 19.468C30.3022 19.468 30.0362 18.166 30.0362 17.186V16.64H34.0682ZM30.0362 15.968C30.0362 14.4 30.2882 13.462 31.6322 13.462C32.9762 13.462 33.2282 14.4 33.2282 15.968H30.0362ZM38.1189 20V9.892H37.2789V20H38.1189ZM46.1924 16.64C46.1924 14.54 46.1924 12.79 43.7564 12.79C42.1744 12.79 41.3204 13.728 41.3204 15.772V17.508C41.3204 19.65 42.5384 20.14 43.7564 20.14C45.1704 20.14 46.0944 19.552 46.1924 17.844H45.3104C45.3244 18.796 44.8064 19.468 43.7564 19.468C42.4264 19.468 42.1604 18.166 42.1604 17.186V16.64H46.1924ZM42.1604 15.968C42.1604 14.4 42.4124 13.462 43.7564 13.462C45.1004 13.462 45.3524 14.4 45.3524 15.968H42.1604ZM53.0851 18.138C53.0851 15.772 49.9071 16.248 49.9071 14.484C49.9071 13.854 50.3831 13.462 50.9851 13.462C51.9371 13.462 52.1751 13.938 52.2171 14.834H53.0431C53.0431 13.756 52.5951 12.79 51.1951 12.79C49.9631 12.79 49.0671 13.252 49.0671 14.554C49.0671 16.892 52.2451 16.416 52.2451 18.264C52.2451 19.048 51.8531 19.51 51.0411 19.51C49.9631 19.51 49.7391 18.866 49.7391 17.9H48.8851C48.8711 19.398 49.4731 20.14 50.9991 20.14C52.3151 20.14 53.0851 19.468 53.0851 18.138ZM59.9265 18.138C59.9265 15.772 56.7485 16.248 56.7485 14.484C56.7485 13.854 57.2245 13.462 57.8265 13.462C58.7785 13.462 59.0165 13.938 59.0585 14.834H59.8845C59.8845 13.756 59.4365 12.79 58.0365 12.79C56.8045 12.79 55.9085 13.252 55.9085 14.554C55.9085 16.892 59.0865 16.416 59.0865 18.264C59.0865 19.048 58.6945 19.51 57.8825 19.51C56.8045 19.51 56.5805 18.866 56.5805 17.9H55.7265C55.7125 19.398 56.3145 20.14 57.8405 20.14C59.1565 20.14 59.9265 19.468 59.9265 18.138ZM68.0935 9.598C67.3935 11.628 66.8895 13.728 66.8895 15.884C66.8895 17.928 67.4215 19.916 68.0375 21.848H68.7235C68.1495 19.846 67.7855 17.76 67.7855 15.674C67.7855 13.616 68.2195 11.586 68.7235 9.598H68.0935ZM72.205 12.734C72.821 12.328 73.381 11.866 73.913 11.362V20H74.753V10.242H73.969C73.479 10.844 72.849 11.32 72.205 11.768V12.734ZM81.6037 15.394C80.2457 15.394 80.0777 14.162 80.0777 13.084C80.0777 11.964 80.2737 10.844 81.6597 10.844C83.2697 10.844 83.2837 11.978 83.2837 13.196C83.2837 13.84 83.2277 15.394 81.6037 15.394ZM81.5197 16.15C82.2197 16.15 82.8917 15.898 83.3117 15.296H83.3397C83.2697 18.32 83.3677 19.398 81.5897 19.398C80.5677 19.398 80.1757 18.796 80.1897 17.83H79.2937C79.3357 19.482 80.0637 20.154 81.7017 20.154C84.1237 20.154 84.1797 18.628 84.1797 15.072V13.868C84.1797 11.516 84.0957 10.088 81.6317 10.088C79.6717 10.088 79.1817 11.376 79.1817 13.084C79.1817 15.156 79.7837 16.15 81.5197 16.15ZM89.2244 15.394C87.8664 15.394 87.6984 14.162 87.6984 13.084C87.6984 11.964 87.8944 10.844 89.2804 10.844C90.8904 10.844 90.9044 11.978 90.9044 13.196C90.9044 13.84 90.8484 15.394 89.2244 15.394ZM89.1404 16.15C89.8404 16.15 90.5124 15.898 90.9324 15.296H90.9604C90.8904 18.32 90.9884 19.398 89.2104 19.398C88.1884 19.398 87.7964 18.796 87.8104 17.83H86.9144C86.9564 19.482 87.6844 20.154 89.3224 20.154C91.7444 20.154 91.8004 18.628 91.8004 15.072V13.868C91.8004 11.516 91.7164 10.088 89.2524 10.088C87.2924 10.088 86.8024 11.376 86.8024 13.084C86.8024 15.156 87.4044 16.15 89.1404 16.15ZM97.2231 13.756C96.4531 13.756 96.0611 13.966 95.5011 14.484V10.998H99.1551V10.242H94.6611V15.534H95.4731C95.6131 14.862 96.3691 14.512 96.9991 14.512C98.5531 14.512 98.6511 15.73 98.6511 16.948C98.6511 18.11 98.4971 19.398 97.0271 19.398C95.8651 19.398 95.4311 18.768 95.4591 17.662H94.5631C94.5211 19.37 95.3751 20.154 97.0411 20.154C99.1411 20.154 99.5471 18.572 99.5471 16.948C99.5471 15.772 99.6171 13.756 97.2231 13.756ZM102.282 9.598C102.786 11.586 103.22 13.616 103.22 15.674C103.22 17.76 102.856 19.846 102.282 21.848H102.968C103.584 19.916 104.116 17.928 104.116 15.884C104.116 13.728 103.612 11.628 102.912 9.598H102.282ZM106.981 20H108.017V18.936H106.981V20ZM118.326 9.892L115.134 20H116.03L116.828 17.34H120.79L121.602 20H122.54L119.39 9.892H118.326ZM117.094 16.584L118.802 10.872H118.83L120.552 16.584H117.094ZM127.1 19.468C126.19 19.468 125.56 19.118 125.56 16.486C125.56 14.834 125.56 13.462 127.072 13.462C128.654 13.462 128.654 15.422 128.654 15.842V17.102C128.654 18.824 127.898 19.468 127.1 19.468ZM128.738 20H129.55C129.508 19.762 129.466 19.3 129.466 18.6V9.892H128.626V13.644L128.598 13.63C128.164 13.084 127.534 12.79 126.89 12.79C124.72 12.79 124.72 15.1 124.72 16.458C124.72 18.11 124.832 20.14 126.876 20.14C127.702 20.14 128.234 19.79 128.668 19.118L128.696 19.104L128.738 20ZM134.86 20.14C136.512 20.14 137.296 19.062 137.296 17.228V15.702C137.296 13.868 136.512 12.79 134.86 12.79C133.208 12.79 132.424 13.868 132.424 15.702V17.228C132.424 19.062 133.208 20.14 134.86 20.14ZM134.86 13.462C136.246 13.462 136.456 14.624 136.456 16.458C136.456 18.306 136.246 19.468 134.86 19.468C133.474 19.468 133.264 18.306 133.264 16.458C133.264 14.624 133.474 13.462 134.86 13.462ZM141.347 20V9.892H140.507V20H141.347ZM149.421 16.64C149.421 14.54 149.421 12.79 146.985 12.79C145.403 12.79 144.549 13.728 144.549 15.772V17.508C144.549 19.65 145.767 20.14 146.985 20.14C148.399 20.14 149.323 19.552 149.421 17.844H148.539C148.553 18.796 148.035 19.468 146.985 19.468C145.655 19.468 145.389 18.166 145.389 17.186V16.64H149.421ZM145.389 15.968C145.389 14.4 145.641 13.462 146.985 13.462C148.329 13.462 148.581 14.4 148.581 15.968H145.389ZM156.313 18.138C156.313 15.772 153.135 16.248 153.135 14.484C153.135 13.854 153.611 13.462 154.213 13.462C155.165 13.462 155.403 13.938 155.445 14.834H156.271C156.271 13.756 155.823 12.79 154.423 12.79C153.191 12.79 152.295 13.252 152.295 14.554C152.295 16.892 155.473 16.416 155.473 18.264C155.473 19.048 155.081 19.51 154.269 19.51C153.191 19.51 152.967 18.866 152.967 17.9H152.113C152.099 19.398 152.701 20.14 154.227 20.14C155.543 20.14 156.313 19.468 156.313 18.138ZM163.183 14.96C163.253 13.476 162.427 12.79 161.209 12.79C160.243 12.79 159.445 13.154 159.081 14.162C158.899 14.694 158.871 15.8 158.871 16.5C158.871 18.25 158.871 20.14 161.265 20.14C161.923 20.14 163.267 19.818 163.197 17.914H162.357C162.315 18.768 162.175 19.468 161.069 19.468C159.767 19.468 159.767 17.774 159.767 16.5C159.767 15.562 159.851 14.596 159.963 14.274C160.145 13.756 160.579 13.462 161.097 13.462C162.063 13.462 162.385 14.078 162.343 14.96H163.183ZM170.724 16.64C170.724 14.54 170.724 12.79 168.288 12.79C166.706 12.79 165.852 13.728 165.852 15.772V17.508C165.852 19.65 167.07 20.14 168.288 20.14C169.702 20.14 170.626 19.552 170.724 17.844H169.842C169.856 18.796 169.338 19.468 168.288 19.468C166.958 19.468 166.692 18.166 166.692 17.186V16.64H170.724ZM166.692 15.968C166.692 14.4 166.944 13.462 168.288 13.462C169.632 13.462 169.884 14.4 169.884 15.968H166.692ZM174.495 15.562C174.495 13.98 175.265 13.462 176.021 13.462C177.001 13.462 177.323 14.232 177.323 15.058V20H178.163V15.016C178.163 14.092 177.981 12.79 176.231 12.79C175.475 12.79 174.929 13.21 174.523 13.798H174.495V12.93H173.655V20H174.495V15.562ZM185.265 14.96C185.335 13.476 184.509 12.79 183.291 12.79C182.325 12.79 181.527 13.154 181.163 14.162C180.981 14.694 180.953 15.8 180.953 16.5C180.953 18.25 180.953 20.14 183.347 20.14C184.005 20.14 185.349 19.818 185.279 17.914H184.439C184.397 18.768 184.257 19.468 183.151 19.468C181.849 19.468 181.849 17.774 181.849 16.5C181.849 15.562 181.933 14.596 182.045 14.274C182.227 13.756 182.661 13.462 183.179 13.462C184.145 13.462 184.467 14.078 184.425 14.96H185.265ZM192.807 16.64C192.807 14.54 192.807 12.79 190.371 12.79C188.789 12.79 187.935 13.728 187.935 15.772V17.508C187.935 19.65 189.153 20.14 190.371 20.14C191.785 20.14 192.709 19.552 192.807 17.844H191.925C191.939 18.796 191.421 19.468 190.371 19.468C189.041 19.468 188.775 18.166 188.775 17.186V16.64H192.807ZM188.775 15.968C188.775 14.4 189.027 13.462 190.371 13.462C191.715 13.462 191.967 14.4 191.967 15.968H188.775ZM201.109 15.828C201.109 14.078 202.061 13.462 202.607 13.462C203.993 13.462 204.203 14.624 204.203 16.458C204.203 18.306 203.993 19.468 202.607 19.468C201.837 19.468 201.109 18.698 201.109 17.088V15.828ZM201.081 12.93H200.269V22.674H201.109V19.202L201.137 19.216C201.571 19.888 202.089 20.14 202.607 20.14C204.413 20.14 205.043 19.062 205.043 17.228V15.646C205.043 14.722 205.029 12.79 202.817 12.79C202.257 12.79 201.557 13.084 201.109 13.77L201.081 13.784V12.93ZM210.116 20.14C211.768 20.14 212.552 19.062 212.552 17.228V15.702C212.552 13.868 211.768 12.79 210.116 12.79C208.464 12.79 207.68 13.868 207.68 15.702V17.228C207.68 19.062 208.464 20.14 210.116 20.14ZM210.116 13.462C211.502 13.462 211.712 14.624 211.712 16.458C211.712 18.306 211.502 19.468 210.116 19.468C208.73 19.468 208.52 18.306 208.52 16.458C208.52 14.624 208.73 13.462 210.116 13.462ZM216.379 12.93H215.539V20H216.379V15.45C216.379 14.26 217.163 13.546 218.353 13.644V12.79C217.499 12.79 216.757 13.21 216.407 13.882H216.379V12.93ZM221.283 13.602V18.656C221.283 19.524 221.619 20.028 222.753 20.028C223.019 20.028 223.299 20.014 223.551 19.986V19.258C223.369 19.286 223.173 19.3 222.893 19.3C222.221 19.3 222.123 19.076 222.123 18.138V13.602H223.551V12.93H222.123V11.11L221.283 11.474V12.93H220.149V13.602H221.283ZM226.971 12.93H226.131V20H226.971V15.45C226.971 14.26 227.755 13.546 228.945 13.644V12.79C228.091 12.79 227.349 13.21 226.999 13.882H226.971V12.93ZM234.97 17.676C234.97 18.6 234.186 19.468 233.22 19.468C232.352 19.468 231.946 18.81 231.946 18.012C231.946 16.29 233.766 16.43 234.97 16.388V17.676ZM235.026 20H235.894C235.81 19.174 235.81 18.726 235.81 18.222V14.666C235.81 12.86 234.326 12.79 233.612 12.79C232.38 12.79 231.33 13.322 231.26 14.68H232.156C232.156 13.84 232.772 13.462 233.542 13.462C234.662 13.462 234.97 14.092 234.97 15.128V15.716C233.542 15.828 231.05 15.576 231.05 18.054C231.05 19.286 231.736 20.14 232.996 20.14C233.864 20.14 234.55 19.804 234.998 19.132H235.026V20ZM240.113 20V12.93H239.273V20H240.113ZM240.211 10.956V9.892H239.175V10.956H240.211ZM244 13.602V18.656C244 19.524 244.336 20.028 245.47 20.028C245.736 20.028 246.016 20.014 246.268 19.986V19.258C246.086 19.286 245.89 19.3 245.61 19.3C244.938 19.3 244.84 19.076 244.84 18.138V13.602H246.268V12.93H244.84V11.11L244 11.474V12.93H242.866V13.602H244ZM253.483 16.64C253.483 14.54 253.483 12.79 251.047 12.79C249.465 12.79 248.611 13.728 248.611 15.772V17.508C248.611 19.65 249.829 20.14 251.047 20.14C252.461 20.14 253.385 19.552 253.483 17.844H252.601C252.615 18.796 252.097 19.468 251.047 19.468C249.717 19.468 249.451 18.166 249.451 17.186V16.64H253.483ZM249.451 15.968C249.451 14.4 249.703 13.462 251.047 13.462C252.391 13.462 252.643 14.4 252.643 15.968H249.451ZM258.527 19.468C257.617 19.468 256.987 19.118 256.987 16.486C256.987 14.834 256.987 13.462 258.499 13.462C260.081 13.462 260.081 15.422 260.081 15.842V17.102C260.081 18.824 259.325 19.468 258.527 19.468ZM260.165 20H260.977C260.935 19.762 260.893 19.3 260.893 18.6V9.892H260.053V13.644L260.025 13.63C259.591 13.084 258.961 12.79 258.317 12.79C256.147 12.79 256.147 15.1 256.147 16.458C256.147 18.11 256.259 20.14 258.303 20.14C259.129 20.14 259.661 19.79 260.095 19.118L260.123 19.104L260.165 20ZM269.378 16.36C269.378 15.296 269.546 13.462 270.904 13.462C272.458 13.462 272.5 14.834 272.5 16.486C272.5 18.138 272.458 19.468 270.904 19.468C269.378 19.468 269.378 17.48 269.378 16.36ZM269.35 20V19.146H269.378C269.728 19.804 270.33 20.14 271.156 20.14C273.214 20.14 273.34 18.012 273.34 16.458C273.34 15.198 273.522 12.79 271.226 12.79C270.428 12.79 269.868 13.084 269.434 13.756L269.406 13.728V9.892H268.566V19.3C268.566 19.538 268.524 19.762 268.482 20H269.35ZM276.858 22.674H277.684L280.61 12.93H279.77L278.104 18.726H278.076L276.354 12.93H275.444L277.684 20.014L276.858 22.674ZM288.553 20V15.184H292.529V20H293.425V9.892H292.529V14.428H288.553V9.892H287.657V20H288.553ZM298.937 20.14C300.589 20.14 301.373 19.062 301.373 17.228V15.702C301.373 13.868 300.589 12.79 298.937 12.79C297.285 12.79 296.501 13.868 296.501 15.702V17.228C296.501 19.062 297.285 20.14 298.937 20.14ZM298.937 13.462C300.323 13.462 300.533 14.624 300.533 16.458C300.533 18.306 300.323 19.468 298.937 19.468C297.551 19.468 297.341 18.306 297.341 16.458C297.341 14.624 297.551 13.462 298.937 13.462ZM305.423 20V9.892H304.583V20H305.423ZM309.927 20V9.892H309.087V20H309.927ZM314.01 22.674H314.836L317.762 12.93H316.922L315.256 18.726H315.228L313.506 12.93H312.596L314.836 20.014L314.01 22.674ZM321.384 20H322.434L323.918 13.952H323.946L325.5 20H326.55L328.496 12.93H327.656L326.074 19.118H326.046L324.478 12.93H323.442L321.944 19.118H321.916L320.334 12.93H319.438L321.384 20ZM333.144 20.14C334.796 20.14 335.58 19.062 335.58 17.228V15.702C335.58 13.868 334.796 12.79 333.144 12.79C331.492 12.79 330.708 13.868 330.708 15.702V17.228C330.708 19.062 331.492 20.14 333.144 20.14ZM333.144 13.462C334.53 13.462 334.74 14.624 334.74 16.458C334.74 18.306 334.53 19.468 333.144 19.468C331.758 19.468 331.548 18.306 331.548 16.458C331.548 14.624 331.758 13.462 333.144 13.462ZM340.764 20.14C342.416 20.14 343.2 19.062 343.2 17.228V15.702C343.2 13.868 342.416 12.79 340.764 12.79C339.112 12.79 338.328 13.868 338.328 15.702V17.228C338.328 19.062 339.112 20.14 340.764 20.14ZM340.764 13.462C342.15 13.462 342.36 14.624 342.36 16.458C342.36 18.306 342.15 19.468 340.764 19.468C339.378 19.468 339.168 18.306 339.168 16.458C339.168 14.624 339.378 13.462 340.764 13.462ZM348.245 19.468C347.335 19.468 346.705 19.118 346.705 16.486C346.705 14.834 346.705 13.462 348.217 13.462C349.799 13.462 349.799 15.422 349.799 15.842V17.102C349.799 18.824 349.043 19.468 348.245 19.468ZM349.883 20H350.695C350.653 19.762 350.611 19.3 350.611 18.6V9.892H349.771V13.644L349.743 13.63C349.309 13.084 348.679 12.79 348.035 12.79C345.865 12.79 345.865 15.1 345.865 16.458C345.865 18.11 345.977 20.14 348.021 20.14C348.847 20.14 349.379 19.79 349.813 19.118L349.841 19.104L349.883 20ZM353.934 20H354.97V18.936H353.934V20Z" fill="white"/>
</svg>
