<svg width="347" height="47" viewBox="0 0 347 47" fill="none" xmlns="http://www.w3.org/2000/svg">
<rect width="347" height="47" fill="black" fill-opacity="0.69"/>
<path d="M8.66 17H9.556V7.648H12.02V6.892H6.196V7.648H8.66V17ZM15.3147 17V12.562C15.3147 10.98 16.0847 10.462 16.8407 10.462C17.8207 10.462 18.1427 11.232 18.1427 12.058V17H18.9827V12.016C18.9827 11.092 18.8007 9.79 17.0507 9.79C16.2947 9.79 15.7487 10.21 15.3427 10.798H15.3147V6.892H14.4747V17H15.3147ZM23.2154 17V9.93H22.3754V17H23.2154ZM23.3134 7.956V6.892H22.2774V7.956H23.3134ZM30.5609 15.138C30.5609 12.772 27.3829 13.248 27.3829 11.484C27.3829 10.854 27.8589 10.462 28.4609 10.462C29.4129 10.462 29.6509 10.938 29.6929 11.834H30.5189C30.5189 10.756 30.0709 9.79 28.6709 9.79C27.4389 9.79 26.5429 10.252 26.5429 11.554C26.5429 13.892 29.7209 13.416 29.7209 15.264C29.7209 16.048 29.3289 16.51 28.5169 16.51C27.4389 16.51 27.2149 15.866 27.2149 14.9H26.3609C26.3469 16.398 26.9489 17.14 28.4749 17.14C29.7909 17.14 30.5609 16.468 30.5609 15.138ZM38.1398 9.93H37.2298L39.3298 17H40.2958L42.3958 9.93H41.5838L39.8618 15.936H39.8338L38.1398 9.93ZM45.9053 17V9.93H45.0653V17H45.9053ZM46.0033 7.956V6.892H44.9673V7.956H46.0033ZM51.4028 16.468C50.4928 16.468 49.8628 16.118 49.8628 13.486C49.8628 11.834 49.8628 10.462 51.3748 10.462C52.9568 10.462 52.9568 12.422 52.9568 12.842V14.102C52.9568 15.824 52.2008 16.468 51.4028 16.468ZM53.0408 17H53.8528C53.8108 16.762 53.7688 16.3 53.7688 15.6V6.892H52.9288V10.644L52.9008 10.63C52.4668 10.084 51.8368 9.79 51.1928 9.79C49.0228 9.79 49.0228 12.1 49.0228 13.458C49.0228 15.11 49.1348 17.14 51.1788 17.14C52.0048 17.14 52.5368 16.79 52.9708 16.118L52.9988 16.104L53.0408 17ZM61.5995 13.64C61.5995 11.54 61.5995 9.79 59.1635 9.79C57.5815 9.79 56.7275 10.728 56.7275 12.772V14.508C56.7275 16.65 57.9455 17.14 59.1635 17.14C60.5775 17.14 61.5015 16.552 61.5995 14.844H60.7175C60.7315 15.796 60.2135 16.468 59.1635 16.468C57.8335 16.468 57.5675 15.166 57.5675 14.186V13.64H61.5995ZM57.5675 12.968C57.5675 11.4 57.8195 10.462 59.1635 10.462C60.5075 10.462 60.7595 11.4 60.7595 12.968H57.5675ZM66.7842 17.14C68.4362 17.14 69.2202 16.062 69.2202 14.228V12.702C69.2202 10.868 68.4362 9.79 66.7842 9.79C65.1322 9.79 64.3482 10.868 64.3482 12.702V14.228C64.3482 16.062 65.1322 17.14 66.7842 17.14ZM66.7842 10.462C68.1702 10.462 68.3802 11.624 68.3802 13.458C68.3802 15.306 68.1702 16.468 66.7842 16.468C65.3982 16.468 65.1882 15.306 65.1882 13.458C65.1882 11.624 65.3982 10.462 66.7842 10.462ZM80.6164 15.138C80.6164 12.772 77.4384 13.248 77.4384 11.484C77.4384 10.854 77.9144 10.462 78.5164 10.462C79.4684 10.462 79.7064 10.938 79.7484 11.834H80.5744C80.5744 10.756 80.1264 9.79 78.7264 9.79C77.4944 9.79 76.5984 10.252 76.5984 11.554C76.5984 13.892 79.7764 13.416 79.7764 15.264C79.7764 16.048 79.3844 16.51 78.5724 16.51C77.4944 16.51 77.2704 15.866 77.2704 14.9H76.4164C76.4024 16.398 77.0044 17.14 78.5304 17.14C79.8464 17.14 80.6164 16.468 80.6164 15.138ZM84.3358 17V12.562C84.3358 10.98 85.1058 10.462 85.8618 10.462C86.8418 10.462 87.1638 11.232 87.1638 12.058V17H88.0038V12.016C88.0038 11.092 87.8218 9.79 86.0718 9.79C85.3158 9.79 84.7698 10.21 84.3638 10.798H84.3358V6.892H83.4958V17H84.3358ZM93.3705 17.14C95.0225 17.14 95.8065 16.062 95.8065 14.228V12.702C95.8065 10.868 95.0225 9.79 93.3705 9.79C91.7185 9.79 90.9345 10.868 90.9345 12.702V14.228C90.9345 16.062 91.7185 17.14 93.3705 17.14ZM93.3705 10.462C94.7565 10.462 94.9665 11.624 94.9665 13.458C94.9665 15.306 94.7565 16.468 93.3705 16.468C91.9845 16.468 91.7745 15.306 91.7745 13.458C91.7745 11.624 91.9845 10.462 93.3705 10.462ZM99.9692 17H101.019L102.503 10.952H102.531L104.085 17H105.135L107.081 9.93H106.241L104.659 16.118H104.631L103.063 9.93H102.027L100.529 16.118H100.501L98.9192 9.93H98.0232L99.9692 17ZM113.437 15.138C113.437 12.772 110.259 13.248 110.259 11.484C110.259 10.854 110.735 10.462 111.337 10.462C112.289 10.462 112.527 10.938 112.569 11.834H113.395C113.395 10.756 112.947 9.79 111.547 9.79C110.315 9.79 109.419 10.252 109.419 11.554C109.419 13.892 112.597 13.416 112.597 15.264C112.597 16.048 112.205 16.51 111.393 16.51C110.315 16.51 110.091 15.866 110.091 14.9H109.237C109.223 16.398 109.825 17.14 111.351 17.14C112.667 17.14 113.437 16.468 113.437 15.138ZM121.66 17V12.562C121.66 10.98 122.43 10.462 123.186 10.462C124.166 10.462 124.488 11.232 124.488 12.058V17H125.328V12.016C125.328 11.092 125.146 9.79 123.396 9.79C122.64 9.79 122.094 10.21 121.688 10.798H121.66V6.892H120.82V17H121.66ZM130.695 17.14C132.347 17.14 133.131 16.062 133.131 14.228V12.702C133.131 10.868 132.347 9.79 130.695 9.79C129.043 9.79 128.259 10.868 128.259 12.702V14.228C128.259 16.062 129.043 17.14 130.695 17.14ZM130.695 10.462C132.081 10.462 132.291 11.624 132.291 13.458C132.291 15.306 132.081 16.468 130.695 16.468C129.309 16.468 129.099 15.306 129.099 13.458C129.099 11.624 129.309 10.462 130.695 10.462ZM137.293 17H138.343L139.827 10.952H139.855L141.409 17H142.459L144.405 9.93H143.565L141.983 16.118H141.955L140.387 9.93H139.351L137.853 16.118H137.825L136.243 9.93H135.347L137.293 17ZM152.395 7.648H153.571C156.063 7.648 156.455 8.488 156.455 11.386C156.455 15.516 156.189 16.244 153.487 16.244H152.395V7.648ZM151.499 17H153.809C156.861 17 157.351 15.348 157.351 11.988C157.351 8.544 157.001 6.892 154.173 6.892H151.499V17ZM161.182 19.674H162.008L164.934 9.93H164.094L162.428 15.726H162.4L160.678 9.93H159.768L162.008 17.014L161.182 19.674ZM168.444 17V6.892H167.604V17H168.444ZM175.425 14.676C175.425 15.6 174.641 16.468 173.675 16.468C172.807 16.468 172.401 15.81 172.401 15.012C172.401 13.29 174.221 13.43 175.425 13.388V14.676ZM175.481 17H176.349C176.265 16.174 176.265 15.726 176.265 15.222V11.666C176.265 9.86 174.781 9.79 174.067 9.79C172.835 9.79 171.785 10.322 171.715 11.68H172.611C172.611 10.84 173.227 10.462 173.997 10.462C175.117 10.462 175.425 11.092 175.425 12.128V12.716C173.997 12.828 171.505 12.576 171.505 15.054C171.505 16.286 172.191 17.14 173.451 17.14C174.319 17.14 175.005 16.804 175.453 16.132H175.481V17ZM180.288 12.562C180.288 10.98 181.058 10.462 181.814 10.462C182.794 10.462 183.116 11.232 183.116 12.058V17H183.956V12.016C183.956 11.092 183.774 9.79 182.024 9.79C181.268 9.79 180.722 10.21 180.316 10.798H180.288V9.93H179.448V17H180.288V12.562ZM192.706 17V11.82H192.734L196.388 17H197.508L193.616 11.61L197.396 6.892H196.318L192.734 11.526H192.706V6.892H191.81V17H192.706ZM201.092 17V6.892H200.252V17H201.092ZM209.165 13.64C209.165 11.54 209.165 9.79 206.729 9.79C205.147 9.79 204.293 10.728 204.293 12.772V14.508C204.293 16.65 205.511 17.14 206.729 17.14C208.143 17.14 209.067 16.552 209.165 14.844H208.283C208.297 15.796 207.779 16.468 206.729 16.468C205.399 16.468 205.133 15.166 205.133 14.186V13.64H209.165ZM205.133 12.968C205.133 11.4 205.385 10.462 206.729 10.462C208.073 10.462 208.325 11.4 208.325 12.968H205.133ZM212.936 13.36C212.936 12.296 213.104 10.462 214.462 10.462C216.016 10.462 216.058 11.834 216.058 13.486C216.058 15.138 216.016 16.468 214.462 16.468C212.936 16.468 212.936 14.48 212.936 13.36ZM212.908 17V16.146H212.936C213.286 16.804 213.888 17.14 214.714 17.14C216.772 17.14 216.898 15.012 216.898 13.458C216.898 12.198 217.08 9.79 214.784 9.79C213.986 9.79 213.426 10.084 212.992 10.756L212.964 10.728V6.892H212.124V16.3C212.124 16.538 212.082 16.762 212.04 17H212.908ZM221.971 17.14C223.623 17.14 224.407 16.062 224.407 14.228V12.702C224.407 10.868 223.623 9.79 221.971 9.79C220.319 9.79 219.535 10.868 219.535 12.702V14.228C219.535 16.062 220.319 17.14 221.971 17.14ZM221.971 10.462C223.357 10.462 223.567 11.624 223.567 13.458C223.567 15.306 223.357 16.468 221.971 16.468C220.585 16.468 220.375 15.306 220.375 13.458C220.375 11.624 220.585 10.462 221.971 10.462ZM228.458 17V6.892H227.618V17H228.458ZM233.955 16.468C233.045 16.468 232.415 16.118 232.415 13.486C232.415 11.834 232.415 10.462 233.927 10.462C235.509 10.462 235.509 12.422 235.509 12.842V14.102C235.509 15.824 234.753 16.468 233.955 16.468ZM235.593 17H236.405C236.363 16.762 236.321 16.3 236.321 15.6V6.892H235.481V10.644L235.453 10.63C235.019 10.084 234.389 9.79 233.745 9.79C231.575 9.79 231.575 12.1 231.575 13.458C231.575 15.11 231.687 17.14 233.731 17.14C234.557 17.14 235.089 16.79 235.523 16.118L235.551 16.104L235.593 17ZM247.563 14.676C247.563 15.6 246.779 16.468 245.813 16.468C244.945 16.468 244.539 15.81 244.539 15.012C244.539 13.29 246.359 13.43 247.563 13.388V14.676ZM247.619 17H248.487C248.403 16.174 248.403 15.726 248.403 15.222V11.666C248.403 9.86 246.919 9.79 246.205 9.79C244.973 9.79 243.923 10.322 243.853 11.68H244.749C244.749 10.84 245.365 10.462 246.135 10.462C247.255 10.462 247.563 11.092 247.563 12.128V12.716C246.135 12.828 243.643 12.576 243.643 15.054C243.643 16.286 244.329 17.14 245.589 17.14C246.457 17.14 247.143 16.804 247.591 16.132H247.619V17ZM252.426 12.562C252.426 10.98 253.196 10.462 253.952 10.462C254.932 10.462 255.254 11.232 255.254 12.058V17H256.094V12.016C256.094 11.092 255.912 9.79 254.162 9.79C253.406 9.79 252.86 10.21 252.454 10.798H252.426V9.93H251.586V17H252.426V12.562ZM261.321 16.468C260.411 16.468 259.781 16.118 259.781 13.486C259.781 11.834 259.781 10.462 261.293 10.462C262.875 10.462 262.875 12.422 262.875 12.842V14.102C262.875 15.824 262.119 16.468 261.321 16.468ZM262.959 17H263.771C263.729 16.762 263.687 16.3 263.687 15.6V6.892H262.847V10.644L262.819 10.63C262.385 10.084 261.755 9.79 261.111 9.79C258.941 9.79 258.941 12.1 258.941 13.458C258.941 15.11 259.053 17.14 261.097 17.14C261.923 17.14 262.455 16.79 262.889 16.118L262.917 16.104L262.959 17ZM271.527 6.892V17H276.203V16.244H272.423V12.184H275.937V11.428H272.423V7.648H276.105V6.892H271.527ZM279.848 9.93H279.008V17H279.848V12.45C279.848 11.26 280.632 10.546 281.822 10.644V9.79C280.968 9.79 280.226 10.21 279.876 10.882H279.848V9.93ZM285.368 17V9.93H284.528V17H285.368ZM285.466 7.956V6.892H284.43V7.956H285.466ZM292.742 11.96C292.812 10.476 291.986 9.79 290.768 9.79C289.802 9.79 289.004 10.154 288.64 11.162C288.458 11.694 288.43 12.8 288.43 13.5C288.43 15.25 288.43 17.14 290.824 17.14C291.482 17.14 292.826 16.818 292.756 14.914H291.916C291.874 15.768 291.734 16.468 290.628 16.468C289.326 16.468 289.326 14.774 289.326 13.5C289.326 12.562 289.41 11.596 289.522 11.274C289.704 10.756 290.138 10.462 290.656 10.462C291.622 10.462 291.944 11.078 291.902 11.96H292.742ZM301.147 17V12.184H305.123V17H306.019V6.892H305.123V11.428H301.147V6.892H300.251V17H301.147ZM312.874 14.676C312.874 15.6 312.09 16.468 311.124 16.468C310.256 16.468 309.85 15.81 309.85 15.012C309.85 13.29 311.67 13.43 312.874 13.388V14.676ZM312.93 17H313.798C313.714 16.174 313.714 15.726 313.714 15.222V11.666C313.714 9.86 312.23 9.79 311.516 9.79C310.284 9.79 309.234 10.322 309.164 11.68H310.06C310.06 10.84 310.676 10.462 311.446 10.462C312.566 10.462 312.874 11.092 312.874 12.128V12.716C311.446 12.828 308.954 12.576 308.954 15.054C308.954 16.286 309.64 17.14 310.9 17.14C311.768 17.14 312.454 16.804 312.902 16.132H312.93V17ZM317.793 9.93H316.953V17H317.793V12.45C317.793 11.26 318.577 10.546 319.767 10.644V9.79C318.913 9.79 318.171 10.21 317.821 10.882H317.793V9.93ZM323.089 9.93H322.249V17H323.089V12.45C323.089 11.26 323.873 10.546 325.063 10.644V9.79C324.209 9.79 323.467 10.21 323.117 10.882H323.089V9.93ZM328.61 17V9.93H327.77V17H328.61ZM328.708 7.956V6.892H327.672V7.956H328.708ZM335.955 15.138C335.955 12.772 332.777 13.248 332.777 11.484C332.777 10.854 333.253 10.462 333.855 10.462C334.807 10.462 335.045 10.938 335.087 11.834H335.913C335.913 10.756 335.465 9.79 334.065 9.79C332.833 9.79 331.937 10.252 331.937 11.554C331.937 13.892 335.115 13.416 335.115 15.264C335.115 16.048 334.723 16.51 333.911 16.51C332.833 16.51 332.609 15.866 332.609 14.9H331.755C331.741 16.398 332.343 17.14 333.869 17.14C335.185 17.14 335.955 16.468 335.955 15.138ZM8.086 39H9.136L10.62 32.952H10.648L12.202 39H13.252L15.198 31.93H14.358L12.776 38.118H12.748L11.18 31.93H10.144L8.646 38.118H8.618L7.036 31.93H6.14L8.086 39ZM22.2819 35.64C22.2819 33.54 22.2819 31.79 19.8459 31.79C18.2639 31.79 17.4099 32.728 17.4099 34.772V36.508C17.4099 38.65 18.6279 39.14 19.8459 39.14C21.2599 39.14 22.1839 38.552 22.2819 36.844H21.3999C21.4139 37.796 20.8959 38.468 19.8459 38.468C18.5159 38.468 18.2499 37.166 18.2499 36.186V35.64H22.2819ZM18.2499 34.968C18.2499 33.4 18.5019 32.462 19.8459 32.462C21.1899 32.462 21.4419 33.4 21.4419 34.968H18.2499ZM26.1086 31.93H25.2686V39H26.1086V34.45C26.1086 33.26 26.8926 32.546 28.0826 32.644V31.79C27.2286 31.79 26.4866 32.21 26.1366 32.882H26.1086V31.93ZM35.1991 35.64C35.1991 33.54 35.1991 31.79 32.7631 31.79C31.1811 31.79 30.3271 32.728 30.3271 34.772V36.508C30.3271 38.65 31.5451 39.14 32.7631 39.14C34.1771 39.14 35.1011 38.552 35.1991 36.844H34.3171C34.3311 37.796 33.8131 38.468 32.7631 38.468C31.4331 38.468 31.1671 37.166 31.1671 36.186V35.64H35.1991ZM31.1671 34.968C31.1671 33.4 31.4191 32.462 32.7631 32.462C34.1071 32.462 34.3591 33.4 34.3591 34.968H31.1671ZM46.6233 33.96C46.6933 32.476 45.8673 31.79 44.6493 31.79C43.6833 31.79 42.8853 32.154 42.5213 33.162C42.3393 33.694 42.3113 34.8 42.3113 35.5C42.3113 37.25 42.3113 39.14 44.7053 39.14C45.3633 39.14 46.7073 38.818 46.6373 36.914H45.7973C45.7553 37.768 45.6153 38.468 44.5093 38.468C43.2073 38.468 43.2073 36.774 43.2073 35.5C43.2073 34.562 43.2913 33.596 43.4033 33.274C43.5853 32.756 44.0193 32.462 44.5373 32.462C45.5033 32.462 45.8253 33.078 45.7833 33.96H46.6233ZM51.7287 39.14C53.3807 39.14 54.1647 38.062 54.1647 36.228V34.702C54.1647 32.868 53.3807 31.79 51.7287 31.79C50.0767 31.79 49.2927 32.868 49.2927 34.702V36.228C49.2927 38.062 50.0767 39.14 51.7287 39.14ZM51.7287 32.462C53.1147 32.462 53.3247 33.624 53.3247 35.458C53.3247 37.306 53.1147 38.468 51.7287 38.468C50.3427 38.468 50.1327 37.306 50.1327 35.458C50.1327 33.624 50.3427 32.462 51.7287 32.462ZM57.9354 34.562C57.9354 32.98 58.7054 32.462 59.4614 32.462C60.4414 32.462 60.7634 33.232 60.7634 34.058V39H61.6034V34.016C61.6034 33.092 61.4214 31.79 59.6714 31.79C58.9154 31.79 58.3694 32.21 57.9634 32.798H57.9354V31.93H57.0954V39H57.9354V34.562ZM68.6781 37.138C68.6781 34.772 65.5001 35.248 65.5001 33.484C65.5001 32.854 65.9761 32.462 66.5781 32.462C67.5301 32.462 67.7681 32.938 67.8101 33.834H68.6361C68.6361 32.756 68.1881 31.79 66.7881 31.79C65.5561 31.79 64.6601 32.252 64.6601 33.554C64.6601 35.892 67.8381 35.416 67.8381 37.264C67.8381 38.048 67.4461 38.51 66.6341 38.51C65.5561 38.51 65.3321 37.866 65.3321 36.9H64.4781C64.4641 38.398 65.0661 39.14 66.5921 39.14C67.9081 39.14 68.6781 38.468 68.6781 37.138ZM72.0615 32.602V37.656C72.0615 38.524 72.3975 39.028 73.5315 39.028C73.7975 39.028 74.0775 39.014 74.3295 38.986V38.258C74.1475 38.286 73.9515 38.3 73.6715 38.3C72.9995 38.3 72.9015 38.076 72.9015 37.138V32.602H74.3295V31.93H72.9015V30.11L72.0615 30.474V31.93H70.9275V32.602H72.0615ZM80.452 36.676C80.452 37.6 79.668 38.468 78.702 38.468C77.834 38.468 77.428 37.81 77.428 37.012C77.428 35.29 79.248 35.43 80.452 35.388V36.676ZM80.508 39H81.376C81.292 38.174 81.292 37.726 81.292 37.222V33.666C81.292 31.86 79.808 31.79 79.094 31.79C77.862 31.79 76.812 32.322 76.742 33.68H77.638C77.638 32.84 78.254 32.462 79.024 32.462C80.144 32.462 80.452 33.092 80.452 34.128V34.716C79.024 34.828 76.532 34.576 76.532 37.054C76.532 38.286 77.218 39.14 78.478 39.14C79.346 39.14 80.032 38.804 80.48 38.132H80.508V39ZM85.3147 34.562C85.3147 32.98 86.0847 32.462 86.8407 32.462C87.8207 32.462 88.1427 33.232 88.1427 34.058V39H88.9827V34.016C88.9827 33.092 88.8007 31.79 87.0507 31.79C86.2947 31.79 85.7487 32.21 85.3427 32.798H85.3147V31.93H84.4747V39H85.3147V34.562ZM92.5994 32.602V37.656C92.5994 38.524 92.9354 39.028 94.0694 39.028C94.3354 39.028 94.6154 39.014 94.8674 38.986V38.258C94.6854 38.286 94.4894 38.3 94.2094 38.3C93.5374 38.3 93.4394 38.076 93.4394 37.138V32.602H94.8674V31.93H93.4394V30.11L92.5994 30.474V31.93H91.4654V32.602H92.5994ZM102.735 35.36C102.735 34.296 102.903 32.462 104.261 32.462C105.815 32.462 105.857 33.834 105.857 35.486C105.857 37.138 105.815 38.468 104.261 38.468C102.735 38.468 102.735 36.48 102.735 35.36ZM102.707 39V38.146H102.735C103.085 38.804 103.687 39.14 104.513 39.14C106.571 39.14 106.697 37.012 106.697 35.458C106.697 34.198 106.879 31.79 104.583 31.79C103.785 31.79 103.225 32.084 102.791 32.756L102.763 32.728V28.892H101.923V38.3C101.923 38.538 101.881 38.762 101.839 39H102.707ZM113.128 31.93V36.914C113.128 37.404 112.722 38.468 111.588 38.468C110.37 38.468 110.412 36.984 110.412 36.788V31.93H109.572V36.928C109.572 38.076 109.978 39.14 111.434 39.14C112.218 39.14 112.722 38.818 113.212 38.216H113.24V39H113.968V31.93H113.128ZM118.257 39V28.892H117.417V39H118.257ZM122.76 39V28.892H121.92V39H122.76ZM126.844 41.674H127.67L130.596 31.93H129.756L128.09 37.726H128.062L126.34 31.93H125.43L127.67 39.014L126.844 41.674ZM134.105 39V31.93H133.265V39H134.105ZM134.203 29.956V28.892H133.167V29.956H134.203ZM138.329 34.562C138.329 32.98 139.099 32.462 139.855 32.462C140.835 32.462 141.157 33.232 141.157 34.058V39H141.997V34.016C141.997 33.092 141.815 31.79 140.065 31.79C139.309 31.79 138.763 32.21 138.357 32.798H138.329V31.93H137.489V39H138.329V34.562ZM147.167 32.462C147.951 32.462 148.749 33.022 148.749 34.506C148.749 36.578 148.693 36.9 148.483 37.446C148.357 37.782 147.909 38.244 147.209 38.244C145.683 38.244 145.683 36.774 145.683 35.304C145.683 34.254 145.711 32.462 147.167 32.462ZM148.805 32.812L148.777 32.784C148.469 32.154 147.755 31.79 147.041 31.79C145.613 31.79 145.123 32.896 145.053 33.19C144.857 33.946 144.843 33.96 144.843 35.598C144.843 37.166 144.983 38.916 147.013 38.916C147.685 38.916 148.357 38.664 148.721 38.062H148.749C148.749 40.176 148.847 41.058 147.209 41.058C146.425 41.058 145.823 40.582 145.879 39.77H145.039C144.983 40.484 145.333 41.73 147.097 41.73C149.113 41.73 149.589 40.806 149.589 39.252V33.302C149.589 32.938 149.603 32.588 149.631 31.916H148.805V32.812ZM157.738 32.602V37.656C157.738 38.524 158.074 39.028 159.208 39.028C159.474 39.028 159.754 39.014 160.006 38.986V38.258C159.824 38.286 159.628 38.3 159.348 38.3C158.676 38.3 158.578 38.076 158.578 37.138V32.602H160.006V31.93H158.578V30.11L157.738 30.474V31.93H156.604V32.602H157.738ZM166.128 36.676C166.128 37.6 165.344 38.468 164.378 38.468C163.51 38.468 163.104 37.81 163.104 37.012C163.104 35.29 164.924 35.43 166.128 35.388V36.676ZM166.184 39H167.052C166.968 38.174 166.968 37.726 166.968 37.222V33.666C166.968 31.86 165.484 31.79 164.77 31.79C163.538 31.79 162.488 32.322 162.418 33.68H163.314C163.314 32.84 163.93 32.462 164.7 32.462C165.82 32.462 166.128 33.092 166.128 34.128V34.716C164.7 34.828 162.208 34.576 162.208 37.054C162.208 38.286 162.894 39.14 164.154 39.14C165.022 39.14 165.708 38.804 166.156 38.132H166.184V39ZM171.047 31.93H170.207V39H171.047V34.45C171.047 33.26 171.831 32.546 173.021 32.644V31.79C172.167 31.79 171.425 32.21 171.075 32.882H171.047V31.93ZM177.505 32.462C178.289 32.462 179.087 33.022 179.087 34.506C179.087 36.578 179.031 36.9 178.821 37.446C178.695 37.782 178.247 38.244 177.547 38.244C176.021 38.244 176.021 36.774 176.021 35.304C176.021 34.254 176.049 32.462 177.505 32.462ZM179.143 32.812L179.115 32.784C178.807 32.154 178.093 31.79 177.379 31.79C175.951 31.79 175.461 32.896 175.391 33.19C175.195 33.946 175.181 33.96 175.181 35.598C175.181 37.166 175.321 38.916 177.351 38.916C178.023 38.916 178.695 38.664 179.059 38.062H179.087C179.087 40.176 179.185 41.058 177.547 41.058C176.763 41.058 176.161 40.582 176.217 39.77H175.377C175.321 40.484 175.671 41.73 177.435 41.73C179.451 41.73 179.927 40.806 179.927 39.252V33.302C179.927 32.938 179.941 32.588 179.969 31.916H179.143V32.812ZM187.758 35.64C187.758 33.54 187.758 31.79 185.322 31.79C183.74 31.79 182.886 32.728 182.886 34.772V36.508C182.886 38.65 184.104 39.14 185.322 39.14C186.736 39.14 187.66 38.552 187.758 36.844H186.876C186.89 37.796 186.372 38.468 185.322 38.468C183.992 38.468 183.726 37.166 183.726 36.186V35.64H187.758ZM183.726 34.968C183.726 33.4 183.978 32.462 185.322 32.462C186.666 32.462 186.918 33.4 186.918 34.968H183.726ZM191.193 32.602V37.656C191.193 38.524 191.529 39.028 192.663 39.028C192.929 39.028 193.209 39.014 193.461 38.986V38.258C193.279 38.286 193.083 38.3 192.803 38.3C192.131 38.3 192.033 38.076 192.033 37.138V32.602H193.461V31.93H192.033V30.11L191.193 30.474V31.93H190.059V32.602H191.193ZM199.947 37.138C199.947 34.772 196.769 35.248 196.769 33.484C196.769 32.854 197.245 32.462 197.847 32.462C198.799 32.462 199.037 32.938 199.079 33.834H199.905C199.905 32.756 199.457 31.79 198.057 31.79C196.825 31.79 195.929 32.252 195.929 33.554C195.929 35.892 199.107 35.416 199.107 37.264C199.107 38.048 198.715 38.51 197.903 38.51C196.825 38.51 196.601 37.866 196.601 36.9H195.747C195.733 38.398 196.335 39.14 197.861 39.14C199.177 39.14 199.947 38.468 199.947 37.138ZM203.009 39H204.045V37.936H203.009V39Z" fill="white"/>
</svg>
