<svg width="410" height="49" viewBox="0 0 410 49" fill="none" xmlns="http://www.w3.org/2000/svg">
<rect width="410" height="47" fill="black" fill-opacity="0.69"/>
<path d="M8.84185 5.892V16H9.73785V5.892H8.84185ZM13.9334 11.562C13.9334 9.98 14.7034 9.462 15.4594 9.462C16.4394 9.462 16.7614 10.232 16.7614 11.058V16H17.6014V11.016C17.6014 10.092 17.4194 8.79 15.6694 8.79C14.9134 8.79 14.3674 9.21 13.9614 9.798H13.9334V8.93H13.0934V16H13.9334V11.562ZM25.7216 9.602V14.656C25.7216 15.524 26.0576 16.028 27.1916 16.028C27.4576 16.028 27.7376 16.014 27.9896 15.986V15.258C27.8076 15.286 27.6116 15.3 27.3316 15.3C26.6596 15.3 26.5616 15.076 26.5616 14.138V9.602H27.9896V8.93H26.5616V7.11L25.7216 7.474V8.93H24.5876V9.602H25.7216ZM31.3541 16V11.562C31.3541 9.98 32.1241 9.462 32.8801 9.462C33.8601 9.462 34.1821 10.232 34.1821 11.058V16H35.0221V11.016C35.0221 10.092 34.8401 8.79 33.0901 8.79C32.3341 8.79 31.7881 9.21 31.3821 9.798H31.3541V5.892H30.5141V16H31.3541ZM42.8248 12.64C42.8248 10.54 42.8248 8.79 40.3888 8.79C38.8068 8.79 37.9528 9.728 37.9528 11.772V13.508C37.9528 15.65 39.1708 16.14 40.3888 16.14C41.8028 16.14 42.7268 15.552 42.8248 13.844H41.9428C41.9568 14.796 41.4388 15.468 40.3888 15.468C39.0588 15.468 38.7928 14.166 38.7928 13.186V12.64H42.8248ZM38.7928 11.968C38.7928 10.4 39.0448 9.462 40.3888 9.462C41.7328 9.462 41.9848 10.4 41.9848 11.968H38.7928ZM52.429 11.394C51.071 11.394 50.903 10.162 50.903 9.084C50.903 7.964 51.099 6.844 52.485 6.844C54.095 6.844 54.109 7.978 54.109 9.196C54.109 9.84 54.053 11.394 52.429 11.394ZM52.345 12.15C53.045 12.15 53.717 11.898 54.137 11.296H54.165C54.095 14.32 54.193 15.398 52.415 15.398C51.393 15.398 51.001 14.796 51.015 13.83H50.119C50.161 15.482 50.889 16.154 52.527 16.154C54.949 16.154 55.005 14.628 55.005 11.072V9.868C55.005 7.516 54.921 6.088 52.457 6.088C50.497 6.088 50.007 7.376 50.007 9.084C50.007 11.156 50.609 12.15 52.345 12.15ZM58.5377 9.21C58.5377 7.012 59.5037 6.844 60.1337 6.844C60.7637 6.844 61.7297 7.012 61.7297 9.21V13.032C61.7297 15.23 60.7637 15.398 60.1337 15.398C59.5037 15.398 58.5377 15.23 58.5377 13.032V9.21ZM60.1337 6.088C57.6417 6.088 57.6417 8.23 57.6417 10.064V12.178C57.6417 14.012 57.6417 16.154 60.1337 16.154C62.6257 16.154 62.6257 14.012 62.6257 12.178V10.064C62.6257 8.23 62.6257 6.088 60.1337 6.088ZM65.4024 8.426H66.1444L66.9844 5.892H65.9624L65.4024 8.426ZM72.7081 14.138C72.7081 11.772 69.5301 12.248 69.5301 10.484C69.5301 9.854 70.0061 9.462 70.6081 9.462C71.5601 9.462 71.7981 9.938 71.8401 10.834H72.6661C72.6661 9.756 72.2181 8.79 70.8181 8.79C69.5861 8.79 68.6901 9.252 68.6901 10.554C68.6901 12.892 71.8681 12.416 71.8681 14.264C71.8681 15.048 71.4761 15.51 70.6641 15.51C69.5861 15.51 69.3621 14.866 69.3621 13.9H68.5081C68.4941 15.398 69.0961 16.14 70.6221 16.14C71.9381 16.14 72.7081 15.468 72.7081 14.138ZM80.595 9.602V14.656C80.595 15.524 80.931 16.028 82.065 16.028C82.331 16.028 82.611 16.014 82.863 15.986V15.258C82.681 15.286 82.485 15.3 82.205 15.3C81.533 15.3 81.435 15.076 81.435 14.138V9.602H82.863V8.93H81.435V7.11L80.595 7.474V8.93H79.461V9.602H80.595ZM86.2275 16V11.562C86.2275 9.98 86.9975 9.462 87.7535 9.462C88.7335 9.462 89.0555 10.232 89.0555 11.058V16H89.8955V11.016C89.8955 10.092 89.7135 8.79 87.9635 8.79C87.2075 8.79 86.6615 9.21 86.2555 9.798H86.2275V5.892H85.3875V16H86.2275ZM97.6982 12.64C97.6982 10.54 97.6982 8.79 95.2622 8.79C93.6802 8.79 92.8262 9.728 92.8262 11.772V13.508C92.8262 15.65 94.0442 16.14 95.2622 16.14C96.6762 16.14 97.6002 15.552 97.6982 13.844H96.8162C96.8302 14.796 96.3122 15.468 95.2622 15.468C93.9322 15.468 93.6662 14.166 93.6662 13.186V12.64H97.6982ZM93.6662 11.968C93.6662 10.4 93.9182 9.462 95.2622 9.462C96.6062 9.462 96.8582 10.4 96.8582 11.968H93.6662ZM105.384 5.892V16H106.28V5.892H105.384ZM110.476 11.562C110.476 9.98 111.246 9.462 112.002 9.462C112.982 9.462 113.304 10.232 113.304 11.058V16H114.144V11.016C114.144 10.092 113.962 8.79 112.212 8.79C111.456 8.79 110.91 9.21 110.504 9.798H110.476V8.93H109.636V16H110.476V11.562ZM117.761 9.602V14.656C117.761 15.524 118.097 16.028 119.231 16.028C119.497 16.028 119.777 16.014 120.029 15.986V15.258C119.847 15.286 119.651 15.3 119.371 15.3C118.699 15.3 118.601 15.076 118.601 14.138V9.602H120.029V8.93H118.601V7.11L117.761 7.474V8.93H116.627V9.602H117.761ZM127.243 12.64C127.243 10.54 127.243 8.79 124.807 8.79C123.225 8.79 122.371 9.728 122.371 11.772V13.508C122.371 15.65 123.589 16.14 124.807 16.14C126.221 16.14 127.145 15.552 127.243 13.844H126.361C126.375 14.796 125.857 15.468 124.807 15.468C123.477 15.468 123.211 14.166 123.211 13.186V12.64H127.243ZM123.211 11.968C123.211 10.4 123.463 9.462 124.807 9.462C126.151 9.462 126.403 10.4 126.403 11.968H123.211ZM131.07 8.93H130.23V16H131.07V11.45C131.07 10.26 131.854 9.546 133.044 9.644V8.79C132.19 8.79 131.448 9.21 131.098 9.882H131.07V8.93ZM136.31 11.562C136.31 9.98 137.08 9.462 137.836 9.462C138.816 9.462 139.138 10.232 139.138 11.058V16H139.978V11.016C139.978 10.092 139.796 8.79 138.046 8.79C137.29 8.79 136.744 9.21 136.338 9.798H136.31V8.93H135.47V16H136.31V11.562ZM147.781 12.64C147.781 10.54 147.781 8.79 145.345 8.79C143.763 8.79 142.909 9.728 142.909 11.772V13.508C142.909 15.65 144.127 16.14 145.345 16.14C146.759 16.14 147.683 15.552 147.781 13.844H146.899C146.913 14.796 146.395 15.468 145.345 15.468C144.015 15.468 143.749 14.166 143.749 13.186V12.64H147.781ZM143.749 11.968C143.749 10.4 144.001 9.462 145.345 9.462C146.689 9.462 146.941 10.4 146.941 11.968H143.749ZM151.216 9.602V14.656C151.216 15.524 151.552 16.028 152.686 16.028C152.952 16.028 153.232 16.014 153.484 15.986V15.258C153.302 15.286 153.106 15.3 152.826 15.3C152.154 15.3 152.056 15.076 152.056 14.138V9.602H153.484V8.93H152.056V7.11L151.216 7.474V8.93H150.082V9.602H151.216ZM161.744 16H162.794L164.278 9.952H164.306L165.86 16H166.91L168.856 8.93H168.016L166.434 15.118H166.406L164.838 8.93H163.802L162.304 15.118H162.276L160.694 8.93H159.798L161.744 16ZM174.848 13.676C174.848 14.6 174.064 15.468 173.098 15.468C172.23 15.468 171.824 14.81 171.824 14.012C171.824 12.29 173.644 12.43 174.848 12.388V13.676ZM174.904 16H175.772C175.688 15.174 175.688 14.726 175.688 14.222V10.666C175.688 8.86 174.204 8.79 173.49 8.79C172.258 8.79 171.208 9.322 171.138 10.68H172.034C172.034 9.84 172.65 9.462 173.42 9.462C174.54 9.462 174.848 10.092 174.848 11.128V11.716C173.42 11.828 170.928 11.576 170.928 14.054C170.928 15.286 171.614 16.14 172.874 16.14C173.742 16.14 174.428 15.804 174.876 15.132H174.904V16ZM182.832 14.138C182.832 11.772 179.654 12.248 179.654 10.484C179.654 9.854 180.13 9.462 180.732 9.462C181.684 9.462 181.922 9.938 181.964 10.834H182.79C182.79 9.756 182.342 8.79 180.942 8.79C179.71 8.79 178.814 9.252 178.814 10.554C178.814 12.892 181.992 12.416 181.992 14.264C181.992 15.048 181.6 15.51 180.788 15.51C179.71 15.51 179.486 14.866 179.486 13.9H178.632C178.618 15.398 179.22 16.14 180.746 16.14C182.062 16.14 182.832 15.468 182.832 14.138ZM191.055 12.36C191.055 11.296 191.223 9.462 192.581 9.462C194.135 9.462 194.177 10.834 194.177 12.486C194.177 14.138 194.135 15.468 192.581 15.468C191.055 15.468 191.055 13.48 191.055 12.36ZM191.027 16V15.146H191.055C191.405 15.804 192.007 16.14 192.833 16.14C194.891 16.14 195.017 14.012 195.017 12.458C195.017 11.198 195.199 8.79 192.903 8.79C192.105 8.79 191.545 9.084 191.111 9.756L191.083 9.728V5.892H190.243V15.3C190.243 15.538 190.201 15.762 190.159 16H191.027ZM200.09 16.14C201.742 16.14 202.526 15.062 202.526 13.228V11.702C202.526 9.868 201.742 8.79 200.09 8.79C198.438 8.79 197.654 9.868 197.654 11.702V13.228C197.654 15.062 198.438 16.14 200.09 16.14ZM200.09 9.462C201.476 9.462 201.686 10.624 201.686 12.458C201.686 14.306 201.476 15.468 200.09 15.468C198.704 15.468 198.494 14.306 198.494 12.458C198.494 10.624 198.704 9.462 200.09 9.462ZM206.353 8.93H205.513V16H206.353V11.45C206.353 10.26 207.137 9.546 208.327 9.644V8.79C207.473 8.79 206.731 9.21 206.381 9.882H206.353V8.93ZM211.593 11.562C211.593 9.98 212.363 9.462 213.119 9.462C214.099 9.462 214.421 10.232 214.421 11.058V16H215.261V11.016C215.261 10.092 215.079 8.79 213.329 8.79C212.573 8.79 212.027 9.21 211.621 9.798H211.593V8.93H210.753V16H211.593V11.562ZM218.276 17.47H219.018L219.858 14.936H218.836L218.276 17.47ZM230.979 13.676C230.979 14.6 230.195 15.468 229.229 15.468C228.361 15.468 227.955 14.81 227.955 14.012C227.955 12.29 229.775 12.43 230.979 12.388V13.676ZM231.035 16H231.903C231.819 15.174 231.819 14.726 231.819 14.222V10.666C231.819 8.86 230.335 8.79 229.621 8.79C228.389 8.79 227.339 9.322 227.269 10.68H228.165C228.165 9.84 228.781 9.462 229.551 9.462C230.671 9.462 230.979 10.092 230.979 11.128V11.716C229.551 11.828 227.059 11.576 227.059 14.054C227.059 15.286 227.745 16.14 229.005 16.14C229.873 16.14 230.559 15.804 231.007 15.132H231.035V16ZM235.842 11.562C235.842 9.98 236.612 9.462 237.368 9.462C238.348 9.462 238.67 10.232 238.67 11.058V16H239.51V11.016C239.51 10.092 239.328 8.79 237.578 8.79C236.822 8.79 236.276 9.21 235.87 9.798H235.842V8.93H235.002V16H235.842V11.562ZM244.736 15.468C243.826 15.468 243.196 15.118 243.196 12.486C243.196 10.834 243.196 9.462 244.708 9.462C246.29 9.462 246.29 11.422 246.29 11.842V13.102C246.29 14.824 245.534 15.468 244.736 15.468ZM246.374 16H247.186C247.144 15.762 247.102 15.3 247.102 14.6V5.892H246.262V9.644L246.234 9.63C245.8 9.084 245.17 8.79 244.526 8.79C242.356 8.79 242.356 11.1 242.356 12.458C242.356 14.11 242.468 16.14 244.512 16.14C245.338 16.14 245.87 15.79 246.304 15.118L246.332 15.104L246.374 16ZM258.708 14.138C258.708 11.772 255.53 12.248 255.53 10.484C255.53 9.854 256.006 9.462 256.608 9.462C257.56 9.462 257.798 9.938 257.84 10.834H258.666C258.666 9.756 258.218 8.79 256.818 8.79C255.586 8.79 254.69 9.252 254.69 10.554C254.69 12.892 257.868 12.416 257.868 14.264C257.868 15.048 257.476 15.51 256.664 15.51C255.586 15.51 255.362 14.866 255.362 13.9H254.508C254.494 15.398 255.096 16.14 256.622 16.14C257.938 16.14 258.708 15.468 258.708 14.138ZM263.842 16.14C265.494 16.14 266.278 15.062 266.278 13.228V11.702C266.278 9.868 265.494 8.79 263.842 8.79C262.19 8.79 261.406 9.868 261.406 11.702V13.228C261.406 15.062 262.19 16.14 263.842 16.14ZM263.842 9.462C265.228 9.462 265.438 10.624 265.438 12.458C265.438 14.306 265.228 15.468 263.842 15.468C262.456 15.468 262.246 14.306 262.246 12.458C262.246 10.624 262.456 9.462 263.842 9.462ZM274.944 16H275.994L277.478 9.952H277.506L279.06 16H280.11L282.056 8.93H281.216L279.634 15.118H279.606L278.038 8.93H277.002L275.504 15.118H275.476L273.894 8.93H272.998L274.944 16ZM288.048 13.676C288.048 14.6 287.264 15.468 286.298 15.468C285.43 15.468 285.024 14.81 285.024 14.012C285.024 12.29 286.844 12.43 288.048 12.388V13.676ZM288.104 16H288.972C288.888 15.174 288.888 14.726 288.888 14.222V10.666C288.888 8.86 287.404 8.79 286.69 8.79C285.458 8.79 284.408 9.322 284.338 10.68H285.234C285.234 9.84 285.85 9.462 286.62 9.462C287.74 9.462 288.048 10.092 288.048 11.128V11.716C286.62 11.828 284.128 11.576 284.128 14.054C284.128 15.286 284.814 16.14 286.074 16.14C286.942 16.14 287.628 15.804 288.076 15.132H288.104V16ZM296.033 14.138C296.033 11.772 292.855 12.248 292.855 10.484C292.855 9.854 293.331 9.462 293.933 9.462C294.885 9.462 295.123 9.938 295.165 10.834H295.991C295.991 9.756 295.543 8.79 294.143 8.79C292.911 8.79 292.015 9.252 292.015 10.554C292.015 12.892 295.193 12.416 295.193 14.264C295.193 15.048 294.801 15.51 293.989 15.51C292.911 15.51 292.687 14.866 292.687 13.9H291.833C291.819 15.398 292.421 16.14 293.947 16.14C295.263 16.14 296.033 15.468 296.033 14.138ZM303.92 9.602V14.656C303.92 15.524 304.256 16.028 305.39 16.028C305.656 16.028 305.936 16.014 306.188 15.986V15.258C306.006 15.286 305.81 15.3 305.53 15.3C304.858 15.3 304.76 15.076 304.76 14.138V9.602H306.188V8.93H304.76V7.11L303.92 7.474V8.93H302.786V9.602H303.92ZM309.552 16V11.562C309.552 9.98 310.322 9.462 311.078 9.462C312.058 9.462 312.38 10.232 312.38 11.058V16H313.22V11.016C313.22 10.092 313.038 8.79 311.288 8.79C310.532 8.79 309.986 9.21 309.58 9.798H309.552V5.892H308.712V16H309.552ZM321.023 12.64C321.023 10.54 321.023 8.79 318.587 8.79C317.005 8.79 316.151 9.728 316.151 11.772V13.508C316.151 15.65 317.369 16.14 318.587 16.14C320.001 16.14 320.925 15.552 321.023 13.844H320.141C320.155 14.796 319.637 15.468 318.587 15.468C317.257 15.468 316.991 14.166 316.991 13.186V12.64H321.023ZM316.991 11.968C316.991 10.4 317.243 9.462 318.587 9.462C319.931 9.462 320.183 10.4 320.183 11.968H316.991ZM333.147 12.64C333.147 10.54 333.147 8.79 330.711 8.79C329.129 8.79 328.275 9.728 328.275 11.772V13.508C328.275 15.65 329.493 16.14 330.711 16.14C332.125 16.14 333.049 15.552 333.147 13.844H332.265C332.279 14.796 331.761 15.468 330.711 15.468C329.381 15.468 329.115 14.166 329.115 13.186V12.64H333.147ZM329.115 11.968C329.115 10.4 329.367 9.462 330.711 9.462C332.055 9.462 332.307 10.4 332.307 11.968H329.115ZM339.676 13.676C339.676 14.6 338.892 15.468 337.926 15.468C337.058 15.468 336.652 14.81 336.652 14.012C336.652 12.29 338.472 12.43 339.676 12.388V13.676ZM339.732 16H340.6C340.516 15.174 340.516 14.726 340.516 14.222V10.666C340.516 8.86 339.032 8.79 338.318 8.79C337.086 8.79 336.036 9.322 335.966 10.68H336.862C336.862 9.84 337.478 9.462 338.248 9.462C339.368 9.462 339.676 10.092 339.676 11.128V11.716C338.248 11.828 335.756 11.576 335.756 14.054C335.756 15.286 336.442 16.14 337.702 16.14C338.57 16.14 339.256 15.804 339.704 15.132H339.732V16ZM347.66 14.138C347.66 11.772 344.482 12.248 344.482 10.484C344.482 9.854 344.958 9.462 345.56 9.462C346.512 9.462 346.75 9.938 346.792 10.834H347.618C347.618 9.756 347.17 8.79 345.77 8.79C344.538 8.79 343.642 9.252 343.642 10.554C343.642 12.892 346.82 12.416 346.82 14.264C346.82 15.048 346.428 15.51 345.616 15.51C344.538 15.51 344.314 14.866 344.314 13.9H343.46C343.446 15.398 344.048 16.14 345.574 16.14C346.89 16.14 347.66 15.468 347.66 14.138ZM351.24 18.674H352.066L354.992 8.93H354.152L352.486 14.726H352.458L350.736 8.93H349.826L352.066 16.014L351.24 18.674ZM365.483 13.676C365.483 14.6 364.699 15.468 363.733 15.468C362.865 15.468 362.459 14.81 362.459 14.012C362.459 12.29 364.279 12.43 365.483 12.388V13.676ZM365.539 16H366.407C366.323 15.174 366.323 14.726 366.323 14.222V10.666C366.323 8.86 364.839 8.79 364.125 8.79C362.893 8.79 361.843 9.322 361.773 10.68H362.669C362.669 9.84 363.285 9.462 364.055 9.462C365.175 9.462 365.483 10.092 365.483 11.128V11.716C364.055 11.828 361.563 11.576 361.563 14.054C361.563 15.286 362.249 16.14 363.509 16.14C364.377 16.14 365.063 15.804 365.511 15.132H365.539V16ZM373.495 10.96C373.565 9.476 372.739 8.79 371.521 8.79C370.555 8.79 369.757 9.154 369.393 10.162C369.211 10.694 369.183 11.8 369.183 12.5C369.183 14.25 369.183 16.14 371.577 16.14C372.235 16.14 373.579 15.818 373.509 13.914H372.669C372.627 14.768 372.487 15.468 371.381 15.468C370.079 15.468 370.079 13.774 370.079 12.5C370.079 11.562 370.163 10.596 370.275 10.274C370.457 9.756 370.891 9.462 371.409 9.462C372.375 9.462 372.697 10.078 372.655 10.96H373.495ZM380.337 10.96C380.407 9.476 379.581 8.79 378.363 8.79C377.397 8.79 376.599 9.154 376.235 10.162C376.053 10.694 376.025 11.8 376.025 12.5C376.025 14.25 376.025 16.14 378.419 16.14C379.077 16.14 380.421 15.818 380.351 13.914H379.511C379.469 14.768 379.329 15.468 378.223 15.468C376.921 15.468 376.921 13.774 376.921 12.5C376.921 11.562 377.005 10.596 377.117 10.274C377.299 9.756 377.733 9.462 378.251 9.462C379.217 9.462 379.539 10.078 379.497 10.96H380.337ZM387.878 12.64C387.878 10.54 387.878 8.79 385.442 8.79C383.86 8.79 383.006 9.728 383.006 11.772V13.508C383.006 15.65 384.224 16.14 385.442 16.14C386.856 16.14 387.78 15.552 387.878 13.844H386.996C387.01 14.796 386.492 15.468 385.442 15.468C384.112 15.468 383.846 14.166 383.846 13.186V12.64H387.878ZM383.846 11.968C383.846 10.4 384.098 9.462 385.442 9.462C386.786 9.462 387.038 10.4 387.038 11.968H383.846ZM394.771 14.138C394.771 11.772 391.593 12.248 391.593 10.484C391.593 9.854 392.069 9.462 392.671 9.462C393.623 9.462 393.861 9.938 393.903 10.834H394.729C394.729 9.756 394.281 8.79 392.881 8.79C391.649 8.79 390.753 9.252 390.753 10.554C390.753 12.892 393.931 12.416 393.931 14.264C393.931 15.048 393.539 15.51 392.727 15.51C391.649 15.51 391.425 14.866 391.425 13.9H390.571C390.557 15.398 391.159 16.14 392.685 16.14C394.001 16.14 394.771 15.468 394.771 14.138ZM401.612 14.138C401.612 11.772 398.434 12.248 398.434 10.484C398.434 9.854 398.91 9.462 399.512 9.462C400.464 9.462 400.702 9.938 400.744 10.834H401.57C401.57 9.756 401.122 8.79 399.722 8.79C398.49 8.79 397.594 9.252 397.594 10.554C397.594 12.892 400.772 12.416 400.772 14.264C400.772 15.048 400.38 15.51 399.568 15.51C398.49 15.51 398.266 14.866 398.266 13.9H397.412C397.398 15.398 398 16.14 399.526 16.14C400.842 16.14 401.612 15.468 401.612 14.138ZM9.09385 31.602V36.656C9.09385 37.524 9.42985 38.028 10.5638 38.028C10.8298 38.028 11.1098 38.014 11.3618 37.986V37.258C11.1798 37.286 10.9838 37.3 10.7038 37.3C10.0318 37.3 9.93385 37.076 9.93385 36.138V31.602H11.3618V30.93H9.93385V29.11L9.09385 29.474V30.93H7.95985V31.602H9.09385ZM16.1403 38.14C17.7923 38.14 18.5763 37.062 18.5763 35.228V33.702C18.5763 31.868 17.7923 30.79 16.1403 30.79C14.4883 30.79 13.7043 31.868 13.7043 33.702V35.228C13.7043 37.062 14.4883 38.14 16.1403 38.14ZM16.1403 31.462C17.5263 31.462 17.7363 32.624 17.7363 34.458C17.7363 36.306 17.5263 37.468 16.1403 37.468C14.7543 37.468 14.5443 36.306 14.5443 34.458C14.5443 32.624 14.7543 31.462 16.1403 31.462ZM29.6086 35.676C29.6086 36.6 28.8246 37.468 27.8586 37.468C26.9906 37.468 26.5846 36.81 26.5846 36.012C26.5846 34.29 28.4046 34.43 29.6086 34.388V35.676ZM29.6646 38H30.5326C30.4486 37.174 30.4486 36.726 30.4486 36.222V32.666C30.4486 30.86 28.9646 30.79 28.2506 30.79C27.0186 30.79 25.9686 31.322 25.8986 32.68H26.7946C26.7946 31.84 27.4106 31.462 28.1806 31.462C29.3006 31.462 29.6086 32.092 29.6086 33.128V33.716C28.1806 33.828 25.6886 33.576 25.6886 36.054C25.6886 37.286 26.3746 38.14 27.6346 38.14C28.5026 38.14 29.1886 37.804 29.6366 37.132H29.6646V38ZM39.2548 38V27.892H38.4148V38H39.2548ZM44.8923 38.14C46.5443 38.14 47.3283 37.062 47.3283 35.228V33.702C47.3283 31.868 46.5443 30.79 44.8923 30.79C43.2403 30.79 42.4563 31.868 42.4563 33.702V35.228C42.4563 37.062 43.2403 38.14 44.8923 38.14ZM44.8923 31.462C46.2783 31.462 46.4883 32.624 46.4883 34.458C46.4883 36.306 46.2783 37.468 44.8923 37.468C43.5063 37.468 43.2963 36.306 43.2963 34.458C43.2963 32.624 43.5063 31.462 44.8923 31.462ZM50.763 31.602V36.656C50.763 37.524 51.099 38.028 52.233 38.028C52.499 38.028 52.779 38.014 53.031 37.986V37.258C52.849 37.286 52.653 37.3 52.373 37.3C51.701 37.3 51.603 37.076 51.603 36.138V31.602H53.031V30.93H51.603V29.11L50.763 29.474V30.93H49.629V31.602H50.763ZM62.313 38.14C63.965 38.14 64.749 37.062 64.749 35.228V33.702C64.749 31.868 63.965 30.79 62.313 30.79C60.661 30.79 59.877 31.868 59.877 33.702V35.228C59.877 37.062 60.661 38.14 62.313 38.14ZM62.313 31.462C63.699 31.462 63.909 32.624 63.909 34.458C63.909 36.306 63.699 37.468 62.313 37.468C60.927 37.468 60.717 36.306 60.717 34.458C60.717 32.624 60.927 31.462 62.313 31.462ZM68.2257 38H69.0657V31.602H70.4937V30.93H69.0657V29.726C69.0657 29.32 69.0657 28.592 69.8777 28.592H70.5077V27.892C70.2977 27.864 70.1577 27.836 70.0317 27.836C68.3237 27.836 68.2257 29.068 68.2257 29.74V30.93H67.0917V31.602H68.2257V38ZM77.9837 31.602V36.656C77.9837 37.524 78.3197 38.028 79.4537 38.028C79.7197 38.028 79.9997 38.014 80.2517 37.986V37.258C80.0697 37.286 79.8737 37.3 79.5937 37.3C78.9217 37.3 78.8237 37.076 78.8237 36.138V31.602H80.2517V30.93H78.8237V29.11L77.9837 29.474V30.93H76.8497V31.602H77.9837ZM83.6162 38V33.562C83.6162 31.98 84.3862 31.462 85.1422 31.462C86.1222 31.462 86.4442 32.232 86.4442 33.058V38H87.2842V33.016C87.2842 32.092 87.1022 30.79 85.3522 30.79C84.5962 30.79 84.0502 31.21 83.6442 31.798H83.6162V27.892H82.7762V38H83.6162ZM91.5169 38V30.93H90.6769V38H91.5169ZM91.6149 28.956V27.892H90.5789V28.956H91.6149ZM95.7404 33.562C95.7404 31.98 96.5104 31.462 97.2664 31.462C98.2464 31.462 98.5684 32.232 98.5684 33.058V38H99.4084V33.016C99.4084 32.092 99.2264 30.79 97.4764 30.79C96.7204 30.79 96.1744 31.21 95.7684 31.798H95.7404V30.93H94.9004V38H95.7404V33.562ZM104.579 31.462C105.363 31.462 106.161 32.022 106.161 33.506C106.161 35.578 106.105 35.9 105.895 36.446C105.769 36.782 105.321 37.244 104.621 37.244C103.095 37.244 103.095 35.774 103.095 34.304C103.095 33.254 103.123 31.462 104.579 31.462ZM106.217 31.812L106.189 31.784C105.881 31.154 105.167 30.79 104.453 30.79C103.025 30.79 102.535 31.896 102.465 32.19C102.269 32.946 102.255 32.96 102.255 34.598C102.255 36.166 102.395 37.916 104.425 37.916C105.097 37.916 105.769 37.664 106.133 37.062H106.161C106.161 39.176 106.259 40.058 104.621 40.058C103.837 40.058 103.235 39.582 103.291 38.77H102.451C102.395 39.484 102.745 40.73 104.509 40.73C106.525 40.73 107.001 39.806 107.001 38.252V32.302C107.001 31.938 107.015 31.588 107.043 30.916H106.217V31.812ZM114.104 36.138C114.104 33.772 110.926 34.248 110.926 32.484C110.926 31.854 111.402 31.462 112.004 31.462C112.956 31.462 113.194 31.938 113.236 32.834H114.062C114.062 31.756 113.614 30.79 112.214 30.79C110.982 30.79 110.086 31.252 110.086 32.554C110.086 34.892 113.264 34.416 113.264 36.264C113.264 37.048 112.872 37.51 112.06 37.51C110.982 37.51 110.758 36.866 110.758 35.9H109.904C109.89 37.398 110.492 38.14 112.018 38.14C113.334 38.14 114.104 37.468 114.104 36.138ZM125.085 35.676C125.085 36.6 124.301 37.468 123.335 37.468C122.467 37.468 122.061 36.81 122.061 36.012C122.061 34.29 123.881 34.43 125.085 34.388V35.676ZM125.141 38H126.009C125.925 37.174 125.925 36.726 125.925 36.222V32.666C125.925 30.86 124.441 30.79 123.727 30.79C122.495 30.79 121.445 31.322 121.375 32.68H122.271C122.271 31.84 122.887 31.462 123.657 31.462C124.777 31.462 125.085 32.092 125.085 33.128V33.716C123.657 33.828 121.165 33.576 121.165 36.054C121.165 37.286 121.851 38.14 123.111 38.14C123.979 38.14 124.665 37.804 125.113 37.132H125.141V38ZM129.947 33.562C129.947 31.98 130.717 31.462 131.473 31.462C132.453 31.462 132.775 32.232 132.775 33.058V38H133.615V33.016C133.615 32.092 133.433 30.79 131.683 30.79C130.927 30.79 130.381 31.21 129.975 31.798H129.947V30.93H129.107V38H129.947V33.562ZM138.842 37.468C137.932 37.468 137.302 37.118 137.302 34.486C137.302 32.834 137.302 31.462 138.814 31.462C140.396 31.462 140.396 33.422 140.396 33.842V35.102C140.396 36.824 139.64 37.468 138.842 37.468ZM140.48 38H141.292C141.25 37.762 141.208 37.3 141.208 36.6V27.892H140.368V31.644L140.34 31.63C139.906 31.084 139.276 30.79 138.632 30.79C136.462 30.79 136.462 33.1 136.462 34.458C136.462 36.11 136.574 38.14 138.618 38.14C139.444 38.14 139.976 37.79 140.41 37.118L140.438 37.104L140.48 38ZM149.972 38V30.93H149.132V38H149.972ZM150.07 28.956V27.892H149.034V28.956H150.07ZM154.196 33.562C154.196 31.98 154.966 31.462 155.722 31.462C156.702 31.462 157.024 32.232 157.024 33.058V38H157.864V33.016C157.864 32.092 157.682 30.79 155.932 30.79C155.176 30.79 154.63 31.21 154.224 31.798H154.196V30.93H153.356V38H154.196V33.562ZM161.523 38H162.363V31.602H163.791V30.93H162.363V29.726C162.363 29.32 162.363 28.592 163.175 28.592H163.805V27.892C163.595 27.864 163.455 27.836 163.329 27.836C161.621 27.836 161.523 29.068 161.523 29.74V30.93H160.389V31.602H161.523V38ZM168.527 38.14C170.179 38.14 170.963 37.062 170.963 35.228V33.702C170.963 31.868 170.179 30.79 168.527 30.79C166.875 30.79 166.091 31.868 166.091 33.702V35.228C166.091 37.062 166.875 38.14 168.527 38.14ZM168.527 31.462C169.913 31.462 170.123 32.624 170.123 34.458C170.123 36.306 169.913 37.468 168.527 37.468C167.141 37.468 166.931 36.306 166.931 34.458C166.931 32.624 167.141 31.462 168.527 31.462ZM174.79 30.93H173.95V38H174.79V33.45C174.79 32.26 175.574 31.546 176.764 31.644V30.79C175.91 30.79 175.168 31.21 174.818 31.882H174.79V30.93ZM180.016 33.45C180.016 32.526 180.422 31.462 181.486 31.462C182.312 31.462 182.564 32.246 182.578 32.946V38H183.418V33.45C183.418 32.526 183.824 31.462 184.888 31.462C185.714 31.462 185.966 32.246 185.98 32.946V38H186.82V32.736C186.778 31.602 186.162 30.79 184.986 30.79C184.202 30.79 183.6 31.196 183.25 31.896C183.012 31.196 182.368 30.79 181.64 30.79C180.856 30.79 180.296 31.224 179.96 31.798H179.932V30.916H179.176V38H180.016V33.45ZM193.526 35.676C193.526 36.6 192.742 37.468 191.776 37.468C190.908 37.468 190.502 36.81 190.502 36.012C190.502 34.29 192.322 34.43 193.526 34.388V35.676ZM193.582 38H194.45C194.366 37.174 194.366 36.726 194.366 36.222V32.666C194.366 30.86 192.882 30.79 192.168 30.79C190.936 30.79 189.886 31.322 189.816 32.68H190.712C190.712 31.84 191.328 31.462 192.098 31.462C193.218 31.462 193.526 32.092 193.526 33.128V33.716C192.098 33.828 189.606 33.576 189.606 36.054C189.606 37.286 190.292 38.14 191.552 38.14C192.42 38.14 193.106 37.804 193.554 37.132H193.582V38ZM198.053 31.602V36.656C198.053 37.524 198.389 38.028 199.523 38.028C199.789 38.028 200.069 38.014 200.321 37.986V37.258C200.139 37.286 199.943 37.3 199.663 37.3C198.991 37.3 198.893 37.076 198.893 36.138V31.602H200.321V30.93H198.893V29.11L198.053 29.474V30.93H196.919V31.602H198.053ZM203.965 38V30.93H203.125V38H203.965ZM204.063 28.956V27.892H203.027V28.956H204.063ZM209.603 38.14C211.255 38.14 212.039 37.062 212.039 35.228V33.702C212.039 31.868 211.255 30.79 209.603 30.79C207.951 30.79 207.167 31.868 207.167 33.702V35.228C207.167 37.062 207.951 38.14 209.603 38.14ZM209.603 31.462C210.989 31.462 211.199 32.624 211.199 34.458C211.199 36.306 210.989 37.468 209.603 37.468C208.217 37.468 208.007 36.306 208.007 34.458C208.007 32.624 208.217 31.462 209.603 31.462ZM215.81 33.562C215.81 31.98 216.58 31.462 217.336 31.462C218.316 31.462 218.638 32.232 218.638 33.058V38H219.478V33.016C219.478 32.092 219.296 30.79 217.546 30.79C216.79 30.79 216.244 31.21 215.838 31.798H215.81V30.93H214.97V38H215.81V33.562ZM222.772 38H223.808V36.936H222.772V38Z" fill="white"/>
</svg>
