<svg width="196" height="59" viewBox="0 0 196 59" fill="none" xmlns="http://www.w3.org/2000/svg">
<path d="M7.455 1.175H7.485L10.68 11H12.015L14.865 0.169999H13.92L11.415 10.025H11.385L8.085 0.169999H6.9L3.735 10.025H3.705L1.185 0.169999H0.15L2.97 11H4.35L7.455 1.175ZM22.6044 7.235C22.6044 8.63 21.8844 10.4 20.0694 10.4C18.2544 10.4 17.5344 8.63 17.5344 7.235C17.5344 5.84 18.2544 4.07 20.0694 4.07C21.8844 4.07 22.6044 5.84 22.6044 7.235ZM20.0694 3.245C17.6694 3.245 16.5594 5.255 16.5594 7.235C16.5594 9.215 17.6694 11.225 20.0694 11.225C22.4694 11.225 23.5794 9.215 23.5794 7.235C23.5794 5.255 22.4694 3.245 20.0694 3.245ZM27.8344 6.47C27.8644 5.03 28.5694 4.07 29.9044 4.07C30.0844 4.07 30.2794 4.115 30.4594 4.13V3.26C30.1594 3.245 29.8594 3.23 29.5594 3.245C28.8094 3.275 28.1344 3.815 27.8644 4.58H27.8344L27.7894 3.47H26.8594C26.8894 3.98 26.9494 4.58 26.9344 5.165V11H27.8344V6.47ZM34.3445 0.169999H33.4445V11H34.3445V0.169999ZM43.4147 7.055C43.4147 8.765 42.8147 10.4 40.8497 10.4C39.1247 10.4 38.7197 8.495 38.7197 7.1C38.7197 5.66 39.2747 4.07 40.9847 4.07C42.7397 4.07 43.4147 5.525 43.4147 7.055ZM43.4897 11H44.4197C44.3897 10.49 44.3447 9.89 44.3447 9.305V0.169999H43.4447V4.58L43.4147 4.61C42.8897 3.725 41.8397 3.245 40.8347 3.245C38.5997 3.245 37.7447 5.255 37.7447 7.205C37.7447 9.095 38.5997 11.225 40.8347 11.225C41.8847 11.225 42.7997 10.73 43.4147 9.83L43.4447 9.89L43.4897 11ZM58.8915 1.175H58.9215L62.1165 11H63.4515L66.3015 0.169999H65.3565L62.8515 10.025H62.8215L59.5215 0.169999H58.3365L55.1715 10.025H55.1415L52.6215 0.169999H51.5865L54.4065 11H55.7865L58.8915 1.175ZM68.8509 8.9C68.8509 7.01 71.5209 7.25 72.7959 7.205C72.8859 8.78 72.5109 10.4 70.5459 10.4C69.6309 10.4 68.8509 9.92 68.8509 8.9ZM72.7959 6.38C71.7009 6.44 70.3959 6.29 69.3909 6.725C68.4909 7.1 67.8759 7.88 67.8759 8.9C67.8759 10.37 68.9859 11.225 70.3809 11.225C71.4009 11.225 72.4059 10.625 72.7359 9.995L72.7809 9.89H72.8109L72.8409 11H73.7709C73.7409 10.49 73.6809 9.89 73.6959 9.305V5.735C73.7259 4.01 72.6909 3.245 71.0259 3.245C69.5859 3.245 68.4309 3.83 68.2059 5.375H69.1659C69.2859 4.355 70.0659 4.07 71.0109 4.07C72.0759 4.07 72.7059 4.46 72.7959 5.69V6.38ZM78.4359 6.47C78.4659 5.03 79.1709 4.07 80.5059 4.07C80.6859 4.07 80.8809 4.115 81.0609 4.13V3.26C80.7609 3.245 80.4609 3.23 80.1609 3.245C79.4109 3.275 78.7359 3.815 78.4659 4.58H78.4359L78.3909 3.47H77.4609C77.4909 3.98 77.5509 4.58 77.5359 5.165V11H78.4359V6.47ZM91.0859 11V0.125H90.1109V11H91.0859ZM95.7107 9.785L95.0657 12.86H95.8457L96.9257 9.785H95.7107ZM107.27 3.23C108.11 2.825 108.92 2.33 109.61 1.67V11H110.585V0.62H109.655C108.98 1.295 108.155 1.895 107.27 2.255V3.23ZM118.623 1.295C120.048 1.295 121.068 2.3 121.068 3.725C121.068 5.165 120.003 6.185 118.563 6.185C117.198 6.185 116.343 5.225 116.343 3.86C116.343 2.42 117.078 1.295 118.623 1.295ZM115.323 8.45C115.458 10.1 116.508 11.225 118.353 11.225C121.668 11.225 122.298 8.315 122.298 5.525C122.298 2.945 121.623 0.395 118.608 0.395C116.598 0.395 115.293 1.805 115.293 3.785C115.293 5.645 116.598 7.01 118.473 7.01C119.673 7.01 120.708 6.425 121.218 5.42H121.248C121.248 6.995 120.993 10.325 118.623 10.325C117.348 10.325 116.418 9.815 116.373 8.45H115.323ZM126.193 3.23C127.033 2.825 127.843 2.33 128.533 1.67V11H129.508V0.62H128.578C127.903 1.295 127.078 1.895 126.193 2.255V3.23ZM140.613 0.62H133.998V1.52H139.593L135.438 11H136.578L140.613 1.49V0.62ZM142.663 7.445H146.443V6.545H142.663V7.445ZM149.883 3.23C150.723 2.825 151.533 2.33 152.223 1.67V11H153.198V0.62H152.268C151.593 1.295 150.768 1.895 149.883 2.255V3.23ZM161.235 1.295C162.66 1.295 163.68 2.3 163.68 3.725C163.68 5.165 162.615 6.185 161.175 6.185C159.81 6.185 158.955 5.225 158.955 3.86C158.955 2.42 159.69 1.295 161.235 1.295ZM157.935 8.45C158.07 10.1 159.12 11.225 160.965 11.225C164.28 11.225 164.91 8.315 164.91 5.525C164.91 2.945 164.235 0.395 161.22 0.395C159.21 0.395 157.905 1.805 157.905 3.785C157.905 5.645 159.21 7.01 161.085 7.01C162.285 7.01 163.32 6.425 163.83 5.42H163.86C163.86 6.995 163.605 10.325 161.235 10.325C159.96 10.325 159.03 9.815 158.985 8.45H157.935ZM168.805 3.23C169.645 2.825 170.455 2.33 171.145 1.67V11H172.12V0.62H171.19C170.515 1.295 169.69 1.895 168.805 2.255V3.23ZM179.283 5.615C177.933 5.9 177.003 6.845 177.018 8.18C177.018 10.28 178.803 11.225 180.543 11.225C182.283 11.225 184.068 10.28 184.068 8.18C184.068 6.8 183.213 5.96 181.833 5.6V5.585C183.018 5.315 183.918 4.445 183.918 3.185C183.918 1.265 182.208 0.395 180.543 0.395C178.878 0.395 177.168 1.265 177.168 3.185C177.168 4.415 178.068 5.465 179.283 5.585V5.615ZM178.143 3.185C178.143 1.79 179.388 1.22 180.543 1.22C181.698 1.22 182.943 1.79 182.943 3.185C182.943 4.475 181.923 5.135 180.543 5.135C179.163 5.135 178.143 4.475 178.143 3.185ZM178.068 8.18C178.068 6.695 179.253 6.035 180.543 6.035C181.833 6.035 183.018 6.695 183.018 8.18C183.018 9.665 181.833 10.325 180.543 10.325C179.253 10.325 178.068 9.665 178.068 8.18ZM7.455 24.175H7.485L10.68 34H12.015L14.865 23.17H13.92L11.415 33.025H11.385L8.085 23.17H6.9L3.735 33.025H3.705L1.185 23.17H0.15L2.97 34H4.35L7.455 24.175ZM22.6044 30.235C22.6044 31.63 21.8844 33.4 20.0694 33.4C18.2544 33.4 17.5344 31.63 17.5344 30.235C17.5344 28.84 18.2544 27.07 20.0694 27.07C21.8844 27.07 22.6044 28.84 22.6044 30.235ZM20.0694 26.245C17.6694 26.245 16.5594 28.255 16.5594 30.235C16.5594 32.215 17.6694 34.225 20.0694 34.225C22.4694 34.225 23.5794 32.215 23.5794 30.235C23.5794 28.255 22.4694 26.245 20.0694 26.245ZM27.8344 29.47C27.8644 28.03 28.5694 27.07 29.9044 27.07C30.0844 27.07 30.2794 27.115 30.4594 27.13V26.26C30.1594 26.245 29.8594 26.23 29.5594 26.245C28.8094 26.275 28.1344 26.815 27.8644 27.58H27.8344L27.7894 26.47H26.8594C26.8894 26.98 26.9494 27.58 26.9344 28.165V34H27.8344V29.47ZM34.3445 23.17H33.4445V34H34.3445V23.17ZM43.4147 30.055C43.4147 31.765 42.8147 33.4 40.8497 33.4C39.1247 33.4 38.7197 31.495 38.7197 30.1C38.7197 28.66 39.2747 27.07 40.9847 27.07C42.7397 27.07 43.4147 28.525 43.4147 30.055ZM43.4897 34H44.4197C44.3897 33.49 44.3447 32.89 44.3447 32.305V23.17H43.4447V27.58L43.4147 27.61C42.8897 26.725 41.8397 26.245 40.8347 26.245C38.5997 26.245 37.7447 28.255 37.7447 30.205C37.7447 32.095 38.5997 34.225 40.8347 34.225C41.8847 34.225 42.7997 33.73 43.4147 32.83L43.4447 32.89L43.4897 34ZM58.8915 24.175H58.9215L62.1165 34H63.4515L66.3015 23.17H65.3565L62.8515 33.025H62.8215L59.5215 23.17H58.3365L55.1715 33.025H55.1415L52.6215 23.17H51.5865L54.4065 34H55.7865L58.8915 24.175ZM68.8509 31.9C68.8509 30.01 71.5209 30.25 72.7959 30.205C72.8859 31.78 72.5109 33.4 70.5459 33.4C69.6309 33.4 68.8509 32.92 68.8509 31.9ZM72.7959 29.38C71.7009 29.44 70.3959 29.29 69.3909 29.725C68.4909 30.1 67.8759 30.88 67.8759 31.9C67.8759 33.37 68.9859 34.225 70.3809 34.225C71.4009 34.225 72.4059 33.625 72.7359 32.995L72.7809 32.89H72.8109L72.8409 34H73.7709C73.7409 33.49 73.6809 32.89 73.6959 32.305V28.735C73.7259 27.01 72.6909 26.245 71.0259 26.245C69.5859 26.245 68.4309 26.83 68.2059 28.375H69.1659C69.2859 27.355 70.0659 27.07 71.0109 27.07C72.0759 27.07 72.7059 27.46 72.7959 28.69V29.38ZM78.4359 29.47C78.4659 28.03 79.1709 27.07 80.5059 27.07C80.6859 27.07 80.8809 27.115 81.0609 27.13V26.26C80.7609 26.245 80.4609 26.23 80.1609 26.245C79.4109 26.275 78.7359 26.815 78.4659 27.58H78.4359L78.3909 26.47H77.4609C77.4909 26.98 77.5509 27.58 77.5359 28.165V34H78.4359V29.47ZM91.0859 34V23.125H90.1109V34H91.0859ZM96.7607 34V23.125H95.7857V34H96.7607ZM101.385 32.785L100.74 35.86H101.52L102.6 32.785H101.385ZM112.945 26.23C113.785 25.825 114.595 25.33 115.285 24.67V34H116.26V23.62H115.33C114.655 24.295 113.83 24.895 112.945 25.255V26.23ZM124.298 24.295C125.723 24.295 126.743 25.3 126.743 26.725C126.743 28.165 125.678 29.185 124.238 29.185C122.873 29.185 122.018 28.225 122.018 26.86C122.018 25.42 122.753 24.295 124.298 24.295ZM120.998 31.45C121.133 33.1 122.183 34.225 124.028 34.225C127.343 34.225 127.973 31.315 127.973 28.525C127.973 25.945 127.298 23.395 124.283 23.395C122.273 23.395 120.968 24.805 120.968 26.785C120.968 28.645 122.273 30.01 124.148 30.01C125.348 30.01 126.383 29.425 126.893 28.42H126.923C126.923 29.995 126.668 33.325 124.298 33.325C123.023 33.325 122.093 32.815 122.048 31.45H120.998ZM133.503 29.065C134.928 28.855 136.533 29.44 136.533 31.105C136.533 32.59 135.393 33.325 134.013 33.325C132.813 33.325 131.673 32.545 131.658 31.255H130.608C130.668 33.235 132.198 34.225 134.028 34.225C135.768 34.225 137.583 33.175 137.583 31.225C137.583 29.83 136.623 28.885 135.303 28.6V28.57C136.458 28.33 137.418 27.49 137.418 26.23C137.418 24.22 135.693 23.395 133.938 23.395C132.318 23.395 130.758 24.43 130.758 26.185H131.808C131.943 24.985 132.753 24.295 134.073 24.295C135.288 24.295 136.368 24.97 136.368 26.17C136.368 27.73 134.838 28.27 133.503 28.12V29.065ZM143.968 24.295C145.393 24.295 146.413 25.3 146.413 26.725C146.413 28.165 145.348 29.185 143.908 29.185C142.543 29.185 141.688 28.225 141.688 26.86C141.688 25.42 142.423 24.295 143.968 24.295ZM140.668 31.45C140.803 33.1 141.853 34.225 143.698 34.225C147.013 34.225 147.643 31.315 147.643 28.525C147.643 25.945 146.968 23.395 143.953 23.395C141.943 23.395 140.638 24.805 140.638 26.785C140.638 28.645 141.943 30.01 143.818 30.01C145.018 30.01 146.053 29.425 146.563 28.42H146.593C146.593 29.995 146.338 33.325 143.968 33.325C142.693 33.325 141.763 32.815 141.718 31.45H140.668ZM157.298 30.445V29.545H149.798V30.445H157.298ZM160.538 26.23C161.378 25.825 162.188 25.33 162.878 24.67V34H163.853V23.62H162.923C162.248 24.295 161.423 24.895 160.538 25.255V26.23ZM171.891 24.295C173.316 24.295 174.336 25.3 174.336 26.725C174.336 28.165 173.271 29.185 171.831 29.185C170.466 29.185 169.611 28.225 169.611 26.86C169.611 25.42 170.346 24.295 171.891 24.295ZM168.591 31.45C168.726 33.1 169.776 34.225 171.621 34.225C174.936 34.225 175.566 31.315 175.566 28.525C175.566 25.945 174.891 23.395 171.876 23.395C169.866 23.395 168.561 24.805 168.561 26.785C168.561 28.645 169.866 30.01 171.741 30.01C172.941 30.01 173.976 29.425 174.486 28.42H174.516C174.516 29.995 174.261 33.325 171.891 33.325C170.616 33.325 169.686 32.815 169.641 31.45H168.591ZM182.926 34H183.901V31.585H185.566V30.775H183.901V23.62H182.611L178.051 30.64V31.585H182.926V34ZM182.926 30.775H178.876L182.896 24.595H182.926V30.775ZM188.696 29.635H189.701C189.911 28.66 190.811 28.06 191.801 28.06C193.361 28.06 194.126 29.08 194.126 30.58C194.126 32.08 193.361 33.325 191.741 33.325C190.556 33.325 189.596 32.695 189.536 31.45H188.486C188.546 33.415 190.091 34.225 191.846 34.225C193.901 34.225 195.176 32.62 195.176 30.625C195.176 28.765 193.961 27.16 192.011 27.16C191.081 27.16 190.316 27.58 189.731 28.255L189.701 28.225L189.866 24.52H194.651V23.62H188.936L188.696 29.635ZM1.155 46.17H0.09L4.05 57H5.16L9.075 46.17H8.1L4.665 56.025H4.635L1.155 46.17ZM11.8849 49.47V57H12.7849V49.47H11.8849ZM12.8599 46.17H11.8099V47.295H12.8599V46.17ZM23.0401 53.445C23.0401 51.09 22.1251 49.245 19.6051 49.245C17.3701 49.245 16.2451 51.195 16.2451 53.235C16.2451 55.29 17.2951 57.225 19.5451 57.225C21.3601 57.225 22.4851 56.4 22.9501 54.6H22.0051C21.7801 55.635 20.8951 56.4 19.8301 56.4C17.9851 56.4 17.2501 55.05 17.2201 53.445H23.0401ZM17.2501 52.62C17.3701 51.3 18.1501 50.07 19.6201 50.07C21.1801 50.07 21.9601 51.165 22.0651 52.62H17.2501ZM27.1751 54.99C27.1751 56.01 27.0701 57.225 28.9751 57.225C29.2751 57.225 29.6051 57.165 29.8901 57.09V56.31C29.6501 56.385 29.3801 56.4 29.1101 56.4C28.4201 56.4 28.0601 56.025 28.0751 55.335V50.295H29.7851V49.47H28.0751V47.475L27.1751 47.865V49.47H25.6751V50.295H27.1751V54.99ZM33.9252 52.665C33.9252 51.315 34.6002 50.07 36.0852 50.07C37.3152 50.07 38.0652 50.835 38.0652 52.14V57H38.9652V52.29C38.9652 51.42 38.7702 49.245 36.3102 49.245C35.3352 49.245 34.4802 49.68 33.9552 50.61L33.9252 50.58L33.8802 49.47H32.9502C32.9802 49.98 33.0252 50.58 33.0252 51.165V57H33.9252V52.665ZM43.1752 54.9C43.1752 53.01 45.8452 53.25 47.1202 53.205C47.2102 54.78 46.8352 56.4 44.8702 56.4C43.9552 56.4 43.1752 55.92 43.1752 54.9ZM47.1202 52.38C46.0252 52.44 44.7202 52.29 43.7152 52.725C42.8152 53.1 42.2002 53.88 42.2002 54.9C42.2002 56.37 43.3102 57.225 44.7052 57.225C45.7252 57.225 46.7302 56.625 47.0602 55.995L47.1052 55.89H47.1352L47.1652 57H48.0952C48.0652 56.49 48.0052 55.89 48.0202 55.305V51.735C48.0502 50.01 47.0152 49.245 45.3502 49.245C43.9102 49.245 42.7552 49.83 42.5302 51.375H43.4902C43.6102 50.355 44.3902 50.07 45.3352 50.07C46.4002 50.07 47.0302 50.46 47.1202 51.69V52.38ZM52.7002 49.47H51.7702C51.8002 49.98 51.8452 50.58 51.8452 51.165V57H52.7452V52.665C52.7452 51.315 53.4202 50.07 54.9052 50.07C56.1352 50.07 56.8852 50.835 56.8852 52.14V57H57.7852V52.665C57.7852 51.315 58.4602 50.07 59.9452 50.07C61.1752 50.07 61.9252 50.835 61.9252 52.14V57H62.8252V52.29C62.8252 51.42 62.6302 49.245 60.1702 49.245C59.0002 49.245 58.1302 50.01 57.5752 50.895C57.2452 49.905 56.3152 49.245 55.1302 49.245C54.1552 49.245 53.3002 49.68 52.7752 50.61L52.7452 50.58L52.7002 49.47ZM77.4921 47.175H77.5221L80.7171 57H82.0521L84.9021 46.17H83.9571L81.4521 56.025H81.4221L78.1221 46.17H76.9371L73.7721 56.025H73.7421L71.2221 46.17H70.1871L73.0071 57H74.3871L77.4921 47.175ZM87.4515 54.9C87.4515 53.01 90.1215 53.25 91.3965 53.205C91.4865 54.78 91.1115 56.4 89.1465 56.4C88.2315 56.4 87.4515 55.92 87.4515 54.9ZM91.3965 52.38C90.3015 52.44 88.9965 52.29 87.9915 52.725C87.0915 53.1 86.4765 53.88 86.4765 54.9C86.4765 56.37 87.5865 57.225 88.9815 57.225C90.0015 57.225 91.0065 56.625 91.3365 55.995L91.3815 55.89H91.4115L91.4415 57H92.3715C92.3415 56.49 92.2815 55.89 92.2965 55.305V51.735C92.3265 50.01 91.2915 49.245 89.6265 49.245C88.1865 49.245 87.0315 49.83 86.8065 51.375H87.7665C87.8865 50.355 88.6665 50.07 89.6115 50.07C90.6765 50.07 91.3065 50.46 91.3965 51.69V52.38ZM97.0365 52.47C97.0665 51.03 97.7715 50.07 99.1065 50.07C99.2865 50.07 99.4815 50.115 99.6615 50.13V49.26C99.3615 49.245 99.0615 49.23 98.7615 49.245C98.0115 49.275 97.3365 49.815 97.0665 50.58H97.0365L96.9915 49.47H96.0615C96.0915 49.98 96.1515 50.58 96.1365 51.165V57H97.0365V52.47ZM101.834 55.785L101.189 58.86H101.969L103.049 55.785H101.834ZM113.393 49.23C114.233 48.825 115.043 48.33 115.733 47.67V57H116.708V46.62H115.778C115.103 47.295 114.278 47.895 113.393 48.255V49.23ZM124.746 47.295C126.171 47.295 127.191 48.3 127.191 49.725C127.191 51.165 126.126 52.185 124.686 52.185C123.321 52.185 122.466 51.225 122.466 49.86C122.466 48.42 123.201 47.295 124.746 47.295ZM121.446 54.45C121.581 56.1 122.631 57.225 124.476 57.225C127.791 57.225 128.421 54.315 128.421 51.525C128.421 48.945 127.746 46.395 124.731 46.395C122.721 46.395 121.416 47.805 121.416 49.785C121.416 51.645 122.721 53.01 124.596 53.01C125.796 53.01 126.831 52.425 127.341 51.42H127.371C127.371 52.995 127.116 56.325 124.746 56.325C123.471 56.325 122.541 55.815 122.496 54.45H121.446ZM131.716 52.635H132.721C132.931 51.66 133.831 51.06 134.821 51.06C136.381 51.06 137.146 52.08 137.146 53.58C137.146 55.08 136.381 56.325 134.761 56.325C133.576 56.325 132.616 55.695 132.556 54.45H131.506C131.566 56.415 133.111 57.225 134.866 57.225C136.921 57.225 138.196 55.62 138.196 53.625C138.196 51.765 136.981 50.16 135.031 50.16C134.101 50.16 133.336 50.58 132.751 51.255L132.721 51.225L132.886 47.52H137.671V46.62H131.956L131.716 52.635ZM141.551 52.635H142.556C142.766 51.66 143.666 51.06 144.656 51.06C146.216 51.06 146.981 52.08 146.981 53.58C146.981 55.08 146.216 56.325 144.596 56.325C143.411 56.325 142.451 55.695 142.391 54.45H141.341C141.401 56.415 142.946 57.225 144.701 57.225C146.756 57.225 148.031 55.62 148.031 53.625C148.031 51.765 146.816 50.16 144.866 50.16C143.936 50.16 143.171 50.58 142.586 51.255L142.556 51.225L142.721 47.52H147.506V46.62H141.791L141.551 52.635ZM150.441 53.445H154.221V52.545H150.441V53.445ZM157.661 49.23C158.501 48.825 159.311 48.33 160.001 47.67V57H160.976V46.62H160.046C159.371 47.295 158.546 47.895 157.661 48.255V49.23ZM169.014 47.295C170.439 47.295 171.459 48.3 171.459 49.725C171.459 51.165 170.394 52.185 168.954 52.185C167.589 52.185 166.734 51.225 166.734 49.86C166.734 48.42 167.469 47.295 169.014 47.295ZM165.714 54.45C165.849 56.1 166.899 57.225 168.744 57.225C172.059 57.225 172.689 54.315 172.689 51.525C172.689 48.945 172.014 46.395 168.999 46.395C166.989 46.395 165.684 47.805 165.684 49.785C165.684 51.645 166.989 53.01 168.864 53.01C170.064 53.01 171.099 52.425 171.609 51.42H171.639C171.639 52.995 171.384 56.325 169.014 56.325C167.739 56.325 166.809 55.815 166.764 54.45H165.714ZM182.224 46.62H175.609V47.52H181.204L177.049 57H178.189L182.224 47.49V46.62ZM185.819 52.635H186.824C187.034 51.66 187.934 51.06 188.924 51.06C190.484 51.06 191.249 52.08 191.249 53.58C191.249 55.08 190.484 56.325 188.864 56.325C187.679 56.325 186.719 55.695 186.659 54.45H185.609C185.669 56.415 187.214 57.225 188.969 57.225C191.024 57.225 192.299 55.62 192.299 53.625C192.299 51.765 191.084 50.16 189.134 50.16C188.204 50.16 187.439 50.58 186.854 51.255L186.824 51.225L186.989 47.52H191.774V46.62H186.059L185.819 52.635Z" fill="white"/>
</svg>
