<svg width="663" height="39" viewBox="0 0 663 39" fill="none" xmlns="http://www.w3.org/2000/svg">
<rect width="663" height="39" fill="black" fill-opacity="0.69"/>
<path d="M20.184 15.654H20.21L22.784 24H23.915L26.541 15.654H26.567V24H27.763V14.614H25.787L23.395 22.492H23.369L21.003 14.614H19.066V24H20.184V15.654ZM34.4191 20.737C34.5231 22.856 33.7171 23.259 33.0671 23.259C32.3521 23.259 32.0401 22.687 32.0401 22.05C32.0401 20.659 33.4051 20.75 34.4191 20.737ZM34.4451 24H35.6151C35.5371 23.493 35.4851 22.96 35.4851 22.44V19.281C35.4851 18.176 35.0431 17.305 33.3531 17.305C31.9621 17.305 31.1821 17.812 31.1301 19.281H32.2871C32.2221 18.592 32.5991 18.111 33.3141 18.111C34.4581 18.111 34.4451 19.06 34.4191 19.931C32.9241 19.892 30.9741 19.983 30.9741 21.972C30.9741 23.233 31.3771 24.13 32.7681 24.13C33.5871 24.13 34.0941 23.805 34.4191 23.051H34.4451V24ZM39.2681 17.435H38.0331L40.2561 24L39.5151 26.483H40.6201L43.5971 17.435H42.4401L40.8671 22.778H40.8411L39.2681 17.435ZM52.9443 14.978H51.9173C51.5533 15.277 50.6953 15.927 50.3963 16.057V17.201L51.7483 16.291V24H52.9443V14.978ZM56.7057 25.651H57.5377L58.7207 22.648H57.3817L56.7057 25.651ZM68.3843 14.978H67.3573C66.9933 15.277 66.1353 15.927 65.8363 16.057V17.201L67.1883 16.291V24H68.3843V14.978ZM74.5767 15.706C75.6037 15.706 75.7857 16.759 75.7857 17.578C75.7857 18.475 75.6167 19.45 74.5767 19.45C73.5367 19.45 73.3677 18.475 73.3677 17.578C73.3677 16.759 73.5497 15.706 74.5767 15.706ZM74.5767 14.835C73.3807 14.835 72.1717 15.576 72.1717 17.604C72.1717 20.074 73.5237 20.451 74.2387 20.451C74.9277 20.451 75.4997 20.23 75.7857 19.606H75.8117C75.8117 21.92 75.7337 23.194 74.5767 23.194C73.8097 23.194 73.5497 22.505 73.5497 21.842H72.3537C72.3277 23.272 73.2247 24.195 74.5767 24.195C77.0207 24.195 77.0077 21.881 77.0077 19.528C77.0077 17.097 77.0467 14.835 74.5767 14.835ZM81.6661 23.194C80.7691 23.194 80.4571 22.362 80.4571 21.582C80.4571 20.776 80.5481 19.736 81.6661 19.736C82.7841 19.736 82.8751 20.776 82.8751 21.582C82.8751 22.362 82.5631 23.194 81.6661 23.194ZM82.4071 19.216C83.4731 19.008 83.9801 18.124 83.9801 17.097C83.9801 15.68 83.0831 14.835 81.6661 14.835C80.2491 14.835 79.3521 15.68 79.3521 17.097C79.3521 18.124 79.8591 19.008 80.9251 19.216V19.229C79.5991 19.359 79.2611 20.399 79.2611 21.569C79.2611 23.194 80.0931 24.195 81.6661 24.195C83.2391 24.195 84.0711 23.194 84.0711 21.569C84.0711 20.399 83.7331 19.359 82.4071 19.229V19.216ZM81.6661 18.696C80.7691 18.696 80.5481 17.721 80.5481 17.058C80.5481 16.382 80.8991 15.706 81.6661 15.706C82.4331 15.706 82.7841 16.382 82.7841 17.058C82.7841 17.721 82.5631 18.696 81.6661 18.696ZM88.7424 23.194C87.8454 23.194 87.5334 22.362 87.5334 21.582C87.5334 20.776 87.6244 19.736 88.7424 19.736C89.8604 19.736 89.9514 20.776 89.9514 21.582C89.9514 22.362 89.6394 23.194 88.7424 23.194ZM89.4834 19.216C90.5494 19.008 91.0564 18.124 91.0564 17.097C91.0564 15.68 90.1594 14.835 88.7424 14.835C87.3254 14.835 86.4284 15.68 86.4284 17.097C86.4284 18.124 86.9354 19.008 88.0014 19.216V19.229C86.6754 19.359 86.3374 20.399 86.3374 21.569C86.3374 23.194 87.1694 24.195 88.7424 24.195C90.3154 24.195 91.1474 23.194 91.1474 21.569C91.1474 20.399 90.8094 19.359 89.4834 19.229V19.216ZM88.7424 18.696C87.8454 18.696 87.6244 17.721 87.6244 17.058C87.6244 16.382 87.9754 15.706 88.7424 15.706C89.5094 15.706 89.8604 16.382 89.8604 17.058C89.8604 17.721 89.6394 18.696 88.7424 18.696ZM94.9868 22.648H93.7648V24H94.9868V22.648ZM103.571 15.654H105.144C106.392 15.654 106.977 16.356 106.977 18.254V20.152C106.977 22.336 106.366 22.96 104.702 22.96H103.571V15.654ZM102.375 24H104.533C106.171 24 107.12 23.597 107.627 22.791C108.017 22.167 108.199 21.01 108.199 19.008C108.199 18.709 108.16 16.837 107.783 16.044C107.315 15.043 106.457 14.614 105.261 14.614H102.375V24ZM112.52 17.435H111.454V24H112.52V17.435ZM111.389 15.758H112.585V14.614H111.389V15.758ZM119.159 20.685C119.159 21.595 119.198 23.116 117.911 23.116C117.118 23.116 116.637 22.622 116.637 20.516C116.637 19.645 116.676 18.189 117.885 18.189C119.224 18.189 119.159 19.71 119.159 20.685ZM119.133 18.241H119.107C118.808 17.604 118.262 17.305 117.573 17.305C117.04 17.305 115.519 17.5 115.519 20.516C115.519 22.466 115.87 24 117.651 24C118.223 24 118.821 23.701 119.094 23.181H119.133V24.546C119.133 25.222 118.73 25.677 117.989 25.677C117.404 25.677 117.001 25.339 116.988 24.728H115.792C115.701 25.937 116.689 26.483 117.781 26.483C119.224 26.483 120.199 26.132 120.199 24.663V17.435H119.133V18.241ZM124.502 17.435H123.436V24H124.502V17.435ZM123.371 15.758H124.567V14.614H123.371V15.758ZM126.681 17.435V18.241H127.76V22.908C127.76 23.662 128.215 24.078 129.229 24.078C129.58 24.078 129.931 24 130.282 23.974V23.155C130.048 23.181 129.879 23.207 129.801 23.207C128.826 23.207 128.826 22.674 128.826 22.258V18.241H130.256V17.435H128.826V15.693L127.76 16.174V17.435H126.681ZM133.602 17.435H132.536V24H133.602V17.435ZM132.471 15.758H133.667V14.614H132.471V15.758ZM140.318 17.435H136.405V18.306H139.122V18.332L136.262 22.999V24H140.409V23.129H137.419L140.318 18.41V17.435ZM144.136 20.256C144.149 18.436 144.708 18.111 145.384 18.111C146.164 18.111 146.697 18.345 146.697 20.256H144.136ZM147.828 21.062V20.503C147.828 18.332 147.36 17.305 145.488 17.305C143.213 17.305 142.992 18.891 142.992 20.815C142.992 23.714 144.097 24.13 145.488 24.13C146.866 24.13 147.763 23.467 147.776 22.011H146.606C146.567 22.674 146.19 23.259 145.462 23.259C144.63 23.259 144.136 22.895 144.136 21.062H147.828ZM154.367 20.451C154.367 21.777 154.367 23.259 153.171 23.259C151.832 23.259 151.832 21.829 151.832 20.841C151.832 19.086 151.988 18.176 153.132 18.176C154.315 18.176 154.367 19.58 154.367 20.451ZM154.367 18.098H154.328C153.964 17.578 153.509 17.305 152.885 17.305C150.766 17.305 150.714 19.19 150.714 20.828C150.714 23.714 151.78 24.13 152.833 24.13C153.522 24.13 153.977 23.831 154.341 23.22H154.367V24H155.433V14.614H154.367V18.098ZM164.074 24H165.465L167.519 17.435H166.401L164.815 22.999H164.789L163.32 17.435H162.124L164.074 24ZM170.994 20.256C171.007 18.436 171.566 18.111 172.242 18.111C173.022 18.111 173.555 18.345 173.555 20.256H170.994ZM174.686 21.062V20.503C174.686 18.332 174.218 17.305 172.346 17.305C170.071 17.305 169.85 18.891 169.85 20.815C169.85 23.714 170.955 24.13 172.346 24.13C173.724 24.13 174.621 23.467 174.634 22.011H173.464C173.425 22.674 173.048 23.259 172.32 23.259C171.488 23.259 170.994 22.895 170.994 21.062H174.686ZM178.859 17.435H177.793V24H178.859V20.126C178.859 19.242 179.158 18.345 180.341 18.345C180.445 18.345 180.536 18.358 180.627 18.371C180.718 18.384 180.822 18.397 180.913 18.41V17.305C179.873 17.305 179.327 17.422 178.885 18.423H178.859V17.435ZM187.608 22.128C187.608 20.126 184.332 20.152 184.332 18.995C184.332 18.423 184.774 18.111 185.346 18.111C186.022 18.111 186.386 18.475 186.373 19.164H187.556C187.647 17.864 186.646 17.305 185.476 17.305C183.63 17.305 183.214 18.41 183.214 19.099C183.214 21.062 186.49 21.088 186.49 22.258C186.49 22.934 185.996 23.259 185.359 23.259C184.28 23.259 184.267 22.375 184.267 21.998H183.058C183.019 23.506 183.903 24.13 185.32 24.13C186.62 24.13 187.608 23.571 187.608 22.128ZM191.5 17.435H190.434V24H191.5V17.435ZM190.369 15.758H191.565V14.614H190.369V15.758ZM196.956 23.259C195.851 23.259 195.578 22.492 195.578 20.36C195.578 18.566 196.137 18.176 196.956 18.176C197.775 18.176 198.334 18.566 198.334 20.36C198.334 22.492 198.061 23.259 196.956 23.259ZM196.956 24.13C198.347 24.13 199.452 23.714 199.452 20.815C199.452 18.891 199.231 17.305 196.956 17.305C194.681 17.305 194.46 18.891 194.46 20.815C194.46 23.714 195.565 24.13 196.956 24.13ZM207.07 24V19.45C207.07 18.15 206.719 17.305 205.315 17.305C204.47 17.305 203.976 17.539 203.56 18.28H203.508V17.435H202.377C202.416 17.89 202.442 18.345 202.442 18.8V24H203.508V20.113C203.508 19.216 203.677 18.176 204.847 18.176C205.757 18.176 206.004 18.748 206.004 19.45V24H207.07ZM216.738 23.259C215.633 23.259 215.36 22.492 215.36 20.36C215.36 18.566 215.919 18.176 216.738 18.176C217.557 18.176 218.116 18.566 218.116 20.36C218.116 22.492 217.843 23.259 216.738 23.259ZM216.738 24.13C218.129 24.13 219.234 23.714 219.234 20.815C219.234 18.891 219.013 17.305 216.738 17.305C214.463 17.305 214.242 18.891 214.242 20.815C214.242 23.714 215.347 24.13 216.738 24.13ZM221.405 17.435V18.241H222.419V24H223.485V18.241H224.811V17.435H223.485V16.317C223.485 15.784 223.68 15.303 224.811 15.381V14.614C224.655 14.588 224.525 14.575 224.304 14.575C223.355 14.575 222.419 14.835 222.419 16.161V17.435H221.405ZM234.677 20.737C234.781 22.856 233.975 23.259 233.325 23.259C232.61 23.259 232.298 22.687 232.298 22.05C232.298 20.659 233.663 20.75 234.677 20.737ZM234.703 24H235.873C235.795 23.493 235.743 22.96 235.743 22.44V19.281C235.743 18.176 235.301 17.305 233.611 17.305C232.22 17.305 231.44 17.812 231.388 19.281H232.545C232.48 18.592 232.857 18.111 233.572 18.111C234.716 18.111 234.703 19.06 234.677 19.931C233.182 19.892 231.232 19.983 231.232 21.972C231.232 23.233 231.635 24.13 233.026 24.13C233.845 24.13 234.352 23.805 234.677 23.051H234.703V24ZM243.752 24V19.45C243.752 18.15 243.401 17.305 241.997 17.305C241.152 17.305 240.658 17.539 240.242 18.28H240.19V17.435H239.059C239.098 17.89 239.124 18.345 239.124 18.8V24H240.19V20.113C240.19 19.216 240.359 18.176 241.528 18.176C242.439 18.176 242.686 18.748 242.686 19.45V24H243.752ZM254.459 20.737C254.563 22.856 253.757 23.259 253.107 23.259C252.392 23.259 252.08 22.687 252.08 22.05C252.08 20.659 253.445 20.75 254.459 20.737ZM254.485 24H255.655C255.577 23.493 255.525 22.96 255.525 22.44V19.281C255.525 18.176 255.083 17.305 253.393 17.305C252.002 17.305 251.222 17.812 251.17 19.281H252.327C252.262 18.592 252.639 18.111 253.354 18.111C254.498 18.111 254.485 19.06 254.459 19.931C252.964 19.892 251.014 19.983 251.014 21.972C251.014 23.233 251.417 24.13 252.808 24.13C253.627 24.13 254.134 23.805 254.459 23.051H254.485V24ZM260.01 17.435H258.944V24H260.01V20.126C260.01 19.242 260.309 18.345 261.492 18.345C261.596 18.345 261.687 18.358 261.778 18.371C261.869 18.384 261.973 18.397 262.064 18.41V17.305C261.024 17.305 260.478 17.422 260.036 18.423H260.01V17.435ZM263.572 17.435V18.241H264.651V22.908C264.651 23.662 265.106 24.078 266.12 24.078C266.471 24.078 266.822 24 267.173 23.974V23.155C266.939 23.181 266.77 23.207 266.692 23.207C265.717 23.207 265.717 22.674 265.717 22.258V18.241H267.147V17.435H265.717V15.693L264.651 16.174V17.435H263.572ZM270.493 17.435H269.427V24H270.493V17.435ZM269.362 15.758H270.558V14.614H269.362V15.758ZM278.171 19.541C278.236 18.072 277.469 17.305 276.156 17.305C273.881 17.305 273.66 18.891 273.66 20.815C273.66 23.714 274.765 24.13 276.156 24.13C276.884 24.13 278.262 23.662 278.223 21.816H277.105C277.144 22.999 276.403 23.259 276.156 23.259C275.051 23.259 274.778 22.492 274.778 20.36C274.778 18.566 275.337 18.176 276.156 18.176C276.559 18.176 277.092 18.462 277.066 19.541H278.171ZM282.474 14.614H281.408V24H282.474V14.614ZM286.656 20.256C286.669 18.436 287.228 18.111 287.904 18.111C288.684 18.111 289.217 18.345 289.217 20.256H286.656ZM290.348 21.062V20.503C290.348 18.332 289.88 17.305 288.008 17.305C285.733 17.305 285.512 18.891 285.512 20.815C285.512 23.714 286.617 24.13 288.008 24.13C289.386 24.13 290.283 23.467 290.296 22.011H289.126C289.087 22.674 288.71 23.259 287.982 23.259C287.15 23.259 286.656 22.895 286.656 21.062H290.348ZM296.779 17.435V18.241H297.793V24H298.859V18.241H300.185V17.435H298.859V16.317C298.859 15.784 299.054 15.303 300.185 15.381V14.614C300.029 14.588 299.899 14.575 299.678 14.575C298.729 14.575 297.793 14.835 297.793 16.161V17.435H296.779ZM303.621 17.435H302.555V24H303.621V20.126C303.621 19.242 303.92 18.345 305.103 18.345C305.207 18.345 305.298 18.358 305.389 18.371C305.48 18.384 305.584 18.397 305.675 18.41V17.305C304.635 17.305 304.089 17.422 303.647 18.423H303.621V17.435ZM310.459 23.259C309.354 23.259 309.081 22.492 309.081 20.36C309.081 18.566 309.64 18.176 310.459 18.176C311.278 18.176 311.837 18.566 311.837 20.36C311.837 22.492 311.564 23.259 310.459 23.259ZM310.459 24.13C311.85 24.13 312.955 23.714 312.955 20.815C312.955 18.891 312.734 17.305 310.459 17.305C308.184 17.305 307.963 18.891 307.963 20.815C307.963 23.714 309.068 24.13 310.459 24.13ZM320.235 24V19.58C320.235 19.333 320.287 18.683 320.599 18.423C320.885 18.189 321.002 18.176 321.405 18.176C322.263 18.176 322.445 18.787 322.445 19.45V24H323.511V19.008C323.511 17.461 322.406 17.305 321.717 17.305C321.119 17.305 320.521 17.448 320.157 18.15C319.91 17.552 319.221 17.305 318.623 17.305C317.856 17.305 317.297 17.552 316.985 18.254H316.959V17.435H315.828C315.867 17.89 315.893 18.345 315.893 18.8V24H316.959V19.58C316.959 19.333 317.011 18.943 317.206 18.618C317.362 18.371 317.804 18.176 318.129 18.176C318.987 18.176 319.169 18.787 319.169 19.45V24H320.235ZM330.055 14.614V15.654H332.525V24H333.721V15.654H336.191V14.614H330.055ZM343.237 24V19.346C343.237 17.864 342.613 17.305 341.495 17.305C340.637 17.305 340.143 17.513 339.714 18.28H339.662V14.614H338.596V24H339.662V20.139C339.662 19.034 339.935 18.176 341.001 18.176C341.911 18.176 342.171 18.748 342.171 19.554V24H343.237ZM347.449 20.256C347.462 18.436 348.021 18.111 348.697 18.111C349.477 18.111 350.01 18.345 350.01 20.256H347.449ZM351.141 21.062V20.503C351.141 18.332 350.673 17.305 348.801 17.305C346.526 17.305 346.305 18.891 346.305 20.815C346.305 23.714 347.41 24.13 348.801 24.13C350.179 24.13 351.076 23.467 351.089 22.011H349.919C349.88 22.674 349.503 23.259 348.775 23.259C347.943 23.259 347.449 22.895 347.449 21.062H351.141ZM357.637 14.614V15.654H360.107V24H361.303V15.654H363.773V14.614H357.637ZM366.456 17.435H365.39V24H366.456V17.435ZM365.325 15.758H366.521V14.614H365.325V15.758ZM373.888 24V19.58C373.888 19.333 373.94 18.683 374.252 18.423C374.538 18.189 374.655 18.176 375.058 18.176C375.916 18.176 376.098 18.787 376.098 19.45V24H377.164V19.008C377.164 17.461 376.059 17.305 375.37 17.305C374.772 17.305 374.174 17.448 373.81 18.15C373.563 17.552 372.874 17.305 372.276 17.305C371.509 17.305 370.95 17.552 370.638 18.254H370.612V17.435H369.481C369.52 17.89 369.546 18.345 369.546 18.8V24H370.612V19.58C370.612 19.333 370.664 18.943 370.859 18.618C371.015 18.371 371.457 18.176 371.782 18.176C372.64 18.176 372.822 18.787 372.822 19.45V24H373.888ZM381.32 20.256C381.333 18.436 381.892 18.111 382.568 18.111C383.348 18.111 383.881 18.345 383.881 20.256H381.32ZM385.012 21.062V20.503C385.012 18.332 384.544 17.305 382.672 17.305C380.397 17.305 380.176 18.891 380.176 20.815C380.176 23.714 381.281 24.13 382.672 24.13C384.05 24.13 384.947 23.467 384.96 22.011H383.79C383.751 22.674 383.374 23.259 382.646 23.259C381.814 23.259 381.32 22.895 381.32 21.062H385.012ZM392.305 22.128C392.305 20.126 389.029 20.152 389.029 18.995C389.029 18.423 389.471 18.111 390.043 18.111C390.719 18.111 391.083 18.475 391.07 19.164H392.253C392.344 17.864 391.343 17.305 390.173 17.305C388.327 17.305 387.911 18.41 387.911 19.099C387.911 21.062 391.187 21.088 391.187 22.258C391.187 22.934 390.693 23.259 390.056 23.259C388.977 23.259 388.964 22.375 388.964 21.998H387.755C387.716 23.506 388.6 24.13 390.017 24.13C391.317 24.13 392.305 23.571 392.305 22.128ZM394.676 17.201H395.573L396.639 14.614H395.235L394.676 17.201ZM402.599 22.128C402.599 20.126 399.323 20.152 399.323 18.995C399.323 18.423 399.765 18.111 400.337 18.111C401.013 18.111 401.377 18.475 401.364 19.164H402.547C402.638 17.864 401.637 17.305 400.467 17.305C398.621 17.305 398.205 18.41 398.205 19.099C398.205 21.062 401.481 21.088 401.481 22.258C401.481 22.934 400.987 23.259 400.35 23.259C399.271 23.259 399.258 22.375 399.258 21.998H398.049C398.01 23.506 398.894 24.13 400.311 24.13C401.611 24.13 402.599 23.571 402.599 22.128ZM412.024 23.259C410.841 23.259 410.789 21.868 410.789 20.997C410.789 19.996 410.672 18.176 411.985 18.176C413.324 18.176 413.324 19.619 413.324 20.607C413.324 22.362 413.168 23.259 412.024 23.259ZM410.789 17.435H409.723V26.483H410.789V23.337H410.828C411.192 23.857 411.647 24.13 412.271 24.13C414.39 24.13 414.442 22.245 414.442 20.607C414.442 17.721 413.376 17.305 412.323 17.305C411.634 17.305 411.179 17.604 410.815 18.215H410.789V17.435ZM418.537 17.435H417.471V24H418.537V20.126C418.537 19.242 418.836 18.345 420.019 18.345C420.123 18.345 420.214 18.358 420.305 18.371C420.396 18.384 420.5 18.397 420.591 18.41V17.305C419.551 17.305 419.005 17.422 418.563 18.423H418.537V17.435ZM424.101 17.435H423.035V24H424.101V17.435ZM422.97 15.758H424.166V14.614H422.97V15.758ZM431.871 24V19.45C431.871 18.15 431.52 17.305 430.116 17.305C429.271 17.305 428.777 17.539 428.361 18.28H428.309V17.435H427.178C427.217 17.89 427.243 18.345 427.243 18.8V24H428.309V20.113C428.309 19.216 428.478 18.176 429.648 18.176C430.558 18.176 430.805 18.748 430.805 19.45V24H431.871ZM434.081 17.435V18.241H435.16V22.908C435.16 23.662 435.615 24.078 436.629 24.078C436.98 24.078 437.331 24 437.682 23.974V23.155C437.448 23.181 437.279 23.207 437.201 23.207C436.226 23.207 436.226 22.674 436.226 22.258V18.241H437.656V17.435H436.226V15.693L435.16 16.174V17.435H434.081ZM447.497 20.737C447.601 22.856 446.795 23.259 446.145 23.259C445.43 23.259 445.118 22.687 445.118 22.05C445.118 20.659 446.483 20.75 447.497 20.737ZM447.523 24H448.693C448.615 23.493 448.563 22.96 448.563 22.44V19.281C448.563 18.176 448.121 17.305 446.431 17.305C445.04 17.305 444.26 17.812 444.208 19.281H445.365C445.3 18.592 445.677 18.111 446.392 18.111C447.536 18.111 447.523 19.06 447.497 19.931C446.002 19.892 444.052 19.983 444.052 21.972C444.052 23.233 444.455 24.13 445.846 24.13C446.665 24.13 447.172 23.805 447.497 23.051H447.523V24ZM453.048 17.435H451.982V24H453.048V20.126C453.048 19.242 453.347 18.345 454.53 18.345C454.634 18.345 454.725 18.358 454.816 18.371C454.907 18.384 455.011 18.397 455.102 18.41V17.305C454.062 17.305 453.516 17.422 453.074 18.423H453.048V17.435ZM462.109 19.541C462.174 18.072 461.407 17.305 460.094 17.305C457.819 17.305 457.598 18.891 457.598 20.815C457.598 23.714 458.703 24.13 460.094 24.13C460.822 24.13 462.2 23.662 462.161 21.816H461.043C461.082 22.999 460.341 23.259 460.094 23.259C458.989 23.259 458.716 22.492 458.716 20.36C458.716 18.566 459.275 18.176 460.094 18.176C460.497 18.176 461.03 18.462 461.004 19.541H462.109ZM470 24V19.346C470 17.864 469.376 17.305 468.258 17.305C467.4 17.305 466.906 17.513 466.477 18.28H466.425V14.614H465.359V24H466.425V20.139C466.425 19.034 466.698 18.176 467.764 18.176C468.674 18.176 468.934 18.748 468.934 19.554V24H470ZM474.212 17.435H473.146V24H474.212V17.435ZM473.081 15.758H474.277V14.614H473.081V15.758ZM478.55 24H479.941L481.995 17.435H480.877L479.291 22.999H479.265L477.796 17.435H476.6L478.55 24ZM485.47 20.256C485.483 18.436 486.042 18.111 486.718 18.111C487.498 18.111 488.031 18.345 488.031 20.256H485.47ZM489.162 21.062V20.503C489.162 18.332 488.694 17.305 486.822 17.305C484.547 17.305 484.326 18.891 484.326 20.815C484.326 23.714 485.431 24.13 486.822 24.13C488.2 24.13 489.097 23.467 489.11 22.011H487.94C487.901 22.674 487.524 23.259 486.796 23.259C485.964 23.259 485.47 22.895 485.47 21.062H489.162ZM493.348 22.648H492.126V24H493.348V22.648Z" fill="white"/>
</svg>
