<svg width="663" height="39" viewBox="0 0 663 39" fill="none" xmlns="http://www.w3.org/2000/svg">
<rect width="663" height="39" fill="black" fill-opacity="0.69"/>
<path d="M13.854 21.99C13.826 22.956 13.826 25.238 16.808 25.21C18.474 25.21 19.944 24.524 19.944 22.396C19.944 19.19 15.408 19.512 15.408 17.286C15.408 16.194 16.192 15.802 16.962 15.802C18.18 15.802 18.53 16.53 18.516 17.636H19.86C19.944 15.578 18.908 14.682 17.06 14.682C15.366 14.682 14.092 15.634 14.092 17.426C14.092 20.464 18.628 20.212 18.628 22.452C18.628 23.656 17.844 24.09 16.822 24.09C15.996 24.09 15.128 23.656 15.128 22.284V21.99H13.854ZM28.1713 25V19.988C28.1713 18.392 27.4993 17.79 26.2953 17.79C25.3713 17.79 24.8393 18.014 24.3773 18.84H24.3213V14.892H23.1733V25H24.3213V20.842C24.3213 19.652 24.6153 18.728 25.7633 18.728C26.7433 18.728 27.0233 19.344 27.0233 20.212V25H28.1713ZM34.0793 24.202C32.8893 24.202 32.5953 23.376 32.5953 21.08C32.5953 19.148 33.1973 18.728 34.0793 18.728C34.9613 18.728 35.5633 19.148 35.5633 21.08C35.5633 23.376 35.2693 24.202 34.0793 24.202ZM34.0793 25.14C35.5773 25.14 36.7673 24.692 36.7673 21.57C36.7673 19.498 36.5293 17.79 34.0793 17.79C31.6293 17.79 31.3913 19.498 31.3913 21.57C31.3913 24.692 32.5813 25.14 34.0793 25.14ZM40.8693 25H42.4093L43.9913 18.98H44.0193L45.5313 25H47.0713L48.9613 17.93H47.7433L46.3433 24.02H46.3153L44.8733 17.93H43.2493L41.6813 24.02H41.6533L40.3793 17.93H39.1053L40.8693 25ZM56.4748 25V20.1C56.4748 18.7 56.0968 17.79 54.5848 17.79C53.6748 17.79 53.1428 18.042 52.6948 18.84H52.6388V17.93H51.4208C51.4628 18.42 51.4908 18.91 51.4908 19.4V25H52.6388V20.814C52.6388 19.848 52.8208 18.728 54.0808 18.728C55.0608 18.728 55.3268 19.344 55.3268 20.1V25H56.4748ZM69.3783 25V19.988C69.3783 18.392 68.7063 17.79 67.5023 17.79C66.5783 17.79 66.0463 18.014 65.5843 18.84H65.5283V14.892H64.3803V25H65.5283V20.842C65.5283 19.652 65.8223 18.728 66.9703 18.728C67.9503 18.728 68.2303 19.344 68.2303 20.212V25H69.3783ZM73.9143 20.968C73.9283 19.008 74.5303 18.658 75.2583 18.658C76.0983 18.658 76.6723 18.91 76.6723 20.968H73.9143ZM77.8903 21.836V21.234C77.8903 18.896 77.3863 17.79 75.3703 17.79C72.9203 17.79 72.6823 19.498 72.6823 21.57C72.6823 24.692 73.8723 25.14 75.3703 25.14C76.8543 25.14 77.8203 24.426 77.8343 22.858H76.5743C76.5323 23.572 76.1263 24.202 75.3423 24.202C74.4463 24.202 73.9143 23.81 73.9143 21.836H77.8903ZM82.3843 17.93H81.2363V25H82.3843V20.828C82.3843 19.876 82.7063 18.91 83.9803 18.91C84.0923 18.91 84.1903 18.924 84.2883 18.938C84.3863 18.952 84.4983 18.966 84.5963 18.98V17.79C83.4763 17.79 82.8883 17.916 82.4123 18.994H82.3843V17.93ZM88.3764 20.968C88.3904 19.008 88.9924 18.658 89.7204 18.658C90.5604 18.658 91.1344 18.91 91.1344 20.968H88.3764ZM92.3524 21.836V21.234C92.3524 18.896 91.8484 17.79 89.8324 17.79C87.3824 17.79 87.1444 19.498 87.1444 21.57C87.1444 24.692 88.3344 25.14 89.8324 25.14C91.3164 25.14 92.2824 24.426 92.2964 22.858H91.0364C90.9944 23.572 90.5884 24.202 89.8044 24.202C88.9084 24.202 88.3764 23.81 88.3764 21.836H92.3524ZM103.772 21.486C103.884 23.768 103.016 24.202 102.316 24.202C101.546 24.202 101.21 23.586 101.21 22.9C101.21 21.402 102.68 21.5 103.772 21.486ZM103.8 25H105.06C104.976 24.454 104.92 23.88 104.92 23.32V19.918C104.92 18.728 104.444 17.79 102.624 17.79C101.126 17.79 100.286 18.336 100.23 19.918H101.476C101.406 19.176 101.812 18.658 102.582 18.658C103.814 18.658 103.8 19.68 103.772 20.618C102.162 20.576 100.062 20.674 100.062 22.816C100.062 24.174 100.496 25.14 101.994 25.14C102.876 25.14 103.422 24.79 103.772 23.978H103.8V25ZM113.11 22.984C113.11 20.828 109.582 20.856 109.582 19.61C109.582 18.994 110.058 18.658 110.674 18.658C111.402 18.658 111.794 19.05 111.78 19.792H113.054C113.152 18.392 112.074 17.79 110.814 17.79C108.826 17.79 108.378 18.98 108.378 19.722C108.378 21.836 111.906 21.864 111.906 23.124C111.906 23.852 111.374 24.202 110.688 24.202C109.526 24.202 109.512 23.25 109.512 22.844H108.21C108.168 24.468 109.12 25.14 110.646 25.14C112.046 25.14 113.11 24.538 113.11 22.984ZM119.648 17.93V18.798H120.81V23.824C120.81 24.636 121.3 25.084 122.392 25.084C122.77 25.084 123.148 25 123.526 24.972V24.09C123.274 24.118 123.092 24.146 123.008 24.146C121.958 24.146 121.958 23.572 121.958 23.124V18.798H123.498V17.93H121.958V16.054L120.81 16.572V17.93H119.648ZM130.965 25V19.988C130.965 18.392 130.293 17.79 129.089 17.79C128.165 17.79 127.633 18.014 127.171 18.84H127.115V14.892H125.967V25H127.115V20.842C127.115 19.652 127.409 18.728 128.557 18.728C129.537 18.728 129.817 19.344 129.817 20.212V25H130.965ZM135.501 20.968C135.515 19.008 136.117 18.658 136.845 18.658C137.685 18.658 138.259 18.91 138.259 20.968H135.501ZM139.477 21.836V21.234C139.477 18.896 138.973 17.79 136.957 17.79C134.507 17.79 134.269 19.498 134.269 21.57C134.269 24.692 135.459 25.14 136.957 25.14C138.441 25.14 139.407 24.426 139.421 22.858H138.161C138.119 23.572 137.713 24.202 136.929 24.202C136.033 24.202 135.501 23.81 135.501 21.836H139.477ZM152.268 25V19.988C152.268 18.392 151.596 17.79 150.392 17.79C149.468 17.79 148.936 18.014 148.474 18.84H148.418V14.892H147.27V25H148.418V20.842C148.418 19.652 148.712 18.728 149.86 18.728C150.84 18.728 151.12 19.344 151.12 20.212V25H152.268ZM156.804 20.968C156.818 19.008 157.42 18.658 158.148 18.658C158.988 18.658 159.562 18.91 159.562 20.968H156.804ZM160.78 21.836V21.234C160.78 18.896 160.276 17.79 158.26 17.79C155.81 17.79 155.572 19.498 155.572 21.57C155.572 24.692 156.762 25.14 158.26 25.14C159.744 25.14 160.71 24.426 160.724 22.858H159.464C159.422 23.572 159.016 24.202 158.232 24.202C157.336 24.202 156.804 23.81 156.804 21.836H160.78ZM165.274 17.93H164.126V25H165.274V20.828C165.274 19.876 165.596 18.91 166.87 18.91C166.982 18.91 167.08 18.924 167.178 18.938C167.276 18.952 167.388 18.966 167.486 18.98V17.79C166.366 17.79 165.778 17.916 165.302 18.994H165.274V17.93ZM172.638 24.202C171.448 24.202 171.154 23.376 171.154 21.08C171.154 19.148 171.756 18.728 172.638 18.728C173.52 18.728 174.122 19.148 174.122 21.08C174.122 23.376 173.828 24.202 172.638 24.202ZM172.638 25.14C174.136 25.14 175.326 24.692 175.326 21.57C175.326 19.498 175.088 17.79 172.638 17.79C170.188 17.79 169.95 19.498 169.95 21.57C169.95 24.692 171.14 25.14 172.638 25.14ZM179.666 20.968C179.68 19.008 180.282 18.658 181.01 18.658C181.85 18.658 182.424 18.91 182.424 20.968H179.666ZM183.642 21.836V21.234C183.642 18.896 183.138 17.79 181.122 17.79C178.672 17.79 178.434 19.498 178.434 21.57C178.434 24.692 179.624 25.14 181.122 25.14C182.606 25.14 183.572 24.426 183.586 22.858H182.326C182.284 23.572 181.878 24.202 181.094 24.202C180.198 24.202 179.666 23.81 179.666 21.836H183.642ZM191.496 22.984C191.496 20.828 187.968 20.856 187.968 19.61C187.968 18.994 188.444 18.658 189.06 18.658C189.788 18.658 190.18 19.05 190.166 19.792H191.44C191.538 18.392 190.46 17.79 189.2 17.79C187.212 17.79 186.764 18.98 186.764 19.722C186.764 21.836 190.292 21.864 190.292 23.124C190.292 23.852 189.76 24.202 189.074 24.202C187.912 24.202 187.898 23.25 187.898 22.844H186.596C186.554 24.468 187.506 25.14 189.032 25.14C190.432 25.14 191.496 24.538 191.496 22.984ZM201.562 24.202C200.373 24.202 200.079 23.376 200.079 21.08C200.079 19.148 200.681 18.728 201.562 18.728C202.445 18.728 203.047 19.148 203.047 21.08C203.047 23.376 202.753 24.202 201.562 24.202ZM201.562 25.14C203.061 25.14 204.251 24.692 204.251 21.57C204.251 19.498 204.013 17.79 201.562 17.79C199.113 17.79 198.875 19.498 198.875 21.57C198.875 24.692 200.065 25.14 201.562 25.14ZM206.588 17.93V18.798H207.68V25H208.828V18.798H210.256V17.93H208.828V16.726C208.828 16.152 209.038 15.634 210.256 15.718V14.892C210.088 14.864 209.948 14.85 209.71 14.85C208.688 14.85 207.68 15.13 207.68 16.558V17.93H206.588ZM216.472 25H217.774L218.53 22.592H222.436L223.164 25H224.606L221.316 14.892H219.678L216.472 25ZM222.086 21.472H218.852L220.434 16.082H220.462L222.086 21.472ZM231.849 25V20.24C231.849 19.974 231.905 19.274 232.241 18.994C232.549 18.742 232.675 18.728 233.109 18.728C234.033 18.728 234.229 19.386 234.229 20.1V25H235.377V19.624C235.377 17.958 234.187 17.79 233.445 17.79C232.801 17.79 232.157 17.944 231.765 18.7C231.499 18.056 230.757 17.79 230.113 17.79C229.287 17.79 228.685 18.056 228.349 18.812H228.321V17.93H227.103C227.145 18.42 227.173 18.91 227.173 19.4V25H228.321V20.24C228.321 19.974 228.377 19.554 228.587 19.204C228.755 18.938 229.231 18.728 229.581 18.728C230.505 18.728 230.701 19.386 230.701 20.1V25H231.849ZM239.853 20.968C239.867 19.008 240.469 18.658 241.197 18.658C242.037 18.658 242.611 18.91 242.611 20.968H239.853ZM243.829 21.836V21.234C243.829 18.896 243.325 17.79 241.309 17.79C238.859 17.79 238.621 19.498 238.621 21.57C238.621 24.692 239.811 25.14 241.309 25.14C242.793 25.14 243.759 24.426 243.773 22.858H242.513C242.471 23.572 242.065 24.202 241.281 24.202C240.385 24.202 239.853 23.81 239.853 21.836H243.829ZM248.323 17.93H247.175V25H248.323V20.828C248.323 19.876 248.645 18.91 249.919 18.91C250.031 18.91 250.129 18.924 250.227 18.938C250.325 18.952 250.437 18.966 250.535 18.98V17.79C249.415 17.79 248.827 17.916 248.351 18.994H248.323V17.93ZM254.315 17.93H253.167V25H254.315V17.93ZM253.097 16.124H254.385V14.892H253.097V16.124ZM262.584 20.198C262.654 18.616 261.828 17.79 260.414 17.79C257.964 17.79 257.726 19.498 257.726 21.57C257.726 24.692 258.916 25.14 260.414 25.14C261.198 25.14 262.682 24.636 262.64 22.648H261.436C261.478 23.922 260.68 24.202 260.414 24.202C259.224 24.202 258.93 23.376 258.93 21.08C258.93 19.148 259.532 18.728 260.414 18.728C260.848 18.728 261.422 19.036 261.394 20.198H262.584ZM269.71 21.486C269.822 23.768 268.954 24.202 268.254 24.202C267.484 24.202 267.148 23.586 267.148 22.9C267.148 21.402 268.618 21.5 269.71 21.486ZM269.738 25H270.998C270.914 24.454 270.858 23.88 270.858 23.32V19.918C270.858 18.728 270.382 17.79 268.562 17.79C267.064 17.79 266.224 18.336 266.168 19.918H267.414C267.344 19.176 267.75 18.658 268.52 18.658C269.752 18.658 269.738 19.68 269.71 20.618C268.1 20.576 266 20.674 266 22.816C266 24.174 266.434 25.14 267.932 25.14C268.814 25.14 269.36 24.79 269.71 23.978H269.738V25ZM273.966 26.778H274.862L276.136 23.544H274.694L273.966 26.778ZM288.055 22.984C288.055 20.828 284.527 20.856 284.527 19.61C284.527 18.994 285.003 18.658 285.619 18.658C286.347 18.658 286.739 19.05 286.725 19.792H287.999C288.097 18.392 287.019 17.79 285.759 17.79C283.771 17.79 283.323 18.98 283.323 19.722C283.323 21.836 286.851 21.864 286.851 23.124C286.851 23.852 286.319 24.202 285.633 24.202C284.471 24.202 284.457 23.25 284.457 22.844H283.155C283.113 24.468 284.065 25.14 285.591 25.14C286.991 25.14 288.055 24.538 288.055 22.984ZM293.618 24.202C292.428 24.202 292.134 23.376 292.134 21.08C292.134 19.148 292.736 18.728 293.618 18.728C294.5 18.728 295.102 19.148 295.102 21.08C295.102 23.376 294.808 24.202 293.618 24.202ZM293.618 25.14C295.116 25.14 296.306 24.692 296.306 21.57C296.306 19.498 296.068 17.79 293.618 17.79C291.168 17.79 290.93 19.498 290.93 21.57C290.93 24.692 292.12 25.14 293.618 25.14ZM300.646 14.892H299.498V25H300.646V14.892ZM307.767 21.178C307.767 22.606 307.767 24.202 306.479 24.202C305.037 24.202 305.037 22.662 305.037 21.598C305.037 19.708 305.205 18.728 306.437 18.728C307.711 18.728 307.767 20.24 307.767 21.178ZM307.767 18.644H307.725C307.333 18.084 306.843 17.79 306.171 17.79C303.889 17.79 303.833 19.82 303.833 21.584C303.833 24.692 304.981 25.14 306.115 25.14C306.857 25.14 307.347 24.818 307.739 24.16H307.767V25H308.915V14.892H307.767V18.644ZM313.549 17.93H312.401V25H313.549V17.93ZM312.331 16.124H313.619V14.892H312.331V16.124ZM318.053 20.968C318.067 19.008 318.669 18.658 319.397 18.658C320.237 18.658 320.811 18.91 320.811 20.968H318.053ZM322.029 21.836V21.234C322.029 18.896 321.525 17.79 319.509 17.79C317.059 17.79 316.821 19.498 316.821 21.57C316.821 24.692 318.011 25.14 319.509 25.14C320.993 25.14 321.959 24.426 321.973 22.858H320.713C320.671 23.572 320.265 24.202 319.481 24.202C318.585 24.202 318.053 23.81 318.053 21.836H322.029ZM326.523 17.93H325.375V25H326.523V20.828C326.523 19.876 326.845 18.91 328.119 18.91C328.231 18.91 328.329 18.924 328.427 18.938C328.525 18.952 328.637 18.966 328.735 18.98V17.79C327.615 17.79 327.027 17.916 326.551 18.994H326.523V17.93ZM335.945 22.984C335.945 20.828 332.417 20.856 332.417 19.61C332.417 18.994 332.893 18.658 333.509 18.658C334.237 18.658 334.629 19.05 334.615 19.792H335.889C335.987 18.392 334.909 17.79 333.649 17.79C331.661 17.79 331.213 18.98 331.213 19.722C331.213 21.836 334.741 21.864 334.741 23.124C334.741 23.852 334.209 24.202 333.523 24.202C332.361 24.202 332.347 23.25 332.347 22.844H331.045C331.003 24.468 331.955 25.14 333.481 25.14C334.881 25.14 335.945 24.538 335.945 22.984ZM348.405 20.198C348.475 18.616 347.649 17.79 346.235 17.79C343.785 17.79 343.547 19.498 343.547 21.57C343.547 24.692 344.737 25.14 346.235 25.14C347.019 25.14 348.503 24.636 348.461 22.648H347.257C347.299 23.922 346.501 24.202 346.235 24.202C345.045 24.202 344.751 23.376 344.751 21.08C344.751 19.148 345.353 18.728 346.235 18.728C346.669 18.728 347.243 19.036 347.215 20.198H348.405ZM354.411 24.202C353.221 24.202 352.927 23.376 352.927 21.08C352.927 19.148 353.529 18.728 354.411 18.728C355.293 18.728 355.895 19.148 355.895 21.08C355.895 23.376 355.601 24.202 354.411 24.202ZM354.411 25.14C355.909 25.14 357.099 24.692 357.099 21.57C357.099 19.498 356.861 17.79 354.411 17.79C351.961 17.79 351.723 19.498 351.723 21.57C351.723 24.692 352.913 25.14 354.411 25.14ZM364.939 25V20.24C364.939 19.974 364.995 19.274 365.331 18.994C365.639 18.742 365.765 18.728 366.199 18.728C367.123 18.728 367.319 19.386 367.319 20.1V25H368.467V19.624C368.467 17.958 367.277 17.79 366.535 17.79C365.891 17.79 365.247 17.944 364.855 18.7C364.589 18.056 363.847 17.79 363.203 17.79C362.377 17.79 361.775 18.056 361.439 18.812H361.411V17.93H360.193C360.235 18.42 360.263 18.91 360.263 19.4V25H361.411V20.24C361.411 19.974 361.467 19.554 361.677 19.204C361.845 18.938 362.321 18.728 362.671 18.728C363.595 18.728 363.791 19.386 363.791 20.1V25H364.939ZM372.943 20.968C372.957 19.008 373.559 18.658 374.287 18.658C375.127 18.658 375.701 18.91 375.701 20.968H372.943ZM376.919 21.836V21.234C376.919 18.896 376.415 17.79 374.399 17.79C371.949 17.79 371.711 19.498 371.711 21.57C371.711 24.692 372.901 25.14 374.399 25.14C375.883 25.14 376.849 24.426 376.863 22.858H375.603C375.561 23.572 375.155 24.202 374.371 24.202C373.475 24.202 372.943 23.81 372.943 21.836H376.919ZM385.972 21.178C385.972 20.24 386.028 18.728 387.302 18.728C388.534 18.728 388.702 19.708 388.702 21.598C388.702 22.662 388.702 24.202 387.26 24.202C385.846 24.202 385.972 22.256 385.972 21.178ZM385.972 24.16H386C386.392 24.818 386.882 25.14 387.624 25.14C388.758 25.14 389.906 24.692 389.906 21.584C389.906 19.82 389.85 17.79 387.568 17.79C386.896 17.79 386.406 18.084 386.014 18.644H385.972V14.892H384.824V25H385.972V24.16ZM396.738 21.486C396.85 23.768 395.982 24.202 395.282 24.202C394.512 24.202 394.176 23.586 394.176 22.9C394.176 21.402 395.646 21.5 396.738 21.486ZM396.766 25H398.026C397.942 24.454 397.886 23.88 397.886 23.32V19.918C397.886 18.728 397.41 17.79 395.59 17.79C394.092 17.79 393.252 18.336 393.196 19.918H394.442C394.372 19.176 394.778 18.658 395.548 18.658C396.78 18.658 396.766 19.68 396.738 20.618C395.128 20.576 393.028 20.674 393.028 22.816C393.028 24.174 393.462 25.14 394.96 25.14C395.842 25.14 396.388 24.79 396.738 23.978H396.766V25ZM406.412 20.198C406.482 18.616 405.656 17.79 404.242 17.79C401.792 17.79 401.554 19.498 401.554 21.57C401.554 24.692 402.744 25.14 404.242 25.14C405.026 25.14 406.51 24.636 406.468 22.648H405.264C405.306 23.922 404.508 24.202 404.242 24.202C403.052 24.202 402.758 23.376 402.758 21.08C402.758 19.148 403.36 18.728 404.242 18.728C404.676 18.728 405.25 19.036 405.222 20.198H406.412ZM411.074 21.038H411.102L413.622 25H415.078L412.306 20.968L414.658 17.93H413.258L411.102 20.982H411.074V14.892H409.926V25H411.074V21.038ZM427.035 25V19.988C427.035 18.392 426.363 17.79 425.159 17.79C424.235 17.79 423.703 18.014 423.241 18.84H423.185V14.892H422.037V25H423.185V20.842C423.185 19.652 423.479 18.728 424.627 18.728C425.607 18.728 425.887 19.344 425.887 20.212V25H427.035ZM432.943 24.202C431.753 24.202 431.459 23.376 431.459 21.08C431.459 19.148 432.061 18.728 432.943 18.728C433.825 18.728 434.427 19.148 434.427 21.08C434.427 23.376 434.133 24.202 432.943 24.202ZM432.943 25.14C434.441 25.14 435.631 24.692 435.631 21.57C435.631 19.498 435.393 17.79 432.943 17.79C430.493 17.79 430.255 19.498 430.255 21.57C430.255 24.692 431.445 25.14 432.943 25.14ZM443.471 25V20.24C443.471 19.974 443.527 19.274 443.863 18.994C444.171 18.742 444.297 18.728 444.731 18.728C445.655 18.728 445.851 19.386 445.851 20.1V25H446.999V19.624C446.999 17.958 445.809 17.79 445.067 17.79C444.423 17.79 443.779 17.944 443.387 18.7C443.121 18.056 442.379 17.79 441.735 17.79C440.909 17.79 440.307 18.056 439.971 18.812H439.943V17.93H438.725C438.767 18.42 438.795 18.91 438.795 19.4V25H439.943V20.24C439.943 19.974 439.999 19.554 440.209 19.204C440.377 18.938 440.853 18.728 441.203 18.728C442.127 18.728 442.323 19.386 442.323 20.1V25H443.471ZM451.474 20.968C451.488 19.008 452.09 18.658 452.818 18.658C453.658 18.658 454.232 18.91 454.232 20.968H451.474ZM455.45 21.836V21.234C455.45 18.896 454.946 17.79 452.93 17.79C450.48 17.79 450.242 19.498 450.242 21.57C450.242 24.692 451.432 25.14 452.93 25.14C454.414 25.14 455.38 24.426 455.394 22.858H454.134C454.092 23.572 453.686 24.202 452.902 24.202C452.006 24.202 451.474 23.81 451.474 21.836H455.45ZM466.87 21.486C466.982 23.768 466.114 24.202 465.414 24.202C464.644 24.202 464.308 23.586 464.308 22.9C464.308 21.402 465.778 21.5 466.87 21.486ZM466.898 25H468.158C468.074 24.454 468.018 23.88 468.018 23.32V19.918C468.018 18.728 467.542 17.79 465.722 17.79C464.224 17.79 463.384 18.336 463.328 19.918H464.574C464.504 19.176 464.91 18.658 465.68 18.658C466.912 18.658 466.898 19.68 466.87 20.618C465.26 20.576 463.16 20.674 463.16 22.816C463.16 24.174 463.594 25.14 465.092 25.14C465.974 25.14 466.52 24.79 466.87 23.978H466.898V25ZM470.776 17.93V18.798H471.868V25H473.016V18.798H474.444V17.93H473.016V16.726C473.016 16.152 473.226 15.634 474.444 15.718V14.892C474.276 14.864 474.136 14.85 473.898 14.85C472.876 14.85 471.868 15.13 471.868 16.558V17.93H470.776ZM475.918 17.93V18.798H477.08V23.824C477.08 24.636 477.57 25.084 478.662 25.084C479.04 25.084 479.418 25 479.796 24.972V24.09C479.544 24.118 479.362 24.146 479.278 24.146C478.228 24.146 478.228 23.572 478.228 23.124V18.798H479.768V17.93H478.228V16.054L477.08 16.572V17.93H475.918ZM483.371 20.968C483.385 19.008 483.987 18.658 484.715 18.658C485.555 18.658 486.129 18.91 486.129 20.968H483.371ZM487.347 21.836V21.234C487.347 18.896 486.843 17.79 484.827 17.79C482.377 17.79 482.139 19.498 482.139 21.57C482.139 24.692 483.329 25.14 484.827 25.14C486.311 25.14 487.277 24.426 487.291 22.858H486.031C485.989 23.572 485.583 24.202 484.799 24.202C483.903 24.202 483.371 23.81 483.371 21.836H487.347ZM491.841 17.93H490.693V25H491.841V20.828C491.841 19.876 492.163 18.91 493.437 18.91C493.549 18.91 493.647 18.924 493.745 18.938C493.843 18.952 493.955 18.966 494.053 18.98V17.79C492.933 17.79 492.345 17.916 491.869 18.994H491.841V17.93ZM506.13 17.93H504.982V25H506.13V17.93ZM504.912 16.124H506.2V14.892H504.912V16.124ZM500.334 17.93V18.798H501.426V25H502.574V18.798H504.002V17.93H502.574V16.726C502.574 16.152 502.784 15.634 504.002 15.718V14.892C503.834 14.864 503.694 14.85 503.456 14.85C502.434 14.85 501.426 15.13 501.426 16.558V17.93H500.334ZM513.382 21.43C513.382 22.41 513.424 24.048 512.038 24.048C511.184 24.048 510.666 23.516 510.666 21.248C510.666 20.31 510.708 18.742 512.01 18.742C513.452 18.742 513.382 20.38 513.382 21.43ZM513.354 18.798H513.326C513.004 18.112 512.416 17.79 511.674 17.79C511.1 17.79 509.462 18 509.462 21.248C509.462 23.348 509.84 25 511.758 25C512.374 25 513.018 24.678 513.312 24.118H513.354V25.588C513.354 26.316 512.92 26.806 512.122 26.806C511.492 26.806 511.058 26.442 511.044 25.784H509.756C509.658 27.086 510.722 27.674 511.898 27.674C513.452 27.674 514.502 27.296 514.502 25.714V17.93H513.354V18.798ZM523 25V19.988C523 18.392 522.328 17.79 521.124 17.79C520.2 17.79 519.668 18.014 519.206 18.84H519.15V14.892H518.002V25H519.15V20.842C519.15 19.652 519.444 18.728 520.592 18.728C521.572 18.728 521.852 19.344 521.852 20.212V25H523ZM525.38 17.93V18.798H526.542V23.824C526.542 24.636 527.032 25.084 528.124 25.084C528.502 25.084 528.88 25 529.258 24.972V24.09C529.006 24.118 528.824 24.146 528.74 24.146C527.69 24.146 527.69 23.572 527.69 23.124V18.798H529.23V17.93H527.69V16.054L526.542 16.572V17.93H525.38ZM532.833 17.93H531.685V25H532.833V17.93ZM531.615 16.124H532.903V14.892H531.615V16.124ZM541.2 25V20.1C541.2 18.7 540.822 17.79 539.31 17.79C538.4 17.79 537.868 18.042 537.42 18.84H537.364V17.93H536.146C536.188 18.42 536.216 18.91 536.216 19.4V25H537.364V20.814C537.364 19.848 537.546 18.728 538.806 18.728C539.786 18.728 540.052 19.344 540.052 20.1V25H541.2ZM548.382 21.43C548.382 22.41 548.424 24.048 547.038 24.048C546.184 24.048 545.666 23.516 545.666 21.248C545.666 20.31 545.708 18.742 547.01 18.742C548.452 18.742 548.382 20.38 548.382 21.43ZM548.354 18.798H548.326C548.004 18.112 547.416 17.79 546.674 17.79C546.1 17.79 544.462 18 544.462 21.248C544.462 23.348 544.84 25 546.758 25C547.374 25 548.018 24.678 548.312 24.118H548.354V25.588C548.354 26.316 547.92 26.806 547.122 26.806C546.492 26.806 546.058 26.442 546.044 25.784H544.756C544.658 27.086 545.722 27.674 546.898 27.674C548.452 27.674 549.502 27.296 549.502 25.714V17.93H548.354V18.798ZM558.64 17.93H557.492V25H558.64V17.93ZM557.422 16.124H558.71V14.892H557.422V16.124ZM567.007 25V20.1C567.007 18.7 566.629 17.79 565.117 17.79C564.207 17.79 563.675 18.042 563.227 18.84H563.171V17.93H561.953C561.995 18.42 562.023 18.91 562.023 19.4V25H563.171V20.814C563.171 19.848 563.353 18.728 564.613 18.728C565.593 18.728 565.859 19.344 565.859 20.1V25H567.007ZM576.467 25H578.035L580.079 16.236H580.107L582.025 25H583.593L586.267 14.892H584.923L582.865 23.656H582.837L581.003 14.892H579.337L577.307 23.656H577.279L575.375 14.892H574.003L576.467 25ZM590.308 25H591.876L593.92 16.236H593.948L595.866 25H597.434L600.108 14.892H598.764L596.706 23.656H596.678L594.844 14.892H593.178L591.148 23.656H591.12L589.216 14.892H587.844L590.308 25ZM604.192 14.892H602.904V25H604.192V14.892ZM609.488 14.892H608.2V25H609.488V14.892ZM614.407 23.544H613.091V25H614.407V23.544Z" fill="white"/>
</svg>
