<svg width="427" height="55" viewBox="0 0 427 55" fill="none" xmlns="http://www.w3.org/2000/svg">
<rect width="427" height="55" fill="black" fill-opacity="0.69"/>
<path d="M10.854 15.99C10.826 16.956 10.826 19.238 13.808 19.21C15.474 19.21 16.944 18.524 16.944 16.396C16.944 13.19 12.408 13.512 12.408 11.286C12.408 10.194 13.192 9.802 13.962 9.802C15.18 9.802 15.53 10.53 15.516 11.636H16.86C16.944 9.578 15.908 8.682 14.06 8.682C12.366 8.682 11.092 9.634 11.092 11.426C11.092 14.464 15.628 14.212 15.628 16.452C15.628 17.656 14.844 18.09 13.822 18.09C12.996 18.09 12.128 17.656 12.128 16.284V15.99H10.854ZM25.1713 19V13.988C25.1713 12.392 24.4993 11.79 23.2953 11.79C22.3713 11.79 21.8393 12.014 21.3773 12.84H21.3213V8.892H20.1733V19H21.3213V14.842C21.3213 13.652 21.6153 12.728 22.7633 12.728C23.7433 12.728 24.0233 13.344 24.0233 14.212V19H25.1713ZM31.0793 18.202C29.8893 18.202 29.5953 17.376 29.5953 15.08C29.5953 13.148 30.1973 12.728 31.0793 12.728C31.9613 12.728 32.5633 13.148 32.5633 15.08C32.5633 17.376 32.2693 18.202 31.0793 18.202ZM31.0793 19.14C32.5773 19.14 33.7673 18.692 33.7673 15.57C33.7673 13.498 33.5293 11.79 31.0793 11.79C28.6293 11.79 28.3913 13.498 28.3913 15.57C28.3913 18.692 29.5813 19.14 31.0793 19.14ZM37.8693 19H39.4093L40.9913 12.98H41.0193L42.5313 19H44.0713L45.9613 11.93H44.7433L43.3433 18.02H43.3153L41.8733 11.93H40.2493L38.6813 18.02H38.6533L37.3793 11.93H36.1053L37.8693 19ZM53.4748 19V14.1C53.4748 12.7 53.0968 11.79 51.5848 11.79C50.6748 11.79 50.1428 12.042 49.6948 12.84H49.6388V11.93H48.4208C48.4628 12.42 48.4908 12.91 48.4908 13.4V19H49.6388V14.814C49.6388 13.848 49.8208 12.728 51.0808 12.728C52.0608 12.728 52.3268 13.344 52.3268 14.1V19H53.4748ZM66.3783 19V13.988C66.3783 12.392 65.7063 11.79 64.5023 11.79C63.5783 11.79 63.0463 12.014 62.5843 12.84H62.5283V8.892H61.3803V19H62.5283V14.842C62.5283 13.652 62.8223 12.728 63.9703 12.728C64.9503 12.728 65.2303 13.344 65.2303 14.212V19H66.3783ZM70.9143 14.968C70.9283 13.008 71.5303 12.658 72.2583 12.658C73.0983 12.658 73.6723 12.91 73.6723 14.968H70.9143ZM74.8903 15.836V15.234C74.8903 12.896 74.3863 11.79 72.3703 11.79C69.9203 11.79 69.6823 13.498 69.6823 15.57C69.6823 18.692 70.8723 19.14 72.3703 19.14C73.8543 19.14 74.8203 18.426 74.8343 16.858H73.5743C73.5323 17.572 73.1263 18.202 72.3423 18.202C71.4463 18.202 70.9143 17.81 70.9143 15.836H74.8903ZM79.3843 11.93H78.2363V19H79.3843V14.828C79.3843 13.876 79.7063 12.91 80.9803 12.91C81.0923 12.91 81.1903 12.924 81.2883 12.938C81.3863 12.952 81.4983 12.966 81.5963 12.98V11.79C80.4763 11.79 79.8883 11.916 79.4123 12.994H79.3843V11.93ZM85.3764 14.968C85.3904 13.008 85.9924 12.658 86.7204 12.658C87.5604 12.658 88.1344 12.91 88.1344 14.968H85.3764ZM89.3524 15.836V15.234C89.3524 12.896 88.8484 11.79 86.8324 11.79C84.3824 11.79 84.1444 13.498 84.1444 15.57C84.1444 18.692 85.3344 19.14 86.8324 19.14C88.3164 19.14 89.2824 18.426 89.2964 16.858H88.0364C87.9944 17.572 87.5884 18.202 86.8044 18.202C85.9084 18.202 85.3764 17.81 85.3764 15.836H89.3524ZM100.772 15.486C100.884 17.768 100.016 18.202 99.316 18.202C98.546 18.202 98.21 17.586 98.21 16.9C98.21 15.402 99.68 15.5 100.772 15.486ZM100.8 19H102.06C101.976 18.454 101.92 17.88 101.92 17.32V13.918C101.92 12.728 101.444 11.79 99.624 11.79C98.126 11.79 97.286 12.336 97.23 13.918H98.476C98.406 13.176 98.812 12.658 99.582 12.658C100.814 12.658 100.8 13.68 100.772 14.618C99.162 14.576 97.062 14.674 97.062 16.816C97.062 18.174 97.496 19.14 98.994 19.14C99.876 19.14 100.422 18.79 100.772 17.978H100.8V19ZM110.11 16.984C110.11 14.828 106.582 14.856 106.582 13.61C106.582 12.994 107.058 12.658 107.674 12.658C108.402 12.658 108.794 13.05 108.78 13.792H110.054C110.152 12.392 109.074 11.79 107.814 11.79C105.826 11.79 105.378 12.98 105.378 13.722C105.378 15.836 108.906 15.864 108.906 17.124C108.906 17.852 108.374 18.202 107.688 18.202C106.526 18.202 106.512 17.25 106.512 16.844H105.21C105.168 18.468 106.12 19.14 107.646 19.14C109.046 19.14 110.11 18.538 110.11 16.984ZM116.648 11.93V12.798H117.81V17.824C117.81 18.636 118.3 19.084 119.392 19.084C119.77 19.084 120.148 19 120.526 18.972V18.09C120.274 18.118 120.092 18.146 120.008 18.146C118.958 18.146 118.958 17.572 118.958 17.124V12.798H120.498V11.93H118.958V10.054L117.81 10.572V11.93H116.648ZM127.965 19V13.988C127.965 12.392 127.293 11.79 126.089 11.79C125.165 11.79 124.633 12.014 124.171 12.84H124.115V8.892H122.967V19H124.115V14.842C124.115 13.652 124.409 12.728 125.557 12.728C126.537 12.728 126.817 13.344 126.817 14.212V19H127.965ZM132.501 14.968C132.515 13.008 133.117 12.658 133.845 12.658C134.685 12.658 135.259 12.91 135.259 14.968H132.501ZM136.477 15.836V15.234C136.477 12.896 135.973 11.79 133.957 11.79C131.507 11.79 131.269 13.498 131.269 15.57C131.269 18.692 132.459 19.14 133.957 19.14C135.441 19.14 136.407 18.426 136.421 16.858H135.161C135.119 17.572 134.713 18.202 133.929 18.202C133.033 18.202 132.501 17.81 132.501 15.836H136.477ZM149.268 19V13.988C149.268 12.392 148.596 11.79 147.392 11.79C146.468 11.79 145.936 12.014 145.474 12.84H145.418V8.892H144.27V19H145.418V14.842C145.418 13.652 145.712 12.728 146.86 12.728C147.84 12.728 148.12 13.344 148.12 14.212V19H149.268ZM153.804 14.968C153.818 13.008 154.42 12.658 155.148 12.658C155.988 12.658 156.562 12.91 156.562 14.968H153.804ZM157.78 15.836V15.234C157.78 12.896 157.276 11.79 155.26 11.79C152.81 11.79 152.572 13.498 152.572 15.57C152.572 18.692 153.762 19.14 155.26 19.14C156.744 19.14 157.71 18.426 157.724 16.858H156.464C156.422 17.572 156.016 18.202 155.232 18.202C154.336 18.202 153.804 17.81 153.804 15.836H157.78ZM162.274 11.93H161.126V19H162.274V14.828C162.274 13.876 162.596 12.91 163.87 12.91C163.982 12.91 164.08 12.924 164.178 12.938C164.276 12.952 164.388 12.966 164.486 12.98V11.79C163.366 11.79 162.778 11.916 162.302 12.994H162.274V11.93ZM169.638 18.202C168.448 18.202 168.154 17.376 168.154 15.08C168.154 13.148 168.756 12.728 169.638 12.728C170.52 12.728 171.122 13.148 171.122 15.08C171.122 17.376 170.828 18.202 169.638 18.202ZM169.638 19.14C171.136 19.14 172.326 18.692 172.326 15.57C172.326 13.498 172.088 11.79 169.638 11.79C167.188 11.79 166.95 13.498 166.95 15.57C166.95 18.692 168.14 19.14 169.638 19.14ZM176.666 14.968C176.68 13.008 177.282 12.658 178.01 12.658C178.85 12.658 179.424 12.91 179.424 14.968H176.666ZM180.642 15.836V15.234C180.642 12.896 180.138 11.79 178.122 11.79C175.672 11.79 175.434 13.498 175.434 15.57C175.434 18.692 176.624 19.14 178.122 19.14C179.606 19.14 180.572 18.426 180.586 16.858H179.326C179.284 17.572 178.878 18.202 178.094 18.202C177.198 18.202 176.666 17.81 176.666 15.836H180.642ZM188.496 16.984C188.496 14.828 184.968 14.856 184.968 13.61C184.968 12.994 185.444 12.658 186.06 12.658C186.788 12.658 187.18 13.05 187.166 13.792H188.44C188.538 12.392 187.46 11.79 186.2 11.79C184.212 11.79 183.764 12.98 183.764 13.722C183.764 15.836 187.292 15.864 187.292 17.124C187.292 17.852 186.76 18.202 186.074 18.202C184.912 18.202 184.898 17.25 184.898 16.844H183.596C183.554 18.468 184.506 19.14 186.032 19.14C187.432 19.14 188.496 18.538 188.496 16.984ZM198.562 18.202C197.373 18.202 197.079 17.376 197.079 15.08C197.079 13.148 197.681 12.728 198.562 12.728C199.445 12.728 200.047 13.148 200.047 15.08C200.047 17.376 199.753 18.202 198.562 18.202ZM198.562 19.14C200.061 19.14 201.251 18.692 201.251 15.57C201.251 13.498 201.013 11.79 198.562 11.79C196.113 11.79 195.875 13.498 195.875 15.57C195.875 18.692 197.065 19.14 198.562 19.14ZM203.588 11.93V12.798H204.68V19H205.828V12.798H207.256V11.93H205.828V10.726C205.828 10.152 206.038 9.634 207.256 9.718V8.892C207.088 8.864 206.948 8.85 206.71 8.85C205.688 8.85 204.68 9.13 204.68 10.558V11.93H203.588ZM213.472 19H214.774L215.53 16.592H219.436L220.164 19H221.606L218.316 8.892H216.678L213.472 19ZM219.086 15.472H215.852L217.434 10.082H217.462L219.086 15.472ZM228.849 19V14.24C228.849 13.974 228.905 13.274 229.241 12.994C229.549 12.742 229.675 12.728 230.109 12.728C231.033 12.728 231.229 13.386 231.229 14.1V19H232.377V13.624C232.377 11.958 231.187 11.79 230.445 11.79C229.801 11.79 229.157 11.944 228.765 12.7C228.499 12.056 227.757 11.79 227.113 11.79C226.287 11.79 225.685 12.056 225.349 12.812H225.321V11.93H224.103C224.145 12.42 224.173 12.91 224.173 13.4V19H225.321V14.24C225.321 13.974 225.377 13.554 225.587 13.204C225.755 12.938 226.231 12.728 226.581 12.728C227.505 12.728 227.701 13.386 227.701 14.1V19H228.849ZM236.853 14.968C236.867 13.008 237.469 12.658 238.197 12.658C239.037 12.658 239.611 12.91 239.611 14.968H236.853ZM240.829 15.836V15.234C240.829 12.896 240.325 11.79 238.309 11.79C235.859 11.79 235.621 13.498 235.621 15.57C235.621 18.692 236.811 19.14 238.309 19.14C239.793 19.14 240.759 18.426 240.773 16.858H239.513C239.471 17.572 239.065 18.202 238.281 18.202C237.385 18.202 236.853 17.81 236.853 15.836H240.829ZM245.323 11.93H244.175V19H245.323V14.828C245.323 13.876 245.645 12.91 246.919 12.91C247.031 12.91 247.129 12.924 247.227 12.938C247.325 12.952 247.437 12.966 247.535 12.98V11.79C246.415 11.79 245.827 11.916 245.351 12.994H245.323V11.93ZM251.315 11.93H250.167V19H251.315V11.93ZM250.097 10.124H251.385V8.892H250.097V10.124ZM259.584 14.198C259.654 12.616 258.828 11.79 257.414 11.79C254.964 11.79 254.726 13.498 254.726 15.57C254.726 18.692 255.916 19.14 257.414 19.14C258.198 19.14 259.682 18.636 259.64 16.648H258.436C258.478 17.922 257.68 18.202 257.414 18.202C256.224 18.202 255.93 17.376 255.93 15.08C255.93 13.148 256.532 12.728 257.414 12.728C257.848 12.728 258.422 13.036 258.394 14.198H259.584ZM266.71 15.486C266.822 17.768 265.954 18.202 265.254 18.202C264.484 18.202 264.148 17.586 264.148 16.9C264.148 15.402 265.618 15.5 266.71 15.486ZM266.738 19H267.998C267.914 18.454 267.858 17.88 267.858 17.32V13.918C267.858 12.728 267.382 11.79 265.562 11.79C264.064 11.79 263.224 12.336 263.168 13.918H264.414C264.344 13.176 264.75 12.658 265.52 12.658C266.752 12.658 266.738 13.68 266.71 14.618C265.1 14.576 263 14.674 263 16.816C263 18.174 263.434 19.14 264.932 19.14C265.814 19.14 266.36 18.79 266.71 17.978H266.738V19ZM270.966 20.778H271.862L273.136 17.544H271.694L270.966 20.778ZM285.055 16.984C285.055 14.828 281.527 14.856 281.527 13.61C281.527 12.994 282.003 12.658 282.619 12.658C283.347 12.658 283.739 13.05 283.725 13.792H284.999C285.097 12.392 284.019 11.79 282.759 11.79C280.771 11.79 280.323 12.98 280.323 13.722C280.323 15.836 283.851 15.864 283.851 17.124C283.851 17.852 283.319 18.202 282.633 18.202C281.471 18.202 281.457 17.25 281.457 16.844H280.155C280.113 18.468 281.065 19.14 282.591 19.14C283.991 19.14 285.055 18.538 285.055 16.984ZM290.618 18.202C289.428 18.202 289.134 17.376 289.134 15.08C289.134 13.148 289.736 12.728 290.618 12.728C291.5 12.728 292.102 13.148 292.102 15.08C292.102 17.376 291.808 18.202 290.618 18.202ZM290.618 19.14C292.116 19.14 293.306 18.692 293.306 15.57C293.306 13.498 293.068 11.79 290.618 11.79C288.168 11.79 287.93 13.498 287.93 15.57C287.93 18.692 289.12 19.14 290.618 19.14ZM297.646 8.892H296.498V19H297.646V8.892ZM304.767 15.178C304.767 16.606 304.767 18.202 303.479 18.202C302.037 18.202 302.037 16.662 302.037 15.598C302.037 13.708 302.205 12.728 303.437 12.728C304.711 12.728 304.767 14.24 304.767 15.178ZM304.767 12.644H304.725C304.333 12.084 303.843 11.79 303.171 11.79C300.889 11.79 300.833 13.82 300.833 15.584C300.833 18.692 301.981 19.14 303.115 19.14C303.857 19.14 304.347 18.818 304.739 18.16H304.767V19H305.915V8.892H304.767V12.644ZM310.549 11.93H309.401V19H310.549V11.93ZM309.331 10.124H310.619V8.892H309.331V10.124ZM315.053 14.968C315.067 13.008 315.669 12.658 316.397 12.658C317.237 12.658 317.811 12.91 317.811 14.968H315.053ZM319.029 15.836V15.234C319.029 12.896 318.525 11.79 316.509 11.79C314.059 11.79 313.821 13.498 313.821 15.57C313.821 18.692 315.011 19.14 316.509 19.14C317.993 19.14 318.959 18.426 318.973 16.858H317.713C317.671 17.572 317.265 18.202 316.481 18.202C315.585 18.202 315.053 17.81 315.053 15.836H319.029ZM323.523 11.93H322.375V19H323.523V14.828C323.523 13.876 323.845 12.91 325.119 12.91C325.231 12.91 325.329 12.924 325.427 12.938C325.525 12.952 325.637 12.966 325.735 12.98V11.79C324.615 11.79 324.027 11.916 323.551 12.994H323.523V11.93ZM332.945 16.984C332.945 14.828 329.417 14.856 329.417 13.61C329.417 12.994 329.893 12.658 330.509 12.658C331.237 12.658 331.629 13.05 331.615 13.792H332.889C332.987 12.392 331.909 11.79 330.649 11.79C328.661 11.79 328.213 12.98 328.213 13.722C328.213 15.836 331.741 15.864 331.741 17.124C331.741 17.852 331.209 18.202 330.523 18.202C329.361 18.202 329.347 17.25 329.347 16.844H328.045C328.003 18.468 328.955 19.14 330.481 19.14C331.881 19.14 332.945 18.538 332.945 16.984ZM345.405 14.198C345.475 12.616 344.649 11.79 343.235 11.79C340.785 11.79 340.547 13.498 340.547 15.57C340.547 18.692 341.737 19.14 343.235 19.14C344.019 19.14 345.503 18.636 345.461 16.648H344.257C344.299 17.922 343.501 18.202 343.235 18.202C342.045 18.202 341.751 17.376 341.751 15.08C341.751 13.148 342.353 12.728 343.235 12.728C343.669 12.728 344.243 13.036 344.215 14.198H345.405ZM351.411 18.202C350.221 18.202 349.927 17.376 349.927 15.08C349.927 13.148 350.529 12.728 351.411 12.728C352.293 12.728 352.895 13.148 352.895 15.08C352.895 17.376 352.601 18.202 351.411 18.202ZM351.411 19.14C352.909 19.14 354.099 18.692 354.099 15.57C354.099 13.498 353.861 11.79 351.411 11.79C348.961 11.79 348.723 13.498 348.723 15.57C348.723 18.692 349.913 19.14 351.411 19.14ZM361.939 19V14.24C361.939 13.974 361.995 13.274 362.331 12.994C362.639 12.742 362.765 12.728 363.199 12.728C364.123 12.728 364.319 13.386 364.319 14.1V19H365.467V13.624C365.467 11.958 364.277 11.79 363.535 11.79C362.891 11.79 362.247 11.944 361.855 12.7C361.589 12.056 360.847 11.79 360.203 11.79C359.377 11.79 358.775 12.056 358.439 12.812H358.411V11.93H357.193C357.235 12.42 357.263 12.91 357.263 13.4V19H358.411V14.24C358.411 13.974 358.467 13.554 358.677 13.204C358.845 12.938 359.321 12.728 359.671 12.728C360.595 12.728 360.791 13.386 360.791 14.1V19H361.939ZM369.943 14.968C369.957 13.008 370.559 12.658 371.287 12.658C372.127 12.658 372.701 12.91 372.701 14.968H369.943ZM373.919 15.836V15.234C373.919 12.896 373.415 11.79 371.399 11.79C368.949 11.79 368.711 13.498 368.711 15.57C368.711 18.692 369.901 19.14 371.399 19.14C372.883 19.14 373.849 18.426 373.863 16.858H372.603C372.561 17.572 372.155 18.202 371.371 18.202C370.475 18.202 369.943 17.81 369.943 15.836H373.919ZM382.972 15.178C382.972 14.24 383.028 12.728 384.302 12.728C385.534 12.728 385.702 13.708 385.702 15.598C385.702 16.662 385.702 18.202 384.26 18.202C382.846 18.202 382.972 16.256 382.972 15.178ZM382.972 18.16H383C383.392 18.818 383.882 19.14 384.624 19.14C385.758 19.14 386.906 18.692 386.906 15.584C386.906 13.82 386.85 11.79 384.568 11.79C383.896 11.79 383.406 12.084 383.014 12.644H382.972V8.892H381.824V19H382.972V18.16ZM393.738 15.486C393.85 17.768 392.982 18.202 392.282 18.202C391.512 18.202 391.176 17.586 391.176 16.9C391.176 15.402 392.646 15.5 393.738 15.486ZM393.766 19H395.026C394.942 18.454 394.886 17.88 394.886 17.32V13.918C394.886 12.728 394.41 11.79 392.59 11.79C391.092 11.79 390.252 12.336 390.196 13.918H391.442C391.372 13.176 391.778 12.658 392.548 12.658C393.78 12.658 393.766 13.68 393.738 14.618C392.128 14.576 390.028 14.674 390.028 16.816C390.028 18.174 390.462 19.14 391.96 19.14C392.842 19.14 393.388 18.79 393.738 17.978H393.766V19ZM403.412 14.198C403.482 12.616 402.656 11.79 401.242 11.79C398.792 11.79 398.554 13.498 398.554 15.57C398.554 18.692 399.744 19.14 401.242 19.14C402.026 19.14 403.51 18.636 403.468 16.648H402.264C402.306 17.922 401.508 18.202 401.242 18.202C400.052 18.202 399.758 17.376 399.758 15.08C399.758 13.148 400.36 12.728 401.242 12.728C401.676 12.728 402.25 13.036 402.222 14.198H403.412ZM408.074 15.038H408.102L410.622 19H412.078L409.306 14.968L411.658 11.93H410.258L408.102 14.982H408.074V8.892H406.926V19H408.074V15.038ZM15.992 41V35.988C15.992 34.392 15.32 33.79 14.116 33.79C13.192 33.79 12.66 34.014 12.198 34.84H12.142V30.892H10.994V41H12.142V36.842C12.142 35.652 12.436 34.728 13.584 34.728C14.564 34.728 14.844 35.344 14.844 36.212V41H15.992ZM21.9 40.202C20.71 40.202 20.416 39.376 20.416 37.08C20.416 35.148 21.018 34.728 21.9 34.728C22.782 34.728 23.384 35.148 23.384 37.08C23.384 39.376 23.09 40.202 21.9 40.202ZM21.9 41.14C23.398 41.14 24.588 40.692 24.588 37.57C24.588 35.498 24.35 33.79 21.9 33.79C19.45 33.79 19.212 35.498 19.212 37.57C19.212 40.692 20.402 41.14 21.9 41.14ZM32.428 41V36.24C32.428 35.974 32.484 35.274 32.82 34.994C33.128 34.742 33.254 34.728 33.688 34.728C34.612 34.728 34.808 35.386 34.808 36.1V41H35.956V35.624C35.956 33.958 34.766 33.79 34.024 33.79C33.38 33.79 32.736 33.944 32.344 34.7C32.078 34.056 31.336 33.79 30.692 33.79C29.866 33.79 29.264 34.056 28.928 34.812H28.9V33.93H27.682C27.724 34.42 27.752 34.91 27.752 35.4V41H28.9V36.24C28.9 35.974 28.956 35.554 29.166 35.204C29.334 34.938 29.81 34.728 30.16 34.728C31.084 34.728 31.28 35.386 31.28 36.1V41H32.428ZM40.4315 36.968C40.4455 35.008 41.0475 34.658 41.7755 34.658C42.6155 34.658 43.1895 34.91 43.1895 36.968H40.4315ZM44.4075 37.836V37.234C44.4075 34.896 43.9035 33.79 41.8875 33.79C39.4375 33.79 39.1995 35.498 39.1995 37.57C39.1995 40.692 40.3895 41.14 41.8875 41.14C43.3715 41.14 44.3375 40.426 44.3515 38.858H43.0915C43.0495 39.572 42.6435 40.202 41.8595 40.202C40.9635 40.202 40.4315 39.81 40.4315 37.836H44.4075ZM55.827 37.486C55.939 39.768 55.071 40.202 54.371 40.202C53.601 40.202 53.265 39.586 53.265 38.9C53.265 37.402 54.735 37.5 55.827 37.486ZM55.855 41H57.115C57.031 40.454 56.975 39.88 56.975 39.32V35.918C56.975 34.728 56.499 33.79 54.679 33.79C53.181 33.79 52.341 34.336 52.285 35.918H53.531C53.461 35.176 53.867 34.658 54.637 34.658C55.869 34.658 55.855 35.68 55.827 36.618C54.217 36.576 52.117 36.674 52.117 38.816C52.117 40.174 52.551 41.14 54.049 41.14C54.931 41.14 55.477 40.79 55.827 39.978H55.855V41ZM59.733 33.93V34.798H60.825V41H61.973V34.798H63.401V33.93H61.973V32.726C61.973 32.152 62.183 31.634 63.401 31.718V30.892C63.233 30.864 63.093 30.85 62.855 30.85C61.833 30.85 60.825 31.13 60.825 32.558V33.93H59.733ZM64.8755 33.93V34.798H66.0375V39.824C66.0375 40.636 66.5275 41.084 67.6195 41.084C67.9975 41.084 68.3755 41 68.7535 40.972V40.09C68.5015 40.118 68.3195 40.146 68.2355 40.146C67.1855 40.146 67.1855 39.572 67.1855 39.124V34.798H68.7255V33.93H67.1855V32.054L66.0375 32.572V33.93H64.8755ZM72.328 36.968C72.342 35.008 72.944 34.658 73.672 34.658C74.512 34.658 75.086 34.91 75.086 36.968H72.328ZM76.304 37.836V37.234C76.304 34.896 75.8 33.79 73.784 33.79C71.334 33.79 71.096 35.498 71.096 37.57C71.096 40.692 72.286 41.14 73.784 41.14C75.268 41.14 76.234 40.426 76.248 38.858H74.988C74.946 39.572 74.54 40.202 73.756 40.202C72.86 40.202 72.328 39.81 72.328 37.836H76.304ZM80.798 33.93H79.65V41H80.798V36.828C80.798 35.876 81.12 34.91 82.394 34.91C82.506 34.91 82.604 34.924 82.702 34.938C82.8 34.952 82.912 34.966 83.01 34.98V33.79C81.89 33.79 81.302 33.916 80.826 34.994H80.798V33.93ZM95.0876 33.93H93.9396V41H95.0876V33.93ZM93.8696 32.124H95.1576V30.892H93.8696V32.124ZM89.2916 33.93V34.798H90.3836V41H91.5316V34.798H92.9596V33.93H91.5316V32.726C91.5316 32.152 91.7416 31.634 92.9596 31.718V30.892C92.7916 30.864 92.6516 30.85 92.4136 30.85C91.3916 30.85 90.3836 31.13 90.3836 32.558V33.93H89.2916ZM102.34 37.43C102.34 38.41 102.382 40.048 100.996 40.048C100.142 40.048 99.6236 39.516 99.6236 37.248C99.6236 36.31 99.6656 34.742 100.968 34.742C102.41 34.742 102.34 36.38 102.34 37.43ZM102.312 34.798H102.284C101.962 34.112 101.374 33.79 100.632 33.79C100.058 33.79 98.4196 34 98.4196 37.248C98.4196 39.348 98.7976 41 100.716 41C101.332 41 101.976 40.678 102.27 40.118H102.312V41.588C102.312 42.316 101.878 42.806 101.08 42.806C100.45 42.806 100.016 42.442 100.002 41.784H98.7136C98.6156 43.086 99.6796 43.674 100.856 43.674C102.41 43.674 103.46 43.296 103.46 41.714V33.93H102.312V34.798ZM111.958 41V35.988C111.958 34.392 111.286 33.79 110.082 33.79C109.158 33.79 108.626 34.014 108.164 34.84H108.108V30.892H106.96V41H108.108V36.842C108.108 35.652 108.402 34.728 109.55 34.728C110.53 34.728 110.81 35.344 110.81 36.212V41H111.958ZM114.338 33.93V34.798H115.5V39.824C115.5 40.636 115.99 41.084 117.082 41.084C117.46 41.084 117.838 41 118.216 40.972V40.09C117.964 40.118 117.782 40.146 117.698 40.146C116.648 40.146 116.648 39.572 116.648 39.124V34.798H118.188V33.93H116.648V32.054L115.5 32.572V33.93H114.338ZM121.79 33.93H120.642V41H121.79V33.93ZM120.572 32.124H121.86V30.892H120.572V32.124ZM130.158 41V36.1C130.158 34.7 129.78 33.79 128.268 33.79C127.358 33.79 126.826 34.042 126.378 34.84H126.322V33.93H125.104C125.146 34.42 125.174 34.91 125.174 35.4V41H126.322V36.814C126.322 35.848 126.504 34.728 127.764 34.728C128.744 34.728 129.01 35.344 129.01 36.1V41H130.158ZM137.34 37.43C137.34 38.41 137.382 40.048 135.996 40.048C135.142 40.048 134.624 39.516 134.624 37.248C134.624 36.31 134.666 34.742 135.968 34.742C137.41 34.742 137.34 36.38 137.34 37.43ZM137.312 34.798H137.284C136.962 34.112 136.374 33.79 135.632 33.79C135.058 33.79 133.42 34 133.42 37.248C133.42 39.348 133.798 41 135.716 41C136.332 41 136.976 40.678 137.27 40.118H137.312V41.588C137.312 42.316 136.878 42.806 136.08 42.806C135.45 42.806 135.016 42.442 135.002 41.784H133.714C133.616 43.086 134.68 43.674 135.856 43.674C137.41 43.674 138.46 43.296 138.46 41.714V33.93H137.312V34.798ZM147.597 33.93H146.449V41H147.597V33.93ZM146.379 32.124H147.667V30.892H146.379V32.124ZM155.965 41V36.1C155.965 34.7 155.587 33.79 154.075 33.79C153.165 33.79 152.633 34.042 152.185 34.84H152.129V33.93H150.911C150.953 34.42 150.981 34.91 150.981 35.4V41H152.129V36.814C152.129 35.848 152.311 34.728 153.571 34.728C154.551 34.728 154.817 35.344 154.817 36.1V41H155.965ZM165.424 41H166.992L169.036 32.236H169.064L170.982 41H172.55L175.224 30.892H173.88L171.822 39.656H171.794L169.96 30.892H168.294L166.264 39.656H166.236L164.332 30.892H162.96L165.424 41ZM179.266 41H180.834L182.878 32.236H182.906L184.824 41H186.392L189.066 30.892H187.722L185.664 39.656H185.636L183.802 30.892H182.136L180.106 39.656H180.078L178.174 30.892H176.802L179.266 41ZM193.149 30.892H191.861V41H193.149V30.892ZM198.445 30.892H197.157V41H198.445V30.892ZM203.364 39.544H202.048V41H203.364V39.544Z" fill="white"/>
</svg>
