<svg width="332" height="20" viewBox="0 0 332 20" fill="none" xmlns="http://www.w3.org/2000/svg">
<path d="M10.96 14L9.26 15H14L12 13.9L6.74 2H4.32L6.46 3.86L2.1 13.9L0 15H4.62L2.82 14L4.16 10.9H9.58L10.96 14ZM6.84 4.74L9.28 10.2H4.46L6.84 4.74ZM25.2039 8.16C25.8039 7.42 27.0039 6.46 28.2039 6.46C29.5039 6.46 30.1039 7.4 30.1039 9V14.1L28.5039 15H32.7039L31.1039 14.1V8.7C31.1039 6.5 30.0039 5.7 28.6039 5.7C27.2039 5.7 25.9039 6.8 25.1039 7.68C24.7839 6.24 23.8239 5.7 22.7039 5.7C21.3039 5.7 20.0039 6.8 19.3039 7.56V5.7L16.7039 6.5L18.3039 7V14.1L16.7039 15H20.9039L19.3039 14.1V8.16C19.9039 7.42 21.1039 6.46 22.3039 6.46C23.6039 6.46 24.2039 7.4 24.2039 9V14.1L22.6039 15H26.8039L25.2039 14.1V8.16ZM43.4961 9.6C43.4961 7.4 42.5961 5.7 40.0561 5.7C37.6761 5.7 35.6961 7.58 35.6961 10.5C35.6961 13.2 37.2961 15.3 39.8961 15.3C42.8961 15.3 43.4961 12.4 43.4961 12.4C43.4961 12.4 42.5961 14.4 40.3961 14.4C38.3961 14.4 36.6961 13.16 36.6961 10.18C36.6961 9.98 36.6961 9.8 36.7161 9.6H43.4961ZM40.0161 6.18C41.4161 6.18 42.3961 7.1 42.3961 8.1C42.3961 8.9 41.6961 9 40.6961 9H36.8161C37.2561 7.08 38.7561 6.18 40.0161 6.18ZM48.6906 7V14.1L47.0906 15H51.2906L49.6906 14.1V8.4C50.5906 7.4 51.3506 6.78 51.7506 6.78C52.4106 6.78 52.3106 7.4 53.0106 7.4C53.4906 7.4 53.7906 7.06 53.7906 6.64C53.7906 6.04 53.3906 5.7 52.6906 5.7C52.1306 5.7 51.6506 5.92 51.0306 6.52L49.6906 7.8V5.7L47.0906 6.5L48.6906 7ZM57.1961 6.5L59.7961 5.7V14.1L61.3961 15H57.1961L58.7961 14.1V7L57.1961 6.5ZM58.0961 2.7C58.0961 3.26 58.5361 3.7 59.0961 3.7C59.6561 3.7 60.0961 3.26 60.0961 2.7C60.0961 2.14 59.6561 1.7 59.0961 1.7C58.5361 1.7 58.0961 2.14 58.0961 2.7ZM69.0239 6.18C70.7239 6.18 70.9039 7.2 70.9039 7.4C70.9039 7.72 70.7239 7.78 70.7239 8.22C70.7239 8.66 71.0039 8.96 71.4839 8.96C71.9839 8.96 72.2439 8.56 72.2439 8.04C72.2439 6.94 71.0639 5.7 69.0639 5.7C66.6839 5.7 64.7039 7.6 64.7039 10.5C64.7039 13.2 66.3039 15.3 68.9039 15.3C71.9039 15.3 72.5039 12.4 72.5039 12.4C72.5039 12.4 71.6039 14.4 69.4039 14.4C67.4039 14.4 65.7039 13.16 65.7039 10.18C65.7039 7.44 67.6239 6.18 69.0239 6.18ZM78.5831 10.18C77.2231 10.66 76.0031 11.6 76.0031 13C76.0031 14.42 76.9031 15.3 78.2831 15.3C79.0831 15.3 79.7631 14.9 80.2231 14.6L81.7031 13.62C81.7031 14.68 81.7031 15.3 82.4031 15.3C83.1031 15.3 84.5031 13.6 84.5031 13.6L82.7031 14.3V8.6C82.7031 6.9 81.9831 5.7 79.8031 5.7C78.6031 5.7 76.3431 6.8 76.3431 8.04C76.3431 8.62 76.6831 8.88 77.0631 8.88C77.4431 8.88 77.7831 8.66 77.7831 8.04C77.7831 7.76 77.7431 7.56 77.7431 7.4C77.7431 6.9 78.3831 6.3 79.6031 6.3C80.7031 6.3 81.7031 6.82 81.7031 8.6V9.1L78.5831 10.18ZM80.4631 13.8C79.8831 14.18 79.3831 14.56 78.6031 14.56C77.6031 14.56 77.0631 13.76 77.0631 12.9C77.0631 11.8 77.5631 11.12 79.3031 10.5L81.7031 9.66V12.98L80.4631 13.8ZM87.7977 2C87.7977 2.56 88.2377 3 88.7977 3H88.8977L87.8977 5.3C89.6977 3.1 89.7977 2.7 89.7977 2C89.7977 1.44 89.3577 0.999999 88.7977 0.999999C88.2377 0.999999 87.7977 1.44 87.7977 2ZM99.9922 5.7L99.1922 6.5C99.1922 6.5 98.4922 5.7 97.0922 5.7C95.4922 5.7 94.1922 6.64 94.1922 8.1C94.1922 11.12 99.5922 10.28 99.5922 12.86C99.5922 14.2 98.3922 14.7 97.4922 14.7C96.8922 14.7 95.7922 14.52 95.1522 13.2L94.2922 11.4V15.3L94.9922 14.12C95.0122 14.18 95.6322 15.3 97.4922 15.3C99.0922 15.3 100.492 14.34 100.492 12.54C100.492 9.24 94.9922 10 94.9922 7.8C94.9922 7 95.7722 6.3 97.0922 6.3C98.4922 6.3 99.0922 7.2 99.0922 7.2L99.9922 8.82V5.7ZM112.784 3.1L116.504 15.3L120.224 4.32L124.064 15.3L127.784 3.1L129.884 2H125.264L127.064 3L124.164 12.58L120.364 1.7L116.704 12.52L113.804 3L115.604 2H110.684L112.784 3.1ZM133.661 10.18C132.301 10.66 131.081 11.6 131.081 13C131.081 14.42 131.981 15.3 133.361 15.3C134.161 15.3 134.841 14.9 135.301 14.6L136.781 13.62C136.781 14.68 136.781 15.3 137.481 15.3C138.181 15.3 139.581 13.6 139.581 13.6L137.781 14.3V8.6C137.781 6.9 137.061 5.7 134.881 5.7C133.681 5.7 131.421 6.8 131.421 8.04C131.421 8.62 131.761 8.88 132.141 8.88C132.521 8.88 132.861 8.66 132.861 8.04C132.861 7.76 132.821 7.56 132.821 7.4C132.821 6.9 133.461 6.3 134.681 6.3C135.781 6.3 136.781 6.82 136.781 8.6V9.1L133.661 10.18ZM135.541 13.8C134.961 14.18 134.461 14.56 133.681 14.56C132.681 14.56 132.141 13.76 132.141 12.9C132.141 11.8 132.641 11.12 134.381 10.5L136.781 9.66V12.98L135.541 13.8ZM143.976 7V14.1L142.376 15H146.576L144.976 14.1V8.4C145.876 7.4 146.636 6.78 147.036 6.78C147.696 6.78 147.596 7.4 148.296 7.4C148.776 7.4 149.076 7.06 149.076 6.64C149.076 6.04 148.676 5.7 147.976 5.7C147.416 5.7 146.936 5.92 146.316 6.52L144.976 7.8V5.7L142.376 6.5L143.976 7ZM158.781 5.7L157.981 6.5C157.981 6.5 157.281 5.7 155.881 5.7C154.281 5.7 152.981 6.64 152.981 8.1C152.981 11.12 158.381 10.28 158.381 12.86C158.381 14.2 157.181 14.7 156.281 14.7C155.681 14.7 154.581 14.52 153.941 13.2L153.081 11.4V15.3L153.781 14.12C153.801 14.18 154.421 15.3 156.281 15.3C157.881 15.3 159.281 14.34 159.281 12.54C159.281 9.24 153.781 10 153.781 7.8C153.781 7 154.561 6.3 155.881 6.3C157.281 6.3 157.881 7.2 157.881 7.2L158.781 8.82V5.7ZM172.853 10.18C171.493 10.66 170.273 11.6 170.273 13C170.273 14.42 171.173 15.3 172.553 15.3C173.353 15.3 174.033 14.9 174.493 14.6L175.973 13.62C175.973 14.68 175.973 15.3 176.673 15.3C177.373 15.3 178.773 13.6 178.773 13.6L176.973 14.3V8.6C176.973 6.9 176.253 5.7 174.073 5.7C172.873 5.7 170.613 6.8 170.613 8.04C170.613 8.62 170.953 8.88 171.333 8.88C171.713 8.88 172.053 8.66 172.053 8.04C172.053 7.76 172.013 7.56 172.013 7.4C172.013 6.9 172.653 6.3 173.873 6.3C174.973 6.3 175.973 6.82 175.973 8.6V9.1L172.853 10.18ZM174.733 13.8C174.153 14.18 173.653 14.56 172.873 14.56C171.873 14.56 171.333 13.76 171.333 12.9C171.333 11.8 171.833 11.12 173.573 10.5L175.973 9.66V12.98L174.733 13.8ZM183.167 7V14.1L181.567 15H185.767L184.167 14.1V8.16C184.767 7.42 185.967 6.46 187.167 6.46C188.467 6.46 189.067 7.4 189.067 9V14.1L187.467 15H191.667L190.067 14.1V8.7C190.067 6.5 188.967 5.7 187.567 5.7C186.167 5.7 184.867 6.8 184.167 7.56V5.7L181.567 6.5L183.167 7ZM201.461 2V7.28C201.401 7.14 200.661 5.7 198.661 5.7C196.861 5.7 194.761 7.1 194.761 10.5C194.761 14 196.661 15.3 198.461 15.3C200.561 15.3 201.461 13.4 201.461 13.4V15.3L204.061 14.5L202.461 14V0.699999L199.861 1.5L201.461 2ZM201.461 12.4C201.461 12.4 200.761 14.7 198.761 14.7C197.241 14.7 195.861 13.4 195.861 10.5C195.861 7.7 197.241 6.3 198.761 6.3C200.461 6.3 201.461 7.6 201.461 9.1V12.4ZM219.764 15L217.364 13.9V9H219.964C222.864 9 224.564 7.5 224.564 5.5C224.564 3.5 222.864 2 219.964 2H214.364L216.364 3.1V13.9L214.364 15H219.764ZM217.364 3.1L218.064 2.7H219.964C222.164 2.7 223.464 3.8 223.464 5.5C223.464 7.2 222.164 8.3 219.964 8.3H217.364V3.1ZM229.468 7V14.1L227.868 15H232.068L230.468 14.1V8.4C231.368 7.4 232.128 6.78 232.528 6.78C233.188 6.78 233.088 7.4 233.788 7.4C234.268 7.4 234.568 7.06 234.568 6.64C234.568 6.04 234.168 5.7 233.468 5.7C232.908 5.7 232.428 5.92 231.808 6.52L230.468 7.8V5.7L227.868 6.5L229.468 7ZM241.973 6.24C243.633 6.24 245.433 7.7 245.433 11.02C245.433 13.38 244.013 14.76 242.533 14.76C240.893 14.76 239.073 13.3 239.073 9.98C239.073 7.58 240.513 6.24 241.973 6.24ZM237.973 10.5C237.973 13.2 239.473 15.3 242.253 15.3C244.833 15.3 246.533 13.2 246.533 10.5C246.533 7.8 245.033 5.7 242.253 5.7C239.673 5.7 237.973 7.8 237.973 10.5ZM251.234 18.3L249.634 19.2H253.834L252.234 18.3V13.72C252.294 13.86 253.034 15.3 255.034 15.3C256.834 15.3 258.934 13.9 258.934 10.5C258.934 6.8 257.034 5.7 255.234 5.7C253.134 5.7 252.234 7.6 252.234 7.6V5.7L249.634 6.5L251.234 7V18.3ZM252.234 8.6C252.234 8.6 252.934 6.3 254.934 6.3C256.454 6.3 257.834 7.5 257.834 10.5C257.834 13.3 256.454 14.7 254.934 14.7C253.234 14.7 252.234 13.4 252.234 11.9V8.6ZM265.122 10.18C263.762 10.66 262.542 11.6 262.542 13C262.542 14.42 263.442 15.3 264.822 15.3C265.622 15.3 266.302 14.9 266.762 14.6L268.242 13.62C268.242 14.68 268.242 15.3 268.942 15.3C269.642 15.3 271.042 13.6 271.042 13.6L269.242 14.3V8.6C269.242 6.9 268.522 5.7 266.342 5.7C265.142 5.7 262.882 6.8 262.882 8.04C262.882 8.62 263.222 8.88 263.602 8.88C263.982 8.88 264.322 8.66 264.322 8.04C264.322 7.76 264.282 7.56 264.282 7.4C264.282 6.9 264.922 6.3 266.142 6.3C267.242 6.3 268.242 6.82 268.242 8.6V9.1L265.122 10.18ZM267.002 13.8C266.422 14.18 265.922 14.56 265.142 14.56C264.142 14.56 263.602 13.76 263.602 12.9C263.602 11.8 264.102 11.12 265.842 10.5L268.242 9.66V12.98L267.002 13.8ZM274.437 8.9C274.437 10.22 275.137 11.36 276.397 11.84C275.537 12 274.537 12.44 274.537 13.6C274.537 14.28 275.057 14.8 275.597 14.96C274.917 15.08 273.637 15.4 273.637 16.8C273.637 18 274.737 19.5 277.837 19.5C281.037 19.5 282.737 17.5 282.737 16C282.737 14.5 281.737 14 280.737 14H276.237C275.937 14 275.437 13.9 275.437 13.3C275.437 12.26 277.117 12.1 277.837 12.1C279.937 12.1 281.237 10.66 281.237 8.9C281.237 7.42 280.337 6.6 280.337 6.6C280.337 6.6 281.037 6.8 281.537 6.8C282.337 6.8 282.637 6.34 282.637 5.8C282.637 5.4 282.357 5 281.797 5C281.317 5 281.037 5.36 281.037 5.78C281.037 6.04 281.237 6.3 280.737 6.3C279.937 6.3 279.237 5.7 277.837 5.7C275.737 5.7 274.437 7.14 274.437 8.9ZM280.737 15C281.437 15 282.037 15.3 282.037 16.1C282.037 17 280.937 18.6 278.037 18.6C275.537 18.6 274.637 17.5 274.637 16.5C274.637 15.12 276.577 15.02 276.617 15H280.737ZM275.537 8.9C275.537 7.2 276.577 6.2 277.837 6.2C279.097 6.2 280.137 7.2 280.137 8.9C280.137 10.6 279.097 11.6 277.837 11.6C276.577 11.6 275.537 10.6 275.537 8.9ZM288.712 10.18C287.352 10.66 286.132 11.6 286.132 13C286.132 14.42 287.032 15.3 288.412 15.3C289.212 15.3 289.892 14.9 290.352 14.6L291.832 13.62C291.832 14.68 291.832 15.3 292.532 15.3C293.232 15.3 294.632 13.6 294.632 13.6L292.832 14.3V8.6C292.832 6.9 292.112 5.7 289.932 5.7C288.732 5.7 286.472 6.8 286.472 8.04C286.472 8.62 286.812 8.88 287.192 8.88C287.572 8.88 287.912 8.66 287.912 8.04C287.912 7.76 287.872 7.56 287.872 7.4C287.872 6.9 288.512 6.3 289.732 6.3C290.832 6.3 291.832 6.82 291.832 8.6V9.1L288.712 10.18ZM290.592 13.8C290.012 14.18 289.512 14.56 288.732 14.56C287.732 14.56 287.192 13.76 287.192 12.9C287.192 11.8 287.692 11.12 289.432 10.5L291.832 9.66V12.98L290.592 13.8ZM299.027 7V14.1L297.427 15H301.627L300.027 14.1V8.16C300.627 7.42 301.827 6.46 303.027 6.46C304.327 6.46 304.927 7.4 304.927 9V14.1L303.327 15H307.527L305.927 14.1V8.7C305.927 6.5 304.827 5.7 303.427 5.7C302.027 5.7 300.727 6.8 300.027 7.56V5.7L297.427 6.5L299.027 7ZM317.32 2V7.28C317.26 7.14 316.52 5.7 314.52 5.7C312.72 5.7 310.62 7.1 310.62 10.5C310.62 14 312.52 15.3 314.32 15.3C316.42 15.3 317.32 13.4 317.32 13.4V15.3L319.92 14.5L318.32 14V0.699999L315.72 1.5L317.32 2ZM317.32 12.4C317.32 12.4 316.62 14.7 314.62 14.7C313.1 14.7 311.72 13.4 311.72 10.5C311.72 7.7 313.1 6.3 314.62 6.3C316.32 6.3 317.32 7.6 317.32 9.1V12.4ZM325.708 10.18C324.348 10.66 323.128 11.6 323.128 13C323.128 14.42 324.028 15.3 325.408 15.3C326.208 15.3 326.888 14.9 327.348 14.6L328.828 13.62C328.828 14.68 328.828 15.3 329.528 15.3C330.228 15.3 331.628 13.6 331.628 13.6L329.828 14.3V8.6C329.828 6.9 329.108 5.7 326.928 5.7C325.728 5.7 323.468 6.8 323.468 8.04C323.468 8.62 323.808 8.88 324.188 8.88C324.568 8.88 324.908 8.66 324.908 8.04C324.908 7.76 324.868 7.56 324.868 7.4C324.868 6.9 325.508 6.3 326.728 6.3C327.828 6.3 328.828 6.82 328.828 8.6V9.1L325.708 10.18ZM327.588 13.8C327.008 14.18 326.508 14.56 325.728 14.56C324.728 14.56 324.188 13.76 324.188 12.9C324.188 11.8 324.688 11.12 326.428 10.5L328.828 9.66V12.98L327.588 13.8Z" fill="white"/>
</svg>
