<svg width="338" height="28" viewBox="0 0 338 28" fill="none" xmlns="http://www.w3.org/2000/svg">
<rect width="285" height="28" fill="black" fill-opacity="0.69"/>
<path d="M10.092 15.304C10.092 18.104 11.128 19.21 13.27 19.21C15.412 19.21 16.448 18.104 16.448 15.304V8.892H15.16V15.36C15.16 17.572 14.488 18.132 13.27 18.132C12.052 18.132 11.38 17.572 11.38 15.36V8.892H10.092V15.304ZM24.9506 19V14.1C24.9506 12.7 24.5726 11.79 23.0606 11.79C22.1506 11.79 21.6186 12.042 21.1706 12.84H21.1146V11.93H19.8966C19.9386 12.42 19.9666 12.91 19.9666 13.4V19H21.1146V14.814C21.1146 13.848 21.2966 12.728 22.5566 12.728C23.5366 12.728 23.8026 13.344 23.8026 14.1V19H24.9506ZM33.2526 14.198C33.3226 12.616 32.4966 11.79 31.0826 11.79C28.6326 11.79 28.3946 13.498 28.3946 15.57C28.3946 18.692 29.5846 19.14 31.0826 19.14C31.8666 19.14 33.3506 18.636 33.3086 16.648H32.1046C32.1466 17.922 31.3486 18.202 31.0826 18.202C29.8926 18.202 29.5986 17.376 29.5986 15.08C29.5986 13.148 30.2006 12.728 31.0826 12.728C31.5166 12.728 32.0906 13.036 32.0626 14.198H33.2526ZM37.8866 8.892H36.7386V19H37.8866V8.892ZM42.3901 14.968C42.4041 13.008 43.0061 12.658 43.7341 12.658C44.5741 12.658 45.1481 12.91 45.1481 14.968H42.3901ZM46.3661 15.836V15.234C46.3661 12.896 45.8621 11.79 43.8461 11.79C41.3961 11.79 41.1581 13.498 41.1581 15.57C41.1581 18.692 42.3481 19.14 43.8461 19.14C45.3301 19.14 46.2961 18.426 46.3101 16.858H45.0501C45.0081 17.572 44.6021 18.202 43.8181 18.202C42.9221 18.202 42.3901 17.81 42.3901 15.836H46.3661ZM54.0196 15.99C53.9916 16.956 53.9916 19.238 56.9736 19.21C58.6396 19.21 60.1096 18.524 60.1096 16.396C60.1096 13.19 55.5736 13.512 55.5736 11.286C55.5736 10.194 56.3576 9.802 57.1276 9.802C58.3456 9.802 58.6956 10.53 58.6816 11.636H60.0256C60.1096 9.578 59.0736 8.682 57.2256 8.682C55.5316 8.682 54.2576 9.634 54.2576 11.426C54.2576 14.464 58.7936 14.212 58.7936 16.452C58.7936 17.656 58.0096 18.09 56.9876 18.09C56.1616 18.09 55.2936 17.656 55.2936 16.284V15.99H54.0196ZM66.9649 15.486C67.0769 17.768 66.2089 18.202 65.5089 18.202C64.7389 18.202 64.4029 17.586 64.4029 16.9C64.4029 15.402 65.8729 15.5 66.9649 15.486ZM66.9929 19H68.2529C68.1689 18.454 68.1129 17.88 68.1129 17.32V13.918C68.1129 12.728 67.6369 11.79 65.8169 11.79C64.3189 11.79 63.4789 12.336 63.4229 13.918H64.6689C64.5989 13.176 65.0049 12.658 65.7749 12.658C67.0069 12.658 66.9929 13.68 66.9649 14.618C65.3549 14.576 63.2549 14.674 63.2549 16.816C63.2549 18.174 63.6889 19.14 65.1869 19.14C66.0689 19.14 66.6149 18.79 66.9649 17.978H66.9929V19ZM76.3729 19V14.24C76.3729 13.974 76.4289 13.274 76.7649 12.994C77.0729 12.742 77.1989 12.728 77.6329 12.728C78.5569 12.728 78.7529 13.386 78.7529 14.1V19H79.9009V13.624C79.9009 11.958 78.7109 11.79 77.9689 11.79C77.3249 11.79 76.6809 11.944 76.2889 12.7C76.0229 12.056 75.2809 11.79 74.6369 11.79C73.8109 11.79 73.2089 12.056 72.8729 12.812H72.8449V11.93H71.6269C71.6689 12.42 71.6969 12.91 71.6969 13.4V19H72.8449V14.24C72.8449 13.974 72.9009 13.554 73.1109 13.204C73.2789 12.938 73.7549 12.728 74.1049 12.728C75.0289 12.728 75.2249 13.386 75.2249 14.1V19H76.3729ZM82.7384 11.678H83.7044L84.8524 8.892H83.3404L82.7384 11.678ZM91.2709 16.984C91.2709 14.828 87.7429 14.856 87.7429 13.61C87.7429 12.994 88.2189 12.658 88.8349 12.658C89.5629 12.658 89.9549 13.05 89.9409 13.792H91.2149C91.3129 12.392 90.2349 11.79 88.9749 11.79C86.9869 11.79 86.5389 12.98 86.5389 13.722C86.5389 15.836 90.0669 15.864 90.0669 17.124C90.0669 17.852 89.5349 18.202 88.8489 18.202C87.6869 18.202 87.6729 17.25 87.6729 16.844H86.3709C86.3289 18.468 87.2809 19.14 88.8069 19.14C90.2069 19.14 91.2709 18.538 91.2709 16.984ZM101.421 18.202C100.147 18.202 100.091 16.704 100.091 15.766C100.091 14.688 99.9651 12.728 101.379 12.728C102.821 12.728 102.821 14.282 102.821 15.346C102.821 17.236 102.653 18.202 101.421 18.202ZM100.091 11.93H98.9431V21.674H100.091V18.286H100.133C100.525 18.846 101.015 19.14 101.687 19.14C103.969 19.14 104.025 17.11 104.025 15.346C104.025 12.238 102.877 11.79 101.743 11.79C101.001 11.79 100.511 12.112 100.119 12.77H100.091V11.93ZM109.737 18.202C108.547 18.202 108.253 17.376 108.253 15.08C108.253 13.148 108.855 12.728 109.737 12.728C110.619 12.728 111.221 13.148 111.221 15.08C111.221 17.376 110.927 18.202 109.737 18.202ZM109.737 19.14C111.235 19.14 112.425 18.692 112.425 15.57C112.425 13.498 112.187 11.79 109.737 11.79C107.287 11.79 107.049 13.498 107.049 15.57C107.049 18.692 108.239 19.14 109.737 19.14ZM120.195 16.984C120.195 14.828 116.667 14.856 116.667 13.61C116.667 12.994 117.143 12.658 117.759 12.658C118.487 12.658 118.879 13.05 118.865 13.792H120.139C120.237 12.392 119.159 11.79 117.899 11.79C115.911 11.79 115.463 12.98 115.463 13.722C115.463 15.836 118.991 15.864 118.991 17.124C118.991 17.852 118.459 18.202 117.773 18.202C116.611 18.202 116.597 17.25 116.597 16.844H115.295C115.253 18.468 116.205 19.14 117.731 19.14C119.131 19.14 120.195 18.538 120.195 16.984ZM122.23 11.93V12.798H123.392V17.824C123.392 18.636 123.882 19.084 124.974 19.084C125.352 19.084 125.73 19 126.108 18.972V18.09C125.856 18.118 125.674 18.146 125.59 18.146C124.54 18.146 124.54 17.572 124.54 17.124V12.798H126.08V11.93H124.54V10.054L123.392 10.572V11.93H122.23ZM129.682 14.968C129.696 13.008 130.298 12.658 131.026 12.658C131.866 12.658 132.44 12.91 132.44 14.968H129.682ZM133.658 15.836V15.234C133.658 12.896 133.154 11.79 131.138 11.79C128.688 11.79 128.45 13.498 128.45 15.57C128.45 18.692 129.64 19.14 131.138 19.14C132.622 19.14 133.588 18.426 133.602 16.858H132.342C132.3 17.572 131.894 18.202 131.11 18.202C130.214 18.202 129.682 17.81 129.682 15.836H133.658ZM138.152 11.93H137.004V19H138.152V14.828C138.152 13.876 138.474 12.91 139.748 12.91C139.86 12.91 139.958 12.924 140.056 12.938C140.154 12.952 140.266 12.966 140.364 12.98V11.79C139.244 11.79 138.656 11.916 138.18 12.994H138.152V11.93ZM141.508 20.778H142.404L143.678 17.544H142.236L141.508 20.778ZM150.459 15.864C150.459 16.676 150.459 17.544 150.865 18.216C151.355 19.014 152.433 19.21 152.993 19.21C155.765 19.21 155.779 17.04 155.779 16.494V8.892H154.491V15.724C154.491 16.956 154.407 18.132 153.035 18.132C151.719 18.132 151.831 16.774 151.803 15.864H150.459ZM163.059 15.486C163.171 17.768 162.303 18.202 161.603 18.202C160.833 18.202 160.497 17.586 160.497 16.9C160.497 15.402 161.967 15.5 163.059 15.486ZM163.087 19H164.347C164.263 18.454 164.207 17.88 164.207 17.32V13.918C164.207 12.728 163.731 11.79 161.911 11.79C160.413 11.79 159.573 12.336 159.517 13.918H160.763C160.693 13.176 161.099 12.658 161.869 12.658C163.101 12.658 163.087 13.68 163.059 14.618C161.449 14.576 159.349 14.674 159.349 16.816C159.349 18.174 159.783 19.14 161.281 19.14C162.163 19.14 162.709 18.79 163.059 17.978H163.087V19ZM172.467 19V14.24C172.467 13.974 172.523 13.274 172.859 12.994C173.167 12.742 173.293 12.728 173.727 12.728C174.651 12.728 174.847 13.386 174.847 14.1V19H175.995V13.624C175.995 11.958 174.805 11.79 174.063 11.79C173.419 11.79 172.775 11.944 172.383 12.7C172.117 12.056 171.375 11.79 170.731 11.79C169.905 11.79 169.303 12.056 168.967 12.812H168.939V11.93H167.721C167.763 12.42 167.791 12.91 167.791 13.4V19H168.939V14.24C168.939 13.974 168.995 13.554 169.205 13.204C169.373 12.938 169.849 12.728 170.199 12.728C171.123 12.728 171.319 13.386 171.319 14.1V19H172.467ZM180.471 14.968C180.485 13.008 181.087 12.658 181.815 12.658C182.655 12.658 183.229 12.91 183.229 14.968H180.471ZM184.447 15.836V15.234C184.447 12.896 183.943 11.79 181.927 11.79C179.477 11.79 179.239 13.498 179.239 15.57C179.239 18.692 180.429 19.14 181.927 19.14C183.411 19.14 184.377 18.426 184.391 16.858H183.131C183.089 17.572 182.683 18.202 181.899 18.202C181.003 18.202 180.471 17.81 180.471 15.836H184.447ZM192.301 16.984C192.301 14.828 188.773 14.856 188.773 13.61C188.773 12.994 189.249 12.658 189.865 12.658C190.593 12.658 190.985 13.05 190.971 13.792H192.245C192.343 12.392 191.265 11.79 190.005 11.79C188.017 11.79 187.569 12.98 187.569 13.722C187.569 15.836 191.097 15.864 191.097 17.124C191.097 17.852 190.565 18.202 189.879 18.202C188.717 18.202 188.703 17.25 188.703 16.844H187.401C187.359 18.468 188.311 19.14 189.837 19.14C191.237 19.14 192.301 18.538 192.301 16.984ZM201.191 19V14.38H204.719V13.26H201.191V10.012H204.915V8.892H199.903V19H201.191ZM208.616 8.892H207.468V19H208.616V8.892ZM215.611 15.486C215.723 17.768 214.855 18.202 214.155 18.202C213.385 18.202 213.049 17.586 213.049 16.9C213.049 15.402 214.519 15.5 215.611 15.486ZM215.639 19H216.899C216.815 18.454 216.759 17.88 216.759 17.32V13.918C216.759 12.728 216.283 11.79 214.463 11.79C212.965 11.79 212.125 12.336 212.069 13.918H213.315C213.245 13.176 213.651 12.658 214.421 12.658C215.653 12.658 215.639 13.68 215.611 14.618C214.001 14.576 211.901 14.674 211.901 16.816C211.901 18.174 212.335 19.14 213.833 19.14C214.715 19.14 215.261 18.79 215.611 17.978H215.639V19ZM224.165 15.43C224.165 16.41 224.207 18.048 222.821 18.048C221.967 18.048 221.449 17.516 221.449 15.248C221.449 14.31 221.491 12.742 222.793 12.742C224.235 12.742 224.165 14.38 224.165 15.43ZM224.137 12.798H224.109C223.787 12.112 223.199 11.79 222.457 11.79C221.883 11.79 220.245 12 220.245 15.248C220.245 17.348 220.623 19 222.541 19C223.157 19 223.801 18.678 224.095 18.118H224.137V19.588C224.137 20.316 223.703 20.806 222.905 20.806C222.275 20.806 221.841 20.442 221.827 19.784H220.539C220.441 21.086 221.505 21.674 222.681 21.674C224.235 21.674 225.285 21.296 225.285 19.714V11.93H224.137V12.798ZM232.565 15.43C232.565 16.41 232.607 18.048 231.221 18.048C230.367 18.048 229.849 17.516 229.849 15.248C229.849 14.31 229.891 12.742 231.193 12.742C232.635 12.742 232.565 14.38 232.565 15.43ZM232.537 12.798H232.509C232.187 12.112 231.599 11.79 230.857 11.79C230.283 11.79 228.645 12 228.645 15.248C228.645 17.348 229.023 19 230.941 19C231.557 19 232.201 18.678 232.495 18.118H232.537V19.588C232.537 20.316 232.103 20.806 231.305 20.806C230.675 20.806 230.241 20.442 230.227 19.784H228.939C228.841 21.086 229.905 21.674 231.081 21.674C232.635 21.674 233.685 21.296 233.685 19.714V11.93H232.537V12.798ZM236.667 20.778H237.563L238.837 17.544H237.395L236.667 20.778ZM249.244 9.284H248.138C247.746 9.606 246.822 10.306 246.5 10.446V11.678L247.956 10.698V19H249.244V9.284ZM255.913 10.068C257.019 10.068 257.215 11.202 257.215 12.084C257.215 13.05 257.033 14.1 255.913 14.1C254.793 14.1 254.611 13.05 254.611 12.084C254.611 11.202 254.807 10.068 255.913 10.068ZM255.913 9.13C254.625 9.13 253.323 9.928 253.323 12.112C253.323 14.772 254.779 15.178 255.549 15.178C256.291 15.178 256.907 14.94 257.215 14.268H257.243C257.243 16.76 257.159 18.132 255.913 18.132C255.087 18.132 254.807 17.39 254.807 16.676H253.519C253.491 18.216 254.457 19.21 255.913 19.21C258.545 19.21 258.531 16.718 258.531 14.184C258.531 11.566 258.573 9.13 255.913 9.13ZM264.485 9.284H263.379C262.987 9.606 262.063 10.306 261.741 10.446V11.678L263.197 10.698V19H264.485V9.284ZM268.48 10.404H272.176L269.46 19H270.916L273.506 10.404V9.284H268.48V10.404Z" fill="white"/>
</svg>
