<svg width="335" height="28" viewBox="0 0 335 28" fill="none" xmlns="http://www.w3.org/2000/svg">
<rect width="320" height="28" fill="black" fill-opacity="0.69"/>
<path d="M10.046 9.284H8.94C8.548 9.606 7.624 10.306 7.302 10.446V11.678L8.758 10.698V19H10.046V9.284ZM19.1787 16.984C19.1787 14.828 15.6507 14.856 15.6507 13.61C15.6507 12.994 16.1267 12.658 16.7427 12.658C17.4707 12.658 17.8627 13.05 17.8487 13.792H19.1227C19.2207 12.392 18.1427 11.79 16.8827 11.79C14.8947 11.79 14.4467 12.98 14.4467 13.722C14.4467 15.836 17.9747 15.864 17.9747 17.124C17.9747 17.852 17.4427 18.202 16.7567 18.202C15.5947 18.202 15.5807 17.25 15.5807 16.844H14.2787C14.2367 18.468 15.1887 19.14 16.7147 19.14C18.1147 19.14 19.1787 18.538 19.1787 16.984ZM21.2134 11.93V12.798H22.3754V17.824C22.3754 18.636 22.8654 19.084 23.9574 19.084C24.3354 19.084 24.7134 19 25.0914 18.972V18.09C24.8394 18.118 24.6574 18.146 24.5734 18.146C23.5234 18.146 23.5234 17.572 23.5234 17.124V12.798H25.0634V11.93H23.5234V10.054L22.3754 10.572V11.93H21.2134ZM37.9574 11.678C38.0834 9.718 37.3134 8.682 35.3114 8.682C33.3234 8.682 32.0634 9.494 32.0634 12.35V15.206C32.0634 19.126 33.9954 19.21 35.2554 19.21C35.9134 19.21 38.1674 19.21 38.1114 16.018H36.7814C36.7674 17.992 35.5774 18.132 35.1854 18.132C34.1914 18.132 33.3794 17.838 33.3794 15.36V12.658C33.3794 10.922 33.6314 10.67 33.6734 10.558C33.7154 10.418 34.1354 9.774 35.1994 9.774C35.4654 9.774 36.0674 9.886 36.3334 10.208C36.5994 10.53 36.6414 11.104 36.6274 11.678H37.9574ZM44.8407 15.486C44.9527 17.768 44.0847 18.202 43.3847 18.202C42.6147 18.202 42.2787 17.586 42.2787 16.9C42.2787 15.402 43.7487 15.5 44.8407 15.486ZM44.8687 19H46.1287C46.0447 18.454 45.9887 17.88 45.9887 17.32V13.918C45.9887 12.728 45.5127 11.79 43.6927 11.79C42.1947 11.79 41.3547 12.336 41.2987 13.918H42.5447C42.4747 13.176 42.8807 12.658 43.6507 12.658C44.8827 12.658 44.8687 13.68 44.8407 14.618C43.2307 14.576 41.1307 14.674 41.1307 16.816C41.1307 18.174 41.5647 19.14 43.0627 19.14C43.9447 19.14 44.4907 18.79 44.8407 17.978H44.8687V19ZM50.9167 19H52.4147L54.6267 11.93H53.4227L51.7147 17.922H51.6867L50.1047 11.93H48.8167L50.9167 19ZM60.8614 15.486C60.9734 17.768 60.1054 18.202 59.4054 18.202C58.6354 18.202 58.2994 17.586 58.2994 16.9C58.2994 15.402 59.7694 15.5 60.8614 15.486ZM60.8894 19H62.1494C62.0654 18.454 62.0094 17.88 62.0094 17.32V13.918C62.0094 12.728 61.5334 11.79 59.7134 11.79C58.2154 11.79 57.3754 12.336 57.3194 13.918H58.5654C58.4954 13.176 58.9014 12.658 59.6714 12.658C60.9034 12.658 60.8894 13.68 60.8614 14.618C59.2514 14.576 57.1514 14.674 57.1514 16.816C57.1514 18.174 57.5854 19.14 59.0834 19.14C59.9654 19.14 60.5114 18.79 60.8614 17.978H60.8894V19ZM66.7694 8.892H65.6214V19H66.7694V8.892ZM71.3429 11.93H70.1949V19H71.3429V14.828C71.3429 13.876 71.6649 12.91 72.9389 12.91C73.0509 12.91 73.1489 12.924 73.2469 12.938C73.3449 12.952 73.4569 12.966 73.5549 12.98V11.79C72.4349 11.79 71.8469 11.916 71.3709 12.994H71.3429V11.93ZM76.649 11.93H75.319L77.713 19L76.915 21.674H78.105L81.311 11.93H80.065L78.371 17.684H78.343L76.649 11.93ZM89.7813 10.012H91.4753C92.8193 10.012 93.4493 10.768 93.4493 12.812V14.856C93.4493 17.208 92.7913 17.88 90.9993 17.88H89.7813V10.012ZM88.4933 19H90.8173C92.5813 19 93.6033 18.566 94.1493 17.698C94.5693 17.026 94.7653 15.78 94.7653 13.624C94.7653 13.302 94.7233 11.286 94.3173 10.432C93.8133 9.354 92.8893 8.892 91.6013 8.892H88.4933V19ZM99.4178 11.93H98.2698V19H99.4178V11.93ZM98.1998 10.124H99.4878V8.892H98.1998V10.124ZM104.089 19H105.587L107.799 11.93H106.595L104.887 17.922H104.859L103.277 11.93H101.989L104.089 19ZM111.542 11.93H110.394V19H111.542V11.93ZM110.324 10.124H111.612V8.892H110.324V10.124ZM119.476 16.984C119.476 14.828 115.948 14.856 115.948 13.61C115.948 12.994 116.424 12.658 117.04 12.658C117.768 12.658 118.16 13.05 118.146 13.792H119.42C119.518 12.392 118.44 11.79 117.18 11.79C115.192 11.79 114.744 12.98 114.744 13.722C114.744 15.836 118.272 15.864 118.272 17.124C118.272 17.852 117.74 18.202 117.054 18.202C115.892 18.202 115.878 17.25 115.878 16.844H114.576C114.534 18.468 115.486 19.14 117.012 19.14C118.412 19.14 119.476 18.538 119.476 16.984ZM123.666 11.93H122.518V19H123.666V11.93ZM122.448 10.124H123.736V8.892H122.448V10.124ZM129.542 18.202C128.352 18.202 128.058 17.376 128.058 15.08C128.058 13.148 128.66 12.728 129.542 12.728C130.424 12.728 131.026 13.148 131.026 15.08C131.026 17.376 130.732 18.202 129.542 18.202ZM129.542 19.14C131.04 19.14 132.23 18.692 132.23 15.57C132.23 13.498 131.992 11.79 129.542 11.79C127.092 11.79 126.854 13.498 126.854 15.57C126.854 18.692 128.044 19.14 129.542 19.14ZM140.434 19V14.1C140.434 12.7 140.056 11.79 138.544 11.79C137.634 11.79 137.102 12.042 136.654 12.84H136.598V11.93H135.38C135.422 12.42 135.45 12.91 135.45 13.4V19H136.598V14.814C136.598 13.848 136.78 12.728 138.04 12.728C139.02 12.728 139.286 13.344 139.286 14.1V19H140.434ZM143.318 20.778H144.214L145.488 17.544H144.046L143.318 20.778ZM154.397 14.268H155.769C157.085 14.268 158.079 14.548 158.079 16.158C158.079 16.9 157.589 17.88 156.217 17.88H154.397V14.268ZM154.397 10.012H156.217C157.295 10.012 157.771 10.698 157.771 11.538C157.771 12.518 157.281 13.134 156.273 13.148H154.397V10.012ZM156.357 19C157.505 19 159.395 18.748 159.395 16.158C159.395 14.772 158.765 13.904 157.323 13.736V13.666C158.625 13.372 159.059 12.532 159.059 11.272C159.059 11.076 159.003 10.474 158.653 9.928C158.275 9.368 157.799 8.892 156.399 8.892H153.109V19H156.357ZM166.427 15.486C166.539 17.768 165.671 18.202 164.971 18.202C164.201 18.202 163.865 17.586 163.865 16.9C163.865 15.402 165.335 15.5 166.427 15.486ZM166.455 19H167.715C167.631 18.454 167.575 17.88 167.575 17.32V13.918C167.575 12.728 167.099 11.79 165.279 11.79C163.781 11.79 162.941 12.336 162.885 13.918H164.131C164.061 13.176 164.467 12.658 165.237 12.658C166.469 12.658 166.455 13.68 166.427 14.618C164.817 14.576 162.717 14.674 162.717 16.816C162.717 18.174 163.151 19.14 164.649 19.14C165.531 19.14 166.077 18.79 166.427 17.978H166.455V19ZM170.179 11.93V12.798H171.341V17.824C171.341 18.636 171.831 19.084 172.923 19.084C173.301 19.084 173.679 19 174.057 18.972V18.09C173.805 18.118 173.623 18.146 173.539 18.146C172.489 18.146 172.489 17.572 172.489 17.124V12.798H174.029V11.93H172.489V10.054L171.341 10.572V11.93H170.179ZM175.476 11.93V12.798H176.638V17.824C176.638 18.636 177.128 19.084 178.22 19.084C178.598 19.084 178.976 19 179.354 18.972V18.09C179.102 18.118 178.92 18.146 178.836 18.146C177.786 18.146 177.786 17.572 177.786 17.124V12.798H179.326V11.93H177.786V10.054L176.638 10.572V11.93H175.476ZM182.928 8.892H181.78V19H182.928V8.892ZM187.432 14.968C187.446 13.008 188.048 12.658 188.776 12.658C189.616 12.658 190.19 12.91 190.19 14.968H187.432ZM191.408 15.836V15.234C191.408 12.896 190.904 11.79 188.888 11.79C186.438 11.79 186.2 13.498 186.2 15.57C186.2 18.692 187.39 19.14 188.888 19.14C190.372 19.14 191.338 18.426 191.352 16.858H190.092C190.05 17.572 189.644 18.202 188.86 18.202C187.964 18.202 187.432 17.81 187.432 15.836H191.408ZM201.707 18.202C200.517 18.202 200.223 17.376 200.223 15.08C200.223 13.148 200.825 12.728 201.707 12.728C202.589 12.728 203.191 13.148 203.191 15.08C203.191 17.376 202.897 18.202 201.707 18.202ZM201.707 19.14C203.205 19.14 204.395 18.692 204.395 15.57C204.395 13.498 204.157 11.79 201.707 11.79C199.257 11.79 199.019 13.498 199.019 15.57C199.019 18.692 200.209 19.14 201.707 19.14ZM206.733 11.93V12.798H207.825V19H208.973V12.798H210.401V11.93H208.973V10.726C208.973 10.152 209.183 9.634 210.401 9.718V8.892C210.233 8.864 210.093 8.85 209.855 8.85C208.833 8.85 207.825 9.13 207.825 10.558V11.93H206.733ZM218.997 8.892H217.709V19H218.997V8.892ZM226.324 15.486C226.436 17.768 225.568 18.202 224.868 18.202C224.098 18.202 223.762 17.586 223.762 16.9C223.762 15.402 225.232 15.5 226.324 15.486ZM226.352 19H227.612C227.528 18.454 227.472 17.88 227.472 17.32V13.918C227.472 12.728 226.996 11.79 225.176 11.79C223.678 11.79 222.838 12.336 222.782 13.918H224.028C223.958 13.176 224.364 12.658 225.134 12.658C226.366 12.658 226.352 13.68 226.324 14.618C224.714 14.576 222.614 14.674 222.614 16.816C222.614 18.174 223.048 19.14 224.546 19.14C225.428 19.14 225.974 18.79 226.324 17.978H226.352V19ZM237.057 10.012H238.751C240.095 10.012 240.725 10.768 240.725 12.812V14.856C240.725 17.208 240.067 17.88 238.275 17.88H237.057V10.012ZM235.769 19H238.093C239.857 19 240.879 18.566 241.425 17.698C241.845 17.026 242.041 15.78 242.041 13.624C242.041 13.302 241.999 11.286 241.593 10.432C241.089 9.354 240.165 8.892 238.877 8.892H235.769V19ZM246.764 11.93H245.616V19H246.764V14.828C246.764 13.876 247.086 12.91 248.36 12.91C248.472 12.91 248.57 12.924 248.668 12.938C248.766 12.952 248.878 12.966 248.976 12.98V11.79C247.856 11.79 247.268 11.916 246.792 12.994H246.764V11.93ZM255.248 15.486C255.36 17.768 254.492 18.202 253.792 18.202C253.022 18.202 252.686 17.586 252.686 16.9C252.686 15.402 254.156 15.5 255.248 15.486ZM255.276 19H256.536C256.452 18.454 256.396 17.88 256.396 17.32V13.918C256.396 12.728 255.92 11.79 254.1 11.79C252.602 11.79 251.762 12.336 251.706 13.918H252.952C252.882 13.176 253.288 12.658 254.058 12.658C255.29 12.658 255.276 13.68 255.248 14.618C253.638 14.576 251.538 14.674 251.538 16.816C251.538 18.174 251.972 19.14 253.47 19.14C254.352 19.14 254.898 18.79 255.248 17.978H255.276V19ZM265.02 19V14.1C265.02 12.7 264.642 11.79 263.13 11.79C262.22 11.79 261.688 12.042 261.24 12.84H261.184V11.93H259.966C260.008 12.42 260.036 12.91 260.036 13.4V19H261.184V14.814C261.184 13.848 261.366 12.728 262.626 12.728C263.606 12.728 263.872 13.344 263.872 14.1V19H265.02ZM272.202 15.43C272.202 16.41 272.244 18.048 270.858 18.048C270.004 18.048 269.486 17.516 269.486 15.248C269.486 14.31 269.528 12.742 270.83 12.742C272.272 12.742 272.202 14.38 272.202 15.43ZM272.174 12.798H272.146C271.824 12.112 271.236 11.79 270.494 11.79C269.92 11.79 268.282 12 268.282 15.248C268.282 17.348 268.66 19 270.578 19C271.194 19 271.838 18.678 272.132 18.118H272.174V19.588C272.174 20.316 271.74 20.806 270.942 20.806C270.312 20.806 269.878 20.442 269.864 19.784H268.576C268.478 21.086 269.542 21.674 270.718 21.674C272.272 21.674 273.322 21.296 273.322 19.714V11.93H272.174V12.798ZM276.304 20.778H277.2L278.474 17.544H277.032L276.304 20.778ZM288.881 9.284H287.775C287.383 9.606 286.459 10.306 286.137 10.446V11.678L287.593 10.698V19H288.881V9.284ZM295.55 10.068C296.656 10.068 296.852 11.202 296.852 12.084C296.852 13.05 296.67 14.1 295.55 14.1C294.43 14.1 294.248 13.05 294.248 12.084C294.248 11.202 294.444 10.068 295.55 10.068ZM295.55 9.13C294.262 9.13 292.96 9.928 292.96 12.112C292.96 14.772 294.416 15.178 295.186 15.178C295.928 15.178 296.544 14.94 296.852 14.268H296.88C296.88 16.76 296.796 18.132 295.55 18.132C294.724 18.132 294.444 17.39 294.444 16.676H293.156C293.128 18.216 294.094 19.21 295.55 19.21C298.182 19.21 298.168 16.718 298.168 14.184C298.168 11.566 298.21 9.13 295.55 9.13ZM301.897 15.85C301.897 14.982 302.051 13.75 303.185 13.75C304.305 13.75 304.501 14.828 304.501 15.71C304.501 16.984 304.319 18.132 303.269 18.132C302.023 18.132 301.897 16.816 301.897 15.85ZM303.199 19.21C305.089 19.21 305.789 17.67 305.789 15.934C305.789 13.4 304.725 12.672 303.479 12.672C302.807 12.672 302.219 13.022 301.897 13.582H301.869C301.869 10.992 302.135 10.068 303.185 10.068C303.955 10.068 304.319 10.824 304.319 11.496H305.607C305.663 10.026 304.655 9.13 303.199 9.13C300.539 9.13 300.581 11.566 300.581 14.184C300.581 16.718 300.567 19.21 303.199 19.21ZM308.523 9.284V14.744H309.685C309.797 14.1 310.175 13.61 310.875 13.61C312.079 13.61 312.121 14.716 312.121 16.13C312.121 17.082 312.037 18.272 310.819 18.272C309.965 18.272 309.671 17.558 309.671 16.802H308.383C308.383 18.104 308.761 19.21 310.777 19.21C313.213 19.21 313.409 17.362 313.409 15.808C313.409 13.568 312.765 12.532 311.379 12.532C310.721 12.532 310.049 12.84 309.839 13.26L309.811 13.232V10.404H313.059V9.284H308.523Z" fill="white"/>
</svg>
