<svg width="426" height="65" viewBox="0 0 426 65" fill="none" xmlns="http://www.w3.org/2000/svg">
<rect width="426" height="65" fill="black" fill-opacity="0.69"/>
<path d="M9.21 26H10.512L11.268 23.592H15.174L15.902 26H17.344L14.054 15.892H12.416L9.21 26ZM14.824 22.472H11.59L13.172 17.082H13.2L14.824 22.472ZM24.8526 21.198C24.9226 19.616 24.0966 18.79 22.6826 18.79C20.2326 18.79 19.9946 20.498 19.9946 22.57C19.9946 25.692 21.1846 26.14 22.6826 26.14C23.4666 26.14 24.9506 25.636 24.9086 23.648H23.7046C23.7466 24.922 22.9486 25.202 22.6826 25.202C21.4926 25.202 21.1986 24.376 21.1986 22.08C21.1986 20.148 21.8006 19.728 22.6826 19.728C23.1166 19.728 23.6906 20.036 23.6626 21.198H24.8526ZM27.3306 18.93V19.798H28.4926V24.824C28.4926 25.636 28.9826 26.084 30.0746 26.084C30.4526 26.084 30.8306 26 31.2086 25.972V25.09C30.9566 25.118 30.7746 25.146 30.6906 25.146C29.6406 25.146 29.6406 24.572 29.6406 24.124V19.798H31.1806V18.93H29.6406V17.054L28.4926 17.572V18.93H27.3306ZM37.4431 23.62C37.4431 24.796 36.6731 25.258 36.0571 25.258C35.2451 25.258 34.8531 24.684 34.8531 23.83V18.93H33.7051V24.32C33.7051 25.524 34.3771 26.14 35.6091 26.14C36.3511 26.14 37.0231 25.79 37.4011 25.146H37.4431V26H38.6611C38.6191 25.51 38.5911 25.02 38.5911 24.53V18.93H37.4431V23.62ZM45.6751 22.486C45.7871 24.768 44.9191 25.202 44.2191 25.202C43.4491 25.202 43.1131 24.586 43.1131 23.9C43.1131 22.402 44.5831 22.5 45.6751 22.486ZM45.7031 26H46.9631C46.8791 25.454 46.8231 24.88 46.8231 24.32V20.918C46.8231 19.728 46.3471 18.79 44.5271 18.79C43.0291 18.79 42.1891 19.336 42.1331 20.918H43.3791C43.3091 20.176 43.7151 19.658 44.4851 19.658C45.7171 19.658 45.7031 20.68 45.6751 21.618C44.0651 21.576 41.9651 21.674 41.9651 23.816C41.9651 25.174 42.3991 26.14 43.8971 26.14C44.7791 26.14 45.3251 25.79 45.6751 24.978H45.7031V26ZM51.5831 15.892H50.4351V26H51.5831V15.892ZM58.5881 18.93V19.798H59.6801V26H60.8281V19.798H62.2561V18.93H60.8281V17.726C60.8281 17.152 61.0381 16.634 62.2561 16.718V15.892C62.0881 15.864 61.9481 15.85 61.7101 15.85C60.6881 15.85 59.6801 16.13 59.6801 17.558V18.93H58.5881ZM67.2586 25.202C66.0686 25.202 65.7746 24.376 65.7746 22.08C65.7746 20.148 66.3766 19.728 67.2586 19.728C68.1406 19.728 68.7426 20.148 68.7426 22.08C68.7426 24.376 68.4486 25.202 67.2586 25.202ZM67.2586 26.14C68.7566 26.14 69.9466 25.692 69.9466 22.57C69.9466 20.498 69.7086 18.79 67.2586 18.79C64.8086 18.79 64.5706 20.498 64.5706 22.57C64.5706 25.692 65.7606 26.14 67.2586 26.14ZM75.6586 25.202C74.4686 25.202 74.1746 24.376 74.1746 22.08C74.1746 20.148 74.7766 19.728 75.6586 19.728C76.5406 19.728 77.1426 20.148 77.1426 22.08C77.1426 24.376 76.8486 25.202 75.6586 25.202ZM75.6586 26.14C77.1566 26.14 78.3466 25.692 78.3466 22.57C78.3466 20.498 78.1086 18.79 75.6586 18.79C73.2086 18.79 72.9706 20.498 72.9706 22.57C72.9706 25.692 74.1606 26.14 75.6586 26.14ZM80.5306 18.93V19.798H81.6926V24.824C81.6926 25.636 82.1826 26.084 83.2746 26.084C83.6526 26.084 84.0306 26 84.4086 25.972V25.09C84.1566 25.118 83.9746 25.146 83.8906 25.146C82.8406 25.146 82.8406 24.572 82.8406 24.124V19.798H84.3806V18.93H82.8406V17.054L81.6926 17.572V18.93H80.5306ZM90.4751 22.486C90.5871 24.768 89.7191 25.202 89.0191 25.202C88.2491 25.202 87.9131 24.586 87.9131 23.9C87.9131 22.402 89.3831 22.5 90.4751 22.486ZM90.5031 26H91.7631C91.6791 25.454 91.6231 24.88 91.6231 24.32V20.918C91.6231 19.728 91.1471 18.79 89.3271 18.79C87.8291 18.79 86.9891 19.336 86.9331 20.918H88.1791C88.1091 20.176 88.5151 19.658 89.2851 19.658C90.5171 19.658 90.5031 20.68 90.4751 21.618C88.8651 21.576 86.7651 21.674 86.7651 23.816C86.7651 25.174 87.1991 26.14 88.6971 26.14C89.5791 26.14 90.1251 25.79 90.4751 24.978H90.5031V26ZM99.0291 22.43C99.0291 23.41 99.0711 25.048 97.6851 25.048C96.8311 25.048 96.3131 24.516 96.3131 22.248C96.3131 21.31 96.3551 19.742 97.6571 19.742C99.0991 19.742 99.0291 21.38 99.0291 22.43ZM99.0011 19.798H98.9731C98.6511 19.112 98.0631 18.79 97.3211 18.79C96.7471 18.79 95.1091 19 95.1091 22.248C95.1091 24.348 95.4871 26 97.4051 26C98.0211 26 98.6651 25.678 98.9591 25.118H99.0011V26.588C99.0011 27.316 98.5671 27.806 97.7691 27.806C97.1391 27.806 96.7051 27.442 96.6911 26.784H95.4031C95.3051 28.086 96.3691 28.674 97.5451 28.674C99.0991 28.674 100.149 28.296 100.149 26.714V18.93H99.0011V19.798ZM104.783 21.968C104.797 20.008 105.399 19.658 106.127 19.658C106.967 19.658 107.541 19.91 107.541 21.968H104.783ZM108.759 22.836V22.234C108.759 19.896 108.255 18.79 106.239 18.79C103.789 18.79 103.551 20.498 103.551 22.57C103.551 25.692 104.741 26.14 106.239 26.14C107.723 26.14 108.689 25.426 108.703 23.858H107.443C107.401 24.572 106.995 25.202 106.211 25.202C105.315 25.202 104.783 24.81 104.783 22.836H108.759ZM119.059 25.202C117.869 25.202 117.575 24.376 117.575 22.08C117.575 20.148 118.177 19.728 119.059 19.728C119.941 19.728 120.543 20.148 120.543 22.08C120.543 24.376 120.249 25.202 119.059 25.202ZM119.059 26.14C120.557 26.14 121.747 25.692 121.747 22.57C121.747 20.498 121.509 18.79 119.059 18.79C116.609 18.79 116.371 20.498 116.371 22.57C116.371 25.692 117.561 26.14 119.059 26.14ZM124.085 18.93V19.798H125.177V26H126.325V19.798H127.753V18.93H126.325V17.726C126.325 17.152 126.535 16.634 127.753 16.718V15.892C127.585 15.864 127.445 15.85 127.207 15.85C126.185 15.85 125.177 16.13 125.177 17.558V18.93H124.085ZM133.969 26H135.271L136.027 23.592H139.933L140.661 26H142.103L138.813 15.892H137.175L133.969 26ZM139.583 22.472H136.349L137.931 17.082H137.959L139.583 22.472ZM149.345 26V21.24C149.345 20.974 149.401 20.274 149.737 19.994C150.045 19.742 150.171 19.728 150.605 19.728C151.529 19.728 151.725 20.386 151.725 21.1V26H152.873V20.624C152.873 18.958 151.683 18.79 150.941 18.79C150.297 18.79 149.653 18.944 149.261 19.7C148.995 19.056 148.253 18.79 147.609 18.79C146.783 18.79 146.181 19.056 145.845 19.812H145.817V18.93H144.599C144.641 19.42 144.669 19.91 144.669 20.4V26H145.817V21.24C145.817 20.974 145.873 20.554 146.083 20.204C146.251 19.938 146.727 19.728 147.077 19.728C148.001 19.728 148.197 20.386 148.197 21.1V26H149.345ZM157.349 21.968C157.363 20.008 157.965 19.658 158.693 19.658C159.533 19.658 160.107 19.91 160.107 21.968H157.349ZM161.325 22.836V22.234C161.325 19.896 160.821 18.79 158.805 18.79C156.355 18.79 156.117 20.498 156.117 22.57C156.117 25.692 157.307 26.14 158.805 26.14C160.289 26.14 161.255 25.426 161.269 23.858H160.009C159.967 24.572 159.561 25.202 158.777 25.202C157.881 25.202 157.349 24.81 157.349 22.836H161.325ZM165.819 18.93H164.671V26H165.819V21.828C165.819 20.876 166.141 19.91 167.415 19.91C167.527 19.91 167.625 19.924 167.723 19.938C167.821 19.952 167.933 19.966 168.031 19.98V18.79C166.911 18.79 166.323 18.916 165.847 19.994H165.819V18.93ZM171.811 18.93H170.663V26H171.811V18.93ZM170.593 17.124H171.881V15.892H170.593V17.124ZM180.08 21.198C180.15 19.616 179.324 18.79 177.91 18.79C175.46 18.79 175.222 20.498 175.222 22.57C175.222 25.692 176.412 26.14 177.91 26.14C178.694 26.14 180.178 25.636 180.136 23.648H178.932C178.974 24.922 178.176 25.202 177.91 25.202C176.72 25.202 176.426 24.376 176.426 22.08C176.426 20.148 177.028 19.728 177.91 19.728C178.344 19.728 178.918 20.036 178.89 21.198H180.08ZM187.206 22.486C187.318 24.768 186.45 25.202 185.75 25.202C184.98 25.202 184.644 24.586 184.644 23.9C184.644 22.402 186.114 22.5 187.206 22.486ZM187.234 26H188.494C188.41 25.454 188.354 24.88 188.354 24.32V20.918C188.354 19.728 187.878 18.79 186.058 18.79C184.56 18.79 183.72 19.336 183.664 20.918H184.91C184.84 20.176 185.246 19.658 186.016 19.658C187.248 19.658 187.234 20.68 187.206 21.618C185.596 21.576 183.496 21.674 183.496 23.816C183.496 25.174 183.93 26.14 185.428 26.14C186.31 26.14 186.856 25.79 187.206 24.978H187.234V26ZM196.978 26V21.1C196.978 19.7 196.6 18.79 195.088 18.79C194.178 18.79 193.646 19.042 193.198 19.84H193.142V18.93H191.924C191.966 19.42 191.994 19.91 191.994 20.4V26H193.142V21.814C193.142 20.848 193.324 19.728 194.584 19.728C195.564 19.728 195.83 20.344 195.83 21.1V26H196.978ZM209.448 23.984C209.448 21.828 205.92 21.856 205.92 20.61C205.92 19.994 206.396 19.658 207.012 19.658C207.74 19.658 208.132 20.05 208.118 20.792H209.392C209.49 19.392 208.412 18.79 207.152 18.79C205.164 18.79 204.716 19.98 204.716 20.722C204.716 22.836 208.244 22.864 208.244 24.124C208.244 24.852 207.712 25.202 207.026 25.202C205.864 25.202 205.85 24.25 205.85 23.844H204.548C204.506 25.468 205.458 26.14 206.984 26.14C208.384 26.14 209.448 25.538 209.448 23.984ZM215.011 25.202C213.821 25.202 213.527 24.376 213.527 22.08C213.527 20.148 214.129 19.728 215.011 19.728C215.893 19.728 216.495 20.148 216.495 22.08C216.495 24.376 216.201 25.202 215.011 25.202ZM215.011 26.14C216.509 26.14 217.699 25.692 217.699 22.57C217.699 20.498 217.461 18.79 215.011 18.79C212.561 18.79 212.323 20.498 212.323 22.57C212.323 25.692 213.513 26.14 215.011 26.14ZM222.039 15.892H220.891V26H222.039V15.892ZM229.16 22.178C229.16 23.606 229.16 25.202 227.872 25.202C226.43 25.202 226.43 23.662 226.43 22.598C226.43 20.708 226.598 19.728 227.83 19.728C229.104 19.728 229.16 21.24 229.16 22.178ZM229.16 19.644H229.118C228.726 19.084 228.236 18.79 227.564 18.79C225.282 18.79 225.226 20.82 225.226 22.584C225.226 25.692 226.374 26.14 227.508 26.14C228.25 26.14 228.74 25.818 229.132 25.16H229.16V26H230.308V15.892H229.16V19.644ZM234.942 18.93H233.794V26H234.942V18.93ZM233.724 17.124H235.012V15.892H233.724V17.124ZM239.446 21.968C239.46 20.008 240.062 19.658 240.79 19.658C241.63 19.658 242.204 19.91 242.204 21.968H239.446ZM243.422 22.836V22.234C243.422 19.896 242.918 18.79 240.902 18.79C238.452 18.79 238.214 20.498 238.214 22.57C238.214 25.692 239.404 26.14 240.902 26.14C242.386 26.14 243.352 25.426 243.366 23.858H242.106C242.064 24.572 241.658 25.202 240.874 25.202C239.978 25.202 239.446 24.81 239.446 22.836H243.422ZM247.916 18.93H246.768V26H247.916V21.828C247.916 20.876 248.238 19.91 249.512 19.91C249.624 19.91 249.722 19.924 249.82 19.938C249.918 19.952 250.03 19.966 250.128 19.98V18.79C249.008 18.79 248.42 18.916 247.944 19.994H247.916V18.93ZM257.338 23.984C257.338 21.828 253.81 21.856 253.81 20.61C253.81 19.994 254.286 19.658 254.902 19.658C255.63 19.658 256.022 20.05 256.008 20.792H257.282C257.38 19.392 256.302 18.79 255.042 18.79C253.054 18.79 252.606 19.98 252.606 20.722C252.606 22.836 256.134 22.864 256.134 24.124C256.134 24.852 255.602 25.202 254.916 25.202C253.754 25.202 253.74 24.25 253.74 23.844H252.438C252.396 25.468 253.348 26.14 254.874 26.14C256.274 26.14 257.338 25.538 257.338 23.984ZM268.65 22.178C268.65 23.606 268.65 25.202 267.362 25.202C265.92 25.202 265.92 23.662 265.92 22.598C265.92 20.708 266.088 19.728 267.32 19.728C268.594 19.728 268.65 21.24 268.65 22.178ZM268.65 19.644H268.608C268.216 19.084 267.726 18.79 267.054 18.79C264.772 18.79 264.716 20.82 264.716 22.584C264.716 25.692 265.864 26.14 266.998 26.14C267.74 26.14 268.23 25.818 268.622 25.16H268.65V26H269.798V15.892H268.65V19.644ZM277.092 23.62C277.092 24.796 276.322 25.258 275.706 25.258C274.894 25.258 274.502 24.684 274.502 23.83V18.93H273.354V24.32C273.354 25.524 274.026 26.14 275.258 26.14C276 26.14 276.672 25.79 277.05 25.146H277.092V26H278.31C278.268 25.51 278.24 25.02 278.24 24.53V18.93H277.092V23.62ZM282.902 18.93H281.754V26H282.902V21.828C282.902 20.876 283.224 19.91 284.498 19.91C284.61 19.91 284.708 19.924 284.806 19.938C284.904 19.952 285.016 19.966 285.114 19.98V18.79C283.994 18.79 283.406 18.916 282.93 19.994H282.902V18.93ZM288.894 18.93H287.746V26H288.894V18.93ZM287.676 17.124H288.964V15.892H287.676V17.124ZM297.262 26V21.1C297.262 19.7 296.884 18.79 295.372 18.79C294.462 18.79 293.93 19.042 293.482 19.84H293.426V18.93H292.208C292.25 19.42 292.278 19.91 292.278 20.4V26H293.426V21.814C293.426 20.848 293.608 19.728 294.868 19.728C295.848 19.728 296.114 20.344 296.114 21.1V26H297.262ZM304.444 22.43C304.444 23.41 304.486 25.048 303.1 25.048C302.246 25.048 301.728 24.516 301.728 22.248C301.728 21.31 301.77 19.742 303.072 19.742C304.514 19.742 304.444 21.38 304.444 22.43ZM304.416 19.798H304.388C304.066 19.112 303.478 18.79 302.736 18.79C302.162 18.79 300.524 19 300.524 22.248C300.524 24.348 300.902 26 302.82 26C303.436 26 304.08 25.678 304.374 25.118H304.416V26.588C304.416 27.316 303.982 27.806 303.184 27.806C302.554 27.806 302.12 27.442 302.106 26.784H300.818C300.72 28.086 301.784 28.674 302.96 28.674C304.514 28.674 305.564 28.296 305.564 26.714V18.93H304.416V19.798ZM312.545 18.93V19.798H313.707V24.824C313.707 25.636 314.197 26.084 315.289 26.084C315.667 26.084 316.045 26 316.423 25.972V25.09C316.171 25.118 315.989 25.146 315.905 25.146C314.855 25.146 314.855 24.572 314.855 24.124V19.798H316.395V18.93H314.855V17.054L313.707 17.572V18.93H312.545ZM323.862 26V20.988C323.862 19.392 323.19 18.79 321.986 18.79C321.062 18.79 320.53 19.014 320.068 19.84H320.012V15.892H318.864V26H320.012V21.842C320.012 20.652 320.306 19.728 321.454 19.728C322.434 19.728 322.714 20.344 322.714 21.212V26H323.862ZM328.398 21.968C328.412 20.008 329.014 19.658 329.742 19.658C330.582 19.658 331.156 19.91 331.156 21.968H328.398ZM332.374 22.836V22.234C332.374 19.896 331.87 18.79 329.854 18.79C327.404 18.79 327.166 20.498 327.166 22.57C327.166 25.692 328.356 26.14 329.854 26.14C331.338 26.14 332.304 25.426 332.318 23.858H331.058C331.016 24.572 330.61 25.202 329.826 25.202C328.93 25.202 328.398 24.81 328.398 22.836H332.374ZM341.469 26H342.967L345.179 18.93H343.975L342.267 24.922H342.239L340.657 18.93H339.369L341.469 26ZM348.922 18.93H347.774V26H348.922V18.93ZM347.704 17.124H348.992V15.892H347.704V17.124ZM353.425 21.968C353.439 20.008 354.041 19.658 354.769 19.658C355.609 19.658 356.183 19.91 356.183 21.968H353.425ZM357.401 22.836V22.234C357.401 19.896 356.897 18.79 354.881 18.79C352.431 18.79 352.193 20.498 352.193 22.57C352.193 25.692 353.383 26.14 354.881 26.14C356.365 26.14 357.331 25.426 357.345 23.858H356.085C356.043 24.572 355.637 25.202 354.853 25.202C353.957 25.202 353.425 24.81 353.425 22.836H357.401ZM359.669 18.93V19.798H360.831V24.824C360.831 25.636 361.321 26.084 362.413 26.084C362.791 26.084 363.169 26 363.547 25.972V25.09C363.295 25.118 363.113 25.146 363.029 25.146C361.979 25.146 361.979 24.572 361.979 24.124V19.798H363.519V18.93H361.979V17.054L360.831 17.572V18.93H359.669ZM370.986 26V21.1C370.986 19.7 370.608 18.79 369.096 18.79C368.186 18.79 367.654 19.042 367.206 19.84H367.15V18.93H365.932C365.974 19.42 366.002 19.91 366.002 20.4V26H367.15V21.814C367.15 20.848 367.332 19.728 368.592 19.728C369.572 19.728 369.838 20.344 369.838 21.1V26H370.986ZM378.014 22.486C378.126 24.768 377.258 25.202 376.558 25.202C375.788 25.202 375.452 24.586 375.452 23.9C375.452 22.402 376.922 22.5 378.014 22.486ZM378.042 26H379.302C379.218 25.454 379.162 24.88 379.162 24.32V20.918C379.162 19.728 378.686 18.79 376.866 18.79C375.368 18.79 374.528 19.336 374.472 20.918H375.718C375.648 20.176 376.054 19.658 376.824 19.658C378.056 19.658 378.042 20.68 378.014 21.618C376.404 21.576 374.304 21.674 374.304 23.816C374.304 25.174 374.738 26.14 376.236 26.14C377.118 26.14 377.664 25.79 378.014 24.978H378.042V26ZM387.422 26V21.24C387.422 20.974 387.478 20.274 387.814 19.994C388.122 19.742 388.248 19.728 388.682 19.728C389.606 19.728 389.802 20.386 389.802 21.1V26H390.95V20.624C390.95 18.958 389.76 18.79 389.018 18.79C388.374 18.79 387.73 18.944 387.338 19.7C387.072 19.056 386.33 18.79 385.686 18.79C384.86 18.79 384.258 19.056 383.922 19.812H383.894V18.93H382.676C382.718 19.42 382.746 19.91 382.746 20.4V26H383.894V21.24C383.894 20.974 383.95 20.554 384.16 20.204C384.328 19.938 384.804 19.728 385.154 19.728C386.078 19.728 386.274 20.386 386.274 21.1V26H387.422ZM395.425 21.968C395.439 20.008 396.041 19.658 396.769 19.658C397.609 19.658 398.183 19.91 398.183 21.968H395.425ZM399.401 22.836V22.234C399.401 19.896 398.897 18.79 396.881 18.79C394.431 18.79 394.193 20.498 394.193 22.57C394.193 25.692 395.383 26.14 396.881 26.14C398.365 26.14 399.331 25.426 399.345 23.858H398.085C398.043 24.572 397.637 25.202 396.853 25.202C395.957 25.202 395.425 24.81 395.425 22.836H399.401ZM407.255 23.984C407.255 21.828 403.727 21.856 403.727 20.61C403.727 19.994 404.203 19.658 404.819 19.658C405.547 19.658 405.939 20.05 405.925 20.792H407.199C407.297 19.392 406.219 18.79 404.959 18.79C402.971 18.79 402.523 19.98 402.523 20.722C402.523 22.836 406.051 22.864 406.051 24.124C406.051 24.852 405.519 25.202 404.833 25.202C403.671 25.202 403.657 24.25 403.657 23.844H402.355C402.313 25.468 403.265 26.14 404.791 26.14C406.191 26.14 407.255 25.538 407.255 23.984ZM411.446 21.968C411.46 20.008 412.062 19.658 412.79 19.658C413.63 19.658 414.204 19.91 414.204 21.968H411.446ZM415.422 22.836V22.234C415.422 19.896 414.918 18.79 412.902 18.79C410.452 18.79 410.214 20.498 410.214 22.57C410.214 25.692 411.404 26.14 412.902 26.14C414.386 26.14 415.352 25.426 415.366 23.858H414.106C414.064 24.572 413.658 25.202 412.874 25.202C411.978 25.202 411.446 24.81 411.446 22.836H415.422ZM10.89 48H12.43L14.012 41.98H14.04L15.552 48H17.092L18.982 40.93H17.764L16.364 47.02H16.336L14.894 40.93H13.27L11.702 47.02H11.674L10.4 40.93H9.126L10.89 48ZM25.1235 44.486C25.2355 46.768 24.3675 47.202 23.6675 47.202C22.8975 47.202 22.5615 46.586 22.5615 45.9C22.5615 44.402 24.0315 44.5 25.1235 44.486ZM25.1515 48H26.4115C26.3275 47.454 26.2715 46.88 26.2715 46.32V42.918C26.2715 41.728 25.7955 40.79 23.9755 40.79C22.4775 40.79 21.6375 41.336 21.5815 42.918H22.8275C22.7575 42.176 23.1635 41.658 23.9335 41.658C25.1655 41.658 25.1515 42.68 25.1235 43.618C23.5135 43.576 21.4135 43.674 21.4135 45.816C21.4135 47.174 21.8475 48.14 23.3455 48.14C24.2275 48.14 24.7735 47.79 25.1235 46.978H25.1515V48ZM31.1015 40.93H29.9535V48H31.1015V43.828C31.1015 42.876 31.4235 41.91 32.6975 41.91C32.8095 41.91 32.9075 41.924 33.0055 41.938C33.1035 41.952 33.2155 41.966 33.3135 41.98V40.79C32.1935 40.79 31.6055 40.916 31.1295 41.994H31.1015V40.93ZM34.4573 49.778H35.3533L36.6273 46.544H35.1853L34.4573 49.778ZM44.8783 48H46.4183L48.0003 41.98H48.0283L49.5403 48H51.0803L52.9703 40.93H51.7523L50.3523 47.02H50.3243L48.8823 40.93H47.2583L45.6903 47.02H45.6623L44.3883 40.93H43.1143L44.8783 48ZM59.1118 44.486C59.2238 46.768 58.3558 47.202 57.6558 47.202C56.8858 47.202 56.5498 46.586 56.5498 45.9C56.5498 44.402 58.0198 44.5 59.1118 44.486ZM59.1398 48H60.3998C60.3158 47.454 60.2598 46.88 60.2598 46.32V42.918C60.2598 41.728 59.7838 40.79 57.9638 40.79C56.4658 40.79 55.6258 41.336 55.5698 42.918H56.8158C56.7458 42.176 57.1518 41.658 57.9218 41.658C59.1538 41.658 59.1398 42.68 59.1118 43.618C57.5018 43.576 55.4018 43.674 55.4018 45.816C55.4018 47.174 55.8358 48.14 57.3338 48.14C58.2158 48.14 58.7618 47.79 59.1118 46.978H59.1398V48ZM68.8838 48V43.1C68.8838 41.7 68.5058 40.79 66.9938 40.79C66.0838 40.79 65.5518 41.042 65.1038 41.84H65.0478V40.93H63.8298C63.8718 41.42 63.8998 41.91 63.8998 42.4V48H65.0478V43.814C65.0478 42.848 65.2298 41.728 66.4898 41.728C67.4698 41.728 67.7358 42.344 67.7358 43.1V48H68.8838ZM76.0378 44.178C76.0378 45.606 76.0378 47.202 74.7498 47.202C73.3078 47.202 73.3078 45.662 73.3078 44.598C73.3078 42.708 73.4758 41.728 74.7078 41.728C75.9818 41.728 76.0378 43.24 76.0378 44.178ZM76.0378 41.644H75.9958C75.6038 41.084 75.1138 40.79 74.4418 40.79C72.1598 40.79 72.1038 42.82 72.1038 44.584C72.1038 47.692 73.2518 48.14 74.3858 48.14C75.1278 48.14 75.6178 47.818 76.0098 47.16H76.0378V48H77.1858V37.892H76.0378V41.644ZM81.8198 43.968C81.8338 42.008 82.4358 41.658 83.1638 41.658C84.0038 41.658 84.5778 41.91 84.5778 43.968H81.8198ZM85.7958 44.836V44.234C85.7958 41.896 85.2918 40.79 83.2758 40.79C80.8258 40.79 80.5878 42.498 80.5878 44.57C80.5878 47.692 81.7778 48.14 83.2758 48.14C84.7598 48.14 85.7258 47.426 85.7398 45.858H84.4798C84.4378 46.572 84.0318 47.202 83.2478 47.202C82.3518 47.202 81.8198 46.81 81.8198 44.836H85.7958ZM90.2898 40.93H89.1418V48H90.2898V43.828C90.2898 42.876 90.6118 41.91 91.8858 41.91C91.9978 41.91 92.0958 41.924 92.1938 41.938C92.2918 41.952 92.4038 41.966 92.5018 41.98V40.79C91.3818 40.79 90.7938 40.916 90.3178 41.994H90.2898V40.93ZM96.2819 40.93H95.1339V48H96.2819V40.93ZM95.0639 39.124H96.3519V37.892H95.0639V39.124ZM104.649 48V43.1C104.649 41.7 104.271 40.79 102.759 40.79C101.849 40.79 101.317 41.042 100.869 41.84H100.813V40.93H99.5954C99.6374 41.42 99.6654 41.91 99.6654 42.4V48H100.813V43.814C100.813 42.848 100.995 41.728 102.255 41.728C103.235 41.728 103.501 42.344 103.501 43.1V48H104.649ZM111.831 44.43C111.831 45.41 111.873 47.048 110.487 47.048C109.633 47.048 109.115 46.516 109.115 44.248C109.115 43.31 109.157 41.742 110.459 41.742C111.901 41.742 111.831 43.38 111.831 44.43ZM111.803 41.798H111.775C111.453 41.112 110.865 40.79 110.123 40.79C109.549 40.79 107.911 41 107.911 44.248C107.911 46.348 108.289 48 110.207 48C110.823 48 111.467 47.678 111.761 47.118H111.803V48.588C111.803 49.316 111.369 49.806 110.571 49.806C109.941 49.806 109.507 49.442 109.493 48.784H108.205C108.107 50.086 109.171 50.674 110.347 50.674C111.901 50.674 112.951 50.296 112.951 48.714V40.93H111.803V41.798ZM119.933 40.93V41.798H121.095V46.824C121.095 47.636 121.585 48.084 122.677 48.084C123.055 48.084 123.433 48 123.811 47.972V47.09C123.559 47.118 123.377 47.146 123.293 47.146C122.243 47.146 122.243 46.572 122.243 46.124V41.798H123.783V40.93H122.243V39.054L121.095 39.572V40.93H119.933ZM131.249 48V42.988C131.249 41.392 130.577 40.79 129.373 40.79C128.449 40.79 127.917 41.014 127.455 41.84H127.399V37.892H126.251V48H127.399V43.842C127.399 42.652 127.693 41.728 128.841 41.728C129.821 41.728 130.101 42.344 130.101 43.212V48H131.249ZM135.855 40.93H134.707V48H135.855V43.828C135.855 42.876 136.177 41.91 137.451 41.91C137.563 41.91 137.661 41.924 137.759 41.938C137.857 41.952 137.969 41.966 138.067 41.98V40.79C136.947 40.79 136.359 40.916 135.883 41.994H135.855V40.93ZM143.22 47.202C142.03 47.202 141.736 46.376 141.736 44.08C141.736 42.148 142.338 41.728 143.22 41.728C144.102 41.728 144.704 42.148 144.704 44.08C144.704 46.376 144.41 47.202 143.22 47.202ZM143.22 48.14C144.718 48.14 145.908 47.692 145.908 44.57C145.908 42.498 145.67 40.79 143.22 40.79C140.77 40.79 140.532 42.498 140.532 44.57C140.532 47.692 141.722 48.14 143.22 48.14ZM152.908 45.62C152.908 46.796 152.138 47.258 151.522 47.258C150.71 47.258 150.318 46.684 150.318 45.83V40.93H149.17V46.32C149.17 47.524 149.842 48.14 151.074 48.14C151.816 48.14 152.488 47.79 152.866 47.146H152.908V48H154.126C154.084 47.51 154.056 47.02 154.056 46.53V40.93H152.908V45.62ZM161.294 44.43C161.294 45.41 161.336 47.048 159.95 47.048C159.096 47.048 158.578 46.516 158.578 44.248C158.578 43.31 158.62 41.742 159.922 41.742C161.364 41.742 161.294 43.38 161.294 44.43ZM161.266 41.798H161.238C160.916 41.112 160.328 40.79 159.586 40.79C159.012 40.79 157.374 41 157.374 44.248C157.374 46.348 157.752 48 159.67 48C160.286 48 160.93 47.678 161.224 47.118H161.266V48.588C161.266 49.316 160.832 49.806 160.034 49.806C159.404 49.806 158.97 49.442 158.956 48.784H157.668C157.57 50.086 158.634 50.674 159.81 50.674C161.364 50.674 162.414 50.296 162.414 48.714V40.93H161.266V41.798ZM170.912 48V42.988C170.912 41.392 170.24 40.79 169.036 40.79C168.112 40.79 167.58 41.014 167.118 41.84H167.062V37.892H165.914V48H167.062V43.842C167.062 42.652 167.356 41.728 168.504 41.728C169.484 41.728 169.764 42.344 169.764 43.212V48H170.912ZM177.795 40.93V41.798H178.957V46.824C178.957 47.636 179.447 48.084 180.539 48.084C180.917 48.084 181.295 48 181.673 47.972V47.09C181.421 47.118 181.239 47.146 181.155 47.146C180.105 47.146 180.105 46.572 180.105 46.124V41.798H181.645V40.93H180.105V39.054L178.957 39.572V40.93H177.795ZM189.112 48V42.988C189.112 41.392 188.44 40.79 187.236 40.79C186.312 40.79 185.78 41.014 185.318 41.84H185.262V37.892H184.114V48H185.262V43.842C185.262 42.652 185.556 41.728 186.704 41.728C187.684 41.728 187.964 42.344 187.964 43.212V48H189.112ZM193.648 43.968C193.662 42.008 194.264 41.658 194.992 41.658C195.832 41.658 196.406 41.91 196.406 43.968H193.648ZM197.624 44.836V44.234C197.624 41.896 197.12 40.79 195.104 40.79C192.654 40.79 192.416 42.498 192.416 44.57C192.416 47.692 193.606 48.14 195.104 48.14C196.588 48.14 197.554 47.426 197.568 45.858H196.308C196.266 46.572 195.86 47.202 195.076 47.202C194.18 47.202 193.648 46.81 193.648 44.836H197.624ZM204.395 40.93V41.798H205.557V46.824C205.557 47.636 206.047 48.084 207.139 48.084C207.517 48.084 207.895 48 208.273 47.972V47.09C208.021 47.118 207.839 47.146 207.755 47.146C206.705 47.146 206.705 46.572 206.705 46.124V41.798H208.245V40.93H206.705V39.054L205.557 39.572V40.93H204.395ZM215.712 48V42.988C215.712 41.392 215.04 40.79 213.836 40.79C212.912 40.79 212.38 41.014 211.918 41.84H211.862V37.892H210.714V48H211.862V43.842C211.862 42.652 212.156 41.728 213.304 41.728C214.284 41.728 214.564 42.344 214.564 43.212V48H215.712ZM220.248 40.93H219.1V48H220.248V40.93ZM219.03 39.124H220.318V37.892H219.03V39.124ZM228.517 43.198C228.587 41.616 227.761 40.79 226.347 40.79C223.897 40.79 223.659 42.498 223.659 44.57C223.659 47.692 224.849 48.14 226.347 48.14C227.131 48.14 228.615 47.636 228.573 45.648H227.369C227.411 46.922 226.613 47.202 226.347 47.202C225.157 47.202 224.863 46.376 224.863 44.08C224.863 42.148 225.465 41.728 226.347 41.728C226.781 41.728 227.355 42.036 227.327 43.198H228.517ZM233.179 44.038H233.207L235.727 48H237.183L234.411 43.968L236.763 40.93H235.363L233.207 43.982H233.179V37.892H232.031V48H233.179V44.038ZM244.127 49.036C244.127 49.624 243.763 49.694 243.273 49.694V50.674C244.953 50.674 245.275 50.1 245.275 48.98V40.93H244.127V49.036ZM244.057 39.124H245.345V37.892H244.057V39.124ZM252.439 45.62C252.439 46.796 251.669 47.258 251.053 47.258C250.241 47.258 249.849 46.684 249.849 45.83V40.93H248.701V46.32C248.701 47.524 249.373 48.14 250.605 48.14C251.347 48.14 252.019 47.79 252.397 47.146H252.439V48H253.657C253.615 47.51 253.587 47.02 253.587 46.53V40.93H252.439V45.62ZM262.043 48V43.1C262.043 41.7 261.665 40.79 260.153 40.79C259.243 40.79 258.711 41.042 258.263 41.84H258.207V40.93H256.989C257.031 41.42 257.059 41.91 257.059 42.4V48H258.207V43.814C258.207 42.848 258.389 41.728 259.649 41.728C260.629 41.728 260.895 42.344 260.895 43.1V48H262.043ZM269.225 44.43C269.225 45.41 269.267 47.048 267.881 47.048C267.027 47.048 266.509 46.516 266.509 44.248C266.509 43.31 266.551 41.742 267.853 41.742C269.295 41.742 269.225 43.38 269.225 44.43ZM269.197 41.798H269.169C268.847 41.112 268.259 40.79 267.517 40.79C266.943 40.79 265.305 41 265.305 44.248C265.305 46.348 265.683 48 267.601 48C268.217 48 268.861 47.678 269.155 47.118H269.197V48.588C269.197 49.316 268.763 49.806 267.965 49.806C267.335 49.806 266.901 49.442 266.887 48.784H265.599C265.501 50.086 266.565 50.674 267.741 50.674C269.295 50.674 270.345 50.296 270.345 48.714V40.93H269.197V41.798ZM274.979 37.892H273.831V48H274.979V37.892ZM279.482 43.968C279.496 42.008 280.098 41.658 280.826 41.658C281.666 41.658 282.24 41.91 282.24 43.968H279.482ZM283.458 44.836V44.234C283.458 41.896 282.954 40.79 280.938 40.79C278.488 40.79 278.25 42.498 278.25 44.57C278.25 47.692 279.44 48.14 280.938 48.14C282.422 48.14 283.388 47.426 283.402 45.858H282.142C282.1 46.572 281.694 47.202 280.91 47.202C280.014 47.202 279.482 46.81 279.482 44.836H283.458ZM293.758 47.202C292.568 47.202 292.274 46.376 292.274 44.08C292.274 42.148 292.876 41.728 293.758 41.728C294.64 41.728 295.242 42.148 295.242 44.08C295.242 46.376 294.948 47.202 293.758 47.202ZM293.758 48.14C295.256 48.14 296.446 47.692 296.446 44.57C296.446 42.498 296.208 40.79 293.758 40.79C291.308 40.79 291.07 42.498 291.07 44.57C291.07 47.692 292.26 48.14 293.758 48.14ZM298.784 40.93V41.798H299.876V48H301.024V41.798H302.452V40.93H301.024V39.726C301.024 39.152 301.234 38.634 302.452 38.718V37.892C302.284 37.864 302.144 37.85 301.906 37.85C300.884 37.85 299.876 38.13 299.876 39.558V40.93H298.784ZM310.586 43.968C310.6 42.008 311.202 41.658 311.93 41.658C312.77 41.658 313.344 41.91 313.344 43.968H310.586ZM314.562 44.836V44.234C314.562 41.896 314.058 40.79 312.042 40.79C309.592 40.79 309.354 42.498 309.354 44.57C309.354 47.692 310.544 48.14 312.042 48.14C313.526 48.14 314.492 47.426 314.506 45.858H313.246C313.204 46.572 312.798 47.202 312.014 47.202C311.118 47.202 310.586 46.81 310.586 44.836H314.562ZM322.85 48V43.1C322.85 41.7 322.472 40.79 320.96 40.79C320.05 40.79 319.518 41.042 319.07 41.84H319.014V40.93H317.796C317.838 41.42 317.866 41.91 317.866 42.4V48H319.014V43.814C319.014 42.848 319.196 41.728 320.456 41.728C321.436 41.728 321.702 42.344 321.702 43.1V48H322.85ZM327.386 43.968C327.4 42.008 328.002 41.658 328.73 41.658C329.57 41.658 330.144 41.91 330.144 43.968H327.386ZM331.362 44.836V44.234C331.362 41.896 330.858 40.79 328.842 40.79C326.392 40.79 326.154 42.498 326.154 44.57C326.154 47.692 327.344 48.14 328.842 48.14C330.326 48.14 331.292 47.426 331.306 45.858H330.046C330.004 46.572 329.598 47.202 328.814 47.202C327.918 47.202 327.386 46.81 327.386 44.836H331.362ZM339.286 48V43.24C339.286 42.974 339.342 42.274 339.678 41.994C339.986 41.742 340.112 41.728 340.546 41.728C341.47 41.728 341.666 42.386 341.666 43.1V48H342.814V42.624C342.814 40.958 341.624 40.79 340.882 40.79C340.238 40.79 339.594 40.944 339.202 41.7C338.936 41.056 338.194 40.79 337.55 40.79C336.724 40.79 336.122 41.056 335.786 41.812H335.758V40.93H334.54C334.582 41.42 334.61 41.91 334.61 42.4V48H335.758V43.24C335.758 42.974 335.814 42.554 336.024 42.204C336.192 41.938 336.668 41.728 337.018 41.728C337.942 41.728 338.138 42.386 338.138 43.1V48H339.286ZM346.603 40.93H345.273L347.667 48L346.869 50.674H348.059L351.265 40.93H350.019L348.325 46.684H348.297L346.603 40.93ZM357.258 40.93V41.798H358.42V46.824C358.42 47.636 358.91 48.084 360.002 48.084C360.38 48.084 360.758 48 361.136 47.972V47.09C360.884 47.118 360.702 47.146 360.618 47.146C359.568 47.146 359.568 46.572 359.568 46.124V41.798H361.108V40.93H359.568V39.054L358.42 39.572V40.93H357.258ZM364.71 43.968C364.724 42.008 365.326 41.658 366.054 41.658C366.894 41.658 367.468 41.91 367.468 43.968H364.71ZM368.686 44.836V44.234C368.686 41.896 368.182 40.79 366.166 40.79C363.716 40.79 363.478 42.498 363.478 44.57C363.478 47.692 364.668 48.14 366.166 48.14C367.65 48.14 368.616 47.426 368.63 45.858H367.37C367.328 46.572 366.922 47.202 366.138 47.202C365.242 47.202 364.71 46.81 364.71 44.836H368.686ZM373.18 40.93H372.032V48H373.18V43.828C373.18 42.876 373.502 41.91 374.776 41.91C374.888 41.91 374.986 41.924 375.084 41.938C375.182 41.952 375.294 41.966 375.392 41.98V40.79C374.272 40.79 373.684 40.916 373.208 41.994H373.18V40.93ZM379.242 40.93H378.094V48H379.242V43.828C379.242 42.876 379.564 41.91 380.838 41.91C380.95 41.91 381.048 41.924 381.146 41.938C381.244 41.952 381.356 41.966 381.454 41.98V40.79C380.334 40.79 379.746 40.916 379.27 41.994H379.242V40.93ZM385.234 40.93H384.086V48H385.234V40.93ZM384.016 39.124H385.304V37.892H384.016V39.124ZM387.582 40.93V41.798H388.744V46.824C388.744 47.636 389.234 48.084 390.326 48.084C390.704 48.084 391.082 48 391.46 47.972V47.09C391.208 47.118 391.026 47.146 390.942 47.146C389.892 47.146 389.892 46.572 389.892 46.124V41.798H391.432V40.93H389.892V39.054L388.744 39.572V40.93H387.582ZM396.406 47.202C395.216 47.202 394.922 46.376 394.922 44.08C394.922 42.148 395.524 41.728 396.406 41.728C397.288 41.728 397.89 42.148 397.89 44.08C397.89 46.376 397.596 47.202 396.406 47.202ZM396.406 48.14C397.904 48.14 399.094 47.692 399.094 44.57C399.094 42.498 398.856 40.79 396.406 40.79C393.956 40.79 393.718 42.498 393.718 44.57C393.718 47.692 394.908 48.14 396.406 48.14ZM403.504 40.93H402.356V48H403.504V43.828C403.504 42.876 403.826 41.91 405.1 41.91C405.212 41.91 405.31 41.924 405.408 41.938C405.506 41.952 405.618 41.966 405.716 41.98V40.79C404.596 40.79 404.008 40.916 403.532 41.994H403.504V40.93ZM408.81 40.93H407.48L409.874 48L409.076 50.674H410.266L413.472 40.93H412.226L410.532 46.684H410.504L408.81 40.93ZM416.682 46.544H415.366V48H416.682V46.544Z" fill="white"/>
</svg>
