<svg width="424" height="91" viewBox="0 0 424 91" fill="none" xmlns="http://www.w3.org/2000/svg">
<rect width="411" height="91" fill="black" fill-opacity="0.69"/>
<path d="M7.21 16H8.512L9.268 13.592H13.174L13.902 16H15.344L12.054 5.892H10.416L7.21 16ZM12.824 12.472H9.59L11.172 7.082H11.2L12.824 12.472ZM22.9506 16V11.1C22.9506 9.7 22.5726 8.79 21.0606 8.79C20.1506 8.79 19.6186 9.042 19.1706 9.84H19.1146V8.93H17.8966C17.9386 9.42 17.9666 9.91 17.9666 10.4V16H19.1146V11.814C19.1146 10.848 19.2966 9.728 20.5566 9.728C21.5366 9.728 21.8026 10.344 21.8026 11.1V16H22.9506ZM34.4821 12.486C34.5941 14.768 33.7261 15.202 33.0261 15.202C32.2561 15.202 31.9201 14.586 31.9201 13.9C31.9201 12.402 33.3901 12.5 34.4821 12.486ZM34.5101 16H35.7701C35.6861 15.454 35.6301 14.88 35.6301 14.32V10.918C35.6301 9.728 35.1541 8.79 33.3341 8.79C31.8361 8.79 30.9961 9.336 30.9401 10.918H32.1861C32.1161 10.176 32.5221 9.658 33.2921 9.658C34.5241 9.658 34.5101 10.68 34.4821 11.618C32.8721 11.576 30.7721 11.674 30.7721 13.816C30.7721 15.174 31.2061 16.14 32.7041 16.14C33.5861 16.14 34.1321 15.79 34.4821 14.978H34.5101V16ZM43.0501 13.62C43.0501 14.796 42.2801 15.258 41.6641 15.258C40.8521 15.258 40.4601 14.684 40.4601 13.83V8.93H39.3121V14.32C39.3121 15.524 39.9841 16.14 41.2161 16.14C41.9581 16.14 42.6301 15.79 43.0081 15.146H43.0501V16H44.2681C44.2261 15.51 44.1981 15.02 44.1981 14.53V8.93H43.0501V13.62ZM51.4081 12.178C51.4081 13.606 51.4081 15.202 50.1201 15.202C48.6781 15.202 48.6781 13.662 48.6781 12.598C48.6781 10.708 48.8461 9.728 50.0781 9.728C51.3521 9.728 51.4081 11.24 51.4081 12.178ZM51.4081 9.644H51.3661C50.9741 9.084 50.4841 8.79 49.8121 8.79C47.5301 8.79 47.4741 10.82 47.4741 12.584C47.4741 15.692 48.6221 16.14 49.7561 16.14C50.4981 16.14 50.9881 15.818 51.3801 15.16H51.4081V16H52.5561V5.892H51.4081V9.644ZM57.1901 8.93H56.0421V16H57.1901V8.93ZM55.9721 7.124H57.2601V5.892H55.9721V7.124ZM63.0656 15.202C61.8756 15.202 61.5816 14.376 61.5816 12.08C61.5816 10.148 62.1836 9.728 63.0656 9.728C63.9476 9.728 64.5496 10.148 64.5496 12.08C64.5496 14.376 64.2556 15.202 63.0656 15.202ZM63.0656 16.14C64.5636 16.14 65.7536 15.692 65.7536 12.57C65.7536 10.498 65.5156 8.79 63.0656 8.79C60.6156 8.79 60.3776 10.498 60.3776 12.57C60.3776 15.692 61.5676 16.14 63.0656 16.14ZM78.0971 16V11.24C78.0971 10.974 78.1531 10.274 78.4891 9.994C78.7971 9.742 78.9231 9.728 79.3571 9.728C80.2811 9.728 80.4771 10.386 80.4771 11.1V16H81.6251V10.624C81.6251 8.958 80.4351 8.79 79.6931 8.79C79.0491 8.79 78.4051 8.944 78.0131 9.7C77.7471 9.056 77.0051 8.79 76.3611 8.79C75.5351 8.79 74.9331 9.056 74.5971 9.812H74.5691V8.93H73.3511C73.3931 9.42 73.4211 9.91 73.4211 10.4V16H74.5691V11.24C74.5691 10.974 74.6251 10.554 74.8351 10.204C75.0031 9.938 75.4791 9.728 75.8291 9.728C76.7531 9.728 76.9491 10.386 76.9491 11.1V16H78.0971ZM86.1007 8.93H84.9527V16H86.1007V8.93ZM84.8827 7.124H86.1707V5.892H84.8827V7.124ZM92.2562 12.304L94.3702 8.93H92.9842L91.5562 11.464L90.2122 8.93H88.7422L90.7582 12.304L88.5602 16H89.9182L91.4442 13.102L93.0822 16H94.5942L92.2562 12.304ZM100.572 8.93V9.798H101.734V14.824C101.734 15.636 102.224 16.084 103.316 16.084C103.694 16.084 104.072 16 104.45 15.972V15.09C104.198 15.118 104.016 15.146 103.932 15.146C102.882 15.146 102.882 14.572 102.882 14.124V9.798H104.422V8.93H102.882V7.054L101.734 7.572V8.93H100.572ZM111.889 16V10.988C111.889 9.392 111.217 8.79 110.013 8.79C109.089 8.79 108.557 9.014 108.095 9.84H108.039V5.892H106.891V16H108.039V11.842C108.039 10.652 108.333 9.728 109.481 9.728C110.461 9.728 110.741 10.344 110.741 11.212V16H111.889ZM116.425 11.968C116.439 10.008 117.041 9.658 117.769 9.658C118.609 9.658 119.183 9.91 119.183 11.968H116.425ZM120.401 12.836V12.234C120.401 9.896 119.897 8.79 117.881 8.79C115.431 8.79 115.193 10.498 115.193 12.57C115.193 15.692 116.383 16.14 117.881 16.14C119.365 16.14 120.331 15.426 120.345 13.858H119.085C119.043 14.572 118.637 15.202 117.853 15.202C116.957 15.202 116.425 14.81 116.425 12.836H120.401ZM128.292 12.304C128.292 15.104 129.328 16.21 131.47 16.21C133.612 16.21 134.648 15.104 134.648 12.304V5.892H133.36V12.36C133.36 14.572 132.688 15.132 131.47 15.132C130.252 15.132 129.58 14.572 129.58 12.36V5.892H128.292V12.304ZM138.013 12.99C137.985 13.956 137.985 16.238 140.967 16.21C142.633 16.21 144.103 15.524 144.103 13.396C144.103 10.19 139.567 10.512 139.567 8.286C139.567 7.194 140.351 6.802 141.121 6.802C142.339 6.802 142.689 7.53 142.675 8.636H144.019C144.103 6.578 143.067 5.682 141.219 5.682C139.525 5.682 138.251 6.634 138.251 8.426C138.251 11.464 142.787 11.212 142.787 13.452C142.787 14.656 142.003 15.09 140.981 15.09C140.155 15.09 139.287 14.656 139.287 13.284V12.99H138.013ZM156.47 16V11.24C156.47 10.974 156.526 10.274 156.862 9.994C157.17 9.742 157.296 9.728 157.73 9.728C158.654 9.728 158.85 10.386 158.85 11.1V16H159.998V10.624C159.998 8.958 158.808 8.79 158.066 8.79C157.422 8.79 156.778 8.944 156.386 9.7C156.12 9.056 155.378 8.79 154.734 8.79C153.908 8.79 153.306 9.056 152.97 9.812H152.942V8.93H151.724C151.766 9.42 151.794 9.91 151.794 10.4V16H152.942V11.24C152.942 10.974 152.998 10.554 153.208 10.204C153.376 9.938 153.852 9.728 154.202 9.728C155.126 9.728 155.322 10.386 155.322 11.1V16H156.47ZM164.473 8.93H163.325V16H164.473V8.93ZM163.255 7.124H164.543V5.892H163.255V7.124ZM168.977 5.892H167.829V16H168.977V5.892ZM173.48 8.93H172.332V16H173.48V8.93ZM172.262 7.124H173.55V5.892H172.262V7.124ZM175.828 8.93V9.798H176.99V14.824C176.99 15.636 177.48 16.084 178.572 16.084C178.95 16.084 179.328 16 179.706 15.972V15.09C179.454 15.118 179.272 15.146 179.188 15.146C178.138 15.146 178.138 14.572 178.138 14.124V9.798H179.678V8.93H178.138V7.054L176.99 7.572V8.93H175.828ZM185.772 12.486C185.884 14.768 185.016 15.202 184.316 15.202C183.546 15.202 183.21 14.586 183.21 13.9C183.21 12.402 184.68 12.5 185.772 12.486ZM185.8 16H187.06C186.976 15.454 186.92 14.88 186.92 14.32V10.918C186.92 9.728 186.444 8.79 184.624 8.79C183.126 8.79 182.286 9.336 182.23 10.918H183.476C183.406 10.176 183.812 9.658 184.582 9.658C185.814 9.658 185.8 10.68 185.772 11.618C184.162 11.576 182.062 11.674 182.062 13.816C182.062 15.174 182.496 16.14 183.994 16.14C184.876 16.14 185.422 15.79 185.772 14.978H185.8V16ZM191.75 8.93H190.602V16H191.75V11.828C191.75 10.876 192.072 9.91 193.346 9.91C193.458 9.91 193.556 9.924 193.654 9.938C193.752 9.952 193.864 9.966 193.962 9.98V8.79C192.842 8.79 192.254 8.916 191.778 9.994H191.75V8.93ZM197.056 8.93H195.726L198.12 16L197.322 18.674H198.512L201.718 8.93H200.472L198.778 14.684H198.75L197.056 8.93ZM212.527 13.62C212.527 14.796 211.757 15.258 211.141 15.258C210.329 15.258 209.937 14.684 209.937 13.83V8.93H208.789V14.32C208.789 15.524 209.461 16.14 210.693 16.14C211.435 16.14 212.107 15.79 212.485 15.146H212.527V16H213.745C213.703 15.51 213.675 15.02 213.675 14.53V8.93H212.527V13.62ZM221.697 13.984C221.697 11.828 218.169 11.856 218.169 10.61C218.169 9.994 218.645 9.658 219.261 9.658C219.989 9.658 220.381 10.05 220.367 10.792H221.641C221.739 9.392 220.661 8.79 219.401 8.79C217.413 8.79 216.965 9.98 216.965 10.722C216.965 12.836 220.493 12.864 220.493 14.124C220.493 14.852 219.961 15.202 219.275 15.202C218.113 15.202 218.099 14.25 218.099 13.844H216.797C216.755 15.468 217.707 16.14 219.233 16.14C220.633 16.14 221.697 15.538 221.697 13.984ZM225.887 11.968C225.901 10.008 226.503 9.658 227.231 9.658C228.071 9.658 228.645 9.91 228.645 11.968H225.887ZM229.863 12.836V12.234C229.863 9.896 229.359 8.79 227.343 8.79C224.893 8.79 224.655 10.498 224.655 12.57C224.655 15.692 225.845 16.14 227.343 16.14C228.827 16.14 229.793 15.426 229.807 13.858H228.547C228.505 14.572 228.099 15.202 227.315 15.202C226.419 15.202 225.887 14.81 225.887 12.836H229.863ZM236.905 12.178C236.905 13.606 236.905 15.202 235.617 15.202C234.175 15.202 234.175 13.662 234.175 12.598C234.175 10.708 234.343 9.728 235.575 9.728C236.849 9.728 236.905 11.24 236.905 12.178ZM236.905 9.644H236.863C236.471 9.084 235.981 8.79 235.309 8.79C233.027 8.79 232.971 10.82 232.971 12.584C232.971 15.692 234.119 16.14 235.253 16.14C235.995 16.14 236.485 15.818 236.877 15.16H236.905V16H238.053V5.892H236.905V9.644ZM245.189 8.93V9.798H246.281V16H247.429V9.798H248.857V8.93H247.429V7.726C247.429 7.152 247.639 6.634 248.857 6.718V5.892C248.689 5.864 248.549 5.85 248.311 5.85C247.289 5.85 246.281 6.13 246.281 7.558V8.93H245.189ZM253.859 15.202C252.669 15.202 252.375 14.376 252.375 12.08C252.375 10.148 252.977 9.728 253.859 9.728C254.741 9.728 255.343 10.148 255.343 12.08C255.343 14.376 255.049 15.202 253.859 15.202ZM253.859 16.14C255.357 16.14 256.547 15.692 256.547 12.57C256.547 10.498 256.309 8.79 253.859 8.79C251.409 8.79 251.171 10.498 251.171 12.57C251.171 15.692 252.361 16.14 253.859 16.14ZM260.957 8.93H259.809V16H260.957V11.828C260.957 10.876 261.279 9.91 262.553 9.91C262.665 9.91 262.763 9.924 262.861 9.938C262.959 9.952 263.071 9.966 263.169 9.98V8.79C262.049 8.79 261.461 8.916 260.985 9.994H260.957V8.93ZM272.909 15.202C271.635 15.202 271.579 13.704 271.579 12.766C271.579 11.688 271.453 9.728 272.867 9.728C274.309 9.728 274.309 11.282 274.309 12.346C274.309 14.236 274.141 15.202 272.909 15.202ZM271.579 8.93H270.431V18.674H271.579V15.286H271.621C272.013 15.846 272.503 16.14 273.175 16.14C275.457 16.14 275.513 14.11 275.513 12.346C275.513 9.238 274.365 8.79 273.231 8.79C272.489 8.79 271.999 9.112 271.607 9.77H271.579V8.93ZM283.283 13.984C283.283 11.828 279.755 11.856 279.755 10.61C279.755 9.994 280.231 9.658 280.847 9.658C281.575 9.658 281.967 10.05 281.953 10.792H283.227C283.325 9.392 282.247 8.79 280.987 8.79C278.999 8.79 278.551 9.98 278.551 10.722C278.551 12.836 282.079 12.864 282.079 14.124C282.079 14.852 281.547 15.202 280.861 15.202C279.699 15.202 279.685 14.25 279.685 13.844H278.383C278.341 15.468 279.293 16.14 280.819 16.14C282.219 16.14 283.283 15.538 283.283 13.984ZM286.788 8.93H285.458L287.852 16L287.054 18.674H288.244L291.45 8.93H290.204L288.51 14.684H288.482L286.788 8.93ZM298.86 11.198C298.93 9.616 298.104 8.79 296.69 8.79C294.24 8.79 294.002 10.498 294.002 12.57C294.002 15.692 295.192 16.14 296.69 16.14C297.474 16.14 298.958 15.636 298.916 13.648H297.712C297.754 14.922 296.956 15.202 296.69 15.202C295.5 15.202 295.206 14.376 295.206 12.08C295.206 10.148 295.808 9.728 296.69 9.728C297.124 9.728 297.698 10.036 297.67 11.198H298.86ZM307.358 16V10.988C307.358 9.392 306.686 8.79 305.482 8.79C304.558 8.79 304.026 9.014 303.564 9.84H303.508V5.892H302.36V16H303.508V11.842C303.508 10.652 303.802 9.728 304.95 9.728C305.93 9.728 306.21 10.344 306.21 11.212V16H307.358ZM313.266 15.202C312.076 15.202 311.782 14.376 311.782 12.08C311.782 10.148 312.384 9.728 313.266 9.728C314.148 9.728 314.75 10.148 314.75 12.08C314.75 14.376 314.456 15.202 313.266 15.202ZM313.266 16.14C314.764 16.14 315.954 15.692 315.954 12.57C315.954 10.498 315.716 8.79 313.266 8.79C310.816 8.79 310.578 10.498 310.578 12.57C310.578 15.692 311.768 16.14 313.266 16.14ZM320.294 5.892H319.146V16H320.294V5.892ZM326.17 15.202C324.98 15.202 324.686 14.376 324.686 12.08C324.686 10.148 325.288 9.728 326.17 9.728C327.052 9.728 327.654 10.148 327.654 12.08C327.654 14.376 327.36 15.202 326.17 15.202ZM326.17 16.14C327.668 16.14 328.858 15.692 328.858 12.57C328.858 10.498 328.62 8.79 326.17 8.79C323.72 8.79 323.482 10.498 323.482 12.57C323.482 15.692 324.672 16.14 326.17 16.14ZM335.844 12.43C335.844 13.41 335.886 15.048 334.5 15.048C333.646 15.048 333.128 14.516 333.128 12.248C333.128 11.31 333.17 9.742 334.472 9.742C335.914 9.742 335.844 11.38 335.844 12.43ZM335.816 9.798H335.788C335.466 9.112 334.878 8.79 334.136 8.79C333.562 8.79 331.924 9 331.924 12.248C331.924 14.348 332.302 16 334.22 16C334.836 16 335.48 15.678 335.774 15.118H335.816V16.588C335.816 17.316 335.382 17.806 334.584 17.806C333.954 17.806 333.52 17.442 333.506 16.784H332.218C332.12 18.086 333.184 18.674 334.36 18.674C335.914 18.674 336.964 18.296 336.964 16.714V8.93H335.816V9.798ZM341.598 8.93H340.45V16H341.598V8.93ZM340.38 7.124H341.668V5.892H340.38V7.124ZM349.867 11.198C349.937 9.616 349.111 8.79 347.697 8.79C345.247 8.79 345.009 10.498 345.009 12.57C345.009 15.692 346.199 16.14 347.697 16.14C348.481 16.14 349.965 15.636 349.923 13.648H348.719C348.761 14.922 347.963 15.202 347.697 15.202C346.507 15.202 346.213 14.376 346.213 12.08C346.213 10.148 346.815 9.728 347.697 9.728C348.131 9.728 348.705 10.036 348.677 11.198H349.867ZM356.993 12.486C357.105 14.768 356.237 15.202 355.537 15.202C354.767 15.202 354.431 14.586 354.431 13.9C354.431 12.402 355.901 12.5 356.993 12.486ZM357.021 16H358.281C358.197 15.454 358.141 14.88 358.141 14.32V10.918C358.141 9.728 357.665 8.79 355.845 8.79C354.347 8.79 353.507 9.336 353.451 10.918H354.697C354.627 10.176 355.033 9.658 355.803 9.658C357.035 9.658 357.021 10.68 356.993 11.618C355.383 11.576 353.283 11.674 353.283 13.816C353.283 15.174 353.717 16.14 355.215 16.14C356.097 16.14 356.643 15.79 356.993 14.978H357.021V16ZM362.901 5.892H361.753V16H362.901V5.892ZM10.5 37.202C9.31 37.202 9.016 36.376 9.016 34.08C9.016 32.148 9.618 31.728 10.5 31.728C11.382 31.728 11.984 32.148 11.984 34.08C11.984 36.376 11.69 37.202 10.5 37.202ZM10.5 38.14C11.998 38.14 13.188 37.692 13.188 34.57C13.188 32.498 12.95 30.79 10.5 30.79C8.05 30.79 7.812 32.498 7.812 34.57C7.812 37.692 9.002 38.14 10.5 38.14ZM18.984 37.202C17.71 37.202 17.654 35.704 17.654 34.766C17.654 33.688 17.528 31.728 18.942 31.728C20.384 31.728 20.384 33.282 20.384 34.346C20.384 36.236 20.216 37.202 18.984 37.202ZM17.654 30.93H16.506V40.674H17.654V37.286H17.696C18.088 37.846 18.578 38.14 19.25 38.14C21.532 38.14 21.588 36.11 21.588 34.346C21.588 31.238 20.44 30.79 19.306 30.79C18.564 30.79 18.074 31.112 17.682 31.77H17.654V30.93ZM25.928 33.968C25.942 32.008 26.544 31.658 27.272 31.658C28.112 31.658 28.686 31.91 28.686 33.968H25.928ZM29.904 34.836V34.234C29.904 31.896 29.4 30.79 27.384 30.79C24.934 30.79 24.696 32.498 24.696 34.57C24.696 37.692 25.886 38.14 27.384 38.14C28.868 38.14 29.834 37.426 29.848 35.858H28.588C28.546 36.572 28.14 37.202 27.356 37.202C26.46 37.202 25.928 36.81 25.928 34.836H29.904ZM34.398 30.93H33.25V38H34.398V33.828C34.398 32.876 34.72 31.91 35.994 31.91C36.106 31.91 36.204 31.924 36.302 31.938C36.4 31.952 36.512 31.966 36.61 31.98V30.79C35.49 30.79 34.902 30.916 34.426 31.994H34.398V30.93ZM42.8821 34.486C42.9941 36.768 42.1261 37.202 41.4261 37.202C40.6561 37.202 40.3201 36.586 40.3201 35.9C40.3201 34.402 41.7901 34.5 42.8821 34.486ZM42.9101 38H44.1701C44.0861 37.454 44.0301 36.88 44.0301 36.32V32.918C44.0301 31.728 43.5541 30.79 41.7341 30.79C40.2361 30.79 39.3961 31.336 39.3401 32.918H40.5861C40.5161 32.176 40.9221 31.658 41.6921 31.658C42.9241 31.658 42.9101 32.68 42.8821 33.618C41.2721 33.576 39.1721 33.674 39.1721 35.816C39.1721 37.174 39.6061 38.14 41.1041 38.14C41.9861 38.14 42.5321 37.79 42.8821 36.978H42.9101V38ZM46.6341 30.93V31.798H47.7961V36.824C47.7961 37.636 48.2861 38.084 49.3781 38.084C49.7561 38.084 50.1341 38 50.5121 37.972V37.09C50.2601 37.118 50.0781 37.146 49.9941 37.146C48.9441 37.146 48.9441 36.572 48.9441 36.124V31.798H50.4841V30.93H48.9441V29.054L47.7961 29.572V30.93H46.6341ZM54.0866 30.93H52.9386V38H54.0866V30.93ZM52.8686 29.124H54.1566V27.892H52.8686V29.124ZM59.9621 37.202C58.7721 37.202 58.4781 36.376 58.4781 34.08C58.4781 32.148 59.0801 31.728 59.9621 31.728C60.8441 31.728 61.4461 32.148 61.4461 34.08C61.4461 36.376 61.1521 37.202 59.9621 37.202ZM59.9621 38.14C61.4601 38.14 62.6501 37.692 62.6501 34.57C62.6501 32.498 62.4121 30.79 59.9621 30.79C57.5121 30.79 57.2741 32.498 57.2741 34.57C57.2741 37.692 58.4641 38.14 59.9621 38.14ZM70.8541 38V33.1C70.8541 31.7 70.4761 30.79 68.9641 30.79C68.0541 30.79 67.5221 31.042 67.0741 31.84H67.0181V30.93H65.8001C65.8421 31.42 65.8701 31.91 65.8701 32.4V38H67.0181V33.814C67.0181 32.848 67.2001 31.728 68.4601 31.728C69.4401 31.728 69.7061 32.344 69.7061 33.1V38H70.8541ZM78.8201 35.984C78.8201 33.828 75.2921 33.856 75.2921 32.61C75.2921 31.994 75.7681 31.658 76.3841 31.658C77.1121 31.658 77.5041 32.05 77.4901 32.792H78.7641C78.8621 31.392 77.7841 30.79 76.5241 30.79C74.5361 30.79 74.0881 31.98 74.0881 32.722C74.0881 34.836 77.6161 34.864 77.6161 36.124C77.6161 36.852 77.0841 37.202 76.3981 37.202C75.2361 37.202 75.2221 36.25 75.2221 35.844H73.9201C73.8781 37.468 74.8301 38.14 76.3561 38.14C77.7561 38.14 78.8201 37.538 78.8201 35.984ZM87.5143 30.93H86.3663V38H87.5143V30.93ZM86.2963 29.124H87.5843V27.892H86.2963V29.124ZM95.8818 38V33.1C95.8818 31.7 95.5038 30.79 93.9918 30.79C93.0818 30.79 92.5498 31.042 92.1018 31.84H92.0458V30.93H90.8278C90.8698 31.42 90.8978 31.91 90.8978 32.4V38H92.0458V33.814C92.0458 32.848 92.2278 31.728 93.4878 31.728C94.4678 31.728 94.7338 32.344 94.7338 33.1V38H95.8818ZM102.765 30.93V31.798H103.927V36.824C103.927 37.636 104.417 38.084 105.509 38.084C105.887 38.084 106.265 38 106.643 37.972V37.09C106.391 37.118 106.209 37.146 106.125 37.146C105.075 37.146 105.075 36.572 105.075 36.124V31.798H106.615V30.93H105.075V29.054L103.927 29.572V30.93H102.765ZM114.082 38V32.988C114.082 31.392 113.41 30.79 112.206 30.79C111.282 30.79 110.75 31.014 110.288 31.84H110.232V27.892H109.084V38H110.232V33.842C110.232 32.652 110.526 31.728 111.674 31.728C112.654 31.728 112.934 32.344 112.934 33.212V38H114.082ZM118.618 33.968C118.632 32.008 119.234 31.658 119.962 31.658C120.802 31.658 121.376 31.91 121.376 33.968H118.618ZM122.594 34.836V34.234C122.594 31.896 122.09 30.79 120.074 30.79C117.624 30.79 117.386 32.498 117.386 34.57C117.386 37.692 118.576 38.14 120.074 38.14C121.558 38.14 122.524 37.426 122.538 35.858H121.278C121.236 36.572 120.83 37.202 120.046 37.202C119.15 37.202 118.618 36.81 118.618 34.836H122.594ZM136.995 27.892H135.679L133.313 36.782H133.285L130.975 27.892H129.575L132.501 38H134.041L136.995 27.892ZM140.701 30.93H139.553V38H140.701V30.93ZM139.483 29.124H140.771V27.892H139.483V29.124ZM145.204 33.968C145.218 32.008 145.82 31.658 146.548 31.658C147.388 31.658 147.962 31.91 147.962 33.968H145.204ZM149.18 34.836V34.234C149.18 31.896 148.676 30.79 146.66 30.79C144.21 30.79 143.972 32.498 143.972 34.57C143.972 37.692 145.162 38.14 146.66 38.14C148.144 38.14 149.11 37.426 149.124 35.858H147.864C147.822 36.572 147.416 37.202 146.632 37.202C145.736 37.202 145.204 36.81 145.204 34.836H149.18ZM151.448 30.93V31.798H152.61V36.824C152.61 37.636 153.1 38.084 154.192 38.084C154.57 38.084 154.948 38 155.326 37.972V37.09C155.074 37.118 154.892 37.146 154.808 37.146C153.758 37.146 153.758 36.572 153.758 36.124V31.798H155.298V30.93H153.758V29.054L152.61 29.572V30.93H151.448ZM162.765 38V33.1C162.765 31.7 162.387 30.79 160.875 30.79C159.965 30.79 159.433 31.042 158.985 31.84H158.929V30.93H157.711C157.753 31.42 157.781 31.91 157.781 32.4V38H158.929V33.814C158.929 32.848 159.111 31.728 160.371 31.728C161.351 31.728 161.617 32.344 161.617 33.1V38H162.765ZM169.793 34.486C169.905 36.768 169.037 37.202 168.337 37.202C167.567 37.202 167.231 36.586 167.231 35.9C167.231 34.402 168.701 34.5 169.793 34.486ZM169.821 38H171.081C170.997 37.454 170.941 36.88 170.941 36.32V32.918C170.941 31.728 170.465 30.79 168.645 30.79C167.147 30.79 166.307 31.336 166.251 32.918H167.497C167.427 32.176 167.833 31.658 168.603 31.658C169.835 31.658 169.821 32.68 169.793 33.618C168.183 33.576 166.083 33.674 166.083 35.816C166.083 37.174 166.517 38.14 168.015 38.14C168.897 38.14 169.443 37.79 169.793 36.978H169.821V38ZM179.201 38V33.24C179.201 32.974 179.257 32.274 179.593 31.994C179.901 31.742 180.027 31.728 180.461 31.728C181.385 31.728 181.581 32.386 181.581 33.1V38H182.729V32.624C182.729 30.958 181.539 30.79 180.797 30.79C180.153 30.79 179.509 30.944 179.117 31.7C178.851 31.056 178.109 30.79 177.465 30.79C176.639 30.79 176.037 31.056 175.701 31.812H175.673V30.93H174.455C174.497 31.42 174.525 31.91 174.525 32.4V38H175.673V33.24C175.673 32.974 175.729 32.554 175.939 32.204C176.107 31.938 176.583 31.728 176.933 31.728C177.857 31.728 178.053 32.386 178.053 33.1V38H179.201ZM192.128 38H193.696L195.74 29.236H195.768L197.686 38H199.254L201.928 27.892H200.584L198.526 36.656H198.498L196.664 27.892H194.998L192.968 36.656H192.94L191.036 27.892H189.664L192.128 38ZM207.617 34.486C207.729 36.768 206.861 37.202 206.161 37.202C205.391 37.202 205.055 36.586 205.055 35.9C205.055 34.402 206.525 34.5 207.617 34.486ZM207.645 38H208.905C208.821 37.454 208.765 36.88 208.765 36.32V32.918C208.765 31.728 208.289 30.79 206.469 30.79C204.971 30.79 204.131 31.336 204.075 32.918H205.321C205.251 32.176 205.657 31.658 206.427 31.658C207.659 31.658 207.645 32.68 207.617 33.618C206.007 33.576 203.907 33.674 203.907 35.816C203.907 37.174 204.341 38.14 205.839 38.14C206.721 38.14 207.267 37.79 207.617 36.978H207.645V38ZM213.595 30.93H212.447V38H213.595V33.828C213.595 32.876 213.917 31.91 215.191 31.91C215.303 31.91 215.401 31.924 215.499 31.938C215.597 31.952 215.709 31.966 215.807 31.98V30.79C214.687 30.79 214.099 30.916 213.623 31.994H213.595V30.93ZM218.687 36.544H217.371V38H218.687V36.544ZM228.072 27.892H226.784V38H228.072V27.892ZM230.751 30.93V31.798H231.913V36.824C231.913 37.636 232.403 38.084 233.495 38.084C233.873 38.084 234.251 38 234.629 37.972V37.09C234.377 37.118 234.195 37.146 234.111 37.146C233.061 37.146 233.061 36.572 233.061 36.124V31.798H234.601V30.93H233.061V29.054L231.913 29.572V30.93H230.751ZM244.163 37.202C242.889 37.202 242.833 35.704 242.833 34.766C242.833 33.688 242.707 31.728 244.121 31.728C245.563 31.728 245.563 33.282 245.563 34.346C245.563 36.236 245.395 37.202 244.163 37.202ZM242.833 30.93H241.685V40.674H242.833V37.286H242.875C243.267 37.846 243.757 38.14 244.429 38.14C246.711 38.14 246.767 36.11 246.767 34.346C246.767 31.238 245.619 30.79 244.485 30.79C243.743 30.79 243.253 31.112 242.861 31.77H242.833V30.93ZM251.107 27.892H249.959V38H251.107V27.892ZM258.102 34.486C258.214 36.768 257.346 37.202 256.646 37.202C255.876 37.202 255.54 36.586 255.54 35.9C255.54 34.402 257.01 34.5 258.102 34.486ZM258.13 38H259.39C259.306 37.454 259.25 36.88 259.25 36.32V32.918C259.25 31.728 258.774 30.79 256.954 30.79C255.456 30.79 254.616 31.336 254.56 32.918H255.806C255.736 32.176 256.142 31.658 256.912 31.658C258.144 31.658 258.13 32.68 258.102 33.618C256.492 33.576 254.392 33.674 254.392 35.816C254.392 37.174 254.826 38.14 256.324 38.14C257.206 38.14 257.752 37.79 258.102 36.978H258.13V38ZM263.324 30.93H261.994L264.388 38L263.59 40.674H264.78L267.986 30.93H266.74L265.046 36.684H265.018L263.324 30.93ZM271.631 33.968C271.645 32.008 272.247 31.658 272.975 31.658C273.815 31.658 274.389 31.91 274.389 33.968H271.631ZM275.607 34.836V34.234C275.607 31.896 275.103 30.79 273.087 30.79C270.637 30.79 270.399 32.498 270.399 34.57C270.399 37.692 271.589 38.14 273.087 38.14C274.571 38.14 275.537 37.426 275.551 35.858H274.291C274.249 36.572 273.843 37.202 273.059 37.202C272.163 37.202 271.631 36.81 271.631 34.836H275.607ZM282.649 34.178C282.649 35.606 282.649 37.202 281.361 37.202C279.919 37.202 279.919 35.662 279.919 34.598C279.919 32.708 280.087 31.728 281.319 31.728C282.593 31.728 282.649 33.24 282.649 34.178ZM282.649 31.644H282.607C282.215 31.084 281.725 30.79 281.053 30.79C278.771 30.79 278.715 32.82 278.715 34.584C278.715 37.692 279.863 38.14 280.997 38.14C281.739 38.14 282.229 37.818 282.621 37.16H282.649V38H283.797V27.892H282.649V31.644ZM295.552 34.178C295.552 35.606 295.552 37.202 294.264 37.202C292.822 37.202 292.822 35.662 292.822 34.598C292.822 32.708 292.99 31.728 294.222 31.728C295.496 31.728 295.552 33.24 295.552 34.178ZM295.552 31.644H295.51C295.118 31.084 294.628 30.79 293.956 30.79C291.674 30.79 291.618 32.82 291.618 34.584C291.618 37.692 292.766 38.14 293.9 38.14C294.642 38.14 295.132 37.818 295.524 37.16H295.552V38H296.7V27.892H295.552V31.644ZM301.334 33.968C301.348 32.008 301.95 31.658 302.678 31.658C303.518 31.658 304.092 31.91 304.092 33.968H301.334ZM305.31 34.836V34.234C305.31 31.896 304.806 30.79 302.79 30.79C300.34 30.79 300.102 32.498 300.102 34.57C300.102 37.692 301.292 38.14 302.79 38.14C304.274 38.14 305.24 37.426 305.254 35.858H303.994C303.952 36.572 303.546 37.202 302.762 37.202C301.866 37.202 301.334 36.81 301.334 34.836H305.31ZM309.734 33.968C309.748 32.008 310.35 31.658 311.078 31.658C311.918 31.658 312.492 31.91 312.492 33.968H309.734ZM313.71 34.836V34.234C313.71 31.896 313.206 30.79 311.19 30.79C308.74 30.79 308.502 32.498 308.502 34.57C308.502 37.692 309.692 38.14 311.19 38.14C312.674 38.14 313.64 37.426 313.654 35.858H312.394C312.352 36.572 311.946 37.202 311.162 37.202C310.266 37.202 309.734 36.81 309.734 34.836H313.71ZM319.59 37.202C318.316 37.202 318.26 35.704 318.26 34.766C318.26 33.688 318.134 31.728 319.548 31.728C320.99 31.728 320.99 33.282 320.99 34.346C320.99 36.236 320.822 37.202 319.59 37.202ZM318.26 30.93H317.112V40.674H318.26V37.286H318.302C318.694 37.846 319.184 38.14 319.856 38.14C322.138 38.14 322.194 36.11 322.194 34.346C322.194 31.238 321.046 30.79 319.912 30.79C319.17 30.79 318.68 31.112 318.288 31.77H318.26V30.93ZM326.534 27.892H325.386V38H326.534V27.892ZM330.352 30.93H329.022L331.416 38L330.618 40.674H331.808L335.014 30.93H333.768L332.074 36.684H332.046L330.352 30.93ZM344.534 37.202C343.344 37.202 343.05 36.376 343.05 34.08C343.05 32.148 343.652 31.728 344.534 31.728C345.416 31.728 346.018 32.148 346.018 34.08C346.018 36.376 345.724 37.202 344.534 37.202ZM344.534 38.14C346.032 38.14 347.222 37.692 347.222 34.57C347.222 32.498 346.984 30.79 344.534 30.79C342.084 30.79 341.846 32.498 341.846 34.57C341.846 37.692 343.036 38.14 344.534 38.14ZM355.426 38V33.1C355.426 31.7 355.048 30.79 353.536 30.79C352.626 30.79 352.094 31.042 351.646 31.84H351.59V30.93H350.372C350.414 31.42 350.442 31.91 350.442 32.4V38H351.59V33.814C351.59 32.848 351.772 31.728 353.032 31.728C354.012 31.728 354.278 32.344 354.278 33.1V38H355.426ZM362.309 30.93V31.798H363.471V36.824C363.471 37.636 363.961 38.084 365.053 38.084C365.431 38.084 365.809 38 366.187 37.972V37.09C365.935 37.118 365.753 37.146 365.669 37.146C364.619 37.146 364.619 36.572 364.619 36.124V31.798H366.159V30.93H364.619V29.054L363.471 29.572V30.93H362.309ZM373.626 38V32.988C373.626 31.392 372.954 30.79 371.75 30.79C370.826 30.79 370.294 31.014 369.832 31.84H369.776V27.892H368.628V38H369.776V33.842C369.776 32.652 370.07 31.728 371.218 31.728C372.198 31.728 372.478 32.344 372.478 33.212V38H373.626ZM378.162 33.968C378.176 32.008 378.778 31.658 379.506 31.658C380.346 31.658 380.92 31.91 380.92 33.968H378.162ZM382.138 34.836V34.234C382.138 31.896 381.634 30.79 379.618 30.79C377.168 30.79 376.93 32.498 376.93 34.57C376.93 37.692 378.12 38.14 379.618 38.14C381.102 38.14 382.068 37.426 382.082 35.858H380.822C380.78 36.572 380.374 37.202 379.59 37.202C378.694 37.202 378.162 36.81 378.162 34.836H382.138ZM14.602 49.892H13.286L10.92 58.782H10.892L8.582 49.892H7.182L10.108 60H11.648L14.602 49.892ZM18.3073 52.93H17.1593V60H18.3073V52.93ZM17.0893 51.124H18.3773V49.892H17.0893V51.124ZM22.8108 55.968C22.8248 54.008 23.4268 53.658 24.1548 53.658C24.9948 53.658 25.5688 53.91 25.5688 55.968H22.8108ZM26.7868 56.836V56.234C26.7868 53.896 26.2828 52.79 24.2668 52.79C21.8168 52.79 21.5788 54.498 21.5788 56.57C21.5788 59.692 22.7688 60.14 24.2668 60.14C25.7508 60.14 26.7168 59.426 26.7308 57.858H25.4708C25.4288 58.572 25.0228 59.202 24.2388 59.202C23.3428 59.202 22.8108 58.81 22.8108 56.836H26.7868ZM29.0548 52.93V53.798H30.2168V58.824C30.2168 59.636 30.7068 60.084 31.7988 60.084C32.1768 60.084 32.5548 60 32.9328 59.972V59.09C32.6808 59.118 32.4988 59.146 32.4148 59.146C31.3648 59.146 31.3648 58.572 31.3648 58.124V53.798H32.9048V52.93H31.3648V51.054L30.2168 51.572V52.93H29.0548ZM40.3713 60V55.1C40.3713 53.7 39.9933 52.79 38.4813 52.79C37.5713 52.79 37.0393 53.042 36.5913 53.84H36.5353V52.93H35.3173C35.3593 53.42 35.3873 53.91 35.3873 54.4V60H36.5353V55.814C36.5353 54.848 36.7173 53.728 37.9773 53.728C38.9573 53.728 39.2233 54.344 39.2233 55.1V60H40.3713ZM47.3993 56.486C47.5113 58.768 46.6433 59.202 45.9433 59.202C45.1733 59.202 44.8373 58.586 44.8373 57.9C44.8373 56.402 46.3073 56.5 47.3993 56.486ZM47.4273 60H48.6873C48.6033 59.454 48.5473 58.88 48.5473 58.32V54.918C48.5473 53.728 48.0713 52.79 46.2513 52.79C44.7533 52.79 43.9133 53.336 43.8573 54.918H45.1033C45.0333 54.176 45.4393 53.658 46.2093 53.658C47.4413 53.658 47.4273 54.68 47.3993 55.618C45.7893 55.576 43.6893 55.674 43.6893 57.816C43.6893 59.174 44.1233 60.14 45.6213 60.14C46.5033 60.14 47.0493 59.79 47.3993 58.978H47.4273V60ZM56.8073 60V55.24C56.8073 54.974 56.8633 54.274 57.1993 53.994C57.5073 53.742 57.6333 53.728 58.0673 53.728C58.9913 53.728 59.1873 54.386 59.1873 55.1V60H60.3353V54.624C60.3353 52.958 59.1453 52.79 58.4033 52.79C57.7593 52.79 57.1153 52.944 56.7233 53.7C56.4573 53.056 55.7153 52.79 55.0713 52.79C54.2453 52.79 53.6433 53.056 53.3073 53.812H53.2793V52.93H52.0613C52.1033 53.42 52.1313 53.91 52.1313 54.4V60H53.2793V55.24C53.2793 54.974 53.3353 54.554 53.5453 54.204C53.7133 53.938 54.1893 53.728 54.5393 53.728C55.4633 53.728 55.6593 54.386 55.6593 55.1V60H56.8073ZM64.8108 55.968C64.8248 54.008 65.4268 53.658 66.1548 53.658C66.9948 53.658 67.5688 53.91 67.5688 55.968H64.8108ZM68.7868 56.836V56.234C68.7868 53.896 68.2828 52.79 66.2668 52.79C63.8168 52.79 63.5788 54.498 63.5788 56.57C63.5788 59.692 64.7688 60.14 66.2668 60.14C67.7508 60.14 68.7168 59.426 68.7308 57.858H67.4708C67.4288 58.572 67.0228 59.202 66.2388 59.202C65.3428 59.202 64.8108 58.81 64.8108 56.836H68.7868ZM76.6408 57.984C76.6408 55.828 73.1128 55.856 73.1128 54.61C73.1128 53.994 73.5888 53.658 74.2048 53.658C74.9328 53.658 75.3248 54.05 75.3108 54.792H76.5848C76.6828 53.392 75.6048 52.79 74.3448 52.79C72.3568 52.79 71.9088 53.98 71.9088 54.722C71.9088 56.836 75.4368 56.864 75.4368 58.124C75.4368 58.852 74.9048 59.202 74.2188 59.202C73.0568 59.202 73.0428 58.25 73.0428 57.844H71.7408C71.6988 59.468 72.6508 60.14 74.1768 60.14C75.5768 60.14 76.6408 59.538 76.6408 57.984ZM80.8315 55.968C80.8455 54.008 81.4475 53.658 82.1755 53.658C83.0155 53.658 83.5895 53.91 83.5895 55.968H80.8315ZM84.8075 56.836V56.234C84.8075 53.896 84.3035 52.79 82.2875 52.79C79.8375 52.79 79.5995 54.498 79.5995 56.57C79.5995 59.692 80.7895 60.14 82.2875 60.14C83.7715 60.14 84.7375 59.426 84.7515 57.858H83.4915C83.4495 58.572 83.0435 59.202 82.2595 59.202C81.3635 59.202 80.8315 58.81 80.8315 56.836H84.8075ZM93.861 56.178C93.861 55.24 93.917 53.728 95.191 53.728C96.423 53.728 96.591 54.708 96.591 56.598C96.591 57.662 96.591 59.202 95.149 59.202C93.735 59.202 93.861 57.256 93.861 56.178ZM93.861 59.16H93.889C94.281 59.818 94.771 60.14 95.513 60.14C96.647 60.14 97.795 59.692 97.795 56.584C97.795 54.82 97.739 52.79 95.457 52.79C94.785 52.79 94.295 53.084 93.903 53.644H93.861V49.892H92.713V60H93.861V59.16ZM102.135 55.968C102.149 54.008 102.751 53.658 103.479 53.658C104.319 53.658 104.893 53.91 104.893 55.968H102.135ZM106.111 56.836V56.234C106.111 53.896 105.607 52.79 103.591 52.79C101.141 52.79 100.903 54.498 100.903 56.57C100.903 59.692 102.093 60.14 103.591 60.14C105.075 60.14 106.041 59.426 106.055 57.858H104.795C104.753 58.572 104.347 59.202 103.563 59.202C102.667 59.202 102.135 58.81 102.135 56.836H106.111ZM110.535 49.892H109.387V60H110.535V49.892ZM115.039 52.93H113.891V60H115.039V52.93ZM113.821 51.124H115.109V49.892H113.821V51.124ZM119.542 55.968C119.556 54.008 120.158 53.658 120.886 53.658C121.726 53.658 122.3 53.91 122.3 55.968H119.542ZM123.518 56.836V56.234C123.518 53.896 123.014 52.79 120.998 52.79C118.548 52.79 118.31 54.498 118.31 56.57C118.31 59.692 119.5 60.14 120.998 60.14C122.482 60.14 123.448 59.426 123.462 57.858H122.202C122.16 58.572 121.754 59.202 120.97 59.202C120.074 59.202 119.542 58.81 119.542 56.836H123.518ZM125.94 52.93V53.798H127.032V60H128.18V53.798H129.608V52.93H128.18V51.726C128.18 51.152 128.39 50.634 129.608 50.718V49.892C129.44 49.864 129.3 49.85 129.062 49.85C128.04 49.85 127.032 50.13 127.032 51.558V52.93H125.94ZM139.114 59.202C137.924 59.202 137.63 58.376 137.63 56.08C137.63 54.148 138.232 53.728 139.114 53.728C139.996 53.728 140.598 54.148 140.598 56.08C140.598 58.376 140.304 59.202 139.114 59.202ZM139.114 60.14C140.612 60.14 141.802 59.692 141.802 56.57C141.802 54.498 141.564 52.79 139.114 52.79C136.664 52.79 136.426 54.498 136.426 56.57C136.426 59.692 137.616 60.14 139.114 60.14ZM144.14 52.93V53.798H145.232V60H146.38V53.798H147.808V52.93H146.38V51.726C146.38 51.152 146.59 50.634 147.808 50.718V49.892C147.64 49.864 147.5 49.85 147.262 49.85C146.24 49.85 145.232 50.13 145.232 51.558V52.93H144.14ZM158.434 56.486C158.546 58.768 157.678 59.202 156.978 59.202C156.208 59.202 155.872 58.586 155.872 57.9C155.872 56.402 157.342 56.5 158.434 56.486ZM158.462 60H159.722C159.638 59.454 159.582 58.88 159.582 58.32V54.918C159.582 53.728 159.106 52.79 157.286 52.79C155.788 52.79 154.948 53.336 154.892 54.918H156.138C156.068 54.176 156.474 53.658 157.244 53.658C158.476 53.658 158.462 54.68 158.434 55.618C156.824 55.576 154.724 55.674 154.724 57.816C154.724 59.174 155.158 60.14 156.656 60.14C157.538 60.14 158.084 59.79 158.434 58.978H158.462V60ZM168.206 60V55.1C168.206 53.7 167.828 52.79 166.316 52.79C165.406 52.79 164.874 53.042 164.426 53.84H164.37V52.93H163.152C163.194 53.42 163.222 53.91 163.222 54.4V60H164.37V55.814C164.37 54.848 164.552 53.728 165.812 53.728C166.792 53.728 167.058 54.344 167.058 55.1V60H168.206ZM176.508 55.198C176.578 53.616 175.752 52.79 174.338 52.79C171.888 52.79 171.65 54.498 171.65 56.57C171.65 59.692 172.84 60.14 174.338 60.14C175.122 60.14 176.606 59.636 176.564 57.648H175.36C175.402 58.922 174.604 59.202 174.338 59.202C173.148 59.202 172.854 58.376 172.854 56.08C172.854 54.148 173.456 53.728 174.338 53.728C174.772 53.728 175.346 54.036 175.318 55.198H176.508ZM181.142 55.968C181.156 54.008 181.758 53.658 182.486 53.658C183.326 53.658 183.9 53.91 183.9 55.968H181.142ZM185.118 56.836V56.234C185.118 53.896 184.614 52.79 182.598 52.79C180.148 52.79 179.91 54.498 179.91 56.57C179.91 59.692 181.1 60.14 182.598 60.14C184.082 60.14 185.048 59.426 185.062 57.858H183.802C183.76 58.572 183.354 59.202 182.57 59.202C181.674 59.202 181.142 58.81 181.142 56.836H185.118ZM192.972 57.984C192.972 55.828 189.444 55.856 189.444 54.61C189.444 53.994 189.92 53.658 190.536 53.658C191.264 53.658 191.656 54.05 191.642 54.792H192.916C193.014 53.392 191.936 52.79 190.676 52.79C188.688 52.79 188.24 53.98 188.24 54.722C188.24 56.836 191.768 56.864 191.768 58.124C191.768 58.852 191.236 59.202 190.55 59.202C189.388 59.202 189.374 58.25 189.374 57.844H188.072C188.03 59.468 188.982 60.14 190.508 60.14C191.908 60.14 192.972 59.538 192.972 57.984ZM195.007 52.93V53.798H196.169V58.824C196.169 59.636 196.659 60.084 197.751 60.084C198.129 60.084 198.507 60 198.885 59.972V59.09C198.633 59.118 198.451 59.146 198.367 59.146C197.317 59.146 197.317 58.572 197.317 58.124V53.798H198.857V52.93H197.317V51.054L196.169 51.572V52.93H195.007ZM203.831 59.202C202.641 59.202 202.347 58.376 202.347 56.08C202.347 54.148 202.949 53.728 203.831 53.728C204.713 53.728 205.315 54.148 205.315 56.08C205.315 58.376 205.021 59.202 203.831 59.202ZM203.831 60.14C205.329 60.14 206.519 59.692 206.519 56.57C206.519 54.498 206.281 52.79 203.831 52.79C201.381 52.79 201.143 54.498 201.143 56.57C201.143 59.692 202.333 60.14 203.831 60.14ZM210.929 52.93H209.781V60H210.929V55.828C210.929 54.876 211.251 53.91 212.525 53.91C212.637 53.91 212.735 53.924 212.833 53.938C212.931 53.952 213.043 53.966 213.141 53.98V52.79C212.021 52.79 211.433 52.916 210.957 53.994H210.929V52.93ZM221.187 60H222.727L224.309 53.98H224.337L225.849 60H227.389L229.279 52.93H228.061L226.661 59.02H226.633L225.191 52.93H223.567L221.999 59.02H221.971L220.697 52.93H219.423L221.187 60ZM234.3 59.202C233.11 59.202 232.816 58.376 232.816 56.08C232.816 54.148 233.418 53.728 234.3 53.728C235.182 53.728 235.784 54.148 235.784 56.08C235.784 58.376 235.49 59.202 234.3 59.202ZM234.3 60.14C235.798 60.14 236.988 59.692 236.988 56.57C236.988 54.498 236.75 52.79 234.3 52.79C231.85 52.79 231.612 54.498 231.612 56.57C231.612 59.692 232.802 60.14 234.3 60.14ZM241.398 52.93H240.25V60H241.398V55.828C241.398 54.876 241.72 53.91 242.994 53.91C243.106 53.91 243.204 53.924 243.302 53.938C243.4 53.952 243.512 53.966 243.61 53.98V52.79C242.49 52.79 241.902 52.916 241.426 53.994H241.398V52.93ZM250.82 57.984C250.82 55.828 247.292 55.856 247.292 54.61C247.292 53.994 247.768 53.658 248.384 53.658C249.112 53.658 249.504 54.05 249.49 54.792H250.764C250.862 53.392 249.784 52.79 248.524 52.79C246.536 52.79 246.088 53.98 246.088 54.722C246.088 56.836 249.616 56.864 249.616 58.124C249.616 58.852 249.084 59.202 248.398 59.202C247.236 59.202 247.222 58.25 247.222 57.844H245.92C245.878 59.468 246.83 60.14 248.356 60.14C249.756 60.14 250.82 59.538 250.82 57.984ZM258.875 60V54.988C258.875 53.392 258.203 52.79 256.999 52.79C256.075 52.79 255.543 53.014 255.081 53.84H255.025V49.892H253.877V60H255.025V55.842C255.025 54.652 255.319 53.728 256.467 53.728C257.447 53.728 257.727 54.344 257.727 55.212V60H258.875ZM263.411 52.93H262.263V60H263.411V52.93ZM262.193 51.124H263.481V49.892H262.193V51.124ZM269.371 59.202C268.097 59.202 268.041 57.704 268.041 56.766C268.041 55.688 267.915 53.728 269.329 53.728C270.771 53.728 270.771 55.282 270.771 56.346C270.771 58.236 270.603 59.202 269.371 59.202ZM268.041 52.93H266.893V62.674H268.041V59.286H268.083C268.475 59.846 268.965 60.14 269.637 60.14C271.919 60.14 271.975 58.11 271.975 56.346C271.975 53.238 270.827 52.79 269.693 52.79C268.951 52.79 268.461 53.112 268.069 53.77H268.041V52.93ZM274.663 61.778H275.559L276.833 58.544H275.391L274.663 61.778ZM288.752 57.984C288.752 55.828 285.224 55.856 285.224 54.61C285.224 53.994 285.7 53.658 286.316 53.658C287.044 53.658 287.436 54.05 287.422 54.792H288.696C288.794 53.392 287.716 52.79 286.456 52.79C284.468 52.79 284.02 53.98 284.02 54.722C284.02 56.836 287.548 56.864 287.548 58.124C287.548 58.852 287.016 59.202 286.33 59.202C285.168 59.202 285.154 58.25 285.154 57.844H283.852C283.81 59.468 284.762 60.14 286.288 60.14C287.688 60.14 288.752 59.538 288.752 57.984ZM294.398 59.202C293.124 59.202 293.068 57.704 293.068 56.766C293.068 55.688 292.942 53.728 294.356 53.728C295.798 53.728 295.798 55.282 295.798 56.346C295.798 58.236 295.63 59.202 294.398 59.202ZM293.068 52.93H291.92V62.674H293.068V59.286H293.11C293.502 59.846 293.992 60.14 294.664 60.14C296.946 60.14 297.002 58.11 297.002 56.346C297.002 53.238 295.854 52.79 294.72 52.79C293.978 52.79 293.488 53.112 293.096 53.77H293.068V52.93ZM301.342 52.93H300.194V60H301.342V52.93ZM300.124 51.124H301.412V49.892H300.124V51.124ZM305.916 52.93H304.768V60H305.916V55.828C305.916 54.876 306.238 53.91 307.512 53.91C307.624 53.91 307.722 53.924 307.82 53.938C307.918 53.952 308.03 53.966 308.128 53.98V52.79C307.008 52.79 306.42 52.916 305.944 53.994H305.916V52.93ZM311.908 52.93H310.76V60H311.908V52.93ZM310.69 51.124H311.978V49.892H310.69V51.124ZM314.256 52.93V53.798H315.418V58.824C315.418 59.636 315.908 60.084 317 60.084C317.378 60.084 317.756 60 318.134 59.972V59.09C317.882 59.118 317.7 59.146 317.616 59.146C316.566 59.146 316.566 58.572 316.566 58.124V53.798H318.106V52.93H316.566V51.054L315.418 51.572V52.93H314.256ZM325.138 57.984C325.138 55.828 321.61 55.856 321.61 54.61C321.61 53.994 322.086 53.658 322.702 53.658C323.43 53.658 323.822 54.05 323.808 54.792H325.082C325.18 53.392 324.102 52.79 322.842 52.79C320.854 52.79 320.406 53.98 320.406 54.722C320.406 56.836 323.934 56.864 323.934 58.124C323.934 58.852 323.402 59.202 322.716 59.202C321.554 59.202 321.54 58.25 321.54 57.844H320.238C320.196 59.468 321.148 60.14 322.674 60.14C324.074 60.14 325.138 59.538 325.138 57.984ZM336.324 56.486C336.436 58.768 335.568 59.202 334.868 59.202C334.098 59.202 333.762 58.586 333.762 57.9C333.762 56.402 335.232 56.5 336.324 56.486ZM336.352 60H337.612C337.528 59.454 337.472 58.88 337.472 58.32V54.918C337.472 53.728 336.996 52.79 335.176 52.79C333.678 52.79 332.838 53.336 332.782 54.918H334.028C333.958 54.176 334.364 53.658 335.134 53.658C336.366 53.658 336.352 54.68 336.324 55.618C334.714 55.576 332.614 55.674 332.614 57.816C332.614 59.174 333.048 60.14 334.546 60.14C335.428 60.14 335.974 59.79 336.324 58.978H336.352V60ZM346.096 60V55.1C346.096 53.7 345.718 52.79 344.206 52.79C343.296 52.79 342.764 53.042 342.316 53.84H342.26V52.93H341.042C341.084 53.42 341.112 53.91 341.112 54.4V60H342.26V55.814C342.26 54.848 342.442 53.728 343.702 53.728C344.682 53.728 344.948 54.344 344.948 55.1V60H346.096ZM353.25 56.178C353.25 57.606 353.25 59.202 351.962 59.202C350.52 59.202 350.52 57.662 350.52 56.598C350.52 54.708 350.688 53.728 351.92 53.728C353.194 53.728 353.25 55.24 353.25 56.178ZM353.25 53.644H353.208C352.816 53.084 352.326 52.79 351.654 52.79C349.372 52.79 349.316 54.82 349.316 56.584C349.316 59.692 350.464 60.14 351.598 60.14C352.34 60.14 352.83 59.818 353.222 59.16H353.25V60H354.398V49.892H353.25V53.644ZM361.38 52.93V53.798H362.542V58.824C362.542 59.636 363.032 60.084 364.124 60.084C364.502 60.084 364.88 60 365.258 59.972V59.09C365.006 59.118 364.824 59.146 364.74 59.146C363.69 59.146 363.69 58.572 363.69 58.124V53.798H365.23V52.93H363.69V51.054L362.542 51.572V52.93H361.38ZM372.696 60V54.988C372.696 53.392 372.024 52.79 370.82 52.79C369.896 52.79 369.364 53.014 368.902 53.84H368.846V49.892H367.698V60H368.846V55.842C368.846 54.652 369.14 53.728 370.288 53.728C371.268 53.728 371.548 54.344 371.548 55.212V60H372.696ZM377.232 55.968C377.246 54.008 377.848 53.658 378.576 53.658C379.416 53.658 379.99 53.91 379.99 55.968H377.232ZM381.208 56.836V56.234C381.208 53.896 380.704 52.79 378.688 52.79C376.238 52.79 376 54.498 376 56.57C376 59.692 377.19 60.14 378.688 60.14C380.172 60.14 381.138 59.426 381.152 57.858H379.892C379.85 58.572 379.444 59.202 378.66 59.202C377.764 59.202 377.232 58.81 377.232 56.836H381.208ZM11.62 78.486C11.732 80.768 10.864 81.202 10.164 81.202C9.394 81.202 9.058 80.586 9.058 79.9C9.058 78.402 10.528 78.5 11.62 78.486ZM11.648 82H12.908C12.824 81.454 12.768 80.88 12.768 80.32V76.918C12.768 75.728 12.292 74.79 10.472 74.79C8.974 74.79 8.134 75.336 8.078 76.918H9.324C9.254 76.176 9.66 75.658 10.43 75.658C11.662 75.658 11.648 76.68 11.62 77.618C10.01 77.576 7.91 77.674 7.91 79.816C7.91 81.174 8.344 82.14 9.842 82.14C10.724 82.14 11.27 81.79 11.62 80.978H11.648V82ZM15.526 74.93V75.798H16.618V82H17.766V75.798H19.194V74.93H17.766V73.726C17.766 73.152 17.976 72.634 19.194 72.718V71.892C19.026 71.864 18.886 71.85 18.648 71.85C17.626 71.85 16.618 72.13 16.618 73.558V74.93H15.526ZM20.6685 74.93V75.798H21.8305V80.824C21.8305 81.636 22.3205 82.084 23.4125 82.084C23.7905 82.084 24.1685 82 24.5465 81.972V81.09C24.2945 81.118 24.1125 81.146 24.0285 81.146C22.9785 81.146 22.9785 80.572 22.9785 80.124V75.798H24.5185V74.93H22.9785V73.054L21.8305 73.572V74.93H20.6685ZM28.121 77.968C28.135 76.008 28.737 75.658 29.465 75.658C30.305 75.658 30.879 75.91 30.879 77.968H28.121ZM32.097 78.836V78.234C32.097 75.896 31.593 74.79 29.577 74.79C27.127 74.79 26.889 76.498 26.889 78.57C26.889 81.692 28.079 82.14 29.577 82.14C31.061 82.14 32.027 81.426 32.041 79.858H30.781C30.739 80.572 30.333 81.202 29.549 81.202C28.653 81.202 28.121 80.81 28.121 78.836H32.097ZM36.591 74.93H35.443V82H36.591V77.828C36.591 76.876 36.913 75.91 38.187 75.91C38.299 75.91 38.397 75.924 38.495 75.938C38.593 75.952 38.705 75.966 38.803 75.98V74.79C37.683 74.79 37.095 74.916 36.619 75.994H36.591V74.93ZM42.5831 71.892H41.4351V82H42.5831V71.892ZM47.0866 74.93H45.9386V82H47.0866V74.93ZM45.8686 73.124H47.1566V71.892H45.8686V73.124ZM49.5881 74.93V75.798H50.6801V82H51.8281V75.798H53.2561V74.93H51.8281V73.726C51.8281 73.152 52.0381 72.634 53.2561 72.718V71.892C53.0881 71.864 52.9481 71.85 52.7101 71.85C51.6881 71.85 50.6801 72.13 50.6801 73.558V74.93H49.5881ZM56.8866 77.968C56.9006 76.008 57.5026 75.658 58.2306 75.658C59.0706 75.658 59.6446 75.91 59.6446 77.968H56.8866ZM60.8626 78.836V78.234C60.8626 75.896 60.3586 74.79 58.3426 74.79C55.8926 74.79 55.6546 76.498 55.6546 78.57C55.6546 81.692 56.8446 82.14 58.3426 82.14C59.8266 82.14 60.7926 81.426 60.8066 79.858H59.5466C59.5046 80.572 59.0986 81.202 58.3146 81.202C57.4186 81.202 56.8866 80.81 56.8866 78.836H60.8626ZM65.3706 80.544H64.0546V82H65.3706V80.544Z" fill="white"/>
</svg>
