<svg width="424" height="91" viewBox="0 0 424 91" fill="none" xmlns="http://www.w3.org/2000/svg">
<rect width="411" height="91" fill="black" fill-opacity="0.69"/>
<path d="M7.21 16H8.512L9.268 13.592H13.174L13.902 16H15.344L12.054 5.892H10.416L7.21 16ZM12.824 12.472H9.59L11.172 7.082H11.2L12.824 12.472ZM22.9506 16V11.1C22.9506 9.7 22.5726 8.79 21.0606 8.79C20.1506 8.79 19.6186 9.042 19.1706 9.84H19.1146V8.93H17.8966C17.9386 9.42 17.9666 9.91 17.9666 10.4V16H19.1146V11.814C19.1146 10.848 19.2966 9.728 20.5566 9.728C21.5366 9.728 21.8026 10.344 21.8026 11.1V16H22.9506ZM34.4821 12.486C34.5941 14.768 33.7261 15.202 33.0261 15.202C32.2561 15.202 31.9201 14.586 31.9201 13.9C31.9201 12.402 33.3901 12.5 34.4821 12.486ZM34.5101 16H35.7701C35.6861 15.454 35.6301 14.88 35.6301 14.32V10.918C35.6301 9.728 35.1541 8.79 33.3341 8.79C31.8361 8.79 30.9961 9.336 30.9401 10.918H32.1861C32.1161 10.176 32.5221 9.658 33.2921 9.658C34.5241 9.658 34.5101 10.68 34.4821 11.618C32.8721 11.576 30.7721 11.674 30.7721 13.816C30.7721 15.174 31.2061 16.14 32.7041 16.14C33.5861 16.14 34.1321 15.79 34.4821 14.978H34.5101V16ZM43.0501 13.62C43.0501 14.796 42.2801 15.258 41.6641 15.258C40.8521 15.258 40.4601 14.684 40.4601 13.83V8.93H39.3121V14.32C39.3121 15.524 39.9841 16.14 41.2161 16.14C41.9581 16.14 42.6301 15.79 43.0081 15.146H43.0501V16H44.2681C44.2261 15.51 44.1981 15.02 44.1981 14.53V8.93H43.0501V13.62ZM51.4081 12.178C51.4081 13.606 51.4081 15.202 50.1201 15.202C48.6781 15.202 48.6781 13.662 48.6781 12.598C48.6781 10.708 48.8461 9.728 50.0781 9.728C51.3521 9.728 51.4081 11.24 51.4081 12.178ZM51.4081 9.644H51.3661C50.9741 9.084 50.4841 8.79 49.8121 8.79C47.5301 8.79 47.4741 10.82 47.4741 12.584C47.4741 15.692 48.6221 16.14 49.7561 16.14C50.4981 16.14 50.9881 15.818 51.3801 15.16H51.4081V16H52.5561V5.892H51.4081V9.644ZM57.1901 8.93H56.0421V16H57.1901V8.93ZM55.9721 7.124H57.2601V5.892H55.9721V7.124ZM63.0656 15.202C61.8756 15.202 61.5816 14.376 61.5816 12.08C61.5816 10.148 62.1836 9.728 63.0656 9.728C63.9476 9.728 64.5496 10.148 64.5496 12.08C64.5496 14.376 64.2556 15.202 63.0656 15.202ZM63.0656 16.14C64.5636 16.14 65.7536 15.692 65.7536 12.57C65.7536 10.498 65.5156 8.79 63.0656 8.79C60.6156 8.79 60.3776 10.498 60.3776 12.57C60.3776 15.692 61.5676 16.14 63.0656 16.14ZM78.0971 16V11.24C78.0971 10.974 78.1531 10.274 78.4891 9.994C78.7971 9.742 78.9231 9.728 79.3571 9.728C80.2811 9.728 80.4771 10.386 80.4771 11.1V16H81.6251V10.624C81.6251 8.958 80.4351 8.79 79.6931 8.79C79.0491 8.79 78.4051 8.944 78.0131 9.7C77.7471 9.056 77.0051 8.79 76.3611 8.79C75.5351 8.79 74.9331 9.056 74.5971 9.812H74.5691V8.93H73.3511C73.3931 9.42 73.4211 9.91 73.4211 10.4V16H74.5691V11.24C74.5691 10.974 74.6251 10.554 74.8351 10.204C75.0031 9.938 75.4791 9.728 75.8291 9.728C76.7531 9.728 76.9491 10.386 76.9491 11.1V16H78.0971ZM86.1007 8.93H84.9527V16H86.1007V8.93ZM84.8827 7.124H86.1707V5.892H84.8827V7.124ZM92.2562 12.304L94.3702 8.93H92.9842L91.5562 11.464L90.2122 8.93H88.7422L90.7582 12.304L88.5602 16H89.9182L91.4442 13.102L93.0822 16H94.5942L92.2562 12.304ZM100.572 8.93V9.798H101.734V14.824C101.734 15.636 102.224 16.084 103.316 16.084C103.694 16.084 104.072 16 104.45 15.972V15.09C104.198 15.118 104.016 15.146 103.932 15.146C102.882 15.146 102.882 14.572 102.882 14.124V9.798H104.422V8.93H102.882V7.054L101.734 7.572V8.93H100.572ZM111.889 16V10.988C111.889 9.392 111.217 8.79 110.013 8.79C109.089 8.79 108.557 9.014 108.095 9.84H108.039V5.892H106.891V16H108.039V11.842C108.039 10.652 108.333 9.728 109.481 9.728C110.461 9.728 110.741 10.344 110.741 11.212V16H111.889ZM116.425 11.968C116.439 10.008 117.041 9.658 117.769 9.658C118.609 9.658 119.183 9.91 119.183 11.968H116.425ZM120.401 12.836V12.234C120.401 9.896 119.897 8.79 117.881 8.79C115.431 8.79 115.193 10.498 115.193 12.57C115.193 15.692 116.383 16.14 117.881 16.14C119.365 16.14 120.331 15.426 120.345 13.858H119.085C119.043 14.572 118.637 15.202 117.853 15.202C116.957 15.202 116.425 14.81 116.425 12.836H120.401ZM128.292 12.304C128.292 15.104 129.328 16.21 131.47 16.21C133.612 16.21 134.648 15.104 134.648 12.304V5.892H133.36V12.36C133.36 14.572 132.688 15.132 131.47 15.132C130.252 15.132 129.58 14.572 129.58 12.36V5.892H128.292V12.304ZM138.013 12.99C137.985 13.956 137.985 16.238 140.967 16.21C142.633 16.21 144.103 15.524 144.103 13.396C144.103 10.19 139.567 10.512 139.567 8.286C139.567 7.194 140.351 6.802 141.121 6.802C142.339 6.802 142.689 7.53 142.675 8.636H144.019C144.103 6.578 143.067 5.682 141.219 5.682C139.525 5.682 138.251 6.634 138.251 8.426C138.251 11.464 142.787 11.212 142.787 13.452C142.787 14.656 142.003 15.09 140.981 15.09C140.155 15.09 139.287 14.656 139.287 13.284V12.99H138.013ZM156.47 16V11.24C156.47 10.974 156.526 10.274 156.862 9.994C157.17 9.742 157.296 9.728 157.73 9.728C158.654 9.728 158.85 10.386 158.85 11.1V16H159.998V10.624C159.998 8.958 158.808 8.79 158.066 8.79C157.422 8.79 156.778 8.944 156.386 9.7C156.12 9.056 155.378 8.79 154.734 8.79C153.908 8.79 153.306 9.056 152.97 9.812H152.942V8.93H151.724C151.766 9.42 151.794 9.91 151.794 10.4V16H152.942V11.24C152.942 10.974 152.998 10.554 153.208 10.204C153.376 9.938 153.852 9.728 154.202 9.728C155.126 9.728 155.322 10.386 155.322 11.1V16H156.47ZM164.473 8.93H163.325V16H164.473V8.93ZM163.255 7.124H164.543V5.892H163.255V7.124ZM168.977 5.892H167.829V16H168.977V5.892ZM173.48 8.93H172.332V16H173.48V8.93ZM172.262 7.124H173.55V5.892H172.262V7.124ZM175.828 8.93V9.798H176.99V14.824C176.99 15.636 177.48 16.084 178.572 16.084C178.95 16.084 179.328 16 179.706 15.972V15.09C179.454 15.118 179.272 15.146 179.188 15.146C178.138 15.146 178.138 14.572 178.138 14.124V9.798H179.678V8.93H178.138V7.054L176.99 7.572V8.93H175.828ZM185.772 12.486C185.884 14.768 185.016 15.202 184.316 15.202C183.546 15.202 183.21 14.586 183.21 13.9C183.21 12.402 184.68 12.5 185.772 12.486ZM185.8 16H187.06C186.976 15.454 186.92 14.88 186.92 14.32V10.918C186.92 9.728 186.444 8.79 184.624 8.79C183.126 8.79 182.286 9.336 182.23 10.918H183.476C183.406 10.176 183.812 9.658 184.582 9.658C185.814 9.658 185.8 10.68 185.772 11.618C184.162 11.576 182.062 11.674 182.062 13.816C182.062 15.174 182.496 16.14 183.994 16.14C184.876 16.14 185.422 15.79 185.772 14.978H185.8V16ZM191.75 8.93H190.602V16H191.75V11.828C191.75 10.876 192.072 9.91 193.346 9.91C193.458 9.91 193.556 9.924 193.654 9.938C193.752 9.952 193.864 9.966 193.962 9.98V8.79C192.842 8.79 192.254 8.916 191.778 9.994H191.75V8.93ZM197.056 8.93H195.726L198.12 16L197.322 18.674H198.512L201.718 8.93H200.472L198.778 14.684H198.75L197.056 8.93ZM212.527 13.62C212.527 14.796 211.757 15.258 211.141 15.258C210.329 15.258 209.937 14.684 209.937 13.83V8.93H208.789V14.32C208.789 15.524 209.461 16.14 210.693 16.14C211.435 16.14 212.107 15.79 212.485 15.146H212.527V16H213.745C213.703 15.51 213.675 15.02 213.675 14.53V8.93H212.527V13.62ZM221.697 13.984C221.697 11.828 218.169 11.856 218.169 10.61C218.169 9.994 218.645 9.658 219.261 9.658C219.989 9.658 220.381 10.05 220.367 10.792H221.641C221.739 9.392 220.661 8.79 219.401 8.79C217.413 8.79 216.965 9.98 216.965 10.722C216.965 12.836 220.493 12.864 220.493 14.124C220.493 14.852 219.961 15.202 219.275 15.202C218.113 15.202 218.099 14.25 218.099 13.844H216.797C216.755 15.468 217.707 16.14 219.233 16.14C220.633 16.14 221.697 15.538 221.697 13.984ZM225.887 11.968C225.901 10.008 226.503 9.658 227.231 9.658C228.071 9.658 228.645 9.91 228.645 11.968H225.887ZM229.863 12.836V12.234C229.863 9.896 229.359 8.79 227.343 8.79C224.893 8.79 224.655 10.498 224.655 12.57C224.655 15.692 225.845 16.14 227.343 16.14C228.827 16.14 229.793 15.426 229.807 13.858H228.547C228.505 14.572 228.099 15.202 227.315 15.202C226.419 15.202 225.887 14.81 225.887 12.836H229.863ZM236.905 12.178C236.905 13.606 236.905 15.202 235.617 15.202C234.175 15.202 234.175 13.662 234.175 12.598C234.175 10.708 234.343 9.728 235.575 9.728C236.849 9.728 236.905 11.24 236.905 12.178ZM236.905 9.644H236.863C236.471 9.084 235.981 8.79 235.309 8.79C233.027 8.79 232.971 10.82 232.971 12.584C232.971 15.692 234.119 16.14 235.253 16.14C235.995 16.14 236.485 15.818 236.877 15.16H236.905V16H238.053V5.892H236.905V9.644ZM245.189 8.93V9.798H246.281V16H247.429V9.798H248.857V8.93H247.429V7.726C247.429 7.152 247.639 6.634 248.857 6.718V5.892C248.689 5.864 248.549 5.85 248.311 5.85C247.289 5.85 246.281 6.13 246.281 7.558V8.93H245.189ZM253.859 15.202C252.669 15.202 252.375 14.376 252.375 12.08C252.375 10.148 252.977 9.728 253.859 9.728C254.741 9.728 255.343 10.148 255.343 12.08C255.343 14.376 255.049 15.202 253.859 15.202ZM253.859 16.14C255.357 16.14 256.547 15.692 256.547 12.57C256.547 10.498 256.309 8.79 253.859 8.79C251.409 8.79 251.171 10.498 251.171 12.57C251.171 15.692 252.361 16.14 253.859 16.14ZM260.957 8.93H259.809V16H260.957V11.828C260.957 10.876 261.279 9.91 262.553 9.91C262.665 9.91 262.763 9.924 262.861 9.938C262.959 9.952 263.071 9.966 263.169 9.98V8.79C262.049 8.79 261.461 8.916 260.985 9.994H260.957V8.93ZM272.909 15.202C271.635 15.202 271.579 13.704 271.579 12.766C271.579 11.688 271.453 9.728 272.867 9.728C274.309 9.728 274.309 11.282 274.309 12.346C274.309 14.236 274.141 15.202 272.909 15.202ZM271.579 8.93H270.431V18.674H271.579V15.286H271.621C272.013 15.846 272.503 16.14 273.175 16.14C275.457 16.14 275.513 14.11 275.513 12.346C275.513 9.238 274.365 8.79 273.231 8.79C272.489 8.79 271.999 9.112 271.607 9.77H271.579V8.93ZM283.283 13.984C283.283 11.828 279.755 11.856 279.755 10.61C279.755 9.994 280.231 9.658 280.847 9.658C281.575 9.658 281.967 10.05 281.953 10.792H283.227C283.325 9.392 282.247 8.79 280.987 8.79C278.999 8.79 278.551 9.98 278.551 10.722C278.551 12.836 282.079 12.864 282.079 14.124C282.079 14.852 281.547 15.202 280.861 15.202C279.699 15.202 279.685 14.25 279.685 13.844H278.383C278.341 15.468 279.293 16.14 280.819 16.14C282.219 16.14 283.283 15.538 283.283 13.984ZM286.788 8.93H285.458L287.852 16L287.054 18.674H288.244L291.45 8.93H290.204L288.51 14.684H288.482L286.788 8.93ZM298.86 11.198C298.93 9.616 298.104 8.79 296.69 8.79C294.24 8.79 294.002 10.498 294.002 12.57C294.002 15.692 295.192 16.14 296.69 16.14C297.474 16.14 298.958 15.636 298.916 13.648H297.712C297.754 14.922 296.956 15.202 296.69 15.202C295.5 15.202 295.206 14.376 295.206 12.08C295.206 10.148 295.808 9.728 296.69 9.728C297.124 9.728 297.698 10.036 297.67 11.198H298.86ZM307.358 16V10.988C307.358 9.392 306.686 8.79 305.482 8.79C304.558 8.79 304.026 9.014 303.564 9.84H303.508V5.892H302.36V16H303.508V11.842C303.508 10.652 303.802 9.728 304.95 9.728C305.93 9.728 306.21 10.344 306.21 11.212V16H307.358ZM313.266 15.202C312.076 15.202 311.782 14.376 311.782 12.08C311.782 10.148 312.384 9.728 313.266 9.728C314.148 9.728 314.75 10.148 314.75 12.08C314.75 14.376 314.456 15.202 313.266 15.202ZM313.266 16.14C314.764 16.14 315.954 15.692 315.954 12.57C315.954 10.498 315.716 8.79 313.266 8.79C310.816 8.79 310.578 10.498 310.578 12.57C310.578 15.692 311.768 16.14 313.266 16.14ZM320.294 5.892H319.146V16H320.294V5.892ZM326.17 15.202C324.98 15.202 324.686 14.376 324.686 12.08C324.686 10.148 325.288 9.728 326.17 9.728C327.052 9.728 327.654 10.148 327.654 12.08C327.654 14.376 327.36 15.202 326.17 15.202ZM326.17 16.14C327.668 16.14 328.858 15.692 328.858 12.57C328.858 10.498 328.62 8.79 326.17 8.79C323.72 8.79 323.482 10.498 323.482 12.57C323.482 15.692 324.672 16.14 326.17 16.14ZM335.844 12.43C335.844 13.41 335.886 15.048 334.5 15.048C333.646 15.048 333.128 14.516 333.128 12.248C333.128 11.31 333.17 9.742 334.472 9.742C335.914 9.742 335.844 11.38 335.844 12.43ZM335.816 9.798H335.788C335.466 9.112 334.878 8.79 334.136 8.79C333.562 8.79 331.924 9 331.924 12.248C331.924 14.348 332.302 16 334.22 16C334.836 16 335.48 15.678 335.774 15.118H335.816V16.588C335.816 17.316 335.382 17.806 334.584 17.806C333.954 17.806 333.52 17.442 333.506 16.784H332.218C332.12 18.086 333.184 18.674 334.36 18.674C335.914 18.674 336.964 18.296 336.964 16.714V8.93H335.816V9.798ZM341.598 8.93H340.45V16H341.598V8.93ZM340.38 7.124H341.668V5.892H340.38V7.124ZM349.867 11.198C349.937 9.616 349.111 8.79 347.697 8.79C345.247 8.79 345.009 10.498 345.009 12.57C345.009 15.692 346.199 16.14 347.697 16.14C348.481 16.14 349.965 15.636 349.923 13.648H348.719C348.761 14.922 347.963 15.202 347.697 15.202C346.507 15.202 346.213 14.376 346.213 12.08C346.213 10.148 346.815 9.728 347.697 9.728C348.131 9.728 348.705 10.036 348.677 11.198H349.867ZM356.993 12.486C357.105 14.768 356.237 15.202 355.537 15.202C354.767 15.202 354.431 14.586 354.431 13.9C354.431 12.402 355.901 12.5 356.993 12.486ZM357.021 16H358.281C358.197 15.454 358.141 14.88 358.141 14.32V10.918C358.141 9.728 357.665 8.79 355.845 8.79C354.347 8.79 353.507 9.336 353.451 10.918H354.697C354.627 10.176 355.033 9.658 355.803 9.658C357.035 9.658 357.021 10.68 356.993 11.618C355.383 11.576 353.283 11.674 353.283 13.816C353.283 15.174 353.717 16.14 355.215 16.14C356.097 16.14 356.643 15.79 356.993 14.978H357.021V16ZM362.901 5.892H361.753V16H362.901V5.892ZM10.5 37.202C9.31 37.202 9.016 36.376 9.016 34.08C9.016 32.148 9.618 31.728 10.5 31.728C11.382 31.728 11.984 32.148 11.984 34.08C11.984 36.376 11.69 37.202 10.5 37.202ZM10.5 38.14C11.998 38.14 13.188 37.692 13.188 34.57C13.188 32.498 12.95 30.79 10.5 30.79C8.05 30.79 7.812 32.498 7.812 34.57C7.812 37.692 9.002 38.14 10.5 38.14ZM18.984 37.202C17.71 37.202 17.654 35.704 17.654 34.766C17.654 33.688 17.528 31.728 18.942 31.728C20.384 31.728 20.384 33.282 20.384 34.346C20.384 36.236 20.216 37.202 18.984 37.202ZM17.654 30.93H16.506V40.674H17.654V37.286H17.696C18.088 37.846 18.578 38.14 19.25 38.14C21.532 38.14 21.588 36.11 21.588 34.346C21.588 31.238 20.44 30.79 19.306 30.79C18.564 30.79 18.074 31.112 17.682 31.77H17.654V30.93ZM25.928 33.968C25.942 32.008 26.544 31.658 27.272 31.658C28.112 31.658 28.686 31.91 28.686 33.968H25.928ZM29.904 34.836V34.234C29.904 31.896 29.4 30.79 27.384 30.79C24.934 30.79 24.696 32.498 24.696 34.57C24.696 37.692 25.886 38.14 27.384 38.14C28.868 38.14 29.834 37.426 29.848 35.858H28.588C28.546 36.572 28.14 37.202 27.356 37.202C26.46 37.202 25.928 36.81 25.928 34.836H29.904ZM34.398 30.93H33.25V38H34.398V33.828C34.398 32.876 34.72 31.91 35.994 31.91C36.106 31.91 36.204 31.924 36.302 31.938C36.4 31.952 36.512 31.966 36.61 31.98V30.79C35.49 30.79 34.902 30.916 34.426 31.994H34.398V30.93ZM42.8821 34.486C42.9941 36.768 42.1261 37.202 41.4261 37.202C40.6561 37.202 40.3201 36.586 40.3201 35.9C40.3201 34.402 41.7901 34.5 42.8821 34.486ZM42.9101 38H44.1701C44.0861 37.454 44.0301 36.88 44.0301 36.32V32.918C44.0301 31.728 43.5541 30.79 41.7341 30.79C40.2361 30.79 39.3961 31.336 39.3401 32.918H40.5861C40.5161 32.176 40.9221 31.658 41.6921 31.658C42.9241 31.658 42.9101 32.68 42.8821 33.618C41.2721 33.576 39.1721 33.674 39.1721 35.816C39.1721 37.174 39.6061 38.14 41.1041 38.14C41.9861 38.14 42.5321 37.79 42.8821 36.978H42.9101V38ZM46.6341 30.93V31.798H47.7961V36.824C47.7961 37.636 48.2861 38.084 49.3781 38.084C49.7561 38.084 50.1341 38 50.5121 37.972V37.09C50.2601 37.118 50.0781 37.146 49.9941 37.146C48.9441 37.146 48.9441 36.572 48.9441 36.124V31.798H50.4841V30.93H48.9441V29.054L47.7961 29.572V30.93H46.6341ZM54.0866 30.93H52.9386V38H54.0866V30.93ZM52.8686 29.124H54.1566V27.892H52.8686V29.124ZM59.9621 37.202C58.7721 37.202 58.4781 36.376 58.4781 34.08C58.4781 32.148 59.0801 31.728 59.9621 31.728C60.8441 31.728 61.4461 32.148 61.4461 34.08C61.4461 36.376 61.1521 37.202 59.9621 37.202ZM59.9621 38.14C61.4601 38.14 62.6501 37.692 62.6501 34.57C62.6501 32.498 62.4121 30.79 59.9621 30.79C57.5121 30.79 57.2741 32.498 57.2741 34.57C57.2741 37.692 58.4641 38.14 59.9621 38.14ZM70.8541 38V33.1C70.8541 31.7 70.4761 30.79 68.9641 30.79C68.0541 30.79 67.5221 31.042 67.0741 31.84H67.0181V30.93H65.8001C65.8421 31.42 65.8701 31.91 65.8701 32.4V38H67.0181V33.814C67.0181 32.848 67.2001 31.728 68.4601 31.728C69.4401 31.728 69.7061 32.344 69.7061 33.1V38H70.8541ZM78.8201 35.984C78.8201 33.828 75.2921 33.856 75.2921 32.61C75.2921 31.994 75.7681 31.658 76.3841 31.658C77.1121 31.658 77.5041 32.05 77.4901 32.792H78.7641C78.8621 31.392 77.7841 30.79 76.5241 30.79C74.5361 30.79 74.0881 31.98 74.0881 32.722C74.0881 34.836 77.6161 34.864 77.6161 36.124C77.6161 36.852 77.0841 37.202 76.3981 37.202C75.2361 37.202 75.2221 36.25 75.2221 35.844H73.9201C73.8781 37.468 74.8301 38.14 76.3561 38.14C77.7561 38.14 78.8201 37.538 78.8201 35.984ZM87.5143 30.93H86.3663V38H87.5143V30.93ZM86.2963 29.124H87.5843V27.892H86.2963V29.124ZM95.8818 38V33.1C95.8818 31.7 95.5038 30.79 93.9918 30.79C93.0818 30.79 92.5498 31.042 92.1018 31.84H92.0458V30.93H90.8278C90.8698 31.42 90.8978 31.91 90.8978 32.4V38H92.0458V33.814C92.0458 32.848 92.2278 31.728 93.4878 31.728C94.4678 31.728 94.7338 32.344 94.7338 33.1V38H95.8818ZM102.765 30.93V31.798H103.927V36.824C103.927 37.636 104.417 38.084 105.509 38.084C105.887 38.084 106.265 38 106.643 37.972V37.09C106.391 37.118 106.209 37.146 106.125 37.146C105.075 37.146 105.075 36.572 105.075 36.124V31.798H106.615V30.93H105.075V29.054L103.927 29.572V30.93H102.765ZM114.082 38V32.988C114.082 31.392 113.41 30.79 112.206 30.79C111.282 30.79 110.75 31.014 110.288 31.84H110.232V27.892H109.084V38H110.232V33.842C110.232 32.652 110.526 31.728 111.674 31.728C112.654 31.728 112.934 32.344 112.934 33.212V38H114.082ZM118.618 33.968C118.632 32.008 119.234 31.658 119.962 31.658C120.802 31.658 121.376 31.91 121.376 33.968H118.618ZM122.594 34.836V34.234C122.594 31.896 122.09 30.79 120.074 30.79C117.624 30.79 117.386 32.498 117.386 34.57C117.386 37.692 118.576 38.14 120.074 38.14C121.558 38.14 122.524 37.426 122.538 35.858H121.278C121.236 36.572 120.83 37.202 120.046 37.202C119.15 37.202 118.618 36.81 118.618 34.836H122.594ZM136.995 27.892H135.679L133.313 36.782H133.285L130.975 27.892H129.575L132.501 38H134.041L136.995 27.892ZM140.701 30.93H139.553V38H140.701V30.93ZM139.483 29.124H140.771V27.892H139.483V29.124ZM145.204 33.968C145.218 32.008 145.82 31.658 146.548 31.658C147.388 31.658 147.962 31.91 147.962 33.968H145.204ZM149.18 34.836V34.234C149.18 31.896 148.676 30.79 146.66 30.79C144.21 30.79 143.972 32.498 143.972 34.57C143.972 37.692 145.162 38.14 146.66 38.14C148.144 38.14 149.11 37.426 149.124 35.858H147.864C147.822 36.572 147.416 37.202 146.632 37.202C145.736 37.202 145.204 36.81 145.204 34.836H149.18ZM151.448 30.93V31.798H152.61V36.824C152.61 37.636 153.1 38.084 154.192 38.084C154.57 38.084 154.948 38 155.326 37.972V37.09C155.074 37.118 154.892 37.146 154.808 37.146C153.758 37.146 153.758 36.572 153.758 36.124V31.798H155.298V30.93H153.758V29.054L152.61 29.572V30.93H151.448ZM162.765 38V33.1C162.765 31.7 162.387 30.79 160.875 30.79C159.965 30.79 159.433 31.042 158.985 31.84H158.929V30.93H157.711C157.753 31.42 157.781 31.91 157.781 32.4V38H158.929V33.814C158.929 32.848 159.111 31.728 160.371 31.728C161.351 31.728 161.617 32.344 161.617 33.1V38H162.765ZM169.793 34.486C169.905 36.768 169.037 37.202 168.337 37.202C167.567 37.202 167.231 36.586 167.231 35.9C167.231 34.402 168.701 34.5 169.793 34.486ZM169.821 38H171.081C170.997 37.454 170.941 36.88 170.941 36.32V32.918C170.941 31.728 170.465 30.79 168.645 30.79C167.147 30.79 166.307 31.336 166.251 32.918H167.497C167.427 32.176 167.833 31.658 168.603 31.658C169.835 31.658 169.821 32.68 169.793 33.618C168.183 33.576 166.083 33.674 166.083 35.816C166.083 37.174 166.517 38.14 168.015 38.14C168.897 38.14 169.443 37.79 169.793 36.978H169.821V38ZM179.201 38V33.24C179.201 32.974 179.257 32.274 179.593 31.994C179.901 31.742 180.027 31.728 180.461 31.728C181.385 31.728 181.581 32.386 181.581 33.1V38H182.729V32.624C182.729 30.958 181.539 30.79 180.797 30.79C180.153 30.79 179.509 30.944 179.117 31.7C178.851 31.056 178.109 30.79 177.465 30.79C176.639 30.79 176.037 31.056 175.701 31.812H175.673V30.93H174.455C174.497 31.42 174.525 31.91 174.525 32.4V38H175.673V33.24C175.673 32.974 175.729 32.554 175.939 32.204C176.107 31.938 176.583 31.728 176.933 31.728C177.857 31.728 178.053 32.386 178.053 33.1V38H179.201ZM192.128 38H193.696L195.74 29.236H195.768L197.686 38H199.254L201.928 27.892H200.584L198.526 36.656H198.498L196.664 27.892H194.998L192.968 36.656H192.94L191.036 27.892H189.664L192.128 38ZM207.617 34.486C207.729 36.768 206.861 37.202 206.161 37.202C205.391 37.202 205.055 36.586 205.055 35.9C205.055 34.402 206.525 34.5 207.617 34.486ZM207.645 38H208.905C208.821 37.454 208.765 36.88 208.765 36.32V32.918C208.765 31.728 208.289 30.79 206.469 30.79C204.971 30.79 204.131 31.336 204.075 32.918H205.321C205.251 32.176 205.657 31.658 206.427 31.658C207.659 31.658 207.645 32.68 207.617 33.618C206.007 33.576 203.907 33.674 203.907 35.816C203.907 37.174 204.341 38.14 205.839 38.14C206.721 38.14 207.267 37.79 207.617 36.978H207.645V38ZM213.595 30.93H212.447V38H213.595V33.828C213.595 32.876 213.917 31.91 215.191 31.91C215.303 31.91 215.401 31.924 215.499 31.938C215.597 31.952 215.709 31.966 215.807 31.98V30.79C214.687 30.79 214.099 30.916 213.623 31.994H213.595V30.93ZM226.583 34.486C226.695 36.768 225.827 37.202 225.127 37.202C224.357 37.202 224.021 36.586 224.021 35.9C224.021 34.402 225.491 34.5 226.583 34.486ZM226.611 38H227.871C227.787 37.454 227.731 36.88 227.731 36.32V32.918C227.731 31.728 227.255 30.79 225.435 30.79C223.937 30.79 223.097 31.336 223.041 32.918H224.287C224.217 32.176 224.623 31.658 225.393 31.658C226.625 31.658 226.611 32.68 226.583 33.618C224.973 33.576 222.873 33.674 222.873 35.816C222.873 37.174 223.307 38.14 224.805 38.14C225.687 38.14 226.233 37.79 226.583 36.978H226.611V38ZM235.137 34.43C235.137 35.41 235.179 37.048 233.793 37.048C232.939 37.048 232.421 36.516 232.421 34.248C232.421 33.31 232.463 31.742 233.765 31.742C235.207 31.742 235.137 33.38 235.137 34.43ZM235.109 31.798H235.081C234.759 31.112 234.171 30.79 233.429 30.79C232.855 30.79 231.217 31 231.217 34.248C231.217 36.348 231.595 38 233.513 38C234.129 38 234.773 37.678 235.067 37.118H235.109V38.588C235.109 39.316 234.675 39.806 233.877 39.806C233.247 39.806 232.813 39.442 232.799 38.784H231.511C231.413 40.086 232.477 40.674 233.653 40.674C235.207 40.674 236.257 40.296 236.257 38.714V30.93H235.109V31.798ZM243.383 34.486C243.495 36.768 242.627 37.202 241.927 37.202C241.157 37.202 240.821 36.586 240.821 35.9C240.821 34.402 242.291 34.5 243.383 34.486ZM243.411 38H244.671C244.587 37.454 244.531 36.88 244.531 36.32V32.918C244.531 31.728 244.055 30.79 242.235 30.79C240.737 30.79 239.897 31.336 239.841 32.918H241.087C241.017 32.176 241.423 31.658 242.193 31.658C243.425 31.658 243.411 32.68 243.383 33.618C241.773 33.576 239.673 33.674 239.673 35.816C239.673 37.174 240.107 38.14 241.605 38.14C242.487 38.14 243.033 37.79 243.383 36.978H243.411V38ZM249.291 30.93H248.143V38H249.291V30.93ZM248.073 29.124H249.361V27.892H248.073V29.124ZM257.658 38V33.1C257.658 31.7 257.28 30.79 255.768 30.79C254.858 30.79 254.326 31.042 253.878 31.84H253.822V30.93H252.604C252.646 31.42 252.674 31.91 252.674 32.4V38H253.822V33.814C253.822 32.848 254.004 31.728 255.264 31.728C256.244 31.728 256.51 32.344 256.51 33.1V38H257.658ZM265.624 35.984C265.624 33.828 262.096 33.856 262.096 32.61C262.096 31.994 262.572 31.658 263.188 31.658C263.916 31.658 264.308 32.05 264.294 32.792H265.568C265.666 31.392 264.588 30.79 263.328 30.79C261.34 30.79 260.892 31.98 260.892 32.722C260.892 34.836 264.42 34.864 264.42 36.124C264.42 36.852 263.888 37.202 263.202 37.202C262.04 37.202 262.026 36.25 262.026 35.844H260.724C260.682 37.468 261.634 38.14 263.16 38.14C264.56 38.14 265.624 37.538 265.624 35.984ZM267.659 30.93V31.798H268.821V36.824C268.821 37.636 269.311 38.084 270.403 38.084C270.781 38.084 271.159 38 271.537 37.972V37.09C271.285 37.118 271.103 37.146 271.019 37.146C269.969 37.146 269.969 36.572 269.969 36.124V31.798H271.509V30.93H269.969V29.054L268.821 29.572V30.93H267.659ZM277.459 30.93V31.798H278.621V36.824C278.621 37.636 279.111 38.084 280.203 38.084C280.581 38.084 280.959 38 281.337 37.972V37.09C281.085 37.118 280.903 37.146 280.819 37.146C279.769 37.146 279.769 36.572 279.769 36.124V31.798H281.309V30.93H279.769V29.054L278.621 29.572V30.93H277.459ZM288.776 38V32.988C288.776 31.392 288.104 30.79 286.9 30.79C285.976 30.79 285.444 31.014 284.982 31.84H284.926V27.892H283.778V38H284.926V33.842C284.926 32.652 285.22 31.728 286.368 31.728C287.348 31.728 287.628 32.344 287.628 33.212V38H288.776ZM293.312 33.968C293.326 32.008 293.928 31.658 294.656 31.658C295.496 31.658 296.07 31.91 296.07 33.968H293.312ZM297.288 34.836V34.234C297.288 31.896 296.784 30.79 294.768 30.79C292.318 30.79 292.08 32.498 292.08 34.57C292.08 37.692 293.27 38.14 294.768 38.14C296.252 38.14 297.218 37.426 297.232 35.858H295.972C295.93 36.572 295.524 37.202 294.74 37.202C293.844 37.202 293.312 36.81 293.312 34.836H297.288ZM311.073 27.892V36.544H311.045L307.111 27.892H305.291V38H306.439V29.236H306.467L310.457 38H312.221V27.892H311.073ZM318.325 37.202C317.135 37.202 316.841 36.376 316.841 34.08C316.841 32.148 317.443 31.728 318.325 31.728C319.207 31.728 319.809 32.148 319.809 34.08C319.809 36.376 319.515 37.202 318.325 37.202ZM318.325 38.14C319.823 38.14 321.013 37.692 321.013 34.57C321.013 32.498 320.775 30.79 318.325 30.79C315.875 30.79 315.637 32.498 315.637 34.57C315.637 37.692 316.827 38.14 318.325 38.14ZM325.423 30.93H324.275V38H325.423V33.828C325.423 32.876 325.745 31.91 327.019 31.91C327.131 31.91 327.229 31.924 327.327 31.938C327.425 31.952 327.537 31.966 327.635 31.98V30.79C326.515 30.79 325.927 30.916 325.451 31.994H325.423V30.93ZM329.259 30.93V31.798H330.421V36.824C330.421 37.636 330.911 38.084 332.003 38.084C332.381 38.084 332.759 38 333.137 37.972V37.09C332.885 37.118 332.703 37.146 332.619 37.146C331.569 37.146 331.569 36.572 331.569 36.124V31.798H333.109V30.93H331.569V29.054L330.421 29.572V30.93H329.259ZM340.576 38V32.988C340.576 31.392 339.904 30.79 338.7 30.79C337.776 30.79 337.244 31.014 336.782 31.84H336.726V27.892H335.578V38H336.726V33.842C336.726 32.652 337.02 31.728 338.168 31.728C339.148 31.728 339.428 32.344 339.428 33.212V38H340.576ZM14.602 49.892H13.286L10.92 58.782H10.892L8.582 49.892H7.182L10.108 60H11.648L14.602 49.892ZM18.3073 52.93H17.1593V60H18.3073V52.93ZM17.0893 51.124H18.3773V49.892H17.0893V51.124ZM22.8108 55.968C22.8248 54.008 23.4268 53.658 24.1548 53.658C24.9948 53.658 25.5688 53.91 25.5688 55.968H22.8108ZM26.7868 56.836V56.234C26.7868 53.896 26.2828 52.79 24.2668 52.79C21.8168 52.79 21.5788 54.498 21.5788 56.57C21.5788 59.692 22.7688 60.14 24.2668 60.14C25.7508 60.14 26.7168 59.426 26.7308 57.858H25.4708C25.4288 58.572 25.0228 59.202 24.2388 59.202C23.3428 59.202 22.8108 58.81 22.8108 56.836H26.7868ZM29.0548 52.93V53.798H30.2168V58.824C30.2168 59.636 30.7068 60.084 31.7988 60.084C32.1768 60.084 32.5548 60 32.9328 59.972V59.09C32.6808 59.118 32.4988 59.146 32.4148 59.146C31.3648 59.146 31.3648 58.572 31.3648 58.124V53.798H32.9048V52.93H31.3648V51.054L30.2168 51.572V52.93H29.0548ZM40.3713 60V55.1C40.3713 53.7 39.9933 52.79 38.4813 52.79C37.5713 52.79 37.0393 53.042 36.5913 53.84H36.5353V52.93H35.3173C35.3593 53.42 35.3873 53.91 35.3873 54.4V60H36.5353V55.814C36.5353 54.848 36.7173 53.728 37.9773 53.728C38.9573 53.728 39.2233 54.344 39.2233 55.1V60H40.3713ZM47.3993 56.486C47.5113 58.768 46.6433 59.202 45.9433 59.202C45.1733 59.202 44.8373 58.586 44.8373 57.9C44.8373 56.402 46.3073 56.5 47.3993 56.486ZM47.4273 60H48.6873C48.6033 59.454 48.5473 58.88 48.5473 58.32V54.918C48.5473 53.728 48.0713 52.79 46.2513 52.79C44.7533 52.79 43.9133 53.336 43.8573 54.918H45.1033C45.0333 54.176 45.4393 53.658 46.2093 53.658C47.4413 53.658 47.4273 54.68 47.3993 55.618C45.7893 55.576 43.6893 55.674 43.6893 57.816C43.6893 59.174 44.1233 60.14 45.6213 60.14C46.5033 60.14 47.0493 59.79 47.3993 58.978H47.4273V60ZM56.8073 60V55.24C56.8073 54.974 56.8633 54.274 57.1993 53.994C57.5073 53.742 57.6333 53.728 58.0673 53.728C58.9913 53.728 59.1873 54.386 59.1873 55.1V60H60.3353V54.624C60.3353 52.958 59.1453 52.79 58.4033 52.79C57.7593 52.79 57.1153 52.944 56.7233 53.7C56.4573 53.056 55.7153 52.79 55.0713 52.79C54.2453 52.79 53.6433 53.056 53.3073 53.812H53.2793V52.93H52.0613C52.1033 53.42 52.1313 53.91 52.1313 54.4V60H53.2793V55.24C53.2793 54.974 53.3353 54.554 53.5453 54.204C53.7133 53.938 54.1893 53.728 54.5393 53.728C55.4633 53.728 55.6593 54.386 55.6593 55.1V60H56.8073ZM64.8108 55.968C64.8248 54.008 65.4268 53.658 66.1548 53.658C66.9948 53.658 67.5688 53.91 67.5688 55.968H64.8108ZM68.7868 56.836V56.234C68.7868 53.896 68.2828 52.79 66.2668 52.79C63.8168 52.79 63.5788 54.498 63.5788 56.57C63.5788 59.692 64.7688 60.14 66.2668 60.14C67.7508 60.14 68.7168 59.426 68.7308 57.858H67.4708C67.4288 58.572 67.0228 59.202 66.2388 59.202C65.3428 59.202 64.8108 58.81 64.8108 56.836H68.7868ZM76.6408 57.984C76.6408 55.828 73.1128 55.856 73.1128 54.61C73.1128 53.994 73.5888 53.658 74.2048 53.658C74.9328 53.658 75.3248 54.05 75.3108 54.792H76.5848C76.6828 53.392 75.6048 52.79 74.3448 52.79C72.3568 52.79 71.9088 53.98 71.9088 54.722C71.9088 56.836 75.4368 56.864 75.4368 58.124C75.4368 58.852 74.9048 59.202 74.2188 59.202C73.0568 59.202 73.0428 58.25 73.0428 57.844H71.7408C71.6988 59.468 72.6508 60.14 74.1768 60.14C75.5768 60.14 76.6408 59.538 76.6408 57.984ZM80.8315 55.968C80.8455 54.008 81.4475 53.658 82.1755 53.658C83.0155 53.658 83.5895 53.91 83.5895 55.968H80.8315ZM84.8075 56.836V56.234C84.8075 53.896 84.3035 52.79 82.2875 52.79C79.8375 52.79 79.5995 54.498 79.5995 56.57C79.5995 59.692 80.7895 60.14 82.2875 60.14C83.7715 60.14 84.7375 59.426 84.7515 57.858H83.4915C83.4495 58.572 83.0435 59.202 82.2595 59.202C81.3635 59.202 80.8315 58.81 80.8315 56.836H84.8075ZM89.3155 58.544H87.9995V60H89.3155V58.544ZM98.7005 49.892H97.4125V60H98.7005V49.892ZM101.379 52.93V53.798H102.541V58.824C102.541 59.636 103.031 60.084 104.123 60.084C104.501 60.084 104.879 60 105.257 59.972V59.09C105.005 59.118 104.823 59.146 104.739 59.146C103.689 59.146 103.689 58.572 103.689 58.124V53.798H105.229V52.93H103.689V51.054L102.541 51.572V52.93H101.379ZM114.791 59.202C113.517 59.202 113.461 57.704 113.461 56.766C113.461 55.688 113.335 53.728 114.749 53.728C116.191 53.728 116.191 55.282 116.191 56.346C116.191 58.236 116.023 59.202 114.791 59.202ZM113.461 52.93H112.313V62.674H113.461V59.286H113.503C113.895 59.846 114.385 60.14 115.057 60.14C117.339 60.14 117.395 58.11 117.395 56.346C117.395 53.238 116.247 52.79 115.113 52.79C114.371 52.79 113.881 53.112 113.489 53.77H113.461V52.93ZM121.735 49.892H120.587V60H121.735V49.892ZM128.731 56.486C128.843 58.768 127.975 59.202 127.275 59.202C126.505 59.202 126.169 58.586 126.169 57.9C126.169 56.402 127.639 56.5 128.731 56.486ZM128.759 60H130.019C129.935 59.454 129.879 58.88 129.879 58.32V54.918C129.879 53.728 129.403 52.79 127.583 52.79C126.085 52.79 125.245 53.336 125.189 54.918H126.435C126.365 54.176 126.771 53.658 127.541 53.658C128.773 53.658 128.759 54.68 128.731 55.618C127.121 55.576 125.021 55.674 125.021 57.816C125.021 59.174 125.455 60.14 126.953 60.14C127.835 60.14 128.381 59.79 128.731 58.978H128.759V60ZM133.953 52.93H132.623L135.017 60L134.219 62.674H135.409L138.615 52.93H137.369L135.675 58.684H135.647L133.953 52.93ZM142.259 55.968C142.273 54.008 142.875 53.658 143.603 53.658C144.443 53.658 145.017 53.91 145.017 55.968H142.259ZM146.235 56.836V56.234C146.235 53.896 145.731 52.79 143.715 52.79C141.265 52.79 141.027 54.498 141.027 56.57C141.027 59.692 142.217 60.14 143.715 60.14C145.199 60.14 146.165 59.426 146.179 57.858H144.919C144.877 58.572 144.471 59.202 143.687 59.202C142.791 59.202 142.259 58.81 142.259 56.836H146.235ZM153.277 56.178C153.277 57.606 153.277 59.202 151.989 59.202C150.547 59.202 150.547 57.662 150.547 56.598C150.547 54.708 150.715 53.728 151.947 53.728C153.221 53.728 153.277 55.24 153.277 56.178ZM153.277 53.644H153.235C152.843 53.084 152.353 52.79 151.681 52.79C149.399 52.79 149.343 54.82 149.343 56.584C149.343 59.692 150.491 60.14 151.625 60.14C152.367 60.14 152.857 59.818 153.249 59.16H153.277V60H154.425V49.892H153.277V53.644ZM166.181 56.178C166.181 57.606 166.181 59.202 164.893 59.202C163.451 59.202 163.451 57.662 163.451 56.598C163.451 54.708 163.619 53.728 164.851 53.728C166.125 53.728 166.181 55.24 166.181 56.178ZM166.181 53.644H166.139C165.747 53.084 165.257 52.79 164.585 52.79C162.303 52.79 162.247 54.82 162.247 56.584C162.247 59.692 163.395 60.14 164.529 60.14C165.271 60.14 165.761 59.818 166.153 59.16H166.181V60H167.329V49.892H166.181V53.644ZM171.963 55.968C171.977 54.008 172.579 53.658 173.307 53.658C174.147 53.658 174.721 53.91 174.721 55.968H171.963ZM175.939 56.836V56.234C175.939 53.896 175.435 52.79 173.419 52.79C170.969 52.79 170.731 54.498 170.731 56.57C170.731 59.692 171.921 60.14 173.419 60.14C174.903 60.14 175.869 59.426 175.883 57.858H174.623C174.581 58.572 174.175 59.202 173.391 59.202C172.495 59.202 171.963 58.81 171.963 56.836H175.939ZM180.363 55.968C180.377 54.008 180.979 53.658 181.707 53.658C182.547 53.658 183.121 53.91 183.121 55.968H180.363ZM184.339 56.836V56.234C184.339 53.896 183.835 52.79 181.819 52.79C179.369 52.79 179.131 54.498 179.131 56.57C179.131 59.692 180.321 60.14 181.819 60.14C183.303 60.14 184.269 59.426 184.283 57.858H183.023C182.981 58.572 182.575 59.202 181.791 59.202C180.895 59.202 180.363 58.81 180.363 56.836H184.339ZM190.219 59.202C188.945 59.202 188.889 57.704 188.889 56.766C188.889 55.688 188.763 53.728 190.177 53.728C191.619 53.728 191.619 55.282 191.619 56.346C191.619 58.236 191.451 59.202 190.219 59.202ZM188.889 52.93H187.741V62.674H188.889V59.286H188.931C189.323 59.846 189.813 60.14 190.485 60.14C192.767 60.14 192.823 58.11 192.823 56.346C192.823 53.238 191.675 52.79 190.541 52.79C189.799 52.79 189.309 53.112 188.917 53.77H188.889V52.93ZM197.163 49.892H196.015V60H197.163V49.892ZM200.98 52.93H199.65L202.044 60L201.246 62.674H202.436L205.642 52.93H204.396L202.702 58.684H202.674L200.98 52.93ZM215.163 59.202C213.973 59.202 213.679 58.376 213.679 56.08C213.679 54.148 214.281 53.728 215.163 53.728C216.045 53.728 216.647 54.148 216.647 56.08C216.647 58.376 216.353 59.202 215.163 59.202ZM215.163 60.14C216.661 60.14 217.851 59.692 217.851 56.57C217.851 54.498 217.613 52.79 215.163 52.79C212.713 52.79 212.475 54.498 212.475 56.57C212.475 59.692 213.665 60.14 215.163 60.14ZM226.055 60V55.1C226.055 53.7 225.677 52.79 224.165 52.79C223.255 52.79 222.723 53.042 222.275 53.84H222.219V52.93H221.001C221.043 53.42 221.071 53.91 221.071 54.4V60H222.219V55.814C222.219 54.848 222.401 53.728 223.66 53.728C224.641 53.728 224.907 54.344 224.907 55.1V60H226.055ZM232.938 52.93V53.798H234.1V58.824C234.1 59.636 234.59 60.084 235.682 60.084C236.06 60.084 236.438 60 236.816 59.972V59.09C236.564 59.118 236.382 59.146 236.298 59.146C235.248 59.146 235.248 58.572 235.248 58.124V53.798H236.788V52.93H235.248V51.054L234.1 51.572V52.93H232.938ZM244.254 60V54.988C244.254 53.392 243.582 52.79 242.378 52.79C241.454 52.79 240.922 53.014 240.46 53.84H240.404V49.892H239.256V60H240.404V55.842C240.404 54.652 240.698 53.728 241.846 53.728C242.826 53.728 243.106 54.344 243.106 55.212V60H244.254ZM248.791 55.968C248.805 54.008 249.407 53.658 250.135 53.658C250.975 53.658 251.549 53.91 251.549 55.968H248.791ZM252.767 56.836V56.234C252.767 53.896 252.263 52.79 250.247 52.79C247.797 52.79 247.559 54.498 247.559 56.57C247.559 59.692 248.749 60.14 250.247 60.14C251.731 60.14 252.697 59.426 252.711 57.858H251.451C251.409 58.572 251.003 59.202 250.219 59.202C249.323 59.202 248.791 58.81 248.791 56.836H252.767ZM267.168 49.892H265.852L263.486 58.782H263.458L261.148 49.892H259.748L262.674 60H264.214L267.168 49.892ZM270.873 52.93H269.725V60H270.873V52.93ZM269.655 51.124H270.943V49.892H269.655V51.124ZM275.377 55.968C275.391 54.008 275.993 53.658 276.721 53.658C277.561 53.658 278.135 53.91 278.135 55.968H275.377ZM279.353 56.836V56.234C279.353 53.896 278.849 52.79 276.833 52.79C274.383 52.79 274.145 54.498 274.145 56.57C274.145 59.692 275.335 60.14 276.833 60.14C278.317 60.14 279.283 59.426 279.297 57.858H278.037C277.995 58.572 277.589 59.202 276.805 59.202C275.909 59.202 275.377 58.81 275.377 56.836H279.353ZM281.621 52.93V53.798H282.783V58.824C282.783 59.636 283.273 60.084 284.365 60.084C284.743 60.084 285.121 60 285.499 59.972V59.09C285.247 59.118 285.065 59.146 284.981 59.146C283.931 59.146 283.931 58.572 283.931 58.124V53.798H285.471V52.93H283.931V51.054L282.783 51.572V52.93H281.621ZM292.937 60V55.1C292.937 53.7 292.559 52.79 291.047 52.79C290.137 52.79 289.605 53.042 289.157 53.84H289.101V52.93H287.883C287.925 53.42 287.953 53.91 287.953 54.4V60H289.101V55.814C289.101 54.848 289.283 53.728 290.543 53.728C291.523 53.728 291.789 54.344 291.789 55.1V60H292.937ZM299.965 56.486C300.077 58.768 299.209 59.202 298.509 59.202C297.739 59.202 297.403 58.586 297.403 57.9C297.403 56.402 298.873 56.5 299.965 56.486ZM299.993 60H301.253C301.169 59.454 301.113 58.88 301.113 58.32V54.918C301.113 53.728 300.637 52.79 298.817 52.79C297.319 52.79 296.479 53.336 296.423 54.918H297.669C297.599 54.176 298.005 53.658 298.775 53.658C300.007 53.658 299.993 54.68 299.965 55.618C298.355 55.576 296.255 55.674 296.255 57.816C296.255 59.174 296.689 60.14 298.187 60.14C299.069 60.14 299.615 59.79 299.965 58.978H299.993V60ZM309.373 60V55.24C309.373 54.974 309.429 54.274 309.765 53.994C310.073 53.742 310.199 53.728 310.633 53.728C311.557 53.728 311.753 54.386 311.753 55.1V60H312.901V54.624C312.901 52.958 311.711 52.79 310.969 52.79C310.325 52.79 309.681 52.944 309.289 53.7C309.023 53.056 308.281 52.79 307.637 52.79C306.811 52.79 306.209 53.056 305.873 53.812H305.845V52.93H304.627C304.669 53.42 304.697 53.91 304.697 54.4V60H305.845V55.24C305.845 54.974 305.901 54.554 306.111 54.204C306.279 53.938 306.755 53.728 307.105 53.728C308.029 53.728 308.225 54.386 308.225 55.1V60H309.373ZM317.377 55.968C317.391 54.008 317.993 53.658 318.721 53.658C319.561 53.658 320.135 53.91 320.135 55.968H317.377ZM321.353 56.836V56.234C321.353 53.896 320.849 52.79 318.833 52.79C316.383 52.79 316.145 54.498 316.145 56.57C316.145 59.692 317.335 60.14 318.833 60.14C320.317 60.14 321.283 59.426 321.297 57.858H320.037C319.995 58.572 319.589 59.202 318.805 59.202C317.909 59.202 317.377 58.81 317.377 56.836H321.353ZM329.207 57.984C329.207 55.828 325.679 55.856 325.679 54.61C325.679 53.994 326.155 53.658 326.771 53.658C327.499 53.658 327.891 54.05 327.877 54.792H329.151C329.249 53.392 328.171 52.79 326.911 52.79C324.923 52.79 324.475 53.98 324.475 54.722C324.475 56.836 328.003 56.864 328.003 58.124C328.003 58.852 327.471 59.202 326.785 59.202C325.623 59.202 325.609 58.25 325.609 57.844H324.307C324.265 59.468 325.217 60.14 326.743 60.14C328.143 60.14 329.207 59.538 329.207 57.984ZM333.398 55.968C333.412 54.008 334.014 53.658 334.742 53.658C335.582 53.658 336.156 53.91 336.156 55.968H333.398ZM337.374 56.836V56.234C337.374 53.896 336.87 52.79 334.854 52.79C332.404 52.79 332.166 54.498 332.166 56.57C332.166 59.692 333.356 60.14 334.854 60.14C336.338 60.14 337.304 59.426 337.318 57.858H336.058C336.016 58.572 335.61 59.202 334.826 59.202C333.93 59.202 333.398 58.81 333.398 56.836H337.374ZM346.427 56.178C346.427 55.24 346.483 53.728 347.757 53.728C348.989 53.728 349.157 54.708 349.157 56.598C349.157 57.662 349.157 59.202 347.715 59.202C346.301 59.202 346.427 57.256 346.427 56.178ZM346.427 59.16H346.455C346.847 59.818 347.337 60.14 348.079 60.14C349.213 60.14 350.361 59.692 350.361 56.584C350.361 54.82 350.305 52.79 348.023 52.79C347.351 52.79 346.861 53.084 346.469 53.644H346.427V49.892H345.279V60H346.427V59.16ZM354.701 55.968C354.715 54.008 355.317 53.658 356.045 53.658C356.885 53.658 357.459 53.91 357.459 55.968H354.701ZM358.677 56.836V56.234C358.677 53.896 358.173 52.79 356.157 52.79C353.707 52.79 353.469 54.498 353.469 56.57C353.469 59.692 354.659 60.14 356.157 60.14C357.641 60.14 358.607 59.426 358.621 57.858H357.361C357.319 58.572 356.913 59.202 356.129 59.202C355.233 59.202 354.701 58.81 354.701 56.836H358.677ZM363.101 49.892H361.953V60H363.101V49.892ZM367.605 52.93H366.457V60H367.605V52.93ZM366.387 51.124H367.675V49.892H366.387V51.124ZM372.108 55.968C372.122 54.008 372.724 53.658 373.452 53.658C374.292 53.658 374.866 53.91 374.866 55.968H372.108ZM376.084 56.836V56.234C376.084 53.896 375.58 52.79 373.564 52.79C371.114 52.79 370.876 54.498 370.876 56.57C370.876 59.692 372.066 60.14 373.564 60.14C375.048 60.14 376.014 59.426 376.028 57.858H374.768C374.726 58.572 374.32 59.202 373.536 59.202C372.64 59.202 372.108 58.81 372.108 56.836H376.084ZM378.506 52.93V53.798H379.598V60H380.746V53.798H382.174V52.93H380.746V51.726C380.746 51.152 380.956 50.634 382.174 50.718V49.892C382.006 49.864 381.866 49.85 381.628 49.85C380.606 49.85 379.598 50.13 379.598 51.558V52.93H378.506ZM391.68 59.202C390.49 59.202 390.196 58.376 390.196 56.08C390.196 54.148 390.798 53.728 391.68 53.728C392.562 53.728 393.164 54.148 393.164 56.08C393.164 58.376 392.87 59.202 391.68 59.202ZM391.68 60.14C393.178 60.14 394.368 59.692 394.368 56.57C394.368 54.498 394.13 52.79 391.68 52.79C389.23 52.79 388.992 54.498 388.992 56.57C388.992 59.692 390.182 60.14 391.68 60.14ZM396.706 52.93V53.798H397.798V60H398.946V53.798H400.374V52.93H398.946V51.726C398.946 51.152 399.156 50.634 400.374 50.718V49.892C400.206 49.864 400.066 49.85 399.828 49.85C398.806 49.85 397.798 50.13 397.798 51.558V52.93H396.706ZM11.62 78.486C11.732 80.768 10.864 81.202 10.164 81.202C9.394 81.202 9.058 80.586 9.058 79.9C9.058 78.402 10.528 78.5 11.62 78.486ZM11.648 82H12.908C12.824 81.454 12.768 80.88 12.768 80.32V76.918C12.768 75.728 12.292 74.79 10.472 74.79C8.974 74.79 8.134 75.336 8.078 76.918H9.324C9.254 76.176 9.66 75.658 10.43 75.658C11.662 75.658 11.648 76.68 11.62 77.618C10.01 77.576 7.91 77.674 7.91 79.816C7.91 81.174 8.344 82.14 9.842 82.14C10.724 82.14 11.27 81.79 11.62 80.978H11.648V82ZM21.392 82V77.1C21.392 75.7 21.014 74.79 19.502 74.79C18.592 74.79 18.06 75.042 17.612 75.84H17.556V74.93H16.338C16.38 75.42 16.408 75.91 16.408 76.4V82H17.556V77.814C17.556 76.848 17.738 75.728 18.998 75.728C19.978 75.728 20.244 76.344 20.244 77.1V82H21.392ZM29.694 77.198C29.764 75.616 28.938 74.79 27.524 74.79C25.074 74.79 24.836 76.498 24.836 78.57C24.836 81.692 26.026 82.14 27.524 82.14C28.308 82.14 29.792 81.636 29.75 79.648H28.546C28.588 80.922 27.79 81.202 27.524 81.202C26.334 81.202 26.04 80.376 26.04 78.08C26.04 76.148 26.642 75.728 27.524 75.728C27.958 75.728 28.532 76.036 28.504 77.198H29.694ZM34.328 77.968C34.342 76.008 34.944 75.658 35.672 75.658C36.512 75.658 37.086 75.91 37.086 77.968H34.328ZM38.304 78.836V78.234C38.304 75.896 37.8 74.79 35.784 74.79C33.334 74.79 33.096 76.498 33.096 78.57C33.096 81.692 34.286 82.14 35.784 82.14C37.268 82.14 38.234 81.426 38.248 79.858H36.988C36.946 80.572 36.54 81.202 35.756 81.202C34.86 81.202 34.328 80.81 34.328 78.836H38.304ZM46.158 79.984C46.158 77.828 42.63 77.856 42.63 76.61C42.63 75.994 43.106 75.658 43.722 75.658C44.45 75.658 44.842 76.05 44.828 76.792H46.102C46.2 75.392 45.122 74.79 43.862 74.79C41.874 74.79 41.426 75.98 41.426 76.722C41.426 78.836 44.954 78.864 44.954 80.124C44.954 80.852 44.422 81.202 43.736 81.202C42.574 81.202 42.56 80.25 42.56 79.844H41.258C41.216 81.468 42.168 82.14 43.694 82.14C45.094 82.14 46.158 81.538 46.158 79.984ZM48.1927 74.93V75.798H49.3547V80.824C49.3547 81.636 49.8447 82.084 50.9367 82.084C51.3147 82.084 51.6927 82 52.0707 81.972V81.09C51.8187 81.118 51.6367 81.146 51.5527 81.146C50.5027 81.146 50.5027 80.572 50.5027 80.124V75.798H52.0427V74.93H50.5027V73.054L49.3547 73.572V74.93H48.1927ZM57.0172 81.202C55.8272 81.202 55.5332 80.376 55.5332 78.08C55.5332 76.148 56.1352 75.728 57.0172 75.728C57.8992 75.728 58.5012 76.148 58.5012 78.08C58.5012 80.376 58.2072 81.202 57.0172 81.202ZM57.0172 82.14C58.5152 82.14 59.7052 81.692 59.7052 78.57C59.7052 76.498 59.4672 74.79 57.0172 74.79C54.5672 74.79 54.3292 76.498 54.3292 78.57C54.3292 81.692 55.5192 82.14 57.0172 82.14ZM64.1152 74.93H62.9672V82H64.1152V77.828C64.1152 76.876 64.4372 75.91 65.7112 75.91C65.8232 75.91 65.9212 75.924 66.0192 75.938C66.1172 75.952 66.2292 75.966 66.3272 75.98V74.79C65.2072 74.79 64.6192 74.916 64.1432 75.994H64.1152V74.93ZM74.3728 82H75.9128L77.4948 75.98H77.5228L79.0348 82H80.5748L82.4648 74.93H81.2468L79.8468 81.02H79.8188L78.3768 74.93H76.7528L75.1848 81.02H75.1568L73.8828 74.93H72.6088L74.3728 82ZM87.4863 81.202C86.2963 81.202 86.0023 80.376 86.0023 78.08C86.0023 76.148 86.6043 75.728 87.4863 75.728C88.3683 75.728 88.9703 76.148 88.9703 78.08C88.9703 80.376 88.6763 81.202 87.4863 81.202ZM87.4863 82.14C88.9843 82.14 90.1743 81.692 90.1743 78.57C90.1743 76.498 89.9363 74.79 87.4863 74.79C85.0363 74.79 84.7983 76.498 84.7983 78.57C84.7983 81.692 85.9883 82.14 87.4863 82.14ZM94.5843 74.93H93.4363V82H94.5843V77.828C94.5843 76.876 94.9063 75.91 96.1803 75.91C96.2923 75.91 96.3903 75.924 96.4883 75.938C96.5863 75.952 96.6983 75.966 96.7963 75.98V74.79C95.6763 74.79 95.0883 74.916 94.6123 75.994H94.5843V74.93ZM104.006 79.984C104.006 77.828 100.478 77.856 100.478 76.61C100.478 75.994 100.954 75.658 101.57 75.658C102.298 75.658 102.69 76.05 102.676 76.792H103.95C104.048 75.392 102.97 74.79 101.71 74.79C99.7224 74.79 99.2744 75.98 99.2744 76.722C99.2744 78.836 102.802 78.864 102.802 80.124C102.802 80.852 102.27 81.202 101.584 81.202C100.422 81.202 100.408 80.25 100.408 79.844H99.1064C99.0644 81.468 100.016 82.14 101.542 82.14C102.942 82.14 104.006 81.538 104.006 79.984ZM112.061 82V76.988C112.061 75.392 111.389 74.79 110.185 74.79C109.261 74.79 108.729 75.014 108.267 75.84H108.211V71.892H107.063V82H108.211V77.842C108.211 76.652 108.505 75.728 109.653 75.728C110.633 75.728 110.913 76.344 110.913 77.212V82H112.061ZM116.597 74.93H115.449V82H116.597V74.93ZM115.379 73.124H116.667V71.892H115.379V73.124ZM122.557 81.202C121.283 81.202 121.227 79.704 121.227 78.766C121.227 77.688 121.101 75.728 122.515 75.728C123.957 75.728 123.957 77.282 123.957 78.346C123.957 80.236 123.789 81.202 122.557 81.202ZM121.227 74.93H120.079V84.674H121.227V81.286H121.269C121.661 81.846 122.151 82.14 122.823 82.14C125.105 82.14 125.161 80.11 125.161 78.346C125.161 75.238 124.013 74.79 122.879 74.79C122.137 74.79 121.647 75.112 121.255 75.77H121.227V74.93ZM127.849 83.778H128.745L130.019 80.544H128.577L127.849 83.778ZM141.938 79.984C141.938 77.828 138.41 77.856 138.41 76.61C138.41 75.994 138.886 75.658 139.502 75.658C140.23 75.658 140.622 76.05 140.608 76.792H141.882C141.98 75.392 140.902 74.79 139.642 74.79C137.654 74.79 137.206 75.98 137.206 76.722C137.206 78.836 140.734 78.864 140.734 80.124C140.734 80.852 140.202 81.202 139.516 81.202C138.354 81.202 138.34 80.25 138.34 79.844H137.038C136.996 81.468 137.948 82.14 139.474 82.14C140.874 82.14 141.938 81.538 141.938 79.984ZM147.584 81.202C146.31 81.202 146.254 79.704 146.254 78.766C146.254 77.688 146.128 75.728 147.542 75.728C148.984 75.728 148.984 77.282 148.984 78.346C148.984 80.236 148.816 81.202 147.584 81.202ZM146.254 74.93H145.106V84.674H146.254V81.286H146.296C146.688 81.846 147.178 82.14 147.85 82.14C150.132 82.14 150.188 80.11 150.188 78.346C150.188 75.238 149.04 74.79 147.906 74.79C147.164 74.79 146.674 75.112 146.282 75.77H146.254V74.93ZM154.528 74.93H153.38V82H154.528V74.93ZM153.31 73.124H154.598V71.892H153.31V73.124ZM159.102 74.93H157.954V82H159.102V77.828C159.102 76.876 159.424 75.91 160.698 75.91C160.81 75.91 160.908 75.924 161.006 75.938C161.104 75.952 161.216 75.966 161.314 75.98V74.79C160.194 74.79 159.606 74.916 159.13 75.994H159.102V74.93ZM165.094 74.93H163.946V82H165.094V74.93ZM163.876 73.124H165.164V71.892H163.876V73.124ZM167.442 74.93V75.798H168.604V80.824C168.604 81.636 169.094 82.084 170.186 82.084C170.564 82.084 170.942 82 171.32 81.972V81.09C171.068 81.118 170.886 81.146 170.802 81.146C169.752 81.146 169.752 80.572 169.752 80.124V75.798H171.292V74.93H169.752V73.054L168.604 73.572V74.93H167.442ZM178.324 79.984C178.324 77.828 174.796 77.856 174.796 76.61C174.796 75.994 175.272 75.658 175.888 75.658C176.616 75.658 177.008 76.05 176.994 76.792H178.268C178.366 75.392 177.288 74.79 176.028 74.79C174.04 74.79 173.592 75.98 173.592 76.722C173.592 78.836 177.12 78.864 177.12 80.124C177.12 80.852 176.588 81.202 175.902 81.202C174.74 81.202 174.726 80.25 174.726 79.844H173.424C173.382 81.468 174.334 82.14 175.86 82.14C177.26 82.14 178.324 81.538 178.324 79.984ZM189.51 78.486C189.622 80.768 188.754 81.202 188.054 81.202C187.284 81.202 186.948 80.586 186.948 79.9C186.948 78.402 188.418 78.5 189.51 78.486ZM189.538 82H190.798C190.714 81.454 190.658 80.88 190.658 80.32V76.918C190.658 75.728 190.182 74.79 188.362 74.79C186.864 74.79 186.024 75.336 185.968 76.918H187.214C187.144 76.176 187.55 75.658 188.32 75.658C189.552 75.658 189.538 76.68 189.51 77.618C187.9 77.576 185.8 77.674 185.8 79.816C185.8 81.174 186.234 82.14 187.732 82.14C188.614 82.14 189.16 81.79 189.51 80.978H189.538V82ZM199.282 82V77.1C199.282 75.7 198.904 74.79 197.392 74.79C196.482 74.79 195.95 75.042 195.502 75.84H195.446V74.93H194.228C194.27 75.42 194.298 75.91 194.298 76.4V82H195.446V77.814C195.446 76.848 195.628 75.728 196.888 75.728C197.868 75.728 198.134 76.344 198.134 77.1V82H199.282ZM206.436 78.178C206.436 79.606 206.436 81.202 205.148 81.202C203.706 81.202 203.706 79.662 203.706 78.598C203.706 76.708 203.874 75.728 205.106 75.728C206.38 75.728 206.436 77.24 206.436 78.178ZM206.436 75.644H206.394C206.002 75.084 205.512 74.79 204.84 74.79C202.558 74.79 202.502 76.82 202.502 78.584C202.502 81.692 203.65 82.14 204.784 82.14C205.526 82.14 206.016 81.818 206.408 81.16H206.436V82H207.584V71.892H206.436V75.644ZM214.566 74.93V75.798H215.728V80.824C215.728 81.636 216.218 82.084 217.31 82.084C217.688 82.084 218.066 82 218.444 81.972V81.09C218.192 81.118 218.01 81.146 217.926 81.146C216.876 81.146 216.876 80.572 216.876 80.124V75.798H218.416V74.93H216.876V73.054L215.728 73.572V74.93H214.566ZM225.882 82V76.988C225.882 75.392 225.21 74.79 224.006 74.79C223.082 74.79 222.55 75.014 222.088 75.84H222.032V71.892H220.884V82H222.032V77.842C222.032 76.652 222.326 75.728 223.474 75.728C224.454 75.728 224.734 76.344 224.734 77.212V82H225.882ZM230.418 77.968C230.432 76.008 231.034 75.658 231.762 75.658C232.602 75.658 233.176 75.91 233.176 77.968H230.418ZM234.394 78.836V78.234C234.394 75.896 233.89 74.79 231.874 74.79C229.424 74.79 229.186 76.498 229.186 78.57C229.186 81.692 230.376 82.14 231.874 82.14C233.358 82.14 234.324 81.426 234.338 79.858H233.078C233.036 80.572 232.63 81.202 231.846 81.202C230.95 81.202 230.418 80.81 230.418 78.836H234.394ZM245.814 78.486C245.926 80.768 245.058 81.202 244.358 81.202C243.588 81.202 243.252 80.586 243.252 79.9C243.252 78.402 244.722 78.5 245.814 78.486ZM245.842 82H247.102C247.018 81.454 246.962 80.88 246.962 80.32V76.918C246.962 75.728 246.486 74.79 244.666 74.79C243.168 74.79 242.328 75.336 242.272 76.918H243.518C243.448 76.176 243.854 75.658 244.624 75.658C245.856 75.658 245.842 76.68 245.814 77.618C244.204 77.576 242.104 77.674 242.104 79.816C242.104 81.174 242.538 82.14 244.036 82.14C244.918 82.14 245.464 81.79 245.814 80.978H245.842V82ZM249.72 74.93V75.798H250.812V82H251.96V75.798H253.388V74.93H251.96V73.726C251.96 73.152 252.17 72.634 253.388 72.718V71.892C253.22 71.864 253.08 71.85 252.842 71.85C251.82 71.85 250.812 72.13 250.812 73.558V74.93H249.72ZM254.862 74.93V75.798H256.024V80.824C256.024 81.636 256.514 82.084 257.606 82.084C257.984 82.084 258.362 82 258.74 81.972V81.09C258.488 81.118 258.306 81.146 258.222 81.146C257.172 81.146 257.172 80.572 257.172 80.124V75.798H258.712V74.93H257.172V73.054L256.024 73.572V74.93H254.862ZM262.315 77.968C262.329 76.008 262.931 75.658 263.659 75.658C264.499 75.658 265.073 75.91 265.073 77.968H262.315ZM266.291 78.836V78.234C266.291 75.896 265.787 74.79 263.771 74.79C261.321 74.79 261.083 76.498 261.083 78.57C261.083 81.692 262.273 82.14 263.771 82.14C265.255 82.14 266.221 81.426 266.235 79.858H264.975C264.933 80.572 264.527 81.202 263.743 81.202C262.847 81.202 262.315 80.81 262.315 78.836H266.291ZM270.785 74.93H269.637V82H270.785V77.828C270.785 76.876 271.107 75.91 272.381 75.91C272.493 75.91 272.591 75.924 272.689 75.938C272.787 75.952 272.899 75.966 272.997 75.98V74.79C271.877 74.79 271.289 74.916 270.813 75.994H270.785V74.93ZM276.777 71.892H275.629V82H276.777V71.892ZM281.28 74.93H280.132V82H281.28V74.93ZM280.062 73.124H281.35V71.892H280.062V73.124ZM283.782 74.93V75.798H284.874V82H286.022V75.798H287.45V74.93H286.022V73.726C286.022 73.152 286.232 72.634 287.45 72.718V71.892C287.282 71.864 287.142 71.85 286.904 71.85C285.882 71.85 284.874 72.13 284.874 73.558V74.93H283.782ZM291.08 77.968C291.094 76.008 291.696 75.658 292.424 75.658C293.264 75.658 293.838 75.91 293.838 77.968H291.08ZM295.056 78.836V78.234C295.056 75.896 294.552 74.79 292.536 74.79C290.086 74.79 289.848 76.498 289.848 78.57C289.848 81.692 291.038 82.14 292.536 82.14C294.02 82.14 294.986 81.426 295 79.858H293.74C293.698 80.572 293.292 81.202 292.508 81.202C291.612 81.202 291.08 80.81 291.08 78.836H295.056ZM299.564 80.544H298.248V82H299.564V80.544Z" fill="white"/>
</svg>
