<svg width="360" height="33" viewBox="0 0 360 33" fill="none" xmlns="http://www.w3.org/2000/svg">
<rect width="360" height="33" fill="black" fill-opacity="0.69"/>
<path d="M8.89 21V11.76H8.918L11.97 21H13.006L15.974 11.76H16.002V21H16.898V10.892H15.47L12.53 20.02H12.502L9.52 10.892H7.994V21H8.89ZM22.4045 21.14C24.0565 21.14 24.8405 20.062 24.8405 18.228V16.702C24.8405 14.868 24.0565 13.79 22.4045 13.79C20.7525 13.79 19.9685 14.868 19.9685 16.702V18.228C19.9685 20.062 20.7525 21.14 22.4045 21.14ZM22.4045 14.462C23.7905 14.462 24.0005 15.624 24.0005 17.458C24.0005 19.306 23.7905 20.468 22.4045 20.468C21.0185 20.468 20.8085 19.306 20.8085 17.458C20.8085 15.624 21.0185 14.462 22.4045 14.462ZM31.7332 19.138C31.7332 16.772 28.5552 17.248 28.5552 15.484C28.5552 14.854 29.0312 14.462 29.6332 14.462C30.5852 14.462 30.8232 14.938 30.8652 15.834H31.6912C31.6912 14.756 31.2432 13.79 29.8432 13.79C28.6112 13.79 27.7152 14.252 27.7152 15.554C27.7152 17.892 30.8932 17.416 30.8932 19.264C30.8932 20.048 30.5012 20.51 29.6892 20.51C28.6112 20.51 28.3872 19.866 28.3872 18.9H27.5332C27.5192 20.398 28.1212 21.14 29.6472 21.14C30.9632 21.14 31.7332 20.468 31.7332 19.138ZM35.1166 14.602V19.656C35.1166 20.524 35.4526 21.028 36.5866 21.028C36.8526 21.028 37.1326 21.014 37.3846 20.986V20.258C37.2026 20.286 37.0066 20.3 36.7266 20.3C36.0546 20.3 35.9566 20.076 35.9566 19.138V14.602H37.3846V13.93H35.9566V12.11L35.1166 12.474V13.93H33.9826V14.602H35.1166ZM46.9326 10.892L43.7406 21H44.6366L45.4346 18.34H49.3966L50.2086 21H51.1466L47.9966 10.892H46.9326ZM45.7006 17.584L47.4086 11.872H47.4366L49.1586 17.584H45.7006ZM54.4879 13.93H53.6479V21H54.4879V16.45C54.4879 15.26 55.2719 14.546 56.4619 14.644V13.79C55.6079 13.79 54.8659 14.21 54.5159 14.882H54.4879V13.93ZM59.7144 16.45C59.7144 15.526 60.1204 14.462 61.1844 14.462C62.0104 14.462 62.2624 15.246 62.2764 15.946V21H63.1164V16.45C63.1164 15.526 63.5224 14.462 64.5864 14.462C65.4124 14.462 65.6644 15.246 65.6784 15.946V21H66.5184V15.736C66.4764 14.602 65.8604 13.79 64.6844 13.79C63.9004 13.79 63.2984 14.196 62.9484 14.896C62.7104 14.196 62.0664 13.79 61.3384 13.79C60.5544 13.79 59.9944 14.224 59.6584 14.798H59.6304V13.916H58.8744V21H59.7144V16.45ZM74.3163 17.64C74.3163 15.54 74.3163 13.79 71.8803 13.79C70.2983 13.79 69.4443 14.728 69.4443 16.772V18.508C69.4443 20.65 70.6623 21.14 71.8803 21.14C73.2943 21.14 74.2183 20.552 74.3163 18.844H73.4343C73.4483 19.796 72.9303 20.468 71.8803 20.468C70.5503 20.468 70.2843 19.166 70.2843 18.186V17.64H74.3163ZM70.2843 16.968C70.2843 15.4 70.5363 14.462 71.8803 14.462C73.2243 14.462 73.4763 15.4 73.4763 16.968H70.2843ZM79.361 20.468C78.451 20.468 77.821 20.118 77.821 17.486C77.821 15.834 77.821 14.462 79.333 14.462C80.915 14.462 80.915 16.422 80.915 16.842V18.102C80.915 19.824 80.159 20.468 79.361 20.468ZM80.999 21H81.811C81.769 20.762 81.727 20.3 81.727 19.6V10.892H80.887V14.644L80.859 14.63C80.425 14.084 79.795 13.79 79.151 13.79C76.981 13.79 76.981 16.1 76.981 17.458C76.981 19.11 77.093 21.14 79.137 21.14C79.963 21.14 80.495 20.79 80.929 20.118L80.957 20.104L80.999 21ZM90.4072 21V11.76H90.4352L93.4872 21H94.5232L97.4912 11.76H97.5192V21H98.4152V10.892H96.9872L94.0472 20.02H94.0192L91.0372 10.892H89.5112V21H90.4072ZM105.266 18.676C105.266 19.6 104.482 20.468 103.516 20.468C102.648 20.468 102.242 19.81 102.242 19.012C102.242 17.29 104.062 17.43 105.266 17.388V18.676ZM105.322 21H106.19C106.106 20.174 106.106 19.726 106.106 19.222V15.666C106.106 13.86 104.622 13.79 103.908 13.79C102.676 13.79 101.626 14.322 101.556 15.68H102.452C102.452 14.84 103.068 14.462 103.838 14.462C104.958 14.462 105.266 15.092 105.266 16.128V16.716C103.838 16.828 101.346 16.576 101.346 19.054C101.346 20.286 102.032 21.14 103.292 21.14C104.16 21.14 104.846 20.804 105.294 20.132H105.322V21ZM110.128 16.562C110.128 14.98 110.898 14.462 111.654 14.462C112.634 14.462 112.956 15.232 112.956 16.058V21H113.796V16.016C113.796 15.092 113.614 13.79 111.864 13.79C111.108 13.79 110.562 14.21 110.156 14.798H110.128V13.93H109.288V21H110.128V16.562ZM122.533 21V13.93H121.693V21H122.533ZM122.631 11.956V10.892H121.595V11.956H122.631ZM126.756 16.562C126.756 14.98 127.526 14.462 128.282 14.462C129.262 14.462 129.584 15.232 129.584 16.058V21H130.424V16.016C130.424 15.092 130.242 13.79 128.492 13.79C127.736 13.79 127.19 14.21 126.784 14.798H126.756V13.93H125.916V21H126.756V16.562ZM140.56 10.892L137.368 21H138.264L139.062 18.34H143.024L143.836 21H144.774L141.624 10.892H140.56ZM139.328 17.584L141.036 11.872H141.064L142.786 17.584H139.328ZM148.046 16.45C148.046 15.526 148.452 14.462 149.516 14.462C150.342 14.462 150.594 15.246 150.608 15.946V21H151.448V16.45C151.448 15.526 151.854 14.462 152.918 14.462C153.744 14.462 153.996 15.246 154.01 15.946V21H154.85V15.736C154.808 14.602 154.192 13.79 153.016 13.79C152.232 13.79 151.63 14.196 151.28 14.896C151.042 14.196 150.398 13.79 149.67 13.79C148.886 13.79 148.326 14.224 147.99 14.798H147.962V13.916H147.206V21H148.046V16.45ZM162.648 17.64C162.648 15.54 162.648 13.79 160.212 13.79C158.63 13.79 157.776 14.728 157.776 16.772V18.508C157.776 20.65 158.994 21.14 160.212 21.14C161.626 21.14 162.55 20.552 162.648 18.844H161.766C161.78 19.796 161.262 20.468 160.212 20.468C158.882 20.468 158.616 19.166 158.616 18.186V17.64H162.648ZM158.616 16.968C158.616 15.4 158.868 14.462 160.212 14.462C161.556 14.462 161.808 15.4 161.808 16.968H158.616ZM166.474 13.93H165.634V21H166.474V16.45C166.474 15.26 167.258 14.546 168.448 14.644V13.79C167.594 13.79 166.852 14.21 166.502 14.882H166.474V13.93ZM171.995 21V13.93H171.155V21H171.995ZM172.093 11.956V10.892H171.057V11.956H172.093ZM179.368 15.96C179.438 14.476 178.612 13.79 177.394 13.79C176.428 13.79 175.63 14.154 175.266 15.162C175.084 15.694 175.056 16.8 175.056 17.5C175.056 19.25 175.056 21.14 177.45 21.14C178.108 21.14 179.452 20.818 179.382 18.914H178.542C178.5 19.768 178.36 20.468 177.254 20.468C175.952 20.468 175.952 18.774 175.952 17.5C175.952 16.562 176.036 15.596 176.148 15.274C176.33 14.756 176.764 14.462 177.282 14.462C178.248 14.462 178.57 15.078 178.528 15.96H179.368ZM185.818 18.676C185.818 19.6 185.034 20.468 184.068 20.468C183.2 20.468 182.794 19.81 182.794 19.012C182.794 17.29 184.614 17.43 185.818 17.388V18.676ZM185.874 21H186.742C186.658 20.174 186.658 19.726 186.658 19.222V15.666C186.658 13.86 185.174 13.79 184.46 13.79C183.228 13.79 182.178 14.322 182.108 15.68H183.004C183.004 14.84 183.62 14.462 184.39 14.462C185.51 14.462 185.818 15.092 185.818 16.128V16.716C184.39 16.828 181.898 16.576 181.898 19.054C181.898 20.286 182.584 21.14 183.844 21.14C184.712 21.14 185.398 20.804 185.846 20.132H185.874V21ZM196.598 21.14C198.25 21.14 199.034 20.062 199.034 18.228V16.702C199.034 14.868 198.25 13.79 196.598 13.79C194.946 13.79 194.162 14.868 194.162 16.702V18.228C194.162 20.062 194.946 21.14 196.598 21.14ZM196.598 14.462C197.984 14.462 198.194 15.624 198.194 17.458C198.194 19.306 197.984 20.468 196.598 20.468C195.212 20.468 195.002 19.306 195.002 17.458C195.002 15.624 195.212 14.462 196.598 14.462ZM202.805 16.562C202.805 14.98 203.575 14.462 204.331 14.462C205.311 14.462 205.633 15.232 205.633 16.058V21H206.473V16.016C206.473 15.092 206.291 13.79 204.541 13.79C203.785 13.79 203.239 14.21 202.833 14.798H202.805V13.93H201.965V21H202.805V16.562ZM219.017 20.146C218.541 20.328 217.897 20.44 217.127 20.44C214.943 20.44 214.971 18.494 214.971 15.946C214.971 13.398 214.943 11.452 217.127 11.452C218.541 11.452 219.115 12.152 219.115 13.482H220.011C220.053 11.522 219.059 10.696 217.127 10.696C213.837 10.696 214.075 13.986 214.075 15.946C214.075 17.906 213.837 21.196 217.127 21.196C218.079 21.196 219.017 21.056 219.913 20.776V15.722H216.973V16.478H219.017V20.146ZM226.88 13.93V18.914C226.88 19.404 226.474 20.468 225.34 20.468C224.122 20.468 224.164 18.984 224.164 18.788V13.93H223.324V18.928C223.324 20.076 223.73 21.14 225.186 21.14C225.97 21.14 226.474 20.818 226.964 20.216H226.992V21H227.72V13.93H226.88ZM231.729 16.562C231.729 14.98 232.499 14.462 233.255 14.462C234.235 14.462 234.557 15.232 234.557 16.058V21H235.397V16.016C235.397 15.092 235.215 13.79 233.465 13.79C232.709 13.79 232.163 14.21 231.757 14.798H231.729V13.93H230.889V21H231.729V16.562ZM242.471 19.138C242.471 16.772 239.293 17.248 239.293 15.484C239.293 14.854 239.769 14.462 240.371 14.462C241.323 14.462 241.561 14.938 241.603 15.834H242.429C242.429 14.756 241.981 13.79 240.581 13.79C239.349 13.79 238.453 14.252 238.453 15.554C238.453 17.892 241.631 17.416 241.631 19.264C241.631 20.048 241.239 20.51 240.427 20.51C239.349 20.51 239.125 19.866 239.125 18.9H238.271C238.257 20.398 238.859 21.14 240.385 21.14C241.701 21.14 242.471 20.468 242.471 19.138ZM252.374 10.892L249.182 21H250.078L250.876 18.34H254.838L255.65 21H256.588L253.438 10.892H252.374ZM251.142 17.584L252.85 11.872H252.878L254.6 17.584H251.142ZM260.028 15.386V11.648H261.806C262.52 11.648 263.444 11.676 263.444 13.356C263.444 14.504 263.038 15.386 261.75 15.386H260.028ZM261.988 21C263.682 21 264.55 20.006 264.55 18.186C264.55 16.912 264.2 16.03 262.87 15.75V15.722C264.144 15.372 264.34 14.532 264.34 13.314C264.34 11.536 263.528 10.892 261.946 10.892H259.132V21H261.988ZM260.028 16.142H261.848C263.388 16.142 263.654 17.36 263.654 18.256C263.654 19.74 262.94 20.244 261.456 20.244H260.028V16.142ZM270.43 21.196C272.824 21.196 272.992 18.83 272.992 18.102H272.04C272.026 19.404 271.592 20.44 270.43 20.44C268.302 20.44 268.274 18.634 268.274 15.946C268.274 13.258 268.302 11.452 270.43 11.452C271.718 11.452 272.026 12.502 272.026 13.622H272.922C272.922 12.712 272.88 10.696 270.43 10.696C267.406 10.696 267.378 13.216 267.378 15.946C267.378 18.676 267.406 21.196 270.43 21.196ZM281.177 16.562C281.177 14.98 281.947 14.462 282.703 14.462C283.683 14.462 284.005 15.232 284.005 16.058V21H284.845V16.016C284.845 15.092 284.663 13.79 282.913 13.79C282.157 13.79 281.611 14.21 281.205 14.798H281.177V13.93H280.337V21H281.177V16.562ZM292.648 17.64C292.648 15.54 292.648 13.79 290.212 13.79C288.63 13.79 287.776 14.728 287.776 16.772V18.508C287.776 20.65 288.994 21.14 290.212 21.14C291.626 21.14 292.55 20.552 292.648 18.844H291.766C291.78 19.796 291.262 20.468 290.212 20.468C288.882 20.468 288.616 19.166 288.616 18.186V17.64H292.648ZM288.616 16.968C288.616 15.4 288.868 14.462 290.212 14.462C291.556 14.462 291.808 15.4 291.808 16.968H288.616ZM296.811 21H297.861L299.345 14.952H299.373L300.927 21H301.977L303.923 13.93H303.083L301.501 20.118H301.473L299.905 13.93H298.869L297.371 20.118H297.343L295.761 13.93H294.865L296.811 21ZM310.278 19.138C310.278 16.772 307.1 17.248 307.1 15.484C307.1 14.854 307.576 14.462 308.178 14.462C309.13 14.462 309.368 14.938 309.41 15.834H310.236C310.236 14.756 309.788 13.79 308.388 13.79C307.156 13.79 306.26 14.252 306.26 15.554C306.26 17.892 309.438 17.416 309.438 19.264C309.438 20.048 309.046 20.51 308.234 20.51C307.156 20.51 306.932 19.866 306.932 18.9H306.078C306.064 20.398 306.666 21.14 308.192 21.14C309.508 21.14 310.278 20.468 310.278 19.138ZM313.06 22.47H313.802L314.642 19.936H313.62L313.06 22.47ZM326.827 20.244H322.837C326.099 15.344 326.813 14.546 326.813 13.118C326.813 11.452 325.455 11.088 324.321 11.088C323.187 11.088 321.885 11.676 321.885 13.622H322.725C322.725 12.614 323.257 11.844 324.321 11.844C325.091 11.844 325.917 12.012 325.917 13.314C325.917 14.616 324.027 16.856 321.857 20.216V21H326.827V20.244ZM330.444 14.21C330.444 12.012 331.41 11.844 332.04 11.844C332.67 11.844 333.636 12.012 333.636 14.21V18.032C333.636 20.23 332.67 20.398 332.04 20.398C331.41 20.398 330.444 20.23 330.444 18.032V14.21ZM332.04 11.088C329.548 11.088 329.548 13.23 329.548 15.064V17.178C329.548 19.012 329.548 21.154 332.04 21.154C334.532 21.154 334.532 19.012 334.532 17.178V15.064C334.532 13.23 334.532 11.088 332.04 11.088ZM337.798 13.734C338.414 13.328 338.974 12.866 339.506 12.362V21H340.346V11.242H339.562C339.072 11.844 338.442 12.32 337.798 12.768V13.734ZM347.281 15.568C346.105 15.568 345.727 14.77 345.727 13.65C345.727 12.502 346.035 11.76 347.281 11.76C348.527 11.76 348.835 12.502 348.835 13.65C348.835 14.77 348.457 15.568 347.281 15.568ZM348.289 15.862C349.507 15.61 349.731 14.63 349.731 13.524C349.731 12.628 349.661 11.088 347.281 11.088C344.901 11.088 344.831 12.628 344.831 13.524C344.831 14.63 345.055 15.61 346.245 15.862L346.273 15.89C344.943 16.184 344.733 17.164 344.733 18.354C344.733 19.628 345.069 21.154 347.281 21.154C349.493 21.154 349.829 19.628 349.829 18.354C349.829 17.164 349.619 16.184 348.289 15.89V15.862ZM347.281 20.482C346.021 20.482 345.629 19.6 345.629 18.466C345.629 17.416 345.741 16.24 347.281 16.24C348.821 16.24 348.933 17.416 348.933 18.466C348.933 19.6 348.541 20.482 347.281 20.482Z" fill="white"/>
</svg>
