<svg width="260" height="52" viewBox="0 0 260 52" fill="none" xmlns="http://www.w3.org/2000/svg">
<rect width="260" height="52" fill="black" fill-opacity="0.69"/>
<path d="M10.89 19V9.76H10.918L13.97 19H15.006L17.974 9.76H18.002V19H18.898V8.892H17.47L14.53 18.02H14.502L11.52 8.892H9.994V19H10.89ZM25.7485 16.676C25.7485 17.6 24.9645 18.468 23.9985 18.468C23.1305 18.468 22.7245 17.81 22.7245 17.012C22.7245 15.29 24.5445 15.43 25.7485 15.388V16.676ZM25.8045 19H26.6725C26.5885 18.174 26.5885 17.726 26.5885 17.222V13.666C26.5885 11.86 25.1045 11.79 24.3905 11.79C23.1585 11.79 22.1085 12.322 22.0385 13.68H22.9345C22.9345 12.84 23.5505 12.462 24.3205 12.462C25.4405 12.462 25.7485 13.092 25.7485 14.128V14.716C24.3205 14.828 21.8285 14.576 21.8285 17.054C21.8285 18.286 22.5145 19.14 23.7745 19.14C24.6425 19.14 25.3285 18.804 25.7765 18.132H25.8045V19ZM30.4712 21.674H31.2972L34.2232 11.93H33.3832L31.7172 17.726H31.6892L29.9672 11.93H29.0572L31.2972 19.014L30.4712 21.674ZM41.5081 11.734C42.1241 11.328 42.6841 10.866 43.2161 10.362V19H44.0561V9.242H43.2721C42.7821 9.844 42.1521 10.32 41.5081 10.768V11.734ZM48.6388 20.47H49.3808L50.2208 17.936H49.1988L48.6388 20.47ZM58.1358 11.734C58.7518 11.328 59.3118 10.866 59.8438 10.362V19H60.6838V9.242H59.8998C59.4098 9.844 58.7798 10.32 58.1358 10.768V11.734ZM67.5345 14.394C66.1765 14.394 66.0085 13.162 66.0085 12.084C66.0085 10.964 66.2045 9.844 67.5905 9.844C69.2005 9.844 69.2145 10.978 69.2145 12.196C69.2145 12.84 69.1585 14.394 67.5345 14.394ZM67.4505 15.15C68.1505 15.15 68.8225 14.898 69.2425 14.296H69.2705C69.2005 17.32 69.2985 18.398 67.5205 18.398C66.4985 18.398 66.1065 17.796 66.1205 16.83H65.2245C65.2665 18.482 65.9945 19.154 67.6325 19.154C70.0545 19.154 70.1105 17.628 70.1105 14.072V12.868C70.1105 10.516 70.0265 9.088 67.5625 9.088C65.6025 9.088 65.1125 10.376 65.1125 12.084C65.1125 14.156 65.7145 15.15 67.4505 15.15ZM75.2392 13.568C74.0632 13.568 73.6852 12.77 73.6852 11.65C73.6852 10.502 73.9932 9.76 75.2392 9.76C76.4852 9.76 76.7932 10.502 76.7932 11.65C76.7932 12.77 76.4152 13.568 75.2392 13.568ZM76.2472 13.862C77.4652 13.61 77.6892 12.63 77.6892 11.524C77.6892 10.628 77.6192 9.088 75.2392 9.088C72.8592 9.088 72.7892 10.628 72.7892 11.524C72.7892 12.63 73.0132 13.61 74.2032 13.862L74.2312 13.89C72.9012 14.184 72.6912 15.164 72.6912 16.354C72.6912 17.628 73.0272 19.154 75.2392 19.154C77.4512 19.154 77.7872 17.628 77.7872 16.354C77.7872 15.164 77.5772 14.184 76.2472 13.89V13.862ZM75.2392 18.482C73.9792 18.482 73.5872 17.6 73.5872 16.466C73.5872 15.416 73.6992 14.24 75.2392 14.24C76.7792 14.24 76.8912 15.416 76.8912 16.466C76.8912 17.6 76.4992 18.482 75.2392 18.482ZM82.86 13.568C81.684 13.568 81.306 12.77 81.306 11.65C81.306 10.502 81.614 9.76 82.86 9.76C84.106 9.76 84.414 10.502 84.414 11.65C84.414 12.77 84.036 13.568 82.86 13.568ZM83.868 13.862C85.086 13.61 85.31 12.63 85.31 11.524C85.31 10.628 85.24 9.088 82.86 9.088C80.48 9.088 80.41 10.628 80.41 11.524C80.41 12.63 80.634 13.61 81.824 13.862L81.852 13.89C80.522 14.184 80.312 15.164 80.312 16.354C80.312 17.628 80.648 19.154 82.86 19.154C85.072 19.154 85.408 17.628 85.408 16.354C85.408 15.164 85.198 14.184 83.868 13.89V13.862ZM82.86 18.482C81.6 18.482 81.208 17.6 81.208 16.466C81.208 15.416 81.32 14.24 82.86 14.24C84.4 14.24 84.512 15.416 84.512 16.466C84.512 17.6 84.12 18.482 82.86 18.482ZM88.4087 19H89.4447V17.936H88.4087V19ZM98.3257 9.648H99.5017C101.994 9.648 102.386 10.488 102.386 13.386C102.386 17.516 102.12 18.244 99.4177 18.244H98.3257V9.648ZM97.4297 19H99.7397C102.792 19 103.282 17.348 103.282 13.988C103.282 10.544 102.932 8.892 100.104 8.892H97.4297V19ZM107.533 19V11.93H106.693V19H107.533ZM107.631 9.956V8.892H106.595V9.956H107.631ZM112.975 12.462C113.758 12.462 114.557 13.022 114.557 14.506C114.557 16.578 114.501 16.9 114.291 17.446C114.165 17.782 113.717 18.244 113.017 18.244C111.491 18.244 111.491 16.774 111.491 15.304C111.491 14.254 111.519 12.462 112.975 12.462ZM114.613 12.812L114.585 12.784C114.277 12.154 113.562 11.79 112.849 11.79C111.421 11.79 110.931 12.896 110.861 13.19C110.665 13.946 110.651 13.96 110.651 15.598C110.651 17.166 110.791 18.916 112.821 18.916C113.493 18.916 114.165 18.664 114.529 18.062H114.557C114.557 20.176 114.655 21.058 113.017 21.058C112.233 21.058 111.631 20.582 111.687 19.77H110.847C110.791 20.484 111.141 21.73 112.905 21.73C114.921 21.73 115.397 20.806 115.397 19.252V13.302C115.397 12.938 115.411 12.588 115.439 11.916H114.613V12.812ZM119.657 19V11.93H118.817V19H119.657ZM119.755 9.956V8.892H118.719V9.956H119.755ZM123.545 12.602V17.656C123.545 18.524 123.881 19.028 125.015 19.028C125.281 19.028 125.561 19.014 125.813 18.986V18.258C125.631 18.286 125.435 18.3 125.155 18.3C124.483 18.3 124.385 18.076 124.385 17.138V12.602H125.813V11.93H124.385V10.11L123.545 10.474V11.93H122.411V12.602H123.545ZM129.457 19V11.93H128.617V19H129.457ZM129.555 9.956V8.892H128.519V9.956H129.555ZM132.379 19H136.243V18.328H133.303L136.173 12.63V11.93H132.547V12.602H135.319L132.379 18.314V19ZM143.593 15.64C143.593 13.54 143.593 11.79 141.157 11.79C139.575 11.79 138.721 12.728 138.721 14.772V16.508C138.721 18.65 139.939 19.14 141.157 19.14C142.571 19.14 143.495 18.552 143.593 16.844H142.711C142.725 17.796 142.207 18.468 141.157 18.468C139.827 18.468 139.561 17.166 139.561 16.186V15.64H143.593ZM139.561 14.968C139.561 13.4 139.813 12.462 141.157 12.462C142.501 12.462 142.753 13.4 142.753 14.968H139.561ZM148.638 18.468C147.728 18.468 147.098 18.118 147.098 15.486C147.098 13.834 147.098 12.462 148.61 12.462C150.192 12.462 150.192 14.422 150.192 14.842V16.102C150.192 17.824 149.436 18.468 148.638 18.468ZM150.276 19H151.088C151.046 18.762 151.004 18.3 151.004 17.6V8.892H150.164V12.644L150.136 12.63C149.702 12.084 149.072 11.79 148.428 11.79C146.258 11.79 146.258 14.1 146.258 15.458C146.258 17.11 146.37 19.14 148.414 19.14C149.24 19.14 149.772 18.79 150.206 18.118L150.234 18.104L150.276 19ZM158.844 11.93H157.934L160.034 19H161L163.1 11.93H162.288L160.566 17.936H160.538L158.844 11.93ZM170.179 15.64C170.179 13.54 170.179 11.79 167.743 11.79C166.161 11.79 165.307 12.728 165.307 14.772V16.508C165.307 18.65 166.525 19.14 167.743 19.14C169.157 19.14 170.081 18.552 170.179 16.844H169.297C169.311 17.796 168.793 18.468 167.743 18.468C166.413 18.468 166.147 17.166 166.147 16.186V15.64H170.179ZM166.147 14.968C166.147 13.4 166.399 12.462 167.743 12.462C169.087 12.462 169.339 13.4 169.339 14.968H166.147ZM174.006 11.93H173.166V19H174.006V14.45C174.006 13.26 174.79 12.546 175.98 12.644V11.79C175.126 11.79 174.384 12.21 174.034 12.882H174.006V11.93ZM182.368 17.138C182.368 14.772 179.19 15.248 179.19 13.484C179.19 12.854 179.666 12.462 180.268 12.462C181.22 12.462 181.458 12.938 181.5 13.834H182.326C182.326 12.756 181.878 11.79 180.478 11.79C179.246 11.79 178.35 12.252 178.35 13.554C178.35 15.892 181.528 15.416 181.528 17.264C181.528 18.048 181.136 18.51 180.324 18.51C179.246 18.51 179.022 17.866 179.022 16.9H178.168C178.154 18.398 178.756 19.14 180.282 19.14C181.598 19.14 182.368 18.468 182.368 17.138ZM186.368 19V11.93H185.528V19H186.368ZM186.466 9.956V8.892H185.43V9.956H186.466ZM192.005 19.14C193.657 19.14 194.441 18.062 194.441 16.228V14.702C194.441 12.868 193.657 11.79 192.005 11.79C190.353 11.79 189.569 12.868 189.569 14.702V16.228C189.569 18.062 190.353 19.14 192.005 19.14ZM192.005 12.462C193.391 12.462 193.601 13.624 193.601 15.458C193.601 17.306 193.391 18.468 192.005 18.468C190.619 18.468 190.409 17.306 190.409 15.458C190.409 13.624 190.619 12.462 192.005 12.462ZM198.212 14.562C198.212 12.98 198.982 12.462 199.738 12.462C200.718 12.462 201.04 13.232 201.04 14.058V19H201.88V14.016C201.88 13.092 201.698 11.79 199.948 11.79C199.192 11.79 198.646 12.21 198.24 12.798H198.212V11.93H197.372V19H198.212V14.562ZM211.75 19.14C213.402 19.14 214.186 18.062 214.186 16.228V14.702C214.186 12.868 213.402 11.79 211.75 11.79C210.098 11.79 209.314 12.868 209.314 14.702V16.228C209.314 18.062 210.098 19.14 211.75 19.14ZM211.75 12.462C213.136 12.462 213.346 13.624 213.346 15.458C213.346 17.306 213.136 18.468 211.75 18.468C210.364 18.468 210.154 17.306 210.154 15.458C210.154 13.624 210.364 12.462 211.75 12.462ZM217.663 19H218.503V12.602H219.931V11.93H218.503V10.726C218.503 10.32 218.503 9.592 219.315 9.592H219.945V8.892C219.735 8.864 219.595 8.836 219.469 8.836C217.761 8.836 217.663 10.068 217.663 10.74V11.93H216.529V12.602H217.663V19ZM230.515 16.676C230.515 17.6 229.731 18.468 228.765 18.468C227.897 18.468 227.491 17.81 227.491 17.012C227.491 15.29 229.311 15.43 230.515 15.388V16.676ZM230.571 19H231.439C231.355 18.174 231.355 17.726 231.355 17.222V13.666C231.355 11.86 229.871 11.79 229.157 11.79C227.925 11.79 226.875 12.322 226.805 13.68H227.701C227.701 12.84 228.317 12.462 229.087 12.462C230.207 12.462 230.515 13.092 230.515 14.128V14.716C229.087 14.828 226.595 14.576 226.595 17.054C226.595 18.286 227.281 19.14 228.541 19.14C229.409 19.14 230.095 18.804 230.543 18.132H230.571V19ZM235.378 14.562C235.378 12.98 236.148 12.462 236.904 12.462C237.884 12.462 238.206 13.232 238.206 14.058V19H239.046V14.016C239.046 13.092 238.864 11.79 237.114 11.79C236.358 11.79 235.812 12.21 235.406 12.798H235.378V11.93H234.538V19H235.378V14.562ZM13.452 38.676C13.452 39.6 12.668 40.468 11.702 40.468C10.834 40.468 10.428 39.81 10.428 39.012C10.428 37.29 12.248 37.43 13.452 37.388V38.676ZM13.508 41H14.376C14.292 40.174 14.292 39.726 14.292 39.222V35.666C14.292 33.86 12.808 33.79 12.094 33.79C10.862 33.79 9.812 34.322 9.742 35.68H10.638C10.638 34.84 11.254 34.462 12.024 34.462C13.144 34.462 13.452 35.092 13.452 36.128V36.716C12.024 36.828 9.532 36.576 9.532 39.054C9.532 40.286 10.218 41.14 11.478 41.14C12.346 41.14 13.032 40.804 13.48 40.132H13.508V41ZM18.3707 33.93H17.5307V41H18.3707V36.45C18.3707 35.26 19.1547 34.546 20.3447 34.644V33.79C19.4907 33.79 18.7487 34.21 18.3987 34.882H18.3707V33.93ZM23.2752 34.602V39.656C23.2752 40.524 23.6112 41.028 24.7452 41.028C25.0112 41.028 25.2912 41.014 25.5432 40.986V40.258C25.3612 40.286 25.1652 40.3 24.8852 40.3C24.2132 40.3 24.1152 40.076 24.1152 39.138V34.602H25.5432V33.93H24.1152V32.11L23.2752 32.474V33.93H22.1412V34.602H23.2752ZM29.1877 41V33.93H28.3477V41H29.1877ZM29.2857 31.956V30.892H28.2497V31.956H29.2857ZM36.5612 35.96C36.6312 34.476 35.8052 33.79 34.5872 33.79C33.6212 33.79 32.8232 34.154 32.4592 35.162C32.2772 35.694 32.2492 36.8 32.2492 37.5C32.2492 39.25 32.2492 41.14 34.6432 41.14C35.3012 41.14 36.6452 40.818 36.5752 38.914H35.7352C35.6932 39.768 35.5532 40.468 34.4472 40.468C33.1452 40.468 33.1452 38.774 33.1452 37.5C33.1452 36.562 33.2292 35.596 33.3412 35.274C33.5232 34.756 33.9572 34.462 34.4752 34.462C35.4412 34.462 35.7632 35.078 35.7212 35.96H36.5612ZM40.5326 41V30.892H39.6926V41H40.5326ZM48.6061 37.64C48.6061 35.54 48.6061 33.79 46.1701 33.79C44.5881 33.79 43.7341 34.728 43.7341 36.772V38.508C43.7341 40.65 44.9521 41.14 46.1701 41.14C47.5841 41.14 48.5081 40.552 48.6061 38.844H47.7241C47.7381 39.796 47.2201 40.468 46.1701 40.468C44.8401 40.468 44.5741 39.166 44.5741 38.186V37.64H48.6061ZM44.5741 36.968C44.5741 35.4 44.8261 34.462 46.1701 34.462C47.5141 34.462 47.7661 35.4 47.7661 36.968H44.5741ZM56.5863 41H57.4263V34.602H58.8543V33.93H57.4263V32.726C57.4263 32.32 57.4263 31.592 58.2383 31.592H58.8683V30.892C58.6583 30.864 58.5183 30.836 58.3923 30.836C56.6843 30.836 56.5863 32.068 56.5863 32.74V33.93H55.4523V34.602H56.5863V41ZM62.2328 33.93H61.3928V41H62.2328V36.45C62.2328 35.26 63.0168 34.546 64.2068 34.644V33.79C63.3528 33.79 62.6108 34.21 62.2608 34.882H62.2328V33.93ZM68.8873 41.14C70.5393 41.14 71.3233 40.062 71.3233 38.228V36.702C71.3233 34.868 70.5393 33.79 68.8873 33.79C67.2353 33.79 66.4513 34.868 66.4513 36.702V38.228C66.4513 40.062 67.2353 41.14 68.8873 41.14ZM68.8873 34.462C70.2733 34.462 70.4833 35.624 70.4833 37.458C70.4833 39.306 70.2733 40.468 68.8873 40.468C67.5013 40.468 67.2913 39.306 67.2913 37.458C67.2913 35.624 67.5013 34.462 68.8873 34.462ZM75.08 36.45C75.08 35.526 75.486 34.462 76.55 34.462C77.376 34.462 77.628 35.246 77.642 35.946V41H78.482V36.45C78.482 35.526 78.888 34.462 79.952 34.462C80.778 34.462 81.03 35.246 81.044 35.946V41H81.884V35.736C81.842 34.602 81.226 33.79 80.05 33.79C79.266 33.79 78.664 34.196 78.314 34.896C78.076 34.196 77.432 33.79 76.704 33.79C75.92 33.79 75.36 34.224 75.024 34.798H74.996V33.916H74.24V41H75.08V36.45ZM91.3014 41H92.1974V31.648H94.6614V30.892H88.8374V31.648H91.3014V41ZM97.9561 41V36.562C97.9561 34.98 98.7261 34.462 99.4821 34.462C100.462 34.462 100.784 35.232 100.784 36.058V41H101.624V36.016C101.624 35.092 101.442 33.79 99.6921 33.79C98.9361 33.79 98.3901 34.21 97.9841 34.798H97.9561V30.892H97.1161V41H97.9561ZM109.427 37.64C109.427 35.54 109.427 33.79 106.991 33.79C105.409 33.79 104.555 34.728 104.555 36.772V38.508C104.555 40.65 105.773 41.14 106.991 41.14C108.405 41.14 109.329 40.552 109.427 38.844H108.545C108.559 39.796 108.041 40.468 106.991 40.468C105.661 40.468 105.395 39.166 105.395 38.186V37.64H109.427ZM105.395 36.968C105.395 35.4 105.647 34.462 106.991 34.462C108.335 34.462 108.587 35.4 108.587 36.968H105.395ZM118.667 41H119.563V31.648H122.027V30.892H116.203V31.648H118.667V41ZM124.904 41V33.93H124.064V41H124.904ZM125.002 31.956V30.892H123.966V31.956H125.002ZM129.114 36.45C129.114 35.526 129.52 34.462 130.584 34.462C131.41 34.462 131.662 35.246 131.676 35.946V41H132.516V36.45C132.516 35.526 132.922 34.462 133.986 34.462C134.812 34.462 135.064 35.246 135.078 35.946V41H135.918V35.736C135.876 34.602 135.26 33.79 134.084 33.79C133.3 33.79 132.698 34.196 132.348 34.896C132.11 34.196 131.466 33.79 130.738 33.79C129.954 33.79 129.394 34.224 129.058 34.798H129.03V33.916H128.274V41H129.114V36.45ZM143.716 37.64C143.716 35.54 143.716 33.79 141.28 33.79C139.698 33.79 138.844 34.728 138.844 36.772V38.508C138.844 40.65 140.062 41.14 141.28 41.14C142.694 41.14 143.618 40.552 143.716 38.844H142.834C142.848 39.796 142.33 40.468 141.28 40.468C139.95 40.468 139.684 39.166 139.684 38.186V37.64H143.716ZM139.684 36.968C139.684 35.4 139.936 34.462 141.28 34.462C142.624 34.462 142.876 35.4 142.876 36.968H139.684ZM150.609 39.138C150.609 36.772 147.431 37.248 147.431 35.484C147.431 34.854 147.907 34.462 148.509 34.462C149.461 34.462 149.699 34.938 149.741 35.834H150.567C150.567 34.756 150.119 33.79 148.719 33.79C147.487 33.79 146.591 34.252 146.591 35.554C146.591 37.892 149.769 37.416 149.769 39.264C149.769 40.048 149.377 40.51 148.565 40.51C147.487 40.51 147.263 39.866 147.263 38.9H146.409C146.395 40.398 146.997 41.14 148.523 41.14C149.839 41.14 150.609 40.468 150.609 39.138ZM153.39 33.426H154.132L154.972 30.892H153.95L153.39 33.426ZM160.696 39.138C160.696 36.772 157.518 37.248 157.518 35.484C157.518 34.854 157.994 34.462 158.596 34.462C159.548 34.462 159.786 34.938 159.828 35.834H160.654C160.654 34.756 160.206 33.79 158.806 33.79C157.574 33.79 156.678 34.252 156.678 35.554C156.678 37.892 159.856 37.416 159.856 39.264C159.856 40.048 159.464 40.51 158.652 40.51C157.574 40.51 157.35 39.866 157.35 38.9H156.496C156.482 40.398 157.084 41.14 158.61 41.14C159.926 41.14 160.696 40.468 160.696 39.138ZM168.947 36.828C168.947 35.078 169.899 34.462 170.445 34.462C171.831 34.462 172.041 35.624 172.041 37.458C172.041 39.306 171.831 40.468 170.445 40.468C169.675 40.468 168.947 39.698 168.947 38.088V36.828ZM168.919 33.93H168.107V43.674H168.947V40.202L168.975 40.216C169.409 40.888 169.927 41.14 170.445 41.14C172.251 41.14 172.881 40.062 172.881 38.228V36.646C172.881 35.722 172.867 33.79 170.655 33.79C170.095 33.79 169.395 34.084 168.947 34.77L168.919 34.784V33.93ZM176.595 33.93H175.755V41H176.595V36.45C176.595 35.26 177.379 34.546 178.569 34.644V33.79C177.715 33.79 176.973 34.21 176.623 34.882H176.595V33.93ZM182.116 41V33.93H181.276V41H182.116ZM182.214 31.956V30.892H181.178V31.956H182.214ZM186.339 36.562C186.339 34.98 187.109 34.462 187.865 34.462C188.845 34.462 189.167 35.232 189.167 36.058V41H190.007V36.016C190.007 35.092 189.825 33.79 188.075 33.79C187.319 33.79 186.773 34.21 186.367 34.798H186.339V33.93H185.499V41H186.339V36.562ZM193.624 34.602V39.656C193.624 40.524 193.96 41.028 195.094 41.028C195.36 41.028 195.64 41.014 195.892 40.986V40.258C195.71 40.286 195.514 40.3 195.234 40.3C194.562 40.3 194.464 40.076 194.464 39.138V34.602H195.892V33.93H194.464V32.11L193.624 32.474V33.93H192.49V34.602H193.624ZM206.518 38.676C206.518 39.6 205.734 40.468 204.768 40.468C203.9 40.468 203.494 39.81 203.494 39.012C203.494 37.29 205.314 37.43 206.518 37.388V38.676ZM206.574 41H207.442C207.358 40.174 207.358 39.726 207.358 39.222V35.666C207.358 33.86 205.874 33.79 205.16 33.79C203.928 33.79 202.878 34.322 202.808 35.68H203.704C203.704 34.84 204.32 34.462 205.09 34.462C206.21 34.462 206.518 35.092 206.518 36.128V36.716C205.09 36.828 202.598 36.576 202.598 39.054C202.598 40.286 203.284 41.14 204.544 41.14C205.412 41.14 206.098 40.804 206.546 40.132H206.574V41ZM211.437 33.93H210.597V41H211.437V36.45C211.437 35.26 212.221 34.546 213.411 34.644V33.79C212.557 33.79 211.815 34.21 211.465 34.882H211.437V33.93ZM219.827 35.96C219.897 34.476 219.071 33.79 217.853 33.79C216.887 33.79 216.089 34.154 215.725 35.162C215.543 35.694 215.515 36.8 215.515 37.5C215.515 39.25 215.515 41.14 217.909 41.14C218.567 41.14 219.911 40.818 219.841 38.914H219.001C218.959 39.768 218.819 40.468 217.713 40.468C216.411 40.468 216.411 38.774 216.411 37.5C216.411 36.562 216.495 35.596 216.607 35.274C216.789 34.756 217.223 34.462 217.741 34.462C218.707 34.462 219.029 35.078 218.987 35.96H219.827ZM223.519 41V36.562C223.519 34.98 224.289 34.462 225.045 34.462C226.025 34.462 226.347 35.232 226.347 36.058V41H227.187V36.016C227.187 35.092 227.005 33.79 225.255 33.79C224.499 33.79 223.953 34.21 223.547 34.798H223.519V30.892H222.679V41H223.519ZM231.419 41V33.93H230.579V41H231.419ZM231.517 31.956V30.892H230.481V31.956H231.517ZM234.999 33.93H234.089L236.189 41H237.155L239.255 33.93H238.443L236.721 39.936H236.693L234.999 33.93ZM246.334 37.64C246.334 35.54 246.334 33.79 243.898 33.79C242.316 33.79 241.462 34.728 241.462 36.772V38.508C241.462 40.65 242.68 41.14 243.898 41.14C245.312 41.14 246.236 40.552 246.334 38.844H245.452C245.466 39.796 244.948 40.468 243.898 40.468C242.568 40.468 242.302 39.166 242.302 38.186V37.64H246.334ZM242.302 36.968C242.302 35.4 242.554 34.462 243.898 34.462C245.242 34.462 245.494 35.4 245.494 36.968H242.302ZM249.447 41H250.483V39.936H249.447V41Z" fill="white"/>
</svg>
