<svg width="158" height="13" viewBox="0 0 158 13" fill="none" xmlns="http://www.w3.org/2000/svg">
<path d="M0.38 11H1.355V1.64H1.385L7.235 11H8.465V0.169999H7.49V9.695H7.46L1.49 0.169999H0.38V11ZM18.0302 7.235C18.0302 8.63 17.3102 10.4 15.4952 10.4C13.6802 10.4 12.9602 8.63 12.9602 7.235C12.9602 5.84 13.6802 4.07 15.4952 4.07C17.3102 4.07 18.0302 5.84 18.0302 7.235ZM15.4952 3.245C13.0952 3.245 11.9852 5.255 11.9852 7.235C11.9852 9.215 13.0952 11.225 15.4952 11.225C17.8952 11.225 19.0052 9.215 19.0052 7.235C19.0052 5.255 17.8952 3.245 15.4952 3.245ZM21.0772 3.47L24.1522 11H25.1722L28.1572 3.47H27.1672L24.6622 9.755L22.0672 3.47H21.0772ZM37.1192 7.445C37.1192 5.09 36.2042 3.245 33.6842 3.245C31.4492 3.245 30.3242 5.195 30.3242 7.235C30.3242 9.29 31.3742 11.225 33.6242 11.225C35.4392 11.225 36.5642 10.4 37.0292 8.6H36.0842C35.8592 9.635 34.9742 10.4 33.9092 10.4C32.0642 10.4 31.3292 9.05 31.2992 7.445H37.1192ZM31.3292 6.62C31.4492 5.3 32.2292 4.07 33.6992 4.07C35.2592 4.07 36.0392 5.165 36.1442 6.62H31.3292ZM41.4492 3.47H40.5192C40.5492 3.98 40.5942 4.58 40.5942 5.165V11H41.4942V6.665C41.4942 5.315 42.1692 4.07 43.6542 4.07C44.8842 4.07 45.6342 4.835 45.6342 6.14V11H46.5342V6.665C46.5342 5.315 47.2092 4.07 48.6942 4.07C49.9242 4.07 50.6742 4.835 50.6742 6.14V11H51.5742V6.29C51.5742 5.42 51.3792 3.245 48.9192 3.245C47.7492 3.245 46.8792 4.01 46.3242 4.895C45.9942 3.905 45.0642 3.245 43.8792 3.245C42.9042 3.245 42.0492 3.68 41.5242 4.61L41.4942 4.58L41.4492 3.47ZM58.6193 4.07C60.3293 4.07 60.9143 5.69 60.9143 7.13C60.9143 8.525 60.4793 10.4 58.7543 10.4C56.7893 10.4 56.1893 8.795 56.1893 7.085C56.1893 5.555 56.8643 4.07 58.6193 4.07ZM56.1893 9.89L56.2193 9.83C56.8343 10.73 57.7493 11.225 58.8443 11.225C61.0343 11.225 61.8893 9.095 61.8893 7.205C61.8893 5.255 61.0343 3.245 58.7993 3.245C57.7943 3.245 56.7443 3.725 56.2193 4.61L56.1893 4.58V0.169999H55.2893V9.305C55.2893 9.89 55.2443 10.49 55.2143 11H56.1443L56.1893 9.89ZM71.6192 7.445C71.6192 5.09 70.7042 3.245 68.1842 3.245C65.9492 3.245 64.8242 5.195 64.8242 7.235C64.8242 9.29 65.8742 11.225 68.1242 11.225C69.9392 11.225 71.0642 10.4 71.5292 8.6H70.5842C70.3592 9.635 69.4742 10.4 68.4092 10.4C66.5642 10.4 65.8292 9.05 65.7992 7.445H71.6192ZM65.8292 6.62C65.9492 5.3 66.7292 4.07 68.1992 4.07C69.7592 4.07 70.5392 5.165 70.6442 6.62H65.8292ZM76.0092 6.47C76.0392 5.03 76.7442 4.07 78.0792 4.07C78.2592 4.07 78.4542 4.115 78.6342 4.13V3.26C78.3342 3.245 78.0342 3.23 77.7342 3.245C76.9842 3.275 76.3092 3.815 76.0392 4.58H76.0092L75.9642 3.47H75.0342C75.0642 3.98 75.1242 4.58 75.1092 5.165V11H76.0092V6.47ZM91.2841 11H92.2591V8.585H93.9241V7.775H92.2591V0.62H90.9691L86.4091 7.64V8.585H91.2841V11ZM91.2841 7.775H87.2341L91.2541 1.595H91.2841V7.775ZM97.7591 8.99C97.7591 10.01 97.6541 11.225 99.5591 11.225C99.8591 11.225 100.189 11.165 100.474 11.09V10.31C100.234 10.385 99.9641 10.4 99.6941 10.4C99.0041 10.4 98.6441 10.025 98.6591 9.335V4.295H100.369V3.47H98.6591V1.475L97.7591 1.865V3.47H96.2591V4.295H97.7591V8.99ZM104.509 0.169999H103.609V11H104.509V6.665C104.509 5.315 105.184 4.07 106.669 4.07C107.899 4.07 108.649 4.835 108.649 6.14V11H109.549V6.29C109.549 5.42 109.354 3.245 106.894 3.245C105.919 3.245 105.064 3.68 104.539 4.61H104.509V0.169999ZM113.774 9.785L113.129 12.86H113.909L114.989 9.785H113.774ZM125.334 3.23C126.174 2.825 126.984 2.33 127.674 1.67V11H128.649V0.62H127.719C127.044 1.295 126.219 1.895 125.334 2.255V3.23ZM136.687 1.295C138.112 1.295 139.132 2.3 139.132 3.725C139.132 5.165 138.067 6.185 136.627 6.185C135.262 6.185 134.407 5.225 134.407 3.86C134.407 2.42 135.142 1.295 136.687 1.295ZM133.387 8.45C133.522 10.1 134.572 11.225 136.417 11.225C139.732 11.225 140.362 8.315 140.362 5.525C140.362 2.945 139.687 0.395 136.672 0.395C134.662 0.395 133.357 1.805 133.357 3.785C133.357 5.645 134.662 7.01 136.537 7.01C137.737 7.01 138.772 6.425 139.282 5.42H139.312C139.312 6.995 139.057 10.325 136.687 10.325C135.412 10.325 134.482 9.815 134.437 8.45H133.387ZM145.427 5.615C144.077 5.9 143.147 6.845 143.162 8.18C143.162 10.28 144.947 11.225 146.687 11.225C148.427 11.225 150.212 10.28 150.212 8.18C150.212 6.8 149.357 5.96 147.977 5.6V5.585C149.162 5.315 150.062 4.445 150.062 3.185C150.062 1.265 148.352 0.395 146.687 0.395C145.022 0.395 143.312 1.265 143.312 3.185C143.312 4.415 144.212 5.465 145.427 5.585V5.615ZM144.287 3.185C144.287 1.79 145.532 1.22 146.687 1.22C147.842 1.22 149.087 1.79 149.087 3.185C149.087 4.475 148.067 5.135 146.687 5.135C145.307 5.135 144.287 4.475 144.287 3.185ZM144.212 8.18C144.212 6.695 145.397 6.035 146.687 6.035C147.977 6.035 149.162 6.695 149.162 8.18C149.162 9.665 147.977 10.325 146.687 10.325C145.397 10.325 144.212 9.665 144.212 8.18ZM154.092 3.23C154.932 2.825 155.742 2.33 156.432 1.67V11H157.407V0.62H156.477C155.802 1.295 154.977 1.895 154.092 2.255V3.23Z" fill="white"/>
</svg>
