<svg width="196" height="101" viewBox="0 0 196 101" fill="none" xmlns="http://www.w3.org/2000/svg">
<path d="M2.43 13V1.12H2.466L6.39 13H7.722L11.538 1.12H11.574V13H12.726V0.00399888H10.89L7.11 11.74H7.074L3.24 0.00399888H1.278V13H2.43ZM21.5338 10.012C21.5338 11.2 20.5258 12.316 19.2838 12.316C18.1678 12.316 17.6458 11.47 17.6458 10.444C17.6458 8.23 19.9858 8.41 21.5338 8.356V10.012ZM21.6058 13H22.7218C22.6138 11.938 22.6138 11.362 22.6138 10.714V6.142C22.6138 3.82 20.7058 3.73 19.7878 3.73C18.2038 3.73 16.8538 4.414 16.7638 6.16H17.9158C17.9158 5.08 18.7078 4.594 19.6978 4.594C21.1378 4.594 21.5338 5.404 21.5338 6.736V7.492C19.6978 7.636 16.4938 7.312 16.4938 10.498C16.4938 12.082 17.3758 13.18 18.9958 13.18C20.1118 13.18 20.9938 12.748 21.5698 11.884H21.6058V13ZM27.6058 16.438H28.6678L32.4298 3.91H31.3498L29.2078 11.362H29.1718L26.9578 3.91H25.7878L28.6678 13.018L27.6058 16.438ZM41.7961 3.658C42.5881 3.136 43.3081 2.542 43.9921 1.894V13H45.0721V0.454H44.0641C43.4341 1.228 42.6241 1.84 41.7961 2.416V3.658ZM50.9642 14.89H51.9182L52.9982 11.632H51.6842L50.9642 14.89ZM63.1747 3.658C63.9667 3.136 64.6867 2.542 65.3707 1.894V13H66.4507V0.454H65.4427C64.8127 1.228 64.0027 1.84 63.1747 2.416V3.658ZM75.2587 7.078C73.5127 7.078 73.2967 5.494 73.2967 4.108C73.2967 2.668 73.5487 1.228 75.3307 1.228C77.4007 1.228 77.4187 2.686 77.4187 4.252C77.4187 5.08 77.3467 7.078 75.2587 7.078ZM75.1507 8.05C76.0507 8.05 76.9147 7.726 77.4547 6.952H77.4907C77.4007 10.84 77.5267 12.226 75.2407 12.226C73.9267 12.226 73.4227 11.452 73.4407 10.21H72.2887C72.3427 12.334 73.2787 13.198 75.3847 13.198C78.4987 13.198 78.5707 11.236 78.5707 6.664V5.116C78.5707 2.092 78.4627 0.256 75.2947 0.256C72.7747 0.256 72.1447 1.912 72.1447 4.108C72.1447 6.772 72.9187 8.05 75.1507 8.05ZM85.1647 6.016C83.6527 6.016 83.1667 4.99 83.1667 3.55C83.1667 2.074 83.5627 1.12 85.1647 1.12C86.7667 1.12 87.1627 2.074 87.1627 3.55C87.1627 4.99 86.6767 6.016 85.1647 6.016ZM86.4607 6.394C88.0267 6.07 88.3147 4.81 88.3147 3.388C88.3147 2.236 88.2247 0.256 85.1647 0.256C82.1047 0.256 82.0147 2.236 82.0147 3.388C82.0147 4.81 82.3027 6.07 83.8327 6.394L83.8687 6.43C82.1587 6.808 81.8887 8.068 81.8887 9.598C81.8887 11.236 82.3207 13.198 85.1647 13.198C88.0087 13.198 88.4407 11.236 88.4407 9.598C88.4407 8.068 88.1707 6.808 86.4607 6.43V6.394ZM85.1647 12.334C83.5447 12.334 83.0407 11.2 83.0407 9.742C83.0407 8.392 83.1847 6.88 85.1647 6.88C87.1447 6.88 87.2887 8.392 87.2887 9.742C87.2887 11.2 86.7847 12.334 85.1647 12.334ZM94.9628 6.016C93.4508 6.016 92.9648 4.99 92.9648 3.55C92.9648 2.074 93.3608 1.12 94.9628 1.12C96.5648 1.12 96.9608 2.074 96.9608 3.55C96.9608 4.99 96.4748 6.016 94.9628 6.016ZM96.2588 6.394C97.8248 6.07 98.1128 4.81 98.1128 3.388C98.1128 2.236 98.0228 0.256 94.9628 0.256C91.9028 0.256 91.8128 2.236 91.8128 3.388C91.8128 4.81 92.1008 6.07 93.6308 6.394L93.6668 6.43C91.9568 6.808 91.6868 8.068 91.6868 9.598C91.6868 11.236 92.1188 13.198 94.9628 13.198C97.8068 13.198 98.2388 11.236 98.2388 9.598C98.2388 8.068 97.9688 6.808 96.2588 6.43V6.394ZM94.9628 12.334C93.3428 12.334 92.8388 11.2 92.8388 9.742C92.8388 8.392 92.9828 6.88 94.9628 6.88C96.9428 6.88 97.0868 8.392 97.0868 9.742C97.0868 11.2 96.5828 12.334 94.9628 12.334ZM102.097 13H103.429V11.632H102.097V13ZM2.502 28.976H4.014C7.218 28.976 7.722 30.056 7.722 33.782C7.722 39.092 7.38 40.028 3.906 40.028H2.502V28.976ZM1.35 41H4.32C8.244 41 8.874 38.876 8.874 34.556C8.874 30.128 8.424 28.004 4.788 28.004H1.35V41ZM14.34 41V31.91H13.26V41H14.34ZM14.466 29.372V28.004H13.134V29.372H14.466ZM21.3362 32.594C22.3442 32.594 23.3702 33.314 23.3702 35.222C23.3702 37.886 23.2982 38.3 23.0282 39.002C22.8662 39.434 22.2902 40.028 21.3902 40.028C19.4282 40.028 19.4282 38.138 19.4282 36.248C19.4282 34.898 19.4642 32.594 21.3362 32.594ZM23.4422 33.044L23.4062 33.008C23.0102 32.198 22.0922 31.73 21.1742 31.73C19.3382 31.73 18.7082 33.152 18.6182 33.53C18.3662 34.502 18.3482 34.52 18.3482 36.626C18.3482 38.642 18.5282 40.892 21.1382 40.892C22.0022 40.892 22.8662 40.568 23.3342 39.794H23.3702C23.3702 42.512 23.4962 43.646 21.3902 43.646C20.3822 43.646 19.6082 43.034 19.6802 41.99H18.6002C18.5282 42.908 18.9782 44.51 21.2462 44.51C23.8382 44.51 24.4502 43.322 24.4502 41.324V33.674C24.4502 33.206 24.4682 32.756 24.5042 31.892H23.4422V33.044ZM29.9282 41V31.91H28.8482V41H29.9282ZM30.0542 29.372V28.004H28.7222V29.372H30.0542ZM34.9265 32.774V39.272C34.9265 40.388 35.3585 41.036 36.8165 41.036C37.1585 41.036 37.5185 41.018 37.8425 40.982V40.046C37.6085 40.082 37.3565 40.1 36.9965 40.1C36.1325 40.1 36.0065 39.812 36.0065 38.606V32.774H37.8425V31.91H36.0065V29.57L34.9265 30.038V31.91H33.4685V32.774H34.9265ZM42.5282 41V31.91H41.4482V41H42.5282ZM42.6542 29.372V28.004H41.3222V29.372H42.6542ZM46.2845 41H51.2525V40.136H47.4725L51.1625 32.81V31.91H46.5005V32.774H50.0645L46.2845 40.118V41ZM60.7026 36.68C60.7026 33.98 60.7026 31.73 57.5706 31.73C55.5366 31.73 54.4386 32.936 54.4386 35.564V37.796C54.4386 40.55 56.0046 41.18 57.5706 41.18C59.3886 41.18 60.5766 40.424 60.7026 38.228H59.5686C59.5866 39.452 58.9206 40.316 57.5706 40.316C55.8606 40.316 55.5186 38.642 55.5186 37.382V36.68H60.7026ZM55.5186 35.816C55.5186 33.8 55.8426 32.594 57.5706 32.594C59.2986 32.594 59.6226 33.8 59.6226 35.816H55.5186ZM67.1887 40.316C66.0187 40.316 65.2087 39.866 65.2087 36.482C65.2087 34.358 65.2087 32.594 67.1527 32.594C69.1867 32.594 69.1867 35.114 69.1867 35.654V37.274C69.1867 39.488 68.2147 40.316 67.1887 40.316ZM69.2947 41H70.3387C70.2847 40.694 70.2307 40.1 70.2307 39.2V28.004H69.1507V32.828L69.1147 32.81C68.5567 32.108 67.7467 31.73 66.9187 31.73C64.1287 31.73 64.1287 34.7 64.1287 36.446C64.1287 38.57 64.2727 41.18 66.9007 41.18C67.9627 41.18 68.6467 40.73 69.2047 39.866L69.2407 39.848L69.2947 41ZM80.3109 31.91H79.1409L81.8409 41H83.0829L85.7829 31.91H84.7389L82.5249 39.632H82.4889L80.3109 31.91ZM94.885 36.68C94.885 33.98 94.885 31.73 91.753 31.73C89.719 31.73 88.621 32.936 88.621 35.564V37.796C88.621 40.55 90.187 41.18 91.753 41.18C93.571 41.18 94.759 40.424 94.885 38.228H93.751C93.769 39.452 93.103 40.316 91.753 40.316C90.043 40.316 89.701 38.642 89.701 37.382V36.68H94.885ZM89.701 35.816C89.701 33.8 90.025 32.594 91.753 32.594C93.481 32.594 93.805 33.8 93.805 35.816H89.701ZM99.8051 31.91H98.7251V41H99.8051V35.15C99.8051 33.62 100.813 32.702 102.343 32.828V31.73C101.245 31.73 100.291 32.27 99.8411 33.134H99.8051V31.91ZM110.557 38.606C110.557 35.564 106.471 36.176 106.471 33.908C106.471 33.098 107.083 32.594 107.857 32.594C109.081 32.594 109.387 33.206 109.441 34.358H110.503C110.503 32.972 109.927 31.73 108.127 31.73C106.543 31.73 105.391 32.324 105.391 33.998C105.391 37.004 109.477 36.392 109.477 38.768C109.477 39.776 108.973 40.37 107.929 40.37C106.543 40.37 106.255 39.542 106.255 38.3H105.157C105.139 40.226 105.913 41.18 107.875 41.18C109.567 41.18 110.557 40.316 110.557 38.606ZM115.699 41V31.91H114.619V41H115.699ZM115.825 29.372V28.004H114.493V29.372H115.825ZM122.947 41.18C125.071 41.18 126.079 39.794 126.079 37.436V35.474C126.079 33.116 125.071 31.73 122.947 31.73C120.823 31.73 119.815 33.116 119.815 35.474V37.436C119.815 39.794 120.823 41.18 122.947 41.18ZM122.947 32.594C124.729 32.594 124.999 34.088 124.999 36.446C124.999 38.822 124.729 40.316 122.947 40.316C121.165 40.316 120.895 38.822 120.895 36.446C120.895 34.088 121.165 32.594 122.947 32.594ZM130.927 35.294C130.927 33.26 131.917 32.594 132.889 32.594C134.149 32.594 134.563 33.584 134.563 34.646V41H135.643V34.592C135.643 33.404 135.409 31.73 133.159 31.73C132.187 31.73 131.485 32.27 130.963 33.026H130.927V31.91H129.847V41H130.927V35.294ZM148.333 41.18C150.457 41.18 151.465 39.794 151.465 37.436V35.474C151.465 33.116 150.457 31.73 148.333 31.73C146.209 31.73 145.201 33.116 145.201 35.474V37.436C145.201 39.794 146.209 41.18 148.333 41.18ZM148.333 32.594C150.115 32.594 150.385 34.088 150.385 36.446C150.385 38.822 150.115 40.316 148.333 40.316C146.551 40.316 146.281 38.822 146.281 36.446C146.281 34.088 146.551 32.594 148.333 32.594ZM155.936 41H157.016V32.774H158.852V31.91H157.016V30.362C157.016 29.84 157.016 28.904 158.06 28.904H158.87V28.004C158.6 27.968 158.42 27.932 158.258 27.932C156.062 27.932 155.936 29.516 155.936 30.38V31.91H154.478V32.774H155.936V41ZM172.46 38.012C172.46 39.2 171.452 40.316 170.21 40.316C169.094 40.316 168.572 39.47 168.572 38.444C168.572 36.23 170.912 36.41 172.46 36.356V38.012ZM172.532 41H173.648C173.54 39.938 173.54 39.362 173.54 38.714V34.142C173.54 31.82 171.632 31.73 170.714 31.73C169.13 31.73 167.78 32.414 167.69 34.16H168.842C168.842 33.08 169.634 32.594 170.624 32.594C172.064 32.594 172.46 33.404 172.46 34.736V35.492C170.624 35.636 167.42 35.312 167.42 38.498C167.42 40.082 168.302 41.18 169.922 41.18C171.038 41.18 171.92 40.748 172.496 39.884H172.532V41ZM178.712 35.294C178.712 33.26 179.702 32.594 180.674 32.594C181.934 32.594 182.348 33.584 182.348 34.646V41H183.428V34.592C183.428 33.404 183.194 31.73 180.944 31.73C179.972 31.73 179.27 32.27 178.748 33.026H178.712V31.91H177.632V41H178.712V35.294ZM5.724 66.012C5.724 67.2 4.716 68.316 3.474 68.316C2.358 68.316 1.836 67.47 1.836 66.444C1.836 64.23 4.176 64.41 5.724 64.356V66.012ZM5.796 69H6.912C6.804 67.938 6.804 67.362 6.804 66.714V62.142C6.804 59.82 4.896 59.73 3.978 59.73C2.394 59.73 1.044 60.414 0.954 62.16H2.106C2.106 61.08 2.898 60.594 3.888 60.594C5.328 60.594 5.724 61.404 5.724 62.736V63.492C3.888 63.636 0.684 63.312 0.684 66.498C0.684 68.082 1.566 69.18 3.186 69.18C4.302 69.18 5.184 68.748 5.76 67.884H5.796V69ZM12.048 59.91H10.968V69H12.048V63.15C12.048 61.62 13.056 60.702 14.586 60.828V59.73C13.488 59.73 12.534 60.27 12.084 61.134H12.048V59.91ZM18.3538 60.774V67.272C18.3538 68.388 18.7858 69.036 20.2438 69.036C20.5858 69.036 20.9458 69.018 21.2698 68.982V68.046C21.0358 68.082 20.7838 68.1 20.4238 68.1C19.5598 68.1 19.4338 67.812 19.4338 66.606V60.774H21.2698V59.91H19.4338V57.57L18.3538 58.038V59.91H16.8958V60.774H18.3538ZM25.9556 69V59.91H24.8756V69H25.9556ZM26.0816 57.372V56.004H24.7496V57.372H26.0816ZM35.4358 62.52C35.5258 60.612 34.4638 59.73 32.8978 59.73C31.6558 59.73 30.6298 60.198 30.1618 61.494C29.9278 62.178 29.8918 63.6 29.8918 64.5C29.8918 66.75 29.8918 69.18 32.9698 69.18C33.8158 69.18 35.5438 68.766 35.4538 66.318H34.3738C34.3198 67.416 34.1398 68.316 32.7178 68.316C31.0438 68.316 31.0438 66.138 31.0438 64.5C31.0438 63.294 31.1518 62.052 31.2958 61.638C31.5298 60.972 32.0878 60.594 32.7538 60.594C33.9958 60.594 34.4098 61.386 34.3558 62.52H35.4358ZM40.5419 69V56.004H39.4619V69H40.5419ZM50.9221 64.68C50.9221 61.98 50.9221 59.73 47.7901 59.73C45.7561 59.73 44.6581 60.936 44.6581 63.564V65.796C44.6581 68.55 46.2241 69.18 47.7901 69.18C49.6081 69.18 50.7961 68.424 50.9221 66.228H49.7881C49.8061 67.452 49.1401 68.316 47.7901 68.316C46.0801 68.316 45.7381 66.642 45.7381 65.382V64.68H50.9221ZM45.7381 63.816C45.7381 61.8 46.0621 60.594 47.7901 60.594C49.5181 60.594 49.8421 61.8 49.8421 63.816H45.7381ZM61.1824 69H62.2624V60.774H64.0984V59.91H62.2624V58.362C62.2624 57.84 62.2624 56.904 63.3064 56.904H64.1164V56.004C63.8464 55.968 63.6664 55.932 63.5044 55.932C61.3084 55.932 61.1824 57.516 61.1824 58.38V59.91H59.7244V60.774H61.1824V69ZM68.4422 59.91H67.3622V69H68.4422V63.15C68.4422 61.62 69.4502 60.702 70.9802 60.828V59.73C69.8822 59.73 68.9282 60.27 68.4782 61.134H68.4422V59.91ZM76.998 69.18C79.122 69.18 80.13 67.794 80.13 65.436V63.474C80.13 61.116 79.122 59.73 76.998 59.73C74.874 59.73 73.866 61.116 73.866 63.474V65.436C73.866 67.794 74.874 69.18 76.998 69.18ZM76.998 60.594C78.78 60.594 79.05 62.088 79.05 64.446C79.05 66.822 78.78 68.316 76.998 68.316C75.216 68.316 74.946 66.822 74.946 64.446C74.946 62.088 75.216 60.594 76.998 60.594ZM84.96 63.15C84.96 61.962 85.482 60.594 86.85 60.594C87.912 60.594 88.236 61.602 88.254 62.502V69H89.334V63.15C89.334 61.962 89.856 60.594 91.224 60.594C92.286 60.594 92.61 61.602 92.628 62.502V69H93.708V62.232C93.654 60.774 92.862 59.73 91.35 59.73C90.342 59.73 89.568 60.252 89.118 61.152C88.812 60.252 87.984 59.73 87.048 59.73C86.04 59.73 85.32 60.288 84.888 61.026H84.852V59.892H83.88V69H84.96V63.15ZM105.816 69H106.968V56.976H110.136V56.004H102.648V56.976H105.816V69ZM114.372 69V63.294C114.372 61.26 115.362 60.594 116.334 60.594C117.594 60.594 118.008 61.584 118.008 62.646V69H119.088V62.592C119.088 61.404 118.854 59.73 116.604 59.73C115.632 59.73 114.93 60.27 114.408 61.026H114.372V56.004H113.292V69H114.372ZM129.12 64.68C129.12 61.98 129.12 59.73 125.988 59.73C123.954 59.73 122.856 60.936 122.856 63.564V65.796C122.856 68.55 124.422 69.18 125.988 69.18C127.806 69.18 128.994 68.424 129.12 66.228H127.986C128.004 67.452 127.338 68.316 125.988 68.316C124.278 68.316 123.936 66.642 123.936 65.382V64.68H129.12ZM123.936 63.816C123.936 61.8 124.26 60.594 125.988 60.594C127.716 60.594 128.04 61.8 128.04 63.816H123.936ZM141 69H142.152V56.976H145.32V56.004H137.832V56.976H141V69ZM149.02 69V59.91H147.94V69H149.02ZM149.146 57.372V56.004H147.814V57.372H149.146ZM154.432 63.15C154.432 61.962 154.954 60.594 156.322 60.594C157.384 60.594 157.708 61.602 157.726 62.502V69H158.806V63.15C158.806 61.962 159.328 60.594 160.696 60.594C161.758 60.594 162.082 61.602 162.1 62.502V69H163.18V62.232C163.126 60.774 162.334 59.73 160.822 59.73C159.814 59.73 159.04 60.252 158.59 61.152C158.284 60.252 157.456 59.73 156.52 59.73C155.512 59.73 154.792 60.288 154.36 61.026H154.324V59.892H153.352V69H154.432V63.15ZM173.206 64.68C173.206 61.98 173.206 59.73 170.074 59.73C168.04 59.73 166.942 60.936 166.942 63.564V65.796C166.942 68.55 168.508 69.18 170.074 69.18C171.892 69.18 173.08 68.424 173.206 66.228H172.072C172.09 67.452 171.424 68.316 170.074 68.316C168.364 68.316 168.022 66.642 168.022 65.382V64.68H173.206ZM168.022 63.816C168.022 61.8 168.346 60.594 170.074 60.594C171.802 60.594 172.126 61.8 172.126 63.816H168.022ZM182.068 66.606C182.068 63.564 177.982 64.176 177.982 61.908C177.982 61.098 178.594 60.594 179.368 60.594C180.592 60.594 180.898 61.206 180.952 62.358H182.014C182.014 60.972 181.438 59.73 179.638 59.73C178.054 59.73 176.902 60.324 176.902 61.998C176.902 65.004 180.988 64.392 180.988 66.768C180.988 67.776 180.484 68.37 179.44 68.37C178.054 68.37 177.766 67.542 177.766 66.3H176.668C176.65 68.226 177.424 69.18 179.386 69.18C181.078 69.18 182.068 68.316 182.068 66.606ZM185.644 59.262H186.598L187.678 56.004H186.364L185.644 59.262ZM195.037 66.606C195.037 63.564 190.951 64.176 190.951 61.908C190.951 61.098 191.563 60.594 192.337 60.594C193.561 60.594 193.867 61.206 193.921 62.358H194.983C194.983 60.972 194.407 59.73 192.607 59.73C191.023 59.73 189.871 60.324 189.871 61.998C189.871 65.004 193.957 64.392 193.957 66.768C193.957 67.776 193.453 68.37 192.409 68.37C191.023 68.37 190.735 67.542 190.735 66.3H189.637C189.619 68.226 190.393 69.18 192.355 69.18C194.047 69.18 195.037 68.316 195.037 66.606ZM2.214 91.636C2.214 89.386 3.438 88.594 4.14 88.594C5.922 88.594 6.192 90.088 6.192 92.446C6.192 94.822 5.922 96.316 4.14 96.316C3.15 96.316 2.214 95.326 2.214 93.256V91.636ZM2.178 87.91H1.134V100.438H2.214V95.974L2.25 95.992C2.808 96.856 3.474 97.18 4.14 97.18C6.462 97.18 7.272 95.794 7.272 93.436V91.402C7.272 90.214 7.254 87.73 4.41 87.73C3.69 87.73 2.79 88.108 2.214 88.99L2.178 89.008V87.91ZM12.048 87.91H10.968V97H12.048V91.15C12.048 89.62 13.056 88.702 14.586 88.828V87.73C13.488 87.73 12.534 88.27 12.084 89.134H12.048V87.91ZM19.1458 97V87.91H18.0658V97H19.1458ZM19.2718 85.372V84.004H17.9398V85.372H19.2718ZM24.576 91.294C24.576 89.26 25.566 88.594 26.538 88.594C27.798 88.594 28.212 89.584 28.212 90.646V97H29.292V90.592C29.292 89.404 29.058 87.73 26.808 87.73C25.836 87.73 25.134 88.27 24.612 89.026H24.576V87.91H23.496V97H24.576V91.294ZM33.9421 88.774V95.272C33.9421 96.388 34.3741 97.036 35.8321 97.036C36.1741 97.036 36.5341 97.018 36.8581 96.982V96.046C36.6241 96.082 36.3721 96.1 36.0121 96.1C35.1481 96.1 35.0221 95.812 35.0221 94.606V88.774H36.8581V87.91H35.0221V85.57L33.9421 86.038V87.91H32.4841V88.774H33.9421ZM50.5201 94.012C50.5201 95.2 49.5121 96.316 48.2701 96.316C47.1541 96.316 46.6321 95.47 46.6321 94.444C46.6321 92.23 48.9721 92.41 50.5201 92.356V94.012ZM50.5921 97H51.7081C51.6001 95.938 51.6001 95.362 51.6001 94.714V90.142C51.6001 87.82 49.6921 87.73 48.7741 87.73C47.1901 87.73 45.8401 88.414 45.7501 90.16H46.9021C46.9021 89.08 47.6941 88.594 48.6841 88.594C50.1241 88.594 50.5201 89.404 50.5201 90.736V91.492C48.6841 91.636 45.4801 91.312 45.4801 94.498C45.4801 96.082 46.3621 97.18 47.9821 97.18C49.0981 97.18 49.9801 96.748 50.5561 95.884H50.5921V97ZM56.8441 87.91H55.7641V97H56.8441V91.15C56.8441 89.62 57.8521 88.702 59.3821 88.828V87.73C58.2841 87.73 57.3301 88.27 56.8801 89.134H56.8441V87.91ZM67.6319 90.52C67.7219 88.612 66.6599 87.73 65.0939 87.73C63.8519 87.73 62.8259 88.198 62.3579 89.494C62.1239 90.178 62.0879 91.6 62.0879 92.5C62.0879 94.75 62.0879 97.18 65.1659 97.18C66.0119 97.18 67.7399 96.766 67.6499 94.318H66.5699C66.5159 95.416 66.3359 96.316 64.9139 96.316C63.2399 96.316 63.2399 94.138 63.2399 92.5C63.2399 91.294 63.3479 90.052 63.4919 89.638C63.7259 88.972 64.2839 88.594 64.9499 88.594C66.1919 88.594 66.6059 89.386 66.5519 90.52H67.6319ZM72.378 97V91.294C72.378 89.26 73.368 88.594 74.34 88.594C75.6 88.594 76.014 89.584 76.014 90.646V97H77.094V90.592C77.094 89.404 76.86 87.73 74.61 87.73C73.638 87.73 72.936 88.27 72.414 89.026H72.378V84.004H71.298V97H72.378ZM82.536 97V87.91H81.456V97H82.536ZM82.662 85.372V84.004H81.33V85.372H82.662ZM87.1383 87.91H85.9683L88.6683 97H89.9103L92.6103 87.91H91.5663L89.3523 95.632H89.3163L87.1383 87.91ZM101.712 92.68C101.712 89.98 101.712 87.73 98.5804 87.73C96.5464 87.73 95.4484 88.936 95.4484 91.564V93.796C95.4484 96.55 97.0144 97.18 98.5804 97.18C100.398 97.18 101.586 96.424 101.712 94.228H100.578C100.596 95.452 99.9304 96.316 98.5804 96.316C96.8704 96.316 96.5284 94.642 96.5284 93.382V92.68H101.712ZM96.5284 91.816C96.5284 89.8 96.8524 88.594 98.5804 88.594C100.308 88.594 100.632 89.8 100.632 91.816H96.5284ZM105.714 97H107.046V95.632H105.714V97Z" fill="black"/>
</svg>
