<svg width="211" height="33" viewBox="0 0 211 33" fill="none" xmlns="http://www.w3.org/2000/svg">
<rect width="211" height="33" fill="black" fill-opacity="0.69"/>
<path d="M9.108 14.568C7.932 14.568 7.554 13.77 7.554 12.65C7.554 11.502 7.862 10.76 9.108 10.76C10.354 10.76 10.662 11.502 10.662 12.65C10.662 13.77 10.284 14.568 9.108 14.568ZM10.116 14.862C11.334 14.61 11.558 13.63 11.558 12.524C11.558 11.628 11.488 10.088 9.108 10.088C6.728 10.088 6.658 11.628 6.658 12.524C6.658 13.63 6.882 14.61 8.072 14.862L8.1 14.89C6.77 15.184 6.56 16.164 6.56 17.354C6.56 18.628 6.896 20.154 9.108 20.154C11.32 20.154 11.656 18.628 11.656 17.354C11.656 16.164 11.446 15.184 10.116 14.89V14.862ZM9.108 19.482C7.848 19.482 7.456 18.6 7.456 17.466C7.456 16.416 7.568 15.24 9.108 15.24C10.648 15.24 10.76 16.416 10.76 17.466C10.76 18.6 10.368 19.482 9.108 19.482ZM15.1327 13.21C15.1327 11.012 16.0987 10.844 16.7287 10.844C17.3587 10.844 18.3247 11.012 18.3247 13.21V17.032C18.3247 19.23 17.3587 19.398 16.7287 19.398C16.0987 19.398 15.1327 19.23 15.1327 17.032V13.21ZM16.7287 10.088C14.2367 10.088 14.2367 12.23 14.2367 14.064V16.178C14.2367 18.012 14.2367 20.154 16.7287 20.154C19.2207 20.154 19.2207 18.012 19.2207 16.178V14.064C19.2207 12.23 19.2207 10.088 16.7287 10.088ZM21.9974 12.426H22.7394L23.5794 9.892H22.5574L21.9974 12.426ZM29.3031 18.138C29.3031 15.772 26.1251 16.248 26.1251 14.484C26.1251 13.854 26.6011 13.462 27.2031 13.462C28.1551 13.462 28.3931 13.938 28.4351 14.834H29.2611C29.2611 13.756 28.8131 12.79 27.4131 12.79C26.1811 12.79 25.2851 13.252 25.2851 14.554C25.2851 16.892 28.4631 16.416 28.4631 18.264C28.4631 19.048 28.0711 19.51 27.2591 19.51C26.1811 19.51 25.9571 18.866 25.9571 17.9H25.1031C25.0891 19.398 25.6911 20.14 27.2171 20.14C28.5331 20.14 29.3031 19.468 29.3031 18.138ZM39.682 20.196C42.076 20.196 42.244 17.83 42.244 17.102H41.292C41.278 18.404 40.844 19.44 39.682 19.44C37.554 19.44 37.526 17.634 37.526 14.946C37.526 12.258 37.554 10.452 39.682 10.452C40.97 10.452 41.278 11.502 41.278 12.622H42.174C42.174 11.712 42.132 9.696 39.682 9.696C36.658 9.696 36.63 12.216 36.63 14.946C36.63 17.676 36.658 20.196 39.682 20.196ZM47.34 20.14C48.992 20.14 49.776 19.062 49.776 17.228V15.702C49.776 13.868 48.992 12.79 47.34 12.79C45.688 12.79 44.904 13.868 44.904 15.702V17.228C44.904 19.062 45.688 20.14 47.34 20.14ZM47.34 13.462C48.726 13.462 48.936 14.624 48.936 16.458C48.936 18.306 48.726 19.468 47.34 19.468C45.954 19.468 45.744 18.306 45.744 16.458C45.744 14.624 45.954 13.462 47.34 13.462ZM53.8267 20V9.892H52.9867V20H53.8267ZM59.4643 20.14C61.1163 20.14 61.9003 19.062 61.9003 17.228V15.702C61.9003 13.868 61.1163 12.79 59.4643 12.79C57.8123 12.79 57.0283 13.868 57.0283 15.702V17.228C57.0283 19.062 57.8123 20.14 59.4643 20.14ZM59.4643 13.462C60.8503 13.462 61.0603 14.624 61.0603 16.458C61.0603 18.306 60.8503 19.468 59.4643 19.468C58.0783 19.468 57.8683 18.306 57.8683 16.458C57.8683 14.624 58.0783 13.462 59.4643 13.462ZM65.727 12.93H64.887V20H65.727V15.45C65.727 14.26 66.511 13.546 67.701 13.644V12.79C66.847 12.79 66.105 13.21 65.755 13.882H65.727V12.93ZM73.7254 17.676C73.7254 18.6 72.9414 19.468 71.9754 19.468C71.1074 19.468 70.7014 18.81 70.7014 18.012C70.7014 16.29 72.5214 16.43 73.7254 16.388V17.676ZM73.7814 20H74.6494C74.5654 19.174 74.5654 18.726 74.5654 18.222V14.666C74.5654 12.86 73.0814 12.79 72.3674 12.79C71.1354 12.79 70.0854 13.322 70.0154 14.68H70.9114C70.9114 13.84 71.5274 13.462 72.2974 13.462C73.4174 13.462 73.7254 14.092 73.7254 15.128V15.716C72.2974 15.828 69.8054 15.576 69.8054 18.054C69.8054 19.286 70.4914 20.14 71.7514 20.14C72.6194 20.14 73.3054 19.804 73.7534 19.132H73.7814V20ZM79.8621 19.468C78.9521 19.468 78.3221 19.118 78.3221 16.486C78.3221 14.834 78.3221 13.462 79.8341 13.462C81.4161 13.462 81.4161 15.422 81.4161 15.842V17.102C81.4161 18.824 80.6601 19.468 79.8621 19.468ZM81.5001 20H82.3121C82.2701 19.762 82.2281 19.3 82.2281 18.6V9.892H81.3881V13.644L81.3601 13.63C80.9261 13.084 80.2961 12.79 79.6521 12.79C77.4821 12.79 77.4821 15.1 77.4821 16.458C77.4821 18.11 77.5941 20.14 79.6381 20.14C80.4641 20.14 80.9961 19.79 81.4301 19.118L81.4581 19.104L81.5001 20ZM87.6228 20.14C89.2748 20.14 90.0588 19.062 90.0588 17.228V15.702C90.0588 13.868 89.2748 12.79 87.6228 12.79C85.9708 12.79 85.1868 13.868 85.1868 15.702V17.228C85.1868 19.062 85.9708 20.14 87.6228 20.14ZM87.6228 13.462C89.0088 13.462 89.2188 14.624 89.2188 16.458C89.2188 18.306 89.0088 19.468 87.6228 19.468C86.2368 19.468 86.0268 18.306 86.0268 16.458C86.0268 14.624 86.2368 13.462 87.6228 13.462ZM98.3611 15.828C98.3611 14.078 99.3131 13.462 99.8591 13.462C101.245 13.462 101.455 14.624 101.455 16.458C101.455 18.306 101.245 19.468 99.8591 19.468C99.0891 19.468 98.3611 18.698 98.3611 17.088V15.828ZM98.3331 12.93H97.5211V22.674H98.3611V19.202L98.3891 19.216C98.8231 19.888 99.3411 20.14 99.8591 20.14C101.665 20.14 102.295 19.062 102.295 17.228V15.646C102.295 14.722 102.281 12.79 100.069 12.79C99.5091 12.79 98.8091 13.084 98.3611 13.77L98.3331 13.784V12.93ZM106.01 12.93H105.17V20H106.01V15.45C106.01 14.26 106.794 13.546 107.984 13.644V12.79C107.13 12.79 106.388 13.21 106.038 13.882H106.01V12.93ZM112.664 20.14C114.316 20.14 115.1 19.062 115.1 17.228V15.702C115.1 13.868 114.316 12.79 112.664 12.79C111.012 12.79 110.228 13.868 110.228 15.702V17.228C110.228 19.062 111.012 20.14 112.664 20.14ZM112.664 13.462C114.05 13.462 114.26 14.624 114.26 16.458C114.26 18.306 114.05 19.468 112.664 19.468C111.278 19.468 111.068 18.306 111.068 16.458C111.068 14.624 111.278 13.462 112.664 13.462ZM118.857 15.45C118.857 14.526 119.263 13.462 120.327 13.462C121.153 13.462 121.405 14.246 121.419 14.946V20H122.259V15.45C122.259 14.526 122.665 13.462 123.729 13.462C124.555 13.462 124.807 14.246 124.821 14.946V20H125.661V14.736C125.619 13.602 125.003 12.79 123.827 12.79C123.043 12.79 122.441 13.196 122.091 13.896C121.853 13.196 121.209 12.79 120.481 12.79C119.697 12.79 119.137 13.224 118.801 13.798H118.773V12.916H118.017V20H118.857V15.45ZM131.023 20.14C132.675 20.14 133.459 19.062 133.459 17.228V15.702C133.459 13.868 132.675 12.79 131.023 12.79C129.371 12.79 128.587 13.868 128.587 15.702V17.228C128.587 19.062 129.371 20.14 131.023 20.14ZM131.023 13.462C132.409 13.462 132.619 14.624 132.619 16.458C132.619 18.306 132.409 19.468 131.023 19.468C129.637 19.468 129.427 18.306 129.427 16.458C129.427 14.624 129.637 13.462 131.023 13.462ZM136.894 13.602V18.656C136.894 19.524 137.23 20.028 138.364 20.028C138.63 20.028 138.91 20.014 139.162 19.986V19.258C138.98 19.286 138.784 19.3 138.504 19.3C137.832 19.3 137.734 19.076 137.734 18.138V13.602H139.162V12.93H137.734V11.11L136.894 11.474V12.93H135.76V13.602H136.894ZM142.806 20V12.93H141.966V20H142.806ZM142.904 10.956V9.892H141.868V10.956H142.904ZM148.444 20.14C150.096 20.14 150.88 19.062 150.88 17.228V15.702C150.88 13.868 150.096 12.79 148.444 12.79C146.792 12.79 146.008 13.868 146.008 15.702V17.228C146.008 19.062 146.792 20.14 148.444 20.14ZM148.444 13.462C149.83 13.462 150.04 14.624 150.04 16.458C150.04 18.306 149.83 19.468 148.444 19.468C147.058 19.468 146.848 18.306 146.848 16.458C146.848 14.624 147.058 13.462 148.444 13.462ZM154.65 15.562C154.65 13.98 155.42 13.462 156.176 13.462C157.156 13.462 157.478 14.232 157.478 15.058V20H158.318V15.016C158.318 14.092 158.136 12.79 156.386 12.79C155.63 12.79 155.084 13.21 154.678 13.798H154.65V12.93H153.81V20H154.65V15.562ZM165.029 17.676C165.029 18.6 164.245 19.468 163.279 19.468C162.411 19.468 162.005 18.81 162.005 18.012C162.005 16.29 163.825 16.43 165.029 16.388V17.676ZM165.085 20H165.953C165.869 19.174 165.869 18.726 165.869 18.222V14.666C165.869 12.86 164.385 12.79 163.671 12.79C162.439 12.79 161.389 13.322 161.319 14.68H162.215C162.215 13.84 162.831 13.462 163.601 13.462C164.721 13.462 165.029 14.092 165.029 15.128V15.716C163.601 15.828 161.109 15.576 161.109 18.054C161.109 19.286 161.795 20.14 163.055 20.14C163.923 20.14 164.609 19.804 165.057 19.132H165.085V20ZM170.172 20V9.892H169.332V20H170.172ZM181.657 17.676C181.657 18.6 180.873 19.468 179.907 19.468C179.039 19.468 178.633 18.81 178.633 18.012C178.633 16.29 180.453 16.43 181.657 16.388V17.676ZM181.713 20H182.581C182.497 19.174 182.497 18.726 182.497 18.222V14.666C182.497 12.86 181.013 12.79 180.299 12.79C179.067 12.79 178.017 13.322 177.947 14.68H178.843C178.843 13.84 179.459 13.462 180.229 13.462C181.349 13.462 181.657 14.092 181.657 15.128V15.716C180.229 15.828 177.737 15.576 177.737 18.054C177.737 19.286 178.423 20.14 179.683 20.14C180.551 20.14 181.237 19.804 181.685 19.132H181.713V20ZM187.793 19.468C186.883 19.468 186.253 19.118 186.253 16.486C186.253 14.834 186.253 13.462 187.765 13.462C189.347 13.462 189.347 15.422 189.347 15.842V17.102C189.347 18.824 188.591 19.468 187.793 19.468ZM189.431 20H190.243C190.201 19.762 190.159 19.3 190.159 18.6V9.892H189.319V13.644L189.291 13.63C188.857 13.084 188.227 12.79 187.583 12.79C185.413 12.79 185.413 15.1 185.413 16.458C185.413 18.11 185.525 20.14 187.569 20.14C188.395 20.14 188.927 19.79 189.361 19.118L189.389 19.104L189.431 20ZM193.482 20H194.518V18.936H193.482V20Z" fill="white"/>
</svg>
