<svg width="232" height="33" viewBox="0 0 232 33" fill="none" xmlns="http://www.w3.org/2000/svg">
<rect width="232" height="33" fill="black" fill-opacity="0.69"/>
<path d="M10.542 16.1C12.488 16.1 12.194 18.046 12.208 18.48C12.222 19.026 12.264 20.706 12.348 21H13.202C13.174 20.608 13.104 20.216 13.104 19.824C13.104 16.212 13.02 16.044 11.606 15.75V15.722C12.964 15.414 13.174 14.574 13.174 13.314C13.174 11.536 12.684 10.892 10.738 10.892H7.952V21H8.848V16.1H10.542ZM8.848 11.648H10.682C11.732 11.648 12.278 11.914 12.278 13.3C12.278 14.994 11.648 15.344 10.304 15.344H8.848V11.648ZM18.508 21.14C20.16 21.14 20.944 20.062 20.944 18.228V16.702C20.944 14.868 20.16 13.79 18.508 13.79C16.856 13.79 16.072 14.868 16.072 16.702V18.228C16.072 20.062 16.856 21.14 18.508 21.14ZM18.508 14.462C19.894 14.462 20.104 15.624 20.104 17.458C20.104 19.306 19.894 20.468 18.508 20.468C17.122 20.468 16.912 19.306 16.912 17.458C16.912 15.624 17.122 14.462 18.508 14.462ZM27.8647 15.96C27.9347 14.476 27.1087 13.79 25.8907 13.79C24.9247 13.79 24.1267 14.154 23.7627 15.162C23.5807 15.694 23.5527 16.8 23.5527 17.5C23.5527 19.25 23.5527 21.14 25.9467 21.14C26.6047 21.14 27.9487 20.818 27.8787 18.914H27.0387C26.9967 19.768 26.8567 20.468 25.7507 20.468C24.4487 20.468 24.4487 18.774 24.4487 17.5C24.4487 16.562 24.5327 15.596 24.6447 15.274C24.8267 14.756 25.2607 14.462 25.7787 14.462C26.7447 14.462 27.0667 15.078 27.0247 15.96H27.8647ZM30.7441 21H31.5841V17.15H31.6121L34.1321 21H35.1961L32.5221 17.08L35.0281 13.93H34.0481L31.6121 17.052H31.5841V10.892H30.7441V21ZM38.2575 23.674H39.0835L42.0095 13.93H41.1695L39.5035 19.726H39.4755L37.7535 13.93H36.8435L39.0835 21.014L38.2575 23.674ZM49.9384 21V11.76H49.9664L53.0184 21H54.0544L57.0224 11.76H57.0504V21H57.9464V10.892H56.5184L53.5784 20.02H53.5504L50.5684 10.892H49.0424V21H49.9384ZM63.4529 21.14C65.1049 21.14 65.8889 20.062 65.8889 18.228V16.702C65.8889 14.868 65.1049 13.79 63.4529 13.79C61.8009 13.79 61.0169 14.868 61.0169 16.702V18.228C61.0169 20.062 61.8009 21.14 63.4529 21.14ZM63.4529 14.462C64.8389 14.462 65.0489 15.624 65.0489 17.458C65.0489 19.306 64.8389 20.468 63.4529 20.468C62.0669 20.468 61.8569 19.306 61.8569 17.458C61.8569 15.624 62.0669 14.462 63.4529 14.462ZM72.4316 13.93V18.914C72.4316 19.404 72.0256 20.468 70.8916 20.468C69.6736 20.468 69.7156 18.984 69.7156 18.788V13.93H68.8756V18.928C68.8756 20.076 69.2816 21.14 70.7376 21.14C71.5216 21.14 72.0256 20.818 72.5156 20.216H72.5436V21H73.2716V13.93H72.4316ZM77.2803 16.562C77.2803 14.98 78.0503 14.462 78.8063 14.462C79.7863 14.462 80.1083 15.232 80.1083 16.058V21H80.9483V16.016C80.9483 15.092 80.7663 13.79 79.0163 13.79C78.2603 13.79 77.7143 14.21 77.3083 14.798H77.2803V13.93H76.4403V21H77.2803V16.562ZM84.565 14.602V19.656C84.565 20.524 84.901 21.028 86.035 21.028C86.301 21.028 86.581 21.014 86.833 20.986V20.258C86.651 20.286 86.455 20.3 86.175 20.3C85.503 20.3 85.405 20.076 85.405 19.138V14.602H86.833V13.93H85.405V12.11L84.565 12.474V13.93H83.431V14.602H84.565ZM92.9555 18.676C92.9555 19.6 92.1715 20.468 91.2055 20.468C90.3375 20.468 89.9315 19.81 89.9315 19.012C89.9315 17.29 91.7515 17.43 92.9555 17.388V18.676ZM93.0115 21H93.8795C93.7955 20.174 93.7955 19.726 93.7955 19.222V15.666C93.7955 13.86 92.3115 13.79 91.5975 13.79C90.3655 13.79 89.3155 14.322 89.2455 15.68H90.1415C90.1415 14.84 90.7575 14.462 91.5275 14.462C92.6475 14.462 92.9555 15.092 92.9555 16.128V16.716C91.5275 16.828 89.0355 16.576 89.0355 19.054C89.0355 20.286 89.7215 21.14 90.9815 21.14C91.8495 21.14 92.5355 20.804 92.9835 20.132H93.0115V21ZM98.0982 21V13.93H97.2582V21H98.0982ZM98.1962 11.956V10.892H97.1602V11.956H98.1962ZM102.322 16.562C102.322 14.98 103.092 14.462 103.848 14.462C104.828 14.462 105.15 15.232 105.15 16.058V21H105.99V16.016C105.99 15.092 105.808 13.79 104.058 13.79C103.302 13.79 102.756 14.21 102.35 14.798H102.322V13.93H101.482V21H102.322V16.562ZM113.064 19.138C113.064 16.772 109.886 17.248 109.886 15.484C109.886 14.854 110.362 14.462 110.964 14.462C111.916 14.462 112.154 14.938 112.196 15.834H113.022C113.022 14.756 112.574 13.79 111.174 13.79C109.942 13.79 109.046 14.252 109.046 15.554C109.046 17.892 112.224 17.416 112.224 19.264C112.224 20.048 111.832 20.51 111.02 20.51C109.942 20.51 109.718 19.866 109.718 18.9H108.864C108.85 20.398 109.452 21.14 110.978 21.14C112.294 21.14 113.064 20.468 113.064 19.138ZM115.846 22.47H116.588L117.428 19.936H116.406L115.846 22.47ZM127.947 21.196C130.341 21.196 130.509 18.83 130.509 18.102H129.557C129.543 19.404 129.109 20.44 127.947 20.44C125.819 20.44 125.791 18.634 125.791 15.946C125.791 13.258 125.819 11.452 127.947 11.452C129.235 11.452 129.543 12.502 129.543 13.622H130.439C130.439 12.712 130.397 10.696 127.947 10.696C124.923 10.696 124.895 13.216 124.895 15.946C124.895 18.676 124.923 21.196 127.947 21.196ZM135.605 21.14C137.257 21.14 138.041 20.062 138.041 18.228V16.702C138.041 14.868 137.257 13.79 135.605 13.79C133.953 13.79 133.169 14.868 133.169 16.702V18.228C133.169 20.062 133.953 21.14 135.605 21.14ZM135.605 14.462C136.991 14.462 137.201 15.624 137.201 17.458C137.201 19.306 136.991 20.468 135.605 20.468C134.219 20.468 134.009 19.306 134.009 17.458C134.009 15.624 134.219 14.462 135.605 14.462ZM142.092 21V10.892H141.252V21H142.092ZM147.729 21.14C149.381 21.14 150.165 20.062 150.165 18.228V16.702C150.165 14.868 149.381 13.79 147.729 13.79C146.077 13.79 145.293 14.868 145.293 16.702V18.228C145.293 20.062 146.077 21.14 147.729 21.14ZM147.729 14.462C149.115 14.462 149.325 15.624 149.325 17.458C149.325 19.306 149.115 20.468 147.729 20.468C146.343 20.468 146.133 19.306 146.133 17.458C146.133 15.624 146.343 14.462 147.729 14.462ZM153.992 13.93H153.152V21H153.992V16.45C153.992 15.26 154.776 14.546 155.966 14.644V13.79C155.112 13.79 154.37 14.21 154.02 14.882H153.992V13.93ZM161.99 18.676C161.99 19.6 161.206 20.468 160.24 20.468C159.372 20.468 158.966 19.81 158.966 19.012C158.966 17.29 160.786 17.43 161.99 17.388V18.676ZM162.046 21H162.914C162.83 20.174 162.83 19.726 162.83 19.222V15.666C162.83 13.86 161.346 13.79 160.632 13.79C159.4 13.79 158.35 14.322 158.28 15.68H159.176C159.176 14.84 159.792 14.462 160.562 14.462C161.682 14.462 161.99 15.092 161.99 16.128V16.716C160.562 16.828 158.07 16.576 158.07 19.054C158.07 20.286 158.756 21.14 160.016 21.14C160.884 21.14 161.57 20.804 162.018 20.132H162.046V21ZM168.127 20.468C167.217 20.468 166.587 20.118 166.587 17.486C166.587 15.834 166.587 14.462 168.099 14.462C169.681 14.462 169.681 16.422 169.681 16.842V18.102C169.681 19.824 168.925 20.468 168.127 20.468ZM169.765 21H170.577C170.535 20.762 170.493 20.3 170.493 19.6V10.892H169.653V14.644L169.625 14.63C169.191 14.084 168.561 13.79 167.917 13.79C165.747 13.79 165.747 16.1 165.747 17.458C165.747 19.11 165.859 21.14 167.903 21.14C168.729 21.14 169.261 20.79 169.695 20.118L169.723 20.104L169.765 21ZM175.888 21.14C177.54 21.14 178.324 20.062 178.324 18.228V16.702C178.324 14.868 177.54 13.79 175.888 13.79C174.236 13.79 173.452 14.868 173.452 16.702V18.228C173.452 20.062 174.236 21.14 175.888 21.14ZM175.888 14.462C177.274 14.462 177.484 15.624 177.484 17.458C177.484 19.306 177.274 20.468 175.888 20.468C174.502 20.468 174.292 19.306 174.292 17.458C174.292 15.624 174.502 14.462 175.888 14.462ZM181.156 22.47H181.898L182.738 19.936H181.716L181.156 22.47ZM191.241 10.892H190.345V17.906C190.345 20.51 191.717 21.196 193.299 21.196C194.881 21.196 196.253 20.51 196.253 17.906V10.892H195.357V17.248C195.357 18.564 195.357 20.44 193.299 20.44C191.241 20.44 191.241 18.564 191.241 17.248V10.892ZM204.789 13.454C204.789 11.998 204.341 10.696 202.241 10.696C200.589 10.696 199.483 11.424 199.497 13.174C199.511 14.182 199.595 14.784 201.555 15.988C203.011 16.884 203.921 17.276 203.921 18.648C203.921 19.81 203.347 20.44 202.171 20.44C200.365 20.44 200.281 19.278 200.281 18.158H199.357C199.273 20.132 200.155 21.196 202.129 21.196C203.893 21.196 204.817 20.314 204.817 18.508C204.817 16.548 203.543 16.282 202.297 15.386C201.149 14.56 200.393 14.518 200.393 13.02C200.393 11.83 201.079 11.452 202.171 11.452C203.543 11.452 203.851 12.208 203.879 13.454H204.789ZM210.361 10.892L207.169 21H208.065L208.863 18.34H212.825L213.637 21H214.575L211.425 10.892H210.361ZM209.129 17.584L210.837 11.872H210.865L212.587 17.584H209.129ZM217.202 21H218.238V19.936H217.202V21Z" fill="white"/>
</svg>
