<svg width="123" height="16" viewBox="0 0 123 16" fill="none" xmlns="http://www.w3.org/2000/svg">
<path d="M10.96 14L9.26 15H14L12 13.9L6.74 2H4.32L6.46 3.86L2.1 13.9L0 15H4.62L2.82 14L4.16 10.9H9.58L10.96 14ZM6.84 4.74L9.28 10.2H4.46L6.84 4.74ZM18.2039 2V14.1L16.6039 15H20.8039L19.2039 14.1V0.699999L16.6039 1.5L18.2039 2ZM31.8945 9.6C31.8945 7.4 30.9945 5.7 28.4545 5.7C26.0745 5.7 24.0945 7.58 24.0945 10.5C24.0945 13.2 25.6945 15.3 28.2945 15.3C31.2945 15.3 31.8945 12.4 31.8945 12.4C31.8945 12.4 30.9945 14.4 28.7945 14.4C26.7945 14.4 25.0945 13.16 25.0945 10.18C25.0945 9.98 25.0945 9.8 25.1145 9.6H31.8945ZM28.4145 6.18C29.8145 6.18 30.7945 7.1 30.7945 8.1C30.7945 8.9 30.0945 9 29.0945 9H25.2145C25.6545 7.08 27.1545 6.18 28.4145 6.18ZM38.0291 6.8L39.4291 6H34.9891L36.8891 6.9L39.4891 10.3L36.6891 14.1L34.7891 15H38.7691L37.3691 14.2L39.8691 10.8L42.4891 14.2L41.0891 15H45.5091L43.6091 14.1L40.4491 9.98L42.7091 6.9L44.6891 6H40.6491L42.0491 6.8L40.0691 9.48L38.0291 6.8ZM48.7117 2C48.7117 2.56 49.1517 3 49.7117 3H49.8117L48.8117 5.3C50.6117 3.1 50.7117 2.7 50.7117 2C50.7117 1.44 50.2717 0.999999 49.7117 0.999999C49.1517 0.999999 48.7117 1.44 48.7117 2ZM60.9063 5.7L60.1063 6.5C60.1063 6.5 59.4063 5.7 58.0063 5.7C56.4062 5.7 55.1063 6.64 55.1063 8.1C55.1063 11.12 60.5063 10.28 60.5063 12.86C60.5063 14.2 59.3063 14.7 58.4063 14.7C57.8063 14.7 56.7063 14.52 56.0663 13.2L55.2063 11.4V15.3L55.9063 14.12C55.9263 14.18 56.5462 15.3 58.4063 15.3C60.0063 15.3 61.4063 14.34 61.4063 12.54C61.4063 9.24 55.9063 10 55.9063 7.8C55.9063 7 56.6863 6.3 58.0063 6.3C59.4063 6.3 60.0063 7.2 60.0063 7.2L60.9063 8.82V5.7ZM72.2977 15H78.1977C81.0977 15 82.9977 13.7 82.9977 11.4C82.9977 8.4 79.9977 8.2 79.9977 8.2V8.1C79.9977 8.1 82.4977 7.56 82.4977 5.16C82.4977 3.16 80.8977 2 78.1977 2H72.2977L74.2977 3.1V13.9L72.2977 15ZM78.0977 8.6C79.8977 8.6 81.8977 9.2 81.8977 11.4C81.8977 13.6 79.9977 14.3 78.1977 14.3H75.9977L75.2977 13.9V8.6H78.0977ZM75.2977 3.1L76.0177 2.7H78.1977C79.7977 2.7 81.3977 3.36 81.3977 5.26C81.3977 7.06 79.7977 7.9 78.1977 7.9H75.2977V3.1ZM86.7977 6.5L89.3977 5.7V14.1L90.9977 15H86.7977L88.3977 14.1V7L86.7977 6.5ZM87.6977 2.7C87.6977 3.26 88.1377 3.7 88.6977 3.7C89.2577 3.7 89.6977 3.26 89.6977 2.7C89.6977 2.14 89.2577 1.7 88.6977 1.7C88.1377 1.7 87.6977 2.14 87.6977 2.7ZM95.9055 7V14.1L94.3055 15H98.5055L96.9055 14.1V8.4C97.8055 7.4 98.5655 6.78 98.9655 6.78C99.6255 6.78 99.5255 7.4 100.225 7.4C100.705 7.4 101.005 7.06 101.005 6.64C101.005 6.04 100.605 5.7 99.9055 5.7C99.3455 5.7 98.8655 5.92 98.2455 6.52L96.9055 7.8V5.7L94.3055 6.5L95.9055 7ZM104.011 6.6H105.911V13.2C105.911 14.7 106.511 15.3 107.511 15.3C108.611 15.3 109.171 13.96 109.211 13.82C109.191 13.86 108.711 14.6 107.911 14.6C107.211 14.6 106.911 14 106.911 13.2V6.6H109.211V6H106.911V3.9L104.011 6.6ZM114.317 2V14.1L112.717 15H116.917L115.317 14.1V8.16C115.917 7.42 117.117 6.46 118.317 6.46C119.617 6.46 120.217 7.4 120.217 9V14.1L118.617 15H122.817L121.217 14.1V8.7C121.217 6.5 120.117 5.7 118.717 5.7C117.317 5.7 116.017 6.8 115.317 7.56V0.699999L112.717 1.5L114.317 2Z" fill="white"/>
</svg>
