<svg width="458" height="132" viewBox="0 0 458 132" fill="none" xmlns="http://www.w3.org/2000/svg">
<rect width="458" height="132" fill="black" fill-opacity="0.69"/>
<path d="M14.595 21.175L16.98 15.07L19.32 21.175H14.595ZM13.14 25L14.28 22.075H19.665L20.82 25H21.885L17.565 14.17H16.425L12.135 25H13.14ZM35.4497 18.07C37.1597 18.07 37.7447 19.69 37.7447 21.13C37.7447 22.525 37.3097 24.4 35.5847 24.4C33.6197 24.4 33.0197 22.795 33.0197 21.085C33.0197 19.555 33.6947 18.07 35.4497 18.07ZM33.0197 23.89L33.0497 23.83C33.6647 24.73 34.5797 25.225 35.6747 25.225C37.8647 25.225 38.7197 23.095 38.7197 21.205C38.7197 19.255 37.8647 17.245 35.6297 17.245C34.6247 17.245 33.5747 17.725 33.0497 18.61L33.0197 18.58V14.17H32.1197V23.305C32.1197 23.89 32.0747 24.49 32.0447 25H32.9747L33.0197 23.89ZM47.6096 21.235C47.6096 22.63 46.8896 24.4 45.0746 24.4C43.2596 24.4 42.5396 22.63 42.5396 21.235C42.5396 19.84 43.2596 18.07 45.0746 18.07C46.8896 18.07 47.6096 19.84 47.6096 21.235ZM45.0746 17.245C42.6746 17.245 41.5646 19.255 41.5646 21.235C41.5646 23.215 42.6746 25.225 45.0746 25.225C47.4746 25.225 48.5846 23.215 48.5846 21.235C48.5846 19.255 47.4746 17.245 45.0746 17.245ZM50.5666 17.47L53.6866 25L52.5466 27.88H53.5366L57.6916 17.47H56.7166L54.1966 23.77L51.6616 17.47H50.5666ZM69.1114 20.665C69.1114 19.315 69.7864 18.07 71.2714 18.07C72.5014 18.07 73.2514 18.835 73.2514 20.14V25H74.1514V20.29C74.1514 19.42 73.9564 17.245 71.4964 17.245C70.5214 17.245 69.6664 17.68 69.1414 18.61L69.1114 18.58L69.0664 17.47H68.1364C68.1664 17.98 68.2114 18.58 68.2114 19.165V25H69.1114V20.665ZM78.3614 22.9C78.3614 21.01 81.0314 21.25 82.3064 21.205C82.3964 22.78 82.0214 24.4 80.0564 24.4C79.1414 24.4 78.3614 23.92 78.3614 22.9ZM82.3064 20.38C81.2114 20.44 79.9064 20.29 78.9014 20.725C78.0014 21.1 77.3864 21.88 77.3864 22.9C77.3864 24.37 78.4964 25.225 79.8914 25.225C80.9114 25.225 81.9164 24.625 82.2464 23.995L82.2914 23.89H82.3214L82.3514 25H83.2814C83.2514 24.49 83.1914 23.89 83.2064 23.305V19.735C83.2364 18.01 82.2014 17.245 80.5364 17.245C79.0964 17.245 77.9414 17.83 77.7164 19.375H78.6764C78.7964 18.355 79.5764 18.07 80.5214 18.07C81.5864 18.07 82.2164 18.46 82.3064 19.69V20.38ZM87.8864 17.47H86.9564C86.9864 17.98 87.0314 18.58 87.0314 19.165V25H87.9314V20.665C87.9314 19.315 88.6064 18.07 90.0914 18.07C91.3214 18.07 92.0714 18.835 92.0714 20.14V25H92.9714V20.665C92.9714 19.315 93.6464 18.07 95.1314 18.07C96.3614 18.07 97.1114 18.835 97.1114 20.14V25H98.0114V20.29C98.0114 19.42 97.8164 17.245 95.3564 17.245C94.1864 17.245 93.3164 18.01 92.7614 18.895C92.4314 17.905 91.5014 17.245 90.3164 17.245C89.3414 17.245 88.4864 17.68 87.9614 18.61L87.9314 18.58L87.8864 17.47ZM108.221 21.445C108.221 19.09 107.306 17.245 104.786 17.245C102.551 17.245 101.426 19.195 101.426 21.235C101.426 23.29 102.476 25.225 104.726 25.225C106.541 25.225 107.666 24.4 108.131 22.6H107.186C106.961 23.635 106.076 24.4 105.011 24.4C103.166 24.4 102.431 23.05 102.401 21.445H108.221ZM102.431 20.62C102.551 19.3 103.331 18.07 104.801 18.07C106.361 18.07 107.141 19.165 107.246 20.62H102.431ZM116.871 21.055C116.871 22.765 116.271 24.4 114.306 24.4C112.581 24.4 112.176 22.495 112.176 21.1C112.176 19.66 112.731 18.07 114.441 18.07C116.196 18.07 116.871 19.525 116.871 21.055ZM116.946 25H117.876C117.846 24.49 117.801 23.89 117.801 23.305V14.17H116.901V18.58L116.871 18.61C116.346 17.725 115.296 17.245 114.291 17.245C112.056 17.245 111.201 19.255 111.201 21.205C111.201 23.095 112.056 25.225 114.291 25.225C115.341 25.225 116.256 24.73 116.871 23.83L116.901 23.89L116.946 25ZM130.125 21.175L132.51 15.07L134.85 21.175H130.125ZM128.67 25L129.81 22.075H135.195L136.35 25H137.415L133.095 14.17H131.955L127.665 25H128.67ZM141.15 14.17H140.25V25H141.15V14.17ZM151.405 21.445C151.405 19.09 150.49 17.245 147.97 17.245C145.735 17.245 144.61 19.195 144.61 21.235C144.61 23.29 145.66 25.225 147.91 25.225C149.725 25.225 150.85 24.4 151.315 22.6H150.37C150.145 23.635 149.26 24.4 148.195 24.4C146.35 24.4 145.615 23.05 145.585 21.445H151.405ZM145.615 20.62C145.735 19.3 146.515 18.07 147.985 18.07C149.545 18.07 150.325 19.165 150.43 20.62H145.615ZM157.197 20.5L154.992 17.47H153.792L156.567 21.145L153.687 24.97L153.657 25H154.677L157.047 21.73L159.462 25H160.647L157.707 21.115L160.407 17.47H159.462L157.197 20.5ZM171.197 17.47H170.207L172.967 25H173.882L176.237 18.505H176.267L178.577 25H179.432L182.237 17.47H181.247L179.072 23.755H179.042L176.822 17.47H175.757L173.477 23.815H173.447L171.197 17.47ZM185.184 22.9C185.184 21.01 187.854 21.25 189.129 21.205C189.219 22.78 188.844 24.4 186.879 24.4C185.964 24.4 185.184 23.92 185.184 22.9ZM189.129 20.38C188.034 20.44 186.729 20.29 185.724 20.725C184.824 21.1 184.209 21.88 184.209 22.9C184.209 24.37 185.319 25.225 186.714 25.225C187.734 25.225 188.739 24.625 189.069 23.995L189.114 23.89H189.144L189.174 25H190.104C190.074 24.49 190.014 23.89 190.029 23.305V19.735C190.059 18.01 189.024 17.245 187.359 17.245C185.919 17.245 184.764 17.83 184.539 19.375H185.499C185.619 18.355 186.399 18.07 187.344 18.07C188.409 18.07 189.039 18.46 189.129 19.69V20.38ZM193.614 19.345C193.614 20.74 194.814 21.085 195.999 21.37C197.199 21.64 198.384 21.82 198.384 22.9C198.384 23.95 197.379 24.4 196.419 24.4C195.399 24.4 194.409 24.07 194.334 22.945H193.359C193.389 24.61 194.889 25.225 196.194 25.225C197.784 25.225 199.359 24.46 199.359 22.765C199.359 21.955 198.864 21.28 198.084 21.01C196.044 20.29 194.589 20.395 194.589 19.285C194.589 18.4 195.444 18.07 196.284 18.07C197.214 18.07 198.054 18.385 198.144 19.33H199.119C198.999 17.74 197.799 17.245 196.374 17.245C195.054 17.245 193.614 17.785 193.614 19.345ZM213.614 18.07C215.324 18.07 215.909 19.69 215.909 21.13C215.909 22.525 215.474 24.4 213.749 24.4C211.784 24.4 211.184 22.795 211.184 21.085C211.184 19.555 211.859 18.07 213.614 18.07ZM211.184 23.89L211.214 23.83C211.829 24.73 212.744 25.225 213.839 25.225C216.029 25.225 216.884 23.095 216.884 21.205C216.884 19.255 216.029 17.245 213.794 17.245C212.789 17.245 211.739 17.725 211.214 18.61L211.184 18.58V14.17H210.284V23.305C210.284 23.89 210.239 24.49 210.209 25H211.139L211.184 23.89ZM225.774 21.235C225.774 22.63 225.054 24.4 223.239 24.4C221.424 24.4 220.704 22.63 220.704 21.235C220.704 19.84 221.424 18.07 223.239 18.07C225.054 18.07 225.774 19.84 225.774 21.235ZM223.239 17.245C220.839 17.245 219.729 19.255 219.729 21.235C219.729 23.215 220.839 25.225 223.239 25.225C225.639 25.225 226.749 23.215 226.749 21.235C226.749 19.255 225.639 17.245 223.239 17.245ZM231.004 20.47C231.034 19.03 231.739 18.07 233.074 18.07C233.254 18.07 233.449 18.115 233.629 18.13V17.26C233.329 17.245 233.029 17.23 232.729 17.245C231.979 17.275 231.304 17.815 231.034 18.58H231.004L230.959 17.47H230.029C230.059 17.98 230.119 18.58 230.104 19.165V25H231.004V20.47ZM237.499 20.665C237.499 19.315 238.174 18.07 239.659 18.07C240.889 18.07 241.639 18.835 241.639 20.14V25H242.539V20.29C242.539 19.42 242.344 17.245 239.884 17.245C238.909 17.245 238.054 17.68 237.529 18.61L237.499 18.58L237.454 17.47H236.524C236.554 17.98 236.599 18.58 236.599 19.165V25H237.499V20.665ZM259.504 21.235C259.504 22.63 258.784 24.4 256.969 24.4C255.154 24.4 254.434 22.63 254.434 21.235C254.434 19.84 255.154 18.07 256.969 18.07C258.784 18.07 259.504 19.84 259.504 21.235ZM256.969 17.245C254.569 17.245 253.459 19.255 253.459 21.235C253.459 23.215 254.569 25.225 256.969 25.225C259.369 25.225 260.479 23.215 260.479 21.235C260.479 19.255 259.369 17.245 256.969 17.245ZM264.734 20.665C264.734 19.315 265.409 18.07 266.894 18.07C268.124 18.07 268.874 18.835 268.874 20.14V25H269.774V20.29C269.774 19.42 269.579 17.245 267.119 17.245C266.144 17.245 265.289 17.68 264.764 18.61L264.734 18.58L264.689 17.47H263.759C263.789 17.98 263.834 18.58 263.834 19.165V25H264.734V20.665ZM281.414 25H282.389V15.64H282.419L288.269 25H289.499V14.17H288.524V23.695H288.494L282.524 14.17H281.414V25ZM299.064 21.235C299.064 22.63 298.344 24.4 296.529 24.4C294.714 24.4 293.994 22.63 293.994 21.235C293.994 19.84 294.714 18.07 296.529 18.07C298.344 18.07 299.064 19.84 299.064 21.235ZM296.529 17.245C294.129 17.245 293.019 19.255 293.019 21.235C293.019 23.215 294.129 25.225 296.529 25.225C298.929 25.225 300.039 23.215 300.039 21.235C300.039 19.255 298.929 17.245 296.529 17.245ZM302.111 17.47L305.186 25H306.206L309.191 17.47H308.201L305.696 23.755L303.101 17.47H302.111ZM318.153 21.445C318.153 19.09 317.238 17.245 314.718 17.245C312.483 17.245 311.358 19.195 311.358 21.235C311.358 23.29 312.408 25.225 314.658 25.225C316.473 25.225 317.598 24.4 318.063 22.6H317.118C316.893 23.635 316.008 24.4 314.943 24.4C313.098 24.4 312.363 23.05 312.333 21.445H318.153ZM312.363 20.62C312.483 19.3 313.263 18.07 314.733 18.07C316.293 18.07 317.073 19.165 317.178 20.62H312.363ZM322.483 17.47H321.553C321.583 17.98 321.628 18.58 321.628 19.165V25H322.528V20.665C322.528 19.315 323.203 18.07 324.688 18.07C325.918 18.07 326.668 18.835 326.668 20.14V25H327.568V20.665C327.568 19.315 328.243 18.07 329.728 18.07C330.958 18.07 331.708 18.835 331.708 20.14V25H332.608V20.29C332.608 19.42 332.413 17.245 329.953 17.245C328.783 17.245 327.913 18.01 327.358 18.895C327.028 17.905 326.098 17.245 324.913 17.245C323.938 17.245 323.083 17.68 322.558 18.61L322.528 18.58L322.483 17.47ZM339.653 18.07C341.363 18.07 341.948 19.69 341.948 21.13C341.948 22.525 341.513 24.4 339.788 24.4C337.823 24.4 337.223 22.795 337.223 21.085C337.223 19.555 337.898 18.07 339.653 18.07ZM337.223 23.89L337.253 23.83C337.868 24.73 338.783 25.225 339.878 25.225C342.068 25.225 342.923 23.095 342.923 21.205C342.923 19.255 342.068 17.245 339.833 17.245C338.828 17.245 337.778 17.725 337.253 18.61L337.223 18.58V14.17H336.323V23.305C336.323 23.89 336.278 24.49 336.248 25H337.178L337.223 23.89ZM352.653 21.445C352.653 19.09 351.738 17.245 349.218 17.245C346.983 17.245 345.858 19.195 345.858 21.235C345.858 23.29 346.908 25.225 349.158 25.225C350.973 25.225 352.098 24.4 352.563 22.6H351.618C351.393 23.635 350.508 24.4 349.443 24.4C347.598 24.4 346.863 23.05 346.833 21.445H352.653ZM346.863 20.62C346.983 19.3 347.763 18.07 349.233 18.07C350.793 18.07 351.573 19.165 351.678 20.62H346.863ZM357.043 20.47C357.073 19.03 357.778 18.07 359.113 18.07C359.293 18.07 359.488 18.115 359.668 18.13V17.26C359.368 17.245 359.068 17.23 358.768 17.245C358.018 17.275 357.343 17.815 357.073 18.58H357.043L356.998 17.47H356.068C356.098 17.98 356.158 18.58 356.143 19.165V25H357.043V20.47ZM374.208 25H375.183V22.585H376.848V21.775H375.183V14.62H373.893L369.333 21.64V22.585H374.208V25ZM374.208 21.775H370.158L374.178 15.595H374.208V21.775ZM380.683 22.99C380.683 24.01 380.578 25.225 382.483 25.225C382.783 25.225 383.113 25.165 383.398 25.09V24.31C383.158 24.385 382.888 24.4 382.618 24.4C381.928 24.4 381.568 24.025 381.583 23.335V18.295H383.293V17.47H381.583V15.475L380.683 15.865V17.47H379.183V18.295H380.683V22.99ZM387.433 14.17H386.533V25H387.433V20.665C387.433 19.315 388.108 18.07 389.593 18.07C390.823 18.07 391.573 18.835 391.573 20.14V25H392.473V20.29C392.473 19.42 392.278 17.245 389.818 17.245C388.843 17.245 387.988 17.68 387.463 18.61H387.433V14.17ZM396.698 23.785L396.053 26.86H396.833L397.913 23.785H396.698ZM410.147 17.23C410.987 16.825 411.797 16.33 412.487 15.67V25H413.462V14.62H412.532C411.857 15.295 411.032 15.895 410.147 16.255V17.23ZM421.5 15.295C422.925 15.295 423.945 16.3 423.945 17.725C423.945 19.165 422.88 20.185 421.44 20.185C420.075 20.185 419.22 19.225 419.22 17.86C419.22 16.42 419.955 15.295 421.5 15.295ZM418.2 22.45C418.335 24.1 419.385 25.225 421.23 25.225C424.545 25.225 425.175 22.315 425.175 19.525C425.175 16.945 424.5 14.395 421.485 14.395C419.475 14.395 418.17 15.805 418.17 17.785C418.17 19.645 419.475 21.01 421.35 21.01C422.55 21.01 423.585 20.425 424.095 19.42H424.125C424.125 20.995 423.87 24.325 421.5 24.325C420.225 24.325 419.295 23.815 419.25 22.45H418.2ZM430.24 19.615C428.89 19.9 427.96 20.845 427.975 22.18C427.975 24.28 429.76 25.225 431.5 25.225C433.24 25.225 435.025 24.28 435.025 22.18C435.025 20.8 434.17 19.96 432.79 19.6V19.585C433.975 19.315 434.875 18.445 434.875 17.185C434.875 15.265 433.165 14.395 431.5 14.395C429.835 14.395 428.125 15.265 428.125 17.185C428.125 18.415 429.025 19.465 430.24 19.585V19.615ZM429.1 17.185C429.1 15.79 430.345 15.22 431.5 15.22C432.655 15.22 433.9 15.79 433.9 17.185C433.9 18.475 432.88 19.135 431.5 19.135C430.12 19.135 429.1 18.475 429.1 17.185ZM429.025 22.18C429.025 20.695 430.21 20.035 431.5 20.035C432.79 20.035 433.975 20.695 433.975 22.18C433.975 23.665 432.79 24.325 431.5 24.325C430.21 24.325 429.025 23.665 429.025 22.18ZM438.905 17.23C439.745 16.825 440.555 16.33 441.245 15.67V25H442.22V14.62H441.29C440.615 15.295 439.79 15.895 438.905 16.255V17.23ZM13.215 40.47V48H14.115V40.47H13.215ZM14.19 37.17H13.14V38.295H14.19V37.17ZM18.9252 43.665C18.9252 42.315 19.6002 41.07 21.0852 41.07C22.3152 41.07 23.0652 41.835 23.0652 43.14V48H23.9652V43.29C23.9652 42.42 23.7702 40.245 21.3102 40.245C20.3352 40.245 19.4802 40.68 18.9552 41.61L18.9252 41.58L18.8802 40.47H17.9502C17.9802 40.98 18.0252 41.58 18.0252 42.165V48H18.9252V43.665ZM43.4318 39.705C43.2818 37.755 41.6018 36.945 39.8318 36.945C36.5618 36.945 35.1668 39.615 35.1668 42.585C35.1668 45.585 36.5468 48.225 39.8318 48.225C41.5718 48.225 43.2368 47.19 43.5518 45.375H42.5018C42.2318 46.725 41.0318 47.325 39.8318 47.325C37.0568 47.325 36.2168 44.805 36.2168 42.585C36.2168 40.365 37.0568 37.845 39.8318 37.845C41.0618 37.845 42.2018 38.385 42.3818 39.705H43.4318ZM52.4617 44.235C52.4617 45.63 51.7417 47.4 49.9267 47.4C48.1117 47.4 47.3917 45.63 47.3917 44.235C47.3917 42.84 48.1117 41.07 49.9267 41.07C51.7417 41.07 52.4617 42.84 52.4617 44.235ZM49.9267 40.245C47.5267 40.245 46.4167 42.255 46.4167 44.235C46.4167 46.215 47.5267 48.225 49.9267 48.225C52.3267 48.225 53.4367 46.215 53.4367 44.235C53.4367 42.255 52.3267 40.245 49.9267 40.245ZM57.7067 37.17H56.8067V48H57.7067V37.17ZM66.6569 44.805C66.6569 46.155 65.9819 47.4 64.4969 47.4C63.2669 47.4 62.5169 46.635 62.5169 45.33V40.47H61.6169V45.18C61.6169 46.05 61.8119 48.225 64.2719 48.225C65.2469 48.225 66.1019 47.79 66.6269 46.86L66.6569 46.89L66.7019 48H67.6319C67.6019 47.49 67.5569 46.89 67.5569 46.305V40.47H66.6569V44.805ZM72.2918 40.47H71.3618C71.3918 40.98 71.4368 41.58 71.4368 42.165V48H72.3368V43.665C72.3368 42.315 73.0118 41.07 74.4968 41.07C75.7268 41.07 76.4768 41.835 76.4768 43.14V48H77.3768V43.665C77.3768 42.315 78.0518 41.07 79.5368 41.07C80.7668 41.07 81.5168 41.835 81.5168 43.14V48H82.4168V43.29C82.4168 42.42 82.2218 40.245 79.7618 40.245C78.5918 40.245 77.7218 41.01 77.1668 41.895C76.8368 40.905 75.9068 40.245 74.7218 40.245C73.7468 40.245 72.8918 40.68 72.3668 41.61L72.3368 41.58L72.2918 40.47ZM89.4619 41.07C91.1719 41.07 91.7569 42.69 91.7569 44.13C91.7569 45.525 91.3219 47.4 89.5969 47.4C87.6319 47.4 87.0319 45.795 87.0319 44.085C87.0319 42.555 87.7069 41.07 89.4619 41.07ZM87.0319 46.89L87.0619 46.83C87.6769 47.73 88.5919 48.225 89.6869 48.225C91.8769 48.225 92.7319 46.095 92.7319 44.205C92.7319 42.255 91.8769 40.245 89.6419 40.245C88.6369 40.245 87.5869 40.725 87.0619 41.61L87.0319 41.58V37.17H86.1319V46.305C86.1319 46.89 86.0869 47.49 86.0569 48H86.9869L87.0319 46.89ZM96.1319 40.47V48H97.0319V40.47H96.1319ZM97.1069 37.17H96.0569V38.295H97.1069V37.17ZM101.842 43.665C101.842 42.315 102.517 41.07 104.002 41.07C105.232 41.07 105.982 41.835 105.982 43.14V48H106.882V43.29C106.882 42.42 106.687 40.245 104.227 40.245C103.252 40.245 102.397 40.68 101.872 41.61L101.842 41.58L101.797 40.47H100.867C100.897 40.98 100.942 41.58 100.942 42.165V48H101.842V43.665ZM117.122 44.445C117.122 42.09 116.207 40.245 113.687 40.245C111.452 40.245 110.327 42.195 110.327 44.235C110.327 46.29 111.377 48.225 113.627 48.225C115.442 48.225 116.567 47.4 117.032 45.6H116.087C115.862 46.635 114.977 47.4 113.912 47.4C112.067 47.4 111.332 46.05 111.302 44.445H117.122ZM111.332 43.62C111.452 42.3 112.232 41.07 113.702 41.07C115.262 41.07 116.042 42.165 116.147 43.62H111.332ZM120.942 46.785L120.297 49.86H121.077L122.157 46.785H120.942ZM141.858 39.705C141.708 37.755 140.028 36.945 138.258 36.945C134.988 36.945 133.593 39.615 133.593 42.585C133.593 45.585 134.973 48.225 138.258 48.225C139.998 48.225 141.663 47.19 141.978 45.375H140.928C140.658 46.725 139.458 47.325 138.258 47.325C135.483 47.325 134.643 44.805 134.643 42.585C134.643 40.365 135.483 37.845 138.258 37.845C139.488 37.845 140.628 38.385 140.808 39.705H141.858ZM150.888 44.235C150.888 45.63 150.168 47.4 148.353 47.4C146.538 47.4 145.818 45.63 145.818 44.235C145.818 42.84 146.538 41.07 148.353 41.07C150.168 41.07 150.888 42.84 150.888 44.235ZM148.353 40.245C145.953 40.245 144.843 42.255 144.843 44.235C144.843 46.215 145.953 48.225 148.353 48.225C150.753 48.225 151.863 46.215 151.863 44.235C151.863 42.255 150.753 40.245 148.353 40.245ZM156.133 37.17H155.233V48H156.133V37.17ZM165.548 44.235C165.548 45.63 164.828 47.4 163.013 47.4C161.198 47.4 160.478 45.63 160.478 44.235C160.478 42.84 161.198 41.07 163.013 41.07C164.828 41.07 165.548 42.84 165.548 44.235ZM163.013 40.245C160.613 40.245 159.503 42.255 159.503 44.235C159.503 46.215 160.613 48.225 163.013 48.225C165.413 48.225 166.523 46.215 166.523 44.235C166.523 42.255 165.413 40.245 163.013 40.245ZM170.778 43.47C170.808 42.03 171.513 41.07 172.848 41.07C173.028 41.07 173.223 41.115 173.403 41.13V40.26C173.103 40.245 172.803 40.23 172.503 40.245C171.753 40.275 171.078 40.815 170.808 41.58H170.778L170.733 40.47H169.803C169.833 40.98 169.893 41.58 169.878 42.165V48H170.778V43.47ZM176.689 45.9C176.689 44.01 179.359 44.25 180.634 44.205C180.724 45.78 180.349 47.4 178.384 47.4C177.469 47.4 176.689 46.92 176.689 45.9ZM180.634 43.38C179.539 43.44 178.234 43.29 177.229 43.725C176.329 44.1 175.714 44.88 175.714 45.9C175.714 47.37 176.824 48.225 178.219 48.225C179.239 48.225 180.244 47.625 180.574 46.995L180.619 46.89H180.649L180.679 48H181.609C181.579 47.49 181.519 46.89 181.534 46.305V42.735C181.564 41.01 180.529 40.245 178.864 40.245C177.424 40.245 176.269 40.83 176.044 42.375H177.004C177.124 41.355 177.904 41.07 178.849 41.07C179.914 41.07 180.544 41.46 180.634 42.69V43.38ZM190.534 44.055C190.534 45.765 189.934 47.4 187.969 47.4C186.244 47.4 185.839 45.495 185.839 44.1C185.839 42.66 186.394 41.07 188.104 41.07C189.859 41.07 190.534 42.525 190.534 44.055ZM190.609 48H191.539C191.509 47.49 191.464 46.89 191.464 46.305V37.17H190.564V41.58L190.534 41.61C190.009 40.725 188.959 40.245 187.954 40.245C185.719 40.245 184.864 42.255 184.864 44.205C184.864 46.095 185.719 48.225 187.954 48.225C189.004 48.225 189.919 47.73 190.534 46.83L190.564 46.89L190.609 48ZM200.714 44.235C200.714 45.63 199.994 47.4 198.179 47.4C196.364 47.4 195.644 45.63 195.644 44.235C195.644 42.84 196.364 41.07 198.179 41.07C199.994 41.07 200.714 42.84 200.714 44.235ZM198.179 40.245C195.779 40.245 194.669 42.255 194.669 44.235C194.669 46.215 195.779 48.225 198.179 48.225C200.579 48.225 201.689 46.215 201.689 44.235C201.689 42.255 200.579 40.245 198.179 40.245ZM205.373 46.785L204.728 49.86H205.508L206.588 46.785H205.373ZM218.565 37.17V44.19C218.595 46.515 219.9 48.225 222.525 48.225C225.15 48.225 226.455 46.515 226.485 44.19V37.17H225.51V44.175C225.435 46.14 224.31 47.325 222.525 47.325C220.74 47.325 219.615 46.14 219.54 44.175V37.17H218.565ZM237.73 45.15C237.73 41.415 231.61 42.81 231.61 39.735C231.61 38.415 233.005 37.845 234.13 37.845C235.24 37.845 236.455 38.19 236.485 39.525H237.535C237.295 37.44 235.435 36.945 234.01 36.945C232.3 36.945 230.56 37.98 230.56 39.87C230.56 42.21 233.23 42.765 234.985 43.35C235.9 43.65 236.68 44.16 236.68 45.24C236.68 46.62 235.285 47.325 234.07 47.325C232.615 47.325 231.385 46.845 231.355 45.18H230.305C230.35 46.965 231.805 48.225 233.53 48.225C235.705 48.225 237.73 47.505 237.73 45.15ZM242.319 44.175L244.704 38.07L247.044 44.175H242.319ZM240.864 48L242.004 45.075H247.389L248.544 48H249.609L245.289 37.17H244.149L239.859 48H240.864ZM253.914 48V46.71H252.714V48H253.914ZM273.676 39.705C273.526 37.755 271.846 36.945 270.076 36.945C266.806 36.945 265.411 39.615 265.411 42.585C265.411 45.585 266.791 48.225 270.076 48.225C271.816 48.225 273.481 47.19 273.796 45.375H272.746C272.476 46.725 271.276 47.325 270.076 47.325C267.301 47.325 266.461 44.805 266.461 42.585C266.461 40.365 267.301 37.845 270.076 37.845C271.306 37.845 272.446 38.385 272.626 39.705H273.676ZM282.705 44.235C282.705 45.63 281.985 47.4 280.17 47.4C278.355 47.4 277.635 45.63 277.635 44.235C277.635 42.84 278.355 41.07 280.17 41.07C281.985 41.07 282.705 42.84 282.705 44.235ZM280.17 40.245C277.77 40.245 276.66 42.255 276.66 44.235C276.66 46.215 277.77 48.225 280.17 48.225C282.57 48.225 283.68 46.215 283.68 44.235C283.68 42.255 282.57 40.245 280.17 40.245ZM287.95 37.17H287.05V48H287.95V37.17ZM297.366 44.235C297.366 45.63 296.646 47.4 294.831 47.4C293.016 47.4 292.296 45.63 292.296 44.235C292.296 42.84 293.016 41.07 294.831 41.07C296.646 41.07 297.366 42.84 297.366 44.235ZM294.831 40.245C292.431 40.245 291.321 42.255 291.321 44.235C291.321 46.215 292.431 48.225 294.831 48.225C297.231 48.225 298.341 46.215 298.341 44.235C298.341 42.255 297.231 40.245 294.831 40.245ZM302.596 43.47C302.626 42.03 303.331 41.07 304.666 41.07C304.846 41.07 305.041 41.115 305.221 41.13V40.26C304.921 40.245 304.621 40.23 304.321 40.245C303.571 40.275 302.896 40.815 302.626 41.58H302.596L302.551 40.47H301.621C301.651 40.98 301.711 41.58 301.696 42.165V48H302.596V43.47ZM308.506 45.9C308.506 44.01 311.176 44.25 312.451 44.205C312.541 45.78 312.166 47.4 310.201 47.4C309.286 47.4 308.506 46.92 308.506 45.9ZM312.451 43.38C311.356 43.44 310.051 43.29 309.046 43.725C308.146 44.1 307.531 44.88 307.531 45.9C307.531 47.37 308.641 48.225 310.036 48.225C311.056 48.225 312.061 47.625 312.391 46.995L312.436 46.89H312.466L312.496 48H313.426C313.396 47.49 313.336 46.89 313.351 46.305V42.735C313.381 41.01 312.346 40.245 310.681 40.245C309.241 40.245 308.086 40.83 307.861 42.375H308.821C308.941 41.355 309.721 41.07 310.666 41.07C311.731 41.07 312.361 41.46 312.451 42.69V43.38ZM322.351 44.055C322.351 45.765 321.751 47.4 319.786 47.4C318.061 47.4 317.656 45.495 317.656 44.1C317.656 42.66 318.211 41.07 319.921 41.07C321.676 41.07 322.351 42.525 322.351 44.055ZM322.426 48H323.356C323.326 47.49 323.281 46.89 323.281 46.305V37.17H322.381V41.58L322.351 41.61C321.826 40.725 320.776 40.245 319.771 40.245C317.536 40.245 316.681 42.255 316.681 44.205C316.681 46.095 317.536 48.225 319.771 48.225C320.821 48.225 321.736 47.73 322.351 46.83L322.381 46.89L322.426 48ZM332.531 44.235C332.531 45.63 331.811 47.4 329.996 47.4C328.181 47.4 327.461 45.63 327.461 44.235C327.461 42.84 328.181 41.07 329.996 41.07C331.811 41.07 332.531 42.84 332.531 44.235ZM329.996 40.245C327.596 40.245 326.486 42.255 326.486 44.235C326.486 46.215 327.596 48.225 329.996 48.225C332.396 48.225 333.506 46.215 333.506 44.235C333.506 42.255 332.396 40.245 329.996 40.245ZM344.467 40.47V48H345.367V40.47H344.467ZM345.442 37.17H344.392V38.295H345.442V37.17ZM349.022 42.345C349.022 43.74 350.222 44.085 351.407 44.37C352.607 44.64 353.792 44.82 353.792 45.9C353.792 46.95 352.787 47.4 351.827 47.4C350.807 47.4 349.817 47.07 349.742 45.945H348.767C348.797 47.61 350.297 48.225 351.602 48.225C353.192 48.225 354.767 47.46 354.767 45.765C354.767 44.955 354.272 44.28 353.492 44.01C351.452 43.29 349.997 43.395 349.997 42.285C349.997 41.4 350.852 41.07 351.692 41.07C352.622 41.07 353.462 41.385 353.552 42.33H354.527C354.407 40.74 353.207 40.245 351.782 40.245C350.462 40.245 349.022 40.785 349.022 42.345ZM366.859 37.17H365.959V48H366.859V43.92L370.819 48H371.959L367.849 43.725L371.659 40.47H370.504L366.859 43.545V37.17ZM375.769 43.665C375.769 42.315 376.444 41.07 377.929 41.07C379.159 41.07 379.909 41.835 379.909 43.14V48H380.809V43.29C380.809 42.42 380.614 40.245 378.154 40.245C377.179 40.245 376.324 40.68 375.799 41.61L375.769 41.58L375.724 40.47H374.794C374.824 40.98 374.869 41.58 374.869 42.165V48H375.769V43.665ZM390.209 44.235C390.209 45.63 389.489 47.4 387.674 47.4C385.859 47.4 385.139 45.63 385.139 44.235C385.139 42.84 385.859 41.07 387.674 41.07C389.489 41.07 390.209 42.84 390.209 44.235ZM387.674 40.245C385.274 40.245 384.164 42.255 384.164 44.235C384.164 46.215 385.274 48.225 387.674 48.225C390.074 48.225 391.184 46.215 391.184 44.235C391.184 42.255 390.074 40.245 387.674 40.245ZM394.276 40.47H393.286L396.046 48H396.961L399.316 41.505H399.346L401.656 48H402.511L405.316 40.47H404.326L402.151 46.755H402.121L399.901 40.47H398.836L396.556 46.815H396.526L394.276 40.47ZM409.141 43.665C409.141 42.315 409.816 41.07 411.301 41.07C412.531 41.07 413.281 41.835 413.281 43.14V48H414.181V43.29C414.181 42.42 413.986 40.245 411.526 40.245C410.551 40.245 409.696 40.68 409.171 41.61L409.141 41.58L409.096 40.47H408.166C408.196 40.98 408.241 41.58 408.241 42.165V48H409.141V43.665ZM427.213 48V41.295H428.923V40.47H427.213V39.51C427.168 38.43 427.198 37.815 428.428 37.815C428.608 37.815 428.803 37.845 428.983 37.875V37.155C428.713 37.095 428.413 36.99 428.128 36.99C426.838 36.99 426.313 37.575 426.313 38.865V40.47H424.798V41.295H426.313V48H427.213ZM437.375 44.235C437.375 45.63 436.655 47.4 434.84 47.4C433.025 47.4 432.305 45.63 432.305 44.235C432.305 42.84 433.025 41.07 434.84 41.07C436.655 41.07 437.375 42.84 437.375 44.235ZM434.84 40.245C432.44 40.245 431.33 42.255 431.33 44.235C431.33 46.215 432.44 48.225 434.84 48.225C437.24 48.225 438.35 46.215 438.35 44.235C438.35 42.255 437.24 40.245 434.84 40.245ZM442.605 43.47C442.635 42.03 443.34 41.07 444.675 41.07C444.855 41.07 445.05 41.115 445.23 41.13V40.26C444.93 40.245 444.63 40.23 444.33 40.245C443.58 40.275 442.905 40.815 442.635 41.58H442.605L442.56 40.47H441.63C441.66 40.98 441.72 41.58 441.705 42.165V48H442.605V43.47ZM13.215 63.47V71H14.115V63.47H13.215ZM14.19 60.17H13.14V61.295H14.19V60.17ZM18.6702 68.99C18.6702 70.01 18.5652 71.225 20.4702 71.225C20.7702 71.225 21.1002 71.165 21.3852 71.09V70.31C21.1452 70.385 20.8752 70.4 20.6052 70.4C19.9152 70.4 19.5552 70.025 19.5702 69.335V64.295H21.2802V63.47H19.5702V61.475L18.6702 61.865V63.47H17.1702V64.295H18.6702V68.99ZM24.2653 65.345C24.2653 66.74 25.4653 67.085 26.6503 67.37C27.8503 67.64 29.0353 67.82 29.0353 68.9C29.0353 69.95 28.0303 70.4 27.0703 70.4C26.0503 70.4 25.0603 70.07 24.9853 68.945H24.0103C24.0403 70.61 25.5403 71.225 26.8453 71.225C28.4353 71.225 30.0103 70.46 30.0103 68.765C30.0103 67.955 29.5153 67.28 28.7353 67.01C26.6953 66.29 25.2403 66.395 25.2403 65.285C25.2403 64.4 26.0953 64.07 26.9353 64.07C27.8653 64.07 28.7053 64.385 28.7953 65.33H29.7703C29.6503 63.74 28.4503 63.245 27.0253 63.245C25.7053 63.245 24.2653 63.785 24.2653 65.345ZM43.0808 64.07C44.7908 64.07 45.3758 65.69 45.3758 67.13C45.3758 68.525 44.9408 70.4 43.2158 70.4C41.2508 70.4 40.6508 68.795 40.6508 67.085C40.6508 65.555 41.3258 64.07 43.0808 64.07ZM40.6508 69.89L40.6808 69.83C41.2958 70.73 42.2108 71.225 43.3058 71.225C45.4958 71.225 46.3508 69.095 46.3508 67.205C46.3508 65.255 45.4958 63.245 43.2608 63.245C42.2558 63.245 41.2058 63.725 40.6808 64.61L40.6508 64.58V60.17H39.7508V69.305C39.7508 69.89 39.7058 70.49 39.6758 71H40.6058L40.6508 69.89ZM56.0808 67.445C56.0808 65.09 55.1658 63.245 52.6458 63.245C50.4108 63.245 49.2858 65.195 49.2858 67.235C49.2858 69.29 50.3358 71.225 52.5858 71.225C54.4008 71.225 55.5258 70.4 55.9908 68.6H55.0458C54.8208 69.635 53.9358 70.4 52.8708 70.4C51.0258 70.4 50.2908 69.05 50.2608 67.445H56.0808ZM50.2908 66.62C50.4108 65.3 51.1908 64.07 52.6608 64.07C54.2208 64.07 55.0008 65.165 55.1058 66.62H50.2908ZM59.8857 68.9C59.8857 67.01 62.5557 67.25 63.8307 67.205C63.9207 68.78 63.5457 70.4 61.5807 70.4C60.6657 70.4 59.8857 69.92 59.8857 68.9ZM63.8307 66.38C62.7357 66.44 61.4307 66.29 60.4257 66.725C59.5257 67.1 58.9107 67.88 58.9107 68.9C58.9107 70.37 60.0207 71.225 61.4157 71.225C62.4357 71.225 63.4407 70.625 63.7707 69.995L63.8157 69.89H63.8457L63.8757 71H64.8057C64.7757 70.49 64.7157 69.89 64.7307 69.305V65.735C64.7607 64.01 63.7257 63.245 62.0607 63.245C60.6207 63.245 59.4657 63.83 59.2407 65.375H60.2007C60.3207 64.355 61.1007 64.07 62.0457 64.07C63.1107 64.07 63.7407 64.46 63.8307 65.69V66.38ZM73.6107 67.805C73.6107 69.155 72.9357 70.4 71.4507 70.4C70.2207 70.4 69.4707 69.635 69.4707 68.33V63.47H68.5707V68.18C68.5707 69.05 68.7657 71.225 71.2257 71.225C72.2007 71.225 73.0557 70.79 73.5807 69.86L73.6107 69.89L73.6557 71H74.5857C74.5557 70.49 74.5107 69.89 74.5107 69.305V63.47H73.6107V67.805ZM79.0507 68.99C79.0507 70.01 78.9457 71.225 80.8507 71.225C81.1507 71.225 81.4807 71.165 81.7657 71.09V70.31C81.5257 70.385 81.2557 70.4 80.9857 70.4C80.2957 70.4 79.9357 70.025 79.9507 69.335V64.295H81.6607V63.47H79.9507V61.475L79.0507 61.865V63.47H77.5507V64.295H79.0507V68.99ZM84.9158 63.47V71H85.8158V63.47H84.9158ZM85.8908 60.17H84.8408V61.295H85.8908V60.17ZM91.271 71V64.295H92.981V63.47H91.271V62.51C91.226 61.43 91.256 60.815 92.486 60.815C92.666 60.815 92.861 60.845 93.041 60.875V60.155C92.771 60.095 92.471 59.99 92.186 59.99C90.896 59.99 90.371 60.575 90.371 61.865V63.47H88.856V64.295H90.371V71H91.271ZM101.261 67.805C101.261 69.155 100.586 70.4 99.1011 70.4C97.8711 70.4 97.1211 69.635 97.1211 68.33V63.47H96.2211V68.18C96.2211 69.05 96.4161 71.225 98.8761 71.225C99.8511 71.225 100.706 70.79 101.231 69.86L101.261 69.89L101.306 71H102.236C102.206 70.49 102.161 69.89 102.161 69.305V63.47H101.261V67.805ZM106.971 60.17H106.071V71H106.971V60.17ZM116.272 63.47L119.347 71H120.367L123.352 63.47H122.362L119.857 69.755L117.262 63.47H116.272ZM126.277 63.47V71H127.177V63.47H126.277ZM127.252 60.17H126.202V61.295H127.252V60.17ZM137.432 67.445C137.432 65.09 136.517 63.245 133.997 63.245C131.762 63.245 130.637 65.195 130.637 67.235C130.637 69.29 131.687 71.225 133.937 71.225C135.752 71.225 136.877 70.4 137.342 68.6H136.397C136.172 69.635 135.287 70.4 134.222 70.4C132.377 70.4 131.642 69.05 131.612 67.445H137.432ZM131.642 66.62C131.762 65.3 132.542 64.07 134.012 64.07C135.572 64.07 136.352 65.165 136.457 66.62H131.642ZM140.659 63.47H139.669L142.429 71H143.344L145.699 64.505H145.729L148.039 71H148.894L151.699 63.47H150.709L148.534 69.755H148.504L146.284 63.47H145.219L142.939 69.815H142.909L140.659 63.47ZM154.369 65.345C154.369 66.74 155.569 67.085 156.754 67.37C157.954 67.64 159.139 67.82 159.139 68.9C159.139 69.95 158.134 70.4 157.174 70.4C156.154 70.4 155.164 70.07 155.089 68.945H154.114C154.144 70.61 155.644 71.225 156.949 71.225C158.539 71.225 160.114 70.46 160.114 68.765C160.114 67.955 159.619 67.28 158.839 67.01C156.799 66.29 155.344 66.395 155.344 65.285C155.344 64.4 156.199 64.07 157.039 64.07C157.969 64.07 158.809 64.385 158.899 65.33H159.874C159.754 63.74 158.554 63.245 157.129 63.245C155.809 63.245 154.369 63.785 154.369 65.345ZM163.954 69.785L163.309 72.86H164.089L165.169 69.785H163.954ZM175.424 65.345C175.424 66.74 176.624 67.085 177.809 67.37C179.009 67.64 180.194 67.82 180.194 68.9C180.194 69.95 179.189 70.4 178.229 70.4C177.209 70.4 176.219 70.07 176.144 68.945H175.169C175.199 70.61 176.699 71.225 178.004 71.225C179.594 71.225 181.169 70.46 181.169 68.765C181.169 67.955 180.674 67.28 179.894 67.01C177.854 66.29 176.399 66.395 176.399 65.285C176.399 64.4 177.254 64.07 178.094 64.07C179.024 64.07 179.864 64.385 179.954 65.33H180.929C180.809 63.74 179.609 63.245 178.184 63.245C176.864 63.245 175.424 63.785 175.424 65.345ZM185.669 60.17H184.769V71H185.669V66.92L189.629 71H190.769L186.659 66.725L190.469 63.47H189.314L185.669 66.545V60.17ZM193.694 63.47V71H194.594V63.47H193.694ZM194.669 60.17H193.619V61.295H194.669V60.17ZM205.785 66.47C205.815 65.03 206.52 64.07 207.855 64.07C208.035 64.07 208.23 64.115 208.41 64.13V63.26C208.11 63.245 207.81 63.23 207.51 63.245C206.76 63.275 206.085 63.815 205.815 64.58H205.785L205.74 63.47H204.81C204.84 63.98 204.9 64.58 204.885 65.165V71H205.785V66.47ZM217.725 67.445C217.725 65.09 216.81 63.245 214.29 63.245C212.055 63.245 210.93 65.195 210.93 67.235C210.93 69.29 211.98 71.225 214.23 71.225C216.045 71.225 217.17 70.4 217.635 68.6H216.69C216.465 69.635 215.58 70.4 214.515 70.4C212.67 70.4 211.935 69.05 211.905 67.445H217.725ZM211.935 66.62C212.055 65.3 212.835 64.07 214.305 64.07C215.865 64.07 216.645 65.165 216.75 66.62H211.935ZM220.96 65.345C220.96 66.74 222.16 67.085 223.345 67.37C224.545 67.64 225.73 67.82 225.73 68.9C225.73 69.95 224.725 70.4 223.765 70.4C222.745 70.4 221.755 70.07 221.68 68.945H220.705C220.735 70.61 222.235 71.225 223.54 71.225C225.13 71.225 226.705 70.46 226.705 68.765C226.705 67.955 226.21 67.28 225.43 67.01C223.39 66.29 221.935 66.395 221.935 65.285C221.935 64.4 222.79 64.07 223.63 64.07C224.56 64.07 225.4 64.385 225.49 65.33H226.465C226.345 63.74 225.145 63.245 223.72 63.245C222.4 63.245 220.96 63.785 220.96 65.345ZM235.72 67.235C235.72 68.63 235 70.4 233.185 70.4C231.37 70.4 230.65 68.63 230.65 67.235C230.65 65.84 231.37 64.07 233.185 64.07C235 64.07 235.72 65.84 235.72 67.235ZM233.185 63.245C230.785 63.245 229.675 65.255 229.675 67.235C229.675 69.215 230.785 71.225 233.185 71.225C235.585 71.225 236.695 69.215 236.695 67.235C236.695 65.255 235.585 63.245 233.185 63.245ZM240.95 66.47C240.98 65.03 241.685 64.07 243.02 64.07C243.2 64.07 243.395 64.115 243.575 64.13V63.26C243.275 63.245 242.975 63.23 242.675 63.245C241.925 63.275 241.25 63.815 240.98 64.58H240.95L240.905 63.47H239.975C240.005 63.98 240.065 64.58 240.05 65.165V71H240.95V66.47ZM247.19 68.99C247.19 70.01 247.085 71.225 248.99 71.225C249.29 71.225 249.62 71.165 249.905 71.09V70.31C249.665 70.385 249.395 70.4 249.125 70.4C248.435 70.4 248.075 70.025 248.09 69.335V64.295H249.8V63.47H248.09V61.475L247.19 61.865V63.47H245.69V64.295H247.19V68.99ZM252.785 65.345C252.785 66.74 253.985 67.085 255.17 67.37C256.37 67.64 257.555 67.82 257.555 68.9C257.555 69.95 256.55 70.4 255.59 70.4C254.57 70.4 253.58 70.07 253.505 68.945H252.53C252.56 70.61 254.06 71.225 255.365 71.225C256.955 71.225 258.53 70.46 258.53 68.765C258.53 67.955 258.035 67.28 257.255 67.01C255.215 66.29 253.76 66.395 253.76 65.285C253.76 64.4 254.615 64.07 255.455 64.07C256.385 64.07 257.225 64.385 257.315 65.33H258.29C258.17 63.74 256.97 63.245 255.545 63.245C254.225 63.245 252.785 63.785 252.785 65.345ZM268.736 68.9C268.736 67.01 271.406 67.25 272.681 67.205C272.771 68.78 272.396 70.4 270.431 70.4C269.516 70.4 268.736 69.92 268.736 68.9ZM272.681 66.38C271.586 66.44 270.281 66.29 269.276 66.725C268.376 67.1 267.761 67.88 267.761 68.9C267.761 70.37 268.871 71.225 270.266 71.225C271.286 71.225 272.291 70.625 272.621 69.995L272.666 69.89H272.696L272.726 71H273.656C273.626 70.49 273.566 69.89 273.581 69.305V65.735C273.611 64.01 272.576 63.245 270.911 63.245C269.471 63.245 268.316 63.83 268.091 65.375H269.051C269.171 64.355 269.951 64.07 270.896 64.07C271.961 64.07 272.591 64.46 272.681 65.69V66.38ZM278.321 66.665C278.321 65.315 278.996 64.07 280.481 64.07C281.711 64.07 282.461 64.835 282.461 66.14V71H283.361V66.29C283.361 65.42 283.166 63.245 280.706 63.245C279.731 63.245 278.876 63.68 278.351 64.61L278.321 64.58L278.276 63.47H277.346C277.376 63.98 277.421 64.58 277.421 65.165V71H278.321V66.665ZM292.416 67.055C292.416 68.765 291.816 70.4 289.851 70.4C288.126 70.4 287.721 68.495 287.721 67.1C287.721 65.66 288.276 64.07 289.986 64.07C291.741 64.07 292.416 65.525 292.416 67.055ZM292.491 71H293.421C293.391 70.49 293.346 69.89 293.346 69.305V60.17H292.446V64.58L292.416 64.61C291.891 63.725 290.841 63.245 289.836 63.245C287.601 63.245 286.746 65.255 286.746 67.205C286.746 69.095 287.601 71.225 289.836 71.225C290.886 71.225 291.801 70.73 292.416 69.83L292.446 69.89L292.491 71ZM309.816 67.445C309.816 65.09 308.901 63.245 306.381 63.245C304.146 63.245 303.021 65.195 303.021 67.235C303.021 69.29 304.071 71.225 306.321 71.225C308.136 71.225 309.261 70.4 309.726 68.6H308.781C308.556 69.635 307.671 70.4 306.606 70.4C304.761 70.4 304.026 69.05 303.996 67.445H309.816ZM304.026 66.62C304.146 65.3 304.926 64.07 306.396 64.07C307.956 64.07 308.736 65.165 308.841 66.62H304.026ZM313.621 68.9C313.621 67.01 316.291 67.25 317.566 67.205C317.656 68.78 317.281 70.4 315.316 70.4C314.401 70.4 313.621 69.92 313.621 68.9ZM317.566 66.38C316.471 66.44 315.166 66.29 314.161 66.725C313.261 67.1 312.646 67.88 312.646 68.9C312.646 70.37 313.756 71.225 315.151 71.225C316.171 71.225 317.176 70.625 317.506 69.995L317.551 69.89H317.581L317.611 71H318.541C318.511 70.49 318.451 69.89 318.466 69.305V65.735C318.496 64.01 317.461 63.245 315.796 63.245C314.356 63.245 313.201 63.83 312.976 65.375H313.936C314.056 64.355 314.836 64.07 315.781 64.07C316.846 64.07 317.476 64.46 317.566 65.69V66.38ZM322.051 65.345C322.051 66.74 323.251 67.085 324.436 67.37C325.636 67.64 326.821 67.82 326.821 68.9C326.821 69.95 325.816 70.4 324.856 70.4C323.836 70.4 322.846 70.07 322.771 68.945H321.796C321.826 70.61 323.326 71.225 324.631 71.225C326.221 71.225 327.796 70.46 327.796 68.765C327.796 67.955 327.301 67.28 326.521 67.01C324.481 66.29 323.026 66.395 323.026 65.285C323.026 64.4 323.881 64.07 324.721 64.07C325.651 64.07 326.491 64.385 326.581 65.33H327.556C327.436 63.74 326.236 63.245 324.811 63.245C323.491 63.245 322.051 63.785 322.051 65.345ZM330.226 63.47L333.346 71L332.206 73.88H333.196L337.351 63.47H336.376L333.856 69.77L331.321 63.47H330.226ZM351.877 67.07C351.877 68.54 351.217 70.145 349.492 70.145C347.842 70.145 347.137 68.48 347.137 67.1C347.137 65.72 347.827 64.07 349.462 64.07C351.082 64.07 351.877 65.63 351.877 67.07ZM351.877 64.58L351.847 64.64C351.247 63.77 350.467 63.245 349.372 63.245C347.077 63.245 346.162 65.135 346.162 67.175C346.162 69.245 347.137 70.97 349.402 70.97C350.377 70.97 351.412 70.445 351.847 69.56H351.877V70.97C351.847 72.23 350.767 73.055 349.597 73.055C348.637 73.055 347.572 72.755 347.467 71.855H346.492C346.492 73.415 348.112 73.88 349.477 73.88C350.182 73.88 350.587 73.82 351.187 73.535C352.852 72.755 352.777 71.18 352.777 69.68V65.165C352.777 64.58 352.822 63.98 352.852 63.47H351.922L351.877 64.58ZM361.562 67.805C361.562 69.155 360.887 70.4 359.402 70.4C358.172 70.4 357.422 69.635 357.422 68.33V63.47H356.522V68.18C356.522 69.05 356.717 71.225 359.177 71.225C360.152 71.225 361.007 70.79 361.532 69.86L361.562 69.89L361.607 71H362.537C362.507 70.49 362.462 69.89 362.462 69.305V63.47H361.562V67.805ZM367.257 66.665C367.257 65.315 367.932 64.07 369.417 64.07C370.647 64.07 371.397 64.835 371.397 66.14V71H372.297V66.29C372.297 65.42 372.102 63.245 369.642 63.245C368.667 63.245 367.812 63.68 367.287 64.61L367.257 64.58L367.212 63.47H366.282C366.312 63.98 366.357 64.58 366.357 65.165V71H367.257V66.665ZM385.752 64.07C387.462 64.07 388.047 65.69 388.047 67.13C388.047 68.525 387.612 70.4 385.887 70.4C383.922 70.4 383.322 68.795 383.322 67.085C383.322 65.555 383.997 64.07 385.752 64.07ZM383.322 69.89L383.352 69.83C383.967 70.73 384.882 71.225 385.977 71.225C388.167 71.225 389.022 69.095 389.022 67.205C389.022 65.255 388.167 63.245 385.932 63.245C384.927 63.245 383.877 63.725 383.352 64.61L383.322 64.58V60.17H382.422V69.305C382.422 69.89 382.377 70.49 382.347 71H383.277L383.322 69.89ZM398.752 67.445C398.752 65.09 397.837 63.245 395.317 63.245C393.082 63.245 391.957 65.195 391.957 67.235C391.957 69.29 393.007 71.225 395.257 71.225C397.072 71.225 398.197 70.4 398.662 68.6H397.717C397.492 69.635 396.607 70.4 395.542 70.4C393.697 70.4 392.962 69.05 392.932 67.445H398.752ZM392.962 66.62C393.082 65.3 393.862 64.07 395.332 64.07C396.892 64.07 397.672 65.165 397.777 66.62H392.962ZM402.557 68.9C402.557 67.01 405.227 67.25 406.502 67.205C406.592 68.78 406.217 70.4 404.252 70.4C403.337 70.4 402.557 69.92 402.557 68.9ZM406.502 66.38C405.407 66.44 404.102 66.29 403.097 66.725C402.197 67.1 401.582 67.88 401.582 68.9C401.582 70.37 402.692 71.225 404.087 71.225C405.107 71.225 406.112 70.625 406.442 69.995L406.487 69.89H406.517L406.547 71H407.477C407.447 70.49 407.387 69.89 407.402 69.305V65.735C407.432 64.01 406.397 63.245 404.732 63.245C403.292 63.245 402.137 63.83 401.912 65.375H402.872C402.992 64.355 403.772 64.07 404.717 64.07C405.782 64.07 406.412 64.46 406.502 65.69V66.38ZM412.142 66.47C412.172 65.03 412.877 64.07 414.212 64.07C414.392 64.07 414.587 64.115 414.767 64.13V63.26C414.467 63.245 414.167 63.23 413.867 63.245C413.117 63.275 412.442 63.815 412.172 64.58H412.142L412.097 63.47H411.167C411.197 63.98 411.257 64.58 411.242 65.165V71H412.142V66.47ZM417.752 63.47V71H418.652V63.47H417.752ZM418.727 60.17H417.677V61.295H418.727V60.17ZM423.462 66.665C423.462 65.315 424.137 64.07 425.622 64.07C426.852 64.07 427.602 64.835 427.602 66.14V71H428.502V66.29C428.502 65.42 428.307 63.245 425.847 63.245C424.872 63.245 424.017 63.68 423.492 64.61L423.462 64.58L423.417 63.47H422.487C422.517 63.98 422.562 64.58 422.562 65.165V71H423.462V66.665ZM437.587 67.07C437.587 68.54 436.927 70.145 435.202 70.145C433.552 70.145 432.847 68.48 432.847 67.1C432.847 65.72 433.537 64.07 435.172 64.07C436.792 64.07 437.587 65.63 437.587 67.07ZM437.587 64.58L437.557 64.64C436.957 63.77 436.177 63.245 435.082 63.245C432.787 63.245 431.872 65.135 431.872 67.175C431.872 69.245 432.847 70.97 435.112 70.97C436.087 70.97 437.122 70.445 437.557 69.56H437.587V70.97C437.557 72.23 436.477 73.055 435.307 73.055C434.347 73.055 433.282 72.755 433.177 71.855H432.202C432.202 73.415 433.822 73.88 435.187 73.88C435.892 73.88 436.297 73.82 436.897 73.535C438.562 72.755 438.487 71.18 438.487 69.68V65.165C438.487 64.58 438.532 63.98 438.562 63.47H437.632L437.587 64.58ZM444.01 71V69.71H442.81V71H444.01ZM14.58 94V83.125H13.605V94H14.58ZM19.7748 89.665C19.7748 88.315 20.4498 87.07 21.9348 87.07C23.1648 87.07 23.9148 87.835 23.9148 89.14V94H24.8148V89.29C24.8148 88.42 24.6198 86.245 22.1598 86.245C21.1848 86.245 20.3298 86.68 19.8048 87.61L19.7748 87.58L19.7298 86.47H18.7998C18.8298 86.98 18.8748 87.58 18.8748 88.165V94H19.7748V89.665ZM36.0643 91.99C36.0643 93.01 35.9593 94.225 37.8643 94.225C38.1643 94.225 38.4943 94.165 38.7793 94.09V93.31C38.5393 93.385 38.2693 93.4 37.9993 93.4C37.3093 93.4 36.9493 93.025 36.9643 92.335V87.295H38.6743V86.47H36.9643V84.475L36.0643 84.865V86.47H34.5643V87.295H36.0643V91.99ZM42.8145 83.17H41.9145V94H42.8145V89.665C42.8145 88.315 43.4895 87.07 44.9745 87.07C46.2045 87.07 46.9545 87.835 46.9545 89.14V94H47.8545V89.29C47.8545 88.42 47.6595 86.245 45.1995 86.245C44.2245 86.245 43.3695 86.68 42.8445 87.61H42.8145V83.17ZM51.7644 86.47V94H52.6644V86.47H51.7644ZM52.7394 83.17H51.6894V84.295H52.7394V83.17ZM56.3196 88.345C56.3196 89.74 57.5196 90.085 58.7046 90.37C59.9046 90.64 61.0896 90.82 61.0896 91.9C61.0896 92.95 60.0846 93.4 59.1246 93.4C58.1046 93.4 57.1146 93.07 57.0396 91.945H56.0646C56.0946 93.61 57.5946 94.225 58.8996 94.225C60.4896 94.225 62.0646 93.46 62.0646 91.765C62.0646 90.955 61.5696 90.28 60.7896 90.01C58.7496 89.29 57.2946 89.395 57.2946 88.285C57.2946 87.4 58.1496 87.07 58.9896 87.07C59.9196 87.07 60.7596 87.385 60.8496 88.33H61.8246C61.7046 86.74 60.5046 86.245 59.0796 86.245C57.7596 86.245 56.3196 86.785 56.3196 88.345ZM72.0292 88.345C72.0292 89.74 73.2292 90.085 74.4142 90.37C75.6142 90.64 76.7992 90.82 76.7992 91.9C76.7992 92.95 75.7942 93.4 74.8342 93.4C73.8142 93.4 72.8242 93.07 72.7492 91.945H71.7742C71.8042 93.61 73.3042 94.225 74.6092 94.225C76.1992 94.225 77.7742 93.46 77.7742 91.765C77.7742 90.955 77.2792 90.28 76.4992 90.01C74.4592 89.29 73.0042 89.395 73.0042 88.285C73.0042 87.4 73.8592 87.07 74.6992 87.07C75.6292 87.07 76.4692 87.385 76.5592 88.33H77.5342C77.4142 86.74 76.2142 86.245 74.7892 86.245C73.4692 86.245 72.0292 86.785 72.0292 88.345ZM81.9292 91.99C81.9292 93.01 81.8242 94.225 83.7292 94.225C84.0292 94.225 84.3592 94.165 84.6442 94.09V93.31C84.4042 93.385 84.1342 93.4 83.8642 93.4C83.1742 93.4 82.8142 93.025 82.8292 92.335V87.295H84.5392V86.47H82.8292V84.475L81.9292 84.865V86.47H80.4292V87.295H81.9292V91.99ZM88.3873 91.9C88.3873 90.01 91.0573 90.25 92.3323 90.205C92.4223 91.78 92.0473 93.4 90.0823 93.4C89.1673 93.4 88.3873 92.92 88.3873 91.9ZM92.3323 89.38C91.2373 89.44 89.9323 89.29 88.9273 89.725C88.0273 90.1 87.4123 90.88 87.4123 91.9C87.4123 93.37 88.5223 94.225 89.9173 94.225C90.9373 94.225 91.9423 93.625 92.2723 92.995L92.3173 92.89H92.3473L92.3773 94H93.3073C93.2773 93.49 93.2173 92.89 93.2323 92.305V88.735C93.2623 87.01 92.2273 86.245 90.5623 86.245C89.1223 86.245 87.9673 86.83 87.7423 88.375H88.7023C88.8223 87.355 89.6023 87.07 90.5473 87.07C91.6123 87.07 92.2423 87.46 92.3323 88.69V89.38ZM97.7173 91.99C97.7173 93.01 97.6123 94.225 99.5173 94.225C99.8173 94.225 100.147 94.165 100.432 94.09V93.31C100.192 93.385 99.9223 93.4 99.6523 93.4C98.9623 93.4 98.6023 93.025 98.6173 92.335V87.295H100.327V86.47H98.6173V84.475L97.7173 84.865V86.47H96.2173V87.295H97.7173V91.99ZM109.912 90.445C109.912 88.09 108.997 86.245 106.477 86.245C104.242 86.245 103.117 88.195 103.117 90.235C103.117 92.29 104.167 94.225 106.417 94.225C108.232 94.225 109.357 93.4 109.822 91.6H108.877C108.652 92.635 107.767 93.4 106.702 93.4C104.857 93.4 104.122 92.05 104.092 90.445H109.912ZM104.122 89.62C104.242 88.3 105.022 87.07 106.492 87.07C108.052 87.07 108.832 88.165 108.937 89.62H104.122ZM120.127 86.47V94H121.027V86.47H120.127ZM121.102 83.17H120.052V84.295H121.102V83.17ZM125.582 91.99C125.582 93.01 125.477 94.225 127.382 94.225C127.682 94.225 128.012 94.165 128.297 94.09V93.31C128.057 93.385 127.787 93.4 127.517 93.4C126.827 93.4 126.467 93.025 126.482 92.335V87.295H128.192V86.47H126.482V84.475L125.582 84.865V86.47H124.082V87.295H125.582V91.99ZM138.157 86.47V94H139.057V86.47H138.157ZM139.132 83.17H138.082V84.295H139.132V83.17ZM142.712 88.345C142.712 89.74 143.912 90.085 145.097 90.37C146.297 90.64 147.482 90.82 147.482 91.9C147.482 92.95 146.477 93.4 145.517 93.4C144.497 93.4 143.507 93.07 143.432 91.945H142.457C142.487 93.61 143.987 94.225 145.292 94.225C146.882 94.225 148.457 93.46 148.457 91.765C148.457 90.955 147.962 90.28 147.182 90.01C145.142 89.29 143.687 89.395 143.687 88.285C143.687 87.4 144.542 87.07 145.382 87.07C146.312 87.07 147.152 87.385 147.242 88.33H148.217C148.097 86.74 146.897 86.245 145.472 86.245C144.152 86.245 142.712 86.785 142.712 88.345ZM159.592 83.17H158.692V94H159.592V83.17ZM169.847 90.445C169.847 88.09 168.932 86.245 166.412 86.245C164.177 86.245 163.052 88.195 163.052 90.235C163.052 92.29 164.102 94.225 166.352 94.225C168.167 94.225 169.292 93.4 169.757 91.6H168.812C168.587 92.635 167.702 93.4 166.637 93.4C164.792 93.4 164.057 92.05 164.027 90.445H169.847ZM164.057 89.62C164.177 88.3 164.957 87.07 166.427 87.07C167.987 87.07 168.767 88.165 168.872 89.62H164.057ZM178.527 90.07C178.527 91.54 177.867 93.145 176.142 93.145C174.492 93.145 173.787 91.48 173.787 90.1C173.787 88.72 174.477 87.07 176.112 87.07C177.732 87.07 178.527 88.63 178.527 90.07ZM178.527 87.58L178.497 87.64C177.897 86.77 177.117 86.245 176.022 86.245C173.727 86.245 172.812 88.135 172.812 90.175C172.812 92.245 173.787 93.97 176.052 93.97C177.027 93.97 178.062 93.445 178.497 92.56H178.527V93.97C178.497 95.23 177.417 96.055 176.247 96.055C175.287 96.055 174.222 95.755 174.117 94.855H173.142C173.142 96.415 174.762 96.88 176.127 96.88C176.832 96.88 177.237 96.82 177.837 96.535C179.502 95.755 179.427 94.18 179.427 92.68V88.165C179.427 87.58 179.472 86.98 179.502 86.47H178.572L178.527 87.58ZM183.487 91.9C183.487 90.01 186.157 90.25 187.432 90.205C187.522 91.78 187.147 93.4 185.182 93.4C184.267 93.4 183.487 92.92 183.487 91.9ZM187.432 89.38C186.337 89.44 185.032 89.29 184.027 89.725C183.127 90.1 182.512 90.88 182.512 91.9C182.512 93.37 183.622 94.225 185.017 94.225C186.037 94.225 187.042 93.625 187.372 92.995L187.417 92.89H187.447L187.477 94H188.407C188.377 93.49 188.317 92.89 188.332 92.305V88.735C188.362 87.01 187.327 86.245 185.662 86.245C184.222 86.245 183.067 86.83 182.842 88.375H183.802C183.922 87.355 184.702 87.07 185.647 87.07C186.712 87.07 187.342 87.46 187.432 88.69V89.38ZM193.087 83.17H192.187V94H193.087V83.17ZM204.351 91.99C204.351 93.01 204.246 94.225 206.151 94.225C206.451 94.225 206.781 94.165 207.066 94.09V93.31C206.826 93.385 206.556 93.4 206.286 93.4C205.596 93.4 205.236 93.025 205.251 92.335V87.295H206.961V86.47H205.251V84.475L204.351 84.865V86.47H202.851V87.295H204.351V91.99ZM215.707 90.235C215.707 91.63 214.987 93.4 213.172 93.4C211.357 93.4 210.637 91.63 210.637 90.235C210.637 88.84 211.357 87.07 213.172 87.07C214.987 87.07 215.707 88.84 215.707 90.235ZM213.172 86.245C210.772 86.245 209.662 88.255 209.662 90.235C209.662 92.215 210.772 94.225 213.172 94.225C215.572 94.225 216.682 92.215 216.682 90.235C216.682 88.255 215.572 86.245 213.172 86.245ZM226.491 88.345C226.491 89.74 227.691 90.085 228.876 90.37C230.076 90.64 231.261 90.82 231.261 91.9C231.261 92.95 230.256 93.4 229.296 93.4C228.276 93.4 227.286 93.07 227.211 91.945H226.236C226.266 93.61 227.766 94.225 229.071 94.225C230.661 94.225 232.236 93.46 232.236 91.765C232.236 90.955 231.741 90.28 230.961 90.01C228.921 89.29 227.466 89.395 227.466 88.285C227.466 87.4 228.321 87.07 229.161 87.07C230.091 87.07 230.931 87.385 231.021 88.33H231.996C231.876 86.74 230.676 86.245 229.251 86.245C227.931 86.245 226.491 86.785 226.491 88.345ZM236.646 83.17H235.746V94H236.646V89.665C236.646 88.315 237.321 87.07 238.806 87.07C240.036 87.07 240.786 87.835 240.786 89.14V94H241.686V89.29C241.686 88.42 241.491 86.245 239.031 86.245C238.056 86.245 237.201 86.68 236.676 87.61H236.646V83.17ZM251.086 90.235C251.086 91.63 250.366 93.4 248.551 93.4C246.736 93.4 246.016 91.63 246.016 90.235C246.016 88.84 246.736 87.07 248.551 87.07C250.366 87.07 251.086 88.84 251.086 90.235ZM248.551 86.245C246.151 86.245 245.041 88.255 245.041 90.235C245.041 92.215 246.151 94.225 248.551 94.225C250.951 94.225 252.061 92.215 252.061 90.235C252.061 88.255 250.951 86.245 248.551 86.245ZM260.921 90.235C260.921 91.63 260.201 93.4 258.386 93.4C256.571 93.4 255.851 91.63 255.851 90.235C255.851 88.84 256.571 87.07 258.386 87.07C260.201 87.07 260.921 88.84 260.921 90.235ZM258.386 86.245C255.986 86.245 254.876 88.255 254.876 90.235C254.876 92.215 255.986 94.225 258.386 94.225C260.786 94.225 261.896 92.215 261.896 90.235C261.896 88.255 260.786 86.245 258.386 86.245ZM265.896 91.99C265.896 93.01 265.791 94.225 267.696 94.225C267.996 94.225 268.326 94.165 268.611 94.09V93.31C268.371 93.385 268.101 93.4 267.831 93.4C267.141 93.4 266.781 93.025 266.796 92.335V87.295H268.506V86.47H266.796V84.475L265.896 84.865V86.47H264.396V87.295H265.896V91.99ZM278.201 88.345C278.201 89.74 279.401 90.085 280.586 90.37C281.786 90.64 282.971 90.82 282.971 91.9C282.971 92.95 281.966 93.4 281.006 93.4C279.986 93.4 278.996 93.07 278.921 91.945H277.946C277.976 93.61 279.476 94.225 280.781 94.225C282.371 94.225 283.946 93.46 283.946 91.765C283.946 90.955 283.451 90.28 282.671 90.01C280.631 89.29 279.176 89.395 279.176 88.285C279.176 87.4 280.031 87.07 280.871 87.07C281.801 87.07 282.641 87.385 282.731 88.33H283.706C283.586 86.74 282.386 86.245 280.961 86.245C279.641 86.245 278.201 86.785 278.201 88.345ZM292.961 90.235C292.961 91.63 292.241 93.4 290.426 93.4C288.611 93.4 287.891 91.63 287.891 90.235C287.891 88.84 288.611 87.07 290.426 87.07C292.241 87.07 292.961 88.84 292.961 90.235ZM290.426 86.245C288.026 86.245 286.916 88.255 286.916 90.235C286.916 92.215 288.026 94.225 290.426 94.225C292.826 94.225 293.936 92.215 293.936 90.235C293.936 88.255 292.826 86.245 290.426 86.245ZM298.131 86.47H297.201C297.231 86.98 297.276 87.58 297.276 88.165V94H298.176V89.665C298.176 88.315 298.851 87.07 300.336 87.07C301.566 87.07 302.316 87.835 302.316 89.14V94H303.216V89.665C303.216 88.315 303.891 87.07 305.376 87.07C306.606 87.07 307.356 87.835 307.356 89.14V94H308.256V89.29C308.256 88.42 308.061 86.245 305.601 86.245C304.431 86.245 303.561 87.01 303.006 87.895C302.676 86.905 301.746 86.245 300.561 86.245C299.586 86.245 298.731 86.68 298.206 87.61L298.176 87.58L298.131 86.47ZM318.466 90.445C318.466 88.09 317.551 86.245 315.031 86.245C312.796 86.245 311.671 88.195 311.671 90.235C311.671 92.29 312.721 94.225 314.971 94.225C316.786 94.225 317.911 93.4 318.376 91.6H317.431C317.206 92.635 316.321 93.4 315.256 93.4C313.411 93.4 312.676 92.05 312.646 90.445H318.466ZM312.676 89.62C312.796 88.3 313.576 87.07 315.046 87.07C316.606 87.07 317.386 88.165 317.491 89.62H312.676ZM327.461 90.235C327.461 91.63 326.741 93.4 324.926 93.4C323.111 93.4 322.391 91.63 322.391 90.235C322.391 88.84 323.111 87.07 324.926 87.07C326.741 87.07 327.461 88.84 327.461 90.235ZM324.926 86.245C322.526 86.245 321.416 88.255 321.416 90.235C321.416 92.215 322.526 94.225 324.926 94.225C327.326 94.225 328.436 92.215 328.436 90.235C328.436 88.255 327.326 86.245 324.926 86.245ZM332.691 89.665C332.691 88.315 333.366 87.07 334.851 87.07C336.081 87.07 336.831 87.835 336.831 89.14V94H337.731V89.29C337.731 88.42 337.536 86.245 335.076 86.245C334.101 86.245 333.246 86.68 332.721 87.61L332.691 87.58L332.646 86.47H331.716C331.746 86.98 331.791 87.58 331.791 88.165V94H332.691V89.665ZM347.971 90.445C347.971 88.09 347.056 86.245 344.536 86.245C342.301 86.245 341.176 88.195 341.176 90.235C341.176 92.29 342.226 94.225 344.476 94.225C346.291 94.225 347.416 93.4 347.881 91.6H346.936C346.711 92.635 345.826 93.4 344.761 93.4C342.916 93.4 342.181 92.05 342.151 90.445H347.971ZM342.181 89.62C342.301 88.3 343.081 87.07 344.551 87.07C346.111 87.07 346.891 88.165 346.996 89.62H342.181ZM358.815 91.99C358.815 93.01 358.71 94.225 360.615 94.225C360.915 94.225 361.245 94.165 361.53 94.09V93.31C361.29 93.385 361.02 93.4 360.75 93.4C360.06 93.4 359.7 93.025 359.715 92.335V87.295H361.425V86.47H359.715V84.475L358.815 84.865V86.47H357.315V87.295H358.815V91.99ZM365.565 83.17H364.665V94H365.565V89.665C365.565 88.315 366.24 87.07 367.725 87.07C368.955 87.07 369.705 87.835 369.705 89.14V94H370.605V89.29C370.605 88.42 370.41 86.245 367.95 86.245C366.975 86.245 366.12 86.68 365.595 87.61H365.565V83.17ZM374.815 91.9C374.815 90.01 377.485 90.25 378.76 90.205C378.85 91.78 378.475 93.4 376.51 93.4C375.595 93.4 374.815 92.92 374.815 91.9ZM378.76 89.38C377.665 89.44 376.36 89.29 375.355 89.725C374.455 90.1 373.84 90.88 373.84 91.9C373.84 93.37 374.95 94.225 376.345 94.225C377.365 94.225 378.37 93.625 378.7 92.995L378.745 92.89H378.775L378.805 94H379.735C379.705 93.49 379.645 92.89 379.66 92.305V88.735C379.69 87.01 378.655 86.245 376.99 86.245C375.55 86.245 374.395 86.83 374.17 88.375H375.13C375.25 87.355 376.03 87.07 376.975 87.07C378.04 87.07 378.67 87.46 378.76 88.69V89.38ZM384.145 91.99C384.145 93.01 384.04 94.225 385.945 94.225C386.245 94.225 386.575 94.165 386.86 94.09V93.31C386.62 93.385 386.35 93.4 386.08 93.4C385.39 93.4 385.03 93.025 385.045 92.335V87.295H386.755V86.47H385.045V84.475L384.145 84.865V86.47H382.645V87.295H384.145V91.99ZM403.05 90.445C403.05 88.09 402.135 86.245 399.615 86.245C397.38 86.245 396.255 88.195 396.255 90.235C396.255 92.29 397.305 94.225 399.555 94.225C401.37 94.225 402.495 93.4 402.96 91.6H402.015C401.79 92.635 400.905 93.4 399.84 93.4C397.995 93.4 397.26 92.05 397.23 90.445H403.05ZM397.26 89.62C397.38 88.3 398.16 87.07 399.63 87.07C401.19 87.07 401.97 88.165 402.075 89.62H397.26ZM407.44 89.665C407.44 88.315 408.115 87.07 409.6 87.07C410.83 87.07 411.58 87.835 411.58 89.14V94H412.48V89.29C412.48 88.42 412.285 86.245 409.825 86.245C408.85 86.245 407.995 86.68 407.47 87.61L407.44 87.58L407.395 86.47H406.465C406.495 86.98 406.54 87.58 406.54 88.165V94H407.44V89.665ZM417.02 91.99C417.02 93.01 416.915 94.225 418.82 94.225C419.12 94.225 419.45 94.165 419.735 94.09V93.31C419.495 93.385 419.225 93.4 418.955 93.4C418.265 93.4 417.905 93.025 417.92 92.335V87.295H419.63V86.47H417.92V84.475L417.02 84.865V86.47H415.52V87.295H417.02V91.99ZM429.215 90.445C429.215 88.09 428.3 86.245 425.78 86.245C423.545 86.245 422.42 88.195 422.42 90.235C422.42 92.29 423.47 94.225 425.72 94.225C427.535 94.225 428.66 93.4 429.125 91.6H428.18C427.955 92.635 427.07 93.4 426.005 93.4C424.16 93.4 423.425 92.05 423.395 90.445H429.215ZM423.425 89.62C423.545 88.3 424.325 87.07 425.795 87.07C427.355 87.07 428.135 88.165 428.24 89.62H423.425ZM433.605 89.47C433.635 88.03 434.34 87.07 435.675 87.07C435.855 87.07 436.05 87.115 436.23 87.13V86.26C435.93 86.245 435.63 86.23 435.33 86.245C434.58 86.275 433.905 86.815 433.635 87.58H433.605L433.56 86.47H432.63C432.66 86.98 432.72 87.58 432.705 88.165V94H433.605V89.47ZM438.945 88.345C438.945 89.74 440.145 90.085 441.33 90.37C442.53 90.64 443.715 90.82 443.715 91.9C443.715 92.95 442.71 93.4 441.75 93.4C440.73 93.4 439.74 93.07 439.665 91.945H438.69C438.72 93.61 440.22 94.225 441.525 94.225C443.115 94.225 444.69 93.46 444.69 91.765C444.69 90.955 444.195 90.28 443.415 90.01C441.375 89.29 439.92 89.395 439.92 88.285C439.92 87.4 440.775 87.07 441.615 87.07C442.545 87.07 443.385 87.385 443.475 88.33H444.45C444.33 86.74 443.13 86.245 441.705 86.245C440.385 86.245 438.945 86.785 438.945 88.345ZM12.12 109.47L15.24 117L14.1 119.88H15.09L19.245 109.47H18.27L15.75 115.77L13.215 109.47H12.12ZM27.412 113.235C27.412 114.63 26.692 116.4 24.877 116.4C23.062 116.4 22.342 114.63 22.342 113.235C22.342 111.84 23.062 110.07 24.877 110.07C26.692 110.07 27.412 111.84 27.412 113.235ZM24.877 109.245C22.477 109.245 21.367 111.255 21.367 113.235C21.367 115.215 22.477 117.225 24.877 117.225C27.277 117.225 28.387 115.215 28.387 113.235C28.387 111.255 27.277 109.245 24.877 109.245ZM36.782 113.805C36.782 115.155 36.107 116.4 34.622 116.4C33.392 116.4 32.642 115.635 32.642 114.33V109.47H31.742V114.18C31.742 115.05 31.937 117.225 34.397 117.225C35.372 117.225 36.227 116.79 36.752 115.86L36.782 115.89L36.827 117H37.757C37.727 116.49 37.682 115.89 37.682 115.305V109.47H36.782V113.805ZM42.477 112.47C42.507 111.03 43.212 110.07 44.547 110.07C44.727 110.07 44.922 110.115 45.102 110.13V109.26C44.802 109.245 44.502 109.23 44.202 109.245C43.452 109.275 42.777 109.815 42.507 110.58H42.477L42.432 109.47H41.502C41.532 109.98 41.592 110.58 41.577 111.165V117H42.477V112.47ZM54.4969 113.055C54.4969 111.525 55.1719 110.07 56.9269 110.07C58.6369 110.07 59.2219 111.66 59.2219 113.1C59.2219 114.495 58.7869 116.4 57.0619 116.4C55.0969 116.4 54.4969 114.765 54.4969 113.055ZM54.4969 115.83H54.5269C55.1419 116.73 56.0569 117.225 57.1519 117.225C59.3419 117.225 60.1969 115.095 60.1969 113.205C60.1969 111.255 59.3419 109.245 57.1069 109.245C56.1019 109.245 55.0519 109.725 54.5269 110.61L54.4969 110.58L54.4519 109.47H53.5219C53.5519 109.98 53.6119 110.58 53.5969 111.165V119.88H54.4969V115.83ZM64.4818 112.47C64.5118 111.03 65.2168 110.07 66.5518 110.07C66.7318 110.07 66.9268 110.115 67.1068 110.13V109.26C66.8068 109.245 66.5068 109.23 66.2068 109.245C65.4568 109.275 64.7818 109.815 64.5118 110.58H64.4818L64.4368 109.47H63.5068C63.5368 109.98 63.5968 110.58 63.5818 111.165V117H64.4818V112.47ZM75.582 113.235C75.582 114.63 74.862 116.4 73.047 116.4C71.232 116.4 70.512 114.63 70.512 113.235C70.512 111.84 71.232 110.07 73.047 110.07C74.862 110.07 75.582 111.84 75.582 113.235ZM73.047 109.245C70.647 109.245 69.537 111.255 69.537 113.235C69.537 115.215 70.647 117.225 73.047 117.225C75.447 117.225 76.557 115.215 76.557 113.235C76.557 111.255 75.447 109.245 73.047 109.245ZM80.6619 113.055C80.6619 111.525 81.3369 110.07 83.0919 110.07C84.8019 110.07 85.3869 111.66 85.3869 113.1C85.3869 114.495 84.9519 116.4 83.2269 116.4C81.2619 116.4 80.6619 114.765 80.6619 113.055ZM80.6619 115.83H80.6919C81.3069 116.73 82.2219 117.225 83.3169 117.225C85.5069 117.225 86.3619 115.095 86.3619 113.205C86.3619 111.255 85.5069 109.245 83.2719 109.245C82.2669 109.245 81.2169 109.725 80.6919 110.61L80.6619 110.58L80.6169 109.47H79.6869C79.7169 109.98 79.7769 110.58 79.7619 111.165V119.88H80.6619V115.83ZM96.0919 113.445C96.0919 111.09 95.1769 109.245 92.6569 109.245C90.4219 109.245 89.2969 111.195 89.2969 113.235C89.2969 115.29 90.3469 117.225 92.5969 117.225C94.4119 117.225 95.5369 116.4 96.0019 114.6H95.0569C94.8319 115.635 93.9469 116.4 92.8819 116.4C91.0369 116.4 90.3019 115.05 90.2719 113.445H96.0919ZM90.3019 112.62C90.4219 111.3 91.2019 110.07 92.6719 110.07C94.2319 110.07 95.0119 111.165 95.1169 112.62H90.3019ZM100.482 112.47C100.512 111.03 101.217 110.07 102.552 110.07C102.732 110.07 102.927 110.115 103.107 110.13V109.26C102.807 109.245 102.507 109.23 102.207 109.245C101.457 109.275 100.782 109.815 100.512 110.58H100.482L100.437 109.47H99.5068C99.5368 109.98 99.5968 110.58 99.5818 111.165V117H100.482V112.47ZM106.722 114.99C106.722 116.01 106.617 117.225 108.522 117.225C108.822 117.225 109.152 117.165 109.437 117.09V116.31C109.197 116.385 108.927 116.4 108.657 116.4C107.967 116.4 107.607 116.025 107.622 115.335V110.295H109.332V109.47H107.622V107.475L106.722 107.865V109.47H105.222V110.295H106.722V114.99ZM111.785 109.47L114.905 117L113.765 119.88H114.755L118.91 109.47H117.935L115.415 115.77L112.88 109.47H111.785ZM127.57 109.47H126.58L129.34 117H130.255L132.61 110.505H132.64L134.95 117H135.805L138.61 109.47H137.62L135.445 115.755H135.415L133.195 109.47H132.13L129.85 115.815H129.82L127.57 109.47ZM141.55 109.47V117H142.45V109.47H141.55ZM142.525 106.17H141.475V107.295H142.525V106.17ZM147.005 114.99C147.005 116.01 146.9 117.225 148.805 117.225C149.105 117.225 149.435 117.165 149.72 117.09V116.31C149.48 116.385 149.21 116.4 148.94 116.4C148.25 116.4 147.89 116.025 147.905 115.335V110.295H149.615V109.47H147.905V107.475L147.005 107.865V109.47H145.505V110.295H147.005V114.99ZM153.755 106.17H152.855V117H153.755V112.665C153.755 111.315 154.43 110.07 155.915 110.07C157.145 110.07 157.895 110.835 157.895 112.14V117H158.795V112.29C158.795 111.42 158.6 109.245 156.14 109.245C155.165 109.245 154.31 109.68 153.785 110.61H153.755V106.17ZM168.195 113.235C168.195 114.63 167.475 116.4 165.66 116.4C163.845 116.4 163.125 114.63 163.125 113.235C163.125 111.84 163.845 110.07 165.66 110.07C167.475 110.07 168.195 111.84 168.195 113.235ZM165.66 109.245C163.26 109.245 162.15 111.255 162.15 113.235C162.15 115.215 163.26 117.225 165.66 117.225C168.06 117.225 169.17 115.215 169.17 113.235C169.17 111.255 168.06 109.245 165.66 109.245ZM177.565 113.805C177.565 115.155 176.89 116.4 175.405 116.4C174.175 116.4 173.425 115.635 173.425 114.33V109.47H172.525V114.18C172.525 115.05 172.72 117.225 175.18 117.225C176.155 117.225 177.01 116.79 177.535 115.86L177.565 115.89L177.61 117H178.54C178.51 116.49 178.465 115.89 178.465 115.305V109.47H177.565V113.805ZM183.005 114.99C183.005 116.01 182.9 117.225 184.805 117.225C185.105 117.225 185.435 117.165 185.72 117.09V116.31C185.48 116.385 185.21 116.4 184.94 116.4C184.25 116.4 183.89 116.025 183.905 115.335V110.295H185.615V109.47H183.905V107.475L183.005 107.865V109.47H181.505V110.295H183.005V114.99ZM193.45 109.47L196.57 117L195.43 119.88H196.42L200.575 109.47H199.6L197.08 115.77L194.545 109.47H193.45ZM208.742 113.235C208.742 114.63 208.022 116.4 206.207 116.4C204.392 116.4 203.672 114.63 203.672 113.235C203.672 111.84 204.392 110.07 206.207 110.07C208.022 110.07 208.742 111.84 208.742 113.235ZM206.207 109.245C203.807 109.245 202.697 111.255 202.697 113.235C202.697 115.215 203.807 117.225 206.207 117.225C208.607 117.225 209.717 115.215 209.717 113.235C209.717 111.255 208.607 109.245 206.207 109.245ZM218.112 113.805C218.112 115.155 217.437 116.4 215.952 116.4C214.722 116.4 213.972 115.635 213.972 114.33V109.47H213.072V114.18C213.072 115.05 213.267 117.225 215.727 117.225C216.702 117.225 217.557 116.79 218.082 115.86L218.112 115.89L218.157 117H219.087C219.057 116.49 219.012 115.89 219.012 115.305V109.47H218.112V113.805ZM223.807 112.47C223.837 111.03 224.542 110.07 225.877 110.07C226.057 110.07 226.252 110.115 226.432 110.13V109.26C226.132 109.245 225.832 109.23 225.532 109.245C224.782 109.275 224.107 109.815 223.837 110.58H223.807L223.762 109.47H222.832C222.862 109.98 222.922 110.58 222.907 111.165V117H223.807V112.47ZM240.807 111.78C240.732 110.175 239.472 109.245 237.927 109.245C235.692 109.245 234.567 111.195 234.567 113.235C234.567 115.29 235.617 117.225 237.867 117.225C239.577 117.225 240.567 116.37 240.807 114.645H239.832C239.757 115.68 238.947 116.4 237.777 116.4C236.397 116.4 235.542 114.945 235.542 113.22C235.542 111.51 236.397 110.07 237.777 110.07C239.022 110.07 239.757 110.625 239.832 111.78H240.807ZM249.582 113.235C249.582 114.63 248.862 116.4 247.047 116.4C245.232 116.4 244.512 114.63 244.512 113.235C244.512 111.84 245.232 110.07 247.047 110.07C248.862 110.07 249.582 111.84 249.582 113.235ZM247.047 109.245C244.647 109.245 243.537 111.255 243.537 113.235C243.537 115.215 244.647 117.225 247.047 117.225C249.447 117.225 250.557 115.215 250.557 113.235C250.557 111.255 249.447 109.245 247.047 109.245ZM254.812 112.665C254.812 111.315 255.487 110.07 256.972 110.07C258.202 110.07 258.952 110.835 258.952 112.14V117H259.852V112.29C259.852 111.42 259.657 109.245 257.197 109.245C256.222 109.245 255.367 109.68 254.842 110.61L254.812 110.58L254.767 109.47H253.837C253.867 109.98 253.912 110.58 253.912 111.165V117H254.812V112.665ZM263.492 111.345C263.492 112.74 264.692 113.085 265.877 113.37C267.077 113.64 268.262 113.82 268.262 114.9C268.262 115.95 267.257 116.4 266.297 116.4C265.277 116.4 264.287 116.07 264.212 114.945H263.237C263.267 116.61 264.767 117.225 266.072 117.225C267.662 117.225 269.237 116.46 269.237 114.765C269.237 113.955 268.742 113.28 267.962 113.01C265.922 112.29 264.467 112.395 264.467 111.285C264.467 110.4 265.322 110.07 266.162 110.07C267.092 110.07 267.932 110.385 268.022 111.33H268.997C268.877 109.74 267.677 109.245 266.252 109.245C264.932 109.245 263.492 109.785 263.492 111.345ZM279.092 113.445C279.092 111.09 278.177 109.245 275.657 109.245C273.422 109.245 272.297 111.195 272.297 113.235C272.297 115.29 273.347 117.225 275.597 117.225C277.412 117.225 278.537 116.4 279.002 114.6H278.057C277.832 115.635 276.947 116.4 275.882 116.4C274.037 116.4 273.302 115.05 273.272 113.445H279.092ZM273.302 112.62C273.422 111.3 274.202 110.07 275.672 110.07C277.232 110.07 278.012 111.165 278.117 112.62H273.302ZM283.482 112.665C283.482 111.315 284.157 110.07 285.642 110.07C286.872 110.07 287.622 110.835 287.622 112.14V117H288.522V112.29C288.522 111.42 288.327 109.245 285.867 109.245C284.892 109.245 284.037 109.68 283.512 110.61L283.482 110.58L283.437 109.47H282.507C282.537 109.98 282.582 110.58 282.582 111.165V117H283.482V112.665ZM293.062 114.99C293.062 116.01 292.957 117.225 294.862 117.225C295.162 117.225 295.492 117.165 295.777 117.09V116.31C295.537 116.385 295.267 116.4 294.997 116.4C294.307 116.4 293.947 116.025 293.962 115.335V110.295H295.672V109.47H293.962V107.475L293.062 107.865V109.47H291.562V110.295H293.062V114.99ZM300.397 117V115.71H299.197V117H300.397Z" fill="white"/>
</svg>
