<svg width="372" height="20" viewBox="0 0 372 20" fill="none" xmlns="http://www.w3.org/2000/svg">
<path d="M1.3 8.12H3.7C6.42 8.12 8.4 8.5 8.4 10.96C8.4 13.18 6.96 13.84 4.48 13.8H1.3V8.12ZM1.3 6.92V1.76H4.38C6.08 1.78 7.8 2.2 7.8 4.3C7.8 6.26 6.12 6.92 4.44 6.92H1.3ZM5.5 15C8.64 15 9.8 13.04 9.8 11.14C9.8 9.08 8.48 7.8 6.52 7.48V7.44C8.04 7.08 9.2 5.78 9.2 4.18C9.2 1.88 7.32 0.58 5.18 0.58L2.98023e-08 0.559999V15H5.5ZM14.9692 12.2C14.9692 9.68 18.5292 10 20.2292 9.94C20.3492 12.04 19.8492 14.2 17.2292 14.2C16.0092 14.2 14.9692 13.56 14.9692 12.2ZM20.2292 8.84C18.7692 8.92 17.0292 8.72 15.6892 9.3C14.4892 9.8 13.6692 10.84 13.6692 12.2C13.6692 14.16 15.1492 15.3 17.0092 15.3C18.3692 15.3 19.7092 14.5 20.1492 13.66L20.2092 13.52H20.2492L20.2892 15H21.5292C21.4892 14.32 21.4092 13.52 21.4292 12.74V7.98C21.4692 5.68 20.0892 4.66 17.8692 4.66C15.9492 4.66 14.4092 5.44 14.1092 7.5H15.3892C15.5492 6.14 16.5892 5.76 17.8492 5.76C19.2692 5.76 20.1092 6.28 20.2292 7.92V8.84ZM26.2092 7.46C26.2092 9.32 27.8092 9.78 29.3892 10.16C30.9892 10.52 32.5692 10.76 32.5692 12.2C32.5692 13.6 31.2292 14.2 29.9492 14.2C28.5892 14.2 27.2692 13.76 27.1692 12.26H25.8692C25.9092 14.48 27.9092 15.3 29.6492 15.3C31.7692 15.3 33.8692 14.28 33.8692 12.02C33.8692 10.94 33.2092 10.04 32.1692 9.68C29.4492 8.72 27.5092 8.86 27.5092 7.38C27.5092 6.2 28.6492 5.76 29.7692 5.76C31.0092 5.76 32.1292 6.18 32.2492 7.44H33.5492C33.3892 5.32 31.7892 4.66 29.8892 4.66C28.1292 4.66 26.2092 5.38 26.2092 7.46ZM47.0092 10.26C47.0092 7.12 45.7892 4.66 42.4292 4.66C39.4492 4.66 37.9492 7.26 37.9492 9.98C37.9492 12.72 39.3492 15.3 42.3492 15.3C44.7692 15.3 46.2692 14.2 46.8892 11.8H45.6292C45.3292 13.18 44.1492 14.2 42.7292 14.2C40.2692 14.2 39.2892 12.4 39.2492 10.26H47.0092ZM39.2892 9.16C39.4492 7.4 40.4892 5.76 42.4492 5.76C44.5292 5.76 45.5692 7.22 45.7092 9.16H39.2892ZM58.5425 9.74C58.5425 12.02 57.7425 14.2 55.1225 14.2C52.8225 14.2 52.2825 11.66 52.2825 9.8C52.2825 7.88 53.0225 5.76 55.3025 5.76C57.6425 5.76 58.5425 7.7 58.5425 9.74ZM58.6425 15H59.8825C59.8425 14.32 59.7825 13.52 59.7825 12.74V0.559999H58.5825V6.44L58.5425 6.48C57.8425 5.3 56.4425 4.66 55.1025 4.66C52.1225 4.66 50.9825 7.34 50.9825 9.94C50.9825 12.46 52.1225 15.3 55.1025 15.3C56.5025 15.3 57.7225 14.64 58.5425 13.44L58.5825 13.52L58.6425 15ZM79.6822 9.98C79.6822 11.84 78.7222 14.2 76.3022 14.2C73.8822 14.2 72.9222 11.84 72.9222 9.98C72.9222 8.12 73.8822 5.76 76.3022 5.76C78.7222 5.76 79.6822 8.12 79.6822 9.98ZM76.3022 4.66C73.1022 4.66 71.6222 7.34 71.6222 9.98C71.6222 12.62 73.1022 15.3 76.3022 15.3C79.5022 15.3 80.9822 12.62 80.9822 9.98C80.9822 7.34 79.5022 4.66 76.3022 4.66ZM86.6555 9.22C86.6555 7.42 87.5555 5.76 89.5355 5.76C91.1755 5.76 92.1755 6.78 92.1755 8.52V15H93.3755V8.72C93.3755 7.56 93.1155 4.66 89.8355 4.66C88.5355 4.66 87.3955 5.24 86.6955 6.48L86.6555 6.44L86.5955 4.96H85.3555C85.3955 5.64 85.4555 6.44 85.4555 7.22V15H86.6555V9.22ZM107.864 3.1L108.564 2.7H113.764L115.164 5.6V2H104.864L106.864 3.1V13.9L104.864 15H115.464V11.4L114.064 14.3H108.564L107.864 13.9V8.6H111.164L112.364 10.5V6L111.164 7.9H107.864V3.1ZM121.059 2V14.1L119.459 15H123.659L122.059 14.1V0.699999L119.459 1.5L121.059 2ZM134.75 9.6C134.75 7.4 133.85 5.7 131.31 5.7C128.93 5.7 126.95 7.58 126.95 10.5C126.95 13.2 128.55 15.3 131.15 15.3C134.15 15.3 134.75 12.4 134.75 12.4C134.75 12.4 133.85 14.4 131.65 14.4C129.65 14.4 127.95 13.16 127.95 10.18C127.95 9.98 127.95 9.8 127.97 9.6H134.75ZM131.27 6.18C132.67 6.18 133.65 7.1 133.65 8.1C133.65 8.9 132.95 9 131.95 9H128.07C128.51 7.08 130.01 6.18 131.27 6.18ZM139.645 18.3L138.045 19.2H142.245L140.645 18.3V13.72C140.705 13.86 141.445 15.3 143.445 15.3C145.245 15.3 147.345 13.9 147.345 10.5C147.345 6.8 145.445 5.7 143.645 5.7C141.545 5.7 140.645 7.6 140.645 7.6V5.7L138.045 6.5L139.645 7V18.3ZM140.645 8.6C140.645 8.6 141.345 6.3 143.345 6.3C144.865 6.3 146.245 7.5 146.245 10.5C146.245 13.3 144.865 14.7 143.345 14.7C141.645 14.7 140.645 13.4 140.645 11.9V8.6ZM152.352 2V14.1L150.752 15H154.952L153.352 14.1V8.16C153.952 7.42 155.152 6.46 156.352 6.46C157.652 6.46 158.252 7.4 158.252 9V14.1L156.652 15H160.852L159.252 14.1V8.7C159.252 6.5 158.152 5.7 156.752 5.7C155.352 5.7 154.052 6.8 153.352 7.56V0.699999L150.752 1.5L152.352 2ZM166.528 10.18C165.168 10.66 163.948 11.6 163.948 13C163.948 14.42 164.848 15.3 166.228 15.3C167.028 15.3 167.708 14.9 168.168 14.6L169.648 13.62C169.648 14.68 169.648 15.3 170.348 15.3C171.048 15.3 172.448 13.6 172.448 13.6L170.648 14.3V8.6C170.648 6.9 169.928 5.7 167.748 5.7C166.548 5.7 164.288 6.8 164.288 8.04C164.288 8.62 164.628 8.88 165.008 8.88C165.388 8.88 165.728 8.66 165.728 8.04C165.728 7.76 165.688 7.56 165.688 7.4C165.688 6.9 166.328 6.3 167.548 6.3C168.648 6.3 169.648 6.82 169.648 8.6V9.1L166.528 10.18ZM168.408 13.8C167.828 14.18 167.328 14.56 166.548 14.56C165.548 14.56 165.008 13.76 165.008 12.9C165.008 11.8 165.508 11.12 167.248 10.5L169.648 9.66V12.98L168.408 13.8ZM176.843 7V14.1L175.243 15H179.443L177.843 14.1V8.16C178.443 7.42 179.643 6.46 180.843 6.46C182.143 6.46 182.743 7.4 182.743 9V14.1L181.143 15H185.343L183.743 14.1V8.7C183.743 6.5 182.643 5.7 181.243 5.7C179.843 5.7 178.543 6.8 177.843 7.56V5.7L175.243 6.5L176.843 7ZM187.937 6.6H189.837V13.2C189.837 14.7 190.437 15.3 191.437 15.3C192.537 15.3 193.097 13.96 193.137 13.82C193.117 13.86 192.637 14.6 191.837 14.6C191.137 14.6 190.837 14 190.837 13.2V6.6H193.137V6H190.837V3.9L187.937 6.6ZM209.449 5.76C211.729 5.76 212.509 7.92 212.509 9.84C212.509 11.7 211.929 14.2 209.629 14.2C207.009 14.2 206.209 12.06 206.209 9.78C206.209 7.74 207.109 5.76 209.449 5.76ZM206.209 13.52L206.249 13.44C207.069 14.64 208.289 15.3 209.749 15.3C212.669 15.3 213.809 12.46 213.809 9.94C213.809 7.34 212.669 4.66 209.689 4.66C208.349 4.66 206.949 5.3 206.249 6.48L206.209 6.44V0.559999H205.009V12.74C205.009 13.52 204.949 14.32 204.909 15H206.149L206.209 13.52ZM216.492 4.96L220.652 15L219.132 18.84H220.452L225.992 4.96H224.692L221.332 13.36L217.952 4.96H216.492ZM247.998 1.7L246.898 2.8C246.898 2.8 245.598 1.7 243.098 1.7C239.418 1.7 236.598 4.3 236.598 8.6C236.598 12.5 239.198 15.3 242.898 15.3C245.698 15.3 247.098 13.7 247.098 13.7L247.898 15.2V9.9L249.698 8.8H244.498L246.898 9.9V13.1C246.898 13.1 245.698 14.6 243.198 14.6C240.298 14.6 237.698 12.6 237.698 8.2C237.698 4.3 240.398 2.3 243.098 2.3C245.498 2.3 246.698 3.6 246.698 3.6L247.998 6.6V1.7ZM259.7 7V12.84C259.1 13.58 257.9 14.54 256.7 14.54C255.4 14.54 254.8 13.6 254.8 12V5.7L252.2 6.5L253.8 7V12.3C253.8 14.5 254.9 15.3 256.3 15.3C257.7 15.3 259 14.2 259.7 13.44V15.3L262.3 14.5L260.7 14V5.7L258.1 6.5L259.7 7ZM271.703 5.7L270.903 6.5C270.903 6.5 270.203 5.7 268.803 5.7C267.203 5.7 265.903 6.64 265.903 8.1C265.903 11.12 271.303 10.28 271.303 12.86C271.303 14.2 270.103 14.7 269.203 14.7C268.603 14.7 267.503 14.52 266.863 13.2L266.003 11.4V15.3L266.703 14.12C266.723 14.18 267.343 15.3 269.203 15.3C270.803 15.3 272.203 14.34 272.203 12.54C272.203 9.24 266.703 10 266.703 7.8C266.703 7 267.483 6.3 268.803 6.3C270.203 6.3 270.803 7.2 270.803 7.2L271.703 8.82V5.7ZM296.575 2H291.975L293.775 3L289.575 13.1L285.395 3L287.095 2H282.395L284.395 3.2L289.415 15.3L294.475 3.1L296.575 2ZM299.962 10.18C298.602 10.66 297.382 11.6 297.382 13C297.382 14.42 298.282 15.3 299.662 15.3C300.462 15.3 301.142 14.9 301.602 14.6L303.082 13.62C303.082 14.68 303.082 15.3 303.782 15.3C304.482 15.3 305.882 13.6 305.882 13.6L304.082 14.3V8.6C304.082 6.9 303.362 5.7 301.182 5.7C299.982 5.7 297.722 6.8 297.722 8.04C297.722 8.62 298.062 8.88 298.442 8.88C298.822 8.88 299.162 8.66 299.162 8.04C299.162 7.76 299.122 7.56 299.122 7.4C299.122 6.9 299.762 6.3 300.982 6.3C302.082 6.3 303.082 6.82 303.082 8.6V9.1L299.962 10.18ZM301.842 13.8C301.262 14.18 300.762 14.56 299.982 14.56C298.982 14.56 298.442 13.76 298.442 12.9C298.442 11.8 298.942 11.12 300.682 10.5L303.082 9.66V12.98L301.842 13.8ZM310.277 7V14.1L308.677 15H312.877L311.277 14.1V8.16C311.877 7.42 313.077 6.46 314.277 6.46C315.577 6.46 316.177 7.4 316.177 9V14.1L314.577 15H318.777L317.177 14.1V8.7C317.177 6.5 316.077 5.7 314.677 5.7C313.277 5.7 311.977 6.8 311.277 7.56V5.7L308.677 6.5L310.277 7ZM337.766 1.7L336.766 2.6C336.766 2.6 335.566 1.7 333.466 1.7C330.766 1.7 329.466 3.16 329.466 4.8C329.466 6.68 330.886 7.5 333.586 8.46C336.366 9.44 337.366 10.2 337.366 12C337.366 13.6 336.066 14.7 334.166 14.7C331.966 14.7 330.866 13.5 330.866 13.5L329.566 10.4V15.3L330.526 14.2C330.526 14.2 331.766 15.3 334.166 15.3C336.866 15.3 338.366 13.76 338.366 11.8C338.366 9.2 336.266 8.3 333.786 7.46C331.346 6.64 330.466 5.94 330.466 4.66C330.466 3.46 331.566 2.3 333.466 2.3C335.366 2.3 336.466 3.3 336.466 3.3L337.766 6V1.7ZM344.954 10.18C343.594 10.66 342.374 11.6 342.374 13C342.374 14.42 343.274 15.3 344.654 15.3C345.454 15.3 346.134 14.9 346.594 14.6L348.074 13.62C348.074 14.68 348.074 15.3 348.774 15.3C349.474 15.3 350.874 13.6 350.874 13.6L349.074 14.3V8.6C349.074 6.9 348.354 5.7 346.174 5.7C344.974 5.7 342.714 6.8 342.714 8.04C342.714 8.62 343.054 8.88 343.434 8.88C343.814 8.88 344.154 8.66 344.154 8.04C344.154 7.76 344.114 7.56 344.114 7.4C344.114 6.9 344.754 6.3 345.974 6.3C347.074 6.3 348.074 6.82 348.074 8.6V9.1L344.954 10.18ZM346.834 13.8C346.254 14.18 345.754 14.56 344.974 14.56C343.974 14.56 343.434 13.76 343.434 12.9C343.434 11.8 343.934 11.12 345.674 10.5L348.074 9.66V12.98L346.834 13.8ZM355.269 7V14.1L353.669 15H357.869L356.269 14.1V8.16C356.869 7.42 358.069 6.46 359.269 6.46C360.569 6.46 361.169 7.4 361.169 9V14.1L359.569 15H363.769L362.169 14.1V8.7C362.169 6.5 361.069 5.7 359.669 5.7C358.269 5.7 356.969 6.8 356.269 7.56V5.7L353.669 6.5L355.269 7ZM366.363 6.6H368.263V13.2C368.263 14.7 368.863 15.3 369.863 15.3C370.963 15.3 371.523 13.96 371.563 13.82C371.543 13.86 371.062 14.6 370.263 14.6C369.563 14.6 369.263 14 369.263 13.2V6.6H371.563V6H369.263V3.9L366.363 6.6Z" fill="white"/>
</svg>
