<svg width="235" height="24" viewBox="0 0 235 24" fill="none" xmlns="http://www.w3.org/2000/svg">
<path d="M10.875 1.375L9.625 2.5C9.625 2.5 8.125 1.375 5.5 1.375C2.125 1.375 0.5 3.2 0.5 5.25C0.5 7.6 2.275 8.625 5.65 9.825C9.125 11.05 10.375 12 10.375 14.25C10.375 16.25 8.75 17.625 6.375 17.625C3.625 17.625 2.25 16.125 2.25 16.125L0.625 12.25V18.375L1.825 17C1.825 17 3.375 18.375 6.375 18.375C9.75 18.375 11.625 16.45 11.625 14C11.625 10.75 9 9.625 5.9 8.575C2.85 7.55 1.75 6.675 1.75 5.075C1.75 3.575 3.125 2.125 5.5 2.125C7.875 2.125 9.25 3.375 9.25 3.375L10.875 6.75V1.375ZM18.1357 22.125L16.1357 23.25H21.3857L19.3857 22.125V16.4C19.4607 16.575 20.3857 18.375 22.8857 18.375C25.1357 18.375 27.7607 16.625 27.7607 12.375C27.7607 7.75 25.3857 6.375 23.1357 6.375C20.5107 6.375 19.3857 8.75 19.3857 8.75V6.375L16.1357 7.375L18.1357 8V22.125ZM19.3857 10C19.3857 10 20.2607 7.125 22.7607 7.125C24.6607 7.125 26.3857 8.625 26.3857 12.375C26.3857 15.875 24.6607 17.625 22.7607 17.625C20.6357 17.625 19.3857 16 19.3857 14.125V10ZM37.1455 7.05C39.2205 7.05 41.4705 8.875 41.4705 13.025C41.4705 15.975 39.6955 17.7 37.8455 17.7C35.7955 17.7 33.5205 15.875 33.5205 11.725C33.5205 8.725 35.3205 7.05 37.1455 7.05ZM32.1455 12.375C32.1455 15.75 34.0205 18.375 37.4955 18.375C40.7205 18.375 42.8455 15.75 42.8455 12.375C42.8455 9 40.9705 6.375 37.4955 6.375C34.2705 6.375 32.1455 9 32.1455 12.375ZM46.5967 7.5H48.9717V15.75C48.9717 17.625 49.7217 18.375 50.9717 18.375C52.3467 18.375 53.0467 16.7 53.0967 16.525C53.0717 16.575 52.4717 17.5 51.4717 17.5C50.5967 17.5 50.2217 16.75 50.2217 15.75V7.5H53.0967V6.75H50.2217V4.125L46.5967 7.5ZM80.3486 1.75H67.0986V6.25L68.8486 2.625H73.0986V16.625L70.3486 18H77.0986L74.3486 16.625V2.625H78.5986L80.3486 6.25V1.75ZM86.9648 1.75V16.875L84.9648 18H90.2148L88.2148 16.875V9.45C88.9648 8.525 90.4648 7.325 91.9648 7.325C93.5898 7.325 94.3398 8.5 94.3398 10.5V16.875L92.3398 18H97.5898L95.5898 16.875V10.125C95.5898 7.375 94.2148 6.375 92.4648 6.375C90.7148 6.375 89.0898 7.75 88.2148 8.7V0.124999L84.9648 1.125L86.9648 1.75ZM111.085 11.25C111.085 8.5 109.96 6.375 106.785 6.375C103.81 6.375 101.335 8.725 101.335 12.375C101.335 15.75 103.335 18.375 106.585 18.375C110.335 18.375 111.085 14.75 111.085 14.75C111.085 14.75 109.96 17.25 107.21 17.25C104.71 17.25 102.585 15.7 102.585 11.975C102.585 11.725 102.585 11.5 102.61 11.25H111.085ZM106.735 6.975C108.485 6.975 109.71 8.125 109.71 9.375C109.71 10.375 108.835 10.5 107.585 10.5H102.735C103.285 8.1 105.16 6.975 106.735 6.975ZM128.322 3.125L129.197 2.625H135.697L137.447 6.25V1.75H124.572L127.072 3.125V16.625L124.572 18H137.822V13.5L136.072 17.125H129.197L128.322 16.625V10H132.447L133.947 12.375V6.75L132.447 9.125H128.322V3.125ZM144.816 1.75V16.875L142.816 18H148.066L146.066 16.875V0.124999L142.816 1.125L144.816 1.75ZM161.93 11.25C161.93 8.5 160.805 6.375 157.63 6.375C154.655 6.375 152.18 8.725 152.18 12.375C152.18 15.75 154.18 18.375 157.43 18.375C161.18 18.375 161.93 14.75 161.93 14.75C161.93 14.75 160.805 17.25 158.055 17.25C155.555 17.25 153.43 15.7 153.43 11.975C153.43 11.725 153.43 11.5 153.455 11.25H161.93ZM157.58 6.975C159.33 6.975 160.555 8.125 160.555 9.375C160.555 10.375 159.68 10.5 158.43 10.5H153.58C154.13 8.1 156.005 6.975 157.58 6.975ZM168.048 22.125L166.048 23.25H171.298L169.298 22.125V16.4C169.373 16.575 170.298 18.375 172.798 18.375C175.048 18.375 177.673 16.625 177.673 12.375C177.673 7.75 175.298 6.375 173.048 6.375C170.423 6.375 169.298 8.75 169.298 8.75V6.375L166.048 7.375L168.048 8V22.125ZM169.298 10C169.298 10 170.173 7.125 172.673 7.125C174.573 7.125 176.298 8.625 176.298 12.375C176.298 15.875 174.573 17.625 172.673 17.625C170.548 17.625 169.298 16 169.298 14.125V10ZM183.933 1.75V16.875L181.933 18H187.183L185.183 16.875V9.45C185.933 8.525 187.433 7.325 188.933 7.325C190.558 7.325 191.308 8.5 191.308 10.5V16.875L189.308 18H194.558L192.558 16.875V10.125C192.558 7.375 191.183 6.375 189.433 6.375C187.683 6.375 186.058 7.75 185.183 8.7V0.124999L181.933 1.125L183.933 1.75ZM201.653 11.975C199.953 12.575 198.428 13.75 198.428 15.5C198.428 17.275 199.553 18.375 201.278 18.375C202.278 18.375 203.128 17.875 203.703 17.5L205.553 16.275C205.553 17.6 205.553 18.375 206.428 18.375C207.303 18.375 209.053 16.25 209.053 16.25L206.803 17.125V10C206.803 7.875 205.903 6.375 203.178 6.375C201.678 6.375 198.853 7.75 198.853 9.3C198.853 10.025 199.278 10.35 199.753 10.35C200.228 10.35 200.653 10.075 200.653 9.3C200.653 8.95 200.603 8.7 200.603 8.5C200.603 7.875 201.403 7.125 202.928 7.125C204.303 7.125 205.553 7.775 205.553 10V10.625L201.653 11.975ZM204.003 16.5C203.278 16.975 202.653 17.45 201.678 17.45C200.428 17.45 199.753 16.45 199.753 15.375C199.753 14 200.378 13.15 202.553 12.375L205.553 11.325V15.475L204.003 16.5ZM214.546 8V16.875L212.546 18H217.796L215.796 16.875V9.45C216.546 8.525 218.046 7.325 219.546 7.325C221.171 7.325 221.921 8.5 221.921 10.5V16.875L219.921 18H225.171L223.171 16.875V10.125C223.171 7.375 221.796 6.375 220.046 6.375C218.296 6.375 216.671 7.75 215.796 8.7V6.375L212.546 7.375L214.546 8ZM228.413 7.5H230.788V15.75C230.788 17.625 231.538 18.375 232.788 18.375C234.163 18.375 234.863 16.7 234.913 16.525C234.888 16.575 234.288 17.5 233.288 17.5C232.413 17.5 232.038 16.75 232.038 15.75V7.5H234.913V6.75H232.038V4.125L228.413 7.5Z" fill="white"/>
</svg>
