<svg width="314" height="39" viewBox="0 0 314 39" fill="none" xmlns="http://www.w3.org/2000/svg">
<rect width="314" height="39" fill="black" fill-opacity="0.69"/>
<path d="M20.757 14.978H19.73C19.366 15.277 18.508 15.927 18.209 16.057V17.201L19.561 16.291V24H20.757V14.978ZM26.1304 22.648H24.9084V24H26.1304V22.648ZM34.806 19.606H36.08C37.302 19.606 38.225 19.866 38.225 21.361C38.225 22.05 37.77 22.96 36.496 22.96H34.806V19.606ZM34.806 15.654H36.496C37.497 15.654 37.939 16.291 37.939 17.071C37.939 17.981 37.484 18.553 36.548 18.566H34.806V15.654ZM36.626 24C37.692 24 39.447 23.766 39.447 21.361C39.447 20.074 38.862 19.268 37.523 19.112V19.047C38.732 18.774 39.135 17.994 39.135 16.824C39.135 16.642 39.083 16.083 38.758 15.576C38.407 15.056 37.965 14.614 36.665 14.614H33.61V24H36.626ZM43.6633 20.256C43.6763 18.436 44.2353 18.111 44.9113 18.111C45.6913 18.111 46.2243 18.345 46.2243 20.256H43.6633ZM47.3553 21.062V20.503C47.3553 18.332 46.8873 17.305 45.0153 17.305C42.7403 17.305 42.5193 18.891 42.5193 20.815C42.5193 23.714 43.6243 24.13 45.0153 24.13C46.3933 24.13 47.2903 23.467 47.3033 22.011H46.1333C46.0943 22.674 45.7173 23.259 44.9893 23.259C44.1573 23.259 43.6633 22.895 43.6633 21.062H47.3553ZM55.0513 24V19.45C55.0513 18.15 54.7003 17.305 53.2963 17.305C52.4513 17.305 51.9573 17.539 51.5413 18.28H51.4893V17.435H50.3583C50.3973 17.89 50.4233 18.345 50.4233 18.8V24H51.4893V20.113C51.4893 19.216 51.6583 18.176 52.8283 18.176C53.7383 18.176 53.9853 18.748 53.9853 19.45V24H55.0513ZM59.2633 20.256C59.2763 18.436 59.8353 18.111 60.5113 18.111C61.2913 18.111 61.8243 18.345 61.8243 20.256H59.2633ZM62.9553 21.062V20.503C62.9553 18.332 62.4873 17.305 60.6153 17.305C58.3403 17.305 58.1193 18.891 58.1193 20.815C58.1193 23.714 59.2243 24.13 60.6153 24.13C61.9933 24.13 62.8903 23.467 62.9033 22.011H61.7333C61.6943 22.674 61.3173 23.259 60.5893 23.259C59.7573 23.259 59.2633 22.895 59.2633 21.062H62.9553ZM69.3773 20.737C69.4813 22.856 68.6753 23.259 68.0253 23.259C67.3103 23.259 66.9983 22.687 66.9983 22.05C66.9983 20.659 68.3633 20.75 69.3773 20.737ZM69.4033 24H70.5733C70.4953 23.493 70.4433 22.96 70.4433 22.44V19.281C70.4433 18.176 70.0013 17.305 68.3113 17.305C66.9203 17.305 66.1403 17.812 66.0883 19.281H67.2453C67.1803 18.592 67.5573 18.111 68.2723 18.111C69.4163 18.111 69.4033 19.06 69.3773 19.931C67.8823 19.892 65.9323 19.983 65.9323 21.972C65.9323 23.233 66.3353 24.13 67.7263 24.13C68.5453 24.13 69.0523 23.805 69.3773 23.051H69.4033V24ZM72.8613 17.435V18.241H73.9403V22.908C73.9403 23.662 74.3953 24.078 75.4093 24.078C75.7603 24.078 76.1113 24 76.4623 23.974V23.155C76.2283 23.181 76.0593 23.207 75.9813 23.207C75.0063 23.207 75.0063 22.674 75.0063 22.258V18.241H76.4363V17.435H75.0063V15.693L73.9403 16.174V17.435H72.8613ZM83.3695 24V19.346C83.3695 17.864 82.7455 17.305 81.6275 17.305C80.7695 17.305 80.2755 17.513 79.8465 18.28H79.7945V14.614H78.7285V24H79.7945V20.139C79.7945 19.034 80.0675 18.176 81.1335 18.176C82.0435 18.176 82.3035 18.748 82.3035 19.554V24H83.3695ZM89.7613 17.435V18.241H90.8403V22.908C90.8403 23.662 91.2953 24.078 92.3093 24.078C92.6603 24.078 93.0113 24 93.3623 23.974V23.155C93.1283 23.181 92.9593 23.207 92.8813 23.207C91.9063 23.207 91.9063 22.674 91.9063 22.258V18.241H93.3363V17.435H91.9063V15.693L90.8403 16.174V17.435H89.7613ZM100.269 24V19.346C100.269 17.864 99.6455 17.305 98.5275 17.305C97.6695 17.305 97.1755 17.513 96.7465 18.28H96.6945V14.614H95.6285V24H96.6945V20.139C96.6945 19.034 96.9675 18.176 98.0335 18.176C98.9435 18.176 99.2035 18.748 99.2035 19.554V24H100.269ZM104.481 20.256C104.494 18.436 105.053 18.111 105.729 18.111C106.509 18.111 107.042 18.345 107.042 20.256H104.481ZM108.173 21.062V20.503C108.173 18.332 107.705 17.305 105.833 17.305C103.558 17.305 103.337 18.891 103.337 20.815C103.337 23.714 104.442 24.13 105.833 24.13C107.211 24.13 108.108 23.467 108.121 22.011H106.951C106.912 22.674 106.535 23.259 105.807 23.259C104.975 23.259 104.481 22.895 104.481 21.062H108.173ZM115.28 21.205C115.254 22.102 115.254 24.221 118.023 24.195C119.57 24.195 120.935 23.558 120.935 21.582C120.935 18.605 116.723 18.904 116.723 16.837C116.723 15.823 117.451 15.459 118.166 15.459C119.297 15.459 119.622 16.135 119.609 17.162H120.857C120.935 15.251 119.973 14.419 118.257 14.419C116.684 14.419 115.501 15.303 115.501 16.967C115.501 19.788 119.713 19.554 119.713 21.634C119.713 22.752 118.985 23.155 118.036 23.155C117.269 23.155 116.463 22.752 116.463 21.478V21.205H115.28ZM127.457 21.79C127.457 22.882 126.742 23.311 126.17 23.311C125.416 23.311 125.052 22.778 125.052 21.985V17.435H123.986V22.44C123.986 23.558 124.61 24.13 125.754 24.13C126.443 24.13 127.067 23.805 127.418 23.207H127.457V24H128.588C128.549 23.545 128.523 23.09 128.523 22.635V17.435H127.457V21.79ZM132.852 17.435H131.786V24H132.852V20.126C132.852 19.242 133.151 18.345 134.334 18.345C134.438 18.345 134.529 18.358 134.62 18.371C134.711 18.384 134.815 18.397 134.906 18.41V17.305C133.866 17.305 133.32 17.422 132.878 18.423H132.852V17.435ZM136.557 17.435V18.241H137.571V24H138.637V18.241H139.963V17.435H138.637V16.317C138.637 15.784 138.832 15.303 139.963 15.381V14.614C139.807 14.588 139.677 14.575 139.456 14.575C138.507 14.575 137.571 14.835 137.571 16.161V17.435H136.557ZM145.648 20.737C145.752 22.856 144.946 23.259 144.296 23.259C143.581 23.259 143.269 22.687 143.269 22.05C143.269 20.659 144.634 20.75 145.648 20.737ZM145.674 24H146.844C146.766 23.493 146.714 22.96 146.714 22.44V19.281C146.714 18.176 146.272 17.305 144.582 17.305C143.191 17.305 142.411 17.812 142.359 19.281H143.516C143.451 18.592 143.828 18.111 144.543 18.111C145.687 18.111 145.674 19.06 145.648 19.931C144.153 19.892 142.203 19.983 142.203 21.972C142.203 23.233 142.606 24.13 143.997 24.13C144.816 24.13 145.323 23.805 145.648 23.051H145.674V24ZM154.631 19.541C154.696 18.072 153.929 17.305 152.616 17.305C150.341 17.305 150.12 18.891 150.12 20.815C150.12 23.714 151.225 24.13 152.616 24.13C153.344 24.13 154.722 23.662 154.683 21.816H153.565C153.604 22.999 152.863 23.259 152.616 23.259C151.511 23.259 151.238 22.492 151.238 20.36C151.238 18.566 151.797 18.176 152.616 18.176C153.019 18.176 153.552 18.462 153.526 19.541H154.631ZM158.934 20.256C158.947 18.436 159.506 18.111 160.182 18.111C160.962 18.111 161.495 18.345 161.495 20.256H158.934ZM162.626 21.062V20.503C162.626 18.332 162.158 17.305 160.286 17.305C158.011 17.305 157.79 18.891 157.79 20.815C157.79 23.714 158.895 24.13 160.286 24.13C161.664 24.13 162.561 23.467 162.574 22.011H161.404C161.365 22.674 160.988 23.259 160.26 23.259C159.428 23.259 158.934 22.895 158.934 21.062H162.626ZM171.033 20.451C171.033 19.58 171.085 18.176 172.268 18.176C173.412 18.176 173.568 19.086 173.568 20.841C173.568 21.829 173.568 23.259 172.229 23.259C170.916 23.259 171.033 21.452 171.033 20.451ZM171.033 23.22H171.059C171.423 23.831 171.878 24.13 172.567 24.13C173.62 24.13 174.686 23.714 174.686 20.828C174.686 19.19 174.634 17.305 172.515 17.305C171.891 17.305 171.436 17.578 171.072 18.098H171.033V14.614H169.967V24H171.033V23.22ZM178.079 17.435H176.844L179.067 24L178.326 26.483H179.431L182.408 17.435H181.251L179.678 22.778H179.652L178.079 17.435ZM188.193 24H189.402L190.104 21.764H193.731L194.407 24H195.746L192.691 14.614H191.17L188.193 24ZM193.406 20.724H190.403L191.872 15.719H191.898L193.406 20.724ZM202.81 24V19.45C202.81 18.15 202.459 17.305 201.055 17.305C200.21 17.305 199.716 17.539 199.3 18.28H199.248V17.435H198.117C198.156 17.89 198.182 18.345 198.182 18.8V24H199.248V20.113C199.248 19.216 199.417 18.176 200.587 18.176C201.497 18.176 201.744 18.748 201.744 19.45V24H202.81ZM209.336 20.737C209.44 22.856 208.634 23.259 207.984 23.259C207.269 23.259 206.957 22.687 206.957 22.05C206.957 20.659 208.322 20.75 209.336 20.737ZM209.362 24H210.532C210.454 23.493 210.402 22.96 210.402 22.44V19.281C210.402 18.176 209.96 17.305 208.27 17.305C206.879 17.305 206.099 17.812 206.047 19.281H207.204C207.139 18.592 207.516 18.111 208.231 18.111C209.375 18.111 209.362 19.06 209.336 19.931C207.841 19.892 205.891 19.983 205.891 21.972C205.891 23.233 206.294 24.13 207.685 24.13C208.504 24.13 209.011 23.805 209.336 23.051H209.362V24ZM219.432 15.654H221.083C221.343 15.654 222.409 15.797 222.409 17.227C222.409 18.696 221.239 18.826 220.745 18.826H219.432V15.654ZM219.432 24V19.866H221.005C221.967 19.866 223.631 19.424 223.631 17.292C223.631 15.082 222.279 14.614 221.018 14.614H218.236V24H219.432ZM229.841 20.737C229.945 22.856 229.139 23.259 228.489 23.259C227.774 23.259 227.462 22.687 227.462 22.05C227.462 20.659 228.827 20.75 229.841 20.737ZM229.867 24H231.037C230.959 23.493 230.907 22.96 230.907 22.44V19.281C230.907 18.176 230.465 17.305 228.775 17.305C227.384 17.305 226.604 17.812 226.552 19.281H227.709C227.644 18.592 228.021 18.111 228.736 18.111C229.88 18.111 229.867 19.06 229.841 19.931C228.346 19.892 226.396 19.983 226.396 21.972C226.396 23.233 226.799 24.13 228.19 24.13C229.009 24.13 229.516 23.805 229.841 23.051H229.867V24ZM233.325 17.435V18.241H234.404V22.908C234.404 23.662 234.859 24.078 235.873 24.078C236.224 24.078 236.575 24 236.926 23.974V23.155C236.692 23.181 236.523 23.207 236.445 23.207C235.47 23.207 235.47 22.674 235.47 22.258V18.241H236.9V17.435H235.47V15.693L234.404 16.174V17.435H233.325ZM240.31 17.435H239.244V24H240.31V20.126C240.31 19.242 240.609 18.345 241.792 18.345C241.896 18.345 241.987 18.358 242.078 18.371C242.169 18.384 242.273 18.397 242.364 18.41V17.305C241.324 17.305 240.778 17.422 240.336 18.423H240.31V17.435ZM245.874 24V17.435H244.808V24H245.874ZM245.471 14.614L244.314 16.447H245.185L246.888 14.614H245.471ZM253.553 19.541C253.618 18.072 252.851 17.305 251.538 17.305C249.263 17.305 249.042 18.891 249.042 20.815C249.042 23.714 250.147 24.13 251.538 24.13C252.266 24.13 253.644 23.662 253.605 21.816H252.487C252.526 22.999 251.785 23.259 251.538 23.259C250.433 23.259 250.16 22.492 250.16 20.36C250.16 18.566 250.719 18.176 251.538 18.176C251.941 18.176 252.474 18.462 252.448 19.541H253.553ZM257.856 17.435H256.79V24H257.856V17.435ZM256.725 15.758H257.921V14.614H256.725V15.758ZM264.352 20.737C264.456 22.856 263.65 23.259 263 23.259C262.285 23.259 261.973 22.687 261.973 22.05C261.973 20.659 263.338 20.75 264.352 20.737ZM264.378 24H265.548C265.47 23.493 265.418 22.96 265.418 22.44V19.281C265.418 18.176 264.976 17.305 263.286 17.305C261.895 17.305 261.115 17.812 261.063 19.281H262.22C262.155 18.592 262.532 18.111 263.247 18.111C264.391 18.111 264.378 19.06 264.352 19.931C262.857 19.892 260.907 19.983 260.907 21.972C260.907 23.233 261.31 24.13 262.701 24.13C263.52 24.13 264.027 23.805 264.352 23.051H264.378V24ZM277.738 24V22.96H274.293V14.614H273.097V24H277.738ZM283.41 20.737C283.514 22.856 282.708 23.259 282.058 23.259C281.343 23.259 281.031 22.687 281.031 22.05C281.031 20.659 282.396 20.75 283.41 20.737ZM283.436 24H284.606C284.528 23.493 284.476 22.96 284.476 22.44V19.281C284.476 18.176 284.034 17.305 282.344 17.305C280.953 17.305 280.173 17.812 280.121 19.281H281.278C281.213 18.592 281.59 18.111 282.305 18.111C283.449 18.111 283.436 19.06 283.41 19.931C281.915 19.892 279.965 19.983 279.965 21.972C279.965 23.233 280.368 24.13 281.759 24.13C282.578 24.13 283.085 23.805 283.41 23.051H283.436V24ZM290.248 23.259C289.065 23.259 289.013 21.868 289.013 20.997C289.013 19.996 288.896 18.176 290.209 18.176C291.548 18.176 291.548 19.619 291.548 20.607C291.548 22.362 291.392 23.259 290.248 23.259ZM289.013 17.435H287.947V26.483H289.013V23.337H289.052C289.416 23.857 289.871 24.13 290.495 24.13C292.614 24.13 292.666 22.245 292.666 20.607C292.666 17.721 291.6 17.305 290.547 17.305C289.858 17.305 289.403 17.604 289.039 18.215H289.013V17.435ZM299.01 20.737C299.114 22.856 298.308 23.259 297.658 23.259C296.943 23.259 296.631 22.687 296.631 22.05C296.631 20.659 297.996 20.75 299.01 20.737ZM299.036 24H300.206C300.128 23.493 300.076 22.96 300.076 22.44V19.281C300.076 18.176 299.634 17.305 297.944 17.305C296.553 17.305 295.773 17.812 295.721 19.281H296.878C296.813 18.592 297.19 18.111 297.905 18.111C299.049 18.111 299.036 19.06 299.01 19.931C297.515 19.892 295.565 19.983 295.565 21.972C295.565 23.233 295.968 24.13 297.359 24.13C298.178 24.13 298.685 23.805 299.01 23.051H299.036V24Z" fill="white"/>
</svg>
