<svg width="375" height="39" viewBox="0 0 375 39" fill="none" xmlns="http://www.w3.org/2000/svg">
<rect width="314.246" height="39" fill="black" fill-opacity="0.69"/>
<path d="M23.2151 24V22.96H19.6401C21.9671 19.892 22.9811 19.216 22.9811 17.201C22.9811 15.576 22.2011 14.835 20.5761 14.835C19.0421 14.835 18.2881 15.81 18.3921 17.305H19.6141C19.6011 16.577 19.7701 15.836 20.6671 15.836C21.4341 15.836 21.7851 16.317 21.7851 17.032C21.7851 18.592 21.0051 19.268 18.3661 22.96V24H23.2151ZM26.9375 22.648H25.7155V24H26.9375V22.648ZM33.4292 14.614V15.654H35.8992V24H37.0952V15.654H39.5652V14.614H33.4292ZM43.1292 23.259C42.0242 23.259 41.7512 22.492 41.7512 20.36C41.7512 18.566 42.3102 18.176 43.1292 18.176C43.9482 18.176 44.5072 18.566 44.5072 20.36C44.5072 22.492 44.2342 23.259 43.1292 23.259ZM43.1292 24.13C44.5202 24.13 45.6252 23.714 45.6252 20.815C45.6252 18.891 45.4042 17.305 43.1292 17.305C40.8542 17.305 40.6332 18.891 40.6332 20.815C40.6332 23.714 41.7382 24.13 43.1292 24.13ZM52.654 21.205C52.628 22.102 52.628 24.221 55.397 24.195C56.944 24.195 58.309 23.558 58.309 21.582C58.309 18.605 54.097 18.904 54.097 16.837C54.097 15.823 54.825 15.459 55.54 15.459C56.671 15.459 56.996 16.135 56.983 17.162H58.231C58.309 15.251 57.347 14.419 55.631 14.419C54.058 14.419 52.875 15.303 52.875 16.967C52.875 19.788 57.087 19.554 57.087 21.634C57.087 22.752 56.359 23.155 55.41 23.155C54.643 23.155 53.837 22.752 53.837 21.478V21.205H52.654ZM60.3587 17.435V18.241H61.4377V22.908C61.4377 23.662 61.8927 24.078 62.9067 24.078C63.2577 24.078 63.6087 24 63.9597 23.974V23.155C63.7257 23.181 63.5567 23.207 63.4787 23.207C62.5037 23.207 62.5037 22.674 62.5037 22.258V18.241H63.9337V17.435H62.5037V15.693L61.4377 16.174V17.435H60.3587ZM68.5528 23.259C67.4478 23.259 67.1748 22.492 67.1748 20.36C67.1748 18.566 67.7338 18.176 68.5528 18.176C69.3718 18.176 69.9308 18.566 69.9308 20.36C69.9308 22.492 69.6578 23.259 68.5528 23.259ZM68.5528 24.13C69.9438 24.13 71.0488 23.714 71.0488 20.815C71.0488 18.891 70.8278 17.305 68.5528 17.305C66.2778 17.305 66.0568 18.891 66.0568 20.815C66.0568 23.714 67.1618 24.13 68.5528 24.13ZM76.4308 23.259C75.2478 23.259 75.1958 21.868 75.1958 20.997C75.1958 19.996 75.0788 18.176 76.3918 18.176C77.7308 18.176 77.7308 19.619 77.7308 20.607C77.7308 22.362 77.5748 23.259 76.4308 23.259ZM75.1958 17.435H74.1298V26.483H75.1958V23.337H75.2348C75.5988 23.857 76.0538 24.13 76.6778 24.13C78.7968 24.13 78.8488 22.245 78.8488 20.607C78.8488 17.721 77.7828 17.305 76.7298 17.305C76.0408 17.305 75.5858 17.604 75.2218 18.215H75.1958V17.435ZM89.3747 20.737C89.4787 22.856 88.6727 23.259 88.0227 23.259C87.3077 23.259 86.9957 22.687 86.9957 22.05C86.9957 20.659 88.3607 20.75 89.3747 20.737ZM89.4007 24H90.5707C90.4927 23.493 90.4407 22.96 90.4407 22.44V19.281C90.4407 18.176 89.9987 17.305 88.3087 17.305C86.9177 17.305 86.1377 17.812 86.0857 19.281H87.2427C87.1777 18.592 87.5547 18.111 88.2697 18.111C89.4137 18.111 89.4007 19.06 89.3747 19.931C87.8797 19.892 85.9297 19.983 85.9297 21.972C85.9297 23.233 86.3327 24.13 87.7237 24.13C88.5427 24.13 89.0497 23.805 89.3747 23.051H89.4007V24ZM99.4325 19.606H100.707C101.929 19.606 102.852 19.866 102.852 21.361C102.852 22.05 102.397 22.96 101.123 22.96H99.4325V19.606ZM99.4325 15.654H101.123C102.124 15.654 102.566 16.291 102.566 17.071C102.566 17.981 102.111 18.553 101.175 18.566H99.4325V15.654ZM101.253 24C102.319 24 104.074 23.766 104.074 21.361C104.074 20.074 103.489 19.268 102.15 19.112V19.047C103.359 18.774 103.762 17.994 103.762 16.824C103.762 16.642 103.71 16.083 103.385 15.576C103.034 15.056 102.592 14.614 101.292 14.614H98.2365V24H101.253ZM110.604 20.737C110.708 22.856 109.902 23.259 109.252 23.259C108.537 23.259 108.225 22.687 108.225 22.05C108.225 20.659 109.59 20.75 110.604 20.737ZM110.63 24H111.8C111.722 23.493 111.67 22.96 111.67 22.44V19.281C111.67 18.176 111.228 17.305 109.538 17.305C108.147 17.305 107.367 17.812 107.315 19.281H108.472C108.407 18.592 108.784 18.111 109.499 18.111C110.643 18.111 110.63 19.06 110.604 19.931C109.109 19.892 107.159 19.983 107.159 21.972C107.159 23.233 107.562 24.13 108.953 24.13C109.772 24.13 110.279 23.805 110.604 23.051H110.63V24ZM118.521 20.451C118.521 21.777 118.521 23.259 117.325 23.259C115.986 23.259 115.986 21.829 115.986 20.841C115.986 19.086 116.142 18.176 117.286 18.176C118.469 18.176 118.521 19.58 118.521 20.451ZM118.521 18.098H118.482C118.118 17.578 117.663 17.305 117.039 17.305C114.92 17.305 114.868 19.19 114.868 20.828C114.868 23.714 115.934 24.13 116.987 24.13C117.676 24.13 118.131 23.831 118.495 23.22H118.521V24H119.587V14.614H118.521V18.098ZM132.895 17.123C132.973 15.16 132.011 14.419 129.983 14.419C127.994 14.419 127.032 15.615 127.032 17.487V20.568C127.032 23.168 127.994 24.195 129.983 24.195C131.192 24.195 132.089 23.909 132.856 23.493V18.93H129.931V19.97H131.66V22.778C131.413 22.96 130.841 23.194 129.983 23.194C128.852 23.194 128.254 22.674 128.254 20.62V17.448C128.254 15.485 129.606 15.42 129.983 15.42C131.192 15.42 131.647 16.018 131.647 17.123H132.895ZM139.789 21.79C139.789 22.882 139.074 23.311 138.502 23.311C137.748 23.311 137.384 22.778 137.384 21.985V17.435H136.318V22.44C136.318 23.558 136.942 24.13 138.086 24.13C138.775 24.13 139.399 23.805 139.75 23.207H139.789V24H140.92C140.881 23.545 140.855 23.09 140.855 22.635V17.435H139.789V21.79ZM144.482 17.435H143.247L145.47 24L144.729 26.483H145.834L148.811 17.435H147.654L146.081 22.778H146.055L144.482 17.435ZM156.156 24H157.586L159.055 18.41H159.081L160.485 24H161.915L163.67 17.435H162.539L161.239 23.09H161.213L159.874 17.435H158.366L156.91 23.09H156.884L155.701 17.435H154.518L156.156 24ZM167.059 17.435H165.993V24H167.059V17.435ZM165.928 15.758H167.124V14.614H165.928V15.758ZM169.239 17.435V18.241H170.318V22.908C170.318 23.662 170.773 24.078 171.787 24.078C172.138 24.078 172.489 24 172.84 23.974V23.155C172.606 23.181 172.437 23.207 172.359 23.207C171.384 23.207 171.384 22.674 171.384 22.258V18.241H172.814V17.435H171.384V15.693L170.318 16.174V17.435H169.239ZM179.747 24V19.346C179.747 17.864 179.123 17.305 178.005 17.305C177.147 17.305 176.653 17.513 176.224 18.28H176.172V14.614H175.106V24H176.172V20.139C176.172 19.034 176.445 18.176 177.511 18.176C178.421 18.176 178.681 18.748 178.681 19.554V24H179.747ZM190.455 20.737C190.559 22.856 189.753 23.259 189.103 23.259C188.388 23.259 188.076 22.687 188.076 22.05C188.076 20.659 189.441 20.75 190.455 20.737ZM190.481 24H191.651C191.573 23.493 191.521 22.96 191.521 22.44V19.281C191.521 18.176 191.079 17.305 189.389 17.305C187.998 17.305 187.218 17.812 187.166 19.281H188.323C188.258 18.592 188.635 18.111 189.35 18.111C190.494 18.111 190.481 19.06 190.455 19.931C188.96 19.892 187.01 19.983 187.01 21.972C187.01 23.233 187.413 24.13 188.804 24.13C189.623 24.13 190.13 23.805 190.455 23.051H190.481V24ZM204.946 17.123C205.024 15.16 204.062 14.419 202.034 14.419C200.045 14.419 199.083 15.615 199.083 17.487V20.568C199.083 23.168 200.045 24.195 202.034 24.195C203.243 24.195 204.14 23.909 204.907 23.493V18.93H201.982V19.97H203.711V22.778C203.464 22.96 202.892 23.194 202.034 23.194C200.903 23.194 200.305 22.674 200.305 20.62V17.448C200.305 15.485 201.657 15.42 202.034 15.42C203.243 15.42 203.698 16.018 203.698 17.123H204.946ZM211.84 21.79C211.84 22.882 211.125 23.311 210.553 23.311C209.799 23.311 209.435 22.778 209.435 21.985V17.435H208.369V22.44C208.369 23.558 208.993 24.13 210.137 24.13C210.826 24.13 211.45 23.805 211.801 23.207H211.84V24H212.971C212.932 23.545 212.906 23.09 212.906 22.635V17.435H211.84V21.79ZM220.758 24V19.45C220.758 18.15 220.407 17.305 219.003 17.305C218.158 17.305 217.664 17.539 217.248 18.28H217.196V17.435H216.065C216.104 17.89 216.13 18.345 216.13 18.8V24H217.196V20.113C217.196 19.216 217.365 18.176 218.535 18.176C219.445 18.176 219.692 18.748 219.692 19.45V24H220.758ZM229.269 20.451C229.269 19.58 229.321 18.176 230.504 18.176C231.648 18.176 231.804 19.086 231.804 20.841C231.804 21.829 231.804 23.259 230.465 23.259C229.152 23.259 229.269 21.452 229.269 20.451ZM229.269 23.22H229.295C229.659 23.831 230.114 24.13 230.803 24.13C231.856 24.13 232.922 23.714 232.922 20.828C232.922 19.19 232.87 17.305 230.751 17.305C230.127 17.305 229.672 17.578 229.308 18.098H229.269V14.614H228.203V24H229.269V23.22ZM236.315 17.435H235.08L237.303 24L236.562 26.483H237.667L240.644 17.435H239.487L237.914 22.778H237.888L236.315 17.435ZM246.429 24H247.638L248.34 21.764H251.967L252.643 24H253.982L250.927 14.614H249.406L246.429 24ZM251.642 20.724H248.639L250.108 15.719H250.134L251.642 20.724ZM261.045 24V19.45C261.045 18.15 260.694 17.305 259.29 17.305C258.445 17.305 257.951 17.539 257.535 18.28H257.483V17.435H256.352C256.391 17.89 256.417 18.345 256.417 18.8V24H257.483V20.113C257.483 19.216 257.652 18.176 258.822 18.176C259.732 18.176 259.979 18.748 259.979 19.45V24H261.045ZM267.571 20.737C267.675 22.856 266.869 23.259 266.219 23.259C265.504 23.259 265.192 22.687 265.192 22.05C265.192 20.659 266.557 20.75 267.571 20.737ZM267.597 24H268.767C268.689 23.493 268.637 22.96 268.637 22.44V19.281C268.637 18.176 268.195 17.305 266.505 17.305C265.114 17.305 264.334 17.812 264.282 19.281H265.439C265.374 18.592 265.751 18.111 266.466 18.111C267.61 18.111 267.597 19.06 267.571 19.931C266.076 19.892 264.126 19.983 264.126 21.972C264.126 23.233 264.529 24.13 265.92 24.13C266.739 24.13 267.246 23.805 267.571 23.051H267.597V24ZM280.957 24V22.96H277.512V14.614H276.316V24H280.957ZM286.785 21.79C286.785 22.882 286.07 23.311 285.498 23.311C284.744 23.311 284.38 22.778 284.38 21.985V17.435H283.314V22.44C283.314 23.558 283.938 24.13 285.082 24.13C285.771 24.13 286.395 23.805 286.746 23.207H286.785V24H287.916C287.877 23.545 287.851 23.09 287.851 22.635V17.435H286.785V21.79ZM292.115 24V17.435H291.049V24H292.115ZM291.712 14.614L290.555 16.447H291.426L293.129 14.614H291.712ZM299.482 22.128C299.482 20.126 296.206 20.152 296.206 18.995C296.206 18.423 296.648 18.111 297.22 18.111C297.896 18.111 298.26 18.475 298.247 19.164H299.43C299.521 17.864 298.52 17.305 297.35 17.305C295.504 17.305 295.088 18.41 295.088 19.099C295.088 21.062 298.364 21.088 298.364 22.258C298.364 22.934 297.87 23.259 297.233 23.259C296.154 23.259 296.141 22.375 296.141 21.998H294.932C294.893 23.506 295.777 24.13 297.194 24.13C298.494 24.13 299.482 23.571 299.482 22.128ZM305.688 20.737C305.792 22.856 304.986 23.259 304.336 23.259C303.621 23.259 303.309 22.687 303.309 22.05C303.309 20.659 304.674 20.75 305.688 20.737ZM305.714 24H306.884C306.806 23.493 306.754 22.96 306.754 22.44V19.281C306.754 18.176 306.312 17.305 304.622 17.305C303.231 17.305 302.451 17.812 302.399 19.281H303.556C303.491 18.592 303.868 18.111 304.583 18.111C305.727 18.111 305.714 19.06 305.688 19.931C304.193 19.892 302.243 19.983 302.243 21.972C302.243 23.233 302.646 24.13 304.037 24.13C304.856 24.13 305.363 23.805 305.688 23.051H305.714V24ZM314.172 21.205C314.146 22.102 314.146 24.221 316.915 24.195C318.462 24.195 319.827 23.558 319.827 21.582C319.827 18.605 315.615 18.904 315.615 16.837C315.615 15.823 316.343 15.459 317.058 15.459C318.189 15.459 318.514 16.135 318.501 17.162H319.749C319.827 15.251 318.865 14.419 317.149 14.419C315.576 14.419 314.393 15.303 314.393 16.967C314.393 19.788 318.605 19.554 318.605 21.634C318.605 22.752 317.877 23.155 316.928 23.155C316.161 23.155 315.355 22.752 315.355 21.478V21.205H314.172ZM326.193 20.737C326.297 22.856 325.491 23.259 324.841 23.259C324.126 23.259 323.814 22.687 323.814 22.05C323.814 20.659 325.179 20.75 326.193 20.737ZM326.219 24H327.389C327.311 23.493 327.259 22.96 327.259 22.44V19.281C327.259 18.176 326.817 17.305 325.127 17.305C323.736 17.305 322.956 17.812 322.904 19.281H324.061C323.996 18.592 324.373 18.111 325.088 18.111C326.232 18.111 326.219 19.06 326.193 19.931C324.698 19.892 322.748 19.983 322.748 21.972C322.748 23.233 323.151 24.13 324.542 24.13C325.361 24.13 325.868 23.805 326.193 23.051H326.219V24ZM335.267 24V19.45C335.267 18.15 334.916 17.305 333.512 17.305C332.667 17.305 332.173 17.539 331.757 18.28H331.705V17.435H330.574C330.613 17.89 330.639 18.345 330.639 18.8V24H331.705V20.113C331.705 19.216 331.874 18.176 333.044 18.176C333.954 18.176 334.201 18.748 334.201 19.45V24H335.267ZM337.477 17.435V18.241H338.556V22.908C338.556 23.662 339.011 24.078 340.025 24.078C340.376 24.078 340.727 24 341.078 23.974V23.155C340.844 23.181 340.675 23.207 340.597 23.207C339.622 23.207 339.622 22.674 339.622 22.258V18.241H341.052V17.435H339.622V15.693L338.556 16.174V17.435H337.477ZM345.671 23.259C344.566 23.259 344.293 22.492 344.293 20.36C344.293 18.566 344.852 18.176 345.671 18.176C346.49 18.176 347.049 18.566 347.049 20.36C347.049 22.492 346.776 23.259 345.671 23.259ZM345.671 24.13C347.062 24.13 348.167 23.714 348.167 20.815C348.167 18.891 347.946 17.305 345.671 17.305C343.396 17.305 343.175 18.891 343.175 20.815C343.175 23.714 344.28 24.13 345.671 24.13ZM355.382 22.128C355.382 20.126 352.106 20.152 352.106 18.995C352.106 18.423 352.548 18.111 353.12 18.111C353.796 18.111 354.16 18.475 354.147 19.164H355.33C355.421 17.864 354.42 17.305 353.25 17.305C351.404 17.305 350.988 18.41 350.988 19.099C350.988 21.062 354.264 21.088 354.264 22.258C354.264 22.934 353.77 23.259 353.133 23.259C352.054 23.259 352.041 22.375 352.041 21.998H350.832C350.793 23.506 351.677 24.13 353.094 24.13C354.394 24.13 355.382 23.571 355.382 22.128Z" fill="white"/>
</svg>
