<svg width="300" height="39" viewBox="0 0 300 39" fill="none" xmlns="http://www.w3.org/2000/svg">
<rect width="300" height="39" fill="black" fill-opacity="0.69"/>
<path d="M19.197 19.801C20.588 19.801 21.134 20.113 21.134 21.569C21.134 22.531 20.809 23.194 19.756 23.194C18.677 23.194 18.534 22.414 18.521 21.517H17.325C17.325 22.024 17.13 24.195 19.652 24.195C21.381 24.195 22.33 23.35 22.33 21.595C22.33 20.243 21.875 19.489 20.458 19.294V19.268C20.978 19.138 22.239 18.878 22.239 17.175C22.239 15.602 21.329 14.835 19.795 14.835C18.118 14.835 17.377 15.771 17.468 17.305H18.664C18.651 16.577 18.807 15.836 19.795 15.836C20.679 15.836 21.043 16.434 21.043 17.253C21.043 18.41 20.276 18.839 19.197 18.748V19.801ZM26.1304 22.648H24.9084V24H26.1304V22.648ZM34.598 24V19.71H37.874V18.67H34.598V15.654H38.056V14.614H33.402V24H34.598ZM42.7664 23.259C41.6614 23.259 41.3884 22.492 41.3884 20.36C41.3884 18.566 41.9474 18.176 42.7664 18.176C43.5854 18.176 44.1444 18.566 44.1444 20.36C44.1444 22.492 43.8714 23.259 42.7664 23.259ZM42.7664 24.13C44.1574 24.13 45.2624 23.714 45.2624 20.815C45.2624 18.891 45.0414 17.305 42.7664 17.305C40.4914 17.305 40.2704 18.891 40.2704 20.815C40.2704 23.714 41.3754 24.13 42.7664 24.13ZM49.3574 17.435H48.2914V24H49.3574V20.126C49.3574 19.242 49.6564 18.345 50.8394 18.345C50.9434 18.345 51.0344 18.358 51.1254 18.371C51.2164 18.384 51.3204 18.397 51.4114 18.41V17.305C50.3714 17.305 49.8254 17.422 49.3834 18.423H49.3574V17.435ZM61.0923 24.195C63.0813 24.195 64.0433 23.168 64.0433 20.568V17.487C64.0433 15.615 63.0813 14.419 61.0923 14.419C59.1033 14.419 58.1413 15.615 58.1413 17.487V20.568C58.1413 23.168 59.1033 24.195 61.0923 24.195ZM61.0923 23.194C59.9613 23.194 59.3633 22.674 59.3633 20.62V17.448C59.3633 15.485 60.7153 15.42 61.0923 15.42C61.4693 15.42 62.8213 15.485 62.8213 17.448V20.62C62.8213 22.674 62.2233 23.194 61.0923 23.194ZM70.8206 21.79C70.8206 22.882 70.1056 23.311 69.5336 23.311C68.7796 23.311 68.4156 22.778 68.4156 21.985V17.435H67.3496V22.44C67.3496 23.558 67.9736 24.13 69.1176 24.13C69.8066 24.13 70.4306 23.805 70.7816 23.207H70.8206V24H71.9516C71.9126 23.545 71.8866 23.09 71.8866 22.635V17.435H70.8206V21.79ZM76.2156 17.435H75.1496V24H76.2156V20.126C76.2156 19.242 76.5146 18.345 77.6976 18.345C77.8016 18.345 77.8926 18.358 77.9836 18.371C78.0746 18.384 78.1786 18.397 78.2696 18.41V17.305C77.2296 17.305 76.6836 17.422 76.2416 18.423H76.2156V17.435ZM89.6796 24V22.96H86.2346V14.614H85.0385V24H89.6796ZM93.0379 17.435H91.9719V24H93.0379V17.435ZM91.9069 15.758H93.1029V14.614H91.9069V15.758ZM97.3758 24H98.7668L100.821 17.435H99.7028L98.1168 22.999H98.0908L96.6218 17.435H95.4258L97.3758 24ZM104.296 20.256C104.309 18.436 104.868 18.111 105.544 18.111C106.324 18.111 106.857 18.345 106.857 20.256H104.296ZM107.988 21.062V20.503C107.988 18.332 107.52 17.305 105.648 17.305C103.373 17.305 103.152 18.891 103.152 20.815C103.152 23.714 104.257 24.13 105.648 24.13C107.026 24.13 107.923 23.467 107.936 22.011H106.766C106.727 22.674 106.35 23.259 105.622 23.259C104.79 23.259 104.296 22.895 104.296 21.062H107.988ZM115.281 22.128C115.281 20.126 112.005 20.152 112.005 18.995C112.005 18.423 112.447 18.111 113.019 18.111C113.695 18.111 114.059 18.475 114.046 19.164H115.229C115.32 17.864 114.319 17.305 113.149 17.305C111.303 17.305 110.887 18.41 110.887 19.099C110.887 21.062 114.163 21.088 114.163 22.258C114.163 22.934 113.669 23.259 113.032 23.259C111.953 23.259 111.94 22.375 111.94 21.998H110.731C110.692 23.506 111.576 24.13 112.993 24.13C114.293 24.13 115.281 23.571 115.281 22.128ZM123.471 20.451C123.471 19.58 123.523 18.176 124.706 18.176C125.85 18.176 126.006 19.086 126.006 20.841C126.006 21.829 126.006 23.259 124.667 23.259C123.354 23.259 123.471 21.452 123.471 20.451ZM123.471 23.22H123.497C123.861 23.831 124.316 24.13 125.005 24.13C126.058 24.13 127.124 23.714 127.124 20.828C127.124 19.19 127.072 17.305 124.953 17.305C124.329 17.305 123.874 17.578 123.51 18.098H123.471V14.614H122.405V24H123.471V23.22ZM130.517 17.435H129.282L131.505 24L130.764 26.483H131.869L134.846 17.435H133.689L132.116 22.778H132.09L130.517 17.435ZM142.621 15.654H142.647L145.221 24H146.352L148.978 15.654H149.004V24H150.2V14.614H148.224L145.832 22.492H145.806L143.44 14.614H141.503V24H142.621V15.654ZM156.856 20.737C156.96 22.856 156.154 23.259 155.504 23.259C154.789 23.259 154.477 22.687 154.477 22.05C154.477 20.659 155.842 20.75 156.856 20.737ZM156.882 24H158.052C157.974 23.493 157.922 22.96 157.922 22.44V19.281C157.922 18.176 157.48 17.305 155.79 17.305C154.399 17.305 153.619 17.812 153.567 19.281H154.724C154.659 18.592 155.036 18.111 155.751 18.111C156.895 18.111 156.882 19.06 156.856 19.931C155.361 19.892 153.411 19.983 153.411 21.972C153.411 23.233 153.814 24.13 155.205 24.13C156.024 24.13 156.531 23.805 156.856 23.051H156.882V24ZM162.407 17.435H161.341V24H162.407V20.126C162.407 19.242 162.706 18.345 163.889 18.345C163.993 18.345 164.084 18.358 164.175 18.371C164.266 18.384 164.37 18.397 164.461 18.41V17.305C163.421 17.305 162.875 17.422 162.433 18.423H162.407V17.435ZM167.971 17.435H166.905V24H167.971V17.435ZM166.84 15.758H168.036V14.614H166.84V15.758ZM174.467 20.737C174.571 22.856 173.765 23.259 173.115 23.259C172.4 23.259 172.088 22.687 172.088 22.05C172.088 20.659 173.453 20.75 174.467 20.737ZM174.493 24H175.663C175.585 23.493 175.533 22.96 175.533 22.44V19.281C175.533 18.176 175.091 17.305 173.401 17.305C172.01 17.305 171.23 17.812 171.178 19.281H172.335C172.27 18.592 172.647 18.111 173.362 18.111C174.506 18.111 174.493 19.06 174.467 19.931C172.972 19.892 171.022 19.983 171.022 21.972C171.022 23.233 171.425 24.13 172.816 24.13C173.635 24.13 174.142 23.805 174.467 23.051H174.493V24ZM183.541 24V19.45C183.541 18.15 183.19 17.305 181.786 17.305C180.941 17.305 180.447 17.539 180.031 18.28H179.979V17.435H178.848C178.887 17.89 178.913 18.345 178.913 18.8V24H179.979V20.113C179.979 19.216 180.148 18.176 181.318 18.176C182.228 18.176 182.475 18.748 182.475 19.45V24H183.541ZM190.067 20.737C190.171 22.856 189.365 23.259 188.715 23.259C188 23.259 187.688 22.687 187.688 22.05C187.688 20.659 189.053 20.75 190.067 20.737ZM190.093 24H191.263C191.185 23.493 191.133 22.96 191.133 22.44V19.281C191.133 18.176 190.691 17.305 189.001 17.305C187.61 17.305 186.83 17.812 186.778 19.281H187.935C187.87 18.592 188.247 18.111 188.962 18.111C190.106 18.111 190.093 19.06 190.067 19.931C188.572 19.892 186.622 19.983 186.622 21.972C186.622 23.233 187.025 24.13 188.416 24.13C189.235 24.13 189.742 23.805 190.067 23.051H190.093V24ZM197.953 24H199.162L199.864 21.764H203.491L204.167 24H205.506L202.451 14.614H200.93L197.953 24ZM203.166 20.724H200.163L201.632 15.719H201.658L203.166 20.724ZM208.982 14.614H207.916V24H208.982V14.614ZM216.414 24V19.58C216.414 19.333 216.466 18.683 216.778 18.423C217.064 18.189 217.181 18.176 217.584 18.176C218.442 18.176 218.624 18.787 218.624 19.45V24H219.69V19.008C219.69 17.461 218.585 17.305 217.896 17.305C217.298 17.305 216.7 17.448 216.336 18.15C216.089 17.552 215.4 17.305 214.802 17.305C214.035 17.305 213.476 17.552 213.164 18.254H213.138V17.435H212.007C212.045 17.89 212.072 18.345 212.072 18.8V24H213.138V19.58C213.138 19.333 213.19 18.943 213.385 18.618C213.541 18.371 213.983 18.176 214.308 18.176C215.166 18.176 215.348 18.787 215.348 19.45V24H216.414ZM223.845 20.256C223.858 18.436 224.417 18.111 225.093 18.111C225.873 18.111 226.406 18.345 226.406 20.256H223.845ZM227.537 21.062V20.503C227.537 18.332 227.069 17.305 225.197 17.305C222.922 17.305 222.701 18.891 222.701 20.815C222.701 23.714 223.806 24.13 225.197 24.13C226.575 24.13 227.472 23.467 227.485 22.011H226.315C226.276 22.674 225.899 23.259 225.171 23.259C224.339 23.259 223.845 22.895 223.845 21.062H227.537ZM231.645 17.435H230.579V24H231.645V17.435ZM230.514 15.758H231.71V14.614H230.514V15.758ZM238.258 20.451C238.258 21.777 238.258 23.259 237.062 23.259C235.723 23.259 235.723 21.829 235.723 20.841C235.723 19.086 235.879 18.176 237.023 18.176C238.206 18.176 238.258 19.58 238.258 20.451ZM238.258 18.098H238.219C237.855 17.578 237.4 17.305 236.776 17.305C234.657 17.305 234.605 19.19 234.605 20.828C234.605 23.714 235.671 24.13 236.724 24.13C237.413 24.13 237.868 23.831 238.232 23.22H238.258V24H239.324V14.614H238.258V18.098ZM245.941 20.737C246.045 22.856 245.239 23.259 244.589 23.259C243.874 23.259 243.562 22.687 243.562 22.05C243.562 20.659 244.927 20.75 245.941 20.737ZM245.967 24H247.137C247.059 23.493 247.007 22.96 247.007 22.44V19.281C247.007 18.176 246.565 17.305 244.875 17.305C243.484 17.305 242.704 17.812 242.652 19.281H243.809C243.744 18.592 244.121 18.111 244.836 18.111C245.98 18.111 245.967 19.06 245.941 19.931C244.446 19.892 242.496 19.983 242.496 21.972C242.496 23.233 242.899 24.13 244.29 24.13C245.109 24.13 245.616 23.805 245.941 23.051H245.967V24Z" fill="white"/>
</svg>
