<svg width="300" height="39" viewBox="0 0 300 39" fill="none" xmlns="http://www.w3.org/2000/svg">
<rect width="300" height="39" fill="black" fill-opacity="0.69"/>
<path d="M18.365 20.763L20.315 16.07H20.341V20.763H18.365ZM20.341 21.803V24H21.459V21.803H22.525V20.763H21.459V14.978H19.873L17.325 20.763V21.803H20.341ZM26.1304 22.648H24.9084V24H26.1304V22.648ZM39.239 17.123C39.317 15.16 38.355 14.419 36.327 14.419C34.338 14.419 33.376 15.615 33.376 17.487V20.568C33.376 23.168 34.338 24.195 36.327 24.195C37.536 24.195 38.433 23.909 39.2 23.493V18.93H36.275V19.97H38.004V22.778C37.757 22.96 37.185 23.194 36.327 23.194C35.196 23.194 34.598 22.674 34.598 20.62V17.448C34.598 15.485 35.95 15.42 36.327 15.42C37.536 15.42 37.991 16.018 37.991 17.123H39.239ZM44.9373 23.259C43.8323 23.259 43.5593 22.492 43.5593 20.36C43.5593 18.566 44.1183 18.176 44.9373 18.176C45.7563 18.176 46.3153 18.566 46.3153 20.36C46.3153 22.492 46.0423 23.259 44.9373 23.259ZM44.9373 24.13C46.3283 24.13 47.4333 23.714 47.4333 20.815C47.4333 18.891 47.2123 17.305 44.9373 17.305C42.6623 17.305 42.4413 18.891 42.4413 20.815C42.4413 23.714 43.5463 24.13 44.9373 24.13ZM53.8943 20.451C53.8943 21.777 53.8943 23.259 52.6983 23.259C51.3593 23.259 51.3593 21.829 51.3593 20.841C51.3593 19.086 51.5153 18.176 52.6593 18.176C53.8423 18.176 53.8943 19.58 53.8943 20.451ZM53.8943 18.098H53.8553C53.4913 17.578 53.0363 17.305 52.4123 17.305C50.2933 17.305 50.2413 19.19 50.2413 20.828C50.2413 23.714 51.3073 24.13 52.3603 24.13C53.0493 24.13 53.5043 23.831 53.8683 23.22H53.8943V24H54.9603V14.614H53.8943V18.098ZM63.8351 19.606H65.1091C66.3311 19.606 67.2541 19.866 67.2541 21.361C67.2541 22.05 66.7991 22.96 65.5251 22.96H63.8351V19.606ZM63.8351 15.654H65.5251C66.5261 15.654 66.9681 16.291 66.9681 17.071C66.9681 17.981 66.5131 18.553 65.5771 18.566H63.8351V15.654ZM65.6551 24C66.7211 24 68.4761 23.766 68.4761 21.361C68.4761 20.074 67.8911 19.268 66.5521 19.112V19.047C67.7611 18.774 68.1641 17.994 68.1641 16.824C68.1641 16.642 68.1121 16.083 67.7871 15.576C67.4361 15.056 66.9941 14.614 65.6941 14.614H62.6391V24H65.6551ZM72.6924 14.614H71.6264V24H72.6924V14.614ZM76.8742 20.256C76.8872 18.436 77.4462 18.111 78.1222 18.111C78.9022 18.111 79.4352 18.345 79.4352 20.256H76.8742ZM80.5662 21.062V20.503C80.5662 18.332 80.0982 17.305 78.2262 17.305C75.9512 17.305 75.7302 18.891 75.7302 20.815C75.7302 23.714 76.8352 24.13 78.2262 24.13C79.6042 24.13 80.5012 23.467 80.5142 22.011H79.3442C79.3052 22.674 78.9282 23.259 78.2002 23.259C77.3682 23.259 76.8742 22.895 76.8742 21.062H80.5662ZM87.8592 22.128C87.8592 20.126 84.5832 20.152 84.5832 18.995C84.5832 18.423 85.0252 18.111 85.5972 18.111C86.2732 18.111 86.6372 18.475 86.6242 19.164H87.8072C87.8982 17.864 86.8972 17.305 85.7272 17.305C83.8812 17.305 83.4652 18.41 83.4652 19.099C83.4652 21.062 86.7412 21.088 86.7412 22.258C86.7412 22.934 86.2472 23.259 85.6102 23.259C84.5312 23.259 84.5182 22.375 84.5182 21.998H83.3092C83.2702 23.506 84.1542 24.13 85.5712 24.13C86.8712 24.13 87.8592 23.571 87.8592 22.128ZM94.9356 22.128C94.9356 20.126 91.6596 20.152 91.6596 18.995C91.6596 18.423 92.1016 18.111 92.6736 18.111C93.3496 18.111 93.7136 18.475 93.7006 19.164H94.8836C94.9746 17.864 93.9736 17.305 92.8036 17.305C90.9576 17.305 90.5416 18.41 90.5416 19.099C90.5416 21.062 93.8176 21.088 93.8176 22.258C93.8176 22.934 93.3236 23.259 92.6866 23.259C91.6076 23.259 91.5946 22.375 91.5946 21.998H90.3856C90.3466 23.506 91.2306 24.13 92.6476 24.13C93.9476 24.13 94.9356 23.571 94.9356 22.128ZM101.228 24H102.437L103.139 21.764H106.766L107.442 24H108.781L105.726 14.614H104.205L101.228 24ZM106.441 20.724H103.438L104.907 15.719H104.933L106.441 20.724ZM115.506 24V19.58C115.506 19.333 115.558 18.683 115.87 18.423C116.156 18.189 116.273 18.176 116.676 18.176C117.534 18.176 117.716 18.787 117.716 19.45V24H118.782V19.008C118.782 17.461 117.677 17.305 116.988 17.305C116.39 17.305 115.792 17.448 115.428 18.15C115.181 17.552 114.492 17.305 113.894 17.305C113.127 17.305 112.568 17.552 112.256 18.254H112.23V17.435H111.099C111.138 17.89 111.164 18.345 111.164 18.8V24H112.23V19.58C112.23 19.333 112.282 18.943 112.477 18.618C112.633 18.371 113.075 18.176 113.4 18.176C114.258 18.176 114.44 18.787 114.44 19.45V24H115.506ZM122.938 20.256C122.951 18.436 123.51 18.111 124.186 18.111C124.966 18.111 125.499 18.345 125.499 20.256H122.938ZM126.63 21.062V20.503C126.63 18.332 126.162 17.305 124.29 17.305C122.015 17.305 121.794 18.891 121.794 20.815C121.794 23.714 122.899 24.13 124.29 24.13C125.668 24.13 126.565 23.467 126.578 22.011H125.408C125.369 22.674 124.992 23.259 124.264 23.259C123.432 23.259 122.938 22.895 122.938 21.062H126.63ZM130.803 17.435H129.737V24H130.803V20.126C130.803 19.242 131.102 18.345 132.285 18.345C132.389 18.345 132.48 18.358 132.571 18.371C132.662 18.384 132.766 18.397 132.857 18.41V17.305C131.817 17.305 131.271 17.422 130.829 18.423H130.803V17.435ZM136.367 17.435H135.301V24H136.367V17.435ZM135.236 15.758H136.432V14.614H135.236V15.758ZM144.046 19.541C144.111 18.072 143.344 17.305 142.031 17.305C139.756 17.305 139.535 18.891 139.535 20.815C139.535 23.714 140.64 24.13 142.031 24.13C142.759 24.13 144.137 23.662 144.098 21.816H142.98C143.019 22.999 142.278 23.259 142.031 23.259C140.926 23.259 140.653 22.492 140.653 20.36C140.653 18.566 141.212 18.176 142.031 18.176C142.434 18.176 142.967 18.462 142.941 19.541H144.046ZM150.663 20.737C150.767 22.856 149.961 23.259 149.311 23.259C148.596 23.259 148.284 22.687 148.284 22.05C148.284 20.659 149.649 20.75 150.663 20.737ZM150.689 24H151.859C151.781 23.493 151.729 22.96 151.729 22.44V19.281C151.729 18.176 151.287 17.305 149.597 17.305C148.206 17.305 147.426 17.812 147.374 19.281H148.531C148.466 18.592 148.843 18.111 149.558 18.111C150.702 18.111 150.689 19.06 150.663 19.931C149.168 19.892 147.218 19.983 147.218 21.972C147.218 23.233 147.621 24.13 149.012 24.13C149.831 24.13 150.338 23.805 150.663 23.051H150.689V24ZM160.448 20.451C160.448 19.58 160.5 18.176 161.683 18.176C162.827 18.176 162.983 19.086 162.983 20.841C162.983 21.829 162.983 23.259 161.644 23.259C160.331 23.259 160.448 21.452 160.448 20.451ZM160.448 23.22H160.474C160.838 23.831 161.293 24.13 161.982 24.13C163.035 24.13 164.101 23.714 164.101 20.828C164.101 19.19 164.049 17.305 161.93 17.305C161.306 17.305 160.851 17.578 160.487 18.098H160.448V14.614H159.382V24H160.448V23.22ZM167.494 17.435H166.259L168.482 24L167.741 26.483H168.846L171.823 17.435H170.666L169.093 22.778H169.067L167.494 17.435ZM179.597 15.654H179.623L182.197 24H183.328L185.954 15.654H185.98V24H187.176V14.614H185.2L182.808 22.492H182.782L180.416 14.614H178.479V24H179.597V15.654ZM191.518 20.256C191.531 18.436 192.09 18.111 192.766 18.111C193.546 18.111 194.079 18.345 194.079 20.256H191.518ZM195.21 21.062V20.503C195.21 18.332 194.742 17.305 192.87 17.305C190.595 17.305 190.374 18.891 190.374 20.815C190.374 23.714 191.479 24.13 192.87 24.13C194.248 24.13 195.145 23.467 195.158 22.011H193.988C193.949 22.674 193.572 23.259 192.844 23.259C192.012 23.259 191.518 22.895 191.518 21.062H195.21ZM199.383 17.435H198.317V24H199.383V20.126C199.383 19.242 199.682 18.345 200.865 18.345C200.969 18.345 201.06 18.358 201.151 18.371C201.242 18.384 201.346 18.397 201.437 18.41V17.305C200.397 17.305 199.851 17.422 199.409 18.423H199.383V17.435ZM208.444 19.541C208.509 18.072 207.742 17.305 206.429 17.305C204.154 17.305 203.933 18.891 203.933 20.815C203.933 23.714 205.038 24.13 206.429 24.13C207.157 24.13 208.535 23.662 208.496 21.816H207.378C207.417 22.999 206.676 23.259 206.429 23.259C205.324 23.259 205.051 22.492 205.051 20.36C205.051 18.566 205.61 18.176 206.429 18.176C206.832 18.176 207.365 18.462 207.339 19.541H208.444ZM212.747 20.256C212.76 18.436 213.319 18.111 213.995 18.111C214.775 18.111 215.308 18.345 215.308 20.256H212.747ZM216.439 21.062V20.503C216.439 18.332 215.971 17.305 214.099 17.305C211.824 17.305 211.603 18.891 211.603 20.815C211.603 23.714 212.708 24.13 214.099 24.13C215.477 24.13 216.374 23.467 216.387 22.011H215.217C215.178 22.674 214.801 23.259 214.073 23.259C213.241 23.259 212.747 22.895 212.747 21.062H216.439ZM222.978 20.451C222.978 21.777 222.978 23.259 221.782 23.259C220.443 23.259 220.443 21.829 220.443 20.841C220.443 19.086 220.599 18.176 221.743 18.176C222.926 18.176 222.978 19.58 222.978 20.451ZM222.978 18.098H222.939C222.575 17.578 222.12 17.305 221.496 17.305C219.377 17.305 219.325 19.19 219.325 20.828C219.325 23.714 220.391 24.13 221.444 24.13C222.133 24.13 222.588 23.831 222.952 23.22H222.978V24H224.044V14.614H222.978V18.098ZM228.347 20.256C228.36 18.436 228.919 18.111 229.595 18.111C230.375 18.111 230.908 18.345 230.908 20.256H228.347ZM232.039 21.062V20.503C232.039 18.332 231.571 17.305 229.699 17.305C227.424 17.305 227.203 18.891 227.203 20.815C227.203 23.714 228.308 24.13 229.699 24.13C231.077 24.13 231.974 23.467 231.987 22.011H230.817C230.778 22.674 230.401 23.259 229.673 23.259C228.841 23.259 228.347 22.895 228.347 21.062H232.039ZM239.332 22.128C239.332 20.126 236.056 20.152 236.056 18.995C236.056 18.423 236.498 18.111 237.07 18.111C237.746 18.111 238.11 18.475 238.097 19.164H239.28C239.371 17.864 238.37 17.305 237.2 17.305C235.354 17.305 234.938 18.41 234.938 19.099C234.938 21.062 238.214 21.088 238.214 22.258C238.214 22.934 237.72 23.259 237.083 23.259C236.004 23.259 235.991 22.375 235.991 21.998H234.782C234.743 23.506 235.627 24.13 237.044 24.13C238.344 24.13 239.332 23.571 239.332 22.128ZM245.624 24H246.833L247.535 21.764H251.162L251.838 24H253.177L250.122 14.614H248.601L245.624 24ZM250.837 20.724H247.834L249.303 15.719H249.329L250.837 20.724ZM256.653 14.614H255.587V24H256.653V14.614ZM260.99 24H262.381L264.435 17.435H263.317L261.731 22.999H261.705L260.236 17.435H259.04L260.99 24ZM267.911 20.256C267.924 18.436 268.483 18.111 269.159 18.111C269.939 18.111 270.472 18.345 270.472 20.256H267.911ZM271.603 21.062V20.503C271.603 18.332 271.135 17.305 269.263 17.305C266.988 17.305 266.767 18.891 266.767 20.815C266.767 23.714 267.872 24.13 269.263 24.13C270.641 24.13 271.538 23.467 271.551 22.011H270.381C270.342 22.674 269.965 23.259 269.237 23.259C268.405 23.259 267.911 22.895 267.911 21.062H271.603ZM278.896 22.128C278.896 20.126 275.62 20.152 275.62 18.995C275.62 18.423 276.062 18.111 276.634 18.111C277.31 18.111 277.674 18.475 277.661 19.164H278.844C278.935 17.864 277.934 17.305 276.764 17.305C274.918 17.305 274.502 18.41 274.502 19.099C274.502 21.062 277.778 21.088 277.778 22.258C277.778 22.934 277.284 23.259 276.647 23.259C275.568 23.259 275.555 22.375 275.555 21.998H274.346C274.307 23.506 275.191 24.13 276.608 24.13C277.908 24.13 278.896 23.571 278.896 22.128Z" fill="white"/>
</svg>
