<svg width="319" height="17" viewBox="0 0 319 17" fill="none" xmlns="http://www.w3.org/2000/svg">
<path d="M0.65122 8.95C0.65122 13.324 4.19722 16.87 8.57122 16.87C12.9452 16.87 16.4912 13.324 16.4912 8.95C16.4912 4.576 12.9452 1.03 8.57122 1.03C4.19722 1.03 0.65122 4.576 0.65122 8.95ZM1.31722 8.95C1.31722 4.954 4.57522 1.696 8.57122 1.696C12.5672 1.696 15.8252 4.954 15.8252 8.95C15.8252 12.946 12.5672 16.204 8.57122 16.204C4.57522 16.204 1.31722 12.946 1.31722 8.95ZM8.66122 5.062C10.1912 5.062 10.3532 5.98 10.3532 6.16C10.3532 6.448 10.1912 6.502 10.1912 6.898C10.1912 7.294 10.4432 7.564 10.8752 7.564C11.3252 7.564 11.5592 7.204 11.5592 6.736C11.5592 5.746 10.4972 4.63 8.69722 4.63C6.55522 4.63 4.77322 6.34 4.77322 8.95C4.77322 11.38 6.21322 13.27 8.55322 13.27C11.2532 13.27 11.7932 10.66 11.7932 10.66C11.7932 10.66 10.9832 12.46 9.00322 12.46C7.20322 12.46 5.67322 11.344 5.67322 8.662C5.67322 6.196 7.40122 5.062 8.66122 5.062ZM34.5686 1.03L33.6686 1.84C33.6686 1.84 32.5886 1.03 30.6986 1.03C28.2686 1.03 27.0986 2.344 27.0986 3.82C27.0986 5.512 28.3766 6.25 30.8066 7.114C33.3086 7.996 34.2086 8.68 34.2086 10.3C34.2086 11.74 33.0386 12.73 31.3286 12.73C29.3486 12.73 28.3586 11.65 28.3586 11.65L27.1886 8.86V13.27L28.0526 12.28C28.0526 12.28 29.1686 13.27 31.3286 13.27C33.7586 13.27 35.1086 11.884 35.1086 10.12C35.1086 7.78 33.2186 6.97 30.9866 6.214C28.7906 5.476 27.9986 4.846 27.9986 3.694C27.9986 2.614 28.9886 1.57 30.6986 1.57C32.4086 1.57 33.3986 2.47 33.3986 2.47L34.5686 4.9V1.03ZM39.7963 15.97L38.3563 16.78H42.1363L40.6963 15.97V11.848C40.7503 11.974 41.4163 13.27 43.2163 13.27C44.8363 13.27 46.7263 12.01 46.7263 8.95C46.7263 5.62 45.0163 4.63 43.3963 4.63C41.5063 4.63 40.6963 6.34 40.6963 6.34V4.63L38.3563 5.35L39.7963 5.8V15.97ZM40.6963 7.24C40.6963 7.24 41.3263 5.17 43.1263 5.17C44.4943 5.17 45.7363 6.25 45.7363 8.95C45.7363 11.47 44.4943 12.73 43.1263 12.73C41.5963 12.73 40.6963 11.56 40.6963 10.21V7.24ZM53.4833 5.116C54.9773 5.116 56.5973 6.43 56.5973 9.418C56.5973 11.542 55.3193 12.784 53.9873 12.784C52.5113 12.784 50.8733 11.47 50.8733 8.482C50.8733 6.322 52.1693 5.116 53.4833 5.116ZM49.8833 8.95C49.8833 11.38 51.2333 13.27 53.7353 13.27C56.0573 13.27 57.5873 11.38 57.5873 8.95C57.5873 6.52 56.2373 4.63 53.7353 4.63C51.4133 4.63 49.8833 6.52 49.8833 8.95ZM60.2882 5.44H61.9982V11.38C61.9982 12.73 62.5382 13.27 63.4382 13.27C64.4282 13.27 64.9322 12.064 64.9682 11.938C64.9502 11.974 64.5182 12.64 63.7982 12.64C63.1682 12.64 62.8982 12.1 62.8982 11.38V5.44H64.9682V4.9H62.8982V3.01L60.2882 5.44ZM74.3296 5.44H76.0396V11.38C76.0396 12.73 76.5796 13.27 77.4796 13.27C78.4696 13.27 78.9736 12.064 79.0096 11.938C78.9916 11.974 78.5596 12.64 77.8396 12.64C77.2096 12.64 76.9396 12.1 76.9396 11.38V5.44H79.0096V4.9H76.9396V3.01L74.3296 5.44ZM83.6052 1.3V12.19L82.1652 13H85.9452L84.5052 12.19V6.844C85.0452 6.178 86.1252 5.314 87.2052 5.314C88.3752 5.314 88.9152 6.16 88.9152 7.6V12.19L87.4752 13H91.2552L89.8152 12.19V7.33C89.8152 5.35 88.8252 4.63 87.5652 4.63C86.3052 4.63 85.1352 5.62 84.5052 6.304V0.129999L82.1652 0.85L83.6052 1.3ZM100.972 8.14C100.972 6.16 100.162 4.63 97.8757 4.63C95.7337 4.63 93.9517 6.322 93.9517 8.95C93.9517 11.38 95.3917 13.27 97.7317 13.27C100.432 13.27 100.972 10.66 100.972 10.66C100.972 10.66 100.162 12.46 98.1817 12.46C96.3817 12.46 94.8517 11.344 94.8517 8.662C94.8517 8.482 94.8517 8.32 94.8697 8.14H100.972ZM97.8397 5.062C99.0997 5.062 99.9817 5.89 99.9817 6.79C99.9817 7.51 99.3517 7.6 98.4517 7.6H94.9597C95.3557 5.872 96.7057 5.062 97.8397 5.062ZM113.383 2.29L114.013 1.93H118.693L119.953 4.54V1.3H110.683L112.483 2.29V12.01L110.683 13H120.223V9.76L118.963 12.37H114.013L113.383 12.01V7.24H116.353L117.433 8.95V4.9L116.353 6.61H113.383V2.29ZM125.258 1.3V12.19L123.818 13H127.598L126.158 12.19V0.129999L123.818 0.85L125.258 1.3ZM137.58 8.14C137.58 6.16 136.77 4.63 134.484 4.63C132.342 4.63 130.56 6.322 130.56 8.95C130.56 11.38 132 13.27 134.34 13.27C137.04 13.27 137.58 10.66 137.58 10.66C137.58 10.66 136.77 12.46 134.79 12.46C132.99 12.46 131.46 11.344 131.46 8.662C131.46 8.482 131.46 8.32 131.478 8.14H137.58ZM134.448 5.062C135.708 5.062 136.59 5.89 136.59 6.79C136.59 7.51 135.96 7.6 135.06 7.6H131.568C131.964 5.872 133.314 5.062 134.448 5.062ZM141.985 15.97L140.545 16.78H144.325L142.885 15.97V11.848C142.939 11.974 143.605 13.27 145.405 13.27C147.025 13.27 148.915 12.01 148.915 8.95C148.915 5.62 147.205 4.63 145.585 4.63C143.695 4.63 142.885 6.34 142.885 6.34V4.63L140.545 5.35L141.985 5.8V15.97ZM142.885 7.24C142.885 7.24 143.515 5.17 145.315 5.17C146.683 5.17 147.925 6.25 147.925 8.95C147.925 11.47 146.683 12.73 145.315 12.73C143.785 12.73 142.885 11.56 142.885 10.21V7.24ZM153.422 1.3V12.19L151.982 13H155.762L154.322 12.19V6.844C154.862 6.178 155.942 5.314 157.022 5.314C158.192 5.314 158.732 6.16 158.732 7.6V12.19L157.292 13H161.072L159.632 12.19V7.33C159.632 5.35 158.642 4.63 157.382 4.63C156.122 4.63 154.952 5.62 154.322 6.304V0.129999L151.982 0.85L153.422 1.3ZM166.18 8.662C164.956 9.094 163.858 9.94 163.858 11.2C163.858 12.478 164.668 13.27 165.91 13.27C166.63 13.27 167.242 12.91 167.656 12.64L168.988 11.758C168.988 12.712 168.988 13.27 169.618 13.27C170.248 13.27 171.508 11.74 171.508 11.74L169.888 12.37V7.24C169.888 5.71 169.24 4.63 167.278 4.63C166.198 4.63 164.164 5.62 164.164 6.736C164.164 7.258 164.47 7.492 164.812 7.492C165.154 7.492 165.46 7.294 165.46 6.736C165.46 6.484 165.424 6.304 165.424 6.16C165.424 5.71 166 5.17 167.098 5.17C168.088 5.17 168.988 5.638 168.988 7.24V7.69L166.18 8.662ZM167.872 11.92C167.35 12.262 166.9 12.604 166.198 12.604C165.298 12.604 164.812 11.884 164.812 11.11C164.812 10.12 165.262 9.508 166.828 8.95L168.988 8.194V11.182L167.872 11.92ZM175.464 5.8V12.19L174.024 13H177.804L176.364 12.19V6.844C176.904 6.178 177.984 5.314 179.064 5.314C180.234 5.314 180.774 6.16 180.774 7.6V12.19L179.334 13H183.114L181.674 12.19V7.33C181.674 5.35 180.684 4.63 179.424 4.63C178.164 4.63 176.994 5.62 176.364 6.304V4.63L174.024 5.35L175.464 5.8ZM185.448 5.44H187.158V11.38C187.158 12.73 187.698 13.27 188.598 13.27C189.588 13.27 190.092 12.064 190.128 11.938C190.11 11.974 189.678 12.64 188.958 12.64C188.328 12.64 188.058 12.1 188.058 11.38V5.44H190.128V4.9H188.058V3.01L185.448 5.44ZM193.824 12.19C193.824 12.694 194.22 13.09 194.724 13.09H194.814L193.914 15.16C195.534 13.18 195.624 12.82 195.624 12.19C195.624 11.686 195.228 11.29 194.724 11.29C194.22 11.29 193.824 11.686 193.824 12.19ZM208.304 7.24H210.734L211.814 8.95V4.9L210.734 6.61H208.304V2.29L208.934 1.93H213.254L214.514 4.54V1.3H205.604L207.404 2.29V12.01L205.604 13H210.284L208.304 12.01V7.24ZM217.934 13H223.244C225.854 13 227.564 11.83 227.564 9.76C227.564 7.06 224.864 6.88 224.864 6.88V6.79C224.864 6.79 227.114 6.304 227.114 4.144C227.114 2.344 225.674 1.3 223.244 1.3H217.934L219.734 2.29V12.01L217.934 13ZM223.154 7.24C224.774 7.24 226.574 7.78 226.574 9.76C226.574 11.74 224.864 12.37 223.244 12.37H221.264L220.634 12.01V7.24H223.154ZM220.634 2.29L221.282 1.93H223.244C224.684 1.93 226.124 2.524 226.124 4.234C226.124 5.854 224.684 6.61 223.244 6.61H220.634V2.29ZM240.218 12.1L238.688 13H242.954L241.154 12.01L236.42 1.3H234.242L236.168 2.974L232.244 12.01L230.354 13H234.512L232.892 12.1L234.098 9.31H238.976L240.218 12.1ZM236.51 3.766L238.706 8.68H234.368L236.51 3.766ZM254.395 2.29L256.195 1.3H251.875L253.675 2.29V9.22C253.675 11.164 252.469 12.46 250.165 12.46C247.861 12.46 246.655 11.164 246.655 9.22V2.29L248.455 1.3H243.955L245.755 2.29V9.22C245.755 11.632 247.249 13.27 250.165 13.27C252.937 13.27 254.395 11.632 254.395 9.22V2.29ZM263.574 1.3H258.894L260.694 2.29V12.01L258.894 13H268.074V9.58L266.724 12.37H262.224L261.594 12.01V2.29L263.574 1.3ZM284.803 10.84L284.083 12.1H279.655L281.797 10.282C283.615 8.734 284.443 8.23 284.443 6.97C284.443 6.16 283.813 4.63 281.293 4.63C279.043 4.63 278.143 5.98 278.143 7.06C278.143 7.78 278.593 8.104 279.007 8.104C279.385 8.104 279.655 7.816 279.655 7.492C279.655 6.862 279.043 6.97 279.043 6.52C279.043 5.71 279.943 5.08 281.293 5.08C282.643 5.08 283.543 5.89 283.543 6.97C283.543 8.05 282.823 8.716 281.275 10.03L277.783 13H284.803V10.84ZM288.888 8.464C288.888 6.754 290.112 5.206 291.966 5.206C293.838 5.206 295.836 6.7 295.836 9.436C295.836 11.128 294.594 12.694 292.74 12.694C290.868 12.694 288.888 11.2 288.888 8.464ZM288.042 8.95C288.042 11.326 289.806 13.27 292.362 13.27C294.918 13.27 296.682 11.326 296.682 8.95C296.682 6.574 294.918 4.63 292.362 4.63C289.806 4.63 288.042 6.574 288.042 8.95ZM306.579 10.84L305.859 12.1H301.431L303.573 10.282C305.391 8.734 306.219 8.23 306.219 6.97C306.219 6.16 305.589 4.63 303.069 4.63C300.819 4.63 299.919 5.98 299.919 7.06C299.919 7.78 300.369 8.104 300.783 8.104C301.161 8.104 301.431 7.816 301.431 7.492C301.431 6.862 300.819 6.97 300.819 6.52C300.819 5.71 301.719 5.08 303.069 5.08C304.419 5.08 305.319 5.89 305.319 6.97C305.319 8.05 304.599 8.716 303.051 10.03L299.559 13H306.579V10.84ZM310.664 8.464C310.664 6.754 311.888 5.206 313.742 5.206C315.614 5.206 317.612 6.7 317.612 9.436C317.612 11.128 316.37 12.694 314.516 12.694C312.644 12.694 310.664 11.2 310.664 8.464ZM309.818 8.95C309.818 11.326 311.582 13.27 314.138 13.27C316.694 13.27 318.458 11.326 318.458 8.95C318.458 6.574 316.694 4.63 314.138 4.63C311.582 4.63 309.818 6.574 309.818 8.95Z" fill="white"/>
</svg>
