<svg width="469" height="92" viewBox="0 0 469 92" fill="none" xmlns="http://www.w3.org/2000/svg">
<path d="M177.378 3.72L178.218 3.24H184.458L186.138 6.72V2.4H173.778L176.178 3.72V16.68L173.778 18H186.498V13.68L184.818 17.16H178.218L177.378 16.68V10.32H181.338L182.778 12.6V7.2L181.338 9.48H177.378V3.72ZM193.213 2.4V16.92L191.293 18H196.333L194.413 16.92V0.839999L191.293 1.8L193.213 2.4ZM209.641 11.52C209.641 8.88 208.561 6.84 205.513 6.84C202.657 6.84 200.281 9.096 200.281 12.6C200.281 15.84 202.201 18.36 205.321 18.36C208.921 18.36 209.641 14.88 209.641 14.88C209.641 14.88 208.561 17.28 205.921 17.28C203.521 17.28 201.481 15.792 201.481 12.216C201.481 11.976 201.481 11.76 201.505 11.52H209.641ZM205.465 7.416C207.145 7.416 208.321 8.52 208.321 9.72C208.321 10.68 207.481 10.8 206.281 10.8H201.625C202.153 8.496 203.953 7.416 205.465 7.416ZM215.515 21.96L213.595 23.04H218.635L216.715 21.96V16.464C216.787 16.632 217.675 18.36 220.075 18.36C222.235 18.36 224.755 16.68 224.755 12.6C224.755 8.16 222.475 6.84 220.315 6.84C217.795 6.84 216.715 9.12 216.715 9.12V6.84L213.595 7.8L215.515 8.4V21.96ZM216.715 10.32C216.715 10.32 217.555 7.56 219.955 7.56C221.779 7.56 223.435 9 223.435 12.6C223.435 15.96 221.779 17.64 219.955 17.64C217.915 17.64 216.715 16.08 216.715 14.28V10.32ZM230.764 2.4V16.92L228.844 18H233.884L231.964 16.92V9.792C232.684 8.904 234.124 7.752 235.564 7.752C237.124 7.752 237.844 8.88 237.844 10.8V16.92L235.924 18H240.964L239.044 16.92V10.44C239.044 7.8 237.724 6.84 236.044 6.84C234.364 6.84 232.804 8.16 231.964 9.072V0.839999L228.844 1.8L230.764 2.4ZM247.776 12.216C246.144 12.792 244.68 13.92 244.68 15.6C244.68 17.304 245.76 18.36 247.416 18.36C248.376 18.36 249.192 17.88 249.744 17.52L251.52 16.344C251.52 17.616 251.52 18.36 252.36 18.36C253.2 18.36 254.88 16.32 254.88 16.32L252.72 17.16V10.32C252.72 8.28 251.856 6.84 249.24 6.84C247.8 6.84 245.088 8.16 245.088 9.648C245.088 10.344 245.496 10.656 245.952 10.656C246.408 10.656 246.816 10.392 246.816 9.648C246.816 9.312 246.768 9.072 246.768 8.88C246.768 8.28 247.536 7.56 249 7.56C250.32 7.56 251.52 8.184 251.52 10.32V10.92L247.776 12.216ZM250.032 16.56C249.336 17.016 248.736 17.472 247.8 17.472C246.6 17.472 245.952 16.512 245.952 15.48C245.952 14.16 246.552 13.344 248.64 12.6L251.52 11.592V15.576L250.032 16.56ZM260.153 8.4V16.92L258.233 18H263.273L261.353 16.92V9.792C262.073 8.904 263.513 7.752 264.953 7.752C266.513 7.752 267.233 8.88 267.233 10.8V16.92L265.313 18H270.353L268.433 16.92V10.44C268.433 7.8 267.113 6.84 265.433 6.84C263.753 6.84 262.193 8.16 261.353 9.072V6.84L258.233 7.8L260.153 8.4ZM273.465 7.92H275.745V15.84C275.745 17.64 276.465 18.36 277.665 18.36C278.985 18.36 279.657 16.752 279.705 16.584C279.681 16.632 279.105 17.52 278.145 17.52C277.305 17.52 276.945 16.8 276.945 15.84V7.92H279.705V7.2H276.945V4.68L273.465 7.92ZM285.113 16.8C285.113 17.472 285.641 18 286.313 18C286.985 18 287.513 17.472 287.513 16.8C287.513 16.128 286.985 15.6 286.313 15.6C285.641 15.6 285.113 16.128 285.113 16.8ZM285.113 8.76C285.113 9.432 285.641 9.96 286.313 9.96C286.985 9.96 287.513 9.432 287.513 8.76C287.513 8.088 286.985 7.56 286.313 7.56C285.641 7.56 285.113 8.088 285.113 8.76ZM3.41693 55.41L6.27893 48.084L9.08693 55.41H3.41693ZM1.67093 60L3.03893 56.49H9.50093L10.8869 60H12.1649L6.98093 47.004H5.61293L0.464933 60H1.67093ZM16.6288 54.798C16.6288 53.178 17.4388 51.684 19.2208 51.684C20.6968 51.684 21.5968 52.602 21.5968 54.168V60H22.6768V54.348C22.6768 53.304 22.4428 50.694 19.4908 50.694C18.3208 50.694 17.2948 51.216 16.6648 52.332L16.6288 52.296L16.5748 50.964H15.4588C15.4948 51.576 15.5488 52.296 15.5488 52.998V60H16.6288V54.798ZM40.2085 56.166C40.2085 57.786 39.3985 59.28 37.6165 59.28C36.1405 59.28 35.2405 58.362 35.2405 56.796V50.964H34.1605V56.616C34.1605 57.66 34.3945 60.27 37.3465 60.27C38.5165 60.27 39.5425 59.748 40.1725 58.632L40.2085 58.668L40.2625 60H41.3785C41.3425 59.388 41.2885 58.668 41.2885 57.966V50.964H40.2085V56.166ZM47.0425 54.798C47.0425 53.178 47.8525 51.684 49.6345 51.684C51.1105 51.684 52.0105 52.602 52.0105 54.168V60H53.0905V54.348C53.0905 53.304 52.8565 50.694 49.9045 50.694C48.7345 50.694 47.7085 51.216 47.0785 52.332L47.0425 52.296L46.9885 50.964H45.8725C45.9085 51.576 45.9625 52.296 45.9625 52.998V60H47.0425V54.798ZM64.6404 53.736C64.5504 51.81 63.0384 50.694 61.1844 50.694C58.5024 50.694 57.1524 53.034 57.1524 55.482C57.1524 57.948 58.4124 60.27 61.1124 60.27C63.1644 60.27 64.3524 59.244 64.6404 57.174H63.4704C63.3804 58.416 62.4084 59.28 61.0044 59.28C59.3484 59.28 58.3224 57.534 58.3224 55.464C58.3224 53.412 59.3484 51.684 61.0044 51.684C62.4984 51.684 63.3804 52.35 63.4704 53.736H64.6404ZM75.1704 55.482C75.1704 57.156 74.3064 59.28 72.1284 59.28C69.9504 59.28 69.0864 57.156 69.0864 55.482C69.0864 53.808 69.9504 51.684 72.1284 51.684C74.3064 51.684 75.1704 53.808 75.1704 55.482ZM72.1284 50.694C69.2484 50.694 67.9164 53.106 67.9164 55.482C67.9164 57.858 69.2484 60.27 72.1284 60.27C75.0084 60.27 76.3404 57.858 76.3404 55.482C76.3404 53.106 75.0084 50.694 72.1284 50.694ZM81.3744 50.964H80.2584C80.2944 51.576 80.3484 52.296 80.3484 52.998V60H81.4284V54.798C81.4284 53.178 82.2384 51.684 84.0204 51.684C85.4964 51.684 86.3964 52.602 86.3964 54.168V60H87.4764V54.798C87.4764 53.178 88.2864 51.684 90.0684 51.684C91.5444 51.684 92.4444 52.602 92.4444 54.168V60H93.5244V54.348C93.5244 53.304 93.2904 50.694 90.3384 50.694C88.9344 50.694 87.8904 51.612 87.2244 52.674C86.8284 51.486 85.7124 50.694 84.2904 50.694C83.1204 50.694 82.0944 51.216 81.4644 52.332L81.4284 52.296L81.3744 50.964ZM100.016 60V51.954H102.068V50.964H100.016V49.812C99.9625 48.516 99.9985 47.778 101.474 47.778C101.69 47.778 101.924 47.814 102.14 47.85V46.986C101.816 46.914 101.456 46.788 101.114 46.788C99.5665 46.788 98.9365 47.49 98.9365 49.038V50.964H97.1185V51.954H98.9365V60H100.016ZM112.211 55.482C112.211 57.156 111.347 59.28 109.169 59.28C106.991 59.28 106.127 57.156 106.127 55.482C106.127 53.808 106.991 51.684 109.169 51.684C111.347 51.684 112.211 53.808 112.211 55.482ZM109.169 50.694C106.289 50.694 104.957 53.106 104.957 55.482C104.957 57.858 106.289 60.27 109.169 60.27C112.049 60.27 113.381 57.858 113.381 55.482C113.381 53.106 112.049 50.694 109.169 50.694ZM118.487 54.564C118.523 52.836 119.369 51.684 120.971 51.684C121.187 51.684 121.421 51.738 121.637 51.756V50.712C121.277 50.694 120.917 50.676 120.557 50.694C119.657 50.73 118.847 51.378 118.523 52.296H118.487L118.433 50.964H117.317C117.353 51.576 117.425 52.296 117.407 52.998V60H118.487V54.564ZM125.975 57.588C125.975 58.812 125.849 60.27 128.135 60.27C128.495 60.27 128.891 60.198 129.233 60.108V59.172C128.945 59.262 128.621 59.28 128.297 59.28C127.469 59.28 127.037 58.83 127.055 58.002V51.954H129.107V50.964H127.055V48.57L125.975 49.038V50.964H124.175V51.954H125.975V57.588ZM133.725 57.48C133.725 55.212 136.929 55.5 138.459 55.446C138.567 57.336 138.117 59.28 135.759 59.28C134.661 59.28 133.725 58.704 133.725 57.48ZM138.459 54.456C137.145 54.528 135.579 54.348 134.373 54.87C133.293 55.32 132.555 56.256 132.555 57.48C132.555 59.244 133.887 60.27 135.561 60.27C136.785 60.27 137.991 59.55 138.387 58.794L138.441 58.668H138.477L138.513 60H139.629C139.593 59.388 139.521 58.668 139.539 57.966V53.682C139.575 51.612 138.333 50.694 136.335 50.694C134.607 50.694 133.221 51.396 132.951 53.25H134.103C134.247 52.026 135.183 51.684 136.317 51.684C137.595 51.684 138.351 52.152 138.459 53.628V54.456ZM147.963 51.684C150.015 51.684 150.717 53.628 150.717 55.356C150.717 57.03 150.195 59.28 148.125 59.28C145.767 59.28 145.047 57.354 145.047 55.302C145.047 53.466 145.857 51.684 147.963 51.684ZM145.047 58.668L145.083 58.596C145.821 59.676 146.919 60.27 148.233 60.27C150.861 60.27 151.887 57.714 151.887 55.446C151.887 53.106 150.861 50.694 148.179 50.694C146.973 50.694 145.713 51.27 145.083 52.332L145.047 52.296V47.004H143.967V57.966C143.967 58.668 143.913 59.388 143.877 60H144.993L145.047 58.668ZM157.047 47.004H155.967V60H157.047V47.004ZM169.353 55.734C169.353 52.908 168.255 50.694 165.231 50.694C162.549 50.694 161.199 53.034 161.199 55.482C161.199 57.948 162.459 60.27 165.159 60.27C167.337 60.27 168.687 59.28 169.245 57.12H168.111C167.841 58.362 166.779 59.28 165.501 59.28C163.287 59.28 162.405 57.66 162.369 55.734H169.353ZM162.405 54.744C162.549 53.16 163.485 51.684 165.249 51.684C167.121 51.684 168.057 52.998 168.183 54.744H162.405ZM181.431 54.564C181.467 52.836 182.313 51.684 183.915 51.684C184.131 51.684 184.365 51.738 184.581 51.756V50.712C184.221 50.694 183.861 50.676 183.501 50.694C182.601 50.73 181.791 51.378 181.467 52.296H181.431L181.377 50.964H180.261C180.297 51.576 180.369 52.296 180.351 52.998V60H181.431V54.564ZM195.759 55.734C195.759 52.908 194.661 50.694 191.637 50.694C188.955 50.694 187.605 53.034 187.605 55.482C187.605 57.948 188.865 60.27 191.565 60.27C193.743 60.27 195.093 59.28 195.651 57.12H194.517C194.247 58.362 193.185 59.28 191.907 59.28C189.693 59.28 188.811 57.66 188.775 55.734H195.759ZM188.811 54.744C188.955 53.16 189.891 51.684 191.655 51.684C193.527 51.684 194.463 52.998 194.589 54.744H188.811ZM200.325 57.48C200.325 55.212 203.529 55.5 205.059 55.446C205.167 57.336 204.717 59.28 202.359 59.28C201.261 59.28 200.325 58.704 200.325 57.48ZM205.059 54.456C203.745 54.528 202.179 54.348 200.973 54.87C199.893 55.32 199.155 56.256 199.155 57.48C199.155 59.244 200.487 60.27 202.161 60.27C203.385 60.27 204.591 59.55 204.987 58.794L205.041 58.668H205.077L205.113 60H206.229C206.193 59.388 206.121 58.668 206.139 57.966V53.682C206.175 51.612 204.933 50.694 202.935 50.694C201.207 50.694 199.821 51.396 199.551 53.25H200.703C200.847 52.026 201.783 51.684 202.917 51.684C204.195 51.684 204.951 52.152 205.059 53.628V54.456ZM211.845 47.004H210.765V60H211.845V47.004ZM216.555 50.964V60H217.635V50.964H216.555ZM217.725 47.004H216.465V48.354H217.725V47.004ZM223.101 57.588C223.101 58.812 222.975 60.27 225.261 60.27C225.621 60.27 226.017 60.198 226.359 60.108V59.172C226.071 59.262 225.747 59.28 225.423 59.28C224.595 59.28 224.163 58.83 224.181 58.002V51.954H226.233V50.964H224.181V48.57L223.101 49.038V50.964H221.301V51.954H223.101V57.588ZM229.177 50.964L232.921 60L231.553 63.456H232.741L237.727 50.964H236.557L233.533 58.524L230.491 50.964H229.177ZM248.857 57.588C248.857 58.812 248.731 60.27 251.017 60.27C251.377 60.27 251.773 60.198 252.115 60.108V59.172C251.827 59.262 251.503 59.28 251.179 59.28C250.351 59.28 249.919 58.83 249.937 58.002V51.954H251.989V50.964H249.937V48.57L248.857 49.038V50.964H247.057V51.954H248.857V57.588ZM256.957 47.004H255.877V60H256.957V54.798C256.957 53.178 257.767 51.684 259.549 51.684C261.025 51.684 261.925 52.602 261.925 54.168V60H263.005V54.348C263.005 53.304 262.771 50.694 259.819 50.694C258.649 50.694 257.623 51.216 256.993 52.332H256.957V47.004ZM268.057 57.48C268.057 55.212 271.261 55.5 272.791 55.446C272.899 57.336 272.449 59.28 270.091 59.28C268.993 59.28 268.057 58.704 268.057 57.48ZM272.791 54.456C271.477 54.528 269.911 54.348 268.705 54.87C267.625 55.32 266.887 56.256 266.887 57.48C266.887 59.244 268.219 60.27 269.893 60.27C271.117 60.27 272.323 59.55 272.719 58.794L272.773 58.668H272.809L272.845 60H273.961C273.925 59.388 273.853 58.668 273.871 57.966V53.682C273.907 51.612 272.665 50.694 270.667 50.694C268.939 50.694 267.553 51.396 267.283 53.25H268.435C268.579 52.026 269.515 51.684 270.649 51.684C271.927 51.684 272.683 52.152 272.791 53.628V54.456ZM279.253 57.588C279.253 58.812 279.127 60.27 281.413 60.27C281.773 60.27 282.169 60.198 282.511 60.108V59.172C282.223 59.262 281.899 59.28 281.575 59.28C280.747 59.28 280.315 58.83 280.333 58.002V51.954H282.385V50.964H280.333V48.57L279.253 49.038V50.964H277.453V51.954H279.253V57.588ZM293.119 50.964H291.931L295.243 60H296.341L299.167 52.206H299.203L301.975 60H303.001L306.367 50.964H305.179L302.569 58.506H302.533L299.869 50.964H298.591L295.855 58.578H295.819L293.119 50.964ZM317.139 55.734C317.139 52.908 316.041 50.694 313.017 50.694C310.335 50.694 308.985 53.034 308.985 55.482C308.985 57.948 310.245 60.27 312.945 60.27C315.123 60.27 316.473 59.28 317.031 57.12H315.897C315.627 58.362 314.565 59.28 313.287 59.28C311.073 59.28 310.191 57.66 310.155 55.734H317.139ZM310.191 54.744C310.335 53.16 311.271 51.684 313.035 51.684C314.907 51.684 315.843 52.998 315.969 54.744H310.191ZM328.155 50.964V60H329.235V50.964H328.155ZM329.325 47.004H328.065V48.354H329.325V47.004ZM340.155 55.284C340.155 57.048 339.363 58.974 337.293 58.974C335.313 58.974 334.467 56.976 334.467 55.32C334.467 53.664 335.295 51.684 337.257 51.684C339.201 51.684 340.155 53.556 340.155 55.284ZM340.155 52.296L340.119 52.368C339.399 51.324 338.463 50.694 337.149 50.694C334.395 50.694 333.297 52.962 333.297 55.41C333.297 57.894 334.467 59.964 337.185 59.964C338.355 59.964 339.597 59.334 340.119 58.272H340.155V59.964C340.119 61.476 338.823 62.466 337.419 62.466C336.267 62.466 334.989 62.106 334.863 61.026H333.693C333.693 62.898 335.637 63.456 337.275 63.456C338.121 63.456 338.607 63.384 339.327 63.042C341.325 62.106 341.235 60.216 341.235 58.416V52.998C341.235 52.296 341.289 51.576 341.325 50.964H340.209L340.155 52.296ZM346.809 54.798C346.809 53.178 347.619 51.684 349.401 51.684C350.877 51.684 351.777 52.602 351.777 54.168V60H352.857V54.348C352.857 53.304 352.623 50.694 349.671 50.694C348.501 50.694 347.475 51.216 346.845 52.332L346.809 52.296L346.755 50.964H345.639C345.675 51.576 345.729 52.296 345.729 52.998V60H346.809V54.798ZM364.137 55.482C364.137 57.156 363.273 59.28 361.095 59.28C358.917 59.28 358.053 57.156 358.053 55.482C358.053 53.808 358.917 51.684 361.095 51.684C363.273 51.684 364.137 53.808 364.137 55.482ZM361.095 50.694C358.215 50.694 356.883 53.106 356.883 55.482C356.883 57.858 358.215 60.27 361.095 60.27C363.975 60.27 365.307 57.858 365.307 55.482C365.307 53.106 363.975 50.694 361.095 50.694ZM370.413 54.564C370.449 52.836 371.295 51.684 372.897 51.684C373.113 51.684 373.347 51.738 373.563 51.756V50.712C373.203 50.694 372.843 50.676 372.483 50.694C371.583 50.73 370.773 51.378 370.449 52.296H370.413L370.359 50.964H369.243C369.279 51.576 369.351 52.296 369.333 52.998V60H370.413V54.564ZM384.741 55.734C384.741 52.908 383.643 50.694 380.619 50.694C377.937 50.694 376.587 53.034 376.587 55.482C376.587 57.948 377.847 60.27 380.547 60.27C382.725 60.27 384.075 59.28 384.633 57.12H383.499C383.229 58.362 382.167 59.28 380.889 59.28C378.675 59.28 377.793 57.66 377.757 55.734H384.741ZM377.793 54.744C377.937 53.16 378.873 51.684 380.637 51.684C382.509 51.684 383.445 52.998 383.571 54.744H377.793ZM399.555 51.684C401.607 51.684 402.309 53.628 402.309 55.356C402.309 57.03 401.787 59.28 399.717 59.28C397.359 59.28 396.639 57.354 396.639 55.302C396.639 53.466 397.449 51.684 399.555 51.684ZM396.639 58.668L396.675 58.596C397.413 59.676 398.511 60.27 399.825 60.27C402.453 60.27 403.479 57.714 403.479 55.446C403.479 53.106 402.453 50.694 399.771 50.694C398.565 50.694 397.305 51.27 396.675 52.332L396.639 52.296V47.004H395.559V57.966C395.559 58.668 395.505 59.388 395.469 60H396.585L396.639 58.668ZM413.589 56.166C413.589 57.786 412.779 59.28 410.997 59.28C409.521 59.28 408.621 58.362 408.621 56.796V50.964H407.541V56.616C407.541 57.66 407.775 60.27 410.727 60.27C411.897 60.27 412.923 59.748 413.553 58.632L413.589 58.668L413.643 60H414.759C414.723 59.388 414.669 58.668 414.669 57.966V50.964H413.589V56.166ZM420.117 57.588C420.117 58.812 419.991 60.27 422.277 60.27C422.637 60.27 423.033 60.198 423.375 60.108V59.172C423.087 59.262 422.763 59.28 422.439 59.28C421.611 59.28 421.179 58.83 421.197 58.002V51.954H423.249V50.964H421.197V48.57L420.117 49.038V50.964H418.317V51.954H420.117V57.588ZM434.721 57.588C434.721 58.812 434.595 60.27 436.881 60.27C437.241 60.27 437.637 60.198 437.979 60.108V59.172C437.691 59.262 437.367 59.28 437.043 59.28C436.215 59.28 435.783 58.83 435.801 58.002V51.954H437.853V50.964H435.801V48.57L434.721 49.038V50.964H432.921V51.954H434.721V57.588ZM442.821 47.004H441.741V60H442.821V54.798C442.821 53.178 443.631 51.684 445.413 51.684C446.889 51.684 447.789 52.602 447.789 54.168V60H448.869V54.348C448.869 53.304 448.635 50.694 445.683 50.694C444.513 50.694 443.487 51.216 442.857 52.332H442.821V47.004ZM453.921 57.48C453.921 55.212 457.125 55.5 458.655 55.446C458.763 57.336 458.313 59.28 455.955 59.28C454.857 59.28 453.921 58.704 453.921 57.48ZM458.655 54.456C457.341 54.528 455.775 54.348 454.569 54.87C453.489 55.32 452.751 56.256 452.751 57.48C452.751 59.244 454.083 60.27 455.757 60.27C456.981 60.27 458.187 59.55 458.583 58.794L458.637 58.668H458.673L458.709 60H459.825C459.789 59.388 459.717 58.668 459.735 57.966V53.682C459.771 51.612 458.529 50.694 456.531 50.694C454.803 50.694 453.417 51.396 453.147 53.25H454.299C454.443 52.026 455.379 51.684 456.513 51.684C457.791 51.684 458.547 52.152 458.655 53.628V54.456ZM465.117 57.588C465.117 58.812 464.991 60.27 467.277 60.27C467.637 60.27 468.033 60.198 468.375 60.108V59.172C468.087 59.262 467.763 59.28 467.439 59.28C466.611 59.28 466.179 58.83 466.197 58.002V51.954H468.249V50.964H466.197V48.57L465.117 49.038V50.964H463.317V51.954H465.117V57.588ZM57.2433 83.734C57.2433 80.908 56.1453 78.694 53.1213 78.694C50.4393 78.694 49.0893 81.034 49.0893 83.482C49.0893 85.948 50.3493 88.27 53.0493 88.27C55.2273 88.27 56.5773 87.28 57.1353 85.12H56.0013C55.7313 86.362 54.6693 87.28 53.3913 87.28C51.1773 87.28 50.2953 85.66 50.2593 83.734H57.2433ZM50.2953 82.744C50.4393 81.16 51.3753 79.684 53.1393 79.684C55.0113 79.684 55.9473 80.998 56.0733 82.744H50.2953ZM62.5112 82.798C62.5112 81.178 63.3212 79.684 65.1032 79.684C66.5792 79.684 67.4792 80.602 67.4792 82.168V88H68.5592V82.348C68.5592 81.304 68.3252 78.694 65.3732 78.694C64.2032 78.694 63.1772 79.216 62.5472 80.332L62.5112 80.296L62.4572 78.964H61.3412C61.3772 79.576 61.4312 80.296 61.4312 80.998V88H62.5112V82.798ZM79.4252 83.266C79.4252 85.318 78.7052 87.28 76.3472 87.28C74.2772 87.28 73.7912 84.994 73.7912 83.32C73.7912 81.592 74.4572 79.684 76.5092 79.684C78.6152 79.684 79.4252 81.43 79.4252 83.266ZM79.5152 88H80.6312C80.5952 87.388 80.5412 86.668 80.5412 85.966V75.004H79.4612V80.296L79.4252 80.332C78.7952 79.27 77.5352 78.694 76.3292 78.694C73.6472 78.694 72.6212 81.106 72.6212 83.446C72.6212 85.714 73.6472 88.27 76.3292 88.27C77.5892 88.27 78.6872 87.676 79.4252 86.596L79.4612 86.668L79.5152 88ZM84.7291 81.214C84.7291 82.888 86.1691 83.302 87.5911 83.644C89.0311 83.968 90.4531 84.184 90.4531 85.48C90.4531 86.74 89.2471 87.28 88.0951 87.28C86.8711 87.28 85.6831 86.884 85.5931 85.534H84.4231C84.4591 87.532 86.2591 88.27 87.8251 88.27C89.7331 88.27 91.6231 87.352 91.6231 85.318C91.6231 84.346 91.0291 83.536 90.0931 83.212C87.6451 82.348 85.8991 82.474 85.8991 81.142C85.8991 80.08 86.9251 79.684 87.9331 79.684C89.0491 79.684 90.0571 80.062 90.1651 81.196H91.3351C91.1911 79.288 89.7511 78.694 88.0411 78.694C86.4571 78.694 84.7291 79.342 84.7291 81.214ZM108.693 84.166C108.693 85.786 107.883 87.28 106.101 87.28C104.625 87.28 103.725 86.362 103.725 84.796V78.964H102.645V84.616C102.645 85.66 102.879 88.27 105.831 88.27C107.001 88.27 108.027 87.748 108.657 86.632L108.693 86.668L108.747 88H109.863C109.827 87.388 109.773 86.668 109.773 85.966V78.964H108.693V84.166ZM115.347 83.266C115.347 81.43 116.157 79.684 118.263 79.684C120.315 79.684 121.017 81.592 121.017 83.32C121.017 84.994 120.495 87.28 118.425 87.28C116.067 87.28 115.347 85.318 115.347 83.266ZM115.347 86.596H115.383C116.121 87.676 117.219 88.27 118.533 88.27C121.161 88.27 122.187 85.714 122.187 83.446C122.187 81.106 121.161 78.694 118.479 78.694C117.273 78.694 116.013 79.27 115.383 80.332L115.347 80.296L115.293 78.964H114.177C114.213 79.576 114.285 80.296 114.267 80.998V91.456H115.347V86.596ZM133.095 78.964H131.907L135.219 88H136.317L139.143 80.206H139.179L141.951 88H142.977L146.343 78.964H145.155L142.545 86.506H142.509L139.845 78.964H138.567L135.831 86.578H135.795L133.095 78.964ZM149.871 78.964V88H150.951V78.964H149.871ZM151.041 75.004H149.781V76.354H151.041V75.004ZM156.417 85.588C156.417 86.812 156.291 88.27 158.577 88.27C158.937 88.27 159.333 88.198 159.675 88.108V87.172C159.387 87.262 159.063 87.28 158.739 87.28C157.911 87.28 157.479 86.83 157.497 86.002V79.954H159.549V78.964H157.497V76.57L156.417 77.038V78.964H154.617V79.954H156.417V85.588ZM164.517 75.004H163.437V88H164.517V82.798C164.517 81.178 165.327 79.684 167.109 79.684C168.585 79.684 169.485 80.602 169.485 82.168V88H170.565V82.348C170.565 81.304 170.331 78.694 167.379 78.694C166.209 78.694 165.183 79.216 164.553 80.332H164.517V75.004ZM182.427 85.48C182.427 83.212 185.631 83.5 187.161 83.446C187.269 85.336 186.819 87.28 184.461 87.28C183.363 87.28 182.427 86.704 182.427 85.48ZM187.161 82.456C185.847 82.528 184.281 82.348 183.075 82.87C181.995 83.32 181.257 84.256 181.257 85.48C181.257 87.244 182.589 88.27 184.263 88.27C185.487 88.27 186.693 87.55 187.089 86.794L187.143 86.668H187.179L187.215 88H188.331C188.295 87.388 188.223 86.668 188.241 85.966V81.682C188.277 79.612 187.035 78.694 185.037 78.694C183.309 78.694 181.923 79.396 181.653 81.25H182.805C182.949 80.026 183.885 79.684 185.019 79.684C186.297 79.684 187.053 80.152 187.161 81.628V82.456ZM200.559 83.266C200.559 81.43 201.369 79.684 203.475 79.684C205.527 79.684 206.229 81.592 206.229 83.32C206.229 84.994 205.707 87.28 203.637 87.28C201.279 87.28 200.559 85.318 200.559 83.266ZM200.559 86.596H200.595C201.333 87.676 202.431 88.27 203.745 88.27C206.373 88.27 207.399 85.714 207.399 83.446C207.399 81.106 206.373 78.694 203.691 78.694C202.485 78.694 201.225 79.27 200.595 80.332L200.559 80.296L200.505 78.964H199.389C199.425 79.576 199.497 80.296 199.479 80.998V91.456H200.559V86.596ZM218.067 83.482C218.067 85.156 217.203 87.28 215.025 87.28C212.847 87.28 211.983 85.156 211.983 83.482C211.983 81.808 212.847 79.684 215.025 79.684C217.203 79.684 218.067 81.808 218.067 83.482ZM215.025 78.694C212.145 78.694 210.813 81.106 210.813 83.482C210.813 85.858 212.145 88.27 215.025 88.27C217.905 88.27 219.237 85.858 219.237 83.482C219.237 81.106 217.905 78.694 215.025 78.694ZM222.956 81.214C222.956 82.888 224.396 83.302 225.818 83.644C227.258 83.968 228.68 84.184 228.68 85.48C228.68 86.74 227.474 87.28 226.322 87.28C225.098 87.28 223.91 86.884 223.82 85.534H222.65C222.686 87.532 224.486 88.27 226.052 88.27C227.96 88.27 229.85 87.352 229.85 85.318C229.85 84.346 229.256 83.536 228.32 83.212C225.872 82.348 224.126 82.474 224.126 81.142C224.126 80.08 225.152 79.684 226.16 79.684C227.276 79.684 228.284 80.062 228.392 81.196H229.562C229.418 79.288 227.978 78.694 226.268 78.694C224.684 78.694 222.956 79.342 222.956 81.214ZM233.756 81.214C233.756 82.888 235.196 83.302 236.618 83.644C238.058 83.968 239.48 84.184 239.48 85.48C239.48 86.74 238.274 87.28 237.122 87.28C235.898 87.28 234.71 86.884 234.62 85.534H233.45C233.486 87.532 235.286 88.27 236.852 88.27C238.76 88.27 240.65 87.352 240.65 85.318C240.65 84.346 240.056 83.536 239.12 83.212C236.672 82.348 234.926 82.474 234.926 81.142C234.926 80.08 235.952 79.684 236.96 79.684C238.076 79.684 239.084 80.062 239.192 81.196H240.362C240.218 79.288 238.778 78.694 237.068 78.694C235.484 78.694 233.756 79.342 233.756 81.214ZM244.88 78.964V88H245.96V78.964H244.88ZM246.05 75.004H244.79V76.354H246.05V75.004ZM254.469 79.684C256.521 79.684 257.223 81.628 257.223 83.356C257.223 85.03 256.701 87.28 254.631 87.28C252.273 87.28 251.553 85.354 251.553 83.302C251.553 81.466 252.363 79.684 254.469 79.684ZM251.553 86.668L251.589 86.596C252.327 87.676 253.425 88.27 254.739 88.27C257.367 88.27 258.393 85.714 258.393 83.446C258.393 81.106 257.367 78.694 254.685 78.694C253.479 78.694 252.219 79.27 251.589 80.332L251.553 80.296V75.004H250.473V85.966C250.473 86.668 250.419 87.388 250.383 88H251.499L251.553 86.668ZM263.553 75.004H262.473V88H263.553V75.004ZM266.949 78.964L270.693 88L269.325 91.456H270.513L275.499 78.964H274.329L271.305 86.524L268.263 78.964H266.949ZM287.709 88V79.954H289.761V78.964H287.709V77.812C287.655 76.516 287.691 75.778 289.167 75.778C289.383 75.778 289.617 75.814 289.833 75.85V74.986C289.509 74.914 289.149 74.788 288.807 74.788C287.259 74.788 286.629 75.49 286.629 77.038V78.964H284.811V79.954H286.629V88H287.709ZM293.675 85.48C293.675 83.212 296.879 83.5 298.409 83.446C298.517 85.336 298.067 87.28 295.709 87.28C294.611 87.28 293.675 86.704 293.675 85.48ZM298.409 82.456C297.095 82.528 295.529 82.348 294.323 82.87C293.243 83.32 292.505 84.256 292.505 85.48C292.505 87.244 293.837 88.27 295.511 88.27C296.735 88.27 297.941 87.55 298.337 86.794L298.391 86.668H298.427L298.463 88H299.579C299.543 87.388 299.471 86.668 299.489 85.966V81.682C299.525 79.612 298.283 78.694 296.285 78.694C294.557 78.694 293.171 79.396 292.901 81.25H294.053C294.197 80.026 295.133 79.684 296.267 79.684C297.545 79.684 298.301 80.152 298.409 81.628V82.456ZM304.871 85.588C304.871 86.812 304.745 88.27 307.031 88.27C307.391 88.27 307.787 88.198 308.129 88.108V87.172C307.841 87.262 307.517 87.28 307.193 87.28C306.365 87.28 305.933 86.83 305.951 86.002V79.954H308.003V78.964H305.951V76.57L304.871 77.038V78.964H303.071V79.954H304.871V85.588ZM312.621 85.48C312.621 83.212 315.825 83.5 317.355 83.446C317.463 85.336 317.013 87.28 314.655 87.28C313.557 87.28 312.621 86.704 312.621 85.48ZM317.355 82.456C316.041 82.528 314.475 82.348 313.269 82.87C312.189 83.32 311.451 84.256 311.451 85.48C311.451 87.244 312.783 88.27 314.457 88.27C315.681 88.27 316.887 87.55 317.283 86.794L317.337 86.668H317.373L317.409 88H318.525C318.489 87.388 318.417 86.668 318.435 85.966V81.682C318.471 79.612 317.229 78.694 315.231 78.694C313.503 78.694 312.117 79.396 311.847 81.25H312.999C313.143 80.026 314.079 79.684 315.213 79.684C316.491 79.684 317.247 80.152 317.355 81.628V82.456ZM324.141 75.004H323.061V88H324.141V75.004ZM342.249 83.482C342.249 85.156 341.385 87.28 339.207 87.28C337.029 87.28 336.165 85.156 336.165 83.482C336.165 81.808 337.029 79.684 339.207 79.684C341.385 79.684 342.249 81.808 342.249 83.482ZM339.207 78.694C336.327 78.694 334.995 81.106 334.995 83.482C334.995 85.858 336.327 88.27 339.207 88.27C342.087 88.27 343.419 85.858 343.419 83.482C343.419 81.106 342.087 78.694 339.207 78.694ZM353.493 84.166C353.493 85.786 352.683 87.28 350.901 87.28C349.425 87.28 348.525 86.362 348.525 84.796V78.964H347.445V84.616C347.445 85.66 347.679 88.27 350.631 88.27C351.801 88.27 352.827 87.748 353.457 86.632L353.493 86.668L353.547 88H354.663C354.627 87.388 354.573 86.668 354.573 85.966V78.964H353.493V84.166ZM360.021 85.588C360.021 86.812 359.895 88.27 362.181 88.27C362.541 88.27 362.937 88.198 363.279 88.108V87.172C362.991 87.262 362.667 87.28 362.343 87.28C361.515 87.28 361.083 86.83 361.101 86.002V79.954H363.153V78.964H361.101V76.57L360.021 77.038V78.964H358.221V79.954H360.021V85.588ZM373.917 81.736C373.827 79.81 372.315 78.694 370.461 78.694C367.779 78.694 366.429 81.034 366.429 83.482C366.429 85.948 367.689 88.27 370.389 88.27C372.441 88.27 373.629 87.244 373.917 85.174H372.747C372.657 86.416 371.685 87.28 370.281 87.28C368.625 87.28 367.599 85.534 367.599 83.464C367.599 81.412 368.625 79.684 370.281 79.684C371.775 79.684 372.657 80.35 372.747 81.736H373.917ZM384.447 83.482C384.447 85.156 383.583 87.28 381.405 87.28C379.227 87.28 378.363 85.156 378.363 83.482C378.363 81.808 379.227 79.684 381.405 79.684C383.583 79.684 384.447 81.808 384.447 83.482ZM381.405 78.694C378.525 78.694 377.193 81.106 377.193 83.482C377.193 85.858 378.525 88.27 381.405 88.27C384.285 88.27 385.617 85.858 385.617 83.482C385.617 81.106 384.285 78.694 381.405 78.694ZM390.651 78.964H389.535C389.571 79.576 389.625 80.296 389.625 80.998V88H390.705V82.798C390.705 81.178 391.515 79.684 393.297 79.684C394.773 79.684 395.673 80.602 395.673 82.168V88H396.753V82.798C396.753 81.178 397.563 79.684 399.345 79.684C400.821 79.684 401.721 80.602 401.721 82.168V88H402.801V82.348C402.801 81.304 402.567 78.694 399.615 78.694C398.211 78.694 397.167 79.612 396.501 80.674C396.105 79.486 394.989 78.694 393.567 78.694C392.397 78.694 391.371 79.216 390.741 80.332L390.705 80.296L390.651 78.964ZM415.053 83.734C415.053 80.908 413.955 78.694 410.931 78.694C408.249 78.694 406.899 81.034 406.899 83.482C406.899 85.948 408.159 88.27 410.859 88.27C413.037 88.27 414.387 87.28 414.945 85.12H413.811C413.541 86.362 412.479 87.28 411.201 87.28C408.987 87.28 408.105 85.66 408.069 83.734H415.053ZM408.105 82.744C408.249 81.16 409.185 79.684 410.949 79.684C412.821 79.684 413.757 80.998 413.883 82.744H408.105ZM421.023 88V86.452H419.583V88H421.023Z" fill="white"/>
</svg>
