<svg width="554" height="126" viewBox="0 0 554 126" fill="none" xmlns="http://www.w3.org/2000/svg">
<path d="M8.55 1.03L7.65 1.84C7.65 1.84 6.57 1.03 4.68 1.03C2.25 1.03 1.08 2.344 1.08 3.82C1.08 5.512 2.358 6.25 4.788 7.114C7.29 7.996 8.19 8.68 8.19 10.3C8.19 11.74 7.02 12.73 5.31 12.73C3.33 12.73 2.34 11.65 2.34 11.65L1.17 8.86V13.27L2.034 12.28C2.034 12.28 3.15 13.27 5.31 13.27C7.74 13.27 9.09 11.884 9.09 10.12C9.09 7.78 7.2 6.97 4.968 6.214C2.772 5.476 1.98 4.846 1.98 3.694C1.98 2.614 2.97 1.57 4.68 1.57C6.39 1.57 7.38 2.47 7.38 2.47L8.55 4.9V1.03ZM12.6977 15.97L11.2577 16.78H15.0377L13.5977 15.97V11.848C13.6517 11.974 14.3177 13.27 16.1177 13.27C17.7377 13.27 19.6277 12.01 19.6277 8.95C19.6277 5.62 17.9177 4.63 16.2977 4.63C14.4077 4.63 13.5977 6.34 13.5977 6.34V4.63L11.2577 5.35L12.6977 5.8V15.97ZM13.5977 7.24C13.5977 7.24 14.2277 5.17 16.0277 5.17C17.3957 5.17 18.6377 6.25 18.6377 8.95C18.6377 11.47 17.3957 12.73 16.0277 12.73C14.4977 12.73 13.5977 11.56 13.5977 10.21V7.24ZM25.3048 5.116C26.7988 5.116 28.4188 6.43 28.4188 9.418C28.4188 11.542 27.1408 12.784 25.8088 12.784C24.3328 12.784 22.6948 11.47 22.6948 8.482C22.6948 6.322 23.9908 5.116 25.3048 5.116ZM21.7048 8.95C21.7048 11.38 23.0548 13.27 25.5568 13.27C27.8788 13.27 29.4088 11.38 29.4088 8.95C29.4088 6.52 28.0588 4.63 25.5568 4.63C23.2348 4.63 21.7048 6.52 21.7048 8.95ZM31.0296 5.44H32.7396V11.38C32.7396 12.73 33.2796 13.27 34.1796 13.27C35.1696 13.27 35.6736 12.064 35.7096 11.938C35.6916 11.974 35.2596 12.64 34.5396 12.64C33.9096 12.64 33.6396 12.1 33.6396 11.38V5.44H35.7096V4.9H33.6396V3.01L31.0296 5.44ZM42.911 5.44H44.621V11.38C44.621 12.73 45.161 13.27 46.061 13.27C47.051 13.27 47.555 12.064 47.591 11.938C47.573 11.974 47.141 12.64 46.421 12.64C45.791 12.64 45.521 12.1 45.521 11.38V5.44H47.591V4.9H45.521V3.01L42.911 5.44ZM51.1066 1.3V12.19L49.6666 13H53.4466L52.0066 12.19V6.844C52.5466 6.178 53.6266 5.314 54.7066 5.314C55.8766 5.314 56.4166 6.16 56.4166 7.6V12.19L54.9766 13H58.7566L57.3166 12.19V7.33C57.3166 5.35 56.3266 4.63 55.0666 4.63C53.8066 4.63 52.6366 5.62 52.0066 6.304V0.129999L49.6666 0.85L51.1066 1.3ZM67.3931 8.14C67.3931 6.16 66.5831 4.63 64.2971 4.63C62.1551 4.63 60.3731 6.322 60.3731 8.95C60.3731 11.38 61.8131 13.27 64.1531 13.27C66.8531 13.27 67.3931 10.66 67.3931 10.66C67.3931 10.66 66.5831 12.46 64.6031 12.46C62.8031 12.46 61.2731 11.344 61.2731 8.662C61.2731 8.482 61.2731 8.32 61.2911 8.14H67.3931ZM64.2611 5.062C65.5211 5.062 66.4031 5.89 66.4031 6.79C66.4031 7.51 65.7731 7.6 64.8731 7.6H61.3811C61.7771 5.872 63.1271 5.062 64.2611 5.062ZM77.644 2.29L78.274 1.93H82.954L84.214 4.54V1.3H74.944L76.744 2.29V12.01L74.944 13H84.484V9.76L83.224 12.37H78.274L77.644 12.01V7.24H80.614L81.694 8.95V4.9L80.614 6.61H77.644V2.29ZM88.4398 1.3V12.19L86.9998 13H90.7798L89.3398 12.19V0.129999L86.9998 0.85L88.4398 1.3ZM99.6813 8.14C99.6813 6.16 98.8713 4.63 96.5853 4.63C94.4433 4.63 92.6613 6.322 92.6613 8.95C92.6613 11.38 94.1013 13.27 96.4413 13.27C99.1413 13.27 99.6813 10.66 99.6813 10.66C99.6813 10.66 98.8713 12.46 96.8913 12.46C95.0913 12.46 93.5613 11.344 93.5613 8.662C93.5613 8.482 93.5613 8.32 93.5793 8.14H99.6813ZM96.5493 5.062C97.8093 5.062 98.6913 5.89 98.6913 6.79C98.6913 7.51 98.0613 7.6 97.1613 7.6H93.6693C94.0653 5.872 95.4153 5.062 96.5493 5.062ZM103.006 15.97L101.566 16.78H105.346L103.906 15.97V11.848C103.96 11.974 104.626 13.27 106.426 13.27C108.046 13.27 109.936 12.01 109.936 8.95C109.936 5.62 108.226 4.63 106.606 4.63C104.716 4.63 103.906 6.34 103.906 6.34V4.63L101.566 5.35L103.006 5.8V15.97ZM103.906 7.24C103.906 7.24 104.536 5.17 106.336 5.17C107.704 5.17 108.946 6.25 108.946 8.95C108.946 11.47 107.704 12.73 106.336 12.73C104.806 12.73 103.906 11.56 103.906 10.21V7.24ZM113.363 1.3V12.19L111.923 13H115.703L114.263 12.19V6.844C114.803 6.178 115.883 5.314 116.963 5.314C118.133 5.314 118.673 6.16 118.673 7.6V12.19L117.233 13H121.013L119.573 12.19V7.33C119.573 5.35 118.583 4.63 117.323 4.63C116.063 4.63 114.893 5.62 114.263 6.304V0.129999L111.923 0.85L113.363 1.3ZM125.042 8.662C123.818 9.094 122.72 9.94 122.72 11.2C122.72 12.478 123.53 13.27 124.772 13.27C125.492 13.27 126.104 12.91 126.518 12.64L127.85 11.758C127.85 12.712 127.85 13.27 128.48 13.27C129.11 13.27 130.37 11.74 130.37 11.74L128.75 12.37V7.24C128.75 5.71 128.102 4.63 126.14 4.63C125.06 4.63 123.026 5.62 123.026 6.736C123.026 7.258 123.332 7.492 123.674 7.492C124.016 7.492 124.322 7.294 124.322 6.736C124.322 6.484 124.286 6.304 124.286 6.16C124.286 5.71 124.862 5.17 125.96 5.17C126.95 5.17 127.85 5.638 127.85 7.24V7.69L125.042 8.662ZM126.734 11.92C126.212 12.262 125.762 12.604 125.06 12.604C124.16 12.604 123.674 11.884 123.674 11.11C123.674 10.12 124.124 9.508 125.69 8.95L127.85 8.194V11.182L126.734 11.92ZM133.245 5.8V12.19L131.805 13H135.585L134.145 12.19V6.844C134.685 6.178 135.765 5.314 136.845 5.314C138.015 5.314 138.555 6.16 138.555 7.6V12.19L137.115 13H140.895L139.455 12.19V7.33C139.455 5.35 138.465 4.63 137.205 4.63C135.945 4.63 134.775 5.62 134.145 6.304V4.63L131.805 5.35L133.245 5.8ZM142.149 5.44H143.859V11.38C143.859 12.73 144.399 13.27 145.299 13.27C146.289 13.27 146.793 12.064 146.829 11.938C146.811 11.974 146.379 12.64 145.659 12.64C145.029 12.64 144.759 12.1 144.759 11.38V5.44H146.829V4.9H144.759V3.01L142.149 5.44ZM155.553 3.964V13H156.633V3.964H155.553ZM156.723 0.00399888H155.463V1.354H156.723V0.00399888ZM159.939 6.214C159.939 7.888 161.379 8.302 162.801 8.644C164.241 8.968 165.663 9.184 165.663 10.48C165.663 11.74 164.457 12.28 163.305 12.28C162.081 12.28 160.893 11.884 160.803 10.534H159.633C159.669 12.532 161.469 13.27 163.035 13.27C164.943 13.27 166.833 12.352 166.833 10.318C166.833 9.346 166.239 8.536 165.303 8.212C162.855 7.348 161.109 7.474 161.109 6.142C161.109 5.08 162.135 4.684 163.143 4.684C164.259 4.684 165.267 5.062 165.375 6.196H166.545C166.401 4.288 164.961 3.694 163.251 3.694C161.667 3.694 159.939 4.342 159.939 6.214ZM176.073 10.48C176.073 8.212 179.277 8.5 180.807 8.446C180.915 10.336 180.465 12.28 178.107 12.28C177.009 12.28 176.073 11.704 176.073 10.48ZM180.807 7.456C179.493 7.528 177.927 7.348 176.721 7.87C175.641 8.32 174.903 9.256 174.903 10.48C174.903 12.244 176.235 13.27 177.909 13.27C179.133 13.27 180.339 12.55 180.735 11.794L180.789 11.668H180.825L180.861 13H181.977C181.941 12.388 181.869 11.668 181.887 10.966V6.682C181.923 4.612 180.681 3.694 178.683 3.694C176.955 3.694 175.569 4.396 175.299 6.25H176.451C176.595 5.026 177.531 4.684 178.665 4.684C179.943 4.684 180.699 5.152 180.807 6.628V7.456ZM192.225 0.00399888H191.145V13H192.225V7.798C192.225 6.178 193.035 4.684 194.817 4.684C196.293 4.684 197.193 5.602 197.193 7.168V13H198.273V7.348C198.273 6.304 198.039 3.694 195.087 3.694C193.917 3.694 192.891 4.216 192.261 5.332H192.225V0.00399888ZM202.244 10.48C202.244 8.212 205.448 8.5 206.978 8.446C207.086 10.336 206.636 12.28 204.278 12.28C203.18 12.28 202.244 11.704 202.244 10.48ZM206.978 7.456C205.664 7.528 204.098 7.348 202.892 7.87C201.812 8.32 201.074 9.256 201.074 10.48C201.074 12.244 202.406 13.27 204.08 13.27C205.304 13.27 206.51 12.55 206.906 11.794L206.96 11.668H206.996L207.032 13H208.148C208.112 12.388 208.04 11.668 208.058 10.966V6.682C208.094 4.612 206.852 3.694 204.854 3.694C203.126 3.694 201.74 4.396 201.47 6.25H202.622C202.766 5.026 203.702 4.684 204.836 4.684C206.114 4.684 206.87 5.152 206.978 6.628V7.456ZM218.462 6.736C218.372 4.81 216.86 3.694 215.006 3.694C212.324 3.694 210.974 6.034 210.974 8.482C210.974 10.948 212.234 13.27 214.934 13.27C216.986 13.27 218.174 12.244 218.462 10.174H217.292C217.202 11.416 216.23 12.28 214.826 12.28C213.17 12.28 212.144 10.534 212.144 8.464C212.144 6.412 213.17 4.684 214.826 4.684C216.32 4.684 217.202 5.35 217.292 6.736H218.462ZM221.598 0.00399888H220.518V13H221.598V8.104L226.35 13H227.718L222.786 7.87L227.358 3.964H225.972L221.598 7.654V0.00399888ZM230.148 3.964V13H231.228V3.964H230.148ZM231.318 0.00399888H230.058V1.354H231.318V0.00399888ZM235.92 7.798C235.92 6.178 236.73 4.684 238.512 4.684C239.988 4.684 240.888 5.602 240.888 7.168V13H241.968V7.348C241.968 6.304 241.734 3.694 238.782 3.694C237.612 3.694 236.586 4.216 235.956 5.332L235.92 5.296L235.866 3.964H234.75C234.786 4.576 234.84 5.296 234.84 5.998V13H235.92V7.798ZM251.79 8.284C251.79 10.048 250.998 11.974 248.928 11.974C246.948 11.974 246.102 9.976 246.102 8.32C246.102 6.664 246.93 4.684 248.892 4.684C250.836 4.684 251.79 6.556 251.79 8.284ZM251.79 5.296L251.754 5.368C251.034 4.324 250.098 3.694 248.784 3.694C246.03 3.694 244.932 5.962 244.932 8.41C244.932 10.894 246.102 12.964 248.82 12.964C249.99 12.964 251.232 12.334 251.754 11.272H251.79V12.964C251.754 14.476 250.458 15.466 249.054 15.466C247.902 15.466 246.624 15.106 246.498 14.026H245.328C245.328 15.898 247.272 16.456 248.91 16.456C249.756 16.456 250.242 16.384 250.962 16.042C252.96 15.106 252.87 13.216 252.87 11.416V5.998C252.87 5.296 252.924 4.576 252.96 3.964H251.844L251.79 5.296ZM263.094 7.564C263.13 5.836 263.976 4.684 265.578 4.684C265.794 4.684 266.028 4.738 266.244 4.756V3.712C265.884 3.694 265.524 3.676 265.164 3.694C264.264 3.73 263.454 4.378 263.13 5.296H263.094L263.04 3.964H261.924C261.96 4.576 262.032 5.296 262.014 5.998V13H263.094V7.564ZM276.342 8.734C276.342 5.908 275.244 3.694 272.22 3.694C269.538 3.694 268.188 6.034 268.188 8.482C268.188 10.948 269.448 13.27 272.148 13.27C274.326 13.27 275.676 12.28 276.234 10.12H275.1C274.83 11.362 273.768 12.28 272.49 12.28C270.276 12.28 269.394 10.66 269.358 8.734H276.342ZM269.394 7.744C269.538 6.16 270.474 4.684 272.238 4.684C274.11 4.684 275.046 5.998 275.172 7.744H269.394ZM279.828 10.48C279.828 8.212 283.032 8.5 284.562 8.446C284.67 10.336 284.22 12.28 281.862 12.28C280.764 12.28 279.828 11.704 279.828 10.48ZM284.562 7.456C283.248 7.528 281.682 7.348 280.476 7.87C279.396 8.32 278.658 9.256 278.658 10.48C278.658 12.244 279.99 13.27 281.664 13.27C282.888 13.27 284.094 12.55 284.49 11.794L284.544 11.668H284.58L284.616 13H285.732C285.696 12.388 285.624 11.668 285.642 10.966V6.682C285.678 4.612 284.436 3.694 282.438 3.694C280.71 3.694 279.324 4.396 279.054 6.25H280.206C280.35 5.026 281.286 4.684 282.42 4.684C283.698 4.684 284.454 5.152 284.562 6.628V7.456ZM290.268 0.00399888H289.188V13H290.268V0.00399888ZM293.898 3.964V13H294.978V3.964H293.898ZM295.068 0.00399888H293.808V1.354H295.068V0.00399888ZM299.364 10.588C299.364 11.812 299.238 13.27 301.524 13.27C301.884 13.27 302.28 13.198 302.622 13.108V12.172C302.334 12.262 302.01 12.28 301.686 12.28C300.858 12.28 300.426 11.83 300.444 11.002V4.954H302.496V3.964H300.444V1.57L299.364 2.038V3.964H297.564V4.954H299.364V10.588ZM304.36 3.964L308.104 13L306.736 16.456H307.924L312.91 3.964H311.74L308.716 11.524L305.674 3.964H304.36ZM321.124 3.964V13H322.204V3.964H321.124ZM322.294 0.00399888H321.034V1.354H322.294V0.00399888ZM326.896 7.798C326.896 6.178 327.706 4.684 329.488 4.684C330.964 4.684 331.864 5.602 331.864 7.168V13H332.944V7.348C332.944 6.304 332.71 3.694 329.758 3.694C328.588 3.694 327.562 4.216 326.932 5.332L326.896 5.296L326.842 3.964H325.726C325.762 4.576 325.816 5.296 325.816 5.998V13H326.896V7.798ZM343.042 10.588C343.042 11.812 342.916 13.27 345.202 13.27C345.562 13.27 345.958 13.198 346.3 13.108V12.172C346.012 12.262 345.688 12.28 345.364 12.28C344.536 12.28 344.104 11.83 344.122 11.002V4.954H346.174V3.964H344.122V1.57L343.042 2.038V3.964H341.242V4.954H343.042V10.588ZM350.062 0.00399888H348.982V13H350.062V7.798C350.062 6.178 350.872 4.684 352.654 4.684C354.13 4.684 355.03 5.602 355.03 7.168V13H356.11V7.348C356.11 6.304 355.876 3.694 352.924 3.694C351.754 3.694 350.728 4.216 350.098 5.332H350.062V0.00399888ZM367.318 8.734C367.318 5.908 366.22 3.694 363.196 3.694C360.514 3.694 359.164 6.034 359.164 8.482C359.164 10.948 360.424 13.27 363.124 13.27C365.302 13.27 366.652 12.28 367.21 10.12H366.076C365.806 11.362 364.744 12.28 363.466 12.28C361.252 12.28 360.37 10.66 360.334 8.734H367.318ZM360.37 7.744C360.514 6.16 361.45 4.684 363.214 4.684C365.086 4.684 366.022 5.998 366.148 7.744H360.37ZM376.192 3.964H375.004L378.316 13H379.414L382.24 5.206H382.276L385.048 13H386.074L389.44 3.964H388.252L385.642 11.506H385.606L382.942 3.964H381.664L378.928 11.578H378.892L376.192 3.964ZM391.896 10.48C391.896 8.212 395.1 8.5 396.63 8.446C396.738 10.336 396.288 12.28 393.93 12.28C392.832 12.28 391.896 11.704 391.896 10.48ZM396.63 7.456C395.316 7.528 393.75 7.348 392.544 7.87C391.464 8.32 390.726 9.256 390.726 10.48C390.726 12.244 392.058 13.27 393.732 13.27C394.956 13.27 396.162 12.55 396.558 11.794L396.612 11.668H396.648L396.684 13H397.8C397.764 12.388 397.692 11.668 397.71 10.966V6.682C397.746 4.612 396.504 3.694 394.506 3.694C392.778 3.694 391.392 4.396 391.122 6.25H392.274C392.418 5.026 393.354 4.684 394.488 4.684C395.766 4.684 396.522 5.152 396.63 6.628V7.456ZM399.591 3.964L403.335 13L401.967 16.456H403.155L408.141 3.964H406.971L403.947 11.524L400.905 3.964H399.591ZM417.11 10.588C417.11 11.812 416.984 13.27 419.27 13.27C419.63 13.27 420.026 13.198 420.368 13.108V12.172C420.08 12.262 419.756 12.28 419.432 12.28C418.604 12.28 418.172 11.83 418.19 11.002V4.954H420.242V3.964H418.19V1.57L417.11 2.038V3.964H415.31V4.954H417.11V10.588ZM424.131 0.00399888H423.051V13H424.131V7.798C424.131 6.178 424.941 4.684 426.723 4.684C428.199 4.684 429.099 5.602 429.099 7.168V13H430.179V7.348C430.179 6.304 429.945 3.694 426.993 3.694C425.823 3.694 424.797 4.216 424.167 5.332H424.131V0.00399888ZM434.151 10.48C434.151 8.212 437.355 8.5 438.885 8.446C438.993 10.336 438.543 12.28 436.185 12.28C435.087 12.28 434.151 11.704 434.151 10.48ZM438.885 7.456C437.571 7.528 436.005 7.348 434.799 7.87C433.719 8.32 432.981 9.256 432.981 10.48C432.981 12.244 434.313 13.27 435.987 13.27C437.211 13.27 438.417 12.55 438.813 11.794L438.867 11.668H438.903L438.939 13H440.055C440.019 12.388 439.947 11.668 439.965 10.966V6.682C440.001 4.612 438.759 3.694 436.761 3.694C435.033 3.694 433.647 4.396 433.377 6.25H434.529C434.673 5.026 435.609 4.684 436.743 4.684C438.021 4.684 438.777 5.152 438.885 6.628V7.456ZM444.267 10.588C444.267 11.812 444.141 13.27 446.427 13.27C446.787 13.27 447.183 13.198 447.525 13.108V12.172C447.237 12.262 446.913 12.28 446.589 12.28C445.761 12.28 445.329 11.83 445.347 11.002V4.954H447.399V3.964H445.347V1.57L444.267 2.038V3.964H442.467V4.954H444.267V10.588ZM455.954 3.964V13H457.034V3.964H455.954ZM457.124 0.00399888H455.864V1.354H457.124V0.00399888ZM461.421 10.588C461.421 11.812 461.295 13.27 463.581 13.27C463.941 13.27 464.337 13.198 464.679 13.108V12.172C464.391 12.262 464.067 12.28 463.743 12.28C462.915 12.28 462.483 11.83 462.501 11.002V4.954H464.553V3.964H462.501V1.57L461.421 2.038V3.964H459.621V4.954H461.421V10.588ZM479.967 6.736C479.877 4.81 478.365 3.694 476.511 3.694C473.829 3.694 472.479 6.034 472.479 8.482C472.479 10.948 473.739 13.27 476.439 13.27C478.491 13.27 479.679 12.244 479.967 10.174H478.797C478.707 11.416 477.735 12.28 476.331 12.28C474.675 12.28 473.649 10.534 473.649 8.464C473.649 6.412 474.675 4.684 476.331 4.684C477.825 4.684 478.707 5.35 478.797 6.736H479.967ZM483.891 7.564C483.927 5.836 484.773 4.684 486.375 4.684C486.591 4.684 486.825 4.738 487.041 4.756V3.712C486.681 3.694 486.321 3.676 485.961 3.694C485.061 3.73 484.251 4.378 483.927 5.296H483.891L483.837 3.964H482.721C482.757 4.576 482.829 5.296 482.811 5.998V13H483.891V7.564ZM497.139 8.734C497.139 5.908 496.041 3.694 493.017 3.694C490.335 3.694 488.985 6.034 488.985 8.482C488.985 10.948 490.245 13.27 492.945 13.27C495.123 13.27 496.473 12.28 497.031 10.12H495.897C495.627 11.362 494.565 12.28 493.287 12.28C491.073 12.28 490.191 10.66 490.155 8.734H497.139ZM490.191 7.744C490.335 6.16 491.271 4.684 493.035 4.684C494.907 4.684 495.843 5.998 495.969 7.744H490.191ZM500.625 10.48C500.625 8.212 503.829 8.5 505.359 8.446C505.467 10.336 505.017 12.28 502.659 12.28C501.561 12.28 500.625 11.704 500.625 10.48ZM505.359 7.456C504.045 7.528 502.479 7.348 501.273 7.87C500.193 8.32 499.455 9.256 499.455 10.48C499.455 12.244 500.787 13.27 502.461 13.27C503.685 13.27 504.891 12.55 505.287 11.794L505.341 11.668H505.377L505.413 13H506.529C506.493 12.388 506.421 11.668 506.439 10.966V6.682C506.475 4.612 505.233 3.694 503.235 3.694C501.507 3.694 500.121 4.396 499.851 6.25H501.003C501.147 5.026 502.083 4.684 503.217 4.684C504.495 4.684 505.251 5.152 505.359 6.628V7.456ZM510.741 10.588C510.741 11.812 510.615 13.27 512.901 13.27C513.261 13.27 513.657 13.198 513.999 13.108V12.172C513.711 12.262 513.387 12.28 513.063 12.28C512.235 12.28 511.803 11.83 511.821 11.002V4.954H513.873V3.964H511.821V1.57L510.741 2.038V3.964H508.941V4.954H510.741V10.588ZM524.295 8.734C524.295 5.908 523.197 3.694 520.173 3.694C517.491 3.694 516.141 6.034 516.141 8.482C516.141 10.948 517.401 13.27 520.101 13.27C522.279 13.27 523.629 12.28 524.187 10.12H523.053C522.783 11.362 521.721 12.28 520.443 12.28C518.229 12.28 517.347 10.66 517.311 8.734H524.295ZM517.347 7.744C517.491 6.16 518.427 4.684 520.191 4.684C522.063 4.684 522.999 5.998 523.125 7.744H517.347ZM527.097 6.214C527.097 7.888 528.537 8.302 529.959 8.644C531.399 8.968 532.821 9.184 532.821 10.48C532.821 11.74 531.615 12.28 530.463 12.28C529.239 12.28 528.051 11.884 527.961 10.534H526.791C526.827 12.532 528.627 13.27 530.193 13.27C532.101 13.27 533.991 12.352 533.991 10.318C533.991 9.346 533.397 8.536 532.461 8.212C530.013 7.348 528.267 7.474 528.267 6.142C528.267 5.08 529.293 4.684 530.301 4.684C531.417 4.684 532.425 5.062 532.533 6.196H533.703C533.559 4.288 532.119 3.694 530.409 3.694C528.825 3.694 527.097 4.342 527.097 6.214ZM1.818 38.48C1.818 36.212 5.022 36.5 6.552 36.446C6.66 38.336 6.21 40.28 3.852 40.28C2.754 40.28 1.818 39.704 1.818 38.48ZM6.552 35.456C5.238 35.528 3.672 35.348 2.466 35.87C1.386 36.32 0.648 37.256 0.648 38.48C0.648 40.244 1.98 41.27 3.654 41.27C4.878 41.27 6.084 40.55 6.48 39.794L6.534 39.668H6.57L6.606 41H7.722C7.686 40.388 7.614 39.668 7.632 38.966V34.682C7.668 32.612 6.426 31.694 4.428 31.694C2.7 31.694 1.314 32.396 1.044 34.25H2.196C2.34 33.026 3.276 32.684 4.41 32.684C5.688 32.684 6.444 33.152 6.552 34.628V35.456ZM22.7578 31.964V41H23.8378V31.964H22.7578ZM23.9278 28.004H22.6678V29.354H23.9278V28.004ZM18.7438 41V32.954H20.7958V31.964H18.7438V30.812C18.6898 29.516 18.7258 28.778 20.2018 28.778C20.4178 28.778 20.6518 28.814 20.8678 28.85V27.986C20.5438 27.914 20.1838 27.788 19.8418 27.788C18.2938 27.788 17.6638 28.49 17.6638 30.038V31.964H15.8458V32.954H17.6638V41H18.7438ZM34.4877 34.736C34.3977 32.81 32.8857 31.694 31.0317 31.694C28.3497 31.694 26.9997 34.034 26.9997 36.482C26.9997 38.948 28.2597 41.27 30.9597 41.27C33.0117 41.27 34.1997 40.244 34.4877 38.174H33.3177C33.2277 39.416 32.2557 40.28 30.8517 40.28C29.1957 40.28 28.1697 38.534 28.1697 36.464C28.1697 34.412 29.1957 32.684 30.8517 32.684C32.3457 32.684 33.2277 33.35 33.3177 34.736H34.4877ZM38.1057 38.588C38.1057 39.812 37.9797 41.27 40.2657 41.27C40.6257 41.27 41.0217 41.198 41.3637 41.108V40.172C41.0757 40.262 40.7517 40.28 40.4277 40.28C39.5997 40.28 39.1677 39.83 39.1857 39.002V32.954H41.2377V31.964H39.1857V29.57L38.1057 30.038V31.964H36.3057V32.954H38.1057V38.588ZM44.0639 31.964V41H45.1439V31.964H44.0639ZM45.2339 28.004H43.9739V29.354H45.2339V28.004ZM55.3621 36.482C55.3621 38.156 54.4981 40.28 52.3201 40.28C50.1421 40.28 49.2781 38.156 49.2781 36.482C49.2781 34.808 50.1421 32.684 52.3201 32.684C54.4981 32.684 55.3621 34.808 55.3621 36.482ZM52.3201 31.694C49.4401 31.694 48.1081 34.106 48.1081 36.482C48.1081 38.858 49.4401 41.27 52.3201 41.27C55.2001 41.27 56.5321 38.858 56.5321 36.482C56.5321 34.106 55.2001 31.694 52.3201 31.694ZM60.558 35.798C60.558 34.178 61.368 32.684 63.15 32.684C64.626 32.684 65.526 33.602 65.526 35.168V41H66.606V35.348C66.606 34.304 66.372 31.694 63.42 31.694C62.25 31.694 61.224 32.216 60.594 33.332L60.558 33.296L60.504 31.964H59.388C59.424 32.576 59.478 33.296 59.478 33.998V41H60.558V35.798ZM75.9658 31.964H74.7778L78.0898 41H79.1878L82.0138 33.206H82.0498L84.8218 41H85.8478L89.2138 31.964H88.0258L85.4158 39.506H85.3798L82.7158 31.964H81.4378L78.7018 39.578H78.6658L75.9658 31.964ZM91.6619 31.964V41H92.7419V31.964H91.6619ZM92.8319 28.004H91.5719V29.354H92.8319V28.004ZM97.1281 38.588C97.1281 39.812 97.0021 41.27 99.2881 41.27C99.6481 41.27 100.044 41.198 100.386 41.108V40.172C100.098 40.262 99.7741 40.28 99.4501 40.28C98.6221 40.28 98.1901 39.83 98.2081 39.002V32.954H100.26V31.964H98.2081V29.57L97.1281 30.038V31.964H95.3281V32.954H97.1281V38.588ZM104.148 28.004H103.068V41H104.148V35.798C104.148 34.178 104.958 32.684 106.74 32.684C108.216 32.684 109.116 33.602 109.116 35.168V41H110.196V35.348C110.196 34.304 109.962 31.694 107.01 31.694C105.84 31.694 104.814 32.216 104.184 33.332H104.148V28.004ZM120.42 36.266C120.42 34.43 121.23 32.684 123.336 32.684C125.388 32.684 126.09 34.592 126.09 36.32C126.09 37.994 125.568 40.28 123.498 40.28C121.14 40.28 120.42 38.318 120.42 36.266ZM120.42 39.596H120.456C121.194 40.676 122.292 41.27 123.606 41.27C126.234 41.27 127.26 38.714 127.26 36.446C127.26 34.106 126.234 31.694 123.552 31.694C122.346 31.694 121.086 32.27 120.456 33.332L120.42 33.296L120.366 31.964H119.25C119.286 32.576 119.358 33.296 119.34 33.998V44.456H120.42V39.596ZM131.322 35.564C131.358 33.836 132.204 32.684 133.806 32.684C134.022 32.684 134.256 32.738 134.472 32.756V31.712C134.112 31.694 133.752 31.676 133.392 31.694C132.492 31.73 131.682 32.378 131.358 33.296H131.322L131.268 31.964H130.152C130.188 32.576 130.26 33.296 130.242 33.998V41H131.322V35.564ZM144.57 36.734C144.57 33.908 143.472 31.694 140.448 31.694C137.766 31.694 136.416 34.034 136.416 36.482C136.416 38.948 137.676 41.27 140.376 41.27C142.554 41.27 143.904 40.28 144.462 38.12H143.328C143.058 39.362 141.996 40.28 140.718 40.28C138.504 40.28 137.622 38.66 137.586 36.734H144.57ZM137.622 35.744C137.766 34.16 138.702 32.684 140.466 32.684C142.338 32.684 143.274 33.998 143.4 35.744H137.622ZM147.372 34.214C147.372 35.888 148.812 36.302 150.234 36.644C151.674 36.968 153.096 37.184 153.096 38.48C153.096 39.74 151.89 40.28 150.738 40.28C149.514 40.28 148.326 39.884 148.236 38.534H147.066C147.102 40.532 148.902 41.27 150.468 41.27C152.376 41.27 154.266 40.352 154.266 38.318C154.266 37.346 153.672 36.536 152.736 36.212C150.288 35.348 148.542 35.474 148.542 34.142C148.542 33.08 149.568 32.684 150.576 32.684C151.692 32.684 152.7 33.062 152.808 34.196H153.978C153.834 32.288 152.394 31.694 150.684 31.694C149.1 31.694 147.372 32.342 147.372 34.214ZM165.012 36.734C165.012 33.908 163.914 31.694 160.89 31.694C158.208 31.694 156.858 34.034 156.858 36.482C156.858 38.948 158.118 41.27 160.818 41.27C162.996 41.27 164.346 40.28 164.904 38.12H163.77C163.5 39.362 162.438 40.28 161.16 40.28C158.946 40.28 158.064 38.66 158.028 36.734H165.012ZM158.064 35.744C158.208 34.16 159.144 32.684 160.908 32.684C162.78 32.684 163.716 33.998 163.842 35.744H158.064ZM169.2 35.798C169.2 34.178 170.01 32.684 171.792 32.684C173.268 32.684 174.168 33.602 174.168 35.168V41H175.248V35.348C175.248 34.304 175.014 31.694 172.062 31.694C170.892 31.694 169.866 32.216 169.236 33.332L169.2 33.296L169.146 31.964H168.03C168.066 32.576 168.12 33.296 168.12 33.998V41H169.2V35.798ZM179.616 38.588C179.616 39.812 179.49 41.27 181.776 41.27C182.136 41.27 182.532 41.198 182.874 41.108V40.172C182.586 40.262 182.262 40.28 181.938 40.28C181.11 40.28 180.678 39.83 180.696 39.002V32.954H182.748V31.964H180.696V29.57L179.616 30.038V31.964H177.816V32.954H179.616V38.588ZM192.186 36.266C192.186 34.43 192.996 32.684 195.102 32.684C197.154 32.684 197.856 34.592 197.856 36.32C197.856 37.994 197.334 40.28 195.264 40.28C192.906 40.28 192.186 38.318 192.186 36.266ZM192.186 39.596H192.222C192.96 40.676 194.058 41.27 195.372 41.27C198 41.27 199.026 38.714 199.026 36.446C199.026 34.106 198 31.694 195.318 31.694C194.112 31.694 192.852 32.27 192.222 33.332L192.186 33.296L192.132 31.964H191.016C191.052 32.576 191.124 33.296 191.106 33.998V44.456H192.186V39.596ZM203.088 35.564C203.124 33.836 203.97 32.684 205.572 32.684C205.788 32.684 206.022 32.738 206.238 32.756V31.712C205.878 31.694 205.518 31.676 205.158 31.694C204.258 31.73 203.448 32.378 203.124 33.296H203.088L203.034 31.964H201.918C201.954 32.576 202.026 33.296 202.008 33.998V41H203.088V35.564ZM215.328 36.482C215.328 38.156 214.464 40.28 212.286 40.28C210.108 40.28 209.244 38.156 209.244 36.482C209.244 34.808 210.108 32.684 212.286 32.684C214.464 32.684 215.328 34.808 215.328 36.482ZM212.286 31.694C209.406 31.694 208.074 34.106 208.074 36.482C208.074 38.858 209.406 41.27 212.286 41.27C215.166 41.27 216.498 38.858 216.498 36.482C216.498 34.106 215.166 31.694 212.286 31.694ZM223.26 32.684C225.312 32.684 226.014 34.628 226.014 36.356C226.014 38.03 225.492 40.28 223.422 40.28C221.064 40.28 220.344 38.354 220.344 36.302C220.344 34.466 221.154 32.684 223.26 32.684ZM220.344 39.668L220.38 39.596C221.118 40.676 222.216 41.27 223.53 41.27C226.158 41.27 227.184 38.714 227.184 36.446C227.184 34.106 226.158 31.694 223.476 31.694C222.27 31.694 221.01 32.27 220.38 33.332L220.344 33.296V28.004H219.264V38.966C219.264 39.668 219.21 40.388 219.174 41H220.29L220.344 39.668ZM231.264 28.004H230.184V41H231.264V28.004ZM242.49 36.734C242.49 33.908 241.392 31.694 238.368 31.694C235.686 31.694 234.336 34.034 234.336 36.482C234.336 38.948 235.596 41.27 238.296 41.27C240.474 41.27 241.824 40.28 242.382 38.12H241.248C240.978 39.362 239.916 40.28 238.638 40.28C236.424 40.28 235.542 38.66 235.506 36.734H242.49ZM235.542 35.744C235.686 34.16 236.622 32.684 238.386 32.684C240.258 32.684 241.194 33.998 241.32 35.744H235.542ZM246.606 31.964H245.49C245.526 32.576 245.58 33.296 245.58 33.998V41H246.66V35.798C246.66 34.178 247.47 32.684 249.252 32.684C250.728 32.684 251.628 33.602 251.628 35.168V41H252.708V35.798C252.708 34.178 253.518 32.684 255.3 32.684C256.776 32.684 257.676 33.602 257.676 35.168V41H258.756V35.348C258.756 34.304 258.522 31.694 255.57 31.694C254.166 31.694 253.122 32.612 252.456 33.674C252.06 32.486 250.944 31.694 249.522 31.694C248.352 31.694 247.326 32.216 246.696 33.332L246.66 33.296L246.606 31.964ZM262.692 38.48C262.692 36.212 265.896 36.5 267.426 36.446C267.534 38.336 267.084 40.28 264.726 40.28C263.628 40.28 262.692 39.704 262.692 38.48ZM267.426 35.456C266.112 35.528 264.546 35.348 263.34 35.87C262.26 36.32 261.522 37.256 261.522 38.48C261.522 40.244 262.854 41.27 264.528 41.27C265.752 41.27 266.958 40.55 267.354 39.794L267.408 39.668H267.444L267.48 41H268.596C268.56 40.388 268.488 39.668 268.506 38.966V34.682C268.542 32.612 267.3 31.694 265.302 31.694C263.574 31.694 262.188 32.396 261.918 34.25H263.07C263.214 33.026 264.15 32.684 265.284 32.684C266.562 32.684 267.318 33.152 267.426 34.628V35.456ZM272.808 38.588C272.808 39.812 272.682 41.27 274.968 41.27C275.328 41.27 275.724 41.198 276.066 41.108V40.172C275.778 40.262 275.454 40.28 275.13 40.28C274.302 40.28 273.87 39.83 273.888 39.002V32.954H275.94V31.964H273.888V29.57L272.808 30.038V31.964H271.008V32.954H272.808V38.588ZM278.766 31.964V41H279.846V31.964H278.766ZM279.936 28.004H278.676V29.354H279.936V28.004ZM290.335 34.736C290.245 32.81 288.733 31.694 286.879 31.694C284.197 31.694 282.847 34.034 282.847 36.482C282.847 38.948 284.107 41.27 286.807 41.27C288.859 41.27 290.047 40.244 290.335 38.174H289.165C289.075 39.416 288.103 40.28 286.699 40.28C285.043 40.28 284.017 38.534 284.017 36.464C284.017 34.412 285.043 32.684 286.699 32.684C288.193 32.684 289.075 33.35 289.165 34.736H290.335ZM292.873 34.214C292.873 35.888 294.313 36.302 295.735 36.644C297.175 36.968 298.597 37.184 298.597 38.48C298.597 39.74 297.391 40.28 296.239 40.28C295.015 40.28 293.827 39.884 293.737 38.534H292.567C292.603 40.532 294.403 41.27 295.969 41.27C297.877 41.27 299.767 40.352 299.767 38.318C299.767 37.346 299.173 36.536 298.237 36.212C295.789 35.348 294.043 35.474 294.043 34.142C294.043 33.08 295.069 32.684 296.077 32.684C297.193 32.684 298.201 33.062 298.309 34.196H299.479C299.335 32.288 297.895 31.694 296.185 31.694C294.601 31.694 292.873 32.342 292.873 34.214ZM304.681 41V39.452H303.241V41H304.681ZM316.014 41V27.95H314.844V41H316.014ZM320.862 38.588C320.862 39.812 320.736 41.27 323.022 41.27C323.382 41.27 323.778 41.198 324.12 41.108V40.172C323.832 40.262 323.508 40.28 323.184 40.28C322.356 40.28 321.924 39.83 321.942 39.002V32.954H323.994V31.964H321.942V29.57L320.862 30.038V31.964H319.062V32.954H320.862V38.588ZM332.55 31.964V41H333.63V31.964H332.55ZM333.72 28.004H332.46V29.354H333.72V28.004ZM336.936 34.214C336.936 35.888 338.376 36.302 339.798 36.644C341.238 36.968 342.66 37.184 342.66 38.48C342.66 39.74 341.454 40.28 340.302 40.28C339.078 40.28 337.89 39.884 337.8 38.534H336.63C336.666 40.532 338.466 41.27 340.032 41.27C341.94 41.27 343.83 40.352 343.83 38.318C343.83 37.346 343.236 36.536 342.3 36.212C339.852 35.348 338.106 35.474 338.106 34.142C338.106 33.08 339.132 32.684 340.14 32.684C341.256 32.684 342.264 33.062 342.372 34.196H343.542C343.398 32.288 341.958 31.694 340.248 31.694C338.664 31.694 336.936 32.342 336.936 34.214ZM353.79 28.004H352.71V41H353.79V28.004ZM364.008 36.482C364.008 38.156 363.144 40.28 360.966 40.28C358.788 40.28 357.924 38.156 357.924 36.482C357.924 34.808 358.788 32.684 360.966 32.684C363.144 32.684 364.008 34.808 364.008 36.482ZM360.966 31.694C358.086 31.694 356.754 34.106 356.754 36.482C356.754 38.858 358.086 41.27 360.966 41.27C363.846 41.27 365.178 38.858 365.178 36.482C365.178 34.106 363.846 31.694 360.966 31.694ZM375 34.736C374.91 32.81 373.398 31.694 371.544 31.694C368.862 31.694 367.512 34.034 367.512 36.482C367.512 38.948 368.772 41.27 371.472 41.27C373.524 41.27 374.712 40.244 375 38.174H373.83C373.74 39.416 372.768 40.28 371.364 40.28C369.708 40.28 368.682 38.534 368.682 36.464C368.682 34.412 369.708 32.684 371.364 32.684C372.858 32.684 373.74 33.35 373.83 34.736H375ZM378.222 38.48C378.222 36.212 381.426 36.5 382.956 36.446C383.064 38.336 382.614 40.28 380.256 40.28C379.158 40.28 378.222 39.704 378.222 38.48ZM382.956 35.456C381.642 35.528 380.076 35.348 378.87 35.87C377.79 36.32 377.052 37.256 377.052 38.48C377.052 40.244 378.384 41.27 380.058 41.27C381.282 41.27 382.488 40.55 382.884 39.794L382.938 39.668H382.974L383.01 41H384.126C384.09 40.388 384.018 39.668 384.036 38.966V34.682C384.072 32.612 382.83 31.694 380.832 31.694C379.104 31.694 377.718 32.396 377.448 34.25H378.6C378.744 33.026 379.68 32.684 380.814 32.684C382.092 32.684 382.848 33.152 382.956 34.628V35.456ZM388.338 38.588C388.338 39.812 388.212 41.27 390.498 41.27C390.858 41.27 391.254 41.198 391.596 41.108V40.172C391.308 40.262 390.984 40.28 390.66 40.28C389.832 40.28 389.4 39.83 389.418 39.002V32.954H391.47V31.964H389.418V29.57L388.338 30.038V31.964H386.538V32.954H388.338V38.588ZM401.892 36.734C401.892 33.908 400.794 31.694 397.77 31.694C395.088 31.694 393.738 34.034 393.738 36.482C393.738 38.948 394.998 41.27 397.698 41.27C399.876 41.27 401.226 40.28 401.784 38.12H400.65C400.38 39.362 399.318 40.28 398.04 40.28C395.826 40.28 394.944 38.66 394.908 36.734H401.892ZM394.944 35.744C395.088 34.16 396.024 32.684 397.788 32.684C399.66 32.684 400.596 33.998 400.722 35.744H394.944ZM411.192 36.266C411.192 38.318 410.472 40.28 408.114 40.28C406.044 40.28 405.558 37.994 405.558 36.32C405.558 34.592 406.224 32.684 408.276 32.684C410.382 32.684 411.192 34.43 411.192 36.266ZM411.282 41H412.398C412.362 40.388 412.308 39.668 412.308 38.966V28.004H411.228V33.296L411.192 33.332C410.562 32.27 409.302 31.694 408.096 31.694C405.414 31.694 404.388 34.106 404.388 36.446C404.388 38.714 405.414 41.27 408.096 41.27C409.356 41.27 410.454 40.676 411.192 39.596L411.228 39.668L411.282 41ZM421.47 31.964V41H422.55V31.964H421.47ZM422.64 28.004H421.38V29.354H422.64V28.004ZM427.242 35.798C427.242 34.178 428.052 32.684 429.834 32.684C431.31 32.684 432.21 33.602 432.21 35.168V41H433.29V35.348C433.29 34.304 433.056 31.694 430.104 31.694C428.934 31.694 427.908 32.216 427.278 33.332L427.242 33.296L427.188 31.964H426.072C426.108 32.576 426.162 33.296 426.162 33.998V41H427.242V35.798ZM443.388 38.588C443.388 39.812 443.262 41.27 445.548 41.27C445.908 41.27 446.304 41.198 446.646 41.108V40.172C446.358 40.262 446.034 40.28 445.71 40.28C444.882 40.28 444.45 39.83 444.468 39.002V32.954H446.52V31.964H444.468V29.57L443.388 30.038V31.964H441.588V32.954H443.388V38.588ZM450.408 28.004H449.328V41H450.408V35.798C450.408 34.178 451.218 32.684 453 32.684C454.476 32.684 455.376 33.602 455.376 35.168V41H456.456V35.348C456.456 34.304 456.222 31.694 453.27 31.694C452.1 31.694 451.074 32.216 450.444 33.332H450.408V28.004ZM467.664 36.734C467.664 33.908 466.566 31.694 463.542 31.694C460.86 31.694 459.51 34.034 459.51 36.482C459.51 38.948 460.77 41.27 463.47 41.27C465.648 41.27 466.998 40.28 467.556 38.12H466.422C466.152 39.362 465.09 40.28 463.812 40.28C461.598 40.28 460.716 38.66 460.68 36.734H467.664ZM460.716 35.744C460.86 34.16 461.796 32.684 463.56 32.684C465.432 32.684 466.368 33.998 466.494 35.744H460.716ZM482.369 31.964V41H483.449V31.964H482.369ZM483.539 28.004H482.279V29.354H483.539V28.004ZM478.355 41V32.954H480.407V31.964H478.355V30.812C478.301 29.516 478.337 28.778 479.813 28.778C480.029 28.778 480.263 28.814 480.479 28.85V27.986C480.155 27.914 479.795 27.788 479.453 27.788C477.905 27.788 477.275 28.49 477.275 30.038V31.964H475.457V32.954H477.275V41H478.355ZM488.303 35.798C488.303 34.178 489.113 32.684 490.895 32.684C492.371 32.684 493.271 33.602 493.271 35.168V41H494.351V35.348C494.351 34.304 494.117 31.694 491.165 31.694C489.995 31.694 488.969 32.216 488.339 33.332L488.303 33.296L488.249 31.964H487.133C487.169 32.576 487.223 33.296 487.223 33.998V41H488.303V35.798ZM505.559 36.734C505.559 33.908 504.461 31.694 501.437 31.694C498.755 31.694 497.405 34.034 497.405 36.482C497.405 38.948 498.665 41.27 501.365 41.27C503.543 41.27 504.893 40.28 505.451 38.12H504.317C504.047 39.362 502.985 40.28 501.707 40.28C499.493 40.28 498.611 38.66 498.575 36.734H505.559ZM498.611 35.744C498.755 34.16 499.691 32.684 501.455 32.684C503.327 32.684 504.263 33.998 504.389 35.744H498.611ZM515.495 28.004H514.415V41H515.495V28.004ZM519.125 31.964V41H520.205V31.964H519.125ZM520.295 28.004H519.035V29.354H520.295V28.004ZM524.898 35.798C524.898 34.178 525.708 32.684 527.49 32.684C528.966 32.684 529.866 33.602 529.866 35.168V41H530.946V35.348C530.946 34.304 530.712 31.694 527.76 31.694C526.59 31.694 525.564 32.216 524.934 33.332L524.898 33.296L524.844 31.964H523.728C523.764 32.576 523.818 33.296 523.818 33.998V41H524.898V35.798ZM542.154 36.734C542.154 33.908 541.056 31.694 538.032 31.694C535.35 31.694 534 34.034 534 36.482C534 38.948 535.26 41.27 537.96 41.27C540.138 41.27 541.488 40.28 542.046 38.12H540.912C540.642 39.362 539.58 40.28 538.302 40.28C536.088 40.28 535.206 38.66 535.17 36.734H542.154ZM535.206 35.744C535.35 34.16 536.286 32.684 538.05 32.684C539.922 32.684 540.858 33.998 540.984 35.744H535.206ZM5.256 60.684C7.308 60.684 8.01 62.628 8.01 64.356C8.01 66.03 7.488 68.28 5.418 68.28C3.06 68.28 2.34 66.354 2.34 64.302C2.34 62.466 3.15 60.684 5.256 60.684ZM2.34 67.668L2.376 67.596C3.114 68.676 4.212 69.27 5.526 69.27C8.154 69.27 9.18 66.714 9.18 64.446C9.18 62.106 8.154 59.694 5.472 59.694C4.266 59.694 3.006 60.27 2.376 61.332L2.34 61.296V56.004H1.26V66.966C1.26 67.668 1.206 68.388 1.17 69H2.286L2.34 67.668ZM19.776 64.734C19.776 61.908 18.678 59.694 15.654 59.694C12.972 59.694 11.622 62.034 11.622 64.482C11.622 66.948 12.882 69.27 15.582 69.27C17.76 69.27 19.11 68.28 19.668 66.12H18.534C18.264 67.362 17.202 68.28 15.924 68.28C13.71 68.28 12.828 66.66 12.792 64.734H19.776ZM12.828 63.744C12.972 62.16 13.908 60.684 15.672 60.684C17.544 60.684 18.48 61.998 18.606 63.744H12.828ZM23.6579 66.588C23.6579 67.812 23.5319 69.27 25.8179 69.27C26.1779 69.27 26.5739 69.198 26.9159 69.108V68.172C26.6279 68.262 26.3039 68.28 25.9799 68.28C25.1519 68.28 24.7199 67.83 24.7379 67.002V60.954H26.7899V59.964H24.7379V57.57L23.6579 58.038V59.964H21.8579V60.954H23.6579V66.588ZM29.9856 59.964H28.7976L32.1096 69H33.2076L36.0336 61.206H36.0696L38.8416 69H39.8676L43.2336 59.964H42.0456L39.4356 67.506H39.3996L36.7356 59.964H35.4576L32.7216 67.578H32.6856L29.9856 59.964ZM52.9262 64.734C52.9262 61.908 51.8282 59.694 48.8042 59.694C46.1222 59.694 44.7722 62.034 44.7722 64.482C44.7722 66.948 46.0322 69.27 48.7322 69.27C50.9102 69.27 52.2602 68.28 52.8182 66.12H51.6842C51.4142 67.362 50.3522 68.28 49.0742 68.28C46.8602 68.28 45.9782 66.66 45.9422 64.734H52.9262ZM45.9782 63.744C46.1222 62.16 47.0582 60.684 48.8222 60.684C50.6942 60.684 51.6302 61.998 51.7562 63.744H45.9782ZM63.6481 64.734C63.6481 61.908 62.5501 59.694 59.5261 59.694C56.8441 59.694 55.4941 62.034 55.4941 64.482C55.4941 66.948 56.7541 69.27 59.4541 69.27C61.6321 69.27 62.9821 68.28 63.5401 66.12H62.4061C62.1361 67.362 61.0741 68.28 59.7961 68.28C57.5821 68.28 56.7001 66.66 56.6641 64.734H63.6481ZM56.7001 63.744C56.8441 62.16 57.7801 60.684 59.5441 60.684C61.4161 60.684 62.3521 61.998 62.4781 63.744H56.7001ZM67.8361 63.798C67.8361 62.178 68.6461 60.684 70.4281 60.684C71.9041 60.684 72.8041 61.602 72.8041 63.168V69H73.8841V63.348C73.8841 62.304 73.6501 59.694 70.6981 59.694C69.5281 59.694 68.5021 60.216 67.8721 61.332L67.8361 61.296L67.7821 59.964H66.6661C66.7021 60.576 66.7561 61.296 66.7561 61.998V69H67.8361V63.798ZM84.2878 63.564C84.3238 61.836 85.1698 60.684 86.7718 60.684C86.9878 60.684 87.2218 60.738 87.4378 60.756V59.712C87.0778 59.694 86.7178 59.676 86.3578 59.694C85.4578 59.73 84.6478 60.378 84.3238 61.296H84.2878L84.2338 59.964H83.1178C83.1538 60.576 83.2258 61.296 83.2078 61.998V69H84.2878V63.564ZM97.536 64.734C97.536 61.908 96.438 59.694 93.414 59.694C90.732 59.694 89.382 62.034 89.382 64.482C89.382 66.948 90.642 69.27 93.342 69.27C95.52 69.27 96.87 68.28 97.428 66.12H96.294C96.024 67.362 94.962 68.28 93.684 68.28C91.47 68.28 90.588 66.66 90.552 64.734H97.536ZM90.588 63.744C90.732 62.16 91.668 60.684 93.432 60.684C95.304 60.684 96.24 61.998 96.366 63.744H90.588ZM101.022 66.48C101.022 64.212 104.226 64.5 105.756 64.446C105.864 66.336 105.414 68.28 103.056 68.28C101.958 68.28 101.022 67.704 101.022 66.48ZM105.756 63.456C104.442 63.528 102.876 63.348 101.67 63.87C100.59 64.32 99.8519 65.256 99.8519 66.48C99.8519 68.244 101.184 69.27 102.858 69.27C104.082 69.27 105.288 68.55 105.684 67.794L105.738 67.668H105.774L105.81 69H106.926C106.89 68.388 106.818 67.668 106.836 66.966V62.682C106.872 60.612 105.63 59.694 103.632 59.694C101.904 59.694 100.518 60.396 100.248 62.25H101.4C101.544 61.026 102.48 60.684 103.614 60.684C104.892 60.684 105.648 61.152 105.756 62.628V63.456ZM111.462 56.004H110.382V69H111.462V56.004ZM115.092 59.964V69H116.172V59.964H115.092ZM116.262 56.004H115.002V57.354H116.262V56.004ZM120.558 66.588C120.558 67.812 120.432 69.27 122.718 69.27C123.078 69.27 123.474 69.198 123.816 69.108V68.172C123.528 68.262 123.204 68.28 122.88 68.28C122.052 68.28 121.62 67.83 121.638 67.002V60.954H123.69V59.964H121.638V57.57L120.558 58.038V59.964H118.758V60.954H120.558V66.588ZM125.554 59.964L129.298 69L127.93 72.456H129.118L134.104 59.964H132.934L129.91 67.524L126.868 59.964H125.554ZM142.678 66.48C142.678 64.212 145.882 64.5 147.412 64.446C147.52 66.336 147.07 68.28 144.712 68.28C143.614 68.28 142.678 67.704 142.678 66.48ZM147.412 63.456C146.098 63.528 144.532 63.348 143.326 63.87C142.246 64.32 141.508 65.256 141.508 66.48C141.508 68.244 142.84 69.27 144.514 69.27C145.738 69.27 146.944 68.55 147.34 67.794L147.394 67.668H147.43L147.466 69H148.582C148.546 68.388 148.474 67.668 148.492 66.966V62.682C148.528 60.612 147.286 59.694 145.288 59.694C143.56 59.694 142.174 60.396 141.904 62.25H143.056C143.2 61.026 144.136 60.684 145.27 60.684C146.548 60.684 147.304 61.152 147.412 62.628V63.456ZM153.1 63.798C153.1 62.178 153.91 60.684 155.692 60.684C157.168 60.684 158.068 61.602 158.068 63.168V69H159.148V63.348C159.148 62.304 158.914 59.694 155.962 59.694C154.792 59.694 153.766 60.216 153.136 61.332L153.1 61.296L153.046 59.964H151.93C151.966 60.576 152.02 61.296 152.02 61.998V69H153.1V63.798ZM168.934 64.266C168.934 66.318 168.214 68.28 165.856 68.28C163.786 68.28 163.3 65.994 163.3 64.32C163.3 62.592 163.966 60.684 166.018 60.684C168.124 60.684 168.934 62.43 168.934 64.266ZM169.024 69H170.14C170.104 68.388 170.05 67.668 170.05 66.966V56.004H168.97V61.296L168.934 61.332C168.304 60.27 167.044 59.694 165.838 59.694C163.156 59.694 162.13 62.106 162.13 64.446C162.13 66.714 163.156 69.27 165.838 69.27C167.098 69.27 168.196 68.676 168.934 67.596L168.97 67.668L169.024 69ZM185.062 59.964V69H186.142V59.964H185.062ZM186.232 56.004H184.972V57.354H186.232V56.004ZM181.048 69V60.954H183.1V59.964H181.048V58.812C180.994 57.516 181.03 56.778 182.506 56.778C182.722 56.778 182.956 56.814 183.172 56.85V55.986C182.848 55.914 182.488 55.788 182.146 55.788C180.598 55.788 179.968 56.49 179.968 58.038V59.964H178.15V60.954H179.968V69H181.048ZM196.791 62.736C196.701 60.81 195.189 59.694 193.335 59.694C190.653 59.694 189.303 62.034 189.303 64.482C189.303 66.948 190.563 69.27 193.263 69.27C195.315 69.27 196.503 68.244 196.791 66.174H195.621C195.531 67.416 194.559 68.28 193.155 68.28C191.499 68.28 190.473 66.534 190.473 64.464C190.473 62.412 191.499 60.684 193.155 60.684C194.649 60.684 195.531 61.35 195.621 62.736H196.791ZM200.409 66.588C200.409 67.812 200.283 69.27 202.569 69.27C202.929 69.27 203.325 69.198 203.667 69.108V68.172C203.379 68.262 203.055 68.28 202.731 68.28C201.903 68.28 201.471 67.83 201.489 67.002V60.954H203.541V59.964H201.489V57.57L200.409 58.038V59.964H198.609V60.954H200.409V66.588ZM206.368 59.964V69H207.448V59.964H206.368ZM207.538 56.004H206.278V57.354H207.538V56.004ZM217.666 64.482C217.666 66.156 216.802 68.28 214.624 68.28C212.446 68.28 211.582 66.156 211.582 64.482C211.582 62.808 212.446 60.684 214.624 60.684C216.802 60.684 217.666 62.808 217.666 64.482ZM214.624 59.694C211.744 59.694 210.412 62.106 210.412 64.482C210.412 66.858 211.744 69.27 214.624 69.27C217.504 69.27 218.836 66.858 218.836 64.482C218.836 62.106 217.504 59.694 214.624 59.694ZM222.862 63.798C222.862 62.178 223.672 60.684 225.454 60.684C226.93 60.684 227.83 61.602 227.83 63.168V69H228.91V63.348C228.91 62.304 228.676 59.694 225.724 59.694C224.554 59.694 223.528 60.216 222.898 61.332L222.862 61.296L222.808 59.964H221.692C221.728 60.576 221.782 61.296 221.782 61.998V69H222.862V63.798ZM234.286 69V67.452H232.846V69H234.286ZM245.439 69V57.048H245.475L250.443 69H251.613L256.581 56.994H256.617V69H257.787V56.004H256.005L251.019 67.326L246.141 56.004H244.269V69H245.439ZM262.059 66.48C262.059 64.212 265.263 64.5 266.793 64.446C266.901 66.336 266.451 68.28 264.093 68.28C262.995 68.28 262.059 67.704 262.059 66.48ZM266.793 63.456C265.479 63.528 263.913 63.348 262.707 63.87C261.627 64.32 260.889 65.256 260.889 66.48C260.889 68.244 262.221 69.27 263.895 69.27C265.119 69.27 266.325 68.55 266.721 67.794L266.775 67.668H266.811L266.847 69H267.963C267.927 68.388 267.855 67.668 267.873 66.966V62.682C267.909 60.612 266.667 59.694 264.669 59.694C262.941 59.694 261.555 60.396 261.285 62.25H262.437C262.581 61.026 263.517 60.684 264.651 60.684C265.929 60.684 266.685 61.152 266.793 62.628V63.456ZM269.754 59.964L273.498 69L272.13 72.456H273.318L278.304 59.964H277.134L274.11 67.524L271.068 59.964H269.754ZM284.586 60.684C286.638 60.684 287.34 62.628 287.34 64.356C287.34 66.03 286.818 68.28 284.748 68.28C282.39 68.28 281.67 66.354 281.67 64.302C281.67 62.466 282.48 60.684 284.586 60.684ZM281.67 67.668L281.706 67.596C282.444 68.676 283.542 69.27 284.856 69.27C287.484 69.27 288.51 66.714 288.51 64.446C288.51 62.106 287.484 59.694 284.802 59.694C283.596 59.694 282.336 60.27 281.706 61.332L281.67 61.296V56.004H280.59V66.966C280.59 67.668 280.536 68.388 280.5 69H281.616L281.67 67.668ZM299.106 64.734C299.106 61.908 298.008 59.694 294.984 59.694C292.302 59.694 290.952 62.034 290.952 64.482C290.952 66.948 292.212 69.27 294.912 69.27C297.09 69.27 298.44 68.28 298.998 66.12H297.864C297.594 67.362 296.532 68.28 295.254 68.28C293.04 68.28 292.158 66.66 292.122 64.734H299.106ZM292.158 63.744C292.302 62.16 293.238 60.684 295.002 60.684C296.874 60.684 297.81 61.998 297.936 63.744H292.158ZM308.717 66.588C308.717 67.812 308.591 69.27 310.877 69.27C311.237 69.27 311.633 69.198 311.975 69.108V68.172C311.687 68.262 311.363 68.28 311.039 68.28C310.211 68.28 309.779 67.83 309.797 67.002V60.954H311.849V59.964H309.797V57.57L308.717 58.038V59.964H306.917V60.954H308.717V66.588ZM321.264 64.482C321.264 66.156 320.4 68.28 318.222 68.28C316.044 68.28 315.18 66.156 315.18 64.482C315.18 62.808 316.044 60.684 318.222 60.684C320.4 60.684 321.264 62.808 321.264 64.482ZM318.222 59.694C315.342 59.694 314.01 62.106 314.01 64.482C314.01 66.858 315.342 69.27 318.222 69.27C321.102 69.27 322.434 66.858 322.434 64.482C322.434 62.106 321.102 59.694 318.222 59.694ZM330.803 62.214C330.803 63.888 332.243 64.302 333.665 64.644C335.105 64.968 336.527 65.184 336.527 66.48C336.527 67.74 335.321 68.28 334.169 68.28C332.945 68.28 331.757 67.884 331.667 66.534H330.497C330.533 68.532 332.333 69.27 333.899 69.27C335.807 69.27 337.697 68.352 337.697 66.318C337.697 65.346 337.103 64.536 336.167 64.212C333.719 63.348 331.973 63.474 331.973 62.142C331.973 61.08 332.999 60.684 334.007 60.684C335.123 60.684 336.131 61.062 336.239 62.196H337.409C337.265 60.288 335.825 59.694 334.115 59.694C332.531 59.694 330.803 60.342 330.803 62.214ZM341.909 56.004H340.829V69H341.909V63.798C341.909 62.178 342.719 60.684 344.501 60.684C345.977 60.684 346.877 61.602 346.877 63.168V69H347.957V63.348C347.957 62.304 347.723 59.694 344.771 59.694C343.601 59.694 342.575 60.216 341.945 61.332H341.909V56.004ZM358.157 64.482C358.157 66.156 357.293 68.28 355.115 68.28C352.937 68.28 352.073 66.156 352.073 64.482C352.073 62.808 352.937 60.684 355.115 60.684C357.293 60.684 358.157 62.808 358.157 64.482ZM355.115 59.694C352.235 59.694 350.903 62.106 350.903 64.482C350.903 66.858 352.235 69.27 355.115 69.27C357.995 69.27 359.327 66.858 359.327 64.482C359.327 62.106 357.995 59.694 355.115 59.694ZM361.958 59.964H360.77L364.082 69H365.18L368.006 61.206H368.042L370.814 69H371.84L375.206 59.964H374.018L371.408 67.506H371.372L368.708 59.964H367.43L364.694 67.578H364.658L361.958 59.964ZM389.414 65.166C389.414 66.786 388.604 68.28 386.822 68.28C385.346 68.28 384.446 67.362 384.446 65.796V59.964H383.366V65.616C383.366 66.66 383.6 69.27 386.552 69.27C387.722 69.27 388.748 68.748 389.378 67.632L389.414 67.668L389.468 69H390.584C390.548 68.388 390.494 67.668 390.494 66.966V59.964H389.414V65.166ZM393.781 62.214C393.781 63.888 395.221 64.302 396.643 64.644C398.083 64.968 399.505 65.184 399.505 66.48C399.505 67.74 398.299 68.28 397.147 68.28C395.923 68.28 394.735 67.884 394.645 66.534H393.475C393.511 68.532 395.311 69.27 396.877 69.27C398.785 69.27 400.675 68.352 400.675 66.318C400.675 65.346 400.081 64.536 399.145 64.212C396.697 63.348 394.951 63.474 394.951 62.142C394.951 61.08 395.977 60.684 396.985 60.684C398.101 60.684 399.109 61.062 399.217 62.196H400.387C400.243 60.288 398.803 59.694 397.093 59.694C395.509 59.694 393.781 60.342 393.781 62.214ZM410.311 66.588C410.311 67.812 410.185 69.27 412.471 69.27C412.831 69.27 413.227 69.198 413.569 69.108V68.172C413.281 68.262 412.957 68.28 412.633 68.28C411.805 68.28 411.373 67.83 411.391 67.002V60.954H413.443V59.964H411.391V57.57L410.311 58.038V59.964H408.511V60.954H410.311V66.588ZM417.331 56.004H416.251V69H417.331V63.798C417.331 62.178 418.141 60.684 419.923 60.684C421.399 60.684 422.299 61.602 422.299 63.168V69H423.379V63.348C423.379 62.304 423.145 59.694 420.193 59.694C419.023 59.694 417.997 60.216 417.367 61.332H417.331V56.004ZM427.351 66.48C427.351 64.212 430.555 64.5 432.085 64.446C432.193 66.336 431.743 68.28 429.385 68.28C428.287 68.28 427.351 67.704 427.351 66.48ZM432.085 63.456C430.771 63.528 429.205 63.348 427.999 63.87C426.919 64.32 426.181 65.256 426.181 66.48C426.181 68.244 427.513 69.27 429.187 69.27C430.411 69.27 431.617 68.55 432.013 67.794L432.067 67.668H432.103L432.139 69H433.255C433.219 68.388 433.147 67.668 433.165 66.966V62.682C433.201 60.612 431.959 59.694 429.961 59.694C428.233 59.694 426.847 60.396 426.577 62.25H427.729C427.873 61.026 428.809 60.684 429.943 60.684C431.221 60.684 431.977 61.152 432.085 62.628V63.456ZM437.467 66.588C437.467 67.812 437.341 69.27 439.627 69.27C439.987 69.27 440.383 69.198 440.725 69.108V68.172C440.437 68.262 440.113 68.28 439.789 68.28C438.961 68.28 438.529 67.83 438.547 67.002V60.954H440.599V59.964H438.547V57.57L437.467 58.038V59.964H435.667V60.954H437.467V66.588ZM455.005 59.964V69H456.085V59.964H455.005ZM456.175 56.004H454.915V57.354H456.175V56.004ZM450.991 69V60.954H453.043V59.964H450.991V58.812C450.937 57.516 450.973 56.778 452.449 56.778C452.665 56.778 452.899 56.814 453.115 56.85V55.986C452.791 55.914 452.431 55.788 452.089 55.788C450.541 55.788 449.911 56.49 449.911 58.038V59.964H448.093V60.954H449.911V69H450.991ZM466.735 62.736C466.645 60.81 465.133 59.694 463.279 59.694C460.597 59.694 459.247 62.034 459.247 64.482C459.247 66.948 460.507 69.27 463.207 69.27C465.259 69.27 466.447 68.244 466.735 66.174H465.565C465.475 67.416 464.503 68.28 463.099 68.28C461.443 68.28 460.417 66.534 460.417 64.464C460.417 62.412 461.443 60.684 463.099 60.684C464.593 60.684 465.475 61.35 465.565 62.736H466.735ZM470.353 66.588C470.353 67.812 470.227 69.27 472.513 69.27C472.873 69.27 473.269 69.198 473.611 69.108V68.172C473.323 68.262 472.999 68.28 472.675 68.28C471.847 68.28 471.415 67.83 471.433 67.002V60.954H473.485V59.964H471.433V57.57L470.353 58.038V59.964H468.553V60.954H470.353V66.588ZM476.311 59.964V69H477.391V59.964H476.311ZM477.481 56.004H476.221V57.354H477.481V56.004ZM487.61 64.482C487.61 66.156 486.746 68.28 484.568 68.28C482.39 68.28 481.526 66.156 481.526 64.482C481.526 62.808 482.39 60.684 484.568 60.684C486.746 60.684 487.61 62.808 487.61 64.482ZM484.568 59.694C481.688 59.694 480.356 62.106 480.356 64.482C480.356 66.858 481.688 69.27 484.568 69.27C487.448 69.27 488.78 66.858 488.78 64.482C488.78 62.106 487.448 59.694 484.568 59.694ZM492.806 63.798C492.806 62.178 493.616 60.684 495.398 60.684C496.874 60.684 497.774 61.602 497.774 63.168V69H498.854V63.348C498.854 62.304 498.62 59.694 495.668 59.694C494.498 59.694 493.472 60.216 492.842 61.332L492.806 61.296L492.752 59.964H491.636C491.672 60.576 491.726 61.296 491.726 61.998V69H492.806V63.798ZM508.195 59.964V69H509.275V59.964H508.195ZM509.365 56.004H508.105V57.354H509.365V56.004ZM512.582 62.214C512.582 63.888 514.022 64.302 515.444 64.644C516.884 64.968 518.306 65.184 518.306 66.48C518.306 67.74 517.1 68.28 515.948 68.28C514.724 68.28 513.536 67.884 513.446 66.534H512.276C512.312 68.532 514.112 69.27 515.678 69.27C517.586 69.27 519.476 68.352 519.476 66.318C519.476 65.346 518.882 64.536 517.946 64.212C515.498 63.348 513.752 63.474 513.752 62.142C513.752 61.08 514.778 60.684 515.786 60.684C516.902 60.684 517.91 61.062 518.018 62.196H519.188C519.044 60.288 517.604 59.694 515.894 59.694C514.31 59.694 512.582 60.342 512.582 62.214ZM529.417 63.798C529.417 62.178 530.227 60.684 532.009 60.684C533.485 60.684 534.385 61.602 534.385 63.168V69H535.465V63.348C535.465 62.304 535.231 59.694 532.279 59.694C531.109 59.694 530.083 60.216 529.453 61.332L529.417 61.296L529.363 59.964H528.247C528.283 60.576 528.337 61.296 528.337 61.998V69H529.417V63.798ZM545.665 64.482C545.665 66.156 544.801 68.28 542.623 68.28C540.445 68.28 539.581 66.156 539.581 64.482C539.581 62.808 540.445 60.684 542.623 60.684C544.801 60.684 545.665 62.808 545.665 64.482ZM542.623 59.694C539.743 59.694 538.411 62.106 538.411 64.482C538.411 66.858 539.743 69.27 542.623 69.27C545.503 69.27 546.835 66.858 546.835 64.482C546.835 62.106 545.503 59.694 542.623 59.694ZM550.555 66.588C550.555 67.812 550.429 69.27 552.715 69.27C553.075 69.27 553.471 69.198 553.813 69.108V68.172C553.525 68.262 553.201 68.28 552.877 68.28C552.049 68.28 551.617 67.83 551.635 67.002V60.954H553.687V59.964H551.635V57.57L550.555 58.038V59.964H548.755V60.954H550.555V66.588ZM3.294 97V88.954H5.346V87.964H3.294V86.812C3.24 85.516 3.276 84.778 4.752 84.778C4.968 84.778 5.202 84.814 5.418 84.85V83.986C5.094 83.914 4.734 83.788 4.392 83.788C2.844 83.788 2.214 84.49 2.214 86.038V87.964H0.396V88.954H2.214V97H3.294ZM8.18058 94.48C8.18058 92.212 11.3846 92.5 12.9146 92.446C13.0226 94.336 12.5726 96.28 10.2146 96.28C9.11658 96.28 8.18058 95.704 8.18058 94.48ZM12.9146 91.456C11.6006 91.528 10.0346 91.348 8.82858 91.87C7.74858 92.32 7.01058 93.256 7.01058 94.48C7.01058 96.244 8.34258 97.27 10.0166 97.27C11.2406 97.27 12.4466 96.55 12.8426 95.794L12.8966 95.668H12.9326L12.9686 97H14.0846C14.0486 96.388 13.9766 95.668 13.9946 94.966V90.682C14.0306 88.612 12.7886 87.694 10.7906 87.694C9.06258 87.694 7.67658 88.396 7.40658 90.25H8.55858C8.70258 89.026 9.63858 88.684 10.7726 88.684C12.0506 88.684 12.8066 89.152 12.9146 90.628V91.456ZM18.6026 91.564C18.6386 89.836 19.4846 88.684 21.0866 88.684C21.3026 88.684 21.5366 88.738 21.7526 88.756V87.712C21.3926 87.694 21.0326 87.676 20.6726 87.694C19.7726 87.73 18.9626 88.378 18.6386 89.296H18.6026L18.5486 87.964H17.4326C17.4686 88.576 17.5406 89.296 17.5226 89.998V97H18.6026V91.564ZM31.8205 97V88.954H33.8725V87.964H31.8205V86.812C31.7665 85.516 31.8025 84.778 33.2785 84.778C33.4945 84.778 33.7285 84.814 33.9445 84.85V83.986C33.6205 83.914 33.2605 83.788 32.9185 83.788C31.3705 83.788 30.7405 84.49 30.7405 86.038V87.964H28.9225V88.954H30.7405V97H31.8205ZM37.7606 91.564C37.7966 89.836 38.6426 88.684 40.2446 88.684C40.4606 88.684 40.6946 88.738 40.9106 88.756V87.712C40.5506 87.694 40.1906 87.676 39.8306 87.694C38.9306 87.73 38.1206 88.378 37.7966 89.296H37.7606L37.7066 87.964H36.5906C36.6266 88.576 36.6986 89.296 36.6806 89.998V97H37.7606V91.564ZM50.0008 92.482C50.0008 94.156 49.1368 96.28 46.9588 96.28C44.7808 96.28 43.9168 94.156 43.9168 92.482C43.9168 90.808 44.7808 88.684 46.9588 88.684C49.1368 88.684 50.0008 90.808 50.0008 92.482ZM46.9588 87.694C44.0788 87.694 42.7468 90.106 42.7468 92.482C42.7468 94.858 44.0788 97.27 46.9588 97.27C49.8388 97.27 51.1708 94.858 51.1708 92.482C51.1708 90.106 49.8388 87.694 46.9588 87.694ZM55.1247 87.964H54.0087C54.0447 88.576 54.0987 89.296 54.0987 89.998V97H55.1787V91.798C55.1787 90.178 55.9887 88.684 57.7707 88.684C59.2467 88.684 60.1467 89.602 60.1467 91.168V97H61.2267V91.798C61.2267 90.178 62.0367 88.684 63.8187 88.684C65.2947 88.684 66.1947 89.602 66.1947 91.168V97H67.2747V91.348C67.2747 90.304 67.0407 87.694 64.0887 87.694C62.6847 87.694 61.6407 88.612 60.9747 89.674C60.5787 88.486 59.4627 87.694 58.0407 87.694C56.8707 87.694 55.8447 88.216 55.2147 89.332L55.1787 89.296L55.1247 87.964ZM77.6426 91.564C77.6786 89.836 78.5246 88.684 80.1266 88.684C80.3426 88.684 80.5766 88.738 80.7926 88.756V87.712C80.4326 87.694 80.0726 87.676 79.7126 87.694C78.8126 87.73 78.0026 88.378 77.6786 89.296H77.6426L77.5886 87.964H76.4726C76.5086 88.576 76.5806 89.296 76.5626 89.998V97H77.6426V91.564ZM90.8907 92.734C90.8907 89.908 89.7927 87.694 86.7687 87.694C84.0867 87.694 82.7367 90.034 82.7367 92.482C82.7367 94.948 83.9967 97.27 86.6967 97.27C88.8747 97.27 90.2247 96.28 90.7827 94.12H89.6487C89.3787 95.362 88.3167 96.28 87.0387 96.28C84.8247 96.28 83.9427 94.66 83.9067 92.734H90.8907ZM83.9427 91.744C84.0867 90.16 85.0227 88.684 86.7867 88.684C88.6587 88.684 89.5947 89.998 89.7207 91.744H83.9427ZM94.3767 94.48C94.3767 92.212 97.5807 92.5 99.1107 92.446C99.2187 94.336 98.7687 96.28 96.4107 96.28C95.3127 96.28 94.3767 95.704 94.3767 94.48ZM99.1107 91.456C97.7967 91.528 96.2307 91.348 95.0247 91.87C93.9447 92.32 93.2067 93.256 93.2067 94.48C93.2067 96.244 94.5387 97.27 96.2127 97.27C97.4367 97.27 98.6427 96.55 99.0387 95.794L99.0927 95.668H99.1287L99.1647 97H100.281C100.245 96.388 100.173 95.668 100.191 94.966V90.682C100.227 88.612 98.9847 87.694 96.9867 87.694C95.2587 87.694 93.8727 88.396 93.6027 90.25H94.7547C94.8987 89.026 95.8347 88.684 96.9687 88.684C98.2467 88.684 99.0027 89.152 99.1107 90.628V91.456ZM104.817 84.004H103.737V97H104.817V84.004ZM108.447 87.964V97H109.527V87.964H108.447ZM109.617 84.004H108.357V85.354H109.617V84.004ZM113.913 94.588C113.913 95.812 113.787 97.27 116.073 97.27C116.433 97.27 116.829 97.198 117.171 97.108V96.172C116.883 96.262 116.559 96.28 116.235 96.28C115.407 96.28 114.975 95.83 114.993 95.002V88.954H117.045V87.964H114.993V85.57L113.913 86.038V87.964H112.113V88.954H113.913V94.588ZM118.909 87.964L122.653 97L121.285 100.456H122.473L127.459 87.964H126.289L123.265 95.524L120.223 87.964H118.909ZM130.353 97V95.452H128.913V97H130.353ZM140.893 97H142.045L142.063 85.084H146.185V84.004H136.681V85.084H140.875L140.893 97ZM153.122 92.482C153.122 94.156 152.258 96.28 150.08 96.28C147.902 96.28 147.038 94.156 147.038 92.482C147.038 90.808 147.902 88.684 150.08 88.684C152.258 88.684 153.122 90.808 153.122 92.482ZM150.08 87.694C147.2 87.694 145.868 90.106 145.868 92.482C145.868 94.858 147.2 97.27 150.08 97.27C152.96 97.27 154.292 94.858 154.292 92.482C154.292 90.106 152.96 87.694 150.08 87.694ZM163.43 92.266C163.43 94.318 162.71 96.28 160.352 96.28C158.282 96.28 157.796 93.994 157.796 92.32C157.796 90.592 158.462 88.684 160.514 88.684C162.62 88.684 163.43 90.43 163.43 92.266ZM163.52 97H164.636C164.6 96.388 164.546 95.668 164.546 94.966V84.004H163.466V89.296L163.43 89.332C162.8 88.27 161.54 87.694 160.334 87.694C157.652 87.694 156.626 90.106 156.626 92.446C156.626 94.714 157.652 97.27 160.334 97.27C161.594 97.27 162.692 96.676 163.43 95.596L163.466 95.668L163.52 97ZM168.338 94.48C168.338 92.212 171.542 92.5 173.072 92.446C173.18 94.336 172.73 96.28 170.372 96.28C169.274 96.28 168.338 95.704 168.338 94.48ZM173.072 91.456C171.758 91.528 170.192 91.348 168.986 91.87C167.906 92.32 167.168 93.256 167.168 94.48C167.168 96.244 168.5 97.27 170.174 97.27C171.398 97.27 172.604 96.55 173 95.794L173.054 95.668H173.09L173.126 97H174.242C174.206 96.388 174.134 95.668 174.152 94.966V90.682C174.188 88.612 172.946 87.694 170.948 87.694C169.22 87.694 167.834 88.396 167.564 90.25H168.716C168.86 89.026 169.796 88.684 170.93 88.684C172.208 88.684 172.964 89.152 173.072 90.628V91.456ZM176.033 87.964L179.777 97L178.409 100.456H179.597L184.583 87.964H183.413L180.389 95.524L177.347 87.964H176.033ZM192.815 87.964H191.627L194.939 97H196.037L198.863 89.206H198.899L201.671 97H202.697L206.063 87.964H204.875L202.265 95.506H202.229L199.565 87.964H198.287L195.551 95.578H195.515L192.815 87.964ZM215.755 92.734C215.755 89.908 214.657 87.694 211.633 87.694C208.951 87.694 207.601 90.034 207.601 92.482C207.601 94.948 208.861 97.27 211.561 97.27C213.739 97.27 215.089 96.28 215.647 94.12H214.513C214.243 95.362 213.181 96.28 211.903 96.28C209.689 96.28 208.807 94.66 208.771 92.734H215.755ZM208.807 91.744C208.951 90.16 209.887 88.684 211.651 88.684C213.523 88.684 214.459 89.998 214.585 91.744H208.807ZM231.469 90.736C231.379 88.81 229.867 87.694 228.013 87.694C225.331 87.694 223.981 90.034 223.981 92.482C223.981 94.948 225.241 97.27 227.941 97.27C229.993 97.27 231.181 96.244 231.469 94.174H230.299C230.209 95.416 229.237 96.28 227.833 96.28C226.177 96.28 225.151 94.534 225.151 92.464C225.151 90.412 226.177 88.684 227.833 88.684C229.327 88.684 230.209 89.35 230.299 90.736H231.469ZM234.691 94.48C234.691 92.212 237.895 92.5 239.425 92.446C239.533 94.336 239.083 96.28 236.725 96.28C235.627 96.28 234.691 95.704 234.691 94.48ZM239.425 91.456C238.111 91.528 236.545 91.348 235.339 91.87C234.259 92.32 233.521 93.256 233.521 94.48C233.521 96.244 234.853 97.27 236.527 97.27C237.751 97.27 238.957 96.55 239.353 95.794L239.407 95.668H239.443L239.479 97H240.595C240.559 96.388 240.487 95.668 240.505 94.966V90.682C240.541 88.612 239.299 87.694 237.301 87.694C235.573 87.694 234.187 88.396 233.917 90.25H235.069C235.213 89.026 236.149 88.684 237.283 88.684C238.561 88.684 239.317 89.152 239.425 90.628V91.456ZM245.113 91.798C245.113 90.178 245.923 88.684 247.705 88.684C249.181 88.684 250.081 89.602 250.081 91.168V97H251.161V91.348C251.161 90.304 250.927 87.694 247.975 87.694C246.805 87.694 245.779 88.216 245.149 89.332L245.113 89.296L245.059 87.964H243.943C243.979 88.576 244.033 89.296 244.033 89.998V97H245.113V91.798ZM264.301 88.684C266.353 88.684 267.055 90.628 267.055 92.356C267.055 94.03 266.533 96.28 264.463 96.28C262.105 96.28 261.385 94.354 261.385 92.302C261.385 90.466 262.195 88.684 264.301 88.684ZM261.385 95.668L261.421 95.596C262.159 96.676 263.257 97.27 264.571 97.27C267.199 97.27 268.225 94.714 268.225 92.446C268.225 90.106 267.199 87.694 264.517 87.694C263.311 87.694 262.051 88.27 261.421 89.332L261.385 89.296V84.004H260.305V94.966C260.305 95.668 260.251 96.388 260.215 97H261.331L261.385 95.668ZM278.821 92.734C278.821 89.908 277.723 87.694 274.699 87.694C272.017 87.694 270.667 90.034 270.667 92.482C270.667 94.948 271.927 97.27 274.627 97.27C276.805 97.27 278.155 96.28 278.713 94.12H277.579C277.309 95.362 276.247 96.28 274.969 96.28C272.755 96.28 271.873 94.66 271.837 92.734H278.821ZM271.873 91.744C272.017 90.16 272.953 88.684 274.717 88.684C276.589 88.684 277.525 89.998 277.651 91.744H271.873ZM288.756 84.004H287.676V97H288.756V84.004ZM292.387 87.964V97H293.467V87.964H292.387ZM293.557 84.004H292.297V85.354H293.557V84.004ZM295.891 87.964L299.581 97H300.805L304.387 87.964H303.199L300.193 95.506L297.079 87.964H295.891ZM306.817 87.964V97H307.897V87.964H306.817ZM307.987 84.004H306.727V85.354H307.987V84.004ZM312.589 91.798C312.589 90.178 313.399 88.684 315.181 88.684C316.657 88.684 317.557 89.602 317.557 91.168V97H318.637V91.348C318.637 90.304 318.403 87.694 315.451 87.694C314.281 87.694 313.255 88.216 312.625 89.332L312.589 89.296L312.535 87.964H311.419C311.455 88.576 311.509 89.296 311.509 89.998V97H312.589V91.798ZM328.459 92.284C328.459 94.048 327.667 95.974 325.597 95.974C323.617 95.974 322.771 93.976 322.771 92.32C322.771 90.664 323.599 88.684 325.561 88.684C327.505 88.684 328.459 90.556 328.459 92.284ZM328.459 89.296L328.423 89.368C327.703 88.324 326.767 87.694 325.453 87.694C322.699 87.694 321.601 89.962 321.601 92.41C321.601 94.894 322.771 96.964 325.489 96.964C326.659 96.964 327.901 96.334 328.423 95.272H328.459V96.964C328.423 98.476 327.127 99.466 325.723 99.466C324.571 99.466 323.293 99.106 323.167 98.026H321.997C321.997 99.898 323.941 100.456 325.579 100.456C326.425 100.456 326.911 100.384 327.631 100.042C329.629 99.106 329.539 97.216 329.539 95.416V89.998C329.539 89.296 329.593 88.576 329.629 87.964H328.513L328.459 89.296ZM345.289 92.482C345.289 94.156 344.425 96.28 342.247 96.28C340.069 96.28 339.205 94.156 339.205 92.482C339.205 90.808 340.069 88.684 342.247 88.684C344.425 88.684 345.289 90.808 345.289 92.482ZM342.247 87.694C339.367 87.694 338.035 90.106 338.035 92.482C338.035 94.858 339.367 97.27 342.247 97.27C345.127 97.27 346.459 94.858 346.459 92.482C346.459 90.106 345.127 87.694 342.247 87.694ZM350.485 91.564C350.521 89.836 351.367 88.684 352.969 88.684C353.185 88.684 353.419 88.738 353.635 88.756V87.712C353.275 87.694 352.915 87.676 352.555 87.694C351.655 87.73 350.845 88.378 350.521 89.296H350.485L350.431 87.964H349.315C349.351 88.576 349.423 89.296 349.405 89.998V97H350.485V91.564ZM362.311 92.266C362.311 94.318 361.591 96.28 359.233 96.28C357.163 96.28 356.677 93.994 356.677 92.32C356.677 90.592 357.343 88.684 359.395 88.684C361.501 88.684 362.311 90.43 362.311 92.266ZM362.401 97H363.517C363.481 96.388 363.427 95.668 363.427 94.966V84.004H362.347V89.296L362.311 89.332C361.681 88.27 360.421 87.694 359.215 87.694C356.533 87.694 355.507 90.106 355.507 92.446C355.507 94.714 356.533 97.27 359.215 97.27C360.475 97.27 361.573 96.676 362.311 95.596L362.347 95.668L362.401 97ZM366.859 87.964V97H367.939V87.964H366.859ZM368.029 84.004H366.769V85.354H368.029V84.004ZM372.631 91.798C372.631 90.178 373.441 88.684 375.223 88.684C376.699 88.684 377.599 89.602 377.599 91.168V97H378.679V91.348C378.679 90.304 378.445 87.694 375.493 87.694C374.323 87.694 373.297 88.216 372.667 89.332L372.631 89.296L372.577 87.964H371.461C371.497 88.576 371.551 89.296 371.551 89.998V97H372.631V91.798ZM382.651 94.48C382.651 92.212 385.855 92.5 387.385 92.446C387.493 94.336 387.043 96.28 384.685 96.28C383.587 96.28 382.651 95.704 382.651 94.48ZM387.385 91.456C386.071 91.528 384.505 91.348 383.299 91.87C382.219 92.32 381.481 93.256 381.481 94.48C381.481 96.244 382.813 97.27 384.487 97.27C385.711 97.27 386.917 96.55 387.313 95.794L387.367 95.668H387.403L387.439 97H388.555C388.519 96.388 388.447 95.668 388.465 94.966V90.682C388.501 88.612 387.259 87.694 385.261 87.694C383.533 87.694 382.147 88.396 381.877 90.25H383.029C383.173 89.026 384.109 88.684 385.243 88.684C386.521 88.684 387.277 89.152 387.385 90.628V91.456ZM393.073 91.564C393.109 89.836 393.955 88.684 395.557 88.684C395.773 88.684 396.007 88.738 396.223 88.756V87.712C395.863 87.694 395.503 87.676 395.143 87.694C394.243 87.73 393.433 88.378 393.109 89.296H393.073L393.019 87.964H391.903C391.939 88.576 392.011 89.296 391.993 89.998V97H393.073V91.564ZM398.132 87.964L401.876 97L400.508 100.456H401.696L406.682 87.964H405.512L402.488 95.524L399.446 87.964H398.132ZM415.976 84.004H414.896V97H415.976V84.004ZM419.606 87.964V97H420.686V87.964H419.606ZM420.776 84.004H419.516V85.354H420.776V84.004ZM423.11 87.964L426.8 97H428.024L431.606 87.964H430.418L427.412 95.506L424.298 87.964H423.11ZM441.28 92.734C441.28 89.908 440.182 87.694 437.158 87.694C434.476 87.694 433.126 90.034 433.126 92.482C433.126 94.948 434.386 97.27 437.086 97.27C439.264 97.27 440.614 96.28 441.172 94.12H440.038C439.768 95.362 438.706 96.28 437.428 96.28C435.214 96.28 434.332 94.66 434.296 92.734H441.28ZM434.332 91.744C434.476 90.16 435.412 88.684 437.176 88.684C439.048 88.684 439.984 89.998 440.11 91.744H434.332ZM444.082 90.214C444.082 91.888 445.522 92.302 446.944 92.644C448.384 92.968 449.806 93.184 449.806 94.48C449.806 95.74 448.6 96.28 447.448 96.28C446.224 96.28 445.036 95.884 444.946 94.534H443.776C443.812 96.532 445.612 97.27 447.178 97.27C449.086 97.27 450.976 96.352 450.976 94.318C450.976 93.346 450.382 92.536 449.446 92.212C446.998 91.348 445.252 91.474 445.252 90.142C445.252 89.08 446.278 88.684 447.286 88.684C448.402 88.684 449.41 89.062 449.518 90.196H450.688C450.544 88.288 449.104 87.694 447.394 87.694C445.81 87.694 444.082 88.342 444.082 90.214ZM460.612 94.588C460.612 95.812 460.486 97.27 462.772 97.27C463.132 97.27 463.528 97.198 463.87 97.108V96.172C463.582 96.262 463.258 96.28 462.934 96.28C462.106 96.28 461.674 95.83 461.692 95.002V88.954H463.744V87.964H461.692V85.57L460.612 86.038V87.964H458.812V88.954H460.612V94.588ZM473.158 92.482C473.158 94.156 472.294 96.28 470.116 96.28C467.938 96.28 467.074 94.156 467.074 92.482C467.074 90.808 467.938 88.684 470.116 88.684C472.294 88.684 473.158 90.808 473.158 92.482ZM470.116 87.694C467.236 87.694 465.904 90.106 465.904 92.482C465.904 94.858 467.236 97.27 470.116 97.27C472.996 97.27 474.328 94.858 474.328 92.482C474.328 90.106 472.996 87.694 470.116 87.694ZM478.282 87.964H477.166C477.202 88.576 477.256 89.296 477.256 89.998V97H478.336V91.798C478.336 90.178 479.146 88.684 480.928 88.684C482.404 88.684 483.304 89.602 483.304 91.168V97H484.384V91.798C484.384 90.178 485.194 88.684 486.976 88.684C488.452 88.684 489.352 89.602 489.352 91.168V97H490.432V91.348C490.432 90.304 490.198 87.694 487.246 87.694C485.842 87.694 484.798 88.612 484.132 89.674C483.736 88.486 482.62 87.694 481.198 87.694C480.028 87.694 479.002 88.216 478.372 89.332L478.336 89.296L478.282 87.964ZM500.596 92.482C500.596 94.156 499.732 96.28 497.554 96.28C495.376 96.28 494.512 94.156 494.512 92.482C494.512 90.808 495.376 88.684 497.554 88.684C499.732 88.684 500.596 90.808 500.596 92.482ZM497.554 87.694C494.674 87.694 493.342 90.106 493.342 92.482C493.342 94.858 494.674 97.27 497.554 97.27C500.434 97.27 501.766 94.858 501.766 92.482C501.766 90.106 500.434 87.694 497.554 87.694ZM505.792 91.564C505.828 89.836 506.674 88.684 508.276 88.684C508.492 88.684 508.726 88.738 508.942 88.756V87.712C508.582 87.694 508.222 87.676 507.862 87.694C506.962 87.73 506.152 88.378 505.828 89.296H505.792L505.738 87.964H504.622C504.658 88.576 504.73 89.296 504.712 89.998V97H505.792V91.564ZM512.331 91.564C512.367 89.836 513.213 88.684 514.815 88.684C515.031 88.684 515.265 88.738 515.481 88.756V87.712C515.121 87.694 514.761 87.676 514.401 87.694C513.501 87.73 512.691 88.378 512.367 89.296H512.331L512.277 87.964H511.161C511.197 88.576 511.269 89.296 511.251 89.998V97H512.331V91.564ZM524.571 92.482C524.571 94.156 523.707 96.28 521.529 96.28C519.351 96.28 518.487 94.156 518.487 92.482C518.487 90.808 519.351 88.684 521.529 88.684C523.707 88.684 524.571 90.808 524.571 92.482ZM521.529 87.694C518.649 87.694 517.317 90.106 517.317 92.482C517.317 94.858 518.649 97.27 521.529 97.27C524.409 97.27 525.741 94.858 525.741 92.482C525.741 90.106 524.409 87.694 521.529 87.694ZM528.371 87.964H527.183L530.495 97H531.593L534.419 89.206H534.455L537.227 97H538.253L541.619 87.964H540.431L537.821 95.506H537.785L535.121 87.964H533.843L531.107 95.578H531.071L528.371 87.964ZM1.476 115.964H0.288L3.6 125H4.698L7.524 117.206H7.56L10.332 125H11.358L14.724 115.964H13.536L10.926 123.506H10.89L8.226 115.964H6.948L4.212 123.578H4.176L1.476 115.964ZM24.4166 120.734C24.4166 117.908 23.3186 115.694 20.2946 115.694C17.6126 115.694 16.2626 118.034 16.2626 120.482C16.2626 122.948 17.5226 125.27 20.2226 125.27C22.4006 125.27 23.7506 124.28 24.3086 122.12H23.1746C22.9046 123.362 21.8426 124.28 20.5646 124.28C18.3506 124.28 17.4686 122.66 17.4326 120.734H24.4166ZM17.4686 119.744C17.6126 118.16 18.5486 116.684 20.3126 116.684C22.1846 116.684 23.1206 117.998 23.2466 119.744H17.4686ZM40.1303 118.736C40.0403 116.81 38.5283 115.694 36.6743 115.694C33.9923 115.694 32.6423 118.034 32.6423 120.482C32.6423 122.948 33.9023 125.27 36.6023 125.27C38.6543 125.27 39.8423 124.244 40.1303 122.174H38.9603C38.8703 123.416 37.8983 124.28 36.4943 124.28C34.8383 124.28 33.8123 122.534 33.8123 120.464C33.8123 118.412 34.8383 116.684 36.4943 116.684C37.9883 116.684 38.8703 117.35 38.9603 118.736H40.1303ZM43.3523 122.48C43.3523 120.212 46.5563 120.5 48.0863 120.446C48.1943 122.336 47.7443 124.28 45.3863 124.28C44.2883 124.28 43.3523 123.704 43.3523 122.48ZM48.0863 119.456C46.7723 119.528 45.2063 119.348 44.0003 119.87C42.9203 120.32 42.1823 121.256 42.1823 122.48C42.1823 124.244 43.5143 125.27 45.1883 125.27C46.4123 125.27 47.6183 124.55 48.0143 123.794L48.0683 123.668H48.1043L48.1403 125H49.2563C49.2203 124.388 49.1483 123.668 49.1663 122.966V118.682C49.2023 116.612 47.9603 115.694 45.9623 115.694C44.2343 115.694 42.8483 116.396 42.5783 118.25H43.7303C43.8743 117.026 44.8103 116.684 45.9443 116.684C47.2223 116.684 47.9783 117.152 48.0863 118.628V119.456ZM53.7743 119.798C53.7743 118.178 54.5843 116.684 56.3663 116.684C57.8423 116.684 58.7423 117.602 58.7423 119.168V125H59.8223V119.348C59.8223 118.304 59.5883 115.694 56.6363 115.694C55.4663 115.694 54.4403 116.216 53.8103 117.332L53.7743 117.296L53.7203 115.964H52.6043C52.6403 116.576 52.6943 117.296 52.6943 117.998V125H53.7743V119.798ZM72.962 116.684C75.014 116.684 75.716 118.628 75.716 120.356C75.716 122.03 75.194 124.28 73.124 124.28C70.766 124.28 70.046 122.354 70.046 120.302C70.046 118.466 70.856 116.684 72.962 116.684ZM70.046 123.668L70.082 123.596C70.82 124.676 71.918 125.27 73.232 125.27C75.86 125.27 76.886 122.714 76.886 120.446C76.886 118.106 75.86 115.694 73.178 115.694C71.972 115.694 70.712 116.27 70.082 117.332L70.046 117.296V112.004H68.966V122.966C68.966 123.668 68.912 124.388 68.876 125H69.992L70.046 123.668ZM87.482 120.734C87.482 117.908 86.384 115.694 83.36 115.694C80.678 115.694 79.328 118.034 79.328 120.482C79.328 122.948 80.588 125.27 83.288 125.27C85.466 125.27 86.816 124.28 87.374 122.12H86.24C85.97 123.362 84.908 124.28 83.63 124.28C81.416 124.28 80.534 122.66 80.498 120.734H87.482ZM80.534 119.744C80.678 118.16 81.614 116.684 83.378 116.684C85.25 116.684 86.186 117.998 86.312 119.744H80.534ZM97.0937 122.588C97.0937 123.812 96.9677 125.27 99.2537 125.27C99.6137 125.27 100.01 125.198 100.352 125.108V124.172C100.064 124.262 99.7397 124.28 99.4157 124.28C98.5877 124.28 98.1557 123.83 98.1737 123.002V116.954H100.226V115.964H98.1737V113.57L97.0937 114.038V115.964H95.2937V116.954H97.0937V122.588ZM104.114 112.004H103.034V125H104.114V119.798C104.114 118.178 104.924 116.684 106.706 116.684C108.182 116.684 109.082 117.602 109.082 119.168V125H110.162V119.348C110.162 118.304 109.928 115.694 106.976 115.694C105.806 115.694 104.78 116.216 104.15 117.332H104.114V112.004ZM121.37 120.734C121.37 117.908 120.272 115.694 117.248 115.694C114.566 115.694 113.216 118.034 113.216 120.482C113.216 122.948 114.476 125.27 117.176 125.27C119.354 125.27 120.704 124.28 121.262 122.12H120.128C119.858 123.362 118.796 124.28 117.518 124.28C115.304 124.28 114.422 122.66 114.386 120.734H121.37ZM114.422 119.744C114.566 118.16 115.502 116.684 117.266 116.684C119.138 116.684 120.074 117.998 120.2 119.744H114.422ZM137.084 118.736C136.994 116.81 135.482 115.694 133.628 115.694C130.946 115.694 129.596 118.034 129.596 120.482C129.596 122.948 130.856 125.27 133.556 125.27C135.608 125.27 136.796 124.244 137.084 122.174H135.914C135.824 123.416 134.852 124.28 133.448 124.28C131.792 124.28 130.766 122.534 130.766 120.464C130.766 118.412 131.792 116.684 133.448 116.684C134.942 116.684 135.824 117.35 135.914 118.736H137.084ZM140.111 112.004H139.031V125H140.111V119.798C140.111 118.178 140.921 116.684 142.703 116.684C144.179 116.684 145.079 117.602 145.079 119.168V125H146.159V119.348C146.159 118.304 145.925 115.694 142.973 115.694C141.803 115.694 140.777 116.216 140.147 117.332H140.111V112.004ZM150.131 122.48C150.131 120.212 153.335 120.5 154.865 120.446C154.973 122.336 154.523 124.28 152.165 124.28C151.067 124.28 150.131 123.704 150.131 122.48ZM154.865 119.456C153.551 119.528 151.985 119.348 150.779 119.87C149.699 120.32 148.961 121.256 148.961 122.48C148.961 124.244 150.293 125.27 151.967 125.27C153.191 125.27 154.397 124.55 154.793 123.794L154.847 123.668H154.883L154.919 125H156.035C155.999 124.388 155.927 123.668 155.945 122.966V118.682C155.981 116.612 154.739 115.694 152.741 115.694C151.013 115.694 149.627 116.396 149.357 118.25H150.509C150.653 117.026 151.589 116.684 152.723 116.684C154.001 116.684 154.757 117.152 154.865 118.628V119.456ZM160.553 119.564C160.589 117.836 161.435 116.684 163.037 116.684C163.253 116.684 163.487 116.738 163.703 116.756V115.712C163.343 115.694 162.983 115.676 162.623 115.694C161.723 115.73 160.913 116.378 160.589 117.296H160.553L160.499 115.964H159.383C159.419 116.576 159.491 117.296 159.473 117.998V125H160.553V119.564ZM166.565 122.48C166.565 120.212 169.769 120.5 171.299 120.446C171.407 122.336 170.957 124.28 168.599 124.28C167.501 124.28 166.565 123.704 166.565 122.48ZM171.299 119.456C169.985 119.528 168.419 119.348 167.213 119.87C166.133 120.32 165.395 121.256 165.395 122.48C165.395 124.244 166.727 125.27 168.401 125.27C169.625 125.27 170.831 124.55 171.227 123.794L171.281 123.668H171.317L171.353 125H172.469C172.433 124.388 172.361 123.668 172.379 122.966V118.682C172.415 116.612 171.173 115.694 169.175 115.694C167.447 115.694 166.061 116.396 165.791 118.25H166.943C167.087 117.026 168.023 116.684 169.157 116.684C170.435 116.684 171.191 117.152 171.299 118.628V119.456ZM182.783 118.736C182.693 116.81 181.181 115.694 179.327 115.694C176.645 115.694 175.295 118.034 175.295 120.482C175.295 122.948 176.555 125.27 179.255 125.27C181.307 125.27 182.495 124.244 182.783 122.174H181.613C181.523 123.416 180.551 124.28 179.147 124.28C177.491 124.28 176.465 122.534 176.465 120.464C176.465 118.412 177.491 116.684 179.147 116.684C180.641 116.684 181.523 117.35 181.613 118.736H182.783ZM186.401 122.588C186.401 123.812 186.275 125.27 188.561 125.27C188.921 125.27 189.317 125.198 189.659 125.108V124.172C189.371 124.262 189.047 124.28 188.723 124.28C187.895 124.28 187.463 123.83 187.481 123.002V116.954H189.533V115.964H187.481V113.57L186.401 114.038V115.964H184.601V116.954H186.401V122.588ZM199.955 120.734C199.955 117.908 198.857 115.694 195.833 115.694C193.151 115.694 191.801 118.034 191.801 120.482C191.801 122.948 193.061 125.27 195.761 125.27C197.939 125.27 199.289 124.28 199.847 122.12H198.713C198.443 123.362 197.381 124.28 196.103 124.28C193.889 124.28 193.007 122.66 192.971 120.734H199.955ZM193.007 119.744C193.151 118.16 194.087 116.684 195.851 116.684C197.723 116.684 198.659 117.998 198.785 119.744H193.007ZM204.143 119.564C204.179 117.836 205.025 116.684 206.627 116.684C206.843 116.684 207.077 116.738 207.293 116.756V115.712C206.933 115.694 206.573 115.676 206.213 115.694C205.313 115.73 204.503 116.378 204.179 117.296H204.143L204.089 115.964H202.973C203.009 116.576 203.081 117.296 203.063 117.998V125H204.143V119.564ZM215.525 115.964V125H216.605V115.964H215.525ZM216.695 112.004H215.435V113.354H216.695V112.004ZM221.297 119.798C221.297 118.178 222.107 116.684 223.889 116.684C225.365 116.684 226.265 117.602 226.265 119.168V125H227.345V119.348C227.345 118.304 227.111 115.694 224.159 115.694C222.989 115.694 221.963 116.216 221.333 117.332L221.297 117.296L221.243 115.964H220.127C220.163 116.576 220.217 117.296 220.217 117.998V125H221.297V119.798ZM243.275 120.482C243.275 122.156 242.411 124.28 240.233 124.28C238.055 124.28 237.191 122.156 237.191 120.482C237.191 118.808 238.055 116.684 240.233 116.684C242.411 116.684 243.275 118.808 243.275 120.482ZM240.233 115.694C237.353 115.694 236.021 118.106 236.021 120.482C236.021 122.858 237.353 125.27 240.233 125.27C243.113 125.27 244.445 122.858 244.445 120.482C244.445 118.106 243.113 115.694 240.233 115.694ZM248.471 119.798C248.471 118.178 249.281 116.684 251.063 116.684C252.539 116.684 253.439 117.602 253.439 119.168V125H254.519V119.348C254.519 118.304 254.285 115.694 251.333 115.694C250.163 115.694 249.137 116.216 248.507 117.332L248.471 117.296L248.417 115.964H247.301C247.337 116.576 247.391 117.296 247.391 117.998V125H248.471V119.798ZM265.727 120.734C265.727 117.908 264.629 115.694 261.605 115.694C258.923 115.694 257.573 118.034 257.573 120.482C257.573 122.948 258.833 125.27 261.533 125.27C263.711 125.27 265.061 124.28 265.619 122.12H264.485C264.215 123.362 263.153 124.28 261.875 124.28C259.661 124.28 258.779 122.66 258.743 120.734H265.727ZM258.779 119.744C258.923 118.16 259.859 116.684 261.623 116.684C263.495 116.684 264.431 117.998 264.557 119.744H258.779ZM281.171 120.482C281.171 122.156 280.307 124.28 278.129 124.28C275.951 124.28 275.087 122.156 275.087 120.482C275.087 118.808 275.951 116.684 278.129 116.684C280.307 116.684 281.171 118.808 281.171 120.482ZM278.129 115.694C275.249 115.694 273.917 118.106 273.917 120.482C273.917 122.858 275.249 125.27 278.129 125.27C281.009 125.27 282.341 122.858 282.341 120.482C282.341 118.106 281.009 115.694 278.129 115.694ZM287.141 125V116.954H289.193V115.964H287.141V114.812C287.087 113.516 287.123 112.778 288.599 112.778C288.815 112.778 289.049 112.814 289.265 112.85V111.986C288.941 111.914 288.581 111.788 288.239 111.788C286.691 111.788 286.061 112.49 286.061 114.038V115.964H284.243V116.954H286.061V125H287.141ZM304.337 120.482C304.337 122.156 303.473 124.28 301.295 124.28C299.117 124.28 298.253 122.156 298.253 120.482C298.253 118.808 299.117 116.684 301.295 116.684C303.473 116.684 304.337 118.808 304.337 120.482ZM301.295 115.694C298.415 115.694 297.083 118.106 297.083 120.482C297.083 122.858 298.415 125.27 301.295 125.27C304.175 125.27 305.507 122.858 305.507 120.482C305.507 118.106 304.175 115.694 301.295 115.694ZM314.501 121.166C314.501 122.786 313.691 124.28 311.909 124.28C310.433 124.28 309.533 123.362 309.533 121.796V115.964H308.453V121.616C308.453 122.66 308.687 125.27 311.639 125.27C312.809 125.27 313.835 124.748 314.465 123.632L314.501 123.668L314.555 125H315.671C315.635 124.388 315.581 123.668 315.581 122.966V115.964H314.501V121.166ZM320.254 119.564C320.29 117.836 321.136 116.684 322.738 116.684C322.954 116.684 323.188 116.738 323.404 116.756V115.712C323.044 115.694 322.684 115.676 322.324 115.694C321.424 115.73 320.614 116.378 320.29 117.296H320.254L320.2 115.964H319.084C319.12 116.576 319.192 117.296 319.174 117.998V125H320.254V119.564ZM333.472 125V116.954H335.524V115.964H333.472V114.812C333.418 113.516 333.454 112.778 334.93 112.778C335.146 112.778 335.38 112.814 335.596 112.85V111.986C335.272 111.914 334.912 111.788 334.57 111.788C333.022 111.788 332.392 112.49 332.392 114.038V115.964H330.574V116.954H332.392V125H333.472ZM338.359 122.48C338.359 120.212 341.563 120.5 343.093 120.446C343.201 122.336 342.751 124.28 340.393 124.28C339.295 124.28 338.359 123.704 338.359 122.48ZM343.093 119.456C341.779 119.528 340.213 119.348 339.007 119.87C337.927 120.32 337.189 121.256 337.189 122.48C337.189 124.244 338.521 125.27 340.195 125.27C341.419 125.27 342.625 124.55 343.021 123.794L343.075 123.668H343.111L343.147 125H344.263C344.227 124.388 344.155 123.668 344.173 122.966V118.682C344.209 116.612 342.967 115.694 340.969 115.694C339.241 115.694 337.855 116.396 337.585 118.25H338.737C338.881 117.026 339.817 116.684 340.951 116.684C342.229 116.684 342.985 117.152 343.093 118.628V119.456ZM346.161 115.964L349.851 125H351.075L354.657 115.964H353.469L350.463 123.506L347.349 115.964H346.161ZM363.324 120.482C363.324 122.156 362.46 124.28 360.282 124.28C358.104 124.28 357.24 122.156 357.24 120.482C357.24 118.808 358.104 116.684 360.282 116.684C362.46 116.684 363.324 118.808 363.324 120.482ZM360.282 115.694C357.402 115.694 356.07 118.106 356.07 120.482C356.07 122.858 357.402 125.27 360.282 125.27C363.162 125.27 364.494 122.858 364.494 120.482C364.494 118.106 363.162 115.694 360.282 115.694ZM368.52 119.564C368.556 117.836 369.402 116.684 371.004 116.684C371.22 116.684 371.454 116.738 371.67 116.756V115.712C371.31 115.694 370.95 115.676 370.59 115.694C369.69 115.73 368.88 116.378 368.556 117.296H368.52L368.466 115.964H367.35C367.386 116.576 367.458 117.296 367.44 117.998V125H368.52V119.564ZM374.172 115.964V125H375.252V115.964H374.172ZM375.342 112.004H374.082V113.354H375.342V112.004ZM379.638 122.588C379.638 123.812 379.512 125.27 381.798 125.27C382.158 125.27 382.554 125.198 382.896 125.108V124.172C382.608 124.262 382.284 124.28 381.96 124.28C381.132 124.28 380.7 123.83 380.718 123.002V116.954H382.77V115.964H380.718V113.57L379.638 114.038V115.964H377.838V116.954H379.638V122.588ZM393.192 120.734C393.192 117.908 392.094 115.694 389.07 115.694C386.388 115.694 385.038 118.034 385.038 120.482C385.038 122.948 386.298 125.27 388.998 125.27C391.176 125.27 392.526 124.28 393.084 122.12H391.95C391.68 123.362 390.618 124.28 389.34 124.28C387.126 124.28 386.244 122.66 386.208 120.734H393.192ZM386.244 119.744C386.388 118.16 387.324 116.684 389.088 116.684C390.96 116.684 391.896 117.998 392.022 119.744H386.244ZM403.038 115.964H401.922C401.958 116.576 402.012 117.296 402.012 117.998V125H403.092V119.798C403.092 118.178 403.902 116.684 405.684 116.684C407.16 116.684 408.06 117.602 408.06 119.168V125H409.14V119.798C409.14 118.178 409.95 116.684 411.732 116.684C413.208 116.684 414.108 117.602 414.108 119.168V125H415.188V119.348C415.188 118.304 414.954 115.694 412.002 115.694C410.598 115.694 409.554 116.612 408.888 117.674C408.492 116.486 407.376 115.694 405.954 115.694C404.784 115.694 403.758 116.216 403.128 117.332L403.092 117.296L403.038 115.964ZM425.352 120.482C425.352 122.156 424.488 124.28 422.31 124.28C420.132 124.28 419.268 122.156 419.268 120.482C419.268 118.808 420.132 116.684 422.31 116.684C424.488 116.684 425.352 118.808 425.352 120.482ZM422.31 115.694C419.43 115.694 418.098 118.106 418.098 120.482C418.098 122.858 419.43 125.27 422.31 125.27C425.19 125.27 426.522 122.858 426.522 120.482C426.522 118.106 425.19 115.694 422.31 115.694ZM427.928 115.964L431.618 125H432.842L436.424 115.964H435.236L432.23 123.506L429.116 115.964H427.928ZM438.854 115.964V125H439.934V115.964H438.854ZM440.024 112.004H438.764V113.354H440.024V112.004ZM451.161 120.734C451.161 117.908 450.063 115.694 447.039 115.694C444.357 115.694 443.007 118.034 443.007 120.482C443.007 122.948 444.267 125.27 446.967 125.27C449.145 125.27 450.495 124.28 451.053 122.12H449.919C449.649 123.362 448.587 124.28 447.309 124.28C445.095 124.28 444.213 122.66 444.177 120.734H451.161ZM444.213 119.744C444.357 118.16 445.293 116.684 447.057 116.684C448.929 116.684 449.865 117.998 449.991 119.744H444.213ZM453.963 118.214C453.963 119.888 455.403 120.302 456.825 120.644C458.265 120.968 459.687 121.184 459.687 122.48C459.687 123.74 458.481 124.28 457.329 124.28C456.105 124.28 454.917 123.884 454.827 122.534H453.657C453.693 124.532 455.493 125.27 457.059 125.27C458.967 125.27 460.857 124.352 460.857 122.318C460.857 121.346 460.263 120.536 459.327 120.212C456.879 119.348 455.133 119.474 455.133 118.142C455.133 117.08 456.159 116.684 457.167 116.684C458.283 116.684 459.291 117.062 459.399 118.196H460.569C460.425 116.288 458.985 115.694 457.275 115.694C455.691 115.694 453.963 116.342 453.963 118.214ZM465.771 125V123.452H464.331V125H465.771Z" fill="white"/>
</svg>
