<svg width="179" height="16" viewBox="0 0 179 16" fill="none" xmlns="http://www.w3.org/2000/svg">
<path d="M2.7475 6.496H4.6675C6.8435 6.496 8.4275 6.8 8.4275 8.768C8.4275 10.544 7.2755 11.072 5.2915 11.04H2.7475V6.496ZM2.7475 5.536V1.408H5.2115C6.5715 1.424 7.9475 1.76 7.9475 3.44C7.9475 5.008 6.6035 5.536 5.2595 5.536H2.7475ZM6.1075 12C8.6195 12 9.5475 10.432 9.5475 8.912C9.5475 7.264 8.4915 6.24 6.9235 5.984V5.952C8.1395 5.664 9.0675 4.624 9.0675 3.344C9.0675 1.504 7.5635 0.464 5.8515 0.464L1.7075 0.447999V12H6.1075ZM13.0429 9.76C13.0429 7.744 15.8909 8 17.2509 7.952C17.3469 9.632 16.9469 11.36 14.8509 11.36C13.8749 11.36 13.0429 10.848 13.0429 9.76ZM17.2509 7.072C16.0829 7.136 14.6909 6.976 13.6189 7.44C12.6589 7.84 12.0029 8.672 12.0029 9.76C12.0029 11.328 13.1869 12.24 14.6749 12.24C15.7629 12.24 16.8349 11.6 17.1869 10.928L17.2349 10.816H17.2669L17.2989 12H18.2909C18.2589 11.456 18.1949 10.816 18.2109 10.192V6.384C18.2429 4.544 17.1389 3.728 15.3629 3.728C13.8269 3.728 12.5949 4.352 12.3549 6H13.3789C13.5069 4.912 14.3389 4.608 15.3469 4.608C16.4829 4.608 17.1549 5.024 17.2509 6.336V7.072ZM27.7789 6.432C27.6989 4.72 26.3549 3.728 24.7069 3.728C22.3229 3.728 21.1229 5.808 21.1229 7.984C21.1229 10.176 22.2429 12.24 24.6429 12.24C26.4669 12.24 27.5229 11.328 27.7789 9.488H26.7389C26.6589 10.592 25.7949 11.36 24.5469 11.36C23.0749 11.36 22.1629 9.808 22.1629 7.968C22.1629 6.144 23.0749 4.608 24.5469 4.608C25.8749 4.608 26.6589 5.2 26.7389 6.432H27.7789ZM30.886 0.447999H29.926V12H30.886V7.648L35.11 12H36.326L31.942 7.44L36.006 3.968H34.774L30.886 7.248V0.447999ZM44.8911 9.856C44.8911 10.944 44.7791 12.24 46.8111 12.24C47.1311 12.24 47.4831 12.176 47.7871 12.096V11.264C47.5311 11.344 47.2431 11.36 46.9551 11.36C46.2191 11.36 45.8351 10.96 45.8511 10.224V4.848H47.6751V3.968H45.8511V1.84L44.8911 2.256V3.968H43.2911V4.848H44.8911V9.856ZM56.3632 7.984C56.3632 9.472 55.5952 11.36 53.6592 11.36C51.7232 11.36 50.9552 9.472 50.9552 7.984C50.9552 6.496 51.7232 4.608 53.6592 4.608C55.5952 4.608 56.3632 6.496 56.3632 7.984ZM53.6592 3.728C51.0992 3.728 49.9152 5.872 49.9152 7.984C49.9152 10.096 51.0992 12.24 53.6592 12.24C56.2192 12.24 57.4032 10.096 57.4032 7.984C57.4032 5.872 56.2192 3.728 53.6592 3.728ZM73.243 11.2L71.883 12H75.675L74.075 11.12L69.867 1.6H67.931L69.643 3.088L66.155 11.12L64.475 12H68.171L66.731 11.2L67.803 8.72H72.139L73.243 11.2ZM69.947 3.792L71.899 8.16H68.043L69.947 3.792ZM78.3981 1.6V11.28L77.1181 12H80.4781L79.1981 11.28V0.559999L77.1181 1.2L78.3981 1.6ZM88.7106 7.68C88.7106 5.92 87.9906 4.56 85.9586 4.56C84.0546 4.56 82.4706 6.064 82.4706 8.4C82.4706 10.56 83.7506 12.24 85.8306 12.24C88.2306 12.24 88.7106 9.92 88.7106 9.92C88.7106 9.92 87.9906 11.52 86.2306 11.52C84.6306 11.52 83.2706 10.528 83.2706 8.144C83.2706 7.984 83.2706 7.84 83.2866 7.68H88.7106ZM85.9266 4.944C87.0466 4.944 87.8306 5.68 87.8306 6.48C87.8306 7.12 87.2706 7.2 86.4706 7.2H83.3666C83.7186 5.664 84.9186 4.944 85.9266 4.944ZM92.9782 5.44L94.0982 4.8H90.5462L92.0662 5.52L94.1462 8.24L91.9062 11.28L90.3862 12H93.5702L92.4502 11.36L94.4502 8.64L96.5462 11.36L95.4262 12H98.9622L97.4422 11.28L94.9142 7.984L96.7222 5.52L98.3062 4.8H95.0742L96.1942 5.44L94.6102 7.584L92.9782 5.44ZM100.884 1.6C100.884 2.048 101.236 2.4 101.684 2.4H101.764L100.964 4.24C102.404 2.48 102.484 2.16 102.484 1.6C102.484 1.152 102.132 0.799999 101.684 0.799999C101.236 0.799999 100.884 1.152 100.884 1.6ZM110 4.56L109.36 5.2C109.36 5.2 108.8 4.56 107.68 4.56C106.4 4.56 105.36 5.312 105.36 6.48C105.36 8.896 109.68 8.224 109.68 10.288C109.68 11.36 108.72 11.76 108 11.76C107.52 11.76 106.64 11.616 106.128 10.56L105.44 9.12V12.24L106 11.296C106.016 11.344 106.512 12.24 108 12.24C109.28 12.24 110.4 11.472 110.4 10.032C110.4 7.392 106 8 106 6.24C106 5.6 106.624 5.04 107.68 5.04C108.8 5.04 109.28 5.76 109.28 5.76L110 7.056V4.56ZM125.113 1.6H120.793L122.713 2.48V9.04C122.713 10.992 121.913 11.76 120.633 11.76C119.353 11.76 118.793 11.04 118.793 10.4C118.793 9.76 119.513 9.84 119.513 9.232C119.513 8.88 119.289 8.592 118.857 8.592C118.425 8.592 117.913 8.96 117.913 9.84C117.913 10.768 118.489 12.24 120.633 12.24C122.633 12.24 123.513 10.8 123.513 8.88V2.48L125.113 1.6ZM129.759 4.992C131.087 4.992 132.527 6.16 132.527 8.816C132.527 10.704 131.391 11.808 130.207 11.808C128.895 11.808 127.439 10.64 127.439 7.984C127.439 6.064 128.591 4.992 129.759 4.992ZM126.559 8.4C126.559 10.56 127.759 12.24 129.983 12.24C132.047 12.24 133.407 10.56 133.407 8.4C133.407 6.24 132.207 4.56 129.983 4.56C127.919 4.56 126.559 6.24 126.559 8.4ZM141.087 5.6V10.272C140.607 10.864 139.647 11.632 138.687 11.632C137.647 11.632 137.167 10.88 137.167 9.6V4.56L135.087 5.2L136.367 5.6V9.84C136.367 11.6 137.247 12.24 138.367 12.24C139.487 12.24 140.527 11.36 141.087 10.752V12.24L143.167 11.6L141.887 11.2V4.56L139.807 5.2L141.087 5.6ZM146.29 5.6V11.28L145.01 12H148.37L147.09 11.28V6.72C147.81 5.92 148.418 5.424 148.738 5.424C149.266 5.424 149.186 5.92 149.746 5.92C150.13 5.92 150.37 5.648 150.37 5.312C150.37 4.832 150.05 4.56 149.49 4.56C149.042 4.56 148.658 4.736 148.162 5.216L147.09 6.24V4.56L145.01 5.2L146.29 5.6ZM153.734 5.6V11.28L152.454 12H155.814L154.534 11.28V6.528C155.014 5.936 155.974 5.168 156.934 5.168C157.974 5.168 158.454 5.92 158.454 7.2V11.28L157.174 12H160.534L159.254 11.28V6.96C159.254 5.2 158.374 4.56 157.254 4.56C156.134 4.56 155.094 5.44 154.534 6.048V4.56L152.454 5.2L153.734 5.6ZM168.529 7.68C168.529 5.92 167.809 4.56 165.777 4.56C163.873 4.56 162.289 6.064 162.289 8.4C162.289 10.56 163.569 12.24 165.649 12.24C168.049 12.24 168.529 9.92 168.529 9.92C168.529 9.92 167.809 11.52 166.049 11.52C164.449 11.52 163.089 10.528 163.089 8.144C163.089 7.984 163.089 7.84 163.105 7.68H168.529ZM165.745 4.944C166.865 4.944 167.649 5.68 167.649 6.48C167.649 7.12 167.089 7.2 166.289 7.2H163.185C163.537 5.664 164.737 4.944 165.745 4.944ZM178.893 4.8H175.693L176.973 5.44L174.941 10.528L172.509 5.44L173.789 4.8H170.205L171.645 5.52L174.541 11.52L173.661 13.76C173.469 14.224 173.261 14.624 173.053 14.624C172.765 14.624 172.781 14.128 172.237 14.128C171.901 14.128 171.597 14.4 171.597 14.816C171.597 15.28 171.949 15.6 172.477 15.6C173.069 15.6 173.629 15.152 174.141 13.856L177.453 5.52L178.893 4.8Z" fill="#0025DC"/>
<path d="M0.107498 13.6H64.4699V14.4H0.107498V13.6Z" fill="#0025DC"/>
<path d="M64.475 13.6H178.893V14.4H64.475V13.6Z" fill="#0025DC"/>
</svg>
