<svg width="179" height="16" viewBox="0 0 179 16" fill="none" xmlns="http://www.w3.org/2000/svg">
<path d="M2.89594 6.496H4.81594C6.99194 6.496 8.57594 6.8 8.57594 8.768C8.57594 10.544 7.42394 11.072 5.43994 11.04H2.89594V6.496ZM2.89594 5.536V1.408H5.35994C6.71994 1.424 8.09594 1.76 8.09594 3.44C8.09594 5.008 6.75194 5.536 5.40794 5.536H2.89594ZM6.25594 12C8.76794 12 9.69594 10.432 9.69594 8.912C9.69594 7.264 8.63994 6.24 7.07194 5.984V5.952C8.28794 5.664 9.21594 4.624 9.21594 3.344C9.21594 1.504 7.71194 0.464 5.99994 0.464L1.85594 0.447999V12H6.25594ZM13.1913 9.76C13.1913 7.744 16.0393 8 17.3993 7.952C17.4953 9.632 17.0953 11.36 14.9993 11.36C14.0233 11.36 13.1913 10.848 13.1913 9.76ZM17.3993 7.072C16.2313 7.136 14.8393 6.976 13.7673 7.44C12.8073 7.84 12.1513 8.672 12.1513 9.76C12.1513 11.328 13.3353 12.24 14.8233 12.24C15.9113 12.24 16.9833 11.6 17.3353 10.928L17.3833 10.816H17.4153L17.4473 12H18.4393C18.4073 11.456 18.3433 10.816 18.3593 10.192V6.384C18.3913 4.544 17.2873 3.728 15.5113 3.728C13.9753 3.728 12.7433 4.352 12.5033 6H13.5273C13.6553 4.912 14.4873 4.608 15.4953 4.608C16.6313 4.608 17.3033 5.024 17.3993 6.336V7.072ZM27.9273 6.432C27.8473 4.72 26.5033 3.728 24.8553 3.728C22.4713 3.728 21.2713 5.808 21.2713 7.984C21.2713 10.176 22.3913 12.24 24.7913 12.24C26.6153 12.24 27.6713 11.328 27.9273 9.488H26.8873C26.8073 10.592 25.9433 11.36 24.6953 11.36C23.2233 11.36 22.3113 9.808 22.3113 7.968C22.3113 6.144 23.2233 4.608 24.6953 4.608C26.0233 4.608 26.8073 5.2 26.8873 6.432H27.9273ZM31.0344 0.447999H30.0744V12H31.0344V7.648L35.2584 12H36.4744L32.0904 7.44L36.1544 3.968H34.9224L31.0344 7.248V0.447999ZM45.0396 9.856C45.0396 10.944 44.9276 12.24 46.9596 12.24C47.2796 12.24 47.6316 12.176 47.9356 12.096V11.264C47.6796 11.344 47.3916 11.36 47.1036 11.36C46.3676 11.36 45.9836 10.96 45.9996 10.224V4.848H47.8236V3.968H45.9996V1.84L45.0396 2.256V3.968H43.4396V4.848H45.0396V9.856ZM56.5117 7.984C56.5117 9.472 55.7437 11.36 53.8077 11.36C51.8717 11.36 51.1037 9.472 51.1037 7.984C51.1037 6.496 51.8717 4.608 53.8077 4.608C55.7437 4.608 56.5117 6.496 56.5117 7.984ZM53.8077 3.728C51.2477 3.728 50.0637 5.872 50.0637 7.984C50.0637 10.096 51.2477 12.24 53.8077 12.24C56.3677 12.24 57.5517 10.096 57.5517 7.984C57.5517 5.872 56.3677 3.728 53.8077 3.728ZM73.0946 11.2L71.7346 12H75.5266L73.9266 11.12L69.7186 1.6H67.7826L69.4946 3.088L66.0066 11.12L64.3266 12H68.0226L66.5826 11.2L67.6546 8.72H71.9906L73.0946 11.2ZM69.7986 3.792L71.7506 8.16H67.8946L69.7986 3.792ZM78.2497 1.6V11.28L76.9697 12H80.3297L79.0497 11.28V0.559999L76.9697 1.2L78.2497 1.6ZM88.5622 7.68C88.5622 5.92 87.8422 4.56 85.8102 4.56C83.9062 4.56 82.3222 6.064 82.3222 8.4C82.3222 10.56 83.6022 12.24 85.6822 12.24C88.0822 12.24 88.5622 9.92 88.5622 9.92C88.5622 9.92 87.8422 11.52 86.0822 11.52C84.4822 11.52 83.1222 10.528 83.1222 8.144C83.1222 7.984 83.1222 7.84 83.1382 7.68H88.5622ZM85.7782 4.944C86.8982 4.944 87.6822 5.68 87.6822 6.48C87.6822 7.12 87.1222 7.2 86.3222 7.2H83.2182C83.5702 5.664 84.7702 4.944 85.7782 4.944ZM92.8298 5.44L93.9498 4.8H90.3978L91.9178 5.52L93.9978 8.24L91.7578 11.28L90.2378 12H93.4218L92.3018 11.36L94.3018 8.64L96.3978 11.36L95.2778 12H98.8138L97.2938 11.28L94.7658 7.984L96.5738 5.52L98.1578 4.8H94.9258L96.0458 5.44L94.4618 7.584L92.8298 5.44ZM100.736 1.6C100.736 2.048 101.088 2.4 101.536 2.4H101.616L100.816 4.24C102.256 2.48 102.336 2.16 102.336 1.6C102.336 1.152 101.984 0.799999 101.536 0.799999C101.088 0.799999 100.736 1.152 100.736 1.6ZM109.852 4.56L109.212 5.2C109.212 5.2 108.652 4.56 107.532 4.56C106.252 4.56 105.212 5.312 105.212 6.48C105.212 8.896 109.532 8.224 109.532 10.288C109.532 11.36 108.572 11.76 107.852 11.76C107.372 11.76 106.492 11.616 105.98 10.56L105.292 9.12V12.24L105.852 11.296C105.868 11.344 106.364 12.24 107.852 12.24C109.132 12.24 110.252 11.472 110.252 10.032C110.252 7.392 105.852 8 105.852 6.24C105.852 5.6 106.476 5.04 107.532 5.04C108.652 5.04 109.132 5.76 109.132 5.76L109.852 7.056V4.56ZM124.965 1.6H120.645L122.565 2.48V9.04C122.565 10.992 121.765 11.76 120.485 11.76C119.205 11.76 118.645 11.04 118.645 10.4C118.645 9.76 119.365 9.84 119.365 9.232C119.365 8.88 119.141 8.592 118.709 8.592C118.277 8.592 117.765 8.96 117.765 9.84C117.765 10.768 118.341 12.24 120.485 12.24C122.485 12.24 123.365 10.8 123.365 8.88V2.48L124.965 1.6ZM129.61 4.992C130.938 4.992 132.378 6.16 132.378 8.816C132.378 10.704 131.242 11.808 130.058 11.808C128.746 11.808 127.29 10.64 127.29 7.984C127.29 6.064 128.442 4.992 129.61 4.992ZM126.41 8.4C126.41 10.56 127.61 12.24 129.834 12.24C131.898 12.24 133.258 10.56 133.258 8.4C133.258 6.24 132.058 4.56 129.834 4.56C127.77 4.56 126.41 6.24 126.41 8.4ZM140.939 5.6V10.272C140.459 10.864 139.499 11.632 138.539 11.632C137.499 11.632 137.019 10.88 137.019 9.6V4.56L134.939 5.2L136.219 5.6V9.84C136.219 11.6 137.099 12.24 138.219 12.24C139.339 12.24 140.379 11.36 140.939 10.752V12.24L143.019 11.6L141.739 11.2V4.56L139.659 5.2L140.939 5.6ZM146.142 5.6V11.28L144.862 12H148.222L146.942 11.28V6.72C147.662 5.92 148.27 5.424 148.59 5.424C149.118 5.424 149.038 5.92 149.598 5.92C149.982 5.92 150.222 5.648 150.222 5.312C150.222 4.832 149.902 4.56 149.342 4.56C148.894 4.56 148.51 4.736 148.014 5.216L146.942 6.24V4.56L144.862 5.2L146.142 5.6ZM153.586 5.6V11.28L152.306 12H155.666L154.386 11.28V6.528C154.866 5.936 155.826 5.168 156.786 5.168C157.826 5.168 158.306 5.92 158.306 7.2V11.28L157.026 12H160.386L159.106 11.28V6.96C159.106 5.2 158.226 4.56 157.106 4.56C155.986 4.56 154.946 5.44 154.386 6.048V4.56L152.306 5.2L153.586 5.6ZM168.381 7.68C168.381 5.92 167.661 4.56 165.629 4.56C163.725 4.56 162.141 6.064 162.141 8.4C162.141 10.56 163.421 12.24 165.501 12.24C167.901 12.24 168.381 9.92 168.381 9.92C168.381 9.92 167.661 11.52 165.901 11.52C164.301 11.52 162.941 10.528 162.941 8.144C162.941 7.984 162.941 7.84 162.957 7.68H168.381ZM165.597 4.944C166.717 4.944 167.501 5.68 167.501 6.48C167.501 7.12 166.941 7.2 166.141 7.2H163.037C163.389 5.664 164.589 4.944 165.597 4.944ZM178.745 4.8H175.545L176.825 5.44L174.793 10.528L172.361 5.44L173.641 4.8H170.057L171.497 5.52L174.393 11.52L173.513 13.76C173.321 14.224 173.113 14.624 172.905 14.624C172.617 14.624 172.633 14.128 172.089 14.128C171.753 14.128 171.449 14.4 171.449 14.816C171.449 15.28 171.801 15.6 172.329 15.6C172.921 15.6 173.481 15.152 173.993 13.856L177.305 5.52L178.745 4.8Z" fill="white"/>
<path d="M0.255936 13.6H59.2157V14.4H0.255936V13.6Z" fill="white"/>
<path d="M59.2103 13.6H178.745V14.4H59.2103V13.6Z" fill="white"/>
</svg>
