<svg width="329" height="50" viewBox="0 0 329 50" fill="none" xmlns="http://www.w3.org/2000/svg">
<path d="M5.45231 18H6.62231V12.348L11.3743 5.004H10.1143L6.13631 11.286L2.15831 5.004H0.664309L5.45231 12.384V18ZM18.9444 13.482C18.9444 15.156 18.0804 17.28 15.9024 17.28C13.7244 17.28 12.8604 15.156 12.8604 13.482C12.8604 11.808 13.7244 9.684 15.9024 9.684C18.0804 9.684 18.9444 11.808 18.9444 13.482ZM15.9024 8.694C13.0224 8.694 11.6904 11.106 11.6904 13.482C11.6904 15.858 13.0224 18.27 15.9024 18.27C18.7824 18.27 20.1144 15.858 20.1144 13.482C20.1144 11.106 18.7824 8.694 15.9024 8.694ZM30.1884 14.166C30.1884 15.786 29.3784 17.28 27.5964 17.28C26.1204 17.28 25.2204 16.362 25.2204 14.796V8.964H24.1404V14.616C24.1404 15.66 24.3744 18.27 27.3264 18.27C28.4964 18.27 29.5224 17.748 30.1524 16.632L30.1884 16.668L30.2424 18H31.3584C31.3224 17.388 31.2684 16.668 31.2684 15.966V8.964H30.1884V14.166ZM42.7881 8.964H41.6001L44.9121 18H46.0101L48.8361 10.206H48.8721L51.6441 18H52.6701L56.0361 8.964H54.8481L52.2381 16.506H52.2021L49.5381 8.964H48.2601L45.5241 16.578H45.4881L42.7881 8.964ZM59.5642 8.964V18H60.6442V8.964H59.5642ZM60.7342 5.004H59.4742V6.354H60.7342V5.004ZM66.4345 5.004H65.3545V18H66.4345V5.004ZM72.2247 5.004H71.1447V18H72.2247V5.004ZM91.3407 13.734C91.3407 10.908 90.2427 8.694 87.2187 8.694C84.5367 8.694 83.1867 11.034 83.1867 13.482C83.1867 15.948 84.4467 18.27 87.1467 18.27C89.3247 18.27 90.6747 17.28 91.2327 15.12H90.0987C89.8287 16.362 88.7667 17.28 87.4887 17.28C85.2747 17.28 84.3927 15.66 84.3567 13.734H91.3407ZM84.3927 12.744C84.5367 11.16 85.4727 9.684 87.2367 9.684C89.1087 9.684 90.0447 10.998 90.1707 12.744H84.3927ZM96.6087 12.798C96.6087 11.178 97.4187 9.684 99.2007 9.684C100.677 9.684 101.577 10.602 101.577 12.168V18H102.657V12.348C102.657 11.304 102.423 8.694 99.4707 8.694C98.3007 8.694 97.2747 9.216 96.6447 10.332L96.6087 10.296L96.5547 8.964H95.4387C95.4747 9.576 95.5287 10.296 95.5287 10.998V18H96.6087V12.798ZM108.105 15.588C108.105 16.812 107.979 18.27 110.265 18.27C110.625 18.27 111.021 18.198 111.363 18.108V17.172C111.075 17.262 110.751 17.28 110.427 17.28C109.599 17.28 109.167 16.83 109.185 16.002V9.954H111.237V8.964H109.185V6.57L108.105 7.038V8.964H106.305V9.954H108.105V15.588ZM122.739 13.734C122.739 10.908 121.641 8.694 118.617 8.694C115.935 8.694 114.585 11.034 114.585 13.482C114.585 15.948 115.845 18.27 118.545 18.27C120.723 18.27 122.073 17.28 122.631 15.12H121.497C121.227 16.362 120.165 17.28 118.887 17.28C116.673 17.28 115.791 15.66 115.755 13.734H122.739ZM115.791 12.744C115.935 11.16 116.871 9.684 118.635 9.684C120.507 9.684 121.443 10.998 121.569 12.744H115.791ZM128.007 12.564C128.043 10.836 128.889 9.684 130.491 9.684C130.707 9.684 130.941 9.738 131.157 9.756V8.712C130.797 8.694 130.437 8.676 130.077 8.694C129.177 8.73 128.367 9.378 128.043 10.296H128.007L127.953 8.964H126.837C126.873 9.576 126.945 10.296 126.927 10.998V18H128.007V12.564ZM153.243 16.8L151.203 18H156.891L154.491 16.68L148.179 2.4H145.275L147.843 4.632L142.611 16.68L140.091 18H145.635L143.475 16.8L145.083 13.08H151.587L153.243 16.8ZM148.299 5.688L151.227 12.24H145.443L148.299 5.688ZM161.935 2.4V16.92L160.015 18H165.055L163.135 16.92V0.839999L160.015 1.8L161.935 2.4ZM178.364 11.52C178.364 8.88 177.284 6.84 174.236 6.84C171.38 6.84 169.004 9.096 169.004 12.6C169.004 15.84 170.924 18.36 174.044 18.36C177.644 18.36 178.364 14.88 178.364 14.88C178.364 14.88 177.284 17.28 174.644 17.28C172.244 17.28 170.204 15.792 170.204 12.216C170.204 11.976 170.204 11.76 170.228 11.52H178.364ZM174.188 7.416C175.868 7.416 177.044 8.52 177.044 9.72C177.044 10.68 176.204 10.8 175.004 10.8H170.348C170.876 8.496 172.676 7.416 174.188 7.416ZM185.725 8.16L187.405 7.2H182.077L184.357 8.28L187.477 12.36L184.117 16.92L181.837 18H186.613L184.933 17.04L187.933 12.96L191.077 17.04L189.397 18H194.701L192.421 16.92L188.629 11.976L191.341 8.28L193.717 7.2H188.869L190.549 8.16L188.173 11.376L185.725 8.16ZM198.545 2.4C198.545 3.072 199.073 3.6 199.745 3.6H199.865L198.665 6.36C200.825 3.72 200.945 3.24 200.945 2.4C200.945 1.728 200.417 1.2 199.745 1.2C199.073 1.2 198.545 1.728 198.545 2.4ZM213.178 6.84L212.218 7.8C212.218 7.8 211.378 6.84 209.698 6.84C207.778 6.84 206.218 7.968 206.218 9.72C206.218 13.344 212.698 12.336 212.698 15.432C212.698 17.04 211.258 17.64 210.178 17.64C209.458 17.64 208.138 17.424 207.37 15.84L206.338 13.68V18.36L207.178 16.944C207.202 17.016 207.946 18.36 210.178 18.36C212.098 18.36 213.778 17.208 213.778 15.048C213.778 11.088 207.178 12 207.178 9.36C207.178 8.4 208.114 7.56 209.698 7.56C211.378 7.56 212.098 8.64 212.098 8.64L213.178 10.584V6.84ZM237.768 2.4H231.288L234.168 3.72V13.56C234.168 16.488 232.968 17.64 231.048 17.64C229.128 17.64 228.288 16.56 228.288 15.6C228.288 14.64 229.368 14.76 229.368 13.848C229.368 13.32 229.032 12.888 228.384 12.888C227.736 12.888 226.968 13.44 226.968 14.76C226.968 16.152 227.832 18.36 231.048 18.36C234.048 18.36 235.368 16.2 235.368 13.32V3.72L237.768 2.4ZM245.696 7.488C247.688 7.488 249.848 9.24 249.848 13.224C249.848 16.056 248.144 17.712 246.368 17.712C244.4 17.712 242.216 15.96 242.216 11.976C242.216 9.096 243.944 7.488 245.696 7.488ZM240.896 12.6C240.896 15.84 242.696 18.36 246.032 18.36C249.128 18.36 251.168 15.84 251.168 12.6C251.168 9.36 249.368 6.84 246.032 6.84C242.936 6.84 240.896 9.36 240.896 12.6ZM263.649 8.4V15.408C262.929 16.296 261.489 17.448 260.049 17.448C258.489 17.448 257.769 16.32 257.769 14.4V6.84L254.649 7.8L256.569 8.4V14.76C256.569 17.4 257.889 18.36 259.569 18.36C261.249 18.36 262.809 17.04 263.649 16.128V18.36L266.769 17.4L264.849 16.8V6.84L261.729 7.8L263.649 8.4ZM272.413 8.4V16.92L270.493 18H275.533L273.613 16.92V10.08C274.693 8.88 275.605 8.136 276.085 8.136C276.877 8.136 276.757 8.88 277.597 8.88C278.173 8.88 278.533 8.472 278.533 7.968C278.533 7.248 278.053 6.84 277.213 6.84C276.541 6.84 275.965 7.104 275.221 7.824L273.613 9.36V6.84L270.493 7.8L272.413 8.4ZM284.54 8.4V16.92L282.62 18H287.66L285.74 16.92V9.792C286.46 8.904 287.9 7.752 289.34 7.752C290.9 7.752 291.62 8.88 291.62 10.8V16.92L289.7 18H294.74L292.82 16.92V10.44C292.82 7.8 291.5 6.84 289.82 6.84C288.14 6.84 286.58 8.16 285.74 9.072V6.84L282.62 7.8L284.54 8.4ZM307.692 11.52C307.692 8.88 306.612 6.84 303.564 6.84C300.708 6.84 298.332 9.096 298.332 12.6C298.332 15.84 300.252 18.36 303.372 18.36C306.972 18.36 307.692 14.88 307.692 14.88C307.692 14.88 306.612 17.28 303.972 17.28C301.572 17.28 299.532 15.792 299.532 12.216C299.532 11.976 299.532 11.76 299.556 11.52H307.692ZM303.516 7.416C305.196 7.416 306.372 8.52 306.372 9.72C306.372 10.68 305.532 10.8 304.332 10.8H299.676C300.204 8.496 302.004 7.416 303.516 7.416ZM324.198 7.2H319.398L321.318 8.16L318.27 15.792L314.622 8.16L316.542 7.2H311.166L313.326 8.28L317.67 17.28L316.35 20.64C316.062 21.336 315.75 21.936 315.438 21.936C315.006 21.936 315.03 21.192 314.214 21.192C313.71 21.192 313.254 21.6 313.254 22.224C313.254 22.92 313.782 23.4 314.574 23.4C315.462 23.4 316.302 22.728 317.07 20.784L322.038 8.28L324.198 7.2ZM325.646 16.92C325.646 17.592 326.174 18.12 326.846 18.12C327.518 18.12 328.046 17.592 328.046 16.92C328.046 16.248 327.518 15.72 326.846 15.72C326.174 15.72 325.646 16.248 325.646 16.92ZM89.5841 42.58C89.5841 38.098 82.2401 39.772 82.2401 36.082C82.2401 34.498 83.9141 33.814 85.2641 33.814C86.5961 33.814 88.0541 34.228 88.0901 35.83H89.3501C89.0621 33.328 86.8301 32.734 85.1201 32.734C83.0681 32.734 80.9801 33.976 80.9801 36.244C80.9801 39.052 84.1841 39.718 86.2901 40.42C87.3881 40.78 88.3241 41.392 88.3241 42.688C88.3241 44.344 86.6501 45.19 85.1921 45.19C83.4461 45.19 81.9701 44.614 81.9341 42.616H80.6741C80.7281 44.758 82.4741 46.27 84.5441 46.27C87.1541 46.27 89.5841 45.406 89.5841 42.58ZM94.648 43.588C94.648 44.812 94.522 46.27 96.808 46.27C97.168 46.27 97.564 46.198 97.906 46.108V45.172C97.618 45.262 97.294 45.28 96.97 45.28C96.142 45.28 95.71 44.83 95.728 44.002V37.954H97.78V36.964H95.728V34.57L94.648 35.038V36.964H92.848V37.954H94.648V43.588ZM102.398 43.48C102.398 41.212 105.602 41.5 107.132 41.446C107.24 43.336 106.79 45.28 104.432 45.28C103.334 45.28 102.398 44.704 102.398 43.48ZM107.132 40.456C105.818 40.528 104.252 40.348 103.046 40.87C101.966 41.32 101.228 42.256 101.228 43.48C101.228 45.244 102.56 46.27 104.234 46.27C105.458 46.27 106.664 45.55 107.06 44.794L107.114 44.668H107.15L107.186 46H108.302C108.266 45.388 108.194 44.668 108.212 43.966V39.682C108.248 37.612 107.006 36.694 105.008 36.694C103.28 36.694 101.894 37.396 101.624 39.25H102.776C102.92 38.026 103.856 37.684 104.99 37.684C106.268 37.684 107.024 38.152 107.132 39.628V40.456ZM113.9 40.564C113.936 38.836 114.782 37.684 116.384 37.684C116.6 37.684 116.834 37.738 117.05 37.756V36.712C116.69 36.694 116.33 36.676 115.97 36.694C115.07 36.73 114.26 37.378 113.936 38.296H113.9L113.846 36.964H112.73C112.766 37.576 112.838 38.296 112.82 38.998V46H113.9V40.564ZM121.388 43.588C121.388 44.812 121.262 46.27 123.548 46.27C123.908 46.27 124.304 46.198 124.646 46.108V45.172C124.358 45.262 124.034 45.28 123.71 45.28C122.882 45.28 122.45 44.83 122.468 44.002V37.954H124.52V36.964H122.468V34.57L121.388 35.038V36.964H119.588V37.954H121.388V43.588ZM139.034 37.684C141.086 37.684 141.788 39.628 141.788 41.356C141.788 43.03 141.266 45.28 139.196 45.28C136.838 45.28 136.118 43.354 136.118 41.302C136.118 39.466 136.928 37.684 139.034 37.684ZM136.118 44.668L136.154 44.596C136.892 45.676 137.99 46.27 139.304 46.27C141.932 46.27 142.958 43.714 142.958 41.446C142.958 39.106 141.932 36.694 139.25 36.694C138.044 36.694 136.784 37.27 136.154 38.332L136.118 38.296V33.004H135.038V43.966C135.038 44.668 134.984 45.388 134.948 46H136.064L136.118 44.668ZM145.372 36.964L149.116 46L147.748 49.456H148.936L153.922 36.964H152.752L149.728 44.524L146.686 36.964H145.372ZM163.972 39.214C163.972 40.888 165.412 41.302 166.834 41.644C168.274 41.968 169.696 42.184 169.696 43.48C169.696 44.74 168.49 45.28 167.338 45.28C166.114 45.28 164.926 44.884 164.836 43.534H163.666C163.702 45.532 165.502 46.27 167.068 46.27C168.976 46.27 170.866 45.352 170.866 43.318C170.866 42.346 170.272 41.536 169.336 41.212C166.888 40.348 165.142 40.474 165.142 39.142C165.142 38.08 166.168 37.684 167.176 37.684C168.292 37.684 169.3 38.062 169.408 39.196H170.578C170.434 37.288 168.994 36.694 167.284 36.694C165.7 36.694 163.972 37.342 163.972 39.214ZM181.954 39.736C181.864 37.81 180.352 36.694 178.498 36.694C175.816 36.694 174.466 39.034 174.466 41.482C174.466 43.948 175.726 46.27 178.426 46.27C180.478 46.27 181.666 45.244 181.954 43.174H180.784C180.694 44.416 179.722 45.28 178.318 45.28C176.662 45.28 175.636 43.534 175.636 41.464C175.636 39.412 176.662 37.684 178.318 37.684C179.812 37.684 180.694 38.35 180.784 39.736H181.954ZM186.958 40.564C186.994 38.836 187.84 37.684 189.442 37.684C189.658 37.684 189.892 37.738 190.108 37.756V36.712C189.748 36.694 189.388 36.676 189.028 36.694C188.128 36.73 187.318 37.378 186.994 38.296H186.958L186.904 36.964H185.788C185.824 37.576 185.896 38.296 185.878 38.998V46H186.958V40.564ZM200.278 41.482C200.278 43.156 199.414 45.28 197.236 45.28C195.058 45.28 194.194 43.156 194.194 41.482C194.194 39.808 195.058 37.684 197.236 37.684C199.414 37.684 200.278 39.808 200.278 41.482ZM197.236 36.694C194.356 36.694 193.024 39.106 193.024 41.482C193.024 43.858 194.356 46.27 197.236 46.27C200.116 46.27 201.448 43.858 201.448 41.482C201.448 39.106 200.116 36.694 197.236 36.694ZM206.572 33.004H205.492V46H206.572V33.004ZM212.362 33.004H211.282V46H212.362V33.004ZM217.072 36.964V46H218.152V36.964H217.072ZM218.242 33.004H216.982V34.354H218.242V33.004ZM223.925 40.798C223.925 39.178 224.735 37.684 226.517 37.684C227.993 37.684 228.893 38.602 228.893 40.168V46H229.973V40.348C229.973 39.304 229.739 36.694 226.787 36.694C225.617 36.694 224.591 37.216 223.961 38.332L223.925 38.296L223.871 36.964H222.755C222.791 37.576 222.845 38.296 222.845 38.998V46H223.925V40.798ZM240.875 41.284C240.875 43.048 240.083 44.974 238.013 44.974C236.033 44.974 235.187 42.976 235.187 41.32C235.187 39.664 236.015 37.684 237.977 37.684C239.921 37.684 240.875 39.556 240.875 41.284ZM240.875 38.296L240.839 38.368C240.119 37.324 239.183 36.694 237.869 36.694C235.115 36.694 234.017 38.962 234.017 41.41C234.017 43.894 235.187 45.964 237.905 45.964C239.075 45.964 240.317 45.334 240.839 44.272H240.875V45.964C240.839 47.476 239.543 48.466 238.139 48.466C236.987 48.466 235.709 48.106 235.583 47.026H234.413C234.413 48.898 236.357 49.456 237.995 49.456C238.841 49.456 239.327 49.384 240.047 49.042C242.045 48.106 241.955 46.216 241.955 44.416V38.998C241.955 38.296 242.009 37.576 242.045 36.964H240.929L240.875 38.296ZM248.582 46V44.452H247.142V46H248.582Z" fill="white"/>
</svg>
