<svg width="436" height="71" viewBox="0 0 436 71" fill="none" xmlns="http://www.w3.org/2000/svg">
<rect width="436" height="71" fill="black" fill-opacity="0.69"/>
<path d="M10.66 14H11.556V4.648H14.02V3.892H8.196V4.648H10.66V14ZM17.3147 14V9.562C17.3147 7.98 18.0847 7.462 18.8407 7.462C19.8207 7.462 20.1427 8.232 20.1427 9.058V14H20.9827V9.016C20.9827 8.092 20.8007 6.79 19.0507 6.79C18.2947 6.79 17.7487 7.21 17.3427 7.798H17.3147V3.892H16.4747V14H17.3147ZM25.2154 14V6.93H24.3754V14H25.2154ZM25.3134 4.956V3.892H24.2774V4.956H25.3134ZM32.5609 12.138C32.5609 9.772 29.3829 10.248 29.3829 8.484C29.3829 7.854 29.8589 7.462 30.4609 7.462C31.4129 7.462 31.6509 7.938 31.6929 8.834H32.5189C32.5189 7.756 32.0709 6.79 30.6709 6.79C29.4389 6.79 28.5429 7.252 28.5429 8.554C28.5429 10.892 31.7209 10.416 31.7209 12.264C31.7209 13.048 31.3289 13.51 30.5169 13.51C29.4389 13.51 29.2149 12.866 29.2149 11.9H28.3609C28.3469 13.398 28.9489 14.14 30.4749 14.14C31.7909 14.14 32.5609 13.468 32.5609 12.138ZM42.9398 14.196C45.3338 14.196 45.5018 11.83 45.5018 11.102H44.5498C44.5358 12.404 44.1018 13.44 42.9398 13.44C40.8118 13.44 40.7838 11.634 40.7838 8.946C40.7838 6.258 40.8118 4.452 42.9398 4.452C44.2278 4.452 44.5358 5.502 44.5358 6.622H45.4318C45.4318 5.712 45.3898 3.696 42.9398 3.696C39.9158 3.696 39.8878 6.216 39.8878 8.946C39.8878 11.676 39.9158 14.196 42.9398 14.196ZM50.5978 14.14C52.2498 14.14 53.0338 13.062 53.0338 11.228V9.702C53.0338 7.868 52.2498 6.79 50.5978 6.79C48.9458 6.79 48.1618 7.868 48.1618 9.702V11.228C48.1618 13.062 48.9458 14.14 50.5978 14.14ZM50.5978 7.462C51.9838 7.462 52.1938 8.624 52.1938 10.458C52.1938 12.306 51.9838 13.468 50.5978 13.468C49.2118 13.468 49.0018 12.306 49.0018 10.458C49.0018 8.624 49.2118 7.462 50.5978 7.462ZM57.0845 14V3.892H56.2445V14H57.0845ZM64.0801 6.93V11.914C64.0801 12.404 63.6741 13.468 62.5401 13.468C61.3221 13.468 61.3641 11.984 61.3641 11.788V6.93H60.5241V11.928C60.5241 13.076 60.9301 14.14 62.3861 14.14C63.1701 14.14 63.6741 13.818 64.1641 13.216H64.1921V14H64.9201V6.93H64.0801ZM68.9148 9.45C68.9148 8.526 69.3208 7.462 70.3848 7.462C71.2108 7.462 71.4628 8.246 71.4768 8.946V14H72.3168V9.45C72.3168 8.526 72.7228 7.462 73.7868 7.462C74.6128 7.462 74.8648 8.246 74.8788 8.946V14H75.7188V8.736C75.6768 7.602 75.0608 6.79 73.8848 6.79C73.1008 6.79 72.4988 7.196 72.1488 7.896C71.9108 7.196 71.2668 6.79 70.5388 6.79C69.7548 6.79 69.1948 7.224 68.8588 7.798H68.8308V6.916H68.0748V14H68.9148V9.45ZM79.6667 10.36C79.6667 9.296 79.8347 7.462 81.1927 7.462C82.7467 7.462 82.7887 8.834 82.7887 10.486C82.7887 12.138 82.7467 13.468 81.1927 13.468C79.6667 13.468 79.6667 11.48 79.6667 10.36ZM79.6387 14V13.146H79.6667C80.0167 13.804 80.6187 14.14 81.4447 14.14C83.5027 14.14 83.6287 12.012 83.6287 10.458C83.6287 9.198 83.8107 6.79 81.5147 6.79C80.7167 6.79 80.1567 7.084 79.7227 7.756L79.6947 7.728V3.892H78.8547V13.3C78.8547 13.538 78.8127 13.762 78.7707 14H79.6387ZM87.5674 14V6.93H86.7274V14H87.5674ZM87.6654 4.956V3.892H86.6294V4.956H87.6654ZM91.7909 9.562C91.7909 7.98 92.5609 7.462 93.3169 7.462C94.2969 7.462 94.6189 8.232 94.6189 9.058V14H95.4589V9.016C95.4589 8.092 95.2769 6.79 93.5269 6.79C92.7709 6.79 92.2249 7.21 91.8189 7.798H91.7909V6.93H90.9509V14H91.7909V9.562ZM103.262 10.64C103.262 8.54 103.262 6.79 100.826 6.79C99.2436 6.79 98.3896 7.728 98.3896 9.772V11.508C98.3896 13.65 99.6076 14.14 100.826 14.14C102.24 14.14 103.164 13.552 103.262 11.844H102.38C102.394 12.796 101.876 13.468 100.826 13.468C99.4956 13.468 99.2296 12.166 99.2296 11.186V10.64H103.262ZM99.2296 9.968C99.2296 8.4 99.4816 7.462 100.826 7.462C102.17 7.462 102.422 8.4 102.422 9.968H99.2296ZM112.502 14H113.398V4.648H115.862V3.892H110.038V4.648H112.502V14ZM120.875 11.676C120.875 12.6 120.091 13.468 119.125 13.468C118.257 13.468 117.851 12.81 117.851 12.012C117.851 10.29 119.671 10.43 120.875 10.388V11.676ZM120.931 14H121.799C121.715 13.174 121.715 12.726 121.715 12.222V8.666C121.715 6.86 120.231 6.79 119.517 6.79C118.285 6.79 117.235 7.322 117.165 8.68H118.061C118.061 7.84 118.677 7.462 119.447 7.462C120.567 7.462 120.875 8.092 120.875 9.128V9.716C119.447 9.828 116.955 9.576 116.955 12.054C116.955 13.286 117.641 14.14 118.901 14.14C119.769 14.14 120.455 13.804 120.903 13.132H120.931V14ZM125.766 9.828C125.766 8.078 126.718 7.462 127.264 7.462C128.65 7.462 128.86 8.624 128.86 10.458C128.86 12.306 128.65 13.468 127.264 13.468C126.494 13.468 125.766 12.698 125.766 11.088V9.828ZM125.738 6.93H124.926V16.674H125.766V13.202L125.794 13.216C126.228 13.888 126.746 14.14 127.264 14.14C129.07 14.14 129.7 13.062 129.7 11.228V9.646C129.7 8.722 129.686 6.79 127.474 6.79C126.914 6.79 126.214 7.084 125.766 7.77L125.738 7.784V6.93ZM137.209 10.64C137.209 8.54 137.209 6.79 134.773 6.79C133.191 6.79 132.337 7.728 132.337 9.772V11.508C132.337 13.65 133.555 14.14 134.773 14.14C136.187 14.14 137.111 13.552 137.209 11.844H136.327C136.341 12.796 135.823 13.468 134.773 13.468C133.443 13.468 133.177 12.166 133.177 11.186V10.64H137.209ZM133.177 9.968C133.177 8.4 133.429 7.462 134.773 7.462C136.117 7.462 136.369 8.4 136.369 9.968H133.177ZM144.102 12.138C144.102 9.772 140.924 10.248 140.924 8.484C140.924 7.854 141.4 7.462 142.002 7.462C142.954 7.462 143.192 7.938 143.234 8.834H144.06C144.06 7.756 143.612 6.79 142.212 6.79C140.98 6.79 140.084 7.252 140.084 8.554C140.084 10.892 143.262 10.416 143.262 12.264C143.262 13.048 142.87 13.51 142.058 13.51C140.98 13.51 140.756 12.866 140.756 11.9H139.902C139.888 13.398 140.49 14.14 142.016 14.14C143.332 14.14 144.102 13.468 144.102 12.138ZM155.446 12.138C155.446 9.772 152.268 10.248 152.268 8.484C152.268 7.854 152.744 7.462 153.346 7.462C154.298 7.462 154.536 7.938 154.578 8.834H155.404C155.404 7.756 154.956 6.79 153.556 6.79C152.324 6.79 151.428 7.252 151.428 8.554C151.428 10.892 154.606 10.416 154.606 12.264C154.606 13.048 154.214 13.51 153.402 13.51C152.324 13.51 152.1 12.866 152.1 11.9H151.246C151.232 13.398 151.834 14.14 153.36 14.14C154.676 14.14 155.446 13.468 155.446 12.138ZM159.166 14V9.562C159.166 7.98 159.936 7.462 160.692 7.462C161.672 7.462 161.994 8.232 161.994 9.058V14H162.834V9.016C162.834 8.092 162.652 6.79 160.902 6.79C160.146 6.79 159.6 7.21 159.194 7.798H159.166V3.892H158.326V14H159.166ZM168.201 14.14C169.853 14.14 170.637 13.062 170.637 11.228V9.702C170.637 7.868 169.853 6.79 168.201 6.79C166.549 6.79 165.765 7.868 165.765 9.702V11.228C165.765 13.062 166.549 14.14 168.201 14.14ZM168.201 7.462C169.587 7.462 169.797 8.624 169.797 10.458C169.797 12.306 169.587 13.468 168.201 13.468C166.815 13.468 166.605 12.306 166.605 10.458C166.605 8.624 166.815 7.462 168.201 7.462ZM174.799 14H175.849L177.333 7.952H177.361L178.915 14H179.965L181.911 6.93H181.071L179.489 13.118H179.461L177.893 6.93H176.857L175.359 13.118H175.331L173.749 6.93H172.853L174.799 14ZM189.005 3.892V14H193.681V13.244H189.901V9.184H193.415V8.428H189.901V4.648H193.583V3.892H189.005ZM197.325 6.93H196.485V14H197.325V9.45C197.325 8.26 198.109 7.546 199.299 7.644V6.79C198.445 6.79 197.703 7.21 197.353 7.882H197.325V6.93ZM202.846 14V6.93H202.006V14H202.846ZM202.944 4.956V3.892H201.908V4.956H202.944ZM210.219 8.96C210.289 7.476 209.463 6.79 208.245 6.79C207.279 6.79 206.481 7.154 206.117 8.162C205.935 8.694 205.907 9.8 205.907 10.5C205.907 12.25 205.907 14.14 208.301 14.14C208.959 14.14 210.303 13.818 210.233 11.914H209.393C209.351 12.768 209.211 13.468 208.105 13.468C206.803 13.468 206.803 11.774 206.803 10.5C206.803 9.562 206.887 8.596 206.999 8.274C207.181 7.756 207.615 7.462 208.133 7.462C209.099 7.462 209.421 8.078 209.379 8.96H210.219ZM221.172 11.676C221.172 12.6 220.388 13.468 219.422 13.468C218.554 13.468 218.148 12.81 218.148 12.012C218.148 10.29 219.968 10.43 221.172 10.388V11.676ZM221.228 14H222.096C222.012 13.174 222.012 12.726 222.012 12.222V8.666C222.012 6.86 220.528 6.79 219.814 6.79C218.582 6.79 217.532 7.322 217.462 8.68H218.358C218.358 7.84 218.974 7.462 219.744 7.462C220.864 7.462 221.172 8.092 221.172 9.128V9.716C219.744 9.828 217.252 9.576 217.252 12.054C217.252 13.286 217.938 14.14 219.198 14.14C220.066 14.14 220.752 13.804 221.2 13.132H221.228V14ZM226.035 9.562C226.035 7.98 226.805 7.462 227.561 7.462C228.541 7.462 228.863 8.232 228.863 9.058V14H229.703V9.016C229.703 8.092 229.521 6.79 227.771 6.79C227.015 6.79 226.469 7.21 226.063 7.798H226.035V6.93H225.195V14H226.035V9.562ZM234.93 13.468C234.02 13.468 233.39 13.118 233.39 10.486C233.39 8.834 233.39 7.462 234.902 7.462C236.484 7.462 236.484 9.422 236.484 9.842V11.102C236.484 12.824 235.728 13.468 234.93 13.468ZM236.568 14H237.38C237.338 13.762 237.296 13.3 237.296 12.6V3.892H236.456V7.644L236.428 7.63C235.994 7.084 235.364 6.79 234.72 6.79C232.55 6.79 232.55 9.1 232.55 10.458C232.55 12.11 232.662 14.14 234.706 14.14C235.532 14.14 236.064 13.79 236.498 13.118L236.526 13.104L236.568 14ZM246.032 4.648H247.208C249.7 4.648 250.092 5.488 250.092 8.386C250.092 12.516 249.826 13.244 247.124 13.244H246.032V4.648ZM245.136 14H247.446C250.498 14 250.988 12.348 250.988 8.988C250.988 5.544 250.638 3.892 247.81 3.892H245.136V14ZM254.819 16.674H255.645L258.571 6.93H257.731L256.065 12.726H256.037L254.315 6.93H253.405L255.645 14.014L254.819 16.674ZM262.081 14V3.892H261.241V14H262.081ZM269.062 11.676C269.062 12.6 268.278 13.468 267.312 13.468C266.444 13.468 266.038 12.81 266.038 12.012C266.038 10.29 267.858 10.43 269.062 10.388V11.676ZM269.118 14H269.986C269.902 13.174 269.902 12.726 269.902 12.222V8.666C269.902 6.86 268.418 6.79 267.704 6.79C266.472 6.79 265.422 7.322 265.352 8.68H266.248C266.248 7.84 266.864 7.462 267.634 7.462C268.754 7.462 269.062 8.092 269.062 9.128V9.716C267.634 9.828 265.142 9.576 265.142 12.054C265.142 13.286 265.828 14.14 267.088 14.14C267.956 14.14 268.642 13.804 269.09 13.132H269.118V14ZM273.925 9.562C273.925 7.98 274.695 7.462 275.451 7.462C276.431 7.462 276.753 8.232 276.753 9.058V14H277.593V9.016C277.593 8.092 277.411 6.79 275.661 6.79C274.905 6.79 274.359 7.21 273.953 7.798H273.925V6.93H273.085V14H273.925V9.562ZM286.077 9.828C286.077 8.078 287.029 7.462 287.575 7.462C288.961 7.462 289.171 8.624 289.171 10.458C289.171 12.306 288.961 13.468 287.575 13.468C286.805 13.468 286.077 12.698 286.077 11.088V9.828ZM286.049 6.93H285.237V16.674H286.077V13.202L286.105 13.216C286.539 13.888 287.057 14.14 287.575 14.14C289.381 14.14 290.011 13.062 290.011 11.228V9.646C290.011 8.722 289.997 6.79 287.785 6.79C287.225 6.79 286.525 7.084 286.077 7.77L286.049 7.784V6.93ZM293.95 14V3.892H293.11V14H293.95ZM300.931 11.676C300.931 12.6 300.147 13.468 299.181 13.468C298.313 13.468 297.907 12.81 297.907 12.012C297.907 10.29 299.727 10.43 300.931 10.388V11.676ZM300.987 14H301.855C301.771 13.174 301.771 12.726 301.771 12.222V8.666C301.771 6.86 300.287 6.79 299.573 6.79C298.341 6.79 297.291 7.322 297.221 8.68H298.117C298.117 7.84 298.733 7.462 299.503 7.462C300.623 7.462 300.931 8.092 300.931 9.128V9.716C299.503 9.828 297.011 9.576 297.011 12.054C297.011 13.286 297.697 14.14 298.957 14.14C299.825 14.14 300.511 13.804 300.959 13.132H300.987V14ZM305.654 16.674H306.48L309.406 6.93H308.566L306.9 12.726H306.872L305.15 6.93H304.24L306.48 14.014L305.654 16.674ZM312.915 14V6.93H312.075V14H312.915ZM313.013 4.956V3.892H311.977V4.956H313.013ZM317.139 9.562C317.139 7.98 317.909 7.462 318.665 7.462C319.645 7.462 319.967 8.232 319.967 9.058V14H320.807V9.016C320.807 8.092 320.625 6.79 318.875 6.79C318.119 6.79 317.573 7.21 317.167 7.798H317.139V6.93H316.299V14H317.139V9.562ZM325.978 7.462C326.762 7.462 327.56 8.022 327.56 9.506C327.56 11.578 327.504 11.9 327.294 12.446C327.168 12.782 326.72 13.244 326.02 13.244C324.494 13.244 324.494 11.774 324.494 10.304C324.494 9.254 324.522 7.462 325.978 7.462ZM327.616 7.812L327.588 7.784C327.28 7.154 326.566 6.79 325.852 6.79C324.424 6.79 323.934 7.896 323.864 8.19C323.668 8.946 323.654 8.96 323.654 10.598C323.654 12.166 323.794 13.916 325.824 13.916C326.496 13.916 327.168 13.664 327.532 13.062H327.56C327.56 15.176 327.658 16.058 326.02 16.058C325.236 16.058 324.634 15.582 324.69 14.77H323.85C323.794 15.484 324.144 16.73 325.908 16.73C327.924 16.73 328.4 15.806 328.4 14.252V8.302C328.4 7.938 328.414 7.588 328.442 6.916H327.616V7.812ZM339.642 11.676C339.642 12.6 338.858 13.468 337.892 13.468C337.024 13.468 336.618 12.81 336.618 12.012C336.618 10.29 338.438 10.43 339.642 10.388V11.676ZM339.698 14H340.566C340.482 13.174 340.482 12.726 340.482 12.222V8.666C340.482 6.86 338.998 6.79 338.284 6.79C337.052 6.79 336.002 7.322 335.932 8.68H336.828C336.828 7.84 337.444 7.462 338.214 7.462C339.334 7.462 339.642 8.092 339.642 9.128V9.716C338.214 9.828 335.722 9.576 335.722 12.054C335.722 13.286 336.408 14.14 337.668 14.14C338.536 14.14 339.222 13.804 339.67 13.132H339.698V14ZM344.169 7.602V12.656C344.169 13.524 344.505 14.028 345.639 14.028C345.905 14.028 346.185 14.014 346.437 13.986V13.258C346.255 13.286 346.059 13.3 345.779 13.3C345.107 13.3 345.009 13.076 345.009 12.138V7.602H346.437V6.93H345.009V5.11L344.169 5.474V6.93H343.035V7.602H344.169ZM354.305 14V9.562C354.305 7.98 355.075 7.462 355.831 7.462C356.811 7.462 357.133 8.232 357.133 9.058V14H357.973V9.016C357.973 8.092 357.791 6.79 356.041 6.79C355.285 6.79 354.739 7.21 354.333 7.798H354.305V3.892H353.465V14H354.305ZM363.339 14.14C364.991 14.14 365.775 13.062 365.775 11.228V9.702C365.775 7.868 364.991 6.79 363.339 6.79C361.687 6.79 360.903 7.868 360.903 9.702V11.228C360.903 13.062 361.687 14.14 363.339 14.14ZM363.339 7.462C364.725 7.462 364.935 8.624 364.935 10.458C364.935 12.306 364.725 13.468 363.339 13.468C361.953 13.468 361.743 12.306 361.743 10.458C361.743 8.624 361.953 7.462 363.339 7.462ZM369.532 9.45C369.532 8.526 369.938 7.462 371.002 7.462C371.828 7.462 372.08 8.246 372.094 8.946V14H372.934V9.45C372.934 8.526 373.34 7.462 374.404 7.462C375.23 7.462 375.482 8.246 375.496 8.946V14H376.336V8.736C376.294 7.602 375.678 6.79 374.502 6.79C373.718 6.79 373.116 7.196 372.766 7.896C372.528 7.196 371.884 6.79 371.156 6.79C370.372 6.79 369.812 7.224 369.476 7.798H369.448V6.916H368.692V14H369.532V9.45ZM384.134 10.64C384.134 8.54 384.134 6.79 381.698 6.79C380.116 6.79 379.262 7.728 379.262 9.772V11.508C379.262 13.65 380.48 14.14 381.698 14.14C383.112 14.14 384.036 13.552 384.134 11.844H383.252C383.266 12.796 382.748 13.468 381.698 13.468C380.368 13.468 380.102 12.166 380.102 11.186V10.64H384.134ZM380.102 9.968C380.102 8.4 380.354 7.462 381.698 7.462C383.042 7.462 383.294 8.4 383.294 9.968H380.102ZM392.8 14H393.85L395.334 7.952H395.362L396.916 14H397.966L399.912 6.93H399.072L397.49 13.118H397.462L395.894 6.93H394.858L393.36 13.118H393.332L391.75 6.93H390.854L392.8 14ZM403.426 14V6.93H402.586V14H403.426ZM403.524 4.956V3.892H402.488V4.956H403.524ZM407.313 7.602V12.656C407.313 13.524 407.649 14.028 408.783 14.028C409.049 14.028 409.329 14.014 409.581 13.986V13.258C409.399 13.286 409.203 13.3 408.923 13.3C408.251 13.3 408.153 13.076 408.153 12.138V7.602H409.581V6.93H408.153V5.11L407.313 5.474V6.93H406.179V7.602H407.313ZM412.946 14V9.562C412.946 7.98 413.716 7.462 414.472 7.462C415.452 7.462 415.774 8.232 415.774 9.058V14H416.614V9.016C416.614 8.092 416.432 6.79 414.682 6.79C413.926 6.79 413.38 7.21 412.974 7.798H412.946V3.892H412.106V14H412.946ZM9.358 29.602V34.656C9.358 35.524 9.694 36.028 10.828 36.028C11.094 36.028 11.374 36.014 11.626 35.986V35.258C11.444 35.286 11.248 35.3 10.968 35.3C10.296 35.3 10.198 35.076 10.198 34.138V29.602H11.626V28.93H10.198V27.11L9.358 27.474V28.93H8.224V29.602H9.358ZM14.9905 36V31.562C14.9905 29.98 15.7605 29.462 16.5165 29.462C17.4965 29.462 17.8185 30.232 17.8185 31.058V36H18.6585V31.016C18.6585 30.092 18.4765 28.79 16.7265 28.79C15.9705 28.79 15.4245 29.21 15.0185 29.798H14.9905V25.892H14.1505V36H14.9905ZM26.4612 32.64C26.4612 30.54 26.4612 28.79 24.0252 28.79C22.4432 28.79 21.5892 29.728 21.5892 31.772V33.508C21.5892 35.65 22.8072 36.14 24.0252 36.14C25.4392 36.14 26.3632 35.552 26.4612 33.844H25.5792C25.5932 34.796 25.0752 35.468 24.0252 35.468C22.6952 35.468 22.4292 34.166 22.4292 33.186V32.64H26.4612ZM22.4292 31.968C22.4292 30.4 22.6812 29.462 24.0252 29.462C25.3692 29.462 25.6212 30.4 25.6212 31.968H22.4292ZM30.5119 36V28.93H29.6719V36H30.5119ZM30.6099 26.956V25.892H29.5739V26.956H30.6099ZM34.7914 28.93H33.9514V36H34.7914V31.45C34.7914 30.26 35.5754 29.546 36.7654 29.644V28.79C35.9114 28.79 35.1694 29.21 34.8194 29.882H34.7914V28.93ZM45.7534 29.462C46.5374 29.462 47.3354 30.022 47.3354 31.506C47.3354 33.578 47.2794 33.9 47.0694 34.446C46.9434 34.782 46.4954 35.244 45.7954 35.244C44.2694 35.244 44.2694 33.774 44.2694 32.304C44.2694 31.254 44.2974 29.462 45.7534 29.462ZM47.3914 29.812L47.3634 29.784C47.0554 29.154 46.3414 28.79 45.6274 28.79C44.1994 28.79 43.7094 29.896 43.6394 30.19C43.4434 30.946 43.4294 30.96 43.4294 32.598C43.4294 34.166 43.5694 35.916 45.5994 35.916C46.2714 35.916 46.9434 35.664 47.3074 35.062H47.3354C47.3354 37.176 47.4334 38.058 45.7954 38.058C45.0114 38.058 44.4094 37.582 44.4654 36.77H43.6254C43.5694 37.484 43.9194 38.73 45.6834 38.73C47.6994 38.73 48.1754 37.806 48.1754 36.252V30.302C48.1754 29.938 48.1894 29.588 48.2174 28.916H47.3914V29.812ZM54.9281 28.93V33.914C54.9281 34.404 54.5221 35.468 53.3881 35.468C52.1701 35.468 52.2121 33.984 52.2121 33.788V28.93H51.3721V33.928C51.3721 35.076 51.7781 36.14 53.2341 36.14C54.0181 36.14 54.5221 35.818 55.0121 35.216H55.0401V36H55.7681V28.93H54.9281ZM59.7768 31.562C59.7768 29.98 60.5468 29.462 61.3028 29.462C62.2828 29.462 62.6048 30.232 62.6048 31.058V36H63.4448V31.016C63.4448 30.092 63.2628 28.79 61.5128 28.79C60.7568 28.79 60.2108 29.21 59.8048 29.798H59.7768V28.93H58.9368V36H59.7768V31.562ZM70.5195 34.138C70.5195 31.772 67.3415 32.248 67.3415 30.484C67.3415 29.854 67.8175 29.462 68.4195 29.462C69.3715 29.462 69.6095 29.938 69.6515 30.834H70.4775C70.4775 29.756 70.0295 28.79 68.6295 28.79C67.3975 28.79 66.5015 29.252 66.5015 30.554C66.5015 32.892 69.6795 32.416 69.6795 34.264C69.6795 35.048 69.2875 35.51 68.4755 35.51C67.3975 35.51 67.1735 34.866 67.1735 33.9H66.3195C66.3055 35.398 66.9075 36.14 68.4335 36.14C69.7495 36.14 70.5195 35.468 70.5195 34.138ZM79.1344 36H80.1844L81.6684 29.952H81.6964L83.2504 36H84.3004L86.2464 28.93H85.4064L83.8244 35.118H83.7964L82.2284 28.93H81.1924L79.6944 35.118H79.6664L78.0844 28.93H77.1884L79.1344 36ZM89.7603 36V28.93H88.9203V36H89.7603ZM89.8583 26.956V25.892H88.8223V26.956H89.8583ZM93.6478 29.602V34.656C93.6478 35.524 93.9838 36.028 95.1178 36.028C95.3838 36.028 95.6638 36.014 95.9158 35.986V35.258C95.7338 35.286 95.5378 35.3 95.2578 35.3C94.5858 35.3 94.4878 35.076 94.4878 34.138V29.602H95.9158V28.93H94.4878V27.11L93.6478 27.474V28.93H92.5138V29.602H93.6478ZM99.2803 36V31.562C99.2803 29.98 100.05 29.462 100.806 29.462C101.786 29.462 102.108 30.232 102.108 31.058V36H102.948V31.016C102.948 30.092 102.766 28.79 101.016 28.79C100.26 28.79 99.7143 29.21 99.3083 29.798H99.2803V25.892H98.4403V36H99.2803ZM114.163 33.676C114.163 34.6 113.379 35.468 112.413 35.468C111.545 35.468 111.139 34.81 111.139 34.012C111.139 32.29 112.959 32.43 114.163 32.388V33.676ZM114.219 36H115.087C115.003 35.174 115.003 34.726 115.003 34.222V30.666C115.003 28.86 113.519 28.79 112.805 28.79C111.573 28.79 110.523 29.322 110.453 30.68H111.349C111.349 29.84 111.965 29.462 112.735 29.462C113.855 29.462 114.163 30.092 114.163 31.128V31.716C112.735 31.828 110.243 31.576 110.243 34.054C110.243 35.286 110.929 36.14 112.189 36.14C113.057 36.14 113.743 35.804 114.191 35.132H114.219V36ZM119.025 31.562C119.025 29.98 119.795 29.462 120.551 29.462C121.531 29.462 121.853 30.232 121.853 31.058V36H122.693V31.016C122.693 30.092 122.511 28.79 120.761 28.79C120.005 28.79 119.459 29.21 119.053 29.798H119.025V28.93H118.185V36H119.025V31.562ZM128.06 36.14C129.712 36.14 130.496 35.062 130.496 33.228V31.702C130.496 29.868 129.712 28.79 128.06 28.79C126.408 28.79 125.624 29.868 125.624 31.702V33.228C125.624 35.062 126.408 36.14 128.06 36.14ZM128.06 29.462C129.446 29.462 129.656 30.624 129.656 32.458C129.656 34.306 129.446 35.468 128.06 35.468C126.674 35.468 126.464 34.306 126.464 32.458C126.464 30.624 126.674 29.462 128.06 29.462ZM133.931 29.602V34.656C133.931 35.524 134.267 36.028 135.401 36.028C135.667 36.028 135.947 36.014 136.199 35.986V35.258C136.017 35.286 135.821 35.3 135.541 35.3C134.869 35.3 134.771 35.076 134.771 34.138V29.602H136.199V28.93H134.771V27.11L133.931 27.474V28.93H132.797V29.602H133.931ZM139.563 36V31.562C139.563 29.98 140.333 29.462 141.089 29.462C142.069 29.462 142.391 30.232 142.391 31.058V36H143.231V31.016C143.231 30.092 143.049 28.79 141.299 28.79C140.543 28.79 139.997 29.21 139.591 29.798H139.563V25.892H138.723V36H139.563ZM151.034 32.64C151.034 30.54 151.034 28.79 148.598 28.79C147.016 28.79 146.162 29.728 146.162 31.772V33.508C146.162 35.65 147.38 36.14 148.598 36.14C150.012 36.14 150.936 35.552 151.034 33.844H150.152C150.166 34.796 149.648 35.468 148.598 35.468C147.268 35.468 147.002 34.166 147.002 33.186V32.64H151.034ZM147.002 31.968C147.002 30.4 147.254 29.462 148.598 29.462C149.942 29.462 150.194 30.4 150.194 31.968H147.002ZM154.861 28.93H154.021V36H154.861V31.45C154.861 30.26 155.645 29.546 156.835 29.644V28.79C155.981 28.79 155.239 29.21 154.889 29.882H154.861V28.93ZM164.311 36H165.151V29.602H166.579V28.93H165.151V27.726C165.151 27.32 165.151 26.592 165.963 26.592H166.593V25.892C166.383 25.864 166.243 25.836 166.117 25.836C164.409 25.836 164.311 27.068 164.311 27.74V28.93H163.177V29.602H164.311V36ZM169.957 28.93H169.117V36H169.957V31.45C169.957 30.26 170.741 29.546 171.931 29.644V28.79C171.077 28.79 170.335 29.21 169.985 29.882H169.957V28.93ZM175.478 36V28.93H174.638V36H175.478ZM175.576 26.956V25.892H174.54V26.956H175.576ZM183.551 32.64C183.551 30.54 183.551 28.79 181.115 28.79C179.533 28.79 178.679 29.728 178.679 31.772V33.508C178.679 35.65 179.897 36.14 181.115 36.14C182.529 36.14 183.453 35.552 183.551 33.844H182.669C182.683 34.796 182.165 35.468 181.115 35.468C179.785 35.468 179.519 34.166 179.519 33.186V32.64H183.551ZM179.519 31.968C179.519 30.4 179.771 29.462 181.115 29.462C182.459 29.462 182.711 30.4 182.711 31.968H179.519ZM187.322 31.562C187.322 29.98 188.092 29.462 188.848 29.462C189.828 29.462 190.15 30.232 190.15 31.058V36H190.99V31.016C190.99 30.092 190.808 28.79 189.058 28.79C188.302 28.79 187.756 29.21 187.35 29.798H187.322V28.93H186.482V36H187.322V31.562ZM196.216 35.468C195.306 35.468 194.676 35.118 194.676 32.486C194.676 30.834 194.676 29.462 196.188 29.462C197.77 29.462 197.77 31.422 197.77 31.842V33.102C197.77 34.824 197.014 35.468 196.216 35.468ZM197.854 36H198.666C198.624 35.762 198.582 35.3 198.582 34.6V25.892H197.742V29.644L197.714 29.63C197.28 29.084 196.65 28.79 196.006 28.79C193.836 28.79 193.836 31.1 193.836 32.458C193.836 34.11 193.948 36.14 195.992 36.14C196.818 36.14 197.35 35.79 197.784 35.118L197.812 35.104L197.854 36ZM210.539 36V28.93H209.699V36H210.539ZM210.637 26.956V25.892H209.601V26.956H210.637ZM206.773 36H207.613V29.602H209.041V28.93H207.613V27.726C207.613 27.32 207.613 26.592 208.425 26.592H209.055V25.892C208.845 25.864 208.705 25.836 208.579 25.836C206.871 25.836 206.773 27.068 206.773 27.74V28.93H205.639V29.602H206.773V36ZM214.967 36V25.892H214.127V36H214.967ZM219.177 31.45C219.177 30.526 219.583 29.462 220.647 29.462C221.473 29.462 221.725 30.246 221.739 30.946V36H222.579V31.45C222.579 30.526 222.985 29.462 224.049 29.462C224.875 29.462 225.127 30.246 225.141 30.946V36H225.981V30.736C225.939 29.602 225.323 28.79 224.147 28.79C223.363 28.79 222.761 29.196 222.411 29.896C222.173 29.196 221.529 28.79 220.801 28.79C220.017 28.79 219.457 29.224 219.121 29.798H219.093V28.916H218.337V36H219.177V31.45ZM230.209 36V28.93H229.369V36H230.209ZM230.307 26.956V25.892H229.271V26.956H230.307ZM234.432 31.562C234.432 29.98 235.202 29.462 235.958 29.462C236.938 29.462 237.26 30.232 237.26 31.058V36H238.1V31.016C238.1 30.092 237.918 28.79 236.168 28.79C235.412 28.79 234.866 29.21 234.46 29.798H234.432V28.93H233.592V36H234.432V31.562ZM243.271 29.462C244.055 29.462 244.853 30.022 244.853 31.506C244.853 33.578 244.797 33.9 244.587 34.446C244.461 34.782 244.013 35.244 243.313 35.244C241.787 35.244 241.787 33.774 241.787 32.304C241.787 31.254 241.815 29.462 243.271 29.462ZM244.909 29.812L244.881 29.784C244.573 29.154 243.859 28.79 243.145 28.79C241.717 28.79 241.227 29.896 241.157 30.19C240.961 30.946 240.947 30.96 240.947 32.598C240.947 34.166 241.087 35.916 243.117 35.916C243.789 35.916 244.461 35.664 244.825 35.062H244.853C244.853 37.176 244.951 38.058 243.313 38.058C242.529 38.058 241.927 37.582 241.983 36.77H241.143C241.087 37.484 241.437 38.73 243.201 38.73C245.217 38.73 245.693 37.806 245.693 36.252V30.302C245.693 29.938 245.707 29.588 245.735 28.916H244.909V29.812ZM253.841 29.602V34.656C253.841 35.524 254.177 36.028 255.311 36.028C255.577 36.028 255.857 36.014 256.109 35.986V35.258C255.927 35.286 255.731 35.3 255.451 35.3C254.779 35.3 254.681 35.076 254.681 34.138V29.602H256.109V28.93H254.681V27.11L253.841 27.474V28.93H252.707V29.602H253.841ZM259.474 36V31.562C259.474 29.98 260.244 29.462 261 29.462C261.98 29.462 262.302 30.232 262.302 31.058V36H263.142V31.016C263.142 30.092 262.96 28.79 261.21 28.79C260.454 28.79 259.908 29.21 259.502 29.798H259.474V25.892H258.634V36H259.474ZM270.944 32.64C270.944 30.54 270.944 28.79 268.508 28.79C266.926 28.79 266.072 29.728 266.072 31.772V33.508C266.072 35.65 267.29 36.14 268.508 36.14C269.922 36.14 270.846 35.552 270.944 33.844H270.062C270.076 34.796 269.558 35.468 268.508 35.468C267.178 35.468 266.912 34.166 266.912 33.186V32.64H270.944ZM266.912 31.968C266.912 30.4 267.164 29.462 268.508 29.462C269.852 29.462 270.104 30.4 270.104 31.968H266.912ZM274.701 31.45C274.701 30.526 275.107 29.462 276.171 29.462C276.997 29.462 277.249 30.246 277.263 30.946V36H278.103V31.45C278.103 30.526 278.509 29.462 279.573 29.462C280.399 29.462 280.651 30.246 280.665 30.946V36H281.505V30.736C281.463 29.602 280.847 28.79 279.671 28.79C278.887 28.79 278.285 29.196 277.935 29.896C277.697 29.196 277.053 28.79 276.325 28.79C275.541 28.79 274.981 29.224 274.645 29.798H274.617V28.916H273.861V36H274.701V31.45ZM284.795 36H285.831V34.936H284.795V36ZM293.872 25.892V36H294.768V25.892H293.872ZM298.628 29.602V34.656C298.628 35.524 298.964 36.028 300.098 36.028C300.364 36.028 300.644 36.014 300.896 35.986V35.258C300.714 35.286 300.518 35.3 300.238 35.3C299.566 35.3 299.468 35.076 299.468 34.138V29.602H300.896V28.93H299.468V27.11L298.628 27.474V28.93H297.494V29.602H298.628ZM311.522 33.676C311.522 34.6 310.738 35.468 309.772 35.468C308.904 35.468 308.498 34.81 308.498 34.012C308.498 32.29 310.318 32.43 311.522 32.388V33.676ZM311.578 36H312.446C312.362 35.174 312.362 34.726 312.362 34.222V30.666C312.362 28.86 310.878 28.79 310.164 28.79C308.932 28.79 307.882 29.322 307.812 30.68H308.708C308.708 29.84 309.324 29.462 310.094 29.462C311.214 29.462 311.522 30.092 311.522 31.128V31.716C310.094 31.828 307.602 31.576 307.602 34.054C307.602 35.286 308.288 36.14 309.548 36.14C310.416 36.14 311.102 35.804 311.55 35.132H311.578V36ZM316.664 36V25.892H315.824V36H316.664ZM321.168 36V25.892H320.328V36H321.168ZM333.017 34.138C333.017 31.772 329.839 32.248 329.839 30.484C329.839 29.854 330.315 29.462 330.917 29.462C331.869 29.462 332.107 29.938 332.149 30.834H332.975C332.975 29.756 332.527 28.79 331.127 28.79C329.895 28.79 328.999 29.252 328.999 30.554C328.999 32.892 332.177 32.416 332.177 34.264C332.177 35.048 331.785 35.51 330.973 35.51C329.895 35.51 329.671 34.866 329.671 33.9H328.817C328.803 35.398 329.405 36.14 330.931 36.14C332.247 36.14 333.017 35.468 333.017 34.138ZM336.4 29.602V34.656C336.4 35.524 336.736 36.028 337.87 36.028C338.136 36.028 338.416 36.014 338.668 35.986V35.258C338.486 35.286 338.29 35.3 338.01 35.3C337.338 35.3 337.24 35.076 337.24 34.138V29.602H338.668V28.93H337.24V27.11L336.4 27.474V28.93H335.266V29.602H336.4ZM344.791 33.676C344.791 34.6 344.007 35.468 343.041 35.468C342.173 35.468 341.767 34.81 341.767 34.012C341.767 32.29 343.587 32.43 344.791 32.388V33.676ZM344.847 36H345.715C345.631 35.174 345.631 34.726 345.631 34.222V30.666C345.631 28.86 344.147 28.79 343.433 28.79C342.201 28.79 341.151 29.322 341.081 30.68H341.977C341.977 29.84 342.593 29.462 343.363 29.462C344.483 29.462 344.791 30.092 344.791 31.128V31.716C343.363 31.828 340.871 31.576 340.871 34.054C340.871 35.286 341.557 36.14 342.817 36.14C343.685 36.14 344.371 35.804 344.819 35.132H344.847V36ZM349.709 28.93H348.869V36H349.709V31.45C349.709 30.26 350.493 29.546 351.683 29.644V28.79C350.829 28.79 350.087 29.21 349.737 29.882H349.709V28.93ZM354.614 29.602V34.656C354.614 35.524 354.95 36.028 356.084 36.028C356.35 36.028 356.63 36.014 356.882 35.986V35.258C356.7 35.286 356.504 35.3 356.224 35.3C355.552 35.3 355.454 35.076 355.454 34.138V29.602H356.882V28.93H355.454V27.11L354.614 27.474V28.93H353.48V29.602H354.614ZM364.096 32.64C364.096 30.54 364.096 28.79 361.66 28.79C360.078 28.79 359.224 29.728 359.224 31.772V33.508C359.224 35.65 360.442 36.14 361.66 36.14C363.074 36.14 363.998 35.552 364.096 33.844H363.214C363.228 34.796 362.71 35.468 361.66 35.468C360.33 35.468 360.064 34.166 360.064 33.186V32.64H364.096ZM360.064 31.968C360.064 30.4 360.316 29.462 361.66 29.462C363.004 29.462 363.256 30.4 363.256 31.968H360.064ZM369.141 35.468C368.231 35.468 367.601 35.118 367.601 32.486C367.601 30.834 367.601 29.462 369.113 29.462C370.695 29.462 370.695 31.422 370.695 31.842V33.102C370.695 34.824 369.939 35.468 369.141 35.468ZM370.779 36H371.591C371.549 35.762 371.507 35.3 371.507 34.6V25.892H370.667V29.644L370.639 29.63C370.205 29.084 369.575 28.79 368.931 28.79C366.761 28.79 366.761 31.1 366.761 32.458C366.761 34.11 366.873 36.14 368.917 36.14C369.743 36.14 370.275 35.79 370.709 35.118L370.737 35.104L370.779 36ZM380.383 36H381.433L382.917 29.952H382.945L384.499 36H385.549L387.495 28.93H386.655L385.073 35.118H385.045L383.477 28.93H382.441L380.943 35.118H380.915L379.333 28.93H378.437L380.383 36ZM391.009 36V28.93H390.169V36H391.009ZM391.107 26.956V25.892H390.071V26.956H391.107ZM394.897 29.602V34.656C394.897 35.524 395.233 36.028 396.367 36.028C396.633 36.028 396.913 36.014 397.165 35.986V35.258C396.983 35.286 396.787 35.3 396.507 35.3C395.835 35.3 395.737 35.076 395.737 34.138V29.602H397.165V28.93H395.737V27.11L394.897 27.474V28.93H393.763V29.602H394.897ZM400.529 36V31.562C400.529 29.98 401.299 29.462 402.055 29.462C403.035 29.462 403.357 30.232 403.357 31.058V36H404.197V31.016C404.197 30.092 404.015 28.79 402.265 28.79C401.509 28.79 400.963 29.21 400.557 29.798H400.529V25.892H399.689V36H400.529ZM9.358 51.602V56.656C9.358 57.524 9.694 58.028 10.828 58.028C11.094 58.028 11.374 58.014 11.626 57.986V57.258C11.444 57.286 11.248 57.3 10.968 57.3C10.296 57.3 10.198 57.076 10.198 56.138V51.602H11.626V50.93H10.198V49.11L9.358 49.474V50.93H8.224V51.602H9.358ZM14.9905 58V53.562C14.9905 51.98 15.7605 51.462 16.5165 51.462C17.4965 51.462 17.8185 52.232 17.8185 53.058V58H18.6585V53.016C18.6585 52.092 18.4765 50.79 16.7265 50.79C15.9705 50.79 15.4245 51.21 15.0185 51.798H14.9905V47.892H14.1505V58H14.9905ZM26.4612 54.64C26.4612 52.54 26.4612 50.79 24.0252 50.79C22.4432 50.79 21.5892 51.728 21.5892 53.772V55.508C21.5892 57.65 22.8072 58.14 24.0252 58.14C25.4392 58.14 26.3632 57.552 26.4612 55.844H25.5792C25.5932 56.796 25.0752 57.468 24.0252 57.468C22.6952 57.468 22.4292 56.166 22.4292 55.186V54.64H26.4612ZM22.4292 53.968C22.4292 52.4 22.6812 51.462 24.0252 51.462C25.3692 51.462 25.6212 52.4 25.6212 53.968H22.4292ZM33.3539 56.138C33.3539 53.772 30.1759 54.248 30.1759 52.484C30.1759 51.854 30.6519 51.462 31.2539 51.462C32.2059 51.462 32.4439 51.938 32.4859 52.834H33.3119C33.3119 51.756 32.8639 50.79 31.4639 50.79C30.2319 50.79 29.3359 51.252 29.3359 52.554C29.3359 54.892 32.5139 54.416 32.5139 56.264C32.5139 57.048 32.1219 57.51 31.3099 57.51C30.2319 57.51 30.0079 56.866 30.0079 55.9H29.1539C29.1399 57.398 29.7419 58.14 31.2679 58.14C32.5839 58.14 33.3539 57.468 33.3539 56.138ZM40.9233 54.64C40.9233 52.54 40.9233 50.79 38.4873 50.79C36.9053 50.79 36.0513 51.728 36.0513 53.772V55.508C36.0513 57.65 37.2693 58.14 38.4873 58.14C39.9013 58.14 40.8253 57.552 40.9233 55.844H40.0413C40.0553 56.796 39.5373 57.468 38.4873 57.468C37.1573 57.468 36.8913 56.166 36.8913 55.186V54.64H40.9233ZM36.8913 53.968C36.8913 52.4 37.1433 51.462 38.4873 51.462C39.8313 51.462 40.0833 52.4 40.0833 53.968H36.8913ZM49.4775 58V47.892H48.6375V58H49.4775ZM53.981 58V50.93H53.141V58H53.981ZM54.079 48.956V47.892H53.043V48.956H54.079ZM57.8685 51.602V56.656C57.8685 57.524 58.2045 58.028 59.3385 58.028C59.6045 58.028 59.8845 58.014 60.1365 57.986V57.258C59.9545 57.286 59.7585 57.3 59.4785 57.3C58.8065 57.3 58.7085 57.076 58.7085 56.138V51.602H60.1365V50.93H58.7085V49.11L57.8685 49.474V50.93H56.7345V51.602H57.8685ZM63.165 51.602V56.656C63.165 57.524 63.501 58.028 64.635 58.028C64.901 58.028 65.181 58.014 65.433 57.986V57.258C65.251 57.286 65.055 57.3 64.775 57.3C64.103 57.3 64.005 57.076 64.005 56.138V51.602H65.433V50.93H64.005V49.11L63.165 49.474V50.93H62.031V51.602H63.165ZM69.0775 58V47.892H68.2375V58H69.0775ZM77.151 54.64C77.151 52.54 77.151 50.79 74.715 50.79C73.133 50.79 72.279 51.728 72.279 53.772V55.508C72.279 57.65 73.497 58.14 74.715 58.14C76.129 58.14 77.053 57.552 77.151 55.844H76.269C76.283 56.796 75.765 57.468 74.715 57.468C73.385 57.468 73.119 56.166 73.119 55.186V54.64H77.151ZM73.119 53.968C73.119 52.4 73.371 51.462 74.715 51.462C76.059 51.462 76.311 52.4 76.311 53.968H73.119ZM85.4252 54.36C85.4252 53.296 85.5932 51.462 86.9512 51.462C88.5052 51.462 88.5472 52.834 88.5472 54.486C88.5472 56.138 88.5052 57.468 86.9512 57.468C85.4252 57.468 85.4252 55.48 85.4252 54.36ZM85.3972 58V57.146H85.4252C85.7752 57.804 86.3772 58.14 87.2032 58.14C89.2612 58.14 89.3872 56.012 89.3872 54.458C89.3872 53.198 89.5692 50.79 87.2732 50.79C86.4752 50.79 85.9152 51.084 85.4812 51.756L85.4532 51.728V47.892H84.6132V57.3C84.6132 57.538 84.5712 57.762 84.5292 58H85.3972ZM93.326 58V50.93H92.486V58H93.326ZM93.424 48.956V47.892H92.388V48.956H93.424ZM97.2135 51.602V56.656C97.2135 57.524 97.5495 58.028 98.6835 58.028C98.9495 58.028 99.2295 58.014 99.4815 57.986V57.258C99.2995 57.286 99.1035 57.3 98.8235 57.3C98.1515 57.3 98.0535 57.076 98.0535 56.138V51.602H99.4815V50.93H98.0535V49.11L97.2135 49.474V50.93H96.0795V51.602H97.2135ZM105.968 56.138C105.968 53.772 102.79 54.248 102.79 52.484C102.79 51.854 103.266 51.462 103.868 51.462C104.82 51.462 105.058 51.938 105.1 52.834H105.926C105.926 51.756 105.478 50.79 104.078 50.79C102.846 50.79 101.95 51.252 101.95 52.554C101.95 54.892 105.128 54.416 105.128 56.264C105.128 57.048 104.736 57.51 103.924 57.51C102.846 57.51 102.622 56.866 102.622 55.9H101.768C101.754 57.398 102.356 58.14 103.882 58.14C105.198 58.14 105.968 57.468 105.968 56.138ZM115.605 58.14C117.257 58.14 118.041 57.062 118.041 55.228V53.702C118.041 51.868 117.257 50.79 115.605 50.79C113.953 50.79 113.169 51.868 113.169 53.702V55.228C113.169 57.062 113.953 58.14 115.605 58.14ZM115.605 51.462C116.991 51.462 117.201 52.624 117.201 54.458C117.201 56.306 116.991 57.468 115.605 57.468C114.219 57.468 114.009 56.306 114.009 54.458C114.009 52.624 114.219 51.462 115.605 51.462ZM121.518 58H122.358V51.602H123.786V50.93H122.358V49.726C122.358 49.32 122.358 48.592 123.17 48.592H123.8V47.892C123.59 47.864 123.45 47.836 123.324 47.836C121.616 47.836 121.518 49.068 121.518 49.74V50.93H120.384V51.602H121.518V58ZM132.396 47.892H131.654L130.814 50.426H131.836L132.396 47.892ZM134.468 47.892H133.726L132.886 50.426H133.908L134.468 47.892ZM138.159 58H138.999V51.602H140.427V50.93H138.999V49.726C138.999 49.32 138.999 48.592 139.811 48.592H140.441V47.892C140.231 47.864 140.091 47.836 139.965 47.836C138.257 47.836 138.159 49.068 138.159 49.74V50.93H137.025V51.602H138.159V58ZM146.521 50.93V55.914C146.521 56.404 146.115 57.468 144.981 57.468C143.763 57.468 143.805 55.984 143.805 55.788V50.93H142.965V55.928C142.965 57.076 143.371 58.14 144.827 58.14C145.611 58.14 146.115 57.818 146.605 57.216H146.633V58H147.361V50.93H146.521ZM151.37 53.562C151.37 51.98 152.14 51.462 152.896 51.462C153.876 51.462 154.198 52.232 154.198 53.058V58H155.038V53.016C155.038 52.092 154.856 50.79 153.106 50.79C152.35 50.79 151.804 51.21 151.398 51.798H151.37V50.93H150.53V58H151.37V53.562ZM158.193 50.426H158.935L159.775 47.892H158.753L158.193 50.426ZM160.265 50.426H161.007L161.847 47.892H160.825L160.265 50.426ZM165.174 58H166.21V56.936H165.174V58Z" fill="white"/>
</svg>
