<svg width="472" height="51" viewBox="0 0 472 51" fill="none" xmlns="http://www.w3.org/2000/svg">
<rect width="468" height="51" fill="black" fill-opacity="0.69"/>
<path d="M10.478 3.892H9.736L8.896 6.426H9.918L10.478 3.892ZM12.55 3.892H11.808L10.968 6.426H11.99L12.55 3.892ZM16.7874 4.648H17.9634C20.4554 4.648 20.8474 5.488 20.8474 8.386C20.8474 12.516 20.5814 13.244 17.8794 13.244H16.7874V4.648ZM15.8914 14H18.2014C21.2534 14 21.7434 12.348 21.7434 8.988C21.7434 5.544 21.3934 3.892 18.5654 3.892H15.8914V14ZM27.1287 14.14C28.7807 14.14 29.5647 13.062 29.5647 11.228V9.702C29.5647 7.868 28.7807 6.79 27.1287 6.79C25.4767 6.79 24.6927 7.868 24.6927 9.702V11.228C24.6927 13.062 25.4767 14.14 27.1287 14.14ZM27.1287 7.462C28.5147 7.462 28.7247 8.624 28.7247 10.458C28.7247 12.306 28.5147 13.468 27.1287 13.468C25.7427 13.468 25.5327 12.306 25.5327 10.458C25.5327 8.624 25.7427 7.462 27.1287 7.462ZM34.7494 14.14C36.4014 14.14 37.1854 13.062 37.1854 11.228V9.702C37.1854 7.868 36.4014 6.79 34.7494 6.79C33.0974 6.79 32.3134 7.868 32.3134 9.702V11.228C32.3134 13.062 33.0974 14.14 34.7494 14.14ZM34.7494 7.462C36.1354 7.462 36.3454 8.624 36.3454 10.458C36.3454 12.306 36.1354 13.468 34.7494 13.468C33.3634 13.468 33.1534 12.306 33.1534 10.458C33.1534 8.624 33.3634 7.462 34.7494 7.462ZM40.9421 9.45C40.9421 8.526 41.3481 7.462 42.4121 7.462C43.2381 7.462 43.4901 8.246 43.5041 8.946V14H44.3441V9.45C44.3441 8.526 44.7501 7.462 45.8141 7.462C46.6401 7.462 46.8921 8.246 46.9061 8.946V14H47.7461V8.736C47.7041 7.602 47.0881 6.79 45.9121 6.79C45.1281 6.79 44.5261 7.196 44.1761 7.896C43.9381 7.196 43.2941 6.79 42.5661 6.79C41.7821 6.79 41.2221 7.224 40.8861 7.798H40.8581V6.916H40.1021V14H40.9421V9.45ZM50.896 6.426H51.638L52.478 3.892H51.456L50.896 6.426ZM52.968 6.426H53.71L54.55 3.892H53.528L52.968 6.426ZM63.3189 14V6.93H62.4789V14H63.3189ZM63.4169 4.956V3.892H62.3809V4.956H63.4169ZM70.6644 12.138C70.6644 9.772 67.4864 10.248 67.4864 8.484C67.4864 7.854 67.9624 7.462 68.5644 7.462C69.5164 7.462 69.7544 7.938 69.7964 8.834H70.6224C70.6224 7.756 70.1744 6.79 68.7744 6.79C67.5424 6.79 66.6464 7.252 66.6464 8.554C66.6464 10.892 69.8244 10.416 69.8244 12.264C69.8244 13.048 69.4324 13.51 68.6204 13.51C67.5424 13.51 67.3184 12.866 67.3184 11.9H66.4644C66.4504 13.398 67.0524 14.14 68.5784 14.14C69.8944 14.14 70.6644 13.468 70.6644 12.138ZM81.6454 11.676C81.6454 12.6 80.8614 13.468 79.8954 13.468C79.0274 13.468 78.6214 12.81 78.6214 12.012C78.6214 10.29 80.4414 10.43 81.6454 10.388V11.676ZM81.7014 14H82.5694C82.4854 13.174 82.4854 12.726 82.4854 12.222V8.666C82.4854 6.86 81.0014 6.79 80.2874 6.79C79.0554 6.79 78.0054 7.322 77.9354 8.68H78.8314C78.8314 7.84 79.4474 7.462 80.2174 7.462C81.3374 7.462 81.6454 8.092 81.6454 9.128V9.716C80.2174 9.828 77.7254 9.576 77.7254 12.054C77.7254 13.286 78.4114 14.14 79.6714 14.14C80.5394 14.14 81.2254 13.804 81.6734 13.132H81.7014V14ZM94.4836 14V6.93H93.6436V14H94.4836ZM94.5816 4.956V3.892H93.5456V4.956H94.5816ZM90.7176 14H91.5576V7.602H92.9856V6.93H91.5576V5.726C91.5576 5.32 91.5576 4.592 92.3696 4.592H92.9996V3.892C92.7896 3.864 92.6496 3.836 92.5236 3.836C90.8156 3.836 90.7176 5.068 90.7176 5.74V6.93H89.5836V7.602H90.7176V14ZM98.6883 6.93H97.8483V14H98.6883V9.45C98.6883 8.26 99.4723 7.546 100.662 7.644V6.79C99.8083 6.79 99.0663 7.21 98.7163 7.882H98.6883V6.93ZM107.051 12.138C107.051 9.772 103.873 10.248 103.873 8.484C103.873 7.854 104.349 7.462 104.951 7.462C105.903 7.462 106.141 7.938 106.183 8.834H107.009C107.009 7.756 106.561 6.79 105.161 6.79C103.929 6.79 103.033 7.252 103.033 8.554C103.033 10.892 106.211 10.416 106.211 12.264C106.211 13.048 105.819 13.51 105.007 13.51C103.929 13.51 103.705 12.866 103.705 11.9H102.851C102.837 13.398 103.439 14.14 104.965 14.14C106.281 14.14 107.051 13.468 107.051 12.138ZM110.434 7.602V12.656C110.434 13.524 110.77 14.028 111.904 14.028C112.17 14.028 112.45 14.014 112.702 13.986V13.258C112.52 13.286 112.324 13.3 112.044 13.3C111.372 13.3 111.274 13.076 111.274 12.138V7.602H112.702V6.93H111.274V5.11L110.434 5.474V6.93H109.3V7.602H110.434ZM117.733 10.668V9.87H114.905V10.668H117.733ZM121.391 9.828C121.391 8.078 122.343 7.462 122.889 7.462C124.275 7.462 124.485 8.624 124.485 10.458C124.485 12.306 124.275 13.468 122.889 13.468C122.119 13.468 121.391 12.698 121.391 11.088V9.828ZM121.363 6.93H120.551V16.674H121.391V13.202L121.419 13.216C121.853 13.888 122.371 14.14 122.889 14.14C124.695 14.14 125.325 13.062 125.325 11.228V9.646C125.325 8.722 125.311 6.79 123.099 6.79C122.539 6.79 121.839 7.084 121.391 7.77L121.363 7.784V6.93ZM132.834 10.64C132.834 8.54 132.834 6.79 130.398 6.79C128.816 6.79 127.962 7.728 127.962 9.772V11.508C127.962 13.65 129.18 14.14 130.398 14.14C131.812 14.14 132.736 13.552 132.834 11.844H131.952C131.966 12.796 131.448 13.468 130.398 13.468C129.068 13.468 128.802 12.166 128.802 11.186V10.64H132.834ZM128.802 9.968C128.802 8.4 129.054 7.462 130.398 7.462C131.742 7.462 131.994 8.4 131.994 9.968H128.802ZM136.661 6.93H135.821V14H136.661V9.45C136.661 8.26 137.445 7.546 138.635 7.644V6.79C137.781 6.79 137.039 7.21 136.689 7.882H136.661V6.93ZM145.023 12.138C145.023 9.772 141.845 10.248 141.845 8.484C141.845 7.854 142.321 7.462 142.923 7.462C143.875 7.462 144.113 7.938 144.155 8.834H144.981C144.981 7.756 144.533 6.79 143.133 6.79C141.901 6.79 141.005 7.252 141.005 8.554C141.005 10.892 144.183 10.416 144.183 12.264C144.183 13.048 143.791 13.51 142.979 13.51C141.901 13.51 141.677 12.866 141.677 11.9H140.823C140.809 13.398 141.411 14.14 142.937 14.14C144.253 14.14 145.023 13.468 145.023 12.138ZM150.156 14.14C151.808 14.14 152.592 13.062 152.592 11.228V9.702C152.592 7.868 151.808 6.79 150.156 6.79C148.504 6.79 147.72 7.868 147.72 9.702V11.228C147.72 13.062 148.504 14.14 150.156 14.14ZM150.156 7.462C151.542 7.462 151.752 8.624 151.752 10.458C151.752 12.306 151.542 13.468 150.156 13.468C148.77 13.468 148.56 12.306 148.56 10.458C148.56 8.624 148.77 7.462 150.156 7.462ZM156.363 9.562C156.363 7.98 157.133 7.462 157.889 7.462C158.869 7.462 159.191 8.232 159.191 9.058V14H160.031V9.016C160.031 8.092 159.849 6.79 158.099 6.79C157.343 6.79 156.797 7.21 156.391 7.798H156.363V6.93H155.523V14H156.363V9.562ZM167.843 6.93H166.933L169.033 14H169.999L172.099 6.93H171.287L169.565 12.936H169.537L167.843 6.93ZM175.609 14V6.93H174.769V14H175.609ZM175.707 4.956V3.892H174.671V4.956H175.707ZM181.246 14.14C182.898 14.14 183.682 13.062 183.682 11.228V9.702C183.682 7.868 182.898 6.79 181.246 6.79C179.594 6.79 178.81 7.868 178.81 9.702V11.228C178.81 13.062 179.594 14.14 181.246 14.14ZM181.246 7.462C182.632 7.462 182.842 8.624 182.842 10.458C182.842 12.306 182.632 13.468 181.246 13.468C179.86 13.468 179.65 12.306 179.65 10.458C179.65 8.624 179.86 7.462 181.246 7.462ZM187.733 14V3.892H186.893V14H187.733ZM195.806 10.64C195.806 8.54 195.806 6.79 193.37 6.79C191.788 6.79 190.934 7.728 190.934 9.772V11.508C190.934 13.65 192.152 14.14 193.37 14.14C194.784 14.14 195.708 13.552 195.806 11.844H194.924C194.938 12.796 194.42 13.468 193.37 13.468C192.04 13.468 191.774 12.166 191.774 11.186V10.64H195.806ZM191.774 9.968C191.774 8.4 192.026 7.462 193.37 7.462C194.714 7.462 194.966 8.4 194.966 9.968H191.774ZM199.577 9.562C199.577 7.98 200.347 7.462 201.103 7.462C202.083 7.462 202.405 8.232 202.405 9.058V14H203.245V9.016C203.245 8.092 203.063 6.79 201.313 6.79C200.557 6.79 200.011 7.21 199.605 7.798H199.577V6.93H198.737V14H199.577V9.562ZM206.862 7.602V12.656C206.862 13.524 207.198 14.028 208.332 14.028C208.598 14.028 208.878 14.014 209.13 13.986V13.258C208.948 13.286 208.752 13.3 208.472 13.3C207.8 13.3 207.702 13.076 207.702 12.138V7.602H209.13V6.93H207.702V5.11L206.862 5.474V6.93H205.728V7.602H206.862ZM216.354 6.93H215.444L217.544 14H218.51L220.61 6.93H219.798L218.076 12.936H218.048L216.354 6.93ZM224.119 14V6.93H223.279V14H224.119ZM224.217 4.956V3.892H223.181V4.956H224.217ZM229.617 13.468C228.707 13.468 228.077 13.118 228.077 10.486C228.077 8.834 228.077 7.462 229.589 7.462C231.171 7.462 231.171 9.422 231.171 9.842V11.102C231.171 12.824 230.415 13.468 229.617 13.468ZM231.255 14H232.067C232.025 13.762 231.983 13.3 231.983 12.6V3.892H231.143V7.644L231.115 7.63C230.681 7.084 230.051 6.79 229.407 6.79C227.237 6.79 227.237 9.1 227.237 10.458C227.237 12.11 227.349 14.14 229.393 14.14C230.219 14.14 230.751 13.79 231.185 13.118L231.213 13.104L231.255 14ZM239.814 10.64C239.814 8.54 239.814 6.79 237.378 6.79C235.796 6.79 234.942 7.728 234.942 9.772V11.508C234.942 13.65 236.16 14.14 237.378 14.14C238.792 14.14 239.716 13.552 239.814 11.844H238.932C238.946 12.796 238.428 13.468 237.378 13.468C236.048 13.468 235.782 12.166 235.782 11.186V10.64H239.814ZM235.782 9.968C235.782 8.4 236.034 7.462 237.378 7.462C238.722 7.462 238.974 8.4 238.974 9.968H235.782ZM244.998 14.14C246.65 14.14 247.434 13.062 247.434 11.228V9.702C247.434 7.868 246.65 6.79 244.998 6.79C243.346 6.79 242.562 7.868 242.562 9.702V11.228C242.562 13.062 243.346 14.14 244.998 14.14ZM244.998 7.462C246.384 7.462 246.594 8.624 246.594 10.458C246.594 12.306 246.384 13.468 244.998 13.468C243.612 13.468 243.402 12.306 243.402 10.458C243.402 8.624 243.612 7.462 244.998 7.462ZM256.926 7.462C257.71 7.462 258.508 8.022 258.508 9.506C258.508 11.578 258.452 11.9 258.242 12.446C258.116 12.782 257.668 13.244 256.968 13.244C255.442 13.244 255.442 11.774 255.442 10.304C255.442 9.254 255.47 7.462 256.926 7.462ZM258.564 7.812L258.536 7.784C258.228 7.154 257.514 6.79 256.8 6.79C255.372 6.79 254.882 7.896 254.812 8.19C254.616 8.946 254.602 8.96 254.602 10.598C254.602 12.166 254.742 13.916 256.772 13.916C257.444 13.916 258.116 13.664 258.48 13.062H258.508C258.508 15.176 258.606 16.058 256.968 16.058C256.184 16.058 255.582 15.582 255.638 14.77H254.798C254.742 15.484 255.092 16.73 256.856 16.73C258.872 16.73 259.348 15.806 259.348 14.252V8.302C259.348 7.938 259.362 7.588 259.39 6.916H258.564V7.812ZM266.087 11.676C266.087 12.6 265.303 13.468 264.337 13.468C263.469 13.468 263.063 12.81 263.063 12.012C263.063 10.29 264.883 10.43 266.087 10.388V11.676ZM266.143 14H267.011C266.927 13.174 266.927 12.726 266.927 12.222V8.666C266.927 6.86 265.443 6.79 264.729 6.79C263.497 6.79 262.447 7.322 262.377 8.68H263.273C263.273 7.84 263.889 7.462 264.659 7.462C265.779 7.462 266.087 8.092 266.087 9.128V9.716C264.659 9.828 262.167 9.576 262.167 12.054C262.167 13.286 262.853 14.14 264.113 14.14C264.981 14.14 265.667 13.804 266.115 13.132H266.143V14ZM270.936 9.45C270.936 8.526 271.342 7.462 272.406 7.462C273.232 7.462 273.484 8.246 273.498 8.946V14H274.338V9.45C274.338 8.526 274.744 7.462 275.808 7.462C276.634 7.462 276.886 8.246 276.9 8.946V14H277.74V8.736C277.698 7.602 277.082 6.79 275.906 6.79C275.122 6.79 274.52 7.196 274.17 7.896C273.932 7.196 273.288 6.79 272.56 6.79C271.776 6.79 271.216 7.224 270.88 7.798H270.852V6.916H270.096V14H270.936V9.45ZM285.538 10.64C285.538 8.54 285.538 6.79 283.102 6.79C281.52 6.79 280.666 7.728 280.666 9.772V11.508C280.666 13.65 281.884 14.14 283.102 14.14C284.516 14.14 285.44 13.552 285.538 11.844H284.656C284.67 12.796 284.152 13.468 283.102 13.468C281.772 13.468 281.506 12.166 281.506 11.186V10.64H285.538ZM281.506 9.968C281.506 8.4 281.758 7.462 283.102 7.462C284.446 7.462 284.698 8.4 284.698 9.968H281.506ZM293.476 7.602V12.656C293.476 13.524 293.812 14.028 294.946 14.028C295.212 14.028 295.492 14.014 295.744 13.986V13.258C295.562 13.286 295.366 13.3 295.086 13.3C294.414 13.3 294.316 13.076 294.316 12.138V7.602H295.744V6.93H294.316V5.11L293.476 5.474V6.93H292.342V7.602H293.476ZM299.108 14V9.562C299.108 7.98 299.878 7.462 300.634 7.462C301.614 7.462 301.936 8.232 301.936 9.058V14H302.776V9.016C302.776 8.092 302.594 6.79 300.844 6.79C300.088 6.79 299.542 7.21 299.136 7.798H299.108V3.892H298.268V14H299.108ZM309.487 11.676C309.487 12.6 308.703 13.468 307.737 13.468C306.869 13.468 306.463 12.81 306.463 12.012C306.463 10.29 308.283 10.43 309.487 10.388V11.676ZM309.543 14H310.411C310.327 13.174 310.327 12.726 310.327 12.222V8.666C310.327 6.86 308.843 6.79 308.129 6.79C306.897 6.79 305.847 7.322 305.777 8.68H306.673C306.673 7.84 307.289 7.462 308.059 7.462C309.179 7.462 309.487 8.092 309.487 9.128V9.716C308.059 9.828 305.567 9.576 305.567 12.054C305.567 13.286 306.253 14.14 307.513 14.14C308.381 14.14 309.067 13.804 309.515 13.132H309.543V14ZM314.014 7.602V12.656C314.014 13.524 314.35 14.028 315.484 14.028C315.75 14.028 316.03 14.014 316.282 13.986V13.258C316.1 13.286 315.904 13.3 315.624 13.3C314.952 13.3 314.854 13.076 314.854 12.138V7.602H316.282V6.93H314.854V5.11L314.014 5.474V6.93H312.88V7.602H314.014ZM324.43 14V6.93H323.59V14H324.43ZM324.528 4.956V3.892H323.492V4.956H324.528ZM331.775 12.138C331.775 9.772 328.597 10.248 328.597 8.484C328.597 7.854 329.073 7.462 329.675 7.462C330.627 7.462 330.865 7.938 330.907 8.834H331.733C331.733 7.756 331.285 6.79 329.885 6.79C328.653 6.79 327.757 7.252 327.757 8.554C327.757 10.892 330.935 10.416 330.935 12.264C330.935 13.048 330.543 13.51 329.731 13.51C328.653 13.51 328.429 12.866 328.429 11.9H327.575C327.561 13.398 328.163 14.14 329.689 14.14C331.005 14.14 331.775 13.468 331.775 12.138ZM339.354 6.93H338.444L340.544 14H341.51L343.61 6.93H342.798L341.076 12.936H341.048L339.354 6.93ZM350.69 10.64C350.69 8.54 350.69 6.79 348.254 6.79C346.672 6.79 345.818 7.728 345.818 9.772V11.508C345.818 13.65 347.036 14.14 348.254 14.14C349.668 14.14 350.592 13.552 350.69 11.844H349.808C349.822 12.796 349.304 13.468 348.254 13.468C346.924 13.468 346.658 12.166 346.658 11.186V10.64H350.69ZM346.658 9.968C346.658 8.4 346.91 7.462 348.254 7.462C349.598 7.462 349.85 8.4 349.85 9.968H346.658ZM354.516 6.93H353.676V14H354.516V9.45C354.516 8.26 355.3 7.546 356.49 7.644V6.79C355.636 6.79 354.894 7.21 354.544 7.882H354.516V6.93ZM359.617 16.674H360.443L363.369 6.93H362.529L360.863 12.726H360.835L359.113 6.93H358.203L360.443 14.014L359.617 16.674ZM371.494 14H372.544L374.028 7.952H374.056L375.61 14H376.66L378.606 6.93H377.766L376.184 13.118H376.156L374.588 6.93H373.552L372.054 13.118H372.026L370.444 6.93H369.548L371.494 14ZM385.69 10.64C385.69 8.54 385.69 6.79 383.254 6.79C381.672 6.79 380.818 7.728 380.818 9.772V11.508C380.818 13.65 382.036 14.14 383.254 14.14C384.668 14.14 385.592 13.552 385.69 11.844H384.808C384.822 12.796 384.304 13.468 383.254 13.468C381.924 13.468 381.658 12.166 381.658 11.186V10.64H385.69ZM381.658 9.968C381.658 8.4 381.91 7.462 383.254 7.462C384.598 7.462 384.85 8.4 384.85 9.968H381.658ZM389.74 14V3.892H388.9V14H389.74ZM394.244 14V3.892H393.404V14H394.244ZM402.159 14H402.999V10.15H403.027L405.547 14H406.611L403.937 10.08L406.443 6.93H405.463L403.027 10.052H402.999V3.892H402.159V14ZM409.812 9.562C409.812 7.98 410.582 7.462 411.338 7.462C412.318 7.462 412.64 8.232 412.64 9.058V14H413.48V9.016C413.48 8.092 413.298 6.79 411.548 6.79C410.792 6.79 410.246 7.21 409.84 7.798H409.812V6.93H408.972V14H409.812V9.562ZM418.847 14.14C420.499 14.14 421.283 13.062 421.283 11.228V9.702C421.283 7.868 420.499 6.79 418.847 6.79C417.195 6.79 416.411 7.868 416.411 9.702V11.228C416.411 13.062 417.195 14.14 418.847 14.14ZM418.847 7.462C420.233 7.462 420.443 8.624 420.443 10.458C420.443 12.306 420.233 13.468 418.847 13.468C417.461 13.468 417.251 12.306 417.251 10.458C417.251 8.624 417.461 7.462 418.847 7.462ZM425.446 14H426.496L427.98 7.952H428.008L429.562 14H430.612L432.558 6.93H431.718L430.136 13.118H430.108L428.54 6.93H427.504L426.006 13.118H425.978L424.396 6.93H423.5L425.446 14ZM435.792 9.562C435.792 7.98 436.562 7.462 437.318 7.462C438.298 7.462 438.62 8.232 438.62 9.058V14H439.46V9.016C439.46 8.092 439.278 6.79 437.528 6.79C436.772 6.79 436.226 7.21 435.82 7.798H435.792V6.93H434.952V14H435.792V9.562ZM447.916 10.36C447.916 9.296 448.084 7.462 449.442 7.462C450.996 7.462 451.038 8.834 451.038 10.486C451.038 12.138 450.996 13.468 449.442 13.468C447.916 13.468 447.916 11.48 447.916 10.36ZM447.888 14V13.146H447.916C448.266 13.804 448.868 14.14 449.694 14.14C451.752 14.14 451.878 12.012 451.878 10.458C451.878 9.198 452.06 6.79 449.764 6.79C448.966 6.79 448.406 7.084 447.972 7.756L447.944 7.728V3.892H447.104V13.3C447.104 13.538 447.062 13.762 447.02 14H447.888ZM455.397 16.674H456.223L459.149 6.93H458.309L456.643 12.726H456.615L454.893 6.93H453.983L456.223 14.014L455.397 16.674ZM9.974 36V28.93H9.134V36H9.974ZM10.072 26.956V25.892H9.036V26.956H10.072ZM13.8615 29.602V34.656C13.8615 35.524 14.1975 36.028 15.3315 36.028C15.5975 36.028 15.8775 36.014 16.1295 35.986V35.258C15.9475 35.286 15.7515 35.3 15.4715 35.3C14.7995 35.3 14.7015 35.076 14.7015 34.138V29.602H16.1295V28.93H14.7015V27.11L13.8615 27.474V28.93H12.7275V29.602H13.8615ZM22.616 34.138C22.616 31.772 19.438 32.248 19.438 30.484C19.438 29.854 19.914 29.462 20.516 29.462C21.468 29.462 21.706 29.938 21.748 30.834H22.574C22.574 29.756 22.126 28.79 20.726 28.79C19.494 28.79 18.598 29.252 18.598 30.554C18.598 32.892 21.776 32.416 21.776 34.264C21.776 35.048 21.384 35.51 20.572 35.51C19.494 35.51 19.27 34.866 19.27 33.9H18.416C18.402 35.398 19.004 36.14 20.53 36.14C21.846 36.14 22.616 35.468 22.616 34.138ZM30.8669 31.828C30.8669 30.078 31.8189 29.462 32.3649 29.462C33.7509 29.462 33.9609 30.624 33.9609 32.458C33.9609 34.306 33.7509 35.468 32.3649 35.468C31.5949 35.468 30.8669 34.698 30.8669 33.088V31.828ZM30.8389 28.93H30.0269V38.674H30.8669V35.202L30.8949 35.216C31.3289 35.888 31.8469 36.14 32.3649 36.14C34.1709 36.14 34.8009 35.062 34.8009 33.228V31.646C34.8009 30.722 34.7869 28.79 32.5749 28.79C32.0149 28.79 31.3149 29.084 30.8669 29.77L30.8389 29.784V28.93ZM38.7396 36V25.892H37.8996V36H38.7396ZM45.7211 33.676C45.7211 34.6 44.9371 35.468 43.9711 35.468C43.1031 35.468 42.6971 34.81 42.6971 34.012C42.6971 32.29 44.5171 32.43 45.7211 32.388V33.676ZM45.7771 36H46.6451C46.5611 35.174 46.5611 34.726 46.5611 34.222V30.666C46.5611 28.86 45.0771 28.79 44.3631 28.79C43.1311 28.79 42.0811 29.322 42.0111 30.68H42.9071C42.9071 29.84 43.5231 29.462 44.2931 29.462C45.4131 29.462 45.7211 30.092 45.7211 31.128V31.716C44.2931 31.828 41.8011 31.576 41.8011 34.054C41.8011 35.286 42.4871 36.14 43.7471 36.14C44.6151 36.14 45.3011 35.804 45.7491 35.132H45.7771V36ZM50.4438 38.674H51.2698L54.1958 28.93H53.3558L51.6898 34.726H51.6618L49.9398 28.93H49.0298L51.2698 36.014L50.4438 38.674ZM61.2753 32.64C61.2753 30.54 61.2753 28.79 58.8393 28.79C57.2573 28.79 56.4033 29.728 56.4033 31.772V33.508C56.4033 35.65 57.6213 36.14 58.8393 36.14C60.2533 36.14 61.1773 35.552 61.2753 33.844H60.3933C60.4073 34.796 59.8893 35.468 58.8393 35.468C57.5093 35.468 57.2433 34.166 57.2433 33.186V32.64H61.2753ZM57.2433 31.968C57.2433 30.4 57.4953 29.462 58.8393 29.462C60.1833 29.462 60.4353 30.4 60.4353 31.968H57.2433ZM65.102 28.93H64.262V36H65.102V31.45C65.102 30.26 65.886 29.546 67.076 29.644V28.79C66.222 28.79 65.48 29.21 65.13 29.882H65.102V28.93ZM73.4644 34.138C73.4644 31.772 70.2864 32.248 70.2864 30.484C70.2864 29.854 70.7624 29.462 71.3644 29.462C72.3164 29.462 72.5544 29.938 72.5964 30.834H73.4224C73.4224 29.756 72.9744 28.79 71.5744 28.79C70.3424 28.79 69.4464 29.252 69.4464 30.554C69.4464 32.892 72.6244 32.416 72.6244 34.264C72.6244 35.048 72.2324 35.51 71.4204 35.51C70.3424 35.51 70.1184 34.866 70.1184 33.9H69.2644C69.2504 35.398 69.8524 36.14 71.3784 36.14C72.6944 36.14 73.4644 35.468 73.4644 34.138ZM76.5258 36H77.5618V34.936H76.5258V36ZM87.1569 36H88.0529V26.648H90.5169V25.892H84.6929V26.648H87.1569V36ZM93.8116 36V31.562C93.8116 29.98 94.5816 29.462 95.3376 29.462C96.3176 29.462 96.6396 30.232 96.6396 31.058V36H97.4796V31.016C97.4796 30.092 97.2976 28.79 95.5476 28.79C94.7916 28.79 94.2456 29.21 93.8396 29.798H93.8116V25.892H92.9716V36H93.8116ZM101.712 36V28.93H100.872V36H101.712ZM101.81 26.956V25.892H100.774V26.956H101.81ZM109.058 34.138C109.058 31.772 105.88 32.248 105.88 30.484C105.88 29.854 106.356 29.462 106.958 29.462C107.91 29.462 108.148 29.938 108.19 30.834H109.016C109.016 29.756 108.568 28.79 107.168 28.79C105.936 28.79 105.04 29.252 105.04 30.554C105.04 32.892 108.218 32.416 108.218 34.264C108.218 35.048 107.826 35.51 107.014 35.51C105.936 35.51 105.712 34.866 105.712 33.9H104.858C104.844 35.398 105.446 36.14 106.972 36.14C108.288 36.14 109.058 35.468 109.058 34.138ZM117.561 36V28.93H116.721V36H117.561ZM117.659 26.956V25.892H116.623V26.956H117.659ZM124.906 34.138C124.906 31.772 121.728 32.248 121.728 30.484C121.728 29.854 122.204 29.462 122.806 29.462C123.758 29.462 123.996 29.938 124.038 30.834H124.864C124.864 29.756 124.416 28.79 123.016 28.79C121.784 28.79 120.888 29.252 120.888 30.554C120.888 32.892 124.066 32.416 124.066 34.264C124.066 35.048 123.674 35.51 122.862 35.51C121.784 35.51 121.56 34.866 121.56 33.9H120.706C120.692 35.398 121.294 36.14 122.82 36.14C124.136 36.14 124.906 35.468 124.906 34.138ZM133.129 36V31.562C133.129 29.98 133.899 29.462 134.655 29.462C135.635 29.462 135.957 30.232 135.957 31.058V36H136.797V31.016C136.797 30.092 136.615 28.79 134.865 28.79C134.109 28.79 133.563 29.21 133.157 29.798H133.129V25.892H132.289V36H133.129ZM142.164 36.14C143.816 36.14 144.6 35.062 144.6 33.228V31.702C144.6 29.868 143.816 28.79 142.164 28.79C140.512 28.79 139.728 29.868 139.728 31.702V33.228C139.728 35.062 140.512 36.14 142.164 36.14ZM142.164 29.462C143.55 29.462 143.76 30.624 143.76 32.458C143.76 34.306 143.55 35.468 142.164 35.468C140.778 35.468 140.568 34.306 140.568 32.458C140.568 30.624 140.778 29.462 142.164 29.462ZM148.763 36H149.813L151.297 29.952H151.325L152.879 36H153.929L155.875 28.93H155.035L153.453 35.118H153.425L151.857 28.93H150.821L149.323 35.118H149.295L147.713 28.93H146.817L148.763 36ZM163.892 36V28.93H163.052V36H163.892ZM163.99 26.956V25.892H162.954V26.956H163.99ZM167.779 29.602V34.656C167.779 35.524 168.115 36.028 169.249 36.028C169.515 36.028 169.795 36.014 170.047 35.986V35.258C169.865 35.286 169.669 35.3 169.389 35.3C168.717 35.3 168.619 35.076 168.619 34.138V29.602H170.047V28.93H168.619V27.11L167.779 27.474V28.93H166.645V29.602H167.779ZM176.534 34.138C176.534 31.772 173.356 32.248 173.356 30.484C173.356 29.854 173.832 29.462 174.434 29.462C175.386 29.462 175.624 29.938 175.666 30.834H176.492C176.492 29.756 176.044 28.79 174.644 28.79C173.412 28.79 172.516 29.252 172.516 30.554C172.516 32.892 175.694 32.416 175.694 34.264C175.694 35.048 175.302 35.51 174.49 35.51C173.412 35.51 173.188 34.866 173.188 33.9H172.334C172.32 35.398 172.922 36.14 174.448 36.14C175.764 36.14 176.534 35.468 176.534 34.138ZM185.975 29.462C186.759 29.462 187.557 30.022 187.557 31.506C187.557 33.578 187.501 33.9 187.291 34.446C187.165 34.782 186.717 35.244 186.017 35.244C184.491 35.244 184.491 33.774 184.491 32.304C184.491 31.254 184.519 29.462 185.975 29.462ZM187.613 29.812L187.585 29.784C187.277 29.154 186.563 28.79 185.849 28.79C184.421 28.79 183.931 29.896 183.861 30.19C183.665 30.946 183.651 30.96 183.651 32.598C183.651 34.166 183.791 35.916 185.821 35.916C186.493 35.916 187.165 35.664 187.529 35.062H187.557C187.557 37.176 187.655 38.058 186.017 38.058C185.233 38.058 184.631 37.582 184.687 36.77H183.847C183.791 37.484 184.141 38.73 185.905 38.73C187.921 38.73 188.397 37.806 188.397 36.252V30.302C188.397 29.938 188.411 29.588 188.439 28.916H187.613V29.812ZM195.136 33.676C195.136 34.6 194.352 35.468 193.386 35.468C192.518 35.468 192.112 34.81 192.112 34.012C192.112 32.29 193.932 32.43 195.136 32.388V33.676ZM195.192 36H196.06C195.976 35.174 195.976 34.726 195.976 34.222V30.666C195.976 28.86 194.492 28.79 193.778 28.79C192.546 28.79 191.496 29.322 191.426 30.68H192.322C192.322 29.84 192.938 29.462 193.708 29.462C194.828 29.462 195.136 30.092 195.136 31.128V31.716C193.708 31.828 191.216 31.576 191.216 34.054C191.216 35.286 191.902 36.14 193.162 36.14C194.03 36.14 194.716 35.804 195.164 35.132H195.192V36ZM199.984 31.45C199.984 30.526 200.39 29.462 201.454 29.462C202.28 29.462 202.532 30.246 202.546 30.946V36H203.386V31.45C203.386 30.526 203.792 29.462 204.856 29.462C205.682 29.462 205.934 30.246 205.948 30.946V36H206.788V30.736C206.746 29.602 206.13 28.79 204.954 28.79C204.17 28.79 203.568 29.196 203.218 29.896C202.98 29.196 202.336 28.79 201.608 28.79C200.824 28.79 200.264 29.224 199.928 29.798H199.9V28.916H199.144V36H199.984V31.45ZM214.586 32.64C214.586 30.54 214.586 28.79 212.15 28.79C210.568 28.79 209.714 29.728 209.714 31.772V33.508C209.714 35.65 210.932 36.14 212.15 36.14C213.564 36.14 214.488 35.552 214.586 33.844H213.704C213.718 34.796 213.2 35.468 212.15 35.468C210.82 35.468 210.554 34.166 210.554 33.186V32.64H214.586ZM210.554 31.968C210.554 30.4 210.806 29.462 212.15 29.462C213.494 29.462 213.746 30.4 213.746 31.968H210.554ZM218.385 31.828C218.385 30.078 219.337 29.462 219.883 29.462C221.269 29.462 221.479 30.624 221.479 32.458C221.479 34.306 221.269 35.468 219.883 35.468C219.113 35.468 218.385 34.698 218.385 33.088V31.828ZM218.357 28.93H217.545V38.674H218.385V35.202L218.413 35.216C218.847 35.888 219.365 36.14 219.883 36.14C221.689 36.14 222.319 35.062 222.319 33.228V31.646C222.319 30.722 222.305 28.79 220.093 28.79C219.533 28.79 218.833 29.084 218.385 29.77L218.357 29.784V28.93ZM226.258 36V25.892H225.418V36H226.258ZM233.239 33.676C233.239 34.6 232.455 35.468 231.489 35.468C230.621 35.468 230.215 34.81 230.215 34.012C230.215 32.29 232.035 32.43 233.239 32.388V33.676ZM233.295 36H234.163C234.079 35.174 234.079 34.726 234.079 34.222V30.666C234.079 28.86 232.595 28.79 231.881 28.79C230.649 28.79 229.599 29.322 229.529 30.68H230.425C230.425 29.84 231.041 29.462 231.811 29.462C232.931 29.462 233.239 30.092 233.239 31.128V31.716C231.811 31.828 229.319 31.576 229.319 34.054C229.319 35.286 230.005 36.14 231.265 36.14C232.133 36.14 232.819 35.804 233.267 35.132H233.295V36ZM237.962 38.674H238.788L241.714 28.93H240.874L239.208 34.726H239.18L237.458 28.93H236.548L238.788 36.014L237.962 38.674ZM249.727 36V25.892H248.887V36H249.727ZM255.364 36.14C257.016 36.14 257.8 35.062 257.8 33.228V31.702C257.8 29.868 257.016 28.79 255.364 28.79C253.712 28.79 252.928 29.868 252.928 31.702V33.228C252.928 35.062 253.712 36.14 255.364 36.14ZM255.364 29.462C256.75 29.462 256.96 30.624 256.96 32.458C256.96 34.306 256.75 35.468 255.364 35.468C253.978 35.468 253.768 34.306 253.768 32.458C253.768 30.624 253.978 29.462 255.364 29.462ZM262.985 36.14C264.637 36.14 265.421 35.062 265.421 33.228V31.702C265.421 29.868 264.637 28.79 262.985 28.79C261.333 28.79 260.549 29.868 260.549 31.702V33.228C260.549 35.062 261.333 36.14 262.985 36.14ZM262.985 29.462C264.371 29.462 264.581 30.624 264.581 32.458C264.581 34.306 264.371 35.468 262.985 35.468C261.599 35.468 261.389 34.306 261.389 32.458C261.389 30.624 261.599 29.462 262.985 29.462ZM268.38 36H269.22V32.15H269.248L271.768 36H272.832L270.158 32.08L272.664 28.93H271.684L269.248 32.052H269.22V25.892H268.38V36ZM279.155 34.138C279.155 31.772 275.977 32.248 275.977 30.484C275.977 29.854 276.453 29.462 277.055 29.462C278.007 29.462 278.245 29.938 278.287 30.834H279.113C279.113 29.756 278.665 28.79 277.265 28.79C276.033 28.79 275.137 29.252 275.137 30.554C275.137 32.892 278.315 32.416 278.315 34.264C278.315 35.048 277.923 35.51 277.111 35.51C276.033 35.51 275.809 34.866 275.809 33.9H274.955C274.941 35.398 275.543 36.14 277.069 36.14C278.385 36.14 279.155 35.468 279.155 34.138ZM287.658 36V25.892H286.818V36H287.658ZM292.162 36V28.93H291.322V36H292.162ZM292.26 26.956V25.892H291.224V26.956H292.26ZM295.573 36H296.413V32.15H296.441L298.961 36H300.025L297.351 32.08L299.857 28.93H298.877L296.441 32.052H296.413V25.892H295.573V36ZM307.076 32.64C307.076 30.54 307.076 28.79 304.64 28.79C303.058 28.79 302.204 29.728 302.204 31.772V33.508C302.204 35.65 303.422 36.14 304.64 36.14C306.054 36.14 306.978 35.552 307.076 33.844H306.194C306.208 34.796 305.69 35.468 304.64 35.468C303.31 35.468 303.044 34.166 303.044 33.186V32.64H307.076ZM303.044 31.968C303.044 30.4 303.296 29.462 304.64 29.462C305.984 29.462 306.236 30.4 306.236 31.968H303.044ZM310.189 36H311.225V34.936H310.189V36Z" fill="white"/>
</svg>
