<svg width="436" height="47" viewBox="0 0 436 47" fill="none" xmlns="http://www.w3.org/2000/svg">
<rect width="436" height="47" fill="black" fill-opacity="0.69"/>
<path d="M10.66 14H11.556V4.648H14.02V3.892H8.196V4.648H10.66V14ZM17.3147 14V9.562C17.3147 7.98 18.0847 7.462 18.8407 7.462C19.8207 7.462 20.1427 8.232 20.1427 9.058V14H20.9827V9.016C20.9827 8.092 20.8007 6.79 19.0507 6.79C18.2947 6.79 17.7487 7.21 17.3427 7.798H17.3147V3.892H16.4747V14H17.3147ZM28.7854 10.64C28.7854 8.54 28.7854 6.79 26.3494 6.79C24.7674 6.79 23.9134 7.728 23.9134 9.772V11.508C23.9134 13.65 25.1314 14.14 26.3494 14.14C27.7634 14.14 28.6874 13.552 28.7854 11.844H27.9034C27.9174 12.796 27.3994 13.468 26.3494 13.468C25.0194 13.468 24.7534 12.166 24.7534 11.186V10.64H28.7854ZM24.7534 9.968C24.7534 8.4 25.0054 7.462 26.3494 7.462C27.6934 7.462 27.9454 8.4 27.9454 9.968H24.7534ZM35.6781 12.138C35.6781 9.772 32.5001 10.248 32.5001 8.484C32.5001 7.854 32.9761 7.462 33.5781 7.462C34.5301 7.462 34.7681 7.938 34.8101 8.834H35.6361C35.6361 7.756 35.1881 6.79 33.7881 6.79C32.5561 6.79 31.6601 7.252 31.6601 8.554C31.6601 10.892 34.8381 10.416 34.8381 12.264C34.8381 13.048 34.4461 13.51 33.6341 13.51C32.5561 13.51 32.3321 12.866 32.3321 11.9H31.4781C31.4641 13.398 32.0661 14.14 33.5921 14.14C34.9081 14.14 35.6781 13.468 35.6781 12.138ZM43.2475 10.64C43.2475 8.54 43.2475 6.79 40.8115 6.79C39.2295 6.79 38.3755 7.728 38.3755 9.772V11.508C38.3755 13.65 39.5935 14.14 40.8115 14.14C42.2255 14.14 43.1495 13.552 43.2475 11.844H42.3655C42.3795 12.796 41.8615 13.468 40.8115 13.468C39.4815 13.468 39.2155 12.166 39.2155 11.186V10.64H43.2475ZM39.2155 9.968C39.2155 8.4 39.4675 7.462 40.8115 7.462C42.1555 7.462 42.4075 8.4 42.4075 9.968H39.2155ZM54.2797 11.676C54.2797 12.6 53.4957 13.468 52.5297 13.468C51.6617 13.468 51.2557 12.81 51.2557 12.012C51.2557 10.29 53.0757 10.43 54.2797 10.388V11.676ZM54.3357 14H55.2037C55.1197 13.174 55.1197 12.726 55.1197 12.222V8.666C55.1197 6.86 53.6357 6.79 52.9217 6.79C51.6897 6.79 50.6397 7.322 50.5697 8.68H51.4657C51.4657 7.84 52.0817 7.462 52.8517 7.462C53.9717 7.462 54.2797 8.092 54.2797 9.128V9.716C52.8517 9.828 50.3597 9.576 50.3597 12.054C50.3597 13.286 51.0457 14.14 52.3057 14.14C53.1737 14.14 53.8597 13.804 54.3077 13.132H54.3357V14ZM59.1984 6.93H58.3584V14H59.1984V9.45C59.1984 8.26 59.9824 7.546 61.1724 7.644V6.79C60.3184 6.79 59.5764 7.21 59.2264 7.882H59.1984V6.93ZM68.2889 10.64C68.2889 8.54 68.2889 6.79 65.8529 6.79C64.2709 6.79 63.4169 7.728 63.4169 9.772V11.508C63.4169 13.65 64.6349 14.14 65.8529 14.14C67.2669 14.14 68.1909 13.552 68.2889 11.844H67.4069C67.4209 12.796 66.9029 13.468 65.8529 13.468C64.5229 13.468 64.2569 12.166 64.2569 11.186V10.64H68.2889ZM64.2569 9.968C64.2569 8.4 64.5089 7.462 65.8529 7.462C67.1969 7.462 67.4489 8.4 67.4489 9.968H64.2569ZM79.3211 11.676C79.3211 12.6 78.5371 13.468 77.5711 13.468C76.7031 13.468 76.2971 12.81 76.2971 12.012C76.2971 10.29 78.1171 10.43 79.3211 10.388V11.676ZM79.3771 14H80.2451C80.1611 13.174 80.1611 12.726 80.1611 12.222V8.666C80.1611 6.86 78.6771 6.79 77.9631 6.79C76.7311 6.79 75.6811 7.322 75.6111 8.68H76.5071C76.5071 7.84 77.1231 7.462 77.8931 7.462C79.0131 7.462 79.3211 8.092 79.3211 9.128V9.716C77.8931 9.828 75.4011 9.576 75.4011 12.054C75.4011 13.286 76.0871 14.14 77.3471 14.14C78.2151 14.14 78.9011 13.804 79.3491 13.132H79.3771V14ZM84.4638 14V3.892H83.6238V14H84.4638ZM88.9674 14V3.892H88.1274V14H88.9674ZM97.3584 7.602V12.656C97.3584 13.524 97.6944 14.028 98.8284 14.028C99.0944 14.028 99.3744 14.014 99.6264 13.986V13.258C99.4444 13.286 99.2484 13.3 98.9684 13.3C98.2964 13.3 98.1984 13.076 98.1984 12.138V7.602H99.6264V6.93H98.1984V5.11L97.3584 5.474V6.93H96.2244V7.602H97.3584ZM102.991 14V9.562C102.991 7.98 103.761 7.462 104.517 7.462C105.497 7.462 105.819 8.232 105.819 9.058V14H106.659V9.016C106.659 8.092 106.477 6.79 104.727 6.79C103.971 6.79 103.425 7.21 103.019 7.798H102.991V3.892H102.151V14H102.991ZM114.462 10.64C114.462 8.54 114.462 6.79 112.026 6.79C110.444 6.79 109.59 7.728 109.59 9.772V11.508C109.59 13.65 110.808 14.14 112.026 14.14C113.44 14.14 114.364 13.552 114.462 11.844H113.58C113.594 12.796 113.076 13.468 112.026 13.468C110.696 13.468 110.43 12.166 110.43 11.186V10.64H114.462ZM110.43 9.968C110.43 8.4 110.682 7.462 112.026 7.462C113.37 7.462 113.622 8.4 113.622 9.968H110.43ZM123.016 14V3.892H122.176V14H123.016ZM131.089 10.64C131.089 8.54 131.089 6.79 128.653 6.79C127.071 6.79 126.217 7.728 126.217 9.772V11.508C126.217 13.65 127.435 14.14 128.653 14.14C130.067 14.14 130.991 13.552 131.089 11.844H130.207C130.221 12.796 129.703 13.468 128.653 13.468C127.323 13.468 127.057 12.166 127.057 11.186V10.64H131.089ZM127.057 9.968C127.057 8.4 127.309 7.462 128.653 7.462C129.997 7.462 130.249 8.4 130.249 9.968H127.057ZM134.216 6.93H133.306L135.406 14H136.372L138.472 6.93H137.66L135.938 12.936H135.91L134.216 6.93ZM145.551 10.64C145.551 8.54 145.551 6.79 143.115 6.79C141.533 6.79 140.679 7.728 140.679 9.772V11.508C140.679 13.65 141.897 14.14 143.115 14.14C144.529 14.14 145.453 13.552 145.551 11.844H144.669C144.683 12.796 144.165 13.468 143.115 13.468C141.785 13.468 141.519 12.166 141.519 11.186V10.64H145.551ZM141.519 9.968C141.519 8.4 141.771 7.462 143.115 7.462C144.459 7.462 144.711 8.4 144.711 9.968H141.519ZM149.602 14V3.892H148.762V14H149.602ZM156.948 12.138C156.948 9.772 153.77 10.248 153.77 8.484C153.77 7.854 154.246 7.462 154.848 7.462C155.8 7.462 156.038 7.938 156.08 8.834H156.906C156.906 7.756 156.458 6.79 155.058 6.79C153.826 6.79 152.93 7.252 152.93 8.554C152.93 10.892 156.108 10.416 156.108 12.264C156.108 13.048 155.716 13.51 154.904 13.51C153.826 13.51 153.602 12.866 153.602 11.9H152.748C152.734 13.398 153.336 14.14 154.862 14.14C156.178 14.14 156.948 13.468 156.948 12.138ZM164.835 7.602V12.656C164.835 13.524 165.171 14.028 166.305 14.028C166.571 14.028 166.851 14.014 167.103 13.986V13.258C166.921 13.286 166.725 13.3 166.445 13.3C165.773 13.3 165.675 13.076 165.675 12.138V7.602H167.103V6.93H165.675V5.11L164.835 5.474V6.93H163.701V7.602H164.835ZM170.467 14V9.562C170.467 7.98 171.237 7.462 171.993 7.462C172.973 7.462 173.295 8.232 173.295 9.058V14H174.135V9.016C174.135 8.092 173.953 6.79 172.203 6.79C171.447 6.79 170.901 7.21 170.495 7.798H170.467V3.892H169.627V14H170.467ZM180.846 11.676C180.846 12.6 180.062 13.468 179.096 13.468C178.228 13.468 177.822 12.81 177.822 12.012C177.822 10.29 179.642 10.43 180.846 10.388V11.676ZM180.902 14H181.77C181.686 13.174 181.686 12.726 181.686 12.222V8.666C181.686 6.86 180.202 6.79 179.488 6.79C178.256 6.79 177.206 7.322 177.136 8.68H178.032C178.032 7.84 178.648 7.462 179.418 7.462C180.538 7.462 180.846 8.092 180.846 9.128V9.716C179.418 9.828 176.926 9.576 176.926 12.054C176.926 13.286 177.612 14.14 178.872 14.14C179.74 14.14 180.426 13.804 180.874 13.132H180.902V14ZM185.372 7.602V12.656C185.372 13.524 185.708 14.028 186.842 14.028C187.108 14.028 187.388 14.014 187.64 13.986V13.258C187.458 13.286 187.262 13.3 186.982 13.3C186.31 13.3 186.212 13.076 186.212 12.138V7.602H187.64V6.93H186.212V5.11L185.372 5.474V6.93H184.238V7.602H185.372ZM195.172 7.602V12.656C195.172 13.524 195.508 14.028 196.642 14.028C196.908 14.028 197.188 14.014 197.44 13.986V13.258C197.258 13.286 197.062 13.3 196.782 13.3C196.11 13.3 196.012 13.076 196.012 12.138V7.602H197.44V6.93H196.012V5.11L195.172 5.474V6.93H194.038V7.602H195.172ZM200.805 14V9.562C200.805 7.98 201.575 7.462 202.331 7.462C203.311 7.462 203.633 8.232 203.633 9.058V14H204.473V9.016C204.473 8.092 204.291 6.79 202.541 6.79C201.785 6.79 201.239 7.21 200.833 7.798H200.805V3.892H199.965V14H200.805ZM212.276 10.64C212.276 8.54 212.276 6.79 209.84 6.79C208.258 6.79 207.404 7.728 207.404 9.772V11.508C207.404 13.65 208.622 14.14 209.84 14.14C211.254 14.14 212.178 13.552 212.276 11.844H211.394C211.408 12.796 210.89 13.468 209.84 13.468C208.51 13.468 208.244 12.166 208.244 11.186V10.64H212.276ZM208.244 9.968C208.244 8.4 208.496 7.462 209.84 7.462C211.184 7.462 211.436 8.4 211.436 9.968H208.244ZM222.706 14.196C225.1 14.196 225.268 11.83 225.268 11.102H224.316C224.302 12.404 223.868 13.44 222.706 13.44C220.578 13.44 220.55 11.634 220.55 8.946C220.55 6.258 220.578 4.452 222.706 4.452C223.994 4.452 224.302 5.502 224.302 6.622H225.198C225.198 5.712 225.156 3.696 222.706 3.696C219.682 3.696 219.654 6.216 219.654 8.946C219.654 11.676 219.682 14.196 222.706 14.196ZM230.364 14.14C232.016 14.14 232.8 13.062 232.8 11.228V9.702C232.8 7.868 232.016 6.79 230.364 6.79C228.712 6.79 227.928 7.868 227.928 9.702V11.228C227.928 13.062 228.712 14.14 230.364 14.14ZM230.364 7.462C231.75 7.462 231.96 8.624 231.96 10.458C231.96 12.306 231.75 13.468 230.364 13.468C228.978 13.468 228.768 12.306 228.768 10.458C228.768 8.624 228.978 7.462 230.364 7.462ZM236.851 14V3.892H236.011V14H236.851ZM243.846 6.93V11.914C243.846 12.404 243.44 13.468 242.306 13.468C241.088 13.468 241.13 11.984 241.13 11.788V6.93H240.29V11.928C240.29 13.076 240.696 14.14 242.152 14.14C242.936 14.14 243.44 13.818 243.93 13.216H243.958V14H244.686V6.93H243.846ZM248.681 9.45C248.681 8.526 249.087 7.462 250.151 7.462C250.977 7.462 251.229 8.246 251.243 8.946V14H252.083V9.45C252.083 8.526 252.489 7.462 253.553 7.462C254.379 7.462 254.631 8.246 254.645 8.946V14H255.485V8.736C255.443 7.602 254.827 6.79 253.651 6.79C252.867 6.79 252.265 7.196 251.915 7.896C251.677 7.196 251.033 6.79 250.305 6.79C249.521 6.79 248.961 7.224 248.625 7.798H248.597V6.916H247.841V14H248.681V9.45ZM259.433 10.36C259.433 9.296 259.601 7.462 260.959 7.462C262.513 7.462 262.555 8.834 262.555 10.486C262.555 12.138 262.513 13.468 260.959 13.468C259.433 13.468 259.433 11.48 259.433 10.36ZM259.405 14V13.146H259.433C259.783 13.804 260.385 14.14 261.211 14.14C263.269 14.14 263.395 12.012 263.395 10.458C263.395 9.198 263.577 6.79 261.281 6.79C260.483 6.79 259.923 7.084 259.489 7.756L259.461 7.728V3.892H258.621V13.3C258.621 13.538 258.579 13.762 258.537 14H259.405ZM267.333 14V6.93H266.493V14H267.333ZM267.431 4.956V3.892H266.395V4.956H267.431ZM271.557 9.562C271.557 7.98 272.327 7.462 273.083 7.462C274.063 7.462 274.385 8.232 274.385 9.058V14H275.225V9.016C275.225 8.092 275.043 6.79 273.293 6.79C272.537 6.79 271.991 7.21 271.585 7.798H271.557V6.93H270.717V14H271.557V9.562ZM283.028 10.64C283.028 8.54 283.028 6.79 280.592 6.79C279.01 6.79 278.156 7.728 278.156 9.772V11.508C278.156 13.65 279.374 14.14 280.592 14.14C282.006 14.14 282.93 13.552 283.028 11.844H282.146C282.16 12.796 281.642 13.468 280.592 13.468C279.262 13.468 278.996 12.166 278.996 11.186V10.64H283.028ZM278.996 9.968C278.996 8.4 279.248 7.462 280.592 7.462C281.936 7.462 282.188 8.4 282.188 9.968H278.996ZM294.424 12.138C294.424 9.772 291.246 10.248 291.246 8.484C291.246 7.854 291.722 7.462 292.324 7.462C293.276 7.462 293.514 7.938 293.556 8.834H294.382C294.382 7.756 293.934 6.79 292.534 6.79C291.302 6.79 290.406 7.252 290.406 8.554C290.406 10.892 293.584 10.416 293.584 12.264C293.584 13.048 293.192 13.51 292.38 13.51C291.302 13.51 291.078 12.866 291.078 11.9H290.224C290.21 13.398 290.812 14.14 292.338 14.14C293.654 14.14 294.424 13.468 294.424 12.138ZM298.143 14V9.562C298.143 7.98 298.913 7.462 299.669 7.462C300.649 7.462 300.971 8.232 300.971 9.058V14H301.811V9.016C301.811 8.092 301.629 6.79 299.879 6.79C299.123 6.79 298.577 7.21 298.171 7.798H298.143V3.892H297.303V14H298.143ZM307.178 14.14C308.83 14.14 309.614 13.062 309.614 11.228V9.702C309.614 7.868 308.83 6.79 307.178 6.79C305.526 6.79 304.742 7.868 304.742 9.702V11.228C304.742 13.062 305.526 14.14 307.178 14.14ZM307.178 7.462C308.564 7.462 308.774 8.624 308.774 10.458C308.774 12.306 308.564 13.468 307.178 13.468C305.792 13.468 305.582 12.306 305.582 10.458C305.582 8.624 305.792 7.462 307.178 7.462ZM314.799 14.14C316.451 14.14 317.235 13.062 317.235 11.228V9.702C317.235 7.868 316.451 6.79 314.799 6.79C313.147 6.79 312.363 7.868 312.363 9.702V11.228C312.363 13.062 313.147 14.14 314.799 14.14ZM314.799 7.462C316.185 7.462 316.395 8.624 316.395 10.458C316.395 12.306 316.185 13.468 314.799 13.468C313.413 13.468 313.203 12.306 313.203 10.458C313.203 8.624 313.413 7.462 314.799 7.462ZM320.669 7.602V12.656C320.669 13.524 321.005 14.028 322.139 14.028C322.405 14.028 322.685 14.014 322.937 13.986V13.258C322.755 13.286 322.559 13.3 322.279 13.3C321.607 13.3 321.509 13.076 321.509 12.138V7.602H322.937V6.93H321.509V5.11L320.669 5.474V6.93H319.535V7.602H320.669ZM330.152 10.64C330.152 8.54 330.152 6.79 327.716 6.79C326.134 6.79 325.28 7.728 325.28 9.772V11.508C325.28 13.65 326.498 14.14 327.716 14.14C329.13 14.14 330.054 13.552 330.152 11.844H329.27C329.284 12.796 328.766 13.468 327.716 13.468C326.386 13.468 326.12 12.166 326.12 11.186V10.64H330.152ZM326.12 9.968C326.12 8.4 326.372 7.462 327.716 7.462C329.06 7.462 329.312 8.4 329.312 9.968H326.12ZM333.979 6.93H333.139V14H333.979V9.45C333.979 8.26 334.763 7.546 335.953 7.644V6.79C335.099 6.79 334.357 7.21 334.007 7.882H333.979V6.93ZM343.079 3.892V14H347.755V13.244H343.975V9.184H347.489V8.428H343.975V4.648H347.657V3.892H343.079ZM351.399 6.93H350.559V14H351.399V9.45C351.399 8.26 352.183 7.546 353.373 7.644V6.79C352.519 6.79 351.777 7.21 351.427 7.882H351.399V6.93ZM356.92 14V6.93H356.08V14H356.92ZM357.018 4.956V3.892H355.982V4.956H357.018ZM364.293 8.96C364.363 7.476 363.537 6.79 362.319 6.79C361.353 6.79 360.555 7.154 360.191 8.162C360.009 8.694 359.981 9.8 359.981 10.5C359.981 12.25 359.981 14.14 362.375 14.14C363.033 14.14 364.377 13.818 364.307 11.914H363.467C363.425 12.768 363.285 13.468 362.179 13.468C360.877 13.468 360.877 11.774 360.877 10.5C360.877 9.562 360.961 8.596 361.073 8.274C361.255 7.756 361.689 7.462 362.207 7.462C363.173 7.462 363.495 8.078 363.453 8.96H364.293ZM372.698 14V9.184H376.674V14H377.57V3.892H376.674V8.428H372.698V3.892H371.802V14H372.698ZM384.425 11.676C384.425 12.6 383.641 13.468 382.675 13.468C381.807 13.468 381.401 12.81 381.401 12.012C381.401 10.29 383.221 10.43 384.425 10.388V11.676ZM384.481 14H385.349C385.265 13.174 385.265 12.726 385.265 12.222V8.666C385.265 6.86 383.781 6.79 383.067 6.79C381.835 6.79 380.785 7.322 380.715 8.68H381.611C381.611 7.84 382.227 7.462 382.997 7.462C384.117 7.462 384.425 8.092 384.425 9.128V9.716C382.997 9.828 380.505 9.576 380.505 12.054C380.505 13.286 381.191 14.14 382.451 14.14C383.319 14.14 384.005 13.804 384.453 13.132H384.481V14ZM389.344 6.93H388.504V14H389.344V9.45C389.344 8.26 390.128 7.546 391.318 7.644V6.79C390.464 6.79 389.722 7.21 389.372 7.882H389.344V6.93ZM394.641 6.93H393.801V14H394.641V9.45C394.641 8.26 395.425 7.546 396.615 7.644V6.79C395.761 6.79 395.019 7.21 394.669 7.882H394.641V6.93ZM400.161 14V6.93H399.321V14H400.161ZM400.259 4.956V3.892H399.223V4.956H400.259ZM407.507 12.138C407.507 9.772 404.329 10.248 404.329 8.484C404.329 7.854 404.805 7.462 405.407 7.462C406.359 7.462 406.597 7.938 406.639 8.834H407.465C407.465 7.756 407.017 6.79 405.617 6.79C404.385 6.79 403.489 7.252 403.489 8.554C403.489 10.892 406.667 10.416 406.667 12.264C406.667 13.048 406.275 13.51 405.463 13.51C404.385 13.51 404.161 12.866 404.161 11.9H403.307C403.293 13.398 403.895 14.14 405.421 14.14C406.737 14.14 407.507 13.468 407.507 12.138ZM415.73 14V9.562C415.73 7.98 416.5 7.462 417.256 7.462C418.236 7.462 418.558 8.232 418.558 9.058V14H419.398V9.016C419.398 8.092 419.216 6.79 417.466 6.79C416.71 6.79 416.164 7.21 415.758 7.798H415.73V3.892H414.89V14H415.73ZM426.108 11.676C426.108 12.6 425.324 13.468 424.358 13.468C423.49 13.468 423.084 12.81 423.084 12.012C423.084 10.29 424.904 10.43 426.108 10.388V11.676ZM426.164 14H427.032C426.948 13.174 426.948 12.726 426.948 12.222V8.666C426.948 6.86 425.464 6.79 424.75 6.79C423.518 6.79 422.468 7.322 422.398 8.68H423.294C423.294 7.84 423.91 7.462 424.68 7.462C425.8 7.462 426.108 8.092 426.108 9.128V9.716C424.68 9.828 422.188 9.576 422.188 12.054C422.188 13.286 422.874 14.14 424.134 14.14C425.002 14.14 425.688 13.804 426.136 13.132H426.164V14ZM434.093 12.138C434.093 9.772 430.915 10.248 430.915 8.484C430.915 7.854 431.391 7.462 431.993 7.462C432.945 7.462 433.183 7.938 433.225 8.834H434.051C434.051 7.756 433.603 6.79 432.203 6.79C430.971 6.79 430.075 7.252 430.075 8.554C430.075 10.892 433.253 10.416 433.253 12.264C433.253 13.048 432.861 13.51 432.049 13.51C430.971 13.51 430.747 12.866 430.747 11.9H429.893C429.879 13.398 430.481 14.14 432.007 14.14C433.323 14.14 434.093 13.468 434.093 12.138ZM12.844 30.96C12.914 29.476 12.088 28.79 10.87 28.79C9.904 28.79 9.106 29.154 8.742 30.162C8.56 30.694 8.532 31.8 8.532 32.5C8.532 34.25 8.532 36.14 10.926 36.14C11.584 36.14 12.928 35.818 12.858 33.914H12.018C11.976 34.768 11.836 35.468 10.73 35.468C9.428 35.468 9.428 33.774 9.428 32.5C9.428 31.562 9.512 30.596 9.624 30.274C9.806 29.756 10.24 29.462 10.758 29.462C11.724 29.462 12.046 30.078 12.004 30.96H12.844ZM16.5914 28.93H15.7514V36H16.5914V31.45C16.5914 30.26 17.3754 29.546 18.5654 29.644V28.79C17.7114 28.79 16.9694 29.21 16.6194 29.882H16.5914V28.93ZM25.6819 32.64C25.6819 30.54 25.6819 28.79 23.2459 28.79C21.6639 28.79 20.8099 29.728 20.8099 31.772V33.508C20.8099 35.65 22.0279 36.14 23.2459 36.14C24.6599 36.14 25.5839 35.552 25.6819 33.844H24.7999C24.8139 34.796 24.2959 35.468 23.2459 35.468C21.9159 35.468 21.6499 34.166 21.6499 33.186V32.64H25.6819ZM21.6499 31.968C21.6499 30.4 21.9019 29.462 23.2459 29.462C24.5899 29.462 24.8419 30.4 24.8419 31.968H21.6499ZM32.2106 33.676C32.2106 34.6 31.4266 35.468 30.4606 35.468C29.5926 35.468 29.1866 34.81 29.1866 34.012C29.1866 32.29 31.0066 32.43 32.2106 32.388V33.676ZM32.2666 36H33.1346C33.0506 35.174 33.0506 34.726 33.0506 34.222V30.666C33.0506 28.86 31.5666 28.79 30.8526 28.79C29.6206 28.79 28.5706 29.322 28.5006 30.68H29.3966C29.3966 29.84 30.0126 29.462 30.7826 29.462C31.9026 29.462 32.2106 30.092 32.2106 31.128V31.716C30.7826 31.828 28.2906 31.576 28.2906 34.054C28.2906 35.286 28.9766 36.14 30.2366 36.14C31.1046 36.14 31.7906 35.804 32.2386 35.132H32.2666V36ZM36.7373 29.602V34.656C36.7373 35.524 37.0733 36.028 38.2073 36.028C38.4733 36.028 38.7533 36.014 39.0053 35.986V35.258C38.8233 35.286 38.6273 35.3 38.3473 35.3C37.6753 35.3 37.5773 35.076 37.5773 34.138V29.602H39.0053V28.93H37.5773V27.11L36.7373 27.474V28.93H35.6033V29.602H36.7373ZM46.2198 32.64C46.2198 30.54 46.2198 28.79 43.7838 28.79C42.2018 28.79 41.3478 29.728 41.3478 31.772V33.508C41.3478 35.65 42.5658 36.14 43.7838 36.14C45.1978 36.14 46.1218 35.552 46.2198 33.844H45.3378C45.3518 34.796 44.8338 35.468 43.7838 35.468C42.4538 35.468 42.1878 34.166 42.1878 33.186V32.64H46.2198ZM42.1878 31.968C42.1878 30.4 42.4398 29.462 43.7838 29.462C45.1278 29.462 45.3798 30.4 45.3798 31.968H42.1878ZM51.2645 35.468C50.3545 35.468 49.7245 35.118 49.7245 32.486C49.7245 30.834 49.7245 29.462 51.2365 29.462C52.8185 29.462 52.8185 31.422 52.8185 31.842V33.102C52.8185 34.824 52.0625 35.468 51.2645 35.468ZM52.9025 36H53.7145C53.6725 35.762 53.6305 35.3 53.6305 34.6V25.892H52.7905V29.644L52.7625 29.63C52.3285 29.084 51.6985 28.79 51.0545 28.79C48.8845 28.79 48.8845 31.1 48.8845 32.458C48.8845 34.11 48.9965 36.14 51.0405 36.14C51.8665 36.14 52.3985 35.79 52.8325 35.118L52.8605 35.104L52.9025 36ZM61.8207 36H62.6607V29.602H64.0887V28.93H62.6607V27.726C62.6607 27.32 62.6607 26.592 63.4727 26.592H64.1027V25.892C63.8927 25.864 63.7527 25.836 63.6267 25.836C61.9187 25.836 61.8207 27.068 61.8207 27.74V28.93H60.6867V29.602H61.8207V36ZM68.8252 36.14C70.4772 36.14 71.2612 35.062 71.2612 33.228V31.702C71.2612 29.868 70.4772 28.79 68.8252 28.79C67.1732 28.79 66.3892 29.868 66.3892 31.702V33.228C66.3892 35.062 67.1732 36.14 68.8252 36.14ZM68.8252 29.462C70.2112 29.462 70.4212 30.624 70.4212 32.458C70.4212 34.306 70.2112 35.468 68.8252 35.468C67.4392 35.468 67.2292 34.306 67.2292 32.458C67.2292 30.624 67.4392 29.462 68.8252 29.462ZM75.0879 28.93H74.2479V36H75.0879V31.45C75.0879 30.26 75.8719 29.546 77.0619 29.644V28.79C76.2079 28.79 75.4659 29.21 75.1159 29.882H75.0879V28.93ZM84.8319 36V31.562C84.8319 29.98 85.6019 29.462 86.3579 29.462C87.3379 29.462 87.6599 30.232 87.6599 31.058V36H88.4999V31.016C88.4999 30.092 88.3179 28.79 86.5679 28.79C85.8119 28.79 85.2659 29.21 84.8599 29.798H84.8319V25.892H83.9919V36H84.8319ZM92.7326 36V28.93H91.8926V36H92.7326ZM92.8306 26.956V25.892H91.7946V26.956H92.8306ZM100.078 34.138C100.078 31.772 96.9001 32.248 96.9001 30.484C96.9001 29.854 97.3761 29.462 97.9781 29.462C98.9301 29.462 99.1681 29.938 99.2101 30.834H100.036C100.036 29.756 99.5881 28.79 98.1881 28.79C96.9561 28.79 96.0601 29.252 96.0601 30.554C96.0601 32.892 99.2381 32.416 99.2381 34.264C99.2381 35.048 98.8461 35.51 98.0341 35.51C96.9561 35.51 96.7321 34.866 96.7321 33.9H95.8781C95.8641 35.398 96.4661 36.14 97.9921 36.14C99.3081 36.14 100.078 35.468 100.078 34.138ZM108.007 36H108.847V29.602H110.275V28.93H108.847V27.726C108.847 27.32 108.847 26.592 109.659 26.592H110.289V25.892C110.079 25.864 109.939 25.836 109.813 25.836C108.105 25.836 108.007 27.068 108.007 27.74V28.93H106.873V29.602H108.007V36ZM116.356 33.676C116.356 34.6 115.572 35.468 114.606 35.468C113.738 35.468 113.332 34.81 113.332 34.012C113.332 32.29 115.152 32.43 116.356 32.388V33.676ZM116.412 36H117.28C117.196 35.174 117.196 34.726 117.196 34.222V30.666C117.196 28.86 115.712 28.79 114.998 28.79C113.766 28.79 112.716 29.322 112.646 30.68H113.542C113.542 29.84 114.158 29.462 114.928 29.462C116.048 29.462 116.356 30.092 116.356 31.128V31.716C114.928 31.828 112.436 31.576 112.436 34.054C112.436 35.286 113.122 36.14 114.382 36.14C115.25 36.14 115.936 35.804 116.384 35.132H116.412V36ZM120.574 28.93H119.664L121.764 36H122.73L124.83 28.93H124.018L122.296 34.936H122.268L120.574 28.93ZM129.474 36.14C131.126 36.14 131.91 35.062 131.91 33.228V31.702C131.91 29.868 131.126 28.79 129.474 28.79C127.822 28.79 127.038 29.868 127.038 31.702V33.228C127.038 35.062 127.822 36.14 129.474 36.14ZM129.474 29.462C130.86 29.462 131.07 30.624 131.07 32.458C131.07 34.306 130.86 35.468 129.474 35.468C128.088 35.468 127.878 34.306 127.878 32.458C127.878 30.624 128.088 29.462 129.474 29.462ZM138.452 28.93V33.914C138.452 34.404 138.046 35.468 136.912 35.468C135.694 35.468 135.736 33.984 135.736 33.788V28.93H134.896V33.928C134.896 35.076 135.302 36.14 136.758 36.14C137.542 36.14 138.046 35.818 138.536 35.216H138.564V36H139.292V28.93H138.452ZM143.357 28.93H142.517V36H143.357V31.45C143.357 30.26 144.141 29.546 145.331 29.644V28.79C144.477 28.79 143.735 29.21 143.385 29.882H143.357V28.93ZM148.878 36V28.93H148.038V36H148.878ZM148.976 26.956V25.892H147.94V26.956H148.976ZM152.765 29.602V34.656C152.765 35.524 153.101 36.028 154.235 36.028C154.501 36.028 154.781 36.014 155.033 35.986V35.258C154.851 35.286 154.655 35.3 154.375 35.3C153.703 35.3 153.605 35.076 153.605 34.138V29.602H155.033V28.93H153.605V27.11L152.765 27.474V28.93H151.631V29.602H152.765ZM162.248 32.64C162.248 30.54 162.248 28.79 159.812 28.79C158.23 28.79 157.376 29.728 157.376 31.772V33.508C157.376 35.65 158.594 36.14 159.812 36.14C161.226 36.14 162.15 35.552 162.248 33.844H161.366C161.38 34.796 160.862 35.468 159.812 35.468C158.482 35.468 158.216 34.166 158.216 33.186V32.64H162.248ZM158.216 31.968C158.216 30.4 158.468 29.462 159.812 29.462C161.156 29.462 161.408 30.4 161.408 31.968H158.216ZM169.878 28.93H168.968L171.068 36H172.034L174.134 28.93H173.322L171.6 34.936H171.572L169.878 28.93ZM177.643 36V28.93H176.803V36H177.643ZM177.741 26.956V25.892H176.705V26.956H177.741ZM183.141 35.468C182.231 35.468 181.601 35.118 181.601 32.486C181.601 30.834 181.601 29.462 183.113 29.462C184.695 29.462 184.695 31.422 184.695 31.842V33.102C184.695 34.824 183.939 35.468 183.141 35.468ZM184.779 36H185.591C185.549 35.762 185.507 35.3 185.507 34.6V25.892H184.667V29.644L184.639 29.63C184.205 29.084 183.575 28.79 182.931 28.79C180.761 28.79 180.761 31.1 180.761 32.458C180.761 34.11 180.873 36.14 182.917 36.14C183.743 36.14 184.275 35.79 184.709 35.118L184.737 35.104L184.779 36ZM193.337 32.64C193.337 30.54 193.337 28.79 190.901 28.79C189.319 28.79 188.465 29.728 188.465 31.772V33.508C188.465 35.65 189.683 36.14 190.901 36.14C192.315 36.14 193.239 35.552 193.337 33.844H192.455C192.469 34.796 191.951 35.468 190.901 35.468C189.571 35.468 189.305 34.166 189.305 33.186V32.64H193.337ZM189.305 31.968C189.305 30.4 189.557 29.462 190.901 29.462C192.245 29.462 192.497 30.4 192.497 31.968H189.305ZM198.522 36.14C200.174 36.14 200.958 35.062 200.958 33.228V31.702C200.958 29.868 200.174 28.79 198.522 28.79C196.87 28.79 196.086 29.868 196.086 31.702V33.228C196.086 35.062 196.87 36.14 198.522 36.14ZM198.522 29.462C199.908 29.462 200.118 30.624 200.118 32.458C200.118 34.306 199.908 35.468 198.522 35.468C197.136 35.468 196.926 34.306 196.926 32.458C196.926 30.624 197.136 29.462 198.522 29.462ZM210.45 29.462C211.234 29.462 212.032 30.022 212.032 31.506C212.032 33.578 211.976 33.9 211.766 34.446C211.64 34.782 211.192 35.244 210.492 35.244C208.966 35.244 208.966 33.774 208.966 32.304C208.966 31.254 208.994 29.462 210.45 29.462ZM212.088 29.812L212.06 29.784C211.752 29.154 211.038 28.79 210.324 28.79C208.896 28.79 208.406 29.896 208.336 30.19C208.14 30.946 208.126 30.96 208.126 32.598C208.126 34.166 208.266 35.916 210.296 35.916C210.968 35.916 211.64 35.664 212.004 35.062H212.032C212.032 37.176 212.13 38.058 210.492 38.058C209.708 38.058 209.106 37.582 209.162 36.77H208.322C208.266 37.484 208.616 38.73 210.38 38.73C212.396 38.73 212.872 37.806 212.872 36.252V30.302C212.872 29.938 212.886 29.588 212.914 28.916H212.088V29.812ZM219.611 33.676C219.611 34.6 218.827 35.468 217.861 35.468C216.993 35.468 216.587 34.81 216.587 34.012C216.587 32.29 218.407 32.43 219.611 32.388V33.676ZM219.667 36H220.535C220.451 35.174 220.451 34.726 220.451 34.222V30.666C220.451 28.86 218.967 28.79 218.253 28.79C217.021 28.79 215.971 29.322 215.901 30.68H216.797C216.797 29.84 217.413 29.462 218.183 29.462C219.303 29.462 219.611 30.092 219.611 31.128V31.716C218.183 31.828 215.691 31.576 215.691 34.054C215.691 35.286 216.377 36.14 217.637 36.14C218.505 36.14 219.191 35.804 219.639 35.132H219.667V36ZM224.46 31.45C224.46 30.526 224.866 29.462 225.93 29.462C226.756 29.462 227.008 30.246 227.022 30.946V36H227.862V31.45C227.862 30.526 228.268 29.462 229.332 29.462C230.158 29.462 230.41 30.246 230.424 30.946V36H231.264V30.736C231.222 29.602 230.606 28.79 229.43 28.79C228.646 28.79 228.044 29.196 227.694 29.896C227.456 29.196 226.812 28.79 226.084 28.79C225.3 28.79 224.74 29.224 224.404 29.798H224.376V28.916H223.62V36H224.46V31.45ZM239.062 32.64C239.062 30.54 239.062 28.79 236.626 28.79C235.044 28.79 234.19 29.728 234.19 31.772V33.508C234.19 35.65 235.408 36.14 236.626 36.14C238.04 36.14 238.964 35.552 239.062 33.844H238.18C238.194 34.796 237.676 35.468 236.626 35.468C235.296 35.468 235.03 34.166 235.03 33.186V32.64H239.062ZM235.03 31.968C235.03 30.4 235.282 29.462 236.626 29.462C237.97 29.462 238.222 30.4 238.222 31.968H235.03ZM248.12 25.892H247.378L246.538 28.426H247.56L248.12 25.892ZM250.192 25.892H249.45L248.61 28.426H249.632L250.192 25.892ZM254.429 26.648H255.605C258.097 26.648 258.489 27.488 258.489 30.386C258.489 34.516 258.223 35.244 255.521 35.244H254.429V26.648ZM253.533 36H255.843C258.895 36 259.385 34.348 259.385 30.988C259.385 27.544 259.035 25.892 256.207 25.892H253.533V36ZM264.771 36.14C266.423 36.14 267.207 35.062 267.207 33.228V31.702C267.207 29.868 266.423 28.79 264.771 28.79C263.119 28.79 262.335 29.868 262.335 31.702V33.228C262.335 35.062 263.119 36.14 264.771 36.14ZM264.771 29.462C266.157 29.462 266.367 30.624 266.367 32.458C266.367 34.306 266.157 35.468 264.771 35.468C263.385 35.468 263.175 34.306 263.175 32.458C263.175 30.624 263.385 29.462 264.771 29.462ZM272.391 36.14C274.043 36.14 274.827 35.062 274.827 33.228V31.702C274.827 29.868 274.043 28.79 272.391 28.79C270.739 28.79 269.955 29.868 269.955 31.702V33.228C269.955 35.062 270.739 36.14 272.391 36.14ZM272.391 29.462C273.777 29.462 273.987 30.624 273.987 32.458C273.987 34.306 273.777 35.468 272.391 35.468C271.005 35.468 270.795 34.306 270.795 32.458C270.795 30.624 271.005 29.462 272.391 29.462ZM278.584 31.45C278.584 30.526 278.99 29.462 280.054 29.462C280.88 29.462 281.132 30.246 281.146 30.946V36H281.986V31.45C281.986 30.526 282.392 29.462 283.456 29.462C284.282 29.462 284.534 30.246 284.548 30.946V36H285.388V30.736C285.346 29.602 284.73 28.79 283.554 28.79C282.77 28.79 282.168 29.196 281.818 29.896C281.58 29.196 280.936 28.79 280.208 28.79C279.424 28.79 278.864 29.224 278.528 29.798H278.5V28.916H277.744V36H278.584V31.45ZM288.538 28.426H289.28L290.12 25.892H289.098L288.538 28.426ZM290.61 28.426H291.352L292.192 25.892H291.17L290.61 28.426ZM295.519 36H296.555V34.936H295.519V36Z" fill="white"/>
</svg>
