<svg width="380" height="43" viewBox="0 0 380 43" fill="none" xmlns="http://www.w3.org/2000/svg">
<rect width="375" height="43" fill="black" fill-opacity="0.69"/>
<path d="M10.478 3.892H9.736L8.896 6.426H9.918L10.478 3.892ZM12.55 3.892H11.808L10.968 6.426H11.99L12.55 3.892ZM21.0434 6.454C21.0434 4.998 20.5954 3.696 18.4954 3.696C16.8434 3.696 15.7374 4.424 15.7514 6.174C15.7654 7.182 15.8494 7.784 17.8094 8.988C19.2654 9.884 20.1754 10.276 20.1754 11.648C20.1754 12.81 19.6014 13.44 18.4254 13.44C16.6194 13.44 16.5354 12.278 16.5354 11.158H15.6114C15.5274 13.132 16.4094 14.196 18.3834 14.196C20.1474 14.196 21.0714 13.314 21.0714 11.508C21.0714 9.548 19.7974 9.282 18.5514 8.386C17.4034 7.56 16.6474 7.518 16.6474 6.02C16.6474 4.83 17.3334 4.452 18.4254 4.452C19.7974 4.452 20.1054 5.208 20.1334 6.454H21.0434ZM24.9354 14V9.562C24.9354 7.98 25.7054 7.462 26.4614 7.462C27.4414 7.462 27.7634 8.232 27.7634 9.058V14H28.6034V9.016C28.6034 8.092 28.4214 6.79 26.6714 6.79C25.9154 6.79 25.3694 7.21 24.9634 7.798H24.9354V3.892H24.0954V14H24.9354ZM35.3141 11.676C35.3141 12.6 34.5301 13.468 33.5641 13.468C32.6961 13.468 32.2901 12.81 32.2901 12.012C32.2901 10.29 34.1101 10.43 35.3141 10.388V11.676ZM35.3701 14H36.2381C36.1541 13.174 36.1541 12.726 36.1541 12.222V8.666C36.1541 6.86 34.6701 6.79 33.9561 6.79C32.7241 6.79 31.6741 7.322 31.6041 8.68H32.5001C32.5001 7.84 33.1161 7.462 33.8861 7.462C35.0061 7.462 35.3141 8.092 35.3141 9.128V9.716C33.8861 9.828 31.3941 9.576 31.3941 12.054C31.3941 13.286 32.0801 14.14 33.3401 14.14C34.2081 14.14 34.8941 13.804 35.3421 13.132H35.3701V14ZM40.2328 6.93H39.3928V14H40.2328V9.45C40.2328 8.26 41.0168 7.546 42.2068 7.644V6.79C41.3528 6.79 40.6108 7.21 40.2608 7.882H40.2328V6.93ZM45.7533 14V6.93H44.9133V14H45.7533ZM45.8513 4.956V3.892H44.8153V4.956H45.8513ZM49.6828 14H50.5228V7.602H51.9508V6.93H50.5228V5.726C50.5228 5.32 50.5228 4.592 51.3348 4.592H51.9648V3.892C51.7548 3.864 51.6148 3.836 51.4888 3.836C49.7808 3.836 49.6828 5.068 49.6828 5.74V6.93H48.5488V7.602H49.6828V14ZM59.9868 14V9.184H63.9628V14H64.8588V3.892H63.9628V8.428H59.9868V3.892H59.0908V14H59.9868ZM71.7141 11.676C71.7141 12.6 70.9301 13.468 69.9641 13.468C69.0961 13.468 68.6901 12.81 68.6901 12.012C68.6901 10.29 70.5101 10.43 71.7141 10.388V11.676ZM71.7701 14H72.6381C72.5541 13.174 72.5541 12.726 72.5541 12.222V8.666C72.5541 6.86 71.0701 6.79 70.3561 6.79C69.1241 6.79 68.0741 7.322 68.0041 8.68H68.9001C68.9001 7.84 69.5161 7.462 70.2861 7.462C71.4061 7.462 71.7141 8.092 71.7141 9.128V9.716C70.2861 9.828 67.7941 9.576 67.7941 12.054C67.7941 13.286 68.4801 14.14 69.7401 14.14C70.6081 14.14 71.2941 13.804 71.7421 13.132H71.7701V14ZM76.5628 9.45C76.5628 8.526 76.9688 7.462 78.0328 7.462C78.8588 7.462 79.1108 8.246 79.1248 8.946V14H79.9648V9.45C79.9648 8.526 80.3708 7.462 81.4348 7.462C82.2608 7.462 82.5128 8.246 82.5268 8.946V14H83.3668V8.736C83.3248 7.602 82.7088 6.79 81.5328 6.79C80.7488 6.79 80.1468 7.196 79.7968 7.896C79.5588 7.196 78.9148 6.79 78.1868 6.79C77.4028 6.79 76.8428 7.224 76.5068 7.798H76.4788V6.916H75.7228V14H76.5628V9.45ZM86.0127 14H89.8767V13.328H86.9367L89.8067 7.63V6.93H86.1807V7.602H88.9527L86.0127 13.314V14ZM96.1348 11.676C96.1348 12.6 95.3508 13.468 94.3848 13.468C93.5168 13.468 93.1108 12.81 93.1108 12.012C93.1108 10.29 94.9308 10.43 96.1348 10.388V11.676ZM96.1908 14H97.0588C96.9748 13.174 96.9748 12.726 96.9748 12.222V8.666C96.9748 6.86 95.4908 6.79 94.7768 6.79C93.5448 6.79 92.4948 7.322 92.4248 8.68H93.3208C93.3208 7.84 93.9368 7.462 94.7068 7.462C95.8268 7.462 96.1348 8.092 96.1348 9.128V9.716C94.7068 9.828 92.2148 9.576 92.2148 12.054C92.2148 13.286 92.9008 14.14 94.1608 14.14C95.0288 14.14 95.7148 13.804 96.1628 13.132H96.1908V14ZM106.915 14.14C108.567 14.14 109.351 13.062 109.351 11.228V9.702C109.351 7.868 108.567 6.79 106.915 6.79C105.263 6.79 104.479 7.868 104.479 9.702V11.228C104.479 13.062 105.263 14.14 106.915 14.14ZM106.915 7.462C108.301 7.462 108.511 8.624 108.511 10.458C108.511 12.306 108.301 13.468 106.915 13.468C105.529 13.468 105.319 12.306 105.319 10.458C105.319 8.624 105.529 7.462 106.915 7.462ZM113.122 9.562C113.122 7.98 113.892 7.462 114.648 7.462C115.628 7.462 115.95 8.232 115.95 9.058V14H116.79V9.016C116.79 8.092 116.608 6.79 114.858 6.79C114.102 6.79 113.556 7.21 113.15 7.798H113.122V6.93H112.282V14H113.122V9.562ZM125.246 14V9.562C125.246 7.98 126.016 7.462 126.772 7.462C127.752 7.462 128.074 8.232 128.074 9.058V14H128.914V9.016C128.914 8.092 128.732 6.79 126.982 6.79C126.226 6.79 125.68 7.21 125.274 7.798H125.246V3.892H124.406V14H125.246ZM134.281 14.14C135.933 14.14 136.717 13.062 136.717 11.228V9.702C136.717 7.868 135.933 6.79 134.281 6.79C132.629 6.79 131.845 7.868 131.845 9.702V11.228C131.845 13.062 132.629 14.14 134.281 14.14ZM134.281 7.462C135.667 7.462 135.877 8.624 135.877 10.458C135.877 12.306 135.667 13.468 134.281 13.468C132.895 13.468 132.685 12.306 132.685 10.458C132.685 8.624 132.895 7.462 134.281 7.462ZM140.879 14H141.929L143.413 7.952H143.441L144.995 14H146.045L147.991 6.93H147.151L145.569 13.118H145.541L143.973 6.93H142.937L141.439 13.118H141.411L139.829 6.93H138.933L140.879 14ZM155.729 14V9.562C155.729 7.98 156.499 7.462 157.255 7.462C158.235 7.462 158.557 8.232 158.557 9.058V14H159.397V9.016C159.397 8.092 159.215 6.79 157.465 6.79C156.709 6.79 156.163 7.21 155.757 7.798H155.729V3.892H154.889V14H155.729ZM167.199 10.64C167.199 8.54 167.199 6.79 164.763 6.79C163.181 6.79 162.327 7.728 162.327 9.772V11.508C162.327 13.65 163.545 14.14 164.763 14.14C166.177 14.14 167.101 13.552 167.199 11.844H166.317C166.331 12.796 165.813 13.468 164.763 13.468C163.433 13.468 163.167 12.166 163.167 11.186V10.64H167.199ZM163.167 9.968C163.167 8.4 163.419 7.462 164.763 7.462C166.107 7.462 166.359 8.4 166.359 9.968H163.167ZM175.502 9.828C175.502 8.078 176.454 7.462 177 7.462C178.386 7.462 178.596 8.624 178.596 10.458C178.596 12.306 178.386 13.468 177 13.468C176.23 13.468 175.502 12.698 175.502 11.088V9.828ZM175.474 6.93H174.662V16.674H175.502V13.202L175.53 13.216C175.964 13.888 176.482 14.14 177 14.14C178.806 14.14 179.436 13.062 179.436 11.228V9.646C179.436 8.722 179.422 6.79 177.21 6.79C176.65 6.79 175.95 7.084 175.502 7.77L175.474 7.784V6.93ZM183.094 14V9.562C183.094 7.98 183.864 7.462 184.62 7.462C185.6 7.462 185.922 8.232 185.922 9.058V14H186.762V9.016C186.762 8.092 186.58 6.79 184.83 6.79C184.074 6.79 183.528 7.21 183.122 7.798H183.094V3.892H182.254V14H183.094ZM192.129 14.14C193.781 14.14 194.565 13.062 194.565 11.228V9.702C194.565 7.868 193.781 6.79 192.129 6.79C190.477 6.79 189.693 7.868 189.693 9.702V11.228C189.693 13.062 190.477 14.14 192.129 14.14ZM192.129 7.462C193.515 7.462 193.725 8.624 193.725 10.458C193.725 12.306 193.515 13.468 192.129 13.468C190.743 13.468 190.533 12.306 190.533 10.458C190.533 8.624 190.743 7.462 192.129 7.462ZM198 7.602V12.656C198 13.524 198.336 14.028 199.47 14.028C199.736 14.028 200.016 14.014 200.268 13.986V13.258C200.086 13.286 199.89 13.3 199.61 13.3C198.938 13.3 198.84 13.076 198.84 12.138V7.602H200.268V6.93H198.84V5.11L198 5.474V6.93H196.866V7.602H198ZM205.046 14.14C206.698 14.14 207.482 13.062 207.482 11.228V9.702C207.482 7.868 206.698 6.79 205.046 6.79C203.394 6.79 202.61 7.868 202.61 9.702V11.228C202.61 13.062 203.394 14.14 205.046 14.14ZM205.046 7.462C206.432 7.462 206.642 8.624 206.642 10.458C206.642 12.306 206.432 13.468 205.046 13.468C203.66 13.468 203.45 12.306 203.45 10.458C203.45 8.624 203.66 7.462 205.046 7.462ZM212.471 7.462C213.255 7.462 214.053 8.022 214.053 9.506C214.053 11.578 213.997 11.9 213.787 12.446C213.661 12.782 213.213 13.244 212.513 13.244C210.987 13.244 210.987 11.774 210.987 10.304C210.987 9.254 211.015 7.462 212.471 7.462ZM214.109 7.812L214.081 7.784C213.773 7.154 213.059 6.79 212.345 6.79C210.917 6.79 210.427 7.896 210.357 8.19C210.161 8.946 210.147 8.96 210.147 10.598C210.147 12.166 210.287 13.916 212.317 13.916C212.989 13.916 213.661 13.664 214.025 13.062H214.053C214.053 15.176 214.151 16.058 212.513 16.058C211.729 16.058 211.127 15.582 211.183 14.77H210.343C210.287 15.484 210.637 16.73 212.401 16.73C214.417 16.73 214.893 15.806 214.893 14.252V8.302C214.893 7.938 214.907 7.588 214.935 6.916H214.109V7.812ZM218.93 6.93H218.09V14H218.93V9.45C218.93 8.26 219.714 7.546 220.904 7.644V6.79C220.05 6.79 219.308 7.21 218.958 7.882H218.93V6.93ZM226.928 11.676C226.928 12.6 226.144 13.468 225.178 13.468C224.31 13.468 223.904 12.81 223.904 12.012C223.904 10.29 225.724 10.43 226.928 10.388V11.676ZM226.984 14H227.852C227.768 13.174 227.768 12.726 227.768 12.222V8.666C227.768 6.86 226.284 6.79 225.57 6.79C224.338 6.79 223.288 7.322 223.218 8.68H224.114C224.114 7.84 224.73 7.462 225.5 7.462C226.62 7.462 226.928 8.092 226.928 9.128V9.716C225.5 9.828 223.008 9.576 223.008 12.054C223.008 13.286 223.694 14.14 224.954 14.14C225.822 14.14 226.508 13.804 226.956 13.132H226.984V14ZM231.819 9.828C231.819 8.078 232.771 7.462 233.317 7.462C234.703 7.462 234.913 8.624 234.913 10.458C234.913 12.306 234.703 13.468 233.317 13.468C232.547 13.468 231.819 12.698 231.819 11.088V9.828ZM231.791 6.93H230.979V16.674H231.819V13.202L231.847 13.216C232.281 13.888 232.799 14.14 233.317 14.14C235.123 14.14 235.753 13.062 235.753 11.228V9.646C235.753 8.722 235.739 6.79 233.527 6.79C232.967 6.79 232.267 7.084 231.819 7.77L231.791 7.784V6.93ZM239.412 14V9.562C239.412 7.98 240.182 7.462 240.938 7.462C241.918 7.462 242.24 8.232 242.24 9.058V14H243.08V9.016C243.08 8.092 242.898 6.79 241.148 6.79C240.392 6.79 239.846 7.21 239.44 7.798H239.412V3.892H238.572V14H239.412ZM250.882 10.64C250.882 8.54 250.882 6.79 248.446 6.79C246.864 6.79 246.01 7.728 246.01 9.772V11.508C246.01 13.65 247.228 14.14 248.446 14.14C249.86 14.14 250.784 13.552 250.882 11.844H250C250.014 12.796 249.496 13.468 248.446 13.468C247.116 13.468 246.85 12.166 246.85 11.186V10.64H250.882ZM246.85 9.968C246.85 8.4 247.102 7.462 248.446 7.462C249.79 7.462 250.042 8.4 250.042 9.968H246.85ZM255.927 13.468C255.017 13.468 254.387 13.118 254.387 10.486C254.387 8.834 254.387 7.462 255.899 7.462C257.481 7.462 257.481 9.422 257.481 9.842V11.102C257.481 12.824 256.725 13.468 255.927 13.468ZM257.565 14H258.377C258.335 13.762 258.293 13.3 258.293 12.6V3.892H257.453V7.644L257.425 7.63C256.991 7.084 256.361 6.79 255.717 6.79C253.547 6.79 253.547 9.1 253.547 10.458C253.547 12.11 253.659 14.14 255.703 14.14C256.529 14.14 257.061 13.79 257.495 13.118L257.523 13.104L257.565 14ZM266.637 16.674H267.463L270.389 6.93H269.549L267.883 12.726H267.855L266.133 6.93H265.223L267.463 14.014L266.637 16.674ZM275.033 14.14C276.685 14.14 277.469 13.062 277.469 11.228V9.702C277.469 7.868 276.685 6.79 275.033 6.79C273.381 6.79 272.597 7.868 272.597 9.702V11.228C272.597 13.062 273.381 14.14 275.033 14.14ZM275.033 7.462C276.419 7.462 276.629 8.624 276.629 10.458C276.629 12.306 276.419 13.468 275.033 13.468C273.647 13.468 273.437 12.306 273.437 10.458C273.437 8.624 273.647 7.462 275.033 7.462ZM284.011 6.93V11.914C284.011 12.404 283.605 13.468 282.471 13.468C281.253 13.468 281.295 11.984 281.295 11.788V6.93H280.455V11.928C280.455 13.076 280.861 14.14 282.317 14.14C283.101 14.14 283.605 13.818 284.095 13.216H284.123V14H284.851V6.93H284.011ZM288.86 9.562C288.86 7.98 289.63 7.462 290.386 7.462C291.366 7.462 291.688 8.232 291.688 9.058V14H292.528V9.016C292.528 8.092 292.346 6.79 290.596 6.79C289.84 6.79 289.294 7.21 288.888 7.798H288.86V6.93H288.02V14H288.86V9.562ZM297.699 7.462C298.483 7.462 299.281 8.022 299.281 9.506C299.281 11.578 299.225 11.9 299.015 12.446C298.889 12.782 298.441 13.244 297.741 13.244C296.215 13.244 296.215 11.774 296.215 10.304C296.215 9.254 296.243 7.462 297.699 7.462ZM299.337 7.812L299.309 7.784C299.001 7.154 298.287 6.79 297.573 6.79C296.145 6.79 295.655 7.896 295.585 8.19C295.389 8.946 295.375 8.96 295.375 10.598C295.375 12.166 295.515 13.916 297.545 13.916C298.217 13.916 298.889 13.664 299.253 13.062H299.281C299.281 15.176 299.379 16.058 297.741 16.058C296.957 16.058 296.355 15.582 296.411 14.77H295.571C295.515 15.484 295.865 16.73 297.629 16.73C299.645 16.73 300.121 15.806 300.121 14.252V8.302C300.121 7.938 300.135 7.588 300.163 6.916H299.337V7.812ZM310.285 3.892L307.093 14H307.989L308.787 11.34H312.749L313.561 14H314.499L311.349 3.892H310.285ZM309.053 10.584L310.761 4.872H310.789L312.511 10.584H309.053ZM317.77 9.45C317.77 8.526 318.176 7.462 319.24 7.462C320.066 7.462 320.318 8.246 320.332 8.946V14H321.172V9.45C321.172 8.526 321.578 7.462 322.642 7.462C323.468 7.462 323.72 8.246 323.734 8.946V14H324.574V8.736C324.532 7.602 323.916 6.79 322.74 6.79C321.956 6.79 321.354 7.196 321.004 7.896C320.766 7.196 320.122 6.79 319.394 6.79C318.61 6.79 318.05 7.224 317.714 7.798H317.686V6.916H316.93V14H317.77V9.45ZM332.372 10.64C332.372 8.54 332.372 6.79 329.936 6.79C328.354 6.79 327.5 7.728 327.5 9.772V11.508C327.5 13.65 328.718 14.14 329.936 14.14C331.35 14.14 332.274 13.552 332.372 11.844H331.49C331.504 12.796 330.986 13.468 329.936 13.468C328.606 13.468 328.34 12.166 328.34 11.186V10.64H332.372ZM328.34 9.968C328.34 8.4 328.592 7.462 329.936 7.462C331.28 7.462 331.532 8.4 331.532 9.968H328.34ZM336.199 6.93H335.359V14H336.199V9.45C336.199 8.26 336.983 7.546 338.173 7.644V6.79C337.319 6.79 336.577 7.21 336.227 7.882H336.199V6.93ZM341.719 14V6.93H340.879V14H341.719ZM341.817 4.956V3.892H340.781V4.956H341.817ZM349.093 8.96C349.163 7.476 348.337 6.79 347.119 6.79C346.153 6.79 345.355 7.154 344.991 8.162C344.809 8.694 344.781 9.8 344.781 10.5C344.781 12.25 344.781 14.14 347.175 14.14C347.833 14.14 349.177 13.818 349.107 11.914H348.267C348.225 12.768 348.085 13.468 346.979 13.468C345.677 13.468 345.677 11.774 345.677 10.5C345.677 9.562 345.761 8.596 345.873 8.274C346.055 7.756 346.489 7.462 347.007 7.462C347.973 7.462 348.295 8.078 348.253 8.96H349.093ZM355.542 11.676C355.542 12.6 354.758 13.468 353.792 13.468C352.924 13.468 352.518 12.81 352.518 12.012C352.518 10.29 354.338 10.43 355.542 10.388V11.676ZM355.598 14H356.466C356.382 13.174 356.382 12.726 356.382 12.222V8.666C356.382 6.86 354.898 6.79 354.184 6.79C352.952 6.79 351.902 7.322 351.832 8.68H352.728C352.728 7.84 353.344 7.462 354.114 7.462C355.234 7.462 355.542 8.092 355.542 9.128V9.716C354.114 9.828 351.622 9.576 351.622 12.054C351.622 13.286 352.308 14.14 353.568 14.14C354.436 14.14 355.122 13.804 355.57 13.132H355.598V14ZM359.733 6.79H360.461V3.892H359.733V6.79ZM367.702 12.138C367.702 9.772 364.524 10.248 364.524 8.484C364.524 7.854 365 7.462 365.602 7.462C366.554 7.462 366.792 7.938 366.834 8.834H367.66C367.66 7.756 367.212 6.79 365.812 6.79C364.58 6.79 363.684 7.252 363.684 8.554C363.684 10.892 366.862 10.416 366.862 12.264C366.862 13.048 366.47 13.51 365.658 13.51C364.58 13.51 364.356 12.866 364.356 11.9H363.502C363.488 13.398 364.09 14.14 365.616 14.14C366.932 14.14 367.702 13.468 367.702 12.138ZM10.912 29.462C11.696 29.462 12.494 30.022 12.494 31.506C12.494 33.578 12.438 33.9 12.228 34.446C12.102 34.782 11.654 35.244 10.954 35.244C9.428 35.244 9.428 33.774 9.428 32.304C9.428 31.254 9.456 29.462 10.912 29.462ZM12.55 29.812L12.522 29.784C12.214 29.154 11.5 28.79 10.786 28.79C9.358 28.79 8.868 29.896 8.798 30.19C8.602 30.946 8.588 30.96 8.588 32.598C8.588 34.166 8.728 35.916 10.758 35.916C11.43 35.916 12.102 35.664 12.466 35.062H12.494C12.494 37.176 12.592 38.058 10.954 38.058C10.17 38.058 9.568 37.582 9.624 36.77H8.784C8.728 37.484 9.078 38.73 10.842 38.73C12.858 38.73 13.334 37.806 13.334 36.252V30.302C13.334 29.938 13.348 29.588 13.376 28.916H12.55V29.812ZM20.0867 28.93V33.914C20.0867 34.404 19.6807 35.468 18.5467 35.468C17.3287 35.468 17.3707 33.984 17.3707 33.788V28.93H16.5307V33.928C16.5307 35.076 16.9367 36.14 18.3927 36.14C19.1767 36.14 19.6807 35.818 20.1707 35.216H20.1987V36H20.9267V28.93H20.0867ZM24.9354 31.562C24.9354 29.98 25.7054 29.462 26.4614 29.462C27.4414 29.462 27.7634 30.232 27.7634 31.058V36H28.6034V31.016C28.6034 30.092 28.4214 28.79 26.6714 28.79C25.9154 28.79 25.3694 29.21 24.9634 29.798H24.9354V28.93H24.0954V36H24.9354V31.562ZM40.2096 30.96C40.2796 29.476 39.4536 28.79 38.2356 28.79C37.2696 28.79 36.4716 29.154 36.1076 30.162C35.9256 30.694 35.8976 31.8 35.8976 32.5C35.8976 34.25 35.8976 36.14 38.2916 36.14C38.9496 36.14 40.2936 35.818 40.2236 33.914H39.3836C39.3416 34.768 39.2016 35.468 38.0956 35.468C36.7936 35.468 36.7936 33.774 36.7936 32.5C36.7936 31.562 36.8776 30.596 36.9896 30.274C37.1716 29.756 37.6056 29.462 38.1236 29.462C39.0896 29.462 39.4116 30.078 39.3696 30.96H40.2096ZM46.673 28.93V33.914C46.673 34.404 46.267 35.468 45.133 35.468C43.915 35.468 43.957 33.984 43.957 33.788V28.93H43.117V33.928C43.117 35.076 43.523 36.14 44.979 36.14C45.763 36.14 46.267 35.818 46.757 35.216H46.785V36H47.513V28.93H46.673ZM51.8017 36V25.892H50.9617V36H51.8017ZM55.6892 29.602V34.656C55.6892 35.524 56.0252 36.028 57.1592 36.028C57.4252 36.028 57.7052 36.014 57.9572 35.986V35.258C57.7752 35.286 57.5792 35.3 57.2992 35.3C56.6272 35.3 56.5292 35.076 56.5292 34.138V29.602H57.9572V28.93H56.5292V27.11L55.6892 27.474V28.93H54.5552V29.602H55.6892ZM64.0937 28.93V33.914C64.0937 34.404 63.6877 35.468 62.5537 35.468C61.3357 35.468 61.3777 33.984 61.3777 33.788V28.93H60.5377V33.928C60.5377 35.076 60.9437 36.14 62.3997 36.14C63.1837 36.14 63.6877 35.818 64.1777 35.216H64.2057V36H64.9337V28.93H64.0937ZM68.9984 28.93H68.1584V36H68.9984V31.45C68.9984 30.26 69.7824 29.546 70.9724 29.644V28.79C70.1184 28.79 69.3764 29.21 69.0264 29.882H68.9984V28.93ZM78.0889 32.64C78.0889 30.54 78.0889 28.79 75.6529 28.79C74.0709 28.79 73.2169 29.728 73.2169 31.772V33.508C73.2169 35.65 74.4349 36.14 75.6529 36.14C77.0669 36.14 77.9909 35.552 78.0889 33.844H77.2069C77.2209 34.796 76.7029 35.468 75.6529 35.468C74.3229 35.468 74.0569 34.166 74.0569 33.186V32.64H78.0889ZM74.0569 31.968C74.0569 30.4 74.3089 29.462 75.6529 29.462C76.9969 29.462 77.2489 30.4 77.2489 31.968H74.0569ZM81.0616 28.426H81.8036L82.6436 25.892H81.6216L81.0616 28.426ZM83.1336 28.426H83.8756L84.7156 25.892H83.6936L83.1336 28.426ZM93.2325 31.828C93.2325 30.078 94.1845 29.462 94.7305 29.462C96.1165 29.462 96.3265 30.624 96.3265 32.458C96.3265 34.306 96.1165 35.468 94.7305 35.468C93.9605 35.468 93.2325 34.698 93.2325 33.088V31.828ZM93.2045 28.93H92.3925V38.674H93.2325V35.202L93.2605 35.216C93.6945 35.888 94.2125 36.14 94.7305 36.14C96.5365 36.14 97.1665 35.062 97.1665 33.228V31.646C97.1665 30.722 97.1525 28.79 94.9405 28.79C94.3805 28.79 93.6805 29.084 93.2325 29.77L93.2045 29.784V28.93ZM102.239 36.14C103.891 36.14 104.675 35.062 104.675 33.228V31.702C104.675 29.868 103.891 28.79 102.239 28.79C100.587 28.79 99.8032 29.868 99.8032 31.702V33.228C99.8032 35.062 100.587 36.14 102.239 36.14ZM102.239 29.462C103.625 29.462 103.835 30.624 103.835 32.458C103.835 34.306 103.625 35.468 102.239 35.468C100.853 35.468 100.643 34.306 100.643 32.458C100.643 30.624 100.853 29.462 102.239 29.462ZM108.502 28.93H107.662V36H108.502V31.45C108.502 30.26 109.286 29.546 110.476 29.644V28.79C109.622 28.79 108.88 29.21 108.53 29.882H108.502V28.93ZM113.406 29.602V34.656C113.406 35.524 113.742 36.028 114.876 36.028C115.142 36.028 115.422 36.014 115.674 35.986V35.258C115.492 35.286 115.296 35.3 115.016 35.3C114.344 35.3 114.246 35.076 114.246 34.138V29.602H115.674V28.93H114.246V27.11L113.406 27.474V28.93H112.272V29.602H113.406ZM119.095 28.93H118.255V36H119.095V31.45C119.095 30.26 119.879 29.546 121.069 29.644V28.79C120.215 28.79 119.473 29.21 119.123 29.882H119.095V28.93ZM127.093 33.676C127.093 34.6 126.309 35.468 125.343 35.468C124.475 35.468 124.069 34.81 124.069 34.012C124.069 32.29 125.889 32.43 127.093 32.388V33.676ZM127.149 36H128.017C127.933 35.174 127.933 34.726 127.933 34.222V30.666C127.933 28.86 126.449 28.79 125.735 28.79C124.503 28.79 123.453 29.322 123.383 30.68H124.279C124.279 29.84 124.895 29.462 125.665 29.462C126.785 29.462 127.093 30.092 127.093 31.128V31.716C125.665 31.828 123.173 31.576 123.173 34.054C123.173 35.286 123.859 36.14 125.119 36.14C125.987 36.14 126.673 35.804 127.121 35.132H127.149V36ZM131.816 38.674H132.642L135.568 28.93H134.728L133.062 34.726H133.034L131.312 28.93H130.402L132.642 36.014L131.816 38.674ZM141.92 34.138C141.92 31.772 138.742 32.248 138.742 30.484C138.742 29.854 139.218 29.462 139.82 29.462C140.772 29.462 141.01 29.938 141.052 30.834H141.878C141.878 29.756 141.43 28.79 140.03 28.79C138.798 28.79 137.902 29.252 137.902 30.554C137.902 32.892 141.08 32.416 141.08 34.264C141.08 35.048 140.688 35.51 139.876 35.51C138.798 35.51 138.574 34.866 138.574 33.9H137.72C137.706 35.398 138.308 36.14 139.834 36.14C141.15 36.14 141.92 35.468 141.92 34.138ZM149.806 29.602V34.656C149.806 35.524 150.142 36.028 151.276 36.028C151.542 36.028 151.822 36.014 152.074 35.986V35.258C151.892 35.286 151.696 35.3 151.416 35.3C150.744 35.3 150.646 35.076 150.646 34.138V29.602H152.074V28.93H150.646V27.11L149.806 27.474V28.93H148.672V29.602H149.806ZM155.439 36V31.562C155.439 29.98 156.209 29.462 156.965 29.462C157.945 29.462 158.267 30.232 158.267 31.058V36H159.107V31.016C159.107 30.092 158.925 28.79 157.175 28.79C156.419 28.79 155.873 29.21 155.467 29.798H155.439V25.892H154.599V36H155.439ZM166.91 32.64C166.91 30.54 166.91 28.79 164.474 28.79C162.892 28.79 162.038 29.728 162.038 31.772V33.508C162.038 35.65 163.256 36.14 164.474 36.14C165.888 36.14 166.812 35.552 166.91 33.844H166.028C166.042 34.796 165.524 35.468 164.474 35.468C163.144 35.468 162.878 34.166 162.878 33.186V32.64H166.91ZM162.878 31.968C162.878 30.4 163.13 29.462 164.474 29.462C165.818 29.462 166.07 30.4 166.07 31.968H162.878ZM176.402 29.462C177.186 29.462 177.984 30.022 177.984 31.506C177.984 33.578 177.928 33.9 177.718 34.446C177.592 34.782 177.144 35.244 176.444 35.244C174.918 35.244 174.918 33.774 174.918 32.304C174.918 31.254 174.946 29.462 176.402 29.462ZM178.04 29.812L178.012 29.784C177.704 29.154 176.99 28.79 176.276 28.79C174.848 28.79 174.358 29.896 174.288 30.19C174.092 30.946 174.078 30.96 174.078 32.598C174.078 34.166 174.218 35.916 176.248 35.916C176.92 35.916 177.592 35.664 177.956 35.062H177.984C177.984 37.176 178.082 38.058 176.444 38.058C175.66 38.058 175.058 37.582 175.114 36.77H174.274C174.218 37.484 174.568 38.73 176.332 38.73C178.348 38.73 178.824 37.806 178.824 36.252V30.302C178.824 29.938 178.838 29.588 178.866 28.916H178.04V29.812ZM185.577 28.93V33.914C185.577 34.404 185.171 35.468 184.037 35.468C182.819 35.468 182.861 33.984 182.861 33.788V28.93H182.021V33.928C182.021 35.076 182.427 36.14 183.883 36.14C184.667 36.14 185.171 35.818 185.661 35.216H185.689V36H186.417V28.93H185.577ZM190.425 31.562C190.425 29.98 191.195 29.462 191.951 29.462C192.931 29.462 193.253 30.232 193.253 31.058V36H194.093V31.016C194.093 30.092 193.911 28.79 192.161 28.79C191.405 28.79 190.859 29.21 190.453 29.798H190.425V28.93H189.585V36H190.425V31.562ZM205.699 30.96C205.769 29.476 204.943 28.79 203.725 28.79C202.759 28.79 201.961 29.154 201.597 30.162C201.415 30.694 201.387 31.8 201.387 32.5C201.387 34.25 201.387 36.14 203.781 36.14C204.439 36.14 205.783 35.818 205.713 33.914H204.873C204.831 34.768 204.691 35.468 203.585 35.468C202.283 35.468 202.283 33.774 202.283 32.5C202.283 31.562 202.367 30.596 202.479 30.274C202.661 29.756 203.095 29.462 203.613 29.462C204.579 29.462 204.901 30.078 204.859 30.96H205.699ZM212.163 28.93V33.914C212.163 34.404 211.757 35.468 210.623 35.468C209.405 35.468 209.447 33.984 209.447 33.788V28.93H208.607V33.928C208.607 35.076 209.013 36.14 210.469 36.14C211.253 36.14 211.757 35.818 212.247 35.216H212.275V36H213.003V28.93H212.163ZM217.292 36V25.892H216.452V36H217.292ZM221.179 29.602V34.656C221.179 35.524 221.515 36.028 222.649 36.028C222.915 36.028 223.195 36.014 223.447 35.986V35.258C223.265 35.286 223.069 35.3 222.789 35.3C222.117 35.3 222.019 35.076 222.019 34.138V29.602H223.447V28.93H222.019V27.11L221.179 27.474V28.93H220.045V29.602H221.179ZM229.584 28.93V33.914C229.584 34.404 229.178 35.468 228.044 35.468C226.826 35.468 226.868 33.984 226.868 33.788V28.93H226.028V33.928C226.028 35.076 226.434 36.14 227.89 36.14C228.674 36.14 229.178 35.818 229.668 35.216H229.696V36H230.424V28.93H229.584ZM234.488 28.93H233.648V36H234.488V31.45C234.488 30.26 235.272 29.546 236.462 29.644V28.79C235.608 28.79 234.866 29.21 234.516 29.882H234.488V28.93ZM243.579 32.64C243.579 30.54 243.579 28.79 241.143 28.79C239.561 28.79 238.707 29.728 238.707 31.772V33.508C238.707 35.65 239.925 36.14 241.143 36.14C242.557 36.14 243.481 35.552 243.579 33.844H242.697C242.711 34.796 242.193 35.468 241.143 35.468C239.813 35.468 239.547 34.166 239.547 33.186V32.64H243.579ZM239.547 31.968C239.547 30.4 239.799 29.462 241.143 29.462C242.487 29.462 242.739 30.4 242.739 31.968H239.547ZM254.611 33.676C254.611 34.6 253.827 35.468 252.861 35.468C251.993 35.468 251.587 34.81 251.587 34.012C251.587 32.29 253.407 32.43 254.611 32.388V33.676ZM254.667 36H255.535C255.451 35.174 255.451 34.726 255.451 34.222V30.666C255.451 28.86 253.967 28.79 253.253 28.79C252.021 28.79 250.971 29.322 250.901 30.68H251.797C251.797 29.84 252.413 29.462 253.183 29.462C254.303 29.462 254.611 30.092 254.611 31.128V31.716C253.183 31.828 250.691 31.576 250.691 34.054C250.691 35.286 251.377 36.14 252.637 36.14C253.505 36.14 254.191 35.804 254.639 35.132H254.667V36ZM259.46 31.45C259.46 30.526 259.866 29.462 260.93 29.462C261.756 29.462 262.008 30.246 262.022 30.946V36H262.862V31.45C262.862 30.526 263.268 29.462 264.332 29.462C265.158 29.462 265.41 30.246 265.424 30.946V36H266.264V30.736C266.222 29.602 265.606 28.79 264.43 28.79C263.646 28.79 263.044 29.196 262.694 29.896C262.456 29.196 261.812 28.79 261.084 28.79C260.3 28.79 259.74 29.224 259.404 29.798H259.376V28.916H258.62V36H259.46V31.45ZM271.626 36.14C273.278 36.14 274.062 35.062 274.062 33.228V31.702C274.062 29.868 273.278 28.79 271.626 28.79C269.974 28.79 269.19 29.868 269.19 31.702V33.228C269.19 35.062 269.974 36.14 271.626 36.14ZM271.626 29.462C273.012 29.462 273.222 30.624 273.222 32.458C273.222 34.306 273.012 35.468 271.626 35.468C270.24 35.468 270.03 34.306 270.03 32.458C270.03 30.624 270.24 29.462 271.626 29.462ZM277.832 31.562C277.832 29.98 278.602 29.462 279.358 29.462C280.338 29.462 280.66 30.232 280.66 31.058V36H281.5V31.016C281.5 30.092 281.318 28.79 279.568 28.79C278.812 28.79 278.266 29.21 277.86 29.798H277.832V28.93H276.992V36H277.832V31.562ZM286.671 29.462C287.455 29.462 288.253 30.022 288.253 31.506C288.253 33.578 288.197 33.9 287.987 34.446C287.861 34.782 287.413 35.244 286.713 35.244C285.187 35.244 285.187 33.774 285.187 32.304C285.187 31.254 285.215 29.462 286.671 29.462ZM288.309 29.812L288.281 29.784C287.973 29.154 287.259 28.79 286.545 28.79C285.117 28.79 284.627 29.896 284.557 30.19C284.361 30.946 284.347 30.96 284.347 32.598C284.347 34.166 284.487 35.916 286.517 35.916C287.189 35.916 287.861 35.664 288.225 35.062H288.253C288.253 37.176 288.351 38.058 286.713 38.058C285.929 38.058 285.327 37.582 285.383 36.77H284.543C284.487 37.484 284.837 38.73 286.601 38.73C288.617 38.73 289.093 37.806 289.093 36.252V30.302C289.093 29.938 289.107 29.588 289.135 28.916H288.309V29.812ZM297.437 38.674H298.263L301.189 28.93H300.349L298.683 34.726H298.655L296.933 28.93H296.023L298.263 36.014L297.437 38.674ZM305.833 36.14C307.485 36.14 308.269 35.062 308.269 33.228V31.702C308.269 29.868 307.485 28.79 305.833 28.79C304.181 28.79 303.397 29.868 303.397 31.702V33.228C303.397 35.062 304.181 36.14 305.833 36.14ZM305.833 29.462C307.219 29.462 307.429 30.624 307.429 32.458C307.429 34.306 307.219 35.468 305.833 35.468C304.447 35.468 304.237 34.306 304.237 32.458C304.237 30.624 304.447 29.462 305.833 29.462ZM314.811 28.93V33.914C314.811 34.404 314.405 35.468 313.271 35.468C312.053 35.468 312.095 33.984 312.095 33.788V28.93H311.255V33.928C311.255 35.076 311.661 36.14 313.117 36.14C313.901 36.14 314.405 35.818 314.895 35.216H314.923V36H315.651V28.93H314.811ZM319.66 31.562C319.66 29.98 320.43 29.462 321.186 29.462C322.166 29.462 322.488 30.232 322.488 31.058V36H323.328V31.016C323.328 30.092 323.146 28.79 321.396 28.79C320.64 28.79 320.094 29.21 319.688 29.798H319.66V28.93H318.82V36H319.66V31.562ZM328.499 29.462C329.283 29.462 330.081 30.022 330.081 31.506C330.081 33.578 330.025 33.9 329.815 34.446C329.689 34.782 329.241 35.244 328.541 35.244C327.015 35.244 327.015 33.774 327.015 32.304C327.015 31.254 327.043 29.462 328.499 29.462ZM330.137 29.812L330.109 29.784C329.801 29.154 329.087 28.79 328.373 28.79C326.945 28.79 326.455 29.896 326.385 30.19C326.189 30.946 326.175 30.96 326.175 32.598C326.175 34.166 326.315 35.916 328.345 35.916C329.017 35.916 329.689 35.664 330.053 35.062H330.081C330.081 37.176 330.179 38.058 328.541 38.058C327.757 38.058 327.155 37.582 327.211 36.77H326.371C326.315 37.484 326.665 38.73 328.429 38.73C330.445 38.73 330.921 37.806 330.921 36.252V30.302C330.921 29.938 330.935 29.588 330.963 28.916H330.137V29.812ZM338.593 36H339.433V32.15H339.461L341.981 36H343.045L340.371 32.08L342.877 28.93H341.897L339.461 32.052H339.433V25.892H338.593V36ZM346.526 36V28.93H345.686V36H346.526ZM346.624 26.956V25.892H345.588V26.956H346.624ZM352.024 35.468C351.114 35.468 350.484 35.118 350.484 32.486C350.484 30.834 350.484 29.462 351.996 29.462C353.578 29.462 353.578 31.422 353.578 31.842V33.102C353.578 34.824 352.822 35.468 352.024 35.468ZM353.662 36H354.474C354.432 35.762 354.39 35.3 354.39 34.6V25.892H353.55V29.644L353.522 29.63C353.088 29.084 352.458 28.79 351.814 28.79C349.644 28.79 349.644 31.1 349.644 32.458C349.644 34.11 349.756 36.14 351.8 36.14C352.626 36.14 353.158 35.79 353.592 35.118L353.62 35.104L353.662 36ZM361.493 34.138C361.493 31.772 358.315 32.248 358.315 30.484C358.315 29.854 358.791 29.462 359.393 29.462C360.345 29.462 360.583 29.938 360.625 30.834H361.451C361.451 29.756 361.003 28.79 359.603 28.79C358.371 28.79 357.475 29.252 357.475 30.554C357.475 32.892 360.653 32.416 360.653 34.264C360.653 35.048 360.261 35.51 359.449 35.51C358.371 35.51 358.147 34.866 358.147 33.9H357.293C357.279 35.398 357.881 36.14 359.407 36.14C360.723 36.14 361.493 35.468 361.493 34.138ZM364.554 36H365.59V34.936H364.554V36Z" fill="white"/>
</svg>
